G04 #@! TF.GenerationSoftware,KiCad,Pcbnew,7.0.2-6a45011f42~172~ubuntu22.04.1*
G04 #@! TF.CreationDate,2023-05-22T20:20:29+08:00*
G04 #@! TF.ProjectId,panel_4_3,70616e65-6c5f-4345-9f33-2e6b69636164,rev?*
G04 #@! TF.SameCoordinates,Original*
G04 #@! TF.FileFunction,Legend,Top*
G04 #@! TF.FilePolarity,Positive*
%FSLAX46Y46*%
G04 Gerber Fmt 4.6, Leading zero omitted, Abs format (unit mm)*
G04 Created by KiCad (PCBNEW 7.0.2-6a45011f42~172~ubuntu22.04.1) date 2023-05-22 20:20:29*
%MOMM*%
%LPD*%
G01*
G04 APERTURE LIST*
%ADD10C,0.120000*%
%ADD11C,0.152000*%
%ADD12C,0.140000*%
%ADD13C,0.254000*%
%ADD14C,0.200000*%
%ADD15C,0.300000*%
G04 APERTURE END LIST*
D10*
G04 #@! TO.C,C2*
X19022164Y-13545000D02*
X19237836Y-13545000D01*
X19022164Y-14265000D02*
X19237836Y-14265000D01*
G04 #@! TO.C,R11*
X15210000Y-19841359D02*
X15210000Y-20148641D01*
X14450000Y-19841359D02*
X14450000Y-20148641D01*
D11*
G04 #@! TO.C,LED1*
X51810000Y-80550000D02*
X51556000Y-80550000D01*
X51810000Y-80430000D02*
X51810000Y-80550000D01*
X51810000Y-79630000D02*
X51810000Y-79670000D01*
X51810000Y-78830000D02*
X51810000Y-78870000D01*
X51810000Y-78010000D02*
X51810000Y-78070000D01*
X51556000Y-80550000D02*
X49270000Y-80550000D01*
X49270000Y-80550000D02*
X49270000Y-80430000D01*
X49270000Y-79670000D02*
X49270000Y-79630000D01*
X49270000Y-78870000D02*
X49270000Y-78830000D01*
X49270000Y-78070000D02*
X49270000Y-78010000D01*
X49270000Y-78010000D02*
X51810000Y-78010000D01*
D12*
X52290000Y-80090000D02*
G75*
G03*
X52290000Y-80090000I-70000J0D01*
G01*
D10*
X50625000Y-78585000D02*
X50355000Y-78455000D01*
X50625000Y-78335000D01*
X50625000Y-78585000D01*
G36*
X50625000Y-78585000D02*
G01*
X50355000Y-78455000D01*
X50625000Y-78335000D01*
X50625000Y-78585000D01*
G37*
G04 #@! TO.C,R1*
X52730000Y-52428641D02*
X52730000Y-52121359D01*
X53490000Y-52428641D02*
X53490000Y-52121359D01*
G04 #@! TO.C,R4*
X21035000Y-16596359D02*
X21035000Y-16903641D01*
X20275000Y-16596359D02*
X20275000Y-16903641D01*
G04 #@! TO.C,C12*
X60502164Y-8155000D02*
X60717836Y-8155000D01*
X60502164Y-8875000D02*
X60717836Y-8875000D01*
G04 #@! TO.C,R9*
X61088000Y-76841359D02*
X61088000Y-77148641D01*
X60328000Y-76841359D02*
X60328000Y-77148641D01*
G04 #@! TO.C,C6*
X64385000Y-18122836D02*
X64385000Y-17907164D01*
X65105000Y-18122836D02*
X65105000Y-17907164D01*
G04 #@! TO.C,R7*
X28455000Y-59343641D02*
X28455000Y-59036359D01*
X29215000Y-59343641D02*
X29215000Y-59036359D01*
G04 #@! TO.C,R10*
X14149000Y-19841359D02*
X14149000Y-20148641D01*
X13389000Y-19841359D02*
X13389000Y-20148641D01*
D13*
G04 #@! TO.C,U1*
X15395000Y-47905000D02*
X15395000Y-48474000D01*
X14826000Y-47905000D02*
X15395000Y-47905000D01*
X14826000Y-47905000D02*
X15395000Y-48474000D01*
X8395000Y-47905000D02*
X8964000Y-47905000D01*
X8395000Y-48005000D02*
X8395000Y-47905000D01*
X15395000Y-48164000D02*
X15298000Y-48164000D01*
X15298000Y-48164000D02*
X15039000Y-47905000D01*
X8395000Y-48474000D02*
X8395000Y-48005000D01*
X15395000Y-54336000D02*
X15395000Y-54905000D01*
X15395000Y-54905000D02*
X14826000Y-54905000D01*
X8964000Y-54905000D02*
X8395000Y-54905000D01*
X8395000Y-54905000D02*
X8395000Y-54336000D01*
X15722000Y-47405000D02*
G75*
G03*
X15722000Y-47405000I-127000J0D01*
G01*
D11*
G04 #@! TO.C,U2*
X19691000Y-31468500D02*
X19691000Y-28316500D01*
X17539000Y-28316500D02*
X17539000Y-31468500D01*
D14*
X19477000Y-27860500D02*
G75*
G03*
X19477000Y-27860500I-100000J0D01*
G01*
D10*
G04 #@! TO.C,R3*
X68275000Y-52883642D02*
X68275000Y-52576360D01*
X69035000Y-52883642D02*
X69035000Y-52576360D01*
G04 #@! TO.C,R4*
X45035000Y-54596359D02*
X45035000Y-54903641D01*
X44275000Y-54596359D02*
X44275000Y-54903641D01*
G04 #@! TO.C,C8*
X40685000Y-57887164D02*
X40685000Y-58102836D01*
X39965000Y-57887164D02*
X39965000Y-58102836D01*
D11*
G04 #@! TO.C,L1*
X46863000Y-61441000D02*
X44577000Y-61441000D01*
X44577000Y-59409000D02*
X46863000Y-59409000D01*
D13*
G04 #@! TO.C,SW1*
X44019000Y-64886000D02*
X40971000Y-64886000D01*
X44019000Y-62854000D02*
X40971000Y-62854000D01*
X41986509Y-63615748D02*
G75*
G03*
X42093001Y-63468001I508491J-254252D01*
G01*
D10*
G04 #@! TO.C,C11*
X39682164Y-27150000D02*
X39897836Y-27150000D01*
X39682164Y-27870000D02*
X39897836Y-27870000D01*
G04 #@! TO.C,C1*
X26657164Y-53395000D02*
X26872836Y-53395000D01*
X26657164Y-54115000D02*
X26872836Y-54115000D01*
G04 #@! TO.C,R4*
X45035000Y-73596359D02*
X45035000Y-73903641D01*
X44275000Y-73596359D02*
X44275000Y-73903641D01*
G04 #@! TO.C,C3*
X26642164Y-10315000D02*
X26857836Y-10315000D01*
X26642164Y-11035000D02*
X26857836Y-11035000D01*
G04 #@! TO.C,R3*
X44275000Y-52883642D02*
X44275000Y-52576360D01*
X45035000Y-52883642D02*
X45035000Y-52576360D01*
D11*
G04 #@! TO.C,LED1*
X3810000Y-23550000D02*
X3556000Y-23550000D01*
X3810000Y-23430000D02*
X3810000Y-23550000D01*
X3810000Y-22630000D02*
X3810000Y-22670000D01*
X3810000Y-21830000D02*
X3810000Y-21870000D01*
X3810000Y-21010000D02*
X3810000Y-21070000D01*
X3556000Y-23550000D02*
X1270000Y-23550000D01*
X1270000Y-23550000D02*
X1270000Y-23430000D01*
X1270000Y-22670000D02*
X1270000Y-22630000D01*
X1270000Y-21870000D02*
X1270000Y-21830000D01*
X1270000Y-21070000D02*
X1270000Y-21010000D01*
X1270000Y-21010000D02*
X3810000Y-21010000D01*
D12*
X4290000Y-23090000D02*
G75*
G03*
X4290000Y-23090000I-70000J0D01*
G01*
D10*
X2625000Y-21585000D02*
X2355000Y-21455000D01*
X2625000Y-21335000D01*
X2625000Y-21585000D01*
G36*
X2625000Y-21585000D02*
G01*
X2355000Y-21455000D01*
X2625000Y-21335000D01*
X2625000Y-21585000D01*
G37*
D11*
G04 #@! TO.C,X1*
X4152000Y-34506000D02*
X4660000Y-34506000D01*
X4660000Y-34506000D02*
X4660000Y-33998000D01*
X1104000Y-34249000D02*
X1104000Y-30188000D01*
X4434000Y-34249000D02*
X1104000Y-34249000D01*
X1104000Y-30188000D02*
X2755000Y-30188000D01*
X2755000Y-30188000D02*
X4406000Y-30188000D01*
X4406000Y-30188000D02*
X4434000Y-34249000D01*
X4406000Y-30188000D02*
X4406000Y-30188000D01*
D10*
G04 #@! TO.C,C5*
X67027164Y-54920000D02*
X67242836Y-54920000D01*
X67027164Y-55640000D02*
X67242836Y-55640000D01*
G04 #@! TO.C,R2*
X31525000Y-18523641D02*
X31525000Y-18216359D01*
X32285000Y-18523641D02*
X32285000Y-18216359D01*
D13*
G04 #@! TO.C,SW1*
X20019000Y-64886000D02*
X16971000Y-64886000D01*
X20019000Y-62854000D02*
X16971000Y-62854000D01*
X17986509Y-63615748D02*
G75*
G03*
X18093001Y-63468001I508491J-254252D01*
G01*
D10*
G04 #@! TO.C,C17*
X41907164Y-77535000D02*
X42122836Y-77535000D01*
X41907164Y-78255000D02*
X42122836Y-78255000D01*
G04 #@! TO.C,R5*
X21045000Y-65651359D02*
X21045000Y-65958641D01*
X20285000Y-65651359D02*
X20285000Y-65958641D01*
G04 #@! TO.C,C18*
X17907164Y-21585000D02*
X18122836Y-21585000D01*
X17907164Y-22305000D02*
X18122836Y-22305000D01*
G04 #@! TO.C,C17*
X17907164Y-58535000D02*
X18122836Y-58535000D01*
X17907164Y-59255000D02*
X18122836Y-59255000D01*
G04 #@! TO.C,R12*
X25396359Y-44015000D02*
X25703641Y-44015000D01*
X25396359Y-44775000D02*
X25703641Y-44775000D01*
G04 #@! TO.C,C8*
X16685000Y-57887164D02*
X16685000Y-58102836D01*
X15965000Y-57887164D02*
X15965000Y-58102836D01*
G04 #@! TO.C,C14*
X45025000Y-50647164D02*
X45025000Y-50862836D01*
X44305000Y-50647164D02*
X44305000Y-50862836D01*
G04 #@! TO.C,R7*
X52455000Y-40343641D02*
X52455000Y-40036359D01*
X53215000Y-40343641D02*
X53215000Y-40036359D01*
G04 #@! TO.C,C8*
X64685000Y-76887164D02*
X64685000Y-77102836D01*
X63965000Y-76887164D02*
X63965000Y-77102836D01*
G04 #@! TO.C,C4*
X6530000Y-54152164D02*
X6530000Y-54367836D01*
X5810000Y-54152164D02*
X5810000Y-54367836D01*
G04 #@! TO.C,C17*
X65907164Y-58535000D02*
X66122836Y-58535000D01*
X65907164Y-59255000D02*
X66122836Y-59255000D01*
G04 #@! TO.C,R2*
X55525000Y-37523641D02*
X55525000Y-37216359D01*
X56285000Y-37523641D02*
X56285000Y-37216359D01*
D11*
G04 #@! TO.C,LED1*
X27810000Y-61550000D02*
X27556000Y-61550000D01*
X27810000Y-61430000D02*
X27810000Y-61550000D01*
X27810000Y-60630000D02*
X27810000Y-60670000D01*
X27810000Y-59830000D02*
X27810000Y-59870000D01*
X27810000Y-59010000D02*
X27810000Y-59070000D01*
X27556000Y-61550000D02*
X25270000Y-61550000D01*
X25270000Y-61550000D02*
X25270000Y-61430000D01*
X25270000Y-60670000D02*
X25270000Y-60630000D01*
X25270000Y-59870000D02*
X25270000Y-59830000D01*
X25270000Y-59070000D02*
X25270000Y-59010000D01*
X25270000Y-59010000D02*
X27810000Y-59010000D01*
D12*
X28290000Y-61090000D02*
G75*
G03*
X28290000Y-61090000I-70000J0D01*
G01*
D10*
X26625000Y-59585000D02*
X26355000Y-59455000D01*
X26625000Y-59335000D01*
X26625000Y-59585000D01*
G36*
X26625000Y-59585000D02*
G01*
X26355000Y-59455000D01*
X26625000Y-59335000D01*
X26625000Y-59585000D01*
G37*
G04 #@! TO.C,R9*
X37088000Y-38841359D02*
X37088000Y-39148641D01*
X36328000Y-38841359D02*
X36328000Y-39148641D01*
G04 #@! TO.C,C5*
X43027164Y-35920000D02*
X43242836Y-35920000D01*
X43027164Y-36640000D02*
X43242836Y-36640000D01*
D13*
G04 #@! TO.C,U4*
X20249000Y-38936000D02*
X20249000Y-38052000D01*
X20409000Y-36894000D02*
X22009000Y-36894000D01*
X20449000Y-40112000D02*
X21989000Y-40112000D01*
X22735000Y-40092000D02*
G75*
G03*
X22735000Y-40092000I-64000J0D01*
G01*
D10*
G04 #@! TO.C,R11*
X63210000Y-38841359D02*
X63210000Y-39148641D01*
X62450000Y-38841359D02*
X62450000Y-39148641D01*
G04 #@! TO.C,C5*
X67027164Y-16920000D02*
X67242836Y-16920000D01*
X67027164Y-17640000D02*
X67242836Y-17640000D01*
G04 #@! TO.C,R8*
X60027000Y-38841359D02*
X60027000Y-39148641D01*
X59267000Y-38841359D02*
X59267000Y-39148641D01*
G04 #@! TO.C,R11*
X63210000Y-57841359D02*
X63210000Y-58148641D01*
X62450000Y-57841359D02*
X62450000Y-58148641D01*
G04 #@! TO.C,R8*
X60027000Y-76841359D02*
X60027000Y-77148641D01*
X59267000Y-76841359D02*
X59267000Y-77148641D01*
G04 #@! TO.C,C1*
X50657164Y-15395000D02*
X50872836Y-15395000D01*
X50657164Y-16115000D02*
X50872836Y-16115000D01*
D13*
G04 #@! TO.C,U4*
X20249000Y-57936000D02*
X20249000Y-57052000D01*
X20409000Y-55894000D02*
X22009000Y-55894000D01*
X20449000Y-59112000D02*
X21989000Y-59112000D01*
X22735000Y-59092000D02*
G75*
G03*
X22735000Y-59092000I-64000J0D01*
G01*
D10*
G04 #@! TO.C,C14*
X21025000Y-12647164D02*
X21025000Y-12862836D01*
X20305000Y-12647164D02*
X20305000Y-12862836D01*
D13*
G04 #@! TO.C,U1*
X63395000Y-28905000D02*
X63395000Y-29474000D01*
X62826000Y-28905000D02*
X63395000Y-28905000D01*
X62826000Y-28905000D02*
X63395000Y-29474000D01*
X56395000Y-28905000D02*
X56964000Y-28905000D01*
X56395000Y-29005000D02*
X56395000Y-28905000D01*
X63395000Y-29164000D02*
X63298000Y-29164000D01*
X63298000Y-29164000D02*
X63039000Y-28905000D01*
X56395000Y-29474000D02*
X56395000Y-29005000D01*
X63395000Y-35336000D02*
X63395000Y-35905000D01*
X63395000Y-35905000D02*
X62826000Y-35905000D01*
X56964000Y-35905000D02*
X56395000Y-35905000D01*
X56395000Y-35905000D02*
X56395000Y-35336000D01*
X63722000Y-28405000D02*
G75*
G03*
X63722000Y-28405000I-127000J0D01*
G01*
D11*
G04 #@! TO.C,L1*
X22863000Y-61441000D02*
X20577000Y-61441000D01*
X20577000Y-59409000D02*
X22863000Y-59409000D01*
D10*
G04 #@! TO.C,C3*
X2642164Y-48315000D02*
X2857836Y-48315000D01*
X2642164Y-49035000D02*
X2857836Y-49035000D01*
D11*
G04 #@! TO.C,U2*
X19691000Y-12468500D02*
X19691000Y-9316500D01*
X17539000Y-9316500D02*
X17539000Y-12468500D01*
D14*
X19477000Y-8860500D02*
G75*
G03*
X19477000Y-8860500I-100000J0D01*
G01*
D10*
G04 #@! TO.C,C3*
X50642164Y-48315000D02*
X50857836Y-48315000D01*
X50642164Y-49035000D02*
X50857836Y-49035000D01*
G04 #@! TO.C,R2*
X7525000Y-75523641D02*
X7525000Y-75216359D01*
X8285000Y-75523641D02*
X8285000Y-75216359D01*
G04 #@! TO.C,C4*
X6530000Y-73152164D02*
X6530000Y-73367836D01*
X5810000Y-73152164D02*
X5810000Y-73367836D01*
G04 #@! TO.C,R9*
X13088000Y-19841359D02*
X13088000Y-20148641D01*
X12328000Y-19841359D02*
X12328000Y-20148641D01*
G04 #@! TO.C,C15*
X67250000Y-60532836D02*
X67250000Y-60317164D01*
X67970000Y-60532836D02*
X67970000Y-60317164D01*
G04 #@! TO.C,C14*
X45025000Y-31647164D02*
X45025000Y-31862836D01*
X44305000Y-31647164D02*
X44305000Y-31862836D01*
X45025000Y-12647164D02*
X45025000Y-12862836D01*
X44305000Y-12647164D02*
X44305000Y-12862836D01*
G04 #@! TO.C,C17*
X41907164Y-20535000D02*
X42122836Y-20535000D01*
X41907164Y-21255000D02*
X42122836Y-21255000D01*
D13*
G04 #@! TO.C,U4*
X44249000Y-19936000D02*
X44249000Y-19052000D01*
X44409000Y-17894000D02*
X46009000Y-17894000D01*
X44449000Y-21112000D02*
X45989000Y-21112000D01*
X46735000Y-21092000D02*
G75*
G03*
X46735000Y-21092000I-64000J0D01*
G01*
D10*
G04 #@! TO.C,R7*
X4455000Y-21343641D02*
X4455000Y-21036359D01*
X5215000Y-21343641D02*
X5215000Y-21036359D01*
G04 #@! TO.C,C6*
X16385000Y-75122836D02*
X16385000Y-74907164D01*
X17105000Y-75122836D02*
X17105000Y-74907164D01*
G04 #@! TO.C,R6*
X68285000Y-10943641D02*
X68285000Y-10636359D01*
X69045000Y-10943641D02*
X69045000Y-10636359D01*
G04 #@! TO.C,R7*
X28455000Y-21343641D02*
X28455000Y-21036359D01*
X29215000Y-21343641D02*
X29215000Y-21036359D01*
G04 #@! TO.C,C6*
X40385000Y-37122836D02*
X40385000Y-36907164D01*
X41105000Y-37122836D02*
X41105000Y-36907164D01*
D13*
G04 #@! TO.C,U1*
X15395000Y-28905000D02*
X15395000Y-29474000D01*
X14826000Y-28905000D02*
X15395000Y-28905000D01*
X14826000Y-28905000D02*
X15395000Y-29474000D01*
X8395000Y-28905000D02*
X8964000Y-28905000D01*
X8395000Y-29005000D02*
X8395000Y-28905000D01*
X15395000Y-29164000D02*
X15298000Y-29164000D01*
X15298000Y-29164000D02*
X15039000Y-28905000D01*
X8395000Y-29474000D02*
X8395000Y-29005000D01*
X15395000Y-35336000D02*
X15395000Y-35905000D01*
X15395000Y-35905000D02*
X14826000Y-35905000D01*
X8964000Y-35905000D02*
X8395000Y-35905000D01*
X8395000Y-35905000D02*
X8395000Y-35336000D01*
X15722000Y-28405000D02*
G75*
G03*
X15722000Y-28405000I-127000J0D01*
G01*
D10*
G04 #@! TO.C,C18*
X17907164Y-40585000D02*
X18122836Y-40585000D01*
X17907164Y-41305000D02*
X18122836Y-41305000D01*
G04 #@! TO.C,R7*
X52455000Y-21343641D02*
X52455000Y-21036359D01*
X53215000Y-21343641D02*
X53215000Y-21036359D01*
G04 #@! TO.C,C17*
X17907164Y-77535000D02*
X18122836Y-77535000D01*
X17907164Y-78255000D02*
X18122836Y-78255000D01*
G04 #@! TO.C,C14*
X69025000Y-12647164D02*
X69025000Y-12862836D01*
X68305000Y-12647164D02*
X68305000Y-12862836D01*
D11*
G04 #@! TO.C,L1*
X22863000Y-23441000D02*
X20577000Y-23441000D01*
X20577000Y-21409000D02*
X22863000Y-21409000D01*
D10*
G04 #@! TO.C,C2*
X43022164Y-13545000D02*
X43237836Y-13545000D01*
X43022164Y-14265000D02*
X43237836Y-14265000D01*
G04 #@! TO.C,C10*
X19022164Y-71640000D02*
X19237836Y-71640000D01*
X19022164Y-72360000D02*
X19237836Y-72360000D01*
D11*
G04 #@! TO.C,L1*
X70863000Y-80441000D02*
X68577000Y-80441000D01*
X68577000Y-78409000D02*
X70863000Y-78409000D01*
D10*
G04 #@! TO.C,R1*
X4730000Y-33428641D02*
X4730000Y-33121359D01*
X5490000Y-33428641D02*
X5490000Y-33121359D01*
D13*
G04 #@! TO.C,U4*
X68249000Y-76936000D02*
X68249000Y-76052000D01*
X68409000Y-74894000D02*
X70009000Y-74894000D01*
X68449000Y-78112000D02*
X69989000Y-78112000D01*
X70735000Y-78092000D02*
G75*
G03*
X70735000Y-78092000I-64000J0D01*
G01*
D10*
G04 #@! TO.C,C11*
X63682164Y-46150000D02*
X63897836Y-46150000D01*
X63682164Y-46870000D02*
X63897836Y-46870000D01*
G04 #@! TO.C,R11*
X39210000Y-76841359D02*
X39210000Y-77148641D01*
X38450000Y-76841359D02*
X38450000Y-77148641D01*
D11*
G04 #@! TO.C,L1*
X70863000Y-23441000D02*
X68577000Y-23441000D01*
X68577000Y-21409000D02*
X70863000Y-21409000D01*
D10*
G04 #@! TO.C,C10*
X43022164Y-33640000D02*
X43237836Y-33640000D01*
X43022164Y-34360000D02*
X43237836Y-34360000D01*
G04 #@! TO.C,R7*
X4455000Y-40343641D02*
X4455000Y-40036359D01*
X5215000Y-40343641D02*
X5215000Y-40036359D01*
X28455000Y-40343641D02*
X28455000Y-40036359D01*
X29215000Y-40343641D02*
X29215000Y-40036359D01*
D13*
G04 #@! TO.C,U1*
X39395000Y-66905000D02*
X39395000Y-67474000D01*
X38826000Y-66905000D02*
X39395000Y-66905000D01*
X38826000Y-66905000D02*
X39395000Y-67474000D01*
X32395000Y-66905000D02*
X32964000Y-66905000D01*
X32395000Y-67005000D02*
X32395000Y-66905000D01*
X39395000Y-67164000D02*
X39298000Y-67164000D01*
X39298000Y-67164000D02*
X39039000Y-66905000D01*
X32395000Y-67474000D02*
X32395000Y-67005000D01*
X39395000Y-73336000D02*
X39395000Y-73905000D01*
X39395000Y-73905000D02*
X38826000Y-73905000D01*
X32964000Y-73905000D02*
X32395000Y-73905000D01*
X32395000Y-73905000D02*
X32395000Y-73336000D01*
X39722000Y-66405000D02*
G75*
G03*
X39722000Y-66405000I-127000J0D01*
G01*
D10*
G04 #@! TO.C,R10*
X62149000Y-38841359D02*
X62149000Y-39148641D01*
X61389000Y-38841359D02*
X61389000Y-39148641D01*
G04 #@! TO.C,C18*
X65907164Y-78585000D02*
X66122836Y-78585000D01*
X65907164Y-79305000D02*
X66122836Y-79305000D01*
G04 #@! TO.C,C5*
X43027164Y-73920000D02*
X43242836Y-73920000D01*
X43027164Y-74640000D02*
X43242836Y-74640000D01*
G04 #@! TO.C,C6*
X16385000Y-37122836D02*
X16385000Y-36907164D01*
X17105000Y-37122836D02*
X17105000Y-36907164D01*
G04 #@! TO.C,R11*
X15210000Y-38841359D02*
X15210000Y-39148641D01*
X14450000Y-38841359D02*
X14450000Y-39148641D01*
G04 #@! TO.C,C9*
X16060000Y-74907164D02*
X16060000Y-75122836D01*
X15340000Y-74907164D02*
X15340000Y-75122836D01*
G04 #@! TO.C,C2*
X67022164Y-51545000D02*
X67237836Y-51545000D01*
X67022164Y-52265000D02*
X67237836Y-52265000D01*
D13*
G04 #@! TO.C,SW1*
X44019000Y-45886000D02*
X40971000Y-45886000D01*
X44019000Y-43854000D02*
X40971000Y-43854000D01*
X41986509Y-44615748D02*
G75*
G03*
X42093001Y-44468001I508491J-254252D01*
G01*
D11*
G04 #@! TO.C,U2*
X67691000Y-69468500D02*
X67691000Y-66316500D01*
X65539000Y-66316500D02*
X65539000Y-69468500D01*
D14*
X67477000Y-65860500D02*
G75*
G03*
X67477000Y-65860500I-100000J0D01*
G01*
D10*
G04 #@! TO.C,R8*
X12027000Y-19841359D02*
X12027000Y-20148641D01*
X11267000Y-19841359D02*
X11267000Y-20148641D01*
D11*
G04 #@! TO.C,LED1*
X27810000Y-42550000D02*
X27556000Y-42550000D01*
X27810000Y-42430000D02*
X27810000Y-42550000D01*
X27810000Y-41630000D02*
X27810000Y-41670000D01*
X27810000Y-40830000D02*
X27810000Y-40870000D01*
X27810000Y-40010000D02*
X27810000Y-40070000D01*
X27556000Y-42550000D02*
X25270000Y-42550000D01*
X25270000Y-42550000D02*
X25270000Y-42430000D01*
X25270000Y-41670000D02*
X25270000Y-41630000D01*
X25270000Y-40870000D02*
X25270000Y-40830000D01*
X25270000Y-40070000D02*
X25270000Y-40010000D01*
X25270000Y-40010000D02*
X27810000Y-40010000D01*
D12*
X28290000Y-42090000D02*
G75*
G03*
X28290000Y-42090000I-70000J0D01*
G01*
D10*
X26625000Y-40585000D02*
X26355000Y-40455000D01*
X26625000Y-40335000D01*
X26625000Y-40585000D01*
G36*
X26625000Y-40585000D02*
G01*
X26355000Y-40455000D01*
X26625000Y-40335000D01*
X26625000Y-40585000D01*
G37*
G04 #@! TO.C,R11*
X63210000Y-76841359D02*
X63210000Y-77148641D01*
X62450000Y-76841359D02*
X62450000Y-77148641D01*
G04 #@! TO.C,R10*
X14149000Y-38841359D02*
X14149000Y-39148641D01*
X13389000Y-38841359D02*
X13389000Y-39148641D01*
G04 #@! TO.C,C1*
X2657164Y-15395000D02*
X2872836Y-15395000D01*
X2657164Y-16115000D02*
X2872836Y-16115000D01*
X2657164Y-53395000D02*
X2872836Y-53395000D01*
X2657164Y-54115000D02*
X2872836Y-54115000D01*
G04 #@! TO.C,R4*
X45035000Y-16596359D02*
X45035000Y-16903641D01*
X44275000Y-16596359D02*
X44275000Y-16903641D01*
G04 #@! TO.C,C3*
X50642164Y-67315000D02*
X50857836Y-67315000D01*
X50642164Y-68035000D02*
X50857836Y-68035000D01*
D11*
G04 #@! TO.C,L1*
X22863000Y-42441000D02*
X20577000Y-42441000D01*
X20577000Y-40409000D02*
X22863000Y-40409000D01*
D10*
G04 #@! TO.C,R7*
X4455000Y-78343641D02*
X4455000Y-78036359D01*
X5215000Y-78343641D02*
X5215000Y-78036359D01*
D11*
G04 #@! TO.C,LED1*
X51810000Y-42550000D02*
X51556000Y-42550000D01*
X51810000Y-42430000D02*
X51810000Y-42550000D01*
X51810000Y-41630000D02*
X51810000Y-41670000D01*
X51810000Y-40830000D02*
X51810000Y-40870000D01*
X51810000Y-40010000D02*
X51810000Y-40070000D01*
X51556000Y-42550000D02*
X49270000Y-42550000D01*
X49270000Y-42550000D02*
X49270000Y-42430000D01*
X49270000Y-41670000D02*
X49270000Y-41630000D01*
X49270000Y-40870000D02*
X49270000Y-40830000D01*
X49270000Y-40070000D02*
X49270000Y-40010000D01*
X49270000Y-40010000D02*
X51810000Y-40010000D01*
D12*
X52290000Y-42090000D02*
G75*
G03*
X52290000Y-42090000I-70000J0D01*
G01*
D10*
X50625000Y-40585000D02*
X50355000Y-40455000D01*
X50625000Y-40335000D01*
X50625000Y-40585000D01*
G36*
X50625000Y-40585000D02*
G01*
X50355000Y-40455000D01*
X50625000Y-40335000D01*
X50625000Y-40585000D01*
G37*
G04 #@! TO.C,R10*
X62149000Y-19841359D02*
X62149000Y-20148641D01*
X61389000Y-19841359D02*
X61389000Y-20148641D01*
G04 #@! TO.C,C7*
X58930000Y-57882164D02*
X58930000Y-58097836D01*
X58210000Y-57882164D02*
X58210000Y-58097836D01*
G04 #@! TO.C,C11*
X15682164Y-8150000D02*
X15897836Y-8150000D01*
X15682164Y-8870000D02*
X15897836Y-8870000D01*
D11*
G04 #@! TO.C,LED1*
X3810000Y-80550000D02*
X3556000Y-80550000D01*
X3810000Y-80430000D02*
X3810000Y-80550000D01*
X3810000Y-79630000D02*
X3810000Y-79670000D01*
X3810000Y-78830000D02*
X3810000Y-78870000D01*
X3810000Y-78010000D02*
X3810000Y-78070000D01*
X3556000Y-80550000D02*
X1270000Y-80550000D01*
X1270000Y-80550000D02*
X1270000Y-80430000D01*
X1270000Y-79670000D02*
X1270000Y-79630000D01*
X1270000Y-78870000D02*
X1270000Y-78830000D01*
X1270000Y-78070000D02*
X1270000Y-78010000D01*
X1270000Y-78010000D02*
X3810000Y-78010000D01*
D12*
X4290000Y-80090000D02*
G75*
G03*
X4290000Y-80090000I-70000J0D01*
G01*
D10*
X2625000Y-78585000D02*
X2355000Y-78455000D01*
X2625000Y-78335000D01*
X2625000Y-78585000D01*
G36*
X2625000Y-78585000D02*
G01*
X2355000Y-78455000D01*
X2625000Y-78335000D01*
X2625000Y-78585000D01*
G37*
G04 #@! TO.C,C12*
X36502164Y-46155000D02*
X36717836Y-46155000D01*
X36502164Y-46875000D02*
X36717836Y-46875000D01*
G04 #@! TO.C,C3*
X2642164Y-67315000D02*
X2857836Y-67315000D01*
X2642164Y-68035000D02*
X2857836Y-68035000D01*
G04 #@! TO.C,R9*
X37088000Y-57841359D02*
X37088000Y-58148641D01*
X36328000Y-57841359D02*
X36328000Y-58148641D01*
G04 #@! TO.C,C6*
X40385000Y-18122836D02*
X40385000Y-17907164D01*
X41105000Y-18122836D02*
X41105000Y-17907164D01*
G04 #@! TO.C,R6*
X20285000Y-29943641D02*
X20285000Y-29636359D01*
X21045000Y-29943641D02*
X21045000Y-29636359D01*
G04 #@! TO.C,C15*
X43250000Y-60532836D02*
X43250000Y-60317164D01*
X43970000Y-60532836D02*
X43970000Y-60317164D01*
G04 #@! TO.C,C10*
X43022164Y-52640000D02*
X43237836Y-52640000D01*
X43022164Y-53360000D02*
X43237836Y-53360000D01*
G04 #@! TO.C,C17*
X41907164Y-39535000D02*
X42122836Y-39535000D01*
X41907164Y-40255000D02*
X42122836Y-40255000D01*
G04 #@! TO.C,R8*
X36027000Y-76841359D02*
X36027000Y-77148641D01*
X35267000Y-76841359D02*
X35267000Y-77148641D01*
G04 #@! TO.C,C4*
X30530000Y-54152164D02*
X30530000Y-54367836D01*
X29810000Y-54152164D02*
X29810000Y-54367836D01*
G04 #@! TO.C,R8*
X36027000Y-57841359D02*
X36027000Y-58148641D01*
X35267000Y-57841359D02*
X35267000Y-58148641D01*
D11*
G04 #@! TO.C,U3*
X49044000Y-56524000D02*
X52096000Y-56524000D01*
X49044000Y-57266000D02*
X49044000Y-56524000D01*
X52096000Y-56524000D02*
X52096000Y-57266000D01*
X52096000Y-57266000D02*
X49044000Y-57266000D01*
D15*
X49111000Y-58106000D02*
G75*
G03*
X49111000Y-58106000I-150000J0D01*
G01*
D10*
G04 #@! TO.C,C9*
X64060000Y-17907164D02*
X64060000Y-18122836D01*
X63340000Y-17907164D02*
X63340000Y-18122836D01*
D13*
G04 #@! TO.C,U1*
X63395000Y-47905000D02*
X63395000Y-48474000D01*
X62826000Y-47905000D02*
X63395000Y-47905000D01*
X62826000Y-47905000D02*
X63395000Y-48474000D01*
X56395000Y-47905000D02*
X56964000Y-47905000D01*
X56395000Y-48005000D02*
X56395000Y-47905000D01*
X63395000Y-48164000D02*
X63298000Y-48164000D01*
X63298000Y-48164000D02*
X63039000Y-47905000D01*
X56395000Y-48474000D02*
X56395000Y-48005000D01*
X63395000Y-54336000D02*
X63395000Y-54905000D01*
X63395000Y-54905000D02*
X62826000Y-54905000D01*
X56964000Y-54905000D02*
X56395000Y-54905000D01*
X56395000Y-54905000D02*
X56395000Y-54336000D01*
X63722000Y-47405000D02*
G75*
G03*
X63722000Y-47405000I-127000J0D01*
G01*
D10*
G04 #@! TO.C,C5*
X19027164Y-35920000D02*
X19242836Y-35920000D01*
X19027164Y-36640000D02*
X19242836Y-36640000D01*
G04 #@! TO.C,C17*
X17907164Y-39535000D02*
X18122836Y-39535000D01*
X17907164Y-40255000D02*
X18122836Y-40255000D01*
G04 #@! TO.C,R4*
X69035000Y-73596359D02*
X69035000Y-73903641D01*
X68275000Y-73596359D02*
X68275000Y-73903641D01*
G04 #@! TO.C,C4*
X6530000Y-35152164D02*
X6530000Y-35367836D01*
X5810000Y-35152164D02*
X5810000Y-35367836D01*
G04 #@! TO.C,R9*
X61088000Y-38841359D02*
X61088000Y-39148641D01*
X60328000Y-38841359D02*
X60328000Y-39148641D01*
G04 #@! TO.C,R3*
X44275000Y-33883642D02*
X44275000Y-33576360D01*
X45035000Y-33883642D02*
X45035000Y-33576360D01*
G04 #@! TO.C,R2*
X55525000Y-18523641D02*
X55525000Y-18216359D01*
X56285000Y-18523641D02*
X56285000Y-18216359D01*
X31525000Y-37523641D02*
X31525000Y-37216359D01*
X32285000Y-37523641D02*
X32285000Y-37216359D01*
G04 #@! TO.C,R1*
X28730000Y-14428641D02*
X28730000Y-14121359D01*
X29490000Y-14428641D02*
X29490000Y-14121359D01*
G04 #@! TO.C,C6*
X64385000Y-75122836D02*
X64385000Y-74907164D01*
X65105000Y-75122836D02*
X65105000Y-74907164D01*
G04 #@! TO.C,C4*
X6530000Y-16152164D02*
X6530000Y-16367836D01*
X5810000Y-16152164D02*
X5810000Y-16367836D01*
G04 #@! TO.C,R11*
X15210000Y-57841359D02*
X15210000Y-58148641D01*
X14450000Y-57841359D02*
X14450000Y-58148641D01*
G04 #@! TO.C,C8*
X64685000Y-19887164D02*
X64685000Y-20102836D01*
X63965000Y-19887164D02*
X63965000Y-20102836D01*
G04 #@! TO.C,C1*
X50657164Y-34395000D02*
X50872836Y-34395000D01*
X50657164Y-35115000D02*
X50872836Y-35115000D01*
G04 #@! TO.C,C13*
X5475000Y-16147164D02*
X5475000Y-16362836D01*
X4755000Y-16147164D02*
X4755000Y-16362836D01*
G04 #@! TO.C,C8*
X16685000Y-19887164D02*
X16685000Y-20102836D01*
X15965000Y-19887164D02*
X15965000Y-20102836D01*
G04 #@! TO.C,C16*
X65907164Y-57485000D02*
X66122836Y-57485000D01*
X65907164Y-58205000D02*
X66122836Y-58205000D01*
G04 #@! TO.C,R6*
X20285000Y-67943641D02*
X20285000Y-67636359D01*
X21045000Y-67943641D02*
X21045000Y-67636359D01*
G04 #@! TO.C,C2*
X43022164Y-70545000D02*
X43237836Y-70545000D01*
X43022164Y-71265000D02*
X43237836Y-71265000D01*
G04 #@! TO.C,C1*
X26657164Y-34395000D02*
X26872836Y-34395000D01*
X26657164Y-35115000D02*
X26872836Y-35115000D01*
D11*
G04 #@! TO.C,LED1*
X27810000Y-80550000D02*
X27556000Y-80550000D01*
X27810000Y-80430000D02*
X27810000Y-80550000D01*
X27810000Y-79630000D02*
X27810000Y-79670000D01*
X27810000Y-78830000D02*
X27810000Y-78870000D01*
X27810000Y-78010000D02*
X27810000Y-78070000D01*
X27556000Y-80550000D02*
X25270000Y-80550000D01*
X25270000Y-80550000D02*
X25270000Y-80430000D01*
X25270000Y-79670000D02*
X25270000Y-79630000D01*
X25270000Y-78870000D02*
X25270000Y-78830000D01*
X25270000Y-78070000D02*
X25270000Y-78010000D01*
X25270000Y-78010000D02*
X27810000Y-78010000D01*
D12*
X28290000Y-80090000D02*
G75*
G03*
X28290000Y-80090000I-70000J0D01*
G01*
D10*
X26625000Y-78585000D02*
X26355000Y-78455000D01*
X26625000Y-78335000D01*
X26625000Y-78585000D01*
G36*
X26625000Y-78585000D02*
G01*
X26355000Y-78455000D01*
X26625000Y-78335000D01*
X26625000Y-78585000D01*
G37*
G04 #@! TO.C,C15*
X67250000Y-41532836D02*
X67250000Y-41317164D01*
X67970000Y-41532836D02*
X67970000Y-41317164D01*
D11*
G04 #@! TO.C,U3*
X1044000Y-75524000D02*
X4096000Y-75524000D01*
X1044000Y-76266000D02*
X1044000Y-75524000D01*
X4096000Y-75524000D02*
X4096000Y-76266000D01*
X4096000Y-76266000D02*
X1044000Y-76266000D01*
D15*
X1111000Y-77106000D02*
G75*
G03*
X1111000Y-77106000I-150000J0D01*
G01*
D13*
G04 #@! TO.C,SW1*
X20019000Y-26886000D02*
X16971000Y-26886000D01*
X20019000Y-24854000D02*
X16971000Y-24854000D01*
X17986509Y-25615748D02*
G75*
G03*
X18093001Y-25468001I508491J-254252D01*
G01*
D10*
G04 #@! TO.C,R2*
X55525000Y-56523641D02*
X55525000Y-56216359D01*
X56285000Y-56523641D02*
X56285000Y-56216359D01*
G04 #@! TO.C,C3*
X50642164Y-29315000D02*
X50857836Y-29315000D01*
X50642164Y-30035000D02*
X50857836Y-30035000D01*
G04 #@! TO.C,C14*
X21025000Y-50647164D02*
X21025000Y-50862836D01*
X20305000Y-50647164D02*
X20305000Y-50862836D01*
D13*
G04 #@! TO.C,SW1*
X44019000Y-7886000D02*
X40971000Y-7886000D01*
X44019000Y-5854000D02*
X40971000Y-5854000D01*
X41986509Y-6615748D02*
G75*
G03*
X42093001Y-6468001I508491J-254252D01*
G01*
D10*
G04 #@! TO.C,C12*
X36502164Y-8155000D02*
X36717836Y-8155000D01*
X36502164Y-8875000D02*
X36717836Y-8875000D01*
G04 #@! TO.C,C15*
X19250000Y-41532836D02*
X19250000Y-41317164D01*
X19970000Y-41532836D02*
X19970000Y-41317164D01*
G04 #@! TO.C,R3*
X68275000Y-71883642D02*
X68275000Y-71576360D01*
X69035000Y-71883642D02*
X69035000Y-71576360D01*
G04 #@! TO.C,R2*
X31525000Y-75523641D02*
X31525000Y-75216359D01*
X32285000Y-75523641D02*
X32285000Y-75216359D01*
G04 #@! TO.C,C14*
X69025000Y-31647164D02*
X69025000Y-31862836D01*
X68305000Y-31647164D02*
X68305000Y-31862836D01*
G04 #@! TO.C,C11*
X63682164Y-8150000D02*
X63897836Y-8150000D01*
X63682164Y-8870000D02*
X63897836Y-8870000D01*
G04 #@! TO.C,C15*
X43250000Y-41532836D02*
X43250000Y-41317164D01*
X43970000Y-41532836D02*
X43970000Y-41317164D01*
D11*
G04 #@! TO.C,U3*
X25044000Y-18524000D02*
X28096000Y-18524000D01*
X25044000Y-19266000D02*
X25044000Y-18524000D01*
X28096000Y-18524000D02*
X28096000Y-19266000D01*
X28096000Y-19266000D02*
X25044000Y-19266000D01*
D15*
X25111000Y-20106000D02*
G75*
G03*
X25111000Y-20106000I-150000J0D01*
G01*
D10*
G04 #@! TO.C,R7*
X52455000Y-78343641D02*
X52455000Y-78036359D01*
X53215000Y-78343641D02*
X53215000Y-78036359D01*
G04 #@! TO.C,C16*
X65907164Y-76485000D02*
X66122836Y-76485000D01*
X65907164Y-77205000D02*
X66122836Y-77205000D01*
D13*
G04 #@! TO.C,U4*
X68249000Y-57936000D02*
X68249000Y-57052000D01*
X68409000Y-55894000D02*
X70009000Y-55894000D01*
X68449000Y-59112000D02*
X69989000Y-59112000D01*
X70735000Y-59092000D02*
G75*
G03*
X70735000Y-59092000I-64000J0D01*
G01*
D10*
G04 #@! TO.C,R8*
X60027000Y-19841359D02*
X60027000Y-20148641D01*
X59267000Y-19841359D02*
X59267000Y-20148641D01*
G04 #@! TO.C,C14*
X69025000Y-50647164D02*
X69025000Y-50862836D01*
X68305000Y-50647164D02*
X68305000Y-50862836D01*
G04 #@! TO.C,C11*
X39682164Y-46150000D02*
X39897836Y-46150000D01*
X39682164Y-46870000D02*
X39897836Y-46870000D01*
G04 #@! TO.C,C1*
X50657164Y-53395000D02*
X50872836Y-53395000D01*
X50657164Y-54115000D02*
X50872836Y-54115000D01*
G04 #@! TO.C,C8*
X64685000Y-57887164D02*
X64685000Y-58102836D01*
X63965000Y-57887164D02*
X63965000Y-58102836D01*
G04 #@! TO.C,R12*
X25396359Y-25015000D02*
X25703641Y-25015000D01*
X25396359Y-25775000D02*
X25703641Y-25775000D01*
D13*
G04 #@! TO.C,U1*
X15395000Y-66905000D02*
X15395000Y-67474000D01*
X14826000Y-66905000D02*
X15395000Y-66905000D01*
X14826000Y-66905000D02*
X15395000Y-67474000D01*
X8395000Y-66905000D02*
X8964000Y-66905000D01*
X8395000Y-67005000D02*
X8395000Y-66905000D01*
X15395000Y-67164000D02*
X15298000Y-67164000D01*
X15298000Y-67164000D02*
X15039000Y-66905000D01*
X8395000Y-67474000D02*
X8395000Y-67005000D01*
X15395000Y-73336000D02*
X15395000Y-73905000D01*
X15395000Y-73905000D02*
X14826000Y-73905000D01*
X8964000Y-73905000D02*
X8395000Y-73905000D01*
X8395000Y-73905000D02*
X8395000Y-73336000D01*
X15722000Y-66405000D02*
G75*
G03*
X15722000Y-66405000I-127000J0D01*
G01*
D10*
G04 #@! TO.C,C17*
X41907164Y-58535000D02*
X42122836Y-58535000D01*
X41907164Y-59255000D02*
X42122836Y-59255000D01*
D13*
G04 #@! TO.C,SW1*
X20019000Y-7886000D02*
X16971000Y-7886000D01*
X20019000Y-5854000D02*
X16971000Y-5854000D01*
X17986509Y-6615748D02*
G75*
G03*
X18093001Y-6468001I508491J-254252D01*
G01*
D10*
G04 #@! TO.C,C15*
X67250000Y-22532836D02*
X67250000Y-22317164D01*
X67970000Y-22532836D02*
X67970000Y-22317164D01*
G04 #@! TO.C,C18*
X41907164Y-40585000D02*
X42122836Y-40585000D01*
X41907164Y-41305000D02*
X42122836Y-41305000D01*
G04 #@! TO.C,R4*
X21035000Y-73596359D02*
X21035000Y-73903641D01*
X20275000Y-73596359D02*
X20275000Y-73903641D01*
G04 #@! TO.C,C9*
X64060000Y-55907164D02*
X64060000Y-56122836D01*
X63340000Y-55907164D02*
X63340000Y-56122836D01*
D13*
G04 #@! TO.C,SW1*
X68019000Y-64886000D02*
X64971000Y-64886000D01*
X68019000Y-62854000D02*
X64971000Y-62854000D01*
X65986509Y-63615748D02*
G75*
G03*
X66093001Y-63468001I508491J-254252D01*
G01*
D10*
G04 #@! TO.C,R5*
X45045000Y-27651359D02*
X45045000Y-27958641D01*
X44285000Y-27651359D02*
X44285000Y-27958641D01*
D11*
G04 #@! TO.C,LED1*
X51810000Y-61550000D02*
X51556000Y-61550000D01*
X51810000Y-61430000D02*
X51810000Y-61550000D01*
X51810000Y-60630000D02*
X51810000Y-60670000D01*
X51810000Y-59830000D02*
X51810000Y-59870000D01*
X51810000Y-59010000D02*
X51810000Y-59070000D01*
X51556000Y-61550000D02*
X49270000Y-61550000D01*
X49270000Y-61550000D02*
X49270000Y-61430000D01*
X49270000Y-60670000D02*
X49270000Y-60630000D01*
X49270000Y-59870000D02*
X49270000Y-59830000D01*
X49270000Y-59070000D02*
X49270000Y-59010000D01*
X49270000Y-59010000D02*
X51810000Y-59010000D01*
D12*
X52290000Y-61090000D02*
G75*
G03*
X52290000Y-61090000I-70000J0D01*
G01*
D10*
X50625000Y-59585000D02*
X50355000Y-59455000D01*
X50625000Y-59335000D01*
X50625000Y-59585000D01*
G36*
X50625000Y-59585000D02*
G01*
X50355000Y-59455000D01*
X50625000Y-59335000D01*
X50625000Y-59585000D01*
G37*
G04 #@! TO.C,C10*
X19022164Y-14640000D02*
X19237836Y-14640000D01*
X19022164Y-15360000D02*
X19237836Y-15360000D01*
D13*
G04 #@! TO.C,U1*
X15395000Y-9905000D02*
X15395000Y-10474000D01*
X14826000Y-9905000D02*
X15395000Y-9905000D01*
X14826000Y-9905000D02*
X15395000Y-10474000D01*
X8395000Y-9905000D02*
X8964000Y-9905000D01*
X8395000Y-10005000D02*
X8395000Y-9905000D01*
X15395000Y-10164000D02*
X15298000Y-10164000D01*
X15298000Y-10164000D02*
X15039000Y-9905000D01*
X8395000Y-10474000D02*
X8395000Y-10005000D01*
X15395000Y-16336000D02*
X15395000Y-16905000D01*
X15395000Y-16905000D02*
X14826000Y-16905000D01*
X8964000Y-16905000D02*
X8395000Y-16905000D01*
X8395000Y-16905000D02*
X8395000Y-16336000D01*
X15722000Y-9405000D02*
G75*
G03*
X15722000Y-9405000I-127000J0D01*
G01*
D10*
G04 #@! TO.C,R1*
X4730000Y-71428641D02*
X4730000Y-71121359D01*
X5490000Y-71428641D02*
X5490000Y-71121359D01*
D13*
G04 #@! TO.C,U4*
X44249000Y-76936000D02*
X44249000Y-76052000D01*
X44409000Y-74894000D02*
X46009000Y-74894000D01*
X44449000Y-78112000D02*
X45989000Y-78112000D01*
X46735000Y-78092000D02*
G75*
G03*
X46735000Y-78092000I-64000J0D01*
G01*
D10*
G04 #@! TO.C,C16*
X17907164Y-57485000D02*
X18122836Y-57485000D01*
X17907164Y-58205000D02*
X18122836Y-58205000D01*
G04 #@! TO.C,C12*
X12502164Y-27155000D02*
X12717836Y-27155000D01*
X12502164Y-27875000D02*
X12717836Y-27875000D01*
G04 #@! TO.C,C11*
X39682164Y-8150000D02*
X39897836Y-8150000D01*
X39682164Y-8870000D02*
X39897836Y-8870000D01*
G04 #@! TO.C,C14*
X21025000Y-69647164D02*
X21025000Y-69862836D01*
X20305000Y-69647164D02*
X20305000Y-69862836D01*
D11*
G04 #@! TO.C,L1*
X46863000Y-80441000D02*
X44577000Y-80441000D01*
X44577000Y-78409000D02*
X46863000Y-78409000D01*
D13*
G04 #@! TO.C,SW1*
X68019000Y-7886000D02*
X64971000Y-7886000D01*
X68019000Y-5854000D02*
X64971000Y-5854000D01*
X65986509Y-6615748D02*
G75*
G03*
X66093001Y-6468001I508491J-254252D01*
G01*
D10*
G04 #@! TO.C,C13*
X29475000Y-73147164D02*
X29475000Y-73362836D01*
X28755000Y-73147164D02*
X28755000Y-73362836D01*
D11*
G04 #@! TO.C,U2*
X67691000Y-50468500D02*
X67691000Y-47316500D01*
X65539000Y-47316500D02*
X65539000Y-50468500D01*
D14*
X67477000Y-46860500D02*
G75*
G03*
X67477000Y-46860500I-100000J0D01*
G01*
D10*
G04 #@! TO.C,R4*
X69035000Y-54596359D02*
X69035000Y-54903641D01*
X68275000Y-54596359D02*
X68275000Y-54903641D01*
G04 #@! TO.C,R5*
X45045000Y-46651359D02*
X45045000Y-46958641D01*
X44285000Y-46651359D02*
X44285000Y-46958641D01*
G04 #@! TO.C,C18*
X41907164Y-59585000D02*
X42122836Y-59585000D01*
X41907164Y-60305000D02*
X42122836Y-60305000D01*
D11*
G04 #@! TO.C,U3*
X1044000Y-37524000D02*
X4096000Y-37524000D01*
X1044000Y-38266000D02*
X1044000Y-37524000D01*
X4096000Y-37524000D02*
X4096000Y-38266000D01*
X4096000Y-38266000D02*
X1044000Y-38266000D01*
D15*
X1111000Y-39106000D02*
G75*
G03*
X1111000Y-39106000I-150000J0D01*
G01*
D10*
G04 #@! TO.C,C16*
X41907164Y-76485000D02*
X42122836Y-76485000D01*
X41907164Y-77205000D02*
X42122836Y-77205000D01*
G04 #@! TO.C,C1*
X2657164Y-34395000D02*
X2872836Y-34395000D01*
X2657164Y-35115000D02*
X2872836Y-35115000D01*
G04 #@! TO.C,C7*
X34930000Y-57882164D02*
X34930000Y-58097836D01*
X34210000Y-57882164D02*
X34210000Y-58097836D01*
G04 #@! TO.C,C15*
X19250000Y-79532836D02*
X19250000Y-79317164D01*
X19970000Y-79532836D02*
X19970000Y-79317164D01*
D11*
G04 #@! TO.C,U2*
X43691000Y-69468500D02*
X43691000Y-66316500D01*
X41539000Y-66316500D02*
X41539000Y-69468500D01*
D14*
X43477000Y-65860500D02*
G75*
G03*
X43477000Y-65860500I-100000J0D01*
G01*
D13*
G04 #@! TO.C,U1*
X39395000Y-47905000D02*
X39395000Y-48474000D01*
X38826000Y-47905000D02*
X39395000Y-47905000D01*
X38826000Y-47905000D02*
X39395000Y-48474000D01*
X32395000Y-47905000D02*
X32964000Y-47905000D01*
X32395000Y-48005000D02*
X32395000Y-47905000D01*
X39395000Y-48164000D02*
X39298000Y-48164000D01*
X39298000Y-48164000D02*
X39039000Y-47905000D01*
X32395000Y-48474000D02*
X32395000Y-48005000D01*
X39395000Y-54336000D02*
X39395000Y-54905000D01*
X39395000Y-54905000D02*
X38826000Y-54905000D01*
X32964000Y-54905000D02*
X32395000Y-54905000D01*
X32395000Y-54905000D02*
X32395000Y-54336000D01*
X39722000Y-47405000D02*
G75*
G03*
X39722000Y-47405000I-127000J0D01*
G01*
D10*
G04 #@! TO.C,C7*
X34930000Y-19882164D02*
X34930000Y-20097836D01*
X34210000Y-19882164D02*
X34210000Y-20097836D01*
G04 #@! TO.C,R9*
X37088000Y-19841359D02*
X37088000Y-20148641D01*
X36328000Y-19841359D02*
X36328000Y-20148641D01*
G04 #@! TO.C,C8*
X40685000Y-38887164D02*
X40685000Y-39102836D01*
X39965000Y-38887164D02*
X39965000Y-39102836D01*
G04 #@! TO.C,R12*
X49396359Y-44015000D02*
X49703641Y-44015000D01*
X49396359Y-44775000D02*
X49703641Y-44775000D01*
G04 #@! TO.C,R3*
X44275000Y-71883642D02*
X44275000Y-71576360D01*
X45035000Y-71883642D02*
X45035000Y-71576360D01*
G04 #@! TO.C,C17*
X65907164Y-20535000D02*
X66122836Y-20535000D01*
X65907164Y-21255000D02*
X66122836Y-21255000D01*
G04 #@! TO.C,R10*
X14149000Y-76841359D02*
X14149000Y-77148641D01*
X13389000Y-76841359D02*
X13389000Y-77148641D01*
G04 #@! TO.C,R1*
X52730000Y-33428641D02*
X52730000Y-33121359D01*
X53490000Y-33428641D02*
X53490000Y-33121359D01*
G04 #@! TO.C,C7*
X58930000Y-76882164D02*
X58930000Y-77097836D01*
X58210000Y-76882164D02*
X58210000Y-77097836D01*
G04 #@! TO.C,C9*
X40060000Y-55907164D02*
X40060000Y-56122836D01*
X39340000Y-55907164D02*
X39340000Y-56122836D01*
D11*
G04 #@! TO.C,X1*
X28152000Y-53506000D02*
X28660000Y-53506000D01*
X28660000Y-53506000D02*
X28660000Y-52998000D01*
X25104000Y-53249000D02*
X25104000Y-49188000D01*
X28434000Y-53249000D02*
X25104000Y-53249000D01*
X25104000Y-49188000D02*
X26755000Y-49188000D01*
X26755000Y-49188000D02*
X28406000Y-49188000D01*
X28406000Y-49188000D02*
X28434000Y-53249000D01*
X28406000Y-49188000D02*
X28406000Y-49188000D01*
D10*
G04 #@! TO.C,C16*
X17907164Y-19485000D02*
X18122836Y-19485000D01*
X17907164Y-20205000D02*
X18122836Y-20205000D01*
G04 #@! TO.C,C6*
X64385000Y-37122836D02*
X64385000Y-36907164D01*
X65105000Y-37122836D02*
X65105000Y-36907164D01*
G04 #@! TO.C,C13*
X53475000Y-54147164D02*
X53475000Y-54362836D01*
X52755000Y-54147164D02*
X52755000Y-54362836D01*
G04 #@! TO.C,R2*
X7525000Y-18523641D02*
X7525000Y-18216359D01*
X8285000Y-18523641D02*
X8285000Y-18216359D01*
G04 #@! TO.C,C6*
X40385000Y-56122836D02*
X40385000Y-55907164D01*
X41105000Y-56122836D02*
X41105000Y-55907164D01*
G04 #@! TO.C,R11*
X39210000Y-19841359D02*
X39210000Y-20148641D01*
X38450000Y-19841359D02*
X38450000Y-20148641D01*
D11*
G04 #@! TO.C,L1*
X70863000Y-42441000D02*
X68577000Y-42441000D01*
X68577000Y-40409000D02*
X70863000Y-40409000D01*
D13*
G04 #@! TO.C,SW1*
X44019000Y-26886000D02*
X40971000Y-26886000D01*
X44019000Y-24854000D02*
X40971000Y-24854000D01*
X41986509Y-25615748D02*
G75*
G03*
X42093001Y-25468001I508491J-254252D01*
G01*
D10*
G04 #@! TO.C,C13*
X53475000Y-35147164D02*
X53475000Y-35362836D01*
X52755000Y-35147164D02*
X52755000Y-35362836D01*
D11*
G04 #@! TO.C,U2*
X43691000Y-31468500D02*
X43691000Y-28316500D01*
X41539000Y-28316500D02*
X41539000Y-31468500D01*
D14*
X43477000Y-27860500D02*
G75*
G03*
X43477000Y-27860500I-100000J0D01*
G01*
D10*
G04 #@! TO.C,R5*
X45045000Y-8651359D02*
X45045000Y-8958641D01*
X44285000Y-8651359D02*
X44285000Y-8958641D01*
G04 #@! TO.C,C6*
X64385000Y-56122836D02*
X64385000Y-55907164D01*
X65105000Y-56122836D02*
X65105000Y-55907164D01*
G04 #@! TO.C,C15*
X19250000Y-60532836D02*
X19250000Y-60317164D01*
X19970000Y-60532836D02*
X19970000Y-60317164D01*
G04 #@! TO.C,R1*
X4730000Y-14428641D02*
X4730000Y-14121359D01*
X5490000Y-14428641D02*
X5490000Y-14121359D01*
G04 #@! TO.C,C16*
X17907164Y-76485000D02*
X18122836Y-76485000D01*
X17907164Y-77205000D02*
X18122836Y-77205000D01*
G04 #@! TO.C,R11*
X15210000Y-76841359D02*
X15210000Y-77148641D01*
X14450000Y-76841359D02*
X14450000Y-77148641D01*
D11*
G04 #@! TO.C,U2*
X67691000Y-12468500D02*
X67691000Y-9316500D01*
X65539000Y-9316500D02*
X65539000Y-12468500D01*
D14*
X67477000Y-8860500D02*
G75*
G03*
X67477000Y-8860500I-100000J0D01*
G01*
D10*
G04 #@! TO.C,C5*
X43027164Y-16920000D02*
X43242836Y-16920000D01*
X43027164Y-17640000D02*
X43242836Y-17640000D01*
G04 #@! TO.C,C11*
X39682164Y-65150000D02*
X39897836Y-65150000D01*
X39682164Y-65870000D02*
X39897836Y-65870000D01*
G04 #@! TO.C,R11*
X39210000Y-38841359D02*
X39210000Y-39148641D01*
X38450000Y-38841359D02*
X38450000Y-39148641D01*
G04 #@! TO.C,C15*
X43250000Y-79532836D02*
X43250000Y-79317164D01*
X43970000Y-79532836D02*
X43970000Y-79317164D01*
G04 #@! TO.C,C3*
X2642164Y-10315000D02*
X2857836Y-10315000D01*
X2642164Y-11035000D02*
X2857836Y-11035000D01*
G04 #@! TO.C,C13*
X5475000Y-73147164D02*
X5475000Y-73362836D01*
X4755000Y-73147164D02*
X4755000Y-73362836D01*
G04 #@! TO.C,C10*
X19022164Y-33640000D02*
X19237836Y-33640000D01*
X19022164Y-34360000D02*
X19237836Y-34360000D01*
G04 #@! TO.C,C9*
X40060000Y-74907164D02*
X40060000Y-75122836D01*
X39340000Y-74907164D02*
X39340000Y-75122836D01*
G04 #@! TO.C,C15*
X19250000Y-22532836D02*
X19250000Y-22317164D01*
X19970000Y-22532836D02*
X19970000Y-22317164D01*
G04 #@! TO.C,R12*
X1396359Y-25015000D02*
X1703641Y-25015000D01*
X1396359Y-25775000D02*
X1703641Y-25775000D01*
D11*
G04 #@! TO.C,U2*
X19691000Y-50468500D02*
X19691000Y-47316500D01*
X17539000Y-47316500D02*
X17539000Y-50468500D01*
D14*
X19477000Y-46860500D02*
G75*
G03*
X19477000Y-46860500I-100000J0D01*
G01*
D11*
G04 #@! TO.C,X1*
X28152000Y-15506000D02*
X28660000Y-15506000D01*
X28660000Y-15506000D02*
X28660000Y-14998000D01*
X25104000Y-15249000D02*
X25104000Y-11188000D01*
X28434000Y-15249000D02*
X25104000Y-15249000D01*
X25104000Y-11188000D02*
X26755000Y-11188000D01*
X26755000Y-11188000D02*
X28406000Y-11188000D01*
X28406000Y-11188000D02*
X28434000Y-15249000D01*
X28406000Y-11188000D02*
X28406000Y-11188000D01*
D10*
G04 #@! TO.C,R9*
X13088000Y-57841359D02*
X13088000Y-58148641D01*
X12328000Y-57841359D02*
X12328000Y-58148641D01*
G04 #@! TO.C,C2*
X19022164Y-32545000D02*
X19237836Y-32545000D01*
X19022164Y-33265000D02*
X19237836Y-33265000D01*
G04 #@! TO.C,R1*
X28730000Y-52428641D02*
X28730000Y-52121359D01*
X29490000Y-52428641D02*
X29490000Y-52121359D01*
G04 #@! TO.C,R4*
X45035000Y-35596359D02*
X45035000Y-35903641D01*
X44275000Y-35596359D02*
X44275000Y-35903641D01*
G04 #@! TO.C,R5*
X69045000Y-27651359D02*
X69045000Y-27958641D01*
X68285000Y-27651359D02*
X68285000Y-27958641D01*
G04 #@! TO.C,R3*
X20275000Y-71883642D02*
X20275000Y-71576360D01*
X21035000Y-71883642D02*
X21035000Y-71576360D01*
D13*
G04 #@! TO.C,SW1*
X68019000Y-45886000D02*
X64971000Y-45886000D01*
X68019000Y-43854000D02*
X64971000Y-43854000D01*
X65986509Y-44615748D02*
G75*
G03*
X66093001Y-44468001I508491J-254252D01*
G01*
D10*
G04 #@! TO.C,R4*
X69035000Y-16596359D02*
X69035000Y-16903641D01*
X68275000Y-16596359D02*
X68275000Y-16903641D01*
G04 #@! TO.C,R8*
X12027000Y-57841359D02*
X12027000Y-58148641D01*
X11267000Y-57841359D02*
X11267000Y-58148641D01*
G04 #@! TO.C,C2*
X43022164Y-51545000D02*
X43237836Y-51545000D01*
X43022164Y-52265000D02*
X43237836Y-52265000D01*
G04 #@! TO.C,C7*
X58930000Y-19882164D02*
X58930000Y-20097836D01*
X58210000Y-19882164D02*
X58210000Y-20097836D01*
G04 #@! TO.C,C2*
X67022164Y-32545000D02*
X67237836Y-32545000D01*
X67022164Y-33265000D02*
X67237836Y-33265000D01*
G04 #@! TO.C,C1*
X2657164Y-72395000D02*
X2872836Y-72395000D01*
X2657164Y-73115000D02*
X2872836Y-73115000D01*
D11*
G04 #@! TO.C,X1*
X28152000Y-34506000D02*
X28660000Y-34506000D01*
X28660000Y-34506000D02*
X28660000Y-33998000D01*
X25104000Y-34249000D02*
X25104000Y-30188000D01*
X28434000Y-34249000D02*
X25104000Y-34249000D01*
X25104000Y-30188000D02*
X26755000Y-30188000D01*
X26755000Y-30188000D02*
X28406000Y-30188000D01*
X28406000Y-30188000D02*
X28434000Y-34249000D01*
X28406000Y-30188000D02*
X28406000Y-30188000D01*
D10*
G04 #@! TO.C,C12*
X12502164Y-8155000D02*
X12717836Y-8155000D01*
X12502164Y-8875000D02*
X12717836Y-8875000D01*
G04 #@! TO.C,C9*
X64060000Y-36907164D02*
X64060000Y-37122836D01*
X63340000Y-36907164D02*
X63340000Y-37122836D01*
D11*
G04 #@! TO.C,U3*
X49044000Y-75524000D02*
X52096000Y-75524000D01*
X49044000Y-76266000D02*
X49044000Y-75524000D01*
X52096000Y-75524000D02*
X52096000Y-76266000D01*
X52096000Y-76266000D02*
X49044000Y-76266000D01*
D15*
X49111000Y-77106000D02*
G75*
G03*
X49111000Y-77106000I-150000J0D01*
G01*
D10*
G04 #@! TO.C,R7*
X4455000Y-59343641D02*
X4455000Y-59036359D01*
X5215000Y-59343641D02*
X5215000Y-59036359D01*
G04 #@! TO.C,R10*
X38149000Y-38841359D02*
X38149000Y-39148641D01*
X37389000Y-38841359D02*
X37389000Y-39148641D01*
G04 #@! TO.C,R2*
X7525000Y-56523641D02*
X7525000Y-56216359D01*
X8285000Y-56523641D02*
X8285000Y-56216359D01*
G04 #@! TO.C,C12*
X60502164Y-46155000D02*
X60717836Y-46155000D01*
X60502164Y-46875000D02*
X60717836Y-46875000D01*
G04 #@! TO.C,C4*
X54530000Y-35152164D02*
X54530000Y-35367836D01*
X53810000Y-35152164D02*
X53810000Y-35367836D01*
G04 #@! TO.C,C17*
X17907164Y-20535000D02*
X18122836Y-20535000D01*
X17907164Y-21255000D02*
X18122836Y-21255000D01*
G04 #@! TO.C,C18*
X65907164Y-59585000D02*
X66122836Y-59585000D01*
X65907164Y-60305000D02*
X66122836Y-60305000D01*
D11*
G04 #@! TO.C,L1*
X70863000Y-61441000D02*
X68577000Y-61441000D01*
X68577000Y-59409000D02*
X70863000Y-59409000D01*
D10*
G04 #@! TO.C,C12*
X60502164Y-27155000D02*
X60717836Y-27155000D01*
X60502164Y-27875000D02*
X60717836Y-27875000D01*
G04 #@! TO.C,C9*
X40060000Y-17907164D02*
X40060000Y-18122836D01*
X39340000Y-17907164D02*
X39340000Y-18122836D01*
G04 #@! TO.C,C4*
X30530000Y-16152164D02*
X30530000Y-16367836D01*
X29810000Y-16152164D02*
X29810000Y-16367836D01*
G04 #@! TO.C,R1*
X28730000Y-71428641D02*
X28730000Y-71121359D01*
X29490000Y-71428641D02*
X29490000Y-71121359D01*
G04 #@! TO.C,R10*
X62149000Y-57841359D02*
X62149000Y-58148641D01*
X61389000Y-57841359D02*
X61389000Y-58148641D01*
G04 #@! TO.C,R6*
X20285000Y-10943641D02*
X20285000Y-10636359D01*
X21045000Y-10943641D02*
X21045000Y-10636359D01*
G04 #@! TO.C,C8*
X16685000Y-76887164D02*
X16685000Y-77102836D01*
X15965000Y-76887164D02*
X15965000Y-77102836D01*
G04 #@! TO.C,C2*
X43022164Y-32545000D02*
X43237836Y-32545000D01*
X43022164Y-33265000D02*
X43237836Y-33265000D01*
G04 #@! TO.C,R5*
X69045000Y-46651359D02*
X69045000Y-46958641D01*
X68285000Y-46651359D02*
X68285000Y-46958641D01*
G04 #@! TO.C,C18*
X65907164Y-21585000D02*
X66122836Y-21585000D01*
X65907164Y-22305000D02*
X66122836Y-22305000D01*
G04 #@! TO.C,C16*
X41907164Y-57485000D02*
X42122836Y-57485000D01*
X41907164Y-58205000D02*
X42122836Y-58205000D01*
G04 #@! TO.C,C2*
X19022164Y-51545000D02*
X19237836Y-51545000D01*
X19022164Y-52265000D02*
X19237836Y-52265000D01*
G04 #@! TO.C,R3*
X20275000Y-52883642D02*
X20275000Y-52576360D01*
X21035000Y-52883642D02*
X21035000Y-52576360D01*
G04 #@! TO.C,R4*
X21035000Y-54596359D02*
X21035000Y-54903641D01*
X20275000Y-54596359D02*
X20275000Y-54903641D01*
G04 #@! TO.C,R5*
X69045000Y-8651359D02*
X69045000Y-8958641D01*
X68285000Y-8651359D02*
X68285000Y-8958641D01*
G04 #@! TO.C,R6*
X44285000Y-48943641D02*
X44285000Y-48636359D01*
X45045000Y-48943641D02*
X45045000Y-48636359D01*
G04 #@! TO.C,R8*
X36027000Y-38841359D02*
X36027000Y-39148641D01*
X35267000Y-38841359D02*
X35267000Y-39148641D01*
X12027000Y-76841359D02*
X12027000Y-77148641D01*
X11267000Y-76841359D02*
X11267000Y-77148641D01*
D13*
G04 #@! TO.C,U4*
X44249000Y-38936000D02*
X44249000Y-38052000D01*
X44409000Y-36894000D02*
X46009000Y-36894000D01*
X44449000Y-40112000D02*
X45989000Y-40112000D01*
X46735000Y-40092000D02*
G75*
G03*
X46735000Y-40092000I-64000J0D01*
G01*
D10*
G04 #@! TO.C,R6*
X68285000Y-29943641D02*
X68285000Y-29636359D01*
X69045000Y-29943641D02*
X69045000Y-29636359D01*
G04 #@! TO.C,C18*
X17907164Y-59585000D02*
X18122836Y-59585000D01*
X17907164Y-60305000D02*
X18122836Y-60305000D01*
D11*
G04 #@! TO.C,U3*
X1044000Y-56524000D02*
X4096000Y-56524000D01*
X1044000Y-57266000D02*
X1044000Y-56524000D01*
X4096000Y-56524000D02*
X4096000Y-57266000D01*
X4096000Y-57266000D02*
X1044000Y-57266000D01*
D15*
X1111000Y-58106000D02*
G75*
G03*
X1111000Y-58106000I-150000J0D01*
G01*
D10*
G04 #@! TO.C,R12*
X1396359Y-6015000D02*
X1703641Y-6015000D01*
X1396359Y-6775000D02*
X1703641Y-6775000D01*
G04 #@! TO.C,C13*
X29475000Y-35147164D02*
X29475000Y-35362836D01*
X28755000Y-35147164D02*
X28755000Y-35362836D01*
D11*
G04 #@! TO.C,LED1*
X27810000Y-23550000D02*
X27556000Y-23550000D01*
X27810000Y-23430000D02*
X27810000Y-23550000D01*
X27810000Y-22630000D02*
X27810000Y-22670000D01*
X27810000Y-21830000D02*
X27810000Y-21870000D01*
X27810000Y-21010000D02*
X27810000Y-21070000D01*
X27556000Y-23550000D02*
X25270000Y-23550000D01*
X25270000Y-23550000D02*
X25270000Y-23430000D01*
X25270000Y-22670000D02*
X25270000Y-22630000D01*
X25270000Y-21870000D02*
X25270000Y-21830000D01*
X25270000Y-21070000D02*
X25270000Y-21010000D01*
X25270000Y-21010000D02*
X27810000Y-21010000D01*
D12*
X28290000Y-23090000D02*
G75*
G03*
X28290000Y-23090000I-70000J0D01*
G01*
D10*
X26625000Y-21585000D02*
X26355000Y-21455000D01*
X26625000Y-21335000D01*
X26625000Y-21585000D01*
G36*
X26625000Y-21585000D02*
G01*
X26355000Y-21455000D01*
X26625000Y-21335000D01*
X26625000Y-21585000D01*
G37*
G04 #@! TO.C,C7*
X10930000Y-57882164D02*
X10930000Y-58097836D01*
X10210000Y-57882164D02*
X10210000Y-58097836D01*
G04 #@! TO.C,C11*
X15682164Y-65150000D02*
X15897836Y-65150000D01*
X15682164Y-65870000D02*
X15897836Y-65870000D01*
D11*
G04 #@! TO.C,U3*
X25044000Y-56524000D02*
X28096000Y-56524000D01*
X25044000Y-57266000D02*
X25044000Y-56524000D01*
X28096000Y-56524000D02*
X28096000Y-57266000D01*
X28096000Y-57266000D02*
X25044000Y-57266000D01*
D15*
X25111000Y-58106000D02*
G75*
G03*
X25111000Y-58106000I-150000J0D01*
G01*
D10*
G04 #@! TO.C,R9*
X13088000Y-76841359D02*
X13088000Y-77148641D01*
X12328000Y-76841359D02*
X12328000Y-77148641D01*
G04 #@! TO.C,C4*
X30530000Y-35152164D02*
X30530000Y-35367836D01*
X29810000Y-35152164D02*
X29810000Y-35367836D01*
G04 #@! TO.C,C2*
X67022164Y-70545000D02*
X67237836Y-70545000D01*
X67022164Y-71265000D02*
X67237836Y-71265000D01*
G04 #@! TO.C,C13*
X53475000Y-16147164D02*
X53475000Y-16362836D01*
X52755000Y-16147164D02*
X52755000Y-16362836D01*
G04 #@! TO.C,C5*
X19027164Y-54920000D02*
X19242836Y-54920000D01*
X19027164Y-55640000D02*
X19242836Y-55640000D01*
G04 #@! TO.C,R1*
X52730000Y-14428641D02*
X52730000Y-14121359D01*
X53490000Y-14428641D02*
X53490000Y-14121359D01*
G04 #@! TO.C,R6*
X44285000Y-10943641D02*
X44285000Y-10636359D01*
X45045000Y-10943641D02*
X45045000Y-10636359D01*
G04 #@! TO.C,C5*
X67027164Y-73920000D02*
X67242836Y-73920000D01*
X67027164Y-74640000D02*
X67242836Y-74640000D01*
D13*
G04 #@! TO.C,U4*
X44249000Y-57936000D02*
X44249000Y-57052000D01*
X44409000Y-55894000D02*
X46009000Y-55894000D01*
X44449000Y-59112000D02*
X45989000Y-59112000D01*
X46735000Y-59092000D02*
G75*
G03*
X46735000Y-59092000I-64000J0D01*
G01*
D10*
G04 #@! TO.C,C3*
X2642164Y-29315000D02*
X2857836Y-29315000D01*
X2642164Y-30035000D02*
X2857836Y-30035000D01*
D11*
G04 #@! TO.C,X1*
X4152000Y-53506000D02*
X4660000Y-53506000D01*
X4660000Y-53506000D02*
X4660000Y-52998000D01*
X1104000Y-53249000D02*
X1104000Y-49188000D01*
X4434000Y-53249000D02*
X1104000Y-53249000D01*
X1104000Y-49188000D02*
X2755000Y-49188000D01*
X2755000Y-49188000D02*
X4406000Y-49188000D01*
X4406000Y-49188000D02*
X4434000Y-53249000D01*
X4406000Y-49188000D02*
X4406000Y-49188000D01*
D10*
G04 #@! TO.C,R10*
X38149000Y-19841359D02*
X38149000Y-20148641D01*
X37389000Y-19841359D02*
X37389000Y-20148641D01*
G04 #@! TO.C,R6*
X20285000Y-48943641D02*
X20285000Y-48636359D01*
X21045000Y-48943641D02*
X21045000Y-48636359D01*
D11*
G04 #@! TO.C,U3*
X1044000Y-18524000D02*
X4096000Y-18524000D01*
X1044000Y-19266000D02*
X1044000Y-18524000D01*
X4096000Y-18524000D02*
X4096000Y-19266000D01*
X4096000Y-19266000D02*
X1044000Y-19266000D01*
D15*
X1111000Y-20106000D02*
G75*
G03*
X1111000Y-20106000I-150000J0D01*
G01*
D10*
G04 #@! TO.C,R12*
X1396359Y-63015000D02*
X1703641Y-63015000D01*
X1396359Y-63775000D02*
X1703641Y-63775000D01*
G04 #@! TO.C,C15*
X67250000Y-79532836D02*
X67250000Y-79317164D01*
X67970000Y-79532836D02*
X67970000Y-79317164D01*
G04 #@! TO.C,R1*
X52730000Y-71428641D02*
X52730000Y-71121359D01*
X53490000Y-71428641D02*
X53490000Y-71121359D01*
G04 #@! TO.C,R10*
X38149000Y-76841359D02*
X38149000Y-77148641D01*
X37389000Y-76841359D02*
X37389000Y-77148641D01*
G04 #@! TO.C,C9*
X16060000Y-17907164D02*
X16060000Y-18122836D01*
X15340000Y-17907164D02*
X15340000Y-18122836D01*
G04 #@! TO.C,C12*
X36502164Y-27155000D02*
X36717836Y-27155000D01*
X36502164Y-27875000D02*
X36717836Y-27875000D01*
G04 #@! TO.C,R1*
X4730000Y-52428641D02*
X4730000Y-52121359D01*
X5490000Y-52428641D02*
X5490000Y-52121359D01*
D11*
G04 #@! TO.C,X1*
X52152000Y-72506000D02*
X52660000Y-72506000D01*
X52660000Y-72506000D02*
X52660000Y-71998000D01*
X49104000Y-72249000D02*
X49104000Y-68188000D01*
X52434000Y-72249000D02*
X49104000Y-72249000D01*
X49104000Y-68188000D02*
X50755000Y-68188000D01*
X50755000Y-68188000D02*
X52406000Y-68188000D01*
X52406000Y-68188000D02*
X52434000Y-72249000D01*
X52406000Y-68188000D02*
X52406000Y-68188000D01*
D10*
G04 #@! TO.C,C10*
X67022164Y-14640000D02*
X67237836Y-14640000D01*
X67022164Y-15360000D02*
X67237836Y-15360000D01*
G04 #@! TO.C,C5*
X67027164Y-35920000D02*
X67242836Y-35920000D01*
X67027164Y-36640000D02*
X67242836Y-36640000D01*
D11*
G04 #@! TO.C,L1*
X46863000Y-23441000D02*
X44577000Y-23441000D01*
X44577000Y-21409000D02*
X46863000Y-21409000D01*
D10*
G04 #@! TO.C,C13*
X29475000Y-54147164D02*
X29475000Y-54362836D01*
X28755000Y-54147164D02*
X28755000Y-54362836D01*
G04 #@! TO.C,C12*
X12502164Y-65155000D02*
X12717836Y-65155000D01*
X12502164Y-65875000D02*
X12717836Y-65875000D01*
G04 #@! TO.C,C7*
X58930000Y-38882164D02*
X58930000Y-39097836D01*
X58210000Y-38882164D02*
X58210000Y-39097836D01*
G04 #@! TO.C,C8*
X64685000Y-38887164D02*
X64685000Y-39102836D01*
X63965000Y-38887164D02*
X63965000Y-39102836D01*
G04 #@! TO.C,C4*
X54530000Y-73152164D02*
X54530000Y-73367836D01*
X53810000Y-73152164D02*
X53810000Y-73367836D01*
G04 #@! TO.C,R3*
X68275000Y-33883642D02*
X68275000Y-33576360D01*
X69035000Y-33883642D02*
X69035000Y-33576360D01*
G04 #@! TO.C,C5*
X43027164Y-54920000D02*
X43242836Y-54920000D01*
X43027164Y-55640000D02*
X43242836Y-55640000D01*
D13*
G04 #@! TO.C,U4*
X68249000Y-38936000D02*
X68249000Y-38052000D01*
X68409000Y-36894000D02*
X70009000Y-36894000D01*
X68449000Y-40112000D02*
X69989000Y-40112000D01*
X70735000Y-40092000D02*
G75*
G03*
X70735000Y-40092000I-64000J0D01*
G01*
D11*
G04 #@! TO.C,U2*
X43691000Y-12468500D02*
X43691000Y-9316500D01*
X41539000Y-9316500D02*
X41539000Y-12468500D01*
D14*
X43477000Y-8860500D02*
G75*
G03*
X43477000Y-8860500I-100000J0D01*
G01*
D10*
G04 #@! TO.C,C11*
X15682164Y-46150000D02*
X15897836Y-46150000D01*
X15682164Y-46870000D02*
X15897836Y-46870000D01*
D11*
G04 #@! TO.C,U3*
X49044000Y-18524000D02*
X52096000Y-18524000D01*
X49044000Y-19266000D02*
X49044000Y-18524000D01*
X52096000Y-18524000D02*
X52096000Y-19266000D01*
X52096000Y-19266000D02*
X49044000Y-19266000D01*
D15*
X49111000Y-20106000D02*
G75*
G03*
X49111000Y-20106000I-150000J0D01*
G01*
D10*
G04 #@! TO.C,C18*
X17907164Y-78585000D02*
X18122836Y-78585000D01*
X17907164Y-79305000D02*
X18122836Y-79305000D01*
G04 #@! TO.C,C15*
X43250000Y-22532836D02*
X43250000Y-22317164D01*
X43970000Y-22532836D02*
X43970000Y-22317164D01*
G04 #@! TO.C,R1*
X28730000Y-33428641D02*
X28730000Y-33121359D01*
X29490000Y-33428641D02*
X29490000Y-33121359D01*
G04 #@! TO.C,C10*
X67022164Y-33640000D02*
X67237836Y-33640000D01*
X67022164Y-34360000D02*
X67237836Y-34360000D01*
G04 #@! TO.C,R10*
X62149000Y-76841359D02*
X62149000Y-77148641D01*
X61389000Y-76841359D02*
X61389000Y-77148641D01*
D11*
G04 #@! TO.C,U3*
X25044000Y-75524000D02*
X28096000Y-75524000D01*
X25044000Y-76266000D02*
X25044000Y-75524000D01*
X28096000Y-75524000D02*
X28096000Y-76266000D01*
X28096000Y-76266000D02*
X25044000Y-76266000D01*
D15*
X25111000Y-77106000D02*
G75*
G03*
X25111000Y-77106000I-150000J0D01*
G01*
D10*
G04 #@! TO.C,C12*
X36502164Y-65155000D02*
X36717836Y-65155000D01*
X36502164Y-65875000D02*
X36717836Y-65875000D01*
D11*
G04 #@! TO.C,U3*
X25044000Y-37524000D02*
X28096000Y-37524000D01*
X25044000Y-38266000D02*
X25044000Y-37524000D01*
X28096000Y-37524000D02*
X28096000Y-38266000D01*
X28096000Y-38266000D02*
X25044000Y-38266000D01*
D15*
X25111000Y-39106000D02*
G75*
G03*
X25111000Y-39106000I-150000J0D01*
G01*
D10*
G04 #@! TO.C,C16*
X17907164Y-38485000D02*
X18122836Y-38485000D01*
X17907164Y-39205000D02*
X18122836Y-39205000D01*
G04 #@! TO.C,R5*
X21045000Y-27651359D02*
X21045000Y-27958641D01*
X20285000Y-27651359D02*
X20285000Y-27958641D01*
G04 #@! TO.C,C5*
X19027164Y-73920000D02*
X19242836Y-73920000D01*
X19027164Y-74640000D02*
X19242836Y-74640000D01*
G04 #@! TO.C,R12*
X49396359Y-63015000D02*
X49703641Y-63015000D01*
X49396359Y-63775000D02*
X49703641Y-63775000D01*
D11*
G04 #@! TO.C,U3*
X49044000Y-37524000D02*
X52096000Y-37524000D01*
X49044000Y-38266000D02*
X49044000Y-37524000D01*
X52096000Y-37524000D02*
X52096000Y-38266000D01*
X52096000Y-38266000D02*
X49044000Y-38266000D01*
D15*
X49111000Y-39106000D02*
G75*
G03*
X49111000Y-39106000I-150000J0D01*
G01*
D10*
G04 #@! TO.C,C9*
X16060000Y-55907164D02*
X16060000Y-56122836D01*
X15340000Y-55907164D02*
X15340000Y-56122836D01*
D13*
G04 #@! TO.C,U1*
X63395000Y-9905000D02*
X63395000Y-10474000D01*
X62826000Y-9905000D02*
X63395000Y-9905000D01*
X62826000Y-9905000D02*
X63395000Y-10474000D01*
X56395000Y-9905000D02*
X56964000Y-9905000D01*
X56395000Y-10005000D02*
X56395000Y-9905000D01*
X63395000Y-10164000D02*
X63298000Y-10164000D01*
X63298000Y-10164000D02*
X63039000Y-9905000D01*
X56395000Y-10474000D02*
X56395000Y-10005000D01*
X63395000Y-16336000D02*
X63395000Y-16905000D01*
X63395000Y-16905000D02*
X62826000Y-16905000D01*
X56964000Y-16905000D02*
X56395000Y-16905000D01*
X56395000Y-16905000D02*
X56395000Y-16336000D01*
X63722000Y-9405000D02*
G75*
G03*
X63722000Y-9405000I-127000J0D01*
G01*
D10*
G04 #@! TO.C,R12*
X25396359Y-6015000D02*
X25703641Y-6015000D01*
X25396359Y-6775000D02*
X25703641Y-6775000D01*
G04 #@! TO.C,C16*
X65907164Y-19485000D02*
X66122836Y-19485000D01*
X65907164Y-20205000D02*
X66122836Y-20205000D01*
X41907164Y-38485000D02*
X42122836Y-38485000D01*
X41907164Y-39205000D02*
X42122836Y-39205000D01*
G04 #@! TO.C,R9*
X37088000Y-76841359D02*
X37088000Y-77148641D01*
X36328000Y-76841359D02*
X36328000Y-77148641D01*
G04 #@! TO.C,C10*
X43022164Y-71640000D02*
X43237836Y-71640000D01*
X43022164Y-72360000D02*
X43237836Y-72360000D01*
G04 #@! TO.C,C7*
X10930000Y-76882164D02*
X10930000Y-77097836D01*
X10210000Y-76882164D02*
X10210000Y-77097836D01*
G04 #@! TO.C,R2*
X31525000Y-56523641D02*
X31525000Y-56216359D01*
X32285000Y-56523641D02*
X32285000Y-56216359D01*
G04 #@! TO.C,C3*
X26642164Y-29315000D02*
X26857836Y-29315000D01*
X26642164Y-30035000D02*
X26857836Y-30035000D01*
G04 #@! TO.C,R6*
X68285000Y-48943641D02*
X68285000Y-48636359D01*
X69045000Y-48943641D02*
X69045000Y-48636359D01*
G04 #@! TO.C,R5*
X21045000Y-8651359D02*
X21045000Y-8958641D01*
X20285000Y-8651359D02*
X20285000Y-8958641D01*
G04 #@! TO.C,R8*
X36027000Y-19841359D02*
X36027000Y-20148641D01*
X35267000Y-19841359D02*
X35267000Y-20148641D01*
G04 #@! TO.C,C14*
X45025000Y-69647164D02*
X45025000Y-69862836D01*
X44305000Y-69647164D02*
X44305000Y-69862836D01*
G04 #@! TO.C,C2*
X19022164Y-70545000D02*
X19237836Y-70545000D01*
X19022164Y-71265000D02*
X19237836Y-71265000D01*
G04 #@! TO.C,C9*
X40060000Y-36907164D02*
X40060000Y-37122836D01*
X39340000Y-36907164D02*
X39340000Y-37122836D01*
G04 #@! TO.C,C6*
X40385000Y-75122836D02*
X40385000Y-74907164D01*
X41105000Y-75122836D02*
X41105000Y-74907164D01*
G04 #@! TO.C,C8*
X40685000Y-19887164D02*
X40685000Y-20102836D01*
X39965000Y-19887164D02*
X39965000Y-20102836D01*
D13*
G04 #@! TO.C,U1*
X39395000Y-28905000D02*
X39395000Y-29474000D01*
X38826000Y-28905000D02*
X39395000Y-28905000D01*
X38826000Y-28905000D02*
X39395000Y-29474000D01*
X32395000Y-28905000D02*
X32964000Y-28905000D01*
X32395000Y-29005000D02*
X32395000Y-28905000D01*
X39395000Y-29164000D02*
X39298000Y-29164000D01*
X39298000Y-29164000D02*
X39039000Y-28905000D01*
X32395000Y-29474000D02*
X32395000Y-29005000D01*
X39395000Y-35336000D02*
X39395000Y-35905000D01*
X39395000Y-35905000D02*
X38826000Y-35905000D01*
X32964000Y-35905000D02*
X32395000Y-35905000D01*
X32395000Y-35905000D02*
X32395000Y-35336000D01*
X39722000Y-28405000D02*
G75*
G03*
X39722000Y-28405000I-127000J0D01*
G01*
D10*
G04 #@! TO.C,R6*
X44285000Y-67943641D02*
X44285000Y-67636359D01*
X45045000Y-67943641D02*
X45045000Y-67636359D01*
G04 #@! TO.C,R5*
X69045000Y-65651359D02*
X69045000Y-65958641D01*
X68285000Y-65651359D02*
X68285000Y-65958641D01*
G04 #@! TO.C,C18*
X41907164Y-78585000D02*
X42122836Y-78585000D01*
X41907164Y-79305000D02*
X42122836Y-79305000D01*
D11*
G04 #@! TO.C,LED1*
X3810000Y-61550000D02*
X3556000Y-61550000D01*
X3810000Y-61430000D02*
X3810000Y-61550000D01*
X3810000Y-60630000D02*
X3810000Y-60670000D01*
X3810000Y-59830000D02*
X3810000Y-59870000D01*
X3810000Y-59010000D02*
X3810000Y-59070000D01*
X3556000Y-61550000D02*
X1270000Y-61550000D01*
X1270000Y-61550000D02*
X1270000Y-61430000D01*
X1270000Y-60670000D02*
X1270000Y-60630000D01*
X1270000Y-59870000D02*
X1270000Y-59830000D01*
X1270000Y-59070000D02*
X1270000Y-59010000D01*
X1270000Y-59010000D02*
X3810000Y-59010000D01*
D12*
X4290000Y-61090000D02*
G75*
G03*
X4290000Y-61090000I-70000J0D01*
G01*
D10*
X2625000Y-59585000D02*
X2355000Y-59455000D01*
X2625000Y-59335000D01*
X2625000Y-59585000D01*
G36*
X2625000Y-59585000D02*
G01*
X2355000Y-59455000D01*
X2625000Y-59335000D01*
X2625000Y-59585000D01*
G37*
G04 #@! TO.C,C6*
X16385000Y-18122836D02*
X16385000Y-17907164D01*
X17105000Y-18122836D02*
X17105000Y-17907164D01*
D13*
G04 #@! TO.C,U4*
X20249000Y-76936000D02*
X20249000Y-76052000D01*
X20409000Y-74894000D02*
X22009000Y-74894000D01*
X20449000Y-78112000D02*
X21989000Y-78112000D01*
X22735000Y-78092000D02*
G75*
G03*
X22735000Y-78092000I-64000J0D01*
G01*
G04 #@! TO.C,SW1*
X20019000Y-45886000D02*
X16971000Y-45886000D01*
X20019000Y-43854000D02*
X16971000Y-43854000D01*
X17986509Y-44615748D02*
G75*
G03*
X18093001Y-44468001I508491J-254252D01*
G01*
G04 #@! TO.C,U4*
X68249000Y-19936000D02*
X68249000Y-19052000D01*
X68409000Y-17894000D02*
X70009000Y-17894000D01*
X68449000Y-21112000D02*
X69989000Y-21112000D01*
X70735000Y-21092000D02*
G75*
G03*
X70735000Y-21092000I-64000J0D01*
G01*
D11*
G04 #@! TO.C,X1*
X52152000Y-34506000D02*
X52660000Y-34506000D01*
X52660000Y-34506000D02*
X52660000Y-33998000D01*
X49104000Y-34249000D02*
X49104000Y-30188000D01*
X52434000Y-34249000D02*
X49104000Y-34249000D01*
X49104000Y-30188000D02*
X50755000Y-30188000D01*
X50755000Y-30188000D02*
X52406000Y-30188000D01*
X52406000Y-30188000D02*
X52434000Y-34249000D01*
X52406000Y-30188000D02*
X52406000Y-30188000D01*
D10*
G04 #@! TO.C,C8*
X16685000Y-38887164D02*
X16685000Y-39102836D01*
X15965000Y-38887164D02*
X15965000Y-39102836D01*
G04 #@! TO.C,R12*
X1396359Y-44015000D02*
X1703641Y-44015000D01*
X1396359Y-44775000D02*
X1703641Y-44775000D01*
X49396359Y-6015000D02*
X49703641Y-6015000D01*
X49396359Y-6775000D02*
X49703641Y-6775000D01*
G04 #@! TO.C,R11*
X39210000Y-57841359D02*
X39210000Y-58148641D01*
X38450000Y-57841359D02*
X38450000Y-58148641D01*
G04 #@! TO.C,R3*
X20275000Y-14883642D02*
X20275000Y-14576360D01*
X21035000Y-14883642D02*
X21035000Y-14576360D01*
G04 #@! TO.C,R9*
X13088000Y-38841359D02*
X13088000Y-39148641D01*
X12328000Y-38841359D02*
X12328000Y-39148641D01*
D11*
G04 #@! TO.C,U2*
X43691000Y-50468500D02*
X43691000Y-47316500D01*
X41539000Y-47316500D02*
X41539000Y-50468500D01*
D14*
X43477000Y-46860500D02*
G75*
G03*
X43477000Y-46860500I-100000J0D01*
G01*
D10*
G04 #@! TO.C,C1*
X50657164Y-72395000D02*
X50872836Y-72395000D01*
X50657164Y-73115000D02*
X50872836Y-73115000D01*
G04 #@! TO.C,C14*
X21025000Y-31647164D02*
X21025000Y-31862836D01*
X20305000Y-31647164D02*
X20305000Y-31862836D01*
D11*
G04 #@! TO.C,X1*
X28152000Y-72506000D02*
X28660000Y-72506000D01*
X28660000Y-72506000D02*
X28660000Y-71998000D01*
X25104000Y-72249000D02*
X25104000Y-68188000D01*
X28434000Y-72249000D02*
X25104000Y-72249000D01*
X25104000Y-68188000D02*
X26755000Y-68188000D01*
X26755000Y-68188000D02*
X28406000Y-68188000D01*
X28406000Y-68188000D02*
X28434000Y-72249000D01*
X28406000Y-68188000D02*
X28406000Y-68188000D01*
D10*
G04 #@! TO.C,C9*
X16060000Y-36907164D02*
X16060000Y-37122836D01*
X15340000Y-36907164D02*
X15340000Y-37122836D01*
G04 #@! TO.C,R7*
X52455000Y-59343641D02*
X52455000Y-59036359D01*
X53215000Y-59343641D02*
X53215000Y-59036359D01*
G04 #@! TO.C,C3*
X26642164Y-67315000D02*
X26857836Y-67315000D01*
X26642164Y-68035000D02*
X26857836Y-68035000D01*
G04 #@! TO.C,C5*
X19027164Y-16920000D02*
X19242836Y-16920000D01*
X19027164Y-17640000D02*
X19242836Y-17640000D01*
G04 #@! TO.C,C3*
X50642164Y-10315000D02*
X50857836Y-10315000D01*
X50642164Y-11035000D02*
X50857836Y-11035000D01*
G04 #@! TO.C,C4*
X54530000Y-16152164D02*
X54530000Y-16367836D01*
X53810000Y-16152164D02*
X53810000Y-16367836D01*
D11*
G04 #@! TO.C,U2*
X19691000Y-69468500D02*
X19691000Y-66316500D01*
X17539000Y-66316500D02*
X17539000Y-69468500D01*
D14*
X19477000Y-65860500D02*
G75*
G03*
X19477000Y-65860500I-100000J0D01*
G01*
D11*
G04 #@! TO.C,L1*
X22863000Y-80441000D02*
X20577000Y-80441000D01*
X20577000Y-78409000D02*
X22863000Y-78409000D01*
D10*
G04 #@! TO.C,R6*
X68285000Y-67943641D02*
X68285000Y-67636359D01*
X69045000Y-67943641D02*
X69045000Y-67636359D01*
D13*
G04 #@! TO.C,U1*
X39395000Y-9905000D02*
X39395000Y-10474000D01*
X38826000Y-9905000D02*
X39395000Y-9905000D01*
X38826000Y-9905000D02*
X39395000Y-10474000D01*
X32395000Y-9905000D02*
X32964000Y-9905000D01*
X32395000Y-10005000D02*
X32395000Y-9905000D01*
X39395000Y-10164000D02*
X39298000Y-10164000D01*
X39298000Y-10164000D02*
X39039000Y-9905000D01*
X32395000Y-10474000D02*
X32395000Y-10005000D01*
X39395000Y-16336000D02*
X39395000Y-16905000D01*
X39395000Y-16905000D02*
X38826000Y-16905000D01*
X32964000Y-16905000D02*
X32395000Y-16905000D01*
X32395000Y-16905000D02*
X32395000Y-16336000D01*
X39722000Y-9405000D02*
G75*
G03*
X39722000Y-9405000I-127000J0D01*
G01*
D10*
G04 #@! TO.C,C2*
X67022164Y-13545000D02*
X67237836Y-13545000D01*
X67022164Y-14265000D02*
X67237836Y-14265000D01*
D11*
G04 #@! TO.C,L1*
X46863000Y-42441000D02*
X44577000Y-42441000D01*
X44577000Y-40409000D02*
X46863000Y-40409000D01*
D10*
G04 #@! TO.C,C13*
X53475000Y-73147164D02*
X53475000Y-73362836D01*
X52755000Y-73147164D02*
X52755000Y-73362836D01*
G04 #@! TO.C,R12*
X49396359Y-25015000D02*
X49703641Y-25015000D01*
X49396359Y-25775000D02*
X49703641Y-25775000D01*
G04 #@! TO.C,C10*
X19022164Y-52640000D02*
X19237836Y-52640000D01*
X19022164Y-53360000D02*
X19237836Y-53360000D01*
G04 #@! TO.C,R3*
X68275000Y-14883642D02*
X68275000Y-14576360D01*
X69035000Y-14883642D02*
X69035000Y-14576360D01*
G04 #@! TO.C,R4*
X69035000Y-35596359D02*
X69035000Y-35903641D01*
X68275000Y-35596359D02*
X68275000Y-35903641D01*
G04 #@! TO.C,R5*
X21045000Y-46651359D02*
X21045000Y-46958641D01*
X20285000Y-46651359D02*
X20285000Y-46958641D01*
D11*
G04 #@! TO.C,LED1*
X51810000Y-23550000D02*
X51556000Y-23550000D01*
X51810000Y-23430000D02*
X51810000Y-23550000D01*
X51810000Y-22630000D02*
X51810000Y-22670000D01*
X51810000Y-21830000D02*
X51810000Y-21870000D01*
X51810000Y-21010000D02*
X51810000Y-21070000D01*
X51556000Y-23550000D02*
X49270000Y-23550000D01*
X49270000Y-23550000D02*
X49270000Y-23430000D01*
X49270000Y-22670000D02*
X49270000Y-22630000D01*
X49270000Y-21870000D02*
X49270000Y-21830000D01*
X49270000Y-21070000D02*
X49270000Y-21010000D01*
X49270000Y-21010000D02*
X51810000Y-21010000D01*
D12*
X52290000Y-23090000D02*
G75*
G03*
X52290000Y-23090000I-70000J0D01*
G01*
D10*
X50625000Y-21585000D02*
X50355000Y-21455000D01*
X50625000Y-21335000D01*
X50625000Y-21585000D01*
G36*
X50625000Y-21585000D02*
G01*
X50355000Y-21455000D01*
X50625000Y-21335000D01*
X50625000Y-21585000D01*
G37*
D13*
G04 #@! TO.C,U1*
X63395000Y-66905000D02*
X63395000Y-67474000D01*
X62826000Y-66905000D02*
X63395000Y-66905000D01*
X62826000Y-66905000D02*
X63395000Y-67474000D01*
X56395000Y-66905000D02*
X56964000Y-66905000D01*
X56395000Y-67005000D02*
X56395000Y-66905000D01*
X63395000Y-67164000D02*
X63298000Y-67164000D01*
X63298000Y-67164000D02*
X63039000Y-66905000D01*
X56395000Y-67474000D02*
X56395000Y-67005000D01*
X63395000Y-73336000D02*
X63395000Y-73905000D01*
X63395000Y-73905000D02*
X62826000Y-73905000D01*
X56964000Y-73905000D02*
X56395000Y-73905000D01*
X56395000Y-73905000D02*
X56395000Y-73336000D01*
X63722000Y-66405000D02*
G75*
G03*
X63722000Y-66405000I-127000J0D01*
G01*
D11*
G04 #@! TO.C,X1*
X52152000Y-15506000D02*
X52660000Y-15506000D01*
X52660000Y-15506000D02*
X52660000Y-14998000D01*
X49104000Y-15249000D02*
X49104000Y-11188000D01*
X52434000Y-15249000D02*
X49104000Y-15249000D01*
X49104000Y-11188000D02*
X50755000Y-11188000D01*
X50755000Y-11188000D02*
X52406000Y-11188000D01*
X52406000Y-11188000D02*
X52434000Y-15249000D01*
X52406000Y-11188000D02*
X52406000Y-11188000D01*
D10*
G04 #@! TO.C,C13*
X29475000Y-16147164D02*
X29475000Y-16362836D01*
X28755000Y-16147164D02*
X28755000Y-16362836D01*
G04 #@! TO.C,C7*
X34930000Y-76882164D02*
X34930000Y-77097836D01*
X34210000Y-76882164D02*
X34210000Y-77097836D01*
G04 #@! TO.C,C10*
X67022164Y-71640000D02*
X67237836Y-71640000D01*
X67022164Y-72360000D02*
X67237836Y-72360000D01*
G04 #@! TO.C,R3*
X20275000Y-33883642D02*
X20275000Y-33576360D01*
X21035000Y-33883642D02*
X21035000Y-33576360D01*
G04 #@! TO.C,C1*
X26657164Y-72395000D02*
X26872836Y-72395000D01*
X26657164Y-73115000D02*
X26872836Y-73115000D01*
D13*
G04 #@! TO.C,SW1*
X68019000Y-26886000D02*
X64971000Y-26886000D01*
X68019000Y-24854000D02*
X64971000Y-24854000D01*
X65986509Y-25615748D02*
G75*
G03*
X66093001Y-25468001I508491J-254252D01*
G01*
D10*
G04 #@! TO.C,R4*
X21035000Y-35596359D02*
X21035000Y-35903641D01*
X20275000Y-35596359D02*
X20275000Y-35903641D01*
G04 #@! TO.C,R7*
X28455000Y-78343641D02*
X28455000Y-78036359D01*
X29215000Y-78343641D02*
X29215000Y-78036359D01*
G04 #@! TO.C,R2*
X7525000Y-37523641D02*
X7525000Y-37216359D01*
X8285000Y-37523641D02*
X8285000Y-37216359D01*
G04 #@! TO.C,C10*
X43022164Y-14640000D02*
X43237836Y-14640000D01*
X43022164Y-15360000D02*
X43237836Y-15360000D01*
G04 #@! TO.C,C14*
X69025000Y-69647164D02*
X69025000Y-69862836D01*
X68305000Y-69647164D02*
X68305000Y-69862836D01*
D11*
G04 #@! TO.C,LED1*
X3810000Y-42550000D02*
X3556000Y-42550000D01*
X3810000Y-42430000D02*
X3810000Y-42550000D01*
X3810000Y-41630000D02*
X3810000Y-41670000D01*
X3810000Y-40830000D02*
X3810000Y-40870000D01*
X3810000Y-40010000D02*
X3810000Y-40070000D01*
X3556000Y-42550000D02*
X1270000Y-42550000D01*
X1270000Y-42550000D02*
X1270000Y-42430000D01*
X1270000Y-41670000D02*
X1270000Y-41630000D01*
X1270000Y-40870000D02*
X1270000Y-40830000D01*
X1270000Y-40070000D02*
X1270000Y-40010000D01*
X1270000Y-40010000D02*
X3810000Y-40010000D01*
D12*
X4290000Y-42090000D02*
G75*
G03*
X4290000Y-42090000I-70000J0D01*
G01*
D10*
X2625000Y-40585000D02*
X2355000Y-40455000D01*
X2625000Y-40335000D01*
X2625000Y-40585000D01*
G36*
X2625000Y-40585000D02*
G01*
X2355000Y-40455000D01*
X2625000Y-40335000D01*
X2625000Y-40585000D01*
G37*
G04 #@! TO.C,R5*
X45045000Y-65651359D02*
X45045000Y-65958641D01*
X44285000Y-65651359D02*
X44285000Y-65958641D01*
G04 #@! TO.C,C16*
X41907164Y-19485000D02*
X42122836Y-19485000D01*
X41907164Y-20205000D02*
X42122836Y-20205000D01*
D11*
G04 #@! TO.C,X1*
X52152000Y-53506000D02*
X52660000Y-53506000D01*
X52660000Y-53506000D02*
X52660000Y-52998000D01*
X49104000Y-53249000D02*
X49104000Y-49188000D01*
X52434000Y-53249000D02*
X49104000Y-53249000D01*
X49104000Y-49188000D02*
X50755000Y-49188000D01*
X50755000Y-49188000D02*
X52406000Y-49188000D01*
X52406000Y-49188000D02*
X52434000Y-53249000D01*
X52406000Y-49188000D02*
X52406000Y-49188000D01*
D10*
G04 #@! TO.C,C4*
X54530000Y-54152164D02*
X54530000Y-54367836D01*
X53810000Y-54152164D02*
X53810000Y-54367836D01*
D11*
G04 #@! TO.C,X1*
X4152000Y-15506000D02*
X4660000Y-15506000D01*
X4660000Y-15506000D02*
X4660000Y-14998000D01*
X1104000Y-15249000D02*
X1104000Y-11188000D01*
X4434000Y-15249000D02*
X1104000Y-15249000D01*
X1104000Y-11188000D02*
X2755000Y-11188000D01*
X2755000Y-11188000D02*
X4406000Y-11188000D01*
X4406000Y-11188000D02*
X4434000Y-15249000D01*
X4406000Y-11188000D02*
X4406000Y-11188000D01*
X4152000Y-72506000D02*
X4660000Y-72506000D01*
X4660000Y-72506000D02*
X4660000Y-71998000D01*
X1104000Y-72249000D02*
X1104000Y-68188000D01*
X4434000Y-72249000D02*
X1104000Y-72249000D01*
X1104000Y-68188000D02*
X2755000Y-68188000D01*
X2755000Y-68188000D02*
X4406000Y-68188000D01*
X4406000Y-68188000D02*
X4434000Y-72249000D01*
X4406000Y-68188000D02*
X4406000Y-68188000D01*
D10*
G04 #@! TO.C,R6*
X44285000Y-29943641D02*
X44285000Y-29636359D01*
X45045000Y-29943641D02*
X45045000Y-29636359D01*
G04 #@! TO.C,C12*
X60502164Y-65155000D02*
X60717836Y-65155000D01*
X60502164Y-65875000D02*
X60717836Y-65875000D01*
G04 #@! TO.C,R9*
X61088000Y-19841359D02*
X61088000Y-20148641D01*
X60328000Y-19841359D02*
X60328000Y-20148641D01*
G04 #@! TO.C,C11*
X63682164Y-27150000D02*
X63897836Y-27150000D01*
X63682164Y-27870000D02*
X63897836Y-27870000D01*
G04 #@! TO.C,C8*
X40685000Y-76887164D02*
X40685000Y-77102836D01*
X39965000Y-76887164D02*
X39965000Y-77102836D01*
G04 #@! TO.C,C13*
X5475000Y-54147164D02*
X5475000Y-54362836D01*
X4755000Y-54147164D02*
X4755000Y-54362836D01*
G04 #@! TO.C,C18*
X41907164Y-21585000D02*
X42122836Y-21585000D01*
X41907164Y-22305000D02*
X42122836Y-22305000D01*
G04 #@! TO.C,C13*
X5475000Y-35147164D02*
X5475000Y-35362836D01*
X4755000Y-35147164D02*
X4755000Y-35362836D01*
G04 #@! TO.C,C17*
X65907164Y-77535000D02*
X66122836Y-77535000D01*
X65907164Y-78255000D02*
X66122836Y-78255000D01*
G04 #@! TO.C,C18*
X65907164Y-40585000D02*
X66122836Y-40585000D01*
X65907164Y-41305000D02*
X66122836Y-41305000D01*
G04 #@! TO.C,C7*
X10930000Y-38882164D02*
X10930000Y-39097836D01*
X10210000Y-38882164D02*
X10210000Y-39097836D01*
G04 #@! TO.C,C11*
X15682164Y-27150000D02*
X15897836Y-27150000D01*
X15682164Y-27870000D02*
X15897836Y-27870000D01*
G04 #@! TO.C,C12*
X12502164Y-46155000D02*
X12717836Y-46155000D01*
X12502164Y-46875000D02*
X12717836Y-46875000D01*
G04 #@! TO.C,C17*
X65907164Y-39535000D02*
X66122836Y-39535000D01*
X65907164Y-40255000D02*
X66122836Y-40255000D01*
G04 #@! TO.C,C1*
X26657164Y-15395000D02*
X26872836Y-15395000D01*
X26657164Y-16115000D02*
X26872836Y-16115000D01*
G04 #@! TO.C,R2*
X55525000Y-75523641D02*
X55525000Y-75216359D01*
X56285000Y-75523641D02*
X56285000Y-75216359D01*
G04 #@! TO.C,C10*
X67022164Y-52640000D02*
X67237836Y-52640000D01*
X67022164Y-53360000D02*
X67237836Y-53360000D01*
G04 #@! TO.C,C4*
X30530000Y-73152164D02*
X30530000Y-73367836D01*
X29810000Y-73152164D02*
X29810000Y-73367836D01*
G04 #@! TO.C,C9*
X64060000Y-74907164D02*
X64060000Y-75122836D01*
X63340000Y-74907164D02*
X63340000Y-75122836D01*
G04 #@! TO.C,R10*
X38149000Y-57841359D02*
X38149000Y-58148641D01*
X37389000Y-57841359D02*
X37389000Y-58148641D01*
G04 #@! TO.C,R12*
X25396359Y-63015000D02*
X25703641Y-63015000D01*
X25396359Y-63775000D02*
X25703641Y-63775000D01*
D11*
G04 #@! TO.C,U2*
X67691000Y-31468500D02*
X67691000Y-28316500D01*
X65539000Y-28316500D02*
X65539000Y-31468500D01*
D14*
X67477000Y-27860500D02*
G75*
G03*
X67477000Y-27860500I-100000J0D01*
G01*
D10*
G04 #@! TO.C,C3*
X26642164Y-48315000D02*
X26857836Y-48315000D01*
X26642164Y-49035000D02*
X26857836Y-49035000D01*
G04 #@! TO.C,R11*
X63210000Y-19841359D02*
X63210000Y-20148641D01*
X62450000Y-19841359D02*
X62450000Y-20148641D01*
G04 #@! TO.C,C7*
X34930000Y-38882164D02*
X34930000Y-39097836D01*
X34210000Y-38882164D02*
X34210000Y-39097836D01*
G04 #@! TO.C,R10*
X14149000Y-57841359D02*
X14149000Y-58148641D01*
X13389000Y-57841359D02*
X13389000Y-58148641D01*
G04 #@! TO.C,C6*
X16385000Y-56122836D02*
X16385000Y-55907164D01*
X17105000Y-56122836D02*
X17105000Y-55907164D01*
G04 #@! TO.C,R9*
X61088000Y-57841359D02*
X61088000Y-58148641D01*
X60328000Y-57841359D02*
X60328000Y-58148641D01*
G04 #@! TO.C,R8*
X60027000Y-57841359D02*
X60027000Y-58148641D01*
X59267000Y-57841359D02*
X59267000Y-58148641D01*
D13*
G04 #@! TO.C,U4*
X20249000Y-19936000D02*
X20249000Y-19052000D01*
X20409000Y-17894000D02*
X22009000Y-17894000D01*
X20449000Y-21112000D02*
X21989000Y-21112000D01*
X22735000Y-21092000D02*
G75*
G03*
X22735000Y-21092000I-64000J0D01*
G01*
D10*
G04 #@! TO.C,R8*
X12027000Y-38841359D02*
X12027000Y-39148641D01*
X11267000Y-38841359D02*
X11267000Y-39148641D01*
G04 #@! TO.C,R3*
X44275000Y-14883642D02*
X44275000Y-14576360D01*
X45035000Y-14883642D02*
X45035000Y-14576360D01*
G04 #@! TO.C,C16*
X65907164Y-38485000D02*
X66122836Y-38485000D01*
X65907164Y-39205000D02*
X66122836Y-39205000D01*
G04 #@! TO.C,C11*
X63682164Y-65150000D02*
X63897836Y-65150000D01*
X63682164Y-65870000D02*
X63897836Y-65870000D01*
G04 #@! TO.C,C7*
X10930000Y-19882164D02*
X10930000Y-20097836D01*
X10210000Y-19882164D02*
X10210000Y-20097836D01*
G04 #@! TD*
M02*
