G04 #@! TF.GenerationSoftware,KiCad,Pcbnew,7.0.2-6a45011f42~172~ubuntu22.04.1*
G04 #@! TF.CreationDate,2023-05-22T20:20:29+08:00*
G04 #@! TF.ProjectId,panel_4_3,70616e65-6c5f-4345-9f33-2e6b69636164,rev?*
G04 #@! TF.SameCoordinates,Original*
G04 #@! TF.FileFunction,Other,Comment*
%FSLAX46Y46*%
G04 Gerber Fmt 4.6, Leading zero omitted, Abs format (unit mm)*
G04 Created by KiCad (PCBNEW 7.0.2-6a45011f42~172~ubuntu22.04.1) date 2023-05-22 20:20:29*
%MOMM*%
%LPD*%
G01*
G04 APERTURE LIST*
%ADD10C,0.400000*%
G04 APERTURE END LIST*
D10*
X-3000000Y-62200000D02*
X75000000Y-62200000D01*
X48000000Y3000000D02*
X48000000Y-89400000D01*
X-3000000Y-5200000D02*
X75000000Y-5200000D01*
X24000000Y3000000D02*
X24000000Y-89400000D01*
X-3000000Y-43200000D02*
X75000000Y-43200000D01*
X-3000000Y-81200000D02*
X75000000Y-81200000D01*
X-3000000Y-24200000D02*
X75000000Y-24200000D01*
X78190476Y-42125238D02*
X78857142Y-44125238D01*
X78857142Y-44125238D02*
X79523809Y-42125238D01*
X80190476Y-43363333D02*
X81714286Y-43363333D01*
X83809523Y-43934761D02*
X83714285Y-44030000D01*
X83714285Y-44030000D02*
X83428571Y-44125238D01*
X83428571Y-44125238D02*
X83238095Y-44125238D01*
X83238095Y-44125238D02*
X82952380Y-44030000D01*
X82952380Y-44030000D02*
X82761904Y-43839523D01*
X82761904Y-43839523D02*
X82666666Y-43649047D01*
X82666666Y-43649047D02*
X82571428Y-43268095D01*
X82571428Y-43268095D02*
X82571428Y-42982380D01*
X82571428Y-42982380D02*
X82666666Y-42601428D01*
X82666666Y-42601428D02*
X82761904Y-42410952D01*
X82761904Y-42410952D02*
X82952380Y-42220476D01*
X82952380Y-42220476D02*
X83238095Y-42125238D01*
X83238095Y-42125238D02*
X83428571Y-42125238D01*
X83428571Y-42125238D02*
X83714285Y-42220476D01*
X83714285Y-42220476D02*
X83809523Y-42315714D01*
X84666666Y-42125238D02*
X84666666Y-43744285D01*
X84666666Y-43744285D02*
X84761904Y-43934761D01*
X84761904Y-43934761D02*
X84857142Y-44030000D01*
X84857142Y-44030000D02*
X85047618Y-44125238D01*
X85047618Y-44125238D02*
X85428571Y-44125238D01*
X85428571Y-44125238D02*
X85619047Y-44030000D01*
X85619047Y-44030000D02*
X85714285Y-43934761D01*
X85714285Y-43934761D02*
X85809523Y-43744285D01*
X85809523Y-43744285D02*
X85809523Y-42125238D01*
X86476190Y-42125238D02*
X87619047Y-42125238D01*
X87047618Y-44125238D02*
X87047618Y-42125238D01*
X78190476Y-4125238D02*
X78857142Y-6125238D01*
X78857142Y-6125238D02*
X79523809Y-4125238D01*
X80190476Y-5363333D02*
X81714286Y-5363333D01*
X83809523Y-5934761D02*
X83714285Y-6030000D01*
X83714285Y-6030000D02*
X83428571Y-6125238D01*
X83428571Y-6125238D02*
X83238095Y-6125238D01*
X83238095Y-6125238D02*
X82952380Y-6030000D01*
X82952380Y-6030000D02*
X82761904Y-5839523D01*
X82761904Y-5839523D02*
X82666666Y-5649047D01*
X82666666Y-5649047D02*
X82571428Y-5268095D01*
X82571428Y-5268095D02*
X82571428Y-4982380D01*
X82571428Y-4982380D02*
X82666666Y-4601428D01*
X82666666Y-4601428D02*
X82761904Y-4410952D01*
X82761904Y-4410952D02*
X82952380Y-4220476D01*
X82952380Y-4220476D02*
X83238095Y-4125238D01*
X83238095Y-4125238D02*
X83428571Y-4125238D01*
X83428571Y-4125238D02*
X83714285Y-4220476D01*
X83714285Y-4220476D02*
X83809523Y-4315714D01*
X84666666Y-4125238D02*
X84666666Y-5744285D01*
X84666666Y-5744285D02*
X84761904Y-5934761D01*
X84761904Y-5934761D02*
X84857142Y-6030000D01*
X84857142Y-6030000D02*
X85047618Y-6125238D01*
X85047618Y-6125238D02*
X85428571Y-6125238D01*
X85428571Y-6125238D02*
X85619047Y-6030000D01*
X85619047Y-6030000D02*
X85714285Y-5934761D01*
X85714285Y-5934761D02*
X85809523Y-5744285D01*
X85809523Y-5744285D02*
X85809523Y-4125238D01*
X86476190Y-4125238D02*
X87619047Y-4125238D01*
X87047618Y-6125238D02*
X87047618Y-4125238D01*
X22925238Y6190477D02*
X24925238Y6857143D01*
X24925238Y6857143D02*
X22925238Y7523810D01*
X24163333Y8190477D02*
X24163333Y9714286D01*
X24734761Y11809524D02*
X24830000Y11714286D01*
X24830000Y11714286D02*
X24925238Y11428572D01*
X24925238Y11428572D02*
X24925238Y11238096D01*
X24925238Y11238096D02*
X24830000Y10952381D01*
X24830000Y10952381D02*
X24639523Y10761905D01*
X24639523Y10761905D02*
X24449047Y10666667D01*
X24449047Y10666667D02*
X24068095Y10571429D01*
X24068095Y10571429D02*
X23782380Y10571429D01*
X23782380Y10571429D02*
X23401428Y10666667D01*
X23401428Y10666667D02*
X23210952Y10761905D01*
X23210952Y10761905D02*
X23020476Y10952381D01*
X23020476Y10952381D02*
X22925238Y11238096D01*
X22925238Y11238096D02*
X22925238Y11428572D01*
X22925238Y11428572D02*
X23020476Y11714286D01*
X23020476Y11714286D02*
X23115714Y11809524D01*
X22925238Y12666667D02*
X24544285Y12666667D01*
X24544285Y12666667D02*
X24734761Y12761905D01*
X24734761Y12761905D02*
X24830000Y12857143D01*
X24830000Y12857143D02*
X24925238Y13047619D01*
X24925238Y13047619D02*
X24925238Y13428572D01*
X24925238Y13428572D02*
X24830000Y13619048D01*
X24830000Y13619048D02*
X24734761Y13714286D01*
X24734761Y13714286D02*
X24544285Y13809524D01*
X24544285Y13809524D02*
X22925238Y13809524D01*
X22925238Y14476191D02*
X22925238Y15619048D01*
X24925238Y15047619D02*
X22925238Y15047619D01*
X78190476Y-23125238D02*
X78857142Y-25125238D01*
X78857142Y-25125238D02*
X79523809Y-23125238D01*
X80190476Y-24363333D02*
X81714286Y-24363333D01*
X83809523Y-24934761D02*
X83714285Y-25030000D01*
X83714285Y-25030000D02*
X83428571Y-25125238D01*
X83428571Y-25125238D02*
X83238095Y-25125238D01*
X83238095Y-25125238D02*
X82952380Y-25030000D01*
X82952380Y-25030000D02*
X82761904Y-24839523D01*
X82761904Y-24839523D02*
X82666666Y-24649047D01*
X82666666Y-24649047D02*
X82571428Y-24268095D01*
X82571428Y-24268095D02*
X82571428Y-23982380D01*
X82571428Y-23982380D02*
X82666666Y-23601428D01*
X82666666Y-23601428D02*
X82761904Y-23410952D01*
X82761904Y-23410952D02*
X82952380Y-23220476D01*
X82952380Y-23220476D02*
X83238095Y-23125238D01*
X83238095Y-23125238D02*
X83428571Y-23125238D01*
X83428571Y-23125238D02*
X83714285Y-23220476D01*
X83714285Y-23220476D02*
X83809523Y-23315714D01*
X84666666Y-23125238D02*
X84666666Y-24744285D01*
X84666666Y-24744285D02*
X84761904Y-24934761D01*
X84761904Y-24934761D02*
X84857142Y-25030000D01*
X84857142Y-25030000D02*
X85047618Y-25125238D01*
X85047618Y-25125238D02*
X85428571Y-25125238D01*
X85428571Y-25125238D02*
X85619047Y-25030000D01*
X85619047Y-25030000D02*
X85714285Y-24934761D01*
X85714285Y-24934761D02*
X85809523Y-24744285D01*
X85809523Y-24744285D02*
X85809523Y-23125238D01*
X86476190Y-23125238D02*
X87619047Y-23125238D01*
X87047618Y-25125238D02*
X87047618Y-23125238D01*
X78190476Y-61125238D02*
X78857142Y-63125238D01*
X78857142Y-63125238D02*
X79523809Y-61125238D01*
X80190476Y-62363333D02*
X81714286Y-62363333D01*
X83809523Y-62934761D02*
X83714285Y-63030000D01*
X83714285Y-63030000D02*
X83428571Y-63125238D01*
X83428571Y-63125238D02*
X83238095Y-63125238D01*
X83238095Y-63125238D02*
X82952380Y-63030000D01*
X82952380Y-63030000D02*
X82761904Y-62839523D01*
X82761904Y-62839523D02*
X82666666Y-62649047D01*
X82666666Y-62649047D02*
X82571428Y-62268095D01*
X82571428Y-62268095D02*
X82571428Y-61982380D01*
X82571428Y-61982380D02*
X82666666Y-61601428D01*
X82666666Y-61601428D02*
X82761904Y-61410952D01*
X82761904Y-61410952D02*
X82952380Y-61220476D01*
X82952380Y-61220476D02*
X83238095Y-61125238D01*
X83238095Y-61125238D02*
X83428571Y-61125238D01*
X83428571Y-61125238D02*
X83714285Y-61220476D01*
X83714285Y-61220476D02*
X83809523Y-61315714D01*
X84666666Y-61125238D02*
X84666666Y-62744285D01*
X84666666Y-62744285D02*
X84761904Y-62934761D01*
X84761904Y-62934761D02*
X84857142Y-63030000D01*
X84857142Y-63030000D02*
X85047618Y-63125238D01*
X85047618Y-63125238D02*
X85428571Y-63125238D01*
X85428571Y-63125238D02*
X85619047Y-63030000D01*
X85619047Y-63030000D02*
X85714285Y-62934761D01*
X85714285Y-62934761D02*
X85809523Y-62744285D01*
X85809523Y-62744285D02*
X85809523Y-61125238D01*
X86476190Y-61125238D02*
X87619047Y-61125238D01*
X87047618Y-63125238D02*
X87047618Y-61125238D01*
X46925238Y6190477D02*
X48925238Y6857143D01*
X48925238Y6857143D02*
X46925238Y7523810D01*
X48163333Y8190477D02*
X48163333Y9714286D01*
X48734761Y11809524D02*
X48830000Y11714286D01*
X48830000Y11714286D02*
X48925238Y11428572D01*
X48925238Y11428572D02*
X48925238Y11238096D01*
X48925238Y11238096D02*
X48830000Y10952381D01*
X48830000Y10952381D02*
X48639523Y10761905D01*
X48639523Y10761905D02*
X48449047Y10666667D01*
X48449047Y10666667D02*
X48068095Y10571429D01*
X48068095Y10571429D02*
X47782380Y10571429D01*
X47782380Y10571429D02*
X47401428Y10666667D01*
X47401428Y10666667D02*
X47210952Y10761905D01*
X47210952Y10761905D02*
X47020476Y10952381D01*
X47020476Y10952381D02*
X46925238Y11238096D01*
X46925238Y11238096D02*
X46925238Y11428572D01*
X46925238Y11428572D02*
X47020476Y11714286D01*
X47020476Y11714286D02*
X47115714Y11809524D01*
X46925238Y12666667D02*
X48544285Y12666667D01*
X48544285Y12666667D02*
X48734761Y12761905D01*
X48734761Y12761905D02*
X48830000Y12857143D01*
X48830000Y12857143D02*
X48925238Y13047619D01*
X48925238Y13047619D02*
X48925238Y13428572D01*
X48925238Y13428572D02*
X48830000Y13619048D01*
X48830000Y13619048D02*
X48734761Y13714286D01*
X48734761Y13714286D02*
X48544285Y13809524D01*
X48544285Y13809524D02*
X46925238Y13809524D01*
X46925238Y14476191D02*
X46925238Y15619048D01*
X48925238Y15047619D02*
X46925238Y15047619D01*
X78190476Y-80125238D02*
X78857142Y-82125238D01*
X78857142Y-82125238D02*
X79523809Y-80125238D01*
X80190476Y-81363333D02*
X81714286Y-81363333D01*
X83809523Y-81934761D02*
X83714285Y-82030000D01*
X83714285Y-82030000D02*
X83428571Y-82125238D01*
X83428571Y-82125238D02*
X83238095Y-82125238D01*
X83238095Y-82125238D02*
X82952380Y-82030000D01*
X82952380Y-82030000D02*
X82761904Y-81839523D01*
X82761904Y-81839523D02*
X82666666Y-81649047D01*
X82666666Y-81649047D02*
X82571428Y-81268095D01*
X82571428Y-81268095D02*
X82571428Y-80982380D01*
X82571428Y-80982380D02*
X82666666Y-80601428D01*
X82666666Y-80601428D02*
X82761904Y-80410952D01*
X82761904Y-80410952D02*
X82952380Y-80220476D01*
X82952380Y-80220476D02*
X83238095Y-80125238D01*
X83238095Y-80125238D02*
X83428571Y-80125238D01*
X83428571Y-80125238D02*
X83714285Y-80220476D01*
X83714285Y-80220476D02*
X83809523Y-80315714D01*
X84666666Y-80125238D02*
X84666666Y-81744285D01*
X84666666Y-81744285D02*
X84761904Y-81934761D01*
X84761904Y-81934761D02*
X84857142Y-82030000D01*
X84857142Y-82030000D02*
X85047618Y-82125238D01*
X85047618Y-82125238D02*
X85428571Y-82125238D01*
X85428571Y-82125238D02*
X85619047Y-82030000D01*
X85619047Y-82030000D02*
X85714285Y-81934761D01*
X85714285Y-81934761D02*
X85809523Y-81744285D01*
X85809523Y-81744285D02*
X85809523Y-80125238D01*
X86476190Y-80125238D02*
X87619047Y-80125238D01*
X87047618Y-82125238D02*
X87047618Y-80125238D01*
M02*
