M48
; DRILL file {KiCad 7.0.2-6a45011f42~172~ubuntu22.04.1} date Mon May 22 20:20:29 2023
; FORMAT={-:-/ absolute / metric / decimal}
; #@! TF.CreationDate,2023-05-22T20:20:29+08:00
; #@! TF.GenerationSoftware,Kicad,Pcbnew,7.0.2-6a45011f42~172~ubuntu22.04.1
; #@! TF.FileFunction,MixedPlating,1,4
FMAT,2
METRIC
; #@! TA.AperFunction,Plated,PTH,ViaDrill
T1C0.200
; #@! TA.AperFunction,Plated,PTH,ComponentDrill
T2C0.500
; #@! TA.AperFunction,Plated,PTH,ComponentDrill
T3C0.650
%
G90
G05
T1
X1.25Y-15.8
X1.25Y-34.8
X1.25Y-53.8
X1.25Y-72.8
X1.26Y-10.65
X1.26Y-29.65
X1.26Y-48.65
X1.26Y-67.65
X1.605Y-18.9
X1.605Y-37.9
X1.605Y-56.9
X1.605Y-75.9
X2.88Y-6.44
X2.88Y-25.44
X2.88Y-44.44
X2.88Y-63.44
X4.17Y-15.77
X4.17Y-34.77
X4.17Y-53.77
X4.17Y-72.77
X4.21Y-10.67
X4.21Y-29.67
X4.21Y-48.67
X4.21Y-67.67
X4.795Y-23.1
X4.795Y-42.1
X4.795Y-61.1
X4.795Y-80.1
X5.115Y-17.555
X5.115Y-36.555
X5.115Y-55.555
X5.115Y-74.555
X6.165Y-13.795
X6.165Y-32.795
X6.165Y-51.795
X6.165Y-70.795
X6.55Y-14.55
X6.55Y-33.55
X6.55Y-52.55
X6.55Y-71.55
X7.72Y-16.8
X7.72Y-35.8
X7.72Y-54.8
X7.72Y-73.8
X7.905Y-19.875
X7.905Y-38.875
X7.905Y-57.875
X7.905Y-76.875
X9.685Y-11.195
X9.685Y-30.195
X9.685Y-49.195
X9.685Y-68.195
X10.07Y-18.66
X10.07Y-37.66
X10.07Y-56.66
X10.07Y-75.66
X11.32Y-8.515
X11.32Y-27.515
X11.32Y-46.515
X11.32Y-65.515
X14.07Y-15.55
X14.07Y-34.55
X14.07Y-53.55
X14.07Y-72.55
X14.495Y-8.63
X14.495Y-27.63
X14.495Y-46.63
X14.495Y-65.63
X14.795Y-18.125
X14.795Y-37.125
X14.795Y-56.125
X14.795Y-75.125
X16.445Y-16.62
X16.445Y-35.62
X16.445Y-54.62
X16.445Y-73.62
X17.325Y-13.905
X17.325Y-32.905
X17.325Y-51.905
X17.325Y-70.905
X17.585Y-22.905
X17.585Y-41.905
X17.585Y-60.905
X17.585Y-79.905
X17.615Y-16.99
X17.615Y-35.99
X17.615Y-54.99
X17.615Y-73.99
X17.64Y-14.815
X17.64Y-33.815
X17.64Y-52.815
X17.64Y-71.815
X18.281Y-18.714
X18.281Y-37.714
X18.281Y-56.714
X18.281Y-75.714
X18.63Y-10.25
X18.63Y-29.25
X18.63Y-48.25
X18.63Y-67.25
X21.21Y-19.495
X21.21Y-38.495
X21.21Y-57.495
X21.21Y-76.495
X25.25Y-15.8
X25.25Y-34.8
X25.25Y-53.8
X25.25Y-72.8
X25.26Y-10.65
X25.26Y-29.65
X25.26Y-48.65
X25.26Y-67.65
X25.605Y-18.9
X25.605Y-37.9
X25.605Y-56.9
X25.605Y-75.9
X26.88Y-6.44
X26.88Y-25.44
X26.88Y-44.44
X26.88Y-63.44
X28.17Y-15.77
X28.17Y-34.77
X28.17Y-53.77
X28.17Y-72.77
X28.21Y-10.67
X28.21Y-29.67
X28.21Y-48.67
X28.21Y-67.67
X28.795Y-23.1
X28.795Y-42.1
X28.795Y-61.1
X28.795Y-80.1
X29.115Y-17.555
X29.115Y-36.555
X29.115Y-55.555
X29.115Y-74.555
X30.165Y-13.795
X30.165Y-32.795
X30.165Y-51.795
X30.165Y-70.795
X30.55Y-14.55
X30.55Y-33.55
X30.55Y-52.55
X30.55Y-71.55
X31.72Y-16.8
X31.72Y-35.8
X31.72Y-54.8
X31.72Y-73.8
X31.905Y-19.875
X31.905Y-38.875
X31.905Y-57.875
X31.905Y-76.875
X33.685Y-11.195
X33.685Y-30.195
X33.685Y-49.195
X33.685Y-68.195
X34.07Y-18.66
X34.07Y-37.66
X34.07Y-56.66
X34.07Y-75.66
X35.32Y-8.515
X35.32Y-27.515
X35.32Y-46.515
X35.32Y-65.515
X38.07Y-15.55
X38.07Y-34.55
X38.07Y-53.55
X38.07Y-72.55
X38.495Y-8.63
X38.495Y-27.63
X38.495Y-46.63
X38.495Y-65.63
X38.795Y-18.125
X38.795Y-37.125
X38.795Y-56.125
X38.795Y-75.125
X40.445Y-16.62
X40.445Y-35.62
X40.445Y-54.62
X40.445Y-73.62
X41.325Y-13.905
X41.325Y-32.905
X41.325Y-51.905
X41.325Y-70.905
X41.585Y-22.905
X41.585Y-41.905
X41.585Y-60.905
X41.585Y-79.905
X41.615Y-16.99
X41.615Y-35.99
X41.615Y-54.99
X41.615Y-73.99
X41.64Y-14.815
X41.64Y-33.815
X41.64Y-52.815
X41.64Y-71.815
X42.281Y-18.714
X42.281Y-37.714
X42.281Y-56.714
X42.281Y-75.714
X42.63Y-10.25
X42.63Y-29.25
X42.63Y-48.25
X42.63Y-67.25
X45.21Y-19.495
X45.21Y-38.495
X45.21Y-57.495
X45.21Y-76.495
X49.25Y-15.8
X49.25Y-34.8
X49.25Y-53.8
X49.25Y-72.8
X49.26Y-10.65
X49.26Y-29.65
X49.26Y-48.65
X49.26Y-67.65
X49.605Y-18.9
X49.605Y-37.9
X49.605Y-56.9
X49.605Y-75.9
X50.88Y-6.44
X50.88Y-25.44
X50.88Y-44.44
X50.88Y-63.44
X52.17Y-15.77
X52.17Y-34.77
X52.17Y-53.77
X52.17Y-72.77
X52.21Y-10.67
X52.21Y-29.67
X52.21Y-48.67
X52.21Y-67.67
X52.795Y-23.1
X52.795Y-42.1
X52.795Y-61.1
X52.795Y-80.1
X53.115Y-17.555
X53.115Y-36.555
X53.115Y-55.555
X53.115Y-74.555
X54.165Y-13.795
X54.165Y-32.795
X54.165Y-51.795
X54.165Y-70.795
X54.55Y-14.55
X54.55Y-33.55
X54.55Y-52.55
X54.55Y-71.55
X55.72Y-16.8
X55.72Y-35.8
X55.72Y-54.8
X55.72Y-73.8
X55.905Y-19.875
X55.905Y-38.875
X55.905Y-57.875
X55.905Y-76.875
X57.685Y-11.195
X57.685Y-30.195
X57.685Y-49.195
X57.685Y-68.195
X58.07Y-18.66
X58.07Y-37.66
X58.07Y-56.66
X58.07Y-75.66
X59.32Y-8.515
X59.32Y-27.515
X59.32Y-46.515
X59.32Y-65.515
X62.07Y-15.55
X62.07Y-34.55
X62.07Y-53.55
X62.07Y-72.55
X62.495Y-8.63
X62.495Y-27.63
X62.495Y-46.63
X62.495Y-65.63
X62.795Y-18.125
X62.795Y-37.125
X62.795Y-56.125
X62.795Y-75.125
X64.445Y-16.62
X64.445Y-35.62
X64.445Y-54.62
X64.445Y-73.62
X65.325Y-13.905
X65.325Y-32.905
X65.325Y-51.905
X65.325Y-70.905
X65.585Y-22.905
X65.585Y-41.905
X65.585Y-60.905
X65.585Y-79.905
X65.615Y-16.99
X65.615Y-35.99
X65.615Y-54.99
X65.615Y-73.99
X65.64Y-14.815
X65.64Y-33.815
X65.64Y-52.815
X65.64Y-71.815
X66.281Y-18.714
X66.281Y-37.714
X66.281Y-56.714
X66.281Y-75.714
X66.63Y-10.25
X66.63Y-29.25
X66.63Y-48.25
X66.63Y-67.25
X69.21Y-19.495
X69.21Y-38.495
X69.21Y-57.495
X69.21Y-76.495
T2
X1.615Y-7.8
X1.615Y-9.35
X1.615Y-26.8
X1.615Y-28.35
X1.615Y-45.8
X1.615Y-47.35
X1.615Y-64.8
X1.615Y-66.35
X3.98Y-6.805
X3.98Y-25.805
X3.98Y-44.805
X3.98Y-63.805
X5.035Y-18.995
X5.035Y-37.995
X5.035Y-56.995
X5.035Y-75.995
X5.53Y-6.805
X5.53Y-25.805
X5.53Y-44.805
X5.53Y-63.805
X6.585Y-18.995
X6.585Y-37.995
X6.585Y-56.995
X6.585Y-75.995
X7.125Y-6.805
X7.125Y-25.805
X7.125Y-44.805
X7.125Y-63.805
X8.065Y-22.54
X8.065Y-41.54
X8.065Y-60.54
X8.065Y-79.54
X8.675Y-6.805
X8.675Y-25.805
X8.675Y-44.805
X8.675Y-63.805
X9.615Y-22.54
X9.615Y-41.54
X9.615Y-60.54
X9.615Y-79.54
X10.29Y-6.805
X10.29Y-25.805
X10.29Y-44.805
X10.29Y-63.805
X11.255Y-22.54
X11.255Y-41.54
X11.255Y-60.54
X11.255Y-79.54
X11.84Y-6.805
X11.84Y-25.805
X11.84Y-44.805
X11.84Y-63.805
X12.805Y-22.54
X12.805Y-41.54
X12.805Y-60.54
X12.805Y-79.54
X13.86Y-6.81
X13.86Y-25.81
X13.86Y-44.81
X13.86Y-63.81
X14.415Y-22.54
X14.415Y-41.54
X14.415Y-60.54
X14.415Y-79.54
X15.41Y-6.81
X15.41Y-25.81
X15.41Y-44.81
X15.41Y-63.81
X15.965Y-22.54
X15.965Y-41.54
X15.965Y-60.54
X15.965Y-79.54
X22.35Y-14.94
X22.35Y-16.49
X22.35Y-33.94
X22.35Y-35.49
X22.35Y-52.94
X22.35Y-54.49
X22.35Y-71.94
X22.35Y-73.49
X25.615Y-7.8
X25.615Y-9.35
X25.615Y-26.8
X25.615Y-28.35
X25.615Y-45.8
X25.615Y-47.35
X25.615Y-64.8
X25.615Y-66.35
X27.98Y-6.805
X27.98Y-25.805
X27.98Y-44.805
X27.98Y-63.805
X29.035Y-18.995
X29.035Y-37.995
X29.035Y-56.995
X29.035Y-75.995
X29.53Y-6.805
X29.53Y-25.805
X29.53Y-44.805
X29.53Y-63.805
X30.585Y-18.995
X30.585Y-37.995
X30.585Y-56.995
X30.585Y-75.995
X31.125Y-6.805
X31.125Y-25.805
X31.125Y-44.805
X31.125Y-63.805
X32.065Y-22.54
X32.065Y-41.54
X32.065Y-60.54
X32.065Y-79.54
X32.675Y-6.805
X32.675Y-25.805
X32.675Y-44.805
X32.675Y-63.805
X33.615Y-22.54
X33.615Y-41.54
X33.615Y-60.54
X33.615Y-79.54
X34.29Y-6.805
X34.29Y-25.805
X34.29Y-44.805
X34.29Y-63.805
X35.255Y-22.54
X35.255Y-41.54
X35.255Y-60.54
X35.255Y-79.54
X35.84Y-6.805
X35.84Y-25.805
X35.84Y-44.805
X35.84Y-63.805
X36.805Y-22.54
X36.805Y-41.54
X36.805Y-60.54
X36.805Y-79.54
X37.86Y-6.81
X37.86Y-25.81
X37.86Y-44.81
X37.86Y-63.81
X38.415Y-22.54
X38.415Y-41.54
X38.415Y-60.54
X38.415Y-79.54
X39.41Y-6.81
X39.41Y-25.81
X39.41Y-44.81
X39.41Y-63.81
X39.965Y-22.54
X39.965Y-41.54
X39.965Y-60.54
X39.965Y-79.54
X46.35Y-14.94
X46.35Y-16.49
X46.35Y-33.94
X46.35Y-35.49
X46.35Y-52.94
X46.35Y-54.49
X46.35Y-71.94
X46.35Y-73.49
X49.615Y-7.8
X49.615Y-9.35
X49.615Y-26.8
X49.615Y-28.35
X49.615Y-45.8
X49.615Y-47.35
X49.615Y-64.8
X49.615Y-66.35
X51.98Y-6.805
X51.98Y-25.805
X51.98Y-44.805
X51.98Y-63.805
X53.035Y-18.995
X53.035Y-37.995
X53.035Y-56.995
X53.035Y-75.995
X53.53Y-6.805
X53.53Y-25.805
X53.53Y-44.805
X53.53Y-63.805
X54.585Y-18.995
X54.585Y-37.995
X54.585Y-56.995
X54.585Y-75.995
X55.125Y-6.805
X55.125Y-25.805
X55.125Y-44.805
X55.125Y-63.805
X56.065Y-22.54
X56.065Y-41.54
X56.065Y-60.54
X56.065Y-79.54
X56.675Y-6.805
X56.675Y-25.805
X56.675Y-44.805
X56.675Y-63.805
X57.615Y-22.54
X57.615Y-41.54
X57.615Y-60.54
X57.615Y-79.54
X58.29Y-6.805
X58.29Y-25.805
X58.29Y-44.805
X58.29Y-63.805
X59.255Y-22.54
X59.255Y-41.54
X59.255Y-60.54
X59.255Y-79.54
X59.84Y-6.805
X59.84Y-25.805
X59.84Y-44.805
X59.84Y-63.805
X60.805Y-22.54
X60.805Y-41.54
X60.805Y-60.54
X60.805Y-79.54
X61.86Y-6.81
X61.86Y-25.81
X61.86Y-44.81
X61.86Y-63.81
X62.415Y-22.54
X62.415Y-41.54
X62.415Y-60.54
X62.415Y-79.54
X63.41Y-6.81
X63.41Y-25.81
X63.41Y-44.81
X63.41Y-63.81
X63.965Y-22.54
X63.965Y-41.54
X63.965Y-60.54
X63.965Y-79.54
X70.35Y-14.94
X70.35Y-16.49
X70.35Y-33.94
X70.35Y-35.49
X70.35Y-52.94
X70.35Y-54.49
X70.35Y-71.94
X70.35Y-73.49
T3
X22.189Y-6.483
X22.189Y-7.753
X22.189Y-9.023
X22.189Y-10.293
X22.189Y-11.563
X22.189Y-12.833
X22.189Y-25.483
X22.189Y-26.753
X22.189Y-28.023
X22.189Y-29.293
X22.189Y-30.563
X22.189Y-31.833
X22.189Y-44.483
X22.189Y-45.753
X22.189Y-47.023
X22.189Y-48.293
X22.189Y-49.563
X22.189Y-50.833
X22.189Y-63.483
X22.189Y-64.753
X22.189Y-66.023
X22.189Y-67.293
X22.189Y-68.563
X22.189Y-69.833
X46.189Y-6.483
X46.189Y-7.753
X46.189Y-9.023
X46.189Y-10.293
X46.189Y-11.563
X46.189Y-12.833
X46.189Y-25.483
X46.189Y-26.753
X46.189Y-28.023
X46.189Y-29.293
X46.189Y-30.563
X46.189Y-31.833
X46.189Y-44.483
X46.189Y-45.753
X46.189Y-47.023
X46.189Y-48.293
X46.189Y-49.563
X46.189Y-50.833
X46.189Y-63.483
X46.189Y-64.753
X46.189Y-66.023
X46.189Y-67.293
X46.189Y-68.563
X46.189Y-69.833
X70.189Y-6.483
X70.189Y-7.753
X70.189Y-9.023
X70.189Y-10.293
X70.189Y-11.563
X70.189Y-12.833
X70.189Y-25.483
X70.189Y-26.753
X70.189Y-28.023
X70.189Y-29.293
X70.189Y-30.563
X70.189Y-31.833
X70.189Y-44.483
X70.189Y-45.753
X70.189Y-47.023
X70.189Y-48.293
X70.189Y-49.563
X70.189Y-50.833
X70.189Y-63.483
X70.189Y-64.753
X70.189Y-66.023
X70.189Y-67.293
X70.189Y-68.563
X70.189Y-69.833
T0
M30
