G04 #@! TF.GenerationSoftware,KiCad,Pcbnew,7.0.2-6a45011f42~172~ubuntu22.04.1*
G04 #@! TF.CreationDate,2023-05-22T20:20:29+08:00*
G04 #@! TF.ProjectId,panel_4_3,70616e65-6c5f-4345-9f33-2e6b69636164,rev?*
G04 #@! TF.SameCoordinates,Original*
G04 #@! TF.FileFunction,Soldermask,Top*
G04 #@! TF.FilePolarity,Negative*
%FSLAX46Y46*%
G04 Gerber Fmt 4.6, Leading zero omitted, Abs format (unit mm)*
G04 Created by KiCad (PCBNEW 7.0.2-6a45011f42~172~ubuntu22.04.1) date 2023-05-22 20:20:29*
%MOMM*%
%LPD*%
G01*
G04 APERTURE LIST*
G04 Aperture macros list*
%AMRoundRect*
0 Rectangle with rounded corners*
0 $1 Rounding radius*
0 $2 $3 $4 $5 $6 $7 $8 $9 X,Y pos of 4 corners*
0 Add a 4 corners polygon primitive as box body*
4,1,4,$2,$3,$4,$5,$6,$7,$8,$9,$2,$3,0*
0 Add four circle primitives for the rounded corners*
1,1,$1+$1,$2,$3*
1,1,$1+$1,$4,$5*
1,1,$1+$1,$6,$7*
1,1,$1+$1,$8,$9*
0 Add four rect primitives between the rounded corners*
20,1,$1+$1,$2,$3,$4,$5,0*
20,1,$1+$1,$4,$5,$6,$7,0*
20,1,$1+$1,$6,$7,$8,$9,0*
20,1,$1+$1,$8,$9,$2,$3,0*%
G04 Aperture macros list end*
%ADD10RoundRect,0.140000X-0.140000X-0.170000X0.140000X-0.170000X0.140000X0.170000X-0.140000X0.170000X0*%
%ADD11RoundRect,0.135000X-0.185000X0.135000X-0.185000X-0.135000X0.185000X-0.135000X0.185000X0.135000X0*%
%ADD12R,1.145000X0.400000*%
%ADD13RoundRect,0.135000X0.185000X-0.135000X0.185000X0.135000X-0.185000X0.135000X-0.185000X-0.135000X0*%
%ADD14RoundRect,0.140000X0.170000X-0.140000X0.170000X0.140000X-0.170000X0.140000X-0.170000X-0.140000X0*%
%ADD15R,0.200000X1.100000*%
%ADD16R,1.100000X0.200000*%
%ADD17R,3.100000X3.100000*%
%ADD18R,0.280000X0.600000*%
%ADD19R,1.700000X0.300000*%
%ADD20R,1.300000X2.000000*%
%ADD21RoundRect,0.100000X0.550000X-0.900000X0.550000X0.900000X-0.550000X0.900000X-0.550000X-0.900000X0*%
%ADD22O,1.000000X1.000000*%
%ADD23RoundRect,0.140000X-0.170000X0.140000X-0.170000X-0.140000X0.170000X-0.140000X0.170000X0.140000X0*%
%ADD24RoundRect,0.100000X-0.550000X0.900000X-0.550000X-0.900000X0.550000X-0.900000X0.550000X0.900000X0*%
%ADD25R,1.000000X1.720000*%
%ADD26R,1.000000X1.524000*%
%ADD27R,1.200000X1.400000*%
%ADD28R,2.000000X1.300000*%
%ADD29RoundRect,0.100000X-0.900000X-0.550000X0.900000X-0.550000X0.900000X0.550000X-0.900000X0.550000X0*%
%ADD30RoundRect,0.135000X-0.135000X-0.185000X0.135000X-0.185000X0.135000X0.185000X-0.135000X0.185000X0*%
%ADD31R,0.200000X0.550000*%
%ADD32R,1.100000X0.700000*%
%ADD33O,0.364000X1.222000*%
%ADD34C,1.000000*%
G04 APERTURE END LIST*
D10*
G04 #@! TO.C,C2*
X18650000Y-13905000D03*
X19610000Y-13905000D03*
G04 #@! TD*
D11*
G04 #@! TO.C,R11*
X14830000Y-19485000D03*
X14830000Y-20505000D03*
G04 #@! TD*
D12*
G04 #@! TO.C,LED1*
X51388000Y-80050000D03*
X51388000Y-79250000D03*
X51388000Y-78450000D03*
X49692000Y-78450000D03*
X49692000Y-79250000D03*
X49692000Y-80050000D03*
G04 #@! TD*
D13*
G04 #@! TO.C,R1*
X53110000Y-52785000D03*
X53110000Y-51765000D03*
G04 #@! TD*
D11*
G04 #@! TO.C,R4*
X20655000Y-16240000D03*
X20655000Y-17260000D03*
G04 #@! TD*
D10*
G04 #@! TO.C,C12*
X60130000Y-8515000D03*
X61090000Y-8515000D03*
G04 #@! TD*
D11*
G04 #@! TO.C,R9*
X60708000Y-76485000D03*
X60708000Y-77505000D03*
G04 #@! TD*
D14*
G04 #@! TO.C,C6*
X64745000Y-18495000D03*
X64745000Y-17535000D03*
G04 #@! TD*
D13*
G04 #@! TO.C,R7*
X28835000Y-59700000D03*
X28835000Y-58680000D03*
G04 #@! TD*
D11*
G04 #@! TO.C,R10*
X13769000Y-19485000D03*
X13769000Y-20505000D03*
G04 #@! TD*
D15*
G04 #@! TO.C,U1*
X14495000Y-47855000D03*
X14095000Y-47855000D03*
X13695000Y-47855000D03*
X13295000Y-47855000D03*
X12895000Y-47855000D03*
X12495000Y-47855000D03*
X12095000Y-47855000D03*
X11695000Y-47855000D03*
X11295000Y-47855000D03*
X10895000Y-47855000D03*
X10495000Y-47855000D03*
X10095000Y-47855000D03*
X9695000Y-47855000D03*
X9295000Y-47855000D03*
D16*
X8345000Y-48805000D03*
X8345000Y-49205000D03*
X8345000Y-49605000D03*
X8345000Y-50005000D03*
X8345000Y-50405000D03*
X8345000Y-50805000D03*
X8345000Y-51205000D03*
X8345000Y-51605000D03*
X8345000Y-52005000D03*
X8345000Y-52405000D03*
X8345000Y-52805000D03*
X8345000Y-53205000D03*
X8345000Y-53605000D03*
X8345000Y-54005000D03*
D15*
X9295000Y-54955000D03*
X9695000Y-54955000D03*
X10095000Y-54955000D03*
X10495000Y-54955000D03*
X10895000Y-54955000D03*
X11295000Y-54955000D03*
X11695000Y-54955000D03*
X12095000Y-54955000D03*
X12495000Y-54955000D03*
X12895000Y-54955000D03*
X13295000Y-54955000D03*
X13695000Y-54955000D03*
X14095000Y-54955000D03*
X14495000Y-54955000D03*
D16*
X15445000Y-54005000D03*
X15445000Y-53605000D03*
X15445000Y-53205000D03*
X15445000Y-52805000D03*
X15445000Y-52405000D03*
X15445000Y-52005000D03*
X15445000Y-51605000D03*
X15445000Y-51205000D03*
X15445000Y-50805000D03*
X15445000Y-50405000D03*
X15445000Y-50005000D03*
X15445000Y-49605000D03*
X15445000Y-49205000D03*
X15445000Y-48805000D03*
D17*
X11895000Y-51405000D03*
G04 #@! TD*
D18*
G04 #@! TO.C,U2*
X19365000Y-28385500D03*
X18865000Y-28385500D03*
X18365000Y-28385500D03*
X17865000Y-28385500D03*
X17865000Y-31399500D03*
X18365000Y-31399500D03*
X18865000Y-31399500D03*
X19365000Y-31399500D03*
D19*
X18615000Y-29892500D03*
G04 #@! TD*
D20*
G04 #@! TO.C,J4*
X14415000Y-60540000D03*
D21*
X15965000Y-60540000D03*
G04 #@! TD*
D20*
G04 #@! TO.C,J7*
X29035000Y-37995000D03*
D21*
X30585000Y-37995000D03*
G04 #@! TD*
D22*
G04 #@! TO.C,J8*
X70189248Y-6483121D03*
X70189248Y-7753121D03*
X70189248Y-9023121D03*
X70189248Y-10293121D03*
X70189248Y-11563121D03*
X70189248Y-12833121D03*
G04 #@! TD*
G04 #@! TO.C,J8*
X70189248Y-63483121D03*
X70189248Y-64753121D03*
X70189248Y-66023121D03*
X70189248Y-67293121D03*
X70189248Y-68563121D03*
X70189248Y-69833121D03*
G04 #@! TD*
D13*
G04 #@! TO.C,R3*
X68655000Y-53240001D03*
X68655000Y-52220001D03*
G04 #@! TD*
D11*
G04 #@! TO.C,R4*
X44655000Y-54240000D03*
X44655000Y-55260000D03*
G04 #@! TD*
D23*
G04 #@! TO.C,C8*
X40325000Y-57515000D03*
X40325000Y-58475000D03*
G04 #@! TD*
D20*
G04 #@! TO.C,J10*
X59840000Y-6805000D03*
D24*
X58290000Y-6805000D03*
G04 #@! TD*
D25*
G04 #@! TO.C,L1*
X44892000Y-60425000D03*
X46548000Y-60425000D03*
G04 #@! TD*
D26*
G04 #@! TO.C,SW1*
X44095000Y-63870000D03*
X40895000Y-63870000D03*
G04 #@! TD*
D10*
G04 #@! TO.C,C11*
X39310000Y-27510000D03*
X40270000Y-27510000D03*
G04 #@! TD*
D20*
G04 #@! TO.C,J4*
X38415000Y-79540000D03*
D21*
X39965000Y-79540000D03*
G04 #@! TD*
D20*
G04 #@! TO.C,J7*
X5035000Y-75995000D03*
D21*
X6585000Y-75995000D03*
G04 #@! TD*
D10*
G04 #@! TO.C,C1*
X26285000Y-53755000D03*
X27245000Y-53755000D03*
G04 #@! TD*
D11*
G04 #@! TO.C,R4*
X44655000Y-73240000D03*
X44655000Y-74260000D03*
G04 #@! TD*
D10*
G04 #@! TO.C,C3*
X26270000Y-10675000D03*
X27230000Y-10675000D03*
G04 #@! TD*
D13*
G04 #@! TO.C,R3*
X44655000Y-53240001D03*
X44655000Y-52220001D03*
G04 #@! TD*
D12*
G04 #@! TO.C,LED1*
X3388000Y-23050000D03*
X3388000Y-22250000D03*
X3388000Y-21450000D03*
X1692000Y-21450000D03*
X1692000Y-22250000D03*
X1692000Y-23050000D03*
G04 #@! TD*
D22*
G04 #@! TO.C,J8*
X46189248Y-63483121D03*
X46189248Y-64753121D03*
X46189248Y-66023121D03*
X46189248Y-67293121D03*
X46189248Y-68563121D03*
X46189248Y-69833121D03*
G04 #@! TD*
D27*
G04 #@! TO.C,X1*
X3630000Y-33320000D03*
X3630000Y-31120000D03*
X1880000Y-31120000D03*
X1880000Y-33320000D03*
G04 #@! TD*
D28*
G04 #@! TO.C,J2*
X49615000Y-64800000D03*
D29*
X49615000Y-66350000D03*
G04 #@! TD*
D22*
G04 #@! TO.C,J8*
X46189248Y-44483121D03*
X46189248Y-45753121D03*
X46189248Y-47023121D03*
X46189248Y-48293121D03*
X46189248Y-49563121D03*
X46189248Y-50833121D03*
G04 #@! TD*
D10*
G04 #@! TO.C,C5*
X66655000Y-55280000D03*
X67615000Y-55280000D03*
G04 #@! TD*
D13*
G04 #@! TO.C,R2*
X31905000Y-18880000D03*
X31905000Y-17860000D03*
G04 #@! TD*
D26*
G04 #@! TO.C,SW1*
X20095000Y-63870000D03*
X16895000Y-63870000D03*
G04 #@! TD*
D10*
G04 #@! TO.C,C17*
X41535000Y-77895000D03*
X42495000Y-77895000D03*
G04 #@! TD*
D11*
G04 #@! TO.C,R5*
X20665000Y-65295000D03*
X20665000Y-66315000D03*
G04 #@! TD*
D10*
G04 #@! TO.C,C18*
X17535000Y-21945000D03*
X18495000Y-21945000D03*
G04 #@! TD*
G04 #@! TO.C,C17*
X17535000Y-58895000D03*
X18495000Y-58895000D03*
G04 #@! TD*
D20*
G04 #@! TO.C,J1*
X61860000Y-44810000D03*
D21*
X63410000Y-44810000D03*
G04 #@! TD*
D30*
G04 #@! TO.C,R12*
X25040000Y-44395000D03*
X26060000Y-44395000D03*
G04 #@! TD*
D28*
G04 #@! TO.C,J5*
X22350000Y-71940000D03*
D29*
X22350000Y-73490000D03*
G04 #@! TD*
D31*
G04 #@! TO.C,J12*
X58500000Y-56070000D03*
X58900000Y-56070000D03*
X59300000Y-56070000D03*
X59700000Y-56070000D03*
X60100000Y-56070000D03*
X60500000Y-56070000D03*
G04 #@! TD*
D23*
G04 #@! TO.C,C8*
X16325000Y-57515000D03*
X16325000Y-58475000D03*
G04 #@! TD*
D28*
G04 #@! TO.C,J2*
X1615000Y-7800000D03*
D29*
X1615000Y-9350000D03*
G04 #@! TD*
D20*
G04 #@! TO.C,J7*
X29035000Y-75995000D03*
D21*
X30585000Y-75995000D03*
G04 #@! TD*
D23*
G04 #@! TO.C,C14*
X44665000Y-50275000D03*
X44665000Y-51235000D03*
G04 #@! TD*
D13*
G04 #@! TO.C,R7*
X52835000Y-40700000D03*
X52835000Y-39680000D03*
G04 #@! TD*
D23*
G04 #@! TO.C,C8*
X64325000Y-76515000D03*
X64325000Y-77475000D03*
G04 #@! TD*
G04 #@! TO.C,C4*
X6170000Y-53780000D03*
X6170000Y-54740000D03*
G04 #@! TD*
D10*
G04 #@! TO.C,C17*
X65535000Y-58895000D03*
X66495000Y-58895000D03*
G04 #@! TD*
D13*
G04 #@! TO.C,R2*
X55905000Y-37880000D03*
X55905000Y-36860000D03*
G04 #@! TD*
D12*
G04 #@! TO.C,LED1*
X27388000Y-61050000D03*
X27388000Y-60250000D03*
X27388000Y-59450000D03*
X25692000Y-59450000D03*
X25692000Y-60250000D03*
X25692000Y-61050000D03*
G04 #@! TD*
D20*
G04 #@! TO.C,J6*
X53530000Y-6805000D03*
D24*
X51980000Y-6805000D03*
G04 #@! TD*
D20*
G04 #@! TO.C,J11*
X8065000Y-79540000D03*
D21*
X9615000Y-79540000D03*
G04 #@! TD*
D11*
G04 #@! TO.C,R9*
X36708000Y-38485000D03*
X36708000Y-39505000D03*
G04 #@! TD*
D10*
G04 #@! TO.C,C5*
X42655000Y-36280000D03*
X43615000Y-36280000D03*
G04 #@! TD*
D32*
G04 #@! TO.C,U4*
X22509000Y-39454000D03*
X22509000Y-38504000D03*
X22509000Y-37552000D03*
X19921000Y-37552000D03*
X19921000Y-39452000D03*
G04 #@! TD*
D11*
G04 #@! TO.C,R11*
X62830000Y-38485000D03*
X62830000Y-39505000D03*
G04 #@! TD*
D10*
G04 #@! TO.C,C5*
X66655000Y-17280000D03*
X67615000Y-17280000D03*
G04 #@! TD*
D11*
G04 #@! TO.C,R8*
X59647000Y-38485000D03*
X59647000Y-39505000D03*
G04 #@! TD*
G04 #@! TO.C,R11*
X62830000Y-57485000D03*
X62830000Y-58505000D03*
G04 #@! TD*
G04 #@! TO.C,R8*
X59647000Y-76485000D03*
X59647000Y-77505000D03*
G04 #@! TD*
D10*
G04 #@! TO.C,C1*
X50285000Y-15755000D03*
X51245000Y-15755000D03*
G04 #@! TD*
D32*
G04 #@! TO.C,U4*
X22509000Y-58454000D03*
X22509000Y-57504000D03*
X22509000Y-56552000D03*
X19921000Y-56552000D03*
X19921000Y-58452000D03*
G04 #@! TD*
D23*
G04 #@! TO.C,C14*
X20665000Y-12275000D03*
X20665000Y-13235000D03*
G04 #@! TD*
D28*
G04 #@! TO.C,J2*
X1615000Y-45800000D03*
D29*
X1615000Y-47350000D03*
G04 #@! TD*
D15*
G04 #@! TO.C,U1*
X62495000Y-28855000D03*
X62095000Y-28855000D03*
X61695000Y-28855000D03*
X61295000Y-28855000D03*
X60895000Y-28855000D03*
X60495000Y-28855000D03*
X60095000Y-28855000D03*
X59695000Y-28855000D03*
X59295000Y-28855000D03*
X58895000Y-28855000D03*
X58495000Y-28855000D03*
X58095000Y-28855000D03*
X57695000Y-28855000D03*
X57295000Y-28855000D03*
D16*
X56345000Y-29805000D03*
X56345000Y-30205000D03*
X56345000Y-30605000D03*
X56345000Y-31005000D03*
X56345000Y-31405000D03*
X56345000Y-31805000D03*
X56345000Y-32205000D03*
X56345000Y-32605000D03*
X56345000Y-33005000D03*
X56345000Y-33405000D03*
X56345000Y-33805000D03*
X56345000Y-34205000D03*
X56345000Y-34605000D03*
X56345000Y-35005000D03*
D15*
X57295000Y-35955000D03*
X57695000Y-35955000D03*
X58095000Y-35955000D03*
X58495000Y-35955000D03*
X58895000Y-35955000D03*
X59295000Y-35955000D03*
X59695000Y-35955000D03*
X60095000Y-35955000D03*
X60495000Y-35955000D03*
X60895000Y-35955000D03*
X61295000Y-35955000D03*
X61695000Y-35955000D03*
X62095000Y-35955000D03*
X62495000Y-35955000D03*
D16*
X63445000Y-35005000D03*
X63445000Y-34605000D03*
X63445000Y-34205000D03*
X63445000Y-33805000D03*
X63445000Y-33405000D03*
X63445000Y-33005000D03*
X63445000Y-32605000D03*
X63445000Y-32205000D03*
X63445000Y-31805000D03*
X63445000Y-31405000D03*
X63445000Y-31005000D03*
X63445000Y-30605000D03*
X63445000Y-30205000D03*
X63445000Y-29805000D03*
D17*
X59895000Y-32405000D03*
G04 #@! TD*
D20*
G04 #@! TO.C,J10*
X35840000Y-44805000D03*
D24*
X34290000Y-44805000D03*
G04 #@! TD*
D25*
G04 #@! TO.C,L1*
X20892000Y-60425000D03*
X22548000Y-60425000D03*
G04 #@! TD*
D10*
G04 #@! TO.C,C3*
X2270000Y-48675000D03*
X3230000Y-48675000D03*
G04 #@! TD*
D18*
G04 #@! TO.C,U2*
X19365000Y-9385500D03*
X18865000Y-9385500D03*
X18365000Y-9385500D03*
X17865000Y-9385500D03*
X17865000Y-12399500D03*
X18365000Y-12399500D03*
X18865000Y-12399500D03*
X19365000Y-12399500D03*
D19*
X18615000Y-10892500D03*
G04 #@! TD*
D10*
G04 #@! TO.C,C3*
X50270000Y-48675000D03*
X51230000Y-48675000D03*
G04 #@! TD*
D13*
G04 #@! TO.C,R2*
X7905000Y-75880000D03*
X7905000Y-74860000D03*
G04 #@! TD*
D23*
G04 #@! TO.C,C4*
X6170000Y-72780000D03*
X6170000Y-73740000D03*
G04 #@! TD*
D11*
G04 #@! TO.C,R9*
X12708000Y-19485000D03*
X12708000Y-20505000D03*
G04 #@! TD*
D14*
G04 #@! TO.C,C15*
X67610000Y-60905000D03*
X67610000Y-59945000D03*
G04 #@! TD*
D23*
G04 #@! TO.C,C14*
X44665000Y-31275000D03*
X44665000Y-32235000D03*
G04 #@! TD*
G04 #@! TO.C,C14*
X44665000Y-12275000D03*
X44665000Y-13235000D03*
G04 #@! TD*
D22*
G04 #@! TO.C,J8*
X70189248Y-44483121D03*
X70189248Y-45753121D03*
X70189248Y-47023121D03*
X70189248Y-48293121D03*
X70189248Y-49563121D03*
X70189248Y-50833121D03*
G04 #@! TD*
D10*
G04 #@! TO.C,C17*
X41535000Y-20895000D03*
X42495000Y-20895000D03*
G04 #@! TD*
D32*
G04 #@! TO.C,U4*
X46509000Y-20454000D03*
X46509000Y-19504000D03*
X46509000Y-18552000D03*
X43921000Y-18552000D03*
X43921000Y-20452000D03*
G04 #@! TD*
D13*
G04 #@! TO.C,R7*
X4835000Y-21700000D03*
X4835000Y-20680000D03*
G04 #@! TD*
D20*
G04 #@! TO.C,J10*
X35840000Y-63805000D03*
D24*
X34290000Y-63805000D03*
G04 #@! TD*
D20*
G04 #@! TO.C,J10*
X11840000Y-44805000D03*
D24*
X10290000Y-44805000D03*
G04 #@! TD*
D14*
G04 #@! TO.C,C6*
X16745000Y-75495000D03*
X16745000Y-74535000D03*
G04 #@! TD*
D13*
G04 #@! TO.C,R6*
X68665000Y-11300000D03*
X68665000Y-10280000D03*
G04 #@! TD*
G04 #@! TO.C,R7*
X28835000Y-21700000D03*
X28835000Y-20680000D03*
G04 #@! TD*
D14*
G04 #@! TO.C,C6*
X40745000Y-37495000D03*
X40745000Y-36535000D03*
G04 #@! TD*
D15*
G04 #@! TO.C,U1*
X14495000Y-28855000D03*
X14095000Y-28855000D03*
X13695000Y-28855000D03*
X13295000Y-28855000D03*
X12895000Y-28855000D03*
X12495000Y-28855000D03*
X12095000Y-28855000D03*
X11695000Y-28855000D03*
X11295000Y-28855000D03*
X10895000Y-28855000D03*
X10495000Y-28855000D03*
X10095000Y-28855000D03*
X9695000Y-28855000D03*
X9295000Y-28855000D03*
D16*
X8345000Y-29805000D03*
X8345000Y-30205000D03*
X8345000Y-30605000D03*
X8345000Y-31005000D03*
X8345000Y-31405000D03*
X8345000Y-31805000D03*
X8345000Y-32205000D03*
X8345000Y-32605000D03*
X8345000Y-33005000D03*
X8345000Y-33405000D03*
X8345000Y-33805000D03*
X8345000Y-34205000D03*
X8345000Y-34605000D03*
X8345000Y-35005000D03*
D15*
X9295000Y-35955000D03*
X9695000Y-35955000D03*
X10095000Y-35955000D03*
X10495000Y-35955000D03*
X10895000Y-35955000D03*
X11295000Y-35955000D03*
X11695000Y-35955000D03*
X12095000Y-35955000D03*
X12495000Y-35955000D03*
X12895000Y-35955000D03*
X13295000Y-35955000D03*
X13695000Y-35955000D03*
X14095000Y-35955000D03*
X14495000Y-35955000D03*
D16*
X15445000Y-35005000D03*
X15445000Y-34605000D03*
X15445000Y-34205000D03*
X15445000Y-33805000D03*
X15445000Y-33405000D03*
X15445000Y-33005000D03*
X15445000Y-32605000D03*
X15445000Y-32205000D03*
X15445000Y-31805000D03*
X15445000Y-31405000D03*
X15445000Y-31005000D03*
X15445000Y-30605000D03*
X15445000Y-30205000D03*
X15445000Y-29805000D03*
D17*
X11895000Y-32405000D03*
G04 #@! TD*
D20*
G04 #@! TO.C,J6*
X29530000Y-44805000D03*
D24*
X27980000Y-44805000D03*
G04 #@! TD*
D10*
G04 #@! TO.C,C18*
X17535000Y-40945000D03*
X18495000Y-40945000D03*
G04 #@! TD*
D13*
G04 #@! TO.C,R7*
X52835000Y-21700000D03*
X52835000Y-20680000D03*
G04 #@! TD*
D10*
G04 #@! TO.C,C17*
X17535000Y-77895000D03*
X18495000Y-77895000D03*
G04 #@! TD*
D23*
G04 #@! TO.C,C14*
X68665000Y-12275000D03*
X68665000Y-13235000D03*
G04 #@! TD*
D25*
G04 #@! TO.C,L1*
X20892000Y-22425000D03*
X22548000Y-22425000D03*
G04 #@! TD*
D10*
G04 #@! TO.C,C2*
X42650000Y-13905000D03*
X43610000Y-13905000D03*
G04 #@! TD*
G04 #@! TO.C,C10*
X18650000Y-72000000D03*
X19610000Y-72000000D03*
G04 #@! TD*
D25*
G04 #@! TO.C,L1*
X68892000Y-79425000D03*
X70548000Y-79425000D03*
G04 #@! TD*
D13*
G04 #@! TO.C,R1*
X5110000Y-33785000D03*
X5110000Y-32765000D03*
G04 #@! TD*
D32*
G04 #@! TO.C,U4*
X70509000Y-77454000D03*
X70509000Y-76504000D03*
X70509000Y-75552000D03*
X67921000Y-75552000D03*
X67921000Y-77452000D03*
G04 #@! TD*
D10*
G04 #@! TO.C,C11*
X63310000Y-46510000D03*
X64270000Y-46510000D03*
G04 #@! TD*
D11*
G04 #@! TO.C,R11*
X38830000Y-76485000D03*
X38830000Y-77505000D03*
G04 #@! TD*
D25*
G04 #@! TO.C,L1*
X68892000Y-22425000D03*
X70548000Y-22425000D03*
G04 #@! TD*
D28*
G04 #@! TO.C,J5*
X22350000Y-14940000D03*
D29*
X22350000Y-16490000D03*
G04 #@! TD*
D10*
G04 #@! TO.C,C10*
X42650000Y-34000000D03*
X43610000Y-34000000D03*
G04 #@! TD*
D28*
G04 #@! TO.C,J5*
X22350000Y-52940000D03*
D29*
X22350000Y-54490000D03*
G04 #@! TD*
D13*
G04 #@! TO.C,R7*
X4835000Y-40700000D03*
X4835000Y-39680000D03*
G04 #@! TD*
G04 #@! TO.C,R7*
X28835000Y-40700000D03*
X28835000Y-39680000D03*
G04 #@! TD*
D31*
G04 #@! TO.C,J12*
X58500000Y-18070000D03*
X58900000Y-18070000D03*
X59300000Y-18070000D03*
X59700000Y-18070000D03*
X60100000Y-18070000D03*
X60500000Y-18070000D03*
G04 #@! TD*
D15*
G04 #@! TO.C,U1*
X38495000Y-66855000D03*
X38095000Y-66855000D03*
X37695000Y-66855000D03*
X37295000Y-66855000D03*
X36895000Y-66855000D03*
X36495000Y-66855000D03*
X36095000Y-66855000D03*
X35695000Y-66855000D03*
X35295000Y-66855000D03*
X34895000Y-66855000D03*
X34495000Y-66855000D03*
X34095000Y-66855000D03*
X33695000Y-66855000D03*
X33295000Y-66855000D03*
D16*
X32345000Y-67805000D03*
X32345000Y-68205000D03*
X32345000Y-68605000D03*
X32345000Y-69005000D03*
X32345000Y-69405000D03*
X32345000Y-69805000D03*
X32345000Y-70205000D03*
X32345000Y-70605000D03*
X32345000Y-71005000D03*
X32345000Y-71405000D03*
X32345000Y-71805000D03*
X32345000Y-72205000D03*
X32345000Y-72605000D03*
X32345000Y-73005000D03*
D15*
X33295000Y-73955000D03*
X33695000Y-73955000D03*
X34095000Y-73955000D03*
X34495000Y-73955000D03*
X34895000Y-73955000D03*
X35295000Y-73955000D03*
X35695000Y-73955000D03*
X36095000Y-73955000D03*
X36495000Y-73955000D03*
X36895000Y-73955000D03*
X37295000Y-73955000D03*
X37695000Y-73955000D03*
X38095000Y-73955000D03*
X38495000Y-73955000D03*
D16*
X39445000Y-73005000D03*
X39445000Y-72605000D03*
X39445000Y-72205000D03*
X39445000Y-71805000D03*
X39445000Y-71405000D03*
X39445000Y-71005000D03*
X39445000Y-70605000D03*
X39445000Y-70205000D03*
X39445000Y-69805000D03*
X39445000Y-69405000D03*
X39445000Y-69005000D03*
X39445000Y-68605000D03*
X39445000Y-68205000D03*
X39445000Y-67805000D03*
D17*
X35895000Y-70405000D03*
G04 #@! TD*
D11*
G04 #@! TO.C,R10*
X61769000Y-38485000D03*
X61769000Y-39505000D03*
G04 #@! TD*
D10*
G04 #@! TO.C,C18*
X65535000Y-78945000D03*
X66495000Y-78945000D03*
G04 #@! TD*
G04 #@! TO.C,C5*
X42655000Y-74280000D03*
X43615000Y-74280000D03*
G04 #@! TD*
D14*
G04 #@! TO.C,C6*
X16745000Y-37495000D03*
X16745000Y-36535000D03*
G04 #@! TD*
D20*
G04 #@! TO.C,J6*
X53530000Y-44805000D03*
D24*
X51980000Y-44805000D03*
G04 #@! TD*
D11*
G04 #@! TO.C,R11*
X14830000Y-38485000D03*
X14830000Y-39505000D03*
G04 #@! TD*
D23*
G04 #@! TO.C,C9*
X15700000Y-74535000D03*
X15700000Y-75495000D03*
G04 #@! TD*
D10*
G04 #@! TO.C,C2*
X66650000Y-51905000D03*
X67610000Y-51905000D03*
G04 #@! TD*
D26*
G04 #@! TO.C,SW1*
X44095000Y-44870000D03*
X40895000Y-44870000D03*
G04 #@! TD*
D22*
G04 #@! TO.C,J8*
X46189248Y-25483121D03*
X46189248Y-26753121D03*
X46189248Y-28023121D03*
X46189248Y-29293121D03*
X46189248Y-30563121D03*
X46189248Y-31833121D03*
G04 #@! TD*
D18*
G04 #@! TO.C,U2*
X67365000Y-66385500D03*
X66865000Y-66385500D03*
X66365000Y-66385500D03*
X65865000Y-66385500D03*
X65865000Y-69399500D03*
X66365000Y-69399500D03*
X66865000Y-69399500D03*
X67365000Y-69399500D03*
D19*
X66615000Y-67892500D03*
G04 #@! TD*
D11*
G04 #@! TO.C,R8*
X11647000Y-19485000D03*
X11647000Y-20505000D03*
G04 #@! TD*
D12*
G04 #@! TO.C,LED1*
X27388000Y-42050000D03*
X27388000Y-41250000D03*
X27388000Y-40450000D03*
X25692000Y-40450000D03*
X25692000Y-41250000D03*
X25692000Y-42050000D03*
G04 #@! TD*
D11*
G04 #@! TO.C,R11*
X62830000Y-76485000D03*
X62830000Y-77505000D03*
G04 #@! TD*
G04 #@! TO.C,R10*
X13769000Y-38485000D03*
X13769000Y-39505000D03*
G04 #@! TD*
D10*
G04 #@! TO.C,C1*
X2285000Y-15755000D03*
X3245000Y-15755000D03*
G04 #@! TD*
G04 #@! TO.C,C1*
X2285000Y-53755000D03*
X3245000Y-53755000D03*
G04 #@! TD*
D11*
G04 #@! TO.C,R4*
X44655000Y-16240000D03*
X44655000Y-17260000D03*
G04 #@! TD*
D20*
G04 #@! TO.C,J6*
X5530000Y-25805000D03*
D24*
X3980000Y-25805000D03*
G04 #@! TD*
D10*
G04 #@! TO.C,C3*
X50270000Y-67675000D03*
X51230000Y-67675000D03*
G04 #@! TD*
D25*
G04 #@! TO.C,L1*
X20892000Y-41425000D03*
X22548000Y-41425000D03*
G04 #@! TD*
D13*
G04 #@! TO.C,R7*
X4835000Y-78700000D03*
X4835000Y-77680000D03*
G04 #@! TD*
D12*
G04 #@! TO.C,LED1*
X51388000Y-42050000D03*
X51388000Y-41250000D03*
X51388000Y-40450000D03*
X49692000Y-40450000D03*
X49692000Y-41250000D03*
X49692000Y-42050000D03*
G04 #@! TD*
D11*
G04 #@! TO.C,R10*
X61769000Y-19485000D03*
X61769000Y-20505000D03*
G04 #@! TD*
D23*
G04 #@! TO.C,C7*
X58570000Y-57510000D03*
X58570000Y-58470000D03*
G04 #@! TD*
D28*
G04 #@! TO.C,J5*
X46350000Y-33940000D03*
D29*
X46350000Y-35490000D03*
G04 #@! TD*
D10*
G04 #@! TO.C,C11*
X15310000Y-8510000D03*
X16270000Y-8510000D03*
G04 #@! TD*
D12*
G04 #@! TO.C,LED1*
X3388000Y-80050000D03*
X3388000Y-79250000D03*
X3388000Y-78450000D03*
X1692000Y-78450000D03*
X1692000Y-79250000D03*
X1692000Y-80050000D03*
G04 #@! TD*
D10*
G04 #@! TO.C,C12*
X36130000Y-46515000D03*
X37090000Y-46515000D03*
G04 #@! TD*
G04 #@! TO.C,C3*
X2270000Y-67675000D03*
X3230000Y-67675000D03*
G04 #@! TD*
D11*
G04 #@! TO.C,R9*
X36708000Y-57485000D03*
X36708000Y-58505000D03*
G04 #@! TD*
D14*
G04 #@! TO.C,C6*
X40745000Y-18495000D03*
X40745000Y-17535000D03*
G04 #@! TD*
D20*
G04 #@! TO.C,J1*
X13860000Y-44810000D03*
D21*
X15410000Y-44810000D03*
G04 #@! TD*
D13*
G04 #@! TO.C,R6*
X20665000Y-30300000D03*
X20665000Y-29280000D03*
G04 #@! TD*
D20*
G04 #@! TO.C,J1*
X61860000Y-25810000D03*
D21*
X63410000Y-25810000D03*
G04 #@! TD*
D14*
G04 #@! TO.C,C15*
X43610000Y-60905000D03*
X43610000Y-59945000D03*
G04 #@! TD*
D10*
G04 #@! TO.C,C10*
X42650000Y-53000000D03*
X43610000Y-53000000D03*
G04 #@! TD*
G04 #@! TO.C,C17*
X41535000Y-39895000D03*
X42495000Y-39895000D03*
G04 #@! TD*
D11*
G04 #@! TO.C,R8*
X35647000Y-76485000D03*
X35647000Y-77505000D03*
G04 #@! TD*
D23*
G04 #@! TO.C,C4*
X30170000Y-53780000D03*
X30170000Y-54740000D03*
G04 #@! TD*
D11*
G04 #@! TO.C,R8*
X35647000Y-57485000D03*
X35647000Y-58505000D03*
G04 #@! TD*
D33*
G04 #@! TO.C,U3*
X49595000Y-58106000D03*
X50245000Y-58106000D03*
X50895000Y-58106000D03*
X51545000Y-58106000D03*
X51545000Y-55684000D03*
X50895000Y-55684000D03*
X50245000Y-55684000D03*
X49595000Y-55684000D03*
G04 #@! TD*
D23*
G04 #@! TO.C,C9*
X63700000Y-17535000D03*
X63700000Y-18495000D03*
G04 #@! TD*
D15*
G04 #@! TO.C,U1*
X62495000Y-47855000D03*
X62095000Y-47855000D03*
X61695000Y-47855000D03*
X61295000Y-47855000D03*
X60895000Y-47855000D03*
X60495000Y-47855000D03*
X60095000Y-47855000D03*
X59695000Y-47855000D03*
X59295000Y-47855000D03*
X58895000Y-47855000D03*
X58495000Y-47855000D03*
X58095000Y-47855000D03*
X57695000Y-47855000D03*
X57295000Y-47855000D03*
D16*
X56345000Y-48805000D03*
X56345000Y-49205000D03*
X56345000Y-49605000D03*
X56345000Y-50005000D03*
X56345000Y-50405000D03*
X56345000Y-50805000D03*
X56345000Y-51205000D03*
X56345000Y-51605000D03*
X56345000Y-52005000D03*
X56345000Y-52405000D03*
X56345000Y-52805000D03*
X56345000Y-53205000D03*
X56345000Y-53605000D03*
X56345000Y-54005000D03*
D15*
X57295000Y-54955000D03*
X57695000Y-54955000D03*
X58095000Y-54955000D03*
X58495000Y-54955000D03*
X58895000Y-54955000D03*
X59295000Y-54955000D03*
X59695000Y-54955000D03*
X60095000Y-54955000D03*
X60495000Y-54955000D03*
X60895000Y-54955000D03*
X61295000Y-54955000D03*
X61695000Y-54955000D03*
X62095000Y-54955000D03*
X62495000Y-54955000D03*
D16*
X63445000Y-54005000D03*
X63445000Y-53605000D03*
X63445000Y-53205000D03*
X63445000Y-52805000D03*
X63445000Y-52405000D03*
X63445000Y-52005000D03*
X63445000Y-51605000D03*
X63445000Y-51205000D03*
X63445000Y-50805000D03*
X63445000Y-50405000D03*
X63445000Y-50005000D03*
X63445000Y-49605000D03*
X63445000Y-49205000D03*
X63445000Y-48805000D03*
D17*
X59895000Y-51405000D03*
G04 #@! TD*
D20*
G04 #@! TO.C,J1*
X61860000Y-63810000D03*
D21*
X63410000Y-63810000D03*
G04 #@! TD*
D10*
G04 #@! TO.C,C5*
X18655000Y-36280000D03*
X19615000Y-36280000D03*
G04 #@! TD*
G04 #@! TO.C,C17*
X17535000Y-39895000D03*
X18495000Y-39895000D03*
G04 #@! TD*
D11*
G04 #@! TO.C,R4*
X68655000Y-73240000D03*
X68655000Y-74260000D03*
G04 #@! TD*
D23*
G04 #@! TO.C,C4*
X6170000Y-34780000D03*
X6170000Y-35740000D03*
G04 #@! TD*
D11*
G04 #@! TO.C,R9*
X60708000Y-38485000D03*
X60708000Y-39505000D03*
G04 #@! TD*
D13*
G04 #@! TO.C,R3*
X44655000Y-34240001D03*
X44655000Y-33220001D03*
G04 #@! TD*
G04 #@! TO.C,R2*
X55905000Y-18880000D03*
X55905000Y-17860000D03*
G04 #@! TD*
G04 #@! TO.C,R2*
X31905000Y-37880000D03*
X31905000Y-36860000D03*
G04 #@! TD*
D20*
G04 #@! TO.C,J10*
X35840000Y-6805000D03*
D24*
X34290000Y-6805000D03*
G04 #@! TD*
D13*
G04 #@! TO.C,R1*
X29110000Y-14785000D03*
X29110000Y-13765000D03*
G04 #@! TD*
D14*
G04 #@! TO.C,C6*
X64745000Y-75495000D03*
X64745000Y-74535000D03*
G04 #@! TD*
D20*
G04 #@! TO.C,J7*
X5035000Y-56995000D03*
D21*
X6585000Y-56995000D03*
G04 #@! TD*
D23*
G04 #@! TO.C,C4*
X6170000Y-15780000D03*
X6170000Y-16740000D03*
G04 #@! TD*
D11*
G04 #@! TO.C,R11*
X14830000Y-57485000D03*
X14830000Y-58505000D03*
G04 #@! TD*
D23*
G04 #@! TO.C,C8*
X64325000Y-19515000D03*
X64325000Y-20475000D03*
G04 #@! TD*
D10*
G04 #@! TO.C,C1*
X50285000Y-34755000D03*
X51245000Y-34755000D03*
G04 #@! TD*
D23*
G04 #@! TO.C,C13*
X5115000Y-15775000D03*
X5115000Y-16735000D03*
G04 #@! TD*
G04 #@! TO.C,C8*
X16325000Y-19515000D03*
X16325000Y-20475000D03*
G04 #@! TD*
D20*
G04 #@! TO.C,J4*
X14415000Y-79540000D03*
D21*
X15965000Y-79540000D03*
G04 #@! TD*
D10*
G04 #@! TO.C,C16*
X65535000Y-57845000D03*
X66495000Y-57845000D03*
G04 #@! TD*
D20*
G04 #@! TO.C,J10*
X35840000Y-25805000D03*
D24*
X34290000Y-25805000D03*
G04 #@! TD*
D20*
G04 #@! TO.C,J7*
X29035000Y-56995000D03*
D21*
X30585000Y-56995000D03*
G04 #@! TD*
D13*
G04 #@! TO.C,R6*
X20665000Y-68300000D03*
X20665000Y-67280000D03*
G04 #@! TD*
D10*
G04 #@! TO.C,C2*
X42650000Y-70905000D03*
X43610000Y-70905000D03*
G04 #@! TD*
G04 #@! TO.C,C1*
X26285000Y-34755000D03*
X27245000Y-34755000D03*
G04 #@! TD*
D12*
G04 #@! TO.C,LED1*
X27388000Y-80050000D03*
X27388000Y-79250000D03*
X27388000Y-78450000D03*
X25692000Y-78450000D03*
X25692000Y-79250000D03*
X25692000Y-80050000D03*
G04 #@! TD*
D14*
G04 #@! TO.C,C15*
X67610000Y-41905000D03*
X67610000Y-40945000D03*
G04 #@! TD*
D33*
G04 #@! TO.C,U3*
X1595000Y-77106000D03*
X2245000Y-77106000D03*
X2895000Y-77106000D03*
X3545000Y-77106000D03*
X3545000Y-74684000D03*
X2895000Y-74684000D03*
X2245000Y-74684000D03*
X1595000Y-74684000D03*
G04 #@! TD*
D20*
G04 #@! TO.C,J3*
X59255000Y-41540000D03*
D21*
X60805000Y-41540000D03*
G04 #@! TD*
D26*
G04 #@! TO.C,SW1*
X20095000Y-25870000D03*
X16895000Y-25870000D03*
G04 #@! TD*
D13*
G04 #@! TO.C,R2*
X55905000Y-56880000D03*
X55905000Y-55860000D03*
G04 #@! TD*
D10*
G04 #@! TO.C,C3*
X50270000Y-29675000D03*
X51230000Y-29675000D03*
G04 #@! TD*
D23*
G04 #@! TO.C,C14*
X20665000Y-50275000D03*
X20665000Y-51235000D03*
G04 #@! TD*
D28*
G04 #@! TO.C,J2*
X25615000Y-7800000D03*
D29*
X25615000Y-9350000D03*
G04 #@! TD*
D26*
G04 #@! TO.C,SW1*
X44095000Y-6870000D03*
X40895000Y-6870000D03*
G04 #@! TD*
D31*
G04 #@! TO.C,J12*
X34500000Y-56070000D03*
X34900000Y-56070000D03*
X35300000Y-56070000D03*
X35700000Y-56070000D03*
X36100000Y-56070000D03*
X36500000Y-56070000D03*
G04 #@! TD*
D10*
G04 #@! TO.C,C12*
X36130000Y-8515000D03*
X37090000Y-8515000D03*
G04 #@! TD*
D20*
G04 #@! TO.C,J4*
X38415000Y-22540000D03*
D21*
X39965000Y-22540000D03*
G04 #@! TD*
D20*
G04 #@! TO.C,J4*
X38415000Y-41540000D03*
D21*
X39965000Y-41540000D03*
G04 #@! TD*
D14*
G04 #@! TO.C,C15*
X19610000Y-41905000D03*
X19610000Y-40945000D03*
G04 #@! TD*
D13*
G04 #@! TO.C,R3*
X68655000Y-72240001D03*
X68655000Y-71220001D03*
G04 #@! TD*
D20*
G04 #@! TO.C,J6*
X53530000Y-63805000D03*
D24*
X51980000Y-63805000D03*
G04 #@! TD*
D13*
G04 #@! TO.C,R2*
X31905000Y-75880000D03*
X31905000Y-74860000D03*
G04 #@! TD*
D23*
G04 #@! TO.C,C14*
X68665000Y-31275000D03*
X68665000Y-32235000D03*
G04 #@! TD*
D20*
G04 #@! TO.C,J10*
X11840000Y-25805000D03*
D24*
X10290000Y-25805000D03*
G04 #@! TD*
D10*
G04 #@! TO.C,C11*
X63310000Y-8510000D03*
X64270000Y-8510000D03*
G04 #@! TD*
D14*
G04 #@! TO.C,C15*
X43610000Y-41905000D03*
X43610000Y-40945000D03*
G04 #@! TD*
D31*
G04 #@! TO.C,J12*
X58500000Y-37070000D03*
X58900000Y-37070000D03*
X59300000Y-37070000D03*
X59700000Y-37070000D03*
X60100000Y-37070000D03*
X60500000Y-37070000D03*
G04 #@! TD*
D20*
G04 #@! TO.C,J11*
X32065000Y-22540000D03*
D21*
X33615000Y-22540000D03*
G04 #@! TD*
D33*
G04 #@! TO.C,U3*
X25595000Y-20106000D03*
X26245000Y-20106000D03*
X26895000Y-20106000D03*
X27545000Y-20106000D03*
X27545000Y-17684000D03*
X26895000Y-17684000D03*
X26245000Y-17684000D03*
X25595000Y-17684000D03*
G04 #@! TD*
D13*
G04 #@! TO.C,R7*
X52835000Y-78700000D03*
X52835000Y-77680000D03*
G04 #@! TD*
D28*
G04 #@! TO.C,J5*
X70350000Y-14940000D03*
D29*
X70350000Y-16490000D03*
G04 #@! TD*
D10*
G04 #@! TO.C,C16*
X65535000Y-76845000D03*
X66495000Y-76845000D03*
G04 #@! TD*
D20*
G04 #@! TO.C,J9*
X8675001Y-63805000D03*
D24*
X7125001Y-63805000D03*
G04 #@! TD*
D32*
G04 #@! TO.C,U4*
X70509000Y-58454000D03*
X70509000Y-57504000D03*
X70509000Y-56552000D03*
X67921000Y-56552000D03*
X67921000Y-58452000D03*
G04 #@! TD*
D11*
G04 #@! TO.C,R8*
X59647000Y-19485000D03*
X59647000Y-20505000D03*
G04 #@! TD*
D23*
G04 #@! TO.C,C14*
X68665000Y-50275000D03*
X68665000Y-51235000D03*
G04 #@! TD*
D10*
G04 #@! TO.C,C11*
X39310000Y-46510000D03*
X40270000Y-46510000D03*
G04 #@! TD*
G04 #@! TO.C,C1*
X50285000Y-53755000D03*
X51245000Y-53755000D03*
G04 #@! TD*
D23*
G04 #@! TO.C,C8*
X64325000Y-57515000D03*
X64325000Y-58475000D03*
G04 #@! TD*
D30*
G04 #@! TO.C,R12*
X25040000Y-25395000D03*
X26060000Y-25395000D03*
G04 #@! TD*
D15*
G04 #@! TO.C,U1*
X14495000Y-66855000D03*
X14095000Y-66855000D03*
X13695000Y-66855000D03*
X13295000Y-66855000D03*
X12895000Y-66855000D03*
X12495000Y-66855000D03*
X12095000Y-66855000D03*
X11695000Y-66855000D03*
X11295000Y-66855000D03*
X10895000Y-66855000D03*
X10495000Y-66855000D03*
X10095000Y-66855000D03*
X9695000Y-66855000D03*
X9295000Y-66855000D03*
D16*
X8345000Y-67805000D03*
X8345000Y-68205000D03*
X8345000Y-68605000D03*
X8345000Y-69005000D03*
X8345000Y-69405000D03*
X8345000Y-69805000D03*
X8345000Y-70205000D03*
X8345000Y-70605000D03*
X8345000Y-71005000D03*
X8345000Y-71405000D03*
X8345000Y-71805000D03*
X8345000Y-72205000D03*
X8345000Y-72605000D03*
X8345000Y-73005000D03*
D15*
X9295000Y-73955000D03*
X9695000Y-73955000D03*
X10095000Y-73955000D03*
X10495000Y-73955000D03*
X10895000Y-73955000D03*
X11295000Y-73955000D03*
X11695000Y-73955000D03*
X12095000Y-73955000D03*
X12495000Y-73955000D03*
X12895000Y-73955000D03*
X13295000Y-73955000D03*
X13695000Y-73955000D03*
X14095000Y-73955000D03*
X14495000Y-73955000D03*
D16*
X15445000Y-73005000D03*
X15445000Y-72605000D03*
X15445000Y-72205000D03*
X15445000Y-71805000D03*
X15445000Y-71405000D03*
X15445000Y-71005000D03*
X15445000Y-70605000D03*
X15445000Y-70205000D03*
X15445000Y-69805000D03*
X15445000Y-69405000D03*
X15445000Y-69005000D03*
X15445000Y-68605000D03*
X15445000Y-68205000D03*
X15445000Y-67805000D03*
D17*
X11895000Y-70405000D03*
G04 #@! TD*
D22*
G04 #@! TO.C,J8*
X22189248Y-6483121D03*
X22189248Y-7753121D03*
X22189248Y-9023121D03*
X22189248Y-10293121D03*
X22189248Y-11563121D03*
X22189248Y-12833121D03*
G04 #@! TD*
D10*
G04 #@! TO.C,C17*
X41535000Y-58895000D03*
X42495000Y-58895000D03*
G04 #@! TD*
D20*
G04 #@! TO.C,J7*
X53035000Y-56995000D03*
D21*
X54585000Y-56995000D03*
G04 #@! TD*
D26*
G04 #@! TO.C,SW1*
X20095000Y-6870000D03*
X16895000Y-6870000D03*
G04 #@! TD*
D28*
G04 #@! TO.C,J2*
X49615000Y-45800000D03*
D29*
X49615000Y-47350000D03*
G04 #@! TD*
D14*
G04 #@! TO.C,C15*
X67610000Y-22905000D03*
X67610000Y-21945000D03*
G04 #@! TD*
D10*
G04 #@! TO.C,C18*
X41535000Y-40945000D03*
X42495000Y-40945000D03*
G04 #@! TD*
D11*
G04 #@! TO.C,R4*
X20655000Y-73240000D03*
X20655000Y-74260000D03*
G04 #@! TD*
D23*
G04 #@! TO.C,C9*
X63700000Y-55535000D03*
X63700000Y-56495000D03*
G04 #@! TD*
D26*
G04 #@! TO.C,SW1*
X68095000Y-63870000D03*
X64895000Y-63870000D03*
G04 #@! TD*
D11*
G04 #@! TO.C,R5*
X44665000Y-27295000D03*
X44665000Y-28315000D03*
G04 #@! TD*
D20*
G04 #@! TO.C,J9*
X56675001Y-6805000D03*
D24*
X55125001Y-6805000D03*
G04 #@! TD*
D12*
G04 #@! TO.C,LED1*
X51388000Y-61050000D03*
X51388000Y-60250000D03*
X51388000Y-59450000D03*
X49692000Y-59450000D03*
X49692000Y-60250000D03*
X49692000Y-61050000D03*
G04 #@! TD*
D20*
G04 #@! TO.C,J3*
X11255000Y-79540000D03*
D21*
X12805000Y-79540000D03*
G04 #@! TD*
D10*
G04 #@! TO.C,C10*
X18650000Y-15000000D03*
X19610000Y-15000000D03*
G04 #@! TD*
D15*
G04 #@! TO.C,U1*
X14495000Y-9855000D03*
X14095000Y-9855000D03*
X13695000Y-9855000D03*
X13295000Y-9855000D03*
X12895000Y-9855000D03*
X12495000Y-9855000D03*
X12095000Y-9855000D03*
X11695000Y-9855000D03*
X11295000Y-9855000D03*
X10895000Y-9855000D03*
X10495000Y-9855000D03*
X10095000Y-9855000D03*
X9695000Y-9855000D03*
X9295000Y-9855000D03*
D16*
X8345000Y-10805000D03*
X8345000Y-11205000D03*
X8345000Y-11605000D03*
X8345000Y-12005000D03*
X8345000Y-12405000D03*
X8345000Y-12805000D03*
X8345000Y-13205000D03*
X8345000Y-13605000D03*
X8345000Y-14005000D03*
X8345000Y-14405000D03*
X8345000Y-14805000D03*
X8345000Y-15205000D03*
X8345000Y-15605000D03*
X8345000Y-16005000D03*
D15*
X9295000Y-16955000D03*
X9695000Y-16955000D03*
X10095000Y-16955000D03*
X10495000Y-16955000D03*
X10895000Y-16955000D03*
X11295000Y-16955000D03*
X11695000Y-16955000D03*
X12095000Y-16955000D03*
X12495000Y-16955000D03*
X12895000Y-16955000D03*
X13295000Y-16955000D03*
X13695000Y-16955000D03*
X14095000Y-16955000D03*
X14495000Y-16955000D03*
D16*
X15445000Y-16005000D03*
X15445000Y-15605000D03*
X15445000Y-15205000D03*
X15445000Y-14805000D03*
X15445000Y-14405000D03*
X15445000Y-14005000D03*
X15445000Y-13605000D03*
X15445000Y-13205000D03*
X15445000Y-12805000D03*
X15445000Y-12405000D03*
X15445000Y-12005000D03*
X15445000Y-11605000D03*
X15445000Y-11205000D03*
X15445000Y-10805000D03*
D17*
X11895000Y-13405000D03*
G04 #@! TD*
D13*
G04 #@! TO.C,R1*
X5110000Y-71785000D03*
X5110000Y-70765000D03*
G04 #@! TD*
D22*
G04 #@! TO.C,J8*
X70189248Y-25483121D03*
X70189248Y-26753121D03*
X70189248Y-28023121D03*
X70189248Y-29293121D03*
X70189248Y-30563121D03*
X70189248Y-31833121D03*
G04 #@! TD*
D32*
G04 #@! TO.C,U4*
X46509000Y-77454000D03*
X46509000Y-76504000D03*
X46509000Y-75552000D03*
X43921000Y-75552000D03*
X43921000Y-77452000D03*
G04 #@! TD*
D10*
G04 #@! TO.C,C16*
X17535000Y-57845000D03*
X18495000Y-57845000D03*
G04 #@! TD*
G04 #@! TO.C,C12*
X12130000Y-27515000D03*
X13090000Y-27515000D03*
G04 #@! TD*
G04 #@! TO.C,C11*
X39310000Y-8510000D03*
X40270000Y-8510000D03*
G04 #@! TD*
D23*
G04 #@! TO.C,C14*
X20665000Y-69275000D03*
X20665000Y-70235000D03*
G04 #@! TD*
D25*
G04 #@! TO.C,L1*
X44892000Y-79425000D03*
X46548000Y-79425000D03*
G04 #@! TD*
D26*
G04 #@! TO.C,SW1*
X68095000Y-6870000D03*
X64895000Y-6870000D03*
G04 #@! TD*
D23*
G04 #@! TO.C,C13*
X29115000Y-72775000D03*
X29115000Y-73735000D03*
G04 #@! TD*
D18*
G04 #@! TO.C,U2*
X67365000Y-47385500D03*
X66865000Y-47385500D03*
X66365000Y-47385500D03*
X65865000Y-47385500D03*
X65865000Y-50399500D03*
X66365000Y-50399500D03*
X66865000Y-50399500D03*
X67365000Y-50399500D03*
D19*
X66615000Y-48892500D03*
G04 #@! TD*
D31*
G04 #@! TO.C,J12*
X58500000Y-75070000D03*
X58900000Y-75070000D03*
X59300000Y-75070000D03*
X59700000Y-75070000D03*
X60100000Y-75070000D03*
X60500000Y-75070000D03*
G04 #@! TD*
D11*
G04 #@! TO.C,R4*
X68655000Y-54240000D03*
X68655000Y-55260000D03*
G04 #@! TD*
G04 #@! TO.C,R5*
X44665000Y-46295000D03*
X44665000Y-47315000D03*
G04 #@! TD*
D10*
G04 #@! TO.C,C18*
X41535000Y-59945000D03*
X42495000Y-59945000D03*
G04 #@! TD*
D20*
G04 #@! TO.C,J9*
X32675001Y-44805000D03*
D24*
X31125001Y-44805000D03*
G04 #@! TD*
D33*
G04 #@! TO.C,U3*
X1595000Y-39106000D03*
X2245000Y-39106000D03*
X2895000Y-39106000D03*
X3545000Y-39106000D03*
X3545000Y-36684000D03*
X2895000Y-36684000D03*
X2245000Y-36684000D03*
X1595000Y-36684000D03*
G04 #@! TD*
D10*
G04 #@! TO.C,C16*
X41535000Y-76845000D03*
X42495000Y-76845000D03*
G04 #@! TD*
G04 #@! TO.C,C1*
X2285000Y-34755000D03*
X3245000Y-34755000D03*
G04 #@! TD*
D20*
G04 #@! TO.C,J3*
X11255000Y-22540000D03*
D21*
X12805000Y-22540000D03*
G04 #@! TD*
D20*
G04 #@! TO.C,J3*
X35255000Y-79540000D03*
D21*
X36805000Y-79540000D03*
G04 #@! TD*
D23*
G04 #@! TO.C,C7*
X34570000Y-57510000D03*
X34570000Y-58470000D03*
G04 #@! TD*
D20*
G04 #@! TO.C,J3*
X11255000Y-41540000D03*
D21*
X12805000Y-41540000D03*
G04 #@! TD*
D20*
G04 #@! TO.C,J7*
X53035000Y-75995000D03*
D21*
X54585000Y-75995000D03*
G04 #@! TD*
D14*
G04 #@! TO.C,C15*
X19610000Y-79905000D03*
X19610000Y-78945000D03*
G04 #@! TD*
D18*
G04 #@! TO.C,U2*
X43365000Y-66385500D03*
X42865000Y-66385500D03*
X42365000Y-66385500D03*
X41865000Y-66385500D03*
X41865000Y-69399500D03*
X42365000Y-69399500D03*
X42865000Y-69399500D03*
X43365000Y-69399500D03*
D19*
X42615000Y-67892500D03*
G04 #@! TD*
D15*
G04 #@! TO.C,U1*
X38495000Y-47855000D03*
X38095000Y-47855000D03*
X37695000Y-47855000D03*
X37295000Y-47855000D03*
X36895000Y-47855000D03*
X36495000Y-47855000D03*
X36095000Y-47855000D03*
X35695000Y-47855000D03*
X35295000Y-47855000D03*
X34895000Y-47855000D03*
X34495000Y-47855000D03*
X34095000Y-47855000D03*
X33695000Y-47855000D03*
X33295000Y-47855000D03*
D16*
X32345000Y-48805000D03*
X32345000Y-49205000D03*
X32345000Y-49605000D03*
X32345000Y-50005000D03*
X32345000Y-50405000D03*
X32345000Y-50805000D03*
X32345000Y-51205000D03*
X32345000Y-51605000D03*
X32345000Y-52005000D03*
X32345000Y-52405000D03*
X32345000Y-52805000D03*
X32345000Y-53205000D03*
X32345000Y-53605000D03*
X32345000Y-54005000D03*
D15*
X33295000Y-54955000D03*
X33695000Y-54955000D03*
X34095000Y-54955000D03*
X34495000Y-54955000D03*
X34895000Y-54955000D03*
X35295000Y-54955000D03*
X35695000Y-54955000D03*
X36095000Y-54955000D03*
X36495000Y-54955000D03*
X36895000Y-54955000D03*
X37295000Y-54955000D03*
X37695000Y-54955000D03*
X38095000Y-54955000D03*
X38495000Y-54955000D03*
D16*
X39445000Y-54005000D03*
X39445000Y-53605000D03*
X39445000Y-53205000D03*
X39445000Y-52805000D03*
X39445000Y-52405000D03*
X39445000Y-52005000D03*
X39445000Y-51605000D03*
X39445000Y-51205000D03*
X39445000Y-50805000D03*
X39445000Y-50405000D03*
X39445000Y-50005000D03*
X39445000Y-49605000D03*
X39445000Y-49205000D03*
X39445000Y-48805000D03*
D17*
X35895000Y-51405000D03*
G04 #@! TD*
D23*
G04 #@! TO.C,C7*
X34570000Y-19510000D03*
X34570000Y-20470000D03*
G04 #@! TD*
D11*
G04 #@! TO.C,R9*
X36708000Y-19485000D03*
X36708000Y-20505000D03*
G04 #@! TD*
D23*
G04 #@! TO.C,C8*
X40325000Y-38515000D03*
X40325000Y-39475000D03*
G04 #@! TD*
D30*
G04 #@! TO.C,R12*
X49040000Y-44395000D03*
X50060000Y-44395000D03*
G04 #@! TD*
D13*
G04 #@! TO.C,R3*
X44655000Y-72240001D03*
X44655000Y-71220001D03*
G04 #@! TD*
D10*
G04 #@! TO.C,C17*
X65535000Y-20895000D03*
X66495000Y-20895000D03*
G04 #@! TD*
D11*
G04 #@! TO.C,R10*
X13769000Y-76485000D03*
X13769000Y-77505000D03*
G04 #@! TD*
D13*
G04 #@! TO.C,R1*
X53110000Y-33785000D03*
X53110000Y-32765000D03*
G04 #@! TD*
D20*
G04 #@! TO.C,J7*
X53035000Y-37995000D03*
D21*
X54585000Y-37995000D03*
G04 #@! TD*
D23*
G04 #@! TO.C,C7*
X58570000Y-76510000D03*
X58570000Y-77470000D03*
G04 #@! TD*
G04 #@! TO.C,C9*
X39700000Y-55535000D03*
X39700000Y-56495000D03*
G04 #@! TD*
D27*
G04 #@! TO.C,X1*
X27630000Y-52320000D03*
X27630000Y-50120000D03*
X25880000Y-50120000D03*
X25880000Y-52320000D03*
G04 #@! TD*
D10*
G04 #@! TO.C,C16*
X17535000Y-19845000D03*
X18495000Y-19845000D03*
G04 #@! TD*
D14*
G04 #@! TO.C,C6*
X64745000Y-37495000D03*
X64745000Y-36535000D03*
G04 #@! TD*
D20*
G04 #@! TO.C,J4*
X38415000Y-60540000D03*
D21*
X39965000Y-60540000D03*
G04 #@! TD*
D23*
G04 #@! TO.C,C13*
X53115000Y-53775000D03*
X53115000Y-54735000D03*
G04 #@! TD*
D13*
G04 #@! TO.C,R2*
X7905000Y-18880000D03*
X7905000Y-17860000D03*
G04 #@! TD*
D14*
G04 #@! TO.C,C6*
X40745000Y-56495000D03*
X40745000Y-55535000D03*
G04 #@! TD*
D11*
G04 #@! TO.C,R11*
X38830000Y-19485000D03*
X38830000Y-20505000D03*
G04 #@! TD*
D28*
G04 #@! TO.C,J5*
X70350000Y-33940000D03*
D29*
X70350000Y-35490000D03*
G04 #@! TD*
D25*
G04 #@! TO.C,L1*
X68892000Y-41425000D03*
X70548000Y-41425000D03*
G04 #@! TD*
D26*
G04 #@! TO.C,SW1*
X44095000Y-25870000D03*
X40895000Y-25870000D03*
G04 #@! TD*
D20*
G04 #@! TO.C,J1*
X13860000Y-63810000D03*
D21*
X15410000Y-63810000D03*
G04 #@! TD*
D23*
G04 #@! TO.C,C13*
X53115000Y-34775000D03*
X53115000Y-35735000D03*
G04 #@! TD*
D20*
G04 #@! TO.C,J7*
X5035000Y-18995000D03*
D21*
X6585000Y-18995000D03*
G04 #@! TD*
D18*
G04 #@! TO.C,U2*
X43365000Y-28385500D03*
X42865000Y-28385500D03*
X42365000Y-28385500D03*
X41865000Y-28385500D03*
X41865000Y-31399500D03*
X42365000Y-31399500D03*
X42865000Y-31399500D03*
X43365000Y-31399500D03*
D19*
X42615000Y-29892500D03*
G04 #@! TD*
D11*
G04 #@! TO.C,R5*
X44665000Y-8295000D03*
X44665000Y-9315000D03*
G04 #@! TD*
D14*
G04 #@! TO.C,C6*
X64745000Y-56495000D03*
X64745000Y-55535000D03*
G04 #@! TD*
G04 #@! TO.C,C15*
X19610000Y-60905000D03*
X19610000Y-59945000D03*
G04 #@! TD*
D13*
G04 #@! TO.C,R1*
X5110000Y-14785000D03*
X5110000Y-13765000D03*
G04 #@! TD*
D10*
G04 #@! TO.C,C16*
X17535000Y-76845000D03*
X18495000Y-76845000D03*
G04 #@! TD*
D28*
G04 #@! TO.C,J2*
X25615000Y-64800000D03*
D29*
X25615000Y-66350000D03*
G04 #@! TD*
D11*
G04 #@! TO.C,R11*
X14830000Y-76485000D03*
X14830000Y-77505000D03*
G04 #@! TD*
D20*
G04 #@! TO.C,J10*
X59840000Y-25805000D03*
D24*
X58290000Y-25805000D03*
G04 #@! TD*
D18*
G04 #@! TO.C,U2*
X67365000Y-9385500D03*
X66865000Y-9385500D03*
X66365000Y-9385500D03*
X65865000Y-9385500D03*
X65865000Y-12399500D03*
X66365000Y-12399500D03*
X66865000Y-12399500D03*
X67365000Y-12399500D03*
D19*
X66615000Y-10892500D03*
G04 #@! TD*
D10*
G04 #@! TO.C,C5*
X42655000Y-17280000D03*
X43615000Y-17280000D03*
G04 #@! TD*
G04 #@! TO.C,C11*
X39310000Y-65510000D03*
X40270000Y-65510000D03*
G04 #@! TD*
D20*
G04 #@! TO.C,J11*
X56065000Y-79540000D03*
D21*
X57615000Y-79540000D03*
G04 #@! TD*
D11*
G04 #@! TO.C,R11*
X38830000Y-38485000D03*
X38830000Y-39505000D03*
G04 #@! TD*
D28*
G04 #@! TO.C,J2*
X49615000Y-7800000D03*
D29*
X49615000Y-9350000D03*
G04 #@! TD*
D14*
G04 #@! TO.C,C15*
X43610000Y-79905000D03*
X43610000Y-78945000D03*
G04 #@! TD*
D10*
G04 #@! TO.C,C3*
X2270000Y-10675000D03*
X3230000Y-10675000D03*
G04 #@! TD*
D22*
G04 #@! TO.C,J8*
X46189248Y-6483121D03*
X46189248Y-7753121D03*
X46189248Y-9023121D03*
X46189248Y-10293121D03*
X46189248Y-11563121D03*
X46189248Y-12833121D03*
G04 #@! TD*
D23*
G04 #@! TO.C,C13*
X5115000Y-72775000D03*
X5115000Y-73735000D03*
G04 #@! TD*
D10*
G04 #@! TO.C,C10*
X18650000Y-34000000D03*
X19610000Y-34000000D03*
G04 #@! TD*
D23*
G04 #@! TO.C,C9*
X39700000Y-74535000D03*
X39700000Y-75495000D03*
G04 #@! TD*
D14*
G04 #@! TO.C,C15*
X19610000Y-22905000D03*
X19610000Y-21945000D03*
G04 #@! TD*
D30*
G04 #@! TO.C,R12*
X1040000Y-25395000D03*
X2060000Y-25395000D03*
G04 #@! TD*
D18*
G04 #@! TO.C,U2*
X19365000Y-47385500D03*
X18865000Y-47385500D03*
X18365000Y-47385500D03*
X17865000Y-47385500D03*
X17865000Y-50399500D03*
X18365000Y-50399500D03*
X18865000Y-50399500D03*
X19365000Y-50399500D03*
D19*
X18615000Y-48892500D03*
G04 #@! TD*
D27*
G04 #@! TO.C,X1*
X27630000Y-14320000D03*
X27630000Y-12120000D03*
X25880000Y-12120000D03*
X25880000Y-14320000D03*
G04 #@! TD*
D11*
G04 #@! TO.C,R9*
X12708000Y-57485000D03*
X12708000Y-58505000D03*
G04 #@! TD*
D10*
G04 #@! TO.C,C2*
X18650000Y-32905000D03*
X19610000Y-32905000D03*
G04 #@! TD*
D13*
G04 #@! TO.C,R1*
X29110000Y-52785000D03*
X29110000Y-51765000D03*
G04 #@! TD*
D11*
G04 #@! TO.C,R4*
X44655000Y-35240000D03*
X44655000Y-36260000D03*
G04 #@! TD*
G04 #@! TO.C,R5*
X68665000Y-27295000D03*
X68665000Y-28315000D03*
G04 #@! TD*
D13*
G04 #@! TO.C,R3*
X20655000Y-72240001D03*
X20655000Y-71220001D03*
G04 #@! TD*
D28*
G04 #@! TO.C,J5*
X46350000Y-52940000D03*
D29*
X46350000Y-54490000D03*
G04 #@! TD*
D26*
G04 #@! TO.C,SW1*
X68095000Y-44870000D03*
X64895000Y-44870000D03*
G04 #@! TD*
D20*
G04 #@! TO.C,J3*
X35255000Y-22540000D03*
D21*
X36805000Y-22540000D03*
G04 #@! TD*
D20*
G04 #@! TO.C,J4*
X62415000Y-41540000D03*
D21*
X63965000Y-41540000D03*
G04 #@! TD*
D11*
G04 #@! TO.C,R4*
X68655000Y-16240000D03*
X68655000Y-17260000D03*
G04 #@! TD*
D20*
G04 #@! TO.C,J1*
X13860000Y-25810000D03*
D21*
X15410000Y-25810000D03*
G04 #@! TD*
D11*
G04 #@! TO.C,R8*
X11647000Y-57485000D03*
X11647000Y-58505000D03*
G04 #@! TD*
D10*
G04 #@! TO.C,C2*
X42650000Y-51905000D03*
X43610000Y-51905000D03*
G04 #@! TD*
D23*
G04 #@! TO.C,C7*
X58570000Y-19510000D03*
X58570000Y-20470000D03*
G04 #@! TD*
D10*
G04 #@! TO.C,C2*
X66650000Y-32905000D03*
X67610000Y-32905000D03*
G04 #@! TD*
G04 #@! TO.C,C1*
X2285000Y-72755000D03*
X3245000Y-72755000D03*
G04 #@! TD*
D27*
G04 #@! TO.C,X1*
X27630000Y-33320000D03*
X27630000Y-31120000D03*
X25880000Y-31120000D03*
X25880000Y-33320000D03*
G04 #@! TD*
D10*
G04 #@! TO.C,C12*
X12130000Y-8515000D03*
X13090000Y-8515000D03*
G04 #@! TD*
D20*
G04 #@! TO.C,J3*
X59255000Y-60540000D03*
D21*
X60805000Y-60540000D03*
G04 #@! TD*
D28*
G04 #@! TO.C,J5*
X70350000Y-71940000D03*
D29*
X70350000Y-73490000D03*
G04 #@! TD*
D23*
G04 #@! TO.C,C9*
X63700000Y-36535000D03*
X63700000Y-37495000D03*
G04 #@! TD*
D33*
G04 #@! TO.C,U3*
X49595000Y-77106000D03*
X50245000Y-77106000D03*
X50895000Y-77106000D03*
X51545000Y-77106000D03*
X51545000Y-74684000D03*
X50895000Y-74684000D03*
X50245000Y-74684000D03*
X49595000Y-74684000D03*
G04 #@! TD*
D13*
G04 #@! TO.C,R7*
X4835000Y-59700000D03*
X4835000Y-58680000D03*
G04 #@! TD*
D11*
G04 #@! TO.C,R10*
X37769000Y-38485000D03*
X37769000Y-39505000D03*
G04 #@! TD*
D13*
G04 #@! TO.C,R2*
X7905000Y-56880000D03*
X7905000Y-55860000D03*
G04 #@! TD*
D28*
G04 #@! TO.C,J5*
X70350000Y-52940000D03*
D29*
X70350000Y-54490000D03*
G04 #@! TD*
D20*
G04 #@! TO.C,J6*
X53530000Y-25805000D03*
D24*
X51980000Y-25805000D03*
G04 #@! TD*
D10*
G04 #@! TO.C,C12*
X60130000Y-46515000D03*
X61090000Y-46515000D03*
G04 #@! TD*
D23*
G04 #@! TO.C,C4*
X54170000Y-34780000D03*
X54170000Y-35740000D03*
G04 #@! TD*
D20*
G04 #@! TO.C,J6*
X29530000Y-6805000D03*
D24*
X27980000Y-6805000D03*
G04 #@! TD*
D10*
G04 #@! TO.C,C17*
X17535000Y-20895000D03*
X18495000Y-20895000D03*
G04 #@! TD*
D20*
G04 #@! TO.C,J1*
X37860000Y-25810000D03*
D21*
X39410000Y-25810000D03*
G04 #@! TD*
D10*
G04 #@! TO.C,C18*
X65535000Y-59945000D03*
X66495000Y-59945000D03*
G04 #@! TD*
D25*
G04 #@! TO.C,L1*
X68892000Y-60425000D03*
X70548000Y-60425000D03*
G04 #@! TD*
D10*
G04 #@! TO.C,C12*
X60130000Y-27515000D03*
X61090000Y-27515000D03*
G04 #@! TD*
D23*
G04 #@! TO.C,C9*
X39700000Y-17535000D03*
X39700000Y-18495000D03*
G04 #@! TD*
G04 #@! TO.C,C4*
X30170000Y-15780000D03*
X30170000Y-16740000D03*
G04 #@! TD*
D13*
G04 #@! TO.C,R1*
X29110000Y-71785000D03*
X29110000Y-70765000D03*
G04 #@! TD*
D11*
G04 #@! TO.C,R10*
X61769000Y-57485000D03*
X61769000Y-58505000D03*
G04 #@! TD*
D20*
G04 #@! TO.C,J3*
X59255000Y-79540000D03*
D21*
X60805000Y-79540000D03*
G04 #@! TD*
D13*
G04 #@! TO.C,R6*
X20665000Y-11300000D03*
X20665000Y-10280000D03*
G04 #@! TD*
D23*
G04 #@! TO.C,C8*
X16325000Y-76515000D03*
X16325000Y-77475000D03*
G04 #@! TD*
D10*
G04 #@! TO.C,C2*
X42650000Y-32905000D03*
X43610000Y-32905000D03*
G04 #@! TD*
D11*
G04 #@! TO.C,R5*
X68665000Y-46295000D03*
X68665000Y-47315000D03*
G04 #@! TD*
D10*
G04 #@! TO.C,C18*
X65535000Y-21945000D03*
X66495000Y-21945000D03*
G04 #@! TD*
G04 #@! TO.C,C16*
X41535000Y-57845000D03*
X42495000Y-57845000D03*
G04 #@! TD*
G04 #@! TO.C,C2*
X18650000Y-51905000D03*
X19610000Y-51905000D03*
G04 #@! TD*
D20*
G04 #@! TO.C,J3*
X35255000Y-60540000D03*
D21*
X36805000Y-60540000D03*
G04 #@! TD*
D13*
G04 #@! TO.C,R3*
X20655000Y-53240001D03*
X20655000Y-52220001D03*
G04 #@! TD*
D34*
G04 #@! TO.C,REF\u002A\u002A*
X57000000Y-3350000D03*
G04 #@! TD*
D11*
G04 #@! TO.C,R4*
X20655000Y-54240000D03*
X20655000Y-55260000D03*
G04 #@! TD*
G04 #@! TO.C,R5*
X68665000Y-8295000D03*
X68665000Y-9315000D03*
G04 #@! TD*
D13*
G04 #@! TO.C,R6*
X44665000Y-49300000D03*
X44665000Y-48280000D03*
G04 #@! TD*
D28*
G04 #@! TO.C,J2*
X25615000Y-26800000D03*
D29*
X25615000Y-28350000D03*
G04 #@! TD*
D11*
G04 #@! TO.C,R8*
X35647000Y-38485000D03*
X35647000Y-39505000D03*
G04 #@! TD*
G04 #@! TO.C,R8*
X11647000Y-76485000D03*
X11647000Y-77505000D03*
G04 #@! TD*
D32*
G04 #@! TO.C,U4*
X46509000Y-39454000D03*
X46509000Y-38504000D03*
X46509000Y-37552000D03*
X43921000Y-37552000D03*
X43921000Y-39452000D03*
G04 #@! TD*
D13*
G04 #@! TO.C,R6*
X68665000Y-30300000D03*
X68665000Y-29280000D03*
G04 #@! TD*
D20*
G04 #@! TO.C,J9*
X56675001Y-63805000D03*
D24*
X55125001Y-63805000D03*
G04 #@! TD*
D10*
G04 #@! TO.C,C18*
X17535000Y-59945000D03*
X18495000Y-59945000D03*
G04 #@! TD*
D33*
G04 #@! TO.C,U3*
X1595000Y-58106000D03*
X2245000Y-58106000D03*
X2895000Y-58106000D03*
X3545000Y-58106000D03*
X3545000Y-55684000D03*
X2895000Y-55684000D03*
X2245000Y-55684000D03*
X1595000Y-55684000D03*
G04 #@! TD*
D30*
G04 #@! TO.C,R12*
X1040000Y-6395000D03*
X2060000Y-6395000D03*
G04 #@! TD*
D23*
G04 #@! TO.C,C13*
X29115000Y-34775000D03*
X29115000Y-35735000D03*
G04 #@! TD*
D12*
G04 #@! TO.C,LED1*
X27388000Y-23050000D03*
X27388000Y-22250000D03*
X27388000Y-21450000D03*
X25692000Y-21450000D03*
X25692000Y-22250000D03*
X25692000Y-23050000D03*
G04 #@! TD*
D23*
G04 #@! TO.C,C7*
X10570000Y-57510000D03*
X10570000Y-58470000D03*
G04 #@! TD*
D10*
G04 #@! TO.C,C11*
X15310000Y-65510000D03*
X16270000Y-65510000D03*
G04 #@! TD*
D33*
G04 #@! TO.C,U3*
X25595000Y-58106000D03*
X26245000Y-58106000D03*
X26895000Y-58106000D03*
X27545000Y-58106000D03*
X27545000Y-55684000D03*
X26895000Y-55684000D03*
X26245000Y-55684000D03*
X25595000Y-55684000D03*
G04 #@! TD*
D11*
G04 #@! TO.C,R9*
X12708000Y-76485000D03*
X12708000Y-77505000D03*
G04 #@! TD*
D23*
G04 #@! TO.C,C4*
X30170000Y-34780000D03*
X30170000Y-35740000D03*
G04 #@! TD*
D28*
G04 #@! TO.C,J2*
X1615000Y-64800000D03*
D29*
X1615000Y-66350000D03*
G04 #@! TD*
D10*
G04 #@! TO.C,C2*
X66650000Y-70905000D03*
X67610000Y-70905000D03*
G04 #@! TD*
D23*
G04 #@! TO.C,C13*
X53115000Y-15775000D03*
X53115000Y-16735000D03*
G04 #@! TD*
D10*
G04 #@! TO.C,C5*
X18655000Y-55280000D03*
X19615000Y-55280000D03*
G04 #@! TD*
D13*
G04 #@! TO.C,R1*
X53110000Y-14785000D03*
X53110000Y-13765000D03*
G04 #@! TD*
G04 #@! TO.C,R6*
X44665000Y-11300000D03*
X44665000Y-10280000D03*
G04 #@! TD*
D10*
G04 #@! TO.C,C5*
X66655000Y-74280000D03*
X67615000Y-74280000D03*
G04 #@! TD*
D32*
G04 #@! TO.C,U4*
X46509000Y-58454000D03*
X46509000Y-57504000D03*
X46509000Y-56552000D03*
X43921000Y-56552000D03*
X43921000Y-58452000D03*
G04 #@! TD*
D10*
G04 #@! TO.C,C3*
X2270000Y-29675000D03*
X3230000Y-29675000D03*
G04 #@! TD*
D22*
G04 #@! TO.C,J8*
X22189248Y-25483121D03*
X22189248Y-26753121D03*
X22189248Y-28023121D03*
X22189248Y-29293121D03*
X22189248Y-30563121D03*
X22189248Y-31833121D03*
G04 #@! TD*
D27*
G04 #@! TO.C,X1*
X3630000Y-52320000D03*
X3630000Y-50120000D03*
X1880000Y-50120000D03*
X1880000Y-52320000D03*
G04 #@! TD*
D20*
G04 #@! TO.C,J1*
X37860000Y-44810000D03*
D21*
X39410000Y-44810000D03*
G04 #@! TD*
D11*
G04 #@! TO.C,R10*
X37769000Y-19485000D03*
X37769000Y-20505000D03*
G04 #@! TD*
D13*
G04 #@! TO.C,R6*
X20665000Y-49300000D03*
X20665000Y-48280000D03*
G04 #@! TD*
D33*
G04 #@! TO.C,U3*
X1595000Y-20106000D03*
X2245000Y-20106000D03*
X2895000Y-20106000D03*
X3545000Y-20106000D03*
X3545000Y-17684000D03*
X2895000Y-17684000D03*
X2245000Y-17684000D03*
X1595000Y-17684000D03*
G04 #@! TD*
D20*
G04 #@! TO.C,J1*
X61860000Y-6810000D03*
D21*
X63410000Y-6810000D03*
G04 #@! TD*
D30*
G04 #@! TO.C,R12*
X1040000Y-63395000D03*
X2060000Y-63395000D03*
G04 #@! TD*
D14*
G04 #@! TO.C,C15*
X67610000Y-79905000D03*
X67610000Y-78945000D03*
G04 #@! TD*
D13*
G04 #@! TO.C,R1*
X53110000Y-71785000D03*
X53110000Y-70765000D03*
G04 #@! TD*
D28*
G04 #@! TO.C,J5*
X46350000Y-71940000D03*
D29*
X46350000Y-73490000D03*
G04 #@! TD*
D31*
G04 #@! TO.C,J12*
X34500000Y-37070000D03*
X34900000Y-37070000D03*
X35300000Y-37070000D03*
X35700000Y-37070000D03*
X36100000Y-37070000D03*
X36500000Y-37070000D03*
G04 #@! TD*
D11*
G04 #@! TO.C,R10*
X37769000Y-76485000D03*
X37769000Y-77505000D03*
G04 #@! TD*
D23*
G04 #@! TO.C,C9*
X15700000Y-17535000D03*
X15700000Y-18495000D03*
G04 #@! TD*
D10*
G04 #@! TO.C,C12*
X36130000Y-27515000D03*
X37090000Y-27515000D03*
G04 #@! TD*
D13*
G04 #@! TO.C,R1*
X5110000Y-52785000D03*
X5110000Y-51765000D03*
G04 #@! TD*
D27*
G04 #@! TO.C,X1*
X51630000Y-71320000D03*
X51630000Y-69120000D03*
X49880000Y-69120000D03*
X49880000Y-71320000D03*
G04 #@! TD*
D10*
G04 #@! TO.C,C10*
X66650000Y-15000000D03*
X67610000Y-15000000D03*
G04 #@! TD*
D20*
G04 #@! TO.C,J11*
X8065000Y-41540000D03*
D21*
X9615000Y-41540000D03*
G04 #@! TD*
D10*
G04 #@! TO.C,C5*
X66655000Y-36280000D03*
X67615000Y-36280000D03*
G04 #@! TD*
D20*
G04 #@! TO.C,J3*
X11255000Y-60540000D03*
D21*
X12805000Y-60540000D03*
G04 #@! TD*
D25*
G04 #@! TO.C,L1*
X44892000Y-22425000D03*
X46548000Y-22425000D03*
G04 #@! TD*
D23*
G04 #@! TO.C,C13*
X29115000Y-53775000D03*
X29115000Y-54735000D03*
G04 #@! TD*
D10*
G04 #@! TO.C,C12*
X12130000Y-65515000D03*
X13090000Y-65515000D03*
G04 #@! TD*
D23*
G04 #@! TO.C,C7*
X58570000Y-38510000D03*
X58570000Y-39470000D03*
G04 #@! TD*
G04 #@! TO.C,C8*
X64325000Y-38515000D03*
X64325000Y-39475000D03*
G04 #@! TD*
G04 #@! TO.C,C4*
X54170000Y-72780000D03*
X54170000Y-73740000D03*
G04 #@! TD*
D20*
G04 #@! TO.C,J11*
X56065000Y-60540000D03*
D21*
X57615000Y-60540000D03*
G04 #@! TD*
D20*
G04 #@! TO.C,J6*
X5530000Y-44805000D03*
D24*
X3980000Y-44805000D03*
G04 #@! TD*
D13*
G04 #@! TO.C,R3*
X68655000Y-34240001D03*
X68655000Y-33220001D03*
G04 #@! TD*
D10*
G04 #@! TO.C,C5*
X42655000Y-55280000D03*
X43615000Y-55280000D03*
G04 #@! TD*
D32*
G04 #@! TO.C,U4*
X70509000Y-39454000D03*
X70509000Y-38504000D03*
X70509000Y-37552000D03*
X67921000Y-37552000D03*
X67921000Y-39452000D03*
G04 #@! TD*
D31*
G04 #@! TO.C,J12*
X10500000Y-56070000D03*
X10900000Y-56070000D03*
X11300000Y-56070000D03*
X11700000Y-56070000D03*
X12100000Y-56070000D03*
X12500000Y-56070000D03*
G04 #@! TD*
D18*
G04 #@! TO.C,U2*
X43365000Y-9385500D03*
X42865000Y-9385500D03*
X42365000Y-9385500D03*
X41865000Y-9385500D03*
X41865000Y-12399500D03*
X42365000Y-12399500D03*
X42865000Y-12399500D03*
X43365000Y-12399500D03*
D19*
X42615000Y-10892500D03*
G04 #@! TD*
D10*
G04 #@! TO.C,C11*
X15310000Y-46510000D03*
X16270000Y-46510000D03*
G04 #@! TD*
D33*
G04 #@! TO.C,U3*
X49595000Y-20106000D03*
X50245000Y-20106000D03*
X50895000Y-20106000D03*
X51545000Y-20106000D03*
X51545000Y-17684000D03*
X50895000Y-17684000D03*
X50245000Y-17684000D03*
X49595000Y-17684000D03*
G04 #@! TD*
D10*
G04 #@! TO.C,C18*
X17535000Y-78945000D03*
X18495000Y-78945000D03*
G04 #@! TD*
D14*
G04 #@! TO.C,C15*
X43610000Y-22905000D03*
X43610000Y-21945000D03*
G04 #@! TD*
D13*
G04 #@! TO.C,R1*
X29110000Y-33785000D03*
X29110000Y-32765000D03*
G04 #@! TD*
D10*
G04 #@! TO.C,C10*
X66650000Y-34000000D03*
X67610000Y-34000000D03*
G04 #@! TD*
D11*
G04 #@! TO.C,R10*
X61769000Y-76485000D03*
X61769000Y-77505000D03*
G04 #@! TD*
D33*
G04 #@! TO.C,U3*
X25595000Y-77106000D03*
X26245000Y-77106000D03*
X26895000Y-77106000D03*
X27545000Y-77106000D03*
X27545000Y-74684000D03*
X26895000Y-74684000D03*
X26245000Y-74684000D03*
X25595000Y-74684000D03*
G04 #@! TD*
D20*
G04 #@! TO.C,J9*
X56675001Y-44805000D03*
D24*
X55125001Y-44805000D03*
G04 #@! TD*
D10*
G04 #@! TO.C,C12*
X36130000Y-65515000D03*
X37090000Y-65515000D03*
G04 #@! TD*
D33*
G04 #@! TO.C,U3*
X25595000Y-39106000D03*
X26245000Y-39106000D03*
X26895000Y-39106000D03*
X27545000Y-39106000D03*
X27545000Y-36684000D03*
X26895000Y-36684000D03*
X26245000Y-36684000D03*
X25595000Y-36684000D03*
G04 #@! TD*
D10*
G04 #@! TO.C,C16*
X17535000Y-38845000D03*
X18495000Y-38845000D03*
G04 #@! TD*
D11*
G04 #@! TO.C,R5*
X20665000Y-27295000D03*
X20665000Y-28315000D03*
G04 #@! TD*
D10*
G04 #@! TO.C,C5*
X18655000Y-74280000D03*
X19615000Y-74280000D03*
G04 #@! TD*
D30*
G04 #@! TO.C,R12*
X49040000Y-63395000D03*
X50060000Y-63395000D03*
G04 #@! TD*
D33*
G04 #@! TO.C,U3*
X49595000Y-39106000D03*
X50245000Y-39106000D03*
X50895000Y-39106000D03*
X51545000Y-39106000D03*
X51545000Y-36684000D03*
X50895000Y-36684000D03*
X50245000Y-36684000D03*
X49595000Y-36684000D03*
G04 #@! TD*
D23*
G04 #@! TO.C,C9*
X15700000Y-55535000D03*
X15700000Y-56495000D03*
G04 #@! TD*
D15*
G04 #@! TO.C,U1*
X62495000Y-9855000D03*
X62095000Y-9855000D03*
X61695000Y-9855000D03*
X61295000Y-9855000D03*
X60895000Y-9855000D03*
X60495000Y-9855000D03*
X60095000Y-9855000D03*
X59695000Y-9855000D03*
X59295000Y-9855000D03*
X58895000Y-9855000D03*
X58495000Y-9855000D03*
X58095000Y-9855000D03*
X57695000Y-9855000D03*
X57295000Y-9855000D03*
D16*
X56345000Y-10805000D03*
X56345000Y-11205000D03*
X56345000Y-11605000D03*
X56345000Y-12005000D03*
X56345000Y-12405000D03*
X56345000Y-12805000D03*
X56345000Y-13205000D03*
X56345000Y-13605000D03*
X56345000Y-14005000D03*
X56345000Y-14405000D03*
X56345000Y-14805000D03*
X56345000Y-15205000D03*
X56345000Y-15605000D03*
X56345000Y-16005000D03*
D15*
X57295000Y-16955000D03*
X57695000Y-16955000D03*
X58095000Y-16955000D03*
X58495000Y-16955000D03*
X58895000Y-16955000D03*
X59295000Y-16955000D03*
X59695000Y-16955000D03*
X60095000Y-16955000D03*
X60495000Y-16955000D03*
X60895000Y-16955000D03*
X61295000Y-16955000D03*
X61695000Y-16955000D03*
X62095000Y-16955000D03*
X62495000Y-16955000D03*
D16*
X63445000Y-16005000D03*
X63445000Y-15605000D03*
X63445000Y-15205000D03*
X63445000Y-14805000D03*
X63445000Y-14405000D03*
X63445000Y-14005000D03*
X63445000Y-13605000D03*
X63445000Y-13205000D03*
X63445000Y-12805000D03*
X63445000Y-12405000D03*
X63445000Y-12005000D03*
X63445000Y-11605000D03*
X63445000Y-11205000D03*
X63445000Y-10805000D03*
D17*
X59895000Y-13405000D03*
G04 #@! TD*
D30*
G04 #@! TO.C,R12*
X25040000Y-6395000D03*
X26060000Y-6395000D03*
G04 #@! TD*
D10*
G04 #@! TO.C,C16*
X65535000Y-19845000D03*
X66495000Y-19845000D03*
G04 #@! TD*
D20*
G04 #@! TO.C,J10*
X59840000Y-44805000D03*
D24*
X58290000Y-44805000D03*
G04 #@! TD*
D10*
G04 #@! TO.C,C16*
X41535000Y-38845000D03*
X42495000Y-38845000D03*
G04 #@! TD*
D11*
G04 #@! TO.C,R9*
X36708000Y-76485000D03*
X36708000Y-77505000D03*
G04 #@! TD*
D10*
G04 #@! TO.C,C10*
X42650000Y-72000000D03*
X43610000Y-72000000D03*
G04 #@! TD*
D23*
G04 #@! TO.C,C7*
X10570000Y-76510000D03*
X10570000Y-77470000D03*
G04 #@! TD*
D13*
G04 #@! TO.C,R2*
X31905000Y-56880000D03*
X31905000Y-55860000D03*
G04 #@! TD*
D20*
G04 #@! TO.C,J6*
X29530000Y-25805000D03*
D24*
X27980000Y-25805000D03*
G04 #@! TD*
D10*
G04 #@! TO.C,C3*
X26270000Y-29675000D03*
X27230000Y-29675000D03*
G04 #@! TD*
D20*
G04 #@! TO.C,J11*
X32065000Y-79540000D03*
D21*
X33615000Y-79540000D03*
G04 #@! TD*
D28*
G04 #@! TO.C,J5*
X46350000Y-14940000D03*
D29*
X46350000Y-16490000D03*
G04 #@! TD*
D20*
G04 #@! TO.C,J9*
X32675001Y-6805000D03*
D24*
X31125001Y-6805000D03*
G04 #@! TD*
D13*
G04 #@! TO.C,R6*
X68665000Y-49300000D03*
X68665000Y-48280000D03*
G04 #@! TD*
D20*
G04 #@! TO.C,J4*
X14415000Y-22540000D03*
D21*
X15965000Y-22540000D03*
G04 #@! TD*
D28*
G04 #@! TO.C,J5*
X22350000Y-33940000D03*
D29*
X22350000Y-35490000D03*
G04 #@! TD*
D11*
G04 #@! TO.C,R5*
X20665000Y-8295000D03*
X20665000Y-9315000D03*
G04 #@! TD*
G04 #@! TO.C,R8*
X35647000Y-19485000D03*
X35647000Y-20505000D03*
G04 #@! TD*
D23*
G04 #@! TO.C,C14*
X44665000Y-69275000D03*
X44665000Y-70235000D03*
G04 #@! TD*
D10*
G04 #@! TO.C,C2*
X18650000Y-70905000D03*
X19610000Y-70905000D03*
G04 #@! TD*
D23*
G04 #@! TO.C,C9*
X39700000Y-36535000D03*
X39700000Y-37495000D03*
G04 #@! TD*
D14*
G04 #@! TO.C,C6*
X40745000Y-75495000D03*
X40745000Y-74535000D03*
G04 #@! TD*
D23*
G04 #@! TO.C,C8*
X40325000Y-19515000D03*
X40325000Y-20475000D03*
G04 #@! TD*
D31*
G04 #@! TO.C,J12*
X34500000Y-18070000D03*
X34900000Y-18070000D03*
X35300000Y-18070000D03*
X35700000Y-18070000D03*
X36100000Y-18070000D03*
X36500000Y-18070000D03*
G04 #@! TD*
D15*
G04 #@! TO.C,U1*
X38495000Y-28855000D03*
X38095000Y-28855000D03*
X37695000Y-28855000D03*
X37295000Y-28855000D03*
X36895000Y-28855000D03*
X36495000Y-28855000D03*
X36095000Y-28855000D03*
X35695000Y-28855000D03*
X35295000Y-28855000D03*
X34895000Y-28855000D03*
X34495000Y-28855000D03*
X34095000Y-28855000D03*
X33695000Y-28855000D03*
X33295000Y-28855000D03*
D16*
X32345000Y-29805000D03*
X32345000Y-30205000D03*
X32345000Y-30605000D03*
X32345000Y-31005000D03*
X32345000Y-31405000D03*
X32345000Y-31805000D03*
X32345000Y-32205000D03*
X32345000Y-32605000D03*
X32345000Y-33005000D03*
X32345000Y-33405000D03*
X32345000Y-33805000D03*
X32345000Y-34205000D03*
X32345000Y-34605000D03*
X32345000Y-35005000D03*
D15*
X33295000Y-35955000D03*
X33695000Y-35955000D03*
X34095000Y-35955000D03*
X34495000Y-35955000D03*
X34895000Y-35955000D03*
X35295000Y-35955000D03*
X35695000Y-35955000D03*
X36095000Y-35955000D03*
X36495000Y-35955000D03*
X36895000Y-35955000D03*
X37295000Y-35955000D03*
X37695000Y-35955000D03*
X38095000Y-35955000D03*
X38495000Y-35955000D03*
D16*
X39445000Y-35005000D03*
X39445000Y-34605000D03*
X39445000Y-34205000D03*
X39445000Y-33805000D03*
X39445000Y-33405000D03*
X39445000Y-33005000D03*
X39445000Y-32605000D03*
X39445000Y-32205000D03*
X39445000Y-31805000D03*
X39445000Y-31405000D03*
X39445000Y-31005000D03*
X39445000Y-30605000D03*
X39445000Y-30205000D03*
X39445000Y-29805000D03*
D17*
X35895000Y-32405000D03*
G04 #@! TD*
D20*
G04 #@! TO.C,J10*
X11840000Y-6805000D03*
D24*
X10290000Y-6805000D03*
G04 #@! TD*
D13*
G04 #@! TO.C,R6*
X44665000Y-68300000D03*
X44665000Y-67280000D03*
G04 #@! TD*
D11*
G04 #@! TO.C,R5*
X68665000Y-65295000D03*
X68665000Y-66315000D03*
G04 #@! TD*
D10*
G04 #@! TO.C,C18*
X41535000Y-78945000D03*
X42495000Y-78945000D03*
G04 #@! TD*
D12*
G04 #@! TO.C,LED1*
X3388000Y-61050000D03*
X3388000Y-60250000D03*
X3388000Y-59450000D03*
X1692000Y-59450000D03*
X1692000Y-60250000D03*
X1692000Y-61050000D03*
G04 #@! TD*
D20*
G04 #@! TO.C,J7*
X5035000Y-37995000D03*
D21*
X6585000Y-37995000D03*
G04 #@! TD*
D14*
G04 #@! TO.C,C6*
X16745000Y-18495000D03*
X16745000Y-17535000D03*
G04 #@! TD*
D32*
G04 #@! TO.C,U4*
X22509000Y-77454000D03*
X22509000Y-76504000D03*
X22509000Y-75552000D03*
X19921000Y-75552000D03*
X19921000Y-77452000D03*
G04 #@! TD*
D26*
G04 #@! TO.C,SW1*
X20095000Y-44870000D03*
X16895000Y-44870000D03*
G04 #@! TD*
D20*
G04 #@! TO.C,J11*
X56065000Y-22540000D03*
D21*
X57615000Y-22540000D03*
G04 #@! TD*
D32*
G04 #@! TO.C,U4*
X70509000Y-20454000D03*
X70509000Y-19504000D03*
X70509000Y-18552000D03*
X67921000Y-18552000D03*
X67921000Y-20452000D03*
G04 #@! TD*
D27*
G04 #@! TO.C,X1*
X51630000Y-33320000D03*
X51630000Y-31120000D03*
X49880000Y-31120000D03*
X49880000Y-33320000D03*
G04 #@! TD*
D22*
G04 #@! TO.C,J8*
X22189248Y-44483121D03*
X22189248Y-45753121D03*
X22189248Y-47023121D03*
X22189248Y-48293121D03*
X22189248Y-49563121D03*
X22189248Y-50833121D03*
G04 #@! TD*
D23*
G04 #@! TO.C,C8*
X16325000Y-38515000D03*
X16325000Y-39475000D03*
G04 #@! TD*
D30*
G04 #@! TO.C,R12*
X1040000Y-44395000D03*
X2060000Y-44395000D03*
G04 #@! TD*
G04 #@! TO.C,R12*
X49040000Y-6395000D03*
X50060000Y-6395000D03*
G04 #@! TD*
D11*
G04 #@! TO.C,R11*
X38830000Y-57485000D03*
X38830000Y-58505000D03*
G04 #@! TD*
D13*
G04 #@! TO.C,R3*
X20655000Y-15240001D03*
X20655000Y-14220001D03*
G04 #@! TD*
D11*
G04 #@! TO.C,R9*
X12708000Y-38485000D03*
X12708000Y-39505000D03*
G04 #@! TD*
D20*
G04 #@! TO.C,J3*
X59255000Y-22540000D03*
D21*
X60805000Y-22540000D03*
G04 #@! TD*
D20*
G04 #@! TO.C,J6*
X29530000Y-63805000D03*
D24*
X27980000Y-63805000D03*
G04 #@! TD*
D18*
G04 #@! TO.C,U2*
X43365000Y-47385500D03*
X42865000Y-47385500D03*
X42365000Y-47385500D03*
X41865000Y-47385500D03*
X41865000Y-50399500D03*
X42365000Y-50399500D03*
X42865000Y-50399500D03*
X43365000Y-50399500D03*
D19*
X42615000Y-48892500D03*
G04 #@! TD*
D10*
G04 #@! TO.C,C1*
X50285000Y-72755000D03*
X51245000Y-72755000D03*
G04 #@! TD*
D23*
G04 #@! TO.C,C14*
X20665000Y-31275000D03*
X20665000Y-32235000D03*
G04 #@! TD*
D27*
G04 #@! TO.C,X1*
X27630000Y-71320000D03*
X27630000Y-69120000D03*
X25880000Y-69120000D03*
X25880000Y-71320000D03*
G04 #@! TD*
D23*
G04 #@! TO.C,C9*
X15700000Y-36535000D03*
X15700000Y-37495000D03*
G04 #@! TD*
D28*
G04 #@! TO.C,J2*
X1615000Y-26800000D03*
D29*
X1615000Y-28350000D03*
G04 #@! TD*
D13*
G04 #@! TO.C,R7*
X52835000Y-59700000D03*
X52835000Y-58680000D03*
G04 #@! TD*
D34*
G04 #@! TO.C,REF\u002A\u002A*
X15000000Y-83050000D03*
G04 #@! TD*
D20*
G04 #@! TO.C,J1*
X37860000Y-63810000D03*
D21*
X39410000Y-63810000D03*
G04 #@! TD*
D10*
G04 #@! TO.C,C3*
X26270000Y-67675000D03*
X27230000Y-67675000D03*
G04 #@! TD*
G04 #@! TO.C,C5*
X18655000Y-17280000D03*
X19615000Y-17280000D03*
G04 #@! TD*
D31*
G04 #@! TO.C,J12*
X10500000Y-37070000D03*
X10900000Y-37070000D03*
X11300000Y-37070000D03*
X11700000Y-37070000D03*
X12100000Y-37070000D03*
X12500000Y-37070000D03*
G04 #@! TD*
D20*
G04 #@! TO.C,J9*
X8675001Y-25805000D03*
D24*
X7125001Y-25805000D03*
G04 #@! TD*
D10*
G04 #@! TO.C,C3*
X50270000Y-10675000D03*
X51230000Y-10675000D03*
G04 #@! TD*
D23*
G04 #@! TO.C,C4*
X54170000Y-15780000D03*
X54170000Y-16740000D03*
G04 #@! TD*
D18*
G04 #@! TO.C,U2*
X19365000Y-66385500D03*
X18865000Y-66385500D03*
X18365000Y-66385500D03*
X17865000Y-66385500D03*
X17865000Y-69399500D03*
X18365000Y-69399500D03*
X18865000Y-69399500D03*
X19365000Y-69399500D03*
D19*
X18615000Y-67892500D03*
G04 #@! TD*
D25*
G04 #@! TO.C,L1*
X20892000Y-79425000D03*
X22548000Y-79425000D03*
G04 #@! TD*
D13*
G04 #@! TO.C,R6*
X68665000Y-68300000D03*
X68665000Y-67280000D03*
G04 #@! TD*
D15*
G04 #@! TO.C,U1*
X38495000Y-9855000D03*
X38095000Y-9855000D03*
X37695000Y-9855000D03*
X37295000Y-9855000D03*
X36895000Y-9855000D03*
X36495000Y-9855000D03*
X36095000Y-9855000D03*
X35695000Y-9855000D03*
X35295000Y-9855000D03*
X34895000Y-9855000D03*
X34495000Y-9855000D03*
X34095000Y-9855000D03*
X33695000Y-9855000D03*
X33295000Y-9855000D03*
D16*
X32345000Y-10805000D03*
X32345000Y-11205000D03*
X32345000Y-11605000D03*
X32345000Y-12005000D03*
X32345000Y-12405000D03*
X32345000Y-12805000D03*
X32345000Y-13205000D03*
X32345000Y-13605000D03*
X32345000Y-14005000D03*
X32345000Y-14405000D03*
X32345000Y-14805000D03*
X32345000Y-15205000D03*
X32345000Y-15605000D03*
X32345000Y-16005000D03*
D15*
X33295000Y-16955000D03*
X33695000Y-16955000D03*
X34095000Y-16955000D03*
X34495000Y-16955000D03*
X34895000Y-16955000D03*
X35295000Y-16955000D03*
X35695000Y-16955000D03*
X36095000Y-16955000D03*
X36495000Y-16955000D03*
X36895000Y-16955000D03*
X37295000Y-16955000D03*
X37695000Y-16955000D03*
X38095000Y-16955000D03*
X38495000Y-16955000D03*
D16*
X39445000Y-16005000D03*
X39445000Y-15605000D03*
X39445000Y-15205000D03*
X39445000Y-14805000D03*
X39445000Y-14405000D03*
X39445000Y-14005000D03*
X39445000Y-13605000D03*
X39445000Y-13205000D03*
X39445000Y-12805000D03*
X39445000Y-12405000D03*
X39445000Y-12005000D03*
X39445000Y-11605000D03*
X39445000Y-11205000D03*
X39445000Y-10805000D03*
D17*
X35895000Y-13405000D03*
G04 #@! TD*
D10*
G04 #@! TO.C,C2*
X66650000Y-13905000D03*
X67610000Y-13905000D03*
G04 #@! TD*
D25*
G04 #@! TO.C,L1*
X44892000Y-41425000D03*
X46548000Y-41425000D03*
G04 #@! TD*
D20*
G04 #@! TO.C,J7*
X29035000Y-18995000D03*
D21*
X30585000Y-18995000D03*
G04 #@! TD*
D20*
G04 #@! TO.C,J10*
X11840000Y-63805000D03*
D24*
X10290000Y-63805000D03*
G04 #@! TD*
D23*
G04 #@! TO.C,C13*
X53115000Y-72775000D03*
X53115000Y-73735000D03*
G04 #@! TD*
D20*
G04 #@! TO.C,J4*
X62415000Y-60540000D03*
D21*
X63965000Y-60540000D03*
G04 #@! TD*
D30*
G04 #@! TO.C,R12*
X49040000Y-25395000D03*
X50060000Y-25395000D03*
G04 #@! TD*
D10*
G04 #@! TO.C,C10*
X18650000Y-53000000D03*
X19610000Y-53000000D03*
G04 #@! TD*
D13*
G04 #@! TO.C,R3*
X68655000Y-15240001D03*
X68655000Y-14220001D03*
G04 #@! TD*
D11*
G04 #@! TO.C,R4*
X68655000Y-35240000D03*
X68655000Y-36260000D03*
G04 #@! TD*
G04 #@! TO.C,R5*
X20665000Y-46295000D03*
X20665000Y-47315000D03*
G04 #@! TD*
D20*
G04 #@! TO.C,J9*
X56675001Y-25805000D03*
D24*
X55125001Y-25805000D03*
G04 #@! TD*
D12*
G04 #@! TO.C,LED1*
X51388000Y-23050000D03*
X51388000Y-22250000D03*
X51388000Y-21450000D03*
X49692000Y-21450000D03*
X49692000Y-22250000D03*
X49692000Y-23050000D03*
G04 #@! TD*
D20*
G04 #@! TO.C,J4*
X14415000Y-41540000D03*
D21*
X15965000Y-41540000D03*
G04 #@! TD*
D15*
G04 #@! TO.C,U1*
X62495000Y-66855000D03*
X62095000Y-66855000D03*
X61695000Y-66855000D03*
X61295000Y-66855000D03*
X60895000Y-66855000D03*
X60495000Y-66855000D03*
X60095000Y-66855000D03*
X59695000Y-66855000D03*
X59295000Y-66855000D03*
X58895000Y-66855000D03*
X58495000Y-66855000D03*
X58095000Y-66855000D03*
X57695000Y-66855000D03*
X57295000Y-66855000D03*
D16*
X56345000Y-67805000D03*
X56345000Y-68205000D03*
X56345000Y-68605000D03*
X56345000Y-69005000D03*
X56345000Y-69405000D03*
X56345000Y-69805000D03*
X56345000Y-70205000D03*
X56345000Y-70605000D03*
X56345000Y-71005000D03*
X56345000Y-71405000D03*
X56345000Y-71805000D03*
X56345000Y-72205000D03*
X56345000Y-72605000D03*
X56345000Y-73005000D03*
D15*
X57295000Y-73955000D03*
X57695000Y-73955000D03*
X58095000Y-73955000D03*
X58495000Y-73955000D03*
X58895000Y-73955000D03*
X59295000Y-73955000D03*
X59695000Y-73955000D03*
X60095000Y-73955000D03*
X60495000Y-73955000D03*
X60895000Y-73955000D03*
X61295000Y-73955000D03*
X61695000Y-73955000D03*
X62095000Y-73955000D03*
X62495000Y-73955000D03*
D16*
X63445000Y-73005000D03*
X63445000Y-72605000D03*
X63445000Y-72205000D03*
X63445000Y-71805000D03*
X63445000Y-71405000D03*
X63445000Y-71005000D03*
X63445000Y-70605000D03*
X63445000Y-70205000D03*
X63445000Y-69805000D03*
X63445000Y-69405000D03*
X63445000Y-69005000D03*
X63445000Y-68605000D03*
X63445000Y-68205000D03*
X63445000Y-67805000D03*
D17*
X59895000Y-70405000D03*
G04 #@! TD*
D27*
G04 #@! TO.C,X1*
X51630000Y-14320000D03*
X51630000Y-12120000D03*
X49880000Y-12120000D03*
X49880000Y-14320000D03*
G04 #@! TD*
D20*
G04 #@! TO.C,J11*
X32065000Y-60540000D03*
D21*
X33615000Y-60540000D03*
G04 #@! TD*
D20*
G04 #@! TO.C,J11*
X8065000Y-22540000D03*
D21*
X9615000Y-22540000D03*
G04 #@! TD*
D23*
G04 #@! TO.C,C13*
X29115000Y-15775000D03*
X29115000Y-16735000D03*
G04 #@! TD*
G04 #@! TO.C,C7*
X34570000Y-76510000D03*
X34570000Y-77470000D03*
G04 #@! TD*
D10*
G04 #@! TO.C,C10*
X66650000Y-72000000D03*
X67610000Y-72000000D03*
G04 #@! TD*
D13*
G04 #@! TO.C,R3*
X20655000Y-34240001D03*
X20655000Y-33220001D03*
G04 #@! TD*
D20*
G04 #@! TO.C,J9*
X32675001Y-25805000D03*
D24*
X31125001Y-25805000D03*
G04 #@! TD*
D10*
G04 #@! TO.C,C1*
X26285000Y-72755000D03*
X27245000Y-72755000D03*
G04 #@! TD*
D26*
G04 #@! TO.C,SW1*
X68095000Y-25870000D03*
X64895000Y-25870000D03*
G04 #@! TD*
D11*
G04 #@! TO.C,R4*
X20655000Y-35240000D03*
X20655000Y-36260000D03*
G04 #@! TD*
D13*
G04 #@! TO.C,R7*
X28835000Y-78700000D03*
X28835000Y-77680000D03*
G04 #@! TD*
D31*
G04 #@! TO.C,J12*
X10500000Y-75070000D03*
X10900000Y-75070000D03*
X11300000Y-75070000D03*
X11700000Y-75070000D03*
X12100000Y-75070000D03*
X12500000Y-75070000D03*
G04 #@! TD*
D20*
G04 #@! TO.C,J9*
X8675001Y-6805000D03*
D24*
X7125001Y-6805000D03*
G04 #@! TD*
D20*
G04 #@! TO.C,J4*
X62415000Y-79540000D03*
D21*
X63965000Y-79540000D03*
G04 #@! TD*
D13*
G04 #@! TO.C,R2*
X7905000Y-37880000D03*
X7905000Y-36860000D03*
G04 #@! TD*
D10*
G04 #@! TO.C,C10*
X42650000Y-15000000D03*
X43610000Y-15000000D03*
G04 #@! TD*
D23*
G04 #@! TO.C,C14*
X68665000Y-69275000D03*
X68665000Y-70235000D03*
G04 #@! TD*
D20*
G04 #@! TO.C,J11*
X8065000Y-60540000D03*
D21*
X9615000Y-60540000D03*
G04 #@! TD*
D12*
G04 #@! TO.C,LED1*
X3388000Y-42050000D03*
X3388000Y-41250000D03*
X3388000Y-40450000D03*
X1692000Y-40450000D03*
X1692000Y-41250000D03*
X1692000Y-42050000D03*
G04 #@! TD*
D20*
G04 #@! TO.C,J6*
X5530000Y-6805000D03*
D24*
X3980000Y-6805000D03*
G04 #@! TD*
D11*
G04 #@! TO.C,R5*
X44665000Y-65295000D03*
X44665000Y-66315000D03*
G04 #@! TD*
D20*
G04 #@! TO.C,J9*
X32675001Y-63805000D03*
D24*
X31125001Y-63805000D03*
G04 #@! TD*
D10*
G04 #@! TO.C,C16*
X41535000Y-19845000D03*
X42495000Y-19845000D03*
G04 #@! TD*
D27*
G04 #@! TO.C,X1*
X51630000Y-52320000D03*
X51630000Y-50120000D03*
X49880000Y-50120000D03*
X49880000Y-52320000D03*
G04 #@! TD*
D28*
G04 #@! TO.C,J2*
X49615000Y-26800000D03*
D29*
X49615000Y-28350000D03*
G04 #@! TD*
D20*
G04 #@! TO.C,J1*
X13860000Y-6810000D03*
D21*
X15410000Y-6810000D03*
G04 #@! TD*
D23*
G04 #@! TO.C,C4*
X54170000Y-53780000D03*
X54170000Y-54740000D03*
G04 #@! TD*
D20*
G04 #@! TO.C,J11*
X32065000Y-41540000D03*
D21*
X33615000Y-41540000D03*
G04 #@! TD*
D27*
G04 #@! TO.C,X1*
X3630000Y-14320000D03*
X3630000Y-12120000D03*
X1880000Y-12120000D03*
X1880000Y-14320000D03*
G04 #@! TD*
G04 #@! TO.C,X1*
X3630000Y-71320000D03*
X3630000Y-69120000D03*
X1880000Y-69120000D03*
X1880000Y-71320000D03*
G04 #@! TD*
D31*
G04 #@! TO.C,J12*
X10500000Y-18070000D03*
X10900000Y-18070000D03*
X11300000Y-18070000D03*
X11700000Y-18070000D03*
X12100000Y-18070000D03*
X12500000Y-18070000D03*
G04 #@! TD*
D20*
G04 #@! TO.C,J4*
X62415000Y-22540000D03*
D21*
X63965000Y-22540000D03*
G04 #@! TD*
D13*
G04 #@! TO.C,R6*
X44665000Y-30300000D03*
X44665000Y-29280000D03*
G04 #@! TD*
D10*
G04 #@! TO.C,C12*
X60130000Y-65515000D03*
X61090000Y-65515000D03*
G04 #@! TD*
D20*
G04 #@! TO.C,J10*
X59840000Y-63805000D03*
D24*
X58290000Y-63805000D03*
G04 #@! TD*
D11*
G04 #@! TO.C,R9*
X60708000Y-19485000D03*
X60708000Y-20505000D03*
G04 #@! TD*
D10*
G04 #@! TO.C,C11*
X63310000Y-27510000D03*
X64270000Y-27510000D03*
G04 #@! TD*
D23*
G04 #@! TO.C,C8*
X40325000Y-76515000D03*
X40325000Y-77475000D03*
G04 #@! TD*
G04 #@! TO.C,C13*
X5115000Y-53775000D03*
X5115000Y-54735000D03*
G04 #@! TD*
D10*
G04 #@! TO.C,C18*
X41535000Y-21945000D03*
X42495000Y-21945000D03*
G04 #@! TD*
D23*
G04 #@! TO.C,C13*
X5115000Y-34775000D03*
X5115000Y-35735000D03*
G04 #@! TD*
D10*
G04 #@! TO.C,C17*
X65535000Y-77895000D03*
X66495000Y-77895000D03*
G04 #@! TD*
G04 #@! TO.C,C18*
X65535000Y-40945000D03*
X66495000Y-40945000D03*
G04 #@! TD*
D20*
G04 #@! TO.C,J9*
X8675001Y-44805000D03*
D24*
X7125001Y-44805000D03*
G04 #@! TD*
D23*
G04 #@! TO.C,C7*
X10570000Y-38510000D03*
X10570000Y-39470000D03*
G04 #@! TD*
D31*
G04 #@! TO.C,J12*
X34500000Y-75070000D03*
X34900000Y-75070000D03*
X35300000Y-75070000D03*
X35700000Y-75070000D03*
X36100000Y-75070000D03*
X36500000Y-75070000D03*
G04 #@! TD*
D10*
G04 #@! TO.C,C11*
X15310000Y-27510000D03*
X16270000Y-27510000D03*
G04 #@! TD*
D20*
G04 #@! TO.C,J1*
X37860000Y-6810000D03*
D21*
X39410000Y-6810000D03*
G04 #@! TD*
D10*
G04 #@! TO.C,C12*
X12130000Y-46515000D03*
X13090000Y-46515000D03*
G04 #@! TD*
G04 #@! TO.C,C17*
X65535000Y-39895000D03*
X66495000Y-39895000D03*
G04 #@! TD*
G04 #@! TO.C,C1*
X26285000Y-15755000D03*
X27245000Y-15755000D03*
G04 #@! TD*
D13*
G04 #@! TO.C,R2*
X55905000Y-75880000D03*
X55905000Y-74860000D03*
G04 #@! TD*
D10*
G04 #@! TO.C,C10*
X66650000Y-53000000D03*
X67610000Y-53000000D03*
G04 #@! TD*
D23*
G04 #@! TO.C,C4*
X30170000Y-72780000D03*
X30170000Y-73740000D03*
G04 #@! TD*
G04 #@! TO.C,C9*
X63700000Y-74535000D03*
X63700000Y-75495000D03*
G04 #@! TD*
D11*
G04 #@! TO.C,R10*
X37769000Y-57485000D03*
X37769000Y-58505000D03*
G04 #@! TD*
D20*
G04 #@! TO.C,J6*
X5530000Y-63805000D03*
D24*
X3980000Y-63805000D03*
G04 #@! TD*
D30*
G04 #@! TO.C,R12*
X25040000Y-63395000D03*
X26060000Y-63395000D03*
G04 #@! TD*
D18*
G04 #@! TO.C,U2*
X67365000Y-28385500D03*
X66865000Y-28385500D03*
X66365000Y-28385500D03*
X65865000Y-28385500D03*
X65865000Y-31399500D03*
X66365000Y-31399500D03*
X66865000Y-31399500D03*
X67365000Y-31399500D03*
D19*
X66615000Y-29892500D03*
G04 #@! TD*
D10*
G04 #@! TO.C,C3*
X26270000Y-48675000D03*
X27230000Y-48675000D03*
G04 #@! TD*
D11*
G04 #@! TO.C,R11*
X62830000Y-19485000D03*
X62830000Y-20505000D03*
G04 #@! TD*
D20*
G04 #@! TO.C,J7*
X53035000Y-18995000D03*
D21*
X54585000Y-18995000D03*
G04 #@! TD*
D23*
G04 #@! TO.C,C7*
X34570000Y-38510000D03*
X34570000Y-39470000D03*
G04 #@! TD*
D28*
G04 #@! TO.C,J2*
X25615000Y-45800000D03*
D29*
X25615000Y-47350000D03*
G04 #@! TD*
D11*
G04 #@! TO.C,R10*
X13769000Y-57485000D03*
X13769000Y-58505000D03*
G04 #@! TD*
D14*
G04 #@! TO.C,C6*
X16745000Y-56495000D03*
X16745000Y-55535000D03*
G04 #@! TD*
D11*
G04 #@! TO.C,R9*
X60708000Y-57485000D03*
X60708000Y-58505000D03*
G04 #@! TD*
G04 #@! TO.C,R8*
X59647000Y-57485000D03*
X59647000Y-58505000D03*
G04 #@! TD*
D22*
G04 #@! TO.C,J8*
X22189248Y-63483121D03*
X22189248Y-64753121D03*
X22189248Y-66023121D03*
X22189248Y-67293121D03*
X22189248Y-68563121D03*
X22189248Y-69833121D03*
G04 #@! TD*
D32*
G04 #@! TO.C,U4*
X22509000Y-20454000D03*
X22509000Y-19504000D03*
X22509000Y-18552000D03*
X19921000Y-18552000D03*
X19921000Y-20452000D03*
G04 #@! TD*
D11*
G04 #@! TO.C,R8*
X11647000Y-38485000D03*
X11647000Y-39505000D03*
G04 #@! TD*
D13*
G04 #@! TO.C,R3*
X44655000Y-15240001D03*
X44655000Y-14220001D03*
G04 #@! TD*
D34*
G04 #@! TO.C,REF\u002A\u002A*
X15000000Y-3350000D03*
G04 #@! TD*
D10*
G04 #@! TO.C,C16*
X65535000Y-38845000D03*
X66495000Y-38845000D03*
G04 #@! TD*
D20*
G04 #@! TO.C,J3*
X35255000Y-41540000D03*
D21*
X36805000Y-41540000D03*
G04 #@! TD*
D10*
G04 #@! TO.C,C11*
X63310000Y-65510000D03*
X64270000Y-65510000D03*
G04 #@! TD*
D20*
G04 #@! TO.C,J11*
X56065000Y-41540000D03*
D21*
X57615000Y-41540000D03*
G04 #@! TD*
D23*
G04 #@! TO.C,C7*
X10570000Y-19510000D03*
X10570000Y-20470000D03*
G04 #@! TD*
M02*
