G04 #@! TF.GenerationSoftware,KiCad,Pcbnew,7.0.2-6a45011f42~172~ubuntu22.04.1*
G04 #@! TF.CreationDate,2023-05-22T20:20:29+08:00*
G04 #@! TF.ProjectId,panel_4_3,70616e65-6c5f-4345-9f33-2e6b69636164,rev?*
G04 #@! TF.SameCoordinates,Original*
G04 #@! TF.FileFunction,Profile,NP*
%FSLAX46Y46*%
G04 Gerber Fmt 4.6, Leading zero omitted, Abs format (unit mm)*
G04 Created by KiCad (PCBNEW 7.0.2-6a45011f42~172~ubuntu22.04.1) date 2023-05-22 20:20:29*
%MOMM*%
%LPD*%
G01*
G04 APERTURE LIST*
G04 #@! TA.AperFunction,Profile*
%ADD10C,0.100000*%
G04 #@! TD*
G04 APERTURE END LIST*
D10*
X72000000Y-43200000D02*
X72000000Y-24200000D01*
X528603Y-118078D02*
X444429Y-168530D01*
X4815Y-85498017D02*
X19214Y-85595090D01*
X71707106Y-86107106D02*
X71773010Y-86034393D01*
X0Y-81200000D02*
X0Y-81400000D01*
X43059Y-85690284D02*
X76120Y-85782683D01*
X72000000Y-24200000D02*
X72000000Y-5200000D01*
X72000000Y-81200000D02*
X72000000Y-62200000D01*
X1000000Y-86400000D02*
X71000000Y-86400000D01*
X71290284Y-43059D02*
X71195090Y-19214D01*
X71000000Y-86400000D02*
X71098017Y-86395184D01*
X709715Y-86356940D02*
X804909Y-86380785D01*
X71980785Y-804909D02*
X71956940Y-709715D01*
X617316Y-76120D02*
X528603Y-118078D01*
X71471396Y-118078D02*
X71382683Y-76120D01*
X71923879Y-85782683D02*
X71956940Y-85690284D01*
X901982Y-4815D02*
X804909Y-19214D01*
X76120Y-85782683D02*
X118078Y-85871396D01*
X709715Y-43059D02*
X617316Y-76120D01*
X71195090Y-19214D02*
X71098017Y-4815D01*
X71773010Y-365606D02*
X71707106Y-292893D01*
X71831469Y-444429D02*
X71773010Y-365606D01*
X0Y-1000000D02*
X0Y-5000000D01*
X0Y-5200000D02*
X0Y-24200000D01*
X71634393Y-86173010D02*
X71707106Y-86107106D01*
X71995184Y-901982D02*
X71980785Y-804909D01*
X226989Y-86034393D02*
X292893Y-86107106D01*
X71290284Y-86356940D02*
X71382683Y-86323879D01*
X444429Y-86231469D02*
X528603Y-86281921D01*
X901982Y-86395184D02*
X1000000Y-86400000D01*
X1000000Y0D02*
X901982Y-4815D01*
X528603Y-86281921D02*
X617316Y-86323879D01*
X71707106Y-292893D02*
X71634393Y-226989D01*
X804909Y-86380785D02*
X901982Y-86395184D01*
X72000000Y-81400000D02*
X72000000Y-81200000D01*
X0Y-43200000D02*
X0Y-62200000D01*
X0Y-24200000D02*
X0Y-43200000D01*
X19214Y-85595090D02*
X43059Y-85690284D01*
X617316Y-86323879D02*
X709715Y-86356940D01*
X118078Y-528603D02*
X76120Y-617316D01*
X0Y-81400000D02*
X0Y-85400000D01*
X4815Y-901982D02*
X0Y-1000000D01*
X71881921Y-85871396D02*
X71923879Y-85782683D01*
X71956940Y-709715D02*
X71923879Y-617316D01*
X168530Y-444429D02*
X118078Y-528603D01*
X71956940Y-85690284D02*
X71980785Y-85595090D01*
X71555570Y-168530D02*
X71471396Y-118078D01*
X71980785Y-85595090D02*
X71995184Y-85498017D01*
X72000000Y-5200000D02*
X72000000Y-5000000D01*
X709715Y-43059D02*
X709715Y-43059D01*
X365606Y-86173010D02*
X444429Y-86231469D01*
X72000000Y-1000000D02*
X71995184Y-901982D01*
X43059Y-709715D02*
X19214Y-804909D01*
X0Y-85400000D02*
X4815Y-85498017D01*
X71098017Y-86395184D02*
X71195090Y-86380785D01*
X76120Y-617316D02*
X43059Y-709715D01*
X168530Y-85955570D02*
X226989Y-86034393D01*
X71382683Y-76120D02*
X71290284Y-43059D01*
X19214Y-804909D02*
X4815Y-901982D01*
X118078Y-85871396D02*
X168530Y-85955570D01*
X72000000Y-85400000D02*
X72000000Y-81400000D01*
X71634393Y-226989D02*
X71555570Y-168530D01*
X71555570Y-86231469D02*
X71634393Y-86173010D01*
X226989Y-365606D02*
X168530Y-444429D01*
X72000000Y-62200000D02*
X72000000Y-43200000D01*
X292893Y-292893D02*
X226989Y-365606D01*
X71881921Y-528603D02*
X71831469Y-444429D01*
X72000000Y-5000000D02*
X72000000Y-1000000D01*
X0Y-62200000D02*
X0Y-81200000D01*
X71195090Y-86380785D02*
X71290284Y-86356940D01*
X71773010Y-86034393D02*
X71831469Y-85955570D01*
X444429Y-168530D02*
X365606Y-226989D01*
X0Y-5000000D02*
X0Y-5200000D01*
X365606Y-226989D02*
X292893Y-292893D01*
X71098017Y-4815D02*
X71000000Y0D01*
X71382683Y-86323879D02*
X71471396Y-86281921D01*
X71000000Y0D02*
X1000000Y0D01*
X71831469Y-85955570D02*
X71881921Y-85871396D01*
X71995184Y-85498017D02*
X72000000Y-85400000D01*
X804909Y-19214D02*
X709715Y-43059D01*
X292893Y-86107106D02*
X365606Y-86173010D01*
X71471396Y-86281921D02*
X71555570Y-86231469D01*
X71923879Y-617316D02*
X71881921Y-528603D01*
M02*
