G04 #@! TF.GenerationSoftware,KiCad,Pcbnew,7.0.2-6a45011f42~172~ubuntu22.04.1*
G04 #@! TF.CreationDate,2023-05-25T04:58:00+08:00*
G04 #@! TF.ProjectId,panel_2_1,70616e65-6c5f-4325-9f31-2e6b69636164,rev?*
G04 #@! TF.SameCoordinates,Original*
G04 #@! TF.FileFunction,Profile,NP*
%FSLAX46Y46*%
G04 Gerber Fmt 4.6, Leading zero omitted, Abs format (unit mm)*
G04 Created by KiCad (PCBNEW 7.0.2-6a45011f42~172~ubuntu22.04.1) date 2023-05-25 04:58:00*
%MOMM*%
%LPD*%
G01*
G04 APERTURE LIST*
G04 #@! TA.AperFunction,Profile*
%ADD10C,0.100000*%
G04 #@! TD*
G04 APERTURE END LIST*
D10*
X19214Y-804909D02*
X4815Y-901982D01*
X69831469Y-444429D02*
X69773010Y-365606D01*
X69195090Y-19214D02*
X69098017Y-4815D01*
X69195090Y-69980785D02*
X69290284Y-69956940D01*
X69098017Y-69995184D02*
X69195090Y-69980785D01*
X69995184Y-69098017D02*
X70000000Y-69000000D01*
X0Y-69000000D02*
X4815Y-69098017D01*
X617316Y-69923879D02*
X709715Y-69956940D01*
X69098017Y-4815D02*
X69000000Y0D01*
X69881921Y-528603D02*
X69831469Y-444429D01*
X69923879Y-69382683D02*
X69956940Y-69290284D01*
X1000000Y-70000000D02*
X69000000Y-70000000D01*
X69000000Y-70000000D02*
X69098017Y-69995184D01*
X69923879Y-617316D02*
X69881921Y-528603D01*
X709715Y-43059D02*
X617316Y-76120D01*
X43059Y-69290284D02*
X76120Y-69382683D01*
X365606Y-226989D02*
X292893Y-292893D01*
X444429Y-168530D02*
X365606Y-226989D01*
X69471396Y-118078D02*
X69382683Y-76120D01*
X70000000Y-69000000D02*
X70000000Y-1000000D01*
X69881921Y-69471396D02*
X69923879Y-69382683D01*
X69290284Y-43059D02*
X69195090Y-19214D01*
X528603Y-118078D02*
X444429Y-168530D01*
X901982Y-69995184D02*
X1000000Y-70000000D01*
X69382683Y-69923879D02*
X69471396Y-69881921D01*
X69555570Y-69831469D02*
X69634393Y-69773010D01*
X709715Y-69956940D02*
X804909Y-69980785D01*
X226989Y-365606D02*
X168530Y-444429D01*
X69831469Y-69555570D02*
X69881921Y-69471396D01*
X69956940Y-709715D02*
X69923879Y-617316D01*
X4815Y-901982D02*
X0Y-1000000D01*
X292893Y-292893D02*
X226989Y-365606D01*
X292893Y-69707106D02*
X365606Y-69773010D01*
X69555570Y-168530D02*
X69471396Y-118078D01*
X0Y-1000000D02*
X0Y-69000000D01*
X69773010Y-69634393D02*
X69831469Y-69555570D01*
X118078Y-69471396D02*
X168530Y-69555570D01*
X69634393Y-226989D02*
X69555570Y-168530D01*
X168530Y-444429D02*
X118078Y-528603D01*
X226989Y-69634393D02*
X292893Y-69707106D01*
X19214Y-69195090D02*
X43059Y-69290284D01*
X4815Y-69098017D02*
X19214Y-69195090D01*
X70000000Y-1000000D02*
X69995184Y-901982D01*
X69956940Y-69290284D02*
X69980785Y-69195090D01*
X69995184Y-901982D02*
X69980785Y-804909D01*
X118078Y-528603D02*
X76120Y-617316D01*
X43059Y-709715D02*
X19214Y-804909D01*
X804909Y-19214D02*
X709715Y-43059D01*
X69471396Y-69881921D02*
X69555570Y-69831469D01*
X69290284Y-69956940D02*
X69382683Y-69923879D01*
X69000000Y0D02*
X1000000Y0D01*
X69707106Y-69707106D02*
X69773010Y-69634393D01*
X69980785Y-804909D02*
X69956940Y-709715D01*
X69707106Y-292893D02*
X69634393Y-226989D01*
X69980785Y-69195090D02*
X69995184Y-69098017D01*
X76120Y-617316D02*
X43059Y-709715D01*
X69634393Y-69773010D02*
X69707106Y-69707106D01*
X76120Y-69382683D02*
X118078Y-69471396D01*
X528603Y-69881921D02*
X617316Y-69923879D01*
X617316Y-76120D02*
X528603Y-118078D01*
X804909Y-69980785D02*
X901982Y-69995184D01*
X69980785Y-804909D02*
X69980785Y-804909D01*
X69382683Y-76120D02*
X69290284Y-43059D01*
X168530Y-69555570D02*
X226989Y-69634393D01*
X901982Y-4815D02*
X804909Y-19214D01*
X1000000Y0D02*
X901982Y-4815D01*
X365606Y-69773010D02*
X444429Y-69831469D01*
X444429Y-69831469D02*
X528603Y-69881921D01*
X69773010Y-365606D02*
X69707106Y-292893D01*
M02*
