M48
; DRILL file {KiCad 7.0.2-6a45011f42~172~ubuntu22.04.1} date Thu May 25 04:58:00 2023
; FORMAT={-:-/ absolute / metric / decimal}
; #@! TF.CreationDate,2023-05-25T04:58:00+08:00
; #@! TF.GenerationSoftware,Kicad,Pcbnew,7.0.2-6a45011f42~172~ubuntu22.04.1
; #@! TF.FileFunction,MixedPlating,1,4
FMAT,2
METRIC
; #@! TA.AperFunction,Plated,PTH,ViaDrill
T1C0.200
; #@! TA.AperFunction,Plated,PTH,ComponentDrill
T2C0.500
; #@! TA.AperFunction,Plated,PTH,ComponentDrill
T3C0.650
%
G90
G05
T1
X26.675Y-28.78
X26.675Y-44.34
X28.285Y-31.31
X28.285Y-46.87
X29.785Y-27.71
X29.785Y-43.27
X30.975Y-30.07
X30.975Y-45.63
X31.095Y-28.68
X31.095Y-44.24
X31.215Y-21.86
X31.215Y-37.42
X32.335Y-25.38
X32.335Y-40.94
X32.345Y-26.435
X32.345Y-41.995
X32.555Y-23.65
X32.555Y-39.21
X33.225Y-31.03
X33.225Y-46.59
X33.495Y-22.97
X33.495Y-38.53
X34.45Y-20.74
X34.45Y-36.3
X36.245Y-27.64
X36.245Y-43.2
X37.135Y-27.155
X37.135Y-42.715
X38.115Y-21.5
X38.115Y-37.06
X38.25Y-28.74
X38.25Y-44.3
X40.105Y-26.41
X40.105Y-41.97
X41.435Y-22.2
X41.435Y-37.76
X42.305Y-23.52
X42.305Y-39.08
X42.365Y-20.31
X42.365Y-35.87
T2
X26.925Y-20.76
X26.925Y-36.32
X29.202Y-33.59
X29.202Y-49.15
X30.835Y-33.59
X30.835Y-49.15
X32.457Y-33.59
X32.457Y-49.15
X34.085Y-33.59
X34.085Y-49.15
X35.712Y-33.59
X35.712Y-49.15
X37.34Y-33.59
X37.34Y-49.15
X38.968Y-33.59
X38.968Y-49.15
X40.595Y-33.59
X40.595Y-49.15
T3
X43.159Y-26.658
X43.159Y-27.928
X43.159Y-29.198
X43.159Y-30.468
X43.159Y-31.738
X43.159Y-33.008
X43.159Y-42.218
X43.159Y-43.488
X43.159Y-44.758
X43.159Y-46.028
X43.159Y-47.298
X43.159Y-48.568
T0
M30
