G04 #@! TF.GenerationSoftware,KiCad,Pcbnew,7.0.2-6a45011f42~172~ubuntu22.04.1*
G04 #@! TF.CreationDate,2023-05-25T04:58:00+08:00*
G04 #@! TF.ProjectId,panel_2_1,70616e65-6c5f-4325-9f31-2e6b69636164,rev?*
G04 #@! TF.SameCoordinates,Original*
G04 #@! TF.FileFunction,Other,Comment*
%FSLAX46Y46*%
G04 Gerber Fmt 4.6, Leading zero omitted, Abs format (unit mm)*
G04 Created by KiCad (PCBNEW 7.0.2-6a45011f42~172~ubuntu22.04.1) date 2023-05-25 04:58:00*
%MOMM*%
%LPD*%
G01*
G04 APERTURE LIST*
%ADD10C,0.400000*%
G04 APERTURE END LIST*
D10*
X-3000000Y-19440000D02*
X73000000Y-19440000D01*
X25520000Y3000000D02*
X25520000Y-73000000D01*
X-3000000Y-35000000D02*
X73000000Y-35000000D01*
X-3000000Y-50560000D02*
X73000000Y-50560000D01*
X44480000Y3000000D02*
X44480000Y-73000000D01*
X76190476Y-33925238D02*
X76857142Y-35925238D01*
X76857142Y-35925238D02*
X77523809Y-33925238D01*
X78190476Y-35163333D02*
X79714286Y-35163333D01*
X81809523Y-35734761D02*
X81714285Y-35830000D01*
X81714285Y-35830000D02*
X81428571Y-35925238D01*
X81428571Y-35925238D02*
X81238095Y-35925238D01*
X81238095Y-35925238D02*
X80952380Y-35830000D01*
X80952380Y-35830000D02*
X80761904Y-35639523D01*
X80761904Y-35639523D02*
X80666666Y-35449047D01*
X80666666Y-35449047D02*
X80571428Y-35068095D01*
X80571428Y-35068095D02*
X80571428Y-34782380D01*
X80571428Y-34782380D02*
X80666666Y-34401428D01*
X80666666Y-34401428D02*
X80761904Y-34210952D01*
X80761904Y-34210952D02*
X80952380Y-34020476D01*
X80952380Y-34020476D02*
X81238095Y-33925238D01*
X81238095Y-33925238D02*
X81428571Y-33925238D01*
X81428571Y-33925238D02*
X81714285Y-34020476D01*
X81714285Y-34020476D02*
X81809523Y-34115714D01*
X82666666Y-33925238D02*
X82666666Y-35544285D01*
X82666666Y-35544285D02*
X82761904Y-35734761D01*
X82761904Y-35734761D02*
X82857142Y-35830000D01*
X82857142Y-35830000D02*
X83047618Y-35925238D01*
X83047618Y-35925238D02*
X83428571Y-35925238D01*
X83428571Y-35925238D02*
X83619047Y-35830000D01*
X83619047Y-35830000D02*
X83714285Y-35734761D01*
X83714285Y-35734761D02*
X83809523Y-35544285D01*
X83809523Y-35544285D02*
X83809523Y-33925238D01*
X84476190Y-33925238D02*
X85619047Y-33925238D01*
X85047618Y-35925238D02*
X85047618Y-33925238D01*
X76190476Y-18365238D02*
X76857142Y-20365238D01*
X76857142Y-20365238D02*
X77523809Y-18365238D01*
X78190476Y-19603333D02*
X79714286Y-19603333D01*
X81809523Y-20174761D02*
X81714285Y-20270000D01*
X81714285Y-20270000D02*
X81428571Y-20365238D01*
X81428571Y-20365238D02*
X81238095Y-20365238D01*
X81238095Y-20365238D02*
X80952380Y-20270000D01*
X80952380Y-20270000D02*
X80761904Y-20079523D01*
X80761904Y-20079523D02*
X80666666Y-19889047D01*
X80666666Y-19889047D02*
X80571428Y-19508095D01*
X80571428Y-19508095D02*
X80571428Y-19222380D01*
X80571428Y-19222380D02*
X80666666Y-18841428D01*
X80666666Y-18841428D02*
X80761904Y-18650952D01*
X80761904Y-18650952D02*
X80952380Y-18460476D01*
X80952380Y-18460476D02*
X81238095Y-18365238D01*
X81238095Y-18365238D02*
X81428571Y-18365238D01*
X81428571Y-18365238D02*
X81714285Y-18460476D01*
X81714285Y-18460476D02*
X81809523Y-18555714D01*
X82666666Y-18365238D02*
X82666666Y-19984285D01*
X82666666Y-19984285D02*
X82761904Y-20174761D01*
X82761904Y-20174761D02*
X82857142Y-20270000D01*
X82857142Y-20270000D02*
X83047618Y-20365238D01*
X83047618Y-20365238D02*
X83428571Y-20365238D01*
X83428571Y-20365238D02*
X83619047Y-20270000D01*
X83619047Y-20270000D02*
X83714285Y-20174761D01*
X83714285Y-20174761D02*
X83809523Y-19984285D01*
X83809523Y-19984285D02*
X83809523Y-18365238D01*
X84476190Y-18365238D02*
X85619047Y-18365238D01*
X85047618Y-20365238D02*
X85047618Y-18365238D01*
X76190476Y-49485238D02*
X76857142Y-51485238D01*
X76857142Y-51485238D02*
X77523809Y-49485238D01*
X78190476Y-50723333D02*
X79714286Y-50723333D01*
X81809523Y-51294761D02*
X81714285Y-51390000D01*
X81714285Y-51390000D02*
X81428571Y-51485238D01*
X81428571Y-51485238D02*
X81238095Y-51485238D01*
X81238095Y-51485238D02*
X80952380Y-51390000D01*
X80952380Y-51390000D02*
X80761904Y-51199523D01*
X80761904Y-51199523D02*
X80666666Y-51009047D01*
X80666666Y-51009047D02*
X80571428Y-50628095D01*
X80571428Y-50628095D02*
X80571428Y-50342380D01*
X80571428Y-50342380D02*
X80666666Y-49961428D01*
X80666666Y-49961428D02*
X80761904Y-49770952D01*
X80761904Y-49770952D02*
X80952380Y-49580476D01*
X80952380Y-49580476D02*
X81238095Y-49485238D01*
X81238095Y-49485238D02*
X81428571Y-49485238D01*
X81428571Y-49485238D02*
X81714285Y-49580476D01*
X81714285Y-49580476D02*
X81809523Y-49675714D01*
X82666666Y-49485238D02*
X82666666Y-51104285D01*
X82666666Y-51104285D02*
X82761904Y-51294761D01*
X82761904Y-51294761D02*
X82857142Y-51390000D01*
X82857142Y-51390000D02*
X83047618Y-51485238D01*
X83047618Y-51485238D02*
X83428571Y-51485238D01*
X83428571Y-51485238D02*
X83619047Y-51390000D01*
X83619047Y-51390000D02*
X83714285Y-51294761D01*
X83714285Y-51294761D02*
X83809523Y-51104285D01*
X83809523Y-51104285D02*
X83809523Y-49485238D01*
X84476190Y-49485238D02*
X85619047Y-49485238D01*
X85047618Y-51485238D02*
X85047618Y-49485238D01*
X24445238Y6190477D02*
X26445238Y6857143D01*
X26445238Y6857143D02*
X24445238Y7523810D01*
X25683333Y8190477D02*
X25683333Y9714286D01*
X26254761Y11809524D02*
X26350000Y11714286D01*
X26350000Y11714286D02*
X26445238Y11428572D01*
X26445238Y11428572D02*
X26445238Y11238096D01*
X26445238Y11238096D02*
X26350000Y10952381D01*
X26350000Y10952381D02*
X26159523Y10761905D01*
X26159523Y10761905D02*
X25969047Y10666667D01*
X25969047Y10666667D02*
X25588095Y10571429D01*
X25588095Y10571429D02*
X25302380Y10571429D01*
X25302380Y10571429D02*
X24921428Y10666667D01*
X24921428Y10666667D02*
X24730952Y10761905D01*
X24730952Y10761905D02*
X24540476Y10952381D01*
X24540476Y10952381D02*
X24445238Y11238096D01*
X24445238Y11238096D02*
X24445238Y11428572D01*
X24445238Y11428572D02*
X24540476Y11714286D01*
X24540476Y11714286D02*
X24635714Y11809524D01*
X24445238Y12666667D02*
X26064285Y12666667D01*
X26064285Y12666667D02*
X26254761Y12761905D01*
X26254761Y12761905D02*
X26350000Y12857143D01*
X26350000Y12857143D02*
X26445238Y13047619D01*
X26445238Y13047619D02*
X26445238Y13428572D01*
X26445238Y13428572D02*
X26350000Y13619048D01*
X26350000Y13619048D02*
X26254761Y13714286D01*
X26254761Y13714286D02*
X26064285Y13809524D01*
X26064285Y13809524D02*
X24445238Y13809524D01*
X24445238Y14476191D02*
X24445238Y15619048D01*
X26445238Y15047619D02*
X24445238Y15047619D01*
X43405238Y6190477D02*
X45405238Y6857143D01*
X45405238Y6857143D02*
X43405238Y7523810D01*
X44643333Y8190477D02*
X44643333Y9714286D01*
X45214761Y11809524D02*
X45310000Y11714286D01*
X45310000Y11714286D02*
X45405238Y11428572D01*
X45405238Y11428572D02*
X45405238Y11238096D01*
X45405238Y11238096D02*
X45310000Y10952381D01*
X45310000Y10952381D02*
X45119523Y10761905D01*
X45119523Y10761905D02*
X44929047Y10666667D01*
X44929047Y10666667D02*
X44548095Y10571429D01*
X44548095Y10571429D02*
X44262380Y10571429D01*
X44262380Y10571429D02*
X43881428Y10666667D01*
X43881428Y10666667D02*
X43690952Y10761905D01*
X43690952Y10761905D02*
X43500476Y10952381D01*
X43500476Y10952381D02*
X43405238Y11238096D01*
X43405238Y11238096D02*
X43405238Y11428572D01*
X43405238Y11428572D02*
X43500476Y11714286D01*
X43500476Y11714286D02*
X43595714Y11809524D01*
X43405238Y12666667D02*
X45024285Y12666667D01*
X45024285Y12666667D02*
X45214761Y12761905D01*
X45214761Y12761905D02*
X45310000Y12857143D01*
X45310000Y12857143D02*
X45405238Y13047619D01*
X45405238Y13047619D02*
X45405238Y13428572D01*
X45405238Y13428572D02*
X45310000Y13619048D01*
X45310000Y13619048D02*
X45214761Y13714286D01*
X45214761Y13714286D02*
X45024285Y13809524D01*
X45024285Y13809524D02*
X43405238Y13809524D01*
X43405238Y14476191D02*
X43405238Y15619048D01*
X45405238Y15047619D02*
X43405238Y15047619D01*
M02*
