G04 #@! TF.GenerationSoftware,KiCad,Pcbnew,7.0.2-6a45011f42~172~ubuntu22.04.1*
G04 #@! TF.CreationDate,2023-05-25T04:58:00+08:00*
G04 #@! TF.ProjectId,panel_2_1,70616e65-6c5f-4325-9f31-2e6b69636164,rev?*
G04 #@! TF.SameCoordinates,Original*
G04 #@! TF.FileFunction,Copper,L4,Bot*
G04 #@! TF.FilePolarity,Positive*
%FSLAX46Y46*%
G04 Gerber Fmt 4.6, Leading zero omitted, Abs format (unit mm)*
G04 Created by KiCad (PCBNEW 7.0.2-6a45011f42~172~ubuntu22.04.1) date 2023-05-25 04:58:00*
%MOMM*%
%LPD*%
G01*
G04 APERTURE LIST*
G04 #@! TA.AperFunction,ComponentPad*
%ADD10R,1.200000X1.200000*%
G04 #@! TD*
G04 #@! TA.AperFunction,ComponentPad*
%ADD11O,1.000000X1.000000*%
G04 #@! TD*
G04 #@! TA.AperFunction,SMDPad,CuDef*
%ADD12C,2.000000*%
G04 #@! TD*
G04 #@! TA.AperFunction,ViaPad*
%ADD13C,0.450000*%
G04 #@! TD*
G04 #@! TA.AperFunction,Conductor*
%ADD14C,0.200000*%
G04 #@! TD*
G04 APERTURE END LIST*
D10*
G04 #@! TO.P,J1,1,Pin_1*
G04 #@! TO.N,Board_1-NS_CPU*
X26925000Y-36320000D03*
G04 #@! TD*
G04 #@! TO.P,J1,1,Pin_1*
G04 #@! TO.N,Board_0-NS_CPU*
X26925000Y-20760000D03*
G04 #@! TD*
G04 #@! TO.P,J10,1,Pin_1*
G04 #@! TO.N,Board_1-+3V3*
X40595000Y-49150000D03*
G04 #@! TD*
G04 #@! TO.P,J2,1,Pin_1*
G04 #@! TO.N,Board_0-NS_RST*
X34085000Y-33590000D03*
G04 #@! TD*
G04 #@! TO.P,J3,1,Pin_1*
G04 #@! TO.N,Board_1-NS_CLK*
X35712500Y-49150000D03*
G04 #@! TD*
G04 #@! TO.P,J6,1,Pin_1*
G04 #@! TO.N,Board_0-NS_SDA*
X30835000Y-33590000D03*
G04 #@! TD*
G04 #@! TO.P,J4,1,Pin_1*
G04 #@! TO.N,Board_0-NS_CMD*
X37340000Y-33590000D03*
G04 #@! TD*
G04 #@! TO.P,J5,1,Pin_1*
G04 #@! TO.N,Board_1-NS_D0*
X38967500Y-49150000D03*
G04 #@! TD*
D11*
G04 #@! TO.P,J8,1,Pin_1*
G04 #@! TO.N,Board_1-RST*
X43159248Y-42218121D03*
G04 #@! TO.P,J8,2,Pin_2*
G04 #@! TO.N,Board_1-BOOT*
X43159248Y-43488121D03*
G04 #@! TO.P,J8,3,Pin_3*
G04 #@! TO.N,Board_1-D+*
X43159248Y-44758121D03*
G04 #@! TO.P,J8,4,Pin_4*
G04 #@! TO.N,Board_1-D-*
X43159248Y-46028121D03*
G04 #@! TO.P,J8,5,Pin_5*
G04 #@! TO.N,Board_1-+3V3*
X43159248Y-47298121D03*
G04 #@! TO.P,J8,6,Pin_6*
G04 #@! TO.N,Board_1-GND*
X43159248Y-48568121D03*
G04 #@! TD*
D10*
G04 #@! TO.P,J3,1,Pin_1*
G04 #@! TO.N,Board_0-NS_CLK*
X35712500Y-33590000D03*
G04 #@! TD*
G04 #@! TO.P,J5,1,Pin_1*
G04 #@! TO.N,Board_0-NS_D0*
X38967500Y-33590000D03*
G04 #@! TD*
D11*
G04 #@! TO.P,J8,1,Pin_1*
G04 #@! TO.N,Board_0-RST*
X43159248Y-26658121D03*
G04 #@! TO.P,J8,2,Pin_2*
G04 #@! TO.N,Board_0-BOOT*
X43159248Y-27928121D03*
G04 #@! TO.P,J8,3,Pin_3*
G04 #@! TO.N,Board_0-D+*
X43159248Y-29198121D03*
G04 #@! TO.P,J8,4,Pin_4*
G04 #@! TO.N,Board_0-D-*
X43159248Y-30468121D03*
G04 #@! TO.P,J8,5,Pin_5*
G04 #@! TO.N,Board_0-+3V3*
X43159248Y-31738121D03*
G04 #@! TO.P,J8,6,Pin_6*
G04 #@! TO.N,Board_0-GND*
X43159248Y-33008121D03*
G04 #@! TD*
D10*
G04 #@! TO.P,J7,1,Pin_1*
G04 #@! TO.N,Board_1-NS_SCL*
X29202500Y-49150000D03*
G04 #@! TD*
G04 #@! TO.P,J9,1,Pin_1*
G04 #@! TO.N,Board_0-GND*
X32457500Y-33590000D03*
G04 #@! TD*
G04 #@! TO.P,J9,1,Pin_1*
G04 #@! TO.N,Board_1-GND*
X32457500Y-49150000D03*
G04 #@! TD*
G04 #@! TO.P,J6,1,Pin_1*
G04 #@! TO.N,Board_1-NS_SDA*
X30835000Y-49150000D03*
G04 #@! TD*
G04 #@! TO.P,J4,1,Pin_1*
G04 #@! TO.N,Board_1-NS_CMD*
X37340000Y-49150000D03*
G04 #@! TD*
G04 #@! TO.P,J7,1,Pin_1*
G04 #@! TO.N,Board_0-NS_SCL*
X29202500Y-33590000D03*
G04 #@! TD*
G04 #@! TO.P,J10,1,Pin_1*
G04 #@! TO.N,Board_0-+3V3*
X40595000Y-33590000D03*
G04 #@! TD*
G04 #@! TO.P,J2,1,Pin_1*
G04 #@! TO.N,Board_1-NS_RST*
X34085000Y-49150000D03*
G04 #@! TD*
D12*
G04 #@! TO.P,REF\u002A\u002A,*
G04 #@! TO.N,*
X55000000Y-3350000D03*
G04 #@! TD*
G04 #@! TO.P,REF\u002A\u002A,*
G04 #@! TO.N,*
X15000000Y-3350000D03*
G04 #@! TD*
G04 #@! TO.P,REF\u002A\u002A,*
G04 #@! TO.N,*
X15000000Y-66650000D03*
G04 #@! TD*
D13*
G04 #@! TO.N,Board_0-+1V1*
X37135000Y-27155000D03*
X29785000Y-27710000D03*
X32345000Y-26435000D03*
G04 #@! TO.N,Board_0-+3V3*
X40105000Y-26410000D03*
X42305000Y-23520000D03*
X38250000Y-28740000D03*
X33225000Y-31030000D03*
X26675000Y-28780000D03*
X30975000Y-30070000D03*
X32335000Y-25380000D03*
X38115000Y-21500000D03*
X34450000Y-20740000D03*
G04 #@! TO.N,Board_0-BOOT*
X42365000Y-20310000D03*
X28285000Y-31310000D03*
G04 #@! TO.N,Board_0-GND*
X41435000Y-22200000D03*
X31215000Y-21860000D03*
X36245000Y-27640000D03*
G04 #@! TO.N,Board_0-NS_SCL*
X32555000Y-23650000D03*
G04 #@! TO.N,Board_0-NS_SDA*
X33495000Y-22970000D03*
G04 #@! TO.N,Board_0-RST*
X31095000Y-28680000D03*
G04 #@! TO.N,Board_1-+1V1*
X32345000Y-41995000D03*
X29785000Y-43270000D03*
X37135000Y-42715000D03*
G04 #@! TO.N,Board_1-+3V3*
X33225000Y-46590000D03*
X30975000Y-45630000D03*
X38250000Y-44300000D03*
X38115000Y-37060000D03*
X40105000Y-41970000D03*
X42305000Y-39080000D03*
X26675000Y-44340000D03*
X32335000Y-40940000D03*
X34450000Y-36300000D03*
G04 #@! TO.N,Board_1-BOOT*
X42365000Y-35870000D03*
X28285000Y-46870000D03*
G04 #@! TO.N,Board_1-GND*
X36245000Y-43200000D03*
X31215000Y-37420000D03*
X41435000Y-37760000D03*
G04 #@! TO.N,Board_1-NS_SCL*
X32555000Y-39210000D03*
G04 #@! TO.N,Board_1-NS_SDA*
X33495000Y-38530000D03*
G04 #@! TO.N,Board_1-RST*
X31095000Y-44240000D03*
G04 #@! TD*
D14*
G04 #@! TO.N,Board_0-BOOT*
X43959248Y-27128121D02*
X43959248Y-21904248D01*
X28285000Y-31310000D02*
X28285000Y-30510000D01*
X43959248Y-21904248D02*
X42365000Y-20310000D01*
X43159248Y-27928121D02*
X43959248Y-27128121D01*
X28285000Y-30510000D02*
X31765000Y-27030000D01*
X31765000Y-27030000D02*
X31765000Y-22150000D01*
X33855000Y-20060000D02*
X42115000Y-20060000D01*
X31765000Y-22150000D02*
X33855000Y-20060000D01*
X42115000Y-20060000D02*
X42365000Y-20310000D01*
G04 #@! TO.N,Board_0-NS_SCL*
X32575000Y-23650000D02*
X32975000Y-24050000D01*
X32975000Y-24050000D02*
X32975000Y-29420000D01*
X29202500Y-33192500D02*
X29202500Y-33590000D01*
X32975000Y-29420000D02*
X29202500Y-33192500D01*
X32555000Y-23650000D02*
X32575000Y-23650000D01*
G04 #@! TO.N,Board_0-NS_SDA*
X33495000Y-29730000D02*
X30835000Y-32390000D01*
X30835000Y-32390000D02*
X30835000Y-33590000D01*
X33495000Y-22970000D02*
X33495000Y-29730000D01*
G04 #@! TO.N,Board_1-BOOT*
X43959248Y-42688121D02*
X43959248Y-37464248D01*
X43959248Y-37464248D02*
X42365000Y-35870000D01*
X31765000Y-42590000D02*
X31765000Y-37710000D01*
X42115000Y-35620000D02*
X42365000Y-35870000D01*
X33855000Y-35620000D02*
X42115000Y-35620000D01*
X31765000Y-37710000D02*
X33855000Y-35620000D01*
X28285000Y-46870000D02*
X28285000Y-46070000D01*
X43159248Y-43488121D02*
X43959248Y-42688121D01*
X28285000Y-46070000D02*
X31765000Y-42590000D01*
G04 #@! TO.N,Board_1-NS_SCL*
X32975000Y-39610000D02*
X32975000Y-44980000D01*
X29202500Y-48752500D02*
X29202500Y-49150000D01*
X32555000Y-39210000D02*
X32575000Y-39210000D01*
X32975000Y-44980000D02*
X29202500Y-48752500D01*
X32575000Y-39210000D02*
X32975000Y-39610000D01*
G04 #@! TO.N,Board_1-NS_SDA*
X30835000Y-47950000D02*
X30835000Y-49150000D01*
X33495000Y-45290000D02*
X30835000Y-47950000D01*
X33495000Y-38530000D02*
X33495000Y-45290000D01*
G04 #@! TD*
G04 #@! TA.AperFunction,Conductor*
G04 #@! TO.N,Board_0-GND*
G36*
X33468230Y-19962555D02*
G01*
X33514813Y-20016133D01*
X33525036Y-20086390D01*
X33495651Y-20151020D01*
X33489383Y-20157763D01*
X31668965Y-21978181D01*
X31647779Y-21993215D01*
X31627958Y-22018069D01*
X31618556Y-22028590D01*
X31615984Y-22031161D01*
X31614051Y-22034239D01*
X31605882Y-22045752D01*
X31586063Y-22070605D01*
X31582332Y-22079614D01*
X31578772Y-22111198D01*
X31576410Y-22125104D01*
X31575600Y-22128655D01*
X31575600Y-22132286D01*
X31574808Y-22146393D01*
X31571249Y-22177980D01*
X31575600Y-22203588D01*
X31575600Y-26899357D01*
X31555598Y-26967478D01*
X31538695Y-26988452D01*
X28188965Y-30338181D01*
X28167779Y-30353215D01*
X28147958Y-30378069D01*
X28138556Y-30388590D01*
X28135984Y-30391161D01*
X28134051Y-30394239D01*
X28125882Y-30405752D01*
X28106063Y-30430605D01*
X28102332Y-30439614D01*
X28098772Y-30471198D01*
X28096410Y-30485104D01*
X28095600Y-30488655D01*
X28095600Y-30492286D01*
X28094808Y-30506393D01*
X28091249Y-30537980D01*
X28095600Y-30563588D01*
X28095600Y-30951526D01*
X28075598Y-31019647D01*
X28058696Y-31040621D01*
X27997905Y-31101412D01*
X27947500Y-31200338D01*
X27930130Y-31309999D01*
X27947500Y-31419661D01*
X27997906Y-31518589D01*
X28076410Y-31597093D01*
X28076412Y-31597094D01*
X28076413Y-31597095D01*
X28175339Y-31647500D01*
X28285000Y-31664869D01*
X28394661Y-31647500D01*
X28493587Y-31597095D01*
X28572095Y-31518587D01*
X28622500Y-31419661D01*
X28639869Y-31310000D01*
X28639843Y-31309839D01*
X28628558Y-31238587D01*
X28622500Y-31200339D01*
X28572095Y-31101413D01*
X28572094Y-31101412D01*
X28572093Y-31101410D01*
X28511305Y-31040622D01*
X28477279Y-30978310D01*
X28474400Y-30951527D01*
X28474400Y-30640641D01*
X28494402Y-30572520D01*
X28511305Y-30551546D01*
X28992852Y-30069999D01*
X30620130Y-30069999D01*
X30637500Y-30179661D01*
X30687906Y-30278589D01*
X30766410Y-30357093D01*
X30766412Y-30357094D01*
X30766413Y-30357095D01*
X30865339Y-30407500D01*
X30975000Y-30424869D01*
X31084661Y-30407500D01*
X31183587Y-30357095D01*
X31262095Y-30278587D01*
X31312500Y-30179661D01*
X31329869Y-30070000D01*
X31312500Y-29960339D01*
X31262095Y-29861413D01*
X31262094Y-29861412D01*
X31262093Y-29861410D01*
X31183589Y-29782906D01*
X31084661Y-29732500D01*
X30975000Y-29715130D01*
X30865338Y-29732500D01*
X30766410Y-29782906D01*
X30687906Y-29861410D01*
X30637500Y-29960338D01*
X30620130Y-30069999D01*
X28992852Y-30069999D01*
X29518749Y-29544102D01*
X30533162Y-28529688D01*
X30595472Y-28495665D01*
X30666287Y-28500729D01*
X30723123Y-28543276D01*
X30747934Y-28609796D01*
X30746704Y-28638495D01*
X30740130Y-28679998D01*
X30757500Y-28789661D01*
X30807906Y-28888589D01*
X30886410Y-28967093D01*
X30886412Y-28967094D01*
X30886413Y-28967095D01*
X30985339Y-29017500D01*
X31095000Y-29034869D01*
X31204661Y-29017500D01*
X31303587Y-28967095D01*
X31382095Y-28888587D01*
X31432500Y-28789661D01*
X31449869Y-28680000D01*
X31432500Y-28570339D01*
X31382095Y-28471413D01*
X31382094Y-28471412D01*
X31382093Y-28471410D01*
X31303589Y-28392906D01*
X31204661Y-28342500D01*
X31094998Y-28325130D01*
X31053495Y-28331704D01*
X30983084Y-28322604D01*
X30928770Y-28276882D01*
X30907798Y-28209053D01*
X30926826Y-28140654D01*
X30944686Y-28118164D01*
X31861031Y-27201819D01*
X31882216Y-27186788D01*
X31886123Y-27181888D01*
X31886126Y-27181887D01*
X31902038Y-27161933D01*
X31911450Y-27151401D01*
X31914016Y-27148836D01*
X31915944Y-27145766D01*
X31924125Y-27134237D01*
X31943944Y-27109386D01*
X31947665Y-27100401D01*
X31948367Y-27094166D01*
X31948369Y-27094164D01*
X31951227Y-27068796D01*
X31953591Y-27054884D01*
X31954400Y-27051341D01*
X31954400Y-27047713D01*
X31955192Y-27033605D01*
X31958049Y-27008249D01*
X31958048Y-27008247D01*
X31958750Y-27002020D01*
X31954400Y-26976412D01*
X31954400Y-26834968D01*
X31974402Y-26766847D01*
X32028058Y-26720354D01*
X32098332Y-26710250D01*
X32137601Y-26722700D01*
X32235339Y-26772500D01*
X32327629Y-26787117D01*
X32344999Y-26789869D01*
X32344999Y-26789868D01*
X32345000Y-26789869D01*
X32454661Y-26772500D01*
X32553587Y-26722095D01*
X32556918Y-26718764D01*
X32570505Y-26705178D01*
X32632817Y-26671152D01*
X32703632Y-26676217D01*
X32760468Y-26718764D01*
X32785279Y-26785284D01*
X32785600Y-26794273D01*
X32785600Y-29289357D01*
X32765598Y-29357478D01*
X32748695Y-29378452D01*
X29274551Y-32852595D01*
X29212239Y-32886621D01*
X29185456Y-32889500D01*
X28592602Y-32889500D01*
X28563287Y-32895331D01*
X28530043Y-32917543D01*
X28507830Y-32950787D01*
X28502000Y-32980100D01*
X28502000Y-34199897D01*
X28506671Y-34223382D01*
X28507831Y-34229213D01*
X28530043Y-34262457D01*
X28530044Y-34262457D01*
X28538429Y-34275007D01*
X28559643Y-34342760D01*
X28540859Y-34411227D01*
X28488041Y-34458670D01*
X28433875Y-34471008D01*
X26191342Y-34474787D01*
X26123188Y-34454900D01*
X26076605Y-34401322D01*
X26065130Y-34348659D01*
X26070855Y-28806987D01*
X26078054Y-28782561D01*
X26075694Y-28777191D01*
X26319010Y-28777191D01*
X26321304Y-28787407D01*
X26337500Y-28889661D01*
X26387906Y-28988589D01*
X26466410Y-29067093D01*
X26466412Y-29067094D01*
X26466413Y-29067095D01*
X26565339Y-29117500D01*
X26657629Y-29132117D01*
X26674999Y-29134869D01*
X26674999Y-29134868D01*
X26675000Y-29134869D01*
X26784661Y-29117500D01*
X26883587Y-29067095D01*
X26962095Y-28988587D01*
X27012500Y-28889661D01*
X27029869Y-28780000D01*
X27029413Y-28777124D01*
X27023533Y-28739999D01*
X27012500Y-28670339D01*
X26962095Y-28571413D01*
X26962094Y-28571412D01*
X26962093Y-28571410D01*
X26883589Y-28492906D01*
X26784661Y-28442500D01*
X26675000Y-28425130D01*
X26565338Y-28442500D01*
X26466410Y-28492906D01*
X26387906Y-28571410D01*
X26337500Y-28670338D01*
X26321360Y-28772236D01*
X26319010Y-28777191D01*
X26075694Y-28777191D01*
X26071950Y-28768672D01*
X26070911Y-28752406D01*
X26071988Y-27709999D01*
X29430130Y-27709999D01*
X29447500Y-27819661D01*
X29497906Y-27918589D01*
X29576410Y-27997093D01*
X29576412Y-27997094D01*
X29576413Y-27997095D01*
X29675339Y-28047500D01*
X29785000Y-28064869D01*
X29894661Y-28047500D01*
X29993587Y-27997095D01*
X30072095Y-27918587D01*
X30122500Y-27819661D01*
X30139869Y-27710000D01*
X30122500Y-27600339D01*
X30072095Y-27501413D01*
X30072094Y-27501412D01*
X30072093Y-27501410D01*
X29993589Y-27422906D01*
X29894661Y-27372500D01*
X29785000Y-27355130D01*
X29675338Y-27372500D01*
X29576410Y-27422906D01*
X29497906Y-27501410D01*
X29447500Y-27600338D01*
X29430130Y-27709999D01*
X26071988Y-27709999D01*
X26078350Y-21551662D01*
X26098422Y-21483564D01*
X26152126Y-21437126D01*
X26222411Y-21427095D01*
X26274350Y-21447027D01*
X26285787Y-21454669D01*
X26315101Y-21460500D01*
X27534898Y-21460499D01*
X27564213Y-21454669D01*
X27597457Y-21432457D01*
X27619669Y-21399213D01*
X27625500Y-21369899D01*
X27625499Y-20150102D01*
X27619669Y-20120787D01*
X27619668Y-20120786D01*
X27616088Y-20102781D01*
X27622419Y-20032067D01*
X27665975Y-19976001D01*
X27732929Y-19952384D01*
X27739427Y-19952204D01*
X33400081Y-19942669D01*
X33468230Y-19962555D01*
G37*
G04 #@! TD.AperFunction*
G04 #@! TA.AperFunction,Conductor*
G36*
X34208848Y-20269402D02*
G01*
X34255341Y-20323058D01*
X34265445Y-20393332D01*
X34235951Y-20457912D01*
X34229822Y-20464495D01*
X34162906Y-20531410D01*
X34112500Y-20630338D01*
X34095130Y-20739999D01*
X34112500Y-20849661D01*
X34162906Y-20948589D01*
X34241410Y-21027093D01*
X34241412Y-21027094D01*
X34241413Y-21027095D01*
X34340339Y-21077500D01*
X34450000Y-21094869D01*
X34559661Y-21077500D01*
X34658587Y-21027095D01*
X34737095Y-20948587D01*
X34787500Y-20849661D01*
X34804869Y-20740000D01*
X34787500Y-20630339D01*
X34737095Y-20531413D01*
X34737094Y-20531412D01*
X34737093Y-20531410D01*
X34670178Y-20464495D01*
X34636152Y-20402183D01*
X34641217Y-20331368D01*
X34683764Y-20274532D01*
X34750284Y-20249721D01*
X34759273Y-20249400D01*
X41892919Y-20249400D01*
X41961040Y-20269402D01*
X42007533Y-20323058D01*
X42017368Y-20355689D01*
X42027500Y-20419661D01*
X42077906Y-20518589D01*
X42156410Y-20597093D01*
X42156412Y-20597094D01*
X42156413Y-20597095D01*
X42255339Y-20647500D01*
X42365000Y-20664869D01*
X42365001Y-20664868D01*
X42365002Y-20664869D01*
X42376709Y-20663015D01*
X42447120Y-20672113D01*
X42485516Y-20698368D01*
X43732943Y-21945795D01*
X43766969Y-22008107D01*
X43769848Y-22034890D01*
X43769848Y-26114234D01*
X43749846Y-26182355D01*
X43696190Y-26228848D01*
X43625916Y-26238952D01*
X43567144Y-26214196D01*
X43462090Y-26133585D01*
X43316009Y-26073076D01*
X43159248Y-26052439D01*
X43002486Y-26073076D01*
X42856405Y-26133585D01*
X42730965Y-26229838D01*
X42634712Y-26355278D01*
X42574203Y-26501359D01*
X42553566Y-26658121D01*
X42574203Y-26814882D01*
X42634712Y-26960963D01*
X42730965Y-27086403D01*
X42869567Y-27192756D01*
X42866662Y-27196541D01*
X42897358Y-27221295D01*
X42919756Y-27288666D01*
X42902175Y-27357452D01*
X42867016Y-27390162D01*
X42869567Y-27393486D01*
X42730965Y-27499838D01*
X42634712Y-27625278D01*
X42574203Y-27771359D01*
X42553566Y-27928121D01*
X42574203Y-28084882D01*
X42634712Y-28230963D01*
X42730965Y-28356403D01*
X42869567Y-28462756D01*
X42866660Y-28466543D01*
X42897295Y-28491203D01*
X42919752Y-28558555D01*
X42902232Y-28627355D01*
X42867023Y-28660171D01*
X42869567Y-28663486D01*
X42730965Y-28769838D01*
X42634712Y-28895278D01*
X42574203Y-29041359D01*
X42553566Y-29198121D01*
X42574203Y-29354882D01*
X42634712Y-29500963D01*
X42730965Y-29626403D01*
X42869567Y-29732756D01*
X42866662Y-29736541D01*
X42897358Y-29761295D01*
X42919756Y-29828666D01*
X42902175Y-29897452D01*
X42867016Y-29930162D01*
X42869567Y-29933486D01*
X42730965Y-30039838D01*
X42634712Y-30165278D01*
X42574203Y-30311359D01*
X42553566Y-30468120D01*
X42574203Y-30624882D01*
X42634712Y-30770963D01*
X42730965Y-30896403D01*
X42869567Y-31002756D01*
X42866660Y-31006543D01*
X42897295Y-31031203D01*
X42919752Y-31098555D01*
X42902232Y-31167355D01*
X42867023Y-31200171D01*
X42869567Y-31203486D01*
X42730965Y-31309838D01*
X42634712Y-31435278D01*
X42574203Y-31581359D01*
X42553566Y-31738121D01*
X42574203Y-31894882D01*
X42634712Y-32040963D01*
X42730965Y-32166403D01*
X42856405Y-32262656D01*
X42856406Y-32262656D01*
X42856407Y-32262657D01*
X43002486Y-32323165D01*
X43159248Y-32343803D01*
X43316010Y-32323165D01*
X43462089Y-32262657D01*
X43587530Y-32166403D01*
X43647178Y-32088666D01*
X43704514Y-32046802D01*
X43775385Y-32042580D01*
X43837288Y-32077344D01*
X43870569Y-32140056D01*
X43873139Y-32165547D01*
X43870173Y-34319385D01*
X43850077Y-34387478D01*
X43796357Y-34433897D01*
X43744385Y-34445211D01*
X41378621Y-34449197D01*
X41310467Y-34429310D01*
X41263884Y-34375732D01*
X41253661Y-34305475D01*
X41273643Y-34253197D01*
X41289669Y-34229213D01*
X41295500Y-34199899D01*
X41295499Y-32980102D01*
X41289669Y-32950787D01*
X41267457Y-32917543D01*
X41234213Y-32895331D01*
X41234212Y-32895330D01*
X41204899Y-32889500D01*
X39985102Y-32889500D01*
X39955787Y-32895331D01*
X39922543Y-32917543D01*
X39886407Y-32971626D01*
X39883212Y-32969491D01*
X39871907Y-32991095D01*
X39810206Y-33026217D01*
X39739312Y-33022405D01*
X39681733Y-32980870D01*
X39677182Y-32970900D01*
X39676094Y-32971628D01*
X39662169Y-32950787D01*
X39639957Y-32917543D01*
X39606713Y-32895331D01*
X39606712Y-32895330D01*
X39577399Y-32889500D01*
X38357602Y-32889500D01*
X38328287Y-32895331D01*
X38295043Y-32917543D01*
X38258907Y-32971626D01*
X38255712Y-32969491D01*
X38244407Y-32991095D01*
X38182706Y-33026217D01*
X38111812Y-33022405D01*
X38054233Y-32980870D01*
X38049682Y-32970900D01*
X38048594Y-32971628D01*
X38034669Y-32950787D01*
X38012457Y-32917543D01*
X37979213Y-32895331D01*
X37979212Y-32895330D01*
X37949899Y-32889500D01*
X36730102Y-32889500D01*
X36700787Y-32895331D01*
X36667543Y-32917543D01*
X36631407Y-32971626D01*
X36628212Y-32969491D01*
X36616907Y-32991095D01*
X36555206Y-33026217D01*
X36484312Y-33022405D01*
X36426733Y-32980870D01*
X36422182Y-32970900D01*
X36421094Y-32971628D01*
X36407169Y-32950787D01*
X36384957Y-32917543D01*
X36351713Y-32895331D01*
X36351712Y-32895330D01*
X36322399Y-32889500D01*
X35102602Y-32889500D01*
X35073287Y-32895331D01*
X35040043Y-32917543D01*
X35003907Y-32971626D01*
X35000712Y-32969491D01*
X34989407Y-32991095D01*
X34927706Y-33026217D01*
X34856812Y-33022405D01*
X34799233Y-32980870D01*
X34794682Y-32970900D01*
X34793594Y-32971628D01*
X34779669Y-32950787D01*
X34757457Y-32917543D01*
X34724213Y-32895331D01*
X34724212Y-32895330D01*
X34694899Y-32889500D01*
X33475102Y-32889500D01*
X33445787Y-32895331D01*
X33412543Y-32917543D01*
X33390330Y-32950787D01*
X33384500Y-32980100D01*
X33384500Y-34199897D01*
X33389171Y-34223381D01*
X33390331Y-34229213D01*
X33406354Y-34253194D01*
X33415439Y-34266791D01*
X33436652Y-34334544D01*
X33417868Y-34403011D01*
X33365049Y-34450453D01*
X33310884Y-34462791D01*
X31607621Y-34465661D01*
X31539467Y-34445774D01*
X31492884Y-34392196D01*
X31482661Y-34321940D01*
X31502644Y-34269659D01*
X31507455Y-34262458D01*
X31507457Y-34262457D01*
X31529669Y-34229213D01*
X31535500Y-34199899D01*
X31535499Y-32980102D01*
X31529669Y-32950787D01*
X31507457Y-32917543D01*
X31474213Y-32895331D01*
X31474212Y-32895330D01*
X31444900Y-32889500D01*
X31444899Y-32889500D01*
X31150400Y-32889500D01*
X31082279Y-32869498D01*
X31035786Y-32815842D01*
X31024400Y-32763500D01*
X31024400Y-32520640D01*
X31044402Y-32452519D01*
X31061300Y-32431550D01*
X32672572Y-30820278D01*
X32734882Y-30786254D01*
X32805697Y-30791319D01*
X32862533Y-30833866D01*
X32887344Y-30900386D01*
X32886114Y-30929086D01*
X32870130Y-31029999D01*
X32887500Y-31139661D01*
X32937906Y-31238589D01*
X33016410Y-31317093D01*
X33016412Y-31317094D01*
X33016413Y-31317095D01*
X33115339Y-31367500D01*
X33225000Y-31384869D01*
X33334661Y-31367500D01*
X33433587Y-31317095D01*
X33512095Y-31238587D01*
X33562500Y-31139661D01*
X33579869Y-31030000D01*
X33562500Y-30920339D01*
X33512095Y-30821413D01*
X33512094Y-30821412D01*
X33512093Y-30821410D01*
X33433589Y-30742906D01*
X33334661Y-30692500D01*
X33224999Y-30675130D01*
X33124086Y-30691114D01*
X33053675Y-30682014D01*
X32999361Y-30636292D01*
X32978388Y-30568464D01*
X32997415Y-30500065D01*
X33015276Y-30477574D01*
X33591031Y-29901819D01*
X33612216Y-29886788D01*
X33616123Y-29881888D01*
X33616126Y-29881887D01*
X33632038Y-29861933D01*
X33641450Y-29851401D01*
X33644016Y-29848836D01*
X33645944Y-29845766D01*
X33654125Y-29834237D01*
X33673944Y-29809386D01*
X33677665Y-29800401D01*
X33678367Y-29794166D01*
X33678369Y-29794164D01*
X33681227Y-29768796D01*
X33683591Y-29754884D01*
X33684400Y-29751341D01*
X33684400Y-29747713D01*
X33685192Y-29733605D01*
X33685288Y-29732756D01*
X33688049Y-29708249D01*
X33688048Y-29708247D01*
X33688750Y-29702020D01*
X33684400Y-29676412D01*
X33684400Y-28739999D01*
X37895130Y-28739999D01*
X37912500Y-28849661D01*
X37962906Y-28948589D01*
X38041410Y-29027093D01*
X38041412Y-29027094D01*
X38041413Y-29027095D01*
X38140339Y-29077500D01*
X38250000Y-29094869D01*
X38359661Y-29077500D01*
X38458587Y-29027095D01*
X38537095Y-28948587D01*
X38587500Y-28849661D01*
X38604869Y-28740000D01*
X38587500Y-28630339D01*
X38537095Y-28531413D01*
X38537094Y-28531412D01*
X38537093Y-28531410D01*
X38458589Y-28452906D01*
X38359661Y-28402500D01*
X38250000Y-28385130D01*
X38140338Y-28402500D01*
X38041410Y-28452906D01*
X37962906Y-28531410D01*
X37912500Y-28630338D01*
X37895130Y-28739999D01*
X33684400Y-28739999D01*
X33684400Y-27155000D01*
X36780130Y-27155000D01*
X36797500Y-27264661D01*
X36847906Y-27363589D01*
X36926410Y-27442093D01*
X36926412Y-27442094D01*
X36926413Y-27442095D01*
X37025339Y-27492500D01*
X37135000Y-27509869D01*
X37244661Y-27492500D01*
X37343587Y-27442095D01*
X37422095Y-27363587D01*
X37472500Y-27264661D01*
X37489869Y-27155000D01*
X37472500Y-27045339D01*
X37422095Y-26946413D01*
X37422094Y-26946412D01*
X37422093Y-26946410D01*
X37343589Y-26867906D01*
X37244661Y-26817500D01*
X37135000Y-26800130D01*
X37025338Y-26817500D01*
X36926410Y-26867906D01*
X36847906Y-26946410D01*
X36797500Y-27045338D01*
X36780130Y-27155000D01*
X33684400Y-27155000D01*
X33684400Y-26410000D01*
X39750130Y-26410000D01*
X39767500Y-26519661D01*
X39817906Y-26618589D01*
X39896410Y-26697093D01*
X39896412Y-26697094D01*
X39896413Y-26697095D01*
X39995339Y-26747500D01*
X40087629Y-26762117D01*
X40104999Y-26764869D01*
X40104999Y-26764868D01*
X40105000Y-26764869D01*
X40214661Y-26747500D01*
X40313587Y-26697095D01*
X40392095Y-26618587D01*
X40442500Y-26519661D01*
X40459869Y-26410000D01*
X40442500Y-26300339D01*
X40392095Y-26201413D01*
X40392094Y-26201412D01*
X40392093Y-26201410D01*
X40313589Y-26122906D01*
X40214661Y-26072500D01*
X40104999Y-26055130D01*
X39995338Y-26072500D01*
X39896410Y-26122906D01*
X39817906Y-26201410D01*
X39767500Y-26300338D01*
X39750130Y-26410000D01*
X33684400Y-26410000D01*
X33684400Y-23520000D01*
X41950130Y-23520000D01*
X41967500Y-23629661D01*
X42017906Y-23728589D01*
X42096410Y-23807093D01*
X42096412Y-23807094D01*
X42096413Y-23807095D01*
X42195339Y-23857500D01*
X42305000Y-23874869D01*
X42414661Y-23857500D01*
X42513587Y-23807095D01*
X42592095Y-23728587D01*
X42642500Y-23629661D01*
X42659869Y-23520000D01*
X42642500Y-23410339D01*
X42592095Y-23311413D01*
X42592094Y-23311412D01*
X42592093Y-23311410D01*
X42513589Y-23232906D01*
X42414661Y-23182500D01*
X42305000Y-23165130D01*
X42195338Y-23182500D01*
X42096410Y-23232906D01*
X42017906Y-23311410D01*
X41967500Y-23410338D01*
X41950130Y-23520000D01*
X33684400Y-23520000D01*
X33684400Y-23328473D01*
X33704402Y-23260352D01*
X33721305Y-23239378D01*
X33782093Y-23178589D01*
X33782095Y-23178587D01*
X33832500Y-23079661D01*
X33849869Y-22970000D01*
X33832500Y-22860339D01*
X33782095Y-22761413D01*
X33782094Y-22761412D01*
X33782093Y-22761410D01*
X33703589Y-22682906D01*
X33604661Y-22632500D01*
X33495000Y-22615130D01*
X33385338Y-22632500D01*
X33286410Y-22682906D01*
X33207906Y-22761410D01*
X33157500Y-22860338D01*
X33140130Y-22969999D01*
X33157500Y-23079661D01*
X33207906Y-23178589D01*
X33268695Y-23239378D01*
X33302721Y-23301690D01*
X33305600Y-23328473D01*
X33305600Y-23800697D01*
X33285598Y-23868818D01*
X33231942Y-23915311D01*
X33161668Y-23925415D01*
X33123326Y-23907904D01*
X33122033Y-23910590D01*
X33105452Y-23902604D01*
X33071032Y-23878180D01*
X32946102Y-23753250D01*
X32912076Y-23690938D01*
X32911137Y-23658006D01*
X32909617Y-23648412D01*
X32892500Y-23540339D01*
X32842095Y-23441413D01*
X32842094Y-23441412D01*
X32842093Y-23441410D01*
X32763589Y-23362906D01*
X32664661Y-23312500D01*
X32554999Y-23295130D01*
X32445338Y-23312500D01*
X32346410Y-23362906D01*
X32267906Y-23441410D01*
X32217500Y-23540338D01*
X32204849Y-23620212D01*
X32191394Y-23648593D01*
X32201296Y-23664000D01*
X32204849Y-23679787D01*
X32217500Y-23759661D01*
X32267906Y-23858589D01*
X32346410Y-23937093D01*
X32346412Y-23937094D01*
X32346413Y-23937095D01*
X32445339Y-23987500D01*
X32555000Y-24004869D01*
X32555000Y-24004868D01*
X32555001Y-24004869D01*
X32583973Y-24000280D01*
X32654384Y-24009378D01*
X32692781Y-24035633D01*
X32748695Y-24091547D01*
X32782721Y-24153859D01*
X32785600Y-24180642D01*
X32785600Y-25030726D01*
X32765598Y-25098847D01*
X32711942Y-25145340D01*
X32641668Y-25155444D01*
X32577088Y-25125950D01*
X32570506Y-25119823D01*
X32543587Y-25092905D01*
X32444661Y-25042500D01*
X32335000Y-25025130D01*
X32225336Y-25042500D01*
X32137602Y-25087203D01*
X32067825Y-25100307D01*
X32002041Y-25073606D01*
X31961135Y-25015579D01*
X31954400Y-24974936D01*
X31954400Y-23699498D01*
X31969400Y-23648412D01*
X31955439Y-23616649D01*
X31954400Y-23600501D01*
X31954400Y-22280642D01*
X31974402Y-22212521D01*
X31991305Y-22191547D01*
X32682852Y-21500000D01*
X37760130Y-21500000D01*
X37777500Y-21609661D01*
X37827906Y-21708589D01*
X37906410Y-21787093D01*
X37906412Y-21787094D01*
X37906413Y-21787095D01*
X38005339Y-21837500D01*
X38097629Y-21852117D01*
X38114999Y-21854869D01*
X38114999Y-21854868D01*
X38115000Y-21854869D01*
X38224661Y-21837500D01*
X38323587Y-21787095D01*
X38402095Y-21708587D01*
X38452500Y-21609661D01*
X38469869Y-21500000D01*
X38452500Y-21390339D01*
X38402095Y-21291413D01*
X38402094Y-21291412D01*
X38402093Y-21291410D01*
X38323589Y-21212906D01*
X38224661Y-21162500D01*
X38115000Y-21145130D01*
X38005338Y-21162500D01*
X37906410Y-21212906D01*
X37827906Y-21291410D01*
X37777500Y-21390338D01*
X37760130Y-21500000D01*
X32682852Y-21500000D01*
X33896547Y-20286305D01*
X33958859Y-20252279D01*
X33985642Y-20249400D01*
X34140727Y-20249400D01*
X34208848Y-20269402D01*
G37*
G04 #@! TD.AperFunction*
G04 #@! TD*
G04 #@! TA.AperFunction,Conductor*
G04 #@! TO.N,Board_1-GND*
G36*
X33468230Y-35522555D02*
G01*
X33514813Y-35576133D01*
X33525036Y-35646390D01*
X33495651Y-35711020D01*
X33489383Y-35717763D01*
X31668965Y-37538181D01*
X31647779Y-37553215D01*
X31627958Y-37578069D01*
X31618556Y-37588590D01*
X31615984Y-37591161D01*
X31614051Y-37594239D01*
X31605882Y-37605752D01*
X31586063Y-37630605D01*
X31582332Y-37639614D01*
X31578772Y-37671198D01*
X31576410Y-37685104D01*
X31575600Y-37688655D01*
X31575600Y-37692286D01*
X31574808Y-37706393D01*
X31571249Y-37737980D01*
X31575600Y-37763588D01*
X31575600Y-42459357D01*
X31555598Y-42527478D01*
X31538695Y-42548452D01*
X28188965Y-45898181D01*
X28167779Y-45913215D01*
X28147958Y-45938069D01*
X28138556Y-45948590D01*
X28135984Y-45951161D01*
X28134051Y-45954239D01*
X28125882Y-45965752D01*
X28106063Y-45990605D01*
X28102332Y-45999614D01*
X28098772Y-46031198D01*
X28096410Y-46045104D01*
X28095600Y-46048655D01*
X28095600Y-46052286D01*
X28094808Y-46066393D01*
X28091249Y-46097980D01*
X28095600Y-46123588D01*
X28095600Y-46511526D01*
X28075598Y-46579647D01*
X28058696Y-46600621D01*
X27997905Y-46661412D01*
X27947500Y-46760338D01*
X27930130Y-46869999D01*
X27947500Y-46979661D01*
X27997906Y-47078589D01*
X28076410Y-47157093D01*
X28076412Y-47157094D01*
X28076413Y-47157095D01*
X28175339Y-47207500D01*
X28285000Y-47224869D01*
X28394661Y-47207500D01*
X28493587Y-47157095D01*
X28572095Y-47078587D01*
X28622500Y-46979661D01*
X28639869Y-46870000D01*
X28639843Y-46869839D01*
X28628558Y-46798587D01*
X28622500Y-46760339D01*
X28572095Y-46661413D01*
X28572094Y-46661412D01*
X28572093Y-46661410D01*
X28511305Y-46600622D01*
X28477279Y-46538310D01*
X28474400Y-46511527D01*
X28474400Y-46200641D01*
X28494402Y-46132520D01*
X28511305Y-46111546D01*
X28992852Y-45629999D01*
X30620130Y-45629999D01*
X30637500Y-45739661D01*
X30687906Y-45838589D01*
X30766410Y-45917093D01*
X30766412Y-45917094D01*
X30766413Y-45917095D01*
X30865339Y-45967500D01*
X30975000Y-45984869D01*
X31084661Y-45967500D01*
X31183587Y-45917095D01*
X31262095Y-45838587D01*
X31312500Y-45739661D01*
X31329869Y-45630000D01*
X31312500Y-45520339D01*
X31262095Y-45421413D01*
X31262094Y-45421412D01*
X31262093Y-45421410D01*
X31183589Y-45342906D01*
X31084661Y-45292500D01*
X30975000Y-45275130D01*
X30865338Y-45292500D01*
X30766410Y-45342906D01*
X30687906Y-45421410D01*
X30637500Y-45520338D01*
X30620130Y-45629999D01*
X28992852Y-45629999D01*
X29518749Y-45104102D01*
X30533162Y-44089688D01*
X30595472Y-44055665D01*
X30666287Y-44060729D01*
X30723123Y-44103276D01*
X30747934Y-44169796D01*
X30746704Y-44198495D01*
X30740130Y-44239998D01*
X30757500Y-44349661D01*
X30807906Y-44448589D01*
X30886410Y-44527093D01*
X30886412Y-44527094D01*
X30886413Y-44527095D01*
X30985339Y-44577500D01*
X31095000Y-44594869D01*
X31204661Y-44577500D01*
X31303587Y-44527095D01*
X31382095Y-44448587D01*
X31432500Y-44349661D01*
X31449869Y-44240000D01*
X31432500Y-44130339D01*
X31382095Y-44031413D01*
X31382094Y-44031412D01*
X31382093Y-44031410D01*
X31303589Y-43952906D01*
X31204661Y-43902500D01*
X31094998Y-43885130D01*
X31053495Y-43891704D01*
X30983084Y-43882604D01*
X30928770Y-43836882D01*
X30907798Y-43769053D01*
X30926826Y-43700654D01*
X30944686Y-43678164D01*
X31861031Y-42761819D01*
X31882216Y-42746788D01*
X31886123Y-42741888D01*
X31886126Y-42741887D01*
X31902038Y-42721933D01*
X31911450Y-42711401D01*
X31914016Y-42708836D01*
X31915944Y-42705766D01*
X31924125Y-42694237D01*
X31943944Y-42669386D01*
X31947665Y-42660401D01*
X31948367Y-42654166D01*
X31948369Y-42654164D01*
X31951227Y-42628796D01*
X31953591Y-42614884D01*
X31954400Y-42611341D01*
X31954400Y-42607713D01*
X31955192Y-42593605D01*
X31958049Y-42568249D01*
X31958048Y-42568247D01*
X31958750Y-42562020D01*
X31954400Y-42536412D01*
X31954400Y-42394968D01*
X31974402Y-42326847D01*
X32028058Y-42280354D01*
X32098332Y-42270250D01*
X32137601Y-42282700D01*
X32235339Y-42332500D01*
X32327629Y-42347117D01*
X32344999Y-42349869D01*
X32344999Y-42349868D01*
X32345000Y-42349869D01*
X32454661Y-42332500D01*
X32553587Y-42282095D01*
X32556918Y-42278764D01*
X32570505Y-42265178D01*
X32632817Y-42231152D01*
X32703632Y-42236217D01*
X32760468Y-42278764D01*
X32785279Y-42345284D01*
X32785600Y-42354273D01*
X32785600Y-44849357D01*
X32765598Y-44917478D01*
X32748695Y-44938452D01*
X29274551Y-48412595D01*
X29212239Y-48446621D01*
X29185456Y-48449500D01*
X28592602Y-48449500D01*
X28563287Y-48455331D01*
X28530043Y-48477543D01*
X28507830Y-48510787D01*
X28502000Y-48540100D01*
X28502000Y-49759897D01*
X28506671Y-49783382D01*
X28507831Y-49789213D01*
X28530043Y-49822457D01*
X28530044Y-49822457D01*
X28538429Y-49835007D01*
X28559643Y-49902760D01*
X28540859Y-49971227D01*
X28488041Y-50018670D01*
X28433875Y-50031008D01*
X26191342Y-50034787D01*
X26123188Y-50014900D01*
X26076605Y-49961322D01*
X26065130Y-49908659D01*
X26070855Y-44366987D01*
X26078054Y-44342561D01*
X26075694Y-44337191D01*
X26319010Y-44337191D01*
X26321304Y-44347407D01*
X26337500Y-44449661D01*
X26387906Y-44548589D01*
X26466410Y-44627093D01*
X26466412Y-44627094D01*
X26466413Y-44627095D01*
X26565339Y-44677500D01*
X26657629Y-44692117D01*
X26674999Y-44694869D01*
X26674999Y-44694868D01*
X26675000Y-44694869D01*
X26784661Y-44677500D01*
X26883587Y-44627095D01*
X26962095Y-44548587D01*
X27012500Y-44449661D01*
X27029869Y-44340000D01*
X27029413Y-44337124D01*
X27023533Y-44299999D01*
X27012500Y-44230339D01*
X26962095Y-44131413D01*
X26962094Y-44131412D01*
X26962093Y-44131410D01*
X26883589Y-44052906D01*
X26784661Y-44002500D01*
X26675000Y-43985130D01*
X26565338Y-44002500D01*
X26466410Y-44052906D01*
X26387906Y-44131410D01*
X26337500Y-44230338D01*
X26321360Y-44332236D01*
X26319010Y-44337191D01*
X26075694Y-44337191D01*
X26071950Y-44328672D01*
X26070911Y-44312406D01*
X26071988Y-43269999D01*
X29430130Y-43269999D01*
X29447500Y-43379661D01*
X29497906Y-43478589D01*
X29576410Y-43557093D01*
X29576412Y-43557094D01*
X29576413Y-43557095D01*
X29675339Y-43607500D01*
X29785000Y-43624869D01*
X29894661Y-43607500D01*
X29993587Y-43557095D01*
X30072095Y-43478587D01*
X30122500Y-43379661D01*
X30139869Y-43270000D01*
X30122500Y-43160339D01*
X30072095Y-43061413D01*
X30072094Y-43061412D01*
X30072093Y-43061410D01*
X29993589Y-42982906D01*
X29894661Y-42932500D01*
X29785000Y-42915130D01*
X29675338Y-42932500D01*
X29576410Y-42982906D01*
X29497906Y-43061410D01*
X29447500Y-43160338D01*
X29430130Y-43269999D01*
X26071988Y-43269999D01*
X26078350Y-37111662D01*
X26098422Y-37043564D01*
X26152126Y-36997126D01*
X26222411Y-36987095D01*
X26274350Y-37007027D01*
X26285787Y-37014669D01*
X26315101Y-37020500D01*
X27534898Y-37020499D01*
X27564213Y-37014669D01*
X27597457Y-36992457D01*
X27619669Y-36959213D01*
X27625500Y-36929899D01*
X27625499Y-35710102D01*
X27619669Y-35680787D01*
X27619668Y-35680786D01*
X27616088Y-35662781D01*
X27622419Y-35592067D01*
X27665975Y-35536001D01*
X27732929Y-35512384D01*
X27739427Y-35512204D01*
X33400081Y-35502669D01*
X33468230Y-35522555D01*
G37*
G04 #@! TD.AperFunction*
G04 #@! TA.AperFunction,Conductor*
G36*
X34208848Y-35829402D02*
G01*
X34255341Y-35883058D01*
X34265445Y-35953332D01*
X34235951Y-36017912D01*
X34229822Y-36024495D01*
X34162906Y-36091410D01*
X34112500Y-36190338D01*
X34095130Y-36299999D01*
X34112500Y-36409661D01*
X34162906Y-36508589D01*
X34241410Y-36587093D01*
X34241412Y-36587094D01*
X34241413Y-36587095D01*
X34340339Y-36637500D01*
X34450000Y-36654869D01*
X34559661Y-36637500D01*
X34658587Y-36587095D01*
X34737095Y-36508587D01*
X34787500Y-36409661D01*
X34804869Y-36300000D01*
X34787500Y-36190339D01*
X34737095Y-36091413D01*
X34737094Y-36091412D01*
X34737093Y-36091410D01*
X34670178Y-36024495D01*
X34636152Y-35962183D01*
X34641217Y-35891368D01*
X34683764Y-35834532D01*
X34750284Y-35809721D01*
X34759273Y-35809400D01*
X41892919Y-35809400D01*
X41961040Y-35829402D01*
X42007533Y-35883058D01*
X42017368Y-35915689D01*
X42027500Y-35979661D01*
X42077906Y-36078589D01*
X42156410Y-36157093D01*
X42156412Y-36157094D01*
X42156413Y-36157095D01*
X42255339Y-36207500D01*
X42365000Y-36224869D01*
X42365001Y-36224868D01*
X42365002Y-36224869D01*
X42376709Y-36223015D01*
X42447120Y-36232113D01*
X42485516Y-36258368D01*
X43732943Y-37505795D01*
X43766969Y-37568107D01*
X43769848Y-37594890D01*
X43769848Y-41674234D01*
X43749846Y-41742355D01*
X43696190Y-41788848D01*
X43625916Y-41798952D01*
X43567144Y-41774196D01*
X43462090Y-41693585D01*
X43316009Y-41633076D01*
X43159248Y-41612439D01*
X43002486Y-41633076D01*
X42856405Y-41693585D01*
X42730965Y-41789838D01*
X42634712Y-41915278D01*
X42574203Y-42061359D01*
X42553566Y-42218121D01*
X42574203Y-42374882D01*
X42634712Y-42520963D01*
X42730965Y-42646403D01*
X42869567Y-42752756D01*
X42866662Y-42756541D01*
X42897358Y-42781295D01*
X42919756Y-42848666D01*
X42902175Y-42917452D01*
X42867016Y-42950162D01*
X42869567Y-42953486D01*
X42730965Y-43059838D01*
X42634712Y-43185278D01*
X42574203Y-43331359D01*
X42553566Y-43488121D01*
X42574203Y-43644882D01*
X42634712Y-43790963D01*
X42730965Y-43916403D01*
X42869567Y-44022756D01*
X42866660Y-44026543D01*
X42897295Y-44051203D01*
X42919752Y-44118555D01*
X42902232Y-44187355D01*
X42867023Y-44220171D01*
X42869567Y-44223486D01*
X42730965Y-44329838D01*
X42634712Y-44455278D01*
X42574203Y-44601359D01*
X42553566Y-44758121D01*
X42574203Y-44914882D01*
X42634712Y-45060963D01*
X42730965Y-45186403D01*
X42869567Y-45292756D01*
X42866662Y-45296541D01*
X42897358Y-45321295D01*
X42919756Y-45388666D01*
X42902175Y-45457452D01*
X42867016Y-45490162D01*
X42869567Y-45493486D01*
X42730965Y-45599838D01*
X42634712Y-45725278D01*
X42574203Y-45871359D01*
X42553566Y-46028120D01*
X42574203Y-46184882D01*
X42634712Y-46330963D01*
X42730965Y-46456403D01*
X42869567Y-46562756D01*
X42866660Y-46566543D01*
X42897295Y-46591203D01*
X42919752Y-46658555D01*
X42902232Y-46727355D01*
X42867023Y-46760171D01*
X42869567Y-46763486D01*
X42730965Y-46869838D01*
X42634712Y-46995278D01*
X42574203Y-47141359D01*
X42553566Y-47298121D01*
X42574203Y-47454882D01*
X42634712Y-47600963D01*
X42730965Y-47726403D01*
X42856405Y-47822656D01*
X42856406Y-47822656D01*
X42856407Y-47822657D01*
X43002486Y-47883165D01*
X43159248Y-47903803D01*
X43316010Y-47883165D01*
X43462089Y-47822657D01*
X43587530Y-47726403D01*
X43647178Y-47648666D01*
X43704514Y-47606802D01*
X43775385Y-47602580D01*
X43837288Y-47637344D01*
X43870569Y-47700056D01*
X43873139Y-47725547D01*
X43870173Y-49879385D01*
X43850077Y-49947478D01*
X43796357Y-49993897D01*
X43744385Y-50005211D01*
X41378621Y-50009197D01*
X41310467Y-49989310D01*
X41263884Y-49935732D01*
X41253661Y-49865475D01*
X41273643Y-49813197D01*
X41289669Y-49789213D01*
X41295500Y-49759899D01*
X41295499Y-48540102D01*
X41289669Y-48510787D01*
X41267457Y-48477543D01*
X41234213Y-48455331D01*
X41234212Y-48455330D01*
X41204899Y-48449500D01*
X39985102Y-48449500D01*
X39955787Y-48455331D01*
X39922543Y-48477543D01*
X39886407Y-48531626D01*
X39883212Y-48529491D01*
X39871907Y-48551095D01*
X39810206Y-48586217D01*
X39739312Y-48582405D01*
X39681733Y-48540870D01*
X39677182Y-48530900D01*
X39676094Y-48531628D01*
X39662169Y-48510787D01*
X39639957Y-48477543D01*
X39606713Y-48455331D01*
X39606712Y-48455330D01*
X39577399Y-48449500D01*
X38357602Y-48449500D01*
X38328287Y-48455331D01*
X38295043Y-48477543D01*
X38258907Y-48531626D01*
X38255712Y-48529491D01*
X38244407Y-48551095D01*
X38182706Y-48586217D01*
X38111812Y-48582405D01*
X38054233Y-48540870D01*
X38049682Y-48530900D01*
X38048594Y-48531628D01*
X38034669Y-48510787D01*
X38012457Y-48477543D01*
X37979213Y-48455331D01*
X37979212Y-48455330D01*
X37949899Y-48449500D01*
X36730102Y-48449500D01*
X36700787Y-48455331D01*
X36667543Y-48477543D01*
X36631407Y-48531626D01*
X36628212Y-48529491D01*
X36616907Y-48551095D01*
X36555206Y-48586217D01*
X36484312Y-48582405D01*
X36426733Y-48540870D01*
X36422182Y-48530900D01*
X36421094Y-48531628D01*
X36407169Y-48510787D01*
X36384957Y-48477543D01*
X36351713Y-48455331D01*
X36351712Y-48455330D01*
X36322399Y-48449500D01*
X35102602Y-48449500D01*
X35073287Y-48455331D01*
X35040043Y-48477543D01*
X35003907Y-48531626D01*
X35000712Y-48529491D01*
X34989407Y-48551095D01*
X34927706Y-48586217D01*
X34856812Y-48582405D01*
X34799233Y-48540870D01*
X34794682Y-48530900D01*
X34793594Y-48531628D01*
X34779669Y-48510787D01*
X34757457Y-48477543D01*
X34724213Y-48455331D01*
X34724212Y-48455330D01*
X34694899Y-48449500D01*
X33475102Y-48449500D01*
X33445787Y-48455331D01*
X33412543Y-48477543D01*
X33390330Y-48510787D01*
X33384500Y-48540100D01*
X33384500Y-49759897D01*
X33389171Y-49783381D01*
X33390331Y-49789213D01*
X33406354Y-49813194D01*
X33415439Y-49826791D01*
X33436652Y-49894544D01*
X33417868Y-49963011D01*
X33365049Y-50010453D01*
X33310884Y-50022791D01*
X31607621Y-50025661D01*
X31539467Y-50005774D01*
X31492884Y-49952196D01*
X31482661Y-49881940D01*
X31502644Y-49829659D01*
X31507455Y-49822458D01*
X31507457Y-49822457D01*
X31529669Y-49789213D01*
X31535500Y-49759899D01*
X31535499Y-48540102D01*
X31529669Y-48510787D01*
X31507457Y-48477543D01*
X31474213Y-48455331D01*
X31474212Y-48455330D01*
X31444900Y-48449500D01*
X31444899Y-48449500D01*
X31150400Y-48449500D01*
X31082279Y-48429498D01*
X31035786Y-48375842D01*
X31024400Y-48323500D01*
X31024400Y-48080640D01*
X31044402Y-48012519D01*
X31061300Y-47991550D01*
X32672572Y-46380278D01*
X32734882Y-46346254D01*
X32805697Y-46351319D01*
X32862533Y-46393866D01*
X32887344Y-46460386D01*
X32886114Y-46489086D01*
X32870130Y-46589999D01*
X32887500Y-46699661D01*
X32937906Y-46798589D01*
X33016410Y-46877093D01*
X33016412Y-46877094D01*
X33016413Y-46877095D01*
X33115339Y-46927500D01*
X33225000Y-46944869D01*
X33334661Y-46927500D01*
X33433587Y-46877095D01*
X33512095Y-46798587D01*
X33562500Y-46699661D01*
X33579869Y-46590000D01*
X33562500Y-46480339D01*
X33512095Y-46381413D01*
X33512094Y-46381412D01*
X33512093Y-46381410D01*
X33433589Y-46302906D01*
X33334661Y-46252500D01*
X33224999Y-46235130D01*
X33124086Y-46251114D01*
X33053675Y-46242014D01*
X32999361Y-46196292D01*
X32978388Y-46128464D01*
X32997415Y-46060065D01*
X33015276Y-46037574D01*
X33591031Y-45461819D01*
X33612216Y-45446788D01*
X33616123Y-45441888D01*
X33616126Y-45441887D01*
X33632038Y-45421933D01*
X33641450Y-45411401D01*
X33644016Y-45408836D01*
X33645944Y-45405766D01*
X33654125Y-45394237D01*
X33673944Y-45369386D01*
X33677665Y-45360401D01*
X33678367Y-45354166D01*
X33678369Y-45354164D01*
X33681227Y-45328796D01*
X33683591Y-45314884D01*
X33684400Y-45311341D01*
X33684400Y-45307713D01*
X33685192Y-45293605D01*
X33685288Y-45292756D01*
X33688049Y-45268249D01*
X33688048Y-45268247D01*
X33688750Y-45262020D01*
X33684400Y-45236412D01*
X33684400Y-44299999D01*
X37895130Y-44299999D01*
X37912500Y-44409661D01*
X37962906Y-44508589D01*
X38041410Y-44587093D01*
X38041412Y-44587094D01*
X38041413Y-44587095D01*
X38140339Y-44637500D01*
X38250000Y-44654869D01*
X38359661Y-44637500D01*
X38458587Y-44587095D01*
X38537095Y-44508587D01*
X38587500Y-44409661D01*
X38604869Y-44300000D01*
X38587500Y-44190339D01*
X38537095Y-44091413D01*
X38537094Y-44091412D01*
X38537093Y-44091410D01*
X38458589Y-44012906D01*
X38359661Y-43962500D01*
X38250000Y-43945130D01*
X38140338Y-43962500D01*
X38041410Y-44012906D01*
X37962906Y-44091410D01*
X37912500Y-44190338D01*
X37895130Y-44299999D01*
X33684400Y-44299999D01*
X33684400Y-42715000D01*
X36780130Y-42715000D01*
X36797500Y-42824661D01*
X36847906Y-42923589D01*
X36926410Y-43002093D01*
X36926412Y-43002094D01*
X36926413Y-43002095D01*
X37025339Y-43052500D01*
X37135000Y-43069869D01*
X37244661Y-43052500D01*
X37343587Y-43002095D01*
X37422095Y-42923587D01*
X37472500Y-42824661D01*
X37489869Y-42715000D01*
X37472500Y-42605339D01*
X37422095Y-42506413D01*
X37422094Y-42506412D01*
X37422093Y-42506410D01*
X37343589Y-42427906D01*
X37244661Y-42377500D01*
X37135000Y-42360130D01*
X37025338Y-42377500D01*
X36926410Y-42427906D01*
X36847906Y-42506410D01*
X36797500Y-42605338D01*
X36780130Y-42715000D01*
X33684400Y-42715000D01*
X33684400Y-41970000D01*
X39750130Y-41970000D01*
X39767500Y-42079661D01*
X39817906Y-42178589D01*
X39896410Y-42257093D01*
X39896412Y-42257094D01*
X39896413Y-42257095D01*
X39995339Y-42307500D01*
X40087629Y-42322117D01*
X40104999Y-42324869D01*
X40104999Y-42324868D01*
X40105000Y-42324869D01*
X40214661Y-42307500D01*
X40313587Y-42257095D01*
X40392095Y-42178587D01*
X40442500Y-42079661D01*
X40459869Y-41970000D01*
X40442500Y-41860339D01*
X40392095Y-41761413D01*
X40392094Y-41761412D01*
X40392093Y-41761410D01*
X40313589Y-41682906D01*
X40214661Y-41632500D01*
X40104999Y-41615130D01*
X39995338Y-41632500D01*
X39896410Y-41682906D01*
X39817906Y-41761410D01*
X39767500Y-41860338D01*
X39750130Y-41970000D01*
X33684400Y-41970000D01*
X33684400Y-39080000D01*
X41950130Y-39080000D01*
X41967500Y-39189661D01*
X42017906Y-39288589D01*
X42096410Y-39367093D01*
X42096412Y-39367094D01*
X42096413Y-39367095D01*
X42195339Y-39417500D01*
X42305000Y-39434869D01*
X42414661Y-39417500D01*
X42513587Y-39367095D01*
X42592095Y-39288587D01*
X42642500Y-39189661D01*
X42659869Y-39080000D01*
X42642500Y-38970339D01*
X42592095Y-38871413D01*
X42592094Y-38871412D01*
X42592093Y-38871410D01*
X42513589Y-38792906D01*
X42414661Y-38742500D01*
X42305000Y-38725130D01*
X42195338Y-38742500D01*
X42096410Y-38792906D01*
X42017906Y-38871410D01*
X41967500Y-38970338D01*
X41950130Y-39080000D01*
X33684400Y-39080000D01*
X33684400Y-38888473D01*
X33704402Y-38820352D01*
X33721305Y-38799378D01*
X33782093Y-38738589D01*
X33782095Y-38738587D01*
X33832500Y-38639661D01*
X33849869Y-38530000D01*
X33832500Y-38420339D01*
X33782095Y-38321413D01*
X33782094Y-38321412D01*
X33782093Y-38321410D01*
X33703589Y-38242906D01*
X33604661Y-38192500D01*
X33495000Y-38175130D01*
X33385338Y-38192500D01*
X33286410Y-38242906D01*
X33207906Y-38321410D01*
X33157500Y-38420338D01*
X33140130Y-38529999D01*
X33157500Y-38639661D01*
X33207906Y-38738589D01*
X33268695Y-38799378D01*
X33302721Y-38861690D01*
X33305600Y-38888473D01*
X33305600Y-39360697D01*
X33285598Y-39428818D01*
X33231942Y-39475311D01*
X33161668Y-39485415D01*
X33123326Y-39467904D01*
X33122033Y-39470590D01*
X33105452Y-39462604D01*
X33071032Y-39438180D01*
X32946102Y-39313250D01*
X32912076Y-39250938D01*
X32911137Y-39218006D01*
X32909617Y-39208412D01*
X32892500Y-39100339D01*
X32842095Y-39001413D01*
X32842094Y-39001412D01*
X32842093Y-39001410D01*
X32763589Y-38922906D01*
X32664661Y-38872500D01*
X32554999Y-38855130D01*
X32445338Y-38872500D01*
X32346410Y-38922906D01*
X32267906Y-39001410D01*
X32217500Y-39100338D01*
X32204849Y-39180212D01*
X32191394Y-39208593D01*
X32201296Y-39224000D01*
X32204849Y-39239787D01*
X32217500Y-39319661D01*
X32267906Y-39418589D01*
X32346410Y-39497093D01*
X32346412Y-39497094D01*
X32346413Y-39497095D01*
X32445339Y-39547500D01*
X32555000Y-39564869D01*
X32555000Y-39564868D01*
X32555001Y-39564869D01*
X32583973Y-39560280D01*
X32654384Y-39569378D01*
X32692781Y-39595633D01*
X32748695Y-39651547D01*
X32782721Y-39713859D01*
X32785600Y-39740642D01*
X32785600Y-40590726D01*
X32765598Y-40658847D01*
X32711942Y-40705340D01*
X32641668Y-40715444D01*
X32577088Y-40685950D01*
X32570506Y-40679823D01*
X32543587Y-40652905D01*
X32444661Y-40602500D01*
X32335000Y-40585130D01*
X32225336Y-40602500D01*
X32137602Y-40647203D01*
X32067825Y-40660307D01*
X32002041Y-40633606D01*
X31961135Y-40575579D01*
X31954400Y-40534936D01*
X31954400Y-39259498D01*
X31969400Y-39208412D01*
X31955439Y-39176649D01*
X31954400Y-39160501D01*
X31954400Y-37840642D01*
X31974402Y-37772521D01*
X31991305Y-37751547D01*
X32682852Y-37060000D01*
X37760130Y-37060000D01*
X37777500Y-37169661D01*
X37827906Y-37268589D01*
X37906410Y-37347093D01*
X37906412Y-37347094D01*
X37906413Y-37347095D01*
X38005339Y-37397500D01*
X38097629Y-37412117D01*
X38114999Y-37414869D01*
X38114999Y-37414868D01*
X38115000Y-37414869D01*
X38224661Y-37397500D01*
X38323587Y-37347095D01*
X38402095Y-37268587D01*
X38452500Y-37169661D01*
X38469869Y-37060000D01*
X38452500Y-36950339D01*
X38402095Y-36851413D01*
X38402094Y-36851412D01*
X38402093Y-36851410D01*
X38323589Y-36772906D01*
X38224661Y-36722500D01*
X38115000Y-36705130D01*
X38005338Y-36722500D01*
X37906410Y-36772906D01*
X37827906Y-36851410D01*
X37777500Y-36950338D01*
X37760130Y-37060000D01*
X32682852Y-37060000D01*
X33896547Y-35846305D01*
X33958859Y-35812279D01*
X33985642Y-35809400D01*
X34140727Y-35809400D01*
X34208848Y-35829402D01*
G37*
G04 #@! TD.AperFunction*
G04 #@! TD*
M02*
