G04 #@! TF.GenerationSoftware,KiCad,Pcbnew,7.0.2-6a45011f42~172~ubuntu22.04.1*
G04 #@! TF.CreationDate,2023-05-25T04:58:00+08:00*
G04 #@! TF.ProjectId,panel_2_1,70616e65-6c5f-4325-9f31-2e6b69636164,rev?*
G04 #@! TF.SameCoordinates,Original*
G04 #@! TF.FileFunction,Soldermask,Top*
G04 #@! TF.FilePolarity,Negative*
%FSLAX46Y46*%
G04 Gerber Fmt 4.6, Leading zero omitted, Abs format (unit mm)*
G04 Created by KiCad (PCBNEW 7.0.2-6a45011f42~172~ubuntu22.04.1) date 2023-05-25 04:58:00*
%MOMM*%
%LPD*%
G01*
G04 APERTURE LIST*
G04 Aperture macros list*
%AMRoundRect*
0 Rectangle with rounded corners*
0 $1 Rounding radius*
0 $2 $3 $4 $5 $6 $7 $8 $9 X,Y pos of 4 corners*
0 Add a 4 corners polygon primitive as box body*
4,1,4,$2,$3,$4,$5,$6,$7,$8,$9,$2,$3,0*
0 Add four circle primitives for the rounded corners*
1,1,$1+$1,$2,$3*
1,1,$1+$1,$4,$5*
1,1,$1+$1,$6,$7*
1,1,$1+$1,$8,$9*
0 Add four rect primitives between the rounded corners*
20,1,$1+$1,$2,$3,$4,$5,0*
20,1,$1+$1,$4,$5,$6,$7,0*
20,1,$1+$1,$6,$7,$8,$9,0*
20,1,$1+$1,$8,$9,$2,$3,0*%
%AMFreePoly0*
4,1,6,1.000000,0.000000,0.500000,-0.750000,-0.500000,-0.750000,-0.500000,0.750000,0.500000,0.750000,1.000000,0.000000,1.000000,0.000000,$1*%
%AMFreePoly1*
4,1,6,0.500000,-0.750000,-0.650000,-0.750000,-0.150000,0.000000,-0.650000,0.750000,0.500000,0.750000,0.500000,-0.750000,0.500000,-0.750000,$1*%
G04 Aperture macros list end*
%ADD10RoundRect,0.135000X-0.185000X0.135000X-0.185000X-0.135000X0.185000X-0.135000X0.185000X0.135000X0*%
%ADD11R,1.200000X1.200000*%
%ADD12RoundRect,0.140000X-0.140000X-0.170000X0.140000X-0.170000X0.140000X0.170000X-0.140000X0.170000X0*%
%ADD13R,0.450000X0.450000*%
%ADD14R,0.200000X1.100000*%
%ADD15R,1.100000X0.200000*%
%ADD16R,3.100000X3.100000*%
%ADD17R,0.280000X0.600000*%
%ADD18R,1.700000X0.300000*%
%ADD19RoundRect,0.135000X0.185000X-0.135000X0.185000X0.135000X-0.185000X0.135000X-0.185000X-0.135000X0*%
%ADD20R,1.000000X1.524000*%
%ADD21RoundRect,0.140000X-0.170000X0.140000X-0.170000X-0.140000X0.170000X-0.140000X0.170000X0.140000X0*%
%ADD22FreePoly0,0.000000*%
%ADD23FreePoly1,0.000000*%
%ADD24C,1.000000*%
%ADD25O,1.000000X1.000000*%
%ADD26RoundRect,0.140000X0.140000X0.170000X-0.140000X0.170000X-0.140000X-0.170000X0.140000X-0.170000X0*%
%ADD27RoundRect,0.135000X-0.135000X-0.185000X0.135000X-0.185000X0.135000X0.185000X-0.135000X0.185000X0*%
%ADD28R,1.200000X1.400000*%
G04 APERTURE END LIST*
D10*
G04 #@! TO.C,R10*
X37045000Y-30710000D03*
X37045000Y-31730000D03*
G04 #@! TD*
D11*
G04 #@! TO.C,J1*
X26925000Y-36320000D03*
G04 #@! TD*
D12*
G04 #@! TO.C,C10*
X41015000Y-42400000D03*
X41975000Y-42400000D03*
G04 #@! TD*
D11*
G04 #@! TO.C,J1*
X26925000Y-20760000D03*
G04 #@! TD*
D13*
G04 #@! TO.C,U5*
X26432500Y-48855000D03*
X27282500Y-48855000D03*
X26432500Y-49705000D03*
X27282500Y-49705000D03*
G04 #@! TD*
D10*
G04 #@! TO.C,R5*
X43295000Y-20400000D03*
X43295000Y-21420000D03*
G04 #@! TD*
D12*
G04 #@! TO.C,C8*
X39445000Y-31760000D03*
X40405000Y-31760000D03*
G04 #@! TD*
D11*
G04 #@! TO.C,J10*
X40595000Y-49150000D03*
G04 #@! TD*
D14*
G04 #@! TO.C,U1*
X37300000Y-21805000D03*
X36900000Y-21805000D03*
X36500000Y-21805000D03*
X36100000Y-21805000D03*
X35700000Y-21805000D03*
X35300000Y-21805000D03*
X34900000Y-21805000D03*
X34500000Y-21805000D03*
X34100000Y-21805000D03*
X33700000Y-21805000D03*
X33300000Y-21805000D03*
X32900000Y-21805000D03*
X32500000Y-21805000D03*
X32100000Y-21805000D03*
D15*
X31150000Y-22755000D03*
X31150000Y-23155000D03*
X31150000Y-23555000D03*
X31150000Y-23955000D03*
X31150000Y-24355000D03*
X31150000Y-24755000D03*
X31150000Y-25155000D03*
X31150000Y-25555000D03*
X31150000Y-25955000D03*
X31150000Y-26355000D03*
X31150000Y-26755000D03*
X31150000Y-27155000D03*
X31150000Y-27555000D03*
X31150000Y-27955000D03*
D14*
X32100000Y-28905000D03*
X32500000Y-28905000D03*
X32900000Y-28905000D03*
X33300000Y-28905000D03*
X33700000Y-28905000D03*
X34100000Y-28905000D03*
X34500000Y-28905000D03*
X34900000Y-28905000D03*
X35300000Y-28905000D03*
X35700000Y-28905000D03*
X36100000Y-28905000D03*
X36500000Y-28905000D03*
X36900000Y-28905000D03*
X37300000Y-28905000D03*
D15*
X38250000Y-27955000D03*
X38250000Y-27555000D03*
X38250000Y-27155000D03*
X38250000Y-26755000D03*
X38250000Y-26355000D03*
X38250000Y-25955000D03*
X38250000Y-25555000D03*
X38250000Y-25155000D03*
X38250000Y-24755000D03*
X38250000Y-24355000D03*
X38250000Y-23955000D03*
X38250000Y-23555000D03*
X38250000Y-23155000D03*
X38250000Y-22755000D03*
D16*
X34700000Y-25355000D03*
G04 #@! TD*
D11*
G04 #@! TO.C,J2*
X34085000Y-33590000D03*
G04 #@! TD*
D17*
G04 #@! TO.C,U2*
X42170000Y-21335500D03*
X41670000Y-21335500D03*
X41170000Y-21335500D03*
X40670000Y-21335500D03*
X40670000Y-24349500D03*
X41170000Y-24349500D03*
X41670000Y-24349500D03*
X42170000Y-24349500D03*
D18*
X41420000Y-22842500D03*
G04 #@! TD*
D19*
G04 #@! TO.C,R1*
X29995000Y-26450000D03*
X29995000Y-25430000D03*
G04 #@! TD*
D12*
G04 #@! TO.C,C11*
X38115000Y-36020000D03*
X39075000Y-36020000D03*
G04 #@! TD*
D10*
G04 #@! TO.C,R11*
X38325000Y-30710000D03*
X38325000Y-31730000D03*
G04 #@! TD*
D14*
G04 #@! TO.C,U1*
X37300000Y-37365000D03*
X36900000Y-37365000D03*
X36500000Y-37365000D03*
X36100000Y-37365000D03*
X35700000Y-37365000D03*
X35300000Y-37365000D03*
X34900000Y-37365000D03*
X34500000Y-37365000D03*
X34100000Y-37365000D03*
X33700000Y-37365000D03*
X33300000Y-37365000D03*
X32900000Y-37365000D03*
X32500000Y-37365000D03*
X32100000Y-37365000D03*
D15*
X31150000Y-38315000D03*
X31150000Y-38715000D03*
X31150000Y-39115000D03*
X31150000Y-39515000D03*
X31150000Y-39915000D03*
X31150000Y-40315000D03*
X31150000Y-40715000D03*
X31150000Y-41115000D03*
X31150000Y-41515000D03*
X31150000Y-41915000D03*
X31150000Y-42315000D03*
X31150000Y-42715000D03*
X31150000Y-43115000D03*
X31150000Y-43515000D03*
D14*
X32100000Y-44465000D03*
X32500000Y-44465000D03*
X32900000Y-44465000D03*
X33300000Y-44465000D03*
X33700000Y-44465000D03*
X34100000Y-44465000D03*
X34500000Y-44465000D03*
X34900000Y-44465000D03*
X35300000Y-44465000D03*
X35700000Y-44465000D03*
X36100000Y-44465000D03*
X36500000Y-44465000D03*
X36900000Y-44465000D03*
X37300000Y-44465000D03*
D15*
X38250000Y-43515000D03*
X38250000Y-43115000D03*
X38250000Y-42715000D03*
X38250000Y-42315000D03*
X38250000Y-41915000D03*
X38250000Y-41515000D03*
X38250000Y-41115000D03*
X38250000Y-40715000D03*
X38250000Y-40315000D03*
X38250000Y-39915000D03*
X38250000Y-39515000D03*
X38250000Y-39115000D03*
X38250000Y-38715000D03*
X38250000Y-38315000D03*
D16*
X34700000Y-40915000D03*
G04 #@! TD*
D12*
G04 #@! TO.C,C1*
X27325000Y-27570000D03*
X28285000Y-27570000D03*
G04 #@! TD*
G04 #@! TO.C,C3*
X27345000Y-38060000D03*
X28305000Y-38060000D03*
G04 #@! TD*
D11*
G04 #@! TO.C,J3*
X35712500Y-49150000D03*
G04 #@! TD*
D12*
G04 #@! TO.C,C2*
X41015000Y-25780000D03*
X41975000Y-25780000D03*
G04 #@! TD*
D20*
G04 #@! TO.C,SW1*
X26705000Y-46860000D03*
X29905000Y-46860000D03*
G04 #@! TD*
D13*
G04 #@! TO.C,U5*
X26432500Y-33295000D03*
X27282500Y-33295000D03*
X26432500Y-34145000D03*
X27282500Y-34145000D03*
G04 #@! TD*
D10*
G04 #@! TO.C,R9*
X35765000Y-46270000D03*
X35765000Y-47290000D03*
G04 #@! TD*
D11*
G04 #@! TO.C,J6*
X30835000Y-33590000D03*
G04 #@! TD*
D21*
G04 #@! TO.C,C14*
X43295000Y-24380000D03*
X43295000Y-25340000D03*
G04 #@! TD*
D12*
G04 #@! TO.C,C12*
X35350000Y-20465000D03*
X36310000Y-20465000D03*
G04 #@! TD*
D21*
G04 #@! TO.C,C13*
X27735000Y-44185000D03*
X27735000Y-45145000D03*
G04 #@! TD*
G04 #@! TO.C,C4*
X28865000Y-44180000D03*
X28865000Y-45140000D03*
G04 #@! TD*
D17*
G04 #@! TO.C,U2*
X42170000Y-36895500D03*
X41670000Y-36895500D03*
X41170000Y-36895500D03*
X40670000Y-36895500D03*
X40670000Y-39909500D03*
X41170000Y-39909500D03*
X41670000Y-39909500D03*
X42170000Y-39909500D03*
D18*
X41420000Y-38402500D03*
G04 #@! TD*
D12*
G04 #@! TO.C,C10*
X41015000Y-26840000D03*
X41975000Y-26840000D03*
G04 #@! TD*
D10*
G04 #@! TO.C,R8*
X34485000Y-30710000D03*
X34485000Y-31730000D03*
G04 #@! TD*
D22*
G04 #@! TO.C,JP1*
X28650000Y-36570000D03*
D23*
X30100000Y-36570000D03*
G04 #@! TD*
D11*
G04 #@! TO.C,J4*
X37340000Y-33590000D03*
G04 #@! TD*
D19*
G04 #@! TO.C,R1*
X29995000Y-42010000D03*
X29995000Y-40990000D03*
G04 #@! TD*
D24*
G04 #@! TO.C,REF\u002A\u002A*
X15000000Y-66650000D03*
G04 #@! TD*
D10*
G04 #@! TO.C,R10*
X37045000Y-46270000D03*
X37045000Y-47290000D03*
G04 #@! TD*
D21*
G04 #@! TO.C,C13*
X27735000Y-28625000D03*
X27735000Y-29585000D03*
G04 #@! TD*
D19*
G04 #@! TO.C,R6*
X43295000Y-23405000D03*
X43295000Y-22385000D03*
G04 #@! TD*
D11*
G04 #@! TO.C,J5*
X38967500Y-49150000D03*
G04 #@! TD*
D12*
G04 #@! TO.C,C3*
X27345000Y-22500000D03*
X28305000Y-22500000D03*
G04 #@! TD*
D25*
G04 #@! TO.C,J8*
X43159248Y-42218121D03*
X43159248Y-43488121D03*
X43159248Y-44758121D03*
X43159248Y-46028121D03*
X43159248Y-47298121D03*
X43159248Y-48568121D03*
G04 #@! TD*
D12*
G04 #@! TO.C,C9*
X39440000Y-30675000D03*
X40400000Y-30675000D03*
G04 #@! TD*
D10*
G04 #@! TO.C,R8*
X34485000Y-46270000D03*
X34485000Y-47290000D03*
G04 #@! TD*
D12*
G04 #@! TO.C,C8*
X39445000Y-47320000D03*
X40405000Y-47320000D03*
G04 #@! TD*
D26*
G04 #@! TO.C,C6*
X40400000Y-29607500D03*
X39440000Y-29607500D03*
G04 #@! TD*
G04 #@! TO.C,C6*
X40400000Y-45167500D03*
X39440000Y-45167500D03*
G04 #@! TD*
D11*
G04 #@! TO.C,J3*
X35712500Y-33590000D03*
G04 #@! TD*
D12*
G04 #@! TO.C,C5*
X39440000Y-28540000D03*
X40400000Y-28540000D03*
G04 #@! TD*
D11*
G04 #@! TO.C,J5*
X38967500Y-33590000D03*
G04 #@! TD*
D27*
G04 #@! TO.C,R12*
X31435000Y-36040000D03*
X32455000Y-36040000D03*
G04 #@! TD*
D24*
G04 #@! TO.C,REF\u002A\u002A*
X15000000Y-3350000D03*
G04 #@! TD*
D28*
G04 #@! TO.C,X1*
X28667000Y-26133000D03*
X28667000Y-23933000D03*
X26917000Y-23933000D03*
X26917000Y-26133000D03*
G04 #@! TD*
D10*
G04 #@! TO.C,R9*
X35765000Y-30710000D03*
X35765000Y-31730000D03*
G04 #@! TD*
G04 #@! TO.C,R11*
X38325000Y-46270000D03*
X38325000Y-47290000D03*
G04 #@! TD*
D25*
G04 #@! TO.C,J8*
X43159248Y-26658121D03*
X43159248Y-27928121D03*
X43159248Y-29198121D03*
X43159248Y-30468121D03*
X43159248Y-31738121D03*
X43159248Y-33008121D03*
G04 #@! TD*
D21*
G04 #@! TO.C,C14*
X43295000Y-39940000D03*
X43295000Y-40900000D03*
G04 #@! TD*
D12*
G04 #@! TO.C,C1*
X27325000Y-43130000D03*
X28285000Y-43130000D03*
G04 #@! TD*
D11*
G04 #@! TO.C,J7*
X29202500Y-49150000D03*
G04 #@! TD*
G04 #@! TO.C,J9*
X32457500Y-33590000D03*
G04 #@! TD*
D28*
G04 #@! TO.C,X1*
X28667000Y-41693000D03*
X28667000Y-39493000D03*
X26917000Y-39493000D03*
X26917000Y-41693000D03*
G04 #@! TD*
D11*
G04 #@! TO.C,J9*
X32457500Y-49150000D03*
G04 #@! TD*
D12*
G04 #@! TO.C,C9*
X39440000Y-46235000D03*
X40400000Y-46235000D03*
G04 #@! TD*
D26*
G04 #@! TO.C,C7*
X33225000Y-30110000D03*
X32265000Y-30110000D03*
G04 #@! TD*
G04 #@! TO.C,C7*
X33225000Y-45670000D03*
X32265000Y-45670000D03*
G04 #@! TD*
D22*
G04 #@! TO.C,JP1*
X28650000Y-21010000D03*
D23*
X30100000Y-21010000D03*
G04 #@! TD*
D19*
G04 #@! TO.C,R2*
X30025000Y-45270000D03*
X30025000Y-44250000D03*
G04 #@! TD*
D11*
G04 #@! TO.C,J6*
X30835000Y-49150000D03*
G04 #@! TD*
D24*
G04 #@! TO.C,REF\u002A\u002A*
X55000000Y-3350000D03*
G04 #@! TD*
D12*
G04 #@! TO.C,C12*
X35350000Y-36025000D03*
X36310000Y-36025000D03*
G04 #@! TD*
G04 #@! TO.C,C11*
X38115000Y-20460000D03*
X39075000Y-20460000D03*
G04 #@! TD*
D11*
G04 #@! TO.C,J4*
X37340000Y-49150000D03*
G04 #@! TD*
D21*
G04 #@! TO.C,C4*
X28865000Y-28620000D03*
X28865000Y-29580000D03*
G04 #@! TD*
D12*
G04 #@! TO.C,C5*
X39440000Y-44100000D03*
X40400000Y-44100000D03*
G04 #@! TD*
D11*
G04 #@! TO.C,J7*
X29202500Y-33590000D03*
G04 #@! TD*
G04 #@! TO.C,J10*
X40595000Y-33590000D03*
G04 #@! TD*
D20*
G04 #@! TO.C,SW1*
X26705000Y-31300000D03*
X29905000Y-31300000D03*
G04 #@! TD*
D19*
G04 #@! TO.C,R2*
X30025000Y-29710000D03*
X30025000Y-28690000D03*
G04 #@! TD*
D10*
G04 #@! TO.C,R5*
X43295000Y-35960000D03*
X43295000Y-36980000D03*
G04 #@! TD*
D27*
G04 #@! TO.C,R12*
X31435000Y-20480000D03*
X32455000Y-20480000D03*
G04 #@! TD*
D19*
G04 #@! TO.C,R6*
X43295000Y-38965000D03*
X43295000Y-37945000D03*
G04 #@! TD*
D11*
G04 #@! TO.C,J2*
X34085000Y-49150000D03*
G04 #@! TD*
D12*
G04 #@! TO.C,C2*
X41015000Y-41340000D03*
X41975000Y-41340000D03*
G04 #@! TD*
M02*
