G04 #@! TF.GenerationSoftware,KiCad,Pcbnew,7.0.2-6a45011f42~172~ubuntu22.04.1*
G04 #@! TF.CreationDate,2023-05-25T04:58:00+08:00*
G04 #@! TF.ProjectId,panel_2_1,70616e65-6c5f-4325-9f31-2e6b69636164,rev?*
G04 #@! TF.SameCoordinates,Original*
G04 #@! TF.FileFunction,Copper,L2,Inr*
G04 #@! TF.FilePolarity,Positive*
%FSLAX46Y46*%
G04 Gerber Fmt 4.6, Leading zero omitted, Abs format (unit mm)*
G04 Created by KiCad (PCBNEW 7.0.2-6a45011f42~172~ubuntu22.04.1) date 2023-05-25 04:58:00*
%MOMM*%
%LPD*%
G01*
G04 APERTURE LIST*
G04 #@! TA.AperFunction,ComponentPad*
%ADD10R,1.200000X1.200000*%
G04 #@! TD*
G04 #@! TA.AperFunction,ComponentPad*
%ADD11O,1.000000X1.000000*%
G04 #@! TD*
G04 #@! TA.AperFunction,ViaPad*
%ADD12C,0.450000*%
G04 #@! TD*
G04 #@! TA.AperFunction,Conductor*
%ADD13C,0.357600*%
G04 #@! TD*
G04 #@! TA.AperFunction,Conductor*
%ADD14C,0.200000*%
G04 #@! TD*
G04 APERTURE END LIST*
D10*
G04 #@! TO.N,Board_1-NS_CPU*
G04 #@! TO.C,J1*
X26925000Y-36320000D03*
G04 #@! TD*
G04 #@! TO.N,Board_0-NS_CPU*
G04 #@! TO.C,J1*
X26925000Y-20760000D03*
G04 #@! TD*
G04 #@! TO.N,Board_1-+3V3*
G04 #@! TO.C,J10*
X40595000Y-49150000D03*
G04 #@! TD*
G04 #@! TO.N,Board_0-NS_RST*
G04 #@! TO.C,J2*
X34085000Y-33590000D03*
G04 #@! TD*
G04 #@! TO.N,Board_1-NS_CLK*
G04 #@! TO.C,J3*
X35712500Y-49150000D03*
G04 #@! TD*
G04 #@! TO.N,Board_0-NS_SDA*
G04 #@! TO.C,J6*
X30835000Y-33590000D03*
G04 #@! TD*
G04 #@! TO.N,Board_0-NS_CMD*
G04 #@! TO.C,J4*
X37340000Y-33590000D03*
G04 #@! TD*
G04 #@! TO.N,Board_1-NS_D0*
G04 #@! TO.C,J5*
X38967500Y-49150000D03*
G04 #@! TD*
D11*
G04 #@! TO.N,Board_1-RST*
G04 #@! TO.C,J8*
X43159248Y-42218121D03*
G04 #@! TO.N,Board_1-BOOT*
X43159248Y-43488121D03*
G04 #@! TO.N,Board_1-D+*
X43159248Y-44758121D03*
G04 #@! TO.N,Board_1-D-*
X43159248Y-46028121D03*
G04 #@! TO.N,Board_1-+3V3*
X43159248Y-47298121D03*
G04 #@! TO.N,Board_1-GND*
X43159248Y-48568121D03*
G04 #@! TD*
D10*
G04 #@! TO.N,Board_0-NS_CLK*
G04 #@! TO.C,J3*
X35712500Y-33590000D03*
G04 #@! TD*
G04 #@! TO.N,Board_0-NS_D0*
G04 #@! TO.C,J5*
X38967500Y-33590000D03*
G04 #@! TD*
D11*
G04 #@! TO.N,Board_0-RST*
G04 #@! TO.C,J8*
X43159248Y-26658121D03*
G04 #@! TO.N,Board_0-BOOT*
X43159248Y-27928121D03*
G04 #@! TO.N,Board_0-D+*
X43159248Y-29198121D03*
G04 #@! TO.N,Board_0-D-*
X43159248Y-30468121D03*
G04 #@! TO.N,Board_0-+3V3*
X43159248Y-31738121D03*
G04 #@! TO.N,Board_0-GND*
X43159248Y-33008121D03*
G04 #@! TD*
D10*
G04 #@! TO.N,Board_1-NS_SCL*
G04 #@! TO.C,J7*
X29202500Y-49150000D03*
G04 #@! TD*
G04 #@! TO.N,Board_0-GND*
G04 #@! TO.C,J9*
X32457500Y-33590000D03*
G04 #@! TD*
G04 #@! TO.N,Board_1-GND*
G04 #@! TO.C,J9*
X32457500Y-49150000D03*
G04 #@! TD*
G04 #@! TO.N,Board_1-NS_SDA*
G04 #@! TO.C,J6*
X30835000Y-49150000D03*
G04 #@! TD*
G04 #@! TO.N,Board_1-NS_CMD*
G04 #@! TO.C,J4*
X37340000Y-49150000D03*
G04 #@! TD*
G04 #@! TO.N,Board_0-NS_SCL*
G04 #@! TO.C,J7*
X29202500Y-33590000D03*
G04 #@! TD*
G04 #@! TO.N,Board_0-+3V3*
G04 #@! TO.C,J10*
X40595000Y-33590000D03*
G04 #@! TD*
G04 #@! TO.N,Board_1-NS_RST*
G04 #@! TO.C,J2*
X34085000Y-49150000D03*
G04 #@! TD*
D12*
G04 #@! TO.N,Board_0-+1V1*
X37135000Y-27155000D03*
X29785000Y-27710000D03*
X32345000Y-26435000D03*
G04 #@! TO.N,Board_0-+3V3*
X40105000Y-26410000D03*
X42305000Y-23520000D03*
X38250000Y-28740000D03*
X33225000Y-31030000D03*
X26675000Y-28780000D03*
X30975000Y-30070000D03*
X32335000Y-25380000D03*
X38115000Y-21500000D03*
X34450000Y-20740000D03*
G04 #@! TO.N,Board_0-BOOT*
X42365000Y-20310000D03*
X28285000Y-31310000D03*
G04 #@! TO.N,Board_0-GND*
X41435000Y-22200000D03*
X31215000Y-21860000D03*
X36245000Y-27640000D03*
G04 #@! TO.N,Board_0-NS_SCL*
X32555000Y-23650000D03*
G04 #@! TO.N,Board_0-NS_SDA*
X33495000Y-22970000D03*
G04 #@! TO.N,Board_0-RST*
X31095000Y-28680000D03*
G04 #@! TO.N,Board_1-+1V1*
X32345000Y-41995000D03*
X29785000Y-43270000D03*
X37135000Y-42715000D03*
G04 #@! TO.N,Board_1-+3V3*
X33225000Y-46590000D03*
X30975000Y-45630000D03*
X38250000Y-44300000D03*
X38115000Y-37060000D03*
X40105000Y-41970000D03*
X42305000Y-39080000D03*
X26675000Y-44340000D03*
X32335000Y-40940000D03*
X34450000Y-36300000D03*
G04 #@! TO.N,Board_1-BOOT*
X42365000Y-35870000D03*
X28285000Y-46870000D03*
G04 #@! TO.N,Board_1-GND*
X36245000Y-43200000D03*
X31215000Y-37420000D03*
X41435000Y-37760000D03*
G04 #@! TO.N,Board_1-NS_SCL*
X32555000Y-39210000D03*
G04 #@! TO.N,Board_1-NS_SDA*
X33495000Y-38530000D03*
G04 #@! TO.N,Board_1-RST*
X31095000Y-44240000D03*
G04 #@! TD*
D13*
G04 #@! TO.N,Board_0-+1V1*
X32350000Y-26440000D02*
X36420000Y-26440000D01*
D14*
X29785000Y-27710000D02*
X31060000Y-26435000D01*
X31060000Y-26435000D02*
X32345000Y-26435000D01*
D13*
X36420000Y-26440000D02*
X37135000Y-27155000D01*
X32345000Y-26435000D02*
X32350000Y-26440000D01*
D14*
G04 #@! TO.N,Board_0-RST*
X37335000Y-28680000D02*
X38195000Y-27820000D01*
X43159248Y-26665752D02*
X43159248Y-26658121D01*
X42005000Y-27820000D02*
X43159248Y-26665752D01*
X38195000Y-27820000D02*
X42005000Y-27820000D01*
X31095000Y-28680000D02*
X37335000Y-28680000D01*
G04 #@! TO.N,Board_1-+1V1*
X31060000Y-41995000D02*
X32345000Y-41995000D01*
D13*
X32350000Y-42000000D02*
X36420000Y-42000000D01*
X32345000Y-41995000D02*
X32350000Y-42000000D01*
D14*
X29785000Y-43270000D02*
X31060000Y-41995000D01*
D13*
X36420000Y-42000000D02*
X37135000Y-42715000D01*
D14*
G04 #@! TO.N,Board_1-RST*
X38195000Y-43380000D02*
X42005000Y-43380000D01*
X42005000Y-43380000D02*
X43159248Y-42225752D01*
X43159248Y-42225752D02*
X43159248Y-42218121D01*
X37335000Y-44240000D02*
X38195000Y-43380000D01*
X31095000Y-44240000D02*
X37335000Y-44240000D01*
G04 #@! TD*
G04 #@! TA.AperFunction,Conductor*
G04 #@! TO.N,Board_0-GND*
G36*
X44387121Y-19500002D02*
G01*
X44433614Y-19553658D01*
X44445000Y-19606000D01*
X44445000Y-34833933D01*
X44424998Y-34902054D01*
X44371342Y-34948547D01*
X44318933Y-34959933D01*
X25690851Y-34950066D01*
X25622741Y-34930028D01*
X25576277Y-34876348D01*
X25564918Y-34824149D01*
X25564514Y-34199897D01*
X28502000Y-34199897D01*
X28503832Y-34209105D01*
X28507831Y-34229213D01*
X28530043Y-34262457D01*
X28563287Y-34284669D01*
X28592601Y-34290500D01*
X29812398Y-34290499D01*
X29841713Y-34284669D01*
X29874957Y-34262457D01*
X29897169Y-34229213D01*
X29897169Y-34229212D01*
X29911093Y-34208374D01*
X29911265Y-34208489D01*
X29928071Y-34176356D01*
X29989763Y-34141219D01*
X30060658Y-34145014D01*
X30118247Y-34186535D01*
X30132142Y-34216958D01*
X30140331Y-34229213D01*
X30162543Y-34262457D01*
X30195787Y-34284669D01*
X30225101Y-34290500D01*
X31444898Y-34290499D01*
X31474213Y-34284669D01*
X31507457Y-34262457D01*
X31529669Y-34229213D01*
X31535500Y-34199899D01*
X31535500Y-34199897D01*
X33384500Y-34199897D01*
X33386332Y-34209105D01*
X33390331Y-34229213D01*
X33412543Y-34262457D01*
X33445787Y-34284669D01*
X33475101Y-34290500D01*
X34694898Y-34290499D01*
X34724213Y-34284669D01*
X34757457Y-34262457D01*
X34779669Y-34229213D01*
X34779669Y-34229212D01*
X34793593Y-34208374D01*
X34796781Y-34210504D01*
X34808041Y-34188957D01*
X34869721Y-34153799D01*
X34940617Y-34157570D01*
X34998221Y-34199071D01*
X35002807Y-34209105D01*
X35003906Y-34208372D01*
X35017830Y-34229212D01*
X35017831Y-34229213D01*
X35040043Y-34262457D01*
X35073287Y-34284669D01*
X35102601Y-34290500D01*
X36322398Y-34290499D01*
X36351713Y-34284669D01*
X36384957Y-34262457D01*
X36407169Y-34229213D01*
X36407169Y-34229212D01*
X36421093Y-34208374D01*
X36424281Y-34210504D01*
X36435541Y-34188957D01*
X36497221Y-34153799D01*
X36568117Y-34157570D01*
X36625721Y-34199071D01*
X36630307Y-34209105D01*
X36631406Y-34208372D01*
X36645330Y-34229212D01*
X36645331Y-34229213D01*
X36667543Y-34262457D01*
X36700787Y-34284669D01*
X36730101Y-34290500D01*
X37949898Y-34290499D01*
X37979213Y-34284669D01*
X38012457Y-34262457D01*
X38034669Y-34229213D01*
X38034669Y-34229212D01*
X38048593Y-34208374D01*
X38051781Y-34210504D01*
X38063041Y-34188957D01*
X38124721Y-34153799D01*
X38195617Y-34157570D01*
X38253221Y-34199071D01*
X38257807Y-34209105D01*
X38258906Y-34208372D01*
X38272830Y-34229212D01*
X38272831Y-34229213D01*
X38295043Y-34262457D01*
X38328287Y-34284669D01*
X38357601Y-34290500D01*
X39577398Y-34290499D01*
X39606713Y-34284669D01*
X39639957Y-34262457D01*
X39662169Y-34229213D01*
X39662169Y-34229212D01*
X39676093Y-34208374D01*
X39679281Y-34210504D01*
X39690541Y-34188957D01*
X39752221Y-34153799D01*
X39823117Y-34157570D01*
X39880721Y-34199071D01*
X39885307Y-34209105D01*
X39886406Y-34208372D01*
X39900330Y-34229212D01*
X39900331Y-34229213D01*
X39922543Y-34262457D01*
X39955787Y-34284669D01*
X39985101Y-34290500D01*
X41204898Y-34290499D01*
X41234213Y-34284669D01*
X41267457Y-34262457D01*
X41289669Y-34229213D01*
X41295500Y-34199899D01*
X41295499Y-33262121D01*
X42400564Y-33262121D01*
X42433911Y-33357423D01*
X42529826Y-33510071D01*
X42657298Y-33637543D01*
X42809942Y-33733456D01*
X42905248Y-33766803D01*
X42905248Y-33262121D01*
X42400564Y-33262121D01*
X41295499Y-33262121D01*
X41295499Y-32980102D01*
X41289669Y-32950787D01*
X41267457Y-32917543D01*
X41234213Y-32895331D01*
X41234212Y-32895330D01*
X41204899Y-32889500D01*
X39985102Y-32889500D01*
X39955787Y-32895331D01*
X39922543Y-32917543D01*
X39886407Y-32971626D01*
X39883212Y-32969491D01*
X39871907Y-32991095D01*
X39810206Y-33026217D01*
X39739312Y-33022405D01*
X39681733Y-32980870D01*
X39677182Y-32970900D01*
X39676094Y-32971628D01*
X39662169Y-32950787D01*
X39639957Y-32917543D01*
X39606713Y-32895331D01*
X39606712Y-32895330D01*
X39577399Y-32889500D01*
X38357602Y-32889500D01*
X38328287Y-32895331D01*
X38295043Y-32917543D01*
X38258907Y-32971626D01*
X38255712Y-32969491D01*
X38244407Y-32991095D01*
X38182706Y-33026217D01*
X38111812Y-33022405D01*
X38054233Y-32980870D01*
X38049682Y-32970900D01*
X38048594Y-32971628D01*
X38034669Y-32950787D01*
X38012457Y-32917543D01*
X37979213Y-32895331D01*
X37979212Y-32895330D01*
X37949899Y-32889500D01*
X36730102Y-32889500D01*
X36700787Y-32895331D01*
X36667543Y-32917543D01*
X36631407Y-32971626D01*
X36628212Y-32969491D01*
X36616907Y-32991095D01*
X36555206Y-33026217D01*
X36484312Y-33022405D01*
X36426733Y-32980870D01*
X36422182Y-32970900D01*
X36421094Y-32971628D01*
X36407169Y-32950787D01*
X36384957Y-32917543D01*
X36351713Y-32895331D01*
X36351712Y-32895330D01*
X36322399Y-32889500D01*
X35102602Y-32889500D01*
X35073287Y-32895331D01*
X35040043Y-32917543D01*
X35003907Y-32971626D01*
X35000712Y-32969491D01*
X34989407Y-32991095D01*
X34927706Y-33026217D01*
X34856812Y-33022405D01*
X34799233Y-32980870D01*
X34794682Y-32970900D01*
X34793594Y-32971628D01*
X34779669Y-32950787D01*
X34757457Y-32917543D01*
X34724213Y-32895331D01*
X34724212Y-32895330D01*
X34694899Y-32889500D01*
X33475102Y-32889500D01*
X33445787Y-32895331D01*
X33412543Y-32917543D01*
X33390330Y-32950787D01*
X33384500Y-32980100D01*
X33384500Y-34199897D01*
X31535500Y-34199897D01*
X31535499Y-32980102D01*
X31529669Y-32950787D01*
X31507457Y-32917543D01*
X31474213Y-32895331D01*
X31474212Y-32895330D01*
X31444899Y-32889500D01*
X30225102Y-32889500D01*
X30195787Y-32895331D01*
X30162543Y-32917543D01*
X30126407Y-32971626D01*
X30126233Y-32971509D01*
X30109421Y-33003650D01*
X30047726Y-33038782D01*
X29976832Y-33034982D01*
X29919246Y-32993456D01*
X29905355Y-32963039D01*
X29897169Y-32950787D01*
X29874957Y-32917543D01*
X29841713Y-32895331D01*
X29841712Y-32895330D01*
X29812399Y-32889500D01*
X28592602Y-32889500D01*
X28563287Y-32895331D01*
X28530043Y-32917543D01*
X28507830Y-32950787D01*
X28502000Y-32980100D01*
X28502000Y-34199897D01*
X25564514Y-34199897D01*
X25562646Y-31309999D01*
X27754965Y-31309999D01*
X27773025Y-31447183D01*
X27825974Y-31575016D01*
X27825976Y-31575018D01*
X27910209Y-31684791D01*
X27979708Y-31738120D01*
X28019983Y-31769025D01*
X28147816Y-31821974D01*
X28163775Y-31824075D01*
X28285000Y-31840035D01*
X28422183Y-31821974D01*
X28550018Y-31769024D01*
X28659791Y-31684791D01*
X28744024Y-31575018D01*
X28750231Y-31560034D01*
X28796974Y-31447183D01*
X28802555Y-31404790D01*
X28815035Y-31310000D01*
X28796974Y-31172817D01*
X28744024Y-31044983D01*
X28732526Y-31029999D01*
X32694965Y-31029999D01*
X32713025Y-31167183D01*
X32765974Y-31295016D01*
X32765976Y-31295018D01*
X32850209Y-31404791D01*
X32905455Y-31447183D01*
X32959983Y-31489025D01*
X33087816Y-31541974D01*
X33103775Y-31544075D01*
X33225000Y-31560035D01*
X33362183Y-31541974D01*
X33490018Y-31489024D01*
X33599791Y-31404791D01*
X33684024Y-31295018D01*
X33736974Y-31167183D01*
X33755035Y-31030000D01*
X33736974Y-30892817D01*
X33684024Y-30764983D01*
X33599791Y-30655209D01*
X33504351Y-30581974D01*
X33490016Y-30570974D01*
X33362183Y-30518025D01*
X33240958Y-30502066D01*
X33225000Y-30499965D01*
X33224999Y-30499965D01*
X33087817Y-30518025D01*
X32959983Y-30570975D01*
X32850209Y-30655209D01*
X32765975Y-30764983D01*
X32713025Y-30892817D01*
X32694965Y-31029999D01*
X28732526Y-31029999D01*
X28659791Y-30935209D01*
X28591455Y-30882772D01*
X28550016Y-30850974D01*
X28422183Y-30798025D01*
X28300958Y-30782066D01*
X28285000Y-30779965D01*
X28284999Y-30779965D01*
X28147817Y-30798025D01*
X28019983Y-30850975D01*
X27910209Y-30935209D01*
X27825975Y-31044983D01*
X27773025Y-31172817D01*
X27754965Y-31309999D01*
X25562646Y-31309999D01*
X25561845Y-30069999D01*
X30444965Y-30069999D01*
X30463025Y-30207183D01*
X30515974Y-30335016D01*
X30515976Y-30335018D01*
X30600209Y-30444791D01*
X30672112Y-30499965D01*
X30709983Y-30529025D01*
X30837816Y-30581974D01*
X30853775Y-30584075D01*
X30975000Y-30600035D01*
X31112183Y-30581974D01*
X31138735Y-30570976D01*
X31240016Y-30529025D01*
X31240016Y-30529024D01*
X31240018Y-30529024D01*
X31349791Y-30444791D01*
X31434024Y-30335018D01*
X31453141Y-30288866D01*
X31486974Y-30207183D01*
X31486973Y-30207182D01*
X31505035Y-30070000D01*
X31486974Y-29932817D01*
X31434024Y-29804983D01*
X31349791Y-29695209D01*
X31281455Y-29642772D01*
X31240016Y-29610974D01*
X31112183Y-29558025D01*
X30990958Y-29542066D01*
X30975000Y-29539965D01*
X30974999Y-29539965D01*
X30837817Y-29558025D01*
X30709983Y-29610975D01*
X30600209Y-29695209D01*
X30515975Y-29804983D01*
X30463025Y-29932817D01*
X30444965Y-30069999D01*
X25561845Y-30069999D01*
X25561011Y-28779999D01*
X26144965Y-28779999D01*
X26163025Y-28917183D01*
X26215974Y-29045016D01*
X26215976Y-29045018D01*
X26300209Y-29154791D01*
X26389263Y-29223125D01*
X26409983Y-29239025D01*
X26537816Y-29291974D01*
X26555876Y-29294351D01*
X26675000Y-29310035D01*
X26812183Y-29291974D01*
X26812182Y-29291974D01*
X26940016Y-29239025D01*
X26940016Y-29239024D01*
X26940018Y-29239024D01*
X27049791Y-29154791D01*
X27134024Y-29045018D01*
X27186974Y-28917183D01*
X27205035Y-28780000D01*
X27191869Y-28679999D01*
X30564965Y-28679999D01*
X30583025Y-28817183D01*
X30635974Y-28945016D01*
X30635976Y-28945018D01*
X30720209Y-29054791D01*
X30809263Y-29123125D01*
X30829983Y-29139025D01*
X30957816Y-29191974D01*
X30975877Y-29194351D01*
X31095000Y-29210035D01*
X31232183Y-29191974D01*
X31232182Y-29191974D01*
X31360016Y-29139025D01*
X31360016Y-29139024D01*
X31360018Y-29139024D01*
X31469791Y-29054791D01*
X31554024Y-28945018D01*
X31554024Y-28945015D01*
X31564123Y-28931856D01*
X31564960Y-28932498D01*
X31597672Y-28891903D01*
X31665035Y-28869480D01*
X31669536Y-28869400D01*
X37281414Y-28869400D01*
X37307021Y-28873750D01*
X37313247Y-28873048D01*
X37313249Y-28873049D01*
X37338606Y-28870192D01*
X37352713Y-28869400D01*
X37356339Y-28869400D01*
X37356341Y-28869400D01*
X37359884Y-28868591D01*
X37373796Y-28866227D01*
X37399164Y-28863369D01*
X37399166Y-28863367D01*
X37405401Y-28862665D01*
X37414386Y-28858944D01*
X37439237Y-28839125D01*
X37450770Y-28830942D01*
X37453836Y-28829016D01*
X37456401Y-28826450D01*
X37466933Y-28817038D01*
X37486887Y-28801126D01*
X37486888Y-28801123D01*
X37491788Y-28797216D01*
X37506819Y-28776031D01*
X37518695Y-28764155D01*
X37581005Y-28730131D01*
X37651820Y-28735196D01*
X37708656Y-28777743D01*
X37732710Y-28836805D01*
X37738026Y-28877183D01*
X37790974Y-29005016D01*
X37801602Y-29018866D01*
X37875209Y-29114791D01*
X37964263Y-29183125D01*
X37984983Y-29199025D01*
X38112816Y-29251974D01*
X38128775Y-29254075D01*
X38250000Y-29270035D01*
X38387183Y-29251974D01*
X38515018Y-29199024D01*
X38624791Y-29114791D01*
X38709024Y-29005018D01*
X38761974Y-28877183D01*
X38780035Y-28740000D01*
X38761974Y-28602817D01*
X38709024Y-28474983D01*
X38624791Y-28365209D01*
X38546599Y-28305209D01*
X38515016Y-28280974D01*
X38444602Y-28251809D01*
X38389321Y-28207262D01*
X38366899Y-28139898D01*
X38384457Y-28071107D01*
X38436418Y-28022728D01*
X38492819Y-28009400D01*
X41951414Y-28009400D01*
X41977021Y-28013750D01*
X41983247Y-28013048D01*
X41983249Y-28013049D01*
X42008606Y-28010192D01*
X42022713Y-28009400D01*
X42026339Y-28009400D01*
X42026341Y-28009400D01*
X42029884Y-28008591D01*
X42043796Y-28006227D01*
X42069164Y-28003369D01*
X42069166Y-28003367D01*
X42075401Y-28002665D01*
X42084386Y-27998944D01*
X42109237Y-27979125D01*
X42120770Y-27970942D01*
X42123836Y-27969016D01*
X42126401Y-27966450D01*
X42136925Y-27957043D01*
X42156887Y-27941126D01*
X42156888Y-27941122D01*
X42160560Y-27938195D01*
X42226290Y-27911361D01*
X42296093Y-27924323D01*
X42347808Y-27972965D01*
X42364328Y-28022598D01*
X42373880Y-28107378D01*
X42433458Y-28277642D01*
X42529432Y-28430384D01*
X42573074Y-28474026D01*
X42607100Y-28536338D01*
X42602035Y-28607153D01*
X42573074Y-28652216D01*
X42529432Y-28695857D01*
X42433458Y-28848599D01*
X42373880Y-29018863D01*
X42353683Y-29198120D01*
X42373880Y-29377378D01*
X42433458Y-29547642D01*
X42529432Y-29700384D01*
X42573074Y-29744026D01*
X42607100Y-29806338D01*
X42602035Y-29877153D01*
X42573074Y-29922216D01*
X42529432Y-29965857D01*
X42433458Y-30118599D01*
X42373880Y-30288863D01*
X42353683Y-30468120D01*
X42373880Y-30647378D01*
X42433458Y-30817642D01*
X42529432Y-30970384D01*
X42573074Y-31014026D01*
X42607100Y-31076338D01*
X42602035Y-31147153D01*
X42573074Y-31192216D01*
X42529432Y-31235857D01*
X42433458Y-31388599D01*
X42373880Y-31558863D01*
X42353683Y-31738120D01*
X42373880Y-31917378D01*
X42433458Y-32087642D01*
X42529432Y-32240384D01*
X42573427Y-32284379D01*
X42607453Y-32346691D01*
X42602388Y-32417506D01*
X42573428Y-32462569D01*
X42529824Y-32506173D01*
X42433911Y-32658818D01*
X42400563Y-32754120D01*
X42400564Y-32754121D01*
X42949189Y-32754121D01*
X42947119Y-32755316D01*
X42873447Y-32843114D01*
X42834248Y-32950815D01*
X42834248Y-33065427D01*
X42873447Y-33173128D01*
X42947119Y-33260926D01*
X43046377Y-33318233D01*
X43130812Y-33333121D01*
X43187684Y-33333121D01*
X43272119Y-33318233D01*
X43369307Y-33262121D01*
X43413248Y-33262121D01*
X43413248Y-33766803D01*
X43508553Y-33733456D01*
X43661197Y-33637543D01*
X43788669Y-33510071D01*
X43884584Y-33357423D01*
X43917932Y-33262121D01*
X43413248Y-33262121D01*
X43369307Y-33262121D01*
X43371377Y-33260926D01*
X43445049Y-33173128D01*
X43484248Y-33065427D01*
X43484248Y-32950815D01*
X43445049Y-32843114D01*
X43371377Y-32755316D01*
X43369307Y-32754121D01*
X43917932Y-32754121D01*
X43917932Y-32754120D01*
X43884584Y-32658818D01*
X43788669Y-32506170D01*
X43745068Y-32462569D01*
X43711042Y-32400257D01*
X43716107Y-32329442D01*
X43745066Y-32284380D01*
X43789064Y-32240383D01*
X43885037Y-32087643D01*
X43944616Y-31917376D01*
X43964813Y-31738121D01*
X43944616Y-31558866D01*
X43885037Y-31388599D01*
X43789064Y-31235859D01*
X43789063Y-31235857D01*
X43745422Y-31192216D01*
X43711396Y-31129904D01*
X43716461Y-31059089D01*
X43745422Y-31014026D01*
X43789063Y-30970384D01*
X43811165Y-30935209D01*
X43885037Y-30817643D01*
X43944616Y-30647376D01*
X43964813Y-30468121D01*
X43944616Y-30288866D01*
X43885037Y-30118599D01*
X43789064Y-29965859D01*
X43789063Y-29965857D01*
X43745422Y-29922216D01*
X43711396Y-29859904D01*
X43716461Y-29789089D01*
X43745422Y-29744026D01*
X43789063Y-29700384D01*
X43845242Y-29610976D01*
X43885037Y-29547643D01*
X43944616Y-29377376D01*
X43964813Y-29198121D01*
X43944616Y-29018866D01*
X43885037Y-28848599D01*
X43865297Y-28817183D01*
X43789063Y-28695857D01*
X43745422Y-28652216D01*
X43711396Y-28589904D01*
X43716461Y-28519089D01*
X43745422Y-28474026D01*
X43789063Y-28430384D01*
X43789064Y-28430383D01*
X43885037Y-28277643D01*
X43944616Y-28107376D01*
X43964813Y-27928121D01*
X43944616Y-27748866D01*
X43885037Y-27578599D01*
X43833890Y-27497199D01*
X43789063Y-27425857D01*
X43745422Y-27382216D01*
X43711396Y-27319904D01*
X43716461Y-27249089D01*
X43745422Y-27204026D01*
X43789063Y-27160384D01*
X43792447Y-27154999D01*
X43885037Y-27007643D01*
X43944616Y-26837376D01*
X43964813Y-26658121D01*
X43944616Y-26478866D01*
X43885037Y-26308599D01*
X43845402Y-26245520D01*
X43789063Y-26155857D01*
X43661511Y-26028305D01*
X43508769Y-25932331D01*
X43338505Y-25872753D01*
X43159248Y-25852556D01*
X42979990Y-25872753D01*
X42809726Y-25932331D01*
X42656984Y-26028305D01*
X42529432Y-26155857D01*
X42433458Y-26308599D01*
X42373880Y-26478863D01*
X42360393Y-26598564D01*
X42353683Y-26658121D01*
X42360162Y-26715628D01*
X42373880Y-26837378D01*
X42437390Y-27018879D01*
X42441009Y-27089783D01*
X42407557Y-27149589D01*
X41963453Y-27593695D01*
X41901141Y-27627720D01*
X41874357Y-27630600D01*
X38248592Y-27630600D01*
X38222980Y-27626248D01*
X38191388Y-27629808D01*
X38177280Y-27630600D01*
X38173659Y-27630600D01*
X38170114Y-27631409D01*
X38156195Y-27633773D01*
X38124612Y-27637332D01*
X38115605Y-27641063D01*
X38090753Y-27660881D01*
X38079240Y-27669050D01*
X38076162Y-27670983D01*
X38073590Y-27673556D01*
X38063069Y-27682958D01*
X38038215Y-27702779D01*
X38023183Y-27723963D01*
X37293453Y-28453695D01*
X37231140Y-28487720D01*
X37204357Y-28490600D01*
X31669536Y-28490600D01*
X31601415Y-28470598D01*
X31564426Y-28427910D01*
X31564123Y-28428144D01*
X31560211Y-28423046D01*
X31554922Y-28416942D01*
X31554128Y-28415119D01*
X31469792Y-28305210D01*
X31433865Y-28277642D01*
X31361319Y-28221974D01*
X31360016Y-28220974D01*
X31232183Y-28168025D01*
X31110958Y-28152066D01*
X31095000Y-28149965D01*
X31094999Y-28149965D01*
X30957817Y-28168025D01*
X30829983Y-28220975D01*
X30720209Y-28305209D01*
X30635975Y-28414983D01*
X30583025Y-28542817D01*
X30564965Y-28679999D01*
X27191869Y-28679999D01*
X27186974Y-28642817D01*
X27134024Y-28514983D01*
X27049791Y-28405209D01*
X26981455Y-28352772D01*
X26940016Y-28320974D01*
X26812183Y-28268025D01*
X26689006Y-28251809D01*
X26675000Y-28249965D01*
X26674999Y-28249965D01*
X26537817Y-28268025D01*
X26409983Y-28320975D01*
X26300209Y-28405209D01*
X26215975Y-28514983D01*
X26163025Y-28642817D01*
X26144965Y-28779999D01*
X25561011Y-28779999D01*
X25560319Y-27709999D01*
X29254965Y-27709999D01*
X29273025Y-27847183D01*
X29325974Y-27975016D01*
X29347731Y-28003369D01*
X29410209Y-28084791D01*
X29439645Y-28107378D01*
X29519983Y-28169025D01*
X29647816Y-28221974D01*
X29665876Y-28224351D01*
X29785000Y-28240035D01*
X29922183Y-28221974D01*
X30050018Y-28169024D01*
X30159791Y-28084791D01*
X30244024Y-27975018D01*
X30244875Y-27972965D01*
X30296974Y-27847183D01*
X30296973Y-27847182D01*
X30315035Y-27710000D01*
X30296974Y-27572817D01*
X30294809Y-27556370D01*
X30295855Y-27556232D01*
X30290281Y-27504391D01*
X30322060Y-27440904D01*
X30325154Y-27437696D01*
X31101547Y-26661304D01*
X31163860Y-26627279D01*
X31190643Y-26624400D01*
X31770464Y-26624400D01*
X31838585Y-26644402D01*
X31875573Y-26687089D01*
X31875877Y-26686856D01*
X31879788Y-26691954D01*
X31885078Y-26698058D01*
X31885871Y-26699880D01*
X31885974Y-26700015D01*
X31885976Y-26700018D01*
X31970209Y-26809791D01*
X32006161Y-26837378D01*
X32079983Y-26894025D01*
X32207816Y-26946974D01*
X32223775Y-26949075D01*
X32345000Y-26965035D01*
X32482183Y-26946974D01*
X32498938Y-26940034D01*
X32610016Y-26894025D01*
X32610016Y-26894024D01*
X32610018Y-26894024D01*
X32719791Y-26809791D01*
X32738975Y-26784791D01*
X32759921Y-26757495D01*
X32817259Y-26715628D01*
X32859882Y-26708200D01*
X36256716Y-26708200D01*
X36324837Y-26728202D01*
X36345811Y-26745104D01*
X36578564Y-26977856D01*
X36612589Y-27040169D01*
X36614391Y-27083397D01*
X36605677Y-27149589D01*
X36604965Y-27155000D01*
X36608252Y-27179965D01*
X36623025Y-27292183D01*
X36675974Y-27420016D01*
X36707772Y-27461455D01*
X36760209Y-27529791D01*
X36816281Y-27572817D01*
X36869983Y-27614025D01*
X36997816Y-27666974D01*
X37013585Y-27669050D01*
X37135000Y-27685035D01*
X37272183Y-27666974D01*
X37334739Y-27641063D01*
X37400016Y-27614025D01*
X37400016Y-27614024D01*
X37400018Y-27614024D01*
X37509791Y-27529791D01*
X37594024Y-27420018D01*
X37646974Y-27292183D01*
X37665035Y-27155000D01*
X37646974Y-27017817D01*
X37594024Y-26889983D01*
X37509791Y-26780209D01*
X37425629Y-26715628D01*
X37400016Y-26695974D01*
X37272183Y-26643025D01*
X37163591Y-26628729D01*
X37135000Y-26624965D01*
X37134999Y-26624965D01*
X37134998Y-26624965D01*
X37063397Y-26634391D01*
X36993249Y-26623451D01*
X36957856Y-26598564D01*
X36769292Y-26409999D01*
X39574965Y-26409999D01*
X39593025Y-26547183D01*
X39645974Y-26675016D01*
X39665159Y-26700018D01*
X39730209Y-26784791D01*
X39798738Y-26837376D01*
X39839983Y-26869025D01*
X39967816Y-26921974D01*
X39983775Y-26924075D01*
X40105000Y-26940035D01*
X40242183Y-26921974D01*
X40370018Y-26869024D01*
X40479791Y-26784791D01*
X40564024Y-26675018D01*
X40569705Y-26661304D01*
X40616974Y-26547183D01*
X40625968Y-26478866D01*
X40635035Y-26410000D01*
X40616974Y-26272817D01*
X40564024Y-26144983D01*
X40479791Y-26035209D01*
X40402598Y-25975976D01*
X40370016Y-25950974D01*
X40242183Y-25898025D01*
X40120958Y-25882066D01*
X40105000Y-25879965D01*
X40104999Y-25879965D01*
X39967817Y-25898025D01*
X39839983Y-25950975D01*
X39730209Y-26035209D01*
X39645975Y-26144983D01*
X39593025Y-26272817D01*
X39574965Y-26409999D01*
X36769292Y-26409999D01*
X36637095Y-26277802D01*
X36621426Y-26258709D01*
X36617165Y-26252332D01*
X36613361Y-26246639D01*
X36613360Y-26246638D01*
X36601290Y-26238573D01*
X36601283Y-26238567D01*
X36524647Y-26187360D01*
X36420000Y-26166546D01*
X36405757Y-26169379D01*
X36381177Y-26171800D01*
X32867554Y-26171800D01*
X32799433Y-26151798D01*
X32767592Y-26122504D01*
X32719792Y-26060210D01*
X32678213Y-26028305D01*
X32646049Y-26003624D01*
X32604183Y-25946286D01*
X32599962Y-25875415D01*
X32634727Y-25813513D01*
X32646051Y-25803701D01*
X32709791Y-25754791D01*
X32794024Y-25645018D01*
X32846974Y-25517183D01*
X32865035Y-25380000D01*
X32846974Y-25242817D01*
X32794024Y-25114983D01*
X32709791Y-25005209D01*
X32641455Y-24952772D01*
X32600016Y-24920974D01*
X32472183Y-24868025D01*
X32350958Y-24852066D01*
X32335000Y-24849965D01*
X32334999Y-24849965D01*
X32197817Y-24868025D01*
X32069983Y-24920975D01*
X31960209Y-25005209D01*
X31875975Y-25114983D01*
X31823025Y-25242817D01*
X31804965Y-25379999D01*
X31823025Y-25517183D01*
X31875974Y-25645016D01*
X31875976Y-25645018D01*
X31960209Y-25754791D01*
X32033949Y-25811375D01*
X32075816Y-25868712D01*
X32080037Y-25939583D01*
X32045272Y-26001486D01*
X32033950Y-26011297D01*
X31970208Y-26060209D01*
X31875877Y-26183144D01*
X31875040Y-26182501D01*
X31842325Y-26223099D01*
X31774962Y-26245520D01*
X31770464Y-26245600D01*
X31113588Y-26245600D01*
X31087980Y-26241249D01*
X31056393Y-26244808D01*
X31042286Y-26245600D01*
X31038655Y-26245600D01*
X31035104Y-26246410D01*
X31021198Y-26248772D01*
X30989614Y-26252332D01*
X30980605Y-26256063D01*
X30955752Y-26275882D01*
X30944239Y-26284051D01*
X30941161Y-26285984D01*
X30938590Y-26288556D01*
X30928069Y-26297958D01*
X30903215Y-26317779D01*
X30888181Y-26338965D01*
X30057331Y-27169815D01*
X29995019Y-27203841D01*
X29938678Y-27199811D01*
X29938629Y-27200191D01*
X29932255Y-27199351D01*
X29924204Y-27198776D01*
X29922355Y-27198048D01*
X29808286Y-27183030D01*
X29785000Y-27179965D01*
X29784999Y-27179965D01*
X29647817Y-27198025D01*
X29519983Y-27250975D01*
X29410209Y-27335209D01*
X29325975Y-27444983D01*
X29273025Y-27572817D01*
X29254965Y-27709999D01*
X25560319Y-27709999D01*
X25558038Y-24180034D01*
X25557695Y-23649999D01*
X32024965Y-23649999D01*
X32043025Y-23787183D01*
X32095974Y-23915016D01*
X32095976Y-23915018D01*
X32180209Y-24024791D01*
X32269263Y-24093125D01*
X32289983Y-24109025D01*
X32417816Y-24161974D01*
X32433775Y-24164075D01*
X32555000Y-24180035D01*
X32692183Y-24161974D01*
X32820018Y-24109024D01*
X32929791Y-24024791D01*
X33014024Y-23915018D01*
X33066974Y-23787183D01*
X33085035Y-23650000D01*
X33074390Y-23569146D01*
X33082054Y-23519999D01*
X41774965Y-23519999D01*
X41793025Y-23657183D01*
X41845974Y-23785016D01*
X41845976Y-23785018D01*
X41930209Y-23894791D01*
X42019263Y-23963125D01*
X42039983Y-23979025D01*
X42167816Y-24031974D01*
X42183775Y-24034075D01*
X42305000Y-24050035D01*
X42442183Y-24031974D01*
X42570018Y-23979024D01*
X42679791Y-23894791D01*
X42764024Y-23785018D01*
X42816974Y-23657183D01*
X42835035Y-23520000D01*
X42816974Y-23382817D01*
X42764024Y-23254983D01*
X42679791Y-23145209D01*
X42611455Y-23092772D01*
X42570016Y-23060974D01*
X42442183Y-23008025D01*
X42320958Y-22992066D01*
X42305000Y-22989965D01*
X42304999Y-22989965D01*
X42167817Y-23008025D01*
X42039983Y-23060975D01*
X41930209Y-23145209D01*
X41845975Y-23254983D01*
X41793025Y-23382817D01*
X41774965Y-23519999D01*
X33082054Y-23519999D01*
X33085329Y-23498999D01*
X33132457Y-23445900D01*
X33200811Y-23426710D01*
X33247527Y-23436291D01*
X33357817Y-23481974D01*
X33495000Y-23500035D01*
X33632183Y-23481974D01*
X33719275Y-23445900D01*
X33760016Y-23429025D01*
X33760016Y-23429024D01*
X33760018Y-23429024D01*
X33869791Y-23344791D01*
X33954024Y-23235018D01*
X33971309Y-23193289D01*
X34006974Y-23107183D01*
X34013057Y-23060976D01*
X34025035Y-22970000D01*
X34006974Y-22832817D01*
X33954024Y-22704983D01*
X33869791Y-22595209D01*
X33801455Y-22542772D01*
X33760016Y-22510974D01*
X33632183Y-22458025D01*
X33510958Y-22442066D01*
X33495000Y-22439965D01*
X33494999Y-22439965D01*
X33357817Y-22458025D01*
X33229983Y-22510975D01*
X33120209Y-22595209D01*
X33035975Y-22704983D01*
X32983025Y-22832817D01*
X32964965Y-22970000D01*
X32975609Y-23050852D01*
X32964669Y-23121001D01*
X32917541Y-23174099D01*
X32849187Y-23193289D01*
X32802470Y-23183707D01*
X32692183Y-23138025D01*
X32570958Y-23122066D01*
X32555000Y-23119965D01*
X32554999Y-23119965D01*
X32417817Y-23138025D01*
X32289983Y-23190975D01*
X32180209Y-23275209D01*
X32095975Y-23384983D01*
X32043025Y-23512817D01*
X32024965Y-23649999D01*
X25557695Y-23649999D01*
X25556306Y-21499999D01*
X37584965Y-21499999D01*
X37603025Y-21637183D01*
X37655974Y-21765016D01*
X37655976Y-21765018D01*
X37740209Y-21874791D01*
X37829263Y-21943125D01*
X37849983Y-21959025D01*
X37977816Y-22011974D01*
X37995876Y-22014351D01*
X38115000Y-22030035D01*
X38252183Y-22011974D01*
X38380018Y-21959024D01*
X38489791Y-21874791D01*
X38574024Y-21765018D01*
X38626974Y-21637183D01*
X38645035Y-21500000D01*
X38626974Y-21362817D01*
X38574024Y-21234983D01*
X38489791Y-21125209D01*
X38421455Y-21072772D01*
X38380016Y-21040974D01*
X38252183Y-20988025D01*
X38130958Y-20972066D01*
X38115000Y-20969965D01*
X38114999Y-20969965D01*
X37977817Y-20988025D01*
X37849983Y-21040975D01*
X37740209Y-21125209D01*
X37655975Y-21234983D01*
X37603025Y-21362817D01*
X37584965Y-21499999D01*
X25556306Y-21499999D01*
X25556222Y-21369897D01*
X26224500Y-21369897D01*
X26229171Y-21393381D01*
X26230331Y-21399213D01*
X26252543Y-21432457D01*
X26285787Y-21454669D01*
X26315101Y-21460500D01*
X27534898Y-21460499D01*
X27564213Y-21454669D01*
X27597457Y-21432457D01*
X27619669Y-21399213D01*
X27625500Y-21369899D01*
X27625499Y-20739999D01*
X33919965Y-20739999D01*
X33938025Y-20877183D01*
X33990974Y-21005016D01*
X33990976Y-21005018D01*
X34075209Y-21114791D01*
X34164263Y-21183125D01*
X34184983Y-21199025D01*
X34312816Y-21251974D01*
X34328775Y-21254075D01*
X34450000Y-21270035D01*
X34587183Y-21251974D01*
X34715018Y-21199024D01*
X34824791Y-21114791D01*
X34909024Y-21005018D01*
X34961974Y-20877183D01*
X34980035Y-20740000D01*
X34961974Y-20602817D01*
X34909024Y-20474983D01*
X34824791Y-20365209D01*
X34752841Y-20309999D01*
X41834965Y-20309999D01*
X41853025Y-20447183D01*
X41905974Y-20575016D01*
X41905976Y-20575018D01*
X41990209Y-20684791D01*
X42062158Y-20740000D01*
X42099983Y-20769025D01*
X42227816Y-20821974D01*
X42245876Y-20824351D01*
X42365000Y-20840035D01*
X42502183Y-20821974D01*
X42630018Y-20769024D01*
X42739791Y-20684791D01*
X42824024Y-20575018D01*
X42876974Y-20447183D01*
X42895035Y-20310000D01*
X42876974Y-20172817D01*
X42824024Y-20044983D01*
X42739791Y-19935209D01*
X42671455Y-19882772D01*
X42630016Y-19850974D01*
X42502183Y-19798025D01*
X42380958Y-19782066D01*
X42365000Y-19779965D01*
X42364999Y-19779965D01*
X42227817Y-19798025D01*
X42099983Y-19850975D01*
X41990209Y-19935209D01*
X41905975Y-20044983D01*
X41853025Y-20172817D01*
X41834965Y-20309999D01*
X34752841Y-20309999D01*
X34715016Y-20280974D01*
X34587183Y-20228025D01*
X34465958Y-20212066D01*
X34450000Y-20209965D01*
X34449999Y-20209965D01*
X34312817Y-20228025D01*
X34184983Y-20280975D01*
X34075209Y-20365209D01*
X33990975Y-20474983D01*
X33938025Y-20602817D01*
X33919965Y-20739999D01*
X27625499Y-20739999D01*
X27625499Y-20150102D01*
X27619669Y-20120787D01*
X27597457Y-20087543D01*
X27564213Y-20065331D01*
X27564212Y-20065330D01*
X27534899Y-20059500D01*
X26315102Y-20059500D01*
X26285787Y-20065331D01*
X26252543Y-20087543D01*
X26230330Y-20120787D01*
X26224500Y-20150100D01*
X26224500Y-21369897D01*
X25556222Y-21369897D01*
X25555082Y-19606081D01*
X25575040Y-19537948D01*
X25628666Y-19491420D01*
X25681082Y-19480000D01*
X44319000Y-19480000D01*
X44387121Y-19500002D01*
G37*
G04 #@! TD.AperFunction*
G04 #@! TD*
G04 #@! TA.AperFunction,Conductor*
G04 #@! TO.N,Board_1-GND*
G36*
X44387121Y-35060002D02*
G01*
X44433614Y-35113658D01*
X44445000Y-35166000D01*
X44445000Y-50393933D01*
X44424998Y-50462054D01*
X44371342Y-50508547D01*
X44318933Y-50519933D01*
X25690851Y-50510066D01*
X25622741Y-50490028D01*
X25576277Y-50436348D01*
X25564918Y-50384149D01*
X25564514Y-49759897D01*
X28502000Y-49759897D01*
X28503832Y-49769105D01*
X28507831Y-49789213D01*
X28530043Y-49822457D01*
X28563287Y-49844669D01*
X28592601Y-49850500D01*
X29812398Y-49850499D01*
X29841713Y-49844669D01*
X29874957Y-49822457D01*
X29897169Y-49789213D01*
X29897169Y-49789212D01*
X29911093Y-49768374D01*
X29911265Y-49768489D01*
X29928071Y-49736356D01*
X29989763Y-49701219D01*
X30060658Y-49705014D01*
X30118247Y-49746535D01*
X30132142Y-49776958D01*
X30140331Y-49789213D01*
X30162543Y-49822457D01*
X30195787Y-49844669D01*
X30225101Y-49850500D01*
X31444898Y-49850499D01*
X31474213Y-49844669D01*
X31507457Y-49822457D01*
X31529669Y-49789213D01*
X31535500Y-49759899D01*
X31535500Y-49759897D01*
X33384500Y-49759897D01*
X33386332Y-49769105D01*
X33390331Y-49789213D01*
X33412543Y-49822457D01*
X33445787Y-49844669D01*
X33475101Y-49850500D01*
X34694898Y-49850499D01*
X34724213Y-49844669D01*
X34757457Y-49822457D01*
X34779669Y-49789213D01*
X34779669Y-49789212D01*
X34793593Y-49768374D01*
X34796781Y-49770504D01*
X34808041Y-49748957D01*
X34869721Y-49713799D01*
X34940617Y-49717570D01*
X34998221Y-49759071D01*
X35002807Y-49769105D01*
X35003906Y-49768372D01*
X35017830Y-49789212D01*
X35017831Y-49789213D01*
X35040043Y-49822457D01*
X35073287Y-49844669D01*
X35102601Y-49850500D01*
X36322398Y-49850499D01*
X36351713Y-49844669D01*
X36384957Y-49822457D01*
X36407169Y-49789213D01*
X36407169Y-49789212D01*
X36421093Y-49768374D01*
X36424281Y-49770504D01*
X36435541Y-49748957D01*
X36497221Y-49713799D01*
X36568117Y-49717570D01*
X36625721Y-49759071D01*
X36630307Y-49769105D01*
X36631406Y-49768372D01*
X36645330Y-49789212D01*
X36645331Y-49789213D01*
X36667543Y-49822457D01*
X36700787Y-49844669D01*
X36730101Y-49850500D01*
X37949898Y-49850499D01*
X37979213Y-49844669D01*
X38012457Y-49822457D01*
X38034669Y-49789213D01*
X38034669Y-49789212D01*
X38048593Y-49768374D01*
X38051781Y-49770504D01*
X38063041Y-49748957D01*
X38124721Y-49713799D01*
X38195617Y-49717570D01*
X38253221Y-49759071D01*
X38257807Y-49769105D01*
X38258906Y-49768372D01*
X38272830Y-49789212D01*
X38272831Y-49789213D01*
X38295043Y-49822457D01*
X38328287Y-49844669D01*
X38357601Y-49850500D01*
X39577398Y-49850499D01*
X39606713Y-49844669D01*
X39639957Y-49822457D01*
X39662169Y-49789213D01*
X39662169Y-49789212D01*
X39676093Y-49768374D01*
X39679281Y-49770504D01*
X39690541Y-49748957D01*
X39752221Y-49713799D01*
X39823117Y-49717570D01*
X39880721Y-49759071D01*
X39885307Y-49769105D01*
X39886406Y-49768372D01*
X39900330Y-49789212D01*
X39900331Y-49789213D01*
X39922543Y-49822457D01*
X39955787Y-49844669D01*
X39985101Y-49850500D01*
X41204898Y-49850499D01*
X41234213Y-49844669D01*
X41267457Y-49822457D01*
X41289669Y-49789213D01*
X41295500Y-49759899D01*
X41295499Y-48822121D01*
X42400564Y-48822121D01*
X42433911Y-48917423D01*
X42529826Y-49070071D01*
X42657298Y-49197543D01*
X42809942Y-49293456D01*
X42905248Y-49326803D01*
X42905248Y-48822121D01*
X42400564Y-48822121D01*
X41295499Y-48822121D01*
X41295499Y-48540102D01*
X41289669Y-48510787D01*
X41267457Y-48477543D01*
X41234213Y-48455331D01*
X41234212Y-48455330D01*
X41204899Y-48449500D01*
X39985102Y-48449500D01*
X39955787Y-48455331D01*
X39922543Y-48477543D01*
X39886407Y-48531626D01*
X39883212Y-48529491D01*
X39871907Y-48551095D01*
X39810206Y-48586217D01*
X39739312Y-48582405D01*
X39681733Y-48540870D01*
X39677182Y-48530900D01*
X39676094Y-48531628D01*
X39662169Y-48510787D01*
X39639957Y-48477543D01*
X39606713Y-48455331D01*
X39606712Y-48455330D01*
X39577399Y-48449500D01*
X38357602Y-48449500D01*
X38328287Y-48455331D01*
X38295043Y-48477543D01*
X38258907Y-48531626D01*
X38255712Y-48529491D01*
X38244407Y-48551095D01*
X38182706Y-48586217D01*
X38111812Y-48582405D01*
X38054233Y-48540870D01*
X38049682Y-48530900D01*
X38048594Y-48531628D01*
X38034669Y-48510787D01*
X38012457Y-48477543D01*
X37979213Y-48455331D01*
X37979212Y-48455330D01*
X37949899Y-48449500D01*
X36730102Y-48449500D01*
X36700787Y-48455331D01*
X36667543Y-48477543D01*
X36631407Y-48531626D01*
X36628212Y-48529491D01*
X36616907Y-48551095D01*
X36555206Y-48586217D01*
X36484312Y-48582405D01*
X36426733Y-48540870D01*
X36422182Y-48530900D01*
X36421094Y-48531628D01*
X36407169Y-48510787D01*
X36384957Y-48477543D01*
X36351713Y-48455331D01*
X36351712Y-48455330D01*
X36322399Y-48449500D01*
X35102602Y-48449500D01*
X35073287Y-48455331D01*
X35040043Y-48477543D01*
X35003907Y-48531626D01*
X35000712Y-48529491D01*
X34989407Y-48551095D01*
X34927706Y-48586217D01*
X34856812Y-48582405D01*
X34799233Y-48540870D01*
X34794682Y-48530900D01*
X34793594Y-48531628D01*
X34779669Y-48510787D01*
X34757457Y-48477543D01*
X34724213Y-48455331D01*
X34724212Y-48455330D01*
X34694899Y-48449500D01*
X33475102Y-48449500D01*
X33445787Y-48455331D01*
X33412543Y-48477543D01*
X33390330Y-48510787D01*
X33384500Y-48540100D01*
X33384500Y-49759897D01*
X31535500Y-49759897D01*
X31535499Y-48540102D01*
X31529669Y-48510787D01*
X31507457Y-48477543D01*
X31474213Y-48455331D01*
X31474212Y-48455330D01*
X31444899Y-48449500D01*
X30225102Y-48449500D01*
X30195787Y-48455331D01*
X30162543Y-48477543D01*
X30126407Y-48531626D01*
X30126233Y-48531509D01*
X30109421Y-48563650D01*
X30047726Y-48598782D01*
X29976832Y-48594982D01*
X29919246Y-48553456D01*
X29905355Y-48523039D01*
X29897169Y-48510787D01*
X29874957Y-48477543D01*
X29841713Y-48455331D01*
X29841712Y-48455330D01*
X29812399Y-48449500D01*
X28592602Y-48449500D01*
X28563287Y-48455331D01*
X28530043Y-48477543D01*
X28507830Y-48510787D01*
X28502000Y-48540100D01*
X28502000Y-49759897D01*
X25564514Y-49759897D01*
X25562646Y-46869999D01*
X27754965Y-46869999D01*
X27773025Y-47007183D01*
X27825974Y-47135016D01*
X27825976Y-47135018D01*
X27910209Y-47244791D01*
X27979708Y-47298120D01*
X28019983Y-47329025D01*
X28147816Y-47381974D01*
X28163775Y-47384075D01*
X28285000Y-47400035D01*
X28422183Y-47381974D01*
X28550018Y-47329024D01*
X28659791Y-47244791D01*
X28744024Y-47135018D01*
X28750231Y-47120034D01*
X28796974Y-47007183D01*
X28802555Y-46964790D01*
X28815035Y-46870000D01*
X28796974Y-46732817D01*
X28744024Y-46604983D01*
X28732526Y-46589999D01*
X32694965Y-46589999D01*
X32713025Y-46727183D01*
X32765974Y-46855016D01*
X32765976Y-46855018D01*
X32850209Y-46964791D01*
X32905455Y-47007183D01*
X32959983Y-47049025D01*
X33087816Y-47101974D01*
X33103775Y-47104075D01*
X33225000Y-47120035D01*
X33362183Y-47101974D01*
X33490018Y-47049024D01*
X33599791Y-46964791D01*
X33684024Y-46855018D01*
X33736974Y-46727183D01*
X33755035Y-46590000D01*
X33736974Y-46452817D01*
X33684024Y-46324983D01*
X33599791Y-46215209D01*
X33504351Y-46141974D01*
X33490016Y-46130974D01*
X33362183Y-46078025D01*
X33240958Y-46062066D01*
X33225000Y-46059965D01*
X33224999Y-46059965D01*
X33087817Y-46078025D01*
X32959983Y-46130975D01*
X32850209Y-46215209D01*
X32765975Y-46324983D01*
X32713025Y-46452817D01*
X32694965Y-46589999D01*
X28732526Y-46589999D01*
X28659791Y-46495209D01*
X28591455Y-46442772D01*
X28550016Y-46410974D01*
X28422183Y-46358025D01*
X28300958Y-46342066D01*
X28285000Y-46339965D01*
X28284999Y-46339965D01*
X28147817Y-46358025D01*
X28019983Y-46410975D01*
X27910209Y-46495209D01*
X27825975Y-46604983D01*
X27773025Y-46732817D01*
X27754965Y-46869999D01*
X25562646Y-46869999D01*
X25561845Y-45629999D01*
X30444965Y-45629999D01*
X30463025Y-45767183D01*
X30515974Y-45895016D01*
X30515976Y-45895018D01*
X30600209Y-46004791D01*
X30672112Y-46059965D01*
X30709983Y-46089025D01*
X30837816Y-46141974D01*
X30853775Y-46144075D01*
X30975000Y-46160035D01*
X31112183Y-46141974D01*
X31138735Y-46130976D01*
X31240016Y-46089025D01*
X31240016Y-46089024D01*
X31240018Y-46089024D01*
X31349791Y-46004791D01*
X31434024Y-45895018D01*
X31453141Y-45848866D01*
X31486974Y-45767183D01*
X31486973Y-45767182D01*
X31505035Y-45630000D01*
X31486974Y-45492817D01*
X31434024Y-45364983D01*
X31349791Y-45255209D01*
X31281455Y-45202772D01*
X31240016Y-45170974D01*
X31112183Y-45118025D01*
X30990958Y-45102066D01*
X30975000Y-45099965D01*
X30974999Y-45099965D01*
X30837817Y-45118025D01*
X30709983Y-45170975D01*
X30600209Y-45255209D01*
X30515975Y-45364983D01*
X30463025Y-45492817D01*
X30444965Y-45629999D01*
X25561845Y-45629999D01*
X25561011Y-44339999D01*
X26144965Y-44339999D01*
X26163025Y-44477183D01*
X26215974Y-44605016D01*
X26215976Y-44605018D01*
X26300209Y-44714791D01*
X26389263Y-44783125D01*
X26409983Y-44799025D01*
X26537816Y-44851974D01*
X26555876Y-44854351D01*
X26675000Y-44870035D01*
X26812183Y-44851974D01*
X26812182Y-44851974D01*
X26940016Y-44799025D01*
X26940016Y-44799024D01*
X26940018Y-44799024D01*
X27049791Y-44714791D01*
X27134024Y-44605018D01*
X27186974Y-44477183D01*
X27205035Y-44340000D01*
X27191869Y-44239999D01*
X30564965Y-44239999D01*
X30583025Y-44377183D01*
X30635974Y-44505016D01*
X30635976Y-44505018D01*
X30720209Y-44614791D01*
X30809263Y-44683125D01*
X30829983Y-44699025D01*
X30957816Y-44751974D01*
X30975877Y-44754351D01*
X31095000Y-44770035D01*
X31232183Y-44751974D01*
X31232182Y-44751974D01*
X31360016Y-44699025D01*
X31360016Y-44699024D01*
X31360018Y-44699024D01*
X31469791Y-44614791D01*
X31554024Y-44505018D01*
X31554024Y-44505015D01*
X31564123Y-44491856D01*
X31564960Y-44492498D01*
X31597672Y-44451903D01*
X31665035Y-44429480D01*
X31669536Y-44429400D01*
X37281414Y-44429400D01*
X37307021Y-44433750D01*
X37313247Y-44433048D01*
X37313249Y-44433049D01*
X37338606Y-44430192D01*
X37352713Y-44429400D01*
X37356339Y-44429400D01*
X37356341Y-44429400D01*
X37359884Y-44428591D01*
X37373796Y-44426227D01*
X37399164Y-44423369D01*
X37399166Y-44423367D01*
X37405401Y-44422665D01*
X37414386Y-44418944D01*
X37439237Y-44399125D01*
X37450770Y-44390942D01*
X37453836Y-44389016D01*
X37456401Y-44386450D01*
X37466933Y-44377038D01*
X37486887Y-44361126D01*
X37486888Y-44361123D01*
X37491788Y-44357216D01*
X37506819Y-44336031D01*
X37518695Y-44324155D01*
X37581005Y-44290131D01*
X37651820Y-44295196D01*
X37708656Y-44337743D01*
X37732710Y-44396805D01*
X37738026Y-44437183D01*
X37790974Y-44565016D01*
X37801602Y-44578866D01*
X37875209Y-44674791D01*
X37964263Y-44743125D01*
X37984983Y-44759025D01*
X38112816Y-44811974D01*
X38128775Y-44814075D01*
X38250000Y-44830035D01*
X38387183Y-44811974D01*
X38515018Y-44759024D01*
X38624791Y-44674791D01*
X38709024Y-44565018D01*
X38761974Y-44437183D01*
X38780035Y-44300000D01*
X38761974Y-44162817D01*
X38709024Y-44034983D01*
X38624791Y-43925209D01*
X38546599Y-43865209D01*
X38515016Y-43840974D01*
X38444602Y-43811809D01*
X38389321Y-43767262D01*
X38366899Y-43699898D01*
X38384457Y-43631107D01*
X38436418Y-43582728D01*
X38492819Y-43569400D01*
X41951414Y-43569400D01*
X41977021Y-43573750D01*
X41983247Y-43573048D01*
X41983249Y-43573049D01*
X42008606Y-43570192D01*
X42022713Y-43569400D01*
X42026339Y-43569400D01*
X42026341Y-43569400D01*
X42029884Y-43568591D01*
X42043796Y-43566227D01*
X42069164Y-43563369D01*
X42069166Y-43563367D01*
X42075401Y-43562665D01*
X42084386Y-43558944D01*
X42109237Y-43539125D01*
X42120770Y-43530942D01*
X42123836Y-43529016D01*
X42126401Y-43526450D01*
X42136925Y-43517043D01*
X42156887Y-43501126D01*
X42156888Y-43501122D01*
X42160560Y-43498195D01*
X42226290Y-43471361D01*
X42296093Y-43484323D01*
X42347808Y-43532965D01*
X42364328Y-43582598D01*
X42373880Y-43667378D01*
X42433458Y-43837642D01*
X42529432Y-43990384D01*
X42573074Y-44034026D01*
X42607100Y-44096338D01*
X42602035Y-44167153D01*
X42573074Y-44212216D01*
X42529432Y-44255857D01*
X42433458Y-44408599D01*
X42373880Y-44578863D01*
X42353683Y-44758120D01*
X42373880Y-44937378D01*
X42433458Y-45107642D01*
X42529432Y-45260384D01*
X42573074Y-45304026D01*
X42607100Y-45366338D01*
X42602035Y-45437153D01*
X42573074Y-45482216D01*
X42529432Y-45525857D01*
X42433458Y-45678599D01*
X42373880Y-45848863D01*
X42353683Y-46028120D01*
X42373880Y-46207378D01*
X42433458Y-46377642D01*
X42529432Y-46530384D01*
X42573074Y-46574026D01*
X42607100Y-46636338D01*
X42602035Y-46707153D01*
X42573074Y-46752216D01*
X42529432Y-46795857D01*
X42433458Y-46948599D01*
X42373880Y-47118863D01*
X42353683Y-47298120D01*
X42373880Y-47477378D01*
X42433458Y-47647642D01*
X42529432Y-47800384D01*
X42573427Y-47844379D01*
X42607453Y-47906691D01*
X42602388Y-47977506D01*
X42573428Y-48022569D01*
X42529824Y-48066173D01*
X42433911Y-48218818D01*
X42400563Y-48314120D01*
X42400564Y-48314121D01*
X42949189Y-48314121D01*
X42947119Y-48315316D01*
X42873447Y-48403114D01*
X42834248Y-48510815D01*
X42834248Y-48625427D01*
X42873447Y-48733128D01*
X42947119Y-48820926D01*
X43046377Y-48878233D01*
X43130812Y-48893121D01*
X43187684Y-48893121D01*
X43272119Y-48878233D01*
X43369307Y-48822121D01*
X43413248Y-48822121D01*
X43413248Y-49326803D01*
X43508553Y-49293456D01*
X43661197Y-49197543D01*
X43788669Y-49070071D01*
X43884584Y-48917423D01*
X43917932Y-48822121D01*
X43413248Y-48822121D01*
X43369307Y-48822121D01*
X43371377Y-48820926D01*
X43445049Y-48733128D01*
X43484248Y-48625427D01*
X43484248Y-48510815D01*
X43445049Y-48403114D01*
X43371377Y-48315316D01*
X43369307Y-48314121D01*
X43917932Y-48314121D01*
X43917932Y-48314120D01*
X43884584Y-48218818D01*
X43788669Y-48066170D01*
X43745068Y-48022569D01*
X43711042Y-47960257D01*
X43716107Y-47889442D01*
X43745066Y-47844380D01*
X43789064Y-47800383D01*
X43885037Y-47647643D01*
X43944616Y-47477376D01*
X43964813Y-47298121D01*
X43944616Y-47118866D01*
X43885037Y-46948599D01*
X43789064Y-46795859D01*
X43789063Y-46795857D01*
X43745422Y-46752216D01*
X43711396Y-46689904D01*
X43716461Y-46619089D01*
X43745422Y-46574026D01*
X43789063Y-46530384D01*
X43811165Y-46495209D01*
X43885037Y-46377643D01*
X43944616Y-46207376D01*
X43964813Y-46028121D01*
X43944616Y-45848866D01*
X43885037Y-45678599D01*
X43789064Y-45525859D01*
X43789063Y-45525857D01*
X43745422Y-45482216D01*
X43711396Y-45419904D01*
X43716461Y-45349089D01*
X43745422Y-45304026D01*
X43789063Y-45260384D01*
X43845242Y-45170976D01*
X43885037Y-45107643D01*
X43944616Y-44937376D01*
X43964813Y-44758121D01*
X43944616Y-44578866D01*
X43885037Y-44408599D01*
X43865297Y-44377183D01*
X43789063Y-44255857D01*
X43745422Y-44212216D01*
X43711396Y-44149904D01*
X43716461Y-44079089D01*
X43745422Y-44034026D01*
X43789063Y-43990384D01*
X43789064Y-43990383D01*
X43885037Y-43837643D01*
X43944616Y-43667376D01*
X43964813Y-43488121D01*
X43944616Y-43308866D01*
X43885037Y-43138599D01*
X43833890Y-43057199D01*
X43789063Y-42985857D01*
X43745422Y-42942216D01*
X43711396Y-42879904D01*
X43716461Y-42809089D01*
X43745422Y-42764026D01*
X43789063Y-42720384D01*
X43792447Y-42714999D01*
X43885037Y-42567643D01*
X43944616Y-42397376D01*
X43964813Y-42218121D01*
X43944616Y-42038866D01*
X43885037Y-41868599D01*
X43845402Y-41805520D01*
X43789063Y-41715857D01*
X43661511Y-41588305D01*
X43508769Y-41492331D01*
X43338505Y-41432753D01*
X43159248Y-41412556D01*
X42979990Y-41432753D01*
X42809726Y-41492331D01*
X42656984Y-41588305D01*
X42529432Y-41715857D01*
X42433458Y-41868599D01*
X42373880Y-42038863D01*
X42360393Y-42158564D01*
X42353683Y-42218121D01*
X42360162Y-42275628D01*
X42373880Y-42397378D01*
X42437390Y-42578879D01*
X42441009Y-42649783D01*
X42407557Y-42709589D01*
X41963453Y-43153695D01*
X41901141Y-43187720D01*
X41874357Y-43190600D01*
X38248592Y-43190600D01*
X38222980Y-43186248D01*
X38191388Y-43189808D01*
X38177280Y-43190600D01*
X38173659Y-43190600D01*
X38170114Y-43191409D01*
X38156195Y-43193773D01*
X38124612Y-43197332D01*
X38115605Y-43201063D01*
X38090753Y-43220881D01*
X38079240Y-43229050D01*
X38076162Y-43230983D01*
X38073590Y-43233556D01*
X38063069Y-43242958D01*
X38038215Y-43262779D01*
X38023183Y-43283963D01*
X37293453Y-44013695D01*
X37231140Y-44047720D01*
X37204357Y-44050600D01*
X31669536Y-44050600D01*
X31601415Y-44030598D01*
X31564426Y-43987910D01*
X31564123Y-43988144D01*
X31560211Y-43983046D01*
X31554922Y-43976942D01*
X31554128Y-43975119D01*
X31469792Y-43865210D01*
X31433865Y-43837642D01*
X31361319Y-43781974D01*
X31360016Y-43780974D01*
X31232183Y-43728025D01*
X31110958Y-43712066D01*
X31095000Y-43709965D01*
X31094999Y-43709965D01*
X30957817Y-43728025D01*
X30829983Y-43780975D01*
X30720209Y-43865209D01*
X30635975Y-43974983D01*
X30583025Y-44102817D01*
X30564965Y-44239999D01*
X27191869Y-44239999D01*
X27186974Y-44202817D01*
X27134024Y-44074983D01*
X27049791Y-43965209D01*
X26981455Y-43912772D01*
X26940016Y-43880974D01*
X26812183Y-43828025D01*
X26689006Y-43811809D01*
X26675000Y-43809965D01*
X26674999Y-43809965D01*
X26537817Y-43828025D01*
X26409983Y-43880975D01*
X26300209Y-43965209D01*
X26215975Y-44074983D01*
X26163025Y-44202817D01*
X26144965Y-44339999D01*
X25561011Y-44339999D01*
X25560319Y-43269999D01*
X29254965Y-43269999D01*
X29273025Y-43407183D01*
X29325974Y-43535016D01*
X29347731Y-43563369D01*
X29410209Y-43644791D01*
X29439645Y-43667378D01*
X29519983Y-43729025D01*
X29647816Y-43781974D01*
X29665876Y-43784351D01*
X29785000Y-43800035D01*
X29922183Y-43781974D01*
X30050018Y-43729024D01*
X30159791Y-43644791D01*
X30244024Y-43535018D01*
X30244875Y-43532965D01*
X30296974Y-43407183D01*
X30296973Y-43407182D01*
X30315035Y-43270000D01*
X30296974Y-43132817D01*
X30294809Y-43116370D01*
X30295855Y-43116232D01*
X30290281Y-43064391D01*
X30322060Y-43000904D01*
X30325154Y-42997696D01*
X31101547Y-42221304D01*
X31163860Y-42187279D01*
X31190643Y-42184400D01*
X31770464Y-42184400D01*
X31838585Y-42204402D01*
X31875573Y-42247089D01*
X31875877Y-42246856D01*
X31879788Y-42251954D01*
X31885078Y-42258058D01*
X31885871Y-42259880D01*
X31885974Y-42260015D01*
X31885976Y-42260018D01*
X31970209Y-42369791D01*
X32006161Y-42397378D01*
X32079983Y-42454025D01*
X32207816Y-42506974D01*
X32223775Y-42509075D01*
X32345000Y-42525035D01*
X32482183Y-42506974D01*
X32498938Y-42500034D01*
X32610016Y-42454025D01*
X32610016Y-42454024D01*
X32610018Y-42454024D01*
X32719791Y-42369791D01*
X32738975Y-42344791D01*
X32759921Y-42317495D01*
X32817259Y-42275628D01*
X32859882Y-42268200D01*
X36256716Y-42268200D01*
X36324837Y-42288202D01*
X36345811Y-42305104D01*
X36578564Y-42537856D01*
X36612589Y-42600169D01*
X36614391Y-42643397D01*
X36605677Y-42709589D01*
X36604965Y-42715000D01*
X36608252Y-42739965D01*
X36623025Y-42852183D01*
X36675974Y-42980016D01*
X36707772Y-43021455D01*
X36760209Y-43089791D01*
X36816281Y-43132817D01*
X36869983Y-43174025D01*
X36997816Y-43226974D01*
X37013585Y-43229050D01*
X37135000Y-43245035D01*
X37272183Y-43226974D01*
X37334739Y-43201063D01*
X37400016Y-43174025D01*
X37400016Y-43174024D01*
X37400018Y-43174024D01*
X37509791Y-43089791D01*
X37594024Y-42980018D01*
X37646974Y-42852183D01*
X37665035Y-42715000D01*
X37646974Y-42577817D01*
X37594024Y-42449983D01*
X37509791Y-42340209D01*
X37425629Y-42275628D01*
X37400016Y-42255974D01*
X37272183Y-42203025D01*
X37163591Y-42188729D01*
X37135000Y-42184965D01*
X37134999Y-42184965D01*
X37134998Y-42184965D01*
X37063397Y-42194391D01*
X36993249Y-42183451D01*
X36957856Y-42158564D01*
X36769292Y-41969999D01*
X39574965Y-41969999D01*
X39593025Y-42107183D01*
X39645974Y-42235016D01*
X39665159Y-42260018D01*
X39730209Y-42344791D01*
X39798738Y-42397376D01*
X39839983Y-42429025D01*
X39967816Y-42481974D01*
X39983775Y-42484075D01*
X40105000Y-42500035D01*
X40242183Y-42481974D01*
X40370018Y-42429024D01*
X40479791Y-42344791D01*
X40564024Y-42235018D01*
X40569705Y-42221304D01*
X40616974Y-42107183D01*
X40625968Y-42038866D01*
X40635035Y-41970000D01*
X40616974Y-41832817D01*
X40564024Y-41704983D01*
X40479791Y-41595209D01*
X40402598Y-41535976D01*
X40370016Y-41510974D01*
X40242183Y-41458025D01*
X40120958Y-41442066D01*
X40105000Y-41439965D01*
X40104999Y-41439965D01*
X39967817Y-41458025D01*
X39839983Y-41510975D01*
X39730209Y-41595209D01*
X39645975Y-41704983D01*
X39593025Y-41832817D01*
X39574965Y-41969999D01*
X36769292Y-41969999D01*
X36637095Y-41837802D01*
X36621426Y-41818709D01*
X36617165Y-41812332D01*
X36613361Y-41806639D01*
X36613360Y-41806638D01*
X36601290Y-41798573D01*
X36601283Y-41798567D01*
X36524647Y-41747360D01*
X36420000Y-41726546D01*
X36405757Y-41729379D01*
X36381177Y-41731800D01*
X32867554Y-41731800D01*
X32799433Y-41711798D01*
X32767592Y-41682504D01*
X32719792Y-41620210D01*
X32678213Y-41588305D01*
X32646049Y-41563624D01*
X32604183Y-41506286D01*
X32599962Y-41435415D01*
X32634727Y-41373513D01*
X32646051Y-41363701D01*
X32709791Y-41314791D01*
X32794024Y-41205018D01*
X32846974Y-41077183D01*
X32865035Y-40940000D01*
X32846974Y-40802817D01*
X32794024Y-40674983D01*
X32709791Y-40565209D01*
X32641455Y-40512772D01*
X32600016Y-40480974D01*
X32472183Y-40428025D01*
X32350958Y-40412066D01*
X32335000Y-40409965D01*
X32334999Y-40409965D01*
X32197817Y-40428025D01*
X32069983Y-40480975D01*
X31960209Y-40565209D01*
X31875975Y-40674983D01*
X31823025Y-40802817D01*
X31804965Y-40939999D01*
X31823025Y-41077183D01*
X31875974Y-41205016D01*
X31875976Y-41205018D01*
X31960209Y-41314791D01*
X32033949Y-41371375D01*
X32075816Y-41428712D01*
X32080037Y-41499583D01*
X32045272Y-41561486D01*
X32033950Y-41571297D01*
X31970208Y-41620209D01*
X31875877Y-41743144D01*
X31875040Y-41742501D01*
X31842325Y-41783099D01*
X31774962Y-41805520D01*
X31770464Y-41805600D01*
X31113588Y-41805600D01*
X31087980Y-41801249D01*
X31056393Y-41804808D01*
X31042286Y-41805600D01*
X31038655Y-41805600D01*
X31035104Y-41806410D01*
X31021198Y-41808772D01*
X30989614Y-41812332D01*
X30980605Y-41816063D01*
X30955752Y-41835882D01*
X30944239Y-41844051D01*
X30941161Y-41845984D01*
X30938590Y-41848556D01*
X30928069Y-41857958D01*
X30903215Y-41877779D01*
X30888181Y-41898965D01*
X30057331Y-42729815D01*
X29995019Y-42763841D01*
X29938678Y-42759811D01*
X29938629Y-42760191D01*
X29932255Y-42759351D01*
X29924204Y-42758776D01*
X29922355Y-42758048D01*
X29808286Y-42743030D01*
X29785000Y-42739965D01*
X29784999Y-42739965D01*
X29647817Y-42758025D01*
X29519983Y-42810975D01*
X29410209Y-42895209D01*
X29325975Y-43004983D01*
X29273025Y-43132817D01*
X29254965Y-43269999D01*
X25560319Y-43269999D01*
X25558038Y-39740034D01*
X25557695Y-39209999D01*
X32024965Y-39209999D01*
X32043025Y-39347183D01*
X32095974Y-39475016D01*
X32095976Y-39475018D01*
X32180209Y-39584791D01*
X32269263Y-39653125D01*
X32289983Y-39669025D01*
X32417816Y-39721974D01*
X32433775Y-39724075D01*
X32555000Y-39740035D01*
X32692183Y-39721974D01*
X32820018Y-39669024D01*
X32929791Y-39584791D01*
X33014024Y-39475018D01*
X33066974Y-39347183D01*
X33085035Y-39210000D01*
X33074390Y-39129146D01*
X33082054Y-39079999D01*
X41774965Y-39079999D01*
X41793025Y-39217183D01*
X41845974Y-39345016D01*
X41845976Y-39345018D01*
X41930209Y-39454791D01*
X42019263Y-39523125D01*
X42039983Y-39539025D01*
X42167816Y-39591974D01*
X42183775Y-39594075D01*
X42305000Y-39610035D01*
X42442183Y-39591974D01*
X42570018Y-39539024D01*
X42679791Y-39454791D01*
X42764024Y-39345018D01*
X42816974Y-39217183D01*
X42835035Y-39080000D01*
X42816974Y-38942817D01*
X42764024Y-38814983D01*
X42679791Y-38705209D01*
X42611455Y-38652772D01*
X42570016Y-38620974D01*
X42442183Y-38568025D01*
X42320958Y-38552066D01*
X42305000Y-38549965D01*
X42304999Y-38549965D01*
X42167817Y-38568025D01*
X42039983Y-38620975D01*
X41930209Y-38705209D01*
X41845975Y-38814983D01*
X41793025Y-38942817D01*
X41774965Y-39079999D01*
X33082054Y-39079999D01*
X33085329Y-39058999D01*
X33132457Y-39005900D01*
X33200811Y-38986710D01*
X33247527Y-38996291D01*
X33357817Y-39041974D01*
X33495000Y-39060035D01*
X33632183Y-39041974D01*
X33719275Y-39005900D01*
X33760016Y-38989025D01*
X33760016Y-38989024D01*
X33760018Y-38989024D01*
X33869791Y-38904791D01*
X33954024Y-38795018D01*
X33971309Y-38753289D01*
X34006974Y-38667183D01*
X34013057Y-38620976D01*
X34025035Y-38530000D01*
X34006974Y-38392817D01*
X33954024Y-38264983D01*
X33869791Y-38155209D01*
X33801455Y-38102772D01*
X33760016Y-38070974D01*
X33632183Y-38018025D01*
X33510958Y-38002066D01*
X33495000Y-37999965D01*
X33494999Y-37999965D01*
X33357817Y-38018025D01*
X33229983Y-38070975D01*
X33120209Y-38155209D01*
X33035975Y-38264983D01*
X32983025Y-38392817D01*
X32964965Y-38530000D01*
X32975609Y-38610852D01*
X32964669Y-38681001D01*
X32917541Y-38734099D01*
X32849187Y-38753289D01*
X32802470Y-38743707D01*
X32692183Y-38698025D01*
X32570958Y-38682066D01*
X32555000Y-38679965D01*
X32554999Y-38679965D01*
X32417817Y-38698025D01*
X32289983Y-38750975D01*
X32180209Y-38835209D01*
X32095975Y-38944983D01*
X32043025Y-39072817D01*
X32024965Y-39209999D01*
X25557695Y-39209999D01*
X25556306Y-37059999D01*
X37584965Y-37059999D01*
X37603025Y-37197183D01*
X37655974Y-37325016D01*
X37655976Y-37325018D01*
X37740209Y-37434791D01*
X37829263Y-37503125D01*
X37849983Y-37519025D01*
X37977816Y-37571974D01*
X37995876Y-37574351D01*
X38115000Y-37590035D01*
X38252183Y-37571974D01*
X38380018Y-37519024D01*
X38489791Y-37434791D01*
X38574024Y-37325018D01*
X38626974Y-37197183D01*
X38645035Y-37060000D01*
X38626974Y-36922817D01*
X38574024Y-36794983D01*
X38489791Y-36685209D01*
X38421455Y-36632772D01*
X38380016Y-36600974D01*
X38252183Y-36548025D01*
X38130958Y-36532066D01*
X38115000Y-36529965D01*
X38114999Y-36529965D01*
X37977817Y-36548025D01*
X37849983Y-36600975D01*
X37740209Y-36685209D01*
X37655975Y-36794983D01*
X37603025Y-36922817D01*
X37584965Y-37059999D01*
X25556306Y-37059999D01*
X25556222Y-36929897D01*
X26224500Y-36929897D01*
X26229171Y-36953381D01*
X26230331Y-36959213D01*
X26252543Y-36992457D01*
X26285787Y-37014669D01*
X26315101Y-37020500D01*
X27534898Y-37020499D01*
X27564213Y-37014669D01*
X27597457Y-36992457D01*
X27619669Y-36959213D01*
X27625500Y-36929899D01*
X27625499Y-36299999D01*
X33919965Y-36299999D01*
X33938025Y-36437183D01*
X33990974Y-36565016D01*
X33990976Y-36565018D01*
X34075209Y-36674791D01*
X34164263Y-36743125D01*
X34184983Y-36759025D01*
X34312816Y-36811974D01*
X34328775Y-36814075D01*
X34450000Y-36830035D01*
X34587183Y-36811974D01*
X34715018Y-36759024D01*
X34824791Y-36674791D01*
X34909024Y-36565018D01*
X34961974Y-36437183D01*
X34980035Y-36300000D01*
X34961974Y-36162817D01*
X34909024Y-36034983D01*
X34824791Y-35925209D01*
X34752841Y-35869999D01*
X41834965Y-35869999D01*
X41853025Y-36007183D01*
X41905974Y-36135016D01*
X41905976Y-36135018D01*
X41990209Y-36244791D01*
X42062158Y-36300000D01*
X42099983Y-36329025D01*
X42227816Y-36381974D01*
X42245876Y-36384351D01*
X42365000Y-36400035D01*
X42502183Y-36381974D01*
X42630018Y-36329024D01*
X42739791Y-36244791D01*
X42824024Y-36135018D01*
X42876974Y-36007183D01*
X42895035Y-35870000D01*
X42876974Y-35732817D01*
X42824024Y-35604983D01*
X42739791Y-35495209D01*
X42671455Y-35442772D01*
X42630016Y-35410974D01*
X42502183Y-35358025D01*
X42380958Y-35342066D01*
X42365000Y-35339965D01*
X42364999Y-35339965D01*
X42227817Y-35358025D01*
X42099983Y-35410975D01*
X41990209Y-35495209D01*
X41905975Y-35604983D01*
X41853025Y-35732817D01*
X41834965Y-35869999D01*
X34752841Y-35869999D01*
X34715016Y-35840974D01*
X34587183Y-35788025D01*
X34465958Y-35772066D01*
X34450000Y-35769965D01*
X34449999Y-35769965D01*
X34312817Y-35788025D01*
X34184983Y-35840975D01*
X34075209Y-35925209D01*
X33990975Y-36034983D01*
X33938025Y-36162817D01*
X33919965Y-36299999D01*
X27625499Y-36299999D01*
X27625499Y-35710102D01*
X27619669Y-35680787D01*
X27597457Y-35647543D01*
X27564213Y-35625331D01*
X27564212Y-35625330D01*
X27534899Y-35619500D01*
X26315102Y-35619500D01*
X26285787Y-35625331D01*
X26252543Y-35647543D01*
X26230330Y-35680787D01*
X26224500Y-35710100D01*
X26224500Y-36929897D01*
X25556222Y-36929897D01*
X25555082Y-35166081D01*
X25575040Y-35097948D01*
X25628666Y-35051420D01*
X25681082Y-35040000D01*
X44319000Y-35040000D01*
X44387121Y-35060002D01*
G37*
G04 #@! TD.AperFunction*
G04 #@! TD*
M02*
