G04 #@! TF.GenerationSoftware,KiCad,Pcbnew,7.0.2-6a45011f42~172~ubuntu22.04.1*
G04 #@! TF.CreationDate,2023-05-27T08:42:39+08:00*
G04 #@! TF.ProjectId,panel_2_1,70616e65-6c5f-4325-9f31-2e6b69636164,rev?*
G04 #@! TF.SameCoordinates,Original*
G04 #@! TF.FileFunction,Paste,Bot*
G04 #@! TF.FilePolarity,Positive*
%FSLAX46Y46*%
G04 Gerber Fmt 4.6, Leading zero omitted, Abs format (unit mm)*
G04 Created by KiCad (PCBNEW 7.0.2-6a45011f42~172~ubuntu22.04.1) date 2023-05-27 08:42:39*
%MOMM*%
%LPD*%
G01*
G04 APERTURE LIST*
G04 Aperture macros list*
%AMRoundRect*
0 Rectangle with rounded corners*
0 $1 Rounding radius*
0 $2 $3 $4 $5 $6 $7 $8 $9 X,Y pos of 4 corners*
0 Add a 4 corners polygon primitive as box body*
4,1,4,$2,$3,$4,$5,$6,$7,$8,$9,$2,$3,0*
0 Add four circle primitives for the rounded corners*
1,1,$1+$1,$2,$3*
1,1,$1+$1,$4,$5*
1,1,$1+$1,$6,$7*
1,1,$1+$1,$8,$9*
0 Add four rect primitives between the rounded corners*
20,1,$1+$1,$2,$3,$4,$5,0*
20,1,$1+$1,$4,$5,$6,$7,0*
20,1,$1+$1,$6,$7,$8,$9,0*
20,1,$1+$1,$8,$9,$2,$3,0*%
G04 Aperture macros list end*
%ADD10C,1.152000*%
%ADD11R,0.450000X0.450000*%
%ADD12RoundRect,0.135000X-0.185000X0.135000X-0.185000X-0.135000X0.185000X-0.135000X0.185000X0.135000X0*%
%ADD13RoundRect,0.140000X-0.170000X0.140000X-0.170000X-0.140000X0.170000X-0.140000X0.170000X0.140000X0*%
%ADD14RoundRect,0.140000X-0.140000X-0.170000X0.140000X-0.170000X0.140000X0.170000X-0.140000X0.170000X0*%
%ADD15RoundRect,0.140000X0.140000X0.170000X-0.140000X0.170000X-0.140000X-0.170000X0.140000X-0.170000X0*%
%ADD16RoundRect,0.140000X0.170000X-0.140000X0.170000X0.140000X-0.170000X0.140000X-0.170000X-0.140000X0*%
%ADD17RoundRect,0.135000X0.185000X-0.135000X0.185000X0.135000X-0.185000X0.135000X-0.185000X-0.135000X0*%
%ADD18R,0.280000X0.600000*%
%ADD19R,1.700000X0.300000*%
%ADD20R,1.000000X1.524000*%
G04 APERTURE END LIST*
D10*
G04 #@! TO.C,REF\u002A\u002A*
X2500000Y-67500000D03*
G04 #@! TD*
G04 #@! TO.C,REF\u002A\u002A*
X67500000Y-2500000D03*
G04 #@! TD*
G04 #@! TO.C,REF\u002A\u002A*
X2500000Y-2500000D03*
G04 #@! TD*
D11*
G04 #@! TO.C,U5*
X29405000Y-31495000D03*
X29405000Y-32345000D03*
X30255000Y-31495000D03*
X30255000Y-32345000D03*
G04 #@! TD*
D12*
G04 #@! TO.C,R11*
X39310000Y-43830000D03*
X39310000Y-44850000D03*
G04 #@! TD*
D13*
G04 #@! TO.C,C4*
X33070000Y-30120000D03*
X33070000Y-31080000D03*
G04 #@! TD*
D12*
G04 #@! TO.C,R8*
X35940000Y-31830000D03*
X35940000Y-32850000D03*
G04 #@! TD*
D14*
G04 #@! TO.C,C12*
X37330000Y-24680000D03*
X38290000Y-24680000D03*
G04 #@! TD*
D12*
G04 #@! TO.C,R9*
X37070000Y-31830000D03*
X37070000Y-32850000D03*
G04 #@! TD*
D15*
G04 #@! TO.C,C6*
X41860000Y-44850000D03*
X40900000Y-44850000D03*
G04 #@! TD*
D16*
G04 #@! TO.C,C8*
X40340000Y-31395000D03*
X40340000Y-30435000D03*
G04 #@! TD*
D12*
G04 #@! TO.C,R5*
X34590000Y-36455000D03*
X34590000Y-37475000D03*
G04 #@! TD*
D13*
G04 #@! TO.C,C4*
X33070000Y-42120000D03*
X33070000Y-43080000D03*
G04 #@! TD*
G04 #@! TO.C,C13*
X33070000Y-26130000D03*
X33070000Y-27090000D03*
G04 #@! TD*
D12*
G04 #@! TO.C,R8*
X35940000Y-43830000D03*
X35940000Y-44850000D03*
G04 #@! TD*
G04 #@! TO.C,R9*
X37070000Y-43830000D03*
X37070000Y-44850000D03*
G04 #@! TD*
G04 #@! TO.C,R10*
X38180000Y-31830000D03*
X38180000Y-32850000D03*
G04 #@! TD*
G04 #@! TO.C,R11*
X39310000Y-31830000D03*
X39310000Y-32850000D03*
G04 #@! TD*
G04 #@! TO.C,R5*
X34590000Y-24455000D03*
X34590000Y-25475000D03*
G04 #@! TD*
G04 #@! TO.C,R6*
X35615000Y-24455000D03*
X35615000Y-25475000D03*
G04 #@! TD*
D16*
G04 #@! TO.C,C10*
X40340000Y-39525000D03*
X40340000Y-38565000D03*
G04 #@! TD*
D17*
G04 #@! TO.C,R2*
X34180000Y-44860000D03*
X34180000Y-43840000D03*
G04 #@! TD*
D16*
G04 #@! TO.C,C5*
X40340000Y-29460000D03*
X40340000Y-28500000D03*
G04 #@! TD*
D13*
G04 #@! TO.C,C11*
X40340000Y-36630000D03*
X40340000Y-37590000D03*
G04 #@! TD*
G04 #@! TO.C,C9*
X39310000Y-24640000D03*
X39310000Y-25600000D03*
G04 #@! TD*
D12*
G04 #@! TO.C,R6*
X35615000Y-36455000D03*
X35615000Y-37475000D03*
G04 #@! TD*
D14*
G04 #@! TO.C,C12*
X37330000Y-36680000D03*
X38290000Y-36680000D03*
G04 #@! TD*
D13*
G04 #@! TO.C,C11*
X40340000Y-24630000D03*
X40340000Y-25590000D03*
G04 #@! TD*
D15*
G04 #@! TO.C,C2*
X36880000Y-29880000D03*
X35920000Y-29880000D03*
G04 #@! TD*
D16*
G04 #@! TO.C,C8*
X40340000Y-43395000D03*
X40340000Y-42435000D03*
G04 #@! TD*
G04 #@! TO.C,C7*
X33070000Y-41085000D03*
X33070000Y-40125000D03*
G04 #@! TD*
G04 #@! TO.C,C14*
X35340000Y-28810000D03*
X35340000Y-27850000D03*
G04 #@! TD*
D11*
G04 #@! TO.C,U5*
X29405000Y-43495000D03*
X29405000Y-44345000D03*
X30255000Y-43495000D03*
X30255000Y-44345000D03*
G04 #@! TD*
D13*
G04 #@! TO.C,C13*
X33070000Y-38130000D03*
X33070000Y-39090000D03*
G04 #@! TD*
D18*
G04 #@! TO.C,U2*
X36540000Y-37861000D03*
X37040000Y-37861000D03*
X37540000Y-37861000D03*
X38040000Y-37861000D03*
X38040000Y-40875000D03*
X37540000Y-40875000D03*
X37040000Y-40875000D03*
X36540000Y-40875000D03*
D19*
X37290000Y-39368000D03*
G04 #@! TD*
D16*
G04 #@! TO.C,C14*
X35340000Y-40810000D03*
X35340000Y-39850000D03*
G04 #@! TD*
G04 #@! TO.C,C10*
X40340000Y-27525000D03*
X40340000Y-26565000D03*
G04 #@! TD*
D18*
G04 #@! TO.C,U2*
X36540000Y-25861000D03*
X37040000Y-25861000D03*
X37540000Y-25861000D03*
X38040000Y-25861000D03*
X38040000Y-28875000D03*
X37540000Y-28875000D03*
X37040000Y-28875000D03*
X36540000Y-28875000D03*
D19*
X37290000Y-27368000D03*
G04 #@! TD*
D15*
G04 #@! TO.C,C2*
X36880000Y-41880000D03*
X35920000Y-41880000D03*
G04 #@! TD*
D12*
G04 #@! TO.C,R10*
X38180000Y-43830000D03*
X38180000Y-44850000D03*
G04 #@! TD*
D16*
G04 #@! TO.C,C5*
X40340000Y-41460000D03*
X40340000Y-40500000D03*
G04 #@! TD*
G04 #@! TO.C,C7*
X33070000Y-29085000D03*
X33070000Y-28125000D03*
G04 #@! TD*
D20*
G04 #@! TO.C,SW1*
X33470000Y-24455000D03*
X30270000Y-24455000D03*
G04 #@! TD*
G04 #@! TO.C,SW1*
X33470000Y-36455000D03*
X30270000Y-36455000D03*
G04 #@! TD*
D17*
G04 #@! TO.C,R2*
X34180000Y-32860000D03*
X34180000Y-31840000D03*
G04 #@! TD*
D15*
G04 #@! TO.C,C6*
X41860000Y-32850000D03*
X40900000Y-32850000D03*
G04 #@! TD*
D13*
G04 #@! TO.C,C9*
X39310000Y-36640000D03*
X39310000Y-37600000D03*
G04 #@! TD*
M02*
