G04 #@! TF.GenerationSoftware,KiCad,Pcbnew,7.0.2-6a45011f42~172~ubuntu22.04.1*
G04 #@! TF.CreationDate,2023-05-27T08:42:39+08:00*
G04 #@! TF.ProjectId,panel_2_1,70616e65-6c5f-4325-9f31-2e6b69636164,rev?*
G04 #@! TF.SameCoordinates,Original*
G04 #@! TF.FileFunction,Paste,Top*
G04 #@! TF.FilePolarity,Positive*
%FSLAX46Y46*%
G04 Gerber Fmt 4.6, Leading zero omitted, Abs format (unit mm)*
G04 Created by KiCad (PCBNEW 7.0.2-6a45011f42~172~ubuntu22.04.1) date 2023-05-27 08:42:39*
%MOMM*%
%LPD*%
G01*
G04 APERTURE LIST*
G04 Aperture macros list*
%AMRoundRect*
0 Rectangle with rounded corners*
0 $1 Rounding radius*
0 $2 $3 $4 $5 $6 $7 $8 $9 X,Y pos of 4 corners*
0 Add a 4 corners polygon primitive as box body*
4,1,4,$2,$3,$4,$5,$6,$7,$8,$9,$2,$3,0*
0 Add four circle primitives for the rounded corners*
1,1,$1+$1,$2,$3*
1,1,$1+$1,$4,$5*
1,1,$1+$1,$6,$7*
1,1,$1+$1,$8,$9*
0 Add four rect primitives between the rounded corners*
20,1,$1+$1,$2,$3,$4,$5,0*
20,1,$1+$1,$4,$5,$6,$7,0*
20,1,$1+$1,$6,$7,$8,$9,0*
20,1,$1+$1,$8,$9,$2,$3,0*%
G04 Aperture macros list end*
%ADD10C,0.120000*%
%ADD11RoundRect,0.135000X-0.135000X-0.185000X0.135000X-0.185000X0.135000X0.185000X-0.135000X0.185000X0*%
%ADD12C,1.152000*%
%ADD13RoundRect,0.140000X-0.140000X-0.170000X0.140000X-0.170000X0.140000X0.170000X-0.140000X0.170000X0*%
%ADD14R,1.200000X1.400000*%
%ADD15RoundRect,0.135000X0.185000X-0.135000X0.185000X0.135000X-0.185000X0.135000X-0.185000X-0.135000X0*%
%ADD16R,0.200000X1.100000*%
%ADD17R,1.100000X0.200000*%
%ADD18R,3.100000X3.100000*%
G04 APERTURE END LIST*
G04 #@! TO.C,U1*
D10*
X39405000Y-37705000D02*
X39205000Y-37705000D01*
X39205000Y-36605000D01*
X39405000Y-36605000D01*
X39405000Y-37705000D01*
G36*
X39405000Y-37705000D02*
G01*
X39205000Y-37705000D01*
X39205000Y-36605000D01*
X39405000Y-36605000D01*
X39405000Y-37705000D01*
G37*
X39005000Y-37705000D02*
X38805000Y-37705000D01*
X38805000Y-36605000D01*
X39005000Y-36605000D01*
X39005000Y-37705000D01*
G36*
X39005000Y-37705000D02*
G01*
X38805000Y-37705000D01*
X38805000Y-36605000D01*
X39005000Y-36605000D01*
X39005000Y-37705000D01*
G37*
X38605000Y-37705000D02*
X38405000Y-37705000D01*
X38405000Y-36605000D01*
X38605000Y-36605000D01*
X38605000Y-37705000D01*
G36*
X38605000Y-37705000D02*
G01*
X38405000Y-37705000D01*
X38405000Y-36605000D01*
X38605000Y-36605000D01*
X38605000Y-37705000D01*
G37*
X38205000Y-37705000D02*
X38005000Y-37705000D01*
X38005000Y-36605000D01*
X38205000Y-36605000D01*
X38205000Y-37705000D01*
G36*
X38205000Y-37705000D02*
G01*
X38005000Y-37705000D01*
X38005000Y-36605000D01*
X38205000Y-36605000D01*
X38205000Y-37705000D01*
G37*
X37805000Y-37705000D02*
X37605000Y-37705000D01*
X37605000Y-36605000D01*
X37805000Y-36605000D01*
X37805000Y-37705000D01*
G36*
X37805000Y-37705000D02*
G01*
X37605000Y-37705000D01*
X37605000Y-36605000D01*
X37805000Y-36605000D01*
X37805000Y-37705000D01*
G37*
X37405000Y-37705000D02*
X37205000Y-37705000D01*
X37205000Y-36605000D01*
X37405000Y-36605000D01*
X37405000Y-37705000D01*
G36*
X37405000Y-37705000D02*
G01*
X37205000Y-37705000D01*
X37205000Y-36605000D01*
X37405000Y-36605000D01*
X37405000Y-37705000D01*
G37*
X37005000Y-37705000D02*
X36805000Y-37705000D01*
X36805000Y-36605000D01*
X37005000Y-36605000D01*
X37005000Y-37705000D01*
G36*
X37005000Y-37705000D02*
G01*
X36805000Y-37705000D01*
X36805000Y-36605000D01*
X37005000Y-36605000D01*
X37005000Y-37705000D01*
G37*
X36205000Y-37705000D02*
X36005000Y-37705000D01*
X36005000Y-36605000D01*
X36205000Y-36605000D01*
X36205000Y-37705000D01*
G36*
X36205000Y-37705000D02*
G01*
X36005000Y-37705000D01*
X36005000Y-36605000D01*
X36205000Y-36605000D01*
X36205000Y-37705000D01*
G37*
X35805000Y-37705000D02*
X35605000Y-37705000D01*
X35605000Y-36605000D01*
X35805000Y-36605000D01*
X35805000Y-37705000D01*
G36*
X35805000Y-37705000D02*
G01*
X35605000Y-37705000D01*
X35605000Y-36605000D01*
X35805000Y-36605000D01*
X35805000Y-37705000D01*
G37*
X35405000Y-37705000D02*
X35205000Y-37705000D01*
X35205000Y-36605000D01*
X35405000Y-36605000D01*
X35405000Y-37705000D01*
G36*
X35405000Y-37705000D02*
G01*
X35205000Y-37705000D01*
X35205000Y-36605000D01*
X35405000Y-36605000D01*
X35405000Y-37705000D01*
G37*
X35005000Y-37705000D02*
X34805000Y-37705000D01*
X34805000Y-36605000D01*
X35005000Y-36605000D01*
X35005000Y-37705000D01*
G36*
X35005000Y-37705000D02*
G01*
X34805000Y-37705000D01*
X34805000Y-36605000D01*
X35005000Y-36605000D01*
X35005000Y-37705000D01*
G37*
X34605000Y-37705000D02*
X34405000Y-37705000D01*
X34405000Y-36605000D01*
X34605000Y-36605000D01*
X34605000Y-37705000D01*
G36*
X34605000Y-37705000D02*
G01*
X34405000Y-37705000D01*
X34405000Y-36605000D01*
X34605000Y-36605000D01*
X34605000Y-37705000D01*
G37*
X34205000Y-37705000D02*
X34005000Y-37705000D01*
X34005000Y-36605000D01*
X34205000Y-36605000D01*
X34205000Y-37705000D01*
G36*
X34205000Y-37705000D02*
G01*
X34005000Y-37705000D01*
X34005000Y-36605000D01*
X34205000Y-36605000D01*
X34205000Y-37705000D01*
G37*
X36605000Y-37705000D02*
X36405000Y-37705000D01*
X36405000Y-36605000D01*
X36605000Y-36605000D01*
X36605000Y-37705000D01*
G36*
X36605000Y-37705000D02*
G01*
X36405000Y-37705000D01*
X36405000Y-36605000D01*
X36605000Y-36605000D01*
X36605000Y-37705000D01*
G37*
X40805000Y-38205000D02*
X39705000Y-38205000D01*
X39705000Y-38005000D01*
X40805000Y-38005000D01*
X40805000Y-38205000D01*
G36*
X40805000Y-38205000D02*
G01*
X39705000Y-38205000D01*
X39705000Y-38005000D01*
X40805000Y-38005000D01*
X40805000Y-38205000D01*
G37*
X33705000Y-38205000D02*
X32605000Y-38205000D01*
X32605000Y-38005000D01*
X33705000Y-38005000D01*
X33705000Y-38205000D01*
G36*
X33705000Y-38205000D02*
G01*
X32605000Y-38205000D01*
X32605000Y-38005000D01*
X33705000Y-38005000D01*
X33705000Y-38205000D01*
G37*
X40805000Y-38605000D02*
X39705000Y-38605000D01*
X39705000Y-38405000D01*
X40805000Y-38405000D01*
X40805000Y-38605000D01*
G36*
X40805000Y-38605000D02*
G01*
X39705000Y-38605000D01*
X39705000Y-38405000D01*
X40805000Y-38405000D01*
X40805000Y-38605000D01*
G37*
X33705000Y-38605000D02*
X32605000Y-38605000D01*
X32605000Y-38405000D01*
X33705000Y-38405000D01*
X33705000Y-38605000D01*
G36*
X33705000Y-38605000D02*
G01*
X32605000Y-38605000D01*
X32605000Y-38405000D01*
X33705000Y-38405000D01*
X33705000Y-38605000D01*
G37*
X33705000Y-39005000D02*
X32605000Y-39005000D01*
X32605000Y-38805000D01*
X33705000Y-38805000D01*
X33705000Y-39005000D01*
G36*
X33705000Y-39005000D02*
G01*
X32605000Y-39005000D01*
X32605000Y-38805000D01*
X33705000Y-38805000D01*
X33705000Y-39005000D01*
G37*
X40805000Y-39005000D02*
X39705000Y-39005000D01*
X39705000Y-38805000D01*
X40805000Y-38805000D01*
X40805000Y-39005000D01*
G36*
X40805000Y-39005000D02*
G01*
X39705000Y-39005000D01*
X39705000Y-38805000D01*
X40805000Y-38805000D01*
X40805000Y-39005000D01*
G37*
X33705000Y-39405000D02*
X32605000Y-39405000D01*
X32605000Y-39205000D01*
X33705000Y-39205000D01*
X33705000Y-39405000D01*
G36*
X33705000Y-39405000D02*
G01*
X32605000Y-39405000D01*
X32605000Y-39205000D01*
X33705000Y-39205000D01*
X33705000Y-39405000D01*
G37*
X40805000Y-39405000D02*
X39705000Y-39405000D01*
X39705000Y-39205000D01*
X40805000Y-39205000D01*
X40805000Y-39405000D01*
G36*
X40805000Y-39405000D02*
G01*
X39705000Y-39405000D01*
X39705000Y-39205000D01*
X40805000Y-39205000D01*
X40805000Y-39405000D01*
G37*
X37945000Y-41945000D02*
X35465000Y-41945000D01*
X35465000Y-39465000D01*
X37945000Y-39465000D01*
X37945000Y-41945000D01*
G36*
X37945000Y-41945000D02*
G01*
X35465000Y-41945000D01*
X35465000Y-39465000D01*
X37945000Y-39465000D01*
X37945000Y-41945000D01*
G37*
X40805000Y-39805000D02*
X39705000Y-39805000D01*
X39705000Y-39605000D01*
X40805000Y-39605000D01*
X40805000Y-39805000D01*
G36*
X40805000Y-39805000D02*
G01*
X39705000Y-39805000D01*
X39705000Y-39605000D01*
X40805000Y-39605000D01*
X40805000Y-39805000D01*
G37*
X33705000Y-39805000D02*
X32605000Y-39805000D01*
X32605000Y-39605000D01*
X33705000Y-39605000D01*
X33705000Y-39805000D01*
G36*
X33705000Y-39805000D02*
G01*
X32605000Y-39805000D01*
X32605000Y-39605000D01*
X33705000Y-39605000D01*
X33705000Y-39805000D01*
G37*
X33705000Y-40205000D02*
X32605000Y-40205000D01*
X32605000Y-40005000D01*
X33705000Y-40005000D01*
X33705000Y-40205000D01*
G36*
X33705000Y-40205000D02*
G01*
X32605000Y-40205000D01*
X32605000Y-40005000D01*
X33705000Y-40005000D01*
X33705000Y-40205000D01*
G37*
X40805000Y-40205000D02*
X39705000Y-40205000D01*
X39705000Y-40005000D01*
X40805000Y-40005000D01*
X40805000Y-40205000D01*
G36*
X40805000Y-40205000D02*
G01*
X39705000Y-40205000D01*
X39705000Y-40005000D01*
X40805000Y-40005000D01*
X40805000Y-40205000D01*
G37*
X33705000Y-40605000D02*
X32605000Y-40605000D01*
X32605000Y-40405000D01*
X33705000Y-40405000D01*
X33705000Y-40605000D01*
G36*
X33705000Y-40605000D02*
G01*
X32605000Y-40605000D01*
X32605000Y-40405000D01*
X33705000Y-40405000D01*
X33705000Y-40605000D01*
G37*
X40805000Y-40605000D02*
X39705000Y-40605000D01*
X39705000Y-40405000D01*
X40805000Y-40405000D01*
X40805000Y-40605000D01*
G36*
X40805000Y-40605000D02*
G01*
X39705000Y-40605000D01*
X39705000Y-40405000D01*
X40805000Y-40405000D01*
X40805000Y-40605000D01*
G37*
X40805000Y-41005000D02*
X39705000Y-41005000D01*
X39705000Y-40805000D01*
X40805000Y-40805000D01*
X40805000Y-41005000D01*
G36*
X40805000Y-41005000D02*
G01*
X39705000Y-41005000D01*
X39705000Y-40805000D01*
X40805000Y-40805000D01*
X40805000Y-41005000D01*
G37*
X33705000Y-41005000D02*
X32605000Y-41005000D01*
X32605000Y-40805000D01*
X33705000Y-40805000D01*
X33705000Y-41005000D01*
G36*
X33705000Y-41005000D02*
G01*
X32605000Y-41005000D01*
X32605000Y-40805000D01*
X33705000Y-40805000D01*
X33705000Y-41005000D01*
G37*
X40805000Y-41405000D02*
X39705000Y-41405000D01*
X39705000Y-41205000D01*
X40805000Y-41205000D01*
X40805000Y-41405000D01*
G36*
X40805000Y-41405000D02*
G01*
X39705000Y-41405000D01*
X39705000Y-41205000D01*
X40805000Y-41205000D01*
X40805000Y-41405000D01*
G37*
X33705000Y-41405000D02*
X32605000Y-41405000D01*
X32605000Y-41205000D01*
X33705000Y-41205000D01*
X33705000Y-41405000D01*
G36*
X33705000Y-41405000D02*
G01*
X32605000Y-41405000D01*
X32605000Y-41205000D01*
X33705000Y-41205000D01*
X33705000Y-41405000D01*
G37*
X33705000Y-41805000D02*
X32605000Y-41805000D01*
X32605000Y-41605000D01*
X33705000Y-41605000D01*
X33705000Y-41805000D01*
G36*
X33705000Y-41805000D02*
G01*
X32605000Y-41805000D01*
X32605000Y-41605000D01*
X33705000Y-41605000D01*
X33705000Y-41805000D01*
G37*
X40805000Y-41805000D02*
X39705000Y-41805000D01*
X39705000Y-41605000D01*
X40805000Y-41605000D01*
X40805000Y-41805000D01*
G36*
X40805000Y-41805000D02*
G01*
X39705000Y-41805000D01*
X39705000Y-41605000D01*
X40805000Y-41605000D01*
X40805000Y-41805000D01*
G37*
X33705000Y-42205000D02*
X32605000Y-42205000D01*
X32605000Y-42005000D01*
X33705000Y-42005000D01*
X33705000Y-42205000D01*
G36*
X33705000Y-42205000D02*
G01*
X32605000Y-42205000D01*
X32605000Y-42005000D01*
X33705000Y-42005000D01*
X33705000Y-42205000D01*
G37*
X40805000Y-42205000D02*
X39705000Y-42205000D01*
X39705000Y-42005000D01*
X40805000Y-42005000D01*
X40805000Y-42205000D01*
G36*
X40805000Y-42205000D02*
G01*
X39705000Y-42205000D01*
X39705000Y-42005000D01*
X40805000Y-42005000D01*
X40805000Y-42205000D01*
G37*
X33705000Y-42605000D02*
X32605000Y-42605000D01*
X32605000Y-42405000D01*
X33705000Y-42405000D01*
X33705000Y-42605000D01*
G36*
X33705000Y-42605000D02*
G01*
X32605000Y-42605000D01*
X32605000Y-42405000D01*
X33705000Y-42405000D01*
X33705000Y-42605000D01*
G37*
X40805000Y-42605000D02*
X39705000Y-42605000D01*
X39705000Y-42405000D01*
X40805000Y-42405000D01*
X40805000Y-42605000D01*
G36*
X40805000Y-42605000D02*
G01*
X39705000Y-42605000D01*
X39705000Y-42405000D01*
X40805000Y-42405000D01*
X40805000Y-42605000D01*
G37*
X40805000Y-43005000D02*
X39705000Y-43005000D01*
X39705000Y-42805000D01*
X40805000Y-42805000D01*
X40805000Y-43005000D01*
G36*
X40805000Y-43005000D02*
G01*
X39705000Y-43005000D01*
X39705000Y-42805000D01*
X40805000Y-42805000D01*
X40805000Y-43005000D01*
G37*
X33705000Y-43005000D02*
X32605000Y-43005000D01*
X32605000Y-42805000D01*
X33705000Y-42805000D01*
X33705000Y-43005000D01*
G36*
X33705000Y-43005000D02*
G01*
X32605000Y-43005000D01*
X32605000Y-42805000D01*
X33705000Y-42805000D01*
X33705000Y-43005000D01*
G37*
X40805000Y-43405000D02*
X39705000Y-43405000D01*
X39705000Y-43205000D01*
X40805000Y-43205000D01*
X40805000Y-43405000D01*
G36*
X40805000Y-43405000D02*
G01*
X39705000Y-43405000D01*
X39705000Y-43205000D01*
X40805000Y-43205000D01*
X40805000Y-43405000D01*
G37*
X33705000Y-43405000D02*
X32605000Y-43405000D01*
X32605000Y-43205000D01*
X33705000Y-43205000D01*
X33705000Y-43405000D01*
G36*
X33705000Y-43405000D02*
G01*
X32605000Y-43405000D01*
X32605000Y-43205000D01*
X33705000Y-43205000D01*
X33705000Y-43405000D01*
G37*
X37005000Y-44805000D02*
X36805000Y-44805000D01*
X36805000Y-43705000D01*
X37005000Y-43705000D01*
X37005000Y-44805000D01*
G36*
X37005000Y-44805000D02*
G01*
X36805000Y-44805000D01*
X36805000Y-43705000D01*
X37005000Y-43705000D01*
X37005000Y-44805000D01*
G37*
X34205000Y-44805000D02*
X34005000Y-44805000D01*
X34005000Y-43705000D01*
X34205000Y-43705000D01*
X34205000Y-44805000D01*
G36*
X34205000Y-44805000D02*
G01*
X34005000Y-44805000D01*
X34005000Y-43705000D01*
X34205000Y-43705000D01*
X34205000Y-44805000D01*
G37*
X39405000Y-44805000D02*
X39205000Y-44805000D01*
X39205000Y-43705000D01*
X39405000Y-43705000D01*
X39405000Y-44805000D01*
G36*
X39405000Y-44805000D02*
G01*
X39205000Y-44805000D01*
X39205000Y-43705000D01*
X39405000Y-43705000D01*
X39405000Y-44805000D01*
G37*
X39005000Y-44805000D02*
X38805000Y-44805000D01*
X38805000Y-43705000D01*
X39005000Y-43705000D01*
X39005000Y-44805000D01*
G36*
X39005000Y-44805000D02*
G01*
X38805000Y-44805000D01*
X38805000Y-43705000D01*
X39005000Y-43705000D01*
X39005000Y-44805000D01*
G37*
X38605000Y-44805000D02*
X38405000Y-44805000D01*
X38405000Y-43705000D01*
X38605000Y-43705000D01*
X38605000Y-44805000D01*
G36*
X38605000Y-44805000D02*
G01*
X38405000Y-44805000D01*
X38405000Y-43705000D01*
X38605000Y-43705000D01*
X38605000Y-44805000D01*
G37*
X38205000Y-44805000D02*
X38005000Y-44805000D01*
X38005000Y-43705000D01*
X38205000Y-43705000D01*
X38205000Y-44805000D01*
G36*
X38205000Y-44805000D02*
G01*
X38005000Y-44805000D01*
X38005000Y-43705000D01*
X38205000Y-43705000D01*
X38205000Y-44805000D01*
G37*
X37805000Y-44805000D02*
X37605000Y-44805000D01*
X37605000Y-43705000D01*
X37805000Y-43705000D01*
X37805000Y-44805000D01*
G36*
X37805000Y-44805000D02*
G01*
X37605000Y-44805000D01*
X37605000Y-43705000D01*
X37805000Y-43705000D01*
X37805000Y-44805000D01*
G37*
X37405000Y-44805000D02*
X37205000Y-44805000D01*
X37205000Y-43705000D01*
X37405000Y-43705000D01*
X37405000Y-44805000D01*
G36*
X37405000Y-44805000D02*
G01*
X37205000Y-44805000D01*
X37205000Y-43705000D01*
X37405000Y-43705000D01*
X37405000Y-44805000D01*
G37*
X36605000Y-44805000D02*
X36405000Y-44805000D01*
X36405000Y-43705000D01*
X36605000Y-43705000D01*
X36605000Y-44805000D01*
G36*
X36605000Y-44805000D02*
G01*
X36405000Y-44805000D01*
X36405000Y-43705000D01*
X36605000Y-43705000D01*
X36605000Y-44805000D01*
G37*
X36205000Y-44805000D02*
X36005000Y-44805000D01*
X36005000Y-43705000D01*
X36205000Y-43705000D01*
X36205000Y-44805000D01*
G36*
X36205000Y-44805000D02*
G01*
X36005000Y-44805000D01*
X36005000Y-43705000D01*
X36205000Y-43705000D01*
X36205000Y-44805000D01*
G37*
X35805000Y-44805000D02*
X35605000Y-44805000D01*
X35605000Y-43705000D01*
X35805000Y-43705000D01*
X35805000Y-44805000D01*
G36*
X35805000Y-44805000D02*
G01*
X35605000Y-44805000D01*
X35605000Y-43705000D01*
X35805000Y-43705000D01*
X35805000Y-44805000D01*
G37*
X35405000Y-44805000D02*
X35205000Y-44805000D01*
X35205000Y-43705000D01*
X35405000Y-43705000D01*
X35405000Y-44805000D01*
G36*
X35405000Y-44805000D02*
G01*
X35205000Y-44805000D01*
X35205000Y-43705000D01*
X35405000Y-43705000D01*
X35405000Y-44805000D01*
G37*
X35005000Y-44805000D02*
X34805000Y-44805000D01*
X34805000Y-43705000D01*
X35005000Y-43705000D01*
X35005000Y-44805000D01*
G36*
X35005000Y-44805000D02*
G01*
X34805000Y-44805000D01*
X34805000Y-43705000D01*
X35005000Y-43705000D01*
X35005000Y-44805000D01*
G37*
X34605000Y-44805000D02*
X34405000Y-44805000D01*
X34405000Y-43705000D01*
X34605000Y-43705000D01*
X34605000Y-44805000D01*
G36*
X34605000Y-44805000D02*
G01*
X34405000Y-44805000D01*
X34405000Y-43705000D01*
X34605000Y-43705000D01*
X34605000Y-44805000D01*
G37*
X39405000Y-25705000D02*
X39205000Y-25705000D01*
X39205000Y-24605000D01*
X39405000Y-24605000D01*
X39405000Y-25705000D01*
G36*
X39405000Y-25705000D02*
G01*
X39205000Y-25705000D01*
X39205000Y-24605000D01*
X39405000Y-24605000D01*
X39405000Y-25705000D01*
G37*
X39005000Y-25705000D02*
X38805000Y-25705000D01*
X38805000Y-24605000D01*
X39005000Y-24605000D01*
X39005000Y-25705000D01*
G36*
X39005000Y-25705000D02*
G01*
X38805000Y-25705000D01*
X38805000Y-24605000D01*
X39005000Y-24605000D01*
X39005000Y-25705000D01*
G37*
X38605000Y-25705000D02*
X38405000Y-25705000D01*
X38405000Y-24605000D01*
X38605000Y-24605000D01*
X38605000Y-25705000D01*
G36*
X38605000Y-25705000D02*
G01*
X38405000Y-25705000D01*
X38405000Y-24605000D01*
X38605000Y-24605000D01*
X38605000Y-25705000D01*
G37*
X38205000Y-25705000D02*
X38005000Y-25705000D01*
X38005000Y-24605000D01*
X38205000Y-24605000D01*
X38205000Y-25705000D01*
G36*
X38205000Y-25705000D02*
G01*
X38005000Y-25705000D01*
X38005000Y-24605000D01*
X38205000Y-24605000D01*
X38205000Y-25705000D01*
G37*
X37805000Y-25705000D02*
X37605000Y-25705000D01*
X37605000Y-24605000D01*
X37805000Y-24605000D01*
X37805000Y-25705000D01*
G36*
X37805000Y-25705000D02*
G01*
X37605000Y-25705000D01*
X37605000Y-24605000D01*
X37805000Y-24605000D01*
X37805000Y-25705000D01*
G37*
X37405000Y-25705000D02*
X37205000Y-25705000D01*
X37205000Y-24605000D01*
X37405000Y-24605000D01*
X37405000Y-25705000D01*
G36*
X37405000Y-25705000D02*
G01*
X37205000Y-25705000D01*
X37205000Y-24605000D01*
X37405000Y-24605000D01*
X37405000Y-25705000D01*
G37*
X37005000Y-25705000D02*
X36805000Y-25705000D01*
X36805000Y-24605000D01*
X37005000Y-24605000D01*
X37005000Y-25705000D01*
G36*
X37005000Y-25705000D02*
G01*
X36805000Y-25705000D01*
X36805000Y-24605000D01*
X37005000Y-24605000D01*
X37005000Y-25705000D01*
G37*
X36205000Y-25705000D02*
X36005000Y-25705000D01*
X36005000Y-24605000D01*
X36205000Y-24605000D01*
X36205000Y-25705000D01*
G36*
X36205000Y-25705000D02*
G01*
X36005000Y-25705000D01*
X36005000Y-24605000D01*
X36205000Y-24605000D01*
X36205000Y-25705000D01*
G37*
X35805000Y-25705000D02*
X35605000Y-25705000D01*
X35605000Y-24605000D01*
X35805000Y-24605000D01*
X35805000Y-25705000D01*
G36*
X35805000Y-25705000D02*
G01*
X35605000Y-25705000D01*
X35605000Y-24605000D01*
X35805000Y-24605000D01*
X35805000Y-25705000D01*
G37*
X35405000Y-25705000D02*
X35205000Y-25705000D01*
X35205000Y-24605000D01*
X35405000Y-24605000D01*
X35405000Y-25705000D01*
G36*
X35405000Y-25705000D02*
G01*
X35205000Y-25705000D01*
X35205000Y-24605000D01*
X35405000Y-24605000D01*
X35405000Y-25705000D01*
G37*
X35005000Y-25705000D02*
X34805000Y-25705000D01*
X34805000Y-24605000D01*
X35005000Y-24605000D01*
X35005000Y-25705000D01*
G36*
X35005000Y-25705000D02*
G01*
X34805000Y-25705000D01*
X34805000Y-24605000D01*
X35005000Y-24605000D01*
X35005000Y-25705000D01*
G37*
X34605000Y-25705000D02*
X34405000Y-25705000D01*
X34405000Y-24605000D01*
X34605000Y-24605000D01*
X34605000Y-25705000D01*
G36*
X34605000Y-25705000D02*
G01*
X34405000Y-25705000D01*
X34405000Y-24605000D01*
X34605000Y-24605000D01*
X34605000Y-25705000D01*
G37*
X34205000Y-25705000D02*
X34005000Y-25705000D01*
X34005000Y-24605000D01*
X34205000Y-24605000D01*
X34205000Y-25705000D01*
G36*
X34205000Y-25705000D02*
G01*
X34005000Y-25705000D01*
X34005000Y-24605000D01*
X34205000Y-24605000D01*
X34205000Y-25705000D01*
G37*
X36605000Y-25705000D02*
X36405000Y-25705000D01*
X36405000Y-24605000D01*
X36605000Y-24605000D01*
X36605000Y-25705000D01*
G36*
X36605000Y-25705000D02*
G01*
X36405000Y-25705000D01*
X36405000Y-24605000D01*
X36605000Y-24605000D01*
X36605000Y-25705000D01*
G37*
X40805000Y-26205000D02*
X39705000Y-26205000D01*
X39705000Y-26005000D01*
X40805000Y-26005000D01*
X40805000Y-26205000D01*
G36*
X40805000Y-26205000D02*
G01*
X39705000Y-26205000D01*
X39705000Y-26005000D01*
X40805000Y-26005000D01*
X40805000Y-26205000D01*
G37*
X33705000Y-26205000D02*
X32605000Y-26205000D01*
X32605000Y-26005000D01*
X33705000Y-26005000D01*
X33705000Y-26205000D01*
G36*
X33705000Y-26205000D02*
G01*
X32605000Y-26205000D01*
X32605000Y-26005000D01*
X33705000Y-26005000D01*
X33705000Y-26205000D01*
G37*
X40805000Y-26605000D02*
X39705000Y-26605000D01*
X39705000Y-26405000D01*
X40805000Y-26405000D01*
X40805000Y-26605000D01*
G36*
X40805000Y-26605000D02*
G01*
X39705000Y-26605000D01*
X39705000Y-26405000D01*
X40805000Y-26405000D01*
X40805000Y-26605000D01*
G37*
X33705000Y-26605000D02*
X32605000Y-26605000D01*
X32605000Y-26405000D01*
X33705000Y-26405000D01*
X33705000Y-26605000D01*
G36*
X33705000Y-26605000D02*
G01*
X32605000Y-26605000D01*
X32605000Y-26405000D01*
X33705000Y-26405000D01*
X33705000Y-26605000D01*
G37*
X33705000Y-27005000D02*
X32605000Y-27005000D01*
X32605000Y-26805000D01*
X33705000Y-26805000D01*
X33705000Y-27005000D01*
G36*
X33705000Y-27005000D02*
G01*
X32605000Y-27005000D01*
X32605000Y-26805000D01*
X33705000Y-26805000D01*
X33705000Y-27005000D01*
G37*
X40805000Y-27005000D02*
X39705000Y-27005000D01*
X39705000Y-26805000D01*
X40805000Y-26805000D01*
X40805000Y-27005000D01*
G36*
X40805000Y-27005000D02*
G01*
X39705000Y-27005000D01*
X39705000Y-26805000D01*
X40805000Y-26805000D01*
X40805000Y-27005000D01*
G37*
X33705000Y-27405000D02*
X32605000Y-27405000D01*
X32605000Y-27205000D01*
X33705000Y-27205000D01*
X33705000Y-27405000D01*
G36*
X33705000Y-27405000D02*
G01*
X32605000Y-27405000D01*
X32605000Y-27205000D01*
X33705000Y-27205000D01*
X33705000Y-27405000D01*
G37*
X40805000Y-27405000D02*
X39705000Y-27405000D01*
X39705000Y-27205000D01*
X40805000Y-27205000D01*
X40805000Y-27405000D01*
G36*
X40805000Y-27405000D02*
G01*
X39705000Y-27405000D01*
X39705000Y-27205000D01*
X40805000Y-27205000D01*
X40805000Y-27405000D01*
G37*
X37945000Y-29945000D02*
X35465000Y-29945000D01*
X35465000Y-27465000D01*
X37945000Y-27465000D01*
X37945000Y-29945000D01*
G36*
X37945000Y-29945000D02*
G01*
X35465000Y-29945000D01*
X35465000Y-27465000D01*
X37945000Y-27465000D01*
X37945000Y-29945000D01*
G37*
X40805000Y-27805000D02*
X39705000Y-27805000D01*
X39705000Y-27605000D01*
X40805000Y-27605000D01*
X40805000Y-27805000D01*
G36*
X40805000Y-27805000D02*
G01*
X39705000Y-27805000D01*
X39705000Y-27605000D01*
X40805000Y-27605000D01*
X40805000Y-27805000D01*
G37*
X33705000Y-27805000D02*
X32605000Y-27805000D01*
X32605000Y-27605000D01*
X33705000Y-27605000D01*
X33705000Y-27805000D01*
G36*
X33705000Y-27805000D02*
G01*
X32605000Y-27805000D01*
X32605000Y-27605000D01*
X33705000Y-27605000D01*
X33705000Y-27805000D01*
G37*
X33705000Y-28205000D02*
X32605000Y-28205000D01*
X32605000Y-28005000D01*
X33705000Y-28005000D01*
X33705000Y-28205000D01*
G36*
X33705000Y-28205000D02*
G01*
X32605000Y-28205000D01*
X32605000Y-28005000D01*
X33705000Y-28005000D01*
X33705000Y-28205000D01*
G37*
X40805000Y-28205000D02*
X39705000Y-28205000D01*
X39705000Y-28005000D01*
X40805000Y-28005000D01*
X40805000Y-28205000D01*
G36*
X40805000Y-28205000D02*
G01*
X39705000Y-28205000D01*
X39705000Y-28005000D01*
X40805000Y-28005000D01*
X40805000Y-28205000D01*
G37*
X33705000Y-28605000D02*
X32605000Y-28605000D01*
X32605000Y-28405000D01*
X33705000Y-28405000D01*
X33705000Y-28605000D01*
G36*
X33705000Y-28605000D02*
G01*
X32605000Y-28605000D01*
X32605000Y-28405000D01*
X33705000Y-28405000D01*
X33705000Y-28605000D01*
G37*
X40805000Y-28605000D02*
X39705000Y-28605000D01*
X39705000Y-28405000D01*
X40805000Y-28405000D01*
X40805000Y-28605000D01*
G36*
X40805000Y-28605000D02*
G01*
X39705000Y-28605000D01*
X39705000Y-28405000D01*
X40805000Y-28405000D01*
X40805000Y-28605000D01*
G37*
X40805000Y-29005000D02*
X39705000Y-29005000D01*
X39705000Y-28805000D01*
X40805000Y-28805000D01*
X40805000Y-29005000D01*
G36*
X40805000Y-29005000D02*
G01*
X39705000Y-29005000D01*
X39705000Y-28805000D01*
X40805000Y-28805000D01*
X40805000Y-29005000D01*
G37*
X33705000Y-29005000D02*
X32605000Y-29005000D01*
X32605000Y-28805000D01*
X33705000Y-28805000D01*
X33705000Y-29005000D01*
G36*
X33705000Y-29005000D02*
G01*
X32605000Y-29005000D01*
X32605000Y-28805000D01*
X33705000Y-28805000D01*
X33705000Y-29005000D01*
G37*
X40805000Y-29405000D02*
X39705000Y-29405000D01*
X39705000Y-29205000D01*
X40805000Y-29205000D01*
X40805000Y-29405000D01*
G36*
X40805000Y-29405000D02*
G01*
X39705000Y-29405000D01*
X39705000Y-29205000D01*
X40805000Y-29205000D01*
X40805000Y-29405000D01*
G37*
X33705000Y-29405000D02*
X32605000Y-29405000D01*
X32605000Y-29205000D01*
X33705000Y-29205000D01*
X33705000Y-29405000D01*
G36*
X33705000Y-29405000D02*
G01*
X32605000Y-29405000D01*
X32605000Y-29205000D01*
X33705000Y-29205000D01*
X33705000Y-29405000D01*
G37*
X33705000Y-29805000D02*
X32605000Y-29805000D01*
X32605000Y-29605000D01*
X33705000Y-29605000D01*
X33705000Y-29805000D01*
G36*
X33705000Y-29805000D02*
G01*
X32605000Y-29805000D01*
X32605000Y-29605000D01*
X33705000Y-29605000D01*
X33705000Y-29805000D01*
G37*
X40805000Y-29805000D02*
X39705000Y-29805000D01*
X39705000Y-29605000D01*
X40805000Y-29605000D01*
X40805000Y-29805000D01*
G36*
X40805000Y-29805000D02*
G01*
X39705000Y-29805000D01*
X39705000Y-29605000D01*
X40805000Y-29605000D01*
X40805000Y-29805000D01*
G37*
X33705000Y-30205000D02*
X32605000Y-30205000D01*
X32605000Y-30005000D01*
X33705000Y-30005000D01*
X33705000Y-30205000D01*
G36*
X33705000Y-30205000D02*
G01*
X32605000Y-30205000D01*
X32605000Y-30005000D01*
X33705000Y-30005000D01*
X33705000Y-30205000D01*
G37*
X40805000Y-30205000D02*
X39705000Y-30205000D01*
X39705000Y-30005000D01*
X40805000Y-30005000D01*
X40805000Y-30205000D01*
G36*
X40805000Y-30205000D02*
G01*
X39705000Y-30205000D01*
X39705000Y-30005000D01*
X40805000Y-30005000D01*
X40805000Y-30205000D01*
G37*
X33705000Y-30605000D02*
X32605000Y-30605000D01*
X32605000Y-30405000D01*
X33705000Y-30405000D01*
X33705000Y-30605000D01*
G36*
X33705000Y-30605000D02*
G01*
X32605000Y-30605000D01*
X32605000Y-30405000D01*
X33705000Y-30405000D01*
X33705000Y-30605000D01*
G37*
X40805000Y-30605000D02*
X39705000Y-30605000D01*
X39705000Y-30405000D01*
X40805000Y-30405000D01*
X40805000Y-30605000D01*
G36*
X40805000Y-30605000D02*
G01*
X39705000Y-30605000D01*
X39705000Y-30405000D01*
X40805000Y-30405000D01*
X40805000Y-30605000D01*
G37*
X40805000Y-31005000D02*
X39705000Y-31005000D01*
X39705000Y-30805000D01*
X40805000Y-30805000D01*
X40805000Y-31005000D01*
G36*
X40805000Y-31005000D02*
G01*
X39705000Y-31005000D01*
X39705000Y-30805000D01*
X40805000Y-30805000D01*
X40805000Y-31005000D01*
G37*
X33705000Y-31005000D02*
X32605000Y-31005000D01*
X32605000Y-30805000D01*
X33705000Y-30805000D01*
X33705000Y-31005000D01*
G36*
X33705000Y-31005000D02*
G01*
X32605000Y-31005000D01*
X32605000Y-30805000D01*
X33705000Y-30805000D01*
X33705000Y-31005000D01*
G37*
X40805000Y-31405000D02*
X39705000Y-31405000D01*
X39705000Y-31205000D01*
X40805000Y-31205000D01*
X40805000Y-31405000D01*
G36*
X40805000Y-31405000D02*
G01*
X39705000Y-31405000D01*
X39705000Y-31205000D01*
X40805000Y-31205000D01*
X40805000Y-31405000D01*
G37*
X33705000Y-31405000D02*
X32605000Y-31405000D01*
X32605000Y-31205000D01*
X33705000Y-31205000D01*
X33705000Y-31405000D01*
G36*
X33705000Y-31405000D02*
G01*
X32605000Y-31405000D01*
X32605000Y-31205000D01*
X33705000Y-31205000D01*
X33705000Y-31405000D01*
G37*
X37005000Y-32805000D02*
X36805000Y-32805000D01*
X36805000Y-31705000D01*
X37005000Y-31705000D01*
X37005000Y-32805000D01*
G36*
X37005000Y-32805000D02*
G01*
X36805000Y-32805000D01*
X36805000Y-31705000D01*
X37005000Y-31705000D01*
X37005000Y-32805000D01*
G37*
X34205000Y-32805000D02*
X34005000Y-32805000D01*
X34005000Y-31705000D01*
X34205000Y-31705000D01*
X34205000Y-32805000D01*
G36*
X34205000Y-32805000D02*
G01*
X34005000Y-32805000D01*
X34005000Y-31705000D01*
X34205000Y-31705000D01*
X34205000Y-32805000D01*
G37*
X39405000Y-32805000D02*
X39205000Y-32805000D01*
X39205000Y-31705000D01*
X39405000Y-31705000D01*
X39405000Y-32805000D01*
G36*
X39405000Y-32805000D02*
G01*
X39205000Y-32805000D01*
X39205000Y-31705000D01*
X39405000Y-31705000D01*
X39405000Y-32805000D01*
G37*
X39005000Y-32805000D02*
X38805000Y-32805000D01*
X38805000Y-31705000D01*
X39005000Y-31705000D01*
X39005000Y-32805000D01*
G36*
X39005000Y-32805000D02*
G01*
X38805000Y-32805000D01*
X38805000Y-31705000D01*
X39005000Y-31705000D01*
X39005000Y-32805000D01*
G37*
X38605000Y-32805000D02*
X38405000Y-32805000D01*
X38405000Y-31705000D01*
X38605000Y-31705000D01*
X38605000Y-32805000D01*
G36*
X38605000Y-32805000D02*
G01*
X38405000Y-32805000D01*
X38405000Y-31705000D01*
X38605000Y-31705000D01*
X38605000Y-32805000D01*
G37*
X38205000Y-32805000D02*
X38005000Y-32805000D01*
X38005000Y-31705000D01*
X38205000Y-31705000D01*
X38205000Y-32805000D01*
G36*
X38205000Y-32805000D02*
G01*
X38005000Y-32805000D01*
X38005000Y-31705000D01*
X38205000Y-31705000D01*
X38205000Y-32805000D01*
G37*
X37805000Y-32805000D02*
X37605000Y-32805000D01*
X37605000Y-31705000D01*
X37805000Y-31705000D01*
X37805000Y-32805000D01*
G36*
X37805000Y-32805000D02*
G01*
X37605000Y-32805000D01*
X37605000Y-31705000D01*
X37805000Y-31705000D01*
X37805000Y-32805000D01*
G37*
X37405000Y-32805000D02*
X37205000Y-32805000D01*
X37205000Y-31705000D01*
X37405000Y-31705000D01*
X37405000Y-32805000D01*
G36*
X37405000Y-32805000D02*
G01*
X37205000Y-32805000D01*
X37205000Y-31705000D01*
X37405000Y-31705000D01*
X37405000Y-32805000D01*
G37*
X36605000Y-32805000D02*
X36405000Y-32805000D01*
X36405000Y-31705000D01*
X36605000Y-31705000D01*
X36605000Y-32805000D01*
G36*
X36605000Y-32805000D02*
G01*
X36405000Y-32805000D01*
X36405000Y-31705000D01*
X36605000Y-31705000D01*
X36605000Y-32805000D01*
G37*
X36205000Y-32805000D02*
X36005000Y-32805000D01*
X36005000Y-31705000D01*
X36205000Y-31705000D01*
X36205000Y-32805000D01*
G36*
X36205000Y-32805000D02*
G01*
X36005000Y-32805000D01*
X36005000Y-31705000D01*
X36205000Y-31705000D01*
X36205000Y-32805000D01*
G37*
X35805000Y-32805000D02*
X35605000Y-32805000D01*
X35605000Y-31705000D01*
X35805000Y-31705000D01*
X35805000Y-32805000D01*
G36*
X35805000Y-32805000D02*
G01*
X35605000Y-32805000D01*
X35605000Y-31705000D01*
X35805000Y-31705000D01*
X35805000Y-32805000D01*
G37*
X35405000Y-32805000D02*
X35205000Y-32805000D01*
X35205000Y-31705000D01*
X35405000Y-31705000D01*
X35405000Y-32805000D01*
G36*
X35405000Y-32805000D02*
G01*
X35205000Y-32805000D01*
X35205000Y-31705000D01*
X35405000Y-31705000D01*
X35405000Y-32805000D01*
G37*
X35005000Y-32805000D02*
X34805000Y-32805000D01*
X34805000Y-31705000D01*
X35005000Y-31705000D01*
X35005000Y-32805000D01*
G36*
X35005000Y-32805000D02*
G01*
X34805000Y-32805000D01*
X34805000Y-31705000D01*
X35005000Y-31705000D01*
X35005000Y-32805000D01*
G37*
X34605000Y-32805000D02*
X34405000Y-32805000D01*
X34405000Y-31705000D01*
X34605000Y-31705000D01*
X34605000Y-32805000D01*
G36*
X34605000Y-32805000D02*
G01*
X34405000Y-32805000D01*
X34405000Y-31705000D01*
X34605000Y-31705000D01*
X34605000Y-32805000D01*
G37*
G04 #@! TD*
D11*
G04 #@! TO.C,R12*
X33440000Y-23970000D03*
X34460000Y-23970000D03*
G04 #@! TD*
D12*
G04 #@! TO.C,REF\u002A\u002A*
X2500000Y-67500000D03*
G04 #@! TD*
G04 #@! TO.C,REF\u002A\u002A*
X67500000Y-2500000D03*
G04 #@! TD*
G04 #@! TO.C,REF\u002A\u002A*
X2500000Y-2500000D03*
G04 #@! TD*
D13*
G04 #@! TO.C,C3*
X29350000Y-37850000D03*
X30310000Y-37850000D03*
G04 #@! TD*
D14*
G04 #@! TO.C,X1*
X30672000Y-41483000D03*
X30672000Y-39283000D03*
X28922000Y-39283000D03*
X28922000Y-41483000D03*
G04 #@! TD*
D11*
G04 #@! TO.C,R12*
X33440000Y-35970000D03*
X34460000Y-35970000D03*
G04 #@! TD*
D14*
G04 #@! TO.C,X1*
X30672000Y-29483000D03*
X30672000Y-27283000D03*
X28922000Y-27283000D03*
X28922000Y-29483000D03*
G04 #@! TD*
D15*
G04 #@! TO.C,R1*
X32000000Y-29800000D03*
X32000000Y-28780000D03*
G04 #@! TD*
D16*
G04 #@! TO.C,U1*
X39305000Y-37155000D03*
X38905000Y-37155000D03*
X38505000Y-37155000D03*
X38105000Y-37155000D03*
X37705000Y-37155000D03*
X37305000Y-37155000D03*
X36905000Y-37155000D03*
X36505000Y-37155000D03*
X36105000Y-37155000D03*
X35705000Y-37155000D03*
X35305000Y-37155000D03*
X34905000Y-37155000D03*
X34505000Y-37155000D03*
X34105000Y-37155000D03*
D17*
X33155000Y-38105000D03*
X33155000Y-38505000D03*
X33155000Y-38905000D03*
X33155000Y-39305000D03*
X33155000Y-39705000D03*
X33155000Y-40105000D03*
X33155000Y-40505000D03*
X33155000Y-40905000D03*
X33155000Y-41305000D03*
X33155000Y-41705000D03*
X33155000Y-42105000D03*
X33155000Y-42505000D03*
X33155000Y-42905000D03*
X33155000Y-43305000D03*
D16*
X34105000Y-44255000D03*
X34505000Y-44255000D03*
X34905000Y-44255000D03*
X35305000Y-44255000D03*
X35705000Y-44255000D03*
X36105000Y-44255000D03*
X36505000Y-44255000D03*
X36905000Y-44255000D03*
X37305000Y-44255000D03*
X37705000Y-44255000D03*
X38105000Y-44255000D03*
X38505000Y-44255000D03*
X38905000Y-44255000D03*
X39305000Y-44255000D03*
D17*
X40255000Y-43305000D03*
X40255000Y-42905000D03*
X40255000Y-42505000D03*
X40255000Y-42105000D03*
X40255000Y-41705000D03*
X40255000Y-41305000D03*
X40255000Y-40905000D03*
X40255000Y-40505000D03*
X40255000Y-40105000D03*
X40255000Y-39705000D03*
X40255000Y-39305000D03*
X40255000Y-38905000D03*
X40255000Y-38505000D03*
X40255000Y-38105000D03*
D18*
X36705000Y-40705000D03*
G04 #@! TD*
D15*
G04 #@! TO.C,R1*
X32000000Y-41800000D03*
X32000000Y-40780000D03*
G04 #@! TD*
D13*
G04 #@! TO.C,C1*
X29330000Y-42920000D03*
X30290000Y-42920000D03*
G04 #@! TD*
G04 #@! TO.C,C3*
X29350000Y-25850000D03*
X30310000Y-25850000D03*
G04 #@! TD*
G04 #@! TO.C,C1*
X29330000Y-30920000D03*
X30290000Y-30920000D03*
G04 #@! TD*
D16*
G04 #@! TO.C,U1*
X39305000Y-25155000D03*
X38905000Y-25155000D03*
X38505000Y-25155000D03*
X38105000Y-25155000D03*
X37705000Y-25155000D03*
X37305000Y-25155000D03*
X36905000Y-25155000D03*
X36505000Y-25155000D03*
X36105000Y-25155000D03*
X35705000Y-25155000D03*
X35305000Y-25155000D03*
X34905000Y-25155000D03*
X34505000Y-25155000D03*
X34105000Y-25155000D03*
D17*
X33155000Y-26105000D03*
X33155000Y-26505000D03*
X33155000Y-26905000D03*
X33155000Y-27305000D03*
X33155000Y-27705000D03*
X33155000Y-28105000D03*
X33155000Y-28505000D03*
X33155000Y-28905000D03*
X33155000Y-29305000D03*
X33155000Y-29705000D03*
X33155000Y-30105000D03*
X33155000Y-30505000D03*
X33155000Y-30905000D03*
X33155000Y-31305000D03*
D16*
X34105000Y-32255000D03*
X34505000Y-32255000D03*
X34905000Y-32255000D03*
X35305000Y-32255000D03*
X35705000Y-32255000D03*
X36105000Y-32255000D03*
X36505000Y-32255000D03*
X36905000Y-32255000D03*
X37305000Y-32255000D03*
X37705000Y-32255000D03*
X38105000Y-32255000D03*
X38505000Y-32255000D03*
X38905000Y-32255000D03*
X39305000Y-32255000D03*
D17*
X40255000Y-31305000D03*
X40255000Y-30905000D03*
X40255000Y-30505000D03*
X40255000Y-30105000D03*
X40255000Y-29705000D03*
X40255000Y-29305000D03*
X40255000Y-28905000D03*
X40255000Y-28505000D03*
X40255000Y-28105000D03*
X40255000Y-27705000D03*
X40255000Y-27305000D03*
X40255000Y-26905000D03*
X40255000Y-26505000D03*
X40255000Y-26105000D03*
D18*
X36705000Y-28705000D03*
G04 #@! TD*
M02*
