G04 #@! TF.GenerationSoftware,KiCad,Pcbnew,7.0.2-6a45011f42~172~ubuntu22.04.1*
G04 #@! TF.CreationDate,2023-05-27T08:42:39+08:00*
G04 #@! TF.ProjectId,panel_2_1,70616e65-6c5f-4325-9f31-2e6b69636164,rev?*
G04 #@! TF.SameCoordinates,Original*
G04 #@! TF.FileFunction,Soldermask,Top*
G04 #@! TF.FilePolarity,Negative*
%FSLAX46Y46*%
G04 Gerber Fmt 4.6, Leading zero omitted, Abs format (unit mm)*
G04 Created by KiCad (PCBNEW 7.0.2-6a45011f42~172~ubuntu22.04.1) date 2023-05-27 08:42:39*
%MOMM*%
%LPD*%
G01*
G04 APERTURE LIST*
G04 Aperture macros list*
%AMRoundRect*
0 Rectangle with rounded corners*
0 $1 Rounding radius*
0 $2 $3 $4 $5 $6 $7 $8 $9 X,Y pos of 4 corners*
0 Add a 4 corners polygon primitive as box body*
4,1,4,$2,$3,$4,$5,$6,$7,$8,$9,$2,$3,0*
0 Add four circle primitives for the rounded corners*
1,1,$1+$1,$2,$3*
1,1,$1+$1,$4,$5*
1,1,$1+$1,$6,$7*
1,1,$1+$1,$8,$9*
0 Add four rect primitives between the rounded corners*
20,1,$1+$1,$2,$3,$4,$5,0*
20,1,$1+$1,$4,$5,$6,$7,0*
20,1,$1+$1,$6,$7,$8,$9,0*
20,1,$1+$1,$8,$9,$2,$3,0*%
%AMFreePoly0*
4,1,6,1.000000,0.000000,0.500000,-0.750000,-0.500000,-0.750000,-0.500000,0.750000,0.500000,0.750000,1.000000,0.000000,1.000000,0.000000,$1*%
%AMFreePoly1*
4,1,6,0.500000,-0.750000,-0.650000,-0.750000,-0.150000,0.000000,-0.650000,0.750000,0.500000,0.750000,0.500000,-0.750000,0.500000,-0.750000,$1*%
G04 Aperture macros list end*
%ADD10R,1.200000X1.200000*%
%ADD11C,1.000000*%
%ADD12RoundRect,0.135000X-0.135000X-0.185000X0.135000X-0.185000X0.135000X0.185000X-0.135000X0.185000X0*%
%ADD13C,1.152000*%
%ADD14RoundRect,0.140000X-0.140000X-0.170000X0.140000X-0.170000X0.140000X0.170000X-0.140000X0.170000X0*%
%ADD15O,1.000000X1.000000*%
%ADD16R,1.200000X1.400000*%
%ADD17RoundRect,0.135000X0.185000X-0.135000X0.185000X0.135000X-0.185000X0.135000X-0.185000X-0.135000X0*%
%ADD18R,0.200000X1.100000*%
%ADD19R,1.100000X0.200000*%
%ADD20R,3.100000X3.100000*%
%ADD21FreePoly0,0.000000*%
%ADD22FreePoly1,0.000000*%
G04 APERTURE END LIST*
D10*
G04 #@! TO.C,J6*
X31310000Y-34100000D03*
G04 #@! TD*
D11*
G04 #@! TO.C,REF\u002A\u002A*
X55000000Y-3350000D03*
G04 #@! TD*
D10*
G04 #@! TO.C,J7*
X29677500Y-34100000D03*
G04 #@! TD*
G04 #@! TO.C,J3*
X36187500Y-34100000D03*
G04 #@! TD*
D12*
G04 #@! TO.C,R12*
X33440000Y-23970000D03*
X34460000Y-23970000D03*
G04 #@! TD*
D13*
G04 #@! TO.C,REF\u002A\u002A*
X2500000Y-67500000D03*
G04 #@! TD*
G04 #@! TO.C,REF\u002A\u002A*
X67500000Y-2500000D03*
G04 #@! TD*
G04 #@! TO.C,REF\u002A\u002A*
X2500000Y-2500000D03*
G04 #@! TD*
D14*
G04 #@! TO.C,C3*
X29350000Y-37850000D03*
X30310000Y-37850000D03*
G04 #@! TD*
D10*
G04 #@! TO.C,J5*
X39442500Y-34100000D03*
G04 #@! TD*
G04 #@! TO.C,J7*
X29677500Y-46100000D03*
G04 #@! TD*
D15*
G04 #@! TO.C,J8*
X41700000Y-31700000D03*
X41700000Y-30430000D03*
X41700000Y-29160000D03*
X41700000Y-27890000D03*
X41700000Y-26620000D03*
X41700000Y-25350000D03*
G04 #@! TD*
D11*
G04 #@! TO.C,REF\u002A\u002A*
X15000000Y-66650000D03*
G04 #@! TD*
D16*
G04 #@! TO.C,X1*
X30672000Y-41483000D03*
X30672000Y-39283000D03*
X28922000Y-39283000D03*
X28922000Y-41483000D03*
G04 #@! TD*
D12*
G04 #@! TO.C,R12*
X33440000Y-35970000D03*
X34460000Y-35970000D03*
G04 #@! TD*
D16*
G04 #@! TO.C,X1*
X30672000Y-29483000D03*
X30672000Y-27283000D03*
X28922000Y-27283000D03*
X28922000Y-29483000D03*
G04 #@! TD*
D17*
G04 #@! TO.C,R1*
X32000000Y-29800000D03*
X32000000Y-28780000D03*
G04 #@! TD*
D10*
G04 #@! TO.C,J1*
X28930000Y-36110000D03*
G04 #@! TD*
G04 #@! TO.C,J2*
X34560000Y-34100000D03*
G04 #@! TD*
G04 #@! TO.C,J6*
X31310000Y-46100000D03*
G04 #@! TD*
G04 #@! TO.C,J1*
X28930000Y-24110000D03*
G04 #@! TD*
D18*
G04 #@! TO.C,U1*
X39305000Y-37155000D03*
X38905000Y-37155000D03*
X38505000Y-37155000D03*
X38105000Y-37155000D03*
X37705000Y-37155000D03*
X37305000Y-37155000D03*
X36905000Y-37155000D03*
X36505000Y-37155000D03*
X36105000Y-37155000D03*
X35705000Y-37155000D03*
X35305000Y-37155000D03*
X34905000Y-37155000D03*
X34505000Y-37155000D03*
X34105000Y-37155000D03*
D19*
X33155000Y-38105000D03*
X33155000Y-38505000D03*
X33155000Y-38905000D03*
X33155000Y-39305000D03*
X33155000Y-39705000D03*
X33155000Y-40105000D03*
X33155000Y-40505000D03*
X33155000Y-40905000D03*
X33155000Y-41305000D03*
X33155000Y-41705000D03*
X33155000Y-42105000D03*
X33155000Y-42505000D03*
X33155000Y-42905000D03*
X33155000Y-43305000D03*
D18*
X34105000Y-44255000D03*
X34505000Y-44255000D03*
X34905000Y-44255000D03*
X35305000Y-44255000D03*
X35705000Y-44255000D03*
X36105000Y-44255000D03*
X36505000Y-44255000D03*
X36905000Y-44255000D03*
X37305000Y-44255000D03*
X37705000Y-44255000D03*
X38105000Y-44255000D03*
X38505000Y-44255000D03*
X38905000Y-44255000D03*
X39305000Y-44255000D03*
D19*
X40255000Y-43305000D03*
X40255000Y-42905000D03*
X40255000Y-42505000D03*
X40255000Y-42105000D03*
X40255000Y-41705000D03*
X40255000Y-41305000D03*
X40255000Y-40905000D03*
X40255000Y-40505000D03*
X40255000Y-40105000D03*
X40255000Y-39705000D03*
X40255000Y-39305000D03*
X40255000Y-38905000D03*
X40255000Y-38505000D03*
X40255000Y-38105000D03*
D20*
X36705000Y-40705000D03*
G04 #@! TD*
D21*
G04 #@! TO.C,JP1*
X30655000Y-24360000D03*
D22*
X32105000Y-24360000D03*
G04 #@! TD*
D17*
G04 #@! TO.C,R1*
X32000000Y-41800000D03*
X32000000Y-40780000D03*
G04 #@! TD*
D14*
G04 #@! TO.C,C1*
X29330000Y-42920000D03*
X30290000Y-42920000D03*
G04 #@! TD*
D10*
G04 #@! TO.C,J3*
X36187500Y-46100000D03*
G04 #@! TD*
G04 #@! TO.C,J10*
X41070000Y-34100000D03*
G04 #@! TD*
G04 #@! TO.C,J5*
X39442500Y-46100000D03*
G04 #@! TD*
G04 #@! TO.C,J4*
X37815000Y-46100000D03*
G04 #@! TD*
D14*
G04 #@! TO.C,C3*
X29350000Y-25850000D03*
X30310000Y-25850000D03*
G04 #@! TD*
D21*
G04 #@! TO.C,JP1*
X30655000Y-36360000D03*
D22*
X32105000Y-36360000D03*
G04 #@! TD*
D10*
G04 #@! TO.C,J4*
X37815000Y-34100000D03*
G04 #@! TD*
D11*
G04 #@! TO.C,REF\u002A\u002A*
X15000000Y-3350000D03*
G04 #@! TD*
D10*
G04 #@! TO.C,J9*
X32932500Y-34100000D03*
G04 #@! TD*
G04 #@! TO.C,J2*
X34560000Y-46100000D03*
G04 #@! TD*
G04 #@! TO.C,J9*
X32932500Y-46100000D03*
G04 #@! TD*
G04 #@! TO.C,J10*
X41070000Y-46100000D03*
G04 #@! TD*
D14*
G04 #@! TO.C,C1*
X29330000Y-30920000D03*
X30290000Y-30920000D03*
G04 #@! TD*
D18*
G04 #@! TO.C,U1*
X39305000Y-25155000D03*
X38905000Y-25155000D03*
X38505000Y-25155000D03*
X38105000Y-25155000D03*
X37705000Y-25155000D03*
X37305000Y-25155000D03*
X36905000Y-25155000D03*
X36505000Y-25155000D03*
X36105000Y-25155000D03*
X35705000Y-25155000D03*
X35305000Y-25155000D03*
X34905000Y-25155000D03*
X34505000Y-25155000D03*
X34105000Y-25155000D03*
D19*
X33155000Y-26105000D03*
X33155000Y-26505000D03*
X33155000Y-26905000D03*
X33155000Y-27305000D03*
X33155000Y-27705000D03*
X33155000Y-28105000D03*
X33155000Y-28505000D03*
X33155000Y-28905000D03*
X33155000Y-29305000D03*
X33155000Y-29705000D03*
X33155000Y-30105000D03*
X33155000Y-30505000D03*
X33155000Y-30905000D03*
X33155000Y-31305000D03*
D18*
X34105000Y-32255000D03*
X34505000Y-32255000D03*
X34905000Y-32255000D03*
X35305000Y-32255000D03*
X35705000Y-32255000D03*
X36105000Y-32255000D03*
X36505000Y-32255000D03*
X36905000Y-32255000D03*
X37305000Y-32255000D03*
X37705000Y-32255000D03*
X38105000Y-32255000D03*
X38505000Y-32255000D03*
X38905000Y-32255000D03*
X39305000Y-32255000D03*
D19*
X40255000Y-31305000D03*
X40255000Y-30905000D03*
X40255000Y-30505000D03*
X40255000Y-30105000D03*
X40255000Y-29705000D03*
X40255000Y-29305000D03*
X40255000Y-28905000D03*
X40255000Y-28505000D03*
X40255000Y-28105000D03*
X40255000Y-27705000D03*
X40255000Y-27305000D03*
X40255000Y-26905000D03*
X40255000Y-26505000D03*
X40255000Y-26105000D03*
D20*
X36705000Y-28705000D03*
G04 #@! TD*
D15*
G04 #@! TO.C,J8*
X41700000Y-43700000D03*
X41700000Y-42430000D03*
X41700000Y-41160000D03*
X41700000Y-39890000D03*
X41700000Y-38620000D03*
X41700000Y-37350000D03*
G04 #@! TD*
M02*
