G04 #@! TF.GenerationSoftware,KiCad,Pcbnew,7.0.2-6a45011f42~172~ubuntu22.04.1*
G04 #@! TF.CreationDate,2023-05-27T08:42:39+08:00*
G04 #@! TF.ProjectId,panel_2_1,70616e65-6c5f-4325-9f31-2e6b69636164,rev?*
G04 #@! TF.SameCoordinates,Original*
G04 #@! TF.FileFunction,Legend,Bot*
G04 #@! TF.FilePolarity,Positive*
%FSLAX46Y46*%
G04 Gerber Fmt 4.6, Leading zero omitted, Abs format (unit mm)*
G04 Created by KiCad (PCBNEW 7.0.2-6a45011f42~172~ubuntu22.04.1) date 2023-05-27 08:42:39*
%MOMM*%
%LPD*%
G01*
G04 APERTURE LIST*
%ADD10C,0.100000*%
%ADD11C,0.120000*%
%ADD12C,0.152000*%
%ADD13C,0.200000*%
%ADD14C,0.254000*%
G04 APERTURE END LIST*
D10*
G04 #@! TO.C,U5*
X30680000Y-31070000D02*
X30680000Y-32770000D01*
X28980000Y-31070000D02*
X30680000Y-31070000D01*
X30680000Y-32770000D02*
X28980000Y-32770000D01*
X28980000Y-32770000D02*
X28980000Y-31070000D01*
X29180000Y-30920000D02*
G75*
G03*
X29180000Y-30920000I-50000J0D01*
G01*
D11*
X30330000Y-31970000D02*
X30130000Y-31970000D01*
X30230000Y-31820000D01*
X30330000Y-31970000D01*
G36*
X30330000Y-31970000D02*
G01*
X30130000Y-31970000D01*
X30230000Y-31820000D01*
X30330000Y-31970000D01*
G37*
X29405000Y-33195000D02*
X29305000Y-33195000D01*
X29305000Y-32745000D01*
X29405000Y-32745000D01*
X29405000Y-33195000D01*
G36*
X29405000Y-33195000D02*
G01*
X29305000Y-33195000D01*
X29305000Y-32745000D01*
X29405000Y-32745000D01*
X29405000Y-33195000D01*
G37*
X29580000Y-33020000D02*
X29130000Y-33020000D01*
X29130000Y-32920000D01*
X29580000Y-32920000D01*
X29580000Y-33020000D01*
G36*
X29580000Y-33020000D02*
G01*
X29130000Y-33020000D01*
X29130000Y-32920000D01*
X29580000Y-32920000D01*
X29580000Y-33020000D01*
G37*
X29960000Y-31580000D02*
X29960000Y-31590000D01*
X29830000Y-31590000D01*
X29830000Y-31420000D01*
X29960000Y-31420000D01*
X29960000Y-31580000D01*
G36*
X29960000Y-31580000D02*
G01*
X29960000Y-31590000D01*
X29830000Y-31590000D01*
X29830000Y-31420000D01*
X29960000Y-31420000D01*
X29960000Y-31580000D01*
G37*
G04 #@! TO.C,R11*
X39690000Y-44186359D02*
X39690000Y-44493641D01*
X38930000Y-44186359D02*
X38930000Y-44493641D01*
G04 #@! TO.C,C4*
X33430000Y-30492164D02*
X33430000Y-30707836D01*
X32710000Y-30492164D02*
X32710000Y-30707836D01*
G04 #@! TO.C,R8*
X36320000Y-32186359D02*
X36320000Y-32493641D01*
X35560000Y-32186359D02*
X35560000Y-32493641D01*
G04 #@! TO.C,C12*
X37702164Y-24320000D02*
X37917836Y-24320000D01*
X37702164Y-25040000D02*
X37917836Y-25040000D01*
G04 #@! TO.C,R9*
X37450000Y-32186359D02*
X37450000Y-32493641D01*
X36690000Y-32186359D02*
X36690000Y-32493641D01*
G04 #@! TO.C,C6*
X41487836Y-45210000D02*
X41272164Y-45210000D01*
X41487836Y-44490000D02*
X41272164Y-44490000D01*
G04 #@! TO.C,C8*
X39980000Y-31022836D02*
X39980000Y-30807164D01*
X40700000Y-31022836D02*
X40700000Y-30807164D01*
G04 #@! TO.C,R5*
X34970000Y-36811359D02*
X34970000Y-37118641D01*
X34210000Y-36811359D02*
X34210000Y-37118641D01*
G04 #@! TO.C,C4*
X33430000Y-42492164D02*
X33430000Y-42707836D01*
X32710000Y-42492164D02*
X32710000Y-42707836D01*
G04 #@! TO.C,C13*
X33430000Y-26502164D02*
X33430000Y-26717836D01*
X32710000Y-26502164D02*
X32710000Y-26717836D01*
G04 #@! TO.C,R8*
X36320000Y-44186359D02*
X36320000Y-44493641D01*
X35560000Y-44186359D02*
X35560000Y-44493641D01*
G04 #@! TO.C,R9*
X37450000Y-44186359D02*
X37450000Y-44493641D01*
X36690000Y-44186359D02*
X36690000Y-44493641D01*
G04 #@! TO.C,R10*
X38560000Y-32186359D02*
X38560000Y-32493641D01*
X37800000Y-32186359D02*
X37800000Y-32493641D01*
G04 #@! TO.C,R11*
X39690000Y-32186359D02*
X39690000Y-32493641D01*
X38930000Y-32186359D02*
X38930000Y-32493641D01*
G04 #@! TO.C,R5*
X34970000Y-24811359D02*
X34970000Y-25118641D01*
X34210000Y-24811359D02*
X34210000Y-25118641D01*
G04 #@! TO.C,R6*
X35995000Y-24811359D02*
X35995000Y-25118641D01*
X35235000Y-24811359D02*
X35235000Y-25118641D01*
G04 #@! TO.C,C10*
X39980000Y-39152836D02*
X39980000Y-38937164D01*
X40700000Y-39152836D02*
X40700000Y-38937164D01*
G04 #@! TO.C,R2*
X33800000Y-44503641D02*
X33800000Y-44196359D01*
X34560000Y-44503641D02*
X34560000Y-44196359D01*
G04 #@! TO.C,C5*
X39980000Y-29087836D02*
X39980000Y-28872164D01*
X40700000Y-29087836D02*
X40700000Y-28872164D01*
G04 #@! TO.C,C11*
X40700000Y-37002164D02*
X40700000Y-37217836D01*
X39980000Y-37002164D02*
X39980000Y-37217836D01*
G04 #@! TO.C,C9*
X39670000Y-25012164D02*
X39670000Y-25227836D01*
X38950000Y-25012164D02*
X38950000Y-25227836D01*
G04 #@! TO.C,R6*
X35995000Y-36811359D02*
X35995000Y-37118641D01*
X35235000Y-36811359D02*
X35235000Y-37118641D01*
G04 #@! TO.C,C12*
X37702164Y-36320000D02*
X37917836Y-36320000D01*
X37702164Y-37040000D02*
X37917836Y-37040000D01*
G04 #@! TO.C,C11*
X40700000Y-25002164D02*
X40700000Y-25217836D01*
X39980000Y-25002164D02*
X39980000Y-25217836D01*
G04 #@! TO.C,C2*
X36507836Y-30240000D02*
X36292164Y-30240000D01*
X36507836Y-29520000D02*
X36292164Y-29520000D01*
G04 #@! TO.C,C8*
X39980000Y-43022836D02*
X39980000Y-42807164D01*
X40700000Y-43022836D02*
X40700000Y-42807164D01*
G04 #@! TO.C,C7*
X32710000Y-40712836D02*
X32710000Y-40497164D01*
X33430000Y-40712836D02*
X33430000Y-40497164D01*
G04 #@! TO.C,C14*
X34980000Y-28437836D02*
X34980000Y-28222164D01*
X35700000Y-28437836D02*
X35700000Y-28222164D01*
D10*
G04 #@! TO.C,U5*
X30680000Y-43070000D02*
X30680000Y-44770000D01*
X28980000Y-43070000D02*
X30680000Y-43070000D01*
X30680000Y-44770000D02*
X28980000Y-44770000D01*
X28980000Y-44770000D02*
X28980000Y-43070000D01*
X29180000Y-42920000D02*
G75*
G03*
X29180000Y-42920000I-50000J0D01*
G01*
D11*
X30330000Y-43970000D02*
X30130000Y-43970000D01*
X30230000Y-43820000D01*
X30330000Y-43970000D01*
G36*
X30330000Y-43970000D02*
G01*
X30130000Y-43970000D01*
X30230000Y-43820000D01*
X30330000Y-43970000D01*
G37*
X29405000Y-45195000D02*
X29305000Y-45195000D01*
X29305000Y-44745000D01*
X29405000Y-44745000D01*
X29405000Y-45195000D01*
G36*
X29405000Y-45195000D02*
G01*
X29305000Y-45195000D01*
X29305000Y-44745000D01*
X29405000Y-44745000D01*
X29405000Y-45195000D01*
G37*
X29580000Y-45020000D02*
X29130000Y-45020000D01*
X29130000Y-44920000D01*
X29580000Y-44920000D01*
X29580000Y-45020000D01*
G36*
X29580000Y-45020000D02*
G01*
X29130000Y-45020000D01*
X29130000Y-44920000D01*
X29580000Y-44920000D01*
X29580000Y-45020000D01*
G37*
X29960000Y-43580000D02*
X29960000Y-43590000D01*
X29830000Y-43590000D01*
X29830000Y-43420000D01*
X29960000Y-43420000D01*
X29960000Y-43580000D01*
G36*
X29960000Y-43580000D02*
G01*
X29960000Y-43590000D01*
X29830000Y-43590000D01*
X29830000Y-43420000D01*
X29960000Y-43420000D01*
X29960000Y-43580000D01*
G37*
G04 #@! TO.C,C13*
X33430000Y-38502164D02*
X33430000Y-38717836D01*
X32710000Y-38502164D02*
X32710000Y-38717836D01*
D12*
G04 #@! TO.C,U2*
X36214000Y-40944000D02*
X36214000Y-37792000D01*
X38366000Y-37792000D02*
X38366000Y-40944000D01*
D13*
X36628000Y-37336000D02*
G75*
G03*
X36628000Y-37336000I-100000J0D01*
G01*
D11*
G04 #@! TO.C,C14*
X34980000Y-40437836D02*
X34980000Y-40222164D01*
X35700000Y-40437836D02*
X35700000Y-40222164D01*
G04 #@! TO.C,C10*
X39980000Y-27152836D02*
X39980000Y-26937164D01*
X40700000Y-27152836D02*
X40700000Y-26937164D01*
D12*
G04 #@! TO.C,U2*
X36214000Y-28944000D02*
X36214000Y-25792000D01*
X38366000Y-25792000D02*
X38366000Y-28944000D01*
D13*
X36628000Y-25336000D02*
G75*
G03*
X36628000Y-25336000I-100000J0D01*
G01*
D11*
G04 #@! TO.C,C2*
X36507836Y-42240000D02*
X36292164Y-42240000D01*
X36507836Y-41520000D02*
X36292164Y-41520000D01*
G04 #@! TO.C,R10*
X38560000Y-44186359D02*
X38560000Y-44493641D01*
X37800000Y-44186359D02*
X37800000Y-44493641D01*
G04 #@! TO.C,C5*
X39980000Y-41087836D02*
X39980000Y-40872164D01*
X40700000Y-41087836D02*
X40700000Y-40872164D01*
G04 #@! TO.C,C7*
X32710000Y-28712836D02*
X32710000Y-28497164D01*
X33430000Y-28712836D02*
X33430000Y-28497164D01*
D14*
G04 #@! TO.C,SW1*
X33394000Y-25471000D02*
X30346000Y-25471000D01*
X33394000Y-23439000D02*
X30346000Y-23439000D01*
X31468000Y-24857000D02*
G75*
G03*
X31361508Y-24709252I402000J402000D01*
G01*
X33394000Y-37471000D02*
X30346000Y-37471000D01*
X33394000Y-35439000D02*
X30346000Y-35439000D01*
X31468000Y-36857000D02*
G75*
G03*
X31361508Y-36709252I402000J402000D01*
G01*
D11*
G04 #@! TO.C,R2*
X33800000Y-32503641D02*
X33800000Y-32196359D01*
X34560000Y-32503641D02*
X34560000Y-32196359D01*
G04 #@! TO.C,C6*
X41487836Y-33210000D02*
X41272164Y-33210000D01*
X41487836Y-32490000D02*
X41272164Y-32490000D01*
G04 #@! TO.C,C9*
X39670000Y-37012164D02*
X39670000Y-37227836D01*
X38950000Y-37012164D02*
X38950000Y-37227836D01*
G04 #@! TD*
M02*
