M48
; DRILL file {KiCad 7.0.2-6a45011f42~172~ubuntu22.04.1} date Sat May 27 08:42:39 2023
; FORMAT={-:-/ absolute / metric / decimal}
; #@! TF.CreationDate,2023-05-27T08:42:39+08:00
; #@! TF.GenerationSoftware,Kicad,Pcbnew,7.0.2-6a45011f42~172~ubuntu22.04.1
; #@! TF.FileFunction,MixedPlating,1,4
FMAT,2
METRIC
; #@! TA.AperFunction,Plated,PTH,ViaDrill
T1C0.200
; #@! TA.AperFunction,Plated,PTH,ComponentDrill
T2C0.500
; #@! TA.AperFunction,Plated,PTH,ComponentDrill
T3C0.650
; #@! TA.AperFunction,NonPlated,NPTH,ComponentDrill
T4C1.152
%
G90
G05
T1
X28.42Y-25.74
X28.42Y-31.06
X28.42Y-37.74
X28.42Y-43.06
X31.94Y-27.64
X31.94Y-39.64
X32.06Y-25.83
X32.06Y-37.83
X32.09Y-31.93
X32.09Y-43.93
X32.48Y-32.88
X32.48Y-44.88
X34.33Y-30.95
X34.33Y-42.95
X34.34Y-28.73
X34.34Y-40.73
X34.35Y-26.85
X34.35Y-29.785
X34.35Y-38.85
X34.35Y-41.785
X35.34Y-26.515
X35.34Y-38.515
X35.355Y-30.83
X35.355Y-42.83
X36.28Y-30.99
X36.28Y-42.99
X36.455Y-24.09
X36.455Y-36.09
X36.55Y-26.685
X36.55Y-38.685
X37.275Y-26.695
X37.275Y-38.695
X37.36Y-30.8
X37.36Y-42.8
X38.28Y-30.76
X38.28Y-42.76
X38.79Y-27.47
X38.79Y-28.27
X38.79Y-39.47
X38.79Y-40.27
X38.88Y-26.71
X38.88Y-38.71
X38.905Y-29.225
X38.905Y-41.225
X39.13Y-31.05
X39.13Y-43.05
X39.16Y-30.01
X39.16Y-42.01
X39.22Y-23.92
X39.22Y-35.92
X40.255Y-32.09
X40.255Y-44.09
T2
X28.93Y-24.11
X28.93Y-36.11
X29.677Y-34.1
X29.677Y-46.1
X31.31Y-34.1
X31.31Y-46.1
X32.932Y-34.1
X32.932Y-46.1
X34.56Y-34.1
X34.56Y-46.1
X36.188Y-34.1
X36.188Y-46.1
X37.815Y-34.1
X37.815Y-46.1
X39.442Y-34.1
X39.442Y-46.1
X41.07Y-34.1
X41.07Y-46.1
T3
X41.7Y-25.35
X41.7Y-26.62
X41.7Y-27.89
X41.7Y-29.16
X41.7Y-30.43
X41.7Y-31.7
X41.7Y-37.35
X41.7Y-38.62
X41.7Y-39.89
X41.7Y-41.16
X41.7Y-42.43
X41.7Y-43.7
T4
X2.5Y-2.5
X2.5Y-67.5
X67.5Y-2.5
T0
M30
