G04 #@! TF.GenerationSoftware,KiCad,Pcbnew,7.0.2-6a45011f42~172~ubuntu22.04.1*
G04 #@! TF.CreationDate,2023-05-28T07:21:03+08:00*
G04 #@! TF.ProjectId,panel_4_3,70616e65-6c5f-4345-9f33-2e6b69636164,rev?*
G04 #@! TF.SameCoordinates,Original*
G04 #@! TF.FileFunction,Legend,Bot*
G04 #@! TF.FilePolarity,Positive*
%FSLAX46Y46*%
G04 Gerber Fmt 4.6, Leading zero omitted, Abs format (unit mm)*
G04 Created by KiCad (PCBNEW 7.0.2-6a45011f42~172~ubuntu22.04.1) date 2023-05-28 07:21:03*
%MOMM*%
%LPD*%
G01*
G04 APERTURE LIST*
%ADD10C,0.120000*%
%ADD11C,0.100000*%
%ADD12C,0.254000*%
%ADD13C,0.152000*%
%ADD14C,0.200000*%
G04 APERTURE END LIST*
D10*
G04 #@! TO.C,C5*
X54980000Y-29087836D02*
X54980000Y-28872164D01*
X55700000Y-29087836D02*
X55700000Y-28872164D01*
G04 #@! TO.C,C7*
X47710000Y-40712836D02*
X47710000Y-40497164D01*
X48430000Y-40712836D02*
X48430000Y-40497164D01*
D11*
G04 #@! TO.C,U5*
X30680000Y-55070000D02*
X30680000Y-56770000D01*
X28980000Y-55070000D02*
X30680000Y-55070000D01*
X30680000Y-56770000D02*
X28980000Y-56770000D01*
X28980000Y-56770000D02*
X28980000Y-55070000D01*
X29180000Y-54920000D02*
G75*
G03*
X29180000Y-54920000I-50000J0D01*
G01*
D10*
X30330000Y-55970000D02*
X30130000Y-55970000D01*
X30230000Y-55820000D01*
X30330000Y-55970000D01*
G36*
X30330000Y-55970000D02*
G01*
X30130000Y-55970000D01*
X30230000Y-55820000D01*
X30330000Y-55970000D01*
G37*
X29405000Y-57195000D02*
X29305000Y-57195000D01*
X29305000Y-56745000D01*
X29405000Y-56745000D01*
X29405000Y-57195000D01*
G36*
X29405000Y-57195000D02*
G01*
X29305000Y-57195000D01*
X29305000Y-56745000D01*
X29405000Y-56745000D01*
X29405000Y-57195000D01*
G37*
X29580000Y-57020000D02*
X29130000Y-57020000D01*
X29130000Y-56920000D01*
X29580000Y-56920000D01*
X29580000Y-57020000D01*
G36*
X29580000Y-57020000D02*
G01*
X29130000Y-57020000D01*
X29130000Y-56920000D01*
X29580000Y-56920000D01*
X29580000Y-57020000D01*
G37*
X29960000Y-55580000D02*
X29960000Y-55590000D01*
X29830000Y-55590000D01*
X29830000Y-55420000D01*
X29960000Y-55420000D01*
X29960000Y-55580000D01*
G36*
X29960000Y-55580000D02*
G01*
X29960000Y-55590000D01*
X29830000Y-55590000D01*
X29830000Y-55420000D01*
X29960000Y-55420000D01*
X29960000Y-55580000D01*
G37*
G04 #@! TO.C,R6*
X20995000Y-36811359D02*
X20995000Y-37118641D01*
X20235000Y-36811359D02*
X20235000Y-37118641D01*
G04 #@! TO.C,C7*
X32710000Y-16712836D02*
X32710000Y-16497164D01*
X33430000Y-16712836D02*
X33430000Y-16497164D01*
G04 #@! TO.C,C8*
X54980000Y-31022836D02*
X54980000Y-30807164D01*
X55700000Y-31022836D02*
X55700000Y-30807164D01*
G04 #@! TO.C,R2*
X48800000Y-20503641D02*
X48800000Y-20196359D01*
X49560000Y-20503641D02*
X49560000Y-20196359D01*
X48800000Y-56503641D02*
X48800000Y-56196359D01*
X49560000Y-56503641D02*
X49560000Y-56196359D01*
G04 #@! TO.C,C12*
X22702164Y-24320000D02*
X22917836Y-24320000D01*
X22702164Y-25040000D02*
X22917836Y-25040000D01*
G04 #@! TO.C,R11*
X54690000Y-32186359D02*
X54690000Y-32493641D01*
X53930000Y-32186359D02*
X53930000Y-32493641D01*
G04 #@! TO.C,C7*
X32710000Y-28712836D02*
X32710000Y-28497164D01*
X33430000Y-28712836D02*
X33430000Y-28497164D01*
D12*
G04 #@! TO.C,SW1*
X18394000Y-49471000D02*
X15346000Y-49471000D01*
X18394000Y-47439000D02*
X15346000Y-47439000D01*
X16468000Y-48857000D02*
G75*
G03*
X16361508Y-48709252I402000J402000D01*
G01*
D10*
G04 #@! TO.C,R9*
X52450000Y-56186359D02*
X52450000Y-56493641D01*
X51690000Y-56186359D02*
X51690000Y-56493641D01*
G04 #@! TO.C,R11*
X39690000Y-56186359D02*
X39690000Y-56493641D01*
X38930000Y-56186359D02*
X38930000Y-56493641D01*
G04 #@! TO.C,C10*
X39980000Y-39152836D02*
X39980000Y-38937164D01*
X40700000Y-39152836D02*
X40700000Y-38937164D01*
G04 #@! TO.C,C5*
X39980000Y-17087836D02*
X39980000Y-16872164D01*
X40700000Y-17087836D02*
X40700000Y-16872164D01*
G04 #@! TO.C,R11*
X24690000Y-44186359D02*
X24690000Y-44493641D01*
X23930000Y-44186359D02*
X23930000Y-44493641D01*
X39690000Y-32186359D02*
X39690000Y-32493641D01*
X38930000Y-32186359D02*
X38930000Y-32493641D01*
G04 #@! TO.C,R5*
X49970000Y-36811359D02*
X49970000Y-37118641D01*
X49210000Y-36811359D02*
X49210000Y-37118641D01*
G04 #@! TO.C,C4*
X33430000Y-42492164D02*
X33430000Y-42707836D01*
X32710000Y-42492164D02*
X32710000Y-42707836D01*
D13*
G04 #@! TO.C,U2*
X51214000Y-28944000D02*
X51214000Y-25792000D01*
X53366000Y-25792000D02*
X53366000Y-28944000D01*
D14*
X51628000Y-25336000D02*
G75*
G03*
X51628000Y-25336000I-100000J0D01*
G01*
D13*
X36214000Y-40944000D02*
X36214000Y-37792000D01*
X38366000Y-37792000D02*
X38366000Y-40944000D01*
D14*
X36628000Y-37336000D02*
G75*
G03*
X36628000Y-37336000I-100000J0D01*
G01*
D10*
G04 #@! TO.C,C10*
X24980000Y-27152836D02*
X24980000Y-26937164D01*
X25700000Y-27152836D02*
X25700000Y-26937164D01*
G04 #@! TO.C,C4*
X33430000Y-30492164D02*
X33430000Y-30707836D01*
X32710000Y-30492164D02*
X32710000Y-30707836D01*
G04 #@! TO.C,C14*
X19980000Y-40437836D02*
X19980000Y-40222164D01*
X20700000Y-40437836D02*
X20700000Y-40222164D01*
G04 #@! TO.C,C11*
X55700000Y-25002164D02*
X55700000Y-25217836D01*
X54980000Y-25002164D02*
X54980000Y-25217836D01*
G04 #@! TO.C,C9*
X54670000Y-13012164D02*
X54670000Y-13227836D01*
X53950000Y-13012164D02*
X53950000Y-13227836D01*
G04 #@! TO.C,R8*
X51320000Y-44186359D02*
X51320000Y-44493641D01*
X50560000Y-44186359D02*
X50560000Y-44493641D01*
G04 #@! TO.C,C2*
X36507836Y-42240000D02*
X36292164Y-42240000D01*
X36507836Y-41520000D02*
X36292164Y-41520000D01*
D12*
G04 #@! TO.C,SW1*
X18394000Y-25471000D02*
X15346000Y-25471000D01*
X18394000Y-23439000D02*
X15346000Y-23439000D01*
X16468000Y-24857000D02*
G75*
G03*
X16361508Y-24709252I402000J402000D01*
G01*
D10*
G04 #@! TO.C,C5*
X54980000Y-41087836D02*
X54980000Y-40872164D01*
X55700000Y-41087836D02*
X55700000Y-40872164D01*
G04 #@! TO.C,R9*
X37450000Y-32186359D02*
X37450000Y-32493641D01*
X36690000Y-32186359D02*
X36690000Y-32493641D01*
G04 #@! TO.C,C14*
X49980000Y-16437836D02*
X49980000Y-16222164D01*
X50700000Y-16437836D02*
X50700000Y-16222164D01*
G04 #@! TO.C,C7*
X17710000Y-16712836D02*
X17710000Y-16497164D01*
X18430000Y-16712836D02*
X18430000Y-16497164D01*
G04 #@! TO.C,C12*
X52702164Y-36320000D02*
X52917836Y-36320000D01*
X52702164Y-37040000D02*
X52917836Y-37040000D01*
G04 #@! TO.C,C10*
X39980000Y-15152836D02*
X39980000Y-14937164D01*
X40700000Y-15152836D02*
X40700000Y-14937164D01*
G04 #@! TO.C,C8*
X54980000Y-55022836D02*
X54980000Y-54807164D01*
X55700000Y-55022836D02*
X55700000Y-54807164D01*
D11*
G04 #@! TO.C,U5*
X45680000Y-55070000D02*
X45680000Y-56770000D01*
X43980000Y-55070000D02*
X45680000Y-55070000D01*
X45680000Y-56770000D02*
X43980000Y-56770000D01*
X43980000Y-56770000D02*
X43980000Y-55070000D01*
X44180000Y-54920000D02*
G75*
G03*
X44180000Y-54920000I-50000J0D01*
G01*
D10*
X45330000Y-55970000D02*
X45130000Y-55970000D01*
X45230000Y-55820000D01*
X45330000Y-55970000D01*
G36*
X45330000Y-55970000D02*
G01*
X45130000Y-55970000D01*
X45230000Y-55820000D01*
X45330000Y-55970000D01*
G37*
X44405000Y-57195000D02*
X44305000Y-57195000D01*
X44305000Y-56745000D01*
X44405000Y-56745000D01*
X44405000Y-57195000D01*
G36*
X44405000Y-57195000D02*
G01*
X44305000Y-57195000D01*
X44305000Y-56745000D01*
X44405000Y-56745000D01*
X44405000Y-57195000D01*
G37*
X44580000Y-57020000D02*
X44130000Y-57020000D01*
X44130000Y-56920000D01*
X44580000Y-56920000D01*
X44580000Y-57020000D01*
G36*
X44580000Y-57020000D02*
G01*
X44130000Y-57020000D01*
X44130000Y-56920000D01*
X44580000Y-56920000D01*
X44580000Y-57020000D01*
G37*
X44960000Y-55580000D02*
X44960000Y-55590000D01*
X44830000Y-55590000D01*
X44830000Y-55420000D01*
X44960000Y-55420000D01*
X44960000Y-55580000D01*
G36*
X44960000Y-55580000D02*
G01*
X44960000Y-55590000D01*
X44830000Y-55590000D01*
X44830000Y-55420000D01*
X44960000Y-55420000D01*
X44960000Y-55580000D01*
G37*
G04 #@! TO.C,R5*
X49970000Y-24811359D02*
X49970000Y-25118641D01*
X49210000Y-24811359D02*
X49210000Y-25118641D01*
G04 #@! TO.C,C2*
X21507836Y-54240000D02*
X21292164Y-54240000D01*
X21507836Y-53520000D02*
X21292164Y-53520000D01*
X21507836Y-30240000D02*
X21292164Y-30240000D01*
X21507836Y-29520000D02*
X21292164Y-29520000D01*
G04 #@! TO.C,C7*
X47710000Y-28712836D02*
X47710000Y-28497164D01*
X48430000Y-28712836D02*
X48430000Y-28497164D01*
G04 #@! TO.C,R11*
X24690000Y-56186359D02*
X24690000Y-56493641D01*
X23930000Y-56186359D02*
X23930000Y-56493641D01*
G04 #@! TO.C,C8*
X54980000Y-43022836D02*
X54980000Y-42807164D01*
X55700000Y-43022836D02*
X55700000Y-42807164D01*
D12*
G04 #@! TO.C,SW1*
X48394000Y-25471000D02*
X45346000Y-25471000D01*
X48394000Y-23439000D02*
X45346000Y-23439000D01*
X46468000Y-24857000D02*
G75*
G03*
X46361508Y-24709252I402000J402000D01*
G01*
X18394000Y-37471000D02*
X15346000Y-37471000D01*
X18394000Y-35439000D02*
X15346000Y-35439000D01*
X16468000Y-36857000D02*
G75*
G03*
X16361508Y-36709252I402000J402000D01*
G01*
D10*
G04 #@! TO.C,R10*
X53560000Y-56186359D02*
X53560000Y-56493641D01*
X52800000Y-56186359D02*
X52800000Y-56493641D01*
G04 #@! TO.C,C8*
X24980000Y-55022836D02*
X24980000Y-54807164D01*
X25700000Y-55022836D02*
X25700000Y-54807164D01*
G04 #@! TO.C,C13*
X48430000Y-26502164D02*
X48430000Y-26717836D01*
X47710000Y-26502164D02*
X47710000Y-26717836D01*
G04 #@! TO.C,R9*
X37450000Y-44186359D02*
X37450000Y-44493641D01*
X36690000Y-44186359D02*
X36690000Y-44493641D01*
G04 #@! TO.C,C5*
X39980000Y-41087836D02*
X39980000Y-40872164D01*
X40700000Y-41087836D02*
X40700000Y-40872164D01*
D11*
G04 #@! TO.C,U5*
X45680000Y-31070000D02*
X45680000Y-32770000D01*
X43980000Y-31070000D02*
X45680000Y-31070000D01*
X45680000Y-32770000D02*
X43980000Y-32770000D01*
X43980000Y-32770000D02*
X43980000Y-31070000D01*
X44180000Y-30920000D02*
G75*
G03*
X44180000Y-30920000I-50000J0D01*
G01*
D10*
X45330000Y-31970000D02*
X45130000Y-31970000D01*
X45230000Y-31820000D01*
X45330000Y-31970000D01*
G36*
X45330000Y-31970000D02*
G01*
X45130000Y-31970000D01*
X45230000Y-31820000D01*
X45330000Y-31970000D01*
G37*
X44405000Y-33195000D02*
X44305000Y-33195000D01*
X44305000Y-32745000D01*
X44405000Y-32745000D01*
X44405000Y-33195000D01*
G36*
X44405000Y-33195000D02*
G01*
X44305000Y-33195000D01*
X44305000Y-32745000D01*
X44405000Y-32745000D01*
X44405000Y-33195000D01*
G37*
X44580000Y-33020000D02*
X44130000Y-33020000D01*
X44130000Y-32920000D01*
X44580000Y-32920000D01*
X44580000Y-33020000D01*
G36*
X44580000Y-33020000D02*
G01*
X44130000Y-33020000D01*
X44130000Y-32920000D01*
X44580000Y-32920000D01*
X44580000Y-33020000D01*
G37*
X44960000Y-31580000D02*
X44960000Y-31590000D01*
X44830000Y-31590000D01*
X44830000Y-31420000D01*
X44960000Y-31420000D01*
X44960000Y-31580000D01*
G36*
X44960000Y-31580000D02*
G01*
X44960000Y-31590000D01*
X44830000Y-31590000D01*
X44830000Y-31420000D01*
X44960000Y-31420000D01*
X44960000Y-31580000D01*
G37*
G04 #@! TO.C,C6*
X56487836Y-57210000D02*
X56272164Y-57210000D01*
X56487836Y-56490000D02*
X56272164Y-56490000D01*
G04 #@! TO.C,R6*
X20995000Y-12811359D02*
X20995000Y-13118641D01*
X20235000Y-12811359D02*
X20235000Y-13118641D01*
G04 #@! TO.C,R9*
X37450000Y-56186359D02*
X37450000Y-56493641D01*
X36690000Y-56186359D02*
X36690000Y-56493641D01*
G04 #@! TO.C,C10*
X54980000Y-27152836D02*
X54980000Y-26937164D01*
X55700000Y-27152836D02*
X55700000Y-26937164D01*
D13*
G04 #@! TO.C,U2*
X21214000Y-40944000D02*
X21214000Y-37792000D01*
X23366000Y-37792000D02*
X23366000Y-40944000D01*
D14*
X21628000Y-37336000D02*
G75*
G03*
X21628000Y-37336000I-100000J0D01*
G01*
D12*
G04 #@! TO.C,SW1*
X33394000Y-13471000D02*
X30346000Y-13471000D01*
X33394000Y-11439000D02*
X30346000Y-11439000D01*
X31468000Y-12857000D02*
G75*
G03*
X31361508Y-12709252I402000J402000D01*
G01*
D10*
G04 #@! TO.C,C12*
X22702164Y-48320000D02*
X22917836Y-48320000D01*
X22702164Y-49040000D02*
X22917836Y-49040000D01*
G04 #@! TO.C,C14*
X19980000Y-52437836D02*
X19980000Y-52222164D01*
X20700000Y-52437836D02*
X20700000Y-52222164D01*
G04 #@! TO.C,R6*
X35995000Y-12811359D02*
X35995000Y-13118641D01*
X35235000Y-12811359D02*
X35235000Y-13118641D01*
G04 #@! TO.C,C14*
X19980000Y-28437836D02*
X19980000Y-28222164D01*
X20700000Y-28437836D02*
X20700000Y-28222164D01*
G04 #@! TO.C,C12*
X37702164Y-36320000D02*
X37917836Y-36320000D01*
X37702164Y-37040000D02*
X37917836Y-37040000D01*
G04 #@! TO.C,R10*
X53560000Y-20186359D02*
X53560000Y-20493641D01*
X52800000Y-20186359D02*
X52800000Y-20493641D01*
G04 #@! TO.C,R8*
X51320000Y-20186359D02*
X51320000Y-20493641D01*
X50560000Y-20186359D02*
X50560000Y-20493641D01*
G04 #@! TO.C,R2*
X18800000Y-20503641D02*
X18800000Y-20196359D01*
X19560000Y-20503641D02*
X19560000Y-20196359D01*
G04 #@! TO.C,C8*
X54980000Y-19022836D02*
X54980000Y-18807164D01*
X55700000Y-19022836D02*
X55700000Y-18807164D01*
G04 #@! TO.C,R10*
X38560000Y-32186359D02*
X38560000Y-32493641D01*
X37800000Y-32186359D02*
X37800000Y-32493641D01*
G04 #@! TO.C,R6*
X50995000Y-12811359D02*
X50995000Y-13118641D01*
X50235000Y-12811359D02*
X50235000Y-13118641D01*
G04 #@! TO.C,C7*
X47710000Y-52712836D02*
X47710000Y-52497164D01*
X48430000Y-52712836D02*
X48430000Y-52497164D01*
G04 #@! TO.C,C5*
X24980000Y-17087836D02*
X24980000Y-16872164D01*
X25700000Y-17087836D02*
X25700000Y-16872164D01*
G04 #@! TO.C,C13*
X18430000Y-14502164D02*
X18430000Y-14717836D01*
X17710000Y-14502164D02*
X17710000Y-14717836D01*
G04 #@! TO.C,C9*
X24670000Y-49012164D02*
X24670000Y-49227836D01*
X23950000Y-49012164D02*
X23950000Y-49227836D01*
D13*
G04 #@! TO.C,U2*
X36214000Y-28944000D02*
X36214000Y-25792000D01*
X38366000Y-25792000D02*
X38366000Y-28944000D01*
D14*
X36628000Y-25336000D02*
G75*
G03*
X36628000Y-25336000I-100000J0D01*
G01*
D10*
G04 #@! TO.C,R10*
X38560000Y-20186359D02*
X38560000Y-20493641D01*
X37800000Y-20186359D02*
X37800000Y-20493641D01*
G04 #@! TO.C,C12*
X52702164Y-24320000D02*
X52917836Y-24320000D01*
X52702164Y-25040000D02*
X52917836Y-25040000D01*
D11*
G04 #@! TO.C,U5*
X15680000Y-55070000D02*
X15680000Y-56770000D01*
X13980000Y-55070000D02*
X15680000Y-55070000D01*
X15680000Y-56770000D02*
X13980000Y-56770000D01*
X13980000Y-56770000D02*
X13980000Y-55070000D01*
X14180000Y-54920000D02*
G75*
G03*
X14180000Y-54920000I-50000J0D01*
G01*
D10*
X15330000Y-55970000D02*
X15130000Y-55970000D01*
X15230000Y-55820000D01*
X15330000Y-55970000D01*
G36*
X15330000Y-55970000D02*
G01*
X15130000Y-55970000D01*
X15230000Y-55820000D01*
X15330000Y-55970000D01*
G37*
X14405000Y-57195000D02*
X14305000Y-57195000D01*
X14305000Y-56745000D01*
X14405000Y-56745000D01*
X14405000Y-57195000D01*
G36*
X14405000Y-57195000D02*
G01*
X14305000Y-57195000D01*
X14305000Y-56745000D01*
X14405000Y-56745000D01*
X14405000Y-57195000D01*
G37*
X14580000Y-57020000D02*
X14130000Y-57020000D01*
X14130000Y-56920000D01*
X14580000Y-56920000D01*
X14580000Y-57020000D01*
G36*
X14580000Y-57020000D02*
G01*
X14130000Y-57020000D01*
X14130000Y-56920000D01*
X14580000Y-56920000D01*
X14580000Y-57020000D01*
G37*
X14960000Y-55580000D02*
X14960000Y-55590000D01*
X14830000Y-55590000D01*
X14830000Y-55420000D01*
X14960000Y-55420000D01*
X14960000Y-55580000D01*
G36*
X14960000Y-55580000D02*
G01*
X14960000Y-55590000D01*
X14830000Y-55590000D01*
X14830000Y-55420000D01*
X14960000Y-55420000D01*
X14960000Y-55580000D01*
G37*
G04 #@! TO.C,C5*
X54980000Y-17087836D02*
X54980000Y-16872164D01*
X55700000Y-17087836D02*
X55700000Y-16872164D01*
G04 #@! TO.C,R5*
X19970000Y-48811359D02*
X19970000Y-49118641D01*
X19210000Y-48811359D02*
X19210000Y-49118641D01*
D13*
G04 #@! TO.C,U2*
X21214000Y-28944000D02*
X21214000Y-25792000D01*
X23366000Y-25792000D02*
X23366000Y-28944000D01*
D14*
X21628000Y-25336000D02*
G75*
G03*
X21628000Y-25336000I-100000J0D01*
G01*
D10*
G04 #@! TO.C,R2*
X33800000Y-32503641D02*
X33800000Y-32196359D01*
X34560000Y-32503641D02*
X34560000Y-32196359D01*
G04 #@! TO.C,C2*
X51507836Y-42240000D02*
X51292164Y-42240000D01*
X51507836Y-41520000D02*
X51292164Y-41520000D01*
G04 #@! TO.C,R5*
X49970000Y-48811359D02*
X49970000Y-49118641D01*
X49210000Y-48811359D02*
X49210000Y-49118641D01*
G04 #@! TO.C,C7*
X32710000Y-52712836D02*
X32710000Y-52497164D01*
X33430000Y-52712836D02*
X33430000Y-52497164D01*
D13*
G04 #@! TO.C,U2*
X21214000Y-52944000D02*
X21214000Y-49792000D01*
X23366000Y-49792000D02*
X23366000Y-52944000D01*
D14*
X21628000Y-49336000D02*
G75*
G03*
X21628000Y-49336000I-100000J0D01*
G01*
D10*
G04 #@! TO.C,R5*
X19970000Y-24811359D02*
X19970000Y-25118641D01*
X19210000Y-24811359D02*
X19210000Y-25118641D01*
G04 #@! TO.C,R6*
X50995000Y-36811359D02*
X50995000Y-37118641D01*
X50235000Y-36811359D02*
X50235000Y-37118641D01*
G04 #@! TO.C,C5*
X54980000Y-53087836D02*
X54980000Y-52872164D01*
X55700000Y-53087836D02*
X55700000Y-52872164D01*
G04 #@! TO.C,C4*
X18430000Y-30492164D02*
X18430000Y-30707836D01*
X17710000Y-30492164D02*
X17710000Y-30707836D01*
G04 #@! TO.C,C14*
X34980000Y-28437836D02*
X34980000Y-28222164D01*
X35700000Y-28437836D02*
X35700000Y-28222164D01*
G04 #@! TO.C,C4*
X18430000Y-18492164D02*
X18430000Y-18707836D01*
X17710000Y-18492164D02*
X17710000Y-18707836D01*
G04 #@! TO.C,C9*
X24670000Y-37012164D02*
X24670000Y-37227836D01*
X23950000Y-37012164D02*
X23950000Y-37227836D01*
G04 #@! TO.C,C4*
X33430000Y-18492164D02*
X33430000Y-18707836D01*
X32710000Y-18492164D02*
X32710000Y-18707836D01*
G04 #@! TO.C,R2*
X33800000Y-20503641D02*
X33800000Y-20196359D01*
X34560000Y-20503641D02*
X34560000Y-20196359D01*
G04 #@! TO.C,C6*
X56487836Y-21210000D02*
X56272164Y-21210000D01*
X56487836Y-20490000D02*
X56272164Y-20490000D01*
G04 #@! TO.C,C11*
X55700000Y-49002164D02*
X55700000Y-49217836D01*
X54980000Y-49002164D02*
X54980000Y-49217836D01*
G04 #@! TO.C,C14*
X19980000Y-16437836D02*
X19980000Y-16222164D01*
X20700000Y-16437836D02*
X20700000Y-16222164D01*
G04 #@! TO.C,C10*
X54980000Y-15152836D02*
X54980000Y-14937164D01*
X55700000Y-15152836D02*
X55700000Y-14937164D01*
G04 #@! TO.C,R10*
X23560000Y-44186359D02*
X23560000Y-44493641D01*
X22800000Y-44186359D02*
X22800000Y-44493641D01*
G04 #@! TO.C,C9*
X39670000Y-13012164D02*
X39670000Y-13227836D01*
X38950000Y-13012164D02*
X38950000Y-13227836D01*
G04 #@! TO.C,C6*
X26487836Y-21210000D02*
X26272164Y-21210000D01*
X26487836Y-20490000D02*
X26272164Y-20490000D01*
D11*
G04 #@! TO.C,U5*
X30680000Y-31070000D02*
X30680000Y-32770000D01*
X28980000Y-31070000D02*
X30680000Y-31070000D01*
X30680000Y-32770000D02*
X28980000Y-32770000D01*
X28980000Y-32770000D02*
X28980000Y-31070000D01*
X29180000Y-30920000D02*
G75*
G03*
X29180000Y-30920000I-50000J0D01*
G01*
D10*
X30330000Y-31970000D02*
X30130000Y-31970000D01*
X30230000Y-31820000D01*
X30330000Y-31970000D01*
G36*
X30330000Y-31970000D02*
G01*
X30130000Y-31970000D01*
X30230000Y-31820000D01*
X30330000Y-31970000D01*
G37*
X29405000Y-33195000D02*
X29305000Y-33195000D01*
X29305000Y-32745000D01*
X29405000Y-32745000D01*
X29405000Y-33195000D01*
G36*
X29405000Y-33195000D02*
G01*
X29305000Y-33195000D01*
X29305000Y-32745000D01*
X29405000Y-32745000D01*
X29405000Y-33195000D01*
G37*
X29580000Y-33020000D02*
X29130000Y-33020000D01*
X29130000Y-32920000D01*
X29580000Y-32920000D01*
X29580000Y-33020000D01*
G36*
X29580000Y-33020000D02*
G01*
X29130000Y-33020000D01*
X29130000Y-32920000D01*
X29580000Y-32920000D01*
X29580000Y-33020000D01*
G37*
X29960000Y-31580000D02*
X29960000Y-31590000D01*
X29830000Y-31590000D01*
X29830000Y-31420000D01*
X29960000Y-31420000D01*
X29960000Y-31580000D01*
G36*
X29960000Y-31580000D02*
G01*
X29960000Y-31590000D01*
X29830000Y-31590000D01*
X29830000Y-31420000D01*
X29960000Y-31420000D01*
X29960000Y-31580000D01*
G37*
G04 #@! TO.C,R8*
X21320000Y-20186359D02*
X21320000Y-20493641D01*
X20560000Y-20186359D02*
X20560000Y-20493641D01*
G04 #@! TO.C,C14*
X34980000Y-40437836D02*
X34980000Y-40222164D01*
X35700000Y-40437836D02*
X35700000Y-40222164D01*
D13*
G04 #@! TO.C,U2*
X36214000Y-52944000D02*
X36214000Y-49792000D01*
X38366000Y-49792000D02*
X38366000Y-52944000D01*
D14*
X36628000Y-49336000D02*
G75*
G03*
X36628000Y-49336000I-100000J0D01*
G01*
D10*
G04 #@! TO.C,R2*
X33800000Y-56503641D02*
X33800000Y-56196359D01*
X34560000Y-56503641D02*
X34560000Y-56196359D01*
D12*
G04 #@! TO.C,SW1*
X48394000Y-13471000D02*
X45346000Y-13471000D01*
X48394000Y-11439000D02*
X45346000Y-11439000D01*
X46468000Y-12857000D02*
G75*
G03*
X46361508Y-12709252I402000J402000D01*
G01*
X48394000Y-49471000D02*
X45346000Y-49471000D01*
X48394000Y-47439000D02*
X45346000Y-47439000D01*
X46468000Y-48857000D02*
G75*
G03*
X46361508Y-48709252I402000J402000D01*
G01*
D13*
G04 #@! TO.C,U2*
X36214000Y-16944000D02*
X36214000Y-13792000D01*
X38366000Y-13792000D02*
X38366000Y-16944000D01*
D14*
X36628000Y-13336000D02*
G75*
G03*
X36628000Y-13336000I-100000J0D01*
G01*
D10*
G04 #@! TO.C,C5*
X39980000Y-53087836D02*
X39980000Y-52872164D01*
X40700000Y-53087836D02*
X40700000Y-52872164D01*
G04 #@! TO.C,R9*
X52450000Y-44186359D02*
X52450000Y-44493641D01*
X51690000Y-44186359D02*
X51690000Y-44493641D01*
D12*
G04 #@! TO.C,SW1*
X33394000Y-25471000D02*
X30346000Y-25471000D01*
X33394000Y-23439000D02*
X30346000Y-23439000D01*
X31468000Y-24857000D02*
G75*
G03*
X31361508Y-24709252I402000J402000D01*
G01*
D10*
G04 #@! TO.C,C13*
X18430000Y-26502164D02*
X18430000Y-26717836D01*
X17710000Y-26502164D02*
X17710000Y-26717836D01*
G04 #@! TO.C,C5*
X39980000Y-29087836D02*
X39980000Y-28872164D01*
X40700000Y-29087836D02*
X40700000Y-28872164D01*
G04 #@! TO.C,R2*
X48800000Y-32503641D02*
X48800000Y-32196359D01*
X49560000Y-32503641D02*
X49560000Y-32196359D01*
G04 #@! TO.C,R11*
X24690000Y-20186359D02*
X24690000Y-20493641D01*
X23930000Y-20186359D02*
X23930000Y-20493641D01*
G04 #@! TO.C,R8*
X36320000Y-32186359D02*
X36320000Y-32493641D01*
X35560000Y-32186359D02*
X35560000Y-32493641D01*
G04 #@! TO.C,R6*
X20995000Y-48811359D02*
X20995000Y-49118641D01*
X20235000Y-48811359D02*
X20235000Y-49118641D01*
G04 #@! TO.C,R10*
X23560000Y-20186359D02*
X23560000Y-20493641D01*
X22800000Y-20186359D02*
X22800000Y-20493641D01*
G04 #@! TO.C,C12*
X37702164Y-12320000D02*
X37917836Y-12320000D01*
X37702164Y-13040000D02*
X37917836Y-13040000D01*
G04 #@! TO.C,R9*
X52450000Y-20186359D02*
X52450000Y-20493641D01*
X51690000Y-20186359D02*
X51690000Y-20493641D01*
G04 #@! TO.C,R5*
X34970000Y-12811359D02*
X34970000Y-13118641D01*
X34210000Y-12811359D02*
X34210000Y-13118641D01*
G04 #@! TO.C,C4*
X48430000Y-18492164D02*
X48430000Y-18707836D01*
X47710000Y-18492164D02*
X47710000Y-18707836D01*
D11*
G04 #@! TO.C,U5*
X15680000Y-31070000D02*
X15680000Y-32770000D01*
X13980000Y-31070000D02*
X15680000Y-31070000D01*
X15680000Y-32770000D02*
X13980000Y-32770000D01*
X13980000Y-32770000D02*
X13980000Y-31070000D01*
X14180000Y-30920000D02*
G75*
G03*
X14180000Y-30920000I-50000J0D01*
G01*
D10*
X15330000Y-31970000D02*
X15130000Y-31970000D01*
X15230000Y-31820000D01*
X15330000Y-31970000D01*
G36*
X15330000Y-31970000D02*
G01*
X15130000Y-31970000D01*
X15230000Y-31820000D01*
X15330000Y-31970000D01*
G37*
X14405000Y-33195000D02*
X14305000Y-33195000D01*
X14305000Y-32745000D01*
X14405000Y-32745000D01*
X14405000Y-33195000D01*
G36*
X14405000Y-33195000D02*
G01*
X14305000Y-33195000D01*
X14305000Y-32745000D01*
X14405000Y-32745000D01*
X14405000Y-33195000D01*
G37*
X14580000Y-33020000D02*
X14130000Y-33020000D01*
X14130000Y-32920000D01*
X14580000Y-32920000D01*
X14580000Y-33020000D01*
G36*
X14580000Y-33020000D02*
G01*
X14130000Y-33020000D01*
X14130000Y-32920000D01*
X14580000Y-32920000D01*
X14580000Y-33020000D01*
G37*
X14960000Y-31580000D02*
X14960000Y-31590000D01*
X14830000Y-31590000D01*
X14830000Y-31420000D01*
X14960000Y-31420000D01*
X14960000Y-31580000D01*
G36*
X14960000Y-31580000D02*
G01*
X14960000Y-31590000D01*
X14830000Y-31590000D01*
X14830000Y-31420000D01*
X14960000Y-31420000D01*
X14960000Y-31580000D01*
G37*
G04 #@! TO.C,C6*
X41487836Y-57210000D02*
X41272164Y-57210000D01*
X41487836Y-56490000D02*
X41272164Y-56490000D01*
G04 #@! TO.C,C4*
X48430000Y-54492164D02*
X48430000Y-54707836D01*
X47710000Y-54492164D02*
X47710000Y-54707836D01*
G04 #@! TO.C,R11*
X39690000Y-44186359D02*
X39690000Y-44493641D01*
X38930000Y-44186359D02*
X38930000Y-44493641D01*
G04 #@! TO.C,R9*
X52450000Y-32186359D02*
X52450000Y-32493641D01*
X51690000Y-32186359D02*
X51690000Y-32493641D01*
G04 #@! TO.C,C10*
X54980000Y-39152836D02*
X54980000Y-38937164D01*
X55700000Y-39152836D02*
X55700000Y-38937164D01*
G04 #@! TO.C,C14*
X49980000Y-52437836D02*
X49980000Y-52222164D01*
X50700000Y-52437836D02*
X50700000Y-52222164D01*
G04 #@! TO.C,R6*
X35995000Y-48811359D02*
X35995000Y-49118641D01*
X35235000Y-48811359D02*
X35235000Y-49118641D01*
G04 #@! TO.C,C4*
X48430000Y-30492164D02*
X48430000Y-30707836D01*
X47710000Y-30492164D02*
X47710000Y-30707836D01*
G04 #@! TO.C,R2*
X48800000Y-44503641D02*
X48800000Y-44196359D01*
X49560000Y-44503641D02*
X49560000Y-44196359D01*
G04 #@! TO.C,R11*
X54690000Y-20186359D02*
X54690000Y-20493641D01*
X53930000Y-20186359D02*
X53930000Y-20493641D01*
G04 #@! TO.C,C6*
X41487836Y-45210000D02*
X41272164Y-45210000D01*
X41487836Y-44490000D02*
X41272164Y-44490000D01*
G04 #@! TO.C,R5*
X49970000Y-12811359D02*
X49970000Y-13118641D01*
X49210000Y-12811359D02*
X49210000Y-13118641D01*
G04 #@! TO.C,C13*
X48430000Y-14502164D02*
X48430000Y-14717836D01*
X47710000Y-14502164D02*
X47710000Y-14717836D01*
G04 #@! TO.C,C9*
X54670000Y-25012164D02*
X54670000Y-25227836D01*
X53950000Y-25012164D02*
X53950000Y-25227836D01*
G04 #@! TO.C,R10*
X23560000Y-32186359D02*
X23560000Y-32493641D01*
X22800000Y-32186359D02*
X22800000Y-32493641D01*
G04 #@! TO.C,C7*
X17710000Y-28712836D02*
X17710000Y-28497164D01*
X18430000Y-28712836D02*
X18430000Y-28497164D01*
G04 #@! TO.C,R9*
X37450000Y-20186359D02*
X37450000Y-20493641D01*
X36690000Y-20186359D02*
X36690000Y-20493641D01*
G04 #@! TO.C,R8*
X51320000Y-56186359D02*
X51320000Y-56493641D01*
X50560000Y-56186359D02*
X50560000Y-56493641D01*
G04 #@! TO.C,C11*
X25700000Y-13002164D02*
X25700000Y-13217836D01*
X24980000Y-13002164D02*
X24980000Y-13217836D01*
G04 #@! TO.C,R11*
X54690000Y-56186359D02*
X54690000Y-56493641D01*
X53930000Y-56186359D02*
X53930000Y-56493641D01*
G04 #@! TO.C,R2*
X18800000Y-44503641D02*
X18800000Y-44196359D01*
X19560000Y-44503641D02*
X19560000Y-44196359D01*
X18800000Y-32503641D02*
X18800000Y-32196359D01*
X19560000Y-32503641D02*
X19560000Y-32196359D01*
D11*
G04 #@! TO.C,U5*
X45680000Y-43070000D02*
X45680000Y-44770000D01*
X43980000Y-43070000D02*
X45680000Y-43070000D01*
X45680000Y-44770000D02*
X43980000Y-44770000D01*
X43980000Y-44770000D02*
X43980000Y-43070000D01*
X44180000Y-42920000D02*
G75*
G03*
X44180000Y-42920000I-50000J0D01*
G01*
D10*
X45330000Y-43970000D02*
X45130000Y-43970000D01*
X45230000Y-43820000D01*
X45330000Y-43970000D01*
G36*
X45330000Y-43970000D02*
G01*
X45130000Y-43970000D01*
X45230000Y-43820000D01*
X45330000Y-43970000D01*
G37*
X44405000Y-45195000D02*
X44305000Y-45195000D01*
X44305000Y-44745000D01*
X44405000Y-44745000D01*
X44405000Y-45195000D01*
G36*
X44405000Y-45195000D02*
G01*
X44305000Y-45195000D01*
X44305000Y-44745000D01*
X44405000Y-44745000D01*
X44405000Y-45195000D01*
G37*
X44580000Y-45020000D02*
X44130000Y-45020000D01*
X44130000Y-44920000D01*
X44580000Y-44920000D01*
X44580000Y-45020000D01*
G36*
X44580000Y-45020000D02*
G01*
X44130000Y-45020000D01*
X44130000Y-44920000D01*
X44580000Y-44920000D01*
X44580000Y-45020000D01*
G37*
X44960000Y-43580000D02*
X44960000Y-43590000D01*
X44830000Y-43590000D01*
X44830000Y-43420000D01*
X44960000Y-43420000D01*
X44960000Y-43580000D01*
G36*
X44960000Y-43580000D02*
G01*
X44960000Y-43590000D01*
X44830000Y-43590000D01*
X44830000Y-43420000D01*
X44960000Y-43420000D01*
X44960000Y-43580000D01*
G37*
D11*
X45680000Y-19070000D02*
X45680000Y-20770000D01*
X43980000Y-19070000D02*
X45680000Y-19070000D01*
X45680000Y-20770000D02*
X43980000Y-20770000D01*
X43980000Y-20770000D02*
X43980000Y-19070000D01*
X44180000Y-18920000D02*
G75*
G03*
X44180000Y-18920000I-50000J0D01*
G01*
D10*
X45330000Y-19970000D02*
X45130000Y-19970000D01*
X45230000Y-19820000D01*
X45330000Y-19970000D01*
G36*
X45330000Y-19970000D02*
G01*
X45130000Y-19970000D01*
X45230000Y-19820000D01*
X45330000Y-19970000D01*
G37*
X44405000Y-21195000D02*
X44305000Y-21195000D01*
X44305000Y-20745000D01*
X44405000Y-20745000D01*
X44405000Y-21195000D01*
G36*
X44405000Y-21195000D02*
G01*
X44305000Y-21195000D01*
X44305000Y-20745000D01*
X44405000Y-20745000D01*
X44405000Y-21195000D01*
G37*
X44580000Y-21020000D02*
X44130000Y-21020000D01*
X44130000Y-20920000D01*
X44580000Y-20920000D01*
X44580000Y-21020000D01*
G36*
X44580000Y-21020000D02*
G01*
X44130000Y-21020000D01*
X44130000Y-20920000D01*
X44580000Y-20920000D01*
X44580000Y-21020000D01*
G37*
X44960000Y-19580000D02*
X44960000Y-19590000D01*
X44830000Y-19590000D01*
X44830000Y-19420000D01*
X44960000Y-19420000D01*
X44960000Y-19580000D01*
G36*
X44960000Y-19580000D02*
G01*
X44960000Y-19590000D01*
X44830000Y-19590000D01*
X44830000Y-19420000D01*
X44960000Y-19420000D01*
X44960000Y-19580000D01*
G37*
G04 #@! TO.C,C6*
X41487836Y-33210000D02*
X41272164Y-33210000D01*
X41487836Y-32490000D02*
X41272164Y-32490000D01*
G04 #@! TO.C,C9*
X39670000Y-37012164D02*
X39670000Y-37227836D01*
X38950000Y-37012164D02*
X38950000Y-37227836D01*
G04 #@! TO.C,C5*
X24980000Y-29087836D02*
X24980000Y-28872164D01*
X25700000Y-29087836D02*
X25700000Y-28872164D01*
G04 #@! TO.C,C9*
X39670000Y-49012164D02*
X39670000Y-49227836D01*
X38950000Y-49012164D02*
X38950000Y-49227836D01*
G04 #@! TO.C,C2*
X36507836Y-30240000D02*
X36292164Y-30240000D01*
X36507836Y-29520000D02*
X36292164Y-29520000D01*
G04 #@! TO.C,C12*
X52702164Y-12320000D02*
X52917836Y-12320000D01*
X52702164Y-13040000D02*
X52917836Y-13040000D01*
G04 #@! TO.C,C13*
X48430000Y-38502164D02*
X48430000Y-38717836D01*
X47710000Y-38502164D02*
X47710000Y-38717836D01*
D12*
G04 #@! TO.C,SW1*
X48394000Y-37471000D02*
X45346000Y-37471000D01*
X48394000Y-35439000D02*
X45346000Y-35439000D01*
X46468000Y-36857000D02*
G75*
G03*
X46361508Y-36709252I402000J402000D01*
G01*
D10*
G04 #@! TO.C,C10*
X24980000Y-51152836D02*
X24980000Y-50937164D01*
X25700000Y-51152836D02*
X25700000Y-50937164D01*
G04 #@! TO.C,C13*
X33430000Y-50502164D02*
X33430000Y-50717836D01*
X32710000Y-50502164D02*
X32710000Y-50717836D01*
G04 #@! TO.C,R10*
X53560000Y-32186359D02*
X53560000Y-32493641D01*
X52800000Y-32186359D02*
X52800000Y-32493641D01*
G04 #@! TO.C,C6*
X56487836Y-33210000D02*
X56272164Y-33210000D01*
X56487836Y-32490000D02*
X56272164Y-32490000D01*
G04 #@! TO.C,R10*
X53560000Y-44186359D02*
X53560000Y-44493641D01*
X52800000Y-44186359D02*
X52800000Y-44493641D01*
G04 #@! TO.C,C14*
X49980000Y-28437836D02*
X49980000Y-28222164D01*
X50700000Y-28437836D02*
X50700000Y-28222164D01*
G04 #@! TO.C,R9*
X22450000Y-56186359D02*
X22450000Y-56493641D01*
X21690000Y-56186359D02*
X21690000Y-56493641D01*
G04 #@! TO.C,C7*
X32710000Y-40712836D02*
X32710000Y-40497164D01*
X33430000Y-40712836D02*
X33430000Y-40497164D01*
D13*
G04 #@! TO.C,U2*
X51214000Y-40944000D02*
X51214000Y-37792000D01*
X53366000Y-37792000D02*
X53366000Y-40944000D01*
D14*
X51628000Y-37336000D02*
G75*
G03*
X51628000Y-37336000I-100000J0D01*
G01*
D13*
X51214000Y-52944000D02*
X51214000Y-49792000D01*
X53366000Y-49792000D02*
X53366000Y-52944000D01*
D14*
X51628000Y-49336000D02*
G75*
G03*
X51628000Y-49336000I-100000J0D01*
G01*
D10*
G04 #@! TO.C,C2*
X51507836Y-18240000D02*
X51292164Y-18240000D01*
X51507836Y-17520000D02*
X51292164Y-17520000D01*
G04 #@! TO.C,R11*
X39690000Y-20186359D02*
X39690000Y-20493641D01*
X38930000Y-20186359D02*
X38930000Y-20493641D01*
G04 #@! TO.C,C13*
X18430000Y-38502164D02*
X18430000Y-38717836D01*
X17710000Y-38502164D02*
X17710000Y-38717836D01*
X33430000Y-26502164D02*
X33430000Y-26717836D01*
X32710000Y-26502164D02*
X32710000Y-26717836D01*
G04 #@! TO.C,R6*
X50995000Y-24811359D02*
X50995000Y-25118641D01*
X50235000Y-24811359D02*
X50235000Y-25118641D01*
G04 #@! TO.C,C13*
X33430000Y-38502164D02*
X33430000Y-38717836D01*
X32710000Y-38502164D02*
X32710000Y-38717836D01*
G04 #@! TO.C,C4*
X48430000Y-42492164D02*
X48430000Y-42707836D01*
X47710000Y-42492164D02*
X47710000Y-42707836D01*
G04 #@! TO.C,C13*
X33430000Y-14502164D02*
X33430000Y-14717836D01*
X32710000Y-14502164D02*
X32710000Y-14717836D01*
G04 #@! TO.C,C2*
X21507836Y-42240000D02*
X21292164Y-42240000D01*
X21507836Y-41520000D02*
X21292164Y-41520000D01*
G04 #@! TO.C,R8*
X36320000Y-20186359D02*
X36320000Y-20493641D01*
X35560000Y-20186359D02*
X35560000Y-20493641D01*
G04 #@! TO.C,C11*
X55700000Y-13002164D02*
X55700000Y-13217836D01*
X54980000Y-13002164D02*
X54980000Y-13217836D01*
G04 #@! TO.C,C12*
X22702164Y-36320000D02*
X22917836Y-36320000D01*
X22702164Y-37040000D02*
X22917836Y-37040000D01*
G04 #@! TO.C,C11*
X25700000Y-37002164D02*
X25700000Y-37217836D01*
X24980000Y-37002164D02*
X24980000Y-37217836D01*
D12*
G04 #@! TO.C,SW1*
X18394000Y-13471000D02*
X15346000Y-13471000D01*
X18394000Y-11439000D02*
X15346000Y-11439000D01*
X16468000Y-12857000D02*
G75*
G03*
X16361508Y-12709252I402000J402000D01*
G01*
D10*
G04 #@! TO.C,C8*
X39980000Y-31022836D02*
X39980000Y-30807164D01*
X40700000Y-31022836D02*
X40700000Y-30807164D01*
G04 #@! TO.C,C9*
X24670000Y-25012164D02*
X24670000Y-25227836D01*
X23950000Y-25012164D02*
X23950000Y-25227836D01*
D12*
G04 #@! TO.C,SW1*
X33394000Y-37471000D02*
X30346000Y-37471000D01*
X33394000Y-35439000D02*
X30346000Y-35439000D01*
X31468000Y-36857000D02*
G75*
G03*
X31361508Y-36709252I402000J402000D01*
G01*
D10*
G04 #@! TO.C,C8*
X24980000Y-43022836D02*
X24980000Y-42807164D01*
X25700000Y-43022836D02*
X25700000Y-42807164D01*
G04 #@! TO.C,R10*
X23560000Y-56186359D02*
X23560000Y-56493641D01*
X22800000Y-56186359D02*
X22800000Y-56493641D01*
D11*
G04 #@! TO.C,U5*
X15680000Y-43070000D02*
X15680000Y-44770000D01*
X13980000Y-43070000D02*
X15680000Y-43070000D01*
X15680000Y-44770000D02*
X13980000Y-44770000D01*
X13980000Y-44770000D02*
X13980000Y-43070000D01*
X14180000Y-42920000D02*
G75*
G03*
X14180000Y-42920000I-50000J0D01*
G01*
D10*
X15330000Y-43970000D02*
X15130000Y-43970000D01*
X15230000Y-43820000D01*
X15330000Y-43970000D01*
G36*
X15330000Y-43970000D02*
G01*
X15130000Y-43970000D01*
X15230000Y-43820000D01*
X15330000Y-43970000D01*
G37*
X14405000Y-45195000D02*
X14305000Y-45195000D01*
X14305000Y-44745000D01*
X14405000Y-44745000D01*
X14405000Y-45195000D01*
G36*
X14405000Y-45195000D02*
G01*
X14305000Y-45195000D01*
X14305000Y-44745000D01*
X14405000Y-44745000D01*
X14405000Y-45195000D01*
G37*
X14580000Y-45020000D02*
X14130000Y-45020000D01*
X14130000Y-44920000D01*
X14580000Y-44920000D01*
X14580000Y-45020000D01*
G36*
X14580000Y-45020000D02*
G01*
X14130000Y-45020000D01*
X14130000Y-44920000D01*
X14580000Y-44920000D01*
X14580000Y-45020000D01*
G37*
X14960000Y-43580000D02*
X14960000Y-43590000D01*
X14830000Y-43590000D01*
X14830000Y-43420000D01*
X14960000Y-43420000D01*
X14960000Y-43580000D01*
G36*
X14960000Y-43580000D02*
G01*
X14960000Y-43590000D01*
X14830000Y-43590000D01*
X14830000Y-43420000D01*
X14960000Y-43420000D01*
X14960000Y-43580000D01*
G37*
G04 #@! TO.C,C11*
X40700000Y-13002164D02*
X40700000Y-13217836D01*
X39980000Y-13002164D02*
X39980000Y-13217836D01*
G04 #@! TO.C,C8*
X39980000Y-55022836D02*
X39980000Y-54807164D01*
X40700000Y-55022836D02*
X40700000Y-54807164D01*
G04 #@! TO.C,C12*
X52702164Y-48320000D02*
X52917836Y-48320000D01*
X52702164Y-49040000D02*
X52917836Y-49040000D01*
G04 #@! TO.C,C7*
X47710000Y-16712836D02*
X47710000Y-16497164D01*
X48430000Y-16712836D02*
X48430000Y-16497164D01*
G04 #@! TO.C,C12*
X37702164Y-48320000D02*
X37917836Y-48320000D01*
X37702164Y-49040000D02*
X37917836Y-49040000D01*
G04 #@! TO.C,R6*
X50995000Y-48811359D02*
X50995000Y-49118641D01*
X50235000Y-48811359D02*
X50235000Y-49118641D01*
G04 #@! TO.C,R8*
X21320000Y-32186359D02*
X21320000Y-32493641D01*
X20560000Y-32186359D02*
X20560000Y-32493641D01*
G04 #@! TO.C,C4*
X33430000Y-54492164D02*
X33430000Y-54707836D01*
X32710000Y-54492164D02*
X32710000Y-54707836D01*
G04 #@! TO.C,C14*
X49980000Y-40437836D02*
X49980000Y-40222164D01*
X50700000Y-40437836D02*
X50700000Y-40222164D01*
G04 #@! TO.C,C6*
X26487836Y-57210000D02*
X26272164Y-57210000D01*
X26487836Y-56490000D02*
X26272164Y-56490000D01*
G04 #@! TO.C,R2*
X18800000Y-56503641D02*
X18800000Y-56196359D01*
X19560000Y-56503641D02*
X19560000Y-56196359D01*
G04 #@! TO.C,R8*
X21320000Y-56186359D02*
X21320000Y-56493641D01*
X20560000Y-56186359D02*
X20560000Y-56493641D01*
G04 #@! TO.C,C6*
X56487836Y-45210000D02*
X56272164Y-45210000D01*
X56487836Y-44490000D02*
X56272164Y-44490000D01*
G04 #@! TO.C,C10*
X24980000Y-39152836D02*
X24980000Y-38937164D01*
X25700000Y-39152836D02*
X25700000Y-38937164D01*
G04 #@! TO.C,C7*
X17710000Y-40712836D02*
X17710000Y-40497164D01*
X18430000Y-40712836D02*
X18430000Y-40497164D01*
X17710000Y-52712836D02*
X17710000Y-52497164D01*
X18430000Y-52712836D02*
X18430000Y-52497164D01*
G04 #@! TO.C,R5*
X34970000Y-36811359D02*
X34970000Y-37118641D01*
X34210000Y-36811359D02*
X34210000Y-37118641D01*
G04 #@! TO.C,R6*
X35995000Y-36811359D02*
X35995000Y-37118641D01*
X35235000Y-36811359D02*
X35235000Y-37118641D01*
G04 #@! TO.C,C2*
X36507836Y-54240000D02*
X36292164Y-54240000D01*
X36507836Y-53520000D02*
X36292164Y-53520000D01*
G04 #@! TO.C,C4*
X18430000Y-54492164D02*
X18430000Y-54707836D01*
X17710000Y-54492164D02*
X17710000Y-54707836D01*
D11*
G04 #@! TO.C,U5*
X15680000Y-19070000D02*
X15680000Y-20770000D01*
X13980000Y-19070000D02*
X15680000Y-19070000D01*
X15680000Y-20770000D02*
X13980000Y-20770000D01*
X13980000Y-20770000D02*
X13980000Y-19070000D01*
X14180000Y-18920000D02*
G75*
G03*
X14180000Y-18920000I-50000J0D01*
G01*
D10*
X15330000Y-19970000D02*
X15130000Y-19970000D01*
X15230000Y-19820000D01*
X15330000Y-19970000D01*
G36*
X15330000Y-19970000D02*
G01*
X15130000Y-19970000D01*
X15230000Y-19820000D01*
X15330000Y-19970000D01*
G37*
X14405000Y-21195000D02*
X14305000Y-21195000D01*
X14305000Y-20745000D01*
X14405000Y-20745000D01*
X14405000Y-21195000D01*
G36*
X14405000Y-21195000D02*
G01*
X14305000Y-21195000D01*
X14305000Y-20745000D01*
X14405000Y-20745000D01*
X14405000Y-21195000D01*
G37*
X14580000Y-21020000D02*
X14130000Y-21020000D01*
X14130000Y-20920000D01*
X14580000Y-20920000D01*
X14580000Y-21020000D01*
G36*
X14580000Y-21020000D02*
G01*
X14130000Y-21020000D01*
X14130000Y-20920000D01*
X14580000Y-20920000D01*
X14580000Y-21020000D01*
G37*
X14960000Y-19580000D02*
X14960000Y-19590000D01*
X14830000Y-19590000D01*
X14830000Y-19420000D01*
X14960000Y-19420000D01*
X14960000Y-19580000D01*
G36*
X14960000Y-19580000D02*
G01*
X14960000Y-19590000D01*
X14830000Y-19590000D01*
X14830000Y-19420000D01*
X14960000Y-19420000D01*
X14960000Y-19580000D01*
G37*
G04 #@! TO.C,R5*
X34970000Y-48811359D02*
X34970000Y-49118641D01*
X34210000Y-48811359D02*
X34210000Y-49118641D01*
G04 #@! TO.C,C4*
X18430000Y-42492164D02*
X18430000Y-42707836D01*
X17710000Y-42492164D02*
X17710000Y-42707836D01*
G04 #@! TO.C,C11*
X25700000Y-49002164D02*
X25700000Y-49217836D01*
X24980000Y-49002164D02*
X24980000Y-49217836D01*
G04 #@! TO.C,C9*
X24670000Y-13012164D02*
X24670000Y-13227836D01*
X23950000Y-13012164D02*
X23950000Y-13227836D01*
G04 #@! TO.C,R11*
X24690000Y-32186359D02*
X24690000Y-32493641D01*
X23930000Y-32186359D02*
X23930000Y-32493641D01*
G04 #@! TO.C,C10*
X39980000Y-51152836D02*
X39980000Y-50937164D01*
X40700000Y-51152836D02*
X40700000Y-50937164D01*
G04 #@! TO.C,C11*
X40700000Y-37002164D02*
X40700000Y-37217836D01*
X39980000Y-37002164D02*
X39980000Y-37217836D01*
G04 #@! TO.C,C9*
X54670000Y-49012164D02*
X54670000Y-49227836D01*
X53950000Y-49012164D02*
X53950000Y-49227836D01*
G04 #@! TO.C,C8*
X39980000Y-43022836D02*
X39980000Y-42807164D01*
X40700000Y-43022836D02*
X40700000Y-42807164D01*
G04 #@! TO.C,R6*
X20995000Y-24811359D02*
X20995000Y-25118641D01*
X20235000Y-24811359D02*
X20235000Y-25118641D01*
G04 #@! TO.C,C11*
X55700000Y-37002164D02*
X55700000Y-37217836D01*
X54980000Y-37002164D02*
X54980000Y-37217836D01*
G04 #@! TO.C,R9*
X22450000Y-32186359D02*
X22450000Y-32493641D01*
X21690000Y-32186359D02*
X21690000Y-32493641D01*
G04 #@! TO.C,R8*
X36320000Y-56186359D02*
X36320000Y-56493641D01*
X35560000Y-56186359D02*
X35560000Y-56493641D01*
G04 #@! TO.C,R2*
X33800000Y-44503641D02*
X33800000Y-44196359D01*
X34560000Y-44503641D02*
X34560000Y-44196359D01*
G04 #@! TO.C,R10*
X38560000Y-56186359D02*
X38560000Y-56493641D01*
X37800000Y-56186359D02*
X37800000Y-56493641D01*
G04 #@! TO.C,R5*
X19970000Y-12811359D02*
X19970000Y-13118641D01*
X19210000Y-12811359D02*
X19210000Y-13118641D01*
X34970000Y-24811359D02*
X34970000Y-25118641D01*
X34210000Y-24811359D02*
X34210000Y-25118641D01*
G04 #@! TO.C,C13*
X18430000Y-50502164D02*
X18430000Y-50717836D01*
X17710000Y-50502164D02*
X17710000Y-50717836D01*
G04 #@! TO.C,C2*
X21507836Y-18240000D02*
X21292164Y-18240000D01*
X21507836Y-17520000D02*
X21292164Y-17520000D01*
G04 #@! TO.C,C11*
X40700000Y-49002164D02*
X40700000Y-49217836D01*
X39980000Y-49002164D02*
X39980000Y-49217836D01*
G04 #@! TO.C,C10*
X54980000Y-51152836D02*
X54980000Y-50937164D01*
X55700000Y-51152836D02*
X55700000Y-50937164D01*
G04 #@! TO.C,R8*
X51320000Y-32186359D02*
X51320000Y-32493641D01*
X50560000Y-32186359D02*
X50560000Y-32493641D01*
G04 #@! TO.C,C11*
X25700000Y-25002164D02*
X25700000Y-25217836D01*
X24980000Y-25002164D02*
X24980000Y-25217836D01*
D12*
G04 #@! TO.C,SW1*
X33394000Y-49471000D02*
X30346000Y-49471000D01*
X33394000Y-47439000D02*
X30346000Y-47439000D01*
X31468000Y-48857000D02*
G75*
G03*
X31361508Y-48709252I402000J402000D01*
G01*
D10*
G04 #@! TO.C,R9*
X22450000Y-20186359D02*
X22450000Y-20493641D01*
X21690000Y-20186359D02*
X21690000Y-20493641D01*
G04 #@! TO.C,C10*
X39980000Y-27152836D02*
X39980000Y-26937164D01*
X40700000Y-27152836D02*
X40700000Y-26937164D01*
G04 #@! TO.C,C9*
X39670000Y-25012164D02*
X39670000Y-25227836D01*
X38950000Y-25012164D02*
X38950000Y-25227836D01*
D13*
G04 #@! TO.C,U2*
X21214000Y-16944000D02*
X21214000Y-13792000D01*
X23366000Y-13792000D02*
X23366000Y-16944000D01*
D14*
X21628000Y-13336000D02*
G75*
G03*
X21628000Y-13336000I-100000J0D01*
G01*
D10*
G04 #@! TO.C,C14*
X34980000Y-52437836D02*
X34980000Y-52222164D01*
X35700000Y-52437836D02*
X35700000Y-52222164D01*
G04 #@! TO.C,C2*
X36507836Y-18240000D02*
X36292164Y-18240000D01*
X36507836Y-17520000D02*
X36292164Y-17520000D01*
G04 #@! TO.C,C13*
X48430000Y-50502164D02*
X48430000Y-50717836D01*
X47710000Y-50502164D02*
X47710000Y-50717836D01*
G04 #@! TO.C,C8*
X24980000Y-19022836D02*
X24980000Y-18807164D01*
X25700000Y-19022836D02*
X25700000Y-18807164D01*
G04 #@! TO.C,C9*
X54670000Y-37012164D02*
X54670000Y-37227836D01*
X53950000Y-37012164D02*
X53950000Y-37227836D01*
G04 #@! TO.C,C11*
X40700000Y-25002164D02*
X40700000Y-25217836D01*
X39980000Y-25002164D02*
X39980000Y-25217836D01*
G04 #@! TO.C,R8*
X21320000Y-44186359D02*
X21320000Y-44493641D01*
X20560000Y-44186359D02*
X20560000Y-44493641D01*
X36320000Y-44186359D02*
X36320000Y-44493641D01*
X35560000Y-44186359D02*
X35560000Y-44493641D01*
G04 #@! TO.C,C5*
X24980000Y-53087836D02*
X24980000Y-52872164D01*
X25700000Y-53087836D02*
X25700000Y-52872164D01*
G04 #@! TO.C,C6*
X26487836Y-45210000D02*
X26272164Y-45210000D01*
X26487836Y-44490000D02*
X26272164Y-44490000D01*
G04 #@! TO.C,R11*
X54690000Y-44186359D02*
X54690000Y-44493641D01*
X53930000Y-44186359D02*
X53930000Y-44493641D01*
G04 #@! TO.C,C8*
X24980000Y-31022836D02*
X24980000Y-30807164D01*
X25700000Y-31022836D02*
X25700000Y-30807164D01*
G04 #@! TO.C,C10*
X24980000Y-15152836D02*
X24980000Y-14937164D01*
X25700000Y-15152836D02*
X25700000Y-14937164D01*
G04 #@! TO.C,C2*
X51507836Y-30240000D02*
X51292164Y-30240000D01*
X51507836Y-29520000D02*
X51292164Y-29520000D01*
D11*
G04 #@! TO.C,U5*
X30680000Y-19070000D02*
X30680000Y-20770000D01*
X28980000Y-19070000D02*
X30680000Y-19070000D01*
X30680000Y-20770000D02*
X28980000Y-20770000D01*
X28980000Y-20770000D02*
X28980000Y-19070000D01*
X29180000Y-18920000D02*
G75*
G03*
X29180000Y-18920000I-50000J0D01*
G01*
D10*
X30330000Y-19970000D02*
X30130000Y-19970000D01*
X30230000Y-19820000D01*
X30330000Y-19970000D01*
G36*
X30330000Y-19970000D02*
G01*
X30130000Y-19970000D01*
X30230000Y-19820000D01*
X30330000Y-19970000D01*
G37*
X29405000Y-21195000D02*
X29305000Y-21195000D01*
X29305000Y-20745000D01*
X29405000Y-20745000D01*
X29405000Y-21195000D01*
G36*
X29405000Y-21195000D02*
G01*
X29305000Y-21195000D01*
X29305000Y-20745000D01*
X29405000Y-20745000D01*
X29405000Y-21195000D01*
G37*
X29580000Y-21020000D02*
X29130000Y-21020000D01*
X29130000Y-20920000D01*
X29580000Y-20920000D01*
X29580000Y-21020000D01*
G36*
X29580000Y-21020000D02*
G01*
X29130000Y-21020000D01*
X29130000Y-20920000D01*
X29580000Y-20920000D01*
X29580000Y-21020000D01*
G37*
X29960000Y-19580000D02*
X29960000Y-19590000D01*
X29830000Y-19590000D01*
X29830000Y-19420000D01*
X29960000Y-19420000D01*
X29960000Y-19580000D01*
G36*
X29960000Y-19580000D02*
G01*
X29960000Y-19590000D01*
X29830000Y-19590000D01*
X29830000Y-19420000D01*
X29960000Y-19420000D01*
X29960000Y-19580000D01*
G37*
G04 #@! TO.C,R5*
X19970000Y-36811359D02*
X19970000Y-37118641D01*
X19210000Y-36811359D02*
X19210000Y-37118641D01*
G04 #@! TO.C,C6*
X26487836Y-33210000D02*
X26272164Y-33210000D01*
X26487836Y-32490000D02*
X26272164Y-32490000D01*
G04 #@! TO.C,R10*
X38560000Y-44186359D02*
X38560000Y-44493641D01*
X37800000Y-44186359D02*
X37800000Y-44493641D01*
G04 #@! TO.C,C12*
X37702164Y-24320000D02*
X37917836Y-24320000D01*
X37702164Y-25040000D02*
X37917836Y-25040000D01*
G04 #@! TO.C,R6*
X35995000Y-24811359D02*
X35995000Y-25118641D01*
X35235000Y-24811359D02*
X35235000Y-25118641D01*
G04 #@! TO.C,C2*
X51507836Y-54240000D02*
X51292164Y-54240000D01*
X51507836Y-53520000D02*
X51292164Y-53520000D01*
G04 #@! TO.C,C8*
X39980000Y-19022836D02*
X39980000Y-18807164D01*
X40700000Y-19022836D02*
X40700000Y-18807164D01*
D11*
G04 #@! TO.C,U5*
X30680000Y-43070000D02*
X30680000Y-44770000D01*
X28980000Y-43070000D02*
X30680000Y-43070000D01*
X30680000Y-44770000D02*
X28980000Y-44770000D01*
X28980000Y-44770000D02*
X28980000Y-43070000D01*
X29180000Y-42920000D02*
G75*
G03*
X29180000Y-42920000I-50000J0D01*
G01*
D10*
X30330000Y-43970000D02*
X30130000Y-43970000D01*
X30230000Y-43820000D01*
X30330000Y-43970000D01*
G36*
X30330000Y-43970000D02*
G01*
X30130000Y-43970000D01*
X30230000Y-43820000D01*
X30330000Y-43970000D01*
G37*
X29405000Y-45195000D02*
X29305000Y-45195000D01*
X29305000Y-44745000D01*
X29405000Y-44745000D01*
X29405000Y-45195000D01*
G36*
X29405000Y-45195000D02*
G01*
X29305000Y-45195000D01*
X29305000Y-44745000D01*
X29405000Y-44745000D01*
X29405000Y-45195000D01*
G37*
X29580000Y-45020000D02*
X29130000Y-45020000D01*
X29130000Y-44920000D01*
X29580000Y-44920000D01*
X29580000Y-45020000D01*
G36*
X29580000Y-45020000D02*
G01*
X29130000Y-45020000D01*
X29130000Y-44920000D01*
X29580000Y-44920000D01*
X29580000Y-45020000D01*
G37*
X29960000Y-43580000D02*
X29960000Y-43590000D01*
X29830000Y-43590000D01*
X29830000Y-43420000D01*
X29960000Y-43420000D01*
X29960000Y-43580000D01*
G36*
X29960000Y-43580000D02*
G01*
X29960000Y-43590000D01*
X29830000Y-43590000D01*
X29830000Y-43420000D01*
X29960000Y-43420000D01*
X29960000Y-43580000D01*
G37*
G04 #@! TO.C,C5*
X24980000Y-41087836D02*
X24980000Y-40872164D01*
X25700000Y-41087836D02*
X25700000Y-40872164D01*
G04 #@! TO.C,C14*
X34980000Y-16437836D02*
X34980000Y-16222164D01*
X35700000Y-16437836D02*
X35700000Y-16222164D01*
G04 #@! TO.C,C12*
X22702164Y-12320000D02*
X22917836Y-12320000D01*
X22702164Y-13040000D02*
X22917836Y-13040000D01*
G04 #@! TO.C,R9*
X22450000Y-44186359D02*
X22450000Y-44493641D01*
X21690000Y-44186359D02*
X21690000Y-44493641D01*
G04 #@! TO.C,C6*
X41487836Y-21210000D02*
X41272164Y-21210000D01*
X41487836Y-20490000D02*
X41272164Y-20490000D01*
D13*
G04 #@! TO.C,U2*
X51214000Y-16944000D02*
X51214000Y-13792000D01*
X53366000Y-13792000D02*
X53366000Y-16944000D01*
D14*
X51628000Y-13336000D02*
G75*
G03*
X51628000Y-13336000I-100000J0D01*
G01*
G04 #@! TD*
M02*
