M48
; DRILL file {KiCad 7.0.2-6a45011f42~172~ubuntu22.04.1} date Sun May 28 07:21:03 2023
; FORMAT={-:-/ absolute / metric / decimal}
; #@! TF.CreationDate,2023-05-28T07:21:03+08:00
; #@! TF.GenerationSoftware,Kicad,Pcbnew,7.0.2-6a45011f42~172~ubuntu22.04.1
; #@! TF.FileFunction,MixedPlating,1,4
FMAT,2
METRIC
; #@! TA.AperFunction,Plated,PTH,ViaDrill
T1C0.200
; #@! TA.AperFunction,Plated,PTH,ComponentDrill
T2C0.500
; #@! TA.AperFunction,Plated,PTH,ComponentDrill
T3C0.650
; #@! TA.AperFunction,NonPlated,NPTH,ComponentDrill
T4C1.152
%
G90
G05
T1
X13.42Y-13.74
X13.42Y-19.06
X13.42Y-25.74
X13.42Y-31.06
X13.42Y-37.74
X13.42Y-43.06
X13.42Y-49.74
X13.42Y-55.06
X16.94Y-15.64
X16.94Y-27.64
X16.94Y-39.64
X16.94Y-51.64
X17.06Y-13.83
X17.06Y-25.83
X17.06Y-37.83
X17.06Y-49.83
X17.09Y-19.93
X17.09Y-31.93
X17.09Y-43.93
X17.09Y-55.93
X17.48Y-20.88
X17.48Y-32.88
X17.48Y-44.88
X17.48Y-56.88
X19.33Y-18.95
X19.33Y-30.95
X19.33Y-42.95
X19.33Y-54.95
X19.34Y-16.73
X19.34Y-28.73
X19.34Y-40.73
X19.34Y-52.73
X19.35Y-14.85
X19.35Y-17.785
X19.35Y-26.85
X19.35Y-29.785
X19.35Y-38.85
X19.35Y-41.785
X19.35Y-50.85
X19.35Y-53.785
X20.34Y-14.515
X20.34Y-26.515
X20.34Y-38.515
X20.34Y-50.515
X20.355Y-18.83
X20.355Y-30.83
X20.355Y-42.83
X20.355Y-54.83
X21.28Y-18.99
X21.28Y-30.99
X21.28Y-42.99
X21.28Y-54.99
X21.455Y-12.09
X21.455Y-24.09
X21.455Y-36.09
X21.455Y-48.09
X21.55Y-14.685
X21.55Y-26.685
X21.55Y-38.685
X21.55Y-50.685
X22.275Y-14.695
X22.275Y-26.695
X22.275Y-38.695
X22.275Y-50.695
X22.36Y-18.8
X22.36Y-30.8
X22.36Y-42.8
X22.36Y-54.8
X23.28Y-18.76
X23.28Y-30.76
X23.28Y-42.76
X23.28Y-54.76
X23.79Y-15.47
X23.79Y-16.27
X23.79Y-27.47
X23.79Y-28.27
X23.79Y-39.47
X23.79Y-40.27
X23.79Y-51.47
X23.79Y-52.27
X23.88Y-14.71
X23.88Y-26.71
X23.88Y-38.71
X23.88Y-50.71
X23.905Y-17.225
X23.905Y-29.225
X23.905Y-41.225
X23.905Y-53.225
X24.13Y-19.05
X24.13Y-31.05
X24.13Y-43.05
X24.13Y-55.05
X24.16Y-18.01
X24.16Y-30.01
X24.16Y-42.01
X24.16Y-54.01
X24.22Y-11.92
X24.22Y-23.92
X24.22Y-35.92
X24.22Y-47.92
X25.255Y-20.09
X25.255Y-32.09
X25.255Y-44.09
X25.255Y-56.09
X28.42Y-13.74
X28.42Y-19.06
X28.42Y-25.74
X28.42Y-31.06
X28.42Y-37.74
X28.42Y-43.06
X28.42Y-49.74
X28.42Y-55.06
X31.94Y-15.64
X31.94Y-27.64
X31.94Y-39.64
X31.94Y-51.64
X32.06Y-13.83
X32.06Y-25.83
X32.06Y-37.83
X32.06Y-49.83
X32.09Y-19.93
X32.09Y-31.93
X32.09Y-43.93
X32.09Y-55.93
X32.48Y-20.88
X32.48Y-32.88
X32.48Y-44.88
X32.48Y-56.88
X34.33Y-18.95
X34.33Y-30.95
X34.33Y-42.95
X34.33Y-54.95
X34.34Y-16.73
X34.34Y-28.73
X34.34Y-40.73
X34.34Y-52.73
X34.35Y-14.85
X34.35Y-17.785
X34.35Y-26.85
X34.35Y-29.785
X34.35Y-38.85
X34.35Y-41.785
X34.35Y-50.85
X34.35Y-53.785
X35.34Y-14.515
X35.34Y-26.515
X35.34Y-38.515
X35.34Y-50.515
X35.355Y-18.83
X35.355Y-30.83
X35.355Y-42.83
X35.355Y-54.83
X36.28Y-18.99
X36.28Y-30.99
X36.28Y-42.99
X36.28Y-54.99
X36.455Y-12.09
X36.455Y-24.09
X36.455Y-36.09
X36.455Y-48.09
X36.55Y-14.685
X36.55Y-26.685
X36.55Y-38.685
X36.55Y-50.685
X37.275Y-14.695
X37.275Y-26.695
X37.275Y-38.695
X37.275Y-50.695
X37.36Y-18.8
X37.36Y-30.8
X37.36Y-42.8
X37.36Y-54.8
X38.28Y-18.76
X38.28Y-30.76
X38.28Y-42.76
X38.28Y-54.76
X38.79Y-15.47
X38.79Y-16.27
X38.79Y-27.47
X38.79Y-28.27
X38.79Y-39.47
X38.79Y-40.27
X38.79Y-51.47
X38.79Y-52.27
X38.88Y-14.71
X38.88Y-26.71
X38.88Y-38.71
X38.88Y-50.71
X38.905Y-17.225
X38.905Y-29.225
X38.905Y-41.225
X38.905Y-53.225
X39.13Y-19.05
X39.13Y-31.05
X39.13Y-43.05
X39.13Y-55.05
X39.16Y-18.01
X39.16Y-30.01
X39.16Y-42.01
X39.16Y-54.01
X39.22Y-11.92
X39.22Y-23.92
X39.22Y-35.92
X39.22Y-47.92
X40.255Y-20.09
X40.255Y-32.09
X40.255Y-44.09
X40.255Y-56.09
X43.42Y-13.74
X43.42Y-19.06
X43.42Y-25.74
X43.42Y-31.06
X43.42Y-37.74
X43.42Y-43.06
X43.42Y-49.74
X43.42Y-55.06
X46.94Y-15.64
X46.94Y-27.64
X46.94Y-39.64
X46.94Y-51.64
X47.06Y-13.83
X47.06Y-25.83
X47.06Y-37.83
X47.06Y-49.83
X47.09Y-19.93
X47.09Y-31.93
X47.09Y-43.93
X47.09Y-55.93
X47.48Y-20.88
X47.48Y-32.88
X47.48Y-44.88
X47.48Y-56.88
X49.33Y-18.95
X49.33Y-30.95
X49.33Y-42.95
X49.33Y-54.95
X49.34Y-16.73
X49.34Y-28.73
X49.34Y-40.73
X49.34Y-52.73
X49.35Y-14.85
X49.35Y-17.785
X49.35Y-26.85
X49.35Y-29.785
X49.35Y-38.85
X49.35Y-41.785
X49.35Y-50.85
X49.35Y-53.785
X50.34Y-14.515
X50.34Y-26.515
X50.34Y-38.515
X50.34Y-50.515
X50.355Y-18.83
X50.355Y-30.83
X50.355Y-42.83
X50.355Y-54.83
X51.28Y-18.99
X51.28Y-30.99
X51.28Y-42.99
X51.28Y-54.99
X51.455Y-12.09
X51.455Y-24.09
X51.455Y-36.09
X51.455Y-48.09
X51.55Y-14.685
X51.55Y-26.685
X51.55Y-38.685
X51.55Y-50.685
X52.275Y-14.695
X52.275Y-26.695
X52.275Y-38.695
X52.275Y-50.695
X52.36Y-18.8
X52.36Y-30.8
X52.36Y-42.8
X52.36Y-54.8
X53.28Y-18.76
X53.28Y-30.76
X53.28Y-42.76
X53.28Y-54.76
X53.79Y-15.47
X53.79Y-16.27
X53.79Y-27.47
X53.79Y-28.27
X53.79Y-39.47
X53.79Y-40.27
X53.79Y-51.47
X53.79Y-52.27
X53.88Y-14.71
X53.88Y-26.71
X53.88Y-38.71
X53.88Y-50.71
X53.905Y-17.225
X53.905Y-29.225
X53.905Y-41.225
X53.905Y-53.225
X54.13Y-19.05
X54.13Y-31.05
X54.13Y-43.05
X54.13Y-55.05
X54.16Y-18.01
X54.16Y-30.01
X54.16Y-42.01
X54.16Y-54.01
X54.22Y-11.92
X54.22Y-23.92
X54.22Y-35.92
X54.22Y-47.92
X55.255Y-20.09
X55.255Y-32.09
X55.255Y-44.09
X55.255Y-56.09
T2
X13.93Y-12.11
X13.93Y-24.11
X13.93Y-36.11
X13.93Y-48.11
X14.678Y-22.1
X14.678Y-34.1
X14.678Y-46.1
X14.678Y-58.1
X16.31Y-22.1
X16.31Y-34.1
X16.31Y-46.1
X16.31Y-58.1
X17.932Y-22.1
X17.932Y-34.1
X17.932Y-46.1
X17.932Y-58.1
X19.56Y-22.1
X19.56Y-34.1
X19.56Y-46.1
X19.56Y-58.1
X21.188Y-22.1
X21.188Y-34.1
X21.188Y-46.1
X21.188Y-58.1
X22.815Y-22.1
X22.815Y-34.1
X22.815Y-46.1
X22.815Y-58.1
X24.442Y-22.1
X24.442Y-34.1
X24.442Y-46.1
X24.442Y-58.1
X26.07Y-22.1
X26.07Y-34.1
X26.07Y-46.1
X26.07Y-58.1
X28.93Y-12.11
X28.93Y-24.11
X28.93Y-36.11
X28.93Y-48.11
X29.677Y-22.1
X29.677Y-34.1
X29.677Y-46.1
X29.677Y-58.1
X31.31Y-22.1
X31.31Y-34.1
X31.31Y-46.1
X31.31Y-58.1
X32.932Y-22.1
X32.932Y-34.1
X32.932Y-46.1
X32.932Y-58.1
X34.56Y-22.1
X34.56Y-34.1
X34.56Y-46.1
X34.56Y-58.1
X36.188Y-22.1
X36.188Y-34.1
X36.188Y-46.1
X36.188Y-58.1
X37.815Y-22.1
X37.815Y-34.1
X37.815Y-46.1
X37.815Y-58.1
X39.442Y-22.1
X39.442Y-34.1
X39.442Y-46.1
X39.442Y-58.1
X41.07Y-22.1
X41.07Y-34.1
X41.07Y-46.1
X41.07Y-58.1
X43.93Y-12.11
X43.93Y-24.11
X43.93Y-36.11
X43.93Y-48.11
X44.677Y-22.1
X44.677Y-34.1
X44.677Y-46.1
X44.677Y-58.1
X46.31Y-22.1
X46.31Y-34.1
X46.31Y-46.1
X46.31Y-58.1
X47.932Y-22.1
X47.932Y-34.1
X47.932Y-46.1
X47.932Y-58.1
X49.56Y-22.1
X49.56Y-34.1
X49.56Y-46.1
X49.56Y-58.1
X51.188Y-22.1
X51.188Y-34.1
X51.188Y-46.1
X51.188Y-58.1
X52.815Y-22.1
X52.815Y-34.1
X52.815Y-46.1
X52.815Y-58.1
X54.442Y-22.1
X54.442Y-34.1
X54.442Y-46.1
X54.442Y-58.1
X56.07Y-22.1
X56.07Y-34.1
X56.07Y-46.1
X56.07Y-58.1
T3
X26.7Y-13.35
X26.7Y-14.62
X26.7Y-15.89
X26.7Y-17.16
X26.7Y-18.43
X26.7Y-19.7
X26.7Y-25.35
X26.7Y-26.62
X26.7Y-27.89
X26.7Y-29.16
X26.7Y-30.43
X26.7Y-31.7
X26.7Y-37.35
X26.7Y-38.62
X26.7Y-39.89
X26.7Y-41.16
X26.7Y-42.43
X26.7Y-43.7
X26.7Y-49.35
X26.7Y-50.62
X26.7Y-51.89
X26.7Y-53.16
X26.7Y-54.43
X26.7Y-55.7
X41.7Y-13.35
X41.7Y-14.62
X41.7Y-15.89
X41.7Y-17.16
X41.7Y-18.43
X41.7Y-19.7
X41.7Y-25.35
X41.7Y-26.62
X41.7Y-27.89
X41.7Y-29.16
X41.7Y-30.43
X41.7Y-31.7
X41.7Y-37.35
X41.7Y-38.62
X41.7Y-39.89
X41.7Y-41.16
X41.7Y-42.43
X41.7Y-43.7
X41.7Y-49.35
X41.7Y-50.62
X41.7Y-51.89
X41.7Y-53.16
X41.7Y-54.43
X41.7Y-55.7
X56.7Y-13.35
X56.7Y-14.62
X56.7Y-15.89
X56.7Y-17.16
X56.7Y-18.43
X56.7Y-19.7
X56.7Y-25.35
X56.7Y-26.62
X56.7Y-27.89
X56.7Y-29.16
X56.7Y-30.43
X56.7Y-31.7
X56.7Y-37.35
X56.7Y-38.62
X56.7Y-39.89
X56.7Y-41.16
X56.7Y-42.43
X56.7Y-43.7
X56.7Y-49.35
X56.7Y-50.62
X56.7Y-51.89
X56.7Y-53.16
X56.7Y-54.43
X56.7Y-55.7
T4
X2.5Y-2.5
X2.5Y-67.5
X67.5Y-2.5
T0
M30
