G04 #@! TF.GenerationSoftware,KiCad,Pcbnew,7.0.2-6a45011f42~172~ubuntu22.04.1*
G04 #@! TF.CreationDate,2023-05-28T07:21:03+08:00*
G04 #@! TF.ProjectId,panel_4_3,70616e65-6c5f-4345-9f33-2e6b69636164,rev?*
G04 #@! TF.SameCoordinates,Original*
G04 #@! TF.FileFunction,Legend,Top*
G04 #@! TF.FilePolarity,Positive*
%FSLAX46Y46*%
G04 Gerber Fmt 4.6, Leading zero omitted, Abs format (unit mm)*
G04 Created by KiCad (PCBNEW 7.0.2-6a45011f42~172~ubuntu22.04.1) date 2023-05-28 07:21:03*
%MOMM*%
%LPD*%
G01*
G04 APERTURE LIST*
%ADD10C,0.152000*%
%ADD11C,0.120000*%
%ADD12C,0.254000*%
G04 APERTURE END LIST*
D10*
G04 #@! TO.C,X1*
X46194000Y-30669000D02*
X46702000Y-30669000D01*
X46702000Y-30669000D02*
X46702000Y-30161000D01*
X43146000Y-30412000D02*
X43146000Y-26351000D01*
X46476000Y-30412000D02*
X43146000Y-30412000D01*
X43146000Y-26351000D02*
X44797000Y-26351000D01*
X44797000Y-26351000D02*
X46448000Y-26351000D01*
X46448000Y-26351000D02*
X46476000Y-30412000D01*
X46448000Y-26351000D02*
X46448000Y-26351000D01*
D11*
G04 #@! TO.C,JP1*
X44980000Y-23360000D02*
X47780000Y-23360000D01*
X44980000Y-25360000D02*
X44980000Y-23360000D01*
X47780000Y-23360000D02*
X47780000Y-25360000D01*
X47780000Y-25360000D02*
X44980000Y-25360000D01*
G04 #@! TO.C,C1*
X44702164Y-30560000D02*
X44917836Y-30560000D01*
X44702164Y-31280000D02*
X44917836Y-31280000D01*
G04 #@! TO.C,R12*
X48796359Y-23590000D02*
X49103641Y-23590000D01*
X48796359Y-24350000D02*
X49103641Y-24350000D01*
X18796359Y-23590000D02*
X19103641Y-23590000D01*
X18796359Y-24350000D02*
X19103641Y-24350000D01*
X48796359Y-11590000D02*
X49103641Y-11590000D01*
X48796359Y-12350000D02*
X49103641Y-12350000D01*
D10*
G04 #@! TO.C,X1*
X31194000Y-42669000D02*
X31702000Y-42669000D01*
X31702000Y-42669000D02*
X31702000Y-42161000D01*
X28146000Y-42412000D02*
X28146000Y-38351000D01*
X31476000Y-42412000D02*
X28146000Y-42412000D01*
X28146000Y-38351000D02*
X29797000Y-38351000D01*
X29797000Y-38351000D02*
X31448000Y-38351000D01*
X31448000Y-38351000D02*
X31476000Y-42412000D01*
X31448000Y-38351000D02*
X31448000Y-38351000D01*
D11*
G04 #@! TO.C,C3*
X44722164Y-37490000D02*
X44937836Y-37490000D01*
X44722164Y-38210000D02*
X44937836Y-38210000D01*
X14722164Y-25490000D02*
X14937836Y-25490000D01*
X14722164Y-26210000D02*
X14937836Y-26210000D01*
G04 #@! TO.C,R1*
X31620000Y-53443641D02*
X31620000Y-53136359D01*
X32380000Y-53443641D02*
X32380000Y-53136359D01*
G04 #@! TO.C,C1*
X14702164Y-42560000D02*
X14917836Y-42560000D01*
X14702164Y-43280000D02*
X14917836Y-43280000D01*
G04 #@! TO.C,JP1*
X14980000Y-47360000D02*
X17780000Y-47360000D01*
X14980000Y-49360000D02*
X14980000Y-47360000D01*
X17780000Y-47360000D02*
X17780000Y-49360000D01*
X17780000Y-49360000D02*
X14980000Y-49360000D01*
D10*
G04 #@! TO.C,X1*
X16194000Y-18669000D02*
X16702000Y-18669000D01*
X16702000Y-18669000D02*
X16702000Y-18161000D01*
X13146000Y-18412000D02*
X13146000Y-14351000D01*
X16476000Y-18412000D02*
X13146000Y-18412000D01*
X13146000Y-14351000D02*
X14797000Y-14351000D01*
X14797000Y-14351000D02*
X16448000Y-14351000D01*
X16448000Y-14351000D02*
X16476000Y-18412000D01*
X16448000Y-14351000D02*
X16448000Y-14351000D01*
D11*
G04 #@! TO.C,C3*
X29722164Y-49490000D02*
X29937836Y-49490000D01*
X29722164Y-50210000D02*
X29937836Y-50210000D01*
G04 #@! TO.C,JP1*
X44980000Y-47360000D02*
X47780000Y-47360000D01*
X44980000Y-49360000D02*
X44980000Y-47360000D01*
X47780000Y-47360000D02*
X47780000Y-49360000D01*
X47780000Y-49360000D02*
X44980000Y-49360000D01*
D12*
G04 #@! TO.C,U1*
X55205000Y-37205000D02*
X55205000Y-37774000D01*
X54636000Y-37205000D02*
X55205000Y-37205000D01*
X54636000Y-37205000D02*
X55205000Y-37774000D01*
X48205000Y-37205000D02*
X48774000Y-37205000D01*
X48205000Y-37305000D02*
X48205000Y-37205000D01*
X55205000Y-37464000D02*
X55108000Y-37464000D01*
X55108000Y-37464000D02*
X54849000Y-37205000D01*
X48205000Y-37774000D02*
X48205000Y-37305000D01*
X55205000Y-43636000D02*
X55205000Y-44205000D01*
X55205000Y-44205000D02*
X54636000Y-44205000D01*
X48774000Y-44205000D02*
X48205000Y-44205000D01*
X48205000Y-44205000D02*
X48205000Y-43636000D01*
X55532000Y-36705000D02*
G75*
G03*
X55532000Y-36705000I-127000J0D01*
G01*
D11*
G04 #@! TO.C,R12*
X48796359Y-35590000D02*
X49103641Y-35590000D01*
X48796359Y-36350000D02*
X49103641Y-36350000D01*
G04 #@! TO.C,C3*
X44722164Y-49490000D02*
X44937836Y-49490000D01*
X44722164Y-50210000D02*
X44937836Y-50210000D01*
X44722164Y-25490000D02*
X44937836Y-25490000D01*
X44722164Y-26210000D02*
X44937836Y-26210000D01*
D10*
G04 #@! TO.C,X1*
X46194000Y-42669000D02*
X46702000Y-42669000D01*
X46702000Y-42669000D02*
X46702000Y-42161000D01*
X43146000Y-42412000D02*
X43146000Y-38351000D01*
X46476000Y-42412000D02*
X43146000Y-42412000D01*
X43146000Y-38351000D02*
X44797000Y-38351000D01*
X44797000Y-38351000D02*
X46448000Y-38351000D01*
X46448000Y-38351000D02*
X46476000Y-42412000D01*
X46448000Y-38351000D02*
X46448000Y-38351000D01*
D12*
G04 #@! TO.C,U1*
X40205000Y-49205000D02*
X40205000Y-49774000D01*
X39636000Y-49205000D02*
X40205000Y-49205000D01*
X39636000Y-49205000D02*
X40205000Y-49774000D01*
X33205000Y-49205000D02*
X33774000Y-49205000D01*
X33205000Y-49305000D02*
X33205000Y-49205000D01*
X40205000Y-49464000D02*
X40108000Y-49464000D01*
X40108000Y-49464000D02*
X39849000Y-49205000D01*
X33205000Y-49774000D02*
X33205000Y-49305000D01*
X40205000Y-55636000D02*
X40205000Y-56205000D01*
X40205000Y-56205000D02*
X39636000Y-56205000D01*
X33774000Y-56205000D02*
X33205000Y-56205000D01*
X33205000Y-56205000D02*
X33205000Y-55636000D01*
X40532000Y-48705000D02*
G75*
G03*
X40532000Y-48705000I-127000J0D01*
G01*
D11*
G04 #@! TO.C,JP1*
X44980000Y-35360000D02*
X47780000Y-35360000D01*
X44980000Y-37360000D02*
X44980000Y-35360000D01*
X47780000Y-35360000D02*
X47780000Y-37360000D01*
X47780000Y-37360000D02*
X44980000Y-37360000D01*
G04 #@! TO.C,R1*
X31620000Y-17443641D02*
X31620000Y-17136359D01*
X32380000Y-17443641D02*
X32380000Y-17136359D01*
X16620000Y-53443641D02*
X16620000Y-53136359D01*
X17380000Y-53443641D02*
X17380000Y-53136359D01*
X16620000Y-29443641D02*
X16620000Y-29136359D01*
X17380000Y-29443641D02*
X17380000Y-29136359D01*
D12*
G04 #@! TO.C,U1*
X40205000Y-13205000D02*
X40205000Y-13774000D01*
X39636000Y-13205000D02*
X40205000Y-13205000D01*
X39636000Y-13205000D02*
X40205000Y-13774000D01*
X33205000Y-13205000D02*
X33774000Y-13205000D01*
X33205000Y-13305000D02*
X33205000Y-13205000D01*
X40205000Y-13464000D02*
X40108000Y-13464000D01*
X40108000Y-13464000D02*
X39849000Y-13205000D01*
X33205000Y-13774000D02*
X33205000Y-13305000D01*
X40205000Y-19636000D02*
X40205000Y-20205000D01*
X40205000Y-20205000D02*
X39636000Y-20205000D01*
X33774000Y-20205000D02*
X33205000Y-20205000D01*
X33205000Y-20205000D02*
X33205000Y-19636000D01*
X40532000Y-12705000D02*
G75*
G03*
X40532000Y-12705000I-127000J0D01*
G01*
X55205000Y-49205000D02*
X55205000Y-49774000D01*
X54636000Y-49205000D02*
X55205000Y-49205000D01*
X54636000Y-49205000D02*
X55205000Y-49774000D01*
X48205000Y-49205000D02*
X48774000Y-49205000D01*
X48205000Y-49305000D02*
X48205000Y-49205000D01*
X55205000Y-49464000D02*
X55108000Y-49464000D01*
X55108000Y-49464000D02*
X54849000Y-49205000D01*
X48205000Y-49774000D02*
X48205000Y-49305000D01*
X55205000Y-55636000D02*
X55205000Y-56205000D01*
X55205000Y-56205000D02*
X54636000Y-56205000D01*
X48774000Y-56205000D02*
X48205000Y-56205000D01*
X48205000Y-56205000D02*
X48205000Y-55636000D01*
X55532000Y-48705000D02*
G75*
G03*
X55532000Y-48705000I-127000J0D01*
G01*
D11*
G04 #@! TO.C,JP1*
X14980000Y-35360000D02*
X17780000Y-35360000D01*
X14980000Y-37360000D02*
X14980000Y-35360000D01*
X17780000Y-35360000D02*
X17780000Y-37360000D01*
X17780000Y-37360000D02*
X14980000Y-37360000D01*
G04 #@! TO.C,R1*
X31620000Y-41443641D02*
X31620000Y-41136359D01*
X32380000Y-41443641D02*
X32380000Y-41136359D01*
D12*
G04 #@! TO.C,U1*
X55205000Y-25205000D02*
X55205000Y-25774000D01*
X54636000Y-25205000D02*
X55205000Y-25205000D01*
X54636000Y-25205000D02*
X55205000Y-25774000D01*
X48205000Y-25205000D02*
X48774000Y-25205000D01*
X48205000Y-25305000D02*
X48205000Y-25205000D01*
X55205000Y-25464000D02*
X55108000Y-25464000D01*
X55108000Y-25464000D02*
X54849000Y-25205000D01*
X48205000Y-25774000D02*
X48205000Y-25305000D01*
X55205000Y-31636000D02*
X55205000Y-32205000D01*
X55205000Y-32205000D02*
X54636000Y-32205000D01*
X48774000Y-32205000D02*
X48205000Y-32205000D01*
X48205000Y-32205000D02*
X48205000Y-31636000D01*
X55532000Y-24705000D02*
G75*
G03*
X55532000Y-24705000I-127000J0D01*
G01*
D11*
G04 #@! TO.C,R1*
X46620000Y-53443641D02*
X46620000Y-53136359D01*
X47380000Y-53443641D02*
X47380000Y-53136359D01*
G04 #@! TO.C,C3*
X29722164Y-25490000D02*
X29937836Y-25490000D01*
X29722164Y-26210000D02*
X29937836Y-26210000D01*
G04 #@! TO.C,JP1*
X29980000Y-35360000D02*
X32780000Y-35360000D01*
X29980000Y-37360000D02*
X29980000Y-35360000D01*
X32780000Y-35360000D02*
X32780000Y-37360000D01*
X32780000Y-37360000D02*
X29980000Y-37360000D01*
G04 #@! TO.C,R1*
X46620000Y-41443641D02*
X46620000Y-41136359D01*
X47380000Y-41443641D02*
X47380000Y-41136359D01*
G04 #@! TO.C,C1*
X44702164Y-42560000D02*
X44917836Y-42560000D01*
X44702164Y-43280000D02*
X44917836Y-43280000D01*
D12*
G04 #@! TO.C,U1*
X40205000Y-25205000D02*
X40205000Y-25774000D01*
X39636000Y-25205000D02*
X40205000Y-25205000D01*
X39636000Y-25205000D02*
X40205000Y-25774000D01*
X33205000Y-25205000D02*
X33774000Y-25205000D01*
X33205000Y-25305000D02*
X33205000Y-25205000D01*
X40205000Y-25464000D02*
X40108000Y-25464000D01*
X40108000Y-25464000D02*
X39849000Y-25205000D01*
X33205000Y-25774000D02*
X33205000Y-25305000D01*
X40205000Y-31636000D02*
X40205000Y-32205000D01*
X40205000Y-32205000D02*
X39636000Y-32205000D01*
X33774000Y-32205000D02*
X33205000Y-32205000D01*
X33205000Y-32205000D02*
X33205000Y-31636000D01*
X40532000Y-24705000D02*
G75*
G03*
X40532000Y-24705000I-127000J0D01*
G01*
D11*
G04 #@! TO.C,C3*
X14722164Y-49490000D02*
X14937836Y-49490000D01*
X14722164Y-50210000D02*
X14937836Y-50210000D01*
G04 #@! TO.C,C1*
X14702164Y-54560000D02*
X14917836Y-54560000D01*
X14702164Y-55280000D02*
X14917836Y-55280000D01*
D10*
G04 #@! TO.C,X1*
X31194000Y-30669000D02*
X31702000Y-30669000D01*
X31702000Y-30669000D02*
X31702000Y-30161000D01*
X28146000Y-30412000D02*
X28146000Y-26351000D01*
X31476000Y-30412000D02*
X28146000Y-30412000D01*
X28146000Y-26351000D02*
X29797000Y-26351000D01*
X29797000Y-26351000D02*
X31448000Y-26351000D01*
X31448000Y-26351000D02*
X31476000Y-30412000D01*
X31448000Y-26351000D02*
X31448000Y-26351000D01*
D11*
G04 #@! TO.C,JP1*
X29980000Y-23360000D02*
X32780000Y-23360000D01*
X29980000Y-25360000D02*
X29980000Y-23360000D01*
X32780000Y-23360000D02*
X32780000Y-25360000D01*
X32780000Y-25360000D02*
X29980000Y-25360000D01*
G04 #@! TO.C,R12*
X33796359Y-23590000D02*
X34103641Y-23590000D01*
X33796359Y-24350000D02*
X34103641Y-24350000D01*
G04 #@! TO.C,C1*
X29702164Y-54560000D02*
X29917836Y-54560000D01*
X29702164Y-55280000D02*
X29917836Y-55280000D01*
G04 #@! TO.C,R1*
X46620000Y-17443641D02*
X46620000Y-17136359D01*
X47380000Y-17443641D02*
X47380000Y-17136359D01*
G04 #@! TO.C,R12*
X18796359Y-47590000D02*
X19103641Y-47590000D01*
X18796359Y-48350000D02*
X19103641Y-48350000D01*
G04 #@! TO.C,C3*
X29722164Y-13490000D02*
X29937836Y-13490000D01*
X29722164Y-14210000D02*
X29937836Y-14210000D01*
D12*
G04 #@! TO.C,U1*
X25205000Y-49205000D02*
X25205000Y-49774000D01*
X24636000Y-49205000D02*
X25205000Y-49205000D01*
X24636000Y-49205000D02*
X25205000Y-49774000D01*
X18205000Y-49205000D02*
X18774000Y-49205000D01*
X18205000Y-49305000D02*
X18205000Y-49205000D01*
X25205000Y-49464000D02*
X25108000Y-49464000D01*
X25108000Y-49464000D02*
X24849000Y-49205000D01*
X18205000Y-49774000D02*
X18205000Y-49305000D01*
X25205000Y-55636000D02*
X25205000Y-56205000D01*
X25205000Y-56205000D02*
X24636000Y-56205000D01*
X18774000Y-56205000D02*
X18205000Y-56205000D01*
X18205000Y-56205000D02*
X18205000Y-55636000D01*
X25532000Y-48705000D02*
G75*
G03*
X25532000Y-48705000I-127000J0D01*
G01*
D11*
G04 #@! TO.C,R12*
X33796359Y-11590000D02*
X34103641Y-11590000D01*
X33796359Y-12350000D02*
X34103641Y-12350000D01*
G04 #@! TO.C,C1*
X29702164Y-18560000D02*
X29917836Y-18560000D01*
X29702164Y-19280000D02*
X29917836Y-19280000D01*
G04 #@! TO.C,R12*
X33796359Y-47590000D02*
X34103641Y-47590000D01*
X33796359Y-48350000D02*
X34103641Y-48350000D01*
G04 #@! TO.C,R1*
X16620000Y-41443641D02*
X16620000Y-41136359D01*
X17380000Y-41443641D02*
X17380000Y-41136359D01*
D10*
G04 #@! TO.C,X1*
X46194000Y-18669000D02*
X46702000Y-18669000D01*
X46702000Y-18669000D02*
X46702000Y-18161000D01*
X43146000Y-18412000D02*
X43146000Y-14351000D01*
X46476000Y-18412000D02*
X43146000Y-18412000D01*
X43146000Y-14351000D02*
X44797000Y-14351000D01*
X44797000Y-14351000D02*
X46448000Y-14351000D01*
X46448000Y-14351000D02*
X46476000Y-18412000D01*
X46448000Y-14351000D02*
X46448000Y-14351000D01*
D11*
G04 #@! TO.C,R1*
X16620000Y-17443641D02*
X16620000Y-17136359D01*
X17380000Y-17443641D02*
X17380000Y-17136359D01*
D10*
G04 #@! TO.C,X1*
X16194000Y-30669000D02*
X16702000Y-30669000D01*
X16702000Y-30669000D02*
X16702000Y-30161000D01*
X13146000Y-30412000D02*
X13146000Y-26351000D01*
X16476000Y-30412000D02*
X13146000Y-30412000D01*
X13146000Y-26351000D02*
X14797000Y-26351000D01*
X14797000Y-26351000D02*
X16448000Y-26351000D01*
X16448000Y-26351000D02*
X16476000Y-30412000D01*
X16448000Y-26351000D02*
X16448000Y-26351000D01*
D11*
G04 #@! TO.C,C1*
X29702164Y-42560000D02*
X29917836Y-42560000D01*
X29702164Y-43280000D02*
X29917836Y-43280000D01*
D12*
G04 #@! TO.C,U1*
X55205000Y-13205000D02*
X55205000Y-13774000D01*
X54636000Y-13205000D02*
X55205000Y-13205000D01*
X54636000Y-13205000D02*
X55205000Y-13774000D01*
X48205000Y-13205000D02*
X48774000Y-13205000D01*
X48205000Y-13305000D02*
X48205000Y-13205000D01*
X55205000Y-13464000D02*
X55108000Y-13464000D01*
X55108000Y-13464000D02*
X54849000Y-13205000D01*
X48205000Y-13774000D02*
X48205000Y-13305000D01*
X55205000Y-19636000D02*
X55205000Y-20205000D01*
X55205000Y-20205000D02*
X54636000Y-20205000D01*
X48774000Y-20205000D02*
X48205000Y-20205000D01*
X48205000Y-20205000D02*
X48205000Y-19636000D01*
X55532000Y-12705000D02*
G75*
G03*
X55532000Y-12705000I-127000J0D01*
G01*
D11*
G04 #@! TO.C,C1*
X44702164Y-54560000D02*
X44917836Y-54560000D01*
X44702164Y-55280000D02*
X44917836Y-55280000D01*
G04 #@! TO.C,C3*
X29722164Y-37490000D02*
X29937836Y-37490000D01*
X29722164Y-38210000D02*
X29937836Y-38210000D01*
G04 #@! TO.C,JP1*
X14980000Y-23360000D02*
X17780000Y-23360000D01*
X14980000Y-25360000D02*
X14980000Y-23360000D01*
X17780000Y-23360000D02*
X17780000Y-25360000D01*
X17780000Y-25360000D02*
X14980000Y-25360000D01*
X44980000Y-11360000D02*
X47780000Y-11360000D01*
X44980000Y-13360000D02*
X44980000Y-11360000D01*
X47780000Y-11360000D02*
X47780000Y-13360000D01*
X47780000Y-13360000D02*
X44980000Y-13360000D01*
G04 #@! TO.C,C3*
X44722164Y-13490000D02*
X44937836Y-13490000D01*
X44722164Y-14210000D02*
X44937836Y-14210000D01*
X14722164Y-37490000D02*
X14937836Y-37490000D01*
X14722164Y-38210000D02*
X14937836Y-38210000D01*
G04 #@! TO.C,R1*
X46620000Y-29443641D02*
X46620000Y-29136359D01*
X47380000Y-29443641D02*
X47380000Y-29136359D01*
G04 #@! TO.C,C1*
X14702164Y-18560000D02*
X14917836Y-18560000D01*
X14702164Y-19280000D02*
X14917836Y-19280000D01*
G04 #@! TO.C,R1*
X31620000Y-29443641D02*
X31620000Y-29136359D01*
X32380000Y-29443641D02*
X32380000Y-29136359D01*
D10*
G04 #@! TO.C,X1*
X16194000Y-42669000D02*
X16702000Y-42669000D01*
X16702000Y-42669000D02*
X16702000Y-42161000D01*
X13146000Y-42412000D02*
X13146000Y-38351000D01*
X16476000Y-42412000D02*
X13146000Y-42412000D01*
X13146000Y-38351000D02*
X14797000Y-38351000D01*
X14797000Y-38351000D02*
X16448000Y-38351000D01*
X16448000Y-38351000D02*
X16476000Y-42412000D01*
X16448000Y-38351000D02*
X16448000Y-38351000D01*
D12*
G04 #@! TO.C,U1*
X25205000Y-13205000D02*
X25205000Y-13774000D01*
X24636000Y-13205000D02*
X25205000Y-13205000D01*
X24636000Y-13205000D02*
X25205000Y-13774000D01*
X18205000Y-13205000D02*
X18774000Y-13205000D01*
X18205000Y-13305000D02*
X18205000Y-13205000D01*
X25205000Y-13464000D02*
X25108000Y-13464000D01*
X25108000Y-13464000D02*
X24849000Y-13205000D01*
X18205000Y-13774000D02*
X18205000Y-13305000D01*
X25205000Y-19636000D02*
X25205000Y-20205000D01*
X25205000Y-20205000D02*
X24636000Y-20205000D01*
X18774000Y-20205000D02*
X18205000Y-20205000D01*
X18205000Y-20205000D02*
X18205000Y-19636000D01*
X25532000Y-12705000D02*
G75*
G03*
X25532000Y-12705000I-127000J0D01*
G01*
D11*
G04 #@! TO.C,JP1*
X14980000Y-11360000D02*
X17780000Y-11360000D01*
X14980000Y-13360000D02*
X14980000Y-11360000D01*
X17780000Y-11360000D02*
X17780000Y-13360000D01*
X17780000Y-13360000D02*
X14980000Y-13360000D01*
X29980000Y-47360000D02*
X32780000Y-47360000D01*
X29980000Y-49360000D02*
X29980000Y-47360000D01*
X32780000Y-47360000D02*
X32780000Y-49360000D01*
X32780000Y-49360000D02*
X29980000Y-49360000D01*
G04 #@! TO.C,C1*
X29702164Y-30560000D02*
X29917836Y-30560000D01*
X29702164Y-31280000D02*
X29917836Y-31280000D01*
G04 #@! TO.C,R12*
X18796359Y-35590000D02*
X19103641Y-35590000D01*
X18796359Y-36350000D02*
X19103641Y-36350000D01*
D10*
G04 #@! TO.C,X1*
X46194000Y-54669000D02*
X46702000Y-54669000D01*
X46702000Y-54669000D02*
X46702000Y-54161000D01*
X43146000Y-54412000D02*
X43146000Y-50351000D01*
X46476000Y-54412000D02*
X43146000Y-54412000D01*
X43146000Y-50351000D02*
X44797000Y-50351000D01*
X44797000Y-50351000D02*
X46448000Y-50351000D01*
X46448000Y-50351000D02*
X46476000Y-54412000D01*
X46448000Y-50351000D02*
X46448000Y-50351000D01*
D11*
G04 #@! TO.C,R12*
X18796359Y-11590000D02*
X19103641Y-11590000D01*
X18796359Y-12350000D02*
X19103641Y-12350000D01*
D10*
G04 #@! TO.C,X1*
X16194000Y-54669000D02*
X16702000Y-54669000D01*
X16702000Y-54669000D02*
X16702000Y-54161000D01*
X13146000Y-54412000D02*
X13146000Y-50351000D01*
X16476000Y-54412000D02*
X13146000Y-54412000D01*
X13146000Y-50351000D02*
X14797000Y-50351000D01*
X14797000Y-50351000D02*
X16448000Y-50351000D01*
X16448000Y-50351000D02*
X16476000Y-54412000D01*
X16448000Y-50351000D02*
X16448000Y-50351000D01*
D12*
G04 #@! TO.C,U1*
X40205000Y-37205000D02*
X40205000Y-37774000D01*
X39636000Y-37205000D02*
X40205000Y-37205000D01*
X39636000Y-37205000D02*
X40205000Y-37774000D01*
X33205000Y-37205000D02*
X33774000Y-37205000D01*
X33205000Y-37305000D02*
X33205000Y-37205000D01*
X40205000Y-37464000D02*
X40108000Y-37464000D01*
X40108000Y-37464000D02*
X39849000Y-37205000D01*
X33205000Y-37774000D02*
X33205000Y-37305000D01*
X40205000Y-43636000D02*
X40205000Y-44205000D01*
X40205000Y-44205000D02*
X39636000Y-44205000D01*
X33774000Y-44205000D02*
X33205000Y-44205000D01*
X33205000Y-44205000D02*
X33205000Y-43636000D01*
X40532000Y-36705000D02*
G75*
G03*
X40532000Y-36705000I-127000J0D01*
G01*
D11*
G04 #@! TO.C,JP1*
X29980000Y-11360000D02*
X32780000Y-11360000D01*
X29980000Y-13360000D02*
X29980000Y-11360000D01*
X32780000Y-11360000D02*
X32780000Y-13360000D01*
X32780000Y-13360000D02*
X29980000Y-13360000D01*
D10*
G04 #@! TO.C,X1*
X31194000Y-54669000D02*
X31702000Y-54669000D01*
X31702000Y-54669000D02*
X31702000Y-54161000D01*
X28146000Y-54412000D02*
X28146000Y-50351000D01*
X31476000Y-54412000D02*
X28146000Y-54412000D01*
X28146000Y-50351000D02*
X29797000Y-50351000D01*
X29797000Y-50351000D02*
X31448000Y-50351000D01*
X31448000Y-50351000D02*
X31476000Y-54412000D01*
X31448000Y-50351000D02*
X31448000Y-50351000D01*
D11*
G04 #@! TO.C,R12*
X48796359Y-47590000D02*
X49103641Y-47590000D01*
X48796359Y-48350000D02*
X49103641Y-48350000D01*
D12*
G04 #@! TO.C,U1*
X25205000Y-37205000D02*
X25205000Y-37774000D01*
X24636000Y-37205000D02*
X25205000Y-37205000D01*
X24636000Y-37205000D02*
X25205000Y-37774000D01*
X18205000Y-37205000D02*
X18774000Y-37205000D01*
X18205000Y-37305000D02*
X18205000Y-37205000D01*
X25205000Y-37464000D02*
X25108000Y-37464000D01*
X25108000Y-37464000D02*
X24849000Y-37205000D01*
X18205000Y-37774000D02*
X18205000Y-37305000D01*
X25205000Y-43636000D02*
X25205000Y-44205000D01*
X25205000Y-44205000D02*
X24636000Y-44205000D01*
X18774000Y-44205000D02*
X18205000Y-44205000D01*
X18205000Y-44205000D02*
X18205000Y-43636000D01*
X25532000Y-36705000D02*
G75*
G03*
X25532000Y-36705000I-127000J0D01*
G01*
D11*
G04 #@! TO.C,C1*
X14702164Y-30560000D02*
X14917836Y-30560000D01*
X14702164Y-31280000D02*
X14917836Y-31280000D01*
G04 #@! TO.C,R12*
X33796359Y-35590000D02*
X34103641Y-35590000D01*
X33796359Y-36350000D02*
X34103641Y-36350000D01*
G04 #@! TO.C,C3*
X14722164Y-13490000D02*
X14937836Y-13490000D01*
X14722164Y-14210000D02*
X14937836Y-14210000D01*
G04 #@! TO.C,C1*
X44702164Y-18560000D02*
X44917836Y-18560000D01*
X44702164Y-19280000D02*
X44917836Y-19280000D01*
D12*
G04 #@! TO.C,U1*
X25205000Y-25205000D02*
X25205000Y-25774000D01*
X24636000Y-25205000D02*
X25205000Y-25205000D01*
X24636000Y-25205000D02*
X25205000Y-25774000D01*
X18205000Y-25205000D02*
X18774000Y-25205000D01*
X18205000Y-25305000D02*
X18205000Y-25205000D01*
X25205000Y-25464000D02*
X25108000Y-25464000D01*
X25108000Y-25464000D02*
X24849000Y-25205000D01*
X18205000Y-25774000D02*
X18205000Y-25305000D01*
X25205000Y-31636000D02*
X25205000Y-32205000D01*
X25205000Y-32205000D02*
X24636000Y-32205000D01*
X18774000Y-32205000D02*
X18205000Y-32205000D01*
X18205000Y-32205000D02*
X18205000Y-31636000D01*
X25532000Y-24705000D02*
G75*
G03*
X25532000Y-24705000I-127000J0D01*
G01*
D10*
G04 #@! TO.C,X1*
X31194000Y-18669000D02*
X31702000Y-18669000D01*
X31702000Y-18669000D02*
X31702000Y-18161000D01*
X28146000Y-18412000D02*
X28146000Y-14351000D01*
X31476000Y-18412000D02*
X28146000Y-18412000D01*
X28146000Y-14351000D02*
X29797000Y-14351000D01*
X29797000Y-14351000D02*
X31448000Y-14351000D01*
X31448000Y-14351000D02*
X31476000Y-18412000D01*
X31448000Y-14351000D02*
X31448000Y-14351000D01*
G04 #@! TD*
M02*
