G04 #@! TF.GenerationSoftware,KiCad,Pcbnew,7.0.2-6a45011f42~172~ubuntu22.04.1*
G04 #@! TF.CreationDate,2023-05-28T07:21:03+08:00*
G04 #@! TF.ProjectId,panel_4_3,70616e65-6c5f-4345-9f33-2e6b69636164,rev?*
G04 #@! TF.SameCoordinates,Original*
G04 #@! TF.FileFunction,Soldermask,Top*
G04 #@! TF.FilePolarity,Negative*
%FSLAX46Y46*%
G04 Gerber Fmt 4.6, Leading zero omitted, Abs format (unit mm)*
G04 Created by KiCad (PCBNEW 7.0.2-6a45011f42~172~ubuntu22.04.1) date 2023-05-28 07:21:03*
%MOMM*%
%LPD*%
G01*
G04 APERTURE LIST*
G04 Aperture macros list*
%AMRoundRect*
0 Rectangle with rounded corners*
0 $1 Rounding radius*
0 $2 $3 $4 $5 $6 $7 $8 $9 X,Y pos of 4 corners*
0 Add a 4 corners polygon primitive as box body*
4,1,4,$2,$3,$4,$5,$6,$7,$8,$9,$2,$3,0*
0 Add four circle primitives for the rounded corners*
1,1,$1+$1,$2,$3*
1,1,$1+$1,$4,$5*
1,1,$1+$1,$6,$7*
1,1,$1+$1,$8,$9*
0 Add four rect primitives between the rounded corners*
20,1,$1+$1,$2,$3,$4,$5,0*
20,1,$1+$1,$4,$5,$6,$7,0*
20,1,$1+$1,$6,$7,$8,$9,0*
20,1,$1+$1,$8,$9,$2,$3,0*%
%AMFreePoly0*
4,1,6,1.000000,0.000000,0.500000,-0.750000,-0.500000,-0.750000,-0.500000,0.750000,0.500000,0.750000,1.000000,0.000000,1.000000,0.000000,$1*%
%AMFreePoly1*
4,1,6,0.500000,-0.750000,-0.650000,-0.750000,-0.150000,0.000000,-0.650000,0.750000,0.500000,0.750000,0.500000,-0.750000,0.500000,-0.750000,$1*%
G04 Aperture macros list end*
%ADD10R,1.200000X1.200000*%
%ADD11R,1.200000X1.400000*%
%ADD12O,1.000000X1.000000*%
%ADD13FreePoly0,0.000000*%
%ADD14FreePoly1,0.000000*%
%ADD15RoundRect,0.140000X-0.140000X-0.170000X0.140000X-0.170000X0.140000X0.170000X-0.140000X0.170000X0*%
%ADD16RoundRect,0.135000X-0.135000X-0.185000X0.135000X-0.185000X0.135000X0.185000X-0.135000X0.185000X0*%
%ADD17RoundRect,0.135000X0.185000X-0.135000X0.185000X0.135000X-0.185000X0.135000X-0.185000X-0.135000X0*%
%ADD18R,0.200000X1.100000*%
%ADD19R,1.100000X0.200000*%
%ADD20R,3.100000X3.100000*%
%ADD21C,1.152000*%
%ADD22C,1.000000*%
G04 APERTURE END LIST*
D10*
G04 #@! TO.C,J3*
X51187500Y-46100000D03*
G04 #@! TD*
G04 #@! TO.C,J5*
X39442500Y-46100000D03*
G04 #@! TD*
G04 #@! TO.C,J9*
X47932500Y-22100000D03*
G04 #@! TD*
D11*
G04 #@! TO.C,X1*
X45672000Y-29483000D03*
X45672000Y-27283000D03*
X43922000Y-27283000D03*
X43922000Y-29483000D03*
G04 #@! TD*
D12*
G04 #@! TO.C,J8*
X41700000Y-55700000D03*
X41700000Y-54430000D03*
X41700000Y-53160000D03*
X41700000Y-51890000D03*
X41700000Y-50620000D03*
X41700000Y-49350000D03*
G04 #@! TD*
D10*
G04 #@! TO.C,J1*
X13930000Y-12110000D03*
G04 #@! TD*
D13*
G04 #@! TO.C,JP1*
X45655000Y-24360000D03*
D14*
X47105000Y-24360000D03*
G04 #@! TD*
D10*
G04 #@! TO.C,J7*
X29677500Y-46100000D03*
G04 #@! TD*
D15*
G04 #@! TO.C,C1*
X44330000Y-30920000D03*
X45290000Y-30920000D03*
G04 #@! TD*
D10*
G04 #@! TO.C,J1*
X13930000Y-48110000D03*
G04 #@! TD*
D16*
G04 #@! TO.C,R12*
X48440000Y-23970000D03*
X49460000Y-23970000D03*
G04 #@! TD*
D10*
G04 #@! TO.C,J6*
X31310000Y-22100000D03*
G04 #@! TD*
G04 #@! TO.C,J10*
X56070000Y-22100000D03*
G04 #@! TD*
D16*
G04 #@! TO.C,R12*
X18440000Y-23970000D03*
X19460000Y-23970000D03*
G04 #@! TD*
G04 #@! TO.C,R12*
X48440000Y-11970000D03*
X49460000Y-11970000D03*
G04 #@! TD*
D10*
G04 #@! TO.C,J9*
X47932500Y-34100000D03*
G04 #@! TD*
D11*
G04 #@! TO.C,X1*
X30672000Y-41483000D03*
X30672000Y-39283000D03*
X28922000Y-39283000D03*
X28922000Y-41483000D03*
G04 #@! TD*
D15*
G04 #@! TO.C,C3*
X44350000Y-37850000D03*
X45310000Y-37850000D03*
G04 #@! TD*
D10*
G04 #@! TO.C,J4*
X37815000Y-58100000D03*
G04 #@! TD*
G04 #@! TO.C,J2*
X19560000Y-34100000D03*
G04 #@! TD*
G04 #@! TO.C,J2*
X49560000Y-34100000D03*
G04 #@! TD*
D15*
G04 #@! TO.C,C3*
X14350000Y-25850000D03*
X15310000Y-25850000D03*
G04 #@! TD*
D17*
G04 #@! TO.C,R1*
X32000000Y-53800000D03*
X32000000Y-52780000D03*
G04 #@! TD*
D15*
G04 #@! TO.C,C1*
X14330000Y-42920000D03*
X15290000Y-42920000D03*
G04 #@! TD*
D12*
G04 #@! TO.C,J8*
X26700000Y-31700000D03*
X26700000Y-30430000D03*
X26700000Y-29160000D03*
X26700000Y-27890000D03*
X26700000Y-26620000D03*
X26700000Y-25350000D03*
G04 #@! TD*
D10*
G04 #@! TO.C,J2*
X34560000Y-22100000D03*
G04 #@! TD*
D13*
G04 #@! TO.C,JP1*
X15655000Y-48360000D03*
D14*
X17105000Y-48360000D03*
G04 #@! TD*
D10*
G04 #@! TO.C,J1*
X13930000Y-24110000D03*
G04 #@! TD*
D11*
G04 #@! TO.C,X1*
X15672000Y-17483000D03*
X15672000Y-15283000D03*
X13922000Y-15283000D03*
X13922000Y-17483000D03*
G04 #@! TD*
D15*
G04 #@! TO.C,C3*
X29350000Y-49850000D03*
X30310000Y-49850000D03*
G04 #@! TD*
D12*
G04 #@! TO.C,J8*
X41700000Y-43700000D03*
X41700000Y-42430000D03*
X41700000Y-41160000D03*
X41700000Y-39890000D03*
X41700000Y-38620000D03*
X41700000Y-37350000D03*
G04 #@! TD*
D13*
G04 #@! TO.C,JP1*
X45655000Y-48360000D03*
D14*
X47105000Y-48360000D03*
G04 #@! TD*
D12*
G04 #@! TO.C,J8*
X26700000Y-43700000D03*
X26700000Y-42430000D03*
X26700000Y-41160000D03*
X26700000Y-39890000D03*
X26700000Y-38620000D03*
X26700000Y-37350000D03*
G04 #@! TD*
D10*
G04 #@! TO.C,J6*
X46310000Y-46100000D03*
G04 #@! TD*
G04 #@! TO.C,J2*
X34560000Y-58100000D03*
G04 #@! TD*
G04 #@! TO.C,J7*
X29677500Y-34100000D03*
G04 #@! TD*
D12*
G04 #@! TO.C,J8*
X26700000Y-55700000D03*
X26700000Y-54430000D03*
X26700000Y-53160000D03*
X26700000Y-51890000D03*
X26700000Y-50620000D03*
X26700000Y-49350000D03*
G04 #@! TD*
D10*
G04 #@! TO.C,J9*
X17932500Y-58100000D03*
G04 #@! TD*
G04 #@! TO.C,J5*
X39442500Y-58100000D03*
G04 #@! TD*
D18*
G04 #@! TO.C,U1*
X54305000Y-37155000D03*
X53905000Y-37155000D03*
X53505000Y-37155000D03*
X53105000Y-37155000D03*
X52705000Y-37155000D03*
X52305000Y-37155000D03*
X51905000Y-37155000D03*
X51505000Y-37155000D03*
X51105000Y-37155000D03*
X50705000Y-37155000D03*
X50305000Y-37155000D03*
X49905000Y-37155000D03*
X49505000Y-37155000D03*
X49105000Y-37155000D03*
D19*
X48155000Y-38105000D03*
X48155000Y-38505000D03*
X48155000Y-38905000D03*
X48155000Y-39305000D03*
X48155000Y-39705000D03*
X48155000Y-40105000D03*
X48155000Y-40505000D03*
X48155000Y-40905000D03*
X48155000Y-41305000D03*
X48155000Y-41705000D03*
X48155000Y-42105000D03*
X48155000Y-42505000D03*
X48155000Y-42905000D03*
X48155000Y-43305000D03*
D18*
X49105000Y-44255000D03*
X49505000Y-44255000D03*
X49905000Y-44255000D03*
X50305000Y-44255000D03*
X50705000Y-44255000D03*
X51105000Y-44255000D03*
X51505000Y-44255000D03*
X51905000Y-44255000D03*
X52305000Y-44255000D03*
X52705000Y-44255000D03*
X53105000Y-44255000D03*
X53505000Y-44255000D03*
X53905000Y-44255000D03*
X54305000Y-44255000D03*
D19*
X55255000Y-43305000D03*
X55255000Y-42905000D03*
X55255000Y-42505000D03*
X55255000Y-42105000D03*
X55255000Y-41705000D03*
X55255000Y-41305000D03*
X55255000Y-40905000D03*
X55255000Y-40505000D03*
X55255000Y-40105000D03*
X55255000Y-39705000D03*
X55255000Y-39305000D03*
X55255000Y-38905000D03*
X55255000Y-38505000D03*
X55255000Y-38105000D03*
D20*
X51705000Y-40705000D03*
G04 #@! TD*
D12*
G04 #@! TO.C,J8*
X41700000Y-19700000D03*
X41700000Y-18430000D03*
X41700000Y-17160000D03*
X41700000Y-15890000D03*
X41700000Y-14620000D03*
X41700000Y-13350000D03*
G04 #@! TD*
D10*
G04 #@! TO.C,J2*
X49560000Y-22100000D03*
G04 #@! TD*
G04 #@! TO.C,J5*
X54442500Y-34100000D03*
G04 #@! TD*
D16*
G04 #@! TO.C,R12*
X48440000Y-35970000D03*
X49460000Y-35970000D03*
G04 #@! TD*
D15*
G04 #@! TO.C,C3*
X44350000Y-49850000D03*
X45310000Y-49850000D03*
G04 #@! TD*
D10*
G04 #@! TO.C,J4*
X37815000Y-34100000D03*
G04 #@! TD*
G04 #@! TO.C,J2*
X34560000Y-46100000D03*
G04 #@! TD*
G04 #@! TO.C,J9*
X17932500Y-22100000D03*
G04 #@! TD*
G04 #@! TO.C,J6*
X16310000Y-34100000D03*
G04 #@! TD*
G04 #@! TO.C,J5*
X39442500Y-34100000D03*
G04 #@! TD*
G04 #@! TO.C,J1*
X43930000Y-36110000D03*
G04 #@! TD*
G04 #@! TO.C,J9*
X32932500Y-22100000D03*
G04 #@! TD*
G04 #@! TO.C,J4*
X37815000Y-22100000D03*
G04 #@! TD*
D15*
G04 #@! TO.C,C3*
X44350000Y-25850000D03*
X45310000Y-25850000D03*
G04 #@! TD*
D11*
G04 #@! TO.C,X1*
X45672000Y-41483000D03*
X45672000Y-39283000D03*
X43922000Y-39283000D03*
X43922000Y-41483000D03*
G04 #@! TD*
D10*
G04 #@! TO.C,J9*
X17932500Y-34100000D03*
G04 #@! TD*
G04 #@! TO.C,J10*
X26070000Y-22100000D03*
G04 #@! TD*
D18*
G04 #@! TO.C,U1*
X39305000Y-49155000D03*
X38905000Y-49155000D03*
X38505000Y-49155000D03*
X38105000Y-49155000D03*
X37705000Y-49155000D03*
X37305000Y-49155000D03*
X36905000Y-49155000D03*
X36505000Y-49155000D03*
X36105000Y-49155000D03*
X35705000Y-49155000D03*
X35305000Y-49155000D03*
X34905000Y-49155000D03*
X34505000Y-49155000D03*
X34105000Y-49155000D03*
D19*
X33155000Y-50105000D03*
X33155000Y-50505000D03*
X33155000Y-50905000D03*
X33155000Y-51305000D03*
X33155000Y-51705000D03*
X33155000Y-52105000D03*
X33155000Y-52505000D03*
X33155000Y-52905000D03*
X33155000Y-53305000D03*
X33155000Y-53705000D03*
X33155000Y-54105000D03*
X33155000Y-54505000D03*
X33155000Y-54905000D03*
X33155000Y-55305000D03*
D18*
X34105000Y-56255000D03*
X34505000Y-56255000D03*
X34905000Y-56255000D03*
X35305000Y-56255000D03*
X35705000Y-56255000D03*
X36105000Y-56255000D03*
X36505000Y-56255000D03*
X36905000Y-56255000D03*
X37305000Y-56255000D03*
X37705000Y-56255000D03*
X38105000Y-56255000D03*
X38505000Y-56255000D03*
X38905000Y-56255000D03*
X39305000Y-56255000D03*
D19*
X40255000Y-55305000D03*
X40255000Y-54905000D03*
X40255000Y-54505000D03*
X40255000Y-54105000D03*
X40255000Y-53705000D03*
X40255000Y-53305000D03*
X40255000Y-52905000D03*
X40255000Y-52505000D03*
X40255000Y-52105000D03*
X40255000Y-51705000D03*
X40255000Y-51305000D03*
X40255000Y-50905000D03*
X40255000Y-50505000D03*
X40255000Y-50105000D03*
D20*
X36705000Y-52705000D03*
G04 #@! TD*
D10*
G04 #@! TO.C,J3*
X36187500Y-34100000D03*
G04 #@! TD*
D13*
G04 #@! TO.C,JP1*
X45655000Y-36360000D03*
D14*
X47105000Y-36360000D03*
G04 #@! TD*
D21*
G04 #@! TO.C,REF\u002A\u002A*
X2500000Y-2500000D03*
G04 #@! TD*
D10*
G04 #@! TO.C,J7*
X14677500Y-34100000D03*
G04 #@! TD*
D17*
G04 #@! TO.C,R1*
X32000000Y-17800000D03*
X32000000Y-16780000D03*
G04 #@! TD*
D10*
G04 #@! TO.C,J2*
X19560000Y-58100000D03*
G04 #@! TD*
D17*
G04 #@! TO.C,R1*
X17000000Y-53800000D03*
X17000000Y-52780000D03*
G04 #@! TD*
G04 #@! TO.C,R1*
X17000000Y-29800000D03*
X17000000Y-28780000D03*
G04 #@! TD*
D18*
G04 #@! TO.C,U1*
X39305000Y-13155000D03*
X38905000Y-13155000D03*
X38505000Y-13155000D03*
X38105000Y-13155000D03*
X37705000Y-13155000D03*
X37305000Y-13155000D03*
X36905000Y-13155000D03*
X36505000Y-13155000D03*
X36105000Y-13155000D03*
X35705000Y-13155000D03*
X35305000Y-13155000D03*
X34905000Y-13155000D03*
X34505000Y-13155000D03*
X34105000Y-13155000D03*
D19*
X33155000Y-14105000D03*
X33155000Y-14505000D03*
X33155000Y-14905000D03*
X33155000Y-15305000D03*
X33155000Y-15705000D03*
X33155000Y-16105000D03*
X33155000Y-16505000D03*
X33155000Y-16905000D03*
X33155000Y-17305000D03*
X33155000Y-17705000D03*
X33155000Y-18105000D03*
X33155000Y-18505000D03*
X33155000Y-18905000D03*
X33155000Y-19305000D03*
D18*
X34105000Y-20255000D03*
X34505000Y-20255000D03*
X34905000Y-20255000D03*
X35305000Y-20255000D03*
X35705000Y-20255000D03*
X36105000Y-20255000D03*
X36505000Y-20255000D03*
X36905000Y-20255000D03*
X37305000Y-20255000D03*
X37705000Y-20255000D03*
X38105000Y-20255000D03*
X38505000Y-20255000D03*
X38905000Y-20255000D03*
X39305000Y-20255000D03*
D19*
X40255000Y-19305000D03*
X40255000Y-18905000D03*
X40255000Y-18505000D03*
X40255000Y-18105000D03*
X40255000Y-17705000D03*
X40255000Y-17305000D03*
X40255000Y-16905000D03*
X40255000Y-16505000D03*
X40255000Y-16105000D03*
X40255000Y-15705000D03*
X40255000Y-15305000D03*
X40255000Y-14905000D03*
X40255000Y-14505000D03*
X40255000Y-14105000D03*
D20*
X36705000Y-16705000D03*
G04 #@! TD*
D18*
G04 #@! TO.C,U1*
X54305000Y-49155000D03*
X53905000Y-49155000D03*
X53505000Y-49155000D03*
X53105000Y-49155000D03*
X52705000Y-49155000D03*
X52305000Y-49155000D03*
X51905000Y-49155000D03*
X51505000Y-49155000D03*
X51105000Y-49155000D03*
X50705000Y-49155000D03*
X50305000Y-49155000D03*
X49905000Y-49155000D03*
X49505000Y-49155000D03*
X49105000Y-49155000D03*
D19*
X48155000Y-50105000D03*
X48155000Y-50505000D03*
X48155000Y-50905000D03*
X48155000Y-51305000D03*
X48155000Y-51705000D03*
X48155000Y-52105000D03*
X48155000Y-52505000D03*
X48155000Y-52905000D03*
X48155000Y-53305000D03*
X48155000Y-53705000D03*
X48155000Y-54105000D03*
X48155000Y-54505000D03*
X48155000Y-54905000D03*
X48155000Y-55305000D03*
D18*
X49105000Y-56255000D03*
X49505000Y-56255000D03*
X49905000Y-56255000D03*
X50305000Y-56255000D03*
X50705000Y-56255000D03*
X51105000Y-56255000D03*
X51505000Y-56255000D03*
X51905000Y-56255000D03*
X52305000Y-56255000D03*
X52705000Y-56255000D03*
X53105000Y-56255000D03*
X53505000Y-56255000D03*
X53905000Y-56255000D03*
X54305000Y-56255000D03*
D19*
X55255000Y-55305000D03*
X55255000Y-54905000D03*
X55255000Y-54505000D03*
X55255000Y-54105000D03*
X55255000Y-53705000D03*
X55255000Y-53305000D03*
X55255000Y-52905000D03*
X55255000Y-52505000D03*
X55255000Y-52105000D03*
X55255000Y-51705000D03*
X55255000Y-51305000D03*
X55255000Y-50905000D03*
X55255000Y-50505000D03*
X55255000Y-50105000D03*
D20*
X51705000Y-52705000D03*
G04 #@! TD*
D10*
G04 #@! TO.C,J9*
X47932500Y-58100000D03*
G04 #@! TD*
D12*
G04 #@! TO.C,J8*
X56700000Y-43700000D03*
X56700000Y-42430000D03*
X56700000Y-41160000D03*
X56700000Y-39890000D03*
X56700000Y-38620000D03*
X56700000Y-37350000D03*
G04 #@! TD*
D13*
G04 #@! TO.C,JP1*
X15655000Y-36360000D03*
D14*
X17105000Y-36360000D03*
G04 #@! TD*
D10*
G04 #@! TO.C,J4*
X52815000Y-34100000D03*
G04 #@! TD*
G04 #@! TO.C,J2*
X49560000Y-46100000D03*
G04 #@! TD*
D17*
G04 #@! TO.C,R1*
X32000000Y-41800000D03*
X32000000Y-40780000D03*
G04 #@! TD*
D18*
G04 #@! TO.C,U1*
X54305000Y-25155000D03*
X53905000Y-25155000D03*
X53505000Y-25155000D03*
X53105000Y-25155000D03*
X52705000Y-25155000D03*
X52305000Y-25155000D03*
X51905000Y-25155000D03*
X51505000Y-25155000D03*
X51105000Y-25155000D03*
X50705000Y-25155000D03*
X50305000Y-25155000D03*
X49905000Y-25155000D03*
X49505000Y-25155000D03*
X49105000Y-25155000D03*
D19*
X48155000Y-26105000D03*
X48155000Y-26505000D03*
X48155000Y-26905000D03*
X48155000Y-27305000D03*
X48155000Y-27705000D03*
X48155000Y-28105000D03*
X48155000Y-28505000D03*
X48155000Y-28905000D03*
X48155000Y-29305000D03*
X48155000Y-29705000D03*
X48155000Y-30105000D03*
X48155000Y-30505000D03*
X48155000Y-30905000D03*
X48155000Y-31305000D03*
D18*
X49105000Y-32255000D03*
X49505000Y-32255000D03*
X49905000Y-32255000D03*
X50305000Y-32255000D03*
X50705000Y-32255000D03*
X51105000Y-32255000D03*
X51505000Y-32255000D03*
X51905000Y-32255000D03*
X52305000Y-32255000D03*
X52705000Y-32255000D03*
X53105000Y-32255000D03*
X53505000Y-32255000D03*
X53905000Y-32255000D03*
X54305000Y-32255000D03*
D19*
X55255000Y-31305000D03*
X55255000Y-30905000D03*
X55255000Y-30505000D03*
X55255000Y-30105000D03*
X55255000Y-29705000D03*
X55255000Y-29305000D03*
X55255000Y-28905000D03*
X55255000Y-28505000D03*
X55255000Y-28105000D03*
X55255000Y-27705000D03*
X55255000Y-27305000D03*
X55255000Y-26905000D03*
X55255000Y-26505000D03*
X55255000Y-26105000D03*
D20*
X51705000Y-28705000D03*
G04 #@! TD*
D10*
G04 #@! TO.C,J9*
X32932500Y-58100000D03*
G04 #@! TD*
D17*
G04 #@! TO.C,R1*
X47000000Y-53800000D03*
X47000000Y-52780000D03*
G04 #@! TD*
D10*
G04 #@! TO.C,J7*
X44677500Y-58100000D03*
G04 #@! TD*
D15*
G04 #@! TO.C,C3*
X29350000Y-25850000D03*
X30310000Y-25850000D03*
G04 #@! TD*
D10*
G04 #@! TO.C,J7*
X14677500Y-22100000D03*
G04 #@! TD*
G04 #@! TO.C,J4*
X22815000Y-22100000D03*
G04 #@! TD*
G04 #@! TO.C,J6*
X16310000Y-58100000D03*
G04 #@! TD*
G04 #@! TO.C,J2*
X19560000Y-22100000D03*
G04 #@! TD*
D13*
G04 #@! TO.C,JP1*
X30655000Y-36360000D03*
D14*
X32105000Y-36360000D03*
G04 #@! TD*
D10*
G04 #@! TO.C,J10*
X56070000Y-46100000D03*
G04 #@! TD*
G04 #@! TO.C,J2*
X34560000Y-34100000D03*
G04 #@! TD*
D17*
G04 #@! TO.C,R1*
X47000000Y-41800000D03*
X47000000Y-40780000D03*
G04 #@! TD*
D10*
G04 #@! TO.C,J1*
X43930000Y-24110000D03*
G04 #@! TD*
D15*
G04 #@! TO.C,C1*
X44330000Y-42920000D03*
X45290000Y-42920000D03*
G04 #@! TD*
D10*
G04 #@! TO.C,J10*
X26070000Y-58100000D03*
G04 #@! TD*
G04 #@! TO.C,J5*
X24442500Y-22100000D03*
G04 #@! TD*
G04 #@! TO.C,J4*
X52815000Y-46100000D03*
G04 #@! TD*
G04 #@! TO.C,J6*
X31310000Y-34100000D03*
G04 #@! TD*
D18*
G04 #@! TO.C,U1*
X39305000Y-25155000D03*
X38905000Y-25155000D03*
X38505000Y-25155000D03*
X38105000Y-25155000D03*
X37705000Y-25155000D03*
X37305000Y-25155000D03*
X36905000Y-25155000D03*
X36505000Y-25155000D03*
X36105000Y-25155000D03*
X35705000Y-25155000D03*
X35305000Y-25155000D03*
X34905000Y-25155000D03*
X34505000Y-25155000D03*
X34105000Y-25155000D03*
D19*
X33155000Y-26105000D03*
X33155000Y-26505000D03*
X33155000Y-26905000D03*
X33155000Y-27305000D03*
X33155000Y-27705000D03*
X33155000Y-28105000D03*
X33155000Y-28505000D03*
X33155000Y-28905000D03*
X33155000Y-29305000D03*
X33155000Y-29705000D03*
X33155000Y-30105000D03*
X33155000Y-30505000D03*
X33155000Y-30905000D03*
X33155000Y-31305000D03*
D18*
X34105000Y-32255000D03*
X34505000Y-32255000D03*
X34905000Y-32255000D03*
X35305000Y-32255000D03*
X35705000Y-32255000D03*
X36105000Y-32255000D03*
X36505000Y-32255000D03*
X36905000Y-32255000D03*
X37305000Y-32255000D03*
X37705000Y-32255000D03*
X38105000Y-32255000D03*
X38505000Y-32255000D03*
X38905000Y-32255000D03*
X39305000Y-32255000D03*
D19*
X40255000Y-31305000D03*
X40255000Y-30905000D03*
X40255000Y-30505000D03*
X40255000Y-30105000D03*
X40255000Y-29705000D03*
X40255000Y-29305000D03*
X40255000Y-28905000D03*
X40255000Y-28505000D03*
X40255000Y-28105000D03*
X40255000Y-27705000D03*
X40255000Y-27305000D03*
X40255000Y-26905000D03*
X40255000Y-26505000D03*
X40255000Y-26105000D03*
D20*
X36705000Y-28705000D03*
G04 #@! TD*
D12*
G04 #@! TO.C,J8*
X56700000Y-19700000D03*
X56700000Y-18430000D03*
X56700000Y-17160000D03*
X56700000Y-15890000D03*
X56700000Y-14620000D03*
X56700000Y-13350000D03*
G04 #@! TD*
D10*
G04 #@! TO.C,J6*
X31310000Y-58100000D03*
G04 #@! TD*
D15*
G04 #@! TO.C,C3*
X14350000Y-49850000D03*
X15310000Y-49850000D03*
G04 #@! TD*
D10*
G04 #@! TO.C,J4*
X22815000Y-58100000D03*
G04 #@! TD*
G04 #@! TO.C,J5*
X54442500Y-22100000D03*
G04 #@! TD*
G04 #@! TO.C,J5*
X54442500Y-58100000D03*
G04 #@! TD*
D15*
G04 #@! TO.C,C1*
X14330000Y-54920000D03*
X15290000Y-54920000D03*
G04 #@! TD*
D10*
G04 #@! TO.C,J7*
X14677500Y-58100000D03*
G04 #@! TD*
G04 #@! TO.C,J3*
X21187500Y-58100000D03*
G04 #@! TD*
D11*
G04 #@! TO.C,X1*
X30672000Y-29483000D03*
X30672000Y-27283000D03*
X28922000Y-27283000D03*
X28922000Y-29483000D03*
G04 #@! TD*
D10*
G04 #@! TO.C,J5*
X24442500Y-58100000D03*
G04 #@! TD*
D13*
G04 #@! TO.C,JP1*
X30655000Y-24360000D03*
D14*
X32105000Y-24360000D03*
G04 #@! TD*
D21*
G04 #@! TO.C,REF\u002A\u002A*
X67500000Y-2500000D03*
G04 #@! TD*
D10*
G04 #@! TO.C,J2*
X19560000Y-46100000D03*
G04 #@! TD*
G04 #@! TO.C,J5*
X24442500Y-34100000D03*
G04 #@! TD*
D12*
G04 #@! TO.C,J8*
X56700000Y-31700000D03*
X56700000Y-30430000D03*
X56700000Y-29160000D03*
X56700000Y-27890000D03*
X56700000Y-26620000D03*
X56700000Y-25350000D03*
G04 #@! TD*
D16*
G04 #@! TO.C,R12*
X33440000Y-23970000D03*
X34460000Y-23970000D03*
G04 #@! TD*
D10*
G04 #@! TO.C,J4*
X22815000Y-34100000D03*
G04 #@! TD*
D15*
G04 #@! TO.C,C1*
X29330000Y-54920000D03*
X30290000Y-54920000D03*
G04 #@! TD*
D10*
G04 #@! TO.C,J3*
X36187500Y-46100000D03*
G04 #@! TD*
D17*
G04 #@! TO.C,R1*
X47000000Y-17800000D03*
X47000000Y-16780000D03*
G04 #@! TD*
D10*
G04 #@! TO.C,J7*
X44677500Y-46100000D03*
G04 #@! TD*
D16*
G04 #@! TO.C,R12*
X18440000Y-47970000D03*
X19460000Y-47970000D03*
G04 #@! TD*
D15*
G04 #@! TO.C,C3*
X29350000Y-13850000D03*
X30310000Y-13850000D03*
G04 #@! TD*
D10*
G04 #@! TO.C,J9*
X32932500Y-34100000D03*
G04 #@! TD*
G04 #@! TO.C,J6*
X31310000Y-46100000D03*
G04 #@! TD*
D12*
G04 #@! TO.C,J8*
X26700000Y-19700000D03*
X26700000Y-18430000D03*
X26700000Y-17160000D03*
X26700000Y-15890000D03*
X26700000Y-14620000D03*
X26700000Y-13350000D03*
G04 #@! TD*
D10*
G04 #@! TO.C,J1*
X13930000Y-36110000D03*
G04 #@! TD*
D18*
G04 #@! TO.C,U1*
X24305000Y-49155000D03*
X23905000Y-49155000D03*
X23505000Y-49155000D03*
X23105000Y-49155000D03*
X22705000Y-49155000D03*
X22305000Y-49155000D03*
X21905000Y-49155000D03*
X21505000Y-49155000D03*
X21105000Y-49155000D03*
X20705000Y-49155000D03*
X20305000Y-49155000D03*
X19905000Y-49155000D03*
X19505000Y-49155000D03*
X19105000Y-49155000D03*
D19*
X18155000Y-50105000D03*
X18155000Y-50505000D03*
X18155000Y-50905000D03*
X18155000Y-51305000D03*
X18155000Y-51705000D03*
X18155000Y-52105000D03*
X18155000Y-52505000D03*
X18155000Y-52905000D03*
X18155000Y-53305000D03*
X18155000Y-53705000D03*
X18155000Y-54105000D03*
X18155000Y-54505000D03*
X18155000Y-54905000D03*
X18155000Y-55305000D03*
D18*
X19105000Y-56255000D03*
X19505000Y-56255000D03*
X19905000Y-56255000D03*
X20305000Y-56255000D03*
X20705000Y-56255000D03*
X21105000Y-56255000D03*
X21505000Y-56255000D03*
X21905000Y-56255000D03*
X22305000Y-56255000D03*
X22705000Y-56255000D03*
X23105000Y-56255000D03*
X23505000Y-56255000D03*
X23905000Y-56255000D03*
X24305000Y-56255000D03*
D19*
X25255000Y-55305000D03*
X25255000Y-54905000D03*
X25255000Y-54505000D03*
X25255000Y-54105000D03*
X25255000Y-53705000D03*
X25255000Y-53305000D03*
X25255000Y-52905000D03*
X25255000Y-52505000D03*
X25255000Y-52105000D03*
X25255000Y-51705000D03*
X25255000Y-51305000D03*
X25255000Y-50905000D03*
X25255000Y-50505000D03*
X25255000Y-50105000D03*
D20*
X21705000Y-52705000D03*
G04 #@! TD*
D16*
G04 #@! TO.C,R12*
X33440000Y-11970000D03*
X34460000Y-11970000D03*
G04 #@! TD*
D10*
G04 #@! TO.C,J7*
X14677500Y-46100000D03*
G04 #@! TD*
G04 #@! TO.C,J10*
X56070000Y-34100000D03*
G04 #@! TD*
D15*
G04 #@! TO.C,C1*
X29330000Y-18920000D03*
X30290000Y-18920000D03*
G04 #@! TD*
D22*
G04 #@! TO.C,REF\u002A\u002A*
X15000000Y-3350000D03*
G04 #@! TD*
D10*
G04 #@! TO.C,J10*
X41070000Y-46100000D03*
G04 #@! TD*
G04 #@! TO.C,J7*
X29677500Y-22100000D03*
G04 #@! TD*
G04 #@! TO.C,J1*
X43930000Y-12110000D03*
G04 #@! TD*
D16*
G04 #@! TO.C,R12*
X33440000Y-47970000D03*
X34460000Y-47970000D03*
G04 #@! TD*
D10*
G04 #@! TO.C,J9*
X32932500Y-46100000D03*
G04 #@! TD*
D17*
G04 #@! TO.C,R1*
X17000000Y-41800000D03*
X17000000Y-40780000D03*
G04 #@! TD*
D10*
G04 #@! TO.C,J1*
X28930000Y-36110000D03*
G04 #@! TD*
D11*
G04 #@! TO.C,X1*
X45672000Y-17483000D03*
X45672000Y-15283000D03*
X43922000Y-15283000D03*
X43922000Y-17483000D03*
G04 #@! TD*
D10*
G04 #@! TO.C,J3*
X36187500Y-58100000D03*
G04 #@! TD*
D17*
G04 #@! TO.C,R1*
X17000000Y-17800000D03*
X17000000Y-16780000D03*
G04 #@! TD*
D10*
G04 #@! TO.C,J3*
X36187500Y-22100000D03*
G04 #@! TD*
G04 #@! TO.C,J10*
X41070000Y-58100000D03*
G04 #@! TD*
G04 #@! TO.C,J3*
X51187500Y-58100000D03*
G04 #@! TD*
G04 #@! TO.C,J1*
X28930000Y-12110000D03*
G04 #@! TD*
G04 #@! TO.C,J10*
X56070000Y-58100000D03*
G04 #@! TD*
G04 #@! TO.C,J7*
X29677500Y-58100000D03*
G04 #@! TD*
D11*
G04 #@! TO.C,X1*
X15672000Y-29483000D03*
X15672000Y-27283000D03*
X13922000Y-27283000D03*
X13922000Y-29483000D03*
G04 #@! TD*
D15*
G04 #@! TO.C,C1*
X29330000Y-42920000D03*
X30290000Y-42920000D03*
G04 #@! TD*
D10*
G04 #@! TO.C,J10*
X26070000Y-34100000D03*
G04 #@! TD*
D18*
G04 #@! TO.C,U1*
X54305000Y-13155000D03*
X53905000Y-13155000D03*
X53505000Y-13155000D03*
X53105000Y-13155000D03*
X52705000Y-13155000D03*
X52305000Y-13155000D03*
X51905000Y-13155000D03*
X51505000Y-13155000D03*
X51105000Y-13155000D03*
X50705000Y-13155000D03*
X50305000Y-13155000D03*
X49905000Y-13155000D03*
X49505000Y-13155000D03*
X49105000Y-13155000D03*
D19*
X48155000Y-14105000D03*
X48155000Y-14505000D03*
X48155000Y-14905000D03*
X48155000Y-15305000D03*
X48155000Y-15705000D03*
X48155000Y-16105000D03*
X48155000Y-16505000D03*
X48155000Y-16905000D03*
X48155000Y-17305000D03*
X48155000Y-17705000D03*
X48155000Y-18105000D03*
X48155000Y-18505000D03*
X48155000Y-18905000D03*
X48155000Y-19305000D03*
D18*
X49105000Y-20255000D03*
X49505000Y-20255000D03*
X49905000Y-20255000D03*
X50305000Y-20255000D03*
X50705000Y-20255000D03*
X51105000Y-20255000D03*
X51505000Y-20255000D03*
X51905000Y-20255000D03*
X52305000Y-20255000D03*
X52705000Y-20255000D03*
X53105000Y-20255000D03*
X53505000Y-20255000D03*
X53905000Y-20255000D03*
X54305000Y-20255000D03*
D19*
X55255000Y-19305000D03*
X55255000Y-18905000D03*
X55255000Y-18505000D03*
X55255000Y-18105000D03*
X55255000Y-17705000D03*
X55255000Y-17305000D03*
X55255000Y-16905000D03*
X55255000Y-16505000D03*
X55255000Y-16105000D03*
X55255000Y-15705000D03*
X55255000Y-15305000D03*
X55255000Y-14905000D03*
X55255000Y-14505000D03*
X55255000Y-14105000D03*
D20*
X51705000Y-16705000D03*
G04 #@! TD*
D15*
G04 #@! TO.C,C1*
X44330000Y-54920000D03*
X45290000Y-54920000D03*
G04 #@! TD*
G04 #@! TO.C,C3*
X29350000Y-37850000D03*
X30310000Y-37850000D03*
G04 #@! TD*
D13*
G04 #@! TO.C,JP1*
X15655000Y-24360000D03*
D14*
X17105000Y-24360000D03*
G04 #@! TD*
D10*
G04 #@! TO.C,J3*
X21187500Y-22100000D03*
G04 #@! TD*
G04 #@! TO.C,J5*
X39442500Y-22100000D03*
G04 #@! TD*
G04 #@! TO.C,J1*
X43930000Y-48110000D03*
G04 #@! TD*
D13*
G04 #@! TO.C,JP1*
X45655000Y-12360000D03*
D14*
X47105000Y-12360000D03*
G04 #@! TD*
D15*
G04 #@! TO.C,C3*
X44350000Y-13850000D03*
X45310000Y-13850000D03*
G04 #@! TD*
G04 #@! TO.C,C3*
X14350000Y-37850000D03*
X15310000Y-37850000D03*
G04 #@! TD*
D10*
G04 #@! TO.C,J6*
X16310000Y-46100000D03*
G04 #@! TD*
D22*
G04 #@! TO.C,REF\u002A\u002A*
X15000000Y-66650000D03*
G04 #@! TD*
D17*
G04 #@! TO.C,R1*
X47000000Y-29800000D03*
X47000000Y-28780000D03*
G04 #@! TD*
D15*
G04 #@! TO.C,C1*
X14330000Y-18920000D03*
X15290000Y-18920000D03*
G04 #@! TD*
D10*
G04 #@! TO.C,J5*
X24442500Y-46100000D03*
G04 #@! TD*
D17*
G04 #@! TO.C,R1*
X32000000Y-29800000D03*
X32000000Y-28780000D03*
G04 #@! TD*
D11*
G04 #@! TO.C,X1*
X15672000Y-41483000D03*
X15672000Y-39283000D03*
X13922000Y-39283000D03*
X13922000Y-41483000D03*
G04 #@! TD*
D10*
G04 #@! TO.C,J3*
X21187500Y-46100000D03*
G04 #@! TD*
D18*
G04 #@! TO.C,U1*
X24305000Y-13155000D03*
X23905000Y-13155000D03*
X23505000Y-13155000D03*
X23105000Y-13155000D03*
X22705000Y-13155000D03*
X22305000Y-13155000D03*
X21905000Y-13155000D03*
X21505000Y-13155000D03*
X21105000Y-13155000D03*
X20705000Y-13155000D03*
X20305000Y-13155000D03*
X19905000Y-13155000D03*
X19505000Y-13155000D03*
X19105000Y-13155000D03*
D19*
X18155000Y-14105000D03*
X18155000Y-14505000D03*
X18155000Y-14905000D03*
X18155000Y-15305000D03*
X18155000Y-15705000D03*
X18155000Y-16105000D03*
X18155000Y-16505000D03*
X18155000Y-16905000D03*
X18155000Y-17305000D03*
X18155000Y-17705000D03*
X18155000Y-18105000D03*
X18155000Y-18505000D03*
X18155000Y-18905000D03*
X18155000Y-19305000D03*
D18*
X19105000Y-20255000D03*
X19505000Y-20255000D03*
X19905000Y-20255000D03*
X20305000Y-20255000D03*
X20705000Y-20255000D03*
X21105000Y-20255000D03*
X21505000Y-20255000D03*
X21905000Y-20255000D03*
X22305000Y-20255000D03*
X22705000Y-20255000D03*
X23105000Y-20255000D03*
X23505000Y-20255000D03*
X23905000Y-20255000D03*
X24305000Y-20255000D03*
D19*
X25255000Y-19305000D03*
X25255000Y-18905000D03*
X25255000Y-18505000D03*
X25255000Y-18105000D03*
X25255000Y-17705000D03*
X25255000Y-17305000D03*
X25255000Y-16905000D03*
X25255000Y-16505000D03*
X25255000Y-16105000D03*
X25255000Y-15705000D03*
X25255000Y-15305000D03*
X25255000Y-14905000D03*
X25255000Y-14505000D03*
X25255000Y-14105000D03*
D20*
X21705000Y-16705000D03*
G04 #@! TD*
D13*
G04 #@! TO.C,JP1*
X15655000Y-12360000D03*
D14*
X17105000Y-12360000D03*
G04 #@! TD*
D10*
G04 #@! TO.C,J4*
X37815000Y-46100000D03*
G04 #@! TD*
G04 #@! TO.C,J3*
X51187500Y-34100000D03*
G04 #@! TD*
D13*
G04 #@! TO.C,JP1*
X30655000Y-48360000D03*
D14*
X32105000Y-48360000D03*
G04 #@! TD*
D10*
G04 #@! TO.C,J10*
X26070000Y-46100000D03*
G04 #@! TD*
D15*
G04 #@! TO.C,C1*
X29330000Y-30920000D03*
X30290000Y-30920000D03*
G04 #@! TD*
D16*
G04 #@! TO.C,R12*
X18440000Y-35970000D03*
X19460000Y-35970000D03*
G04 #@! TD*
D10*
G04 #@! TO.C,J9*
X47932500Y-46100000D03*
G04 #@! TD*
G04 #@! TO.C,J6*
X46310000Y-22100000D03*
G04 #@! TD*
G04 #@! TO.C,J7*
X44677500Y-34100000D03*
G04 #@! TD*
D12*
G04 #@! TO.C,J8*
X56700000Y-55700000D03*
X56700000Y-54430000D03*
X56700000Y-53160000D03*
X56700000Y-51890000D03*
X56700000Y-50620000D03*
X56700000Y-49350000D03*
G04 #@! TD*
D10*
G04 #@! TO.C,J3*
X51187500Y-22100000D03*
G04 #@! TD*
D11*
G04 #@! TO.C,X1*
X45672000Y-53483000D03*
X45672000Y-51283000D03*
X43922000Y-51283000D03*
X43922000Y-53483000D03*
G04 #@! TD*
D10*
G04 #@! TO.C,J7*
X44677500Y-22100000D03*
G04 #@! TD*
G04 #@! TO.C,J10*
X41070000Y-22100000D03*
G04 #@! TD*
G04 #@! TO.C,J4*
X22815000Y-46100000D03*
G04 #@! TD*
G04 #@! TO.C,J4*
X52815000Y-58100000D03*
G04 #@! TD*
G04 #@! TO.C,J2*
X49560000Y-58100000D03*
G04 #@! TD*
D16*
G04 #@! TO.C,R12*
X18440000Y-11970000D03*
X19460000Y-11970000D03*
G04 #@! TD*
D10*
G04 #@! TO.C,J6*
X46310000Y-58100000D03*
G04 #@! TD*
D22*
G04 #@! TO.C,REF\u002A\u002A*
X55000000Y-3350000D03*
G04 #@! TD*
D11*
G04 #@! TO.C,X1*
X15672000Y-53483000D03*
X15672000Y-51283000D03*
X13922000Y-51283000D03*
X13922000Y-53483000D03*
G04 #@! TD*
D10*
G04 #@! TO.C,J3*
X21187500Y-34100000D03*
G04 #@! TD*
G04 #@! TO.C,J9*
X17932500Y-46100000D03*
G04 #@! TD*
D18*
G04 #@! TO.C,U1*
X39305000Y-37155000D03*
X38905000Y-37155000D03*
X38505000Y-37155000D03*
X38105000Y-37155000D03*
X37705000Y-37155000D03*
X37305000Y-37155000D03*
X36905000Y-37155000D03*
X36505000Y-37155000D03*
X36105000Y-37155000D03*
X35705000Y-37155000D03*
X35305000Y-37155000D03*
X34905000Y-37155000D03*
X34505000Y-37155000D03*
X34105000Y-37155000D03*
D19*
X33155000Y-38105000D03*
X33155000Y-38505000D03*
X33155000Y-38905000D03*
X33155000Y-39305000D03*
X33155000Y-39705000D03*
X33155000Y-40105000D03*
X33155000Y-40505000D03*
X33155000Y-40905000D03*
X33155000Y-41305000D03*
X33155000Y-41705000D03*
X33155000Y-42105000D03*
X33155000Y-42505000D03*
X33155000Y-42905000D03*
X33155000Y-43305000D03*
D18*
X34105000Y-44255000D03*
X34505000Y-44255000D03*
X34905000Y-44255000D03*
X35305000Y-44255000D03*
X35705000Y-44255000D03*
X36105000Y-44255000D03*
X36505000Y-44255000D03*
X36905000Y-44255000D03*
X37305000Y-44255000D03*
X37705000Y-44255000D03*
X38105000Y-44255000D03*
X38505000Y-44255000D03*
X38905000Y-44255000D03*
X39305000Y-44255000D03*
D19*
X40255000Y-43305000D03*
X40255000Y-42905000D03*
X40255000Y-42505000D03*
X40255000Y-42105000D03*
X40255000Y-41705000D03*
X40255000Y-41305000D03*
X40255000Y-40905000D03*
X40255000Y-40505000D03*
X40255000Y-40105000D03*
X40255000Y-39705000D03*
X40255000Y-39305000D03*
X40255000Y-38905000D03*
X40255000Y-38505000D03*
X40255000Y-38105000D03*
D20*
X36705000Y-40705000D03*
G04 #@! TD*
D13*
G04 #@! TO.C,JP1*
X30655000Y-12360000D03*
D14*
X32105000Y-12360000D03*
G04 #@! TD*
D11*
G04 #@! TO.C,X1*
X30672000Y-53483000D03*
X30672000Y-51283000D03*
X28922000Y-51283000D03*
X28922000Y-53483000D03*
G04 #@! TD*
D10*
G04 #@! TO.C,J6*
X16310000Y-22100000D03*
G04 #@! TD*
D16*
G04 #@! TO.C,R12*
X48440000Y-47970000D03*
X49460000Y-47970000D03*
G04 #@! TD*
D10*
G04 #@! TO.C,J1*
X28930000Y-48110000D03*
G04 #@! TD*
D18*
G04 #@! TO.C,U1*
X24305000Y-37155000D03*
X23905000Y-37155000D03*
X23505000Y-37155000D03*
X23105000Y-37155000D03*
X22705000Y-37155000D03*
X22305000Y-37155000D03*
X21905000Y-37155000D03*
X21505000Y-37155000D03*
X21105000Y-37155000D03*
X20705000Y-37155000D03*
X20305000Y-37155000D03*
X19905000Y-37155000D03*
X19505000Y-37155000D03*
X19105000Y-37155000D03*
D19*
X18155000Y-38105000D03*
X18155000Y-38505000D03*
X18155000Y-38905000D03*
X18155000Y-39305000D03*
X18155000Y-39705000D03*
X18155000Y-40105000D03*
X18155000Y-40505000D03*
X18155000Y-40905000D03*
X18155000Y-41305000D03*
X18155000Y-41705000D03*
X18155000Y-42105000D03*
X18155000Y-42505000D03*
X18155000Y-42905000D03*
X18155000Y-43305000D03*
D18*
X19105000Y-44255000D03*
X19505000Y-44255000D03*
X19905000Y-44255000D03*
X20305000Y-44255000D03*
X20705000Y-44255000D03*
X21105000Y-44255000D03*
X21505000Y-44255000D03*
X21905000Y-44255000D03*
X22305000Y-44255000D03*
X22705000Y-44255000D03*
X23105000Y-44255000D03*
X23505000Y-44255000D03*
X23905000Y-44255000D03*
X24305000Y-44255000D03*
D19*
X25255000Y-43305000D03*
X25255000Y-42905000D03*
X25255000Y-42505000D03*
X25255000Y-42105000D03*
X25255000Y-41705000D03*
X25255000Y-41305000D03*
X25255000Y-40905000D03*
X25255000Y-40505000D03*
X25255000Y-40105000D03*
X25255000Y-39705000D03*
X25255000Y-39305000D03*
X25255000Y-38905000D03*
X25255000Y-38505000D03*
X25255000Y-38105000D03*
D20*
X21705000Y-40705000D03*
G04 #@! TD*
D15*
G04 #@! TO.C,C1*
X14330000Y-30920000D03*
X15290000Y-30920000D03*
G04 #@! TD*
D10*
G04 #@! TO.C,J1*
X28930000Y-24110000D03*
G04 #@! TD*
G04 #@! TO.C,J6*
X46310000Y-34100000D03*
G04 #@! TD*
D12*
G04 #@! TO.C,J8*
X41700000Y-31700000D03*
X41700000Y-30430000D03*
X41700000Y-29160000D03*
X41700000Y-27890000D03*
X41700000Y-26620000D03*
X41700000Y-25350000D03*
G04 #@! TD*
D16*
G04 #@! TO.C,R12*
X33440000Y-35970000D03*
X34460000Y-35970000D03*
G04 #@! TD*
D10*
G04 #@! TO.C,J4*
X52815000Y-22100000D03*
G04 #@! TD*
G04 #@! TO.C,J5*
X54442500Y-46100000D03*
G04 #@! TD*
G04 #@! TO.C,J10*
X41070000Y-34100000D03*
G04 #@! TD*
D15*
G04 #@! TO.C,C3*
X14350000Y-13850000D03*
X15310000Y-13850000D03*
G04 #@! TD*
D21*
G04 #@! TO.C,REF\u002A\u002A*
X2500000Y-67500000D03*
G04 #@! TD*
D15*
G04 #@! TO.C,C1*
X44330000Y-18920000D03*
X45290000Y-18920000D03*
G04 #@! TD*
D18*
G04 #@! TO.C,U1*
X24305000Y-25155000D03*
X23905000Y-25155000D03*
X23505000Y-25155000D03*
X23105000Y-25155000D03*
X22705000Y-25155000D03*
X22305000Y-25155000D03*
X21905000Y-25155000D03*
X21505000Y-25155000D03*
X21105000Y-25155000D03*
X20705000Y-25155000D03*
X20305000Y-25155000D03*
X19905000Y-25155000D03*
X19505000Y-25155000D03*
X19105000Y-25155000D03*
D19*
X18155000Y-26105000D03*
X18155000Y-26505000D03*
X18155000Y-26905000D03*
X18155000Y-27305000D03*
X18155000Y-27705000D03*
X18155000Y-28105000D03*
X18155000Y-28505000D03*
X18155000Y-28905000D03*
X18155000Y-29305000D03*
X18155000Y-29705000D03*
X18155000Y-30105000D03*
X18155000Y-30505000D03*
X18155000Y-30905000D03*
X18155000Y-31305000D03*
D18*
X19105000Y-32255000D03*
X19505000Y-32255000D03*
X19905000Y-32255000D03*
X20305000Y-32255000D03*
X20705000Y-32255000D03*
X21105000Y-32255000D03*
X21505000Y-32255000D03*
X21905000Y-32255000D03*
X22305000Y-32255000D03*
X22705000Y-32255000D03*
X23105000Y-32255000D03*
X23505000Y-32255000D03*
X23905000Y-32255000D03*
X24305000Y-32255000D03*
D19*
X25255000Y-31305000D03*
X25255000Y-30905000D03*
X25255000Y-30505000D03*
X25255000Y-30105000D03*
X25255000Y-29705000D03*
X25255000Y-29305000D03*
X25255000Y-28905000D03*
X25255000Y-28505000D03*
X25255000Y-28105000D03*
X25255000Y-27705000D03*
X25255000Y-27305000D03*
X25255000Y-26905000D03*
X25255000Y-26505000D03*
X25255000Y-26105000D03*
D20*
X21705000Y-28705000D03*
G04 #@! TD*
D11*
G04 #@! TO.C,X1*
X30672000Y-17483000D03*
X30672000Y-15283000D03*
X28922000Y-15283000D03*
X28922000Y-17483000D03*
G04 #@! TD*
M02*
