%TF.GenerationSoftware,KiCad,Pcbnew,7.0.5-7.0.5~ubuntu22.04.1*%
%TF.CreationDate,2023-07-07T08:35:14+08:00*%
%TF.ProjectId,usb_programmer,7573625f-7072-46f6-9772-616d6d65722e,rev?*%
%TF.SameCoordinates,PX37a6d38PY343e060*%
%TF.FileFunction,Legend,Top*%
%TF.FilePolarity,Positive*%
%FSLAX46Y46*%
G04 Gerber Fmt 4.6, Leading zero omitted, Abs format (unit mm)*
G04 Created by KiCad (PCBNEW 7.0.5-7.0.5~ubuntu22.04.1) date 2023-07-07 08:35:14*
%MOMM*%
%LPD*%
G01*
G04 APERTURE LIST*
G04 Aperture macros list*
%AMRoundRect*
0 Rectangle with rounded corners*
0 $1 Rounding radius*
0 $2 $3 $4 $5 $6 $7 $8 $9 X,Y pos of 4 corners*
0 Add a 4 corners polygon primitive as box body*
4,1,4,$2,$3,$4,$5,$6,$7,$8,$9,$2,$3,0*
0 Add four circle primitives for the rounded corners*
1,1,$1+$1,$2,$3*
1,1,$1+$1,$4,$5*
1,1,$1+$1,$6,$7*
1,1,$1+$1,$8,$9*
0 Add four rect primitives between the rounded corners*
20,1,$1+$1,$2,$3,$4,$5,0*
20,1,$1+$1,$4,$5,$6,$7,0*
20,1,$1+$1,$6,$7,$8,$9,0*
20,1,$1+$1,$8,$9,$2,$3,0*%
G04 Aperture macros list end*
%ADD10C,0.300000*%
%ADD11C,0.150000*%
%ADD12C,0.120000*%
%ADD13C,0.254000*%
%ADD14C,0.152000*%
%ADD15O,1.102000X1.102000*%
%ADD16RoundRect,0.051000X0.571500X-0.304800X0.571500X0.304800X-0.571500X0.304800X-0.571500X-0.304800X0*%
%ADD17RoundRect,0.051000X0.571500X-0.152400X0.571500X0.152400X-0.571500X0.152400X-0.571500X-0.152400X0*%
%ADD18O,1.905400X1.092600*%
%ADD19O,2.311800X1.092600*%
%ADD20RoundRect,0.051000X-0.500000X-0.550000X0.500000X-0.550000X0.500000X0.550000X-0.500000X0.550000X0*%
%ADD21RoundRect,0.051000X-1.000000X-0.350000X1.000000X-0.350000X1.000000X0.350000X-1.000000X0.350000X0*%
%ADD22RoundRect,0.051000X0.522500X-0.266000X0.522500X0.266000X-0.522500X0.266000X-0.522500X-0.266000X0*%
%ADD23RoundRect,0.186000X0.185000X-0.135000X0.185000X0.135000X-0.185000X0.135000X-0.185000X-0.135000X0*%
%ADD24RoundRect,0.186000X-0.185000X0.135000X-0.185000X-0.135000X0.185000X-0.135000X0.185000X0.135000X0*%
G04 APERTURE END LIST*
D10*
X14310971Y-10834285D02*
X14368114Y-10662857D01*
X14368114Y-10662857D02*
X14425257Y-10605714D01*
X14425257Y-10605714D02*
X14539542Y-10548571D01*
X14539542Y-10548571D02*
X14710971Y-10548571D01*
X14710971Y-10548571D02*
X14825257Y-10605714D01*
X14825257Y-10605714D02*
X14882400Y-10662857D01*
X14882400Y-10662857D02*
X14939542Y-10777142D01*
X14939542Y-10777142D02*
X14939542Y-11234285D01*
X14939542Y-11234285D02*
X13739542Y-11234285D01*
X13739542Y-11234285D02*
X13739542Y-10834285D01*
X13739542Y-10834285D02*
X13796685Y-10720000D01*
X13796685Y-10720000D02*
X13853828Y-10662857D01*
X13853828Y-10662857D02*
X13968114Y-10605714D01*
X13968114Y-10605714D02*
X14082400Y-10605714D01*
X14082400Y-10605714D02*
X14196685Y-10662857D01*
X14196685Y-10662857D02*
X14253828Y-10720000D01*
X14253828Y-10720000D02*
X14310971Y-10834285D01*
X14310971Y-10834285D02*
X14310971Y-11234285D01*
X13739542Y-9805714D02*
X13739542Y-9577142D01*
X13739542Y-9577142D02*
X13796685Y-9462857D01*
X13796685Y-9462857D02*
X13910971Y-9348571D01*
X13910971Y-9348571D02*
X14139542Y-9291428D01*
X14139542Y-9291428D02*
X14539542Y-9291428D01*
X14539542Y-9291428D02*
X14768114Y-9348571D01*
X14768114Y-9348571D02*
X14882400Y-9462857D01*
X14882400Y-9462857D02*
X14939542Y-9577142D01*
X14939542Y-9577142D02*
X14939542Y-9805714D01*
X14939542Y-9805714D02*
X14882400Y-9920000D01*
X14882400Y-9920000D02*
X14768114Y-10034285D01*
X14768114Y-10034285D02*
X14539542Y-10091428D01*
X14539542Y-10091428D02*
X14139542Y-10091428D01*
X14139542Y-10091428D02*
X13910971Y-10034285D01*
X13910971Y-10034285D02*
X13796685Y-9920000D01*
X13796685Y-9920000D02*
X13739542Y-9805714D01*
X13739542Y-8548571D02*
X13739542Y-8319999D01*
X13739542Y-8319999D02*
X13796685Y-8205714D01*
X13796685Y-8205714D02*
X13910971Y-8091428D01*
X13910971Y-8091428D02*
X14139542Y-8034285D01*
X14139542Y-8034285D02*
X14539542Y-8034285D01*
X14539542Y-8034285D02*
X14768114Y-8091428D01*
X14768114Y-8091428D02*
X14882400Y-8205714D01*
X14882400Y-8205714D02*
X14939542Y-8319999D01*
X14939542Y-8319999D02*
X14939542Y-8548571D01*
X14939542Y-8548571D02*
X14882400Y-8662857D01*
X14882400Y-8662857D02*
X14768114Y-8777142D01*
X14768114Y-8777142D02*
X14539542Y-8834285D01*
X14539542Y-8834285D02*
X14139542Y-8834285D01*
X14139542Y-8834285D02*
X13910971Y-8777142D01*
X13910971Y-8777142D02*
X13796685Y-8662857D01*
X13796685Y-8662857D02*
X13739542Y-8548571D01*
X13739542Y-7691428D02*
X13739542Y-7005714D01*
X14939542Y-7348571D02*
X13739542Y-7348571D01*
X14939542Y-3282142D02*
X14368114Y-3682142D01*
X14939542Y-3967856D02*
X13739542Y-3967856D01*
X13739542Y-3967856D02*
X13739542Y-3510713D01*
X13739542Y-3510713D02*
X13796685Y-3396428D01*
X13796685Y-3396428D02*
X13853828Y-3339285D01*
X13853828Y-3339285D02*
X13968114Y-3282142D01*
X13968114Y-3282142D02*
X14139542Y-3282142D01*
X14139542Y-3282142D02*
X14253828Y-3339285D01*
X14253828Y-3339285D02*
X14310971Y-3396428D01*
X14310971Y-3396428D02*
X14368114Y-3510713D01*
X14368114Y-3510713D02*
X14368114Y-3967856D01*
X14882400Y-2824999D02*
X14939542Y-2653571D01*
X14939542Y-2653571D02*
X14939542Y-2367856D01*
X14939542Y-2367856D02*
X14882400Y-2253571D01*
X14882400Y-2253571D02*
X14825257Y-2196428D01*
X14825257Y-2196428D02*
X14710971Y-2139285D01*
X14710971Y-2139285D02*
X14596685Y-2139285D01*
X14596685Y-2139285D02*
X14482400Y-2196428D01*
X14482400Y-2196428D02*
X14425257Y-2253571D01*
X14425257Y-2253571D02*
X14368114Y-2367856D01*
X14368114Y-2367856D02*
X14310971Y-2596428D01*
X14310971Y-2596428D02*
X14253828Y-2710713D01*
X14253828Y-2710713D02*
X14196685Y-2767856D01*
X14196685Y-2767856D02*
X14082400Y-2824999D01*
X14082400Y-2824999D02*
X13968114Y-2824999D01*
X13968114Y-2824999D02*
X13853828Y-2767856D01*
X13853828Y-2767856D02*
X13796685Y-2710713D01*
X13796685Y-2710713D02*
X13739542Y-2596428D01*
X13739542Y-2596428D02*
X13739542Y-2310713D01*
X13739542Y-2310713D02*
X13796685Y-2139285D01*
X13739542Y-1796428D02*
X13739542Y-1110714D01*
X14939542Y-1453571D02*
X13739542Y-1453571D01*
D11*
X3200000Y-6916033D02*
X3200000Y-6216033D01*
X3200000Y-6216033D02*
X3366667Y-6216033D01*
X3366667Y-6216033D02*
X3466667Y-6249366D01*
X3466667Y-6249366D02*
X3533334Y-6316033D01*
X3533334Y-6316033D02*
X3566667Y-6382700D01*
X3566667Y-6382700D02*
X3600000Y-6516033D01*
X3600000Y-6516033D02*
X3600000Y-6616033D01*
X3600000Y-6616033D02*
X3566667Y-6749366D01*
X3566667Y-6749366D02*
X3533334Y-6816033D01*
X3533334Y-6816033D02*
X3466667Y-6882700D01*
X3466667Y-6882700D02*
X3366667Y-6916033D01*
X3366667Y-6916033D02*
X3200000Y-6916033D01*
X3900000Y-6649366D02*
X4433334Y-6649366D01*
X3133334Y-7626033D02*
X3566667Y-7626033D01*
X3566667Y-7626033D02*
X3333334Y-7892700D01*
X3333334Y-7892700D02*
X3433334Y-7892700D01*
X3433334Y-7892700D02*
X3500000Y-7926033D01*
X3500000Y-7926033D02*
X3533334Y-7959366D01*
X3533334Y-7959366D02*
X3566667Y-8026033D01*
X3566667Y-8026033D02*
X3566667Y-8192700D01*
X3566667Y-8192700D02*
X3533334Y-8259366D01*
X3533334Y-8259366D02*
X3500000Y-8292700D01*
X3500000Y-8292700D02*
X3433334Y-8326033D01*
X3433334Y-8326033D02*
X3233334Y-8326033D01*
X3233334Y-8326033D02*
X3166667Y-8292700D01*
X3166667Y-8292700D02*
X3133334Y-8259366D01*
X3766667Y-7626033D02*
X4000001Y-8326033D01*
X4000001Y-8326033D02*
X4233334Y-7626033D01*
X4400001Y-7626033D02*
X4833334Y-7626033D01*
X4833334Y-7626033D02*
X4600001Y-7892700D01*
X4600001Y-7892700D02*
X4700001Y-7892700D01*
X4700001Y-7892700D02*
X4766667Y-7926033D01*
X4766667Y-7926033D02*
X4800001Y-7959366D01*
X4800001Y-7959366D02*
X4833334Y-8026033D01*
X4833334Y-8026033D02*
X4833334Y-8192700D01*
X4833334Y-8192700D02*
X4800001Y-8259366D01*
X4800001Y-8259366D02*
X4766667Y-8292700D01*
X4766667Y-8292700D02*
X4700001Y-8326033D01*
X4700001Y-8326033D02*
X4500001Y-8326033D01*
X4500001Y-8326033D02*
X4433334Y-8292700D01*
X4433334Y-8292700D02*
X4400001Y-8259366D01*
X3433334Y-4079366D02*
X3533334Y-4112700D01*
X3533334Y-4112700D02*
X3566667Y-4146033D01*
X3566667Y-4146033D02*
X3600000Y-4212700D01*
X3600000Y-4212700D02*
X3600000Y-4312700D01*
X3600000Y-4312700D02*
X3566667Y-4379366D01*
X3566667Y-4379366D02*
X3533334Y-4412700D01*
X3533334Y-4412700D02*
X3466667Y-4446033D01*
X3466667Y-4446033D02*
X3200000Y-4446033D01*
X3200000Y-4446033D02*
X3200000Y-3746033D01*
X3200000Y-3746033D02*
X3433334Y-3746033D01*
X3433334Y-3746033D02*
X3500000Y-3779366D01*
X3500000Y-3779366D02*
X3533334Y-3812700D01*
X3533334Y-3812700D02*
X3566667Y-3879366D01*
X3566667Y-3879366D02*
X3566667Y-3946033D01*
X3566667Y-3946033D02*
X3533334Y-4012700D01*
X3533334Y-4012700D02*
X3500000Y-4046033D01*
X3500000Y-4046033D02*
X3433334Y-4079366D01*
X3433334Y-4079366D02*
X3200000Y-4079366D01*
X4033334Y-3746033D02*
X4166667Y-3746033D01*
X4166667Y-3746033D02*
X4233334Y-3779366D01*
X4233334Y-3779366D02*
X4300000Y-3846033D01*
X4300000Y-3846033D02*
X4333334Y-3979366D01*
X4333334Y-3979366D02*
X4333334Y-4212700D01*
X4333334Y-4212700D02*
X4300000Y-4346033D01*
X4300000Y-4346033D02*
X4233334Y-4412700D01*
X4233334Y-4412700D02*
X4166667Y-4446033D01*
X4166667Y-4446033D02*
X4033334Y-4446033D01*
X4033334Y-4446033D02*
X3966667Y-4412700D01*
X3966667Y-4412700D02*
X3900000Y-4346033D01*
X3900000Y-4346033D02*
X3866667Y-4212700D01*
X3866667Y-4212700D02*
X3866667Y-3979366D01*
X3866667Y-3979366D02*
X3900000Y-3846033D01*
X3900000Y-3846033D02*
X3966667Y-3779366D01*
X3966667Y-3779366D02*
X4033334Y-3746033D01*
X4766667Y-3746033D02*
X4900000Y-3746033D01*
X4900000Y-3746033D02*
X4966667Y-3779366D01*
X4966667Y-3779366D02*
X5033333Y-3846033D01*
X5033333Y-3846033D02*
X5066667Y-3979366D01*
X5066667Y-3979366D02*
X5066667Y-4212700D01*
X5066667Y-4212700D02*
X5033333Y-4346033D01*
X5033333Y-4346033D02*
X4966667Y-4412700D01*
X4966667Y-4412700D02*
X4900000Y-4446033D01*
X4900000Y-4446033D02*
X4766667Y-4446033D01*
X4766667Y-4446033D02*
X4700000Y-4412700D01*
X4700000Y-4412700D02*
X4633333Y-4346033D01*
X4633333Y-4346033D02*
X4600000Y-4212700D01*
X4600000Y-4212700D02*
X4600000Y-3979366D01*
X4600000Y-3979366D02*
X4633333Y-3846033D01*
X4633333Y-3846033D02*
X4700000Y-3779366D01*
X4700000Y-3779366D02*
X4766667Y-3746033D01*
X5266666Y-3746033D02*
X5666666Y-3746033D01*
X5466666Y-4446033D02*
X5466666Y-3746033D01*
X3200000Y-5616033D02*
X3200000Y-4916033D01*
X3200000Y-4916033D02*
X3366667Y-4916033D01*
X3366667Y-4916033D02*
X3466667Y-4949366D01*
X3466667Y-4949366D02*
X3533334Y-5016033D01*
X3533334Y-5016033D02*
X3566667Y-5082700D01*
X3566667Y-5082700D02*
X3600000Y-5216033D01*
X3600000Y-5216033D02*
X3600000Y-5316033D01*
X3600000Y-5316033D02*
X3566667Y-5449366D01*
X3566667Y-5449366D02*
X3533334Y-5516033D01*
X3533334Y-5516033D02*
X3466667Y-5582700D01*
X3466667Y-5582700D02*
X3366667Y-5616033D01*
X3366667Y-5616033D02*
X3200000Y-5616033D01*
X3900000Y-5349366D02*
X4433334Y-5349366D01*
X4166667Y-5616033D02*
X4166667Y-5082700D01*
X3566667Y-8909366D02*
X3500000Y-8876033D01*
X3500000Y-8876033D02*
X3400000Y-8876033D01*
X3400000Y-8876033D02*
X3300000Y-8909366D01*
X3300000Y-8909366D02*
X3233334Y-8976033D01*
X3233334Y-8976033D02*
X3200000Y-9042700D01*
X3200000Y-9042700D02*
X3166667Y-9176033D01*
X3166667Y-9176033D02*
X3166667Y-9276033D01*
X3166667Y-9276033D02*
X3200000Y-9409366D01*
X3200000Y-9409366D02*
X3233334Y-9476033D01*
X3233334Y-9476033D02*
X3300000Y-9542700D01*
X3300000Y-9542700D02*
X3400000Y-9576033D01*
X3400000Y-9576033D02*
X3466667Y-9576033D01*
X3466667Y-9576033D02*
X3566667Y-9542700D01*
X3566667Y-9542700D02*
X3600000Y-9509366D01*
X3600000Y-9509366D02*
X3600000Y-9276033D01*
X3600000Y-9276033D02*
X3466667Y-9276033D01*
X3900000Y-9576033D02*
X3900000Y-8876033D01*
X3900000Y-8876033D02*
X4300000Y-9576033D01*
X4300000Y-9576033D02*
X4300000Y-8876033D01*
X4633333Y-9576033D02*
X4633333Y-8876033D01*
X4633333Y-8876033D02*
X4800000Y-8876033D01*
X4800000Y-8876033D02*
X4900000Y-8909366D01*
X4900000Y-8909366D02*
X4966667Y-8976033D01*
X4966667Y-8976033D02*
X5000000Y-9042700D01*
X5000000Y-9042700D02*
X5033333Y-9176033D01*
X5033333Y-9176033D02*
X5033333Y-9276033D01*
X5033333Y-9276033D02*
X5000000Y-9409366D01*
X5000000Y-9409366D02*
X4966667Y-9476033D01*
X4966667Y-9476033D02*
X4900000Y-9542700D01*
X4900000Y-9542700D02*
X4800000Y-9576033D01*
X4800000Y-9576033D02*
X4633333Y-9576033D01*
X3600000Y-3146033D02*
X3366667Y-2812700D01*
X3200000Y-3146033D02*
X3200000Y-2446033D01*
X3200000Y-2446033D02*
X3466667Y-2446033D01*
X3466667Y-2446033D02*
X3533334Y-2479366D01*
X3533334Y-2479366D02*
X3566667Y-2512700D01*
X3566667Y-2512700D02*
X3600000Y-2579366D01*
X3600000Y-2579366D02*
X3600000Y-2679366D01*
X3600000Y-2679366D02*
X3566667Y-2746033D01*
X3566667Y-2746033D02*
X3533334Y-2779366D01*
X3533334Y-2779366D02*
X3466667Y-2812700D01*
X3466667Y-2812700D02*
X3200000Y-2812700D01*
X3866667Y-3112700D02*
X3966667Y-3146033D01*
X3966667Y-3146033D02*
X4133334Y-3146033D01*
X4133334Y-3146033D02*
X4200000Y-3112700D01*
X4200000Y-3112700D02*
X4233334Y-3079366D01*
X4233334Y-3079366D02*
X4266667Y-3012700D01*
X4266667Y-3012700D02*
X4266667Y-2946033D01*
X4266667Y-2946033D02*
X4233334Y-2879366D01*
X4233334Y-2879366D02*
X4200000Y-2846033D01*
X4200000Y-2846033D02*
X4133334Y-2812700D01*
X4133334Y-2812700D02*
X4000000Y-2779366D01*
X4000000Y-2779366D02*
X3933334Y-2746033D01*
X3933334Y-2746033D02*
X3900000Y-2712700D01*
X3900000Y-2712700D02*
X3866667Y-2646033D01*
X3866667Y-2646033D02*
X3866667Y-2579366D01*
X3866667Y-2579366D02*
X3900000Y-2512700D01*
X3900000Y-2512700D02*
X3933334Y-2479366D01*
X3933334Y-2479366D02*
X4000000Y-2446033D01*
X4000000Y-2446033D02*
X4166667Y-2446033D01*
X4166667Y-2446033D02*
X4266667Y-2479366D01*
X4466667Y-2446033D02*
X4866667Y-2446033D01*
X4666667Y-3146033D02*
X4666667Y-2446033D01*
D12*
%TO.C,J1*%
X25703392Y-10597400D02*
X27127009Y-10597400D01*
X29906593Y-10597400D02*
X30750200Y-10597400D01*
X30750200Y-10597400D02*
X30750200Y-1402600D01*
X27127009Y-1402600D02*
X25703392Y-1402600D01*
X30750200Y-1402600D02*
X29906593Y-1402600D01*
D13*
%TO.C,SW1*%
X8345000Y-10027500D02*
X8345000Y-9989500D01*
X9214000Y-8608500D02*
X8871000Y-8608500D01*
X9429000Y-9500500D02*
X9429000Y-10516500D01*
X9429000Y-10516500D02*
X11461000Y-10516500D01*
X11461000Y-9500500D02*
X9429000Y-9500500D01*
X11461000Y-10516500D02*
X11461000Y-9500500D01*
X12019000Y-8608500D02*
X11676000Y-8608500D01*
X12019000Y-11408500D02*
X8871000Y-11408500D01*
X12545000Y-9989500D02*
X12545000Y-10027500D01*
D14*
%TO.C,U1*%
X18183000Y-10411000D02*
X16381000Y-10411000D01*
X16381000Y-8405000D02*
X16381000Y-9315000D01*
X18183000Y-7309000D02*
X16381000Y-7309000D01*
D10*
X18732000Y-10528000D02*
G75*
G03*
X18732000Y-10528000I-150000J0D01*
G01*
D12*
%TO.C,R2*%
X22045000Y-3873641D02*
X22045000Y-3566359D01*
X22805000Y-3873641D02*
X22805000Y-3566359D01*
%TO.C,R3*%
X22805000Y-7896360D02*
X22805000Y-8203642D01*
X22045000Y-7896360D02*
X22045000Y-8203642D01*
D13*
%TO.C,SW3*%
X8335000Y-2754000D02*
X8335000Y-2716000D01*
X9204000Y-1335000D02*
X8861000Y-1335000D01*
X9419000Y-2227000D02*
X9419000Y-3243000D01*
X9419000Y-3243000D02*
X11451000Y-3243000D01*
X11451000Y-2227000D02*
X9419000Y-2227000D01*
X11451000Y-3243000D02*
X11451000Y-2227000D01*
X12009000Y-1335000D02*
X11666000Y-1335000D01*
X12009000Y-4135000D02*
X8861000Y-4135000D01*
X12535000Y-2716000D02*
X12535000Y-2754000D01*
D12*
%TO.C,R1*%
X19537000Y-9097690D02*
X19537000Y-8790408D01*
X20297000Y-9097690D02*
X20297000Y-8790408D01*
%TD*%
%LPC*%
D15*
%TO.C,J2*%
X2144248Y-2828121D03*
X2144248Y-4098121D03*
X2144248Y-5368121D03*
X2144248Y-6638121D03*
X2144248Y-7908121D03*
X2144248Y-9178121D03*
%TD*%
D16*
%TO.C,J1*%
X23941801Y-9200001D03*
X23941801Y-8400000D03*
D17*
X23941801Y-7250000D03*
X23941801Y-6250000D03*
X23941801Y-5750000D03*
X23941801Y-4750000D03*
D16*
X23941801Y-3600000D03*
X23941801Y-2800001D03*
D17*
X23941801Y-4249940D03*
X23941801Y-5249941D03*
X23941801Y-6749940D03*
X23941801Y-7749941D03*
D18*
X24516800Y-10320000D03*
D19*
X28516801Y-10320000D03*
D18*
X24516800Y-1680000D03*
D19*
X28516801Y-1680000D03*
%TD*%
D20*
%TO.C,SW1*%
X8145000Y-9208500D03*
X12745000Y-9208500D03*
X8145000Y-10808500D03*
X12745000Y-10808500D03*
D21*
X10445000Y-8484500D03*
%TD*%
D22*
%TO.C,U1*%
X18430000Y-9810000D03*
X18430000Y-8860000D03*
X18430000Y-7910000D03*
X16134000Y-7910000D03*
X16134000Y-9810000D03*
%TD*%
D23*
%TO.C,R2*%
X22425000Y-4230000D03*
X22425000Y-3210000D03*
%TD*%
D24*
%TO.C,R3*%
X22425000Y-7540001D03*
X22425000Y-8560001D03*
%TD*%
D20*
%TO.C,SW3*%
X8135000Y-1935000D03*
X12735000Y-1935000D03*
X8135000Y-3535000D03*
X12735000Y-3535000D03*
D21*
X10435000Y-1211000D03*
%TD*%
D23*
%TO.C,R1*%
X19917000Y-9454049D03*
X19917000Y-8434049D03*
%TD*%
%LPD*%
M02*
