%TF.GenerationSoftware,KiCad,Pcbnew,7.0.5-7.0.5~ubuntu22.04.1*%
%TF.CreationDate,2023-07-07T08:35:14+08:00*%
%TF.ProjectId,usb_programmer,7573625f-7072-46f6-9772-616d6d65722e,rev?*%
%TF.SameCoordinates,PX37a6d38PY343e060*%
%TF.FileFunction,Other,Comment*%
%FSLAX46Y46*%
G04 Gerber Fmt 4.6, Leading zero omitted, Abs format (unit mm)*
G04 Created by KiCad (PCBNEW 7.0.5-7.0.5~ubuntu22.04.1) date 2023-07-07 08:35:14*
%MOMM*%
%LPD*%
G01*
G04 APERTURE LIST*
%ADD10C,0.150000*%
G04 APERTURE END LIST*
D10*
X10328334Y-13414819D02*
X10947381Y-13414819D01*
X10947381Y-13414819D02*
X10614048Y-13795771D01*
X10614048Y-13795771D02*
X10756905Y-13795771D01*
X10756905Y-13795771D02*
X10852143Y-13843390D01*
X10852143Y-13843390D02*
X10899762Y-13891009D01*
X10899762Y-13891009D02*
X10947381Y-13986247D01*
X10947381Y-13986247D02*
X10947381Y-14224342D01*
X10947381Y-14224342D02*
X10899762Y-14319580D01*
X10899762Y-14319580D02*
X10852143Y-14367200D01*
X10852143Y-14367200D02*
X10756905Y-14414819D01*
X10756905Y-14414819D02*
X10471191Y-14414819D01*
X10471191Y-14414819D02*
X10375953Y-14367200D01*
X10375953Y-14367200D02*
X10328334Y-14319580D01*
X11566429Y-13414819D02*
X11661667Y-13414819D01*
X11661667Y-13414819D02*
X11756905Y-13462438D01*
X11756905Y-13462438D02*
X11804524Y-13510057D01*
X11804524Y-13510057D02*
X11852143Y-13605295D01*
X11852143Y-13605295D02*
X11899762Y-13795771D01*
X11899762Y-13795771D02*
X11899762Y-14033866D01*
X11899762Y-14033866D02*
X11852143Y-14224342D01*
X11852143Y-14224342D02*
X11804524Y-14319580D01*
X11804524Y-14319580D02*
X11756905Y-14367200D01*
X11756905Y-14367200D02*
X11661667Y-14414819D01*
X11661667Y-14414819D02*
X11566429Y-14414819D01*
X11566429Y-14414819D02*
X11471191Y-14367200D01*
X11471191Y-14367200D02*
X11423572Y-14319580D01*
X11423572Y-14319580D02*
X11375953Y-14224342D01*
X11375953Y-14224342D02*
X11328334Y-14033866D01*
X11328334Y-14033866D02*
X11328334Y-13795771D01*
X11328334Y-13795771D02*
X11375953Y-13605295D01*
X11375953Y-13605295D02*
X11423572Y-13510057D01*
X11423572Y-13510057D02*
X11471191Y-13462438D01*
X11471191Y-13462438D02*
X11566429Y-13414819D01*
X12328334Y-14319580D02*
X12375953Y-14367200D01*
X12375953Y-14367200D02*
X12328334Y-14414819D01*
X12328334Y-14414819D02*
X12280715Y-14367200D01*
X12280715Y-14367200D02*
X12328334Y-14319580D01*
X12328334Y-14319580D02*
X12328334Y-14414819D01*
X12995000Y-13414819D02*
X13090238Y-13414819D01*
X13090238Y-13414819D02*
X13185476Y-13462438D01*
X13185476Y-13462438D02*
X13233095Y-13510057D01*
X13233095Y-13510057D02*
X13280714Y-13605295D01*
X13280714Y-13605295D02*
X13328333Y-13795771D01*
X13328333Y-13795771D02*
X13328333Y-14033866D01*
X13328333Y-14033866D02*
X13280714Y-14224342D01*
X13280714Y-14224342D02*
X13233095Y-14319580D01*
X13233095Y-14319580D02*
X13185476Y-14367200D01*
X13185476Y-14367200D02*
X13090238Y-14414819D01*
X13090238Y-14414819D02*
X12995000Y-14414819D01*
X12995000Y-14414819D02*
X12899762Y-14367200D01*
X12899762Y-14367200D02*
X12852143Y-14319580D01*
X12852143Y-14319580D02*
X12804524Y-14224342D01*
X12804524Y-14224342D02*
X12756905Y-14033866D01*
X12756905Y-14033866D02*
X12756905Y-13795771D01*
X12756905Y-13795771D02*
X12804524Y-13605295D01*
X12804524Y-13605295D02*
X12852143Y-13510057D01*
X12852143Y-13510057D02*
X12899762Y-13462438D01*
X12899762Y-13462438D02*
X12995000Y-13414819D01*
X13947381Y-13414819D02*
X14042619Y-13414819D01*
X14042619Y-13414819D02*
X14137857Y-13462438D01*
X14137857Y-13462438D02*
X14185476Y-13510057D01*
X14185476Y-13510057D02*
X14233095Y-13605295D01*
X14233095Y-13605295D02*
X14280714Y-13795771D01*
X14280714Y-13795771D02*
X14280714Y-14033866D01*
X14280714Y-14033866D02*
X14233095Y-14224342D01*
X14233095Y-14224342D02*
X14185476Y-14319580D01*
X14185476Y-14319580D02*
X14137857Y-14367200D01*
X14137857Y-14367200D02*
X14042619Y-14414819D01*
X14042619Y-14414819D02*
X13947381Y-14414819D01*
X13947381Y-14414819D02*
X13852143Y-14367200D01*
X13852143Y-14367200D02*
X13804524Y-14319580D01*
X13804524Y-14319580D02*
X13756905Y-14224342D01*
X13756905Y-14224342D02*
X13709286Y-14033866D01*
X13709286Y-14033866D02*
X13709286Y-13795771D01*
X13709286Y-13795771D02*
X13756905Y-13605295D01*
X13756905Y-13605295D02*
X13804524Y-13510057D01*
X13804524Y-13510057D02*
X13852143Y-13462438D01*
X13852143Y-13462438D02*
X13947381Y-13414819D01*
X14899762Y-13414819D02*
X14995000Y-13414819D01*
X14995000Y-13414819D02*
X15090238Y-13462438D01*
X15090238Y-13462438D02*
X15137857Y-13510057D01*
X15137857Y-13510057D02*
X15185476Y-13605295D01*
X15185476Y-13605295D02*
X15233095Y-13795771D01*
X15233095Y-13795771D02*
X15233095Y-14033866D01*
X15233095Y-14033866D02*
X15185476Y-14224342D01*
X15185476Y-14224342D02*
X15137857Y-14319580D01*
X15137857Y-14319580D02*
X15090238Y-14367200D01*
X15090238Y-14367200D02*
X14995000Y-14414819D01*
X14995000Y-14414819D02*
X14899762Y-14414819D01*
X14899762Y-14414819D02*
X14804524Y-14367200D01*
X14804524Y-14367200D02*
X14756905Y-14319580D01*
X14756905Y-14319580D02*
X14709286Y-14224342D01*
X14709286Y-14224342D02*
X14661667Y-14033866D01*
X14661667Y-14033866D02*
X14661667Y-13795771D01*
X14661667Y-13795771D02*
X14709286Y-13605295D01*
X14709286Y-13605295D02*
X14756905Y-13510057D01*
X14756905Y-13510057D02*
X14804524Y-13462438D01*
X14804524Y-13462438D02*
X14899762Y-13414819D01*
X15852143Y-13414819D02*
X15947381Y-13414819D01*
X15947381Y-13414819D02*
X16042619Y-13462438D01*
X16042619Y-13462438D02*
X16090238Y-13510057D01*
X16090238Y-13510057D02*
X16137857Y-13605295D01*
X16137857Y-13605295D02*
X16185476Y-13795771D01*
X16185476Y-13795771D02*
X16185476Y-14033866D01*
X16185476Y-14033866D02*
X16137857Y-14224342D01*
X16137857Y-14224342D02*
X16090238Y-14319580D01*
X16090238Y-14319580D02*
X16042619Y-14367200D01*
X16042619Y-14367200D02*
X15947381Y-14414819D01*
X15947381Y-14414819D02*
X15852143Y-14414819D01*
X15852143Y-14414819D02*
X15756905Y-14367200D01*
X15756905Y-14367200D02*
X15709286Y-14319580D01*
X15709286Y-14319580D02*
X15661667Y-14224342D01*
X15661667Y-14224342D02*
X15614048Y-14033866D01*
X15614048Y-14033866D02*
X15614048Y-13795771D01*
X15614048Y-13795771D02*
X15661667Y-13605295D01*
X15661667Y-13605295D02*
X15709286Y-13510057D01*
X15709286Y-13510057D02*
X15756905Y-13462438D01*
X15756905Y-13462438D02*
X15852143Y-13414819D01*
X17375953Y-14414819D02*
X17375953Y-13748152D01*
X17375953Y-13843390D02*
X17423572Y-13795771D01*
X17423572Y-13795771D02*
X17518810Y-13748152D01*
X17518810Y-13748152D02*
X17661667Y-13748152D01*
X17661667Y-13748152D02*
X17756905Y-13795771D01*
X17756905Y-13795771D02*
X17804524Y-13891009D01*
X17804524Y-13891009D02*
X17804524Y-14414819D01*
X17804524Y-13891009D02*
X17852143Y-13795771D01*
X17852143Y-13795771D02*
X17947381Y-13748152D01*
X17947381Y-13748152D02*
X18090238Y-13748152D01*
X18090238Y-13748152D02*
X18185477Y-13795771D01*
X18185477Y-13795771D02*
X18233096Y-13891009D01*
X18233096Y-13891009D02*
X18233096Y-14414819D01*
X18709286Y-14414819D02*
X18709286Y-13748152D01*
X18709286Y-13843390D02*
X18756905Y-13795771D01*
X18756905Y-13795771D02*
X18852143Y-13748152D01*
X18852143Y-13748152D02*
X18995000Y-13748152D01*
X18995000Y-13748152D02*
X19090238Y-13795771D01*
X19090238Y-13795771D02*
X19137857Y-13891009D01*
X19137857Y-13891009D02*
X19137857Y-14414819D01*
X19137857Y-13891009D02*
X19185476Y-13795771D01*
X19185476Y-13795771D02*
X19280714Y-13748152D01*
X19280714Y-13748152D02*
X19423571Y-13748152D01*
X19423571Y-13748152D02*
X19518810Y-13795771D01*
X19518810Y-13795771D02*
X19566429Y-13891009D01*
X19566429Y-13891009D02*
X19566429Y-14414819D01*
X30000000Y-12000000D02*
X30000000Y-13586419D01*
X0Y-12000000D02*
X0Y-13586419D01*
X30000000Y-12999999D02*
X0Y-12999999D01*
X30000000Y-12999999D02*
X0Y-12999999D01*
X30000000Y-12999999D02*
X28873496Y-13586420D01*
X30000000Y-12999999D02*
X28873496Y-12413578D01*
X0Y-12999999D02*
X1126504Y-12413578D01*
X0Y-12999999D02*
X1126504Y-13586420D01*
X-1495180Y-10047618D02*
X-1495180Y-10619046D01*
X-1495180Y-10333332D02*
X-2495180Y-10333332D01*
X-2495180Y-10333332D02*
X-2352323Y-10428570D01*
X-2352323Y-10428570D02*
X-2257085Y-10523808D01*
X-2257085Y-10523808D02*
X-2209466Y-10619046D01*
X-2399942Y-9666665D02*
X-2447561Y-9619046D01*
X-2447561Y-9619046D02*
X-2495180Y-9523808D01*
X-2495180Y-9523808D02*
X-2495180Y-9285713D01*
X-2495180Y-9285713D02*
X-2447561Y-9190475D01*
X-2447561Y-9190475D02*
X-2399942Y-9142856D01*
X-2399942Y-9142856D02*
X-2304704Y-9095237D01*
X-2304704Y-9095237D02*
X-2209466Y-9095237D01*
X-2209466Y-9095237D02*
X-2066609Y-9142856D01*
X-2066609Y-9142856D02*
X-1495180Y-9714284D01*
X-1495180Y-9714284D02*
X-1495180Y-9095237D01*
X-1590419Y-8666665D02*
X-1542799Y-8619046D01*
X-1542799Y-8619046D02*
X-1495180Y-8666665D01*
X-1495180Y-8666665D02*
X-1542799Y-8714284D01*
X-1542799Y-8714284D02*
X-1590419Y-8666665D01*
X-1590419Y-8666665D02*
X-1495180Y-8666665D01*
X-2495180Y-7999999D02*
X-2495180Y-7904761D01*
X-2495180Y-7904761D02*
X-2447561Y-7809523D01*
X-2447561Y-7809523D02*
X-2399942Y-7761904D01*
X-2399942Y-7761904D02*
X-2304704Y-7714285D01*
X-2304704Y-7714285D02*
X-2114228Y-7666666D01*
X-2114228Y-7666666D02*
X-1876133Y-7666666D01*
X-1876133Y-7666666D02*
X-1685657Y-7714285D01*
X-1685657Y-7714285D02*
X-1590419Y-7761904D01*
X-1590419Y-7761904D02*
X-1542799Y-7809523D01*
X-1542799Y-7809523D02*
X-1495180Y-7904761D01*
X-1495180Y-7904761D02*
X-1495180Y-7999999D01*
X-1495180Y-7999999D02*
X-1542799Y-8095237D01*
X-1542799Y-8095237D02*
X-1590419Y-8142856D01*
X-1590419Y-8142856D02*
X-1685657Y-8190475D01*
X-1685657Y-8190475D02*
X-1876133Y-8238094D01*
X-1876133Y-8238094D02*
X-2114228Y-8238094D01*
X-2114228Y-8238094D02*
X-2304704Y-8190475D01*
X-2304704Y-8190475D02*
X-2399942Y-8142856D01*
X-2399942Y-8142856D02*
X-2447561Y-8095237D01*
X-2447561Y-8095237D02*
X-2495180Y-7999999D01*
X-2495180Y-7047618D02*
X-2495180Y-6952380D01*
X-2495180Y-6952380D02*
X-2447561Y-6857142D01*
X-2447561Y-6857142D02*
X-2399942Y-6809523D01*
X-2399942Y-6809523D02*
X-2304704Y-6761904D01*
X-2304704Y-6761904D02*
X-2114228Y-6714285D01*
X-2114228Y-6714285D02*
X-1876133Y-6714285D01*
X-1876133Y-6714285D02*
X-1685657Y-6761904D01*
X-1685657Y-6761904D02*
X-1590419Y-6809523D01*
X-1590419Y-6809523D02*
X-1542799Y-6857142D01*
X-1542799Y-6857142D02*
X-1495180Y-6952380D01*
X-1495180Y-6952380D02*
X-1495180Y-7047618D01*
X-1495180Y-7047618D02*
X-1542799Y-7142856D01*
X-1542799Y-7142856D02*
X-1590419Y-7190475D01*
X-1590419Y-7190475D02*
X-1685657Y-7238094D01*
X-1685657Y-7238094D02*
X-1876133Y-7285713D01*
X-1876133Y-7285713D02*
X-2114228Y-7285713D01*
X-2114228Y-7285713D02*
X-2304704Y-7238094D01*
X-2304704Y-7238094D02*
X-2399942Y-7190475D01*
X-2399942Y-7190475D02*
X-2447561Y-7142856D01*
X-2447561Y-7142856D02*
X-2495180Y-7047618D01*
X-2495180Y-6095237D02*
X-2495180Y-5999999D01*
X-2495180Y-5999999D02*
X-2447561Y-5904761D01*
X-2447561Y-5904761D02*
X-2399942Y-5857142D01*
X-2399942Y-5857142D02*
X-2304704Y-5809523D01*
X-2304704Y-5809523D02*
X-2114228Y-5761904D01*
X-2114228Y-5761904D02*
X-1876133Y-5761904D01*
X-1876133Y-5761904D02*
X-1685657Y-5809523D01*
X-1685657Y-5809523D02*
X-1590419Y-5857142D01*
X-1590419Y-5857142D02*
X-1542799Y-5904761D01*
X-1542799Y-5904761D02*
X-1495180Y-5999999D01*
X-1495180Y-5999999D02*
X-1495180Y-6095237D01*
X-1495180Y-6095237D02*
X-1542799Y-6190475D01*
X-1542799Y-6190475D02*
X-1590419Y-6238094D01*
X-1590419Y-6238094D02*
X-1685657Y-6285713D01*
X-1685657Y-6285713D02*
X-1876133Y-6333332D01*
X-1876133Y-6333332D02*
X-2114228Y-6333332D01*
X-2114228Y-6333332D02*
X-2304704Y-6285713D01*
X-2304704Y-6285713D02*
X-2399942Y-6238094D01*
X-2399942Y-6238094D02*
X-2447561Y-6190475D01*
X-2447561Y-6190475D02*
X-2495180Y-6095237D01*
X-2495180Y-5142856D02*
X-2495180Y-5047618D01*
X-2495180Y-5047618D02*
X-2447561Y-4952380D01*
X-2447561Y-4952380D02*
X-2399942Y-4904761D01*
X-2399942Y-4904761D02*
X-2304704Y-4857142D01*
X-2304704Y-4857142D02*
X-2114228Y-4809523D01*
X-2114228Y-4809523D02*
X-1876133Y-4809523D01*
X-1876133Y-4809523D02*
X-1685657Y-4857142D01*
X-1685657Y-4857142D02*
X-1590419Y-4904761D01*
X-1590419Y-4904761D02*
X-1542799Y-4952380D01*
X-1542799Y-4952380D02*
X-1495180Y-5047618D01*
X-1495180Y-5047618D02*
X-1495180Y-5142856D01*
X-1495180Y-5142856D02*
X-1542799Y-5238094D01*
X-1542799Y-5238094D02*
X-1590419Y-5285713D01*
X-1590419Y-5285713D02*
X-1685657Y-5333332D01*
X-1685657Y-5333332D02*
X-1876133Y-5380951D01*
X-1876133Y-5380951D02*
X-2114228Y-5380951D01*
X-2114228Y-5380951D02*
X-2304704Y-5333332D01*
X-2304704Y-5333332D02*
X-2399942Y-5285713D01*
X-2399942Y-5285713D02*
X-2447561Y-5238094D01*
X-2447561Y-5238094D02*
X-2495180Y-5142856D01*
X-1495180Y-3619046D02*
X-2161847Y-3619046D01*
X-2066609Y-3619046D02*
X-2114228Y-3571427D01*
X-2114228Y-3571427D02*
X-2161847Y-3476189D01*
X-2161847Y-3476189D02*
X-2161847Y-3333332D01*
X-2161847Y-3333332D02*
X-2114228Y-3238094D01*
X-2114228Y-3238094D02*
X-2018990Y-3190475D01*
X-2018990Y-3190475D02*
X-1495180Y-3190475D01*
X-2018990Y-3190475D02*
X-2114228Y-3142856D01*
X-2114228Y-3142856D02*
X-2161847Y-3047618D01*
X-2161847Y-3047618D02*
X-2161847Y-2904761D01*
X-2161847Y-2904761D02*
X-2114228Y-2809522D01*
X-2114228Y-2809522D02*
X-2018990Y-2761903D01*
X-2018990Y-2761903D02*
X-1495180Y-2761903D01*
X-1495180Y-2285713D02*
X-2161847Y-2285713D01*
X-2066609Y-2285713D02*
X-2114228Y-2238094D01*
X-2114228Y-2238094D02*
X-2161847Y-2142856D01*
X-2161847Y-2142856D02*
X-2161847Y-1999999D01*
X-2161847Y-1999999D02*
X-2114228Y-1904761D01*
X-2114228Y-1904761D02*
X-2018990Y-1857142D01*
X-2018990Y-1857142D02*
X-1495180Y-1857142D01*
X-2018990Y-1857142D02*
X-2114228Y-1809523D01*
X-2114228Y-1809523D02*
X-2161847Y-1714285D01*
X-2161847Y-1714285D02*
X-2161847Y-1571428D01*
X-2161847Y-1571428D02*
X-2114228Y-1476189D01*
X-2114228Y-1476189D02*
X-2018990Y-1428570D01*
X-2018990Y-1428570D02*
X-1495180Y-1428570D01*
X0Y-12000000D02*
X-1386419Y-12000000D01*
X0Y0D02*
X-1386419Y0D01*
X-799999Y-12000000D02*
X-799999Y0D01*
X-799999Y-12000000D02*
X-799999Y0D01*
X-799999Y-12000000D02*
X-1386420Y-10873496D01*
X-799999Y-12000000D02*
X-213578Y-10873496D01*
X-799999Y0D02*
X-213578Y-1126504D01*
X-799999Y0D02*
X-1386420Y-1126504D01*
M02*
