%TF.GenerationSoftware,KiCad,Pcbnew,7.0.5-7.0.5~ubuntu22.04.1*%
%TF.CreationDate,2023-07-07T08:35:14+08:00*%
%TF.ProjectId,usb_programmer,7573625f-7072-46f6-9772-616d6d65722e,rev?*%
%TF.SameCoordinates,PX37a6d38PY343e060*%
%TF.FileFunction,Copper,L2,Bot*%
%TF.FilePolarity,Positive*%
%FSLAX46Y46*%
G04 Gerber Fmt 4.6, Leading zero omitted, Abs format (unit mm)*
G04 Created by KiCad (PCBNEW 7.0.5-7.0.5~ubuntu22.04.1) date 2023-07-07 08:35:14*
%MOMM*%
%LPD*%
G01*
G04 APERTURE LIST*
%TA.AperFunction,ComponentPad*%
%ADD10O,1.000000X1.000000*%
%TD*%
%TA.AperFunction,ComponentPad*%
%ADD11O,1.803400X0.990600*%
%TD*%
%TA.AperFunction,ComponentPad*%
%ADD12O,2.209800X0.990600*%
%TD*%
G04 APERTURE END LIST*
D10*
%TO.P,J2,1,Pin_1*%
%TO.N,RST*%
X2144248Y-2828121D03*
%TO.P,J2,2,Pin_2*%
%TO.N,BOOT*%
X2144248Y-4098121D03*
%TO.P,J2,3,Pin_3*%
%TO.N,D+*%
X2144248Y-5368121D03*
%TO.P,J2,4,Pin_4*%
%TO.N,D-*%
X2144248Y-6638121D03*
%TO.P,J2,5,Pin_5*%
%TO.N,+3V3*%
X2144248Y-7908121D03*
%TO.P,J2,6,Pin_6*%
%TO.N,GND*%
X2144248Y-9178121D03*
%TD*%
D11*
%TO.P,J1,S1,SHIELD*%
%TO.N,GND*%
X24516800Y-10320000D03*
D12*
X28516801Y-10320000D03*
D11*
X24516800Y-1680000D03*
D12*
X28516801Y-1680000D03*
%TD*%
%TA.AperFunction,Conductor*%
%TO.N,GND*%
G36*
X29935648Y-64352D02*
G01*
X29950000Y-99000D01*
X29950000Y-11901000D01*
X29935648Y-11935648D01*
X29901000Y-11950000D01*
X99000Y-11950000D01*
X64352Y-11935648D01*
X50000Y-11901000D01*
X50000Y-7908121D01*
X1438603Y-7908121D01*
X1459108Y-8076993D01*
X1459109Y-8076995D01*
X1519429Y-8236050D01*
X1519430Y-8236052D01*
X1616064Y-8376049D01*
X1616065Y-8376050D01*
X1743396Y-8488855D01*
X1894023Y-8567911D01*
X2059192Y-8608621D01*
X2229304Y-8608621D01*
X2394473Y-8567911D01*
X2545100Y-8488855D01*
X2672431Y-8376050D01*
X2769066Y-8236051D01*
X2829388Y-8076993D01*
X2849893Y-7908121D01*
X2829388Y-7739249D01*
X2769066Y-7580191D01*
X2672431Y-7440192D01*
X2545100Y-7327387D01*
X2524370Y-7316507D01*
X2500362Y-7287700D01*
X2503755Y-7250350D01*
X2524370Y-7229734D01*
X2545100Y-7218855D01*
X2672431Y-7106050D01*
X2769066Y-6966051D01*
X2829388Y-6806993D01*
X2849893Y-6638121D01*
X2829388Y-6469249D01*
X2769066Y-6310191D01*
X2672431Y-6170192D01*
X2545100Y-6057387D01*
X2524370Y-6046507D01*
X2500362Y-6017700D01*
X2503755Y-5980350D01*
X2524370Y-5959734D01*
X2545100Y-5948855D01*
X2672431Y-5836050D01*
X2769066Y-5696051D01*
X2829388Y-5536993D01*
X2849893Y-5368121D01*
X2829388Y-5199249D01*
X2769066Y-5040191D01*
X2672431Y-4900192D01*
X2545100Y-4787387D01*
X2524370Y-4776507D01*
X2500362Y-4747700D01*
X2503755Y-4710350D01*
X2524370Y-4689734D01*
X2545100Y-4678855D01*
X2672431Y-4566050D01*
X2769066Y-4426051D01*
X2829388Y-4266993D01*
X2849893Y-4098121D01*
X2829388Y-3929249D01*
X2769066Y-3770191D01*
X2672431Y-3630192D01*
X2545100Y-3517387D01*
X2524370Y-3506507D01*
X2500362Y-3477700D01*
X2503755Y-3440350D01*
X2524370Y-3419734D01*
X2545100Y-3408855D01*
X2672431Y-3296050D01*
X2769066Y-3156051D01*
X2829388Y-2996993D01*
X2849893Y-2828121D01*
X2829388Y-2659249D01*
X2769066Y-2500191D01*
X2672431Y-2360192D01*
X2545100Y-2247387D01*
X2545092Y-2247383D01*
X2545091Y-2247382D01*
X2394472Y-2168330D01*
X2229304Y-2127621D01*
X2059192Y-2127621D01*
X1894023Y-2168330D01*
X1743404Y-2247382D01*
X1743399Y-2247385D01*
X1743396Y-2247387D01*
X1743392Y-2247389D01*
X1743394Y-2247389D01*
X1616064Y-2360192D01*
X1519430Y-2500189D01*
X1519429Y-2500191D01*
X1459109Y-2659246D01*
X1459108Y-2659249D01*
X1438603Y-2828121D01*
X1459108Y-2996993D01*
X1459109Y-2996995D01*
X1519429Y-3156050D01*
X1519430Y-3156052D01*
X1616064Y-3296049D01*
X1616065Y-3296050D01*
X1743396Y-3408855D01*
X1764123Y-3419733D01*
X1788132Y-3448541D01*
X1784739Y-3485891D01*
X1764125Y-3506506D01*
X1743404Y-3517382D01*
X1743399Y-3517385D01*
X1743396Y-3517387D01*
X1743395Y-3517388D01*
X1743394Y-3517389D01*
X1616064Y-3630192D01*
X1519430Y-3770189D01*
X1519429Y-3770191D01*
X1459109Y-3929246D01*
X1459108Y-3929249D01*
X1438603Y-4098121D01*
X1459108Y-4266993D01*
X1459109Y-4266995D01*
X1519429Y-4426050D01*
X1519430Y-4426052D01*
X1616064Y-4566049D01*
X1616065Y-4566050D01*
X1743396Y-4678855D01*
X1764123Y-4689733D01*
X1788132Y-4718541D01*
X1784739Y-4755891D01*
X1764125Y-4776506D01*
X1743404Y-4787382D01*
X1743399Y-4787385D01*
X1743396Y-4787387D01*
X1743395Y-4787388D01*
X1743394Y-4787389D01*
X1616064Y-4900192D01*
X1519430Y-5040189D01*
X1519429Y-5040191D01*
X1459109Y-5199246D01*
X1459108Y-5199249D01*
X1438603Y-5368121D01*
X1459108Y-5536993D01*
X1459109Y-5536995D01*
X1519429Y-5696050D01*
X1519430Y-5696052D01*
X1616064Y-5836049D01*
X1616065Y-5836050D01*
X1743396Y-5948855D01*
X1743405Y-5948859D01*
X1743404Y-5948859D01*
X1764123Y-5959734D01*
X1788133Y-5988544D01*
X1784738Y-6025893D01*
X1764123Y-6046508D01*
X1743404Y-6057382D01*
X1743399Y-6057385D01*
X1743396Y-6057387D01*
X1743395Y-6057388D01*
X1743394Y-6057389D01*
X1616064Y-6170192D01*
X1519430Y-6310189D01*
X1519429Y-6310191D01*
X1459109Y-6469246D01*
X1459108Y-6469249D01*
X1438603Y-6638121D01*
X1459108Y-6806993D01*
X1459109Y-6806995D01*
X1519429Y-6966050D01*
X1519430Y-6966052D01*
X1616064Y-7106049D01*
X1616065Y-7106050D01*
X1743396Y-7218855D01*
X1764123Y-7229733D01*
X1788132Y-7258541D01*
X1784739Y-7295891D01*
X1764125Y-7316506D01*
X1743404Y-7327382D01*
X1743399Y-7327385D01*
X1743396Y-7327387D01*
X1743395Y-7327388D01*
X1743394Y-7327389D01*
X1616064Y-7440192D01*
X1519430Y-7580189D01*
X1519429Y-7580191D01*
X1459109Y-7739246D01*
X1459108Y-7739249D01*
X1438603Y-7908121D01*
X50000Y-7908121D01*
X50000Y-99000D01*
X64352Y-64352D01*
X99000Y-50000D01*
X29901000Y-50000D01*
X29935648Y-64352D01*
G37*
%TD.AperFunction*%
%TD*%
M02*
