%TF.GenerationSoftware,KiCad,Pcbnew,7.0.5-7.0.5~ubuntu22.04.1*%
%TF.CreationDate,2023-07-07T08:35:14+08:00*%
%TF.ProjectId,usb_programmer,7573625f-7072-46f6-9772-616d6d65722e,rev?*%
%TF.SameCoordinates,PX37a6d38PY343e060*%
%TF.FileFunction,Soldermask,Top*%
%TF.FilePolarity,Negative*%
%FSLAX46Y46*%
G04 Gerber Fmt 4.6, Leading zero omitted, Abs format (unit mm)*
G04 Created by KiCad (PCBNEW 7.0.5-7.0.5~ubuntu22.04.1) date 2023-07-07 08:35:14*
%MOMM*%
%LPD*%
G01*
G04 APERTURE LIST*
G04 APERTURE END LIST*
G36*
X8664517Y-10211382D02*
G01*
X8681062Y-10222438D01*
X8692118Y-10238983D01*
X8696000Y-10258500D01*
X8696000Y-11358500D01*
X8692118Y-11378017D01*
X8681062Y-11394562D01*
X8664517Y-11405618D01*
X8645000Y-11409500D01*
X7645000Y-11409500D01*
X7625483Y-11405618D01*
X7608938Y-11394562D01*
X7597882Y-11378017D01*
X7594000Y-11358500D01*
X7594000Y-10258500D01*
X7597882Y-10238983D01*
X7608938Y-10222438D01*
X7625483Y-10211382D01*
X7645000Y-10207500D01*
X8645000Y-10207500D01*
X8664517Y-10211382D01*
G37*
G36*
X13264517Y-10211382D02*
G01*
X13281062Y-10222438D01*
X13292118Y-10238983D01*
X13296000Y-10258500D01*
X13296000Y-11358500D01*
X13292118Y-11378017D01*
X13281062Y-11394562D01*
X13264517Y-11405618D01*
X13245000Y-11409500D01*
X12245000Y-11409500D01*
X12225483Y-11405618D01*
X12208938Y-11394562D01*
X12197882Y-11378017D01*
X12194000Y-11358500D01*
X12194000Y-10258500D01*
X12197882Y-10238983D01*
X12208938Y-10222438D01*
X12225483Y-10211382D01*
X12245000Y-10207500D01*
X13245000Y-10207500D01*
X13264517Y-10211382D01*
G37*
G36*
X24997588Y-9778788D02*
G01*
X25031479Y-9788283D01*
X25064507Y-9792632D01*
X25101108Y-9807792D01*
X25140847Y-9818927D01*
X25168314Y-9835630D01*
X25196185Y-9847175D01*
X25230129Y-9873221D01*
X25267963Y-9896229D01*
X25287815Y-9917485D01*
X25309259Y-9933940D01*
X25337243Y-9970410D01*
X25369511Y-10004960D01*
X25381481Y-10028061D01*
X25396024Y-10047014D01*
X25414843Y-10092446D01*
X25437957Y-10137055D01*
X25442624Y-10159517D01*
X25450567Y-10178692D01*
X25457410Y-10230670D01*
X25468226Y-10282719D01*
X25466871Y-10302529D01*
X25469171Y-10319999D01*
X25461897Y-10375244D01*
X25458074Y-10431148D01*
X25452456Y-10446953D01*
X25450567Y-10461307D01*
X25427948Y-10515912D01*
X25408252Y-10571334D01*
X25400363Y-10582509D01*
X25396024Y-10592986D01*
X25357871Y-10642706D01*
X25322456Y-10692879D01*
X25314249Y-10699555D01*
X25309259Y-10706059D01*
X25256399Y-10746619D01*
X25207049Y-10786769D01*
X25200197Y-10789744D01*
X25196185Y-10792824D01*
X25129879Y-10820288D01*
X25070590Y-10846042D01*
X25066273Y-10846635D01*
X25064507Y-10847367D01*
X24980013Y-10858491D01*
X24923200Y-10866300D01*
X24920703Y-10866300D01*
X24112897Y-10866300D01*
X24110400Y-10866300D01*
X24036012Y-10861212D01*
X24002116Y-10851714D01*
X23969092Y-10847367D01*
X23932495Y-10832208D01*
X23892753Y-10821073D01*
X23865282Y-10804367D01*
X23837414Y-10792824D01*
X23803471Y-10766779D01*
X23765637Y-10743771D01*
X23745783Y-10722513D01*
X23724340Y-10706059D01*
X23696354Y-10669588D01*
X23664089Y-10635040D01*
X23652119Y-10611939D01*
X23637575Y-10592985D01*
X23618754Y-10547547D01*
X23595643Y-10502945D01*
X23590975Y-10480484D01*
X23583032Y-10461307D01*
X23576187Y-10409318D01*
X23565374Y-10357281D01*
X23566728Y-10337474D01*
X23564428Y-10320000D01*
X23571703Y-10264737D01*
X23575526Y-10208852D01*
X23581141Y-10193051D01*
X23583032Y-10178692D01*
X23605659Y-10124063D01*
X23625348Y-10068666D01*
X23633233Y-10057495D01*
X23637575Y-10047013D01*
X23675748Y-9997265D01*
X23711144Y-9947121D01*
X23719346Y-9940448D01*
X23724340Y-9933940D01*
X23777239Y-9893348D01*
X23826551Y-9853231D01*
X23833397Y-9850257D01*
X23837414Y-9847175D01*
X23903791Y-9819680D01*
X23963010Y-9793958D01*
X23967321Y-9793365D01*
X23969092Y-9792632D01*
X24053667Y-9781497D01*
X24110400Y-9773700D01*
X24923200Y-9773700D01*
X24997588Y-9778788D01*
G37*
G36*
X29200789Y-9778788D02*
G01*
X29234680Y-9788283D01*
X29267708Y-9792632D01*
X29304309Y-9807792D01*
X29344048Y-9818927D01*
X29371515Y-9835630D01*
X29399386Y-9847175D01*
X29433330Y-9873221D01*
X29471164Y-9896229D01*
X29491016Y-9917485D01*
X29512460Y-9933940D01*
X29540444Y-9970410D01*
X29572712Y-10004960D01*
X29584682Y-10028061D01*
X29599225Y-10047014D01*
X29618044Y-10092446D01*
X29641158Y-10137055D01*
X29645825Y-10159517D01*
X29653768Y-10178692D01*
X29660611Y-10230670D01*
X29671427Y-10282719D01*
X29670072Y-10302529D01*
X29672372Y-10319999D01*
X29665098Y-10375244D01*
X29661275Y-10431148D01*
X29655657Y-10446953D01*
X29653768Y-10461307D01*
X29631149Y-10515912D01*
X29611453Y-10571334D01*
X29603564Y-10582509D01*
X29599225Y-10592986D01*
X29561072Y-10642706D01*
X29525657Y-10692879D01*
X29517450Y-10699555D01*
X29512460Y-10706059D01*
X29459600Y-10746619D01*
X29410250Y-10786769D01*
X29403398Y-10789744D01*
X29399386Y-10792824D01*
X29333080Y-10820288D01*
X29273791Y-10846042D01*
X29269474Y-10846635D01*
X29267708Y-10847367D01*
X29183214Y-10858491D01*
X29126401Y-10866300D01*
X29123904Y-10866300D01*
X27909698Y-10866300D01*
X27907201Y-10866300D01*
X27832813Y-10861212D01*
X27798917Y-10851714D01*
X27765893Y-10847367D01*
X27729296Y-10832208D01*
X27689554Y-10821073D01*
X27662083Y-10804367D01*
X27634215Y-10792824D01*
X27600272Y-10766779D01*
X27562438Y-10743771D01*
X27542584Y-10722513D01*
X27521141Y-10706059D01*
X27493155Y-10669588D01*
X27460890Y-10635040D01*
X27448920Y-10611939D01*
X27434376Y-10592985D01*
X27415555Y-10547547D01*
X27392444Y-10502945D01*
X27387776Y-10480484D01*
X27379833Y-10461307D01*
X27372988Y-10409318D01*
X27362175Y-10357281D01*
X27363529Y-10337474D01*
X27361229Y-10320000D01*
X27368504Y-10264737D01*
X27372327Y-10208852D01*
X27377942Y-10193051D01*
X27379833Y-10178692D01*
X27402460Y-10124063D01*
X27422149Y-10068666D01*
X27430034Y-10057495D01*
X27434376Y-10047013D01*
X27472549Y-9997265D01*
X27507945Y-9947121D01*
X27516147Y-9940448D01*
X27521141Y-9933940D01*
X27574040Y-9893348D01*
X27623352Y-9853231D01*
X27630198Y-9850257D01*
X27634215Y-9847175D01*
X27700592Y-9819680D01*
X27759811Y-9793958D01*
X27764122Y-9793365D01*
X27765893Y-9792632D01*
X27850468Y-9781497D01*
X27907201Y-9773700D01*
X29126401Y-9773700D01*
X29200789Y-9778788D01*
G37*
G36*
X16676017Y-9496882D02*
G01*
X16692562Y-9507938D01*
X16703618Y-9524483D01*
X16707500Y-9544000D01*
X16707500Y-10076000D01*
X16703618Y-10095517D01*
X16692562Y-10112062D01*
X16676017Y-10123118D01*
X16656500Y-10127000D01*
X15611500Y-10127000D01*
X15591983Y-10123118D01*
X15575438Y-10112062D01*
X15564382Y-10095517D01*
X15560500Y-10076000D01*
X15560500Y-9544000D01*
X15564382Y-9524483D01*
X15575438Y-9507938D01*
X15591983Y-9496882D01*
X15611500Y-9493000D01*
X16656500Y-9493000D01*
X16676017Y-9496882D01*
G37*
G36*
X18972017Y-9496882D02*
G01*
X18988562Y-9507938D01*
X18999618Y-9524483D01*
X19003500Y-9544000D01*
X19003500Y-10076000D01*
X18999618Y-10095517D01*
X18988562Y-10112062D01*
X18972017Y-10123118D01*
X18952500Y-10127000D01*
X17907500Y-10127000D01*
X17887983Y-10123118D01*
X17871438Y-10112062D01*
X17860382Y-10095517D01*
X17856500Y-10076000D01*
X17856500Y-9544000D01*
X17860382Y-9524483D01*
X17871438Y-9507938D01*
X17887983Y-9496882D01*
X17907500Y-9493000D01*
X18952500Y-9493000D01*
X18972017Y-9496882D01*
G37*
G36*
X8664517Y-8611382D02*
G01*
X8681062Y-8622438D01*
X8692118Y-8638983D01*
X8696000Y-8658500D01*
X8696000Y-9758500D01*
X8692118Y-9778017D01*
X8681062Y-9794562D01*
X8664517Y-9805618D01*
X8645000Y-9809500D01*
X7645000Y-9809500D01*
X7625483Y-9805618D01*
X7608938Y-9794562D01*
X7597882Y-9778017D01*
X7594000Y-9758500D01*
X7594000Y-8658500D01*
X7597882Y-8638983D01*
X7608938Y-8622438D01*
X7625483Y-8611382D01*
X7645000Y-8607500D01*
X8645000Y-8607500D01*
X8664517Y-8611382D01*
G37*
G36*
X13264517Y-8611382D02*
G01*
X13281062Y-8622438D01*
X13292118Y-8638983D01*
X13296000Y-8658500D01*
X13296000Y-9758500D01*
X13292118Y-9778017D01*
X13281062Y-9794562D01*
X13264517Y-9805618D01*
X13245000Y-9809500D01*
X12245000Y-9809500D01*
X12225483Y-9805618D01*
X12208938Y-9794562D01*
X12197882Y-9778017D01*
X12194000Y-9758500D01*
X12194000Y-8658500D01*
X12197882Y-8638983D01*
X12208938Y-8622438D01*
X12225483Y-8611382D01*
X12245000Y-8607500D01*
X13245000Y-8607500D01*
X13264517Y-8611382D01*
G37*
G36*
X20173179Y-9147207D02*
G01*
X20233522Y-9187527D01*
X20273842Y-9247870D01*
X20288000Y-9319049D01*
X20288000Y-9589049D01*
X20273842Y-9660228D01*
X20233522Y-9720571D01*
X20173179Y-9760891D01*
X20102000Y-9775049D01*
X19732000Y-9775049D01*
X19660821Y-9760891D01*
X19600478Y-9720571D01*
X19560158Y-9660228D01*
X19546000Y-9589049D01*
X19546000Y-9319049D01*
X19560158Y-9247870D01*
X19600478Y-9187527D01*
X19660821Y-9147207D01*
X19732000Y-9133049D01*
X20102000Y-9133049D01*
X20173179Y-9147207D01*
G37*
G36*
X2286857Y-8645896D02*
G01*
X2419748Y-8700941D01*
X2533864Y-8788505D01*
X2621428Y-8902621D01*
X2676473Y-9035512D01*
X2695248Y-9178121D01*
X2676473Y-9320730D01*
X2621428Y-9453621D01*
X2533864Y-9567737D01*
X2419748Y-9655301D01*
X2286857Y-9710346D01*
X2144248Y-9729121D01*
X2001639Y-9710346D01*
X1868748Y-9655301D01*
X1754632Y-9567737D01*
X1667068Y-9453621D01*
X1612023Y-9320730D01*
X1593248Y-9178121D01*
X1612023Y-9035512D01*
X1667068Y-8902621D01*
X1754632Y-8788505D01*
X1868748Y-8700941D01*
X2001639Y-8645896D01*
X2144248Y-8627121D01*
X2286857Y-8645896D01*
G37*
G36*
X24532818Y-8848083D02*
G01*
X24549363Y-8859139D01*
X24560419Y-8875684D01*
X24564301Y-8895201D01*
X24564301Y-9504801D01*
X24560419Y-9524318D01*
X24549363Y-9540863D01*
X24532818Y-9551919D01*
X24513301Y-9555801D01*
X23370301Y-9555801D01*
X23350784Y-9551919D01*
X23334239Y-9540863D01*
X23323183Y-9524318D01*
X23319301Y-9504801D01*
X23319301Y-8895201D01*
X23323183Y-8875684D01*
X23334239Y-8859139D01*
X23350784Y-8848083D01*
X23370301Y-8844201D01*
X24513301Y-8844201D01*
X24532818Y-8848083D01*
G37*
G36*
X18972017Y-8546882D02*
G01*
X18988562Y-8557938D01*
X18999618Y-8574483D01*
X19003500Y-8594000D01*
X19003500Y-9126000D01*
X18999618Y-9145517D01*
X18988562Y-9162062D01*
X18972017Y-9173118D01*
X18952500Y-9177000D01*
X17907500Y-9177000D01*
X17887983Y-9173118D01*
X17871438Y-9162062D01*
X17860382Y-9145517D01*
X17856500Y-9126000D01*
X17856500Y-8594000D01*
X17860382Y-8574483D01*
X17871438Y-8557938D01*
X17887983Y-8546882D01*
X17907500Y-8543000D01*
X18952500Y-8543000D01*
X18972017Y-8546882D01*
G37*
G36*
X11464517Y-8087382D02*
G01*
X11481062Y-8098438D01*
X11492118Y-8114983D01*
X11496000Y-8134500D01*
X11496000Y-8834500D01*
X11492118Y-8854017D01*
X11481062Y-8870562D01*
X11464517Y-8881618D01*
X11445000Y-8885500D01*
X9445000Y-8885500D01*
X9425483Y-8881618D01*
X9408938Y-8870562D01*
X9397882Y-8854017D01*
X9394000Y-8834500D01*
X9394000Y-8134500D01*
X9397882Y-8114983D01*
X9408938Y-8098438D01*
X9425483Y-8087382D01*
X9445000Y-8083500D01*
X11445000Y-8083500D01*
X11464517Y-8087382D01*
G37*
G36*
X22681179Y-8253159D02*
G01*
X22741522Y-8293479D01*
X22781842Y-8353822D01*
X22796000Y-8425001D01*
X22796000Y-8695001D01*
X22781842Y-8766180D01*
X22741522Y-8826523D01*
X22681179Y-8866843D01*
X22610000Y-8881001D01*
X22240000Y-8881001D01*
X22168821Y-8866843D01*
X22108478Y-8826523D01*
X22068158Y-8766180D01*
X22054000Y-8695001D01*
X22054000Y-8425001D01*
X22068158Y-8353822D01*
X22108478Y-8293479D01*
X22168821Y-8253159D01*
X22240000Y-8239001D01*
X22610000Y-8239001D01*
X22681179Y-8253159D01*
G37*
G36*
X24532818Y-8048082D02*
G01*
X24549363Y-8059138D01*
X24560419Y-8075683D01*
X24564301Y-8095200D01*
X24564301Y-8704800D01*
X24560419Y-8724317D01*
X24549363Y-8740862D01*
X24532818Y-8751918D01*
X24513301Y-8755800D01*
X23370301Y-8755800D01*
X23350784Y-8751918D01*
X23334239Y-8740862D01*
X23323183Y-8724317D01*
X23319301Y-8704800D01*
X23319301Y-8095200D01*
X23323183Y-8075683D01*
X23334239Y-8059138D01*
X23350784Y-8048082D01*
X23370301Y-8044200D01*
X24513301Y-8044200D01*
X24532818Y-8048082D01*
G37*
G36*
X20173179Y-8127207D02*
G01*
X20233522Y-8167527D01*
X20273842Y-8227870D01*
X20288000Y-8299049D01*
X20288000Y-8569049D01*
X20273842Y-8640228D01*
X20233522Y-8700571D01*
X20173179Y-8740891D01*
X20102000Y-8755049D01*
X19732000Y-8755049D01*
X19660821Y-8740891D01*
X19600478Y-8700571D01*
X19560158Y-8640228D01*
X19546000Y-8569049D01*
X19546000Y-8299049D01*
X19560158Y-8227870D01*
X19600478Y-8167527D01*
X19660821Y-8127207D01*
X19732000Y-8113049D01*
X20102000Y-8113049D01*
X20173179Y-8127207D01*
G37*
G36*
X2286857Y-7375896D02*
G01*
X2419748Y-7430941D01*
X2533864Y-7518505D01*
X2621428Y-7632621D01*
X2676473Y-7765512D01*
X2695248Y-7908121D01*
X2676473Y-8050730D01*
X2621428Y-8183621D01*
X2533864Y-8297737D01*
X2419748Y-8385301D01*
X2286857Y-8440346D01*
X2144248Y-8459121D01*
X2001639Y-8440346D01*
X1868748Y-8385301D01*
X1754632Y-8297737D01*
X1667068Y-8183621D01*
X1612023Y-8050730D01*
X1593248Y-7908121D01*
X1612023Y-7765512D01*
X1667068Y-7632621D01*
X1754632Y-7518505D01*
X1868748Y-7430941D01*
X2001639Y-7375896D01*
X2144248Y-7357121D01*
X2286857Y-7375896D01*
G37*
G36*
X16676017Y-7596882D02*
G01*
X16692562Y-7607938D01*
X16703618Y-7624483D01*
X16707500Y-7644000D01*
X16707500Y-8176000D01*
X16703618Y-8195517D01*
X16692562Y-8212062D01*
X16676017Y-8223118D01*
X16656500Y-8227000D01*
X15611500Y-8227000D01*
X15591983Y-8223118D01*
X15575438Y-8212062D01*
X15564382Y-8195517D01*
X15560500Y-8176000D01*
X15560500Y-7644000D01*
X15564382Y-7624483D01*
X15575438Y-7607938D01*
X15591983Y-7596882D01*
X15611500Y-7593000D01*
X16656500Y-7593000D01*
X16676017Y-7596882D01*
G37*
G36*
X18972017Y-7596882D02*
G01*
X18988562Y-7607938D01*
X18999618Y-7624483D01*
X19003500Y-7644000D01*
X19003500Y-8176000D01*
X18999618Y-8195517D01*
X18988562Y-8212062D01*
X18972017Y-8223118D01*
X18952500Y-8227000D01*
X17907500Y-8227000D01*
X17887983Y-8223118D01*
X17871438Y-8212062D01*
X17860382Y-8195517D01*
X17856500Y-8176000D01*
X17856500Y-7644000D01*
X17860382Y-7624483D01*
X17871438Y-7607938D01*
X17887983Y-7596882D01*
X17907500Y-7593000D01*
X18952500Y-7593000D01*
X18972017Y-7596882D01*
G37*
G36*
X24532818Y-7550423D02*
G01*
X24549363Y-7561479D01*
X24560419Y-7578024D01*
X24564301Y-7597541D01*
X24564301Y-7902341D01*
X24560419Y-7921858D01*
X24549363Y-7938403D01*
X24532818Y-7949459D01*
X24513301Y-7953341D01*
X23370301Y-7953341D01*
X23350784Y-7949459D01*
X23334239Y-7938403D01*
X23323183Y-7921858D01*
X23319301Y-7902341D01*
X23319301Y-7597541D01*
X23323183Y-7578024D01*
X23334239Y-7561479D01*
X23350784Y-7550423D01*
X23370301Y-7546541D01*
X24513301Y-7546541D01*
X24532818Y-7550423D01*
G37*
G36*
X22681179Y-7233159D02*
G01*
X22741522Y-7273479D01*
X22781842Y-7333822D01*
X22796000Y-7405001D01*
X22796000Y-7675001D01*
X22781842Y-7746180D01*
X22741522Y-7806523D01*
X22681179Y-7846843D01*
X22610000Y-7861001D01*
X22240000Y-7861001D01*
X22168821Y-7846843D01*
X22108478Y-7806523D01*
X22068158Y-7746180D01*
X22054000Y-7675001D01*
X22054000Y-7405001D01*
X22068158Y-7333822D01*
X22108478Y-7273479D01*
X22168821Y-7233159D01*
X22240000Y-7219001D01*
X22610000Y-7219001D01*
X22681179Y-7233159D01*
G37*
G36*
X24532818Y-7050482D02*
G01*
X24549363Y-7061538D01*
X24560419Y-7078083D01*
X24564301Y-7097600D01*
X24564301Y-7402400D01*
X24560419Y-7421917D01*
X24549363Y-7438462D01*
X24532818Y-7449518D01*
X24513301Y-7453400D01*
X23370301Y-7453400D01*
X23350784Y-7449518D01*
X23334239Y-7438462D01*
X23323183Y-7421917D01*
X23319301Y-7402400D01*
X23319301Y-7097600D01*
X23323183Y-7078083D01*
X23334239Y-7061538D01*
X23350784Y-7050482D01*
X23370301Y-7046600D01*
X24513301Y-7046600D01*
X24532818Y-7050482D01*
G37*
G36*
X2286857Y-6105896D02*
G01*
X2419748Y-6160941D01*
X2533864Y-6248505D01*
X2621428Y-6362621D01*
X2676473Y-6495512D01*
X2695248Y-6638121D01*
X2676473Y-6780730D01*
X2621428Y-6913621D01*
X2533864Y-7027737D01*
X2419748Y-7115301D01*
X2286857Y-7170346D01*
X2144248Y-7189121D01*
X2001639Y-7170346D01*
X1868748Y-7115301D01*
X1754632Y-7027737D01*
X1667068Y-6913621D01*
X1612023Y-6780730D01*
X1593248Y-6638121D01*
X1612023Y-6495512D01*
X1667068Y-6362621D01*
X1754632Y-6248505D01*
X1868748Y-6160941D01*
X2001639Y-6105896D01*
X2144248Y-6087121D01*
X2286857Y-6105896D01*
G37*
G36*
X24532818Y-6550422D02*
G01*
X24549363Y-6561478D01*
X24560419Y-6578023D01*
X24564301Y-6597540D01*
X24564301Y-6902340D01*
X24560419Y-6921857D01*
X24549363Y-6938402D01*
X24532818Y-6949458D01*
X24513301Y-6953340D01*
X23370301Y-6953340D01*
X23350784Y-6949458D01*
X23334239Y-6938402D01*
X23323183Y-6921857D01*
X23319301Y-6902340D01*
X23319301Y-6597540D01*
X23323183Y-6578023D01*
X23334239Y-6561478D01*
X23350784Y-6550422D01*
X23370301Y-6546540D01*
X24513301Y-6546540D01*
X24532818Y-6550422D01*
G37*
G36*
X24532818Y-6050482D02*
G01*
X24549363Y-6061538D01*
X24560419Y-6078083D01*
X24564301Y-6097600D01*
X24564301Y-6402400D01*
X24560419Y-6421917D01*
X24549363Y-6438462D01*
X24532818Y-6449518D01*
X24513301Y-6453400D01*
X23370301Y-6453400D01*
X23350784Y-6449518D01*
X23334239Y-6438462D01*
X23323183Y-6421917D01*
X23319301Y-6402400D01*
X23319301Y-6097600D01*
X23323183Y-6078083D01*
X23334239Y-6061538D01*
X23350784Y-6050482D01*
X23370301Y-6046600D01*
X24513301Y-6046600D01*
X24532818Y-6050482D01*
G37*
G36*
X24532818Y-5550482D02*
G01*
X24549363Y-5561538D01*
X24560419Y-5578083D01*
X24564301Y-5597600D01*
X24564301Y-5902400D01*
X24560419Y-5921917D01*
X24549363Y-5938462D01*
X24532818Y-5949518D01*
X24513301Y-5953400D01*
X23370301Y-5953400D01*
X23350784Y-5949518D01*
X23334239Y-5938462D01*
X23323183Y-5921917D01*
X23319301Y-5902400D01*
X23319301Y-5597600D01*
X23323183Y-5578083D01*
X23334239Y-5561538D01*
X23350784Y-5550482D01*
X23370301Y-5546600D01*
X24513301Y-5546600D01*
X24532818Y-5550482D01*
G37*
G36*
X2286857Y-4835896D02*
G01*
X2419748Y-4890941D01*
X2533864Y-4978505D01*
X2621428Y-5092621D01*
X2676473Y-5225512D01*
X2695248Y-5368121D01*
X2676473Y-5510730D01*
X2621428Y-5643621D01*
X2533864Y-5757737D01*
X2419748Y-5845301D01*
X2286857Y-5900346D01*
X2144248Y-5919121D01*
X2001639Y-5900346D01*
X1868748Y-5845301D01*
X1754632Y-5757737D01*
X1667068Y-5643621D01*
X1612023Y-5510730D01*
X1593248Y-5368121D01*
X1612023Y-5225512D01*
X1667068Y-5092621D01*
X1754632Y-4978505D01*
X1868748Y-4890941D01*
X2001639Y-4835896D01*
X2144248Y-4817121D01*
X2286857Y-4835896D01*
G37*
G36*
X24532818Y-5050423D02*
G01*
X24549363Y-5061479D01*
X24560419Y-5078024D01*
X24564301Y-5097541D01*
X24564301Y-5402341D01*
X24560419Y-5421858D01*
X24549363Y-5438403D01*
X24532818Y-5449459D01*
X24513301Y-5453341D01*
X23370301Y-5453341D01*
X23350784Y-5449459D01*
X23334239Y-5438403D01*
X23323183Y-5421858D01*
X23319301Y-5402341D01*
X23319301Y-5097541D01*
X23323183Y-5078024D01*
X23334239Y-5061479D01*
X23350784Y-5050423D01*
X23370301Y-5046541D01*
X24513301Y-5046541D01*
X24532818Y-5050423D01*
G37*
G36*
X24532818Y-4550482D02*
G01*
X24549363Y-4561538D01*
X24560419Y-4578083D01*
X24564301Y-4597600D01*
X24564301Y-4902400D01*
X24560419Y-4921917D01*
X24549363Y-4938462D01*
X24532818Y-4949518D01*
X24513301Y-4953400D01*
X23370301Y-4953400D01*
X23350784Y-4949518D01*
X23334239Y-4938462D01*
X23323183Y-4921917D01*
X23319301Y-4902400D01*
X23319301Y-4597600D01*
X23323183Y-4578083D01*
X23334239Y-4561538D01*
X23350784Y-4550482D01*
X23370301Y-4546600D01*
X24513301Y-4546600D01*
X24532818Y-4550482D01*
G37*
G36*
X2286857Y-3565896D02*
G01*
X2419748Y-3620941D01*
X2533864Y-3708505D01*
X2621428Y-3822621D01*
X2676473Y-3955512D01*
X2695248Y-4098121D01*
X2676473Y-4240730D01*
X2621428Y-4373621D01*
X2533864Y-4487737D01*
X2419748Y-4575301D01*
X2286857Y-4630346D01*
X2144248Y-4649121D01*
X2001639Y-4630346D01*
X1868748Y-4575301D01*
X1754632Y-4487737D01*
X1667068Y-4373621D01*
X1612023Y-4240730D01*
X1593248Y-4098121D01*
X1612023Y-3955512D01*
X1667068Y-3822621D01*
X1754632Y-3708505D01*
X1868748Y-3620941D01*
X2001639Y-3565896D01*
X2144248Y-3547121D01*
X2286857Y-3565896D01*
G37*
G36*
X22681179Y-3923158D02*
G01*
X22741522Y-3963478D01*
X22781842Y-4023821D01*
X22796000Y-4095000D01*
X22796000Y-4365000D01*
X22781842Y-4436179D01*
X22741522Y-4496522D01*
X22681179Y-4536842D01*
X22610000Y-4551000D01*
X22240000Y-4551000D01*
X22168821Y-4536842D01*
X22108478Y-4496522D01*
X22068158Y-4436179D01*
X22054000Y-4365000D01*
X22054000Y-4095000D01*
X22068158Y-4023821D01*
X22108478Y-3963478D01*
X22168821Y-3923158D01*
X22240000Y-3909000D01*
X22610000Y-3909000D01*
X22681179Y-3923158D01*
G37*
G36*
X24532818Y-4050422D02*
G01*
X24549363Y-4061478D01*
X24560419Y-4078023D01*
X24564301Y-4097540D01*
X24564301Y-4402340D01*
X24560419Y-4421857D01*
X24549363Y-4438402D01*
X24532818Y-4449458D01*
X24513301Y-4453340D01*
X23370301Y-4453340D01*
X23350784Y-4449458D01*
X23334239Y-4438402D01*
X23323183Y-4421857D01*
X23319301Y-4402340D01*
X23319301Y-4097540D01*
X23323183Y-4078023D01*
X23334239Y-4061478D01*
X23350784Y-4050422D01*
X23370301Y-4046540D01*
X24513301Y-4046540D01*
X24532818Y-4050422D01*
G37*
G36*
X8654517Y-2937882D02*
G01*
X8671062Y-2948938D01*
X8682118Y-2965483D01*
X8686000Y-2985000D01*
X8686000Y-4085000D01*
X8682118Y-4104517D01*
X8671062Y-4121062D01*
X8654517Y-4132118D01*
X8635000Y-4136000D01*
X7635000Y-4136000D01*
X7615483Y-4132118D01*
X7598938Y-4121062D01*
X7587882Y-4104517D01*
X7584000Y-4085000D01*
X7584000Y-2985000D01*
X7587882Y-2965483D01*
X7598938Y-2948938D01*
X7615483Y-2937882D01*
X7635000Y-2934000D01*
X8635000Y-2934000D01*
X8654517Y-2937882D01*
G37*
G36*
X13254517Y-2937882D02*
G01*
X13271062Y-2948938D01*
X13282118Y-2965483D01*
X13286000Y-2985000D01*
X13286000Y-4085000D01*
X13282118Y-4104517D01*
X13271062Y-4121062D01*
X13254517Y-4132118D01*
X13235000Y-4136000D01*
X12235000Y-4136000D01*
X12215483Y-4132118D01*
X12198938Y-4121062D01*
X12187882Y-4104517D01*
X12184000Y-4085000D01*
X12184000Y-2985000D01*
X12187882Y-2965483D01*
X12198938Y-2948938D01*
X12215483Y-2937882D01*
X12235000Y-2934000D01*
X13235000Y-2934000D01*
X13254517Y-2937882D01*
G37*
G36*
X24532818Y-3248082D02*
G01*
X24549363Y-3259138D01*
X24560419Y-3275683D01*
X24564301Y-3295200D01*
X24564301Y-3904800D01*
X24560419Y-3924317D01*
X24549363Y-3940862D01*
X24532818Y-3951918D01*
X24513301Y-3955800D01*
X23370301Y-3955800D01*
X23350784Y-3951918D01*
X23334239Y-3940862D01*
X23323183Y-3924317D01*
X23319301Y-3904800D01*
X23319301Y-3295200D01*
X23323183Y-3275683D01*
X23334239Y-3259138D01*
X23350784Y-3248082D01*
X23370301Y-3244200D01*
X24513301Y-3244200D01*
X24532818Y-3248082D01*
G37*
G36*
X22681179Y-2903158D02*
G01*
X22741522Y-2943478D01*
X22781842Y-3003821D01*
X22796000Y-3075000D01*
X22796000Y-3345000D01*
X22781842Y-3416179D01*
X22741522Y-3476522D01*
X22681179Y-3516842D01*
X22610000Y-3531000D01*
X22240000Y-3531000D01*
X22168821Y-3516842D01*
X22108478Y-3476522D01*
X22068158Y-3416179D01*
X22054000Y-3345000D01*
X22054000Y-3075000D01*
X22068158Y-3003821D01*
X22108478Y-2943478D01*
X22168821Y-2903158D01*
X22240000Y-2889000D01*
X22610000Y-2889000D01*
X22681179Y-2903158D01*
G37*
G36*
X2286857Y-2295896D02*
G01*
X2419748Y-2350941D01*
X2533864Y-2438505D01*
X2621428Y-2552621D01*
X2676473Y-2685512D01*
X2695248Y-2828121D01*
X2676473Y-2970730D01*
X2621428Y-3103621D01*
X2533864Y-3217737D01*
X2419748Y-3305301D01*
X2286857Y-3360346D01*
X2144248Y-3379121D01*
X2001639Y-3360346D01*
X1868748Y-3305301D01*
X1754632Y-3217737D01*
X1667068Y-3103621D01*
X1612023Y-2970730D01*
X1593248Y-2828121D01*
X1612023Y-2685512D01*
X1667068Y-2552621D01*
X1754632Y-2438505D01*
X1868748Y-2350941D01*
X2001639Y-2295896D01*
X2144248Y-2277121D01*
X2286857Y-2295896D01*
G37*
G36*
X24532818Y-2448083D02*
G01*
X24549363Y-2459139D01*
X24560419Y-2475684D01*
X24564301Y-2495201D01*
X24564301Y-3104801D01*
X24560419Y-3124318D01*
X24549363Y-3140863D01*
X24532818Y-3151919D01*
X24513301Y-3155801D01*
X23370301Y-3155801D01*
X23350784Y-3151919D01*
X23334239Y-3140863D01*
X23323183Y-3124318D01*
X23319301Y-3104801D01*
X23319301Y-2495201D01*
X23323183Y-2475684D01*
X23334239Y-2459139D01*
X23350784Y-2448083D01*
X23370301Y-2444201D01*
X24513301Y-2444201D01*
X24532818Y-2448083D01*
G37*
G36*
X8654517Y-1337882D02*
G01*
X8671062Y-1348938D01*
X8682118Y-1365483D01*
X8686000Y-1385000D01*
X8686000Y-2485000D01*
X8682118Y-2504517D01*
X8671062Y-2521062D01*
X8654517Y-2532118D01*
X8635000Y-2536000D01*
X7635000Y-2536000D01*
X7615483Y-2532118D01*
X7598938Y-2521062D01*
X7587882Y-2504517D01*
X7584000Y-2485000D01*
X7584000Y-1385000D01*
X7587882Y-1365483D01*
X7598938Y-1348938D01*
X7615483Y-1337882D01*
X7635000Y-1334000D01*
X8635000Y-1334000D01*
X8654517Y-1337882D01*
G37*
G36*
X13254517Y-1337882D02*
G01*
X13271062Y-1348938D01*
X13282118Y-1365483D01*
X13286000Y-1385000D01*
X13286000Y-2485000D01*
X13282118Y-2504517D01*
X13271062Y-2521062D01*
X13254517Y-2532118D01*
X13235000Y-2536000D01*
X12235000Y-2536000D01*
X12215483Y-2532118D01*
X12198938Y-2521062D01*
X12187882Y-2504517D01*
X12184000Y-2485000D01*
X12184000Y-1385000D01*
X12187882Y-1365483D01*
X12198938Y-1348938D01*
X12215483Y-1337882D01*
X12235000Y-1334000D01*
X13235000Y-1334000D01*
X13254517Y-1337882D01*
G37*
G36*
X24997588Y-1138788D02*
G01*
X25031479Y-1148283D01*
X25064507Y-1152632D01*
X25101108Y-1167792D01*
X25140847Y-1178927D01*
X25168314Y-1195630D01*
X25196185Y-1207175D01*
X25230129Y-1233221D01*
X25267963Y-1256229D01*
X25287815Y-1277485D01*
X25309259Y-1293940D01*
X25337243Y-1330410D01*
X25369511Y-1364960D01*
X25381481Y-1388061D01*
X25396024Y-1407014D01*
X25414843Y-1452446D01*
X25437957Y-1497055D01*
X25442624Y-1519517D01*
X25450567Y-1538692D01*
X25457410Y-1590670D01*
X25468226Y-1642719D01*
X25466871Y-1662529D01*
X25469171Y-1679999D01*
X25461897Y-1735244D01*
X25458074Y-1791148D01*
X25452456Y-1806953D01*
X25450567Y-1821307D01*
X25427948Y-1875912D01*
X25408252Y-1931334D01*
X25400363Y-1942509D01*
X25396024Y-1952986D01*
X25357871Y-2002706D01*
X25322456Y-2052879D01*
X25314249Y-2059555D01*
X25309259Y-2066059D01*
X25256399Y-2106619D01*
X25207049Y-2146769D01*
X25200197Y-2149744D01*
X25196185Y-2152824D01*
X25129879Y-2180288D01*
X25070590Y-2206042D01*
X25066273Y-2206635D01*
X25064507Y-2207367D01*
X24980013Y-2218491D01*
X24923200Y-2226300D01*
X24920703Y-2226300D01*
X24112897Y-2226300D01*
X24110400Y-2226300D01*
X24036012Y-2221212D01*
X24002116Y-2211714D01*
X23969092Y-2207367D01*
X23932495Y-2192208D01*
X23892753Y-2181073D01*
X23865282Y-2164367D01*
X23837414Y-2152824D01*
X23803471Y-2126779D01*
X23765637Y-2103771D01*
X23745783Y-2082513D01*
X23724340Y-2066059D01*
X23696354Y-2029588D01*
X23664089Y-1995040D01*
X23652119Y-1971939D01*
X23637575Y-1952985D01*
X23618754Y-1907547D01*
X23595643Y-1862945D01*
X23590975Y-1840484D01*
X23583032Y-1821307D01*
X23576187Y-1769318D01*
X23565374Y-1717281D01*
X23566728Y-1697474D01*
X23564428Y-1680000D01*
X23571703Y-1624737D01*
X23575526Y-1568852D01*
X23581141Y-1553051D01*
X23583032Y-1538692D01*
X23605659Y-1484063D01*
X23625348Y-1428666D01*
X23633233Y-1417495D01*
X23637575Y-1407013D01*
X23675748Y-1357265D01*
X23711144Y-1307121D01*
X23719346Y-1300448D01*
X23724340Y-1293940D01*
X23777239Y-1253348D01*
X23826551Y-1213231D01*
X23833397Y-1210257D01*
X23837414Y-1207175D01*
X23903791Y-1179680D01*
X23963010Y-1153958D01*
X23967321Y-1153365D01*
X23969092Y-1152632D01*
X24053667Y-1141497D01*
X24110400Y-1133700D01*
X24923200Y-1133700D01*
X24997588Y-1138788D01*
G37*
G36*
X29200789Y-1138788D02*
G01*
X29234680Y-1148283D01*
X29267708Y-1152632D01*
X29304309Y-1167792D01*
X29344048Y-1178927D01*
X29371515Y-1195630D01*
X29399386Y-1207175D01*
X29433330Y-1233221D01*
X29471164Y-1256229D01*
X29491016Y-1277485D01*
X29512460Y-1293940D01*
X29540444Y-1330410D01*
X29572712Y-1364960D01*
X29584682Y-1388061D01*
X29599225Y-1407014D01*
X29618044Y-1452446D01*
X29641158Y-1497055D01*
X29645825Y-1519517D01*
X29653768Y-1538692D01*
X29660611Y-1590670D01*
X29671427Y-1642719D01*
X29670072Y-1662529D01*
X29672372Y-1679999D01*
X29665098Y-1735244D01*
X29661275Y-1791148D01*
X29655657Y-1806953D01*
X29653768Y-1821307D01*
X29631149Y-1875912D01*
X29611453Y-1931334D01*
X29603564Y-1942509D01*
X29599225Y-1952986D01*
X29561072Y-2002706D01*
X29525657Y-2052879D01*
X29517450Y-2059555D01*
X29512460Y-2066059D01*
X29459600Y-2106619D01*
X29410250Y-2146769D01*
X29403398Y-2149744D01*
X29399386Y-2152824D01*
X29333080Y-2180288D01*
X29273791Y-2206042D01*
X29269474Y-2206635D01*
X29267708Y-2207367D01*
X29183214Y-2218491D01*
X29126401Y-2226300D01*
X29123904Y-2226300D01*
X27909698Y-2226300D01*
X27907201Y-2226300D01*
X27832813Y-2221212D01*
X27798917Y-2211714D01*
X27765893Y-2207367D01*
X27729296Y-2192208D01*
X27689554Y-2181073D01*
X27662083Y-2164367D01*
X27634215Y-2152824D01*
X27600272Y-2126779D01*
X27562438Y-2103771D01*
X27542584Y-2082513D01*
X27521141Y-2066059D01*
X27493155Y-2029588D01*
X27460890Y-1995040D01*
X27448920Y-1971939D01*
X27434376Y-1952985D01*
X27415555Y-1907547D01*
X27392444Y-1862945D01*
X27387776Y-1840484D01*
X27379833Y-1821307D01*
X27372988Y-1769318D01*
X27362175Y-1717281D01*
X27363529Y-1697474D01*
X27361229Y-1680000D01*
X27368504Y-1624737D01*
X27372327Y-1568852D01*
X27377942Y-1553051D01*
X27379833Y-1538692D01*
X27402460Y-1484063D01*
X27422149Y-1428666D01*
X27430034Y-1417495D01*
X27434376Y-1407013D01*
X27472549Y-1357265D01*
X27507945Y-1307121D01*
X27516147Y-1300448D01*
X27521141Y-1293940D01*
X27574040Y-1253348D01*
X27623352Y-1213231D01*
X27630198Y-1210257D01*
X27634215Y-1207175D01*
X27700592Y-1179680D01*
X27759811Y-1153958D01*
X27764122Y-1153365D01*
X27765893Y-1152632D01*
X27850468Y-1141497D01*
X27907201Y-1133700D01*
X29126401Y-1133700D01*
X29200789Y-1138788D01*
G37*
G36*
X11454517Y-813882D02*
G01*
X11471062Y-824938D01*
X11482118Y-841483D01*
X11486000Y-861000D01*
X11486000Y-1561000D01*
X11482118Y-1580517D01*
X11471062Y-1597062D01*
X11454517Y-1608118D01*
X11435000Y-1612000D01*
X9435000Y-1612000D01*
X9415483Y-1608118D01*
X9398938Y-1597062D01*
X9387882Y-1580517D01*
X9384000Y-1561000D01*
X9384000Y-861000D01*
X9387882Y-841483D01*
X9398938Y-824938D01*
X9415483Y-813882D01*
X9435000Y-810000D01*
X11435000Y-810000D01*
X11454517Y-813882D01*
G37*
M02*
