G04 #@! TF.GenerationSoftware,KiCad,Pcbnew,7.0.2-6a45011f42~172~ubuntu22.04.1*
G04 #@! TF.CreationDate,2023-07-04T08:02:55+08:00*
G04 #@! TF.ProjectId,panel_50_1,70616e65-6c5f-4353-905f-312e6b696361,rev?*
G04 #@! TF.SameCoordinates,Original*
G04 #@! TF.FileFunction,Profile,NP*
%FSLAX46Y46*%
G04 Gerber Fmt 4.6, Leading zero omitted, Abs format (unit mm)*
G04 Created by KiCad (PCBNEW 7.0.2-6a45011f42~172~ubuntu22.04.1) date 2023-07-04 08:02:55*
%MOMM*%
%LPD*%
G01*
G04 APERTURE LIST*
G04 #@! TA.AperFunction,Profile*
%ADD10C,0.100000*%
G04 #@! TD*
G04 APERTURE END LIST*
D10*
X0Y-93200000D02*
X0Y-97200000D01*
X111190000Y-81200000D02*
X111190000Y-77200000D01*
X111190000Y-17200000D02*
X111190000Y-13200000D01*
X111190000Y-45200000D02*
X111190000Y-41200000D01*
X111190000Y-61200000D02*
X111190000Y-57200000D01*
X0Y-33200000D02*
X0Y-37200000D01*
X111190000Y-137200000D02*
X111190000Y-133200000D01*
X111190000Y-149200000D02*
X111190000Y-145200000D01*
X111190000Y-161200000D02*
X111190000Y-157200000D01*
X0Y-5200000D02*
X0Y-9200000D01*
X0Y-89200000D02*
X0Y-93200000D01*
X0Y-141200000D02*
X0Y-145200000D01*
X111190000Y-117200000D02*
X111190000Y-113200000D01*
X111190000Y-13200000D02*
X111190000Y-9200000D01*
X0Y-177200000D02*
X0Y-181200000D01*
X111190000Y-41200000D02*
X111190000Y-37200000D01*
X111190000Y-9200000D02*
X111190000Y-5200000D01*
X111190000Y-21200000D02*
X111190000Y-17200000D01*
X0Y-125200000D02*
X0Y-129200000D01*
X0Y-121200000D02*
X0Y-125200000D01*
X0Y-117200000D02*
X0Y-121200000D01*
X111190000Y-181200000D02*
X111190000Y-177200000D01*
X111190000Y-157200000D02*
X111190000Y-153200000D01*
X0Y-197200000D02*
X0Y-201200000D01*
X0Y-189200000D02*
X0Y-193200000D01*
X111190000Y-37200000D02*
X111190000Y-33200000D01*
X0Y-149200000D02*
X0Y-153200000D01*
X0Y-81200000D02*
X0Y-85200000D01*
X111190000Y-201200000D02*
X111190000Y-197200000D01*
X0Y-133200000D02*
X0Y-137200000D01*
X0Y-181200000D02*
X0Y-185200000D01*
X111190000Y-177200000D02*
X111190000Y-173200000D01*
X0Y-29200000D02*
X0Y-33200000D01*
X111190000Y-129200000D02*
X111190000Y-125200000D01*
X0Y-5000000D02*
X0Y-5200000D01*
X111190000Y-165200000D02*
X111190000Y-161200000D01*
X0Y-169200000D02*
X0Y-173200000D01*
X0Y-205400000D02*
X0Y-210400000D01*
X111190000Y-197200000D02*
X111190000Y-193200000D01*
X0Y-97200000D02*
X0Y-101200000D01*
X0Y-157200000D02*
X0Y-161200000D01*
X0Y-17200000D02*
X0Y-21200000D01*
X0Y-73200000D02*
X0Y-77200000D01*
X0Y-161200000D02*
X0Y-165200000D01*
X111190000Y-205200000D02*
X111190000Y-201200000D01*
X0Y-57200000D02*
X0Y-61200000D01*
X111190000Y-69200000D02*
X111190000Y-65200000D01*
X0Y-69200000D02*
X0Y-73200000D01*
X111190000Y0D02*
X0Y0D01*
X111190000Y-33200000D02*
X111190000Y-29200000D01*
X111190000Y-85200000D02*
X111190000Y-81200000D01*
X111190000Y0D02*
X111190000Y0D01*
X0Y-129200000D02*
X0Y-133200000D01*
X0Y-85200000D02*
X0Y-89200000D01*
X0Y-9200000D02*
X0Y-13200000D01*
X111190000Y-121200000D02*
X111190000Y-117200000D01*
X0Y-105200000D02*
X0Y-109200000D01*
X0Y-77200000D02*
X0Y-81200000D01*
X111190000Y-141200000D02*
X111190000Y-137200000D01*
X0Y-145200000D02*
X0Y-149200000D01*
X0Y-45200000D02*
X0Y-49200000D01*
X0Y-25200000D02*
X0Y-29200000D01*
X111190000Y-65200000D02*
X111190000Y-61200000D01*
X111190000Y-113200000D02*
X111190000Y-109200000D01*
X0Y-21200000D02*
X0Y-25200000D01*
X0Y-41200000D02*
X0Y-45200000D01*
X111190000Y-173200000D02*
X111190000Y-169200000D01*
X111190000Y-5200000D02*
X111190000Y-5000000D01*
X111190000Y-189200000D02*
X111190000Y-185200000D01*
X0Y-201200000D02*
X0Y-205200000D01*
X0Y-205200000D02*
X0Y-205400000D01*
X111190000Y-25200000D02*
X111190000Y-21200000D01*
X111190000Y-145200000D02*
X111190000Y-141200000D01*
X111190000Y-185200000D02*
X111190000Y-181200000D01*
X111190000Y-125200000D02*
X111190000Y-121200000D01*
X111190000Y-93200000D02*
X111190000Y-89200000D01*
X0Y-193200000D02*
X0Y-197200000D01*
X0Y-165200000D02*
X0Y-169200000D01*
X0Y-49200000D02*
X0Y-53200000D01*
X0Y-153200000D02*
X0Y-157200000D01*
X111190000Y-169200000D02*
X111190000Y-165200000D01*
X0Y-185200000D02*
X0Y-189200000D01*
X111190000Y-133200000D02*
X111190000Y-129200000D01*
X111190000Y-89200000D02*
X111190000Y-85200000D01*
X111190000Y-57200000D02*
X111190000Y-53200000D01*
X111190000Y-77200000D02*
X111190000Y-73200000D01*
X0Y-137200000D02*
X0Y-141200000D01*
X111190000Y-153200000D02*
X111190000Y-149200000D01*
X111190000Y-73200000D02*
X111190000Y-69200000D01*
X0Y-37200000D02*
X0Y-41200000D01*
X0Y-109200000D02*
X0Y-113200000D01*
X111190000Y-53200000D02*
X111190000Y-49200000D01*
X111190000Y-5000000D02*
X111190000Y0D01*
X111190000Y-193200000D02*
X111190000Y-189200000D01*
X0Y-210400000D02*
X111190000Y-210400000D01*
X0Y-13200000D02*
X0Y-17200000D01*
X111190000Y-97200000D02*
X111190000Y-93200000D01*
X111190000Y-49200000D02*
X111190000Y-45200000D01*
X0Y-61200000D02*
X0Y-65200000D01*
X111190000Y-205400000D02*
X111190000Y-205200000D01*
X0Y-53200000D02*
X0Y-57200000D01*
X0Y-101200000D02*
X0Y-105200000D01*
X111190000Y-101200000D02*
X111190000Y-97200000D01*
X0Y-173200000D02*
X0Y-177200000D01*
X111190000Y-210400000D02*
X111190000Y-205400000D01*
X111190000Y-29200000D02*
X111190000Y-25200000D01*
X111190000Y-109200000D02*
X111190000Y-105200000D01*
X0Y-65200000D02*
X0Y-69200000D01*
X111190000Y-105200000D02*
X111190000Y-101200000D01*
X0Y-113200000D02*
X0Y-117200000D01*
X0Y0D02*
X0Y-5000000D01*
M02*
