M48
; DRILL file {KiCad 7.0.2-6a45011f42~172~ubuntu22.04.1} date Tue Jul  4 08:02:55 2023
; FORMAT={-:-/ absolute / metric / decimal}
; #@! TF.CreationDate,2023-07-04T08:02:55+08:00
; #@! TF.GenerationSoftware,Kicad,Pcbnew,7.0.2-6a45011f42~172~ubuntu22.04.1
; #@! TF.FileFunction,MixedPlating,1,2
FMAT,2
METRIC
; #@! TA.AperFunction,Plated,PTH,ViaDrill
T1C0.200
; #@! TA.AperFunction,Plated,PTH,ComponentDrill
T2C0.200
; #@! TA.AperFunction,NonPlated,NPTH,ComponentDrill
T3C1.152
%
G90
G05
T1
X76.393Y-8.6
X76.393Y-12.6
X76.393Y-16.6
X76.393Y-20.6
X76.393Y-24.6
X76.393Y-28.6
X76.393Y-32.6
X76.393Y-36.6
X76.393Y-40.6
X76.393Y-44.6
X76.393Y-48.6
X76.393Y-52.6
X76.393Y-56.6
X76.393Y-60.6
X76.393Y-64.6
X76.393Y-68.6
X76.393Y-72.6
X76.393Y-76.6
X76.393Y-80.6
X76.393Y-84.6
X76.393Y-88.6
X76.393Y-92.6
X76.393Y-96.6
X76.393Y-100.6
X76.393Y-104.6
X76.393Y-108.6
X76.393Y-112.6
X76.393Y-116.6
X76.393Y-120.6
X76.393Y-124.6
X76.393Y-128.6
X76.393Y-132.6
X76.393Y-136.6
X76.393Y-140.6
X76.393Y-144.6
X76.393Y-148.6
X76.393Y-152.6
X76.393Y-156.6
X76.393Y-160.6
X76.393Y-164.6
X76.393Y-168.6
X76.393Y-172.6
X76.393Y-176.6
X76.393Y-180.6
X76.393Y-184.6
X76.393Y-188.6
X76.393Y-192.6
X76.393Y-196.6
X76.393Y-200.6
X76.393Y-204.6
X80.521Y-8.6
X80.521Y-12.6
X80.521Y-16.6
X80.521Y-20.6
X80.521Y-24.6
X80.521Y-28.6
X80.521Y-32.6
X80.521Y-36.6
X80.521Y-40.6
X80.521Y-44.6
X80.521Y-48.6
X80.521Y-52.6
X80.521Y-56.6
X80.521Y-60.6
X80.521Y-64.6
X80.521Y-68.6
X80.521Y-72.6
X80.521Y-76.6
X80.521Y-80.6
X80.521Y-84.6
X80.521Y-88.6
X80.521Y-92.6
X80.521Y-96.6
X80.521Y-100.6
X80.521Y-104.6
X80.521Y-108.6
X80.521Y-112.6
X80.521Y-116.6
X80.521Y-120.6
X80.521Y-124.6
X80.521Y-128.6
X80.521Y-132.6
X80.521Y-136.6
X80.521Y-140.6
X80.521Y-144.6
X80.521Y-148.6
X80.521Y-152.6
X80.521Y-156.6
X80.521Y-160.6
X80.521Y-164.6
X80.521Y-168.6
X80.521Y-172.6
X80.521Y-176.6
X80.521Y-180.6
X80.521Y-184.6
X80.521Y-188.6
X80.521Y-192.6
X80.521Y-196.6
X80.521Y-200.6
X80.521Y-204.6
X84.649Y-8.6
X84.649Y-12.6
X84.649Y-16.6
X84.649Y-20.6
X84.649Y-24.6
X84.649Y-28.6
X84.649Y-32.6
X84.649Y-36.6
X84.649Y-40.6
X84.649Y-44.6
X84.649Y-48.6
X84.649Y-52.6
X84.649Y-56.6
X84.649Y-60.6
X84.649Y-64.6
X84.649Y-68.6
X84.649Y-72.6
X84.649Y-76.6
X84.649Y-80.6
X84.649Y-84.6
X84.649Y-88.6
X84.649Y-92.6
X84.649Y-96.6
X84.649Y-100.6
X84.649Y-104.6
X84.649Y-108.6
X84.649Y-112.6
X84.649Y-116.6
X84.649Y-120.6
X84.649Y-124.6
X84.649Y-128.6
X84.649Y-132.6
X84.649Y-136.6
X84.649Y-140.6
X84.649Y-144.6
X84.649Y-148.6
X84.649Y-152.6
X84.649Y-156.6
X84.649Y-160.6
X84.649Y-164.6
X84.649Y-168.6
X84.649Y-172.6
X84.649Y-176.6
X84.649Y-180.6
X84.649Y-184.6
X84.649Y-188.6
X84.649Y-192.6
X84.649Y-196.6
X84.649Y-200.6
X84.649Y-204.6
X88.777Y-8.6
X88.777Y-12.6
X88.777Y-16.6
X88.777Y-20.6
X88.777Y-24.6
X88.777Y-28.6
X88.777Y-32.6
X88.777Y-36.6
X88.777Y-40.6
X88.777Y-44.6
X88.777Y-48.6
X88.777Y-52.6
X88.777Y-56.6
X88.777Y-60.6
X88.777Y-64.6
X88.777Y-68.6
X88.777Y-72.6
X88.777Y-76.6
X88.777Y-80.6
X88.777Y-84.6
X88.777Y-88.6
X88.777Y-92.6
X88.777Y-96.6
X88.777Y-100.6
X88.777Y-104.6
X88.777Y-108.6
X88.777Y-112.6
X88.777Y-116.6
X88.777Y-120.6
X88.777Y-124.6
X88.777Y-128.6
X88.777Y-132.6
X88.777Y-136.6
X88.777Y-140.6
X88.777Y-144.6
X88.777Y-148.6
X88.777Y-152.6
X88.777Y-156.6
X88.777Y-160.6
X88.777Y-164.6
X88.777Y-168.6
X88.777Y-172.6
X88.777Y-176.6
X88.777Y-180.6
X88.777Y-184.6
X88.777Y-188.6
X88.777Y-192.6
X88.777Y-196.6
X88.777Y-200.6
X88.777Y-204.6
X92.905Y-8.6
X92.905Y-12.6
X92.905Y-16.6
X92.905Y-20.6
X92.905Y-24.6
X92.905Y-28.6
X92.905Y-32.6
X92.905Y-36.6
X92.905Y-40.6
X92.905Y-44.6
X92.905Y-48.6
X92.905Y-52.6
X92.905Y-56.6
X92.905Y-60.6
X92.905Y-64.6
X92.905Y-68.6
X92.905Y-72.6
X92.905Y-76.6
X92.905Y-80.6
X92.905Y-84.6
X92.905Y-88.6
X92.905Y-92.6
X92.905Y-96.6
X92.905Y-100.6
X92.905Y-104.6
X92.905Y-108.6
X92.905Y-112.6
X92.905Y-116.6
X92.905Y-120.6
X92.905Y-124.6
X92.905Y-128.6
X92.905Y-132.6
X92.905Y-136.6
X92.905Y-140.6
X92.905Y-144.6
X92.905Y-148.6
X92.905Y-152.6
X92.905Y-156.6
X92.905Y-160.6
X92.905Y-164.6
X92.905Y-168.6
X92.905Y-172.6
X92.905Y-176.6
X92.905Y-180.6
X92.905Y-184.6
X92.905Y-188.6
X92.905Y-192.6
X92.905Y-196.6
X92.905Y-200.6
X92.905Y-204.6
X97.032Y-8.6
X97.032Y-12.6
X97.032Y-16.6
X97.032Y-20.6
X97.032Y-24.6
X97.032Y-28.6
X97.032Y-32.6
X97.032Y-36.6
X97.032Y-40.6
X97.032Y-44.6
X97.032Y-48.6
X97.032Y-52.6
X97.032Y-56.6
X97.032Y-60.6
X97.032Y-64.6
X97.032Y-68.6
X97.032Y-72.6
X97.032Y-76.6
X97.032Y-80.6
X97.032Y-84.6
X97.032Y-88.6
X97.032Y-92.6
X97.032Y-96.6
X97.032Y-100.6
X97.032Y-104.6
X97.032Y-108.6
X97.032Y-112.6
X97.032Y-116.6
X97.032Y-120.6
X97.032Y-124.6
X97.032Y-128.6
X97.032Y-132.6
X97.032Y-136.6
X97.032Y-140.6
X97.032Y-144.6
X97.032Y-148.6
X97.032Y-152.6
X97.032Y-156.6
X97.032Y-160.6
X97.032Y-164.6
X97.032Y-168.6
X97.032Y-172.6
X97.032Y-176.6
X97.032Y-180.6
X97.032Y-184.6
X97.032Y-188.6
X97.032Y-192.6
X97.032Y-196.6
X97.032Y-200.6
X97.032Y-204.6
X101.16Y-8.6
X101.16Y-12.6
X101.16Y-16.6
X101.16Y-20.6
X101.16Y-24.6
X101.16Y-28.6
X101.16Y-32.6
X101.16Y-36.6
X101.16Y-40.6
X101.16Y-44.6
X101.16Y-48.6
X101.16Y-52.6
X101.16Y-56.6
X101.16Y-60.6
X101.16Y-64.6
X101.16Y-68.6
X101.16Y-72.6
X101.16Y-76.6
X101.16Y-80.6
X101.16Y-84.6
X101.16Y-88.6
X101.16Y-92.6
X101.16Y-96.6
X101.16Y-100.6
X101.16Y-104.6
X101.16Y-108.6
X101.16Y-112.6
X101.16Y-116.6
X101.16Y-120.6
X101.16Y-124.6
X101.16Y-128.6
X101.16Y-132.6
X101.16Y-136.6
X101.16Y-140.6
X101.16Y-144.6
X101.16Y-148.6
X101.16Y-152.6
X101.16Y-156.6
X101.16Y-160.6
X101.16Y-164.6
X101.16Y-168.6
X101.16Y-172.6
X101.16Y-176.6
X101.16Y-180.6
X101.16Y-184.6
X101.16Y-188.6
X101.16Y-192.6
X101.16Y-196.6
X101.16Y-200.6
X101.16Y-204.6
X105.288Y-8.6
X105.288Y-12.6
X105.288Y-16.6
X105.288Y-20.6
X105.288Y-24.6
X105.288Y-28.6
X105.288Y-32.6
X105.288Y-36.6
X105.288Y-40.6
X105.288Y-44.6
X105.288Y-48.6
X105.288Y-52.6
X105.288Y-56.6
X105.288Y-60.6
X105.288Y-64.6
X105.288Y-68.6
X105.288Y-72.6
X105.288Y-76.6
X105.288Y-80.6
X105.288Y-84.6
X105.288Y-88.6
X105.288Y-92.6
X105.288Y-96.6
X105.288Y-100.6
X105.288Y-104.6
X105.288Y-108.6
X105.288Y-112.6
X105.288Y-116.6
X105.288Y-120.6
X105.288Y-124.6
X105.288Y-128.6
X105.288Y-132.6
X105.288Y-136.6
X105.288Y-140.6
X105.288Y-144.6
X105.288Y-148.6
X105.288Y-152.6
X105.288Y-156.6
X105.288Y-160.6
X105.288Y-164.6
X105.288Y-168.6
X105.288Y-172.6
X105.288Y-176.6
X105.288Y-180.6
X105.288Y-184.6
X105.288Y-188.6
X105.288Y-192.6
X105.288Y-196.6
X105.288Y-200.6
X105.288Y-204.6
T2
X0.823Y-5.88
X0.823Y-7.205
X0.823Y-8.53
X0.823Y-9.88
X0.823Y-11.205
X0.823Y-12.53
X0.823Y-13.88
X0.823Y-15.205
X0.823Y-16.53
X0.823Y-17.88
X0.823Y-19.205
X0.823Y-20.53
X0.823Y-21.88
X0.823Y-23.205
X0.823Y-24.53
X0.823Y-25.88
X0.823Y-27.205
X0.823Y-28.53
X0.823Y-29.88
X0.823Y-31.205
X0.823Y-32.53
X0.823Y-33.88
X0.823Y-35.205
X0.823Y-36.53
X0.823Y-37.88
X0.823Y-39.205
X0.823Y-40.53
X0.823Y-41.88
X0.823Y-43.205
X0.823Y-44.53
X0.823Y-45.88
X0.823Y-47.205
X0.823Y-48.53
X0.823Y-49.88
X0.823Y-51.205
X0.823Y-52.53
X0.823Y-53.88
X0.823Y-55.205
X0.823Y-56.53
X0.823Y-57.88
X0.823Y-59.205
X0.823Y-60.53
X0.823Y-61.88
X0.823Y-63.205
X0.823Y-64.53
X0.823Y-65.88
X0.823Y-67.205
X0.823Y-68.53
X0.823Y-69.88
X0.823Y-71.205
X0.823Y-72.53
X0.823Y-73.88
X0.823Y-75.205
X0.823Y-76.53
X0.823Y-77.88
X0.823Y-79.205
X0.823Y-80.53
X0.823Y-81.88
X0.823Y-83.205
X0.823Y-84.53
X0.823Y-85.88
X0.823Y-87.205
X0.823Y-88.53
X0.823Y-89.88
X0.823Y-91.205
X0.823Y-92.53
X0.823Y-93.88
X0.823Y-95.205
X0.823Y-96.53
X0.823Y-97.88
X0.823Y-99.205
X0.823Y-100.53
X0.823Y-101.88
X0.823Y-103.205
X0.823Y-104.53
X0.823Y-105.88
X0.823Y-107.205
X0.823Y-108.53
X0.823Y-109.88
X0.823Y-111.205
X0.823Y-112.53
X0.823Y-113.88
X0.823Y-115.205
X0.823Y-116.53
X0.823Y-117.88
X0.823Y-119.205
X0.823Y-120.53
X0.823Y-121.88
X0.823Y-123.205
X0.823Y-124.53
X0.823Y-125.88
X0.823Y-127.205
X0.823Y-128.53
X0.823Y-129.88
X0.823Y-131.205
X0.823Y-132.53
X0.823Y-133.88
X0.823Y-135.205
X0.823Y-136.53
X0.823Y-137.88
X0.823Y-139.205
X0.823Y-140.53
X0.823Y-141.88
X0.823Y-143.205
X0.823Y-144.53
X0.823Y-145.88
X0.823Y-147.205
X0.823Y-148.53
X0.823Y-149.88
X0.823Y-151.205
X0.823Y-152.53
X0.823Y-153.88
X0.823Y-155.205
X0.823Y-156.53
X0.823Y-157.88
X0.823Y-159.205
X0.823Y-160.53
X0.823Y-161.88
X0.823Y-163.205
X0.823Y-164.53
X0.823Y-165.88
X0.823Y-167.205
X0.823Y-168.53
X0.823Y-169.88
X0.823Y-171.205
X0.823Y-172.53
X0.823Y-173.88
X0.823Y-175.205
X0.823Y-176.53
X0.823Y-177.88
X0.823Y-179.205
X0.823Y-180.53
X0.823Y-181.88
X0.823Y-183.205
X0.823Y-184.53
X0.823Y-185.88
X0.823Y-187.205
X0.823Y-188.53
X0.823Y-189.88
X0.823Y-191.205
X0.823Y-192.53
X0.823Y-193.88
X0.823Y-195.205
X0.823Y-196.53
X0.823Y-197.88
X0.823Y-199.205
X0.823Y-200.53
X0.823Y-201.88
X0.823Y-203.205
X0.823Y-204.53
X72.47Y-5.88
X72.47Y-7.205
X72.47Y-8.53
X72.47Y-9.88
X72.47Y-11.205
X72.47Y-12.53
X72.47Y-13.88
X72.47Y-15.205
X72.47Y-16.53
X72.47Y-17.88
X72.47Y-19.205
X72.47Y-20.53
X72.47Y-21.88
X72.47Y-23.205
X72.47Y-24.53
X72.47Y-25.88
X72.47Y-27.205
X72.47Y-28.53
X72.47Y-29.88
X72.47Y-31.205
X72.47Y-32.53
X72.47Y-33.88
X72.47Y-35.205
X72.47Y-36.53
X72.47Y-37.88
X72.47Y-39.205
X72.47Y-40.53
X72.47Y-41.88
X72.47Y-43.205
X72.47Y-44.53
X72.47Y-45.88
X72.47Y-47.205
X72.47Y-48.53
X72.47Y-49.88
X72.47Y-51.205
X72.47Y-52.53
X72.47Y-53.88
X72.47Y-55.205
X72.47Y-56.53
X72.47Y-57.88
X72.47Y-59.205
X72.47Y-60.53
X72.47Y-61.88
X72.47Y-63.205
X72.47Y-64.53
X72.47Y-65.88
X72.47Y-67.205
X72.47Y-68.53
X72.47Y-69.88
X72.47Y-71.205
X72.47Y-72.53
X72.47Y-73.88
X72.47Y-75.205
X72.47Y-76.53
X72.47Y-77.88
X72.47Y-79.205
X72.47Y-80.53
X72.47Y-81.88
X72.47Y-83.205
X72.47Y-84.53
X72.47Y-85.88
X72.47Y-87.205
X72.47Y-88.53
X72.47Y-89.88
X72.47Y-91.205
X72.47Y-92.53
X72.47Y-93.88
X72.47Y-95.205
X72.47Y-96.53
X72.47Y-97.88
X72.47Y-99.205
X72.47Y-100.53
X72.47Y-101.88
X72.47Y-103.205
X72.47Y-104.53
X72.47Y-105.88
X72.47Y-107.205
X72.47Y-108.53
X72.47Y-109.88
X72.47Y-111.205
X72.47Y-112.53
X72.47Y-113.88
X72.47Y-115.205
X72.47Y-116.53
X72.47Y-117.88
X72.47Y-119.205
X72.47Y-120.53
X72.47Y-121.88
X72.47Y-123.205
X72.47Y-124.53
X72.47Y-125.88
X72.47Y-127.205
X72.47Y-128.53
X72.47Y-129.88
X72.47Y-131.205
X72.47Y-132.53
X72.47Y-133.88
X72.47Y-135.205
X72.47Y-136.53
X72.47Y-137.88
X72.47Y-139.205
X72.47Y-140.53
X72.47Y-141.88
X72.47Y-143.205
X72.47Y-144.53
X72.47Y-145.88
X72.47Y-147.205
X72.47Y-148.53
X72.47Y-149.88
X72.47Y-151.205
X72.47Y-152.53
X72.47Y-153.88
X72.47Y-155.205
X72.47Y-156.53
X72.47Y-157.88
X72.47Y-159.205
X72.47Y-160.53
X72.47Y-161.88
X72.47Y-163.205
X72.47Y-164.53
X72.47Y-165.88
X72.47Y-167.205
X72.47Y-168.53
X72.47Y-169.88
X72.47Y-171.205
X72.47Y-172.53
X72.47Y-173.88
X72.47Y-175.205
X72.47Y-176.53
X72.47Y-177.88
X72.47Y-179.205
X72.47Y-180.53
X72.47Y-181.88
X72.47Y-183.205
X72.47Y-184.53
X72.47Y-185.88
X72.47Y-187.205
X72.47Y-188.53
X72.47Y-189.88
X72.47Y-191.205
X72.47Y-192.53
X72.47Y-193.88
X72.47Y-195.205
X72.47Y-196.53
X72.47Y-197.88
X72.47Y-199.205
X72.47Y-200.53
X72.47Y-201.88
X72.47Y-203.205
X72.47Y-204.53
X110.24Y-5.875
X110.24Y-7.2
X110.24Y-8.525
X110.24Y-9.875
X110.24Y-11.2
X110.24Y-12.525
X110.24Y-13.875
X110.24Y-15.2
X110.24Y-16.525
X110.24Y-17.875
X110.24Y-19.2
X110.24Y-20.525
X110.24Y-21.875
X110.24Y-23.2
X110.24Y-24.525
X110.24Y-25.875
X110.24Y-27.2
X110.24Y-28.525
X110.24Y-29.875
X110.24Y-31.2
X110.24Y-32.525
X110.24Y-33.875
X110.24Y-35.2
X110.24Y-36.525
X110.24Y-37.875
X110.24Y-39.2
X110.24Y-40.525
X110.24Y-41.875
X110.24Y-43.2
X110.24Y-44.525
X110.24Y-45.875
X110.24Y-47.2
X110.24Y-48.525
X110.24Y-49.875
X110.24Y-51.2
X110.24Y-52.525
X110.24Y-53.875
X110.24Y-55.2
X110.24Y-56.525
X110.24Y-57.875
X110.24Y-59.2
X110.24Y-60.525
X110.24Y-61.875
X110.24Y-63.2
X110.24Y-64.525
X110.24Y-65.875
X110.24Y-67.2
X110.24Y-68.525
X110.24Y-69.875
X110.24Y-71.2
X110.24Y-72.525
X110.24Y-73.875
X110.24Y-75.2
X110.24Y-76.525
X110.24Y-77.875
X110.24Y-79.2
X110.24Y-80.525
X110.24Y-81.875
X110.24Y-83.2
X110.24Y-84.525
X110.24Y-85.875
X110.24Y-87.2
X110.24Y-88.525
X110.24Y-89.875
X110.24Y-91.2
X110.24Y-92.525
X110.24Y-93.875
X110.24Y-95.2
X110.24Y-96.525
X110.24Y-97.875
X110.24Y-99.2
X110.24Y-100.525
X110.24Y-101.875
X110.24Y-103.2
X110.24Y-104.525
X110.24Y-105.875
X110.24Y-107.2
X110.24Y-108.525
X110.24Y-109.875
X110.24Y-111.2
X110.24Y-112.525
X110.24Y-113.875
X110.24Y-115.2
X110.24Y-116.525
X110.24Y-117.875
X110.24Y-119.2
X110.24Y-120.525
X110.24Y-121.875
X110.24Y-123.2
X110.24Y-124.525
X110.24Y-125.875
X110.24Y-127.2
X110.24Y-128.525
X110.24Y-129.875
X110.24Y-131.2
X110.24Y-132.525
X110.24Y-133.875
X110.24Y-135.2
X110.24Y-136.525
X110.24Y-137.875
X110.24Y-139.2
X110.24Y-140.525
X110.24Y-141.875
X110.24Y-143.2
X110.24Y-144.525
X110.24Y-145.875
X110.24Y-147.2
X110.24Y-148.525
X110.24Y-149.875
X110.24Y-151.2
X110.24Y-152.525
X110.24Y-153.875
X110.24Y-155.2
X110.24Y-156.525
X110.24Y-157.875
X110.24Y-159.2
X110.24Y-160.525
X110.24Y-161.875
X110.24Y-163.2
X110.24Y-164.525
X110.24Y-165.875
X110.24Y-167.2
X110.24Y-168.525
X110.24Y-169.875
X110.24Y-171.2
X110.24Y-172.525
X110.24Y-173.875
X110.24Y-175.2
X110.24Y-176.525
X110.24Y-177.875
X110.24Y-179.2
X110.24Y-180.525
X110.24Y-181.875
X110.24Y-183.2
X110.24Y-184.525
X110.24Y-185.875
X110.24Y-187.2
X110.24Y-188.525
X110.24Y-189.875
X110.24Y-191.2
X110.24Y-192.525
X110.24Y-193.875
X110.24Y-195.2
X110.24Y-196.525
X110.24Y-197.875
X110.24Y-199.2
X110.24Y-200.525
X110.24Y-201.875
X110.24Y-203.2
X110.24Y-204.525
T3
X2.5Y-2.5
X2.5Y-207.9
X108.69Y-2.5
T0
M30
