G04 #@! TF.GenerationSoftware,KiCad,Pcbnew,7.0.2-6a45011f42~172~ubuntu22.04.1*
G04 #@! TF.CreationDate,2023-07-04T08:02:55+08:00*
G04 #@! TF.ProjectId,panel_50_1,70616e65-6c5f-4353-905f-312e6b696361,rev?*
G04 #@! TF.SameCoordinates,Original*
G04 #@! TF.FileFunction,Soldermask,Top*
G04 #@! TF.FilePolarity,Negative*
%FSLAX46Y46*%
G04 Gerber Fmt 4.6, Leading zero omitted, Abs format (unit mm)*
G04 Created by KiCad (PCBNEW 7.0.2-6a45011f42~172~ubuntu22.04.1) date 2023-07-04 08:02:55*
%MOMM*%
%LPD*%
G01*
G04 APERTURE LIST*
%ADD10R,0.450000X0.450000*%
%ADD11R,1.200000X1.000000*%
%ADD12C,1.152000*%
%ADD13C,1.000000*%
G04 APERTURE END LIST*
D10*
G04 #@! TO.C,U5*
X91321834Y-36530000D03*
X90471834Y-36530000D03*
X91321834Y-35680000D03*
X90471834Y-35680000D03*
G04 #@! TD*
G04 #@! TO.C,U7*
X99549176Y-36530000D03*
X98699176Y-36530000D03*
X99549176Y-35680000D03*
X98699176Y-35680000D03*
G04 #@! TD*
D11*
G04 #@! TO.C,J3*
X72470000Y-115205000D03*
G04 #@! TD*
D10*
G04 #@! TO.C,U6*
X95435505Y-32530000D03*
X94585505Y-32530000D03*
X95435505Y-31680000D03*
X94585505Y-31680000D03*
G04 #@! TD*
D11*
G04 #@! TO.C,J8*
X823163Y-145880000D03*
G04 #@! TD*
D10*
G04 #@! TO.C,U9*
X107776522Y-48530000D03*
X106926522Y-48530000D03*
X107776522Y-47680000D03*
X106926522Y-47680000D03*
G04 #@! TD*
D11*
G04 #@! TO.C,J6*
X110240000Y-141875000D03*
G04 #@! TD*
G04 #@! TO.C,J3*
X72470000Y-55205000D03*
G04 #@! TD*
G04 #@! TO.C,J7*
X823163Y-72530000D03*
G04 #@! TD*
G04 #@! TO.C,J3*
X72470000Y-119205000D03*
G04 #@! TD*
D10*
G04 #@! TO.C,U9*
X107776522Y-92530000D03*
X106926522Y-92530000D03*
X107776522Y-91680000D03*
X106926522Y-91680000D03*
G04 #@! TD*
D11*
G04 #@! TO.C,J2*
X72470000Y-5880000D03*
G04 #@! TD*
G04 #@! TO.C,J2*
X72470000Y-101880000D03*
G04 #@! TD*
G04 #@! TO.C,J2*
X72470000Y-121880000D03*
G04 #@! TD*
G04 #@! TO.C,J2*
X72470000Y-29880000D03*
G04 #@! TD*
D10*
G04 #@! TO.C,U1*
X74867150Y-24530000D03*
X74017150Y-24530000D03*
X74867150Y-23680000D03*
X74017150Y-23680000D03*
G04 #@! TD*
D11*
G04 #@! TO.C,J9*
X823163Y-143205000D03*
G04 #@! TD*
D10*
G04 #@! TO.C,U7*
X99549176Y-76530000D03*
X98699176Y-76530000D03*
X99549176Y-75680000D03*
X98699176Y-75680000D03*
G04 #@! TD*
G04 #@! TO.C,U3*
X83094492Y-76530000D03*
X82244492Y-76530000D03*
X83094492Y-75680000D03*
X82244492Y-75680000D03*
G04 #@! TD*
D11*
G04 #@! TO.C,J1*
X72470000Y-12530000D03*
G04 #@! TD*
D10*
G04 #@! TO.C,U2*
X78980821Y-28530000D03*
X78130821Y-28530000D03*
X78980821Y-27680000D03*
X78130821Y-27680000D03*
G04 #@! TD*
G04 #@! TO.C,U6*
X95435505Y-180530000D03*
X94585505Y-180530000D03*
X95435505Y-179680000D03*
X94585505Y-179680000D03*
G04 #@! TD*
D11*
G04 #@! TO.C,J3*
X72470000Y-95205000D03*
G04 #@! TD*
D10*
G04 #@! TO.C,U4*
X87208163Y-68530000D03*
X86358163Y-68530000D03*
X87208163Y-67680000D03*
X86358163Y-67680000D03*
G04 #@! TD*
D11*
G04 #@! TO.C,J1*
X72470000Y-124530000D03*
G04 #@! TD*
D10*
G04 #@! TO.C,U3*
X83094492Y-104530000D03*
X82244492Y-104530000D03*
X83094492Y-103680000D03*
X82244492Y-103680000D03*
G04 #@! TD*
G04 #@! TO.C,U9*
X107776522Y-84530000D03*
X106926522Y-84530000D03*
X107776522Y-83680000D03*
X106926522Y-83680000D03*
G04 #@! TD*
G04 #@! TO.C,U7*
X99549176Y-68530000D03*
X98699176Y-68530000D03*
X99549176Y-67680000D03*
X98699176Y-67680000D03*
G04 #@! TD*
G04 #@! TO.C,U2*
X78980821Y-16530000D03*
X78130821Y-16530000D03*
X78980821Y-15680000D03*
X78130821Y-15680000D03*
G04 #@! TD*
G04 #@! TO.C,U7*
X99549176Y-188530000D03*
X98699176Y-188530000D03*
X99549176Y-187680000D03*
X98699176Y-187680000D03*
G04 #@! TD*
D11*
G04 #@! TO.C,J6*
X110240000Y-33875000D03*
G04 #@! TD*
G04 #@! TO.C,J1*
X72470000Y-148530000D03*
G04 #@! TD*
G04 #@! TO.C,J9*
X823163Y-155205000D03*
G04 #@! TD*
D10*
G04 #@! TO.C,U6*
X95435505Y-72530000D03*
X94585505Y-72530000D03*
X95435505Y-71680000D03*
X94585505Y-71680000D03*
G04 #@! TD*
D11*
G04 #@! TO.C,J4*
X110240000Y-91200000D03*
G04 #@! TD*
G04 #@! TO.C,J2*
X72470000Y-137880000D03*
G04 #@! TD*
G04 #@! TO.C,J1*
X72470000Y-152530000D03*
G04 #@! TD*
D10*
G04 #@! TO.C,U2*
X78980821Y-44530000D03*
X78130821Y-44530000D03*
X78980821Y-43680000D03*
X78130821Y-43680000D03*
G04 #@! TD*
G04 #@! TO.C,U1*
X74867150Y-104530000D03*
X74017150Y-104530000D03*
X74867150Y-103680000D03*
X74017150Y-103680000D03*
G04 #@! TD*
D11*
G04 #@! TO.C,J6*
X110240000Y-161875000D03*
G04 #@! TD*
G04 #@! TO.C,J7*
X823163Y-64530000D03*
G04 #@! TD*
D10*
G04 #@! TO.C,U7*
X99549176Y-48530000D03*
X98699176Y-48530000D03*
X99549176Y-47680000D03*
X98699176Y-47680000D03*
G04 #@! TD*
G04 #@! TO.C,U1*
X74867150Y-100530000D03*
X74017150Y-100530000D03*
X74867150Y-99680000D03*
X74017150Y-99680000D03*
G04 #@! TD*
D11*
G04 #@! TO.C,J6*
X110240000Y-193875000D03*
G04 #@! TD*
G04 #@! TO.C,J2*
X72470000Y-185880000D03*
G04 #@! TD*
G04 #@! TO.C,J8*
X823163Y-17880000D03*
G04 #@! TD*
G04 #@! TO.C,J8*
X823163Y-165880000D03*
G04 #@! TD*
D10*
G04 #@! TO.C,U6*
X95435505Y-188530000D03*
X94585505Y-188530000D03*
X95435505Y-187680000D03*
X94585505Y-187680000D03*
G04 #@! TD*
G04 #@! TO.C,U1*
X74867150Y-64530000D03*
X74017150Y-64530000D03*
X74867150Y-63680000D03*
X74017150Y-63680000D03*
G04 #@! TD*
G04 #@! TO.C,U9*
X107776522Y-200530000D03*
X106926522Y-200530000D03*
X107776522Y-199680000D03*
X106926522Y-199680000D03*
G04 #@! TD*
G04 #@! TO.C,U8*
X103662847Y-28530000D03*
X102812847Y-28530000D03*
X103662847Y-27680000D03*
X102812847Y-27680000D03*
G04 #@! TD*
D11*
G04 #@! TO.C,J2*
X72470000Y-49880000D03*
G04 #@! TD*
D10*
G04 #@! TO.C,U9*
X107776522Y-36530000D03*
X106926522Y-36530000D03*
X107776522Y-35680000D03*
X106926522Y-35680000D03*
G04 #@! TD*
G04 #@! TO.C,U9*
X107776522Y-88530000D03*
X106926522Y-88530000D03*
X107776522Y-87680000D03*
X106926522Y-87680000D03*
G04 #@! TD*
D11*
G04 #@! TO.C,J6*
X110240000Y-49875000D03*
G04 #@! TD*
D10*
G04 #@! TO.C,U6*
X95435505Y-204530000D03*
X94585505Y-204530000D03*
X95435505Y-203680000D03*
X94585505Y-203680000D03*
G04 #@! TD*
D11*
G04 #@! TO.C,J6*
X110240000Y-89875000D03*
G04 #@! TD*
G04 #@! TO.C,J8*
X823163Y-65880000D03*
G04 #@! TD*
D10*
G04 #@! TO.C,U2*
X78980821Y-132530000D03*
X78130821Y-132530000D03*
X78980821Y-131680000D03*
X78130821Y-131680000D03*
G04 #@! TD*
G04 #@! TO.C,U6*
X95435505Y-44530000D03*
X94585505Y-44530000D03*
X95435505Y-43680000D03*
X94585505Y-43680000D03*
G04 #@! TD*
D11*
G04 #@! TO.C,J8*
X823163Y-189880000D03*
G04 #@! TD*
D10*
G04 #@! TO.C,U2*
X78980821Y-60530000D03*
X78130821Y-60530000D03*
X78980821Y-59680000D03*
X78130821Y-59680000D03*
G04 #@! TD*
G04 #@! TO.C,U1*
X74867150Y-156530000D03*
X74017150Y-156530000D03*
X74867150Y-155680000D03*
X74017150Y-155680000D03*
G04 #@! TD*
D12*
G04 #@! TO.C,REF\u002A\u002A*
X2500000Y-207900000D03*
G04 #@! TD*
D11*
G04 #@! TO.C,J6*
X110240000Y-85875000D03*
G04 #@! TD*
D10*
G04 #@! TO.C,U1*
X74867150Y-136530000D03*
X74017150Y-136530000D03*
X74867150Y-135680000D03*
X74017150Y-135680000D03*
G04 #@! TD*
G04 #@! TO.C,U4*
X87208163Y-24530000D03*
X86358163Y-24530000D03*
X87208163Y-23680000D03*
X86358163Y-23680000D03*
G04 #@! TD*
D11*
G04 #@! TO.C,J3*
X72470000Y-163205000D03*
G04 #@! TD*
G04 #@! TO.C,J6*
X110240000Y-109875000D03*
G04 #@! TD*
D10*
G04 #@! TO.C,U2*
X78980821Y-72530000D03*
X78130821Y-72530000D03*
X78980821Y-71680000D03*
X78130821Y-71680000D03*
G04 #@! TD*
D11*
G04 #@! TO.C,J5*
X110240000Y-92525000D03*
G04 #@! TD*
G04 #@! TO.C,J6*
X110240000Y-37875000D03*
G04 #@! TD*
D10*
G04 #@! TO.C,U2*
X78980821Y-64530000D03*
X78130821Y-64530000D03*
X78980821Y-63680000D03*
X78130821Y-63680000D03*
G04 #@! TD*
G04 #@! TO.C,U3*
X83094492Y-172530000D03*
X82244492Y-172530000D03*
X83094492Y-171680000D03*
X82244492Y-171680000D03*
G04 #@! TD*
G04 #@! TO.C,U2*
X78980821Y-152530000D03*
X78130821Y-152530000D03*
X78980821Y-151680000D03*
X78130821Y-151680000D03*
G04 #@! TD*
G04 #@! TO.C,U3*
X83094492Y-204530000D03*
X82244492Y-204530000D03*
X83094492Y-203680000D03*
X82244492Y-203680000D03*
G04 #@! TD*
G04 #@! TO.C,U8*
X103662847Y-88530000D03*
X102812847Y-88530000D03*
X103662847Y-87680000D03*
X102812847Y-87680000D03*
G04 #@! TD*
D11*
G04 #@! TO.C,J9*
X823163Y-87205000D03*
G04 #@! TD*
D10*
G04 #@! TO.C,U1*
X74867150Y-68530000D03*
X74017150Y-68530000D03*
X74867150Y-67680000D03*
X74017150Y-67680000D03*
G04 #@! TD*
G04 #@! TO.C,U6*
X95435505Y-16530000D03*
X94585505Y-16530000D03*
X95435505Y-15680000D03*
X94585505Y-15680000D03*
G04 #@! TD*
D11*
G04 #@! TO.C,J4*
X110240000Y-63200000D03*
G04 #@! TD*
D10*
G04 #@! TO.C,U9*
X107776522Y-56530000D03*
X106926522Y-56530000D03*
X107776522Y-55680000D03*
X106926522Y-55680000D03*
G04 #@! TD*
D11*
G04 #@! TO.C,J8*
X823163Y-9880000D03*
G04 #@! TD*
D10*
G04 #@! TO.C,U9*
X107776522Y-104530000D03*
X106926522Y-104530000D03*
X107776522Y-103680000D03*
X106926522Y-103680000D03*
G04 #@! TD*
D11*
G04 #@! TO.C,J6*
X110240000Y-133875000D03*
G04 #@! TD*
G04 #@! TO.C,J8*
X823163Y-77880000D03*
G04 #@! TD*
D10*
G04 #@! TO.C,U1*
X74867150Y-176530000D03*
X74017150Y-176530000D03*
X74867150Y-175680000D03*
X74017150Y-175680000D03*
G04 #@! TD*
D11*
G04 #@! TO.C,J5*
X110240000Y-184525000D03*
G04 #@! TD*
D10*
G04 #@! TO.C,U5*
X91321834Y-12530000D03*
X90471834Y-12530000D03*
X91321834Y-11680000D03*
X90471834Y-11680000D03*
G04 #@! TD*
G04 #@! TO.C,U6*
X95435505Y-40530000D03*
X94585505Y-40530000D03*
X95435505Y-39680000D03*
X94585505Y-39680000D03*
G04 #@! TD*
G04 #@! TO.C,U3*
X83094492Y-132530000D03*
X82244492Y-132530000D03*
X83094492Y-131680000D03*
X82244492Y-131680000D03*
G04 #@! TD*
D11*
G04 #@! TO.C,J7*
X823163Y-88530000D03*
G04 #@! TD*
G04 #@! TO.C,J5*
X110240000Y-116525000D03*
G04 #@! TD*
G04 #@! TO.C,J1*
X72470000Y-52530000D03*
G04 #@! TD*
G04 #@! TO.C,J7*
X823163Y-204530000D03*
G04 #@! TD*
D10*
G04 #@! TO.C,U7*
X99549176Y-172530000D03*
X98699176Y-172530000D03*
X99549176Y-171680000D03*
X98699176Y-171680000D03*
G04 #@! TD*
G04 #@! TO.C,U3*
X83094492Y-180530000D03*
X82244492Y-180530000D03*
X83094492Y-179680000D03*
X82244492Y-179680000D03*
G04 #@! TD*
D11*
G04 #@! TO.C,J8*
X823163Y-169880000D03*
G04 #@! TD*
D10*
G04 #@! TO.C,U7*
X99549176Y-144530000D03*
X98699176Y-144530000D03*
X99549176Y-143680000D03*
X98699176Y-143680000D03*
G04 #@! TD*
D12*
G04 #@! TO.C,REF\u002A\u002A*
X2500000Y-2500000D03*
G04 #@! TD*
D11*
G04 #@! TO.C,J3*
X72470000Y-15205000D03*
G04 #@! TD*
G04 #@! TO.C,J9*
X823163Y-187205000D03*
G04 #@! TD*
G04 #@! TO.C,J7*
X823163Y-148530000D03*
G04 #@! TD*
D10*
G04 #@! TO.C,U7*
X99549176Y-24530000D03*
X98699176Y-24530000D03*
X99549176Y-23680000D03*
X98699176Y-23680000D03*
G04 #@! TD*
D11*
G04 #@! TO.C,J1*
X72470000Y-144530000D03*
G04 #@! TD*
G04 #@! TO.C,J8*
X823163Y-161880000D03*
G04 #@! TD*
D10*
G04 #@! TO.C,U2*
X78980821Y-148530000D03*
X78130821Y-148530000D03*
X78980821Y-147680000D03*
X78130821Y-147680000D03*
G04 #@! TD*
G04 #@! TO.C,U4*
X87208163Y-144530000D03*
X86358163Y-144530000D03*
X87208163Y-143680000D03*
X86358163Y-143680000D03*
G04 #@! TD*
D11*
G04 #@! TO.C,J8*
X823163Y-177880000D03*
G04 #@! TD*
G04 #@! TO.C,J3*
X72470000Y-63205000D03*
G04 #@! TD*
G04 #@! TO.C,J1*
X72470000Y-104530000D03*
G04 #@! TD*
D10*
G04 #@! TO.C,U9*
X107776522Y-176530000D03*
X106926522Y-176530000D03*
X107776522Y-175680000D03*
X106926522Y-175680000D03*
G04 #@! TD*
D11*
G04 #@! TO.C,J4*
X110240000Y-167200000D03*
G04 #@! TD*
D10*
G04 #@! TO.C,U1*
X74867150Y-48530000D03*
X74017150Y-48530000D03*
X74867150Y-47680000D03*
X74017150Y-47680000D03*
G04 #@! TD*
G04 #@! TO.C,U5*
X91321834Y-176530000D03*
X90471834Y-176530000D03*
X91321834Y-175680000D03*
X90471834Y-175680000D03*
G04 #@! TD*
D11*
G04 #@! TO.C,J9*
X823163Y-123205000D03*
G04 #@! TD*
G04 #@! TO.C,J6*
X110240000Y-197875000D03*
G04 #@! TD*
D10*
G04 #@! TO.C,U2*
X78980821Y-48530000D03*
X78130821Y-48530000D03*
X78980821Y-47680000D03*
X78130821Y-47680000D03*
G04 #@! TD*
D11*
G04 #@! TO.C,J7*
X823163Y-92530000D03*
G04 #@! TD*
G04 #@! TO.C,J7*
X823163Y-144530000D03*
G04 #@! TD*
D10*
G04 #@! TO.C,U9*
X107776522Y-204530000D03*
X106926522Y-204530000D03*
X107776522Y-203680000D03*
X106926522Y-203680000D03*
G04 #@! TD*
G04 #@! TO.C,U6*
X95435505Y-104530000D03*
X94585505Y-104530000D03*
X95435505Y-103680000D03*
X94585505Y-103680000D03*
G04 #@! TD*
D11*
G04 #@! TO.C,J5*
X110240000Y-180525000D03*
G04 #@! TD*
D10*
G04 #@! TO.C,U3*
X83094492Y-156530000D03*
X82244492Y-156530000D03*
X83094492Y-155680000D03*
X82244492Y-155680000D03*
G04 #@! TD*
D11*
G04 #@! TO.C,J8*
X823163Y-45880000D03*
G04 #@! TD*
D10*
G04 #@! TO.C,U9*
X107776522Y-144530000D03*
X106926522Y-144530000D03*
X107776522Y-143680000D03*
X106926522Y-143680000D03*
G04 #@! TD*
G04 #@! TO.C,U5*
X91321834Y-64530000D03*
X90471834Y-64530000D03*
X91321834Y-63680000D03*
X90471834Y-63680000D03*
G04 #@! TD*
D11*
G04 #@! TO.C,J2*
X72470000Y-21880000D03*
G04 #@! TD*
D10*
G04 #@! TO.C,U6*
X95435505Y-80530000D03*
X94585505Y-80530000D03*
X95435505Y-79680000D03*
X94585505Y-79680000D03*
G04 #@! TD*
G04 #@! TO.C,U3*
X83094492Y-120530000D03*
X82244492Y-120530000D03*
X83094492Y-119680000D03*
X82244492Y-119680000D03*
G04 #@! TD*
D11*
G04 #@! TO.C,J5*
X110240000Y-84525000D03*
G04 #@! TD*
G04 #@! TO.C,J7*
X823163Y-56530000D03*
G04 #@! TD*
G04 #@! TO.C,J1*
X72470000Y-80530000D03*
G04 #@! TD*
G04 #@! TO.C,J6*
X110240000Y-93875000D03*
G04 #@! TD*
G04 #@! TO.C,J6*
X110240000Y-157875000D03*
G04 #@! TD*
D10*
G04 #@! TO.C,U3*
X83094492Y-8530000D03*
X82244492Y-8530000D03*
X83094492Y-7680000D03*
X82244492Y-7680000D03*
G04 #@! TD*
G04 #@! TO.C,U4*
X87208163Y-96530000D03*
X86358163Y-96530000D03*
X87208163Y-95680000D03*
X86358163Y-95680000D03*
G04 #@! TD*
G04 #@! TO.C,U6*
X95435505Y-120530000D03*
X94585505Y-120530000D03*
X95435505Y-119680000D03*
X94585505Y-119680000D03*
G04 #@! TD*
D11*
G04 #@! TO.C,J9*
X823163Y-83205000D03*
G04 #@! TD*
G04 #@! TO.C,J7*
X823163Y-168530000D03*
G04 #@! TD*
D10*
G04 #@! TO.C,U8*
X103662847Y-8530000D03*
X102812847Y-8530000D03*
X103662847Y-7680000D03*
X102812847Y-7680000D03*
G04 #@! TD*
G04 #@! TO.C,U3*
X83094492Y-68530000D03*
X82244492Y-68530000D03*
X83094492Y-67680000D03*
X82244492Y-67680000D03*
G04 #@! TD*
G04 #@! TO.C,U9*
X107776522Y-108530000D03*
X106926522Y-108530000D03*
X107776522Y-107680000D03*
X106926522Y-107680000D03*
G04 #@! TD*
D11*
G04 #@! TO.C,J5*
X110240000Y-68525000D03*
G04 #@! TD*
G04 #@! TO.C,J7*
X823163Y-44530000D03*
G04 #@! TD*
D10*
G04 #@! TO.C,U3*
X83094492Y-152530000D03*
X82244492Y-152530000D03*
X83094492Y-151680000D03*
X82244492Y-151680000D03*
G04 #@! TD*
D11*
G04 #@! TO.C,J8*
X823163Y-53880000D03*
G04 #@! TD*
G04 #@! TO.C,J2*
X72470000Y-81880000D03*
G04 #@! TD*
G04 #@! TO.C,J8*
X823163Y-173880000D03*
G04 #@! TD*
D10*
G04 #@! TO.C,U5*
X91321834Y-136530000D03*
X90471834Y-136530000D03*
X91321834Y-135680000D03*
X90471834Y-135680000D03*
G04 #@! TD*
D11*
G04 #@! TO.C,J1*
X72470000Y-112530000D03*
G04 #@! TD*
G04 #@! TO.C,J3*
X72470000Y-167205000D03*
G04 #@! TD*
G04 #@! TO.C,J7*
X823163Y-52530000D03*
G04 #@! TD*
G04 #@! TO.C,J4*
X110240000Y-199200000D03*
G04 #@! TD*
D10*
G04 #@! TO.C,U7*
X99549176Y-104530000D03*
X98699176Y-104530000D03*
X99549176Y-103680000D03*
X98699176Y-103680000D03*
G04 #@! TD*
G04 #@! TO.C,U3*
X83094492Y-72530000D03*
X82244492Y-72530000D03*
X83094492Y-71680000D03*
X82244492Y-71680000D03*
G04 #@! TD*
D11*
G04 #@! TO.C,J1*
X72470000Y-88530000D03*
G04 #@! TD*
D10*
G04 #@! TO.C,U7*
X99549176Y-28530000D03*
X98699176Y-28530000D03*
X99549176Y-27680000D03*
X98699176Y-27680000D03*
G04 #@! TD*
D11*
G04 #@! TO.C,J3*
X72470000Y-195205000D03*
G04 #@! TD*
G04 #@! TO.C,J4*
X110240000Y-31200000D03*
G04 #@! TD*
D10*
G04 #@! TO.C,U8*
X103662847Y-96530000D03*
X102812847Y-96530000D03*
X103662847Y-95680000D03*
X102812847Y-95680000D03*
G04 #@! TD*
D11*
G04 #@! TO.C,J1*
X72470000Y-192530000D03*
G04 #@! TD*
G04 #@! TO.C,J4*
X110240000Y-79200000D03*
G04 #@! TD*
D10*
G04 #@! TO.C,U1*
X74867150Y-140530000D03*
X74017150Y-140530000D03*
X74867150Y-139680000D03*
X74017150Y-139680000D03*
G04 #@! TD*
D11*
G04 #@! TO.C,J4*
X110240000Y-103200000D03*
G04 #@! TD*
D10*
G04 #@! TO.C,U9*
X107776522Y-132530000D03*
X106926522Y-132530000D03*
X107776522Y-131680000D03*
X106926522Y-131680000D03*
G04 #@! TD*
G04 #@! TO.C,U7*
X99549176Y-80530000D03*
X98699176Y-80530000D03*
X99549176Y-79680000D03*
X98699176Y-79680000D03*
G04 #@! TD*
D11*
G04 #@! TO.C,J7*
X823163Y-184530000D03*
G04 #@! TD*
D10*
G04 #@! TO.C,U9*
X107776522Y-156530000D03*
X106926522Y-156530000D03*
X107776522Y-155680000D03*
X106926522Y-155680000D03*
G04 #@! TD*
G04 #@! TO.C,U6*
X95435505Y-164530000D03*
X94585505Y-164530000D03*
X95435505Y-163680000D03*
X94585505Y-163680000D03*
G04 #@! TD*
G04 #@! TO.C,U5*
X91321834Y-124530000D03*
X90471834Y-124530000D03*
X91321834Y-123680000D03*
X90471834Y-123680000D03*
G04 #@! TD*
G04 #@! TO.C,U8*
X103662847Y-24530000D03*
X102812847Y-24530000D03*
X103662847Y-23680000D03*
X102812847Y-23680000D03*
G04 #@! TD*
D11*
G04 #@! TO.C,J6*
X110240000Y-17875000D03*
G04 #@! TD*
D10*
G04 #@! TO.C,U5*
X91321834Y-200530000D03*
X90471834Y-200530000D03*
X91321834Y-199680000D03*
X90471834Y-199680000D03*
G04 #@! TD*
D11*
G04 #@! TO.C,J5*
X110240000Y-20525000D03*
G04 #@! TD*
D10*
G04 #@! TO.C,U8*
X103662847Y-44530000D03*
X102812847Y-44530000D03*
X103662847Y-43680000D03*
X102812847Y-43680000D03*
G04 #@! TD*
G04 #@! TO.C,U6*
X95435505Y-196530000D03*
X94585505Y-196530000D03*
X95435505Y-195680000D03*
X94585505Y-195680000D03*
G04 #@! TD*
G04 #@! TO.C,U4*
X87208163Y-60530000D03*
X86358163Y-60530000D03*
X87208163Y-59680000D03*
X86358163Y-59680000D03*
G04 #@! TD*
G04 #@! TO.C,U1*
X74867150Y-32530000D03*
X74017150Y-32530000D03*
X74867150Y-31680000D03*
X74017150Y-31680000D03*
G04 #@! TD*
G04 #@! TO.C,U1*
X74867150Y-56530000D03*
X74017150Y-56530000D03*
X74867150Y-55680000D03*
X74017150Y-55680000D03*
G04 #@! TD*
D11*
G04 #@! TO.C,J7*
X823163Y-60530000D03*
G04 #@! TD*
D10*
G04 #@! TO.C,U7*
X99549176Y-184530000D03*
X98699176Y-184530000D03*
X99549176Y-183680000D03*
X98699176Y-183680000D03*
G04 #@! TD*
D11*
G04 #@! TO.C,J1*
X72470000Y-188530000D03*
G04 #@! TD*
D10*
G04 #@! TO.C,U3*
X83094492Y-176530000D03*
X82244492Y-176530000D03*
X83094492Y-175680000D03*
X82244492Y-175680000D03*
G04 #@! TD*
D11*
G04 #@! TO.C,J3*
X72470000Y-87205000D03*
G04 #@! TD*
D10*
G04 #@! TO.C,U3*
X83094492Y-128530000D03*
X82244492Y-128530000D03*
X83094492Y-127680000D03*
X82244492Y-127680000D03*
G04 #@! TD*
G04 #@! TO.C,U3*
X83094492Y-140530000D03*
X82244492Y-140530000D03*
X83094492Y-139680000D03*
X82244492Y-139680000D03*
G04 #@! TD*
D11*
G04 #@! TO.C,J5*
X110240000Y-144525000D03*
G04 #@! TD*
D10*
G04 #@! TO.C,U7*
X99549176Y-192530000D03*
X98699176Y-192530000D03*
X99549176Y-191680000D03*
X98699176Y-191680000D03*
G04 #@! TD*
D11*
G04 #@! TO.C,J6*
X110240000Y-137875000D03*
G04 #@! TD*
D10*
G04 #@! TO.C,U4*
X87208163Y-132530000D03*
X86358163Y-132530000D03*
X87208163Y-131680000D03*
X86358163Y-131680000D03*
G04 #@! TD*
D11*
G04 #@! TO.C,J2*
X72470000Y-9880000D03*
G04 #@! TD*
G04 #@! TO.C,J3*
X72470000Y-171205000D03*
G04 #@! TD*
D10*
G04 #@! TO.C,U4*
X87208163Y-20530000D03*
X86358163Y-20530000D03*
X87208163Y-19680000D03*
X86358163Y-19680000D03*
G04 #@! TD*
G04 #@! TO.C,U4*
X87208163Y-124530000D03*
X86358163Y-124530000D03*
X87208163Y-123680000D03*
X86358163Y-123680000D03*
G04 #@! TD*
D11*
G04 #@! TO.C,J9*
X823163Y-131205000D03*
G04 #@! TD*
G04 #@! TO.C,J3*
X72470000Y-99205000D03*
G04 #@! TD*
G04 #@! TO.C,J7*
X823163Y-68530000D03*
G04 #@! TD*
D10*
G04 #@! TO.C,U5*
X91321834Y-148530000D03*
X90471834Y-148530000D03*
X91321834Y-147680000D03*
X90471834Y-147680000D03*
G04 #@! TD*
D11*
G04 #@! TO.C,J5*
X110240000Y-36525000D03*
G04 #@! TD*
D10*
G04 #@! TO.C,U2*
X78980821Y-164530000D03*
X78130821Y-164530000D03*
X78980821Y-163680000D03*
X78130821Y-163680000D03*
G04 #@! TD*
G04 #@! TO.C,U1*
X74867150Y-152530000D03*
X74017150Y-152530000D03*
X74867150Y-151680000D03*
X74017150Y-151680000D03*
G04 #@! TD*
D11*
G04 #@! TO.C,J8*
X823163Y-13880000D03*
G04 #@! TD*
G04 #@! TO.C,J1*
X72470000Y-176530000D03*
G04 #@! TD*
D10*
G04 #@! TO.C,U1*
X74867150Y-8530000D03*
X74017150Y-8530000D03*
X74867150Y-7680000D03*
X74017150Y-7680000D03*
G04 #@! TD*
G04 #@! TO.C,U7*
X99549176Y-12530000D03*
X98699176Y-12530000D03*
X99549176Y-11680000D03*
X98699176Y-11680000D03*
G04 #@! TD*
G04 #@! TO.C,U4*
X87208163Y-192530000D03*
X86358163Y-192530000D03*
X87208163Y-191680000D03*
X86358163Y-191680000D03*
G04 #@! TD*
G04 #@! TO.C,U8*
X103662847Y-120530000D03*
X102812847Y-120530000D03*
X103662847Y-119680000D03*
X102812847Y-119680000D03*
G04 #@! TD*
D11*
G04 #@! TO.C,J4*
X110240000Y-195200000D03*
G04 #@! TD*
D10*
G04 #@! TO.C,U1*
X74867150Y-40530000D03*
X74017150Y-40530000D03*
X74867150Y-39680000D03*
X74017150Y-39680000D03*
G04 #@! TD*
D11*
G04 #@! TO.C,J6*
X110240000Y-25875000D03*
G04 #@! TD*
D10*
G04 #@! TO.C,U5*
X91321834Y-120530000D03*
X90471834Y-120530000D03*
X91321834Y-119680000D03*
X90471834Y-119680000D03*
G04 #@! TD*
G04 #@! TO.C,U9*
X107776522Y-24530000D03*
X106926522Y-24530000D03*
X107776522Y-23680000D03*
X106926522Y-23680000D03*
G04 #@! TD*
G04 #@! TO.C,U9*
X107776522Y-116530000D03*
X106926522Y-116530000D03*
X107776522Y-115680000D03*
X106926522Y-115680000D03*
G04 #@! TD*
G04 #@! TO.C,U4*
X87208163Y-196530000D03*
X86358163Y-196530000D03*
X87208163Y-195680000D03*
X86358163Y-195680000D03*
G04 #@! TD*
D11*
G04 #@! TO.C,J5*
X110240000Y-64525000D03*
G04 #@! TD*
G04 #@! TO.C,J8*
X823163Y-137880000D03*
G04 #@! TD*
D10*
G04 #@! TO.C,U3*
X83094492Y-80530000D03*
X82244492Y-80530000D03*
X83094492Y-79680000D03*
X82244492Y-79680000D03*
G04 #@! TD*
D11*
G04 #@! TO.C,J4*
X110240000Y-27200000D03*
G04 #@! TD*
G04 #@! TO.C,J9*
X823163Y-203205000D03*
G04 #@! TD*
D10*
G04 #@! TO.C,U5*
X91321834Y-32530000D03*
X90471834Y-32530000D03*
X91321834Y-31680000D03*
X90471834Y-31680000D03*
G04 #@! TD*
D11*
G04 #@! TO.C,J4*
X110240000Y-7200000D03*
G04 #@! TD*
D10*
G04 #@! TO.C,U2*
X78980821Y-116530000D03*
X78130821Y-116530000D03*
X78980821Y-115680000D03*
X78130821Y-115680000D03*
G04 #@! TD*
G04 #@! TO.C,U7*
X99549176Y-112530000D03*
X98699176Y-112530000D03*
X99549176Y-111680000D03*
X98699176Y-111680000D03*
G04 #@! TD*
D11*
G04 #@! TO.C,J8*
X823163Y-21880000D03*
G04 #@! TD*
G04 #@! TO.C,J7*
X823163Y-100530000D03*
G04 #@! TD*
G04 #@! TO.C,J6*
X110240000Y-65875000D03*
G04 #@! TD*
D10*
G04 #@! TO.C,U6*
X95435505Y-20530000D03*
X94585505Y-20530000D03*
X95435505Y-19680000D03*
X94585505Y-19680000D03*
G04 #@! TD*
D11*
G04 #@! TO.C,J6*
X110240000Y-21875000D03*
G04 #@! TD*
D10*
G04 #@! TO.C,U6*
X95435505Y-168530000D03*
X94585505Y-168530000D03*
X95435505Y-167680000D03*
X94585505Y-167680000D03*
G04 #@! TD*
D11*
G04 #@! TO.C,J1*
X72470000Y-60530000D03*
G04 #@! TD*
D10*
G04 #@! TO.C,U9*
X107776522Y-188530000D03*
X106926522Y-188530000D03*
X107776522Y-187680000D03*
X106926522Y-187680000D03*
G04 #@! TD*
G04 #@! TO.C,U3*
X83094492Y-32530000D03*
X82244492Y-32530000D03*
X83094492Y-31680000D03*
X82244492Y-31680000D03*
G04 #@! TD*
G04 #@! TO.C,U5*
X91321834Y-160530000D03*
X90471834Y-160530000D03*
X91321834Y-159680000D03*
X90471834Y-159680000D03*
G04 #@! TD*
G04 #@! TO.C,U1*
X74867150Y-184530000D03*
X74017150Y-184530000D03*
X74867150Y-183680000D03*
X74017150Y-183680000D03*
G04 #@! TD*
D11*
G04 #@! TO.C,J5*
X110240000Y-60525000D03*
G04 #@! TD*
D10*
G04 #@! TO.C,U7*
X99549176Y-148530000D03*
X98699176Y-148530000D03*
X99549176Y-147680000D03*
X98699176Y-147680000D03*
G04 #@! TD*
D11*
G04 #@! TO.C,J3*
X72470000Y-19205000D03*
G04 #@! TD*
D10*
G04 #@! TO.C,U4*
X87208163Y-164530000D03*
X86358163Y-164530000D03*
X87208163Y-163680000D03*
X86358163Y-163680000D03*
G04 #@! TD*
D11*
G04 #@! TO.C,J3*
X72470000Y-103205000D03*
G04 #@! TD*
G04 #@! TO.C,J3*
X72470000Y-43205000D03*
G04 #@! TD*
D10*
G04 #@! TO.C,U4*
X87208163Y-72530000D03*
X86358163Y-72530000D03*
X87208163Y-71680000D03*
X86358163Y-71680000D03*
G04 #@! TD*
D11*
G04 #@! TO.C,J8*
X823163Y-33880000D03*
G04 #@! TD*
G04 #@! TO.C,J5*
X110240000Y-12525000D03*
G04 #@! TD*
G04 #@! TO.C,J5*
X110240000Y-172525000D03*
G04 #@! TD*
D10*
G04 #@! TO.C,U1*
X74867150Y-180530000D03*
X74017150Y-180530000D03*
X74867150Y-179680000D03*
X74017150Y-179680000D03*
G04 #@! TD*
G04 #@! TO.C,U1*
X74867150Y-116530000D03*
X74017150Y-116530000D03*
X74867150Y-115680000D03*
X74017150Y-115680000D03*
G04 #@! TD*
G04 #@! TO.C,U7*
X99549176Y-56530000D03*
X98699176Y-56530000D03*
X99549176Y-55680000D03*
X98699176Y-55680000D03*
G04 #@! TD*
G04 #@! TO.C,U6*
X95435505Y-116530000D03*
X94585505Y-116530000D03*
X95435505Y-115680000D03*
X94585505Y-115680000D03*
G04 #@! TD*
D11*
G04 #@! TO.C,J6*
X110240000Y-189875000D03*
G04 #@! TD*
G04 #@! TO.C,J2*
X72470000Y-45880000D03*
G04 #@! TD*
G04 #@! TO.C,J5*
X110240000Y-140525000D03*
G04 #@! TD*
D10*
G04 #@! TO.C,U9*
X107776522Y-100530000D03*
X106926522Y-100530000D03*
X107776522Y-99680000D03*
X106926522Y-99680000D03*
G04 #@! TD*
D11*
G04 #@! TO.C,J6*
X110240000Y-169875000D03*
G04 #@! TD*
D10*
G04 #@! TO.C,U6*
X95435505Y-48530000D03*
X94585505Y-48530000D03*
X95435505Y-47680000D03*
X94585505Y-47680000D03*
G04 #@! TD*
D11*
G04 #@! TO.C,J7*
X823163Y-156530000D03*
G04 #@! TD*
D10*
G04 #@! TO.C,U1*
X74867150Y-108530000D03*
X74017150Y-108530000D03*
X74867150Y-107680000D03*
X74017150Y-107680000D03*
G04 #@! TD*
D11*
G04 #@! TO.C,J5*
X110240000Y-136525000D03*
G04 #@! TD*
D10*
G04 #@! TO.C,U4*
X87208163Y-28530000D03*
X86358163Y-28530000D03*
X87208163Y-27680000D03*
X86358163Y-27680000D03*
G04 #@! TD*
D11*
G04 #@! TO.C,J5*
X110240000Y-160525000D03*
G04 #@! TD*
G04 #@! TO.C,J1*
X72470000Y-28530000D03*
G04 #@! TD*
G04 #@! TO.C,J8*
X823163Y-29880000D03*
G04 #@! TD*
G04 #@! TO.C,J2*
X72470000Y-125880000D03*
G04 #@! TD*
D10*
G04 #@! TO.C,U8*
X103662847Y-204530000D03*
X102812847Y-204530000D03*
X103662847Y-203680000D03*
X102812847Y-203680000D03*
G04 #@! TD*
G04 #@! TO.C,U1*
X74867150Y-196530000D03*
X74017150Y-196530000D03*
X74867150Y-195680000D03*
X74017150Y-195680000D03*
G04 #@! TD*
D11*
G04 #@! TO.C,J5*
X110240000Y-192525000D03*
G04 #@! TD*
D10*
G04 #@! TO.C,U9*
X107776522Y-8530000D03*
X106926522Y-8530000D03*
X107776522Y-7680000D03*
X106926522Y-7680000D03*
G04 #@! TD*
G04 #@! TO.C,U3*
X83094492Y-148530000D03*
X82244492Y-148530000D03*
X83094492Y-147680000D03*
X82244492Y-147680000D03*
G04 #@! TD*
D11*
G04 #@! TO.C,J9*
X823163Y-35205000D03*
G04 #@! TD*
D10*
G04 #@! TO.C,U2*
X78980821Y-12530000D03*
X78130821Y-12530000D03*
X78980821Y-11680000D03*
X78130821Y-11680000D03*
G04 #@! TD*
D11*
G04 #@! TO.C,J3*
X72470000Y-159205000D03*
G04 #@! TD*
D10*
G04 #@! TO.C,U3*
X83094492Y-192530000D03*
X82244492Y-192530000D03*
X83094492Y-191680000D03*
X82244492Y-191680000D03*
G04 #@! TD*
D11*
G04 #@! TO.C,J3*
X72470000Y-183205000D03*
G04 #@! TD*
D10*
G04 #@! TO.C,U8*
X103662847Y-136530000D03*
X102812847Y-136530000D03*
X103662847Y-135680000D03*
X102812847Y-135680000D03*
G04 #@! TD*
G04 #@! TO.C,U5*
X91321834Y-16530000D03*
X90471834Y-16530000D03*
X91321834Y-15680000D03*
X90471834Y-15680000D03*
G04 #@! TD*
G04 #@! TO.C,U6*
X95435505Y-88530000D03*
X94585505Y-88530000D03*
X95435505Y-87680000D03*
X94585505Y-87680000D03*
G04 #@! TD*
G04 #@! TO.C,U3*
X83094492Y-164530000D03*
X82244492Y-164530000D03*
X83094492Y-163680000D03*
X82244492Y-163680000D03*
G04 #@! TD*
G04 #@! TO.C,U5*
X91321834Y-84530000D03*
X90471834Y-84530000D03*
X91321834Y-83680000D03*
X90471834Y-83680000D03*
G04 #@! TD*
D11*
G04 #@! TO.C,J6*
X110240000Y-41875000D03*
G04 #@! TD*
G04 #@! TO.C,J9*
X823163Y-55205000D03*
G04 #@! TD*
D10*
G04 #@! TO.C,U6*
X95435505Y-68530000D03*
X94585505Y-68530000D03*
X95435505Y-67680000D03*
X94585505Y-67680000D03*
G04 #@! TD*
G04 #@! TO.C,U7*
X99549176Y-8530000D03*
X98699176Y-8530000D03*
X99549176Y-7680000D03*
X98699176Y-7680000D03*
G04 #@! TD*
G04 #@! TO.C,U4*
X87208163Y-108530000D03*
X86358163Y-108530000D03*
X87208163Y-107680000D03*
X86358163Y-107680000D03*
G04 #@! TD*
D11*
G04 #@! TO.C,J1*
X72470000Y-184530000D03*
G04 #@! TD*
G04 #@! TO.C,J9*
X823163Y-67205000D03*
G04 #@! TD*
G04 #@! TO.C,J3*
X72470000Y-151205000D03*
G04 #@! TD*
G04 #@! TO.C,J2*
X72470000Y-13880000D03*
G04 #@! TD*
D10*
G04 #@! TO.C,U1*
X74867150Y-160530000D03*
X74017150Y-160530000D03*
X74867150Y-159680000D03*
X74017150Y-159680000D03*
G04 #@! TD*
G04 #@! TO.C,U4*
X87208163Y-76530000D03*
X86358163Y-76530000D03*
X87208163Y-75680000D03*
X86358163Y-75680000D03*
G04 #@! TD*
G04 #@! TO.C,U3*
X83094492Y-100530000D03*
X82244492Y-100530000D03*
X83094492Y-99680000D03*
X82244492Y-99680000D03*
G04 #@! TD*
G04 #@! TO.C,U2*
X78980821Y-140530000D03*
X78130821Y-140530000D03*
X78980821Y-139680000D03*
X78130821Y-139680000D03*
G04 #@! TD*
D11*
G04 #@! TO.C,J4*
X110240000Y-155200000D03*
G04 #@! TD*
G04 #@! TO.C,J8*
X823163Y-129880000D03*
G04 #@! TD*
D10*
G04 #@! TO.C,U4*
X87208163Y-120530000D03*
X86358163Y-120530000D03*
X87208163Y-119680000D03*
X86358163Y-119680000D03*
G04 #@! TD*
G04 #@! TO.C,U6*
X95435505Y-176530000D03*
X94585505Y-176530000D03*
X95435505Y-175680000D03*
X94585505Y-175680000D03*
G04 #@! TD*
D11*
G04 #@! TO.C,J7*
X823163Y-200530000D03*
G04 #@! TD*
D10*
G04 #@! TO.C,U5*
X91321834Y-164530000D03*
X90471834Y-164530000D03*
X91321834Y-163680000D03*
X90471834Y-163680000D03*
G04 #@! TD*
G04 #@! TO.C,U2*
X78980821Y-168530000D03*
X78130821Y-168530000D03*
X78980821Y-167680000D03*
X78130821Y-167680000D03*
G04 #@! TD*
D11*
G04 #@! TO.C,J3*
X72470000Y-147205000D03*
G04 #@! TD*
D10*
G04 #@! TO.C,U1*
X74867150Y-124530000D03*
X74017150Y-124530000D03*
X74867150Y-123680000D03*
X74017150Y-123680000D03*
G04 #@! TD*
D11*
G04 #@! TO.C,J5*
X110240000Y-120525000D03*
G04 #@! TD*
D10*
G04 #@! TO.C,U5*
X91321834Y-48530000D03*
X90471834Y-48530000D03*
X91321834Y-47680000D03*
X90471834Y-47680000D03*
G04 #@! TD*
D11*
G04 #@! TO.C,J8*
X823163Y-89880000D03*
G04 #@! TD*
D10*
G04 #@! TO.C,U1*
X74867150Y-200530000D03*
X74017150Y-200530000D03*
X74867150Y-199680000D03*
X74017150Y-199680000D03*
G04 #@! TD*
D11*
G04 #@! TO.C,J6*
X110240000Y-113875000D03*
G04 #@! TD*
G04 #@! TO.C,J5*
X110240000Y-124525000D03*
G04 #@! TD*
D10*
G04 #@! TO.C,U1*
X74867150Y-72530000D03*
X74017150Y-72530000D03*
X74867150Y-71680000D03*
X74017150Y-71680000D03*
G04 #@! TD*
D11*
G04 #@! TO.C,J3*
X72470000Y-11205000D03*
G04 #@! TD*
D10*
G04 #@! TO.C,U6*
X95435505Y-148530000D03*
X94585505Y-148530000D03*
X95435505Y-147680000D03*
X94585505Y-147680000D03*
G04 #@! TD*
G04 #@! TO.C,U2*
X78980821Y-40530000D03*
X78130821Y-40530000D03*
X78980821Y-39680000D03*
X78130821Y-39680000D03*
G04 #@! TD*
D11*
G04 #@! TO.C,J6*
X110240000Y-145875000D03*
G04 #@! TD*
G04 #@! TO.C,J8*
X823163Y-197880000D03*
G04 #@! TD*
G04 #@! TO.C,J2*
X72470000Y-25880000D03*
G04 #@! TD*
D10*
G04 #@! TO.C,U9*
X107776522Y-136530000D03*
X106926522Y-136530000D03*
X107776522Y-135680000D03*
X106926522Y-135680000D03*
G04 #@! TD*
G04 #@! TO.C,U2*
X78980821Y-76530000D03*
X78130821Y-76530000D03*
X78980821Y-75680000D03*
X78130821Y-75680000D03*
G04 #@! TD*
D11*
G04 #@! TO.C,J1*
X72470000Y-172530000D03*
G04 #@! TD*
G04 #@! TO.C,J1*
X72470000Y-36530000D03*
G04 #@! TD*
G04 #@! TO.C,J6*
X110240000Y-69875000D03*
G04 #@! TD*
G04 #@! TO.C,J6*
X110240000Y-5875000D03*
G04 #@! TD*
G04 #@! TO.C,J6*
X110240000Y-29875000D03*
G04 #@! TD*
G04 #@! TO.C,J9*
X823163Y-107205000D03*
G04 #@! TD*
D10*
G04 #@! TO.C,U4*
X87208163Y-32530000D03*
X86358163Y-32530000D03*
X87208163Y-31680000D03*
X86358163Y-31680000D03*
G04 #@! TD*
G04 #@! TO.C,U2*
X78980821Y-56530000D03*
X78130821Y-56530000D03*
X78980821Y-55680000D03*
X78130821Y-55680000D03*
G04 #@! TD*
G04 #@! TO.C,U4*
X87208163Y-80530000D03*
X86358163Y-80530000D03*
X87208163Y-79680000D03*
X86358163Y-79680000D03*
G04 #@! TD*
D11*
G04 #@! TO.C,J2*
X72470000Y-141880000D03*
G04 #@! TD*
D10*
G04 #@! TO.C,U4*
X87208163Y-100530000D03*
X86358163Y-100530000D03*
X87208163Y-99680000D03*
X86358163Y-99680000D03*
G04 #@! TD*
D11*
G04 #@! TO.C,J4*
X110240000Y-71200000D03*
G04 #@! TD*
G04 #@! TO.C,J1*
X72470000Y-8530000D03*
G04 #@! TD*
D10*
G04 #@! TO.C,U3*
X83094492Y-168530000D03*
X82244492Y-168530000D03*
X83094492Y-167680000D03*
X82244492Y-167680000D03*
G04 #@! TD*
G04 #@! TO.C,U9*
X107776522Y-120530000D03*
X106926522Y-120530000D03*
X107776522Y-119680000D03*
X106926522Y-119680000D03*
G04 #@! TD*
D11*
G04 #@! TO.C,J6*
X110240000Y-173875000D03*
G04 #@! TD*
D10*
G04 #@! TO.C,U2*
X78980821Y-112530000D03*
X78130821Y-112530000D03*
X78980821Y-111680000D03*
X78130821Y-111680000D03*
G04 #@! TD*
D11*
G04 #@! TO.C,J8*
X823163Y-61880000D03*
G04 #@! TD*
G04 #@! TO.C,J3*
X72470000Y-67205000D03*
G04 #@! TD*
G04 #@! TO.C,J2*
X72470000Y-173880000D03*
G04 #@! TD*
D10*
G04 #@! TO.C,U7*
X99549176Y-40530000D03*
X98699176Y-40530000D03*
X99549176Y-39680000D03*
X98699176Y-39680000D03*
G04 #@! TD*
D11*
G04 #@! TO.C,J8*
X823163Y-193880000D03*
G04 #@! TD*
D10*
G04 #@! TO.C,U8*
X103662847Y-124530000D03*
X102812847Y-124530000D03*
X103662847Y-123680000D03*
X102812847Y-123680000D03*
G04 #@! TD*
D11*
G04 #@! TO.C,J3*
X72470000Y-143205000D03*
G04 #@! TD*
G04 #@! TO.C,J9*
X823163Y-27205000D03*
G04 #@! TD*
G04 #@! TO.C,J6*
X110240000Y-153875000D03*
G04 #@! TD*
D10*
G04 #@! TO.C,U2*
X78980821Y-120530000D03*
X78130821Y-120530000D03*
X78980821Y-119680000D03*
X78130821Y-119680000D03*
G04 #@! TD*
G04 #@! TO.C,U3*
X83094492Y-196530000D03*
X82244492Y-196530000D03*
X83094492Y-195680000D03*
X82244492Y-195680000D03*
G04 #@! TD*
G04 #@! TO.C,U7*
X99549176Y-128530000D03*
X98699176Y-128530000D03*
X99549176Y-127680000D03*
X98699176Y-127680000D03*
G04 #@! TD*
G04 #@! TO.C,U5*
X91321834Y-80530000D03*
X90471834Y-80530000D03*
X91321834Y-79680000D03*
X90471834Y-79680000D03*
G04 #@! TD*
G04 #@! TO.C,U8*
X103662847Y-60530000D03*
X102812847Y-60530000D03*
X103662847Y-59680000D03*
X102812847Y-59680000D03*
G04 #@! TD*
G04 #@! TO.C,U7*
X99549176Y-96530000D03*
X98699176Y-96530000D03*
X99549176Y-95680000D03*
X98699176Y-95680000D03*
G04 #@! TD*
D11*
G04 #@! TO.C,J3*
X72470000Y-31205000D03*
G04 #@! TD*
D10*
G04 #@! TO.C,U2*
X78980821Y-180530000D03*
X78130821Y-180530000D03*
X78980821Y-179680000D03*
X78130821Y-179680000D03*
G04 #@! TD*
G04 #@! TO.C,U8*
X103662847Y-176530000D03*
X102812847Y-176530000D03*
X103662847Y-175680000D03*
X102812847Y-175680000D03*
G04 #@! TD*
D11*
G04 #@! TO.C,J7*
X823163Y-16530000D03*
G04 #@! TD*
D10*
G04 #@! TO.C,U8*
X103662847Y-180530000D03*
X102812847Y-180530000D03*
X103662847Y-179680000D03*
X102812847Y-179680000D03*
G04 #@! TD*
G04 #@! TO.C,U7*
X99549176Y-132530000D03*
X98699176Y-132530000D03*
X99549176Y-131680000D03*
X98699176Y-131680000D03*
G04 #@! TD*
G04 #@! TO.C,U8*
X103662847Y-108530000D03*
X102812847Y-108530000D03*
X103662847Y-107680000D03*
X102812847Y-107680000D03*
G04 #@! TD*
G04 #@! TO.C,U7*
X99549176Y-136530000D03*
X98699176Y-136530000D03*
X99549176Y-135680000D03*
X98699176Y-135680000D03*
G04 #@! TD*
D11*
G04 #@! TO.C,J4*
X110240000Y-187200000D03*
G04 #@! TD*
D10*
G04 #@! TO.C,U4*
X87208163Y-104530000D03*
X86358163Y-104530000D03*
X87208163Y-103680000D03*
X86358163Y-103680000D03*
G04 #@! TD*
D11*
G04 #@! TO.C,J2*
X72470000Y-165880000D03*
G04 #@! TD*
G04 #@! TO.C,J4*
X110240000Y-163200000D03*
G04 #@! TD*
D10*
G04 #@! TO.C,U7*
X99549176Y-156530000D03*
X98699176Y-156530000D03*
X99549176Y-155680000D03*
X98699176Y-155680000D03*
G04 #@! TD*
D11*
G04 #@! TO.C,J9*
X823163Y-147205000D03*
G04 #@! TD*
G04 #@! TO.C,J5*
X110240000Y-188525000D03*
G04 #@! TD*
G04 #@! TO.C,J1*
X72470000Y-76530000D03*
G04 #@! TD*
G04 #@! TO.C,J7*
X823163Y-124530000D03*
G04 #@! TD*
G04 #@! TO.C,J6*
X110240000Y-149875000D03*
G04 #@! TD*
G04 #@! TO.C,J5*
X110240000Y-8525000D03*
G04 #@! TD*
G04 #@! TO.C,J9*
X823163Y-59205000D03*
G04 #@! TD*
G04 #@! TO.C,J2*
X72470000Y-17880000D03*
G04 #@! TD*
D10*
G04 #@! TO.C,U1*
X74867150Y-148530000D03*
X74017150Y-148530000D03*
X74867150Y-147680000D03*
X74017150Y-147680000D03*
G04 #@! TD*
G04 #@! TO.C,U1*
X74867150Y-84530000D03*
X74017150Y-84530000D03*
X74867150Y-83680000D03*
X74017150Y-83680000D03*
G04 #@! TD*
G04 #@! TO.C,U3*
X83094492Y-16530000D03*
X82244492Y-16530000D03*
X83094492Y-15680000D03*
X82244492Y-15680000D03*
G04 #@! TD*
G04 #@! TO.C,U5*
X91321834Y-40530000D03*
X90471834Y-40530000D03*
X91321834Y-39680000D03*
X90471834Y-39680000D03*
G04 #@! TD*
D11*
G04 #@! TO.C,J4*
X110240000Y-159200000D03*
G04 #@! TD*
D10*
G04 #@! TO.C,U6*
X95435505Y-56530000D03*
X94585505Y-56530000D03*
X95435505Y-55680000D03*
X94585505Y-55680000D03*
G04 #@! TD*
D11*
G04 #@! TO.C,J9*
X823163Y-167205000D03*
G04 #@! TD*
D10*
G04 #@! TO.C,U9*
X107776522Y-40530000D03*
X106926522Y-40530000D03*
X107776522Y-39680000D03*
X106926522Y-39680000D03*
G04 #@! TD*
G04 #@! TO.C,U6*
X95435505Y-160530000D03*
X94585505Y-160530000D03*
X95435505Y-159680000D03*
X94585505Y-159680000D03*
G04 #@! TD*
G04 #@! TO.C,U9*
X107776522Y-196530000D03*
X106926522Y-196530000D03*
X107776522Y-195680000D03*
X106926522Y-195680000D03*
G04 #@! TD*
G04 #@! TO.C,U8*
X103662847Y-100530000D03*
X102812847Y-100530000D03*
X103662847Y-99680000D03*
X102812847Y-99680000D03*
G04 #@! TD*
D11*
G04 #@! TO.C,J3*
X72470000Y-59205000D03*
G04 #@! TD*
D10*
G04 #@! TO.C,U3*
X83094492Y-24530000D03*
X82244492Y-24530000D03*
X83094492Y-23680000D03*
X82244492Y-23680000D03*
G04 #@! TD*
G04 #@! TO.C,U8*
X103662847Y-40530000D03*
X102812847Y-40530000D03*
X103662847Y-39680000D03*
X102812847Y-39680000D03*
G04 #@! TD*
D11*
G04 #@! TO.C,J2*
X72470000Y-197880000D03*
G04 #@! TD*
D10*
G04 #@! TO.C,U4*
X87208163Y-184530000D03*
X86358163Y-184530000D03*
X87208163Y-183680000D03*
X86358163Y-183680000D03*
G04 #@! TD*
D11*
G04 #@! TO.C,J4*
X110240000Y-175200000D03*
G04 #@! TD*
G04 #@! TO.C,J3*
X72470000Y-91205000D03*
G04 #@! TD*
D10*
G04 #@! TO.C,U6*
X95435505Y-156530000D03*
X94585505Y-156530000D03*
X95435505Y-155680000D03*
X94585505Y-155680000D03*
G04 #@! TD*
D11*
G04 #@! TO.C,J1*
X72470000Y-200530000D03*
G04 #@! TD*
D10*
G04 #@! TO.C,U2*
X78980821Y-156530000D03*
X78130821Y-156530000D03*
X78980821Y-155680000D03*
X78130821Y-155680000D03*
G04 #@! TD*
D11*
G04 #@! TO.C,J5*
X110240000Y-76525000D03*
G04 #@! TD*
G04 #@! TO.C,J6*
X110240000Y-181875000D03*
G04 #@! TD*
G04 #@! TO.C,J1*
X72470000Y-64530000D03*
G04 #@! TD*
D10*
G04 #@! TO.C,U1*
X74867150Y-92530000D03*
X74017150Y-92530000D03*
X74867150Y-91680000D03*
X74017150Y-91680000D03*
G04 #@! TD*
D11*
G04 #@! TO.C,J9*
X823163Y-63205000D03*
G04 #@! TD*
D10*
G04 #@! TO.C,U3*
X83094492Y-28530000D03*
X82244492Y-28530000D03*
X83094492Y-27680000D03*
X82244492Y-27680000D03*
G04 #@! TD*
D11*
G04 #@! TO.C,J1*
X72470000Y-196530000D03*
G04 #@! TD*
G04 #@! TO.C,J3*
X72470000Y-35205000D03*
G04 #@! TD*
D10*
G04 #@! TO.C,U2*
X78980821Y-36530000D03*
X78130821Y-36530000D03*
X78980821Y-35680000D03*
X78130821Y-35680000D03*
G04 #@! TD*
D11*
G04 #@! TO.C,J4*
X110240000Y-143200000D03*
G04 #@! TD*
D10*
G04 #@! TO.C,U6*
X95435505Y-144530000D03*
X94585505Y-144530000D03*
X95435505Y-143680000D03*
X94585505Y-143680000D03*
G04 #@! TD*
D11*
G04 #@! TO.C,J3*
X72470000Y-107205000D03*
G04 #@! TD*
D10*
G04 #@! TO.C,U1*
X74867150Y-52530000D03*
X74017150Y-52530000D03*
X74867150Y-51680000D03*
X74017150Y-51680000D03*
G04 #@! TD*
D11*
G04 #@! TO.C,J2*
X72470000Y-133880000D03*
G04 #@! TD*
D10*
G04 #@! TO.C,U1*
X74867150Y-16530000D03*
X74017150Y-16530000D03*
X74867150Y-15680000D03*
X74017150Y-15680000D03*
G04 #@! TD*
G04 #@! TO.C,U4*
X87208163Y-116530000D03*
X86358163Y-116530000D03*
X87208163Y-115680000D03*
X86358163Y-115680000D03*
G04 #@! TD*
D11*
G04 #@! TO.C,J6*
X110240000Y-57875000D03*
G04 #@! TD*
D10*
G04 #@! TO.C,U1*
X74867150Y-36530000D03*
X74017150Y-36530000D03*
X74867150Y-35680000D03*
X74017150Y-35680000D03*
G04 #@! TD*
D11*
G04 #@! TO.C,J5*
X110240000Y-28525000D03*
G04 #@! TD*
G04 #@! TO.C,J9*
X823163Y-171205000D03*
G04 #@! TD*
G04 #@! TO.C,J5*
X110240000Y-108525000D03*
G04 #@! TD*
D10*
G04 #@! TO.C,U8*
X103662847Y-36530000D03*
X102812847Y-36530000D03*
X103662847Y-35680000D03*
X102812847Y-35680000D03*
G04 #@! TD*
D11*
G04 #@! TO.C,J5*
X110240000Y-196525000D03*
G04 #@! TD*
D10*
G04 #@! TO.C,U6*
X95435505Y-52530000D03*
X94585505Y-52530000D03*
X95435505Y-51680000D03*
X94585505Y-51680000D03*
G04 #@! TD*
D11*
G04 #@! TO.C,J4*
X110240000Y-127200000D03*
G04 #@! TD*
G04 #@! TO.C,J7*
X823163Y-48530000D03*
G04 #@! TD*
D10*
G04 #@! TO.C,U9*
X107776522Y-72530000D03*
X106926522Y-72530000D03*
X107776522Y-71680000D03*
X106926522Y-71680000D03*
G04 #@! TD*
G04 #@! TO.C,U3*
X83094492Y-124530000D03*
X82244492Y-124530000D03*
X83094492Y-123680000D03*
X82244492Y-123680000D03*
G04 #@! TD*
G04 #@! TO.C,U7*
X99549176Y-64530000D03*
X98699176Y-64530000D03*
X99549176Y-63680000D03*
X98699176Y-63680000D03*
G04 #@! TD*
G04 #@! TO.C,U7*
X99549176Y-84530000D03*
X98699176Y-84530000D03*
X99549176Y-83680000D03*
X98699176Y-83680000D03*
G04 #@! TD*
G04 #@! TO.C,U9*
X107776522Y-112530000D03*
X106926522Y-112530000D03*
X107776522Y-111680000D03*
X106926522Y-111680000D03*
G04 #@! TD*
G04 #@! TO.C,U7*
X99549176Y-160530000D03*
X98699176Y-160530000D03*
X99549176Y-159680000D03*
X98699176Y-159680000D03*
G04 #@! TD*
D11*
G04 #@! TO.C,J7*
X823163Y-196530000D03*
G04 #@! TD*
G04 #@! TO.C,J8*
X823163Y-97880000D03*
G04 #@! TD*
D10*
G04 #@! TO.C,U7*
X99549176Y-16530000D03*
X98699176Y-16530000D03*
X99549176Y-15680000D03*
X98699176Y-15680000D03*
G04 #@! TD*
D11*
G04 #@! TO.C,J3*
X72470000Y-131205000D03*
G04 #@! TD*
G04 #@! TO.C,J7*
X823163Y-140530000D03*
G04 #@! TD*
G04 #@! TO.C,J8*
X823163Y-85880000D03*
G04 #@! TD*
D10*
G04 #@! TO.C,U2*
X78980821Y-32530000D03*
X78130821Y-32530000D03*
X78980821Y-31680000D03*
X78130821Y-31680000D03*
G04 #@! TD*
D11*
G04 #@! TO.C,J6*
X110240000Y-101875000D03*
G04 #@! TD*
G04 #@! TO.C,J8*
X823163Y-117880000D03*
G04 #@! TD*
D10*
G04 #@! TO.C,U5*
X91321834Y-100530000D03*
X90471834Y-100530000D03*
X91321834Y-99680000D03*
X90471834Y-99680000D03*
G04 #@! TD*
D11*
G04 #@! TO.C,J3*
X72470000Y-71205000D03*
G04 #@! TD*
D10*
G04 #@! TO.C,U3*
X83094492Y-144530000D03*
X82244492Y-144530000D03*
X83094492Y-143680000D03*
X82244492Y-143680000D03*
G04 #@! TD*
D11*
G04 #@! TO.C,J6*
X110240000Y-129875000D03*
G04 #@! TD*
D10*
G04 #@! TO.C,U8*
X103662847Y-16530000D03*
X102812847Y-16530000D03*
X103662847Y-15680000D03*
X102812847Y-15680000D03*
G04 #@! TD*
G04 #@! TO.C,U6*
X95435505Y-64530000D03*
X94585505Y-64530000D03*
X95435505Y-63680000D03*
X94585505Y-63680000D03*
G04 #@! TD*
G04 #@! TO.C,U6*
X95435505Y-172530000D03*
X94585505Y-172530000D03*
X95435505Y-171680000D03*
X94585505Y-171680000D03*
G04 #@! TD*
D11*
G04 #@! TO.C,J3*
X72470000Y-179205000D03*
G04 #@! TD*
D10*
G04 #@! TO.C,U1*
X74867150Y-60530000D03*
X74017150Y-60530000D03*
X74867150Y-59680000D03*
X74017150Y-59680000D03*
G04 #@! TD*
D11*
G04 #@! TO.C,J3*
X72470000Y-83205000D03*
G04 #@! TD*
G04 #@! TO.C,J9*
X823163Y-151205000D03*
G04 #@! TD*
G04 #@! TO.C,J5*
X110240000Y-164525000D03*
G04 #@! TD*
G04 #@! TO.C,J9*
X823163Y-31205000D03*
G04 #@! TD*
G04 #@! TO.C,J2*
X72470000Y-65880000D03*
G04 #@! TD*
G04 #@! TO.C,J8*
X823163Y-93880000D03*
G04 #@! TD*
G04 #@! TO.C,J4*
X110240000Y-171200000D03*
G04 #@! TD*
D10*
G04 #@! TO.C,U5*
X91321834Y-152530000D03*
X90471834Y-152530000D03*
X91321834Y-151680000D03*
X90471834Y-151680000D03*
G04 #@! TD*
D11*
G04 #@! TO.C,J3*
X72470000Y-39205000D03*
G04 #@! TD*
G04 #@! TO.C,J4*
X110240000Y-115200000D03*
G04 #@! TD*
G04 #@! TO.C,J9*
X823163Y-199205000D03*
G04 #@! TD*
G04 #@! TO.C,J7*
X823163Y-84530000D03*
G04 #@! TD*
G04 #@! TO.C,J9*
X823163Y-135205000D03*
G04 #@! TD*
D10*
G04 #@! TO.C,U2*
X78980821Y-84530000D03*
X78130821Y-84530000D03*
X78980821Y-83680000D03*
X78130821Y-83680000D03*
G04 #@! TD*
G04 #@! TO.C,U4*
X87208163Y-180530000D03*
X86358163Y-180530000D03*
X87208163Y-179680000D03*
X86358163Y-179680000D03*
G04 #@! TD*
D11*
G04 #@! TO.C,J3*
X72470000Y-79205000D03*
G04 #@! TD*
D10*
G04 #@! TO.C,U7*
X99549176Y-108530000D03*
X98699176Y-108530000D03*
X99549176Y-107680000D03*
X98699176Y-107680000D03*
G04 #@! TD*
D11*
G04 #@! TO.C,J3*
X72470000Y-27205000D03*
G04 #@! TD*
G04 #@! TO.C,J4*
X110240000Y-55200000D03*
G04 #@! TD*
G04 #@! TO.C,J2*
X72470000Y-201880000D03*
G04 #@! TD*
G04 #@! TO.C,J7*
X823163Y-80530000D03*
G04 #@! TD*
G04 #@! TO.C,J3*
X72470000Y-47205000D03*
G04 #@! TD*
D10*
G04 #@! TO.C,U6*
X95435505Y-100530000D03*
X94585505Y-100530000D03*
X95435505Y-99680000D03*
X94585505Y-99680000D03*
G04 #@! TD*
G04 #@! TO.C,U9*
X107776522Y-128530000D03*
X106926522Y-128530000D03*
X107776522Y-127680000D03*
X106926522Y-127680000D03*
G04 #@! TD*
D11*
G04 #@! TO.C,J2*
X72470000Y-113880000D03*
G04 #@! TD*
G04 #@! TO.C,J2*
X72470000Y-97880000D03*
G04 #@! TD*
G04 #@! TO.C,J9*
X823163Y-115205000D03*
G04 #@! TD*
G04 #@! TO.C,J1*
X72470000Y-108530000D03*
G04 #@! TD*
D10*
G04 #@! TO.C,U8*
X103662847Y-188530000D03*
X102812847Y-188530000D03*
X103662847Y-187680000D03*
X102812847Y-187680000D03*
G04 #@! TD*
D11*
G04 #@! TO.C,J7*
X823163Y-112530000D03*
G04 #@! TD*
G04 #@! TO.C,J1*
X72470000Y-40530000D03*
G04 #@! TD*
D10*
G04 #@! TO.C,U2*
X78980821Y-68530000D03*
X78130821Y-68530000D03*
X78980821Y-67680000D03*
X78130821Y-67680000D03*
G04 #@! TD*
G04 #@! TO.C,U3*
X83094492Y-116530000D03*
X82244492Y-116530000D03*
X83094492Y-115680000D03*
X82244492Y-115680000D03*
G04 #@! TD*
G04 #@! TO.C,U8*
X103662847Y-132530000D03*
X102812847Y-132530000D03*
X103662847Y-131680000D03*
X102812847Y-131680000D03*
G04 #@! TD*
G04 #@! TO.C,U4*
X87208163Y-128530000D03*
X86358163Y-128530000D03*
X87208163Y-127680000D03*
X86358163Y-127680000D03*
G04 #@! TD*
D11*
G04 #@! TO.C,J4*
X110240000Y-179200000D03*
G04 #@! TD*
D10*
G04 #@! TO.C,U7*
X99549176Y-164530000D03*
X98699176Y-164530000D03*
X99549176Y-163680000D03*
X98699176Y-163680000D03*
G04 #@! TD*
D13*
G04 #@! TO.C,REF\u002A\u002A*
X96190000Y-3350000D03*
G04 #@! TD*
D12*
G04 #@! TO.C,REF\u002A\u002A*
X108690000Y-2500000D03*
G04 #@! TD*
D11*
G04 #@! TO.C,J1*
X72470000Y-136530000D03*
G04 #@! TD*
D10*
G04 #@! TO.C,U7*
X99549176Y-204530000D03*
X98699176Y-204530000D03*
X99549176Y-203680000D03*
X98699176Y-203680000D03*
G04 #@! TD*
G04 #@! TO.C,U4*
X87208163Y-140530000D03*
X86358163Y-140530000D03*
X87208163Y-139680000D03*
X86358163Y-139680000D03*
G04 #@! TD*
G04 #@! TO.C,U7*
X99549176Y-100530000D03*
X98699176Y-100530000D03*
X99549176Y-99680000D03*
X98699176Y-99680000D03*
G04 #@! TD*
D11*
G04 #@! TO.C,J4*
X110240000Y-67200000D03*
G04 #@! TD*
G04 #@! TO.C,J2*
X72470000Y-189880000D03*
G04 #@! TD*
G04 #@! TO.C,J5*
X110240000Y-72525000D03*
G04 #@! TD*
D10*
G04 #@! TO.C,U3*
X83094492Y-36530000D03*
X82244492Y-36530000D03*
X83094492Y-35680000D03*
X82244492Y-35680000D03*
G04 #@! TD*
D11*
G04 #@! TO.C,J8*
X823163Y-81880000D03*
G04 #@! TD*
G04 #@! TO.C,J3*
X72470000Y-199205000D03*
G04 #@! TD*
D10*
G04 #@! TO.C,U3*
X83094492Y-112530000D03*
X82244492Y-112530000D03*
X83094492Y-111680000D03*
X82244492Y-111680000D03*
G04 #@! TD*
G04 #@! TO.C,U9*
X107776522Y-32530000D03*
X106926522Y-32530000D03*
X107776522Y-31680000D03*
X106926522Y-31680000D03*
G04 #@! TD*
D11*
G04 #@! TO.C,J9*
X823163Y-195205000D03*
G04 #@! TD*
D10*
G04 #@! TO.C,U3*
X83094492Y-52530000D03*
X82244492Y-52530000D03*
X83094492Y-51680000D03*
X82244492Y-51680000D03*
G04 #@! TD*
D11*
G04 #@! TO.C,J7*
X823163Y-172530000D03*
G04 #@! TD*
D10*
G04 #@! TO.C,U5*
X91321834Y-96530000D03*
X90471834Y-96530000D03*
X91321834Y-95680000D03*
X90471834Y-95680000D03*
G04 #@! TD*
D11*
G04 #@! TO.C,J9*
X823163Y-23205000D03*
G04 #@! TD*
G04 #@! TO.C,J5*
X110240000Y-104525000D03*
G04 #@! TD*
G04 #@! TO.C,J8*
X823163Y-121880000D03*
G04 #@! TD*
D10*
G04 #@! TO.C,U2*
X78980821Y-104530000D03*
X78130821Y-104530000D03*
X78980821Y-103680000D03*
X78130821Y-103680000D03*
G04 #@! TD*
G04 #@! TO.C,U1*
X74867150Y-132530000D03*
X74017150Y-132530000D03*
X74867150Y-131680000D03*
X74017150Y-131680000D03*
G04 #@! TD*
G04 #@! TO.C,U5*
X91321834Y-132530000D03*
X90471834Y-132530000D03*
X91321834Y-131680000D03*
X90471834Y-131680000D03*
G04 #@! TD*
G04 #@! TO.C,U5*
X91321834Y-144530000D03*
X90471834Y-144530000D03*
X91321834Y-143680000D03*
X90471834Y-143680000D03*
G04 #@! TD*
D11*
G04 #@! TO.C,J2*
X72470000Y-73880000D03*
G04 #@! TD*
D10*
G04 #@! TO.C,U6*
X95435505Y-108530000D03*
X94585505Y-108530000D03*
X95435505Y-107680000D03*
X94585505Y-107680000D03*
G04 #@! TD*
D11*
G04 #@! TO.C,J2*
X72470000Y-153880000D03*
G04 #@! TD*
D10*
G04 #@! TO.C,U3*
X83094492Y-188530000D03*
X82244492Y-188530000D03*
X83094492Y-187680000D03*
X82244492Y-187680000D03*
G04 #@! TD*
G04 #@! TO.C,U8*
X103662847Y-48530000D03*
X102812847Y-48530000D03*
X103662847Y-47680000D03*
X102812847Y-47680000D03*
G04 #@! TD*
G04 #@! TO.C,U3*
X83094492Y-200530000D03*
X82244492Y-200530000D03*
X83094492Y-199680000D03*
X82244492Y-199680000D03*
G04 #@! TD*
G04 #@! TO.C,U3*
X83094492Y-84530000D03*
X82244492Y-84530000D03*
X83094492Y-83680000D03*
X82244492Y-83680000D03*
G04 #@! TD*
G04 #@! TO.C,U2*
X78980821Y-128530000D03*
X78130821Y-128530000D03*
X78980821Y-127680000D03*
X78130821Y-127680000D03*
G04 #@! TD*
G04 #@! TO.C,U4*
X87208163Y-64530000D03*
X86358163Y-64530000D03*
X87208163Y-63680000D03*
X86358163Y-63680000D03*
G04 #@! TD*
D11*
G04 #@! TO.C,J4*
X110240000Y-203200000D03*
G04 #@! TD*
D10*
G04 #@! TO.C,U8*
X103662847Y-144530000D03*
X102812847Y-144530000D03*
X103662847Y-143680000D03*
X102812847Y-143680000D03*
G04 #@! TD*
D11*
G04 #@! TO.C,J3*
X72470000Y-75205000D03*
G04 #@! TD*
D10*
G04 #@! TO.C,U5*
X91321834Y-20530000D03*
X90471834Y-20530000D03*
X91321834Y-19680000D03*
X90471834Y-19680000D03*
G04 #@! TD*
D11*
G04 #@! TO.C,J7*
X823163Y-132530000D03*
G04 #@! TD*
G04 #@! TO.C,J9*
X823163Y-75205000D03*
G04 #@! TD*
D10*
G04 #@! TO.C,U7*
X99549176Y-60530000D03*
X98699176Y-60530000D03*
X99549176Y-59680000D03*
X98699176Y-59680000D03*
G04 #@! TD*
D11*
G04 #@! TO.C,J8*
X823163Y-49880000D03*
G04 #@! TD*
D10*
G04 #@! TO.C,U5*
X91321834Y-72530000D03*
X90471834Y-72530000D03*
X91321834Y-71680000D03*
X90471834Y-71680000D03*
G04 #@! TD*
D11*
G04 #@! TO.C,J9*
X823163Y-163205000D03*
G04 #@! TD*
G04 #@! TO.C,J1*
X72470000Y-164530000D03*
G04 #@! TD*
D10*
G04 #@! TO.C,U5*
X91321834Y-168530000D03*
X90471834Y-168530000D03*
X91321834Y-167680000D03*
X90471834Y-167680000D03*
G04 #@! TD*
G04 #@! TO.C,U4*
X87208163Y-112530000D03*
X86358163Y-112530000D03*
X87208163Y-111680000D03*
X86358163Y-111680000D03*
G04 #@! TD*
D11*
G04 #@! TO.C,J4*
X110240000Y-107200000D03*
G04 #@! TD*
G04 #@! TO.C,J9*
X823163Y-191205000D03*
G04 #@! TD*
D10*
G04 #@! TO.C,U6*
X95435505Y-84530000D03*
X94585505Y-84530000D03*
X95435505Y-83680000D03*
X94585505Y-83680000D03*
G04 #@! TD*
D13*
G04 #@! TO.C,REF\u002A\u002A*
X15000000Y-3350000D03*
G04 #@! TD*
D11*
G04 #@! TO.C,J1*
X72470000Y-84530000D03*
G04 #@! TD*
G04 #@! TO.C,J3*
X72470000Y-51205000D03*
G04 #@! TD*
G04 #@! TO.C,J5*
X110240000Y-128525000D03*
G04 #@! TD*
D10*
G04 #@! TO.C,U5*
X91321834Y-8530000D03*
X90471834Y-8530000D03*
X91321834Y-7680000D03*
X90471834Y-7680000D03*
G04 #@! TD*
G04 #@! TO.C,U4*
X87208163Y-92530000D03*
X86358163Y-92530000D03*
X87208163Y-91680000D03*
X86358163Y-91680000D03*
G04 #@! TD*
D11*
G04 #@! TO.C,J2*
X72470000Y-53880000D03*
G04 #@! TD*
G04 #@! TO.C,J4*
X110240000Y-191200000D03*
G04 #@! TD*
D10*
G04 #@! TO.C,U9*
X107776522Y-44530000D03*
X106926522Y-44530000D03*
X107776522Y-43680000D03*
X106926522Y-43680000D03*
G04 #@! TD*
D11*
G04 #@! TO.C,J4*
X110240000Y-23200000D03*
G04 #@! TD*
D10*
G04 #@! TO.C,U3*
X83094492Y-160530000D03*
X82244492Y-160530000D03*
X83094492Y-159680000D03*
X82244492Y-159680000D03*
G04 #@! TD*
D13*
G04 #@! TO.C,REF\u002A\u002A*
X15000000Y-207050000D03*
G04 #@! TD*
D10*
G04 #@! TO.C,U8*
X103662847Y-168530000D03*
X102812847Y-168530000D03*
X103662847Y-167680000D03*
X102812847Y-167680000D03*
G04 #@! TD*
D11*
G04 #@! TO.C,J3*
X72470000Y-7205000D03*
G04 #@! TD*
G04 #@! TO.C,J5*
X110240000Y-96525000D03*
G04 #@! TD*
D10*
G04 #@! TO.C,U3*
X83094492Y-108530000D03*
X82244492Y-108530000D03*
X83094492Y-107680000D03*
X82244492Y-107680000D03*
G04 #@! TD*
G04 #@! TO.C,U5*
X91321834Y-184530000D03*
X90471834Y-184530000D03*
X91321834Y-183680000D03*
X90471834Y-183680000D03*
G04 #@! TD*
D11*
G04 #@! TO.C,J7*
X823163Y-104530000D03*
G04 #@! TD*
G04 #@! TO.C,J8*
X823163Y-101880000D03*
G04 #@! TD*
D10*
G04 #@! TO.C,U9*
X107776522Y-152530000D03*
X106926522Y-152530000D03*
X107776522Y-151680000D03*
X106926522Y-151680000D03*
G04 #@! TD*
G04 #@! TO.C,U8*
X103662847Y-140530000D03*
X102812847Y-140530000D03*
X103662847Y-139680000D03*
X102812847Y-139680000D03*
G04 #@! TD*
G04 #@! TO.C,U5*
X91321834Y-196530000D03*
X90471834Y-196530000D03*
X91321834Y-195680000D03*
X90471834Y-195680000D03*
G04 #@! TD*
G04 #@! TO.C,U2*
X78980821Y-144530000D03*
X78130821Y-144530000D03*
X78980821Y-143680000D03*
X78130821Y-143680000D03*
G04 #@! TD*
D11*
G04 #@! TO.C,J3*
X72470000Y-155205000D03*
G04 #@! TD*
D10*
G04 #@! TO.C,U7*
X99549176Y-116530000D03*
X98699176Y-116530000D03*
X99549176Y-115680000D03*
X98699176Y-115680000D03*
G04 #@! TD*
G04 #@! TO.C,U9*
X107776522Y-20530000D03*
X106926522Y-20530000D03*
X107776522Y-19680000D03*
X106926522Y-19680000D03*
G04 #@! TD*
D11*
G04 #@! TO.C,J9*
X823163Y-19205000D03*
G04 #@! TD*
G04 #@! TO.C,J8*
X823163Y-37880000D03*
G04 #@! TD*
D10*
G04 #@! TO.C,U2*
X78980821Y-80530000D03*
X78130821Y-80530000D03*
X78980821Y-79680000D03*
X78130821Y-79680000D03*
G04 #@! TD*
G04 #@! TO.C,U6*
X95435505Y-192530000D03*
X94585505Y-192530000D03*
X95435505Y-191680000D03*
X94585505Y-191680000D03*
G04 #@! TD*
D11*
G04 #@! TO.C,J1*
X72470000Y-56530000D03*
G04 #@! TD*
D10*
G04 #@! TO.C,U4*
X87208163Y-44530000D03*
X86358163Y-44530000D03*
X87208163Y-43680000D03*
X86358163Y-43680000D03*
G04 #@! TD*
D11*
G04 #@! TO.C,J4*
X110240000Y-111200000D03*
G04 #@! TD*
D10*
G04 #@! TO.C,U5*
X91321834Y-68530000D03*
X90471834Y-68530000D03*
X91321834Y-67680000D03*
X90471834Y-67680000D03*
G04 #@! TD*
G04 #@! TO.C,U8*
X103662847Y-76530000D03*
X102812847Y-76530000D03*
X103662847Y-75680000D03*
X102812847Y-75680000D03*
G04 #@! TD*
G04 #@! TO.C,U8*
X103662847Y-64530000D03*
X102812847Y-64530000D03*
X103662847Y-63680000D03*
X102812847Y-63680000D03*
G04 #@! TD*
G04 #@! TO.C,U4*
X87208163Y-56530000D03*
X86358163Y-56530000D03*
X87208163Y-55680000D03*
X86358163Y-55680000D03*
G04 #@! TD*
D11*
G04 #@! TO.C,J2*
X72470000Y-177880000D03*
G04 #@! TD*
G04 #@! TO.C,J3*
X72470000Y-187205000D03*
G04 #@! TD*
G04 #@! TO.C,J4*
X110240000Y-147200000D03*
G04 #@! TD*
G04 #@! TO.C,J9*
X823163Y-71205000D03*
G04 #@! TD*
G04 #@! TO.C,J4*
X110240000Y-35200000D03*
G04 #@! TD*
D10*
G04 #@! TO.C,U5*
X91321834Y-128530000D03*
X90471834Y-128530000D03*
X91321834Y-127680000D03*
X90471834Y-127680000D03*
G04 #@! TD*
D11*
G04 #@! TO.C,J7*
X823163Y-152530000D03*
G04 #@! TD*
G04 #@! TO.C,J7*
X823163Y-176530000D03*
G04 #@! TD*
G04 #@! TO.C,J2*
X72470000Y-109880000D03*
G04 #@! TD*
G04 #@! TO.C,J1*
X72470000Y-16530000D03*
G04 #@! TD*
G04 #@! TO.C,J3*
X72470000Y-191205000D03*
G04 #@! TD*
D10*
G04 #@! TO.C,U7*
X99549176Y-92530000D03*
X98699176Y-92530000D03*
X99549176Y-91680000D03*
X98699176Y-91680000D03*
G04 #@! TD*
G04 #@! TO.C,U2*
X78980821Y-96530000D03*
X78130821Y-96530000D03*
X78980821Y-95680000D03*
X78130821Y-95680000D03*
G04 #@! TD*
G04 #@! TO.C,U7*
X99549176Y-32530000D03*
X98699176Y-32530000D03*
X99549176Y-31680000D03*
X98699176Y-31680000D03*
G04 #@! TD*
D11*
G04 #@! TO.C,J6*
X110240000Y-97875000D03*
G04 #@! TD*
G04 #@! TO.C,J2*
X72470000Y-85880000D03*
G04 #@! TD*
G04 #@! TO.C,J4*
X110240000Y-43200000D03*
G04 #@! TD*
D10*
G04 #@! TO.C,U3*
X83094492Y-40530000D03*
X82244492Y-40530000D03*
X83094492Y-39680000D03*
X82244492Y-39680000D03*
G04 #@! TD*
G04 #@! TO.C,U8*
X103662847Y-80530000D03*
X102812847Y-80530000D03*
X103662847Y-79680000D03*
X102812847Y-79680000D03*
G04 #@! TD*
G04 #@! TO.C,U6*
X95435505Y-96530000D03*
X94585505Y-96530000D03*
X95435505Y-95680000D03*
X94585505Y-95680000D03*
G04 #@! TD*
D11*
G04 #@! TO.C,J6*
X110240000Y-185875000D03*
G04 #@! TD*
G04 #@! TO.C,J2*
X72470000Y-33880000D03*
G04 #@! TD*
G04 #@! TO.C,J8*
X823163Y-109880000D03*
G04 #@! TD*
G04 #@! TO.C,J5*
X110240000Y-148525000D03*
G04 #@! TD*
D10*
G04 #@! TO.C,U9*
X107776522Y-168530000D03*
X106926522Y-168530000D03*
X107776522Y-167680000D03*
X106926522Y-167680000D03*
G04 #@! TD*
D11*
G04 #@! TO.C,J5*
X110240000Y-204525000D03*
G04 #@! TD*
D10*
G04 #@! TO.C,U2*
X78980821Y-92530000D03*
X78130821Y-92530000D03*
X78980821Y-91680000D03*
X78130821Y-91680000D03*
G04 #@! TD*
G04 #@! TO.C,U3*
X83094492Y-44530000D03*
X82244492Y-44530000D03*
X83094492Y-43680000D03*
X82244492Y-43680000D03*
G04 #@! TD*
D11*
G04 #@! TO.C,J8*
X823163Y-41880000D03*
G04 #@! TD*
G04 #@! TO.C,J5*
X110240000Y-52525000D03*
G04 #@! TD*
G04 #@! TO.C,J6*
X110240000Y-105875000D03*
G04 #@! TD*
G04 #@! TO.C,J3*
X72470000Y-203205000D03*
G04 #@! TD*
D10*
G04 #@! TO.C,U8*
X103662847Y-164530000D03*
X102812847Y-164530000D03*
X103662847Y-163680000D03*
X102812847Y-163680000D03*
G04 #@! TD*
G04 #@! TO.C,U4*
X87208163Y-172530000D03*
X86358163Y-172530000D03*
X87208163Y-171680000D03*
X86358163Y-171680000D03*
G04 #@! TD*
D11*
G04 #@! TO.C,J7*
X823163Y-116530000D03*
G04 #@! TD*
G04 #@! TO.C,J2*
X72470000Y-145880000D03*
G04 #@! TD*
D10*
G04 #@! TO.C,U5*
X91321834Y-44530000D03*
X90471834Y-44530000D03*
X91321834Y-43680000D03*
X90471834Y-43680000D03*
G04 #@! TD*
D11*
G04 #@! TO.C,J4*
X110240000Y-39200000D03*
G04 #@! TD*
G04 #@! TO.C,J6*
X110240000Y-201875000D03*
G04 #@! TD*
D10*
G04 #@! TO.C,U2*
X78980821Y-124530000D03*
X78130821Y-124530000D03*
X78980821Y-123680000D03*
X78130821Y-123680000D03*
G04 #@! TD*
D11*
G04 #@! TO.C,J7*
X823163Y-136530000D03*
G04 #@! TD*
G04 #@! TO.C,J4*
X110240000Y-19200000D03*
G04 #@! TD*
G04 #@! TO.C,J8*
X823163Y-133880000D03*
G04 #@! TD*
D10*
G04 #@! TO.C,U8*
X103662847Y-56530000D03*
X102812847Y-56530000D03*
X103662847Y-55680000D03*
X102812847Y-55680000D03*
G04 #@! TD*
D11*
G04 #@! TO.C,J6*
X110240000Y-73875000D03*
G04 #@! TD*
D10*
G04 #@! TO.C,U2*
X78980821Y-52530000D03*
X78130821Y-52530000D03*
X78980821Y-51680000D03*
X78130821Y-51680000D03*
G04 #@! TD*
D11*
G04 #@! TO.C,J7*
X823163Y-160530000D03*
G04 #@! TD*
G04 #@! TO.C,J5*
X110240000Y-56525000D03*
G04 #@! TD*
G04 #@! TO.C,J9*
X823163Y-79205000D03*
G04 #@! TD*
D10*
G04 #@! TO.C,U2*
X78980821Y-200530000D03*
X78130821Y-200530000D03*
X78980821Y-199680000D03*
X78130821Y-199680000D03*
G04 #@! TD*
G04 #@! TO.C,U2*
X78980821Y-108530000D03*
X78130821Y-108530000D03*
X78980821Y-107680000D03*
X78130821Y-107680000D03*
G04 #@! TD*
D11*
G04 #@! TO.C,J2*
X72470000Y-105880000D03*
G04 #@! TD*
D10*
G04 #@! TO.C,U7*
X99549176Y-196530000D03*
X98699176Y-196530000D03*
X99549176Y-195680000D03*
X98699176Y-195680000D03*
G04 #@! TD*
D11*
G04 #@! TO.C,J8*
X823163Y-5880000D03*
G04 #@! TD*
G04 #@! TO.C,J4*
X110240000Y-119200000D03*
G04 #@! TD*
D10*
G04 #@! TO.C,U5*
X91321834Y-108530000D03*
X90471834Y-108530000D03*
X91321834Y-107680000D03*
X90471834Y-107680000D03*
G04 #@! TD*
D11*
G04 #@! TO.C,J4*
X110240000Y-59200000D03*
G04 #@! TD*
G04 #@! TO.C,J3*
X72470000Y-123205000D03*
G04 #@! TD*
G04 #@! TO.C,J2*
X72470000Y-89880000D03*
G04 #@! TD*
G04 #@! TO.C,J7*
X823163Y-12530000D03*
G04 #@! TD*
D10*
G04 #@! TO.C,U3*
X83094492Y-92530000D03*
X82244492Y-92530000D03*
X83094492Y-91680000D03*
X82244492Y-91680000D03*
G04 #@! TD*
D11*
G04 #@! TO.C,J8*
X823163Y-149880000D03*
G04 #@! TD*
G04 #@! TO.C,J7*
X823163Y-76530000D03*
G04 #@! TD*
D10*
G04 #@! TO.C,U4*
X87208163Y-136530000D03*
X86358163Y-136530000D03*
X87208163Y-135680000D03*
X86358163Y-135680000D03*
G04 #@! TD*
G04 #@! TO.C,U8*
X103662847Y-84530000D03*
X102812847Y-84530000D03*
X103662847Y-83680000D03*
X102812847Y-83680000D03*
G04 #@! TD*
D11*
G04 #@! TO.C,J9*
X823163Y-11205000D03*
G04 #@! TD*
G04 #@! TO.C,J9*
X823163Y-179205000D03*
G04 #@! TD*
D10*
G04 #@! TO.C,U5*
X91321834Y-116530000D03*
X90471834Y-116530000D03*
X91321834Y-115680000D03*
X90471834Y-115680000D03*
G04 #@! TD*
G04 #@! TO.C,U1*
X74867150Y-128530000D03*
X74017150Y-128530000D03*
X74867150Y-127680000D03*
X74017150Y-127680000D03*
G04 #@! TD*
G04 #@! TO.C,U8*
X103662847Y-192530000D03*
X102812847Y-192530000D03*
X103662847Y-191680000D03*
X102812847Y-191680000D03*
G04 #@! TD*
D11*
G04 #@! TO.C,J1*
X72470000Y-156530000D03*
G04 #@! TD*
G04 #@! TO.C,J8*
X823163Y-105880000D03*
G04 #@! TD*
D10*
G04 #@! TO.C,U6*
X95435505Y-92530000D03*
X94585505Y-92530000D03*
X95435505Y-91680000D03*
X94585505Y-91680000D03*
G04 #@! TD*
G04 #@! TO.C,U2*
X78980821Y-160530000D03*
X78130821Y-160530000D03*
X78980821Y-159680000D03*
X78130821Y-159680000D03*
G04 #@! TD*
G04 #@! TO.C,U8*
X103662847Y-196530000D03*
X102812847Y-196530000D03*
X103662847Y-195680000D03*
X102812847Y-195680000D03*
G04 #@! TD*
D11*
G04 #@! TO.C,J9*
X823163Y-91205000D03*
G04 #@! TD*
D10*
G04 #@! TO.C,U4*
X87208163Y-8530000D03*
X86358163Y-8530000D03*
X87208163Y-7680000D03*
X86358163Y-7680000D03*
G04 #@! TD*
D11*
G04 #@! TO.C,J4*
X110240000Y-151200000D03*
G04 #@! TD*
D10*
G04 #@! TO.C,U2*
X78980821Y-176530000D03*
X78130821Y-176530000D03*
X78980821Y-175680000D03*
X78130821Y-175680000D03*
G04 #@! TD*
D11*
G04 #@! TO.C,J2*
X72470000Y-181880000D03*
G04 #@! TD*
D10*
G04 #@! TO.C,U4*
X87208163Y-160530000D03*
X86358163Y-160530000D03*
X87208163Y-159680000D03*
X86358163Y-159680000D03*
G04 #@! TD*
G04 #@! TO.C,U6*
X95435505Y-12530000D03*
X94585505Y-12530000D03*
X95435505Y-11680000D03*
X94585505Y-11680000D03*
G04 #@! TD*
G04 #@! TO.C,U8*
X103662847Y-148530000D03*
X102812847Y-148530000D03*
X103662847Y-147680000D03*
X102812847Y-147680000D03*
G04 #@! TD*
D11*
G04 #@! TO.C,J6*
X110240000Y-61875000D03*
G04 #@! TD*
G04 #@! TO.C,J1*
X72470000Y-68530000D03*
G04 #@! TD*
D10*
G04 #@! TO.C,U9*
X107776522Y-124530000D03*
X106926522Y-124530000D03*
X107776522Y-123680000D03*
X106926522Y-123680000D03*
G04 #@! TD*
D11*
G04 #@! TO.C,J1*
X72470000Y-24530000D03*
G04 #@! TD*
D10*
G04 #@! TO.C,U2*
X78980821Y-204530000D03*
X78130821Y-204530000D03*
X78980821Y-203680000D03*
X78130821Y-203680000D03*
G04 #@! TD*
D11*
G04 #@! TO.C,J9*
X823163Y-139205000D03*
G04 #@! TD*
D10*
G04 #@! TO.C,U8*
X103662847Y-20530000D03*
X102812847Y-20530000D03*
X103662847Y-19680000D03*
X102812847Y-19680000D03*
G04 #@! TD*
G04 #@! TO.C,U8*
X103662847Y-72530000D03*
X102812847Y-72530000D03*
X103662847Y-71680000D03*
X102812847Y-71680000D03*
G04 #@! TD*
D11*
G04 #@! TO.C,J8*
X823163Y-201880000D03*
G04 #@! TD*
D10*
G04 #@! TO.C,U5*
X91321834Y-60530000D03*
X90471834Y-60530000D03*
X91321834Y-59680000D03*
X90471834Y-59680000D03*
G04 #@! TD*
D11*
G04 #@! TO.C,J7*
X823163Y-20530000D03*
G04 #@! TD*
D10*
G04 #@! TO.C,U8*
X103662847Y-116530000D03*
X102812847Y-116530000D03*
X103662847Y-115680000D03*
X102812847Y-115680000D03*
G04 #@! TD*
G04 #@! TO.C,U8*
X103662847Y-32530000D03*
X102812847Y-32530000D03*
X103662847Y-31680000D03*
X102812847Y-31680000D03*
G04 #@! TD*
G04 #@! TO.C,U2*
X78980821Y-188530000D03*
X78130821Y-188530000D03*
X78980821Y-187680000D03*
X78130821Y-187680000D03*
G04 #@! TD*
D11*
G04 #@! TO.C,J7*
X823163Y-32530000D03*
G04 #@! TD*
G04 #@! TO.C,J7*
X823163Y-180530000D03*
G04 #@! TD*
D10*
G04 #@! TO.C,U2*
X78980821Y-172530000D03*
X78130821Y-172530000D03*
X78980821Y-171680000D03*
X78130821Y-171680000D03*
G04 #@! TD*
G04 #@! TO.C,U3*
X83094492Y-64530000D03*
X82244492Y-64530000D03*
X83094492Y-63680000D03*
X82244492Y-63680000D03*
G04 #@! TD*
D11*
G04 #@! TO.C,J3*
X72470000Y-139205000D03*
G04 #@! TD*
G04 #@! TO.C,J8*
X823163Y-125880000D03*
G04 #@! TD*
G04 #@! TO.C,J9*
X823163Y-47205000D03*
G04 #@! TD*
D10*
G04 #@! TO.C,U6*
X95435505Y-200530000D03*
X94585505Y-200530000D03*
X95435505Y-199680000D03*
X94585505Y-199680000D03*
G04 #@! TD*
G04 #@! TO.C,U7*
X99549176Y-120530000D03*
X98699176Y-120530000D03*
X99549176Y-119680000D03*
X98699176Y-119680000D03*
G04 #@! TD*
G04 #@! TO.C,U6*
X95435505Y-8530000D03*
X94585505Y-8530000D03*
X95435505Y-7680000D03*
X94585505Y-7680000D03*
G04 #@! TD*
D11*
G04 #@! TO.C,J7*
X823163Y-8530000D03*
G04 #@! TD*
G04 #@! TO.C,J5*
X110240000Y-48525000D03*
G04 #@! TD*
G04 #@! TO.C,J9*
X823163Y-119205000D03*
G04 #@! TD*
G04 #@! TO.C,J1*
X72470000Y-72530000D03*
G04 #@! TD*
G04 #@! TO.C,J9*
X823163Y-111205000D03*
G04 #@! TD*
G04 #@! TO.C,J3*
X72470000Y-127205000D03*
G04 #@! TD*
D10*
G04 #@! TO.C,U9*
X107776522Y-164530000D03*
X106926522Y-164530000D03*
X107776522Y-163680000D03*
X106926522Y-163680000D03*
G04 #@! TD*
G04 #@! TO.C,U1*
X74867150Y-12530000D03*
X74017150Y-12530000D03*
X74867150Y-11680000D03*
X74017150Y-11680000D03*
G04 #@! TD*
G04 #@! TO.C,U5*
X91321834Y-180530000D03*
X90471834Y-180530000D03*
X91321834Y-179680000D03*
X90471834Y-179680000D03*
G04 #@! TD*
D11*
G04 #@! TO.C,J9*
X823163Y-95205000D03*
G04 #@! TD*
D10*
G04 #@! TO.C,U4*
X87208163Y-152530000D03*
X86358163Y-152530000D03*
X87208163Y-151680000D03*
X86358163Y-151680000D03*
G04 #@! TD*
D11*
G04 #@! TO.C,J1*
X72470000Y-116530000D03*
G04 #@! TD*
G04 #@! TO.C,J7*
X823163Y-24530000D03*
G04 #@! TD*
D10*
G04 #@! TO.C,U6*
X95435505Y-184530000D03*
X94585505Y-184530000D03*
X95435505Y-183680000D03*
X94585505Y-183680000D03*
G04 #@! TD*
D11*
G04 #@! TO.C,J1*
X72470000Y-100530000D03*
G04 #@! TD*
D10*
G04 #@! TO.C,U7*
X99549176Y-124530000D03*
X98699176Y-124530000D03*
X99549176Y-123680000D03*
X98699176Y-123680000D03*
G04 #@! TD*
D11*
G04 #@! TO.C,J8*
X823163Y-25880000D03*
G04 #@! TD*
D10*
G04 #@! TO.C,U7*
X99549176Y-180530000D03*
X98699176Y-180530000D03*
X99549176Y-179680000D03*
X98699176Y-179680000D03*
G04 #@! TD*
D11*
G04 #@! TO.C,J1*
X72470000Y-132530000D03*
G04 #@! TD*
D10*
G04 #@! TO.C,U5*
X91321834Y-188530000D03*
X90471834Y-188530000D03*
X91321834Y-187680000D03*
X90471834Y-187680000D03*
G04 #@! TD*
D11*
G04 #@! TO.C,J6*
X110240000Y-45875000D03*
G04 #@! TD*
D10*
G04 #@! TO.C,U4*
X87208163Y-156530000D03*
X86358163Y-156530000D03*
X87208163Y-155680000D03*
X86358163Y-155680000D03*
G04 #@! TD*
G04 #@! TO.C,U4*
X87208163Y-52530000D03*
X86358163Y-52530000D03*
X87208163Y-51680000D03*
X86358163Y-51680000D03*
G04 #@! TD*
D11*
G04 #@! TO.C,J6*
X110240000Y-13875000D03*
G04 #@! TD*
D10*
G04 #@! TO.C,U2*
X78980821Y-192530000D03*
X78130821Y-192530000D03*
X78980821Y-191680000D03*
X78130821Y-191680000D03*
G04 #@! TD*
D11*
G04 #@! TO.C,J5*
X110240000Y-44525000D03*
G04 #@! TD*
G04 #@! TO.C,J1*
X72470000Y-32530000D03*
G04 #@! TD*
G04 #@! TO.C,J6*
X110240000Y-77875000D03*
G04 #@! TD*
D10*
G04 #@! TO.C,U5*
X91321834Y-192530000D03*
X90471834Y-192530000D03*
X91321834Y-191680000D03*
X90471834Y-191680000D03*
G04 #@! TD*
G04 #@! TO.C,U6*
X95435505Y-112530000D03*
X94585505Y-112530000D03*
X95435505Y-111680000D03*
X94585505Y-111680000D03*
G04 #@! TD*
G04 #@! TO.C,U9*
X107776522Y-96530000D03*
X106926522Y-96530000D03*
X107776522Y-95680000D03*
X106926522Y-95680000D03*
G04 #@! TD*
G04 #@! TO.C,U3*
X83094492Y-88530000D03*
X82244492Y-88530000D03*
X83094492Y-87680000D03*
X82244492Y-87680000D03*
G04 #@! TD*
D11*
G04 #@! TO.C,J1*
X72470000Y-204530000D03*
G04 #@! TD*
G04 #@! TO.C,J5*
X110240000Y-168525000D03*
G04 #@! TD*
G04 #@! TO.C,J4*
X110240000Y-95200000D03*
G04 #@! TD*
G04 #@! TO.C,J5*
X110240000Y-24525000D03*
G04 #@! TD*
D10*
G04 #@! TO.C,U5*
X91321834Y-24530000D03*
X90471834Y-24530000D03*
X91321834Y-23680000D03*
X90471834Y-23680000D03*
G04 #@! TD*
D11*
G04 #@! TO.C,J2*
X72470000Y-57880000D03*
G04 #@! TD*
D10*
G04 #@! TO.C,U5*
X91321834Y-52530000D03*
X90471834Y-52530000D03*
X91321834Y-51680000D03*
X90471834Y-51680000D03*
G04 #@! TD*
D11*
G04 #@! TO.C,J5*
X110240000Y-88525000D03*
G04 #@! TD*
G04 #@! TO.C,J4*
X110240000Y-83200000D03*
G04 #@! TD*
G04 #@! TO.C,J4*
X110240000Y-99200000D03*
G04 #@! TD*
G04 #@! TO.C,J6*
X110240000Y-121875000D03*
G04 #@! TD*
G04 #@! TO.C,J5*
X110240000Y-16525000D03*
G04 #@! TD*
D10*
G04 #@! TO.C,U9*
X107776522Y-28530000D03*
X106926522Y-28530000D03*
X107776522Y-27680000D03*
X106926522Y-27680000D03*
G04 #@! TD*
G04 #@! TO.C,U5*
X91321834Y-172530000D03*
X90471834Y-172530000D03*
X91321834Y-171680000D03*
X90471834Y-171680000D03*
G04 #@! TD*
G04 #@! TO.C,U1*
X74867150Y-192530000D03*
X74017150Y-192530000D03*
X74867150Y-191680000D03*
X74017150Y-191680000D03*
G04 #@! TD*
G04 #@! TO.C,U8*
X103662847Y-152530000D03*
X102812847Y-152530000D03*
X103662847Y-151680000D03*
X102812847Y-151680000D03*
G04 #@! TD*
D11*
G04 #@! TO.C,J6*
X110240000Y-165875000D03*
G04 #@! TD*
D10*
G04 #@! TO.C,U5*
X91321834Y-88530000D03*
X90471834Y-88530000D03*
X91321834Y-87680000D03*
X90471834Y-87680000D03*
G04 #@! TD*
G04 #@! TO.C,U1*
X74867150Y-112530000D03*
X74017150Y-112530000D03*
X74867150Y-111680000D03*
X74017150Y-111680000D03*
G04 #@! TD*
G04 #@! TO.C,U8*
X103662847Y-68530000D03*
X102812847Y-68530000D03*
X103662847Y-67680000D03*
X102812847Y-67680000D03*
G04 #@! TD*
D11*
G04 #@! TO.C,J2*
X72470000Y-117880000D03*
G04 #@! TD*
G04 #@! TO.C,J8*
X823163Y-113880000D03*
G04 #@! TD*
G04 #@! TO.C,J6*
X110240000Y-9875000D03*
G04 #@! TD*
G04 #@! TO.C,J5*
X110240000Y-176525000D03*
G04 #@! TD*
D10*
G04 #@! TO.C,U4*
X87208163Y-204530000D03*
X86358163Y-204530000D03*
X87208163Y-203680000D03*
X86358163Y-203680000D03*
G04 #@! TD*
D11*
G04 #@! TO.C,J1*
X72470000Y-92530000D03*
G04 #@! TD*
G04 #@! TO.C,J7*
X823163Y-192530000D03*
G04 #@! TD*
D10*
G04 #@! TO.C,U8*
X103662847Y-52530000D03*
X102812847Y-52530000D03*
X103662847Y-51680000D03*
X102812847Y-51680000D03*
G04 #@! TD*
G04 #@! TO.C,U8*
X103662847Y-184530000D03*
X102812847Y-184530000D03*
X103662847Y-183680000D03*
X102812847Y-183680000D03*
G04 #@! TD*
G04 #@! TO.C,U1*
X74867150Y-172530000D03*
X74017150Y-172530000D03*
X74867150Y-171680000D03*
X74017150Y-171680000D03*
G04 #@! TD*
G04 #@! TO.C,U3*
X83094492Y-48530000D03*
X82244492Y-48530000D03*
X83094492Y-47680000D03*
X82244492Y-47680000D03*
G04 #@! TD*
G04 #@! TO.C,U9*
X107776522Y-76530000D03*
X106926522Y-76530000D03*
X107776522Y-75680000D03*
X106926522Y-75680000D03*
G04 #@! TD*
D11*
G04 #@! TO.C,J2*
X72470000Y-61880000D03*
G04 #@! TD*
D10*
G04 #@! TO.C,U8*
X103662847Y-128530000D03*
X102812847Y-128530000D03*
X103662847Y-127680000D03*
X102812847Y-127680000D03*
G04 #@! TD*
D11*
G04 #@! TO.C,J3*
X72470000Y-135205000D03*
G04 #@! TD*
D10*
G04 #@! TO.C,U8*
X103662847Y-200530000D03*
X102812847Y-200530000D03*
X103662847Y-199680000D03*
X102812847Y-199680000D03*
G04 #@! TD*
D11*
G04 #@! TO.C,J5*
X110240000Y-152525000D03*
G04 #@! TD*
G04 #@! TO.C,J2*
X72470000Y-77880000D03*
G04 #@! TD*
D10*
G04 #@! TO.C,U6*
X95435505Y-60530000D03*
X94585505Y-60530000D03*
X95435505Y-59680000D03*
X94585505Y-59680000D03*
G04 #@! TD*
D11*
G04 #@! TO.C,J2*
X72470000Y-37880000D03*
G04 #@! TD*
G04 #@! TO.C,J7*
X823163Y-120530000D03*
G04 #@! TD*
G04 #@! TO.C,J8*
X823163Y-69880000D03*
G04 #@! TD*
G04 #@! TO.C,J1*
X72470000Y-168530000D03*
G04 #@! TD*
G04 #@! TO.C,J9*
X823163Y-159205000D03*
G04 #@! TD*
G04 #@! TO.C,J8*
X823163Y-57880000D03*
G04 #@! TD*
G04 #@! TO.C,J1*
X72470000Y-48530000D03*
G04 #@! TD*
G04 #@! TO.C,J1*
X72470000Y-44530000D03*
G04 #@! TD*
D10*
G04 #@! TO.C,U3*
X83094492Y-96530000D03*
X82244492Y-96530000D03*
X83094492Y-95680000D03*
X82244492Y-95680000D03*
G04 #@! TD*
D11*
G04 #@! TO.C,J7*
X823163Y-96530000D03*
G04 #@! TD*
G04 #@! TO.C,J4*
X110240000Y-15200000D03*
G04 #@! TD*
D10*
G04 #@! TO.C,U7*
X99549176Y-44530000D03*
X98699176Y-44530000D03*
X99549176Y-43680000D03*
X98699176Y-43680000D03*
G04 #@! TD*
G04 #@! TO.C,U7*
X99549176Y-88530000D03*
X98699176Y-88530000D03*
X99549176Y-87680000D03*
X98699176Y-87680000D03*
G04 #@! TD*
D11*
G04 #@! TO.C,J4*
X110240000Y-123200000D03*
G04 #@! TD*
G04 #@! TO.C,J1*
X72470000Y-120530000D03*
G04 #@! TD*
D10*
G04 #@! TO.C,U4*
X87208163Y-48530000D03*
X86358163Y-48530000D03*
X87208163Y-47680000D03*
X86358163Y-47680000D03*
G04 #@! TD*
D11*
G04 #@! TO.C,J7*
X823163Y-188530000D03*
G04 #@! TD*
G04 #@! TO.C,J5*
X110240000Y-100525000D03*
G04 #@! TD*
D10*
G04 #@! TO.C,U5*
X91321834Y-92530000D03*
X90471834Y-92530000D03*
X91321834Y-91680000D03*
X90471834Y-91680000D03*
G04 #@! TD*
G04 #@! TO.C,U9*
X107776522Y-52530000D03*
X106926522Y-52530000D03*
X107776522Y-51680000D03*
X106926522Y-51680000D03*
G04 #@! TD*
G04 #@! TO.C,U7*
X99549176Y-52530000D03*
X98699176Y-52530000D03*
X99549176Y-51680000D03*
X98699176Y-51680000D03*
G04 #@! TD*
D11*
G04 #@! TO.C,J4*
X110240000Y-131200000D03*
G04 #@! TD*
D10*
G04 #@! TO.C,U9*
X107776522Y-148530000D03*
X106926522Y-148530000D03*
X107776522Y-147680000D03*
X106926522Y-147680000D03*
G04 #@! TD*
G04 #@! TO.C,U2*
X78980821Y-196530000D03*
X78130821Y-196530000D03*
X78980821Y-195680000D03*
X78130821Y-195680000D03*
G04 #@! TD*
G04 #@! TO.C,U9*
X107776522Y-180530000D03*
X106926522Y-180530000D03*
X107776522Y-179680000D03*
X106926522Y-179680000D03*
G04 #@! TD*
G04 #@! TO.C,U9*
X107776522Y-140530000D03*
X106926522Y-140530000D03*
X107776522Y-139680000D03*
X106926522Y-139680000D03*
G04 #@! TD*
G04 #@! TO.C,U1*
X74867150Y-164530000D03*
X74017150Y-164530000D03*
X74867150Y-163680000D03*
X74017150Y-163680000D03*
G04 #@! TD*
G04 #@! TO.C,U1*
X74867150Y-20530000D03*
X74017150Y-20530000D03*
X74867150Y-19680000D03*
X74017150Y-19680000D03*
G04 #@! TD*
D11*
G04 #@! TO.C,J8*
X823163Y-153880000D03*
G04 #@! TD*
D10*
G04 #@! TO.C,U1*
X74867150Y-76530000D03*
X74017150Y-76530000D03*
X74867150Y-75680000D03*
X74017150Y-75680000D03*
G04 #@! TD*
D11*
G04 #@! TO.C,J1*
X72470000Y-180530000D03*
G04 #@! TD*
D10*
G04 #@! TO.C,U6*
X95435505Y-36530000D03*
X94585505Y-36530000D03*
X95435505Y-35680000D03*
X94585505Y-35680000D03*
G04 #@! TD*
G04 #@! TO.C,U9*
X107776522Y-184530000D03*
X106926522Y-184530000D03*
X107776522Y-183680000D03*
X106926522Y-183680000D03*
G04 #@! TD*
G04 #@! TO.C,U5*
X91321834Y-104530000D03*
X90471834Y-104530000D03*
X91321834Y-103680000D03*
X90471834Y-103680000D03*
G04 #@! TD*
D11*
G04 #@! TO.C,J4*
X110240000Y-139200000D03*
G04 #@! TD*
D10*
G04 #@! TO.C,U2*
X78980821Y-136530000D03*
X78130821Y-136530000D03*
X78980821Y-135680000D03*
X78130821Y-135680000D03*
G04 #@! TD*
G04 #@! TO.C,U8*
X103662847Y-156530000D03*
X102812847Y-156530000D03*
X103662847Y-155680000D03*
X102812847Y-155680000D03*
G04 #@! TD*
G04 #@! TO.C,U3*
X83094492Y-20530000D03*
X82244492Y-20530000D03*
X83094492Y-19680000D03*
X82244492Y-19680000D03*
G04 #@! TD*
G04 #@! TO.C,U1*
X74867150Y-96530000D03*
X74017150Y-96530000D03*
X74867150Y-95680000D03*
X74017150Y-95680000D03*
G04 #@! TD*
D11*
G04 #@! TO.C,J7*
X823163Y-108530000D03*
G04 #@! TD*
D10*
G04 #@! TO.C,U4*
X87208163Y-16530000D03*
X86358163Y-16530000D03*
X87208163Y-15680000D03*
X86358163Y-15680000D03*
G04 #@! TD*
D11*
G04 #@! TO.C,J6*
X110240000Y-117875000D03*
G04 #@! TD*
D10*
G04 #@! TO.C,U4*
X87208163Y-12530000D03*
X86358163Y-12530000D03*
X87208163Y-11680000D03*
X86358163Y-11680000D03*
G04 #@! TD*
G04 #@! TO.C,U4*
X87208163Y-176530000D03*
X86358163Y-176530000D03*
X87208163Y-175680000D03*
X86358163Y-175680000D03*
G04 #@! TD*
G04 #@! TO.C,U1*
X74867150Y-188530000D03*
X74017150Y-188530000D03*
X74867150Y-187680000D03*
X74017150Y-187680000D03*
G04 #@! TD*
D11*
G04 #@! TO.C,J8*
X823163Y-141880000D03*
G04 #@! TD*
G04 #@! TO.C,J4*
X110240000Y-75200000D03*
G04 #@! TD*
D10*
G04 #@! TO.C,U7*
X99549176Y-176530000D03*
X98699176Y-176530000D03*
X99549176Y-175680000D03*
X98699176Y-175680000D03*
G04 #@! TD*
G04 #@! TO.C,U5*
X91321834Y-204530000D03*
X90471834Y-204530000D03*
X91321834Y-203680000D03*
X90471834Y-203680000D03*
G04 #@! TD*
G04 #@! TO.C,U2*
X78980821Y-88530000D03*
X78130821Y-88530000D03*
X78980821Y-87680000D03*
X78130821Y-87680000D03*
G04 #@! TD*
D11*
G04 #@! TO.C,J6*
X110240000Y-53875000D03*
G04 #@! TD*
D10*
G04 #@! TO.C,U6*
X95435505Y-28530000D03*
X94585505Y-28530000D03*
X95435505Y-27680000D03*
X94585505Y-27680000D03*
G04 #@! TD*
G04 #@! TO.C,U2*
X78980821Y-8530000D03*
X78130821Y-8530000D03*
X78980821Y-7680000D03*
X78130821Y-7680000D03*
G04 #@! TD*
D11*
G04 #@! TO.C,J5*
X110240000Y-112525000D03*
G04 #@! TD*
G04 #@! TO.C,J8*
X823163Y-157880000D03*
G04 #@! TD*
G04 #@! TO.C,J7*
X823163Y-128530000D03*
G04 #@! TD*
G04 #@! TO.C,J7*
X823163Y-28530000D03*
G04 #@! TD*
D10*
G04 #@! TO.C,U7*
X99549176Y-140530000D03*
X98699176Y-140530000D03*
X99549176Y-139680000D03*
X98699176Y-139680000D03*
G04 #@! TD*
D11*
G04 #@! TO.C,J1*
X72470000Y-128530000D03*
G04 #@! TD*
D10*
G04 #@! TO.C,U8*
X103662847Y-12530000D03*
X102812847Y-12530000D03*
X103662847Y-11680000D03*
X102812847Y-11680000D03*
G04 #@! TD*
G04 #@! TO.C,U4*
X87208163Y-40530000D03*
X86358163Y-40530000D03*
X87208163Y-39680000D03*
X86358163Y-39680000D03*
G04 #@! TD*
D11*
G04 #@! TO.C,J9*
X823163Y-99205000D03*
G04 #@! TD*
G04 #@! TO.C,J2*
X72470000Y-169880000D03*
G04 #@! TD*
D10*
G04 #@! TO.C,U9*
X107776522Y-172530000D03*
X106926522Y-172530000D03*
X107776522Y-171680000D03*
X106926522Y-171680000D03*
G04 #@! TD*
D11*
G04 #@! TO.C,J9*
X823163Y-103205000D03*
G04 #@! TD*
D10*
G04 #@! TO.C,U1*
X74867150Y-80530000D03*
X74017150Y-80530000D03*
X74867150Y-79680000D03*
X74017150Y-79680000D03*
G04 #@! TD*
G04 #@! TO.C,U9*
X107776522Y-192530000D03*
X106926522Y-192530000D03*
X107776522Y-191680000D03*
X106926522Y-191680000D03*
G04 #@! TD*
G04 #@! TO.C,U9*
X107776522Y-160530000D03*
X106926522Y-160530000D03*
X107776522Y-159680000D03*
X106926522Y-159680000D03*
G04 #@! TD*
D11*
G04 #@! TO.C,J9*
X823163Y-7205000D03*
G04 #@! TD*
D10*
G04 #@! TO.C,U6*
X95435505Y-152530000D03*
X94585505Y-152530000D03*
X95435505Y-151680000D03*
X94585505Y-151680000D03*
G04 #@! TD*
D11*
G04 #@! TO.C,J6*
X110240000Y-81875000D03*
G04 #@! TD*
D10*
G04 #@! TO.C,U6*
X95435505Y-136530000D03*
X94585505Y-136530000D03*
X95435505Y-135680000D03*
X94585505Y-135680000D03*
G04 #@! TD*
G04 #@! TO.C,U8*
X103662847Y-160530000D03*
X102812847Y-160530000D03*
X103662847Y-159680000D03*
X102812847Y-159680000D03*
G04 #@! TD*
D11*
G04 #@! TO.C,J6*
X110240000Y-125875000D03*
G04 #@! TD*
D10*
G04 #@! TO.C,U4*
X87208163Y-200530000D03*
X86358163Y-200530000D03*
X87208163Y-199680000D03*
X86358163Y-199680000D03*
G04 #@! TD*
D11*
G04 #@! TO.C,J7*
X823163Y-164530000D03*
G04 #@! TD*
D10*
G04 #@! TO.C,U5*
X91321834Y-140530000D03*
X90471834Y-140530000D03*
X91321834Y-139680000D03*
X90471834Y-139680000D03*
G04 #@! TD*
D11*
G04 #@! TO.C,J9*
X823163Y-51205000D03*
G04 #@! TD*
D10*
G04 #@! TO.C,U1*
X74867150Y-88530000D03*
X74017150Y-88530000D03*
X74867150Y-87680000D03*
X74017150Y-87680000D03*
G04 #@! TD*
G04 #@! TO.C,U6*
X95435505Y-124530000D03*
X94585505Y-124530000D03*
X95435505Y-123680000D03*
X94585505Y-123680000D03*
G04 #@! TD*
G04 #@! TO.C,U4*
X87208163Y-188530000D03*
X86358163Y-188530000D03*
X87208163Y-187680000D03*
X86358163Y-187680000D03*
G04 #@! TD*
D11*
G04 #@! TO.C,J4*
X110240000Y-11200000D03*
G04 #@! TD*
G04 #@! TO.C,J5*
X110240000Y-200525000D03*
G04 #@! TD*
G04 #@! TO.C,J5*
X110240000Y-80525000D03*
G04 #@! TD*
G04 #@! TO.C,J1*
X72470000Y-20530000D03*
G04 #@! TD*
G04 #@! TO.C,J9*
X823163Y-15205000D03*
G04 #@! TD*
G04 #@! TO.C,J7*
X823163Y-36530000D03*
G04 #@! TD*
G04 #@! TO.C,J2*
X72470000Y-93880000D03*
G04 #@! TD*
G04 #@! TO.C,J4*
X110240000Y-135200000D03*
G04 #@! TD*
D10*
G04 #@! TO.C,U1*
X74867150Y-28530000D03*
X74017150Y-28530000D03*
X74867150Y-27680000D03*
X74017150Y-27680000D03*
G04 #@! TD*
G04 #@! TO.C,U1*
X74867150Y-44530000D03*
X74017150Y-44530000D03*
X74867150Y-43680000D03*
X74017150Y-43680000D03*
G04 #@! TD*
D11*
G04 #@! TO.C,J3*
X72470000Y-23205000D03*
G04 #@! TD*
G04 #@! TO.C,J5*
X110240000Y-156525000D03*
G04 #@! TD*
D10*
G04 #@! TO.C,U5*
X91321834Y-156530000D03*
X90471834Y-156530000D03*
X91321834Y-155680000D03*
X90471834Y-155680000D03*
G04 #@! TD*
G04 #@! TO.C,U4*
X87208163Y-88530000D03*
X86358163Y-88530000D03*
X87208163Y-87680000D03*
X86358163Y-87680000D03*
G04 #@! TD*
D11*
G04 #@! TO.C,J4*
X110240000Y-183200000D03*
G04 #@! TD*
G04 #@! TO.C,J4*
X110240000Y-47200000D03*
G04 #@! TD*
D10*
G04 #@! TO.C,U3*
X83094492Y-12530000D03*
X82244492Y-12530000D03*
X83094492Y-11680000D03*
X82244492Y-11680000D03*
G04 #@! TD*
D11*
G04 #@! TO.C,J3*
X72470000Y-111205000D03*
G04 #@! TD*
G04 #@! TO.C,J6*
X110240000Y-177875000D03*
G04 #@! TD*
D10*
G04 #@! TO.C,U7*
X99549176Y-168530000D03*
X98699176Y-168530000D03*
X99549176Y-167680000D03*
X98699176Y-167680000D03*
G04 #@! TD*
G04 #@! TO.C,U6*
X95435505Y-132530000D03*
X94585505Y-132530000D03*
X95435505Y-131680000D03*
X94585505Y-131680000D03*
G04 #@! TD*
D11*
G04 #@! TO.C,J9*
X823163Y-43205000D03*
G04 #@! TD*
G04 #@! TO.C,J2*
X72470000Y-129880000D03*
G04 #@! TD*
G04 #@! TO.C,J5*
X110240000Y-132525000D03*
G04 #@! TD*
D10*
G04 #@! TO.C,U5*
X91321834Y-112530000D03*
X90471834Y-112530000D03*
X91321834Y-111680000D03*
X90471834Y-111680000D03*
G04 #@! TD*
D11*
G04 #@! TO.C,J1*
X72470000Y-96530000D03*
G04 #@! TD*
D10*
G04 #@! TO.C,U5*
X91321834Y-28530000D03*
X90471834Y-28530000D03*
X91321834Y-27680000D03*
X90471834Y-27680000D03*
G04 #@! TD*
G04 #@! TO.C,U8*
X103662847Y-112530000D03*
X102812847Y-112530000D03*
X103662847Y-111680000D03*
X102812847Y-111680000D03*
G04 #@! TD*
G04 #@! TO.C,U9*
X107776522Y-16530000D03*
X106926522Y-16530000D03*
X107776522Y-15680000D03*
X106926522Y-15680000D03*
G04 #@! TD*
G04 #@! TO.C,U1*
X74867150Y-120530000D03*
X74017150Y-120530000D03*
X74867150Y-119680000D03*
X74017150Y-119680000D03*
G04 #@! TD*
G04 #@! TO.C,U9*
X107776522Y-12530000D03*
X106926522Y-12530000D03*
X107776522Y-11680000D03*
X106926522Y-11680000D03*
G04 #@! TD*
D11*
G04 #@! TO.C,J8*
X823163Y-185880000D03*
G04 #@! TD*
D10*
G04 #@! TO.C,U2*
X78980821Y-184530000D03*
X78130821Y-184530000D03*
X78980821Y-183680000D03*
X78130821Y-183680000D03*
G04 #@! TD*
G04 #@! TO.C,U6*
X95435505Y-128530000D03*
X94585505Y-128530000D03*
X95435505Y-127680000D03*
X94585505Y-127680000D03*
G04 #@! TD*
G04 #@! TO.C,U5*
X91321834Y-56530000D03*
X90471834Y-56530000D03*
X91321834Y-55680000D03*
X90471834Y-55680000D03*
G04 #@! TD*
G04 #@! TO.C,U4*
X87208163Y-168530000D03*
X86358163Y-168530000D03*
X87208163Y-167680000D03*
X86358163Y-167680000D03*
G04 #@! TD*
D11*
G04 #@! TO.C,J2*
X72470000Y-161880000D03*
G04 #@! TD*
D10*
G04 #@! TO.C,U4*
X87208163Y-148530000D03*
X86358163Y-148530000D03*
X87208163Y-147680000D03*
X86358163Y-147680000D03*
G04 #@! TD*
D11*
G04 #@! TO.C,J9*
X823163Y-39205000D03*
G04 #@! TD*
D10*
G04 #@! TO.C,U9*
X107776522Y-64530000D03*
X106926522Y-64530000D03*
X107776522Y-63680000D03*
X106926522Y-63680000D03*
G04 #@! TD*
G04 #@! TO.C,U9*
X107776522Y-60530000D03*
X106926522Y-60530000D03*
X107776522Y-59680000D03*
X106926522Y-59680000D03*
G04 #@! TD*
D11*
G04 #@! TO.C,J4*
X110240000Y-51200000D03*
G04 #@! TD*
D10*
G04 #@! TO.C,U2*
X78980821Y-24530000D03*
X78130821Y-24530000D03*
X78980821Y-23680000D03*
X78130821Y-23680000D03*
G04 #@! TD*
D11*
G04 #@! TO.C,J9*
X823163Y-127205000D03*
G04 #@! TD*
D10*
G04 #@! TO.C,U3*
X83094492Y-136530000D03*
X82244492Y-136530000D03*
X83094492Y-135680000D03*
X82244492Y-135680000D03*
G04 #@! TD*
G04 #@! TO.C,U1*
X74867150Y-204530000D03*
X74017150Y-204530000D03*
X74867150Y-203680000D03*
X74017150Y-203680000D03*
G04 #@! TD*
D11*
G04 #@! TO.C,J8*
X823163Y-73880000D03*
G04 #@! TD*
G04 #@! TO.C,J2*
X72470000Y-41880000D03*
G04 #@! TD*
D10*
G04 #@! TO.C,U7*
X99549176Y-152530000D03*
X98699176Y-152530000D03*
X99549176Y-151680000D03*
X98699176Y-151680000D03*
G04 #@! TD*
D11*
G04 #@! TO.C,J2*
X72470000Y-157880000D03*
G04 #@! TD*
D10*
G04 #@! TO.C,U6*
X95435505Y-140530000D03*
X94585505Y-140530000D03*
X95435505Y-139680000D03*
X94585505Y-139680000D03*
G04 #@! TD*
D11*
G04 #@! TO.C,J3*
X72470000Y-175205000D03*
G04 #@! TD*
D10*
G04 #@! TO.C,U8*
X103662847Y-172530000D03*
X102812847Y-172530000D03*
X103662847Y-171680000D03*
X102812847Y-171680000D03*
G04 #@! TD*
D11*
G04 #@! TO.C,J9*
X823163Y-183205000D03*
G04 #@! TD*
D10*
G04 #@! TO.C,U8*
X103662847Y-92530000D03*
X102812847Y-92530000D03*
X103662847Y-91680000D03*
X102812847Y-91680000D03*
G04 #@! TD*
G04 #@! TO.C,U8*
X103662847Y-104530000D03*
X102812847Y-104530000D03*
X103662847Y-103680000D03*
X102812847Y-103680000D03*
G04 #@! TD*
G04 #@! TO.C,U2*
X78980821Y-100530000D03*
X78130821Y-100530000D03*
X78980821Y-99680000D03*
X78130821Y-99680000D03*
G04 #@! TD*
G04 #@! TO.C,U7*
X99549176Y-200530000D03*
X98699176Y-200530000D03*
X99549176Y-199680000D03*
X98699176Y-199680000D03*
G04 #@! TD*
G04 #@! TO.C,U1*
X74867150Y-144530000D03*
X74017150Y-144530000D03*
X74867150Y-143680000D03*
X74017150Y-143680000D03*
G04 #@! TD*
D11*
G04 #@! TO.C,J2*
X72470000Y-193880000D03*
G04 #@! TD*
D10*
G04 #@! TO.C,U7*
X99549176Y-20530000D03*
X98699176Y-20530000D03*
X99549176Y-19680000D03*
X98699176Y-19680000D03*
G04 #@! TD*
G04 #@! TO.C,U2*
X78980821Y-20530000D03*
X78130821Y-20530000D03*
X78980821Y-19680000D03*
X78130821Y-19680000D03*
G04 #@! TD*
G04 #@! TO.C,U6*
X95435505Y-24530000D03*
X94585505Y-24530000D03*
X95435505Y-23680000D03*
X94585505Y-23680000D03*
G04 #@! TD*
G04 #@! TO.C,U1*
X74867150Y-168530000D03*
X74017150Y-168530000D03*
X74867150Y-167680000D03*
X74017150Y-167680000D03*
G04 #@! TD*
G04 #@! TO.C,U3*
X83094492Y-56530000D03*
X82244492Y-56530000D03*
X83094492Y-55680000D03*
X82244492Y-55680000D03*
G04 #@! TD*
G04 #@! TO.C,U4*
X87208163Y-36530000D03*
X86358163Y-36530000D03*
X87208163Y-35680000D03*
X86358163Y-35680000D03*
G04 #@! TD*
G04 #@! TO.C,U9*
X107776522Y-80530000D03*
X106926522Y-80530000D03*
X107776522Y-79680000D03*
X106926522Y-79680000D03*
G04 #@! TD*
G04 #@! TO.C,U3*
X83094492Y-184530000D03*
X82244492Y-184530000D03*
X83094492Y-183680000D03*
X82244492Y-183680000D03*
G04 #@! TD*
D11*
G04 #@! TO.C,J5*
X110240000Y-40525000D03*
G04 #@! TD*
G04 #@! TO.C,J8*
X823163Y-181880000D03*
G04 #@! TD*
G04 #@! TO.C,J9*
X823163Y-175205000D03*
G04 #@! TD*
G04 #@! TO.C,J7*
X823163Y-40530000D03*
G04 #@! TD*
D10*
G04 #@! TO.C,U7*
X99549176Y-72530000D03*
X98699176Y-72530000D03*
X99549176Y-71680000D03*
X98699176Y-71680000D03*
G04 #@! TD*
G04 #@! TO.C,U5*
X91321834Y-76530000D03*
X90471834Y-76530000D03*
X91321834Y-75680000D03*
X90471834Y-75680000D03*
G04 #@! TD*
D11*
G04 #@! TO.C,J1*
X72470000Y-140530000D03*
G04 #@! TD*
G04 #@! TO.C,J2*
X72470000Y-69880000D03*
G04 #@! TD*
D10*
G04 #@! TO.C,U4*
X87208163Y-84530000D03*
X86358163Y-84530000D03*
X87208163Y-83680000D03*
X86358163Y-83680000D03*
G04 #@! TD*
G04 #@! TO.C,U6*
X95435505Y-76530000D03*
X94585505Y-76530000D03*
X95435505Y-75680000D03*
X94585505Y-75680000D03*
G04 #@! TD*
G04 #@! TO.C,U9*
X107776522Y-68530000D03*
X106926522Y-68530000D03*
X107776522Y-67680000D03*
X106926522Y-67680000D03*
G04 #@! TD*
D11*
G04 #@! TO.C,J5*
X110240000Y-32525000D03*
G04 #@! TD*
G04 #@! TO.C,J1*
X72470000Y-160530000D03*
G04 #@! TD*
G04 #@! TO.C,J4*
X110240000Y-87200000D03*
G04 #@! TD*
G04 #@! TO.C,J2*
X72470000Y-149880000D03*
G04 #@! TD*
D10*
G04 #@! TO.C,U3*
X83094492Y-60530000D03*
X82244492Y-60530000D03*
X83094492Y-59680000D03*
X82244492Y-59680000D03*
G04 #@! TD*
M02*
