G04 #@! TF.GenerationSoftware,KiCad,Pcbnew,7.0.2-6a45011f42~172~ubuntu22.04.1*
G04 #@! TF.CreationDate,2023-07-04T12:46:50+08:00*
G04 #@! TF.ProjectId,panel_10_1,70616e65-6c5f-4313-905f-312e6b696361,rev?*
G04 #@! TF.SameCoordinates,Original*
G04 #@! TF.FileFunction,Legend,Top*
G04 #@! TF.FilePolarity,Positive*
%FSLAX46Y46*%
G04 Gerber Fmt 4.6, Leading zero omitted, Abs format (unit mm)*
G04 Created by KiCad (PCBNEW 7.0.2-6a45011f42~172~ubuntu22.04.1) date 2023-07-04 12:46:50*
%MOMM*%
%LPD*%
G01*
G04 APERTURE LIST*
%ADD10C,0.120000*%
%ADD11C,0.250000*%
%ADD12C,0.100000*%
G04 APERTURE END LIST*
D10*
X70395000Y-35090000D02*
X111075000Y-35090000D01*
X111075000Y-38915000D01*
X70395000Y-38915000D01*
X70395000Y-35090000D01*
X70395000Y-15090000D02*
X111075000Y-15090000D01*
X111075000Y-18915000D01*
X70395000Y-18915000D01*
X70395000Y-15090000D01*
X70395000Y-27090000D02*
X111075000Y-27090000D01*
X111075000Y-30915000D01*
X70395000Y-30915000D01*
X70395000Y-27090000D01*
X70395000Y-31090000D02*
X111075000Y-31090000D01*
X111075000Y-34915000D01*
X70395000Y-34915000D01*
X70395000Y-31090000D01*
X70395000Y-39090000D02*
X111075000Y-39090000D01*
X111075000Y-42915000D01*
X70395000Y-42915000D01*
X70395000Y-39090000D01*
X70395000Y-23090000D02*
X111075000Y-23090000D01*
X111075000Y-26915000D01*
X70395000Y-26915000D01*
X70395000Y-23090000D01*
X70395000Y-19090000D02*
X111075000Y-19090000D01*
X111075000Y-22915000D01*
X70395000Y-22915000D01*
X70395000Y-19090000D01*
X70395000Y-43090000D02*
X111075000Y-43090000D01*
X111075000Y-46915000D01*
X70395000Y-46915000D01*
X70395000Y-43090000D01*
X70395000Y-47090000D02*
X111075000Y-47090000D01*
X111075000Y-50915000D01*
X70395000Y-50915000D01*
X70395000Y-47090000D01*
X70395000Y-51090000D02*
X111075000Y-51090000D01*
X111075000Y-54915000D01*
X70395000Y-54915000D01*
X70395000Y-51090000D01*
D11*
X109414761Y-48030476D02*
X109462380Y-47906666D01*
X109462380Y-47906666D02*
X109462380Y-47720952D01*
X109462380Y-47720952D02*
X109414761Y-47535238D01*
X109414761Y-47535238D02*
X109319523Y-47411428D01*
X109319523Y-47411428D02*
X109224285Y-47349523D01*
X109224285Y-47349523D02*
X109033809Y-47287619D01*
X109033809Y-47287619D02*
X108890952Y-47287619D01*
X108890952Y-47287619D02*
X108700476Y-47349523D01*
X108700476Y-47349523D02*
X108605238Y-47411428D01*
X108605238Y-47411428D02*
X108510000Y-47535238D01*
X108510000Y-47535238D02*
X108462380Y-47720952D01*
X108462380Y-47720952D02*
X108462380Y-47844761D01*
X108462380Y-47844761D02*
X108510000Y-48030476D01*
X108510000Y-48030476D02*
X108557619Y-48092380D01*
X108557619Y-48092380D02*
X108890952Y-48092380D01*
X108890952Y-48092380D02*
X108890952Y-47844761D01*
X109462380Y-48897142D02*
X109462380Y-49144761D01*
X109462380Y-49144761D02*
X109414761Y-49268571D01*
X109414761Y-49268571D02*
X109319523Y-49392380D01*
X109319523Y-49392380D02*
X109129047Y-49454285D01*
X109129047Y-49454285D02*
X108795714Y-49454285D01*
X108795714Y-49454285D02*
X108605238Y-49392380D01*
X108605238Y-49392380D02*
X108510000Y-49268571D01*
X108510000Y-49268571D02*
X108462380Y-49144761D01*
X108462380Y-49144761D02*
X108462380Y-48897142D01*
X108462380Y-48897142D02*
X108510000Y-48773333D01*
X108510000Y-48773333D02*
X108605238Y-48649523D01*
X108605238Y-48649523D02*
X108795714Y-48587619D01*
X108795714Y-48587619D02*
X109129047Y-48587619D01*
X109129047Y-48587619D02*
X109319523Y-48649523D01*
X109319523Y-48649523D02*
X109414761Y-48773333D01*
X109414761Y-48773333D02*
X109462380Y-48897142D01*
X109462380Y-49825714D02*
X108462380Y-50259047D01*
X108462380Y-50259047D02*
X109462380Y-50692381D01*
X71564761Y-28090476D02*
X71612380Y-27966666D01*
X71612380Y-27966666D02*
X71612380Y-27780952D01*
X71612380Y-27780952D02*
X71564761Y-27595238D01*
X71564761Y-27595238D02*
X71469523Y-27471428D01*
X71469523Y-27471428D02*
X71374285Y-27409523D01*
X71374285Y-27409523D02*
X71183809Y-27347619D01*
X71183809Y-27347619D02*
X71040952Y-27347619D01*
X71040952Y-27347619D02*
X70850476Y-27409523D01*
X70850476Y-27409523D02*
X70755238Y-27471428D01*
X70755238Y-27471428D02*
X70660000Y-27595238D01*
X70660000Y-27595238D02*
X70612380Y-27780952D01*
X70612380Y-27780952D02*
X70612380Y-27904761D01*
X70612380Y-27904761D02*
X70660000Y-28090476D01*
X70660000Y-28090476D02*
X70707619Y-28152380D01*
X70707619Y-28152380D02*
X71040952Y-28152380D01*
X71040952Y-28152380D02*
X71040952Y-27904761D01*
X70612380Y-28709523D02*
X71612380Y-28709523D01*
X71612380Y-28709523D02*
X71612380Y-29019047D01*
X71612380Y-29019047D02*
X71564761Y-29204761D01*
X71564761Y-29204761D02*
X71469523Y-29328571D01*
X71469523Y-29328571D02*
X71374285Y-29390476D01*
X71374285Y-29390476D02*
X71183809Y-29452380D01*
X71183809Y-29452380D02*
X71040952Y-29452380D01*
X71040952Y-29452380D02*
X70850476Y-29390476D01*
X70850476Y-29390476D02*
X70755238Y-29328571D01*
X70755238Y-29328571D02*
X70660000Y-29204761D01*
X70660000Y-29204761D02*
X70612380Y-29019047D01*
X70612380Y-29019047D02*
X70612380Y-28709523D01*
X71612380Y-29823809D02*
X70612380Y-30257142D01*
X70612380Y-30257142D02*
X71612380Y-30690476D01*
X2717924Y-24065476D02*
X2765543Y-23941666D01*
X2765543Y-23941666D02*
X2765543Y-23755952D01*
X2765543Y-23755952D02*
X2717924Y-23570238D01*
X2717924Y-23570238D02*
X2622686Y-23446428D01*
X2622686Y-23446428D02*
X2527448Y-23384523D01*
X2527448Y-23384523D02*
X2336972Y-23322619D01*
X2336972Y-23322619D02*
X2194115Y-23322619D01*
X2194115Y-23322619D02*
X2003639Y-23384523D01*
X2003639Y-23384523D02*
X1908401Y-23446428D01*
X1908401Y-23446428D02*
X1813163Y-23570238D01*
X1813163Y-23570238D02*
X1765543Y-23755952D01*
X1765543Y-23755952D02*
X1765543Y-23879761D01*
X1765543Y-23879761D02*
X1813163Y-24065476D01*
X1813163Y-24065476D02*
X1860782Y-24127380D01*
X1860782Y-24127380D02*
X2194115Y-24127380D01*
X2194115Y-24127380D02*
X2194115Y-23879761D01*
X1765543Y-24684523D02*
X2765543Y-24684523D01*
X2765543Y-24684523D02*
X2765543Y-24994047D01*
X2765543Y-24994047D02*
X2717924Y-25179761D01*
X2717924Y-25179761D02*
X2622686Y-25303571D01*
X2622686Y-25303571D02*
X2527448Y-25365476D01*
X2527448Y-25365476D02*
X2336972Y-25427380D01*
X2336972Y-25427380D02*
X2194115Y-25427380D01*
X2194115Y-25427380D02*
X2003639Y-25365476D01*
X2003639Y-25365476D02*
X1908401Y-25303571D01*
X1908401Y-25303571D02*
X1813163Y-25179761D01*
X1813163Y-25179761D02*
X1765543Y-24994047D01*
X1765543Y-24994047D02*
X1765543Y-24684523D01*
X2765543Y-25798809D02*
X1765543Y-26232142D01*
X1765543Y-26232142D02*
X2765543Y-26665476D01*
X109414761Y-16030476D02*
X109462380Y-15906666D01*
X109462380Y-15906666D02*
X109462380Y-15720952D01*
X109462380Y-15720952D02*
X109414761Y-15535238D01*
X109414761Y-15535238D02*
X109319523Y-15411428D01*
X109319523Y-15411428D02*
X109224285Y-15349523D01*
X109224285Y-15349523D02*
X109033809Y-15287619D01*
X109033809Y-15287619D02*
X108890952Y-15287619D01*
X108890952Y-15287619D02*
X108700476Y-15349523D01*
X108700476Y-15349523D02*
X108605238Y-15411428D01*
X108605238Y-15411428D02*
X108510000Y-15535238D01*
X108510000Y-15535238D02*
X108462380Y-15720952D01*
X108462380Y-15720952D02*
X108462380Y-15844761D01*
X108462380Y-15844761D02*
X108510000Y-16030476D01*
X108510000Y-16030476D02*
X108557619Y-16092380D01*
X108557619Y-16092380D02*
X108890952Y-16092380D01*
X108890952Y-16092380D02*
X108890952Y-15844761D01*
X109462380Y-16897142D02*
X109462380Y-17144761D01*
X109462380Y-17144761D02*
X109414761Y-17268571D01*
X109414761Y-17268571D02*
X109319523Y-17392380D01*
X109319523Y-17392380D02*
X109129047Y-17454285D01*
X109129047Y-17454285D02*
X108795714Y-17454285D01*
X108795714Y-17454285D02*
X108605238Y-17392380D01*
X108605238Y-17392380D02*
X108510000Y-17268571D01*
X108510000Y-17268571D02*
X108462380Y-17144761D01*
X108462380Y-17144761D02*
X108462380Y-16897142D01*
X108462380Y-16897142D02*
X108510000Y-16773333D01*
X108510000Y-16773333D02*
X108605238Y-16649523D01*
X108605238Y-16649523D02*
X108795714Y-16587619D01*
X108795714Y-16587619D02*
X109129047Y-16587619D01*
X109129047Y-16587619D02*
X109319523Y-16649523D01*
X109319523Y-16649523D02*
X109414761Y-16773333D01*
X109414761Y-16773333D02*
X109462380Y-16897142D01*
X109462380Y-17825714D02*
X108462380Y-18259047D01*
X108462380Y-18259047D02*
X109462380Y-18692381D01*
X71564761Y-52090476D02*
X71612380Y-51966666D01*
X71612380Y-51966666D02*
X71612380Y-51780952D01*
X71612380Y-51780952D02*
X71564761Y-51595238D01*
X71564761Y-51595238D02*
X71469523Y-51471428D01*
X71469523Y-51471428D02*
X71374285Y-51409523D01*
X71374285Y-51409523D02*
X71183809Y-51347619D01*
X71183809Y-51347619D02*
X71040952Y-51347619D01*
X71040952Y-51347619D02*
X70850476Y-51409523D01*
X70850476Y-51409523D02*
X70755238Y-51471428D01*
X70755238Y-51471428D02*
X70660000Y-51595238D01*
X70660000Y-51595238D02*
X70612380Y-51780952D01*
X70612380Y-51780952D02*
X70612380Y-51904761D01*
X70612380Y-51904761D02*
X70660000Y-52090476D01*
X70660000Y-52090476D02*
X70707619Y-52152380D01*
X70707619Y-52152380D02*
X71040952Y-52152380D01*
X71040952Y-52152380D02*
X71040952Y-51904761D01*
X70612380Y-52709523D02*
X71612380Y-52709523D01*
X71612380Y-52709523D02*
X71612380Y-53019047D01*
X71612380Y-53019047D02*
X71564761Y-53204761D01*
X71564761Y-53204761D02*
X71469523Y-53328571D01*
X71469523Y-53328571D02*
X71374285Y-53390476D01*
X71374285Y-53390476D02*
X71183809Y-53452380D01*
X71183809Y-53452380D02*
X71040952Y-53452380D01*
X71040952Y-53452380D02*
X70850476Y-53390476D01*
X70850476Y-53390476D02*
X70755238Y-53328571D01*
X70755238Y-53328571D02*
X70660000Y-53204761D01*
X70660000Y-53204761D02*
X70612380Y-53019047D01*
X70612380Y-53019047D02*
X70612380Y-52709523D01*
X71612380Y-53823809D02*
X70612380Y-54257142D01*
X70612380Y-54257142D02*
X71612380Y-54690476D01*
X109414761Y-44030476D02*
X109462380Y-43906666D01*
X109462380Y-43906666D02*
X109462380Y-43720952D01*
X109462380Y-43720952D02*
X109414761Y-43535238D01*
X109414761Y-43535238D02*
X109319523Y-43411428D01*
X109319523Y-43411428D02*
X109224285Y-43349523D01*
X109224285Y-43349523D02*
X109033809Y-43287619D01*
X109033809Y-43287619D02*
X108890952Y-43287619D01*
X108890952Y-43287619D02*
X108700476Y-43349523D01*
X108700476Y-43349523D02*
X108605238Y-43411428D01*
X108605238Y-43411428D02*
X108510000Y-43535238D01*
X108510000Y-43535238D02*
X108462380Y-43720952D01*
X108462380Y-43720952D02*
X108462380Y-43844761D01*
X108462380Y-43844761D02*
X108510000Y-44030476D01*
X108510000Y-44030476D02*
X108557619Y-44092380D01*
X108557619Y-44092380D02*
X108890952Y-44092380D01*
X108890952Y-44092380D02*
X108890952Y-43844761D01*
X109462380Y-44897142D02*
X109462380Y-45144761D01*
X109462380Y-45144761D02*
X109414761Y-45268571D01*
X109414761Y-45268571D02*
X109319523Y-45392380D01*
X109319523Y-45392380D02*
X109129047Y-45454285D01*
X109129047Y-45454285D02*
X108795714Y-45454285D01*
X108795714Y-45454285D02*
X108605238Y-45392380D01*
X108605238Y-45392380D02*
X108510000Y-45268571D01*
X108510000Y-45268571D02*
X108462380Y-45144761D01*
X108462380Y-45144761D02*
X108462380Y-44897142D01*
X108462380Y-44897142D02*
X108510000Y-44773333D01*
X108510000Y-44773333D02*
X108605238Y-44649523D01*
X108605238Y-44649523D02*
X108795714Y-44587619D01*
X108795714Y-44587619D02*
X109129047Y-44587619D01*
X109129047Y-44587619D02*
X109319523Y-44649523D01*
X109319523Y-44649523D02*
X109414761Y-44773333D01*
X109414761Y-44773333D02*
X109462380Y-44897142D01*
X109462380Y-45825714D02*
X108462380Y-46259047D01*
X108462380Y-46259047D02*
X109462380Y-46692381D01*
X71564761Y-40090476D02*
X71612380Y-39966666D01*
X71612380Y-39966666D02*
X71612380Y-39780952D01*
X71612380Y-39780952D02*
X71564761Y-39595238D01*
X71564761Y-39595238D02*
X71469523Y-39471428D01*
X71469523Y-39471428D02*
X71374285Y-39409523D01*
X71374285Y-39409523D02*
X71183809Y-39347619D01*
X71183809Y-39347619D02*
X71040952Y-39347619D01*
X71040952Y-39347619D02*
X70850476Y-39409523D01*
X70850476Y-39409523D02*
X70755238Y-39471428D01*
X70755238Y-39471428D02*
X70660000Y-39595238D01*
X70660000Y-39595238D02*
X70612380Y-39780952D01*
X70612380Y-39780952D02*
X70612380Y-39904761D01*
X70612380Y-39904761D02*
X70660000Y-40090476D01*
X70660000Y-40090476D02*
X70707619Y-40152380D01*
X70707619Y-40152380D02*
X71040952Y-40152380D01*
X71040952Y-40152380D02*
X71040952Y-39904761D01*
X70612380Y-40709523D02*
X71612380Y-40709523D01*
X71612380Y-40709523D02*
X71612380Y-41019047D01*
X71612380Y-41019047D02*
X71564761Y-41204761D01*
X71564761Y-41204761D02*
X71469523Y-41328571D01*
X71469523Y-41328571D02*
X71374285Y-41390476D01*
X71374285Y-41390476D02*
X71183809Y-41452380D01*
X71183809Y-41452380D02*
X71040952Y-41452380D01*
X71040952Y-41452380D02*
X70850476Y-41390476D01*
X70850476Y-41390476D02*
X70755238Y-41328571D01*
X70755238Y-41328571D02*
X70660000Y-41204761D01*
X70660000Y-41204761D02*
X70612380Y-41019047D01*
X70612380Y-41019047D02*
X70612380Y-40709523D01*
X71612380Y-41823809D02*
X70612380Y-42257142D01*
X70612380Y-42257142D02*
X71612380Y-42690476D01*
X71564761Y-48090476D02*
X71612380Y-47966666D01*
X71612380Y-47966666D02*
X71612380Y-47780952D01*
X71612380Y-47780952D02*
X71564761Y-47595238D01*
X71564761Y-47595238D02*
X71469523Y-47471428D01*
X71469523Y-47471428D02*
X71374285Y-47409523D01*
X71374285Y-47409523D02*
X71183809Y-47347619D01*
X71183809Y-47347619D02*
X71040952Y-47347619D01*
X71040952Y-47347619D02*
X70850476Y-47409523D01*
X70850476Y-47409523D02*
X70755238Y-47471428D01*
X70755238Y-47471428D02*
X70660000Y-47595238D01*
X70660000Y-47595238D02*
X70612380Y-47780952D01*
X70612380Y-47780952D02*
X70612380Y-47904761D01*
X70612380Y-47904761D02*
X70660000Y-48090476D01*
X70660000Y-48090476D02*
X70707619Y-48152380D01*
X70707619Y-48152380D02*
X71040952Y-48152380D01*
X71040952Y-48152380D02*
X71040952Y-47904761D01*
X70612380Y-48709523D02*
X71612380Y-48709523D01*
X71612380Y-48709523D02*
X71612380Y-49019047D01*
X71612380Y-49019047D02*
X71564761Y-49204761D01*
X71564761Y-49204761D02*
X71469523Y-49328571D01*
X71469523Y-49328571D02*
X71374285Y-49390476D01*
X71374285Y-49390476D02*
X71183809Y-49452380D01*
X71183809Y-49452380D02*
X71040952Y-49452380D01*
X71040952Y-49452380D02*
X70850476Y-49390476D01*
X70850476Y-49390476D02*
X70755238Y-49328571D01*
X70755238Y-49328571D02*
X70660000Y-49204761D01*
X70660000Y-49204761D02*
X70612380Y-49019047D01*
X70612380Y-49019047D02*
X70612380Y-48709523D01*
X71612380Y-49823809D02*
X70612380Y-50257142D01*
X70612380Y-50257142D02*
X71612380Y-50690476D01*
X71564761Y-36090476D02*
X71612380Y-35966666D01*
X71612380Y-35966666D02*
X71612380Y-35780952D01*
X71612380Y-35780952D02*
X71564761Y-35595238D01*
X71564761Y-35595238D02*
X71469523Y-35471428D01*
X71469523Y-35471428D02*
X71374285Y-35409523D01*
X71374285Y-35409523D02*
X71183809Y-35347619D01*
X71183809Y-35347619D02*
X71040952Y-35347619D01*
X71040952Y-35347619D02*
X70850476Y-35409523D01*
X70850476Y-35409523D02*
X70755238Y-35471428D01*
X70755238Y-35471428D02*
X70660000Y-35595238D01*
X70660000Y-35595238D02*
X70612380Y-35780952D01*
X70612380Y-35780952D02*
X70612380Y-35904761D01*
X70612380Y-35904761D02*
X70660000Y-36090476D01*
X70660000Y-36090476D02*
X70707619Y-36152380D01*
X70707619Y-36152380D02*
X71040952Y-36152380D01*
X71040952Y-36152380D02*
X71040952Y-35904761D01*
X70612380Y-36709523D02*
X71612380Y-36709523D01*
X71612380Y-36709523D02*
X71612380Y-37019047D01*
X71612380Y-37019047D02*
X71564761Y-37204761D01*
X71564761Y-37204761D02*
X71469523Y-37328571D01*
X71469523Y-37328571D02*
X71374285Y-37390476D01*
X71374285Y-37390476D02*
X71183809Y-37452380D01*
X71183809Y-37452380D02*
X71040952Y-37452380D01*
X71040952Y-37452380D02*
X70850476Y-37390476D01*
X70850476Y-37390476D02*
X70755238Y-37328571D01*
X70755238Y-37328571D02*
X70660000Y-37204761D01*
X70660000Y-37204761D02*
X70612380Y-37019047D01*
X70612380Y-37019047D02*
X70612380Y-36709523D01*
X71612380Y-37823809D02*
X70612380Y-38257142D01*
X70612380Y-38257142D02*
X71612380Y-38690476D01*
X71564761Y-44090476D02*
X71612380Y-43966666D01*
X71612380Y-43966666D02*
X71612380Y-43780952D01*
X71612380Y-43780952D02*
X71564761Y-43595238D01*
X71564761Y-43595238D02*
X71469523Y-43471428D01*
X71469523Y-43471428D02*
X71374285Y-43409523D01*
X71374285Y-43409523D02*
X71183809Y-43347619D01*
X71183809Y-43347619D02*
X71040952Y-43347619D01*
X71040952Y-43347619D02*
X70850476Y-43409523D01*
X70850476Y-43409523D02*
X70755238Y-43471428D01*
X70755238Y-43471428D02*
X70660000Y-43595238D01*
X70660000Y-43595238D02*
X70612380Y-43780952D01*
X70612380Y-43780952D02*
X70612380Y-43904761D01*
X70612380Y-43904761D02*
X70660000Y-44090476D01*
X70660000Y-44090476D02*
X70707619Y-44152380D01*
X70707619Y-44152380D02*
X71040952Y-44152380D01*
X71040952Y-44152380D02*
X71040952Y-43904761D01*
X70612380Y-44709523D02*
X71612380Y-44709523D01*
X71612380Y-44709523D02*
X71612380Y-45019047D01*
X71612380Y-45019047D02*
X71564761Y-45204761D01*
X71564761Y-45204761D02*
X71469523Y-45328571D01*
X71469523Y-45328571D02*
X71374285Y-45390476D01*
X71374285Y-45390476D02*
X71183809Y-45452380D01*
X71183809Y-45452380D02*
X71040952Y-45452380D01*
X71040952Y-45452380D02*
X70850476Y-45390476D01*
X70850476Y-45390476D02*
X70755238Y-45328571D01*
X70755238Y-45328571D02*
X70660000Y-45204761D01*
X70660000Y-45204761D02*
X70612380Y-45019047D01*
X70612380Y-45019047D02*
X70612380Y-44709523D01*
X71612380Y-45823809D02*
X70612380Y-46257142D01*
X70612380Y-46257142D02*
X71612380Y-46690476D01*
X109414761Y-32030476D02*
X109462380Y-31906666D01*
X109462380Y-31906666D02*
X109462380Y-31720952D01*
X109462380Y-31720952D02*
X109414761Y-31535238D01*
X109414761Y-31535238D02*
X109319523Y-31411428D01*
X109319523Y-31411428D02*
X109224285Y-31349523D01*
X109224285Y-31349523D02*
X109033809Y-31287619D01*
X109033809Y-31287619D02*
X108890952Y-31287619D01*
X108890952Y-31287619D02*
X108700476Y-31349523D01*
X108700476Y-31349523D02*
X108605238Y-31411428D01*
X108605238Y-31411428D02*
X108510000Y-31535238D01*
X108510000Y-31535238D02*
X108462380Y-31720952D01*
X108462380Y-31720952D02*
X108462380Y-31844761D01*
X108462380Y-31844761D02*
X108510000Y-32030476D01*
X108510000Y-32030476D02*
X108557619Y-32092380D01*
X108557619Y-32092380D02*
X108890952Y-32092380D01*
X108890952Y-32092380D02*
X108890952Y-31844761D01*
X109462380Y-32897142D02*
X109462380Y-33144761D01*
X109462380Y-33144761D02*
X109414761Y-33268571D01*
X109414761Y-33268571D02*
X109319523Y-33392380D01*
X109319523Y-33392380D02*
X109129047Y-33454285D01*
X109129047Y-33454285D02*
X108795714Y-33454285D01*
X108795714Y-33454285D02*
X108605238Y-33392380D01*
X108605238Y-33392380D02*
X108510000Y-33268571D01*
X108510000Y-33268571D02*
X108462380Y-33144761D01*
X108462380Y-33144761D02*
X108462380Y-32897142D01*
X108462380Y-32897142D02*
X108510000Y-32773333D01*
X108510000Y-32773333D02*
X108605238Y-32649523D01*
X108605238Y-32649523D02*
X108795714Y-32587619D01*
X108795714Y-32587619D02*
X109129047Y-32587619D01*
X109129047Y-32587619D02*
X109319523Y-32649523D01*
X109319523Y-32649523D02*
X109414761Y-32773333D01*
X109414761Y-32773333D02*
X109462380Y-32897142D01*
X109462380Y-33825714D02*
X108462380Y-34259047D01*
X108462380Y-34259047D02*
X109462380Y-34692381D01*
X2717924Y-52065476D02*
X2765543Y-51941666D01*
X2765543Y-51941666D02*
X2765543Y-51755952D01*
X2765543Y-51755952D02*
X2717924Y-51570238D01*
X2717924Y-51570238D02*
X2622686Y-51446428D01*
X2622686Y-51446428D02*
X2527448Y-51384523D01*
X2527448Y-51384523D02*
X2336972Y-51322619D01*
X2336972Y-51322619D02*
X2194115Y-51322619D01*
X2194115Y-51322619D02*
X2003639Y-51384523D01*
X2003639Y-51384523D02*
X1908401Y-51446428D01*
X1908401Y-51446428D02*
X1813163Y-51570238D01*
X1813163Y-51570238D02*
X1765543Y-51755952D01*
X1765543Y-51755952D02*
X1765543Y-51879761D01*
X1765543Y-51879761D02*
X1813163Y-52065476D01*
X1813163Y-52065476D02*
X1860782Y-52127380D01*
X1860782Y-52127380D02*
X2194115Y-52127380D01*
X2194115Y-52127380D02*
X2194115Y-51879761D01*
X1765543Y-52684523D02*
X2765543Y-52684523D01*
X2765543Y-52684523D02*
X2765543Y-52994047D01*
X2765543Y-52994047D02*
X2717924Y-53179761D01*
X2717924Y-53179761D02*
X2622686Y-53303571D01*
X2622686Y-53303571D02*
X2527448Y-53365476D01*
X2527448Y-53365476D02*
X2336972Y-53427380D01*
X2336972Y-53427380D02*
X2194115Y-53427380D01*
X2194115Y-53427380D02*
X2003639Y-53365476D01*
X2003639Y-53365476D02*
X1908401Y-53303571D01*
X1908401Y-53303571D02*
X1813163Y-53179761D01*
X1813163Y-53179761D02*
X1765543Y-52994047D01*
X1765543Y-52994047D02*
X1765543Y-52684523D01*
X2765543Y-53798809D02*
X1765543Y-54232142D01*
X1765543Y-54232142D02*
X2765543Y-54665476D01*
X2717924Y-40065476D02*
X2765543Y-39941666D01*
X2765543Y-39941666D02*
X2765543Y-39755952D01*
X2765543Y-39755952D02*
X2717924Y-39570238D01*
X2717924Y-39570238D02*
X2622686Y-39446428D01*
X2622686Y-39446428D02*
X2527448Y-39384523D01*
X2527448Y-39384523D02*
X2336972Y-39322619D01*
X2336972Y-39322619D02*
X2194115Y-39322619D01*
X2194115Y-39322619D02*
X2003639Y-39384523D01*
X2003639Y-39384523D02*
X1908401Y-39446428D01*
X1908401Y-39446428D02*
X1813163Y-39570238D01*
X1813163Y-39570238D02*
X1765543Y-39755952D01*
X1765543Y-39755952D02*
X1765543Y-39879761D01*
X1765543Y-39879761D02*
X1813163Y-40065476D01*
X1813163Y-40065476D02*
X1860782Y-40127380D01*
X1860782Y-40127380D02*
X2194115Y-40127380D01*
X2194115Y-40127380D02*
X2194115Y-39879761D01*
X1765543Y-40684523D02*
X2765543Y-40684523D01*
X2765543Y-40684523D02*
X2765543Y-40994047D01*
X2765543Y-40994047D02*
X2717924Y-41179761D01*
X2717924Y-41179761D02*
X2622686Y-41303571D01*
X2622686Y-41303571D02*
X2527448Y-41365476D01*
X2527448Y-41365476D02*
X2336972Y-41427380D01*
X2336972Y-41427380D02*
X2194115Y-41427380D01*
X2194115Y-41427380D02*
X2003639Y-41365476D01*
X2003639Y-41365476D02*
X1908401Y-41303571D01*
X1908401Y-41303571D02*
X1813163Y-41179761D01*
X1813163Y-41179761D02*
X1765543Y-40994047D01*
X1765543Y-40994047D02*
X1765543Y-40684523D01*
X2765543Y-41798809D02*
X1765543Y-42232142D01*
X1765543Y-42232142D02*
X2765543Y-42665476D01*
X2717924Y-48065476D02*
X2765543Y-47941666D01*
X2765543Y-47941666D02*
X2765543Y-47755952D01*
X2765543Y-47755952D02*
X2717924Y-47570238D01*
X2717924Y-47570238D02*
X2622686Y-47446428D01*
X2622686Y-47446428D02*
X2527448Y-47384523D01*
X2527448Y-47384523D02*
X2336972Y-47322619D01*
X2336972Y-47322619D02*
X2194115Y-47322619D01*
X2194115Y-47322619D02*
X2003639Y-47384523D01*
X2003639Y-47384523D02*
X1908401Y-47446428D01*
X1908401Y-47446428D02*
X1813163Y-47570238D01*
X1813163Y-47570238D02*
X1765543Y-47755952D01*
X1765543Y-47755952D02*
X1765543Y-47879761D01*
X1765543Y-47879761D02*
X1813163Y-48065476D01*
X1813163Y-48065476D02*
X1860782Y-48127380D01*
X1860782Y-48127380D02*
X2194115Y-48127380D01*
X2194115Y-48127380D02*
X2194115Y-47879761D01*
X1765543Y-48684523D02*
X2765543Y-48684523D01*
X2765543Y-48684523D02*
X2765543Y-48994047D01*
X2765543Y-48994047D02*
X2717924Y-49179761D01*
X2717924Y-49179761D02*
X2622686Y-49303571D01*
X2622686Y-49303571D02*
X2527448Y-49365476D01*
X2527448Y-49365476D02*
X2336972Y-49427380D01*
X2336972Y-49427380D02*
X2194115Y-49427380D01*
X2194115Y-49427380D02*
X2003639Y-49365476D01*
X2003639Y-49365476D02*
X1908401Y-49303571D01*
X1908401Y-49303571D02*
X1813163Y-49179761D01*
X1813163Y-49179761D02*
X1765543Y-48994047D01*
X1765543Y-48994047D02*
X1765543Y-48684523D01*
X2765543Y-49798809D02*
X1765543Y-50232142D01*
X1765543Y-50232142D02*
X2765543Y-50665476D01*
X109414761Y-52030476D02*
X109462380Y-51906666D01*
X109462380Y-51906666D02*
X109462380Y-51720952D01*
X109462380Y-51720952D02*
X109414761Y-51535238D01*
X109414761Y-51535238D02*
X109319523Y-51411428D01*
X109319523Y-51411428D02*
X109224285Y-51349523D01*
X109224285Y-51349523D02*
X109033809Y-51287619D01*
X109033809Y-51287619D02*
X108890952Y-51287619D01*
X108890952Y-51287619D02*
X108700476Y-51349523D01*
X108700476Y-51349523D02*
X108605238Y-51411428D01*
X108605238Y-51411428D02*
X108510000Y-51535238D01*
X108510000Y-51535238D02*
X108462380Y-51720952D01*
X108462380Y-51720952D02*
X108462380Y-51844761D01*
X108462380Y-51844761D02*
X108510000Y-52030476D01*
X108510000Y-52030476D02*
X108557619Y-52092380D01*
X108557619Y-52092380D02*
X108890952Y-52092380D01*
X108890952Y-52092380D02*
X108890952Y-51844761D01*
X109462380Y-52897142D02*
X109462380Y-53144761D01*
X109462380Y-53144761D02*
X109414761Y-53268571D01*
X109414761Y-53268571D02*
X109319523Y-53392380D01*
X109319523Y-53392380D02*
X109129047Y-53454285D01*
X109129047Y-53454285D02*
X108795714Y-53454285D01*
X108795714Y-53454285D02*
X108605238Y-53392380D01*
X108605238Y-53392380D02*
X108510000Y-53268571D01*
X108510000Y-53268571D02*
X108462380Y-53144761D01*
X108462380Y-53144761D02*
X108462380Y-52897142D01*
X108462380Y-52897142D02*
X108510000Y-52773333D01*
X108510000Y-52773333D02*
X108605238Y-52649523D01*
X108605238Y-52649523D02*
X108795714Y-52587619D01*
X108795714Y-52587619D02*
X109129047Y-52587619D01*
X109129047Y-52587619D02*
X109319523Y-52649523D01*
X109319523Y-52649523D02*
X109414761Y-52773333D01*
X109414761Y-52773333D02*
X109462380Y-52897142D01*
X109462380Y-53825714D02*
X108462380Y-54259047D01*
X108462380Y-54259047D02*
X109462380Y-54692381D01*
X71564761Y-16090476D02*
X71612380Y-15966666D01*
X71612380Y-15966666D02*
X71612380Y-15780952D01*
X71612380Y-15780952D02*
X71564761Y-15595238D01*
X71564761Y-15595238D02*
X71469523Y-15471428D01*
X71469523Y-15471428D02*
X71374285Y-15409523D01*
X71374285Y-15409523D02*
X71183809Y-15347619D01*
X71183809Y-15347619D02*
X71040952Y-15347619D01*
X71040952Y-15347619D02*
X70850476Y-15409523D01*
X70850476Y-15409523D02*
X70755238Y-15471428D01*
X70755238Y-15471428D02*
X70660000Y-15595238D01*
X70660000Y-15595238D02*
X70612380Y-15780952D01*
X70612380Y-15780952D02*
X70612380Y-15904761D01*
X70612380Y-15904761D02*
X70660000Y-16090476D01*
X70660000Y-16090476D02*
X70707619Y-16152380D01*
X70707619Y-16152380D02*
X71040952Y-16152380D01*
X71040952Y-16152380D02*
X71040952Y-15904761D01*
X70612380Y-16709523D02*
X71612380Y-16709523D01*
X71612380Y-16709523D02*
X71612380Y-17019047D01*
X71612380Y-17019047D02*
X71564761Y-17204761D01*
X71564761Y-17204761D02*
X71469523Y-17328571D01*
X71469523Y-17328571D02*
X71374285Y-17390476D01*
X71374285Y-17390476D02*
X71183809Y-17452380D01*
X71183809Y-17452380D02*
X71040952Y-17452380D01*
X71040952Y-17452380D02*
X70850476Y-17390476D01*
X70850476Y-17390476D02*
X70755238Y-17328571D01*
X70755238Y-17328571D02*
X70660000Y-17204761D01*
X70660000Y-17204761D02*
X70612380Y-17019047D01*
X70612380Y-17019047D02*
X70612380Y-16709523D01*
X71612380Y-17823809D02*
X70612380Y-18257142D01*
X70612380Y-18257142D02*
X71612380Y-18690476D01*
X2717924Y-36065476D02*
X2765543Y-35941666D01*
X2765543Y-35941666D02*
X2765543Y-35755952D01*
X2765543Y-35755952D02*
X2717924Y-35570238D01*
X2717924Y-35570238D02*
X2622686Y-35446428D01*
X2622686Y-35446428D02*
X2527448Y-35384523D01*
X2527448Y-35384523D02*
X2336972Y-35322619D01*
X2336972Y-35322619D02*
X2194115Y-35322619D01*
X2194115Y-35322619D02*
X2003639Y-35384523D01*
X2003639Y-35384523D02*
X1908401Y-35446428D01*
X1908401Y-35446428D02*
X1813163Y-35570238D01*
X1813163Y-35570238D02*
X1765543Y-35755952D01*
X1765543Y-35755952D02*
X1765543Y-35879761D01*
X1765543Y-35879761D02*
X1813163Y-36065476D01*
X1813163Y-36065476D02*
X1860782Y-36127380D01*
X1860782Y-36127380D02*
X2194115Y-36127380D01*
X2194115Y-36127380D02*
X2194115Y-35879761D01*
X1765543Y-36684523D02*
X2765543Y-36684523D01*
X2765543Y-36684523D02*
X2765543Y-36994047D01*
X2765543Y-36994047D02*
X2717924Y-37179761D01*
X2717924Y-37179761D02*
X2622686Y-37303571D01*
X2622686Y-37303571D02*
X2527448Y-37365476D01*
X2527448Y-37365476D02*
X2336972Y-37427380D01*
X2336972Y-37427380D02*
X2194115Y-37427380D01*
X2194115Y-37427380D02*
X2003639Y-37365476D01*
X2003639Y-37365476D02*
X1908401Y-37303571D01*
X1908401Y-37303571D02*
X1813163Y-37179761D01*
X1813163Y-37179761D02*
X1765543Y-36994047D01*
X1765543Y-36994047D02*
X1765543Y-36684523D01*
X2765543Y-37798809D02*
X1765543Y-38232142D01*
X1765543Y-38232142D02*
X2765543Y-38665476D01*
X2717924Y-32065476D02*
X2765543Y-31941666D01*
X2765543Y-31941666D02*
X2765543Y-31755952D01*
X2765543Y-31755952D02*
X2717924Y-31570238D01*
X2717924Y-31570238D02*
X2622686Y-31446428D01*
X2622686Y-31446428D02*
X2527448Y-31384523D01*
X2527448Y-31384523D02*
X2336972Y-31322619D01*
X2336972Y-31322619D02*
X2194115Y-31322619D01*
X2194115Y-31322619D02*
X2003639Y-31384523D01*
X2003639Y-31384523D02*
X1908401Y-31446428D01*
X1908401Y-31446428D02*
X1813163Y-31570238D01*
X1813163Y-31570238D02*
X1765543Y-31755952D01*
X1765543Y-31755952D02*
X1765543Y-31879761D01*
X1765543Y-31879761D02*
X1813163Y-32065476D01*
X1813163Y-32065476D02*
X1860782Y-32127380D01*
X1860782Y-32127380D02*
X2194115Y-32127380D01*
X2194115Y-32127380D02*
X2194115Y-31879761D01*
X1765543Y-32684523D02*
X2765543Y-32684523D01*
X2765543Y-32684523D02*
X2765543Y-32994047D01*
X2765543Y-32994047D02*
X2717924Y-33179761D01*
X2717924Y-33179761D02*
X2622686Y-33303571D01*
X2622686Y-33303571D02*
X2527448Y-33365476D01*
X2527448Y-33365476D02*
X2336972Y-33427380D01*
X2336972Y-33427380D02*
X2194115Y-33427380D01*
X2194115Y-33427380D02*
X2003639Y-33365476D01*
X2003639Y-33365476D02*
X1908401Y-33303571D01*
X1908401Y-33303571D02*
X1813163Y-33179761D01*
X1813163Y-33179761D02*
X1765543Y-32994047D01*
X1765543Y-32994047D02*
X1765543Y-32684523D01*
X2765543Y-33798809D02*
X1765543Y-34232142D01*
X1765543Y-34232142D02*
X2765543Y-34665476D01*
X71564761Y-20090476D02*
X71612380Y-19966666D01*
X71612380Y-19966666D02*
X71612380Y-19780952D01*
X71612380Y-19780952D02*
X71564761Y-19595238D01*
X71564761Y-19595238D02*
X71469523Y-19471428D01*
X71469523Y-19471428D02*
X71374285Y-19409523D01*
X71374285Y-19409523D02*
X71183809Y-19347619D01*
X71183809Y-19347619D02*
X71040952Y-19347619D01*
X71040952Y-19347619D02*
X70850476Y-19409523D01*
X70850476Y-19409523D02*
X70755238Y-19471428D01*
X70755238Y-19471428D02*
X70660000Y-19595238D01*
X70660000Y-19595238D02*
X70612380Y-19780952D01*
X70612380Y-19780952D02*
X70612380Y-19904761D01*
X70612380Y-19904761D02*
X70660000Y-20090476D01*
X70660000Y-20090476D02*
X70707619Y-20152380D01*
X70707619Y-20152380D02*
X71040952Y-20152380D01*
X71040952Y-20152380D02*
X71040952Y-19904761D01*
X70612380Y-20709523D02*
X71612380Y-20709523D01*
X71612380Y-20709523D02*
X71612380Y-21019047D01*
X71612380Y-21019047D02*
X71564761Y-21204761D01*
X71564761Y-21204761D02*
X71469523Y-21328571D01*
X71469523Y-21328571D02*
X71374285Y-21390476D01*
X71374285Y-21390476D02*
X71183809Y-21452380D01*
X71183809Y-21452380D02*
X71040952Y-21452380D01*
X71040952Y-21452380D02*
X70850476Y-21390476D01*
X70850476Y-21390476D02*
X70755238Y-21328571D01*
X70755238Y-21328571D02*
X70660000Y-21204761D01*
X70660000Y-21204761D02*
X70612380Y-21019047D01*
X70612380Y-21019047D02*
X70612380Y-20709523D01*
X71612380Y-21823809D02*
X70612380Y-22257142D01*
X70612380Y-22257142D02*
X71612380Y-22690476D01*
X2717924Y-20065476D02*
X2765543Y-19941666D01*
X2765543Y-19941666D02*
X2765543Y-19755952D01*
X2765543Y-19755952D02*
X2717924Y-19570238D01*
X2717924Y-19570238D02*
X2622686Y-19446428D01*
X2622686Y-19446428D02*
X2527448Y-19384523D01*
X2527448Y-19384523D02*
X2336972Y-19322619D01*
X2336972Y-19322619D02*
X2194115Y-19322619D01*
X2194115Y-19322619D02*
X2003639Y-19384523D01*
X2003639Y-19384523D02*
X1908401Y-19446428D01*
X1908401Y-19446428D02*
X1813163Y-19570238D01*
X1813163Y-19570238D02*
X1765543Y-19755952D01*
X1765543Y-19755952D02*
X1765543Y-19879761D01*
X1765543Y-19879761D02*
X1813163Y-20065476D01*
X1813163Y-20065476D02*
X1860782Y-20127380D01*
X1860782Y-20127380D02*
X2194115Y-20127380D01*
X2194115Y-20127380D02*
X2194115Y-19879761D01*
X1765543Y-20684523D02*
X2765543Y-20684523D01*
X2765543Y-20684523D02*
X2765543Y-20994047D01*
X2765543Y-20994047D02*
X2717924Y-21179761D01*
X2717924Y-21179761D02*
X2622686Y-21303571D01*
X2622686Y-21303571D02*
X2527448Y-21365476D01*
X2527448Y-21365476D02*
X2336972Y-21427380D01*
X2336972Y-21427380D02*
X2194115Y-21427380D01*
X2194115Y-21427380D02*
X2003639Y-21365476D01*
X2003639Y-21365476D02*
X1908401Y-21303571D01*
X1908401Y-21303571D02*
X1813163Y-21179761D01*
X1813163Y-21179761D02*
X1765543Y-20994047D01*
X1765543Y-20994047D02*
X1765543Y-20684523D01*
X2765543Y-21798809D02*
X1765543Y-22232142D01*
X1765543Y-22232142D02*
X2765543Y-22665476D01*
X71564761Y-24090476D02*
X71612380Y-23966666D01*
X71612380Y-23966666D02*
X71612380Y-23780952D01*
X71612380Y-23780952D02*
X71564761Y-23595238D01*
X71564761Y-23595238D02*
X71469523Y-23471428D01*
X71469523Y-23471428D02*
X71374285Y-23409523D01*
X71374285Y-23409523D02*
X71183809Y-23347619D01*
X71183809Y-23347619D02*
X71040952Y-23347619D01*
X71040952Y-23347619D02*
X70850476Y-23409523D01*
X70850476Y-23409523D02*
X70755238Y-23471428D01*
X70755238Y-23471428D02*
X70660000Y-23595238D01*
X70660000Y-23595238D02*
X70612380Y-23780952D01*
X70612380Y-23780952D02*
X70612380Y-23904761D01*
X70612380Y-23904761D02*
X70660000Y-24090476D01*
X70660000Y-24090476D02*
X70707619Y-24152380D01*
X70707619Y-24152380D02*
X71040952Y-24152380D01*
X71040952Y-24152380D02*
X71040952Y-23904761D01*
X70612380Y-24709523D02*
X71612380Y-24709523D01*
X71612380Y-24709523D02*
X71612380Y-25019047D01*
X71612380Y-25019047D02*
X71564761Y-25204761D01*
X71564761Y-25204761D02*
X71469523Y-25328571D01*
X71469523Y-25328571D02*
X71374285Y-25390476D01*
X71374285Y-25390476D02*
X71183809Y-25452380D01*
X71183809Y-25452380D02*
X71040952Y-25452380D01*
X71040952Y-25452380D02*
X70850476Y-25390476D01*
X70850476Y-25390476D02*
X70755238Y-25328571D01*
X70755238Y-25328571D02*
X70660000Y-25204761D01*
X70660000Y-25204761D02*
X70612380Y-25019047D01*
X70612380Y-25019047D02*
X70612380Y-24709523D01*
X71612380Y-25823809D02*
X70612380Y-26257142D01*
X70612380Y-26257142D02*
X71612380Y-26690476D01*
X109414761Y-24030476D02*
X109462380Y-23906666D01*
X109462380Y-23906666D02*
X109462380Y-23720952D01*
X109462380Y-23720952D02*
X109414761Y-23535238D01*
X109414761Y-23535238D02*
X109319523Y-23411428D01*
X109319523Y-23411428D02*
X109224285Y-23349523D01*
X109224285Y-23349523D02*
X109033809Y-23287619D01*
X109033809Y-23287619D02*
X108890952Y-23287619D01*
X108890952Y-23287619D02*
X108700476Y-23349523D01*
X108700476Y-23349523D02*
X108605238Y-23411428D01*
X108605238Y-23411428D02*
X108510000Y-23535238D01*
X108510000Y-23535238D02*
X108462380Y-23720952D01*
X108462380Y-23720952D02*
X108462380Y-23844761D01*
X108462380Y-23844761D02*
X108510000Y-24030476D01*
X108510000Y-24030476D02*
X108557619Y-24092380D01*
X108557619Y-24092380D02*
X108890952Y-24092380D01*
X108890952Y-24092380D02*
X108890952Y-23844761D01*
X109462380Y-24897142D02*
X109462380Y-25144761D01*
X109462380Y-25144761D02*
X109414761Y-25268571D01*
X109414761Y-25268571D02*
X109319523Y-25392380D01*
X109319523Y-25392380D02*
X109129047Y-25454285D01*
X109129047Y-25454285D02*
X108795714Y-25454285D01*
X108795714Y-25454285D02*
X108605238Y-25392380D01*
X108605238Y-25392380D02*
X108510000Y-25268571D01*
X108510000Y-25268571D02*
X108462380Y-25144761D01*
X108462380Y-25144761D02*
X108462380Y-24897142D01*
X108462380Y-24897142D02*
X108510000Y-24773333D01*
X108510000Y-24773333D02*
X108605238Y-24649523D01*
X108605238Y-24649523D02*
X108795714Y-24587619D01*
X108795714Y-24587619D02*
X109129047Y-24587619D01*
X109129047Y-24587619D02*
X109319523Y-24649523D01*
X109319523Y-24649523D02*
X109414761Y-24773333D01*
X109414761Y-24773333D02*
X109462380Y-24897142D01*
X109462380Y-25825714D02*
X108462380Y-26259047D01*
X108462380Y-26259047D02*
X109462380Y-26692381D01*
X109414761Y-40030476D02*
X109462380Y-39906666D01*
X109462380Y-39906666D02*
X109462380Y-39720952D01*
X109462380Y-39720952D02*
X109414761Y-39535238D01*
X109414761Y-39535238D02*
X109319523Y-39411428D01*
X109319523Y-39411428D02*
X109224285Y-39349523D01*
X109224285Y-39349523D02*
X109033809Y-39287619D01*
X109033809Y-39287619D02*
X108890952Y-39287619D01*
X108890952Y-39287619D02*
X108700476Y-39349523D01*
X108700476Y-39349523D02*
X108605238Y-39411428D01*
X108605238Y-39411428D02*
X108510000Y-39535238D01*
X108510000Y-39535238D02*
X108462380Y-39720952D01*
X108462380Y-39720952D02*
X108462380Y-39844761D01*
X108462380Y-39844761D02*
X108510000Y-40030476D01*
X108510000Y-40030476D02*
X108557619Y-40092380D01*
X108557619Y-40092380D02*
X108890952Y-40092380D01*
X108890952Y-40092380D02*
X108890952Y-39844761D01*
X109462380Y-40897142D02*
X109462380Y-41144761D01*
X109462380Y-41144761D02*
X109414761Y-41268571D01*
X109414761Y-41268571D02*
X109319523Y-41392380D01*
X109319523Y-41392380D02*
X109129047Y-41454285D01*
X109129047Y-41454285D02*
X108795714Y-41454285D01*
X108795714Y-41454285D02*
X108605238Y-41392380D01*
X108605238Y-41392380D02*
X108510000Y-41268571D01*
X108510000Y-41268571D02*
X108462380Y-41144761D01*
X108462380Y-41144761D02*
X108462380Y-40897142D01*
X108462380Y-40897142D02*
X108510000Y-40773333D01*
X108510000Y-40773333D02*
X108605238Y-40649523D01*
X108605238Y-40649523D02*
X108795714Y-40587619D01*
X108795714Y-40587619D02*
X109129047Y-40587619D01*
X109129047Y-40587619D02*
X109319523Y-40649523D01*
X109319523Y-40649523D02*
X109414761Y-40773333D01*
X109414761Y-40773333D02*
X109462380Y-40897142D01*
X109462380Y-41825714D02*
X108462380Y-42259047D01*
X108462380Y-42259047D02*
X109462380Y-42692381D01*
X109414761Y-28030476D02*
X109462380Y-27906666D01*
X109462380Y-27906666D02*
X109462380Y-27720952D01*
X109462380Y-27720952D02*
X109414761Y-27535238D01*
X109414761Y-27535238D02*
X109319523Y-27411428D01*
X109319523Y-27411428D02*
X109224285Y-27349523D01*
X109224285Y-27349523D02*
X109033809Y-27287619D01*
X109033809Y-27287619D02*
X108890952Y-27287619D01*
X108890952Y-27287619D02*
X108700476Y-27349523D01*
X108700476Y-27349523D02*
X108605238Y-27411428D01*
X108605238Y-27411428D02*
X108510000Y-27535238D01*
X108510000Y-27535238D02*
X108462380Y-27720952D01*
X108462380Y-27720952D02*
X108462380Y-27844761D01*
X108462380Y-27844761D02*
X108510000Y-28030476D01*
X108510000Y-28030476D02*
X108557619Y-28092380D01*
X108557619Y-28092380D02*
X108890952Y-28092380D01*
X108890952Y-28092380D02*
X108890952Y-27844761D01*
X109462380Y-28897142D02*
X109462380Y-29144761D01*
X109462380Y-29144761D02*
X109414761Y-29268571D01*
X109414761Y-29268571D02*
X109319523Y-29392380D01*
X109319523Y-29392380D02*
X109129047Y-29454285D01*
X109129047Y-29454285D02*
X108795714Y-29454285D01*
X108795714Y-29454285D02*
X108605238Y-29392380D01*
X108605238Y-29392380D02*
X108510000Y-29268571D01*
X108510000Y-29268571D02*
X108462380Y-29144761D01*
X108462380Y-29144761D02*
X108462380Y-28897142D01*
X108462380Y-28897142D02*
X108510000Y-28773333D01*
X108510000Y-28773333D02*
X108605238Y-28649523D01*
X108605238Y-28649523D02*
X108795714Y-28587619D01*
X108795714Y-28587619D02*
X109129047Y-28587619D01*
X109129047Y-28587619D02*
X109319523Y-28649523D01*
X109319523Y-28649523D02*
X109414761Y-28773333D01*
X109414761Y-28773333D02*
X109462380Y-28897142D01*
X109462380Y-29825714D02*
X108462380Y-30259047D01*
X108462380Y-30259047D02*
X109462380Y-30692381D01*
X109414761Y-20030476D02*
X109462380Y-19906666D01*
X109462380Y-19906666D02*
X109462380Y-19720952D01*
X109462380Y-19720952D02*
X109414761Y-19535238D01*
X109414761Y-19535238D02*
X109319523Y-19411428D01*
X109319523Y-19411428D02*
X109224285Y-19349523D01*
X109224285Y-19349523D02*
X109033809Y-19287619D01*
X109033809Y-19287619D02*
X108890952Y-19287619D01*
X108890952Y-19287619D02*
X108700476Y-19349523D01*
X108700476Y-19349523D02*
X108605238Y-19411428D01*
X108605238Y-19411428D02*
X108510000Y-19535238D01*
X108510000Y-19535238D02*
X108462380Y-19720952D01*
X108462380Y-19720952D02*
X108462380Y-19844761D01*
X108462380Y-19844761D02*
X108510000Y-20030476D01*
X108510000Y-20030476D02*
X108557619Y-20092380D01*
X108557619Y-20092380D02*
X108890952Y-20092380D01*
X108890952Y-20092380D02*
X108890952Y-19844761D01*
X109462380Y-20897142D02*
X109462380Y-21144761D01*
X109462380Y-21144761D02*
X109414761Y-21268571D01*
X109414761Y-21268571D02*
X109319523Y-21392380D01*
X109319523Y-21392380D02*
X109129047Y-21454285D01*
X109129047Y-21454285D02*
X108795714Y-21454285D01*
X108795714Y-21454285D02*
X108605238Y-21392380D01*
X108605238Y-21392380D02*
X108510000Y-21268571D01*
X108510000Y-21268571D02*
X108462380Y-21144761D01*
X108462380Y-21144761D02*
X108462380Y-20897142D01*
X108462380Y-20897142D02*
X108510000Y-20773333D01*
X108510000Y-20773333D02*
X108605238Y-20649523D01*
X108605238Y-20649523D02*
X108795714Y-20587619D01*
X108795714Y-20587619D02*
X109129047Y-20587619D01*
X109129047Y-20587619D02*
X109319523Y-20649523D01*
X109319523Y-20649523D02*
X109414761Y-20773333D01*
X109414761Y-20773333D02*
X109462380Y-20897142D01*
X109462380Y-21825714D02*
X108462380Y-22259047D01*
X108462380Y-22259047D02*
X109462380Y-22692381D01*
X109414761Y-36030476D02*
X109462380Y-35906666D01*
X109462380Y-35906666D02*
X109462380Y-35720952D01*
X109462380Y-35720952D02*
X109414761Y-35535238D01*
X109414761Y-35535238D02*
X109319523Y-35411428D01*
X109319523Y-35411428D02*
X109224285Y-35349523D01*
X109224285Y-35349523D02*
X109033809Y-35287619D01*
X109033809Y-35287619D02*
X108890952Y-35287619D01*
X108890952Y-35287619D02*
X108700476Y-35349523D01*
X108700476Y-35349523D02*
X108605238Y-35411428D01*
X108605238Y-35411428D02*
X108510000Y-35535238D01*
X108510000Y-35535238D02*
X108462380Y-35720952D01*
X108462380Y-35720952D02*
X108462380Y-35844761D01*
X108462380Y-35844761D02*
X108510000Y-36030476D01*
X108510000Y-36030476D02*
X108557619Y-36092380D01*
X108557619Y-36092380D02*
X108890952Y-36092380D01*
X108890952Y-36092380D02*
X108890952Y-35844761D01*
X109462380Y-36897142D02*
X109462380Y-37144761D01*
X109462380Y-37144761D02*
X109414761Y-37268571D01*
X109414761Y-37268571D02*
X109319523Y-37392380D01*
X109319523Y-37392380D02*
X109129047Y-37454285D01*
X109129047Y-37454285D02*
X108795714Y-37454285D01*
X108795714Y-37454285D02*
X108605238Y-37392380D01*
X108605238Y-37392380D02*
X108510000Y-37268571D01*
X108510000Y-37268571D02*
X108462380Y-37144761D01*
X108462380Y-37144761D02*
X108462380Y-36897142D01*
X108462380Y-36897142D02*
X108510000Y-36773333D01*
X108510000Y-36773333D02*
X108605238Y-36649523D01*
X108605238Y-36649523D02*
X108795714Y-36587619D01*
X108795714Y-36587619D02*
X109129047Y-36587619D01*
X109129047Y-36587619D02*
X109319523Y-36649523D01*
X109319523Y-36649523D02*
X109414761Y-36773333D01*
X109414761Y-36773333D02*
X109462380Y-36897142D01*
X109462380Y-37825714D02*
X108462380Y-38259047D01*
X108462380Y-38259047D02*
X109462380Y-38692381D01*
X2717924Y-44065476D02*
X2765543Y-43941666D01*
X2765543Y-43941666D02*
X2765543Y-43755952D01*
X2765543Y-43755952D02*
X2717924Y-43570238D01*
X2717924Y-43570238D02*
X2622686Y-43446428D01*
X2622686Y-43446428D02*
X2527448Y-43384523D01*
X2527448Y-43384523D02*
X2336972Y-43322619D01*
X2336972Y-43322619D02*
X2194115Y-43322619D01*
X2194115Y-43322619D02*
X2003639Y-43384523D01*
X2003639Y-43384523D02*
X1908401Y-43446428D01*
X1908401Y-43446428D02*
X1813163Y-43570238D01*
X1813163Y-43570238D02*
X1765543Y-43755952D01*
X1765543Y-43755952D02*
X1765543Y-43879761D01*
X1765543Y-43879761D02*
X1813163Y-44065476D01*
X1813163Y-44065476D02*
X1860782Y-44127380D01*
X1860782Y-44127380D02*
X2194115Y-44127380D01*
X2194115Y-44127380D02*
X2194115Y-43879761D01*
X1765543Y-44684523D02*
X2765543Y-44684523D01*
X2765543Y-44684523D02*
X2765543Y-44994047D01*
X2765543Y-44994047D02*
X2717924Y-45179761D01*
X2717924Y-45179761D02*
X2622686Y-45303571D01*
X2622686Y-45303571D02*
X2527448Y-45365476D01*
X2527448Y-45365476D02*
X2336972Y-45427380D01*
X2336972Y-45427380D02*
X2194115Y-45427380D01*
X2194115Y-45427380D02*
X2003639Y-45365476D01*
X2003639Y-45365476D02*
X1908401Y-45303571D01*
X1908401Y-45303571D02*
X1813163Y-45179761D01*
X1813163Y-45179761D02*
X1765543Y-44994047D01*
X1765543Y-44994047D02*
X1765543Y-44684523D01*
X2765543Y-45798809D02*
X1765543Y-46232142D01*
X1765543Y-46232142D02*
X2765543Y-46665476D01*
X2717924Y-16065476D02*
X2765543Y-15941666D01*
X2765543Y-15941666D02*
X2765543Y-15755952D01*
X2765543Y-15755952D02*
X2717924Y-15570238D01*
X2717924Y-15570238D02*
X2622686Y-15446428D01*
X2622686Y-15446428D02*
X2527448Y-15384523D01*
X2527448Y-15384523D02*
X2336972Y-15322619D01*
X2336972Y-15322619D02*
X2194115Y-15322619D01*
X2194115Y-15322619D02*
X2003639Y-15384523D01*
X2003639Y-15384523D02*
X1908401Y-15446428D01*
X1908401Y-15446428D02*
X1813163Y-15570238D01*
X1813163Y-15570238D02*
X1765543Y-15755952D01*
X1765543Y-15755952D02*
X1765543Y-15879761D01*
X1765543Y-15879761D02*
X1813163Y-16065476D01*
X1813163Y-16065476D02*
X1860782Y-16127380D01*
X1860782Y-16127380D02*
X2194115Y-16127380D01*
X2194115Y-16127380D02*
X2194115Y-15879761D01*
X1765543Y-16684523D02*
X2765543Y-16684523D01*
X2765543Y-16684523D02*
X2765543Y-16994047D01*
X2765543Y-16994047D02*
X2717924Y-17179761D01*
X2717924Y-17179761D02*
X2622686Y-17303571D01*
X2622686Y-17303571D02*
X2527448Y-17365476D01*
X2527448Y-17365476D02*
X2336972Y-17427380D01*
X2336972Y-17427380D02*
X2194115Y-17427380D01*
X2194115Y-17427380D02*
X2003639Y-17365476D01*
X2003639Y-17365476D02*
X1908401Y-17303571D01*
X1908401Y-17303571D02*
X1813163Y-17179761D01*
X1813163Y-17179761D02*
X1765543Y-16994047D01*
X1765543Y-16994047D02*
X1765543Y-16684523D01*
X2765543Y-17798809D02*
X1765543Y-18232142D01*
X1765543Y-18232142D02*
X2765543Y-18665476D01*
X71564761Y-32090476D02*
X71612380Y-31966666D01*
X71612380Y-31966666D02*
X71612380Y-31780952D01*
X71612380Y-31780952D02*
X71564761Y-31595238D01*
X71564761Y-31595238D02*
X71469523Y-31471428D01*
X71469523Y-31471428D02*
X71374285Y-31409523D01*
X71374285Y-31409523D02*
X71183809Y-31347619D01*
X71183809Y-31347619D02*
X71040952Y-31347619D01*
X71040952Y-31347619D02*
X70850476Y-31409523D01*
X70850476Y-31409523D02*
X70755238Y-31471428D01*
X70755238Y-31471428D02*
X70660000Y-31595238D01*
X70660000Y-31595238D02*
X70612380Y-31780952D01*
X70612380Y-31780952D02*
X70612380Y-31904761D01*
X70612380Y-31904761D02*
X70660000Y-32090476D01*
X70660000Y-32090476D02*
X70707619Y-32152380D01*
X70707619Y-32152380D02*
X71040952Y-32152380D01*
X71040952Y-32152380D02*
X71040952Y-31904761D01*
X70612380Y-32709523D02*
X71612380Y-32709523D01*
X71612380Y-32709523D02*
X71612380Y-33019047D01*
X71612380Y-33019047D02*
X71564761Y-33204761D01*
X71564761Y-33204761D02*
X71469523Y-33328571D01*
X71469523Y-33328571D02*
X71374285Y-33390476D01*
X71374285Y-33390476D02*
X71183809Y-33452380D01*
X71183809Y-33452380D02*
X71040952Y-33452380D01*
X71040952Y-33452380D02*
X70850476Y-33390476D01*
X70850476Y-33390476D02*
X70755238Y-33328571D01*
X70755238Y-33328571D02*
X70660000Y-33204761D01*
X70660000Y-33204761D02*
X70612380Y-33019047D01*
X70612380Y-33019047D02*
X70612380Y-32709523D01*
X71612380Y-33823809D02*
X70612380Y-34257142D01*
X70612380Y-34257142D02*
X71612380Y-34690476D01*
X2717924Y-28065476D02*
X2765543Y-27941666D01*
X2765543Y-27941666D02*
X2765543Y-27755952D01*
X2765543Y-27755952D02*
X2717924Y-27570238D01*
X2717924Y-27570238D02*
X2622686Y-27446428D01*
X2622686Y-27446428D02*
X2527448Y-27384523D01*
X2527448Y-27384523D02*
X2336972Y-27322619D01*
X2336972Y-27322619D02*
X2194115Y-27322619D01*
X2194115Y-27322619D02*
X2003639Y-27384523D01*
X2003639Y-27384523D02*
X1908401Y-27446428D01*
X1908401Y-27446428D02*
X1813163Y-27570238D01*
X1813163Y-27570238D02*
X1765543Y-27755952D01*
X1765543Y-27755952D02*
X1765543Y-27879761D01*
X1765543Y-27879761D02*
X1813163Y-28065476D01*
X1813163Y-28065476D02*
X1860782Y-28127380D01*
X1860782Y-28127380D02*
X2194115Y-28127380D01*
X2194115Y-28127380D02*
X2194115Y-27879761D01*
X1765543Y-28684523D02*
X2765543Y-28684523D01*
X2765543Y-28684523D02*
X2765543Y-28994047D01*
X2765543Y-28994047D02*
X2717924Y-29179761D01*
X2717924Y-29179761D02*
X2622686Y-29303571D01*
X2622686Y-29303571D02*
X2527448Y-29365476D01*
X2527448Y-29365476D02*
X2336972Y-29427380D01*
X2336972Y-29427380D02*
X2194115Y-29427380D01*
X2194115Y-29427380D02*
X2003639Y-29365476D01*
X2003639Y-29365476D02*
X1908401Y-29303571D01*
X1908401Y-29303571D02*
X1813163Y-29179761D01*
X1813163Y-29179761D02*
X1765543Y-28994047D01*
X1765543Y-28994047D02*
X1765543Y-28684523D01*
X2765543Y-29798809D02*
X1765543Y-30232142D01*
X1765543Y-30232142D02*
X2765543Y-30665476D01*
D12*
G04 #@! TO.C,U1*
X75292150Y-30755000D02*
X75292150Y-29055000D01*
X75292150Y-29055000D02*
X73592150Y-29055000D01*
X73592150Y-30755000D02*
X75292150Y-30755000D01*
X73592150Y-29055000D02*
X73592150Y-30755000D01*
X75492150Y-30605000D02*
G75*
G03*
X75492150Y-30605000I-50000J0D01*
G01*
D10*
X74542150Y-29505000D02*
X74392150Y-29605000D01*
X74392150Y-29405000D01*
X74542150Y-29505000D01*
G36*
X74542150Y-29505000D02*
G01*
X74392150Y-29605000D01*
X74392150Y-29405000D01*
X74542150Y-29505000D01*
G37*
X73617150Y-30430000D02*
X73167150Y-30430000D01*
X73167150Y-30330000D01*
X73617150Y-30330000D01*
X73617150Y-30430000D01*
G36*
X73617150Y-30430000D02*
G01*
X73167150Y-30430000D01*
X73167150Y-30330000D01*
X73617150Y-30330000D01*
X73617150Y-30430000D01*
G37*
X73442150Y-30605000D02*
X73342150Y-30605000D01*
X73342150Y-30155000D01*
X73442150Y-30155000D01*
X73442150Y-30605000D01*
G36*
X73442150Y-30605000D02*
G01*
X73342150Y-30605000D01*
X73342150Y-30155000D01*
X73442150Y-30155000D01*
X73442150Y-30605000D01*
G37*
X74942150Y-29905000D02*
X74772150Y-29905000D01*
X74772150Y-29775000D01*
X74782150Y-29775000D01*
X74942150Y-29775000D01*
X74942150Y-29905000D01*
G36*
X74942150Y-29905000D02*
G01*
X74772150Y-29905000D01*
X74772150Y-29775000D01*
X74782150Y-29775000D01*
X74942150Y-29775000D01*
X74942150Y-29905000D01*
G37*
D12*
G04 #@! TO.C,U6*
X95860505Y-54755000D02*
X95860505Y-53055000D01*
X95860505Y-53055000D02*
X94160505Y-53055000D01*
X94160505Y-54755000D02*
X95860505Y-54755000D01*
X94160505Y-53055000D02*
X94160505Y-54755000D01*
X96060505Y-54605000D02*
G75*
G03*
X96060505Y-54605000I-50000J0D01*
G01*
D10*
X95110505Y-53505000D02*
X94960505Y-53605000D01*
X94960505Y-53405000D01*
X95110505Y-53505000D01*
G36*
X95110505Y-53505000D02*
G01*
X94960505Y-53605000D01*
X94960505Y-53405000D01*
X95110505Y-53505000D01*
G37*
X94185505Y-54430000D02*
X93735505Y-54430000D01*
X93735505Y-54330000D01*
X94185505Y-54330000D01*
X94185505Y-54430000D01*
G36*
X94185505Y-54430000D02*
G01*
X93735505Y-54430000D01*
X93735505Y-54330000D01*
X94185505Y-54330000D01*
X94185505Y-54430000D01*
G37*
X94010505Y-54605000D02*
X93910505Y-54605000D01*
X93910505Y-54155000D01*
X94010505Y-54155000D01*
X94010505Y-54605000D01*
G36*
X94010505Y-54605000D02*
G01*
X93910505Y-54605000D01*
X93910505Y-54155000D01*
X94010505Y-54155000D01*
X94010505Y-54605000D01*
G37*
X95510505Y-53905000D02*
X95340505Y-53905000D01*
X95340505Y-53775000D01*
X95350505Y-53775000D01*
X95510505Y-53775000D01*
X95510505Y-53905000D01*
G36*
X95510505Y-53905000D02*
G01*
X95340505Y-53905000D01*
X95340505Y-53775000D01*
X95350505Y-53775000D01*
X95510505Y-53775000D01*
X95510505Y-53905000D01*
G37*
D12*
G04 #@! TO.C,U4*
X87633163Y-54755000D02*
X87633163Y-53055000D01*
X87633163Y-53055000D02*
X85933163Y-53055000D01*
X85933163Y-54755000D02*
X87633163Y-54755000D01*
X85933163Y-53055000D02*
X85933163Y-54755000D01*
X87833163Y-54605000D02*
G75*
G03*
X87833163Y-54605000I-50000J0D01*
G01*
D10*
X86883163Y-53505000D02*
X86733163Y-53605000D01*
X86733163Y-53405000D01*
X86883163Y-53505000D01*
G36*
X86883163Y-53505000D02*
G01*
X86733163Y-53605000D01*
X86733163Y-53405000D01*
X86883163Y-53505000D01*
G37*
X85958163Y-54430000D02*
X85508163Y-54430000D01*
X85508163Y-54330000D01*
X85958163Y-54330000D01*
X85958163Y-54430000D01*
G36*
X85958163Y-54430000D02*
G01*
X85508163Y-54430000D01*
X85508163Y-54330000D01*
X85958163Y-54330000D01*
X85958163Y-54430000D01*
G37*
X85783163Y-54605000D02*
X85683163Y-54605000D01*
X85683163Y-54155000D01*
X85783163Y-54155000D01*
X85783163Y-54605000D01*
G36*
X85783163Y-54605000D02*
G01*
X85683163Y-54605000D01*
X85683163Y-54155000D01*
X85783163Y-54155000D01*
X85783163Y-54605000D01*
G37*
X87283163Y-53905000D02*
X87113163Y-53905000D01*
X87113163Y-53775000D01*
X87123163Y-53775000D01*
X87283163Y-53775000D01*
X87283163Y-53905000D01*
G36*
X87283163Y-53905000D02*
G01*
X87113163Y-53905000D01*
X87113163Y-53775000D01*
X87123163Y-53775000D01*
X87283163Y-53775000D01*
X87283163Y-53905000D01*
G37*
D12*
G04 #@! TO.C,U3*
X83519492Y-54755000D02*
X83519492Y-53055000D01*
X83519492Y-53055000D02*
X81819492Y-53055000D01*
X81819492Y-54755000D02*
X83519492Y-54755000D01*
X81819492Y-53055000D02*
X81819492Y-54755000D01*
X83719492Y-54605000D02*
G75*
G03*
X83719492Y-54605000I-50000J0D01*
G01*
D10*
X82769492Y-53505000D02*
X82619492Y-53605000D01*
X82619492Y-53405000D01*
X82769492Y-53505000D01*
G36*
X82769492Y-53505000D02*
G01*
X82619492Y-53605000D01*
X82619492Y-53405000D01*
X82769492Y-53505000D01*
G37*
X81844492Y-54430000D02*
X81394492Y-54430000D01*
X81394492Y-54330000D01*
X81844492Y-54330000D01*
X81844492Y-54430000D01*
G36*
X81844492Y-54430000D02*
G01*
X81394492Y-54430000D01*
X81394492Y-54330000D01*
X81844492Y-54330000D01*
X81844492Y-54430000D01*
G37*
X81669492Y-54605000D02*
X81569492Y-54605000D01*
X81569492Y-54155000D01*
X81669492Y-54155000D01*
X81669492Y-54605000D01*
G36*
X81669492Y-54605000D02*
G01*
X81569492Y-54605000D01*
X81569492Y-54155000D01*
X81669492Y-54155000D01*
X81669492Y-54605000D01*
G37*
X83169492Y-53905000D02*
X82999492Y-53905000D01*
X82999492Y-53775000D01*
X83009492Y-53775000D01*
X83169492Y-53775000D01*
X83169492Y-53905000D01*
G36*
X83169492Y-53905000D02*
G01*
X82999492Y-53905000D01*
X82999492Y-53775000D01*
X83009492Y-53775000D01*
X83169492Y-53775000D01*
X83169492Y-53905000D01*
G37*
D12*
G04 #@! TO.C,U6*
X95860505Y-42755000D02*
X95860505Y-41055000D01*
X95860505Y-41055000D02*
X94160505Y-41055000D01*
X94160505Y-42755000D02*
X95860505Y-42755000D01*
X94160505Y-41055000D02*
X94160505Y-42755000D01*
X96060505Y-42605000D02*
G75*
G03*
X96060505Y-42605000I-50000J0D01*
G01*
D10*
X95110505Y-41505000D02*
X94960505Y-41605000D01*
X94960505Y-41405000D01*
X95110505Y-41505000D01*
G36*
X95110505Y-41505000D02*
G01*
X94960505Y-41605000D01*
X94960505Y-41405000D01*
X95110505Y-41505000D01*
G37*
X94185505Y-42430000D02*
X93735505Y-42430000D01*
X93735505Y-42330000D01*
X94185505Y-42330000D01*
X94185505Y-42430000D01*
G36*
X94185505Y-42430000D02*
G01*
X93735505Y-42430000D01*
X93735505Y-42330000D01*
X94185505Y-42330000D01*
X94185505Y-42430000D01*
G37*
X94010505Y-42605000D02*
X93910505Y-42605000D01*
X93910505Y-42155000D01*
X94010505Y-42155000D01*
X94010505Y-42605000D01*
G36*
X94010505Y-42605000D02*
G01*
X93910505Y-42605000D01*
X93910505Y-42155000D01*
X94010505Y-42155000D01*
X94010505Y-42605000D01*
G37*
X95510505Y-41905000D02*
X95340505Y-41905000D01*
X95340505Y-41775000D01*
X95350505Y-41775000D01*
X95510505Y-41775000D01*
X95510505Y-41905000D01*
G36*
X95510505Y-41905000D02*
G01*
X95340505Y-41905000D01*
X95340505Y-41775000D01*
X95350505Y-41775000D01*
X95510505Y-41775000D01*
X95510505Y-41905000D01*
G37*
D12*
G04 #@! TO.C,U7*
X99974176Y-50755000D02*
X99974176Y-49055000D01*
X99974176Y-49055000D02*
X98274176Y-49055000D01*
X98274176Y-50755000D02*
X99974176Y-50755000D01*
X98274176Y-49055000D02*
X98274176Y-50755000D01*
X100174176Y-50605000D02*
G75*
G03*
X100174176Y-50605000I-50000J0D01*
G01*
D10*
X99224176Y-49505000D02*
X99074176Y-49605000D01*
X99074176Y-49405000D01*
X99224176Y-49505000D01*
G36*
X99224176Y-49505000D02*
G01*
X99074176Y-49605000D01*
X99074176Y-49405000D01*
X99224176Y-49505000D01*
G37*
X98299176Y-50430000D02*
X97849176Y-50430000D01*
X97849176Y-50330000D01*
X98299176Y-50330000D01*
X98299176Y-50430000D01*
G36*
X98299176Y-50430000D02*
G01*
X97849176Y-50430000D01*
X97849176Y-50330000D01*
X98299176Y-50330000D01*
X98299176Y-50430000D01*
G37*
X98124176Y-50605000D02*
X98024176Y-50605000D01*
X98024176Y-50155000D01*
X98124176Y-50155000D01*
X98124176Y-50605000D01*
G36*
X98124176Y-50605000D02*
G01*
X98024176Y-50605000D01*
X98024176Y-50155000D01*
X98124176Y-50155000D01*
X98124176Y-50605000D01*
G37*
X99624176Y-49905000D02*
X99454176Y-49905000D01*
X99454176Y-49775000D01*
X99464176Y-49775000D01*
X99624176Y-49775000D01*
X99624176Y-49905000D01*
G36*
X99624176Y-49905000D02*
G01*
X99454176Y-49905000D01*
X99454176Y-49775000D01*
X99464176Y-49775000D01*
X99624176Y-49775000D01*
X99624176Y-49905000D01*
G37*
D12*
X99974176Y-54755000D02*
X99974176Y-53055000D01*
X99974176Y-53055000D02*
X98274176Y-53055000D01*
X98274176Y-54755000D02*
X99974176Y-54755000D01*
X98274176Y-53055000D02*
X98274176Y-54755000D01*
X100174176Y-54605000D02*
G75*
G03*
X100174176Y-54605000I-50000J0D01*
G01*
D10*
X99224176Y-53505000D02*
X99074176Y-53605000D01*
X99074176Y-53405000D01*
X99224176Y-53505000D01*
G36*
X99224176Y-53505000D02*
G01*
X99074176Y-53605000D01*
X99074176Y-53405000D01*
X99224176Y-53505000D01*
G37*
X98299176Y-54430000D02*
X97849176Y-54430000D01*
X97849176Y-54330000D01*
X98299176Y-54330000D01*
X98299176Y-54430000D01*
G36*
X98299176Y-54430000D02*
G01*
X97849176Y-54430000D01*
X97849176Y-54330000D01*
X98299176Y-54330000D01*
X98299176Y-54430000D01*
G37*
X98124176Y-54605000D02*
X98024176Y-54605000D01*
X98024176Y-54155000D01*
X98124176Y-54155000D01*
X98124176Y-54605000D01*
G36*
X98124176Y-54605000D02*
G01*
X98024176Y-54605000D01*
X98024176Y-54155000D01*
X98124176Y-54155000D01*
X98124176Y-54605000D01*
G37*
X99624176Y-53905000D02*
X99454176Y-53905000D01*
X99454176Y-53775000D01*
X99464176Y-53775000D01*
X99624176Y-53775000D01*
X99624176Y-53905000D01*
G36*
X99624176Y-53905000D02*
G01*
X99454176Y-53905000D01*
X99454176Y-53775000D01*
X99464176Y-53775000D01*
X99624176Y-53775000D01*
X99624176Y-53905000D01*
G37*
D12*
G04 #@! TO.C,U5*
X91746834Y-34755000D02*
X91746834Y-33055000D01*
X91746834Y-33055000D02*
X90046834Y-33055000D01*
X90046834Y-34755000D02*
X91746834Y-34755000D01*
X90046834Y-33055000D02*
X90046834Y-34755000D01*
X91946834Y-34605000D02*
G75*
G03*
X91946834Y-34605000I-50000J0D01*
G01*
D10*
X90996834Y-33505000D02*
X90846834Y-33605000D01*
X90846834Y-33405000D01*
X90996834Y-33505000D01*
G36*
X90996834Y-33505000D02*
G01*
X90846834Y-33605000D01*
X90846834Y-33405000D01*
X90996834Y-33505000D01*
G37*
X90071834Y-34430000D02*
X89621834Y-34430000D01*
X89621834Y-34330000D01*
X90071834Y-34330000D01*
X90071834Y-34430000D01*
G36*
X90071834Y-34430000D02*
G01*
X89621834Y-34430000D01*
X89621834Y-34330000D01*
X90071834Y-34330000D01*
X90071834Y-34430000D01*
G37*
X89896834Y-34605000D02*
X89796834Y-34605000D01*
X89796834Y-34155000D01*
X89896834Y-34155000D01*
X89896834Y-34605000D01*
G36*
X89896834Y-34605000D02*
G01*
X89796834Y-34605000D01*
X89796834Y-34155000D01*
X89896834Y-34155000D01*
X89896834Y-34605000D01*
G37*
X91396834Y-33905000D02*
X91226834Y-33905000D01*
X91226834Y-33775000D01*
X91236834Y-33775000D01*
X91396834Y-33775000D01*
X91396834Y-33905000D01*
G36*
X91396834Y-33905000D02*
G01*
X91226834Y-33905000D01*
X91226834Y-33775000D01*
X91236834Y-33775000D01*
X91396834Y-33775000D01*
X91396834Y-33905000D01*
G37*
D12*
G04 #@! TO.C,U2*
X79405821Y-46755000D02*
X79405821Y-45055000D01*
X79405821Y-45055000D02*
X77705821Y-45055000D01*
X77705821Y-46755000D02*
X79405821Y-46755000D01*
X77705821Y-45055000D02*
X77705821Y-46755000D01*
X79605821Y-46605000D02*
G75*
G03*
X79605821Y-46605000I-50000J0D01*
G01*
D10*
X78655821Y-45505000D02*
X78505821Y-45605000D01*
X78505821Y-45405000D01*
X78655821Y-45505000D01*
G36*
X78655821Y-45505000D02*
G01*
X78505821Y-45605000D01*
X78505821Y-45405000D01*
X78655821Y-45505000D01*
G37*
X77730821Y-46430000D02*
X77280821Y-46430000D01*
X77280821Y-46330000D01*
X77730821Y-46330000D01*
X77730821Y-46430000D01*
G36*
X77730821Y-46430000D02*
G01*
X77280821Y-46430000D01*
X77280821Y-46330000D01*
X77730821Y-46330000D01*
X77730821Y-46430000D01*
G37*
X77555821Y-46605000D02*
X77455821Y-46605000D01*
X77455821Y-46155000D01*
X77555821Y-46155000D01*
X77555821Y-46605000D01*
G36*
X77555821Y-46605000D02*
G01*
X77455821Y-46605000D01*
X77455821Y-46155000D01*
X77555821Y-46155000D01*
X77555821Y-46605000D01*
G37*
X79055821Y-45905000D02*
X78885821Y-45905000D01*
X78885821Y-45775000D01*
X78895821Y-45775000D01*
X79055821Y-45775000D01*
X79055821Y-45905000D01*
G36*
X79055821Y-45905000D02*
G01*
X78885821Y-45905000D01*
X78885821Y-45775000D01*
X78895821Y-45775000D01*
X79055821Y-45775000D01*
X79055821Y-45905000D01*
G37*
D12*
G04 #@! TO.C,U5*
X91746834Y-22755000D02*
X91746834Y-21055000D01*
X91746834Y-21055000D02*
X90046834Y-21055000D01*
X90046834Y-22755000D02*
X91746834Y-22755000D01*
X90046834Y-21055000D02*
X90046834Y-22755000D01*
X91946834Y-22605000D02*
G75*
G03*
X91946834Y-22605000I-50000J0D01*
G01*
D10*
X90996834Y-21505000D02*
X90846834Y-21605000D01*
X90846834Y-21405000D01*
X90996834Y-21505000D01*
G36*
X90996834Y-21505000D02*
G01*
X90846834Y-21605000D01*
X90846834Y-21405000D01*
X90996834Y-21505000D01*
G37*
X90071834Y-22430000D02*
X89621834Y-22430000D01*
X89621834Y-22330000D01*
X90071834Y-22330000D01*
X90071834Y-22430000D01*
G36*
X90071834Y-22430000D02*
G01*
X89621834Y-22430000D01*
X89621834Y-22330000D01*
X90071834Y-22330000D01*
X90071834Y-22430000D01*
G37*
X89896834Y-22605000D02*
X89796834Y-22605000D01*
X89796834Y-22155000D01*
X89896834Y-22155000D01*
X89896834Y-22605000D01*
G36*
X89896834Y-22605000D02*
G01*
X89796834Y-22605000D01*
X89796834Y-22155000D01*
X89896834Y-22155000D01*
X89896834Y-22605000D01*
G37*
X91396834Y-21905000D02*
X91226834Y-21905000D01*
X91226834Y-21775000D01*
X91236834Y-21775000D01*
X91396834Y-21775000D01*
X91396834Y-21905000D01*
G36*
X91396834Y-21905000D02*
G01*
X91226834Y-21905000D01*
X91226834Y-21775000D01*
X91236834Y-21775000D01*
X91396834Y-21775000D01*
X91396834Y-21905000D01*
G37*
D12*
G04 #@! TO.C,U6*
X95860505Y-26755000D02*
X95860505Y-25055000D01*
X95860505Y-25055000D02*
X94160505Y-25055000D01*
X94160505Y-26755000D02*
X95860505Y-26755000D01*
X94160505Y-25055000D02*
X94160505Y-26755000D01*
X96060505Y-26605000D02*
G75*
G03*
X96060505Y-26605000I-50000J0D01*
G01*
D10*
X95110505Y-25505000D02*
X94960505Y-25605000D01*
X94960505Y-25405000D01*
X95110505Y-25505000D01*
G36*
X95110505Y-25505000D02*
G01*
X94960505Y-25605000D01*
X94960505Y-25405000D01*
X95110505Y-25505000D01*
G37*
X94185505Y-26430000D02*
X93735505Y-26430000D01*
X93735505Y-26330000D01*
X94185505Y-26330000D01*
X94185505Y-26430000D01*
G36*
X94185505Y-26430000D02*
G01*
X93735505Y-26430000D01*
X93735505Y-26330000D01*
X94185505Y-26330000D01*
X94185505Y-26430000D01*
G37*
X94010505Y-26605000D02*
X93910505Y-26605000D01*
X93910505Y-26155000D01*
X94010505Y-26155000D01*
X94010505Y-26605000D01*
G36*
X94010505Y-26605000D02*
G01*
X93910505Y-26605000D01*
X93910505Y-26155000D01*
X94010505Y-26155000D01*
X94010505Y-26605000D01*
G37*
X95510505Y-25905000D02*
X95340505Y-25905000D01*
X95340505Y-25775000D01*
X95350505Y-25775000D01*
X95510505Y-25775000D01*
X95510505Y-25905000D01*
G36*
X95510505Y-25905000D02*
G01*
X95340505Y-25905000D01*
X95340505Y-25775000D01*
X95350505Y-25775000D01*
X95510505Y-25775000D01*
X95510505Y-25905000D01*
G37*
D12*
G04 #@! TO.C,U1*
X75292150Y-46755000D02*
X75292150Y-45055000D01*
X75292150Y-45055000D02*
X73592150Y-45055000D01*
X73592150Y-46755000D02*
X75292150Y-46755000D01*
X73592150Y-45055000D02*
X73592150Y-46755000D01*
X75492150Y-46605000D02*
G75*
G03*
X75492150Y-46605000I-50000J0D01*
G01*
D10*
X74542150Y-45505000D02*
X74392150Y-45605000D01*
X74392150Y-45405000D01*
X74542150Y-45505000D01*
G36*
X74542150Y-45505000D02*
G01*
X74392150Y-45605000D01*
X74392150Y-45405000D01*
X74542150Y-45505000D01*
G37*
X73617150Y-46430000D02*
X73167150Y-46430000D01*
X73167150Y-46330000D01*
X73617150Y-46330000D01*
X73617150Y-46430000D01*
G36*
X73617150Y-46430000D02*
G01*
X73167150Y-46430000D01*
X73167150Y-46330000D01*
X73617150Y-46330000D01*
X73617150Y-46430000D01*
G37*
X73442150Y-46605000D02*
X73342150Y-46605000D01*
X73342150Y-46155000D01*
X73442150Y-46155000D01*
X73442150Y-46605000D01*
G36*
X73442150Y-46605000D02*
G01*
X73342150Y-46605000D01*
X73342150Y-46155000D01*
X73442150Y-46155000D01*
X73442150Y-46605000D01*
G37*
X74942150Y-45905000D02*
X74772150Y-45905000D01*
X74772150Y-45775000D01*
X74782150Y-45775000D01*
X74942150Y-45775000D01*
X74942150Y-45905000D01*
G36*
X74942150Y-45905000D02*
G01*
X74772150Y-45905000D01*
X74772150Y-45775000D01*
X74782150Y-45775000D01*
X74942150Y-45775000D01*
X74942150Y-45905000D01*
G37*
D12*
G04 #@! TO.C,U4*
X87633163Y-22755000D02*
X87633163Y-21055000D01*
X87633163Y-21055000D02*
X85933163Y-21055000D01*
X85933163Y-22755000D02*
X87633163Y-22755000D01*
X85933163Y-21055000D02*
X85933163Y-22755000D01*
X87833163Y-22605000D02*
G75*
G03*
X87833163Y-22605000I-50000J0D01*
G01*
D10*
X86883163Y-21505000D02*
X86733163Y-21605000D01*
X86733163Y-21405000D01*
X86883163Y-21505000D01*
G36*
X86883163Y-21505000D02*
G01*
X86733163Y-21605000D01*
X86733163Y-21405000D01*
X86883163Y-21505000D01*
G37*
X85958163Y-22430000D02*
X85508163Y-22430000D01*
X85508163Y-22330000D01*
X85958163Y-22330000D01*
X85958163Y-22430000D01*
G36*
X85958163Y-22430000D02*
G01*
X85508163Y-22430000D01*
X85508163Y-22330000D01*
X85958163Y-22330000D01*
X85958163Y-22430000D01*
G37*
X85783163Y-22605000D02*
X85683163Y-22605000D01*
X85683163Y-22155000D01*
X85783163Y-22155000D01*
X85783163Y-22605000D01*
G36*
X85783163Y-22605000D02*
G01*
X85683163Y-22605000D01*
X85683163Y-22155000D01*
X85783163Y-22155000D01*
X85783163Y-22605000D01*
G37*
X87283163Y-21905000D02*
X87113163Y-21905000D01*
X87113163Y-21775000D01*
X87123163Y-21775000D01*
X87283163Y-21775000D01*
X87283163Y-21905000D01*
G36*
X87283163Y-21905000D02*
G01*
X87113163Y-21905000D01*
X87113163Y-21775000D01*
X87123163Y-21775000D01*
X87283163Y-21775000D01*
X87283163Y-21905000D01*
G37*
D12*
G04 #@! TO.C,U9*
X108201522Y-42755000D02*
X108201522Y-41055000D01*
X108201522Y-41055000D02*
X106501522Y-41055000D01*
X106501522Y-42755000D02*
X108201522Y-42755000D01*
X106501522Y-41055000D02*
X106501522Y-42755000D01*
X108401522Y-42605000D02*
G75*
G03*
X108401522Y-42605000I-50000J0D01*
G01*
D10*
X107451522Y-41505000D02*
X107301522Y-41605000D01*
X107301522Y-41405000D01*
X107451522Y-41505000D01*
G36*
X107451522Y-41505000D02*
G01*
X107301522Y-41605000D01*
X107301522Y-41405000D01*
X107451522Y-41505000D01*
G37*
X106526522Y-42430000D02*
X106076522Y-42430000D01*
X106076522Y-42330000D01*
X106526522Y-42330000D01*
X106526522Y-42430000D01*
G36*
X106526522Y-42430000D02*
G01*
X106076522Y-42430000D01*
X106076522Y-42330000D01*
X106526522Y-42330000D01*
X106526522Y-42430000D01*
G37*
X106351522Y-42605000D02*
X106251522Y-42605000D01*
X106251522Y-42155000D01*
X106351522Y-42155000D01*
X106351522Y-42605000D01*
G36*
X106351522Y-42605000D02*
G01*
X106251522Y-42605000D01*
X106251522Y-42155000D01*
X106351522Y-42155000D01*
X106351522Y-42605000D01*
G37*
X107851522Y-41905000D02*
X107681522Y-41905000D01*
X107681522Y-41775000D01*
X107691522Y-41775000D01*
X107851522Y-41775000D01*
X107851522Y-41905000D01*
G36*
X107851522Y-41905000D02*
G01*
X107681522Y-41905000D01*
X107681522Y-41775000D01*
X107691522Y-41775000D01*
X107851522Y-41775000D01*
X107851522Y-41905000D01*
G37*
D12*
X108201522Y-18755000D02*
X108201522Y-17055000D01*
X108201522Y-17055000D02*
X106501522Y-17055000D01*
X106501522Y-18755000D02*
X108201522Y-18755000D01*
X106501522Y-17055000D02*
X106501522Y-18755000D01*
X108401522Y-18605000D02*
G75*
G03*
X108401522Y-18605000I-50000J0D01*
G01*
D10*
X107451522Y-17505000D02*
X107301522Y-17605000D01*
X107301522Y-17405000D01*
X107451522Y-17505000D01*
G36*
X107451522Y-17505000D02*
G01*
X107301522Y-17605000D01*
X107301522Y-17405000D01*
X107451522Y-17505000D01*
G37*
X106526522Y-18430000D02*
X106076522Y-18430000D01*
X106076522Y-18330000D01*
X106526522Y-18330000D01*
X106526522Y-18430000D01*
G36*
X106526522Y-18430000D02*
G01*
X106076522Y-18430000D01*
X106076522Y-18330000D01*
X106526522Y-18330000D01*
X106526522Y-18430000D01*
G37*
X106351522Y-18605000D02*
X106251522Y-18605000D01*
X106251522Y-18155000D01*
X106351522Y-18155000D01*
X106351522Y-18605000D01*
G36*
X106351522Y-18605000D02*
G01*
X106251522Y-18605000D01*
X106251522Y-18155000D01*
X106351522Y-18155000D01*
X106351522Y-18605000D01*
G37*
X107851522Y-17905000D02*
X107681522Y-17905000D01*
X107681522Y-17775000D01*
X107691522Y-17775000D01*
X107851522Y-17775000D01*
X107851522Y-17905000D01*
G36*
X107851522Y-17905000D02*
G01*
X107681522Y-17905000D01*
X107681522Y-17775000D01*
X107691522Y-17775000D01*
X107851522Y-17775000D01*
X107851522Y-17905000D01*
G37*
D12*
G04 #@! TO.C,U2*
X79405821Y-38755000D02*
X79405821Y-37055000D01*
X79405821Y-37055000D02*
X77705821Y-37055000D01*
X77705821Y-38755000D02*
X79405821Y-38755000D01*
X77705821Y-37055000D02*
X77705821Y-38755000D01*
X79605821Y-38605000D02*
G75*
G03*
X79605821Y-38605000I-50000J0D01*
G01*
D10*
X78655821Y-37505000D02*
X78505821Y-37605000D01*
X78505821Y-37405000D01*
X78655821Y-37505000D01*
G36*
X78655821Y-37505000D02*
G01*
X78505821Y-37605000D01*
X78505821Y-37405000D01*
X78655821Y-37505000D01*
G37*
X77730821Y-38430000D02*
X77280821Y-38430000D01*
X77280821Y-38330000D01*
X77730821Y-38330000D01*
X77730821Y-38430000D01*
G36*
X77730821Y-38430000D02*
G01*
X77280821Y-38430000D01*
X77280821Y-38330000D01*
X77730821Y-38330000D01*
X77730821Y-38430000D01*
G37*
X77555821Y-38605000D02*
X77455821Y-38605000D01*
X77455821Y-38155000D01*
X77555821Y-38155000D01*
X77555821Y-38605000D01*
G36*
X77555821Y-38605000D02*
G01*
X77455821Y-38605000D01*
X77455821Y-38155000D01*
X77555821Y-38155000D01*
X77555821Y-38605000D01*
G37*
X79055821Y-37905000D02*
X78885821Y-37905000D01*
X78885821Y-37775000D01*
X78895821Y-37775000D01*
X79055821Y-37775000D01*
X79055821Y-37905000D01*
G36*
X79055821Y-37905000D02*
G01*
X78885821Y-37905000D01*
X78885821Y-37775000D01*
X78895821Y-37775000D01*
X79055821Y-37775000D01*
X79055821Y-37905000D01*
G37*
D12*
G04 #@! TO.C,U3*
X83519492Y-38755000D02*
X83519492Y-37055000D01*
X83519492Y-37055000D02*
X81819492Y-37055000D01*
X81819492Y-38755000D02*
X83519492Y-38755000D01*
X81819492Y-37055000D02*
X81819492Y-38755000D01*
X83719492Y-38605000D02*
G75*
G03*
X83719492Y-38605000I-50000J0D01*
G01*
D10*
X82769492Y-37505000D02*
X82619492Y-37605000D01*
X82619492Y-37405000D01*
X82769492Y-37505000D01*
G36*
X82769492Y-37505000D02*
G01*
X82619492Y-37605000D01*
X82619492Y-37405000D01*
X82769492Y-37505000D01*
G37*
X81844492Y-38430000D02*
X81394492Y-38430000D01*
X81394492Y-38330000D01*
X81844492Y-38330000D01*
X81844492Y-38430000D01*
G36*
X81844492Y-38430000D02*
G01*
X81394492Y-38430000D01*
X81394492Y-38330000D01*
X81844492Y-38330000D01*
X81844492Y-38430000D01*
G37*
X81669492Y-38605000D02*
X81569492Y-38605000D01*
X81569492Y-38155000D01*
X81669492Y-38155000D01*
X81669492Y-38605000D01*
G36*
X81669492Y-38605000D02*
G01*
X81569492Y-38605000D01*
X81569492Y-38155000D01*
X81669492Y-38155000D01*
X81669492Y-38605000D01*
G37*
X83169492Y-37905000D02*
X82999492Y-37905000D01*
X82999492Y-37775000D01*
X83009492Y-37775000D01*
X83169492Y-37775000D01*
X83169492Y-37905000D01*
G36*
X83169492Y-37905000D02*
G01*
X82999492Y-37905000D01*
X82999492Y-37775000D01*
X83009492Y-37775000D01*
X83169492Y-37775000D01*
X83169492Y-37905000D01*
G37*
D12*
X83519492Y-34755000D02*
X83519492Y-33055000D01*
X83519492Y-33055000D02*
X81819492Y-33055000D01*
X81819492Y-34755000D02*
X83519492Y-34755000D01*
X81819492Y-33055000D02*
X81819492Y-34755000D01*
X83719492Y-34605000D02*
G75*
G03*
X83719492Y-34605000I-50000J0D01*
G01*
D10*
X82769492Y-33505000D02*
X82619492Y-33605000D01*
X82619492Y-33405000D01*
X82769492Y-33505000D01*
G36*
X82769492Y-33505000D02*
G01*
X82619492Y-33605000D01*
X82619492Y-33405000D01*
X82769492Y-33505000D01*
G37*
X81844492Y-34430000D02*
X81394492Y-34430000D01*
X81394492Y-34330000D01*
X81844492Y-34330000D01*
X81844492Y-34430000D01*
G36*
X81844492Y-34430000D02*
G01*
X81394492Y-34430000D01*
X81394492Y-34330000D01*
X81844492Y-34330000D01*
X81844492Y-34430000D01*
G37*
X81669492Y-34605000D02*
X81569492Y-34605000D01*
X81569492Y-34155000D01*
X81669492Y-34155000D01*
X81669492Y-34605000D01*
G36*
X81669492Y-34605000D02*
G01*
X81569492Y-34605000D01*
X81569492Y-34155000D01*
X81669492Y-34155000D01*
X81669492Y-34605000D01*
G37*
X83169492Y-33905000D02*
X82999492Y-33905000D01*
X82999492Y-33775000D01*
X83009492Y-33775000D01*
X83169492Y-33775000D01*
X83169492Y-33905000D01*
G36*
X83169492Y-33905000D02*
G01*
X82999492Y-33905000D01*
X82999492Y-33775000D01*
X83009492Y-33775000D01*
X83169492Y-33775000D01*
X83169492Y-33905000D01*
G37*
D12*
X83519492Y-46755000D02*
X83519492Y-45055000D01*
X83519492Y-45055000D02*
X81819492Y-45055000D01*
X81819492Y-46755000D02*
X83519492Y-46755000D01*
X81819492Y-45055000D02*
X81819492Y-46755000D01*
X83719492Y-46605000D02*
G75*
G03*
X83719492Y-46605000I-50000J0D01*
G01*
D10*
X82769492Y-45505000D02*
X82619492Y-45605000D01*
X82619492Y-45405000D01*
X82769492Y-45505000D01*
G36*
X82769492Y-45505000D02*
G01*
X82619492Y-45605000D01*
X82619492Y-45405000D01*
X82769492Y-45505000D01*
G37*
X81844492Y-46430000D02*
X81394492Y-46430000D01*
X81394492Y-46330000D01*
X81844492Y-46330000D01*
X81844492Y-46430000D01*
G36*
X81844492Y-46430000D02*
G01*
X81394492Y-46430000D01*
X81394492Y-46330000D01*
X81844492Y-46330000D01*
X81844492Y-46430000D01*
G37*
X81669492Y-46605000D02*
X81569492Y-46605000D01*
X81569492Y-46155000D01*
X81669492Y-46155000D01*
X81669492Y-46605000D01*
G36*
X81669492Y-46605000D02*
G01*
X81569492Y-46605000D01*
X81569492Y-46155000D01*
X81669492Y-46155000D01*
X81669492Y-46605000D01*
G37*
X83169492Y-45905000D02*
X82999492Y-45905000D01*
X82999492Y-45775000D01*
X83009492Y-45775000D01*
X83169492Y-45775000D01*
X83169492Y-45905000D01*
G36*
X83169492Y-45905000D02*
G01*
X82999492Y-45905000D01*
X82999492Y-45775000D01*
X83009492Y-45775000D01*
X83169492Y-45775000D01*
X83169492Y-45905000D01*
G37*
D12*
G04 #@! TO.C,U2*
X79405821Y-22755000D02*
X79405821Y-21055000D01*
X79405821Y-21055000D02*
X77705821Y-21055000D01*
X77705821Y-22755000D02*
X79405821Y-22755000D01*
X77705821Y-21055000D02*
X77705821Y-22755000D01*
X79605821Y-22605000D02*
G75*
G03*
X79605821Y-22605000I-50000J0D01*
G01*
D10*
X78655821Y-21505000D02*
X78505821Y-21605000D01*
X78505821Y-21405000D01*
X78655821Y-21505000D01*
G36*
X78655821Y-21505000D02*
G01*
X78505821Y-21605000D01*
X78505821Y-21405000D01*
X78655821Y-21505000D01*
G37*
X77730821Y-22430000D02*
X77280821Y-22430000D01*
X77280821Y-22330000D01*
X77730821Y-22330000D01*
X77730821Y-22430000D01*
G36*
X77730821Y-22430000D02*
G01*
X77280821Y-22430000D01*
X77280821Y-22330000D01*
X77730821Y-22330000D01*
X77730821Y-22430000D01*
G37*
X77555821Y-22605000D02*
X77455821Y-22605000D01*
X77455821Y-22155000D01*
X77555821Y-22155000D01*
X77555821Y-22605000D01*
G36*
X77555821Y-22605000D02*
G01*
X77455821Y-22605000D01*
X77455821Y-22155000D01*
X77555821Y-22155000D01*
X77555821Y-22605000D01*
G37*
X79055821Y-21905000D02*
X78885821Y-21905000D01*
X78885821Y-21775000D01*
X78895821Y-21775000D01*
X79055821Y-21775000D01*
X79055821Y-21905000D01*
G36*
X79055821Y-21905000D02*
G01*
X78885821Y-21905000D01*
X78885821Y-21775000D01*
X78895821Y-21775000D01*
X79055821Y-21775000D01*
X79055821Y-21905000D01*
G37*
D12*
G04 #@! TO.C,U1*
X75292150Y-38755000D02*
X75292150Y-37055000D01*
X75292150Y-37055000D02*
X73592150Y-37055000D01*
X73592150Y-38755000D02*
X75292150Y-38755000D01*
X73592150Y-37055000D02*
X73592150Y-38755000D01*
X75492150Y-38605000D02*
G75*
G03*
X75492150Y-38605000I-50000J0D01*
G01*
D10*
X74542150Y-37505000D02*
X74392150Y-37605000D01*
X74392150Y-37405000D01*
X74542150Y-37505000D01*
G36*
X74542150Y-37505000D02*
G01*
X74392150Y-37605000D01*
X74392150Y-37405000D01*
X74542150Y-37505000D01*
G37*
X73617150Y-38430000D02*
X73167150Y-38430000D01*
X73167150Y-38330000D01*
X73617150Y-38330000D01*
X73617150Y-38430000D01*
G36*
X73617150Y-38430000D02*
G01*
X73167150Y-38430000D01*
X73167150Y-38330000D01*
X73617150Y-38330000D01*
X73617150Y-38430000D01*
G37*
X73442150Y-38605000D02*
X73342150Y-38605000D01*
X73342150Y-38155000D01*
X73442150Y-38155000D01*
X73442150Y-38605000D01*
G36*
X73442150Y-38605000D02*
G01*
X73342150Y-38605000D01*
X73342150Y-38155000D01*
X73442150Y-38155000D01*
X73442150Y-38605000D01*
G37*
X74942150Y-37905000D02*
X74772150Y-37905000D01*
X74772150Y-37775000D01*
X74782150Y-37775000D01*
X74942150Y-37775000D01*
X74942150Y-37905000D01*
G36*
X74942150Y-37905000D02*
G01*
X74772150Y-37905000D01*
X74772150Y-37775000D01*
X74782150Y-37775000D01*
X74942150Y-37775000D01*
X74942150Y-37905000D01*
G37*
D12*
G04 #@! TO.C,U4*
X87633163Y-46755000D02*
X87633163Y-45055000D01*
X87633163Y-45055000D02*
X85933163Y-45055000D01*
X85933163Y-46755000D02*
X87633163Y-46755000D01*
X85933163Y-45055000D02*
X85933163Y-46755000D01*
X87833163Y-46605000D02*
G75*
G03*
X87833163Y-46605000I-50000J0D01*
G01*
D10*
X86883163Y-45505000D02*
X86733163Y-45605000D01*
X86733163Y-45405000D01*
X86883163Y-45505000D01*
G36*
X86883163Y-45505000D02*
G01*
X86733163Y-45605000D01*
X86733163Y-45405000D01*
X86883163Y-45505000D01*
G37*
X85958163Y-46430000D02*
X85508163Y-46430000D01*
X85508163Y-46330000D01*
X85958163Y-46330000D01*
X85958163Y-46430000D01*
G36*
X85958163Y-46430000D02*
G01*
X85508163Y-46430000D01*
X85508163Y-46330000D01*
X85958163Y-46330000D01*
X85958163Y-46430000D01*
G37*
X85783163Y-46605000D02*
X85683163Y-46605000D01*
X85683163Y-46155000D01*
X85783163Y-46155000D01*
X85783163Y-46605000D01*
G36*
X85783163Y-46605000D02*
G01*
X85683163Y-46605000D01*
X85683163Y-46155000D01*
X85783163Y-46155000D01*
X85783163Y-46605000D01*
G37*
X87283163Y-45905000D02*
X87113163Y-45905000D01*
X87113163Y-45775000D01*
X87123163Y-45775000D01*
X87283163Y-45775000D01*
X87283163Y-45905000D01*
G36*
X87283163Y-45905000D02*
G01*
X87113163Y-45905000D01*
X87113163Y-45775000D01*
X87123163Y-45775000D01*
X87283163Y-45775000D01*
X87283163Y-45905000D01*
G37*
D12*
X87633163Y-18755000D02*
X87633163Y-17055000D01*
X87633163Y-17055000D02*
X85933163Y-17055000D01*
X85933163Y-18755000D02*
X87633163Y-18755000D01*
X85933163Y-17055000D02*
X85933163Y-18755000D01*
X87833163Y-18605000D02*
G75*
G03*
X87833163Y-18605000I-50000J0D01*
G01*
D10*
X86883163Y-17505000D02*
X86733163Y-17605000D01*
X86733163Y-17405000D01*
X86883163Y-17505000D01*
G36*
X86883163Y-17505000D02*
G01*
X86733163Y-17605000D01*
X86733163Y-17405000D01*
X86883163Y-17505000D01*
G37*
X85958163Y-18430000D02*
X85508163Y-18430000D01*
X85508163Y-18330000D01*
X85958163Y-18330000D01*
X85958163Y-18430000D01*
G36*
X85958163Y-18430000D02*
G01*
X85508163Y-18430000D01*
X85508163Y-18330000D01*
X85958163Y-18330000D01*
X85958163Y-18430000D01*
G37*
X85783163Y-18605000D02*
X85683163Y-18605000D01*
X85683163Y-18155000D01*
X85783163Y-18155000D01*
X85783163Y-18605000D01*
G36*
X85783163Y-18605000D02*
G01*
X85683163Y-18605000D01*
X85683163Y-18155000D01*
X85783163Y-18155000D01*
X85783163Y-18605000D01*
G37*
X87283163Y-17905000D02*
X87113163Y-17905000D01*
X87113163Y-17775000D01*
X87123163Y-17775000D01*
X87283163Y-17775000D01*
X87283163Y-17905000D01*
G36*
X87283163Y-17905000D02*
G01*
X87113163Y-17905000D01*
X87113163Y-17775000D01*
X87123163Y-17775000D01*
X87283163Y-17775000D01*
X87283163Y-17905000D01*
G37*
D12*
G04 #@! TO.C,U7*
X99974176Y-38755000D02*
X99974176Y-37055000D01*
X99974176Y-37055000D02*
X98274176Y-37055000D01*
X98274176Y-38755000D02*
X99974176Y-38755000D01*
X98274176Y-37055000D02*
X98274176Y-38755000D01*
X100174176Y-38605000D02*
G75*
G03*
X100174176Y-38605000I-50000J0D01*
G01*
D10*
X99224176Y-37505000D02*
X99074176Y-37605000D01*
X99074176Y-37405000D01*
X99224176Y-37505000D01*
G36*
X99224176Y-37505000D02*
G01*
X99074176Y-37605000D01*
X99074176Y-37405000D01*
X99224176Y-37505000D01*
G37*
X98299176Y-38430000D02*
X97849176Y-38430000D01*
X97849176Y-38330000D01*
X98299176Y-38330000D01*
X98299176Y-38430000D01*
G36*
X98299176Y-38430000D02*
G01*
X97849176Y-38430000D01*
X97849176Y-38330000D01*
X98299176Y-38330000D01*
X98299176Y-38430000D01*
G37*
X98124176Y-38605000D02*
X98024176Y-38605000D01*
X98024176Y-38155000D01*
X98124176Y-38155000D01*
X98124176Y-38605000D01*
G36*
X98124176Y-38605000D02*
G01*
X98024176Y-38605000D01*
X98024176Y-38155000D01*
X98124176Y-38155000D01*
X98124176Y-38605000D01*
G37*
X99624176Y-37905000D02*
X99454176Y-37905000D01*
X99454176Y-37775000D01*
X99464176Y-37775000D01*
X99624176Y-37775000D01*
X99624176Y-37905000D01*
G36*
X99624176Y-37905000D02*
G01*
X99454176Y-37905000D01*
X99454176Y-37775000D01*
X99464176Y-37775000D01*
X99624176Y-37775000D01*
X99624176Y-37905000D01*
G37*
D12*
G04 #@! TO.C,U5*
X91746834Y-54755000D02*
X91746834Y-53055000D01*
X91746834Y-53055000D02*
X90046834Y-53055000D01*
X90046834Y-54755000D02*
X91746834Y-54755000D01*
X90046834Y-53055000D02*
X90046834Y-54755000D01*
X91946834Y-54605000D02*
G75*
G03*
X91946834Y-54605000I-50000J0D01*
G01*
D10*
X90996834Y-53505000D02*
X90846834Y-53605000D01*
X90846834Y-53405000D01*
X90996834Y-53505000D01*
G36*
X90996834Y-53505000D02*
G01*
X90846834Y-53605000D01*
X90846834Y-53405000D01*
X90996834Y-53505000D01*
G37*
X90071834Y-54430000D02*
X89621834Y-54430000D01*
X89621834Y-54330000D01*
X90071834Y-54330000D01*
X90071834Y-54430000D01*
G36*
X90071834Y-54430000D02*
G01*
X89621834Y-54430000D01*
X89621834Y-54330000D01*
X90071834Y-54330000D01*
X90071834Y-54430000D01*
G37*
X89896834Y-54605000D02*
X89796834Y-54605000D01*
X89796834Y-54155000D01*
X89896834Y-54155000D01*
X89896834Y-54605000D01*
G36*
X89896834Y-54605000D02*
G01*
X89796834Y-54605000D01*
X89796834Y-54155000D01*
X89896834Y-54155000D01*
X89896834Y-54605000D01*
G37*
X91396834Y-53905000D02*
X91226834Y-53905000D01*
X91226834Y-53775000D01*
X91236834Y-53775000D01*
X91396834Y-53775000D01*
X91396834Y-53905000D01*
G36*
X91396834Y-53905000D02*
G01*
X91226834Y-53905000D01*
X91226834Y-53775000D01*
X91236834Y-53775000D01*
X91396834Y-53775000D01*
X91396834Y-53905000D01*
G37*
D12*
G04 #@! TO.C,U1*
X75292150Y-54755000D02*
X75292150Y-53055000D01*
X75292150Y-53055000D02*
X73592150Y-53055000D01*
X73592150Y-54755000D02*
X75292150Y-54755000D01*
X73592150Y-53055000D02*
X73592150Y-54755000D01*
X75492150Y-54605000D02*
G75*
G03*
X75492150Y-54605000I-50000J0D01*
G01*
D10*
X74542150Y-53505000D02*
X74392150Y-53605000D01*
X74392150Y-53405000D01*
X74542150Y-53505000D01*
G36*
X74542150Y-53505000D02*
G01*
X74392150Y-53605000D01*
X74392150Y-53405000D01*
X74542150Y-53505000D01*
G37*
X73617150Y-54430000D02*
X73167150Y-54430000D01*
X73167150Y-54330000D01*
X73617150Y-54330000D01*
X73617150Y-54430000D01*
G36*
X73617150Y-54430000D02*
G01*
X73167150Y-54430000D01*
X73167150Y-54330000D01*
X73617150Y-54330000D01*
X73617150Y-54430000D01*
G37*
X73442150Y-54605000D02*
X73342150Y-54605000D01*
X73342150Y-54155000D01*
X73442150Y-54155000D01*
X73442150Y-54605000D01*
G36*
X73442150Y-54605000D02*
G01*
X73342150Y-54605000D01*
X73342150Y-54155000D01*
X73442150Y-54155000D01*
X73442150Y-54605000D01*
G37*
X74942150Y-53905000D02*
X74772150Y-53905000D01*
X74772150Y-53775000D01*
X74782150Y-53775000D01*
X74942150Y-53775000D01*
X74942150Y-53905000D01*
G36*
X74942150Y-53905000D02*
G01*
X74772150Y-53905000D01*
X74772150Y-53775000D01*
X74782150Y-53775000D01*
X74942150Y-53775000D01*
X74942150Y-53905000D01*
G37*
D12*
G04 #@! TO.C,U6*
X95860505Y-46755000D02*
X95860505Y-45055000D01*
X95860505Y-45055000D02*
X94160505Y-45055000D01*
X94160505Y-46755000D02*
X95860505Y-46755000D01*
X94160505Y-45055000D02*
X94160505Y-46755000D01*
X96060505Y-46605000D02*
G75*
G03*
X96060505Y-46605000I-50000J0D01*
G01*
D10*
X95110505Y-45505000D02*
X94960505Y-45605000D01*
X94960505Y-45405000D01*
X95110505Y-45505000D01*
G36*
X95110505Y-45505000D02*
G01*
X94960505Y-45605000D01*
X94960505Y-45405000D01*
X95110505Y-45505000D01*
G37*
X94185505Y-46430000D02*
X93735505Y-46430000D01*
X93735505Y-46330000D01*
X94185505Y-46330000D01*
X94185505Y-46430000D01*
G36*
X94185505Y-46430000D02*
G01*
X93735505Y-46430000D01*
X93735505Y-46330000D01*
X94185505Y-46330000D01*
X94185505Y-46430000D01*
G37*
X94010505Y-46605000D02*
X93910505Y-46605000D01*
X93910505Y-46155000D01*
X94010505Y-46155000D01*
X94010505Y-46605000D01*
G36*
X94010505Y-46605000D02*
G01*
X93910505Y-46605000D01*
X93910505Y-46155000D01*
X94010505Y-46155000D01*
X94010505Y-46605000D01*
G37*
X95510505Y-45905000D02*
X95340505Y-45905000D01*
X95340505Y-45775000D01*
X95350505Y-45775000D01*
X95510505Y-45775000D01*
X95510505Y-45905000D01*
G36*
X95510505Y-45905000D02*
G01*
X95340505Y-45905000D01*
X95340505Y-45775000D01*
X95350505Y-45775000D01*
X95510505Y-45775000D01*
X95510505Y-45905000D01*
G37*
D12*
G04 #@! TO.C,U2*
X79405821Y-30755000D02*
X79405821Y-29055000D01*
X79405821Y-29055000D02*
X77705821Y-29055000D01*
X77705821Y-30755000D02*
X79405821Y-30755000D01*
X77705821Y-29055000D02*
X77705821Y-30755000D01*
X79605821Y-30605000D02*
G75*
G03*
X79605821Y-30605000I-50000J0D01*
G01*
D10*
X78655821Y-29505000D02*
X78505821Y-29605000D01*
X78505821Y-29405000D01*
X78655821Y-29505000D01*
G36*
X78655821Y-29505000D02*
G01*
X78505821Y-29605000D01*
X78505821Y-29405000D01*
X78655821Y-29505000D01*
G37*
X77730821Y-30430000D02*
X77280821Y-30430000D01*
X77280821Y-30330000D01*
X77730821Y-30330000D01*
X77730821Y-30430000D01*
G36*
X77730821Y-30430000D02*
G01*
X77280821Y-30430000D01*
X77280821Y-30330000D01*
X77730821Y-30330000D01*
X77730821Y-30430000D01*
G37*
X77555821Y-30605000D02*
X77455821Y-30605000D01*
X77455821Y-30155000D01*
X77555821Y-30155000D01*
X77555821Y-30605000D01*
G36*
X77555821Y-30605000D02*
G01*
X77455821Y-30605000D01*
X77455821Y-30155000D01*
X77555821Y-30155000D01*
X77555821Y-30605000D01*
G37*
X79055821Y-29905000D02*
X78885821Y-29905000D01*
X78885821Y-29775000D01*
X78895821Y-29775000D01*
X79055821Y-29775000D01*
X79055821Y-29905000D01*
G36*
X79055821Y-29905000D02*
G01*
X78885821Y-29905000D01*
X78885821Y-29775000D01*
X78895821Y-29775000D01*
X79055821Y-29775000D01*
X79055821Y-29905000D01*
G37*
D12*
G04 #@! TO.C,U3*
X83519492Y-18755000D02*
X83519492Y-17055000D01*
X83519492Y-17055000D02*
X81819492Y-17055000D01*
X81819492Y-18755000D02*
X83519492Y-18755000D01*
X81819492Y-17055000D02*
X81819492Y-18755000D01*
X83719492Y-18605000D02*
G75*
G03*
X83719492Y-18605000I-50000J0D01*
G01*
D10*
X82769492Y-17505000D02*
X82619492Y-17605000D01*
X82619492Y-17405000D01*
X82769492Y-17505000D01*
G36*
X82769492Y-17505000D02*
G01*
X82619492Y-17605000D01*
X82619492Y-17405000D01*
X82769492Y-17505000D01*
G37*
X81844492Y-18430000D02*
X81394492Y-18430000D01*
X81394492Y-18330000D01*
X81844492Y-18330000D01*
X81844492Y-18430000D01*
G36*
X81844492Y-18430000D02*
G01*
X81394492Y-18430000D01*
X81394492Y-18330000D01*
X81844492Y-18330000D01*
X81844492Y-18430000D01*
G37*
X81669492Y-18605000D02*
X81569492Y-18605000D01*
X81569492Y-18155000D01*
X81669492Y-18155000D01*
X81669492Y-18605000D01*
G36*
X81669492Y-18605000D02*
G01*
X81569492Y-18605000D01*
X81569492Y-18155000D01*
X81669492Y-18155000D01*
X81669492Y-18605000D01*
G37*
X83169492Y-17905000D02*
X82999492Y-17905000D01*
X82999492Y-17775000D01*
X83009492Y-17775000D01*
X83169492Y-17775000D01*
X83169492Y-17905000D01*
G36*
X83169492Y-17905000D02*
G01*
X82999492Y-17905000D01*
X82999492Y-17775000D01*
X83009492Y-17775000D01*
X83169492Y-17775000D01*
X83169492Y-17905000D01*
G37*
D12*
G04 #@! TO.C,U9*
X108201522Y-26755000D02*
X108201522Y-25055000D01*
X108201522Y-25055000D02*
X106501522Y-25055000D01*
X106501522Y-26755000D02*
X108201522Y-26755000D01*
X106501522Y-25055000D02*
X106501522Y-26755000D01*
X108401522Y-26605000D02*
G75*
G03*
X108401522Y-26605000I-50000J0D01*
G01*
D10*
X107451522Y-25505000D02*
X107301522Y-25605000D01*
X107301522Y-25405000D01*
X107451522Y-25505000D01*
G36*
X107451522Y-25505000D02*
G01*
X107301522Y-25605000D01*
X107301522Y-25405000D01*
X107451522Y-25505000D01*
G37*
X106526522Y-26430000D02*
X106076522Y-26430000D01*
X106076522Y-26330000D01*
X106526522Y-26330000D01*
X106526522Y-26430000D01*
G36*
X106526522Y-26430000D02*
G01*
X106076522Y-26430000D01*
X106076522Y-26330000D01*
X106526522Y-26330000D01*
X106526522Y-26430000D01*
G37*
X106351522Y-26605000D02*
X106251522Y-26605000D01*
X106251522Y-26155000D01*
X106351522Y-26155000D01*
X106351522Y-26605000D01*
G36*
X106351522Y-26605000D02*
G01*
X106251522Y-26605000D01*
X106251522Y-26155000D01*
X106351522Y-26155000D01*
X106351522Y-26605000D01*
G37*
X107851522Y-25905000D02*
X107681522Y-25905000D01*
X107681522Y-25775000D01*
X107691522Y-25775000D01*
X107851522Y-25775000D01*
X107851522Y-25905000D01*
G36*
X107851522Y-25905000D02*
G01*
X107681522Y-25905000D01*
X107681522Y-25775000D01*
X107691522Y-25775000D01*
X107851522Y-25775000D01*
X107851522Y-25905000D01*
G37*
D12*
G04 #@! TO.C,U7*
X99974176Y-18755000D02*
X99974176Y-17055000D01*
X99974176Y-17055000D02*
X98274176Y-17055000D01*
X98274176Y-18755000D02*
X99974176Y-18755000D01*
X98274176Y-17055000D02*
X98274176Y-18755000D01*
X100174176Y-18605000D02*
G75*
G03*
X100174176Y-18605000I-50000J0D01*
G01*
D10*
X99224176Y-17505000D02*
X99074176Y-17605000D01*
X99074176Y-17405000D01*
X99224176Y-17505000D01*
G36*
X99224176Y-17505000D02*
G01*
X99074176Y-17605000D01*
X99074176Y-17405000D01*
X99224176Y-17505000D01*
G37*
X98299176Y-18430000D02*
X97849176Y-18430000D01*
X97849176Y-18330000D01*
X98299176Y-18330000D01*
X98299176Y-18430000D01*
G36*
X98299176Y-18430000D02*
G01*
X97849176Y-18430000D01*
X97849176Y-18330000D01*
X98299176Y-18330000D01*
X98299176Y-18430000D01*
G37*
X98124176Y-18605000D02*
X98024176Y-18605000D01*
X98024176Y-18155000D01*
X98124176Y-18155000D01*
X98124176Y-18605000D01*
G36*
X98124176Y-18605000D02*
G01*
X98024176Y-18605000D01*
X98024176Y-18155000D01*
X98124176Y-18155000D01*
X98124176Y-18605000D01*
G37*
X99624176Y-17905000D02*
X99454176Y-17905000D01*
X99454176Y-17775000D01*
X99464176Y-17775000D01*
X99624176Y-17775000D01*
X99624176Y-17905000D01*
G36*
X99624176Y-17905000D02*
G01*
X99454176Y-17905000D01*
X99454176Y-17775000D01*
X99464176Y-17775000D01*
X99624176Y-17775000D01*
X99624176Y-17905000D01*
G37*
D12*
G04 #@! TO.C,U6*
X95860505Y-30755000D02*
X95860505Y-29055000D01*
X95860505Y-29055000D02*
X94160505Y-29055000D01*
X94160505Y-30755000D02*
X95860505Y-30755000D01*
X94160505Y-29055000D02*
X94160505Y-30755000D01*
X96060505Y-30605000D02*
G75*
G03*
X96060505Y-30605000I-50000J0D01*
G01*
D10*
X95110505Y-29505000D02*
X94960505Y-29605000D01*
X94960505Y-29405000D01*
X95110505Y-29505000D01*
G36*
X95110505Y-29505000D02*
G01*
X94960505Y-29605000D01*
X94960505Y-29405000D01*
X95110505Y-29505000D01*
G37*
X94185505Y-30430000D02*
X93735505Y-30430000D01*
X93735505Y-30330000D01*
X94185505Y-30330000D01*
X94185505Y-30430000D01*
G36*
X94185505Y-30430000D02*
G01*
X93735505Y-30430000D01*
X93735505Y-30330000D01*
X94185505Y-30330000D01*
X94185505Y-30430000D01*
G37*
X94010505Y-30605000D02*
X93910505Y-30605000D01*
X93910505Y-30155000D01*
X94010505Y-30155000D01*
X94010505Y-30605000D01*
G36*
X94010505Y-30605000D02*
G01*
X93910505Y-30605000D01*
X93910505Y-30155000D01*
X94010505Y-30155000D01*
X94010505Y-30605000D01*
G37*
X95510505Y-29905000D02*
X95340505Y-29905000D01*
X95340505Y-29775000D01*
X95350505Y-29775000D01*
X95510505Y-29775000D01*
X95510505Y-29905000D01*
G36*
X95510505Y-29905000D02*
G01*
X95340505Y-29905000D01*
X95340505Y-29775000D01*
X95350505Y-29775000D01*
X95510505Y-29775000D01*
X95510505Y-29905000D01*
G37*
D12*
G04 #@! TO.C,U1*
X75292150Y-34755000D02*
X75292150Y-33055000D01*
X75292150Y-33055000D02*
X73592150Y-33055000D01*
X73592150Y-34755000D02*
X75292150Y-34755000D01*
X73592150Y-33055000D02*
X73592150Y-34755000D01*
X75492150Y-34605000D02*
G75*
G03*
X75492150Y-34605000I-50000J0D01*
G01*
D10*
X74542150Y-33505000D02*
X74392150Y-33605000D01*
X74392150Y-33405000D01*
X74542150Y-33505000D01*
G36*
X74542150Y-33505000D02*
G01*
X74392150Y-33605000D01*
X74392150Y-33405000D01*
X74542150Y-33505000D01*
G37*
X73617150Y-34430000D02*
X73167150Y-34430000D01*
X73167150Y-34330000D01*
X73617150Y-34330000D01*
X73617150Y-34430000D01*
G36*
X73617150Y-34430000D02*
G01*
X73167150Y-34430000D01*
X73167150Y-34330000D01*
X73617150Y-34330000D01*
X73617150Y-34430000D01*
G37*
X73442150Y-34605000D02*
X73342150Y-34605000D01*
X73342150Y-34155000D01*
X73442150Y-34155000D01*
X73442150Y-34605000D01*
G36*
X73442150Y-34605000D02*
G01*
X73342150Y-34605000D01*
X73342150Y-34155000D01*
X73442150Y-34155000D01*
X73442150Y-34605000D01*
G37*
X74942150Y-33905000D02*
X74772150Y-33905000D01*
X74772150Y-33775000D01*
X74782150Y-33775000D01*
X74942150Y-33775000D01*
X74942150Y-33905000D01*
G36*
X74942150Y-33905000D02*
G01*
X74772150Y-33905000D01*
X74772150Y-33775000D01*
X74782150Y-33775000D01*
X74942150Y-33775000D01*
X74942150Y-33905000D01*
G37*
D12*
G04 #@! TO.C,U3*
X83519492Y-22755000D02*
X83519492Y-21055000D01*
X83519492Y-21055000D02*
X81819492Y-21055000D01*
X81819492Y-22755000D02*
X83519492Y-22755000D01*
X81819492Y-21055000D02*
X81819492Y-22755000D01*
X83719492Y-22605000D02*
G75*
G03*
X83719492Y-22605000I-50000J0D01*
G01*
D10*
X82769492Y-21505000D02*
X82619492Y-21605000D01*
X82619492Y-21405000D01*
X82769492Y-21505000D01*
G36*
X82769492Y-21505000D02*
G01*
X82619492Y-21605000D01*
X82619492Y-21405000D01*
X82769492Y-21505000D01*
G37*
X81844492Y-22430000D02*
X81394492Y-22430000D01*
X81394492Y-22330000D01*
X81844492Y-22330000D01*
X81844492Y-22430000D01*
G36*
X81844492Y-22430000D02*
G01*
X81394492Y-22430000D01*
X81394492Y-22330000D01*
X81844492Y-22330000D01*
X81844492Y-22430000D01*
G37*
X81669492Y-22605000D02*
X81569492Y-22605000D01*
X81569492Y-22155000D01*
X81669492Y-22155000D01*
X81669492Y-22605000D01*
G36*
X81669492Y-22605000D02*
G01*
X81569492Y-22605000D01*
X81569492Y-22155000D01*
X81669492Y-22155000D01*
X81669492Y-22605000D01*
G37*
X83169492Y-21905000D02*
X82999492Y-21905000D01*
X82999492Y-21775000D01*
X83009492Y-21775000D01*
X83169492Y-21775000D01*
X83169492Y-21905000D01*
G36*
X83169492Y-21905000D02*
G01*
X82999492Y-21905000D01*
X82999492Y-21775000D01*
X83009492Y-21775000D01*
X83169492Y-21775000D01*
X83169492Y-21905000D01*
G37*
D12*
G04 #@! TO.C,U5*
X91746834Y-42755000D02*
X91746834Y-41055000D01*
X91746834Y-41055000D02*
X90046834Y-41055000D01*
X90046834Y-42755000D02*
X91746834Y-42755000D01*
X90046834Y-41055000D02*
X90046834Y-42755000D01*
X91946834Y-42605000D02*
G75*
G03*
X91946834Y-42605000I-50000J0D01*
G01*
D10*
X90996834Y-41505000D02*
X90846834Y-41605000D01*
X90846834Y-41405000D01*
X90996834Y-41505000D01*
G36*
X90996834Y-41505000D02*
G01*
X90846834Y-41605000D01*
X90846834Y-41405000D01*
X90996834Y-41505000D01*
G37*
X90071834Y-42430000D02*
X89621834Y-42430000D01*
X89621834Y-42330000D01*
X90071834Y-42330000D01*
X90071834Y-42430000D01*
G36*
X90071834Y-42430000D02*
G01*
X89621834Y-42430000D01*
X89621834Y-42330000D01*
X90071834Y-42330000D01*
X90071834Y-42430000D01*
G37*
X89896834Y-42605000D02*
X89796834Y-42605000D01*
X89796834Y-42155000D01*
X89896834Y-42155000D01*
X89896834Y-42605000D01*
G36*
X89896834Y-42605000D02*
G01*
X89796834Y-42605000D01*
X89796834Y-42155000D01*
X89896834Y-42155000D01*
X89896834Y-42605000D01*
G37*
X91396834Y-41905000D02*
X91226834Y-41905000D01*
X91226834Y-41775000D01*
X91236834Y-41775000D01*
X91396834Y-41775000D01*
X91396834Y-41905000D01*
G36*
X91396834Y-41905000D02*
G01*
X91226834Y-41905000D01*
X91226834Y-41775000D01*
X91236834Y-41775000D01*
X91396834Y-41775000D01*
X91396834Y-41905000D01*
G37*
D12*
G04 #@! TO.C,U8*
X104087847Y-22755000D02*
X104087847Y-21055000D01*
X104087847Y-21055000D02*
X102387847Y-21055000D01*
X102387847Y-22755000D02*
X104087847Y-22755000D01*
X102387847Y-21055000D02*
X102387847Y-22755000D01*
X104287847Y-22605000D02*
G75*
G03*
X104287847Y-22605000I-50000J0D01*
G01*
D10*
X103337847Y-21505000D02*
X103187847Y-21605000D01*
X103187847Y-21405000D01*
X103337847Y-21505000D01*
G36*
X103337847Y-21505000D02*
G01*
X103187847Y-21605000D01*
X103187847Y-21405000D01*
X103337847Y-21505000D01*
G37*
X102412847Y-22430000D02*
X101962847Y-22430000D01*
X101962847Y-22330000D01*
X102412847Y-22330000D01*
X102412847Y-22430000D01*
G36*
X102412847Y-22430000D02*
G01*
X101962847Y-22430000D01*
X101962847Y-22330000D01*
X102412847Y-22330000D01*
X102412847Y-22430000D01*
G37*
X102237847Y-22605000D02*
X102137847Y-22605000D01*
X102137847Y-22155000D01*
X102237847Y-22155000D01*
X102237847Y-22605000D01*
G36*
X102237847Y-22605000D02*
G01*
X102137847Y-22605000D01*
X102137847Y-22155000D01*
X102237847Y-22155000D01*
X102237847Y-22605000D01*
G37*
X103737847Y-21905000D02*
X103567847Y-21905000D01*
X103567847Y-21775000D01*
X103577847Y-21775000D01*
X103737847Y-21775000D01*
X103737847Y-21905000D01*
G36*
X103737847Y-21905000D02*
G01*
X103567847Y-21905000D01*
X103567847Y-21775000D01*
X103577847Y-21775000D01*
X103737847Y-21775000D01*
X103737847Y-21905000D01*
G37*
D12*
X104087847Y-38755000D02*
X104087847Y-37055000D01*
X104087847Y-37055000D02*
X102387847Y-37055000D01*
X102387847Y-38755000D02*
X104087847Y-38755000D01*
X102387847Y-37055000D02*
X102387847Y-38755000D01*
X104287847Y-38605000D02*
G75*
G03*
X104287847Y-38605000I-50000J0D01*
G01*
D10*
X103337847Y-37505000D02*
X103187847Y-37605000D01*
X103187847Y-37405000D01*
X103337847Y-37505000D01*
G36*
X103337847Y-37505000D02*
G01*
X103187847Y-37605000D01*
X103187847Y-37405000D01*
X103337847Y-37505000D01*
G37*
X102412847Y-38430000D02*
X101962847Y-38430000D01*
X101962847Y-38330000D01*
X102412847Y-38330000D01*
X102412847Y-38430000D01*
G36*
X102412847Y-38430000D02*
G01*
X101962847Y-38430000D01*
X101962847Y-38330000D01*
X102412847Y-38330000D01*
X102412847Y-38430000D01*
G37*
X102237847Y-38605000D02*
X102137847Y-38605000D01*
X102137847Y-38155000D01*
X102237847Y-38155000D01*
X102237847Y-38605000D01*
G36*
X102237847Y-38605000D02*
G01*
X102137847Y-38605000D01*
X102137847Y-38155000D01*
X102237847Y-38155000D01*
X102237847Y-38605000D01*
G37*
X103737847Y-37905000D02*
X103567847Y-37905000D01*
X103567847Y-37775000D01*
X103577847Y-37775000D01*
X103737847Y-37775000D01*
X103737847Y-37905000D01*
G36*
X103737847Y-37905000D02*
G01*
X103567847Y-37905000D01*
X103567847Y-37775000D01*
X103577847Y-37775000D01*
X103737847Y-37775000D01*
X103737847Y-37905000D01*
G37*
D12*
G04 #@! TO.C,U7*
X99974176Y-26755000D02*
X99974176Y-25055000D01*
X99974176Y-25055000D02*
X98274176Y-25055000D01*
X98274176Y-26755000D02*
X99974176Y-26755000D01*
X98274176Y-25055000D02*
X98274176Y-26755000D01*
X100174176Y-26605000D02*
G75*
G03*
X100174176Y-26605000I-50000J0D01*
G01*
D10*
X99224176Y-25505000D02*
X99074176Y-25605000D01*
X99074176Y-25405000D01*
X99224176Y-25505000D01*
G36*
X99224176Y-25505000D02*
G01*
X99074176Y-25605000D01*
X99074176Y-25405000D01*
X99224176Y-25505000D01*
G37*
X98299176Y-26430000D02*
X97849176Y-26430000D01*
X97849176Y-26330000D01*
X98299176Y-26330000D01*
X98299176Y-26430000D01*
G36*
X98299176Y-26430000D02*
G01*
X97849176Y-26430000D01*
X97849176Y-26330000D01*
X98299176Y-26330000D01*
X98299176Y-26430000D01*
G37*
X98124176Y-26605000D02*
X98024176Y-26605000D01*
X98024176Y-26155000D01*
X98124176Y-26155000D01*
X98124176Y-26605000D01*
G36*
X98124176Y-26605000D02*
G01*
X98024176Y-26605000D01*
X98024176Y-26155000D01*
X98124176Y-26155000D01*
X98124176Y-26605000D01*
G37*
X99624176Y-25905000D02*
X99454176Y-25905000D01*
X99454176Y-25775000D01*
X99464176Y-25775000D01*
X99624176Y-25775000D01*
X99624176Y-25905000D01*
G36*
X99624176Y-25905000D02*
G01*
X99454176Y-25905000D01*
X99454176Y-25775000D01*
X99464176Y-25775000D01*
X99624176Y-25775000D01*
X99624176Y-25905000D01*
G37*
D12*
G04 #@! TO.C,U4*
X87633163Y-30755000D02*
X87633163Y-29055000D01*
X87633163Y-29055000D02*
X85933163Y-29055000D01*
X85933163Y-30755000D02*
X87633163Y-30755000D01*
X85933163Y-29055000D02*
X85933163Y-30755000D01*
X87833163Y-30605000D02*
G75*
G03*
X87833163Y-30605000I-50000J0D01*
G01*
D10*
X86883163Y-29505000D02*
X86733163Y-29605000D01*
X86733163Y-29405000D01*
X86883163Y-29505000D01*
G36*
X86883163Y-29505000D02*
G01*
X86733163Y-29605000D01*
X86733163Y-29405000D01*
X86883163Y-29505000D01*
G37*
X85958163Y-30430000D02*
X85508163Y-30430000D01*
X85508163Y-30330000D01*
X85958163Y-30330000D01*
X85958163Y-30430000D01*
G36*
X85958163Y-30430000D02*
G01*
X85508163Y-30430000D01*
X85508163Y-30330000D01*
X85958163Y-30330000D01*
X85958163Y-30430000D01*
G37*
X85783163Y-30605000D02*
X85683163Y-30605000D01*
X85683163Y-30155000D01*
X85783163Y-30155000D01*
X85783163Y-30605000D01*
G36*
X85783163Y-30605000D02*
G01*
X85683163Y-30605000D01*
X85683163Y-30155000D01*
X85783163Y-30155000D01*
X85783163Y-30605000D01*
G37*
X87283163Y-29905000D02*
X87113163Y-29905000D01*
X87113163Y-29775000D01*
X87123163Y-29775000D01*
X87283163Y-29775000D01*
X87283163Y-29905000D01*
G36*
X87283163Y-29905000D02*
G01*
X87113163Y-29905000D01*
X87113163Y-29775000D01*
X87123163Y-29775000D01*
X87283163Y-29775000D01*
X87283163Y-29905000D01*
G37*
D12*
G04 #@! TO.C,U3*
X83519492Y-42755000D02*
X83519492Y-41055000D01*
X83519492Y-41055000D02*
X81819492Y-41055000D01*
X81819492Y-42755000D02*
X83519492Y-42755000D01*
X81819492Y-41055000D02*
X81819492Y-42755000D01*
X83719492Y-42605000D02*
G75*
G03*
X83719492Y-42605000I-50000J0D01*
G01*
D10*
X82769492Y-41505000D02*
X82619492Y-41605000D01*
X82619492Y-41405000D01*
X82769492Y-41505000D01*
G36*
X82769492Y-41505000D02*
G01*
X82619492Y-41605000D01*
X82619492Y-41405000D01*
X82769492Y-41505000D01*
G37*
X81844492Y-42430000D02*
X81394492Y-42430000D01*
X81394492Y-42330000D01*
X81844492Y-42330000D01*
X81844492Y-42430000D01*
G36*
X81844492Y-42430000D02*
G01*
X81394492Y-42430000D01*
X81394492Y-42330000D01*
X81844492Y-42330000D01*
X81844492Y-42430000D01*
G37*
X81669492Y-42605000D02*
X81569492Y-42605000D01*
X81569492Y-42155000D01*
X81669492Y-42155000D01*
X81669492Y-42605000D01*
G36*
X81669492Y-42605000D02*
G01*
X81569492Y-42605000D01*
X81569492Y-42155000D01*
X81669492Y-42155000D01*
X81669492Y-42605000D01*
G37*
X83169492Y-41905000D02*
X82999492Y-41905000D01*
X82999492Y-41775000D01*
X83009492Y-41775000D01*
X83169492Y-41775000D01*
X83169492Y-41905000D01*
G36*
X83169492Y-41905000D02*
G01*
X82999492Y-41905000D01*
X82999492Y-41775000D01*
X83009492Y-41775000D01*
X83169492Y-41775000D01*
X83169492Y-41905000D01*
G37*
D12*
G04 #@! TO.C,U7*
X99974176Y-46755000D02*
X99974176Y-45055000D01*
X99974176Y-45055000D02*
X98274176Y-45055000D01*
X98274176Y-46755000D02*
X99974176Y-46755000D01*
X98274176Y-45055000D02*
X98274176Y-46755000D01*
X100174176Y-46605000D02*
G75*
G03*
X100174176Y-46605000I-50000J0D01*
G01*
D10*
X99224176Y-45505000D02*
X99074176Y-45605000D01*
X99074176Y-45405000D01*
X99224176Y-45505000D01*
G36*
X99224176Y-45505000D02*
G01*
X99074176Y-45605000D01*
X99074176Y-45405000D01*
X99224176Y-45505000D01*
G37*
X98299176Y-46430000D02*
X97849176Y-46430000D01*
X97849176Y-46330000D01*
X98299176Y-46330000D01*
X98299176Y-46430000D01*
G36*
X98299176Y-46430000D02*
G01*
X97849176Y-46430000D01*
X97849176Y-46330000D01*
X98299176Y-46330000D01*
X98299176Y-46430000D01*
G37*
X98124176Y-46605000D02*
X98024176Y-46605000D01*
X98024176Y-46155000D01*
X98124176Y-46155000D01*
X98124176Y-46605000D01*
G36*
X98124176Y-46605000D02*
G01*
X98024176Y-46605000D01*
X98024176Y-46155000D01*
X98124176Y-46155000D01*
X98124176Y-46605000D01*
G37*
X99624176Y-45905000D02*
X99454176Y-45905000D01*
X99454176Y-45775000D01*
X99464176Y-45775000D01*
X99624176Y-45775000D01*
X99624176Y-45905000D01*
G36*
X99624176Y-45905000D02*
G01*
X99454176Y-45905000D01*
X99454176Y-45775000D01*
X99464176Y-45775000D01*
X99624176Y-45775000D01*
X99624176Y-45905000D01*
G37*
D12*
X99974176Y-22755000D02*
X99974176Y-21055000D01*
X99974176Y-21055000D02*
X98274176Y-21055000D01*
X98274176Y-22755000D02*
X99974176Y-22755000D01*
X98274176Y-21055000D02*
X98274176Y-22755000D01*
X100174176Y-22605000D02*
G75*
G03*
X100174176Y-22605000I-50000J0D01*
G01*
D10*
X99224176Y-21505000D02*
X99074176Y-21605000D01*
X99074176Y-21405000D01*
X99224176Y-21505000D01*
G36*
X99224176Y-21505000D02*
G01*
X99074176Y-21605000D01*
X99074176Y-21405000D01*
X99224176Y-21505000D01*
G37*
X98299176Y-22430000D02*
X97849176Y-22430000D01*
X97849176Y-22330000D01*
X98299176Y-22330000D01*
X98299176Y-22430000D01*
G36*
X98299176Y-22430000D02*
G01*
X97849176Y-22430000D01*
X97849176Y-22330000D01*
X98299176Y-22330000D01*
X98299176Y-22430000D01*
G37*
X98124176Y-22605000D02*
X98024176Y-22605000D01*
X98024176Y-22155000D01*
X98124176Y-22155000D01*
X98124176Y-22605000D01*
G36*
X98124176Y-22605000D02*
G01*
X98024176Y-22605000D01*
X98024176Y-22155000D01*
X98124176Y-22155000D01*
X98124176Y-22605000D01*
G37*
X99624176Y-21905000D02*
X99454176Y-21905000D01*
X99454176Y-21775000D01*
X99464176Y-21775000D01*
X99624176Y-21775000D01*
X99624176Y-21905000D01*
G36*
X99624176Y-21905000D02*
G01*
X99454176Y-21905000D01*
X99454176Y-21775000D01*
X99464176Y-21775000D01*
X99624176Y-21775000D01*
X99624176Y-21905000D01*
G37*
D12*
G04 #@! TO.C,U4*
X87633163Y-38755000D02*
X87633163Y-37055000D01*
X87633163Y-37055000D02*
X85933163Y-37055000D01*
X85933163Y-38755000D02*
X87633163Y-38755000D01*
X85933163Y-37055000D02*
X85933163Y-38755000D01*
X87833163Y-38605000D02*
G75*
G03*
X87833163Y-38605000I-50000J0D01*
G01*
D10*
X86883163Y-37505000D02*
X86733163Y-37605000D01*
X86733163Y-37405000D01*
X86883163Y-37505000D01*
G36*
X86883163Y-37505000D02*
G01*
X86733163Y-37605000D01*
X86733163Y-37405000D01*
X86883163Y-37505000D01*
G37*
X85958163Y-38430000D02*
X85508163Y-38430000D01*
X85508163Y-38330000D01*
X85958163Y-38330000D01*
X85958163Y-38430000D01*
G36*
X85958163Y-38430000D02*
G01*
X85508163Y-38430000D01*
X85508163Y-38330000D01*
X85958163Y-38330000D01*
X85958163Y-38430000D01*
G37*
X85783163Y-38605000D02*
X85683163Y-38605000D01*
X85683163Y-38155000D01*
X85783163Y-38155000D01*
X85783163Y-38605000D01*
G36*
X85783163Y-38605000D02*
G01*
X85683163Y-38605000D01*
X85683163Y-38155000D01*
X85783163Y-38155000D01*
X85783163Y-38605000D01*
G37*
X87283163Y-37905000D02*
X87113163Y-37905000D01*
X87113163Y-37775000D01*
X87123163Y-37775000D01*
X87283163Y-37775000D01*
X87283163Y-37905000D01*
G36*
X87283163Y-37905000D02*
G01*
X87113163Y-37905000D01*
X87113163Y-37775000D01*
X87123163Y-37775000D01*
X87283163Y-37775000D01*
X87283163Y-37905000D01*
G37*
D12*
G04 #@! TO.C,U3*
X83519492Y-50755000D02*
X83519492Y-49055000D01*
X83519492Y-49055000D02*
X81819492Y-49055000D01*
X81819492Y-50755000D02*
X83519492Y-50755000D01*
X81819492Y-49055000D02*
X81819492Y-50755000D01*
X83719492Y-50605000D02*
G75*
G03*
X83719492Y-50605000I-50000J0D01*
G01*
D10*
X82769492Y-49505000D02*
X82619492Y-49605000D01*
X82619492Y-49405000D01*
X82769492Y-49505000D01*
G36*
X82769492Y-49505000D02*
G01*
X82619492Y-49605000D01*
X82619492Y-49405000D01*
X82769492Y-49505000D01*
G37*
X81844492Y-50430000D02*
X81394492Y-50430000D01*
X81394492Y-50330000D01*
X81844492Y-50330000D01*
X81844492Y-50430000D01*
G36*
X81844492Y-50430000D02*
G01*
X81394492Y-50430000D01*
X81394492Y-50330000D01*
X81844492Y-50330000D01*
X81844492Y-50430000D01*
G37*
X81669492Y-50605000D02*
X81569492Y-50605000D01*
X81569492Y-50155000D01*
X81669492Y-50155000D01*
X81669492Y-50605000D01*
G36*
X81669492Y-50605000D02*
G01*
X81569492Y-50605000D01*
X81569492Y-50155000D01*
X81669492Y-50155000D01*
X81669492Y-50605000D01*
G37*
X83169492Y-49905000D02*
X82999492Y-49905000D01*
X82999492Y-49775000D01*
X83009492Y-49775000D01*
X83169492Y-49775000D01*
X83169492Y-49905000D01*
G36*
X83169492Y-49905000D02*
G01*
X82999492Y-49905000D01*
X82999492Y-49775000D01*
X83009492Y-49775000D01*
X83169492Y-49775000D01*
X83169492Y-49905000D01*
G37*
D12*
G04 #@! TO.C,U2*
X79405821Y-54755000D02*
X79405821Y-53055000D01*
X79405821Y-53055000D02*
X77705821Y-53055000D01*
X77705821Y-54755000D02*
X79405821Y-54755000D01*
X77705821Y-53055000D02*
X77705821Y-54755000D01*
X79605821Y-54605000D02*
G75*
G03*
X79605821Y-54605000I-50000J0D01*
G01*
D10*
X78655821Y-53505000D02*
X78505821Y-53605000D01*
X78505821Y-53405000D01*
X78655821Y-53505000D01*
G36*
X78655821Y-53505000D02*
G01*
X78505821Y-53605000D01*
X78505821Y-53405000D01*
X78655821Y-53505000D01*
G37*
X77730821Y-54430000D02*
X77280821Y-54430000D01*
X77280821Y-54330000D01*
X77730821Y-54330000D01*
X77730821Y-54430000D01*
G36*
X77730821Y-54430000D02*
G01*
X77280821Y-54430000D01*
X77280821Y-54330000D01*
X77730821Y-54330000D01*
X77730821Y-54430000D01*
G37*
X77555821Y-54605000D02*
X77455821Y-54605000D01*
X77455821Y-54155000D01*
X77555821Y-54155000D01*
X77555821Y-54605000D01*
G36*
X77555821Y-54605000D02*
G01*
X77455821Y-54605000D01*
X77455821Y-54155000D01*
X77555821Y-54155000D01*
X77555821Y-54605000D01*
G37*
X79055821Y-53905000D02*
X78885821Y-53905000D01*
X78885821Y-53775000D01*
X78895821Y-53775000D01*
X79055821Y-53775000D01*
X79055821Y-53905000D01*
G36*
X79055821Y-53905000D02*
G01*
X78885821Y-53905000D01*
X78885821Y-53775000D01*
X78895821Y-53775000D01*
X79055821Y-53775000D01*
X79055821Y-53905000D01*
G37*
D12*
G04 #@! TO.C,U6*
X95860505Y-34755000D02*
X95860505Y-33055000D01*
X95860505Y-33055000D02*
X94160505Y-33055000D01*
X94160505Y-34755000D02*
X95860505Y-34755000D01*
X94160505Y-33055000D02*
X94160505Y-34755000D01*
X96060505Y-34605000D02*
G75*
G03*
X96060505Y-34605000I-50000J0D01*
G01*
D10*
X95110505Y-33505000D02*
X94960505Y-33605000D01*
X94960505Y-33405000D01*
X95110505Y-33505000D01*
G36*
X95110505Y-33505000D02*
G01*
X94960505Y-33605000D01*
X94960505Y-33405000D01*
X95110505Y-33505000D01*
G37*
X94185505Y-34430000D02*
X93735505Y-34430000D01*
X93735505Y-34330000D01*
X94185505Y-34330000D01*
X94185505Y-34430000D01*
G36*
X94185505Y-34430000D02*
G01*
X93735505Y-34430000D01*
X93735505Y-34330000D01*
X94185505Y-34330000D01*
X94185505Y-34430000D01*
G37*
X94010505Y-34605000D02*
X93910505Y-34605000D01*
X93910505Y-34155000D01*
X94010505Y-34155000D01*
X94010505Y-34605000D01*
G36*
X94010505Y-34605000D02*
G01*
X93910505Y-34605000D01*
X93910505Y-34155000D01*
X94010505Y-34155000D01*
X94010505Y-34605000D01*
G37*
X95510505Y-33905000D02*
X95340505Y-33905000D01*
X95340505Y-33775000D01*
X95350505Y-33775000D01*
X95510505Y-33775000D01*
X95510505Y-33905000D01*
G36*
X95510505Y-33905000D02*
G01*
X95340505Y-33905000D01*
X95340505Y-33775000D01*
X95350505Y-33775000D01*
X95510505Y-33775000D01*
X95510505Y-33905000D01*
G37*
D12*
G04 #@! TO.C,U8*
X104087847Y-30755000D02*
X104087847Y-29055000D01*
X104087847Y-29055000D02*
X102387847Y-29055000D01*
X102387847Y-30755000D02*
X104087847Y-30755000D01*
X102387847Y-29055000D02*
X102387847Y-30755000D01*
X104287847Y-30605000D02*
G75*
G03*
X104287847Y-30605000I-50000J0D01*
G01*
D10*
X103337847Y-29505000D02*
X103187847Y-29605000D01*
X103187847Y-29405000D01*
X103337847Y-29505000D01*
G36*
X103337847Y-29505000D02*
G01*
X103187847Y-29605000D01*
X103187847Y-29405000D01*
X103337847Y-29505000D01*
G37*
X102412847Y-30430000D02*
X101962847Y-30430000D01*
X101962847Y-30330000D01*
X102412847Y-30330000D01*
X102412847Y-30430000D01*
G36*
X102412847Y-30430000D02*
G01*
X101962847Y-30430000D01*
X101962847Y-30330000D01*
X102412847Y-30330000D01*
X102412847Y-30430000D01*
G37*
X102237847Y-30605000D02*
X102137847Y-30605000D01*
X102137847Y-30155000D01*
X102237847Y-30155000D01*
X102237847Y-30605000D01*
G36*
X102237847Y-30605000D02*
G01*
X102137847Y-30605000D01*
X102137847Y-30155000D01*
X102237847Y-30155000D01*
X102237847Y-30605000D01*
G37*
X103737847Y-29905000D02*
X103567847Y-29905000D01*
X103567847Y-29775000D01*
X103577847Y-29775000D01*
X103737847Y-29775000D01*
X103737847Y-29905000D01*
G36*
X103737847Y-29905000D02*
G01*
X103567847Y-29905000D01*
X103567847Y-29775000D01*
X103577847Y-29775000D01*
X103737847Y-29775000D01*
X103737847Y-29905000D01*
G37*
D12*
G04 #@! TO.C,U4*
X87633163Y-50755000D02*
X87633163Y-49055000D01*
X87633163Y-49055000D02*
X85933163Y-49055000D01*
X85933163Y-50755000D02*
X87633163Y-50755000D01*
X85933163Y-49055000D02*
X85933163Y-50755000D01*
X87833163Y-50605000D02*
G75*
G03*
X87833163Y-50605000I-50000J0D01*
G01*
D10*
X86883163Y-49505000D02*
X86733163Y-49605000D01*
X86733163Y-49405000D01*
X86883163Y-49505000D01*
G36*
X86883163Y-49505000D02*
G01*
X86733163Y-49605000D01*
X86733163Y-49405000D01*
X86883163Y-49505000D01*
G37*
X85958163Y-50430000D02*
X85508163Y-50430000D01*
X85508163Y-50330000D01*
X85958163Y-50330000D01*
X85958163Y-50430000D01*
G36*
X85958163Y-50430000D02*
G01*
X85508163Y-50430000D01*
X85508163Y-50330000D01*
X85958163Y-50330000D01*
X85958163Y-50430000D01*
G37*
X85783163Y-50605000D02*
X85683163Y-50605000D01*
X85683163Y-50155000D01*
X85783163Y-50155000D01*
X85783163Y-50605000D01*
G36*
X85783163Y-50605000D02*
G01*
X85683163Y-50605000D01*
X85683163Y-50155000D01*
X85783163Y-50155000D01*
X85783163Y-50605000D01*
G37*
X87283163Y-49905000D02*
X87113163Y-49905000D01*
X87113163Y-49775000D01*
X87123163Y-49775000D01*
X87283163Y-49775000D01*
X87283163Y-49905000D01*
G36*
X87283163Y-49905000D02*
G01*
X87113163Y-49905000D01*
X87113163Y-49775000D01*
X87123163Y-49775000D01*
X87283163Y-49775000D01*
X87283163Y-49905000D01*
G37*
D12*
G04 #@! TO.C,U8*
X104087847Y-34755000D02*
X104087847Y-33055000D01*
X104087847Y-33055000D02*
X102387847Y-33055000D01*
X102387847Y-34755000D02*
X104087847Y-34755000D01*
X102387847Y-33055000D02*
X102387847Y-34755000D01*
X104287847Y-34605000D02*
G75*
G03*
X104287847Y-34605000I-50000J0D01*
G01*
D10*
X103337847Y-33505000D02*
X103187847Y-33605000D01*
X103187847Y-33405000D01*
X103337847Y-33505000D01*
G36*
X103337847Y-33505000D02*
G01*
X103187847Y-33605000D01*
X103187847Y-33405000D01*
X103337847Y-33505000D01*
G37*
X102412847Y-34430000D02*
X101962847Y-34430000D01*
X101962847Y-34330000D01*
X102412847Y-34330000D01*
X102412847Y-34430000D01*
G36*
X102412847Y-34430000D02*
G01*
X101962847Y-34430000D01*
X101962847Y-34330000D01*
X102412847Y-34330000D01*
X102412847Y-34430000D01*
G37*
X102237847Y-34605000D02*
X102137847Y-34605000D01*
X102137847Y-34155000D01*
X102237847Y-34155000D01*
X102237847Y-34605000D01*
G36*
X102237847Y-34605000D02*
G01*
X102137847Y-34605000D01*
X102137847Y-34155000D01*
X102237847Y-34155000D01*
X102237847Y-34605000D01*
G37*
X103737847Y-33905000D02*
X103567847Y-33905000D01*
X103567847Y-33775000D01*
X103577847Y-33775000D01*
X103737847Y-33775000D01*
X103737847Y-33905000D01*
G36*
X103737847Y-33905000D02*
G01*
X103567847Y-33905000D01*
X103567847Y-33775000D01*
X103577847Y-33775000D01*
X103737847Y-33775000D01*
X103737847Y-33905000D01*
G37*
D12*
G04 #@! TO.C,U2*
X79405821Y-50755000D02*
X79405821Y-49055000D01*
X79405821Y-49055000D02*
X77705821Y-49055000D01*
X77705821Y-50755000D02*
X79405821Y-50755000D01*
X77705821Y-49055000D02*
X77705821Y-50755000D01*
X79605821Y-50605000D02*
G75*
G03*
X79605821Y-50605000I-50000J0D01*
G01*
D10*
X78655821Y-49505000D02*
X78505821Y-49605000D01*
X78505821Y-49405000D01*
X78655821Y-49505000D01*
G36*
X78655821Y-49505000D02*
G01*
X78505821Y-49605000D01*
X78505821Y-49405000D01*
X78655821Y-49505000D01*
G37*
X77730821Y-50430000D02*
X77280821Y-50430000D01*
X77280821Y-50330000D01*
X77730821Y-50330000D01*
X77730821Y-50430000D01*
G36*
X77730821Y-50430000D02*
G01*
X77280821Y-50430000D01*
X77280821Y-50330000D01*
X77730821Y-50330000D01*
X77730821Y-50430000D01*
G37*
X77555821Y-50605000D02*
X77455821Y-50605000D01*
X77455821Y-50155000D01*
X77555821Y-50155000D01*
X77555821Y-50605000D01*
G36*
X77555821Y-50605000D02*
G01*
X77455821Y-50605000D01*
X77455821Y-50155000D01*
X77555821Y-50155000D01*
X77555821Y-50605000D01*
G37*
X79055821Y-49905000D02*
X78885821Y-49905000D01*
X78885821Y-49775000D01*
X78895821Y-49775000D01*
X79055821Y-49775000D01*
X79055821Y-49905000D01*
G36*
X79055821Y-49905000D02*
G01*
X78885821Y-49905000D01*
X78885821Y-49775000D01*
X78895821Y-49775000D01*
X79055821Y-49775000D01*
X79055821Y-49905000D01*
G37*
D12*
G04 #@! TO.C,U8*
X104087847Y-46755000D02*
X104087847Y-45055000D01*
X104087847Y-45055000D02*
X102387847Y-45055000D01*
X102387847Y-46755000D02*
X104087847Y-46755000D01*
X102387847Y-45055000D02*
X102387847Y-46755000D01*
X104287847Y-46605000D02*
G75*
G03*
X104287847Y-46605000I-50000J0D01*
G01*
D10*
X103337847Y-45505000D02*
X103187847Y-45605000D01*
X103187847Y-45405000D01*
X103337847Y-45505000D01*
G36*
X103337847Y-45505000D02*
G01*
X103187847Y-45605000D01*
X103187847Y-45405000D01*
X103337847Y-45505000D01*
G37*
X102412847Y-46430000D02*
X101962847Y-46430000D01*
X101962847Y-46330000D01*
X102412847Y-46330000D01*
X102412847Y-46430000D01*
G36*
X102412847Y-46430000D02*
G01*
X101962847Y-46430000D01*
X101962847Y-46330000D01*
X102412847Y-46330000D01*
X102412847Y-46430000D01*
G37*
X102237847Y-46605000D02*
X102137847Y-46605000D01*
X102137847Y-46155000D01*
X102237847Y-46155000D01*
X102237847Y-46605000D01*
G36*
X102237847Y-46605000D02*
G01*
X102137847Y-46605000D01*
X102137847Y-46155000D01*
X102237847Y-46155000D01*
X102237847Y-46605000D01*
G37*
X103737847Y-45905000D02*
X103567847Y-45905000D01*
X103567847Y-45775000D01*
X103577847Y-45775000D01*
X103737847Y-45775000D01*
X103737847Y-45905000D01*
G36*
X103737847Y-45905000D02*
G01*
X103567847Y-45905000D01*
X103567847Y-45775000D01*
X103577847Y-45775000D01*
X103737847Y-45775000D01*
X103737847Y-45905000D01*
G37*
D12*
G04 #@! TO.C,U1*
X75292150Y-18755000D02*
X75292150Y-17055000D01*
X75292150Y-17055000D02*
X73592150Y-17055000D01*
X73592150Y-18755000D02*
X75292150Y-18755000D01*
X73592150Y-17055000D02*
X73592150Y-18755000D01*
X75492150Y-18605000D02*
G75*
G03*
X75492150Y-18605000I-50000J0D01*
G01*
D10*
X74542150Y-17505000D02*
X74392150Y-17605000D01*
X74392150Y-17405000D01*
X74542150Y-17505000D01*
G36*
X74542150Y-17505000D02*
G01*
X74392150Y-17605000D01*
X74392150Y-17405000D01*
X74542150Y-17505000D01*
G37*
X73617150Y-18430000D02*
X73167150Y-18430000D01*
X73167150Y-18330000D01*
X73617150Y-18330000D01*
X73617150Y-18430000D01*
G36*
X73617150Y-18430000D02*
G01*
X73167150Y-18430000D01*
X73167150Y-18330000D01*
X73617150Y-18330000D01*
X73617150Y-18430000D01*
G37*
X73442150Y-18605000D02*
X73342150Y-18605000D01*
X73342150Y-18155000D01*
X73442150Y-18155000D01*
X73442150Y-18605000D01*
G36*
X73442150Y-18605000D02*
G01*
X73342150Y-18605000D01*
X73342150Y-18155000D01*
X73442150Y-18155000D01*
X73442150Y-18605000D01*
G37*
X74942150Y-17905000D02*
X74772150Y-17905000D01*
X74772150Y-17775000D01*
X74782150Y-17775000D01*
X74942150Y-17775000D01*
X74942150Y-17905000D01*
G36*
X74942150Y-17905000D02*
G01*
X74772150Y-17905000D01*
X74772150Y-17775000D01*
X74782150Y-17775000D01*
X74942150Y-17775000D01*
X74942150Y-17905000D01*
G37*
D12*
G04 #@! TO.C,U8*
X104087847Y-50755000D02*
X104087847Y-49055000D01*
X104087847Y-49055000D02*
X102387847Y-49055000D01*
X102387847Y-50755000D02*
X104087847Y-50755000D01*
X102387847Y-49055000D02*
X102387847Y-50755000D01*
X104287847Y-50605000D02*
G75*
G03*
X104287847Y-50605000I-50000J0D01*
G01*
D10*
X103337847Y-49505000D02*
X103187847Y-49605000D01*
X103187847Y-49405000D01*
X103337847Y-49505000D01*
G36*
X103337847Y-49505000D02*
G01*
X103187847Y-49605000D01*
X103187847Y-49405000D01*
X103337847Y-49505000D01*
G37*
X102412847Y-50430000D02*
X101962847Y-50430000D01*
X101962847Y-50330000D01*
X102412847Y-50330000D01*
X102412847Y-50430000D01*
G36*
X102412847Y-50430000D02*
G01*
X101962847Y-50430000D01*
X101962847Y-50330000D01*
X102412847Y-50330000D01*
X102412847Y-50430000D01*
G37*
X102237847Y-50605000D02*
X102137847Y-50605000D01*
X102137847Y-50155000D01*
X102237847Y-50155000D01*
X102237847Y-50605000D01*
G36*
X102237847Y-50605000D02*
G01*
X102137847Y-50605000D01*
X102137847Y-50155000D01*
X102237847Y-50155000D01*
X102237847Y-50605000D01*
G37*
X103737847Y-49905000D02*
X103567847Y-49905000D01*
X103567847Y-49775000D01*
X103577847Y-49775000D01*
X103737847Y-49775000D01*
X103737847Y-49905000D01*
G36*
X103737847Y-49905000D02*
G01*
X103567847Y-49905000D01*
X103567847Y-49775000D01*
X103577847Y-49775000D01*
X103737847Y-49775000D01*
X103737847Y-49905000D01*
G37*
D12*
G04 #@! TO.C,U9*
X108201522Y-22755000D02*
X108201522Y-21055000D01*
X108201522Y-21055000D02*
X106501522Y-21055000D01*
X106501522Y-22755000D02*
X108201522Y-22755000D01*
X106501522Y-21055000D02*
X106501522Y-22755000D01*
X108401522Y-22605000D02*
G75*
G03*
X108401522Y-22605000I-50000J0D01*
G01*
D10*
X107451522Y-21505000D02*
X107301522Y-21605000D01*
X107301522Y-21405000D01*
X107451522Y-21505000D01*
G36*
X107451522Y-21505000D02*
G01*
X107301522Y-21605000D01*
X107301522Y-21405000D01*
X107451522Y-21505000D01*
G37*
X106526522Y-22430000D02*
X106076522Y-22430000D01*
X106076522Y-22330000D01*
X106526522Y-22330000D01*
X106526522Y-22430000D01*
G36*
X106526522Y-22430000D02*
G01*
X106076522Y-22430000D01*
X106076522Y-22330000D01*
X106526522Y-22330000D01*
X106526522Y-22430000D01*
G37*
X106351522Y-22605000D02*
X106251522Y-22605000D01*
X106251522Y-22155000D01*
X106351522Y-22155000D01*
X106351522Y-22605000D01*
G36*
X106351522Y-22605000D02*
G01*
X106251522Y-22605000D01*
X106251522Y-22155000D01*
X106351522Y-22155000D01*
X106351522Y-22605000D01*
G37*
X107851522Y-21905000D02*
X107681522Y-21905000D01*
X107681522Y-21775000D01*
X107691522Y-21775000D01*
X107851522Y-21775000D01*
X107851522Y-21905000D01*
G36*
X107851522Y-21905000D02*
G01*
X107681522Y-21905000D01*
X107681522Y-21775000D01*
X107691522Y-21775000D01*
X107851522Y-21775000D01*
X107851522Y-21905000D01*
G37*
D12*
G04 #@! TO.C,U5*
X91746834Y-38755000D02*
X91746834Y-37055000D01*
X91746834Y-37055000D02*
X90046834Y-37055000D01*
X90046834Y-38755000D02*
X91746834Y-38755000D01*
X90046834Y-37055000D02*
X90046834Y-38755000D01*
X91946834Y-38605000D02*
G75*
G03*
X91946834Y-38605000I-50000J0D01*
G01*
D10*
X90996834Y-37505000D02*
X90846834Y-37605000D01*
X90846834Y-37405000D01*
X90996834Y-37505000D01*
G36*
X90996834Y-37505000D02*
G01*
X90846834Y-37605000D01*
X90846834Y-37405000D01*
X90996834Y-37505000D01*
G37*
X90071834Y-38430000D02*
X89621834Y-38430000D01*
X89621834Y-38330000D01*
X90071834Y-38330000D01*
X90071834Y-38430000D01*
G36*
X90071834Y-38430000D02*
G01*
X89621834Y-38430000D01*
X89621834Y-38330000D01*
X90071834Y-38330000D01*
X90071834Y-38430000D01*
G37*
X89896834Y-38605000D02*
X89796834Y-38605000D01*
X89796834Y-38155000D01*
X89896834Y-38155000D01*
X89896834Y-38605000D01*
G36*
X89896834Y-38605000D02*
G01*
X89796834Y-38605000D01*
X89796834Y-38155000D01*
X89896834Y-38155000D01*
X89896834Y-38605000D01*
G37*
X91396834Y-37905000D02*
X91226834Y-37905000D01*
X91226834Y-37775000D01*
X91236834Y-37775000D01*
X91396834Y-37775000D01*
X91396834Y-37905000D01*
G36*
X91396834Y-37905000D02*
G01*
X91226834Y-37905000D01*
X91226834Y-37775000D01*
X91236834Y-37775000D01*
X91396834Y-37775000D01*
X91396834Y-37905000D01*
G37*
D12*
X91746834Y-50755000D02*
X91746834Y-49055000D01*
X91746834Y-49055000D02*
X90046834Y-49055000D01*
X90046834Y-50755000D02*
X91746834Y-50755000D01*
X90046834Y-49055000D02*
X90046834Y-50755000D01*
X91946834Y-50605000D02*
G75*
G03*
X91946834Y-50605000I-50000J0D01*
G01*
D10*
X90996834Y-49505000D02*
X90846834Y-49605000D01*
X90846834Y-49405000D01*
X90996834Y-49505000D01*
G36*
X90996834Y-49505000D02*
G01*
X90846834Y-49605000D01*
X90846834Y-49405000D01*
X90996834Y-49505000D01*
G37*
X90071834Y-50430000D02*
X89621834Y-50430000D01*
X89621834Y-50330000D01*
X90071834Y-50330000D01*
X90071834Y-50430000D01*
G36*
X90071834Y-50430000D02*
G01*
X89621834Y-50430000D01*
X89621834Y-50330000D01*
X90071834Y-50330000D01*
X90071834Y-50430000D01*
G37*
X89896834Y-50605000D02*
X89796834Y-50605000D01*
X89796834Y-50155000D01*
X89896834Y-50155000D01*
X89896834Y-50605000D01*
G36*
X89896834Y-50605000D02*
G01*
X89796834Y-50605000D01*
X89796834Y-50155000D01*
X89896834Y-50155000D01*
X89896834Y-50605000D01*
G37*
X91396834Y-49905000D02*
X91226834Y-49905000D01*
X91226834Y-49775000D01*
X91236834Y-49775000D01*
X91396834Y-49775000D01*
X91396834Y-49905000D01*
G36*
X91396834Y-49905000D02*
G01*
X91226834Y-49905000D01*
X91226834Y-49775000D01*
X91236834Y-49775000D01*
X91396834Y-49775000D01*
X91396834Y-49905000D01*
G37*
D12*
G04 #@! TO.C,U7*
X99974176Y-42755000D02*
X99974176Y-41055000D01*
X99974176Y-41055000D02*
X98274176Y-41055000D01*
X98274176Y-42755000D02*
X99974176Y-42755000D01*
X98274176Y-41055000D02*
X98274176Y-42755000D01*
X100174176Y-42605000D02*
G75*
G03*
X100174176Y-42605000I-50000J0D01*
G01*
D10*
X99224176Y-41505000D02*
X99074176Y-41605000D01*
X99074176Y-41405000D01*
X99224176Y-41505000D01*
G36*
X99224176Y-41505000D02*
G01*
X99074176Y-41605000D01*
X99074176Y-41405000D01*
X99224176Y-41505000D01*
G37*
X98299176Y-42430000D02*
X97849176Y-42430000D01*
X97849176Y-42330000D01*
X98299176Y-42330000D01*
X98299176Y-42430000D01*
G36*
X98299176Y-42430000D02*
G01*
X97849176Y-42430000D01*
X97849176Y-42330000D01*
X98299176Y-42330000D01*
X98299176Y-42430000D01*
G37*
X98124176Y-42605000D02*
X98024176Y-42605000D01*
X98024176Y-42155000D01*
X98124176Y-42155000D01*
X98124176Y-42605000D01*
G36*
X98124176Y-42605000D02*
G01*
X98024176Y-42605000D01*
X98024176Y-42155000D01*
X98124176Y-42155000D01*
X98124176Y-42605000D01*
G37*
X99624176Y-41905000D02*
X99454176Y-41905000D01*
X99454176Y-41775000D01*
X99464176Y-41775000D01*
X99624176Y-41775000D01*
X99624176Y-41905000D01*
G36*
X99624176Y-41905000D02*
G01*
X99454176Y-41905000D01*
X99454176Y-41775000D01*
X99464176Y-41775000D01*
X99624176Y-41775000D01*
X99624176Y-41905000D01*
G37*
D12*
G04 #@! TO.C,U5*
X91746834Y-26755000D02*
X91746834Y-25055000D01*
X91746834Y-25055000D02*
X90046834Y-25055000D01*
X90046834Y-26755000D02*
X91746834Y-26755000D01*
X90046834Y-25055000D02*
X90046834Y-26755000D01*
X91946834Y-26605000D02*
G75*
G03*
X91946834Y-26605000I-50000J0D01*
G01*
D10*
X90996834Y-25505000D02*
X90846834Y-25605000D01*
X90846834Y-25405000D01*
X90996834Y-25505000D01*
G36*
X90996834Y-25505000D02*
G01*
X90846834Y-25605000D01*
X90846834Y-25405000D01*
X90996834Y-25505000D01*
G37*
X90071834Y-26430000D02*
X89621834Y-26430000D01*
X89621834Y-26330000D01*
X90071834Y-26330000D01*
X90071834Y-26430000D01*
G36*
X90071834Y-26430000D02*
G01*
X89621834Y-26430000D01*
X89621834Y-26330000D01*
X90071834Y-26330000D01*
X90071834Y-26430000D01*
G37*
X89896834Y-26605000D02*
X89796834Y-26605000D01*
X89796834Y-26155000D01*
X89896834Y-26155000D01*
X89896834Y-26605000D01*
G36*
X89896834Y-26605000D02*
G01*
X89796834Y-26605000D01*
X89796834Y-26155000D01*
X89896834Y-26155000D01*
X89896834Y-26605000D01*
G37*
X91396834Y-25905000D02*
X91226834Y-25905000D01*
X91226834Y-25775000D01*
X91236834Y-25775000D01*
X91396834Y-25775000D01*
X91396834Y-25905000D01*
G36*
X91396834Y-25905000D02*
G01*
X91226834Y-25905000D01*
X91226834Y-25775000D01*
X91236834Y-25775000D01*
X91396834Y-25775000D01*
X91396834Y-25905000D01*
G37*
D12*
G04 #@! TO.C,U7*
X99974176Y-34755000D02*
X99974176Y-33055000D01*
X99974176Y-33055000D02*
X98274176Y-33055000D01*
X98274176Y-34755000D02*
X99974176Y-34755000D01*
X98274176Y-33055000D02*
X98274176Y-34755000D01*
X100174176Y-34605000D02*
G75*
G03*
X100174176Y-34605000I-50000J0D01*
G01*
D10*
X99224176Y-33505000D02*
X99074176Y-33605000D01*
X99074176Y-33405000D01*
X99224176Y-33505000D01*
G36*
X99224176Y-33505000D02*
G01*
X99074176Y-33605000D01*
X99074176Y-33405000D01*
X99224176Y-33505000D01*
G37*
X98299176Y-34430000D02*
X97849176Y-34430000D01*
X97849176Y-34330000D01*
X98299176Y-34330000D01*
X98299176Y-34430000D01*
G36*
X98299176Y-34430000D02*
G01*
X97849176Y-34430000D01*
X97849176Y-34330000D01*
X98299176Y-34330000D01*
X98299176Y-34430000D01*
G37*
X98124176Y-34605000D02*
X98024176Y-34605000D01*
X98024176Y-34155000D01*
X98124176Y-34155000D01*
X98124176Y-34605000D01*
G36*
X98124176Y-34605000D02*
G01*
X98024176Y-34605000D01*
X98024176Y-34155000D01*
X98124176Y-34155000D01*
X98124176Y-34605000D01*
G37*
X99624176Y-33905000D02*
X99454176Y-33905000D01*
X99454176Y-33775000D01*
X99464176Y-33775000D01*
X99624176Y-33775000D01*
X99624176Y-33905000D01*
G36*
X99624176Y-33905000D02*
G01*
X99454176Y-33905000D01*
X99454176Y-33775000D01*
X99464176Y-33775000D01*
X99624176Y-33775000D01*
X99624176Y-33905000D01*
G37*
D12*
G04 #@! TO.C,U9*
X108201522Y-50755000D02*
X108201522Y-49055000D01*
X108201522Y-49055000D02*
X106501522Y-49055000D01*
X106501522Y-50755000D02*
X108201522Y-50755000D01*
X106501522Y-49055000D02*
X106501522Y-50755000D01*
X108401522Y-50605000D02*
G75*
G03*
X108401522Y-50605000I-50000J0D01*
G01*
D10*
X107451522Y-49505000D02*
X107301522Y-49605000D01*
X107301522Y-49405000D01*
X107451522Y-49505000D01*
G36*
X107451522Y-49505000D02*
G01*
X107301522Y-49605000D01*
X107301522Y-49405000D01*
X107451522Y-49505000D01*
G37*
X106526522Y-50430000D02*
X106076522Y-50430000D01*
X106076522Y-50330000D01*
X106526522Y-50330000D01*
X106526522Y-50430000D01*
G36*
X106526522Y-50430000D02*
G01*
X106076522Y-50430000D01*
X106076522Y-50330000D01*
X106526522Y-50330000D01*
X106526522Y-50430000D01*
G37*
X106351522Y-50605000D02*
X106251522Y-50605000D01*
X106251522Y-50155000D01*
X106351522Y-50155000D01*
X106351522Y-50605000D01*
G36*
X106351522Y-50605000D02*
G01*
X106251522Y-50605000D01*
X106251522Y-50155000D01*
X106351522Y-50155000D01*
X106351522Y-50605000D01*
G37*
X107851522Y-49905000D02*
X107681522Y-49905000D01*
X107681522Y-49775000D01*
X107691522Y-49775000D01*
X107851522Y-49775000D01*
X107851522Y-49905000D01*
G36*
X107851522Y-49905000D02*
G01*
X107681522Y-49905000D01*
X107681522Y-49775000D01*
X107691522Y-49775000D01*
X107851522Y-49775000D01*
X107851522Y-49905000D01*
G37*
D12*
G04 #@! TO.C,U8*
X104087847Y-26755000D02*
X104087847Y-25055000D01*
X104087847Y-25055000D02*
X102387847Y-25055000D01*
X102387847Y-26755000D02*
X104087847Y-26755000D01*
X102387847Y-25055000D02*
X102387847Y-26755000D01*
X104287847Y-26605000D02*
G75*
G03*
X104287847Y-26605000I-50000J0D01*
G01*
D10*
X103337847Y-25505000D02*
X103187847Y-25605000D01*
X103187847Y-25405000D01*
X103337847Y-25505000D01*
G36*
X103337847Y-25505000D02*
G01*
X103187847Y-25605000D01*
X103187847Y-25405000D01*
X103337847Y-25505000D01*
G37*
X102412847Y-26430000D02*
X101962847Y-26430000D01*
X101962847Y-26330000D01*
X102412847Y-26330000D01*
X102412847Y-26430000D01*
G36*
X102412847Y-26430000D02*
G01*
X101962847Y-26430000D01*
X101962847Y-26330000D01*
X102412847Y-26330000D01*
X102412847Y-26430000D01*
G37*
X102237847Y-26605000D02*
X102137847Y-26605000D01*
X102137847Y-26155000D01*
X102237847Y-26155000D01*
X102237847Y-26605000D01*
G36*
X102237847Y-26605000D02*
G01*
X102137847Y-26605000D01*
X102137847Y-26155000D01*
X102237847Y-26155000D01*
X102237847Y-26605000D01*
G37*
X103737847Y-25905000D02*
X103567847Y-25905000D01*
X103567847Y-25775000D01*
X103577847Y-25775000D01*
X103737847Y-25775000D01*
X103737847Y-25905000D01*
G36*
X103737847Y-25905000D02*
G01*
X103567847Y-25905000D01*
X103567847Y-25775000D01*
X103577847Y-25775000D01*
X103737847Y-25775000D01*
X103737847Y-25905000D01*
G37*
D12*
G04 #@! TO.C,U6*
X95860505Y-22755000D02*
X95860505Y-21055000D01*
X95860505Y-21055000D02*
X94160505Y-21055000D01*
X94160505Y-22755000D02*
X95860505Y-22755000D01*
X94160505Y-21055000D02*
X94160505Y-22755000D01*
X96060505Y-22605000D02*
G75*
G03*
X96060505Y-22605000I-50000J0D01*
G01*
D10*
X95110505Y-21505000D02*
X94960505Y-21605000D01*
X94960505Y-21405000D01*
X95110505Y-21505000D01*
G36*
X95110505Y-21505000D02*
G01*
X94960505Y-21605000D01*
X94960505Y-21405000D01*
X95110505Y-21505000D01*
G37*
X94185505Y-22430000D02*
X93735505Y-22430000D01*
X93735505Y-22330000D01*
X94185505Y-22330000D01*
X94185505Y-22430000D01*
G36*
X94185505Y-22430000D02*
G01*
X93735505Y-22430000D01*
X93735505Y-22330000D01*
X94185505Y-22330000D01*
X94185505Y-22430000D01*
G37*
X94010505Y-22605000D02*
X93910505Y-22605000D01*
X93910505Y-22155000D01*
X94010505Y-22155000D01*
X94010505Y-22605000D01*
G36*
X94010505Y-22605000D02*
G01*
X93910505Y-22605000D01*
X93910505Y-22155000D01*
X94010505Y-22155000D01*
X94010505Y-22605000D01*
G37*
X95510505Y-21905000D02*
X95340505Y-21905000D01*
X95340505Y-21775000D01*
X95350505Y-21775000D01*
X95510505Y-21775000D01*
X95510505Y-21905000D01*
G36*
X95510505Y-21905000D02*
G01*
X95340505Y-21905000D01*
X95340505Y-21775000D01*
X95350505Y-21775000D01*
X95510505Y-21775000D01*
X95510505Y-21905000D01*
G37*
D12*
G04 #@! TO.C,U5*
X91746834Y-18755000D02*
X91746834Y-17055000D01*
X91746834Y-17055000D02*
X90046834Y-17055000D01*
X90046834Y-18755000D02*
X91746834Y-18755000D01*
X90046834Y-17055000D02*
X90046834Y-18755000D01*
X91946834Y-18605000D02*
G75*
G03*
X91946834Y-18605000I-50000J0D01*
G01*
D10*
X90996834Y-17505000D02*
X90846834Y-17605000D01*
X90846834Y-17405000D01*
X90996834Y-17505000D01*
G36*
X90996834Y-17505000D02*
G01*
X90846834Y-17605000D01*
X90846834Y-17405000D01*
X90996834Y-17505000D01*
G37*
X90071834Y-18430000D02*
X89621834Y-18430000D01*
X89621834Y-18330000D01*
X90071834Y-18330000D01*
X90071834Y-18430000D01*
G36*
X90071834Y-18430000D02*
G01*
X89621834Y-18430000D01*
X89621834Y-18330000D01*
X90071834Y-18330000D01*
X90071834Y-18430000D01*
G37*
X89896834Y-18605000D02*
X89796834Y-18605000D01*
X89796834Y-18155000D01*
X89896834Y-18155000D01*
X89896834Y-18605000D01*
G36*
X89896834Y-18605000D02*
G01*
X89796834Y-18605000D01*
X89796834Y-18155000D01*
X89896834Y-18155000D01*
X89896834Y-18605000D01*
G37*
X91396834Y-17905000D02*
X91226834Y-17905000D01*
X91226834Y-17775000D01*
X91236834Y-17775000D01*
X91396834Y-17775000D01*
X91396834Y-17905000D01*
G36*
X91396834Y-17905000D02*
G01*
X91226834Y-17905000D01*
X91226834Y-17775000D01*
X91236834Y-17775000D01*
X91396834Y-17775000D01*
X91396834Y-17905000D01*
G37*
D12*
G04 #@! TO.C,U1*
X75292150Y-26755000D02*
X75292150Y-25055000D01*
X75292150Y-25055000D02*
X73592150Y-25055000D01*
X73592150Y-26755000D02*
X75292150Y-26755000D01*
X73592150Y-25055000D02*
X73592150Y-26755000D01*
X75492150Y-26605000D02*
G75*
G03*
X75492150Y-26605000I-50000J0D01*
G01*
D10*
X74542150Y-25505000D02*
X74392150Y-25605000D01*
X74392150Y-25405000D01*
X74542150Y-25505000D01*
G36*
X74542150Y-25505000D02*
G01*
X74392150Y-25605000D01*
X74392150Y-25405000D01*
X74542150Y-25505000D01*
G37*
X73617150Y-26430000D02*
X73167150Y-26430000D01*
X73167150Y-26330000D01*
X73617150Y-26330000D01*
X73617150Y-26430000D01*
G36*
X73617150Y-26430000D02*
G01*
X73167150Y-26430000D01*
X73167150Y-26330000D01*
X73617150Y-26330000D01*
X73617150Y-26430000D01*
G37*
X73442150Y-26605000D02*
X73342150Y-26605000D01*
X73342150Y-26155000D01*
X73442150Y-26155000D01*
X73442150Y-26605000D01*
G36*
X73442150Y-26605000D02*
G01*
X73342150Y-26605000D01*
X73342150Y-26155000D01*
X73442150Y-26155000D01*
X73442150Y-26605000D01*
G37*
X74942150Y-25905000D02*
X74772150Y-25905000D01*
X74772150Y-25775000D01*
X74782150Y-25775000D01*
X74942150Y-25775000D01*
X74942150Y-25905000D01*
G36*
X74942150Y-25905000D02*
G01*
X74772150Y-25905000D01*
X74772150Y-25775000D01*
X74782150Y-25775000D01*
X74942150Y-25775000D01*
X74942150Y-25905000D01*
G37*
D12*
G04 #@! TO.C,U2*
X79405821Y-18755000D02*
X79405821Y-17055000D01*
X79405821Y-17055000D02*
X77705821Y-17055000D01*
X77705821Y-18755000D02*
X79405821Y-18755000D01*
X77705821Y-17055000D02*
X77705821Y-18755000D01*
X79605821Y-18605000D02*
G75*
G03*
X79605821Y-18605000I-50000J0D01*
G01*
D10*
X78655821Y-17505000D02*
X78505821Y-17605000D01*
X78505821Y-17405000D01*
X78655821Y-17505000D01*
G36*
X78655821Y-17505000D02*
G01*
X78505821Y-17605000D01*
X78505821Y-17405000D01*
X78655821Y-17505000D01*
G37*
X77730821Y-18430000D02*
X77280821Y-18430000D01*
X77280821Y-18330000D01*
X77730821Y-18330000D01*
X77730821Y-18430000D01*
G36*
X77730821Y-18430000D02*
G01*
X77280821Y-18430000D01*
X77280821Y-18330000D01*
X77730821Y-18330000D01*
X77730821Y-18430000D01*
G37*
X77555821Y-18605000D02*
X77455821Y-18605000D01*
X77455821Y-18155000D01*
X77555821Y-18155000D01*
X77555821Y-18605000D01*
G36*
X77555821Y-18605000D02*
G01*
X77455821Y-18605000D01*
X77455821Y-18155000D01*
X77555821Y-18155000D01*
X77555821Y-18605000D01*
G37*
X79055821Y-17905000D02*
X78885821Y-17905000D01*
X78885821Y-17775000D01*
X78895821Y-17775000D01*
X79055821Y-17775000D01*
X79055821Y-17905000D01*
G36*
X79055821Y-17905000D02*
G01*
X78885821Y-17905000D01*
X78885821Y-17775000D01*
X78895821Y-17775000D01*
X79055821Y-17775000D01*
X79055821Y-17905000D01*
G37*
D12*
G04 #@! TO.C,U6*
X95860505Y-18755000D02*
X95860505Y-17055000D01*
X95860505Y-17055000D02*
X94160505Y-17055000D01*
X94160505Y-18755000D02*
X95860505Y-18755000D01*
X94160505Y-17055000D02*
X94160505Y-18755000D01*
X96060505Y-18605000D02*
G75*
G03*
X96060505Y-18605000I-50000J0D01*
G01*
D10*
X95110505Y-17505000D02*
X94960505Y-17605000D01*
X94960505Y-17405000D01*
X95110505Y-17505000D01*
G36*
X95110505Y-17505000D02*
G01*
X94960505Y-17605000D01*
X94960505Y-17405000D01*
X95110505Y-17505000D01*
G37*
X94185505Y-18430000D02*
X93735505Y-18430000D01*
X93735505Y-18330000D01*
X94185505Y-18330000D01*
X94185505Y-18430000D01*
G36*
X94185505Y-18430000D02*
G01*
X93735505Y-18430000D01*
X93735505Y-18330000D01*
X94185505Y-18330000D01*
X94185505Y-18430000D01*
G37*
X94010505Y-18605000D02*
X93910505Y-18605000D01*
X93910505Y-18155000D01*
X94010505Y-18155000D01*
X94010505Y-18605000D01*
G36*
X94010505Y-18605000D02*
G01*
X93910505Y-18605000D01*
X93910505Y-18155000D01*
X94010505Y-18155000D01*
X94010505Y-18605000D01*
G37*
X95510505Y-17905000D02*
X95340505Y-17905000D01*
X95340505Y-17775000D01*
X95350505Y-17775000D01*
X95510505Y-17775000D01*
X95510505Y-17905000D01*
G36*
X95510505Y-17905000D02*
G01*
X95340505Y-17905000D01*
X95340505Y-17775000D01*
X95350505Y-17775000D01*
X95510505Y-17775000D01*
X95510505Y-17905000D01*
G37*
D12*
G04 #@! TO.C,U3*
X83519492Y-30755000D02*
X83519492Y-29055000D01*
X83519492Y-29055000D02*
X81819492Y-29055000D01*
X81819492Y-30755000D02*
X83519492Y-30755000D01*
X81819492Y-29055000D02*
X81819492Y-30755000D01*
X83719492Y-30605000D02*
G75*
G03*
X83719492Y-30605000I-50000J0D01*
G01*
D10*
X82769492Y-29505000D02*
X82619492Y-29605000D01*
X82619492Y-29405000D01*
X82769492Y-29505000D01*
G36*
X82769492Y-29505000D02*
G01*
X82619492Y-29605000D01*
X82619492Y-29405000D01*
X82769492Y-29505000D01*
G37*
X81844492Y-30430000D02*
X81394492Y-30430000D01*
X81394492Y-30330000D01*
X81844492Y-30330000D01*
X81844492Y-30430000D01*
G36*
X81844492Y-30430000D02*
G01*
X81394492Y-30430000D01*
X81394492Y-30330000D01*
X81844492Y-30330000D01*
X81844492Y-30430000D01*
G37*
X81669492Y-30605000D02*
X81569492Y-30605000D01*
X81569492Y-30155000D01*
X81669492Y-30155000D01*
X81669492Y-30605000D01*
G36*
X81669492Y-30605000D02*
G01*
X81569492Y-30605000D01*
X81569492Y-30155000D01*
X81669492Y-30155000D01*
X81669492Y-30605000D01*
G37*
X83169492Y-29905000D02*
X82999492Y-29905000D01*
X82999492Y-29775000D01*
X83009492Y-29775000D01*
X83169492Y-29775000D01*
X83169492Y-29905000D01*
G36*
X83169492Y-29905000D02*
G01*
X82999492Y-29905000D01*
X82999492Y-29775000D01*
X83009492Y-29775000D01*
X83169492Y-29775000D01*
X83169492Y-29905000D01*
G37*
D12*
G04 #@! TO.C,U9*
X108201522Y-54755000D02*
X108201522Y-53055000D01*
X108201522Y-53055000D02*
X106501522Y-53055000D01*
X106501522Y-54755000D02*
X108201522Y-54755000D01*
X106501522Y-53055000D02*
X106501522Y-54755000D01*
X108401522Y-54605000D02*
G75*
G03*
X108401522Y-54605000I-50000J0D01*
G01*
D10*
X107451522Y-53505000D02*
X107301522Y-53605000D01*
X107301522Y-53405000D01*
X107451522Y-53505000D01*
G36*
X107451522Y-53505000D02*
G01*
X107301522Y-53605000D01*
X107301522Y-53405000D01*
X107451522Y-53505000D01*
G37*
X106526522Y-54430000D02*
X106076522Y-54430000D01*
X106076522Y-54330000D01*
X106526522Y-54330000D01*
X106526522Y-54430000D01*
G36*
X106526522Y-54430000D02*
G01*
X106076522Y-54430000D01*
X106076522Y-54330000D01*
X106526522Y-54330000D01*
X106526522Y-54430000D01*
G37*
X106351522Y-54605000D02*
X106251522Y-54605000D01*
X106251522Y-54155000D01*
X106351522Y-54155000D01*
X106351522Y-54605000D01*
G36*
X106351522Y-54605000D02*
G01*
X106251522Y-54605000D01*
X106251522Y-54155000D01*
X106351522Y-54155000D01*
X106351522Y-54605000D01*
G37*
X107851522Y-53905000D02*
X107681522Y-53905000D01*
X107681522Y-53775000D01*
X107691522Y-53775000D01*
X107851522Y-53775000D01*
X107851522Y-53905000D01*
G36*
X107851522Y-53905000D02*
G01*
X107681522Y-53905000D01*
X107681522Y-53775000D01*
X107691522Y-53775000D01*
X107851522Y-53775000D01*
X107851522Y-53905000D01*
G37*
D12*
G04 #@! TO.C,U5*
X91746834Y-46755000D02*
X91746834Y-45055000D01*
X91746834Y-45055000D02*
X90046834Y-45055000D01*
X90046834Y-46755000D02*
X91746834Y-46755000D01*
X90046834Y-45055000D02*
X90046834Y-46755000D01*
X91946834Y-46605000D02*
G75*
G03*
X91946834Y-46605000I-50000J0D01*
G01*
D10*
X90996834Y-45505000D02*
X90846834Y-45605000D01*
X90846834Y-45405000D01*
X90996834Y-45505000D01*
G36*
X90996834Y-45505000D02*
G01*
X90846834Y-45605000D01*
X90846834Y-45405000D01*
X90996834Y-45505000D01*
G37*
X90071834Y-46430000D02*
X89621834Y-46430000D01*
X89621834Y-46330000D01*
X90071834Y-46330000D01*
X90071834Y-46430000D01*
G36*
X90071834Y-46430000D02*
G01*
X89621834Y-46430000D01*
X89621834Y-46330000D01*
X90071834Y-46330000D01*
X90071834Y-46430000D01*
G37*
X89896834Y-46605000D02*
X89796834Y-46605000D01*
X89796834Y-46155000D01*
X89896834Y-46155000D01*
X89896834Y-46605000D01*
G36*
X89896834Y-46605000D02*
G01*
X89796834Y-46605000D01*
X89796834Y-46155000D01*
X89896834Y-46155000D01*
X89896834Y-46605000D01*
G37*
X91396834Y-45905000D02*
X91226834Y-45905000D01*
X91226834Y-45775000D01*
X91236834Y-45775000D01*
X91396834Y-45775000D01*
X91396834Y-45905000D01*
G36*
X91396834Y-45905000D02*
G01*
X91226834Y-45905000D01*
X91226834Y-45775000D01*
X91236834Y-45775000D01*
X91396834Y-45775000D01*
X91396834Y-45905000D01*
G37*
D12*
G04 #@! TO.C,U4*
X87633163Y-34755000D02*
X87633163Y-33055000D01*
X87633163Y-33055000D02*
X85933163Y-33055000D01*
X85933163Y-34755000D02*
X87633163Y-34755000D01*
X85933163Y-33055000D02*
X85933163Y-34755000D01*
X87833163Y-34605000D02*
G75*
G03*
X87833163Y-34605000I-50000J0D01*
G01*
D10*
X86883163Y-33505000D02*
X86733163Y-33605000D01*
X86733163Y-33405000D01*
X86883163Y-33505000D01*
G36*
X86883163Y-33505000D02*
G01*
X86733163Y-33605000D01*
X86733163Y-33405000D01*
X86883163Y-33505000D01*
G37*
X85958163Y-34430000D02*
X85508163Y-34430000D01*
X85508163Y-34330000D01*
X85958163Y-34330000D01*
X85958163Y-34430000D01*
G36*
X85958163Y-34430000D02*
G01*
X85508163Y-34430000D01*
X85508163Y-34330000D01*
X85958163Y-34330000D01*
X85958163Y-34430000D01*
G37*
X85783163Y-34605000D02*
X85683163Y-34605000D01*
X85683163Y-34155000D01*
X85783163Y-34155000D01*
X85783163Y-34605000D01*
G36*
X85783163Y-34605000D02*
G01*
X85683163Y-34605000D01*
X85683163Y-34155000D01*
X85783163Y-34155000D01*
X85783163Y-34605000D01*
G37*
X87283163Y-33905000D02*
X87113163Y-33905000D01*
X87113163Y-33775000D01*
X87123163Y-33775000D01*
X87283163Y-33775000D01*
X87283163Y-33905000D01*
G36*
X87283163Y-33905000D02*
G01*
X87113163Y-33905000D01*
X87113163Y-33775000D01*
X87123163Y-33775000D01*
X87283163Y-33775000D01*
X87283163Y-33905000D01*
G37*
D12*
X87633163Y-42755000D02*
X87633163Y-41055000D01*
X87633163Y-41055000D02*
X85933163Y-41055000D01*
X85933163Y-42755000D02*
X87633163Y-42755000D01*
X85933163Y-41055000D02*
X85933163Y-42755000D01*
X87833163Y-42605000D02*
G75*
G03*
X87833163Y-42605000I-50000J0D01*
G01*
D10*
X86883163Y-41505000D02*
X86733163Y-41605000D01*
X86733163Y-41405000D01*
X86883163Y-41505000D01*
G36*
X86883163Y-41505000D02*
G01*
X86733163Y-41605000D01*
X86733163Y-41405000D01*
X86883163Y-41505000D01*
G37*
X85958163Y-42430000D02*
X85508163Y-42430000D01*
X85508163Y-42330000D01*
X85958163Y-42330000D01*
X85958163Y-42430000D01*
G36*
X85958163Y-42430000D02*
G01*
X85508163Y-42430000D01*
X85508163Y-42330000D01*
X85958163Y-42330000D01*
X85958163Y-42430000D01*
G37*
X85783163Y-42605000D02*
X85683163Y-42605000D01*
X85683163Y-42155000D01*
X85783163Y-42155000D01*
X85783163Y-42605000D01*
G36*
X85783163Y-42605000D02*
G01*
X85683163Y-42605000D01*
X85683163Y-42155000D01*
X85783163Y-42155000D01*
X85783163Y-42605000D01*
G37*
X87283163Y-41905000D02*
X87113163Y-41905000D01*
X87113163Y-41775000D01*
X87123163Y-41775000D01*
X87283163Y-41775000D01*
X87283163Y-41905000D01*
G36*
X87283163Y-41905000D02*
G01*
X87113163Y-41905000D01*
X87113163Y-41775000D01*
X87123163Y-41775000D01*
X87283163Y-41775000D01*
X87283163Y-41905000D01*
G37*
D12*
G04 #@! TO.C,U9*
X108201522Y-38755000D02*
X108201522Y-37055000D01*
X108201522Y-37055000D02*
X106501522Y-37055000D01*
X106501522Y-38755000D02*
X108201522Y-38755000D01*
X106501522Y-37055000D02*
X106501522Y-38755000D01*
X108401522Y-38605000D02*
G75*
G03*
X108401522Y-38605000I-50000J0D01*
G01*
D10*
X107451522Y-37505000D02*
X107301522Y-37605000D01*
X107301522Y-37405000D01*
X107451522Y-37505000D01*
G36*
X107451522Y-37505000D02*
G01*
X107301522Y-37605000D01*
X107301522Y-37405000D01*
X107451522Y-37505000D01*
G37*
X106526522Y-38430000D02*
X106076522Y-38430000D01*
X106076522Y-38330000D01*
X106526522Y-38330000D01*
X106526522Y-38430000D01*
G36*
X106526522Y-38430000D02*
G01*
X106076522Y-38430000D01*
X106076522Y-38330000D01*
X106526522Y-38330000D01*
X106526522Y-38430000D01*
G37*
X106351522Y-38605000D02*
X106251522Y-38605000D01*
X106251522Y-38155000D01*
X106351522Y-38155000D01*
X106351522Y-38605000D01*
G36*
X106351522Y-38605000D02*
G01*
X106251522Y-38605000D01*
X106251522Y-38155000D01*
X106351522Y-38155000D01*
X106351522Y-38605000D01*
G37*
X107851522Y-37905000D02*
X107681522Y-37905000D01*
X107681522Y-37775000D01*
X107691522Y-37775000D01*
X107851522Y-37775000D01*
X107851522Y-37905000D01*
G36*
X107851522Y-37905000D02*
G01*
X107681522Y-37905000D01*
X107681522Y-37775000D01*
X107691522Y-37775000D01*
X107851522Y-37775000D01*
X107851522Y-37905000D01*
G37*
D12*
G04 #@! TO.C,U1*
X75292150Y-42755000D02*
X75292150Y-41055000D01*
X75292150Y-41055000D02*
X73592150Y-41055000D01*
X73592150Y-42755000D02*
X75292150Y-42755000D01*
X73592150Y-41055000D02*
X73592150Y-42755000D01*
X75492150Y-42605000D02*
G75*
G03*
X75492150Y-42605000I-50000J0D01*
G01*
D10*
X74542150Y-41505000D02*
X74392150Y-41605000D01*
X74392150Y-41405000D01*
X74542150Y-41505000D01*
G36*
X74542150Y-41505000D02*
G01*
X74392150Y-41605000D01*
X74392150Y-41405000D01*
X74542150Y-41505000D01*
G37*
X73617150Y-42430000D02*
X73167150Y-42430000D01*
X73167150Y-42330000D01*
X73617150Y-42330000D01*
X73617150Y-42430000D01*
G36*
X73617150Y-42430000D02*
G01*
X73167150Y-42430000D01*
X73167150Y-42330000D01*
X73617150Y-42330000D01*
X73617150Y-42430000D01*
G37*
X73442150Y-42605000D02*
X73342150Y-42605000D01*
X73342150Y-42155000D01*
X73442150Y-42155000D01*
X73442150Y-42605000D01*
G36*
X73442150Y-42605000D02*
G01*
X73342150Y-42605000D01*
X73342150Y-42155000D01*
X73442150Y-42155000D01*
X73442150Y-42605000D01*
G37*
X74942150Y-41905000D02*
X74772150Y-41905000D01*
X74772150Y-41775000D01*
X74782150Y-41775000D01*
X74942150Y-41775000D01*
X74942150Y-41905000D01*
G36*
X74942150Y-41905000D02*
G01*
X74772150Y-41905000D01*
X74772150Y-41775000D01*
X74782150Y-41775000D01*
X74942150Y-41775000D01*
X74942150Y-41905000D01*
G37*
D12*
G04 #@! TO.C,U8*
X104087847Y-42755000D02*
X104087847Y-41055000D01*
X104087847Y-41055000D02*
X102387847Y-41055000D01*
X102387847Y-42755000D02*
X104087847Y-42755000D01*
X102387847Y-41055000D02*
X102387847Y-42755000D01*
X104287847Y-42605000D02*
G75*
G03*
X104287847Y-42605000I-50000J0D01*
G01*
D10*
X103337847Y-41505000D02*
X103187847Y-41605000D01*
X103187847Y-41405000D01*
X103337847Y-41505000D01*
G36*
X103337847Y-41505000D02*
G01*
X103187847Y-41605000D01*
X103187847Y-41405000D01*
X103337847Y-41505000D01*
G37*
X102412847Y-42430000D02*
X101962847Y-42430000D01*
X101962847Y-42330000D01*
X102412847Y-42330000D01*
X102412847Y-42430000D01*
G36*
X102412847Y-42430000D02*
G01*
X101962847Y-42430000D01*
X101962847Y-42330000D01*
X102412847Y-42330000D01*
X102412847Y-42430000D01*
G37*
X102237847Y-42605000D02*
X102137847Y-42605000D01*
X102137847Y-42155000D01*
X102237847Y-42155000D01*
X102237847Y-42605000D01*
G36*
X102237847Y-42605000D02*
G01*
X102137847Y-42605000D01*
X102137847Y-42155000D01*
X102237847Y-42155000D01*
X102237847Y-42605000D01*
G37*
X103737847Y-41905000D02*
X103567847Y-41905000D01*
X103567847Y-41775000D01*
X103577847Y-41775000D01*
X103737847Y-41775000D01*
X103737847Y-41905000D01*
G36*
X103737847Y-41905000D02*
G01*
X103567847Y-41905000D01*
X103567847Y-41775000D01*
X103577847Y-41775000D01*
X103737847Y-41775000D01*
X103737847Y-41905000D01*
G37*
D12*
G04 #@! TO.C,U7*
X99974176Y-30755000D02*
X99974176Y-29055000D01*
X99974176Y-29055000D02*
X98274176Y-29055000D01*
X98274176Y-30755000D02*
X99974176Y-30755000D01*
X98274176Y-29055000D02*
X98274176Y-30755000D01*
X100174176Y-30605000D02*
G75*
G03*
X100174176Y-30605000I-50000J0D01*
G01*
D10*
X99224176Y-29505000D02*
X99074176Y-29605000D01*
X99074176Y-29405000D01*
X99224176Y-29505000D01*
G36*
X99224176Y-29505000D02*
G01*
X99074176Y-29605000D01*
X99074176Y-29405000D01*
X99224176Y-29505000D01*
G37*
X98299176Y-30430000D02*
X97849176Y-30430000D01*
X97849176Y-30330000D01*
X98299176Y-30330000D01*
X98299176Y-30430000D01*
G36*
X98299176Y-30430000D02*
G01*
X97849176Y-30430000D01*
X97849176Y-30330000D01*
X98299176Y-30330000D01*
X98299176Y-30430000D01*
G37*
X98124176Y-30605000D02*
X98024176Y-30605000D01*
X98024176Y-30155000D01*
X98124176Y-30155000D01*
X98124176Y-30605000D01*
G36*
X98124176Y-30605000D02*
G01*
X98024176Y-30605000D01*
X98024176Y-30155000D01*
X98124176Y-30155000D01*
X98124176Y-30605000D01*
G37*
X99624176Y-29905000D02*
X99454176Y-29905000D01*
X99454176Y-29775000D01*
X99464176Y-29775000D01*
X99624176Y-29775000D01*
X99624176Y-29905000D01*
G36*
X99624176Y-29905000D02*
G01*
X99454176Y-29905000D01*
X99454176Y-29775000D01*
X99464176Y-29775000D01*
X99624176Y-29775000D01*
X99624176Y-29905000D01*
G37*
D12*
G04 #@! TO.C,U5*
X91746834Y-30755000D02*
X91746834Y-29055000D01*
X91746834Y-29055000D02*
X90046834Y-29055000D01*
X90046834Y-30755000D02*
X91746834Y-30755000D01*
X90046834Y-29055000D02*
X90046834Y-30755000D01*
X91946834Y-30605000D02*
G75*
G03*
X91946834Y-30605000I-50000J0D01*
G01*
D10*
X90996834Y-29505000D02*
X90846834Y-29605000D01*
X90846834Y-29405000D01*
X90996834Y-29505000D01*
G36*
X90996834Y-29505000D02*
G01*
X90846834Y-29605000D01*
X90846834Y-29405000D01*
X90996834Y-29505000D01*
G37*
X90071834Y-30430000D02*
X89621834Y-30430000D01*
X89621834Y-30330000D01*
X90071834Y-30330000D01*
X90071834Y-30430000D01*
G36*
X90071834Y-30430000D02*
G01*
X89621834Y-30430000D01*
X89621834Y-30330000D01*
X90071834Y-30330000D01*
X90071834Y-30430000D01*
G37*
X89896834Y-30605000D02*
X89796834Y-30605000D01*
X89796834Y-30155000D01*
X89896834Y-30155000D01*
X89896834Y-30605000D01*
G36*
X89896834Y-30605000D02*
G01*
X89796834Y-30605000D01*
X89796834Y-30155000D01*
X89896834Y-30155000D01*
X89896834Y-30605000D01*
G37*
X91396834Y-29905000D02*
X91226834Y-29905000D01*
X91226834Y-29775000D01*
X91236834Y-29775000D01*
X91396834Y-29775000D01*
X91396834Y-29905000D01*
G36*
X91396834Y-29905000D02*
G01*
X91226834Y-29905000D01*
X91226834Y-29775000D01*
X91236834Y-29775000D01*
X91396834Y-29775000D01*
X91396834Y-29905000D01*
G37*
D12*
G04 #@! TO.C,U6*
X95860505Y-38755000D02*
X95860505Y-37055000D01*
X95860505Y-37055000D02*
X94160505Y-37055000D01*
X94160505Y-38755000D02*
X95860505Y-38755000D01*
X94160505Y-37055000D02*
X94160505Y-38755000D01*
X96060505Y-38605000D02*
G75*
G03*
X96060505Y-38605000I-50000J0D01*
G01*
D10*
X95110505Y-37505000D02*
X94960505Y-37605000D01*
X94960505Y-37405000D01*
X95110505Y-37505000D01*
G36*
X95110505Y-37505000D02*
G01*
X94960505Y-37605000D01*
X94960505Y-37405000D01*
X95110505Y-37505000D01*
G37*
X94185505Y-38430000D02*
X93735505Y-38430000D01*
X93735505Y-38330000D01*
X94185505Y-38330000D01*
X94185505Y-38430000D01*
G36*
X94185505Y-38430000D02*
G01*
X93735505Y-38430000D01*
X93735505Y-38330000D01*
X94185505Y-38330000D01*
X94185505Y-38430000D01*
G37*
X94010505Y-38605000D02*
X93910505Y-38605000D01*
X93910505Y-38155000D01*
X94010505Y-38155000D01*
X94010505Y-38605000D01*
G36*
X94010505Y-38605000D02*
G01*
X93910505Y-38605000D01*
X93910505Y-38155000D01*
X94010505Y-38155000D01*
X94010505Y-38605000D01*
G37*
X95510505Y-37905000D02*
X95340505Y-37905000D01*
X95340505Y-37775000D01*
X95350505Y-37775000D01*
X95510505Y-37775000D01*
X95510505Y-37905000D01*
G36*
X95510505Y-37905000D02*
G01*
X95340505Y-37905000D01*
X95340505Y-37775000D01*
X95350505Y-37775000D01*
X95510505Y-37775000D01*
X95510505Y-37905000D01*
G37*
D12*
G04 #@! TO.C,U2*
X79405821Y-26755000D02*
X79405821Y-25055000D01*
X79405821Y-25055000D02*
X77705821Y-25055000D01*
X77705821Y-26755000D02*
X79405821Y-26755000D01*
X77705821Y-25055000D02*
X77705821Y-26755000D01*
X79605821Y-26605000D02*
G75*
G03*
X79605821Y-26605000I-50000J0D01*
G01*
D10*
X78655821Y-25505000D02*
X78505821Y-25605000D01*
X78505821Y-25405000D01*
X78655821Y-25505000D01*
G36*
X78655821Y-25505000D02*
G01*
X78505821Y-25605000D01*
X78505821Y-25405000D01*
X78655821Y-25505000D01*
G37*
X77730821Y-26430000D02*
X77280821Y-26430000D01*
X77280821Y-26330000D01*
X77730821Y-26330000D01*
X77730821Y-26430000D01*
G36*
X77730821Y-26430000D02*
G01*
X77280821Y-26430000D01*
X77280821Y-26330000D01*
X77730821Y-26330000D01*
X77730821Y-26430000D01*
G37*
X77555821Y-26605000D02*
X77455821Y-26605000D01*
X77455821Y-26155000D01*
X77555821Y-26155000D01*
X77555821Y-26605000D01*
G36*
X77555821Y-26605000D02*
G01*
X77455821Y-26605000D01*
X77455821Y-26155000D01*
X77555821Y-26155000D01*
X77555821Y-26605000D01*
G37*
X79055821Y-25905000D02*
X78885821Y-25905000D01*
X78885821Y-25775000D01*
X78895821Y-25775000D01*
X79055821Y-25775000D01*
X79055821Y-25905000D01*
G36*
X79055821Y-25905000D02*
G01*
X78885821Y-25905000D01*
X78885821Y-25775000D01*
X78895821Y-25775000D01*
X79055821Y-25775000D01*
X79055821Y-25905000D01*
G37*
D12*
G04 #@! TO.C,U6*
X95860505Y-50755000D02*
X95860505Y-49055000D01*
X95860505Y-49055000D02*
X94160505Y-49055000D01*
X94160505Y-50755000D02*
X95860505Y-50755000D01*
X94160505Y-49055000D02*
X94160505Y-50755000D01*
X96060505Y-50605000D02*
G75*
G03*
X96060505Y-50605000I-50000J0D01*
G01*
D10*
X95110505Y-49505000D02*
X94960505Y-49605000D01*
X94960505Y-49405000D01*
X95110505Y-49505000D01*
G36*
X95110505Y-49505000D02*
G01*
X94960505Y-49605000D01*
X94960505Y-49405000D01*
X95110505Y-49505000D01*
G37*
X94185505Y-50430000D02*
X93735505Y-50430000D01*
X93735505Y-50330000D01*
X94185505Y-50330000D01*
X94185505Y-50430000D01*
G36*
X94185505Y-50430000D02*
G01*
X93735505Y-50430000D01*
X93735505Y-50330000D01*
X94185505Y-50330000D01*
X94185505Y-50430000D01*
G37*
X94010505Y-50605000D02*
X93910505Y-50605000D01*
X93910505Y-50155000D01*
X94010505Y-50155000D01*
X94010505Y-50605000D01*
G36*
X94010505Y-50605000D02*
G01*
X93910505Y-50605000D01*
X93910505Y-50155000D01*
X94010505Y-50155000D01*
X94010505Y-50605000D01*
G37*
X95510505Y-49905000D02*
X95340505Y-49905000D01*
X95340505Y-49775000D01*
X95350505Y-49775000D01*
X95510505Y-49775000D01*
X95510505Y-49905000D01*
G36*
X95510505Y-49905000D02*
G01*
X95340505Y-49905000D01*
X95340505Y-49775000D01*
X95350505Y-49775000D01*
X95510505Y-49775000D01*
X95510505Y-49905000D01*
G37*
D12*
G04 #@! TO.C,U8*
X104087847Y-54755000D02*
X104087847Y-53055000D01*
X104087847Y-53055000D02*
X102387847Y-53055000D01*
X102387847Y-54755000D02*
X104087847Y-54755000D01*
X102387847Y-53055000D02*
X102387847Y-54755000D01*
X104287847Y-54605000D02*
G75*
G03*
X104287847Y-54605000I-50000J0D01*
G01*
D10*
X103337847Y-53505000D02*
X103187847Y-53605000D01*
X103187847Y-53405000D01*
X103337847Y-53505000D01*
G36*
X103337847Y-53505000D02*
G01*
X103187847Y-53605000D01*
X103187847Y-53405000D01*
X103337847Y-53505000D01*
G37*
X102412847Y-54430000D02*
X101962847Y-54430000D01*
X101962847Y-54330000D01*
X102412847Y-54330000D01*
X102412847Y-54430000D01*
G36*
X102412847Y-54430000D02*
G01*
X101962847Y-54430000D01*
X101962847Y-54330000D01*
X102412847Y-54330000D01*
X102412847Y-54430000D01*
G37*
X102237847Y-54605000D02*
X102137847Y-54605000D01*
X102137847Y-54155000D01*
X102237847Y-54155000D01*
X102237847Y-54605000D01*
G36*
X102237847Y-54605000D02*
G01*
X102137847Y-54605000D01*
X102137847Y-54155000D01*
X102237847Y-54155000D01*
X102237847Y-54605000D01*
G37*
X103737847Y-53905000D02*
X103567847Y-53905000D01*
X103567847Y-53775000D01*
X103577847Y-53775000D01*
X103737847Y-53775000D01*
X103737847Y-53905000D01*
G36*
X103737847Y-53905000D02*
G01*
X103567847Y-53905000D01*
X103567847Y-53775000D01*
X103577847Y-53775000D01*
X103737847Y-53775000D01*
X103737847Y-53905000D01*
G37*
D12*
G04 #@! TO.C,U4*
X87633163Y-26755000D02*
X87633163Y-25055000D01*
X87633163Y-25055000D02*
X85933163Y-25055000D01*
X85933163Y-26755000D02*
X87633163Y-26755000D01*
X85933163Y-25055000D02*
X85933163Y-26755000D01*
X87833163Y-26605000D02*
G75*
G03*
X87833163Y-26605000I-50000J0D01*
G01*
D10*
X86883163Y-25505000D02*
X86733163Y-25605000D01*
X86733163Y-25405000D01*
X86883163Y-25505000D01*
G36*
X86883163Y-25505000D02*
G01*
X86733163Y-25605000D01*
X86733163Y-25405000D01*
X86883163Y-25505000D01*
G37*
X85958163Y-26430000D02*
X85508163Y-26430000D01*
X85508163Y-26330000D01*
X85958163Y-26330000D01*
X85958163Y-26430000D01*
G36*
X85958163Y-26430000D02*
G01*
X85508163Y-26430000D01*
X85508163Y-26330000D01*
X85958163Y-26330000D01*
X85958163Y-26430000D01*
G37*
X85783163Y-26605000D02*
X85683163Y-26605000D01*
X85683163Y-26155000D01*
X85783163Y-26155000D01*
X85783163Y-26605000D01*
G36*
X85783163Y-26605000D02*
G01*
X85683163Y-26605000D01*
X85683163Y-26155000D01*
X85783163Y-26155000D01*
X85783163Y-26605000D01*
G37*
X87283163Y-25905000D02*
X87113163Y-25905000D01*
X87113163Y-25775000D01*
X87123163Y-25775000D01*
X87283163Y-25775000D01*
X87283163Y-25905000D01*
G36*
X87283163Y-25905000D02*
G01*
X87113163Y-25905000D01*
X87113163Y-25775000D01*
X87123163Y-25775000D01*
X87283163Y-25775000D01*
X87283163Y-25905000D01*
G37*
D12*
G04 #@! TO.C,U8*
X104087847Y-18755000D02*
X104087847Y-17055000D01*
X104087847Y-17055000D02*
X102387847Y-17055000D01*
X102387847Y-18755000D02*
X104087847Y-18755000D01*
X102387847Y-17055000D02*
X102387847Y-18755000D01*
X104287847Y-18605000D02*
G75*
G03*
X104287847Y-18605000I-50000J0D01*
G01*
D10*
X103337847Y-17505000D02*
X103187847Y-17605000D01*
X103187847Y-17405000D01*
X103337847Y-17505000D01*
G36*
X103337847Y-17505000D02*
G01*
X103187847Y-17605000D01*
X103187847Y-17405000D01*
X103337847Y-17505000D01*
G37*
X102412847Y-18430000D02*
X101962847Y-18430000D01*
X101962847Y-18330000D01*
X102412847Y-18330000D01*
X102412847Y-18430000D01*
G36*
X102412847Y-18430000D02*
G01*
X101962847Y-18430000D01*
X101962847Y-18330000D01*
X102412847Y-18330000D01*
X102412847Y-18430000D01*
G37*
X102237847Y-18605000D02*
X102137847Y-18605000D01*
X102137847Y-18155000D01*
X102237847Y-18155000D01*
X102237847Y-18605000D01*
G36*
X102237847Y-18605000D02*
G01*
X102137847Y-18605000D01*
X102137847Y-18155000D01*
X102237847Y-18155000D01*
X102237847Y-18605000D01*
G37*
X103737847Y-17905000D02*
X103567847Y-17905000D01*
X103567847Y-17775000D01*
X103577847Y-17775000D01*
X103737847Y-17775000D01*
X103737847Y-17905000D01*
G36*
X103737847Y-17905000D02*
G01*
X103567847Y-17905000D01*
X103567847Y-17775000D01*
X103577847Y-17775000D01*
X103737847Y-17775000D01*
X103737847Y-17905000D01*
G37*
D12*
G04 #@! TO.C,U1*
X75292150Y-50755000D02*
X75292150Y-49055000D01*
X75292150Y-49055000D02*
X73592150Y-49055000D01*
X73592150Y-50755000D02*
X75292150Y-50755000D01*
X73592150Y-49055000D02*
X73592150Y-50755000D01*
X75492150Y-50605000D02*
G75*
G03*
X75492150Y-50605000I-50000J0D01*
G01*
D10*
X74542150Y-49505000D02*
X74392150Y-49605000D01*
X74392150Y-49405000D01*
X74542150Y-49505000D01*
G36*
X74542150Y-49505000D02*
G01*
X74392150Y-49605000D01*
X74392150Y-49405000D01*
X74542150Y-49505000D01*
G37*
X73617150Y-50430000D02*
X73167150Y-50430000D01*
X73167150Y-50330000D01*
X73617150Y-50330000D01*
X73617150Y-50430000D01*
G36*
X73617150Y-50430000D02*
G01*
X73167150Y-50430000D01*
X73167150Y-50330000D01*
X73617150Y-50330000D01*
X73617150Y-50430000D01*
G37*
X73442150Y-50605000D02*
X73342150Y-50605000D01*
X73342150Y-50155000D01*
X73442150Y-50155000D01*
X73442150Y-50605000D01*
G36*
X73442150Y-50605000D02*
G01*
X73342150Y-50605000D01*
X73342150Y-50155000D01*
X73442150Y-50155000D01*
X73442150Y-50605000D01*
G37*
X74942150Y-49905000D02*
X74772150Y-49905000D01*
X74772150Y-49775000D01*
X74782150Y-49775000D01*
X74942150Y-49775000D01*
X74942150Y-49905000D01*
G36*
X74942150Y-49905000D02*
G01*
X74772150Y-49905000D01*
X74772150Y-49775000D01*
X74782150Y-49775000D01*
X74942150Y-49775000D01*
X74942150Y-49905000D01*
G37*
D12*
G04 #@! TO.C,U9*
X108201522Y-30755000D02*
X108201522Y-29055000D01*
X108201522Y-29055000D02*
X106501522Y-29055000D01*
X106501522Y-30755000D02*
X108201522Y-30755000D01*
X106501522Y-29055000D02*
X106501522Y-30755000D01*
X108401522Y-30605000D02*
G75*
G03*
X108401522Y-30605000I-50000J0D01*
G01*
D10*
X107451522Y-29505000D02*
X107301522Y-29605000D01*
X107301522Y-29405000D01*
X107451522Y-29505000D01*
G36*
X107451522Y-29505000D02*
G01*
X107301522Y-29605000D01*
X107301522Y-29405000D01*
X107451522Y-29505000D01*
G37*
X106526522Y-30430000D02*
X106076522Y-30430000D01*
X106076522Y-30330000D01*
X106526522Y-30330000D01*
X106526522Y-30430000D01*
G36*
X106526522Y-30430000D02*
G01*
X106076522Y-30430000D01*
X106076522Y-30330000D01*
X106526522Y-30330000D01*
X106526522Y-30430000D01*
G37*
X106351522Y-30605000D02*
X106251522Y-30605000D01*
X106251522Y-30155000D01*
X106351522Y-30155000D01*
X106351522Y-30605000D01*
G36*
X106351522Y-30605000D02*
G01*
X106251522Y-30605000D01*
X106251522Y-30155000D01*
X106351522Y-30155000D01*
X106351522Y-30605000D01*
G37*
X107851522Y-29905000D02*
X107681522Y-29905000D01*
X107681522Y-29775000D01*
X107691522Y-29775000D01*
X107851522Y-29775000D01*
X107851522Y-29905000D01*
G36*
X107851522Y-29905000D02*
G01*
X107681522Y-29905000D01*
X107681522Y-29775000D01*
X107691522Y-29775000D01*
X107851522Y-29775000D01*
X107851522Y-29905000D01*
G37*
D12*
G04 #@! TO.C,U1*
X75292150Y-22755000D02*
X75292150Y-21055000D01*
X75292150Y-21055000D02*
X73592150Y-21055000D01*
X73592150Y-22755000D02*
X75292150Y-22755000D01*
X73592150Y-21055000D02*
X73592150Y-22755000D01*
X75492150Y-22605000D02*
G75*
G03*
X75492150Y-22605000I-50000J0D01*
G01*
D10*
X74542150Y-21505000D02*
X74392150Y-21605000D01*
X74392150Y-21405000D01*
X74542150Y-21505000D01*
G36*
X74542150Y-21505000D02*
G01*
X74392150Y-21605000D01*
X74392150Y-21405000D01*
X74542150Y-21505000D01*
G37*
X73617150Y-22430000D02*
X73167150Y-22430000D01*
X73167150Y-22330000D01*
X73617150Y-22330000D01*
X73617150Y-22430000D01*
G36*
X73617150Y-22430000D02*
G01*
X73167150Y-22430000D01*
X73167150Y-22330000D01*
X73617150Y-22330000D01*
X73617150Y-22430000D01*
G37*
X73442150Y-22605000D02*
X73342150Y-22605000D01*
X73342150Y-22155000D01*
X73442150Y-22155000D01*
X73442150Y-22605000D01*
G36*
X73442150Y-22605000D02*
G01*
X73342150Y-22605000D01*
X73342150Y-22155000D01*
X73442150Y-22155000D01*
X73442150Y-22605000D01*
G37*
X74942150Y-21905000D02*
X74772150Y-21905000D01*
X74772150Y-21775000D01*
X74782150Y-21775000D01*
X74942150Y-21775000D01*
X74942150Y-21905000D01*
G36*
X74942150Y-21905000D02*
G01*
X74772150Y-21905000D01*
X74772150Y-21775000D01*
X74782150Y-21775000D01*
X74942150Y-21775000D01*
X74942150Y-21905000D01*
G37*
D12*
G04 #@! TO.C,U2*
X79405821Y-42755000D02*
X79405821Y-41055000D01*
X79405821Y-41055000D02*
X77705821Y-41055000D01*
X77705821Y-42755000D02*
X79405821Y-42755000D01*
X77705821Y-41055000D02*
X77705821Y-42755000D01*
X79605821Y-42605000D02*
G75*
G03*
X79605821Y-42605000I-50000J0D01*
G01*
D10*
X78655821Y-41505000D02*
X78505821Y-41605000D01*
X78505821Y-41405000D01*
X78655821Y-41505000D01*
G36*
X78655821Y-41505000D02*
G01*
X78505821Y-41605000D01*
X78505821Y-41405000D01*
X78655821Y-41505000D01*
G37*
X77730821Y-42430000D02*
X77280821Y-42430000D01*
X77280821Y-42330000D01*
X77730821Y-42330000D01*
X77730821Y-42430000D01*
G36*
X77730821Y-42430000D02*
G01*
X77280821Y-42430000D01*
X77280821Y-42330000D01*
X77730821Y-42330000D01*
X77730821Y-42430000D01*
G37*
X77555821Y-42605000D02*
X77455821Y-42605000D01*
X77455821Y-42155000D01*
X77555821Y-42155000D01*
X77555821Y-42605000D01*
G36*
X77555821Y-42605000D02*
G01*
X77455821Y-42605000D01*
X77455821Y-42155000D01*
X77555821Y-42155000D01*
X77555821Y-42605000D01*
G37*
X79055821Y-41905000D02*
X78885821Y-41905000D01*
X78885821Y-41775000D01*
X78895821Y-41775000D01*
X79055821Y-41775000D01*
X79055821Y-41905000D01*
G36*
X79055821Y-41905000D02*
G01*
X78885821Y-41905000D01*
X78885821Y-41775000D01*
X78895821Y-41775000D01*
X79055821Y-41775000D01*
X79055821Y-41905000D01*
G37*
D12*
G04 #@! TO.C,U3*
X83519492Y-26755000D02*
X83519492Y-25055000D01*
X83519492Y-25055000D02*
X81819492Y-25055000D01*
X81819492Y-26755000D02*
X83519492Y-26755000D01*
X81819492Y-25055000D02*
X81819492Y-26755000D01*
X83719492Y-26605000D02*
G75*
G03*
X83719492Y-26605000I-50000J0D01*
G01*
D10*
X82769492Y-25505000D02*
X82619492Y-25605000D01*
X82619492Y-25405000D01*
X82769492Y-25505000D01*
G36*
X82769492Y-25505000D02*
G01*
X82619492Y-25605000D01*
X82619492Y-25405000D01*
X82769492Y-25505000D01*
G37*
X81844492Y-26430000D02*
X81394492Y-26430000D01*
X81394492Y-26330000D01*
X81844492Y-26330000D01*
X81844492Y-26430000D01*
G36*
X81844492Y-26430000D02*
G01*
X81394492Y-26430000D01*
X81394492Y-26330000D01*
X81844492Y-26330000D01*
X81844492Y-26430000D01*
G37*
X81669492Y-26605000D02*
X81569492Y-26605000D01*
X81569492Y-26155000D01*
X81669492Y-26155000D01*
X81669492Y-26605000D01*
G36*
X81669492Y-26605000D02*
G01*
X81569492Y-26605000D01*
X81569492Y-26155000D01*
X81669492Y-26155000D01*
X81669492Y-26605000D01*
G37*
X83169492Y-25905000D02*
X82999492Y-25905000D01*
X82999492Y-25775000D01*
X83009492Y-25775000D01*
X83169492Y-25775000D01*
X83169492Y-25905000D01*
G36*
X83169492Y-25905000D02*
G01*
X82999492Y-25905000D01*
X82999492Y-25775000D01*
X83009492Y-25775000D01*
X83169492Y-25775000D01*
X83169492Y-25905000D01*
G37*
D12*
G04 #@! TO.C,U9*
X108201522Y-46755000D02*
X108201522Y-45055000D01*
X108201522Y-45055000D02*
X106501522Y-45055000D01*
X106501522Y-46755000D02*
X108201522Y-46755000D01*
X106501522Y-45055000D02*
X106501522Y-46755000D01*
X108401522Y-46605000D02*
G75*
G03*
X108401522Y-46605000I-50000J0D01*
G01*
D10*
X107451522Y-45505000D02*
X107301522Y-45605000D01*
X107301522Y-45405000D01*
X107451522Y-45505000D01*
G36*
X107451522Y-45505000D02*
G01*
X107301522Y-45605000D01*
X107301522Y-45405000D01*
X107451522Y-45505000D01*
G37*
X106526522Y-46430000D02*
X106076522Y-46430000D01*
X106076522Y-46330000D01*
X106526522Y-46330000D01*
X106526522Y-46430000D01*
G36*
X106526522Y-46430000D02*
G01*
X106076522Y-46430000D01*
X106076522Y-46330000D01*
X106526522Y-46330000D01*
X106526522Y-46430000D01*
G37*
X106351522Y-46605000D02*
X106251522Y-46605000D01*
X106251522Y-46155000D01*
X106351522Y-46155000D01*
X106351522Y-46605000D01*
G36*
X106351522Y-46605000D02*
G01*
X106251522Y-46605000D01*
X106251522Y-46155000D01*
X106351522Y-46155000D01*
X106351522Y-46605000D01*
G37*
X107851522Y-45905000D02*
X107681522Y-45905000D01*
X107681522Y-45775000D01*
X107691522Y-45775000D01*
X107851522Y-45775000D01*
X107851522Y-45905000D01*
G36*
X107851522Y-45905000D02*
G01*
X107681522Y-45905000D01*
X107681522Y-45775000D01*
X107691522Y-45775000D01*
X107851522Y-45775000D01*
X107851522Y-45905000D01*
G37*
D12*
G04 #@! TO.C,U2*
X79405821Y-34755000D02*
X79405821Y-33055000D01*
X79405821Y-33055000D02*
X77705821Y-33055000D01*
X77705821Y-34755000D02*
X79405821Y-34755000D01*
X77705821Y-33055000D02*
X77705821Y-34755000D01*
X79605821Y-34605000D02*
G75*
G03*
X79605821Y-34605000I-50000J0D01*
G01*
D10*
X78655821Y-33505000D02*
X78505821Y-33605000D01*
X78505821Y-33405000D01*
X78655821Y-33505000D01*
G36*
X78655821Y-33505000D02*
G01*
X78505821Y-33605000D01*
X78505821Y-33405000D01*
X78655821Y-33505000D01*
G37*
X77730821Y-34430000D02*
X77280821Y-34430000D01*
X77280821Y-34330000D01*
X77730821Y-34330000D01*
X77730821Y-34430000D01*
G36*
X77730821Y-34430000D02*
G01*
X77280821Y-34430000D01*
X77280821Y-34330000D01*
X77730821Y-34330000D01*
X77730821Y-34430000D01*
G37*
X77555821Y-34605000D02*
X77455821Y-34605000D01*
X77455821Y-34155000D01*
X77555821Y-34155000D01*
X77555821Y-34605000D01*
G36*
X77555821Y-34605000D02*
G01*
X77455821Y-34605000D01*
X77455821Y-34155000D01*
X77555821Y-34155000D01*
X77555821Y-34605000D01*
G37*
X79055821Y-33905000D02*
X78885821Y-33905000D01*
X78885821Y-33775000D01*
X78895821Y-33775000D01*
X79055821Y-33775000D01*
X79055821Y-33905000D01*
G36*
X79055821Y-33905000D02*
G01*
X78885821Y-33905000D01*
X78885821Y-33775000D01*
X78895821Y-33775000D01*
X79055821Y-33775000D01*
X79055821Y-33905000D01*
G37*
D12*
G04 #@! TO.C,U9*
X108201522Y-34755000D02*
X108201522Y-33055000D01*
X108201522Y-33055000D02*
X106501522Y-33055000D01*
X106501522Y-34755000D02*
X108201522Y-34755000D01*
X106501522Y-33055000D02*
X106501522Y-34755000D01*
X108401522Y-34605000D02*
G75*
G03*
X108401522Y-34605000I-50000J0D01*
G01*
D10*
X107451522Y-33505000D02*
X107301522Y-33605000D01*
X107301522Y-33405000D01*
X107451522Y-33505000D01*
G36*
X107451522Y-33505000D02*
G01*
X107301522Y-33605000D01*
X107301522Y-33405000D01*
X107451522Y-33505000D01*
G37*
X106526522Y-34430000D02*
X106076522Y-34430000D01*
X106076522Y-34330000D01*
X106526522Y-34330000D01*
X106526522Y-34430000D01*
G36*
X106526522Y-34430000D02*
G01*
X106076522Y-34430000D01*
X106076522Y-34330000D01*
X106526522Y-34330000D01*
X106526522Y-34430000D01*
G37*
X106351522Y-34605000D02*
X106251522Y-34605000D01*
X106251522Y-34155000D01*
X106351522Y-34155000D01*
X106351522Y-34605000D01*
G36*
X106351522Y-34605000D02*
G01*
X106251522Y-34605000D01*
X106251522Y-34155000D01*
X106351522Y-34155000D01*
X106351522Y-34605000D01*
G37*
X107851522Y-33905000D02*
X107681522Y-33905000D01*
X107681522Y-33775000D01*
X107691522Y-33775000D01*
X107851522Y-33775000D01*
X107851522Y-33905000D01*
G36*
X107851522Y-33905000D02*
G01*
X107681522Y-33905000D01*
X107681522Y-33775000D01*
X107691522Y-33775000D01*
X107851522Y-33775000D01*
X107851522Y-33905000D01*
G37*
G04 #@! TD*
M02*
