M48
; DRILL file {KiCad 7.0.2-6a45011f42~172~ubuntu22.04.1} date Tue Jul  4 12:46:50 2023
; FORMAT={-:-/ absolute / metric / decimal}
; #@! TF.CreationDate,2023-07-04T12:46:50+08:00
; #@! TF.GenerationSoftware,Kicad,Pcbnew,7.0.2-6a45011f42~172~ubuntu22.04.1
; #@! TF.FileFunction,MixedPlating,1,2
FMAT,2
METRIC
; #@! TA.AperFunction,Plated,PTH,ViaDrill
T1C0.200
; #@! TA.AperFunction,Plated,PTH,ComponentDrill
T2C0.200
; #@! TA.AperFunction,NonPlated,NPTH,ComponentDrill
T3C1.152
%
G90
G05
T1
X76.393Y-18.4
X76.393Y-22.4
X76.393Y-26.4
X76.393Y-30.4
X76.393Y-34.4
X76.393Y-38.4
X76.393Y-42.4
X76.393Y-46.4
X76.393Y-50.4
X76.393Y-54.4
X80.521Y-18.4
X80.521Y-22.4
X80.521Y-26.4
X80.521Y-30.4
X80.521Y-34.4
X80.521Y-38.4
X80.521Y-42.4
X80.521Y-46.4
X80.521Y-50.4
X80.521Y-54.4
X84.649Y-18.4
X84.649Y-22.4
X84.649Y-26.4
X84.649Y-30.4
X84.649Y-34.4
X84.649Y-38.4
X84.649Y-42.4
X84.649Y-46.4
X84.649Y-50.4
X84.649Y-54.4
X88.777Y-18.4
X88.777Y-22.4
X88.777Y-26.4
X88.777Y-30.4
X88.777Y-34.4
X88.777Y-38.4
X88.777Y-42.4
X88.777Y-46.4
X88.777Y-50.4
X88.777Y-54.4
X92.905Y-18.4
X92.905Y-22.4
X92.905Y-26.4
X92.905Y-30.4
X92.905Y-34.4
X92.905Y-38.4
X92.905Y-42.4
X92.905Y-46.4
X92.905Y-50.4
X92.905Y-54.4
X97.032Y-18.4
X97.032Y-22.4
X97.032Y-26.4
X97.032Y-30.4
X97.032Y-34.4
X97.032Y-38.4
X97.032Y-42.4
X97.032Y-46.4
X97.032Y-50.4
X97.032Y-54.4
X101.16Y-18.4
X101.16Y-22.4
X101.16Y-26.4
X101.16Y-30.4
X101.16Y-34.4
X101.16Y-38.4
X101.16Y-42.4
X101.16Y-46.4
X101.16Y-50.4
X101.16Y-54.4
X105.288Y-18.4
X105.288Y-22.4
X105.288Y-26.4
X105.288Y-30.4
X105.288Y-34.4
X105.288Y-38.4
X105.288Y-42.4
X105.288Y-46.4
X105.288Y-50.4
X105.288Y-54.4
T2
X0.823Y-15.68
X0.823Y-17.005
X0.823Y-18.33
X0.823Y-19.68
X0.823Y-21.005
X0.823Y-22.33
X0.823Y-23.68
X0.823Y-25.005
X0.823Y-26.33
X0.823Y-27.68
X0.823Y-29.005
X0.823Y-30.33
X0.823Y-31.68
X0.823Y-33.005
X0.823Y-34.33
X0.823Y-35.68
X0.823Y-37.005
X0.823Y-38.33
X0.823Y-39.68
X0.823Y-41.005
X0.823Y-42.33
X0.823Y-43.68
X0.823Y-45.005
X0.823Y-46.33
X0.823Y-47.68
X0.823Y-49.005
X0.823Y-50.33
X0.823Y-51.68
X0.823Y-53.005
X0.823Y-54.33
X72.47Y-15.68
X72.47Y-17.005
X72.47Y-18.33
X72.47Y-19.68
X72.47Y-21.005
X72.47Y-22.33
X72.47Y-23.68
X72.47Y-25.005
X72.47Y-26.33
X72.47Y-27.68
X72.47Y-29.005
X72.47Y-30.33
X72.47Y-31.68
X72.47Y-33.005
X72.47Y-34.33
X72.47Y-35.68
X72.47Y-37.005
X72.47Y-38.33
X72.47Y-39.68
X72.47Y-41.005
X72.47Y-42.33
X72.47Y-43.68
X72.47Y-45.005
X72.47Y-46.33
X72.47Y-47.68
X72.47Y-49.005
X72.47Y-50.33
X72.47Y-51.68
X72.47Y-53.005
X72.47Y-54.33
X110.24Y-15.675
X110.24Y-17.0
X110.24Y-18.325
X110.24Y-19.675
X110.24Y-21.0
X110.24Y-22.325
X110.24Y-23.675
X110.24Y-25.0
X110.24Y-26.325
X110.24Y-27.675
X110.24Y-29.0
X110.24Y-30.325
X110.24Y-31.675
X110.24Y-33.0
X110.24Y-34.325
X110.24Y-35.675
X110.24Y-37.0
X110.24Y-38.325
X110.24Y-39.675
X110.24Y-41.0
X110.24Y-42.325
X110.24Y-43.675
X110.24Y-45.0
X110.24Y-46.325
X110.24Y-47.675
X110.24Y-49.0
X110.24Y-50.325
X110.24Y-51.675
X110.24Y-53.0
X110.24Y-54.325
T3
X2.5Y-2.5
X2.5Y-67.5
X108.69Y-2.5
T0
M30
