G04 #@! TF.GenerationSoftware,KiCad,Pcbnew,7.0.2-6a45011f42~172~ubuntu22.04.1*
G04 #@! TF.CreationDate,2023-07-04T12:46:50+08:00*
G04 #@! TF.ProjectId,panel_10_1,70616e65-6c5f-4313-905f-312e6b696361,rev?*
G04 #@! TF.SameCoordinates,Original*
G04 #@! TF.FileFunction,Copper,L2,Bot*
G04 #@! TF.FilePolarity,Positive*
%FSLAX46Y46*%
G04 Gerber Fmt 4.6, Leading zero omitted, Abs format (unit mm)*
G04 Created by KiCad (PCBNEW 7.0.2-6a45011f42~172~ubuntu22.04.1) date 2023-07-04 12:46:50*
%MOMM*%
%LPD*%
G01*
G04 APERTURE LIST*
G04 #@! TA.AperFunction,ComponentPad*
%ADD10R,1.200000X1.000000*%
G04 #@! TD*
G04 #@! TA.AperFunction,SMDPad,CuDef*
%ADD11C,2.000000*%
G04 #@! TD*
G04 #@! TA.AperFunction,ViaPad*
%ADD12C,0.450000*%
G04 #@! TD*
G04 APERTURE END LIST*
D10*
G04 #@! TO.P,J5,1,Pin_1*
G04 #@! TO.N,Board_6-+3V3*
X110240000Y-42325000D03*
G04 #@! TD*
G04 #@! TO.P,J2,1,Pin_1*
G04 #@! TO.N,Board_4-GND*
X72470000Y-31680000D03*
G04 #@! TD*
G04 #@! TO.P,J6,1,Pin_1*
G04 #@! TO.N,Board_2-GND*
X110240000Y-23675000D03*
G04 #@! TD*
G04 #@! TO.P,J8,1,Pin_1*
G04 #@! TO.N,Board_0-GND*
X823163Y-15680000D03*
G04 #@! TD*
G04 #@! TO.P,J7,1,Pin_1*
G04 #@! TO.N,Board_1-+3V3*
X823163Y-22330000D03*
G04 #@! TD*
G04 #@! TO.P,J9,1,Pin_1*
G04 #@! TO.N,Board_9-LED_DATA*
X823163Y-53005000D03*
G04 #@! TD*
G04 #@! TO.P,J7,1,Pin_1*
G04 #@! TO.N,Board_6-+3V3*
X823163Y-42330000D03*
G04 #@! TD*
G04 #@! TO.P,J9,1,Pin_1*
G04 #@! TO.N,Board_2-LED_DATA*
X823163Y-25005000D03*
G04 #@! TD*
G04 #@! TO.P,J1,1,Pin_1*
G04 #@! TO.N,Board_4-+3V3*
X72470000Y-34330000D03*
G04 #@! TD*
G04 #@! TO.P,J2,1,Pin_1*
G04 #@! TO.N,Board_1-GND*
X72470000Y-19680000D03*
G04 #@! TD*
G04 #@! TO.P,J9,1,Pin_1*
G04 #@! TO.N,Board_5-LED_DATA*
X823163Y-37005000D03*
G04 #@! TD*
G04 #@! TO.P,J8,1,Pin_1*
G04 #@! TO.N,Board_1-GND*
X823163Y-19680000D03*
G04 #@! TD*
G04 #@! TO.P,J2,1,Pin_1*
G04 #@! TO.N,Board_6-GND*
X72470000Y-39680000D03*
G04 #@! TD*
G04 #@! TO.P,J3,1,Pin_1*
G04 #@! TO.N,Board_6-LED_DATA*
X72470000Y-41005000D03*
G04 #@! TD*
G04 #@! TO.P,J9,1,Pin_1*
G04 #@! TO.N,Board_6-LED_DATA*
X823163Y-41005000D03*
G04 #@! TD*
G04 #@! TO.P,J8,1,Pin_1*
G04 #@! TO.N,Board_8-GND*
X823163Y-47680000D03*
G04 #@! TD*
G04 #@! TO.P,J7,1,Pin_1*
G04 #@! TO.N,Board_4-+3V3*
X823163Y-34330000D03*
G04 #@! TD*
G04 #@! TO.P,J1,1,Pin_1*
G04 #@! TO.N,Board_0-+3V3*
X72470000Y-18330000D03*
G04 #@! TD*
G04 #@! TO.P,J3,1,Pin_1*
G04 #@! TO.N,Board_7-LED_DATA*
X72470000Y-45005000D03*
G04 #@! TD*
G04 #@! TO.P,J7,1,Pin_1*
G04 #@! TO.N,Board_0-+3V3*
X823163Y-18330000D03*
G04 #@! TD*
G04 #@! TO.P,J8,1,Pin_1*
G04 #@! TO.N,Board_2-GND*
X823163Y-23680000D03*
G04 #@! TD*
G04 #@! TO.P,J5,1,Pin_1*
G04 #@! TO.N,Board_5-+3V3*
X110240000Y-38325000D03*
G04 #@! TD*
G04 #@! TO.P,J6,1,Pin_1*
G04 #@! TO.N,Board_0-GND*
X110240000Y-15675000D03*
G04 #@! TD*
G04 #@! TO.P,J3,1,Pin_1*
G04 #@! TO.N,Board_4-LED_DATA*
X72470000Y-33005000D03*
G04 #@! TD*
G04 #@! TO.P,J8,1,Pin_1*
G04 #@! TO.N,Board_6-GND*
X823163Y-39680000D03*
G04 #@! TD*
G04 #@! TO.P,J9,1,Pin_1*
G04 #@! TO.N,Board_4-LED_DATA*
X823163Y-33005000D03*
G04 #@! TD*
G04 #@! TO.P,J5,1,Pin_1*
G04 #@! TO.N,Board_4-+3V3*
X110240000Y-34325000D03*
G04 #@! TD*
G04 #@! TO.P,J4,1,Pin_1*
G04 #@! TO.N,Board_0-LED_OUT*
X110240000Y-17000000D03*
G04 #@! TD*
G04 #@! TO.P,J4,1,Pin_1*
G04 #@! TO.N,Board_6-LED_OUT*
X110240000Y-41000000D03*
G04 #@! TD*
G04 #@! TO.P,J1,1,Pin_1*
G04 #@! TO.N,Board_3-+3V3*
X72470000Y-30330000D03*
G04 #@! TD*
G04 #@! TO.P,J6,1,Pin_1*
G04 #@! TO.N,Board_7-GND*
X110240000Y-43675000D03*
G04 #@! TD*
G04 #@! TO.P,J2,1,Pin_1*
G04 #@! TO.N,Board_9-GND*
X72470000Y-51680000D03*
G04 #@! TD*
G04 #@! TO.P,J2,1,Pin_1*
G04 #@! TO.N,Board_7-GND*
X72470000Y-43680000D03*
G04 #@! TD*
G04 #@! TO.P,J3,1,Pin_1*
G04 #@! TO.N,Board_5-LED_DATA*
X72470000Y-37005000D03*
G04 #@! TD*
G04 #@! TO.P,J7,1,Pin_1*
G04 #@! TO.N,Board_2-+3V3*
X823163Y-26330000D03*
G04 #@! TD*
G04 #@! TO.P,J4,1,Pin_1*
G04 #@! TO.N,Board_8-LED_OUT*
X110240000Y-49000000D03*
G04 #@! TD*
G04 #@! TO.P,J2,1,Pin_1*
G04 #@! TO.N,Board_3-GND*
X72470000Y-27680000D03*
G04 #@! TD*
G04 #@! TO.P,J3,1,Pin_1*
G04 #@! TO.N,Board_3-LED_DATA*
X72470000Y-29005000D03*
G04 #@! TD*
G04 #@! TO.P,J1,1,Pin_1*
G04 #@! TO.N,Board_8-+3V3*
X72470000Y-50330000D03*
G04 #@! TD*
G04 #@! TO.P,J5,1,Pin_1*
G04 #@! TO.N,Board_0-+3V3*
X110240000Y-18325000D03*
G04 #@! TD*
G04 #@! TO.P,J5,1,Pin_1*
G04 #@! TO.N,Board_1-+3V3*
X110240000Y-22325000D03*
G04 #@! TD*
G04 #@! TO.P,J1,1,Pin_1*
G04 #@! TO.N,Board_6-+3V3*
X72470000Y-42330000D03*
G04 #@! TD*
G04 #@! TO.P,J7,1,Pin_1*
G04 #@! TO.N,Board_7-+3V3*
X823163Y-46330000D03*
G04 #@! TD*
G04 #@! TO.P,J6,1,Pin_1*
G04 #@! TO.N,Board_5-GND*
X110240000Y-35675000D03*
G04 #@! TD*
G04 #@! TO.P,J8,1,Pin_1*
G04 #@! TO.N,Board_4-GND*
X823163Y-31680000D03*
G04 #@! TD*
G04 #@! TO.P,J4,1,Pin_1*
G04 #@! TO.N,Board_7-LED_OUT*
X110240000Y-45000000D03*
G04 #@! TD*
G04 #@! TO.P,J4,1,Pin_1*
G04 #@! TO.N,Board_1-LED_OUT*
X110240000Y-21000000D03*
G04 #@! TD*
G04 #@! TO.P,J6,1,Pin_1*
G04 #@! TO.N,Board_3-GND*
X110240000Y-27675000D03*
G04 #@! TD*
G04 #@! TO.P,J5,1,Pin_1*
G04 #@! TO.N,Board_8-+3V3*
X110240000Y-50325000D03*
G04 #@! TD*
G04 #@! TO.P,J2,1,Pin_1*
G04 #@! TO.N,Board_8-GND*
X72470000Y-47680000D03*
G04 #@! TD*
G04 #@! TO.P,J4,1,Pin_1*
G04 #@! TO.N,Board_5-LED_OUT*
X110240000Y-37000000D03*
G04 #@! TD*
G04 #@! TO.P,J3,1,Pin_1*
G04 #@! TO.N,Board_1-LED_DATA*
X72470000Y-21005000D03*
G04 #@! TD*
G04 #@! TO.P,J1,1,Pin_1*
G04 #@! TO.N,Board_7-+3V3*
X72470000Y-46330000D03*
G04 #@! TD*
G04 #@! TO.P,J8,1,Pin_1*
G04 #@! TO.N,Board_9-GND*
X823163Y-51680000D03*
G04 #@! TD*
G04 #@! TO.P,J8,1,Pin_1*
G04 #@! TO.N,Board_5-GND*
X823163Y-35680000D03*
G04 #@! TD*
G04 #@! TO.P,J9,1,Pin_1*
G04 #@! TO.N,Board_1-LED_DATA*
X823163Y-21005000D03*
G04 #@! TD*
G04 #@! TO.P,J7,1,Pin_1*
G04 #@! TO.N,Board_5-+3V3*
X823163Y-38330000D03*
G04 #@! TD*
G04 #@! TO.P,J1,1,Pin_1*
G04 #@! TO.N,Board_5-+3V3*
X72470000Y-38330000D03*
G04 #@! TD*
G04 #@! TO.P,J7,1,Pin_1*
G04 #@! TO.N,Board_9-+3V3*
X823163Y-54330000D03*
G04 #@! TD*
G04 #@! TO.P,J6,1,Pin_1*
G04 #@! TO.N,Board_6-GND*
X110240000Y-39675000D03*
G04 #@! TD*
G04 #@! TO.P,J3,1,Pin_1*
G04 #@! TO.N,Board_2-LED_DATA*
X72470000Y-25005000D03*
G04 #@! TD*
G04 #@! TO.P,J6,1,Pin_1*
G04 #@! TO.N,Board_4-GND*
X110240000Y-31675000D03*
G04 #@! TD*
G04 #@! TO.P,J1,1,Pin_1*
G04 #@! TO.N,Board_1-+3V3*
X72470000Y-22330000D03*
G04 #@! TD*
G04 #@! TO.P,J2,1,Pin_1*
G04 #@! TO.N,Board_2-GND*
X72470000Y-23680000D03*
G04 #@! TD*
G04 #@! TO.P,J5,1,Pin_1*
G04 #@! TO.N,Board_2-+3V3*
X110240000Y-26325000D03*
G04 #@! TD*
G04 #@! TO.P,J2,1,Pin_1*
G04 #@! TO.N,Board_0-GND*
X72470000Y-15680000D03*
G04 #@! TD*
G04 #@! TO.P,J8,1,Pin_1*
G04 #@! TO.N,Board_3-GND*
X823163Y-27680000D03*
G04 #@! TD*
G04 #@! TO.P,J9,1,Pin_1*
G04 #@! TO.N,Board_3-LED_DATA*
X823163Y-29005000D03*
G04 #@! TD*
G04 #@! TO.P,J4,1,Pin_1*
G04 #@! TO.N,Board_2-LED_OUT*
X110240000Y-25000000D03*
G04 #@! TD*
G04 #@! TO.P,J7,1,Pin_1*
G04 #@! TO.N,Board_3-+3V3*
X823163Y-30330000D03*
G04 #@! TD*
G04 #@! TO.P,J1,1,Pin_1*
G04 #@! TO.N,Board_2-+3V3*
X72470000Y-26330000D03*
G04 #@! TD*
G04 #@! TO.P,J4,1,Pin_1*
G04 #@! TO.N,Board_4-LED_OUT*
X110240000Y-33000000D03*
G04 #@! TD*
G04 #@! TO.P,J5,1,Pin_1*
G04 #@! TO.N,Board_3-+3V3*
X110240000Y-30325000D03*
G04 #@! TD*
G04 #@! TO.P,J6,1,Pin_1*
G04 #@! TO.N,Board_1-GND*
X110240000Y-19675000D03*
G04 #@! TD*
G04 #@! TO.P,J5,1,Pin_1*
G04 #@! TO.N,Board_9-+3V3*
X110240000Y-54325000D03*
G04 #@! TD*
G04 #@! TO.P,J3,1,Pin_1*
G04 #@! TO.N,Board_0-LED_DATA*
X72470000Y-17005000D03*
G04 #@! TD*
G04 #@! TO.P,J2,1,Pin_1*
G04 #@! TO.N,Board_5-GND*
X72470000Y-35680000D03*
G04 #@! TD*
G04 #@! TO.P,J9,1,Pin_1*
G04 #@! TO.N,Board_7-LED_DATA*
X823163Y-45005000D03*
G04 #@! TD*
G04 #@! TO.P,J6,1,Pin_1*
G04 #@! TO.N,Board_9-GND*
X110240000Y-51675000D03*
G04 #@! TD*
G04 #@! TO.P,J3,1,Pin_1*
G04 #@! TO.N,Board_8-LED_DATA*
X72470000Y-49005000D03*
G04 #@! TD*
G04 #@! TO.P,J7,1,Pin_1*
G04 #@! TO.N,Board_8-+3V3*
X823163Y-50330000D03*
G04 #@! TD*
G04 #@! TO.P,J5,1,Pin_1*
G04 #@! TO.N,Board_7-+3V3*
X110240000Y-46325000D03*
G04 #@! TD*
G04 #@! TO.P,J4,1,Pin_1*
G04 #@! TO.N,Board_3-LED_OUT*
X110240000Y-29000000D03*
G04 #@! TD*
G04 #@! TO.P,J6,1,Pin_1*
G04 #@! TO.N,Board_8-GND*
X110240000Y-47675000D03*
G04 #@! TD*
G04 #@! TO.P,J1,1,Pin_1*
G04 #@! TO.N,Board_9-+3V3*
X72470000Y-54330000D03*
G04 #@! TD*
G04 #@! TO.P,J4,1,Pin_1*
G04 #@! TO.N,Board_9-LED_OUT*
X110240000Y-53000000D03*
G04 #@! TD*
G04 #@! TO.P,J3,1,Pin_1*
G04 #@! TO.N,Board_9-LED_DATA*
X72470000Y-53005000D03*
G04 #@! TD*
G04 #@! TO.P,J9,1,Pin_1*
G04 #@! TO.N,Board_8-LED_DATA*
X823163Y-49005000D03*
G04 #@! TD*
G04 #@! TO.P,J9,1,Pin_1*
G04 #@! TO.N,Board_0-LED_DATA*
X823163Y-17005000D03*
G04 #@! TD*
G04 #@! TO.P,J8,1,Pin_1*
G04 #@! TO.N,Board_7-GND*
X823163Y-43680000D03*
G04 #@! TD*
D11*
G04 #@! TO.P,REF\u002A\u002A,*
G04 #@! TO.N,*
X96190000Y-3350000D03*
G04 #@! TD*
G04 #@! TO.P,REF\u002A\u002A,*
G04 #@! TO.N,*
X15000000Y-3350000D03*
G04 #@! TD*
G04 #@! TO.P,REF\u002A\u002A,*
G04 #@! TO.N,*
X15000000Y-66650000D03*
G04 #@! TD*
D12*
G04 #@! TO.N,Board_0-+3V3*
X97032448Y-18400000D03*
X84648877Y-18400000D03*
X92904591Y-18400000D03*
X80521020Y-18400000D03*
X88776734Y-18400000D03*
X105288163Y-18400000D03*
X76393163Y-18400000D03*
X101160305Y-18400000D03*
G04 #@! TO.N,Board_1-+3V3*
X105288163Y-22400000D03*
X76393163Y-22400000D03*
X97032448Y-22400000D03*
X92904591Y-22400000D03*
X88776734Y-22400000D03*
X84648877Y-22400000D03*
X101160305Y-22400000D03*
X80521020Y-22400000D03*
G04 #@! TO.N,Board_2-+3V3*
X92904591Y-26400000D03*
X105288163Y-26400000D03*
X101160305Y-26400000D03*
X80521020Y-26400000D03*
X84648877Y-26400000D03*
X97032448Y-26400000D03*
X76393163Y-26400000D03*
X88776734Y-26400000D03*
G04 #@! TO.N,Board_3-+3V3*
X101160305Y-30400000D03*
X76393163Y-30400000D03*
X105288163Y-30400000D03*
X84648877Y-30400000D03*
X88776734Y-30400000D03*
X92904591Y-30400000D03*
X97032448Y-30400000D03*
X80521020Y-30400000D03*
G04 #@! TO.N,Board_4-+3V3*
X80521020Y-34400000D03*
X88776734Y-34400000D03*
X84648877Y-34400000D03*
X92904591Y-34400000D03*
X97032448Y-34400000D03*
X105288163Y-34400000D03*
X76393163Y-34400000D03*
X101160305Y-34400000D03*
G04 #@! TO.N,Board_5-+3V3*
X80521020Y-38400000D03*
X101160305Y-38400000D03*
X76393163Y-38400000D03*
X92904591Y-38400000D03*
X97032448Y-38400000D03*
X88776734Y-38400000D03*
X84648877Y-38400000D03*
X105288163Y-38400000D03*
G04 #@! TO.N,Board_6-+3V3*
X88776734Y-42400000D03*
X80521020Y-42400000D03*
X97032448Y-42400000D03*
X105288163Y-42400000D03*
X84648877Y-42400000D03*
X101160305Y-42400000D03*
X76393163Y-42400000D03*
X92904591Y-42400000D03*
G04 #@! TO.N,Board_7-+3V3*
X105288163Y-46400000D03*
X76393163Y-46400000D03*
X97032448Y-46400000D03*
X80521020Y-46400000D03*
X101160305Y-46400000D03*
X92904591Y-46400000D03*
X88776734Y-46400000D03*
X84648877Y-46400000D03*
G04 #@! TO.N,Board_8-+3V3*
X105288163Y-50400000D03*
X101160305Y-50400000D03*
X84648877Y-50400000D03*
X80521020Y-50400000D03*
X92904591Y-50400000D03*
X88776734Y-50400000D03*
X97032448Y-50400000D03*
X76393163Y-50400000D03*
G04 #@! TO.N,Board_9-+3V3*
X92904591Y-54400000D03*
X101160305Y-54400000D03*
X88776734Y-54400000D03*
X80521020Y-54400000D03*
X76393163Y-54400000D03*
X97032448Y-54400000D03*
X105288163Y-54400000D03*
X84648877Y-54400000D03*
G04 #@! TD*
G04 #@! TA.AperFunction,Conductor*
G04 #@! TO.N,Board_4-GND*
G36*
X110795712Y-31169949D02*
G01*
X110862743Y-31189661D01*
X110908476Y-31242483D01*
X110919661Y-31294287D01*
X110916986Y-32275838D01*
X110897118Y-32342823D01*
X110844190Y-32388434D01*
X110792986Y-32399500D01*
X109630100Y-32399500D01*
X109600787Y-32405330D01*
X109567542Y-32427543D01*
X109545330Y-32460787D01*
X109539500Y-32490098D01*
X109539500Y-33509899D01*
X109547909Y-33552177D01*
X109563421Y-33601720D01*
X109544935Y-33669100D01*
X109492956Y-33715789D01*
X109438888Y-33727930D01*
X108677577Y-33724532D01*
X108677576Y-33724532D01*
X108677573Y-33724532D01*
X108675818Y-33724563D01*
X108671522Y-33724679D01*
X108669739Y-33724761D01*
X108657351Y-33725430D01*
X108655572Y-33725563D01*
X108651325Y-33725923D01*
X108649555Y-33726106D01*
X107270947Y-33878750D01*
X107257339Y-33879503D01*
X73711012Y-33889481D01*
X73649402Y-33873113D01*
X73232904Y-33634841D01*
X73184490Y-33584466D01*
X73173200Y-33527111D01*
X73170500Y-33527112D01*
X73170499Y-33435970D01*
X73173081Y-33417356D01*
X73172244Y-33417245D01*
X73173417Y-33408452D01*
X73173419Y-33408448D01*
X73177393Y-33378682D01*
X73170499Y-32696290D01*
X73170499Y-32495102D01*
X73170498Y-32495098D01*
X73164669Y-32465787D01*
X73142456Y-32432542D01*
X73109212Y-32410330D01*
X73079901Y-32404500D01*
X71860100Y-32404500D01*
X71830787Y-32410330D01*
X71797542Y-32432543D01*
X71775330Y-32465787D01*
X71769500Y-32495098D01*
X71769500Y-32495627D01*
X71768244Y-32501410D01*
X71767117Y-32507079D01*
X71767018Y-32507059D01*
X71758339Y-32547041D01*
X71745811Y-32574536D01*
X71700128Y-32730619D01*
X71662405Y-32789429D01*
X71598874Y-32818510D01*
X71581329Y-32819787D01*
X1774381Y-32936847D01*
X1707309Y-32917275D01*
X1661465Y-32864548D01*
X1652226Y-32835318D01*
X1605623Y-32582406D01*
X1602491Y-32569811D01*
X1593340Y-32540776D01*
X1574507Y-32507079D01*
X1572450Y-32503399D01*
X1526697Y-32450597D01*
X1464786Y-32410810D01*
X1426361Y-32403167D01*
X1415620Y-32400527D01*
X1409655Y-32398775D01*
X1409649Y-32398774D01*
X1379925Y-32394500D01*
X326066Y-32394500D01*
X323530Y-32394766D01*
X255680Y-32378651D01*
X207222Y-32328316D01*
X193163Y-32270967D01*
X193163Y-31249050D01*
X212848Y-31182011D01*
X265652Y-31136256D01*
X317211Y-31125050D01*
X110795712Y-31169949D01*
G37*
G04 #@! TD.AperFunction*
G04 #@! TD*
G04 #@! TA.AperFunction,Conductor*
G04 #@! TO.N,Board_9-LED_DATA*
G36*
X1446964Y-52519685D02*
G01*
X1492719Y-52572489D01*
X1501870Y-52601524D01*
X1583159Y-53042669D01*
X71753163Y-52925000D01*
X71847064Y-52604169D01*
X71884788Y-52545358D01*
X71948318Y-52516278D01*
X71966072Y-52515000D01*
X72940409Y-52515000D01*
X73007448Y-52534685D01*
X73053203Y-52587489D01*
X73064402Y-52637747D01*
X73067304Y-52925000D01*
X73071898Y-53379748D01*
X73052891Y-53446982D01*
X73000552Y-53493268D01*
X72947904Y-53505000D01*
X71873163Y-53505000D01*
X318479Y-53624790D01*
X251406Y-53605218D01*
X205563Y-53552490D01*
X194276Y-53499691D01*
X202071Y-52622898D01*
X222351Y-52556036D01*
X275559Y-52510752D01*
X326066Y-52500000D01*
X1379925Y-52500000D01*
X1446964Y-52519685D01*
G37*
G04 #@! TD.AperFunction*
G04 #@! TD*
G04 #@! TA.AperFunction,Conductor*
G04 #@! TO.N,Board_3-GND*
G36*
X110795712Y-27169949D02*
G01*
X110862743Y-27189661D01*
X110908476Y-27242483D01*
X110919661Y-27294287D01*
X110916986Y-28275838D01*
X110897118Y-28342823D01*
X110844190Y-28388434D01*
X110792986Y-28399500D01*
X109630100Y-28399500D01*
X109600787Y-28405330D01*
X109567542Y-28427543D01*
X109545330Y-28460787D01*
X109539500Y-28490098D01*
X109539500Y-29509899D01*
X109547909Y-29552177D01*
X109563421Y-29601720D01*
X109544935Y-29669100D01*
X109492956Y-29715789D01*
X109438888Y-29727930D01*
X108677577Y-29724532D01*
X108677576Y-29724532D01*
X108677573Y-29724532D01*
X108675818Y-29724563D01*
X108671522Y-29724679D01*
X108669739Y-29724761D01*
X108657351Y-29725430D01*
X108655572Y-29725563D01*
X108651325Y-29725923D01*
X108649555Y-29726106D01*
X107270947Y-29878750D01*
X107257339Y-29879503D01*
X73711012Y-29889481D01*
X73649402Y-29873113D01*
X73232904Y-29634841D01*
X73184490Y-29584466D01*
X73173200Y-29527111D01*
X73170500Y-29527112D01*
X73170499Y-29435970D01*
X73173081Y-29417356D01*
X73172244Y-29417245D01*
X73173417Y-29408452D01*
X73173419Y-29408448D01*
X73177393Y-29378682D01*
X73170499Y-28696290D01*
X73170499Y-28495102D01*
X73170498Y-28495098D01*
X73164669Y-28465787D01*
X73142456Y-28432542D01*
X73109212Y-28410330D01*
X73079901Y-28404500D01*
X71860100Y-28404500D01*
X71830787Y-28410330D01*
X71797542Y-28432543D01*
X71775330Y-28465787D01*
X71769500Y-28495098D01*
X71769500Y-28495627D01*
X71768244Y-28501410D01*
X71767117Y-28507079D01*
X71767018Y-28507059D01*
X71758339Y-28547041D01*
X71745811Y-28574536D01*
X71700128Y-28730619D01*
X71662405Y-28789429D01*
X71598874Y-28818510D01*
X71581329Y-28819787D01*
X1774381Y-28936847D01*
X1707309Y-28917275D01*
X1661465Y-28864548D01*
X1652226Y-28835318D01*
X1605623Y-28582406D01*
X1602491Y-28569811D01*
X1593340Y-28540776D01*
X1574507Y-28507079D01*
X1572450Y-28503399D01*
X1526697Y-28450597D01*
X1464786Y-28410810D01*
X1426361Y-28403167D01*
X1415620Y-28400527D01*
X1409655Y-28398775D01*
X1409649Y-28398774D01*
X1379925Y-28394500D01*
X326066Y-28394500D01*
X323530Y-28394766D01*
X255680Y-28378651D01*
X207222Y-28328316D01*
X193163Y-28270967D01*
X193163Y-27249050D01*
X212848Y-27182011D01*
X265652Y-27136256D01*
X317211Y-27125050D01*
X110795712Y-27169949D01*
G37*
G04 #@! TD.AperFunction*
G04 #@! TD*
G04 #@! TA.AperFunction,Conductor*
G04 #@! TO.N,Board_8-+3V3*
G36*
X73040238Y-49664981D02*
G01*
X73101739Y-49681348D01*
X73650000Y-49995000D01*
X107270000Y-49985000D01*
X108662934Y-49830782D01*
X108677105Y-49830031D01*
X110786557Y-49839448D01*
X110853504Y-49859432D01*
X110899023Y-49912440D01*
X110910000Y-49963447D01*
X110910000Y-50716061D01*
X110890315Y-50783100D01*
X110837511Y-50828855D01*
X110786062Y-50840061D01*
X317224Y-50894938D01*
X250174Y-50875287D01*
X204393Y-50822505D01*
X193163Y-50770942D01*
X193163Y-49854288D01*
X212847Y-49787253D01*
X265651Y-49741498D01*
X316954Y-49730292D01*
X318650Y-49730289D01*
X318656Y-49730290D01*
X47652859Y-49651047D01*
X73040238Y-49664981D01*
G37*
G04 #@! TD.AperFunction*
G04 #@! TD*
G04 #@! TA.AperFunction,Conductor*
G04 #@! TO.N,Board_7-LED_DATA*
G36*
X1446964Y-44519685D02*
G01*
X1492719Y-44572489D01*
X1501870Y-44601524D01*
X1583159Y-45042669D01*
X71753163Y-44925000D01*
X71847064Y-44604169D01*
X71884788Y-44545358D01*
X71948318Y-44516278D01*
X71966072Y-44515000D01*
X72940409Y-44515000D01*
X73007448Y-44534685D01*
X73053203Y-44587489D01*
X73064402Y-44637747D01*
X73067304Y-44925000D01*
X73071898Y-45379748D01*
X73052891Y-45446982D01*
X73000552Y-45493268D01*
X72947904Y-45505000D01*
X71873163Y-45505000D01*
X318479Y-45624790D01*
X251406Y-45605218D01*
X205563Y-45552490D01*
X194276Y-45499691D01*
X202071Y-44622898D01*
X222351Y-44556036D01*
X275559Y-44510752D01*
X326066Y-44500000D01*
X1379925Y-44500000D01*
X1446964Y-44519685D01*
G37*
G04 #@! TD.AperFunction*
G04 #@! TD*
G04 #@! TA.AperFunction,Conductor*
G04 #@! TO.N,Board_7-+3V3*
G36*
X73040238Y-45664981D02*
G01*
X73101739Y-45681348D01*
X73650000Y-45995000D01*
X107270000Y-45985000D01*
X108662934Y-45830782D01*
X108677105Y-45830031D01*
X110786557Y-45839448D01*
X110853504Y-45859432D01*
X110899023Y-45912440D01*
X110910000Y-45963447D01*
X110910000Y-46716061D01*
X110890315Y-46783100D01*
X110837511Y-46828855D01*
X110786062Y-46840061D01*
X317224Y-46894938D01*
X250174Y-46875287D01*
X204393Y-46822505D01*
X193163Y-46770942D01*
X193163Y-45854288D01*
X212847Y-45787253D01*
X265651Y-45741498D01*
X316954Y-45730292D01*
X318650Y-45730289D01*
X318656Y-45730290D01*
X47652859Y-45651047D01*
X73040238Y-45664981D01*
G37*
G04 #@! TD.AperFunction*
G04 #@! TD*
G04 #@! TA.AperFunction,Conductor*
G04 #@! TO.N,Board_9-GND*
G36*
X110795712Y-51169949D02*
G01*
X110862743Y-51189661D01*
X110908476Y-51242483D01*
X110919661Y-51294287D01*
X110916986Y-52275838D01*
X110897118Y-52342823D01*
X110844190Y-52388434D01*
X110792986Y-52399500D01*
X109630100Y-52399500D01*
X109600787Y-52405330D01*
X109567542Y-52427543D01*
X109545330Y-52460787D01*
X109539500Y-52490098D01*
X109539500Y-53509899D01*
X109547909Y-53552177D01*
X109563421Y-53601720D01*
X109544935Y-53669100D01*
X109492956Y-53715789D01*
X109438888Y-53727930D01*
X108677577Y-53724532D01*
X108677576Y-53724532D01*
X108677573Y-53724532D01*
X108675818Y-53724563D01*
X108671522Y-53724679D01*
X108669739Y-53724761D01*
X108657351Y-53725430D01*
X108655572Y-53725563D01*
X108651325Y-53725923D01*
X108649555Y-53726106D01*
X107270947Y-53878750D01*
X107257339Y-53879503D01*
X73711012Y-53889481D01*
X73649402Y-53873113D01*
X73232904Y-53634841D01*
X73184490Y-53584466D01*
X73173200Y-53527111D01*
X73170500Y-53527112D01*
X73170499Y-53435970D01*
X73173081Y-53417356D01*
X73172244Y-53417245D01*
X73173417Y-53408452D01*
X73173419Y-53408448D01*
X73177393Y-53378682D01*
X73170499Y-52696290D01*
X73170499Y-52495102D01*
X73170498Y-52495098D01*
X73164669Y-52465787D01*
X73142456Y-52432542D01*
X73109212Y-52410330D01*
X73079901Y-52404500D01*
X71860100Y-52404500D01*
X71830787Y-52410330D01*
X71797542Y-52432543D01*
X71775330Y-52465787D01*
X71769500Y-52495098D01*
X71769500Y-52495627D01*
X71768244Y-52501410D01*
X71767117Y-52507079D01*
X71767018Y-52507059D01*
X71758339Y-52547041D01*
X71745811Y-52574536D01*
X71700128Y-52730619D01*
X71662405Y-52789429D01*
X71598874Y-52818510D01*
X71581329Y-52819787D01*
X1774381Y-52936847D01*
X1707309Y-52917275D01*
X1661465Y-52864548D01*
X1652226Y-52835318D01*
X1605623Y-52582406D01*
X1602491Y-52569811D01*
X1593340Y-52540776D01*
X1574507Y-52507079D01*
X1572450Y-52503399D01*
X1526697Y-52450597D01*
X1464786Y-52410810D01*
X1426361Y-52403167D01*
X1415620Y-52400527D01*
X1409655Y-52398775D01*
X1409649Y-52398774D01*
X1379925Y-52394500D01*
X326066Y-52394500D01*
X323530Y-52394766D01*
X255680Y-52378651D01*
X207222Y-52328316D01*
X193163Y-52270967D01*
X193163Y-51249050D01*
X212848Y-51182011D01*
X265652Y-51136256D01*
X317211Y-51125050D01*
X110795712Y-51169949D01*
G37*
G04 #@! TD.AperFunction*
G04 #@! TD*
G04 #@! TA.AperFunction,Conductor*
G04 #@! TO.N,Board_8-GND*
G36*
X110795712Y-47169949D02*
G01*
X110862743Y-47189661D01*
X110908476Y-47242483D01*
X110919661Y-47294287D01*
X110916986Y-48275838D01*
X110897118Y-48342823D01*
X110844190Y-48388434D01*
X110792986Y-48399500D01*
X109630100Y-48399500D01*
X109600787Y-48405330D01*
X109567542Y-48427543D01*
X109545330Y-48460787D01*
X109539500Y-48490098D01*
X109539500Y-49509899D01*
X109547909Y-49552177D01*
X109563421Y-49601720D01*
X109544935Y-49669100D01*
X109492956Y-49715789D01*
X109438888Y-49727930D01*
X108677577Y-49724532D01*
X108677576Y-49724532D01*
X108677573Y-49724532D01*
X108675818Y-49724563D01*
X108671522Y-49724679D01*
X108669739Y-49724761D01*
X108657351Y-49725430D01*
X108655572Y-49725563D01*
X108651325Y-49725923D01*
X108649555Y-49726106D01*
X107270947Y-49878750D01*
X107257339Y-49879503D01*
X73711012Y-49889481D01*
X73649402Y-49873113D01*
X73232904Y-49634841D01*
X73184490Y-49584466D01*
X73173200Y-49527111D01*
X73170500Y-49527112D01*
X73170499Y-49435970D01*
X73173081Y-49417356D01*
X73172244Y-49417245D01*
X73173417Y-49408452D01*
X73173419Y-49408448D01*
X73177393Y-49378682D01*
X73170499Y-48696290D01*
X73170499Y-48495102D01*
X73170498Y-48495098D01*
X73164669Y-48465787D01*
X73142456Y-48432542D01*
X73109212Y-48410330D01*
X73079901Y-48404500D01*
X71860100Y-48404500D01*
X71830787Y-48410330D01*
X71797542Y-48432543D01*
X71775330Y-48465787D01*
X71769500Y-48495098D01*
X71769500Y-48495627D01*
X71768244Y-48501410D01*
X71767117Y-48507079D01*
X71767018Y-48507059D01*
X71758339Y-48547041D01*
X71745811Y-48574536D01*
X71700128Y-48730619D01*
X71662405Y-48789429D01*
X71598874Y-48818510D01*
X71581329Y-48819787D01*
X1774381Y-48936847D01*
X1707309Y-48917275D01*
X1661465Y-48864548D01*
X1652226Y-48835318D01*
X1605623Y-48582406D01*
X1602491Y-48569811D01*
X1593340Y-48540776D01*
X1574507Y-48507079D01*
X1572450Y-48503399D01*
X1526697Y-48450597D01*
X1464786Y-48410810D01*
X1426361Y-48403167D01*
X1415620Y-48400527D01*
X1409655Y-48398775D01*
X1409649Y-48398774D01*
X1379925Y-48394500D01*
X326066Y-48394500D01*
X323530Y-48394766D01*
X255680Y-48378651D01*
X207222Y-48328316D01*
X193163Y-48270967D01*
X193163Y-47249050D01*
X212848Y-47182011D01*
X265652Y-47136256D01*
X317211Y-47125050D01*
X110795712Y-47169949D01*
G37*
G04 #@! TD.AperFunction*
G04 #@! TD*
G04 #@! TA.AperFunction,Conductor*
G04 #@! TO.N,Board_0-GND*
G36*
X110795712Y-15169949D02*
G01*
X110862743Y-15189661D01*
X110908476Y-15242483D01*
X110919661Y-15294287D01*
X110916986Y-16275838D01*
X110897118Y-16342823D01*
X110844190Y-16388434D01*
X110792986Y-16399500D01*
X109630100Y-16399500D01*
X109600787Y-16405330D01*
X109567542Y-16427543D01*
X109545330Y-16460787D01*
X109539500Y-16490098D01*
X109539500Y-17509899D01*
X109547909Y-17552177D01*
X109563421Y-17601720D01*
X109544935Y-17669100D01*
X109492956Y-17715789D01*
X109438888Y-17727930D01*
X108677577Y-17724532D01*
X108677576Y-17724532D01*
X108677573Y-17724532D01*
X108675818Y-17724563D01*
X108671522Y-17724679D01*
X108669739Y-17724761D01*
X108657351Y-17725430D01*
X108655572Y-17725563D01*
X108651325Y-17725923D01*
X108649555Y-17726106D01*
X107270947Y-17878750D01*
X107257339Y-17879503D01*
X73711012Y-17889481D01*
X73649402Y-17873113D01*
X73232904Y-17634841D01*
X73184490Y-17584466D01*
X73173200Y-17527111D01*
X73170500Y-17527112D01*
X73170499Y-17435970D01*
X73173081Y-17417356D01*
X73172244Y-17417245D01*
X73173417Y-17408452D01*
X73173419Y-17408448D01*
X73177393Y-17378682D01*
X73170499Y-16696290D01*
X73170499Y-16495102D01*
X73170498Y-16495098D01*
X73164669Y-16465787D01*
X73142456Y-16432542D01*
X73109212Y-16410330D01*
X73079901Y-16404500D01*
X71860100Y-16404500D01*
X71830787Y-16410330D01*
X71797542Y-16432543D01*
X71775330Y-16465787D01*
X71769500Y-16495098D01*
X71769500Y-16495627D01*
X71768244Y-16501410D01*
X71767117Y-16507079D01*
X71767018Y-16507059D01*
X71758339Y-16547041D01*
X71745811Y-16574536D01*
X71700128Y-16730619D01*
X71662405Y-16789429D01*
X71598874Y-16818510D01*
X71581329Y-16819787D01*
X1774381Y-16936847D01*
X1707309Y-16917275D01*
X1661465Y-16864548D01*
X1652226Y-16835318D01*
X1605623Y-16582406D01*
X1602491Y-16569811D01*
X1593340Y-16540776D01*
X1574507Y-16507079D01*
X1572450Y-16503399D01*
X1526697Y-16450597D01*
X1464786Y-16410810D01*
X1426361Y-16403167D01*
X1415620Y-16400527D01*
X1409655Y-16398775D01*
X1409649Y-16398774D01*
X1379925Y-16394500D01*
X326066Y-16394500D01*
X323530Y-16394766D01*
X255680Y-16378651D01*
X207222Y-16328316D01*
X193163Y-16270967D01*
X193163Y-15249050D01*
X212848Y-15182011D01*
X265652Y-15136256D01*
X317211Y-15125050D01*
X110795712Y-15169949D01*
G37*
G04 #@! TD.AperFunction*
G04 #@! TD*
G04 #@! TA.AperFunction,Conductor*
G04 #@! TO.N,Board_4-LED_DATA*
G36*
X1446964Y-32519685D02*
G01*
X1492719Y-32572489D01*
X1501870Y-32601524D01*
X1583159Y-33042669D01*
X71753163Y-32925000D01*
X71847064Y-32604169D01*
X71884788Y-32545358D01*
X71948318Y-32516278D01*
X71966072Y-32515000D01*
X72940409Y-32515000D01*
X73007448Y-32534685D01*
X73053203Y-32587489D01*
X73064402Y-32637747D01*
X73067304Y-32925000D01*
X73071898Y-33379748D01*
X73052891Y-33446982D01*
X73000552Y-33493268D01*
X72947904Y-33505000D01*
X71873163Y-33505000D01*
X318479Y-33624790D01*
X251406Y-33605218D01*
X205563Y-33552490D01*
X194276Y-33499691D01*
X202071Y-32622898D01*
X222351Y-32556036D01*
X275559Y-32510752D01*
X326066Y-32500000D01*
X1379925Y-32500000D01*
X1446964Y-32519685D01*
G37*
G04 #@! TD.AperFunction*
G04 #@! TD*
G04 #@! TA.AperFunction,Conductor*
G04 #@! TO.N,Board_6-GND*
G36*
X110795712Y-39169949D02*
G01*
X110862743Y-39189661D01*
X110908476Y-39242483D01*
X110919661Y-39294287D01*
X110916986Y-40275838D01*
X110897118Y-40342823D01*
X110844190Y-40388434D01*
X110792986Y-40399500D01*
X109630100Y-40399500D01*
X109600787Y-40405330D01*
X109567542Y-40427543D01*
X109545330Y-40460787D01*
X109539500Y-40490098D01*
X109539500Y-41509899D01*
X109547909Y-41552177D01*
X109563421Y-41601720D01*
X109544935Y-41669100D01*
X109492956Y-41715789D01*
X109438888Y-41727930D01*
X108677577Y-41724532D01*
X108677576Y-41724532D01*
X108677573Y-41724532D01*
X108675818Y-41724563D01*
X108671522Y-41724679D01*
X108669739Y-41724761D01*
X108657351Y-41725430D01*
X108655572Y-41725563D01*
X108651325Y-41725923D01*
X108649555Y-41726106D01*
X107270947Y-41878750D01*
X107257339Y-41879503D01*
X73711012Y-41889481D01*
X73649402Y-41873113D01*
X73232904Y-41634841D01*
X73184490Y-41584466D01*
X73173200Y-41527111D01*
X73170500Y-41527112D01*
X73170499Y-41435970D01*
X73173081Y-41417356D01*
X73172244Y-41417245D01*
X73173417Y-41408452D01*
X73173419Y-41408448D01*
X73177393Y-41378682D01*
X73170499Y-40696290D01*
X73170499Y-40495102D01*
X73170498Y-40495098D01*
X73164669Y-40465787D01*
X73142456Y-40432542D01*
X73109212Y-40410330D01*
X73079901Y-40404500D01*
X71860100Y-40404500D01*
X71830787Y-40410330D01*
X71797542Y-40432543D01*
X71775330Y-40465787D01*
X71769500Y-40495098D01*
X71769500Y-40495627D01*
X71768244Y-40501410D01*
X71767117Y-40507079D01*
X71767018Y-40507059D01*
X71758339Y-40547041D01*
X71745811Y-40574536D01*
X71700128Y-40730619D01*
X71662405Y-40789429D01*
X71598874Y-40818510D01*
X71581329Y-40819787D01*
X1774381Y-40936847D01*
X1707309Y-40917275D01*
X1661465Y-40864548D01*
X1652226Y-40835318D01*
X1605623Y-40582406D01*
X1602491Y-40569811D01*
X1593340Y-40540776D01*
X1574507Y-40507079D01*
X1572450Y-40503399D01*
X1526697Y-40450597D01*
X1464786Y-40410810D01*
X1426361Y-40403167D01*
X1415620Y-40400527D01*
X1409655Y-40398775D01*
X1409649Y-40398774D01*
X1379925Y-40394500D01*
X326066Y-40394500D01*
X323530Y-40394766D01*
X255680Y-40378651D01*
X207222Y-40328316D01*
X193163Y-40270967D01*
X193163Y-39249050D01*
X212848Y-39182011D01*
X265652Y-39136256D01*
X317211Y-39125050D01*
X110795712Y-39169949D01*
G37*
G04 #@! TD.AperFunction*
G04 #@! TD*
G04 #@! TA.AperFunction,Conductor*
G04 #@! TO.N,Board_7-GND*
G36*
X110795712Y-43169949D02*
G01*
X110862743Y-43189661D01*
X110908476Y-43242483D01*
X110919661Y-43294287D01*
X110916986Y-44275838D01*
X110897118Y-44342823D01*
X110844190Y-44388434D01*
X110792986Y-44399500D01*
X109630100Y-44399500D01*
X109600787Y-44405330D01*
X109567542Y-44427543D01*
X109545330Y-44460787D01*
X109539500Y-44490098D01*
X109539500Y-45509899D01*
X109547909Y-45552177D01*
X109563421Y-45601720D01*
X109544935Y-45669100D01*
X109492956Y-45715789D01*
X109438888Y-45727930D01*
X108677577Y-45724532D01*
X108677576Y-45724532D01*
X108677573Y-45724532D01*
X108675818Y-45724563D01*
X108671522Y-45724679D01*
X108669739Y-45724761D01*
X108657351Y-45725430D01*
X108655572Y-45725563D01*
X108651325Y-45725923D01*
X108649555Y-45726106D01*
X107270947Y-45878750D01*
X107257339Y-45879503D01*
X73711012Y-45889481D01*
X73649402Y-45873113D01*
X73232904Y-45634841D01*
X73184490Y-45584466D01*
X73173200Y-45527111D01*
X73170500Y-45527112D01*
X73170499Y-45435970D01*
X73173081Y-45417356D01*
X73172244Y-45417245D01*
X73173417Y-45408452D01*
X73173419Y-45408448D01*
X73177393Y-45378682D01*
X73170499Y-44696290D01*
X73170499Y-44495102D01*
X73170498Y-44495098D01*
X73164669Y-44465787D01*
X73142456Y-44432542D01*
X73109212Y-44410330D01*
X73079901Y-44404500D01*
X71860100Y-44404500D01*
X71830787Y-44410330D01*
X71797542Y-44432543D01*
X71775330Y-44465787D01*
X71769500Y-44495098D01*
X71769500Y-44495627D01*
X71768244Y-44501410D01*
X71767117Y-44507079D01*
X71767018Y-44507059D01*
X71758339Y-44547041D01*
X71745811Y-44574536D01*
X71700128Y-44730619D01*
X71662405Y-44789429D01*
X71598874Y-44818510D01*
X71581329Y-44819787D01*
X1774381Y-44936847D01*
X1707309Y-44917275D01*
X1661465Y-44864548D01*
X1652226Y-44835318D01*
X1605623Y-44582406D01*
X1602491Y-44569811D01*
X1593340Y-44540776D01*
X1574507Y-44507079D01*
X1572450Y-44503399D01*
X1526697Y-44450597D01*
X1464786Y-44410810D01*
X1426361Y-44403167D01*
X1415620Y-44400527D01*
X1409655Y-44398775D01*
X1409649Y-44398774D01*
X1379925Y-44394500D01*
X326066Y-44394500D01*
X323530Y-44394766D01*
X255680Y-44378651D01*
X207222Y-44328316D01*
X193163Y-44270967D01*
X193163Y-43249050D01*
X212848Y-43182011D01*
X265652Y-43136256D01*
X317211Y-43125050D01*
X110795712Y-43169949D01*
G37*
G04 #@! TD.AperFunction*
G04 #@! TD*
G04 #@! TA.AperFunction,Conductor*
G04 #@! TO.N,Board_9-+3V3*
G36*
X73040238Y-53664981D02*
G01*
X73101739Y-53681348D01*
X73650000Y-53995000D01*
X107270000Y-53985000D01*
X108662934Y-53830782D01*
X108677105Y-53830031D01*
X110786557Y-53839448D01*
X110853504Y-53859432D01*
X110899023Y-53912440D01*
X110910000Y-53963447D01*
X110910000Y-54716061D01*
X110890315Y-54783100D01*
X110837511Y-54828855D01*
X110786062Y-54840061D01*
X317224Y-54894938D01*
X250174Y-54875287D01*
X204393Y-54822505D01*
X193163Y-54770942D01*
X193163Y-53854288D01*
X212847Y-53787253D01*
X265651Y-53741498D01*
X316954Y-53730292D01*
X318650Y-53730289D01*
X318656Y-53730290D01*
X47652859Y-53651047D01*
X73040238Y-53664981D01*
G37*
G04 #@! TD.AperFunction*
G04 #@! TD*
G04 #@! TA.AperFunction,Conductor*
G04 #@! TO.N,Board_1-LED_DATA*
G36*
X1446964Y-20519685D02*
G01*
X1492719Y-20572489D01*
X1501870Y-20601524D01*
X1583159Y-21042669D01*
X71753163Y-20925000D01*
X71847064Y-20604169D01*
X71884788Y-20545358D01*
X71948318Y-20516278D01*
X71966072Y-20515000D01*
X72940409Y-20515000D01*
X73007448Y-20534685D01*
X73053203Y-20587489D01*
X73064402Y-20637747D01*
X73067304Y-20925000D01*
X73071898Y-21379748D01*
X73052891Y-21446982D01*
X73000552Y-21493268D01*
X72947904Y-21505000D01*
X71873163Y-21505000D01*
X318479Y-21624790D01*
X251406Y-21605218D01*
X205563Y-21552490D01*
X194276Y-21499691D01*
X202071Y-20622898D01*
X222351Y-20556036D01*
X275559Y-20510752D01*
X326066Y-20500000D01*
X1379925Y-20500000D01*
X1446964Y-20519685D01*
G37*
G04 #@! TD.AperFunction*
G04 #@! TD*
G04 #@! TA.AperFunction,Conductor*
G04 #@! TO.N,Board_2-GND*
G36*
X110795712Y-23169949D02*
G01*
X110862743Y-23189661D01*
X110908476Y-23242483D01*
X110919661Y-23294287D01*
X110916986Y-24275838D01*
X110897118Y-24342823D01*
X110844190Y-24388434D01*
X110792986Y-24399500D01*
X109630100Y-24399500D01*
X109600787Y-24405330D01*
X109567542Y-24427543D01*
X109545330Y-24460787D01*
X109539500Y-24490098D01*
X109539500Y-25509899D01*
X109547909Y-25552177D01*
X109563421Y-25601720D01*
X109544935Y-25669100D01*
X109492956Y-25715789D01*
X109438888Y-25727930D01*
X108677577Y-25724532D01*
X108677576Y-25724532D01*
X108677573Y-25724532D01*
X108675818Y-25724563D01*
X108671522Y-25724679D01*
X108669739Y-25724761D01*
X108657351Y-25725430D01*
X108655572Y-25725563D01*
X108651325Y-25725923D01*
X108649555Y-25726106D01*
X107270947Y-25878750D01*
X107257339Y-25879503D01*
X73711012Y-25889481D01*
X73649402Y-25873113D01*
X73232904Y-25634841D01*
X73184490Y-25584466D01*
X73173200Y-25527111D01*
X73170500Y-25527112D01*
X73170499Y-25435970D01*
X73173081Y-25417356D01*
X73172244Y-25417245D01*
X73173417Y-25408452D01*
X73173419Y-25408448D01*
X73177393Y-25378682D01*
X73170499Y-24696290D01*
X73170499Y-24495102D01*
X73170498Y-24495098D01*
X73164669Y-24465787D01*
X73142456Y-24432542D01*
X73109212Y-24410330D01*
X73079901Y-24404500D01*
X71860100Y-24404500D01*
X71830787Y-24410330D01*
X71797542Y-24432543D01*
X71775330Y-24465787D01*
X71769500Y-24495098D01*
X71769500Y-24495627D01*
X71768244Y-24501410D01*
X71767117Y-24507079D01*
X71767018Y-24507059D01*
X71758339Y-24547041D01*
X71745811Y-24574536D01*
X71700128Y-24730619D01*
X71662405Y-24789429D01*
X71598874Y-24818510D01*
X71581329Y-24819787D01*
X1774381Y-24936847D01*
X1707309Y-24917275D01*
X1661465Y-24864548D01*
X1652226Y-24835318D01*
X1605623Y-24582406D01*
X1602491Y-24569811D01*
X1593340Y-24540776D01*
X1574507Y-24507079D01*
X1572450Y-24503399D01*
X1526697Y-24450597D01*
X1464786Y-24410810D01*
X1426361Y-24403167D01*
X1415620Y-24400527D01*
X1409655Y-24398775D01*
X1409649Y-24398774D01*
X1379925Y-24394500D01*
X326066Y-24394500D01*
X323530Y-24394766D01*
X255680Y-24378651D01*
X207222Y-24328316D01*
X193163Y-24270967D01*
X193163Y-23249050D01*
X212848Y-23182011D01*
X265652Y-23136256D01*
X317211Y-23125050D01*
X110795712Y-23169949D01*
G37*
G04 #@! TD.AperFunction*
G04 #@! TD*
G04 #@! TA.AperFunction,Conductor*
G04 #@! TO.N,Board_1-GND*
G36*
X110795712Y-19169949D02*
G01*
X110862743Y-19189661D01*
X110908476Y-19242483D01*
X110919661Y-19294287D01*
X110916986Y-20275838D01*
X110897118Y-20342823D01*
X110844190Y-20388434D01*
X110792986Y-20399500D01*
X109630100Y-20399500D01*
X109600787Y-20405330D01*
X109567542Y-20427543D01*
X109545330Y-20460787D01*
X109539500Y-20490098D01*
X109539500Y-21509899D01*
X109547909Y-21552177D01*
X109563421Y-21601720D01*
X109544935Y-21669100D01*
X109492956Y-21715789D01*
X109438888Y-21727930D01*
X108677577Y-21724532D01*
X108677576Y-21724532D01*
X108677573Y-21724532D01*
X108675818Y-21724563D01*
X108671522Y-21724679D01*
X108669739Y-21724761D01*
X108657351Y-21725430D01*
X108655572Y-21725563D01*
X108651325Y-21725923D01*
X108649555Y-21726106D01*
X107270947Y-21878750D01*
X107257339Y-21879503D01*
X73711012Y-21889481D01*
X73649402Y-21873113D01*
X73232904Y-21634841D01*
X73184490Y-21584466D01*
X73173200Y-21527111D01*
X73170500Y-21527112D01*
X73170499Y-21435970D01*
X73173081Y-21417356D01*
X73172244Y-21417245D01*
X73173417Y-21408452D01*
X73173419Y-21408448D01*
X73177393Y-21378682D01*
X73170499Y-20696290D01*
X73170499Y-20495102D01*
X73170498Y-20495098D01*
X73164669Y-20465787D01*
X73142456Y-20432542D01*
X73109212Y-20410330D01*
X73079901Y-20404500D01*
X71860100Y-20404500D01*
X71830787Y-20410330D01*
X71797542Y-20432543D01*
X71775330Y-20465787D01*
X71769500Y-20495098D01*
X71769500Y-20495627D01*
X71768244Y-20501410D01*
X71767117Y-20507079D01*
X71767018Y-20507059D01*
X71758339Y-20547041D01*
X71745811Y-20574536D01*
X71700128Y-20730619D01*
X71662405Y-20789429D01*
X71598874Y-20818510D01*
X71581329Y-20819787D01*
X1774381Y-20936847D01*
X1707309Y-20917275D01*
X1661465Y-20864548D01*
X1652226Y-20835318D01*
X1605623Y-20582406D01*
X1602491Y-20569811D01*
X1593340Y-20540776D01*
X1574507Y-20507079D01*
X1572450Y-20503399D01*
X1526697Y-20450597D01*
X1464786Y-20410810D01*
X1426361Y-20403167D01*
X1415620Y-20400527D01*
X1409655Y-20398775D01*
X1409649Y-20398774D01*
X1379925Y-20394500D01*
X326066Y-20394500D01*
X323530Y-20394766D01*
X255680Y-20378651D01*
X207222Y-20328316D01*
X193163Y-20270967D01*
X193163Y-19249050D01*
X212848Y-19182011D01*
X265652Y-19136256D01*
X317211Y-19125050D01*
X110795712Y-19169949D01*
G37*
G04 #@! TD.AperFunction*
G04 #@! TD*
G04 #@! TA.AperFunction,Conductor*
G04 #@! TO.N,Board_0-LED_DATA*
G36*
X1446964Y-16519685D02*
G01*
X1492719Y-16572489D01*
X1501870Y-16601524D01*
X1583159Y-17042669D01*
X71753163Y-16925000D01*
X71847064Y-16604169D01*
X71884788Y-16545358D01*
X71948318Y-16516278D01*
X71966072Y-16515000D01*
X72940409Y-16515000D01*
X73007448Y-16534685D01*
X73053203Y-16587489D01*
X73064402Y-16637747D01*
X73067304Y-16925000D01*
X73071898Y-17379748D01*
X73052891Y-17446982D01*
X73000552Y-17493268D01*
X72947904Y-17505000D01*
X71873163Y-17505000D01*
X318479Y-17624790D01*
X251406Y-17605218D01*
X205563Y-17552490D01*
X194276Y-17499691D01*
X202071Y-16622898D01*
X222351Y-16556036D01*
X275559Y-16510752D01*
X326066Y-16500000D01*
X1379925Y-16500000D01*
X1446964Y-16519685D01*
G37*
G04 #@! TD.AperFunction*
G04 #@! TD*
G04 #@! TA.AperFunction,Conductor*
G04 #@! TO.N,Board_6-+3V3*
G36*
X73040238Y-41664981D02*
G01*
X73101739Y-41681348D01*
X73650000Y-41995000D01*
X107270000Y-41985000D01*
X108662934Y-41830782D01*
X108677105Y-41830031D01*
X110786557Y-41839448D01*
X110853504Y-41859432D01*
X110899023Y-41912440D01*
X110910000Y-41963447D01*
X110910000Y-42716061D01*
X110890315Y-42783100D01*
X110837511Y-42828855D01*
X110786062Y-42840061D01*
X317224Y-42894938D01*
X250174Y-42875287D01*
X204393Y-42822505D01*
X193163Y-42770942D01*
X193163Y-41854288D01*
X212847Y-41787253D01*
X265651Y-41741498D01*
X316954Y-41730292D01*
X318650Y-41730289D01*
X318656Y-41730290D01*
X47652859Y-41651047D01*
X73040238Y-41664981D01*
G37*
G04 #@! TD.AperFunction*
G04 #@! TD*
G04 #@! TA.AperFunction,Conductor*
G04 #@! TO.N,Board_1-+3V3*
G36*
X73040238Y-21664981D02*
G01*
X73101739Y-21681348D01*
X73650000Y-21995000D01*
X107270000Y-21985000D01*
X108662934Y-21830782D01*
X108677105Y-21830031D01*
X110786557Y-21839448D01*
X110853504Y-21859432D01*
X110899023Y-21912440D01*
X110910000Y-21963447D01*
X110910000Y-22716061D01*
X110890315Y-22783100D01*
X110837511Y-22828855D01*
X110786062Y-22840061D01*
X317224Y-22894938D01*
X250174Y-22875287D01*
X204393Y-22822505D01*
X193163Y-22770942D01*
X193163Y-21854288D01*
X212847Y-21787253D01*
X265651Y-21741498D01*
X316954Y-21730292D01*
X318650Y-21730289D01*
X318656Y-21730290D01*
X47652859Y-21651047D01*
X73040238Y-21664981D01*
G37*
G04 #@! TD.AperFunction*
G04 #@! TD*
G04 #@! TA.AperFunction,Conductor*
G04 #@! TO.N,Board_3-+3V3*
G36*
X73040238Y-29664981D02*
G01*
X73101739Y-29681348D01*
X73650000Y-29995000D01*
X107270000Y-29985000D01*
X108662934Y-29830782D01*
X108677105Y-29830031D01*
X110786557Y-29839448D01*
X110853504Y-29859432D01*
X110899023Y-29912440D01*
X110910000Y-29963447D01*
X110910000Y-30716061D01*
X110890315Y-30783100D01*
X110837511Y-30828855D01*
X110786062Y-30840061D01*
X317224Y-30894938D01*
X250174Y-30875287D01*
X204393Y-30822505D01*
X193163Y-30770942D01*
X193163Y-29854288D01*
X212847Y-29787253D01*
X265651Y-29741498D01*
X316954Y-29730292D01*
X318650Y-29730289D01*
X318656Y-29730290D01*
X47652859Y-29651047D01*
X73040238Y-29664981D01*
G37*
G04 #@! TD.AperFunction*
G04 #@! TD*
G04 #@! TA.AperFunction,Conductor*
G04 #@! TO.N,Board_0-+3V3*
G36*
X73040238Y-17664981D02*
G01*
X73101739Y-17681348D01*
X73650000Y-17995000D01*
X107270000Y-17985000D01*
X108662934Y-17830782D01*
X108677105Y-17830031D01*
X110786557Y-17839448D01*
X110853504Y-17859432D01*
X110899023Y-17912440D01*
X110910000Y-17963447D01*
X110910000Y-18716061D01*
X110890315Y-18783100D01*
X110837511Y-18828855D01*
X110786062Y-18840061D01*
X317224Y-18894938D01*
X250174Y-18875287D01*
X204393Y-18822505D01*
X193163Y-18770942D01*
X193163Y-17854288D01*
X212847Y-17787253D01*
X265651Y-17741498D01*
X316954Y-17730292D01*
X318650Y-17730289D01*
X318656Y-17730290D01*
X47652859Y-17651047D01*
X73040238Y-17664981D01*
G37*
G04 #@! TD.AperFunction*
G04 #@! TD*
G04 #@! TA.AperFunction,Conductor*
G04 #@! TO.N,Board_8-LED_DATA*
G36*
X1446964Y-48519685D02*
G01*
X1492719Y-48572489D01*
X1501870Y-48601524D01*
X1583159Y-49042669D01*
X71753163Y-48925000D01*
X71847064Y-48604169D01*
X71884788Y-48545358D01*
X71948318Y-48516278D01*
X71966072Y-48515000D01*
X72940409Y-48515000D01*
X73007448Y-48534685D01*
X73053203Y-48587489D01*
X73064402Y-48637747D01*
X73067304Y-48925000D01*
X73071898Y-49379748D01*
X73052891Y-49446982D01*
X73000552Y-49493268D01*
X72947904Y-49505000D01*
X71873163Y-49505000D01*
X318479Y-49624790D01*
X251406Y-49605218D01*
X205563Y-49552490D01*
X194276Y-49499691D01*
X202071Y-48622898D01*
X222351Y-48556036D01*
X275559Y-48510752D01*
X326066Y-48500000D01*
X1379925Y-48500000D01*
X1446964Y-48519685D01*
G37*
G04 #@! TD.AperFunction*
G04 #@! TD*
G04 #@! TA.AperFunction,Conductor*
G04 #@! TO.N,Board_4-+3V3*
G36*
X73040238Y-33664981D02*
G01*
X73101739Y-33681348D01*
X73650000Y-33995000D01*
X107270000Y-33985000D01*
X108662934Y-33830782D01*
X108677105Y-33830031D01*
X110786557Y-33839448D01*
X110853504Y-33859432D01*
X110899023Y-33912440D01*
X110910000Y-33963447D01*
X110910000Y-34716061D01*
X110890315Y-34783100D01*
X110837511Y-34828855D01*
X110786062Y-34840061D01*
X317224Y-34894938D01*
X250174Y-34875287D01*
X204393Y-34822505D01*
X193163Y-34770942D01*
X193163Y-33854288D01*
X212847Y-33787253D01*
X265651Y-33741498D01*
X316954Y-33730292D01*
X318650Y-33730289D01*
X318656Y-33730290D01*
X47652859Y-33651047D01*
X73040238Y-33664981D01*
G37*
G04 #@! TD.AperFunction*
G04 #@! TD*
G04 #@! TA.AperFunction,Conductor*
G04 #@! TO.N,Board_3-LED_DATA*
G36*
X1446964Y-28519685D02*
G01*
X1492719Y-28572489D01*
X1501870Y-28601524D01*
X1583159Y-29042669D01*
X71753163Y-28925000D01*
X71847064Y-28604169D01*
X71884788Y-28545358D01*
X71948318Y-28516278D01*
X71966072Y-28515000D01*
X72940409Y-28515000D01*
X73007448Y-28534685D01*
X73053203Y-28587489D01*
X73064402Y-28637747D01*
X73067304Y-28925000D01*
X73071898Y-29379748D01*
X73052891Y-29446982D01*
X73000552Y-29493268D01*
X72947904Y-29505000D01*
X71873163Y-29505000D01*
X318479Y-29624790D01*
X251406Y-29605218D01*
X205563Y-29552490D01*
X194276Y-29499691D01*
X202071Y-28622898D01*
X222351Y-28556036D01*
X275559Y-28510752D01*
X326066Y-28500000D01*
X1379925Y-28500000D01*
X1446964Y-28519685D01*
G37*
G04 #@! TD.AperFunction*
G04 #@! TD*
G04 #@! TA.AperFunction,Conductor*
G04 #@! TO.N,Board_5-LED_DATA*
G36*
X1446964Y-36519685D02*
G01*
X1492719Y-36572489D01*
X1501870Y-36601524D01*
X1583159Y-37042669D01*
X71753163Y-36925000D01*
X71847064Y-36604169D01*
X71884788Y-36545358D01*
X71948318Y-36516278D01*
X71966072Y-36515000D01*
X72940409Y-36515000D01*
X73007448Y-36534685D01*
X73053203Y-36587489D01*
X73064402Y-36637747D01*
X73067304Y-36925000D01*
X73071898Y-37379748D01*
X73052891Y-37446982D01*
X73000552Y-37493268D01*
X72947904Y-37505000D01*
X71873163Y-37505000D01*
X318479Y-37624790D01*
X251406Y-37605218D01*
X205563Y-37552490D01*
X194276Y-37499691D01*
X202071Y-36622898D01*
X222351Y-36556036D01*
X275559Y-36510752D01*
X326066Y-36500000D01*
X1379925Y-36500000D01*
X1446964Y-36519685D01*
G37*
G04 #@! TD.AperFunction*
G04 #@! TD*
G04 #@! TA.AperFunction,Conductor*
G04 #@! TO.N,Board_2-+3V3*
G36*
X73040238Y-25664981D02*
G01*
X73101739Y-25681348D01*
X73650000Y-25995000D01*
X107270000Y-25985000D01*
X108662934Y-25830782D01*
X108677105Y-25830031D01*
X110786557Y-25839448D01*
X110853504Y-25859432D01*
X110899023Y-25912440D01*
X110910000Y-25963447D01*
X110910000Y-26716061D01*
X110890315Y-26783100D01*
X110837511Y-26828855D01*
X110786062Y-26840061D01*
X317224Y-26894938D01*
X250174Y-26875287D01*
X204393Y-26822505D01*
X193163Y-26770942D01*
X193163Y-25854288D01*
X212847Y-25787253D01*
X265651Y-25741498D01*
X316954Y-25730292D01*
X318650Y-25730289D01*
X318656Y-25730290D01*
X47652859Y-25651047D01*
X73040238Y-25664981D01*
G37*
G04 #@! TD.AperFunction*
G04 #@! TD*
G04 #@! TA.AperFunction,Conductor*
G04 #@! TO.N,Board_6-LED_DATA*
G36*
X1446964Y-40519685D02*
G01*
X1492719Y-40572489D01*
X1501870Y-40601524D01*
X1583159Y-41042669D01*
X71753163Y-40925000D01*
X71847064Y-40604169D01*
X71884788Y-40545358D01*
X71948318Y-40516278D01*
X71966072Y-40515000D01*
X72940409Y-40515000D01*
X73007448Y-40534685D01*
X73053203Y-40587489D01*
X73064402Y-40637747D01*
X73067304Y-40925000D01*
X73071898Y-41379748D01*
X73052891Y-41446982D01*
X73000552Y-41493268D01*
X72947904Y-41505000D01*
X71873163Y-41505000D01*
X318479Y-41624790D01*
X251406Y-41605218D01*
X205563Y-41552490D01*
X194276Y-41499691D01*
X202071Y-40622898D01*
X222351Y-40556036D01*
X275559Y-40510752D01*
X326066Y-40500000D01*
X1379925Y-40500000D01*
X1446964Y-40519685D01*
G37*
G04 #@! TD.AperFunction*
G04 #@! TD*
G04 #@! TA.AperFunction,Conductor*
G04 #@! TO.N,Board_5-GND*
G36*
X110795712Y-35169949D02*
G01*
X110862743Y-35189661D01*
X110908476Y-35242483D01*
X110919661Y-35294287D01*
X110916986Y-36275838D01*
X110897118Y-36342823D01*
X110844190Y-36388434D01*
X110792986Y-36399500D01*
X109630100Y-36399500D01*
X109600787Y-36405330D01*
X109567542Y-36427543D01*
X109545330Y-36460787D01*
X109539500Y-36490098D01*
X109539500Y-37509899D01*
X109547909Y-37552177D01*
X109563421Y-37601720D01*
X109544935Y-37669100D01*
X109492956Y-37715789D01*
X109438888Y-37727930D01*
X108677577Y-37724532D01*
X108677576Y-37724532D01*
X108677573Y-37724532D01*
X108675818Y-37724563D01*
X108671522Y-37724679D01*
X108669739Y-37724761D01*
X108657351Y-37725430D01*
X108655572Y-37725563D01*
X108651325Y-37725923D01*
X108649555Y-37726106D01*
X107270947Y-37878750D01*
X107257339Y-37879503D01*
X73711012Y-37889481D01*
X73649402Y-37873113D01*
X73232904Y-37634841D01*
X73184490Y-37584466D01*
X73173200Y-37527111D01*
X73170500Y-37527112D01*
X73170499Y-37435970D01*
X73173081Y-37417356D01*
X73172244Y-37417245D01*
X73173417Y-37408452D01*
X73173419Y-37408448D01*
X73177393Y-37378682D01*
X73170499Y-36696290D01*
X73170499Y-36495102D01*
X73170498Y-36495098D01*
X73164669Y-36465787D01*
X73142456Y-36432542D01*
X73109212Y-36410330D01*
X73079901Y-36404500D01*
X71860100Y-36404500D01*
X71830787Y-36410330D01*
X71797542Y-36432543D01*
X71775330Y-36465787D01*
X71769500Y-36495098D01*
X71769500Y-36495627D01*
X71768244Y-36501410D01*
X71767117Y-36507079D01*
X71767018Y-36507059D01*
X71758339Y-36547041D01*
X71745811Y-36574536D01*
X71700128Y-36730619D01*
X71662405Y-36789429D01*
X71598874Y-36818510D01*
X71581329Y-36819787D01*
X1774381Y-36936847D01*
X1707309Y-36917275D01*
X1661465Y-36864548D01*
X1652226Y-36835318D01*
X1605623Y-36582406D01*
X1602491Y-36569811D01*
X1593340Y-36540776D01*
X1574507Y-36507079D01*
X1572450Y-36503399D01*
X1526697Y-36450597D01*
X1464786Y-36410810D01*
X1426361Y-36403167D01*
X1415620Y-36400527D01*
X1409655Y-36398775D01*
X1409649Y-36398774D01*
X1379925Y-36394500D01*
X326066Y-36394500D01*
X323530Y-36394766D01*
X255680Y-36378651D01*
X207222Y-36328316D01*
X193163Y-36270967D01*
X193163Y-35249050D01*
X212848Y-35182011D01*
X265652Y-35136256D01*
X317211Y-35125050D01*
X110795712Y-35169949D01*
G37*
G04 #@! TD.AperFunction*
G04 #@! TD*
G04 #@! TA.AperFunction,Conductor*
G04 #@! TO.N,Board_5-+3V3*
G36*
X73040238Y-37664981D02*
G01*
X73101739Y-37681348D01*
X73650000Y-37995000D01*
X107270000Y-37985000D01*
X108662934Y-37830782D01*
X108677105Y-37830031D01*
X110786557Y-37839448D01*
X110853504Y-37859432D01*
X110899023Y-37912440D01*
X110910000Y-37963447D01*
X110910000Y-38716061D01*
X110890315Y-38783100D01*
X110837511Y-38828855D01*
X110786062Y-38840061D01*
X317224Y-38894938D01*
X250174Y-38875287D01*
X204393Y-38822505D01*
X193163Y-38770942D01*
X193163Y-37854288D01*
X212847Y-37787253D01*
X265651Y-37741498D01*
X316954Y-37730292D01*
X318650Y-37730289D01*
X318656Y-37730290D01*
X47652859Y-37651047D01*
X73040238Y-37664981D01*
G37*
G04 #@! TD.AperFunction*
G04 #@! TD*
G04 #@! TA.AperFunction,Conductor*
G04 #@! TO.N,Board_2-LED_DATA*
G36*
X1446964Y-24519685D02*
G01*
X1492719Y-24572489D01*
X1501870Y-24601524D01*
X1583159Y-25042669D01*
X71753163Y-24925000D01*
X71847064Y-24604169D01*
X71884788Y-24545358D01*
X71948318Y-24516278D01*
X71966072Y-24515000D01*
X72940409Y-24515000D01*
X73007448Y-24534685D01*
X73053203Y-24587489D01*
X73064402Y-24637747D01*
X73067304Y-24925000D01*
X73071898Y-25379748D01*
X73052891Y-25446982D01*
X73000552Y-25493268D01*
X72947904Y-25505000D01*
X71873163Y-25505000D01*
X318479Y-25624790D01*
X251406Y-25605218D01*
X205563Y-25552490D01*
X194276Y-25499691D01*
X202071Y-24622898D01*
X222351Y-24556036D01*
X275559Y-24510752D01*
X326066Y-24500000D01*
X1379925Y-24500000D01*
X1446964Y-24519685D01*
G37*
G04 #@! TD.AperFunction*
G04 #@! TD*
M02*
