%TF.GenerationSoftware,KiCad,Pcbnew,7.0.2-6a45011f42~172~ubuntu22.04.1*%
%TF.CreationDate,2023-07-04T12:36:34+08:00*%
%TF.ProjectId,fly2040_leds,666c7932-3034-4305-9f6c-6564732e6b69,rev?*%
%TF.SameCoordinates,PX3a4ec20PY2569a30*%
%TF.FileFunction,Legend,Top*%
%TF.FilePolarity,Positive*%
%FSLAX46Y46*%
G04 Gerber Fmt 4.6, Leading zero omitted, Abs format (unit mm)*
G04 Created by KiCad (PCBNEW 7.0.2-6a45011f42~172~ubuntu22.04.1) date 2023-07-04 12:36:34*
%MOMM*%
%LPD*%
G01*
G04 APERTURE LIST*
%ADD10C,0.250000*%
%ADD11C,0.120000*%
%ADD12C,0.100000*%
%ADD13R,1.200000X1.000000*%
%ADD14R,0.450000X0.450000*%
G04 APERTURE END LIST*
D10*
X74124761Y-14350476D02*
X74172380Y-14226666D01*
X74172380Y-14226666D02*
X74172380Y-14040952D01*
X74172380Y-14040952D02*
X74124761Y-13855238D01*
X74124761Y-13855238D02*
X74029523Y-13731428D01*
X74029523Y-13731428D02*
X73934285Y-13669523D01*
X73934285Y-13669523D02*
X73743809Y-13607619D01*
X73743809Y-13607619D02*
X73600952Y-13607619D01*
X73600952Y-13607619D02*
X73410476Y-13669523D01*
X73410476Y-13669523D02*
X73315238Y-13731428D01*
X73315238Y-13731428D02*
X73220000Y-13855238D01*
X73220000Y-13855238D02*
X73172380Y-14040952D01*
X73172380Y-14040952D02*
X73172380Y-14164761D01*
X73172380Y-14164761D02*
X73220000Y-14350476D01*
X73220000Y-14350476D02*
X73267619Y-14412380D01*
X73267619Y-14412380D02*
X73600952Y-14412380D01*
X73600952Y-14412380D02*
X73600952Y-14164761D01*
X73172380Y-14969523D02*
X74172380Y-14969523D01*
X74172380Y-14969523D02*
X74172380Y-15279047D01*
X74172380Y-15279047D02*
X74124761Y-15464761D01*
X74124761Y-15464761D02*
X74029523Y-15588571D01*
X74029523Y-15588571D02*
X73934285Y-15650476D01*
X73934285Y-15650476D02*
X73743809Y-15712380D01*
X73743809Y-15712380D02*
X73600952Y-15712380D01*
X73600952Y-15712380D02*
X73410476Y-15650476D01*
X73410476Y-15650476D02*
X73315238Y-15588571D01*
X73315238Y-15588571D02*
X73220000Y-15464761D01*
X73220000Y-15464761D02*
X73172380Y-15279047D01*
X73172380Y-15279047D02*
X73172380Y-14969523D01*
X74172380Y-16083809D02*
X73172380Y-16517142D01*
X73172380Y-16517142D02*
X74172380Y-16950476D01*
D11*
X141801837Y-13375000D02*
X182481837Y-13375000D01*
X182481837Y-17200000D01*
X141801837Y-17200000D01*
X141801837Y-13375000D01*
D10*
X142971598Y-14375476D02*
X143019217Y-14251666D01*
X143019217Y-14251666D02*
X143019217Y-14065952D01*
X143019217Y-14065952D02*
X142971598Y-13880238D01*
X142971598Y-13880238D02*
X142876360Y-13756428D01*
X142876360Y-13756428D02*
X142781122Y-13694523D01*
X142781122Y-13694523D02*
X142590646Y-13632619D01*
X142590646Y-13632619D02*
X142447789Y-13632619D01*
X142447789Y-13632619D02*
X142257313Y-13694523D01*
X142257313Y-13694523D02*
X142162075Y-13756428D01*
X142162075Y-13756428D02*
X142066837Y-13880238D01*
X142066837Y-13880238D02*
X142019217Y-14065952D01*
X142019217Y-14065952D02*
X142019217Y-14189761D01*
X142019217Y-14189761D02*
X142066837Y-14375476D01*
X142066837Y-14375476D02*
X142114456Y-14437380D01*
X142114456Y-14437380D02*
X142447789Y-14437380D01*
X142447789Y-14437380D02*
X142447789Y-14189761D01*
X142019217Y-14994523D02*
X143019217Y-14994523D01*
X143019217Y-14994523D02*
X143019217Y-15304047D01*
X143019217Y-15304047D02*
X142971598Y-15489761D01*
X142971598Y-15489761D02*
X142876360Y-15613571D01*
X142876360Y-15613571D02*
X142781122Y-15675476D01*
X142781122Y-15675476D02*
X142590646Y-15737380D01*
X142590646Y-15737380D02*
X142447789Y-15737380D01*
X142447789Y-15737380D02*
X142257313Y-15675476D01*
X142257313Y-15675476D02*
X142162075Y-15613571D01*
X142162075Y-15613571D02*
X142066837Y-15489761D01*
X142066837Y-15489761D02*
X142019217Y-15304047D01*
X142019217Y-15304047D02*
X142019217Y-14994523D01*
X143019217Y-16108809D02*
X142019217Y-16542142D01*
X142019217Y-16542142D02*
X143019217Y-16975476D01*
X180821598Y-14315476D02*
X180869217Y-14191666D01*
X180869217Y-14191666D02*
X180869217Y-14005952D01*
X180869217Y-14005952D02*
X180821598Y-13820238D01*
X180821598Y-13820238D02*
X180726360Y-13696428D01*
X180726360Y-13696428D02*
X180631122Y-13634523D01*
X180631122Y-13634523D02*
X180440646Y-13572619D01*
X180440646Y-13572619D02*
X180297789Y-13572619D01*
X180297789Y-13572619D02*
X180107313Y-13634523D01*
X180107313Y-13634523D02*
X180012075Y-13696428D01*
X180012075Y-13696428D02*
X179916837Y-13820238D01*
X179916837Y-13820238D02*
X179869217Y-14005952D01*
X179869217Y-14005952D02*
X179869217Y-14129761D01*
X179869217Y-14129761D02*
X179916837Y-14315476D01*
X179916837Y-14315476D02*
X179964456Y-14377380D01*
X179964456Y-14377380D02*
X180297789Y-14377380D01*
X180297789Y-14377380D02*
X180297789Y-14129761D01*
X180869217Y-15182142D02*
X180869217Y-15429761D01*
X180869217Y-15429761D02*
X180821598Y-15553571D01*
X180821598Y-15553571D02*
X180726360Y-15677380D01*
X180726360Y-15677380D02*
X180535884Y-15739285D01*
X180535884Y-15739285D02*
X180202551Y-15739285D01*
X180202551Y-15739285D02*
X180012075Y-15677380D01*
X180012075Y-15677380D02*
X179916837Y-15553571D01*
X179916837Y-15553571D02*
X179869217Y-15429761D01*
X179869217Y-15429761D02*
X179869217Y-15182142D01*
X179869217Y-15182142D02*
X179916837Y-15058333D01*
X179916837Y-15058333D02*
X180012075Y-14934523D01*
X180012075Y-14934523D02*
X180202551Y-14872619D01*
X180202551Y-14872619D02*
X180535884Y-14872619D01*
X180535884Y-14872619D02*
X180726360Y-14934523D01*
X180726360Y-14934523D02*
X180821598Y-15058333D01*
X180821598Y-15058333D02*
X180869217Y-15182142D01*
X180869217Y-16110714D02*
X179869217Y-16544047D01*
X179869217Y-16544047D02*
X180869217Y-16977381D01*
D12*
%TO.C,U4*%
X159040000Y-17040000D02*
X159040000Y-15340000D01*
X159040000Y-15340000D02*
X157340000Y-15340000D01*
X157340000Y-17040000D02*
X159040000Y-17040000D01*
X157340000Y-15340000D02*
X157340000Y-17040000D01*
X159240000Y-16890000D02*
G75*
G03*
X159240000Y-16890000I-50000J0D01*
G01*
D11*
X158290000Y-15790000D02*
X158140000Y-15890000D01*
X158140000Y-15690000D01*
X158290000Y-15790000D01*
G36*
X158290000Y-15790000D02*
G01*
X158140000Y-15890000D01*
X158140000Y-15690000D01*
X158290000Y-15790000D01*
G37*
X157365000Y-16715000D02*
X156915000Y-16715000D01*
X156915000Y-16615000D01*
X157365000Y-16615000D01*
X157365000Y-16715000D01*
G36*
X157365000Y-16715000D02*
G01*
X156915000Y-16715000D01*
X156915000Y-16615000D01*
X157365000Y-16615000D01*
X157365000Y-16715000D01*
G37*
X157190000Y-16890000D02*
X157090000Y-16890000D01*
X157090000Y-16440000D01*
X157190000Y-16440000D01*
X157190000Y-16890000D01*
G36*
X157190000Y-16890000D02*
G01*
X157090000Y-16890000D01*
X157090000Y-16440000D01*
X157190000Y-16440000D01*
X157190000Y-16890000D01*
G37*
X158690000Y-16190000D02*
X158520000Y-16190000D01*
X158520000Y-16060000D01*
X158530000Y-16060000D01*
X158690000Y-16060000D01*
X158690000Y-16190000D01*
G36*
X158690000Y-16190000D02*
G01*
X158520000Y-16190000D01*
X158520000Y-16060000D01*
X158530000Y-16060000D01*
X158690000Y-16060000D01*
X158690000Y-16190000D01*
G37*
D12*
%TO.C,U2*%
X150812658Y-17040000D02*
X150812658Y-15340000D01*
X150812658Y-15340000D02*
X149112658Y-15340000D01*
X149112658Y-17040000D02*
X150812658Y-17040000D01*
X149112658Y-15340000D02*
X149112658Y-17040000D01*
X151012658Y-16890000D02*
G75*
G03*
X151012658Y-16890000I-50000J0D01*
G01*
D11*
X150062658Y-15790000D02*
X149912658Y-15890000D01*
X149912658Y-15690000D01*
X150062658Y-15790000D01*
G36*
X150062658Y-15790000D02*
G01*
X149912658Y-15890000D01*
X149912658Y-15690000D01*
X150062658Y-15790000D01*
G37*
X149137658Y-16715000D02*
X148687658Y-16715000D01*
X148687658Y-16615000D01*
X149137658Y-16615000D01*
X149137658Y-16715000D01*
G36*
X149137658Y-16715000D02*
G01*
X148687658Y-16715000D01*
X148687658Y-16615000D01*
X149137658Y-16615000D01*
X149137658Y-16715000D01*
G37*
X148962658Y-16890000D02*
X148862658Y-16890000D01*
X148862658Y-16440000D01*
X148962658Y-16440000D01*
X148962658Y-16890000D01*
G36*
X148962658Y-16890000D02*
G01*
X148862658Y-16890000D01*
X148862658Y-16440000D01*
X148962658Y-16440000D01*
X148962658Y-16890000D01*
G37*
X150462658Y-16190000D02*
X150292658Y-16190000D01*
X150292658Y-16060000D01*
X150302658Y-16060000D01*
X150462658Y-16060000D01*
X150462658Y-16190000D01*
G36*
X150462658Y-16190000D02*
G01*
X150292658Y-16190000D01*
X150292658Y-16060000D01*
X150302658Y-16060000D01*
X150462658Y-16060000D01*
X150462658Y-16190000D01*
G37*
D12*
%TO.C,U8*%
X175494684Y-17040000D02*
X175494684Y-15340000D01*
X175494684Y-15340000D02*
X173794684Y-15340000D01*
X173794684Y-17040000D02*
X175494684Y-17040000D01*
X173794684Y-15340000D02*
X173794684Y-17040000D01*
X175694684Y-16890000D02*
G75*
G03*
X175694684Y-16890000I-50000J0D01*
G01*
D11*
X174744684Y-15790000D02*
X174594684Y-15890000D01*
X174594684Y-15690000D01*
X174744684Y-15790000D01*
G36*
X174744684Y-15790000D02*
G01*
X174594684Y-15890000D01*
X174594684Y-15690000D01*
X174744684Y-15790000D01*
G37*
X173819684Y-16715000D02*
X173369684Y-16715000D01*
X173369684Y-16615000D01*
X173819684Y-16615000D01*
X173819684Y-16715000D01*
G36*
X173819684Y-16715000D02*
G01*
X173369684Y-16715000D01*
X173369684Y-16615000D01*
X173819684Y-16615000D01*
X173819684Y-16715000D01*
G37*
X173644684Y-16890000D02*
X173544684Y-16890000D01*
X173544684Y-16440000D01*
X173644684Y-16440000D01*
X173644684Y-16890000D01*
G36*
X173644684Y-16890000D02*
G01*
X173544684Y-16890000D01*
X173544684Y-16440000D01*
X173644684Y-16440000D01*
X173644684Y-16890000D01*
G37*
X175144684Y-16190000D02*
X174974684Y-16190000D01*
X174974684Y-16060000D01*
X174984684Y-16060000D01*
X175144684Y-16060000D01*
X175144684Y-16190000D01*
G36*
X175144684Y-16190000D02*
G01*
X174974684Y-16190000D01*
X174974684Y-16060000D01*
X174984684Y-16060000D01*
X175144684Y-16060000D01*
X175144684Y-16190000D01*
G37*
D12*
%TO.C,U6*%
X167267342Y-17040000D02*
X167267342Y-15340000D01*
X167267342Y-15340000D02*
X165567342Y-15340000D01*
X165567342Y-17040000D02*
X167267342Y-17040000D01*
X165567342Y-15340000D02*
X165567342Y-17040000D01*
X167467342Y-16890000D02*
G75*
G03*
X167467342Y-16890000I-50000J0D01*
G01*
D11*
X166517342Y-15790000D02*
X166367342Y-15890000D01*
X166367342Y-15690000D01*
X166517342Y-15790000D01*
G36*
X166517342Y-15790000D02*
G01*
X166367342Y-15890000D01*
X166367342Y-15690000D01*
X166517342Y-15790000D01*
G37*
X165592342Y-16715000D02*
X165142342Y-16715000D01*
X165142342Y-16615000D01*
X165592342Y-16615000D01*
X165592342Y-16715000D01*
G36*
X165592342Y-16715000D02*
G01*
X165142342Y-16715000D01*
X165142342Y-16615000D01*
X165592342Y-16615000D01*
X165592342Y-16715000D01*
G37*
X165417342Y-16890000D02*
X165317342Y-16890000D01*
X165317342Y-16440000D01*
X165417342Y-16440000D01*
X165417342Y-16890000D01*
G36*
X165417342Y-16890000D02*
G01*
X165317342Y-16890000D01*
X165317342Y-16440000D01*
X165417342Y-16440000D01*
X165417342Y-16890000D01*
G37*
X166917342Y-16190000D02*
X166747342Y-16190000D01*
X166747342Y-16060000D01*
X166757342Y-16060000D01*
X166917342Y-16060000D01*
X166917342Y-16190000D01*
G36*
X166917342Y-16190000D02*
G01*
X166747342Y-16190000D01*
X166747342Y-16060000D01*
X166757342Y-16060000D01*
X166917342Y-16060000D01*
X166917342Y-16190000D01*
G37*
D12*
%TO.C,U5*%
X163153671Y-17040000D02*
X163153671Y-15340000D01*
X163153671Y-15340000D02*
X161453671Y-15340000D01*
X161453671Y-17040000D02*
X163153671Y-17040000D01*
X161453671Y-15340000D02*
X161453671Y-17040000D01*
X163353671Y-16890000D02*
G75*
G03*
X163353671Y-16890000I-50000J0D01*
G01*
D11*
X162403671Y-15790000D02*
X162253671Y-15890000D01*
X162253671Y-15690000D01*
X162403671Y-15790000D01*
G36*
X162403671Y-15790000D02*
G01*
X162253671Y-15890000D01*
X162253671Y-15690000D01*
X162403671Y-15790000D01*
G37*
X161478671Y-16715000D02*
X161028671Y-16715000D01*
X161028671Y-16615000D01*
X161478671Y-16615000D01*
X161478671Y-16715000D01*
G36*
X161478671Y-16715000D02*
G01*
X161028671Y-16715000D01*
X161028671Y-16615000D01*
X161478671Y-16615000D01*
X161478671Y-16715000D01*
G37*
X161303671Y-16890000D02*
X161203671Y-16890000D01*
X161203671Y-16440000D01*
X161303671Y-16440000D01*
X161303671Y-16890000D01*
G36*
X161303671Y-16890000D02*
G01*
X161203671Y-16890000D01*
X161203671Y-16440000D01*
X161303671Y-16440000D01*
X161303671Y-16890000D01*
G37*
X162803671Y-16190000D02*
X162633671Y-16190000D01*
X162633671Y-16060000D01*
X162643671Y-16060000D01*
X162803671Y-16060000D01*
X162803671Y-16190000D01*
G36*
X162803671Y-16190000D02*
G01*
X162633671Y-16190000D01*
X162633671Y-16060000D01*
X162643671Y-16060000D01*
X162803671Y-16060000D01*
X162803671Y-16190000D01*
G37*
D12*
%TO.C,U1*%
X146698987Y-17040000D02*
X146698987Y-15340000D01*
X146698987Y-15340000D02*
X144998987Y-15340000D01*
X144998987Y-17040000D02*
X146698987Y-17040000D01*
X144998987Y-15340000D02*
X144998987Y-17040000D01*
X146898987Y-16890000D02*
G75*
G03*
X146898987Y-16890000I-50000J0D01*
G01*
D11*
X145948987Y-15790000D02*
X145798987Y-15890000D01*
X145798987Y-15690000D01*
X145948987Y-15790000D01*
G36*
X145948987Y-15790000D02*
G01*
X145798987Y-15890000D01*
X145798987Y-15690000D01*
X145948987Y-15790000D01*
G37*
X145023987Y-16715000D02*
X144573987Y-16715000D01*
X144573987Y-16615000D01*
X145023987Y-16615000D01*
X145023987Y-16715000D01*
G36*
X145023987Y-16715000D02*
G01*
X144573987Y-16715000D01*
X144573987Y-16615000D01*
X145023987Y-16615000D01*
X145023987Y-16715000D01*
G37*
X144848987Y-16890000D02*
X144748987Y-16890000D01*
X144748987Y-16440000D01*
X144848987Y-16440000D01*
X144848987Y-16890000D01*
G36*
X144848987Y-16890000D02*
G01*
X144748987Y-16890000D01*
X144748987Y-16440000D01*
X144848987Y-16440000D01*
X144848987Y-16890000D01*
G37*
X146348987Y-16190000D02*
X146178987Y-16190000D01*
X146178987Y-16060000D01*
X146188987Y-16060000D01*
X146348987Y-16060000D01*
X146348987Y-16190000D01*
G36*
X146348987Y-16190000D02*
G01*
X146178987Y-16190000D01*
X146178987Y-16060000D01*
X146188987Y-16060000D01*
X146348987Y-16060000D01*
X146348987Y-16190000D01*
G37*
D12*
%TO.C,U3*%
X154926329Y-17040000D02*
X154926329Y-15340000D01*
X154926329Y-15340000D02*
X153226329Y-15340000D01*
X153226329Y-17040000D02*
X154926329Y-17040000D01*
X153226329Y-15340000D02*
X153226329Y-17040000D01*
X155126329Y-16890000D02*
G75*
G03*
X155126329Y-16890000I-50000J0D01*
G01*
D11*
X154176329Y-15790000D02*
X154026329Y-15890000D01*
X154026329Y-15690000D01*
X154176329Y-15790000D01*
G36*
X154176329Y-15790000D02*
G01*
X154026329Y-15890000D01*
X154026329Y-15690000D01*
X154176329Y-15790000D01*
G37*
X153251329Y-16715000D02*
X152801329Y-16715000D01*
X152801329Y-16615000D01*
X153251329Y-16615000D01*
X153251329Y-16715000D01*
G36*
X153251329Y-16715000D02*
G01*
X152801329Y-16715000D01*
X152801329Y-16615000D01*
X153251329Y-16615000D01*
X153251329Y-16715000D01*
G37*
X153076329Y-16890000D02*
X152976329Y-16890000D01*
X152976329Y-16440000D01*
X153076329Y-16440000D01*
X153076329Y-16890000D01*
G36*
X153076329Y-16890000D02*
G01*
X152976329Y-16890000D01*
X152976329Y-16440000D01*
X153076329Y-16440000D01*
X153076329Y-16890000D01*
G37*
X154576329Y-16190000D02*
X154406329Y-16190000D01*
X154406329Y-16060000D01*
X154416329Y-16060000D01*
X154576329Y-16060000D01*
X154576329Y-16190000D01*
G36*
X154576329Y-16190000D02*
G01*
X154406329Y-16190000D01*
X154406329Y-16060000D01*
X154416329Y-16060000D01*
X154576329Y-16060000D01*
X154576329Y-16190000D01*
G37*
D12*
%TO.C,U7*%
X171381013Y-17040000D02*
X171381013Y-15340000D01*
X171381013Y-15340000D02*
X169681013Y-15340000D01*
X169681013Y-17040000D02*
X171381013Y-17040000D01*
X169681013Y-15340000D02*
X169681013Y-17040000D01*
X171581013Y-16890000D02*
G75*
G03*
X171581013Y-16890000I-50000J0D01*
G01*
D11*
X170631013Y-15790000D02*
X170481013Y-15890000D01*
X170481013Y-15690000D01*
X170631013Y-15790000D01*
G36*
X170631013Y-15790000D02*
G01*
X170481013Y-15890000D01*
X170481013Y-15690000D01*
X170631013Y-15790000D01*
G37*
X169706013Y-16715000D02*
X169256013Y-16715000D01*
X169256013Y-16615000D01*
X169706013Y-16615000D01*
X169706013Y-16715000D01*
G36*
X169706013Y-16715000D02*
G01*
X169256013Y-16715000D01*
X169256013Y-16615000D01*
X169706013Y-16615000D01*
X169706013Y-16715000D01*
G37*
X169531013Y-16890000D02*
X169431013Y-16890000D01*
X169431013Y-16440000D01*
X169531013Y-16440000D01*
X169531013Y-16890000D01*
G36*
X169531013Y-16890000D02*
G01*
X169431013Y-16890000D01*
X169431013Y-16440000D01*
X169531013Y-16440000D01*
X169531013Y-16890000D01*
G37*
X171031013Y-16190000D02*
X170861013Y-16190000D01*
X170861013Y-16060000D01*
X170871013Y-16060000D01*
X171031013Y-16060000D01*
X171031013Y-16190000D01*
G36*
X171031013Y-16190000D02*
G01*
X170861013Y-16190000D01*
X170861013Y-16060000D01*
X170871013Y-16060000D01*
X171031013Y-16060000D01*
X171031013Y-16190000D01*
G37*
D12*
%TO.C,U9*%
X179608359Y-17040000D02*
X179608359Y-15340000D01*
X179608359Y-15340000D02*
X177908359Y-15340000D01*
X177908359Y-17040000D02*
X179608359Y-17040000D01*
X177908359Y-15340000D02*
X177908359Y-17040000D01*
X179808359Y-16890000D02*
G75*
G03*
X179808359Y-16890000I-50000J0D01*
G01*
D11*
X178858359Y-15790000D02*
X178708359Y-15890000D01*
X178708359Y-15690000D01*
X178858359Y-15790000D01*
G36*
X178858359Y-15790000D02*
G01*
X178708359Y-15890000D01*
X178708359Y-15690000D01*
X178858359Y-15790000D01*
G37*
X177933359Y-16715000D02*
X177483359Y-16715000D01*
X177483359Y-16615000D01*
X177933359Y-16615000D01*
X177933359Y-16715000D01*
G36*
X177933359Y-16715000D02*
G01*
X177483359Y-16715000D01*
X177483359Y-16615000D01*
X177933359Y-16615000D01*
X177933359Y-16715000D01*
G37*
X177758359Y-16890000D02*
X177658359Y-16890000D01*
X177658359Y-16440000D01*
X177758359Y-16440000D01*
X177758359Y-16890000D01*
G36*
X177758359Y-16890000D02*
G01*
X177658359Y-16890000D01*
X177658359Y-16440000D01*
X177758359Y-16440000D01*
X177758359Y-16890000D01*
G37*
X179258359Y-16190000D02*
X179088359Y-16190000D01*
X179088359Y-16060000D01*
X179098359Y-16060000D01*
X179258359Y-16060000D01*
X179258359Y-16190000D01*
G36*
X179258359Y-16190000D02*
G01*
X179088359Y-16190000D01*
X179088359Y-16060000D01*
X179098359Y-16060000D01*
X179258359Y-16060000D01*
X179258359Y-16190000D01*
G37*
%TD*%
%LPC*%
D13*
%TO.C,J9*%
X72230000Y-15290000D03*
%TD*%
%TO.C,J8*%
X72230000Y-13965000D03*
%TD*%
%TO.C,J7*%
X72230000Y-16615000D03*
%TD*%
%TO.C,J5*%
X181646837Y-16610000D03*
%TD*%
%TO.C,J3*%
X143876837Y-15290000D03*
%TD*%
D14*
%TO.C,U4*%
X158615000Y-16615000D03*
X157765000Y-16615000D03*
X158615000Y-15765000D03*
X157765000Y-15765000D03*
%TD*%
%TO.C,U2*%
X150387658Y-16615000D03*
X149537658Y-16615000D03*
X150387658Y-15765000D03*
X149537658Y-15765000D03*
%TD*%
%TO.C,U8*%
X175069684Y-16615000D03*
X174219684Y-16615000D03*
X175069684Y-15765000D03*
X174219684Y-15765000D03*
%TD*%
%TO.C,U6*%
X166842342Y-16615000D03*
X165992342Y-16615000D03*
X166842342Y-15765000D03*
X165992342Y-15765000D03*
%TD*%
D13*
%TO.C,J1*%
X143876837Y-16615000D03*
%TD*%
D14*
%TO.C,U5*%
X162728671Y-16615000D03*
X161878671Y-16615000D03*
X162728671Y-15765000D03*
X161878671Y-15765000D03*
%TD*%
%TO.C,U1*%
X146273987Y-16615000D03*
X145423987Y-16615000D03*
X146273987Y-15765000D03*
X145423987Y-15765000D03*
%TD*%
%TO.C,U3*%
X154501329Y-16615000D03*
X153651329Y-16615000D03*
X154501329Y-15765000D03*
X153651329Y-15765000D03*
%TD*%
%TO.C,U7*%
X170956013Y-16615000D03*
X170106013Y-16615000D03*
X170956013Y-15765000D03*
X170106013Y-15765000D03*
%TD*%
D13*
%TO.C,J4*%
X181646837Y-15285000D03*
%TD*%
%TO.C,J6*%
X181646837Y-13960000D03*
%TD*%
%TO.C,J2*%
X143876837Y-13965000D03*
%TD*%
D14*
%TO.C,U9*%
X179183359Y-16615000D03*
X178333359Y-16615000D03*
X179183359Y-15765000D03*
X178333359Y-15765000D03*
%TD*%
%LPD*%
M02*
