%TF.GenerationSoftware,KiCad,Pcbnew,7.0.2-6a45011f42~172~ubuntu22.04.1*%
%TF.CreationDate,2023-07-04T12:36:34+08:00*%
%TF.ProjectId,fly2040_leds,666c7932-3034-4305-9f6c-6564732e6b69,rev?*%
%TF.SameCoordinates,PX3a4ec20PY2569a30*%
%TF.FileFunction,Soldermask,Top*%
%TF.FilePolarity,Negative*%
%FSLAX46Y46*%
G04 Gerber Fmt 4.6, Leading zero omitted, Abs format (unit mm)*
G04 Created by KiCad (PCBNEW 7.0.2-6a45011f42~172~ubuntu22.04.1) date 2023-07-04 12:36:34*
%MOMM*%
%LPD*%
G01*
G04 APERTURE LIST*
%ADD10R,1.200000X1.000000*%
%ADD11R,0.450000X0.450000*%
G04 APERTURE END LIST*
D10*
%TO.C,J9*%
X72230000Y-15290000D03*
%TD*%
%TO.C,J8*%
X72230000Y-13965000D03*
%TD*%
%TO.C,J7*%
X72230000Y-16615000D03*
%TD*%
%TO.C,J5*%
X181646837Y-16610000D03*
%TD*%
%TO.C,J3*%
X143876837Y-15290000D03*
%TD*%
D11*
%TO.C,U4*%
X158615000Y-16615000D03*
X157765000Y-16615000D03*
X158615000Y-15765000D03*
X157765000Y-15765000D03*
%TD*%
%TO.C,U2*%
X150387658Y-16615000D03*
X149537658Y-16615000D03*
X150387658Y-15765000D03*
X149537658Y-15765000D03*
%TD*%
%TO.C,U8*%
X175069684Y-16615000D03*
X174219684Y-16615000D03*
X175069684Y-15765000D03*
X174219684Y-15765000D03*
%TD*%
%TO.C,U6*%
X166842342Y-16615000D03*
X165992342Y-16615000D03*
X166842342Y-15765000D03*
X165992342Y-15765000D03*
%TD*%
D10*
%TO.C,J1*%
X143876837Y-16615000D03*
%TD*%
D11*
%TO.C,U5*%
X162728671Y-16615000D03*
X161878671Y-16615000D03*
X162728671Y-15765000D03*
X161878671Y-15765000D03*
%TD*%
%TO.C,U1*%
X146273987Y-16615000D03*
X145423987Y-16615000D03*
X146273987Y-15765000D03*
X145423987Y-15765000D03*
%TD*%
%TO.C,U3*%
X154501329Y-16615000D03*
X153651329Y-16615000D03*
X154501329Y-15765000D03*
X153651329Y-15765000D03*
%TD*%
%TO.C,U7*%
X170956013Y-16615000D03*
X170106013Y-16615000D03*
X170956013Y-15765000D03*
X170106013Y-15765000D03*
%TD*%
D10*
%TO.C,J4*%
X181646837Y-15285000D03*
%TD*%
%TO.C,J6*%
X181646837Y-13960000D03*
%TD*%
%TO.C,J2*%
X143876837Y-13965000D03*
%TD*%
D11*
%TO.C,U9*%
X179183359Y-16615000D03*
X178333359Y-16615000D03*
X179183359Y-15765000D03*
X178333359Y-15765000D03*
%TD*%
M02*
