%TF.GenerationSoftware,KiCad,Pcbnew,7.0.2-6a45011f42~172~ubuntu22.04.1*%
%TF.CreationDate,2023-07-04T12:36:34+08:00*%
%TF.ProjectId,fly2040_leds,666c7932-3034-4305-9f6c-6564732e6b69,rev?*%
%TF.SameCoordinates,PX3a4ec20PY2569a30*%
%TF.FileFunction,Copper,L1,Top*%
%TF.FilePolarity,Positive*%
%FSLAX46Y46*%
G04 Gerber Fmt 4.6, Leading zero omitted, Abs format (unit mm)*
G04 Created by KiCad (PCBNEW 7.0.2-6a45011f42~172~ubuntu22.04.1) date 2023-07-04 12:36:34*
%MOMM*%
%LPD*%
G01*
G04 APERTURE LIST*
%TA.AperFunction,ComponentPad*%
%ADD10R,1.200000X1.000000*%
%TD*%
%TA.AperFunction,SMDPad,CuDef*%
%ADD11R,0.450000X0.450000*%
%TD*%
%TA.AperFunction,ViaPad*%
%ADD12C,0.450000*%
%TD*%
%TA.AperFunction,Conductor*%
%ADD13C,0.300000*%
%TD*%
G04 APERTURE END LIST*
D10*
%TO.P,J9,1,Pin_1*%
%TO.N,LED_DATA*%
X72230000Y-15290000D03*
%TD*%
%TO.P,J8,1,Pin_1*%
%TO.N,GND*%
X72230000Y-13965000D03*
%TD*%
%TO.P,J7,1,Pin_1*%
%TO.N,+3V3*%
X72230000Y-16615000D03*
%TD*%
%TO.P,J5,1,Pin_1*%
%TO.N,+3V3*%
X181646837Y-16610000D03*
%TD*%
%TO.P,J3,1,Pin_1*%
%TO.N,LED_DATA*%
X143876837Y-15290000D03*
%TD*%
D11*
%TO.P,U4,1,DOUT*%
%TO.N,Net-(U4-DOUT)*%
X158615000Y-16615000D03*
%TO.P,U4,2,VDD*%
%TO.N,+3V3*%
X157765000Y-16615000D03*
%TO.P,U4,3,GND*%
%TO.N,GND*%
X158615000Y-15765000D03*
%TO.P,U4,4,DIN*%
%TO.N,Net-(U3-DOUT)*%
X157765000Y-15765000D03*
%TD*%
%TO.P,U2,1,DOUT*%
%TO.N,Net-(U2-DOUT)*%
X150387658Y-16615000D03*
%TO.P,U2,2,VDD*%
%TO.N,+3V3*%
X149537658Y-16615000D03*
%TO.P,U2,3,GND*%
%TO.N,GND*%
X150387658Y-15765000D03*
%TO.P,U2,4,DIN*%
%TO.N,Net-(U1-DOUT)*%
X149537658Y-15765000D03*
%TD*%
%TO.P,U8,1,DOUT*%
%TO.N,Net-(U8-DOUT)*%
X175069684Y-16615000D03*
%TO.P,U8,2,VDD*%
%TO.N,+3V3*%
X174219684Y-16615000D03*
%TO.P,U8,3,GND*%
%TO.N,GND*%
X175069684Y-15765000D03*
%TO.P,U8,4,DIN*%
%TO.N,Net-(U7-DOUT)*%
X174219684Y-15765000D03*
%TD*%
%TO.P,U6,1,DOUT*%
%TO.N,Net-(U6-DOUT)*%
X166842342Y-16615000D03*
%TO.P,U6,2,VDD*%
%TO.N,+3V3*%
X165992342Y-16615000D03*
%TO.P,U6,3,GND*%
%TO.N,GND*%
X166842342Y-15765000D03*
%TO.P,U6,4,DIN*%
%TO.N,Net-(U5-DOUT)*%
X165992342Y-15765000D03*
%TD*%
D10*
%TO.P,J1,1,Pin_1*%
%TO.N,+3V3*%
X143876837Y-16615000D03*
%TD*%
D11*
%TO.P,U5,1,DOUT*%
%TO.N,Net-(U5-DOUT)*%
X162728671Y-16615000D03*
%TO.P,U5,2,VDD*%
%TO.N,+3V3*%
X161878671Y-16615000D03*
%TO.P,U5,3,GND*%
%TO.N,GND*%
X162728671Y-15765000D03*
%TO.P,U5,4,DIN*%
%TO.N,Net-(U4-DOUT)*%
X161878671Y-15765000D03*
%TD*%
%TO.P,U1,1,DOUT*%
%TO.N,Net-(U1-DOUT)*%
X146273987Y-16615000D03*
%TO.P,U1,2,VDD*%
%TO.N,+3V3*%
X145423987Y-16615000D03*
%TO.P,U1,3,GND*%
%TO.N,GND*%
X146273987Y-15765000D03*
%TO.P,U1,4,DIN*%
%TO.N,LED_DATA*%
X145423987Y-15765000D03*
%TD*%
%TO.P,U3,1,DOUT*%
%TO.N,Net-(U3-DOUT)*%
X154501329Y-16615000D03*
%TO.P,U3,2,VDD*%
%TO.N,+3V3*%
X153651329Y-16615000D03*
%TO.P,U3,3,GND*%
%TO.N,GND*%
X154501329Y-15765000D03*
%TO.P,U3,4,DIN*%
%TO.N,Net-(U2-DOUT)*%
X153651329Y-15765000D03*
%TD*%
%TO.P,U7,1,DOUT*%
%TO.N,Net-(U7-DOUT)*%
X170956013Y-16615000D03*
%TO.P,U7,2,VDD*%
%TO.N,+3V3*%
X170106013Y-16615000D03*
%TO.P,U7,3,GND*%
%TO.N,GND*%
X170956013Y-15765000D03*
%TO.P,U7,4,DIN*%
%TO.N,Net-(U6-DOUT)*%
X170106013Y-15765000D03*
%TD*%
D10*
%TO.P,J4,1,Pin_1*%
%TO.N,LED_OUT*%
X181646837Y-15285000D03*
%TD*%
%TO.P,J6,1,Pin_1*%
%TO.N,GND*%
X181646837Y-13960000D03*
%TD*%
%TO.P,J2,1,Pin_1*%
%TO.N,GND*%
X143876837Y-13965000D03*
%TD*%
D11*
%TO.P,U9,1,DOUT*%
%TO.N,LED_OUT*%
X179183359Y-16615000D03*
%TO.P,U9,2,VDD*%
%TO.N,+3V3*%
X178333359Y-16615000D03*
%TO.P,U9,3,GND*%
%TO.N,GND*%
X179183359Y-15765000D03*
%TO.P,U9,4,DIN*%
%TO.N,Net-(U8-DOUT)*%
X178333359Y-15765000D03*
%TD*%
D12*
%TO.N,+3V3*%
X156055714Y-16685000D03*
X164311428Y-16685000D03*
X168439285Y-16685000D03*
X176695000Y-16685000D03*
X172567142Y-16685000D03*
X151927857Y-16685000D03*
X147800000Y-16685000D03*
X160183571Y-16685000D03*
%TD*%
D13*
%TO.N,Net-(U1-DOUT)*%
X147625000Y-15765000D02*
X149537658Y-15765000D01*
X146273987Y-16615000D02*
X146775000Y-16615000D01*
X146775000Y-16615000D02*
X147625000Y-15765000D01*
%TO.N,Net-(U2-DOUT)*%
X150387658Y-16615000D02*
X150765000Y-16615000D01*
X150765000Y-16615000D02*
X151615000Y-15765000D01*
X151615000Y-15765000D02*
X153651329Y-15765000D01*
%TO.N,Net-(U3-DOUT)*%
X154501329Y-16615000D02*
X154945000Y-16615000D01*
X155795000Y-15765000D02*
X157765000Y-15765000D01*
X154945000Y-16615000D02*
X155795000Y-15765000D01*
%TO.N,Net-(U4-DOUT)*%
X159860000Y-15765000D02*
X161878671Y-15765000D01*
X159010000Y-16615000D02*
X159860000Y-15765000D01*
X158615000Y-16615000D02*
X159010000Y-16615000D01*
%TO.N,Net-(U6-DOUT)*%
X166842342Y-16615000D02*
X167250000Y-16615000D01*
X168100000Y-15765000D02*
X170106013Y-15765000D01*
X167250000Y-16615000D02*
X168100000Y-15765000D01*
%TO.N,Net-(U7-DOUT)*%
X172220000Y-15765000D02*
X174219684Y-15765000D01*
X170956013Y-16615000D02*
X171370000Y-16615000D01*
X171370000Y-16615000D02*
X172220000Y-15765000D01*
%TO.N,Net-(U8-DOUT)*%
X175069684Y-16615000D02*
X175485000Y-16615000D01*
X175485000Y-16615000D02*
X176335000Y-15765000D01*
X176335000Y-15765000D02*
X178333359Y-15765000D01*
%TO.N,Net-(U5-DOUT)*%
X163160000Y-16615000D02*
X164010000Y-15765000D01*
X162728671Y-16615000D02*
X163160000Y-16615000D01*
X164010000Y-15765000D02*
X165992342Y-15765000D01*
%TO.N,LED_OUT*%
X180920000Y-15285000D02*
X181646837Y-15285000D01*
X179183359Y-16615000D02*
X179590000Y-16615000D01*
X179590000Y-16615000D02*
X180920000Y-15285000D01*
%TO.N,LED_DATA*%
X143876837Y-15290000D02*
X144590000Y-15290000D01*
X144590000Y-15290000D02*
X145065000Y-15765000D01*
X145065000Y-15765000D02*
X145423987Y-15765000D01*
%TD*%
%TA.AperFunction,Conductor*%
%TO.N,GND*%
G36*
X182202549Y-13454949D02*
G01*
X182269580Y-13474661D01*
X182315313Y-13527483D01*
X182326498Y-13579287D01*
X182323823Y-14560838D01*
X182303955Y-14627823D01*
X182251027Y-14673434D01*
X182199823Y-14684500D01*
X181036937Y-14684500D01*
X181007624Y-14690330D01*
X180974379Y-14712543D01*
X180952167Y-14745787D01*
X180946337Y-14775098D01*
X180946337Y-14933236D01*
X180926652Y-15000275D01*
X180873848Y-15046030D01*
X180866762Y-15049005D01*
X180860896Y-15051256D01*
X180842255Y-15056777D01*
X180820451Y-15061412D01*
X180817989Y-15063201D01*
X180789548Y-15078643D01*
X180786700Y-15079735D01*
X180770936Y-15095500D01*
X180756146Y-15108132D01*
X180738115Y-15121232D01*
X180736593Y-15123870D01*
X180716890Y-15149545D01*
X179593582Y-16272853D01*
X179532259Y-16306338D01*
X179462567Y-16301354D01*
X179452848Y-16296379D01*
X179418260Y-16289500D01*
X179006024Y-16289500D01*
X178938985Y-16269815D01*
X178921817Y-16256523D01*
X178860655Y-16199941D01*
X178844831Y-16192083D01*
X178807413Y-16173501D01*
X178755250Y-16164260D01*
X178692673Y-16133184D01*
X178656831Y-16073209D01*
X178655264Y-16017971D01*
X178658859Y-15999899D01*
X178658858Y-15530102D01*
X178657498Y-15523265D01*
X178653028Y-15500787D01*
X178638996Y-15479786D01*
X178630816Y-15467543D01*
X178597572Y-15445331D01*
X178597571Y-15445330D01*
X178568260Y-15439500D01*
X178098459Y-15439500D01*
X178069146Y-15445330D01*
X178035903Y-15467542D01*
X178035902Y-15467543D01*
X178033933Y-15470489D01*
X177980324Y-15515295D01*
X177930831Y-15525600D01*
X176344515Y-15525600D01*
X176338026Y-15525430D01*
X176296713Y-15523265D01*
X176296712Y-15523265D01*
X176296711Y-15523265D01*
X176275898Y-15531254D01*
X176257250Y-15536778D01*
X176246292Y-15539107D01*
X176235451Y-15541412D01*
X176232988Y-15543202D01*
X176204551Y-15558642D01*
X176201699Y-15559736D01*
X176185934Y-15575501D01*
X176171146Y-15588132D01*
X176153115Y-15601232D01*
X176151593Y-15603870D01*
X176131890Y-15629545D01*
X175485108Y-16276327D01*
X175423785Y-16309812D01*
X175354093Y-16304828D01*
X175336575Y-16295863D01*
X175304585Y-16289500D01*
X174882243Y-16289500D01*
X174815204Y-16269815D01*
X174788554Y-16246730D01*
X174766902Y-16221758D01*
X174716886Y-16189635D01*
X174649843Y-16169970D01*
X174644727Y-16169236D01*
X174581164Y-16140227D01*
X174543376Y-16081458D01*
X174540727Y-16022304D01*
X174545184Y-15999899D01*
X174545183Y-15530102D01*
X174543823Y-15523265D01*
X174539353Y-15500787D01*
X174525321Y-15479786D01*
X174517141Y-15467543D01*
X174483897Y-15445331D01*
X174483896Y-15445330D01*
X174454585Y-15439500D01*
X173984784Y-15439500D01*
X173955471Y-15445330D01*
X173922228Y-15467542D01*
X173922227Y-15467543D01*
X173920258Y-15470489D01*
X173866649Y-15515295D01*
X173817156Y-15525600D01*
X172229515Y-15525600D01*
X172223026Y-15525430D01*
X172181713Y-15523265D01*
X172181712Y-15523265D01*
X172181711Y-15523265D01*
X172160898Y-15531254D01*
X172142250Y-15536778D01*
X172131292Y-15539107D01*
X172120451Y-15541412D01*
X172117988Y-15543202D01*
X172089551Y-15558642D01*
X172086699Y-15559736D01*
X172070934Y-15575501D01*
X172056146Y-15588132D01*
X172038115Y-15601232D01*
X172036593Y-15603870D01*
X172016890Y-15629545D01*
X171370640Y-16275795D01*
X171309317Y-16309280D01*
X171239625Y-16304296D01*
X171223300Y-16295942D01*
X171190914Y-16289500D01*
X170767510Y-16289500D01*
X170700471Y-16269815D01*
X170673822Y-16246732D01*
X170673820Y-16246730D01*
X170653231Y-16222983D01*
X170653230Y-16222982D01*
X170603213Y-16190859D01*
X170536167Y-16171194D01*
X170530819Y-16170427D01*
X170467257Y-16141417D01*
X170429468Y-16082648D01*
X170426820Y-16023494D01*
X170429621Y-16009412D01*
X170431513Y-15999899D01*
X170431512Y-15530102D01*
X170430152Y-15523265D01*
X170425682Y-15500787D01*
X170411650Y-15479786D01*
X170403470Y-15467543D01*
X170370226Y-15445331D01*
X170370225Y-15445330D01*
X170340914Y-15439500D01*
X169871113Y-15439500D01*
X169841800Y-15445330D01*
X169808557Y-15467542D01*
X169808556Y-15467543D01*
X169806587Y-15470489D01*
X169752978Y-15515295D01*
X169703485Y-15525600D01*
X168109515Y-15525600D01*
X168103026Y-15525430D01*
X168061713Y-15523265D01*
X168061712Y-15523265D01*
X168061711Y-15523265D01*
X168040898Y-15531254D01*
X168022250Y-15536778D01*
X168011292Y-15539107D01*
X168000451Y-15541412D01*
X167997988Y-15543202D01*
X167969551Y-15558642D01*
X167966699Y-15559736D01*
X167950934Y-15575501D01*
X167936146Y-15588132D01*
X167918115Y-15601232D01*
X167916593Y-15603870D01*
X167896890Y-15629545D01*
X167253175Y-16273260D01*
X167191852Y-16306745D01*
X167122160Y-16301761D01*
X167111527Y-16296319D01*
X167077243Y-16289500D01*
X166652779Y-16289500D01*
X166585740Y-16269815D01*
X166559091Y-16246731D01*
X166539561Y-16224206D01*
X166489544Y-16192083D01*
X166422502Y-16172418D01*
X166420866Y-16172183D01*
X166416914Y-16171616D01*
X166353352Y-16142610D01*
X166315562Y-16083842D01*
X166312912Y-16024681D01*
X166317842Y-15999899D01*
X166317841Y-15530102D01*
X166316481Y-15523265D01*
X166312011Y-15500787D01*
X166297979Y-15479786D01*
X166289799Y-15467543D01*
X166256555Y-15445331D01*
X166256554Y-15445330D01*
X166227243Y-15439500D01*
X165757442Y-15439500D01*
X165728129Y-15445330D01*
X165694886Y-15467542D01*
X165694885Y-15467543D01*
X165692916Y-15470489D01*
X165639307Y-15515295D01*
X165589814Y-15525600D01*
X164019515Y-15525600D01*
X164013026Y-15525430D01*
X163971713Y-15523265D01*
X163971712Y-15523265D01*
X163971711Y-15523265D01*
X163950898Y-15531254D01*
X163932250Y-15536778D01*
X163921292Y-15539107D01*
X163910451Y-15541412D01*
X163907988Y-15543202D01*
X163879551Y-15558642D01*
X163876699Y-15559736D01*
X163860934Y-15575501D01*
X163846146Y-15588132D01*
X163828115Y-15601232D01*
X163826593Y-15603870D01*
X163806890Y-15629545D01*
X163153694Y-16282742D01*
X163092371Y-16316227D01*
X163022680Y-16311243D01*
X162997123Y-16298163D01*
X162992883Y-16295330D01*
X162963572Y-16289500D01*
X162538047Y-16289500D01*
X162471008Y-16269815D01*
X162444358Y-16246730D01*
X162425889Y-16225429D01*
X162375872Y-16193305D01*
X162325517Y-16178536D01*
X162308832Y-16173642D01*
X162307159Y-16173402D01*
X162303001Y-16172805D01*
X162239439Y-16143794D01*
X162201652Y-16085024D01*
X162199004Y-16025873D01*
X162204171Y-15999899D01*
X162204170Y-15530102D01*
X162202810Y-15523265D01*
X162198340Y-15500787D01*
X162184308Y-15479786D01*
X162176128Y-15467543D01*
X162142884Y-15445331D01*
X162142883Y-15445330D01*
X162113572Y-15439500D01*
X161643771Y-15439500D01*
X161614458Y-15445330D01*
X161581215Y-15467542D01*
X161581214Y-15467543D01*
X161579245Y-15470489D01*
X161525636Y-15515295D01*
X161476143Y-15525600D01*
X159869515Y-15525600D01*
X159863026Y-15525430D01*
X159821713Y-15523265D01*
X159821712Y-15523265D01*
X159821711Y-15523265D01*
X159800898Y-15531254D01*
X159782250Y-15536778D01*
X159771292Y-15539107D01*
X159760451Y-15541412D01*
X159757988Y-15543202D01*
X159729551Y-15558642D01*
X159726699Y-15559736D01*
X159710934Y-15575501D01*
X159696146Y-15588132D01*
X159678115Y-15601232D01*
X159676593Y-15603870D01*
X159656890Y-15629545D01*
X159018245Y-16268190D01*
X158956922Y-16301675D01*
X158903852Y-16297879D01*
X158903403Y-16300142D01*
X158849901Y-16289500D01*
X158423315Y-16289500D01*
X158356276Y-16269815D01*
X158329627Y-16246732D01*
X158329626Y-16246731D01*
X158312218Y-16226653D01*
X158262203Y-16194530D01*
X158262202Y-16194529D01*
X158262201Y-16194529D01*
X158195159Y-16174864D01*
X158189094Y-16173994D01*
X158125532Y-16144983D01*
X158087745Y-16086213D01*
X158085097Y-16027059D01*
X158085570Y-16024681D01*
X158090500Y-15999899D01*
X158090499Y-15530102D01*
X158089139Y-15523265D01*
X158084669Y-15500787D01*
X158070637Y-15479786D01*
X158062457Y-15467543D01*
X158029213Y-15445331D01*
X158029212Y-15445330D01*
X157999901Y-15439500D01*
X157530100Y-15439500D01*
X157500787Y-15445330D01*
X157467544Y-15467542D01*
X157467543Y-15467543D01*
X157465574Y-15470489D01*
X157411965Y-15515295D01*
X157362472Y-15525600D01*
X155804515Y-15525600D01*
X155798026Y-15525430D01*
X155756713Y-15523265D01*
X155756712Y-15523265D01*
X155756711Y-15523265D01*
X155735898Y-15531254D01*
X155717250Y-15536778D01*
X155706292Y-15539107D01*
X155695451Y-15541412D01*
X155692988Y-15543202D01*
X155664551Y-15558642D01*
X155661699Y-15559736D01*
X155645934Y-15575501D01*
X155631146Y-15588132D01*
X155613115Y-15601232D01*
X155611593Y-15603870D01*
X155591890Y-15629545D01*
X154933751Y-16287685D01*
X154872428Y-16321170D01*
X154802737Y-16316186D01*
X154777183Y-16303109D01*
X154765542Y-16295331D01*
X154765541Y-16295330D01*
X154765539Y-16295329D01*
X154736230Y-16289500D01*
X154308583Y-16289500D01*
X154241544Y-16269815D01*
X154214895Y-16246731D01*
X154198548Y-16227877D01*
X154148531Y-16195754D01*
X154140185Y-16193306D01*
X154081487Y-16176089D01*
X154081483Y-16176088D01*
X154081482Y-16176088D01*
X154075190Y-16175185D01*
X154011627Y-16146176D01*
X153973838Y-16087408D01*
X153971189Y-16028252D01*
X153976829Y-15999899D01*
X153976828Y-15530102D01*
X153975468Y-15523265D01*
X153970998Y-15500787D01*
X153956966Y-15479786D01*
X153948786Y-15467543D01*
X153915542Y-15445331D01*
X153915541Y-15445330D01*
X153886230Y-15439500D01*
X153416429Y-15439500D01*
X153387116Y-15445330D01*
X153353873Y-15467542D01*
X153353872Y-15467543D01*
X153351903Y-15470489D01*
X153298294Y-15515295D01*
X153248801Y-15525600D01*
X151624515Y-15525600D01*
X151618026Y-15525430D01*
X151576713Y-15523265D01*
X151576712Y-15523265D01*
X151576711Y-15523265D01*
X151555898Y-15531254D01*
X151537250Y-15536778D01*
X151526292Y-15539107D01*
X151515451Y-15541412D01*
X151512988Y-15543202D01*
X151484551Y-15558642D01*
X151481699Y-15559736D01*
X151465934Y-15575501D01*
X151451146Y-15588132D01*
X151433115Y-15601232D01*
X151431593Y-15603870D01*
X151411890Y-15629545D01*
X150777337Y-16264098D01*
X150716014Y-16297583D01*
X150665466Y-16298035D01*
X150635854Y-16292145D01*
X150622557Y-16289500D01*
X150622556Y-16289500D01*
X150193851Y-16289500D01*
X150126812Y-16269815D01*
X150100165Y-16246734D01*
X150084876Y-16229100D01*
X150036765Y-16198201D01*
X150034858Y-16196976D01*
X149967810Y-16177311D01*
X149961283Y-16176375D01*
X149897720Y-16147367D01*
X149859931Y-16088598D01*
X149857282Y-16029442D01*
X149861248Y-16009500D01*
X149863158Y-15999899D01*
X149863157Y-15530102D01*
X149861797Y-15523265D01*
X149857327Y-15500787D01*
X149843295Y-15479786D01*
X149835115Y-15467543D01*
X149801871Y-15445331D01*
X149801870Y-15445330D01*
X149772559Y-15439500D01*
X149302758Y-15439500D01*
X149273445Y-15445330D01*
X149240202Y-15467542D01*
X149240201Y-15467543D01*
X149238232Y-15470489D01*
X149184623Y-15515295D01*
X149135130Y-15525600D01*
X147634515Y-15525600D01*
X147628026Y-15525430D01*
X147586713Y-15523265D01*
X147586712Y-15523265D01*
X147586711Y-15523265D01*
X147565898Y-15531254D01*
X147547250Y-15536778D01*
X147536292Y-15539107D01*
X147525451Y-15541412D01*
X147522988Y-15543202D01*
X147494551Y-15558642D01*
X147491699Y-15559736D01*
X147475934Y-15575501D01*
X147461146Y-15588132D01*
X147443115Y-15601232D01*
X147441593Y-15603870D01*
X147421890Y-15629545D01*
X146740783Y-16310653D01*
X146679460Y-16344138D01*
X146609769Y-16339154D01*
X146584212Y-16326075D01*
X146571444Y-16317544D01*
X146571444Y-16317543D01*
X146538200Y-16295331D01*
X146538199Y-16295330D01*
X146538197Y-16295329D01*
X146508888Y-16289500D01*
X146079120Y-16289500D01*
X146012081Y-16269815D01*
X145985433Y-16246732D01*
X145971207Y-16230325D01*
X145921189Y-16198201D01*
X145854148Y-16178536D01*
X145851201Y-16178113D01*
X145847374Y-16177564D01*
X145783813Y-16148556D01*
X145746023Y-16089788D01*
X145743374Y-16030630D01*
X145743656Y-16029213D01*
X145749487Y-15999899D01*
X145749486Y-15530102D01*
X145748126Y-15523265D01*
X145743656Y-15500787D01*
X145729624Y-15479786D01*
X145721444Y-15467543D01*
X145688200Y-15445331D01*
X145688199Y-15445330D01*
X145658888Y-15439500D01*
X145189089Y-15439500D01*
X145161482Y-15444991D01*
X145091891Y-15438759D01*
X145049616Y-15411053D01*
X144766011Y-15127448D01*
X144761544Y-15122741D01*
X144733859Y-15091995D01*
X144713500Y-15082930D01*
X144696406Y-15073649D01*
X144670107Y-15056571D01*
X144618795Y-15032244D01*
X144581866Y-14972931D01*
X144577336Y-14939735D01*
X144577336Y-14780102D01*
X144571506Y-14750787D01*
X144549294Y-14717543D01*
X144526532Y-14702334D01*
X144516049Y-14695330D01*
X144486738Y-14689500D01*
X143266937Y-14689500D01*
X143237624Y-14695330D01*
X143204379Y-14717543D01*
X143182167Y-14750787D01*
X143176337Y-14780098D01*
X143176337Y-14780627D01*
X143175081Y-14786410D01*
X143173954Y-14792079D01*
X143173855Y-14792059D01*
X143165176Y-14832041D01*
X143152648Y-14859536D01*
X143106965Y-15015619D01*
X143069242Y-15074429D01*
X143005711Y-15103510D01*
X142988166Y-15104787D01*
X73181218Y-15221847D01*
X73114146Y-15202275D01*
X73068302Y-15149548D01*
X73059063Y-15120318D01*
X73056818Y-15108132D01*
X73012460Y-14867406D01*
X73009328Y-14854811D01*
X73000177Y-14825776D01*
X72981344Y-14792079D01*
X72979287Y-14788399D01*
X72933534Y-14735597D01*
X72871623Y-14695810D01*
X72833198Y-14688167D01*
X72822457Y-14685527D01*
X72816492Y-14683775D01*
X72816486Y-14683774D01*
X72786762Y-14679500D01*
X71732903Y-14679500D01*
X71730367Y-14679766D01*
X71662517Y-14663651D01*
X71614059Y-14613316D01*
X71600000Y-14555967D01*
X71600000Y-13534050D01*
X71619685Y-13467011D01*
X71672489Y-13421256D01*
X71724048Y-13410050D01*
X182202549Y-13454949D01*
G37*
%TD.AperFunction*%
%TD*%
%TA.AperFunction,Conductor*%
%TO.N,LED_DATA*%
G36*
X72853801Y-14804685D02*
G01*
X72899556Y-14857489D01*
X72908707Y-14886524D01*
X72989996Y-15327669D01*
X143160000Y-15210000D01*
X143253901Y-14889169D01*
X143291625Y-14830358D01*
X143355155Y-14801278D01*
X143372909Y-14800000D01*
X144347246Y-14800000D01*
X144414285Y-14819685D01*
X144460040Y-14872489D01*
X144471239Y-14922747D01*
X144474141Y-15210000D01*
X144478735Y-15664748D01*
X144459728Y-15731982D01*
X144407389Y-15778268D01*
X144354741Y-15790000D01*
X143280000Y-15790000D01*
X71725316Y-15909790D01*
X71658243Y-15890218D01*
X71612400Y-15837490D01*
X71601113Y-15784691D01*
X71608908Y-14907898D01*
X71629188Y-14841036D01*
X71682396Y-14795752D01*
X71732903Y-14785000D01*
X72786762Y-14785000D01*
X72853801Y-14804685D01*
G37*
%TD.AperFunction*%
%TD*%
%TA.AperFunction,Conductor*%
%TO.N,+3V3*%
G36*
X144447075Y-15949981D02*
G01*
X144508576Y-15966348D01*
X145056837Y-16280000D01*
X145824452Y-16279771D01*
X145891495Y-16299436D01*
X145937266Y-16352226D01*
X145948487Y-16403771D01*
X145948487Y-16849899D01*
X145954317Y-16879212D01*
X145976529Y-16912455D01*
X145976530Y-16912457D01*
X145981805Y-16915982D01*
X146026610Y-16969593D01*
X146035318Y-17038918D01*
X146005164Y-17101946D01*
X145945722Y-17138665D01*
X145912977Y-17143084D01*
X71724061Y-17179938D01*
X71657011Y-17160287D01*
X71611230Y-17107505D01*
X71600000Y-17055942D01*
X71600000Y-16139288D01*
X71619684Y-16072253D01*
X71672488Y-16026498D01*
X71723791Y-16015292D01*
X71725487Y-16015289D01*
X71725493Y-16015290D01*
X119059696Y-15936047D01*
X144447075Y-15949981D01*
G37*
%TD.AperFunction*%
%TA.AperFunction,Conductor*%
G36*
X150005166Y-16298212D02*
G01*
X150050937Y-16351002D01*
X150062158Y-16402547D01*
X150062158Y-16849899D01*
X150067988Y-16879212D01*
X150067989Y-16879213D01*
X150090201Y-16912457D01*
X150092421Y-16913940D01*
X150137225Y-16967551D01*
X150145934Y-17036876D01*
X150115780Y-17099903D01*
X150056337Y-17136623D01*
X150023592Y-17141042D01*
X146635657Y-17142725D01*
X146568607Y-17123074D01*
X146522826Y-17070292D01*
X146512848Y-17001139D01*
X146541842Y-16937569D01*
X146566706Y-16915622D01*
X146571444Y-16912457D01*
X146573412Y-16909510D01*
X146627022Y-16864705D01*
X146676515Y-16854400D01*
X146765504Y-16854400D01*
X146771992Y-16854569D01*
X146813287Y-16856734D01*
X146834095Y-16848745D01*
X146852736Y-16843223D01*
X146874548Y-16838588D01*
X146876999Y-16836806D01*
X146905463Y-16821352D01*
X146906308Y-16821027D01*
X146908300Y-16820263D01*
X146924063Y-16804498D01*
X146938844Y-16791873D01*
X146956883Y-16778768D01*
X146958403Y-16776133D01*
X146978106Y-16750455D01*
X147412973Y-16315589D01*
X147474293Y-16282106D01*
X147500603Y-16279273D01*
X149938124Y-16278548D01*
X150005166Y-16298212D01*
G37*
%TD.AperFunction*%
%TA.AperFunction,Conductor*%
G36*
X154118837Y-16296989D02*
G01*
X154164608Y-16349779D01*
X154175829Y-16401324D01*
X154175829Y-16849899D01*
X154181659Y-16879212D01*
X154205347Y-16914665D01*
X154247840Y-16965508D01*
X154256549Y-17034833D01*
X154226395Y-17097861D01*
X154166952Y-17134581D01*
X154134207Y-17139000D01*
X150752389Y-17140680D01*
X150685339Y-17121029D01*
X150639558Y-17068247D01*
X150629580Y-16999094D01*
X150658574Y-16935524D01*
X150683435Y-16913579D01*
X150685115Y-16912457D01*
X150685911Y-16911265D01*
X150739519Y-16866461D01*
X150795499Y-16856325D01*
X150803287Y-16856734D01*
X150824095Y-16848745D01*
X150842736Y-16843223D01*
X150864548Y-16838588D01*
X150866999Y-16836806D01*
X150895463Y-16821352D01*
X150896308Y-16821027D01*
X150898300Y-16820263D01*
X150914063Y-16804498D01*
X150928844Y-16791873D01*
X150946883Y-16778768D01*
X150948403Y-16776133D01*
X150968106Y-16750455D01*
X151404160Y-16314402D01*
X151465480Y-16280919D01*
X151491791Y-16278085D01*
X154051793Y-16277324D01*
X154118837Y-16296989D01*
G37*
%TD.AperFunction*%
%TA.AperFunction,Conductor*%
G36*
X158232508Y-16295765D02*
G01*
X158278279Y-16348555D01*
X158289500Y-16400100D01*
X158289500Y-16849899D01*
X158295330Y-16879212D01*
X158324396Y-16922714D01*
X158358455Y-16963469D01*
X158367162Y-17032794D01*
X158337007Y-17095821D01*
X158277564Y-17132540D01*
X158244821Y-17136958D01*
X154869121Y-17138635D01*
X154802071Y-17118984D01*
X154756290Y-17066202D01*
X154746312Y-16997049D01*
X154775306Y-16933479D01*
X154798302Y-16913179D01*
X154798783Y-16912458D01*
X154798786Y-16912457D01*
X154800754Y-16909510D01*
X154854364Y-16864705D01*
X154903857Y-16854400D01*
X154935504Y-16854400D01*
X154941992Y-16854569D01*
X154983287Y-16856734D01*
X155004095Y-16848745D01*
X155022736Y-16843223D01*
X155044548Y-16838588D01*
X155046999Y-16836806D01*
X155075463Y-16821352D01*
X155076308Y-16821027D01*
X155078300Y-16820263D01*
X155094063Y-16804498D01*
X155108844Y-16791873D01*
X155126883Y-16778768D01*
X155128403Y-16776133D01*
X155148106Y-16750455D01*
X155585404Y-16313158D01*
X155646724Y-16279675D01*
X155673032Y-16276842D01*
X158165466Y-16276100D01*
X158232508Y-16295765D01*
G37*
%TD.AperFunction*%
%TA.AperFunction,Conductor*%
G36*
X162346179Y-16294541D02*
G01*
X162391950Y-16347331D01*
X162403171Y-16398876D01*
X162403171Y-16849899D01*
X162409001Y-16879212D01*
X162443449Y-16930769D01*
X162469070Y-16961427D01*
X162477777Y-17030752D01*
X162447622Y-17093779D01*
X162388179Y-17130498D01*
X162355436Y-17134916D01*
X158985852Y-17136589D01*
X158918802Y-17116938D01*
X158873021Y-17064156D01*
X158863043Y-16995003D01*
X158892037Y-16931433D01*
X158910903Y-16914780D01*
X158912454Y-16912458D01*
X158912457Y-16912457D01*
X158913849Y-16910372D01*
X158967457Y-16865567D01*
X159023438Y-16855431D01*
X159048287Y-16856734D01*
X159069095Y-16848745D01*
X159087736Y-16843223D01*
X159109548Y-16838588D01*
X159111999Y-16836806D01*
X159140463Y-16821352D01*
X159141308Y-16821027D01*
X159143300Y-16820263D01*
X159159063Y-16804498D01*
X159173844Y-16791873D01*
X159191883Y-16778768D01*
X159193403Y-16776133D01*
X159213106Y-16750455D01*
X159651613Y-16311949D01*
X159712933Y-16278466D01*
X159739246Y-16275632D01*
X162279138Y-16274877D01*
X162346179Y-16294541D01*
G37*
%TD.AperFunction*%
%TA.AperFunction,Conductor*%
G36*
X166459850Y-16293318D02*
G01*
X166505621Y-16346108D01*
X166516842Y-16397653D01*
X166516842Y-16849899D01*
X166522672Y-16879212D01*
X166558589Y-16932967D01*
X166557959Y-16933387D01*
X166579685Y-16959385D01*
X166588392Y-17028710D01*
X166558237Y-17091737D01*
X166498794Y-17128456D01*
X166466051Y-17132874D01*
X163102584Y-17134544D01*
X163035534Y-17114893D01*
X162989753Y-17062111D01*
X162979775Y-16992958D01*
X163008769Y-16929388D01*
X163023505Y-16916381D01*
X163026126Y-16912458D01*
X163026128Y-16912457D01*
X163028096Y-16909510D01*
X163081706Y-16864705D01*
X163131199Y-16854400D01*
X163150504Y-16854400D01*
X163156992Y-16854569D01*
X163198287Y-16856734D01*
X163219095Y-16848745D01*
X163237736Y-16843223D01*
X163259548Y-16838588D01*
X163261999Y-16836806D01*
X163290463Y-16821352D01*
X163291308Y-16821027D01*
X163293300Y-16820263D01*
X163309063Y-16804498D01*
X163323844Y-16791873D01*
X163341883Y-16778768D01*
X163343403Y-16776133D01*
X163363106Y-16750455D01*
X163802848Y-16310714D01*
X163864168Y-16277231D01*
X163890478Y-16274398D01*
X166392807Y-16273653D01*
X166459850Y-16293318D01*
G37*
%TD.AperFunction*%
%TA.AperFunction,Conductor*%
G36*
X170573521Y-16292095D02*
G01*
X170619292Y-16344885D01*
X170630513Y-16396430D01*
X170630513Y-16849899D01*
X170636343Y-16879212D01*
X170672260Y-16932967D01*
X170670764Y-16933966D01*
X170690300Y-16957343D01*
X170699007Y-17026668D01*
X170668852Y-17089695D01*
X170609409Y-17126414D01*
X170576666Y-17130832D01*
X167219316Y-17132499D01*
X167152266Y-17112848D01*
X167106485Y-17060066D01*
X167096507Y-16990913D01*
X167125501Y-16927343D01*
X167136105Y-16917982D01*
X167139795Y-16912459D01*
X167139799Y-16912457D01*
X167141620Y-16909731D01*
X167195228Y-16864927D01*
X167251210Y-16854791D01*
X167288287Y-16856734D01*
X167309095Y-16848745D01*
X167327736Y-16843223D01*
X167349548Y-16838588D01*
X167351999Y-16836806D01*
X167380463Y-16821352D01*
X167381308Y-16821027D01*
X167383300Y-16820263D01*
X167399063Y-16804498D01*
X167413844Y-16791873D01*
X167431883Y-16778768D01*
X167433403Y-16776133D01*
X167453106Y-16750455D01*
X167894065Y-16309497D01*
X167955385Y-16276014D01*
X167981694Y-16273181D01*
X170506476Y-16272430D01*
X170573521Y-16292095D01*
G37*
%TD.AperFunction*%
%TA.AperFunction,Conductor*%
G36*
X174687192Y-16290870D02*
G01*
X174732963Y-16343660D01*
X174744184Y-16395205D01*
X174744184Y-16849899D01*
X174750014Y-16879212D01*
X174785931Y-16932967D01*
X174783569Y-16934545D01*
X174800915Y-16955301D01*
X174809622Y-17024626D01*
X174779467Y-17087653D01*
X174720024Y-17124372D01*
X174687281Y-17128790D01*
X171336048Y-17130454D01*
X171268998Y-17110803D01*
X171223217Y-17058021D01*
X171213239Y-16988868D01*
X171242233Y-16925298D01*
X171248708Y-16919582D01*
X171253468Y-16912458D01*
X171253470Y-16912457D01*
X171255438Y-16909510D01*
X171309048Y-16864705D01*
X171358541Y-16854400D01*
X171360504Y-16854400D01*
X171366992Y-16854569D01*
X171408287Y-16856734D01*
X171429095Y-16848745D01*
X171447736Y-16843223D01*
X171469548Y-16838588D01*
X171471999Y-16836806D01*
X171500463Y-16821352D01*
X171501308Y-16821027D01*
X171503300Y-16820263D01*
X171519063Y-16804498D01*
X171533844Y-16791873D01*
X171551883Y-16778768D01*
X171553403Y-16776133D01*
X171573106Y-16750455D01*
X172015291Y-16308271D01*
X172076611Y-16274788D01*
X172102919Y-16271955D01*
X174620152Y-16271206D01*
X174687192Y-16290870D01*
G37*
%TD.AperFunction*%
%TA.AperFunction,Conductor*%
G36*
X178789011Y-16277384D02*
G01*
X178840299Y-16324832D01*
X178857859Y-16388444D01*
X178857859Y-16849899D01*
X178863689Y-16879212D01*
X178899606Y-16932967D01*
X178896378Y-16935123D01*
X178911533Y-16953257D01*
X178920242Y-17022582D01*
X178890087Y-17085610D01*
X178830645Y-17122329D01*
X178797900Y-17126748D01*
X175452779Y-17128409D01*
X175385729Y-17108758D01*
X175339948Y-17055976D01*
X175329970Y-16986823D01*
X175354276Y-16933529D01*
X175353436Y-16932968D01*
X175356892Y-16927794D01*
X175358964Y-16923253D01*
X175361310Y-16921182D01*
X175367139Y-16912458D01*
X175367141Y-16912457D01*
X175369109Y-16909510D01*
X175422719Y-16864705D01*
X175472212Y-16854400D01*
X175475504Y-16854400D01*
X175481992Y-16854569D01*
X175523287Y-16856734D01*
X175544095Y-16848745D01*
X175562736Y-16843223D01*
X175584548Y-16838588D01*
X175586999Y-16836806D01*
X175615463Y-16821352D01*
X175616308Y-16821027D01*
X175618300Y-16820263D01*
X175634063Y-16804498D01*
X175648844Y-16791873D01*
X175666883Y-16778768D01*
X175668403Y-16776133D01*
X175688106Y-16750455D01*
X176131515Y-16307047D01*
X176192835Y-16273564D01*
X176219146Y-16270731D01*
X178676837Y-16270000D01*
X178720214Y-16265197D01*
X178789011Y-16277384D01*
G37*
%TD.AperFunction*%
%TA.AperFunction,Conductor*%
G36*
X182193394Y-16124448D02*
G01*
X182260341Y-16144432D01*
X182305860Y-16197440D01*
X182316837Y-16248447D01*
X182316837Y-17001061D01*
X182297152Y-17068100D01*
X182244348Y-17113855D01*
X182192899Y-17125061D01*
X179569515Y-17126364D01*
X179502465Y-17106713D01*
X179456684Y-17053931D01*
X179446706Y-16984778D01*
X179469582Y-16934620D01*
X179467111Y-16932969D01*
X179480816Y-16912457D01*
X179482601Y-16909784D01*
X179536211Y-16864978D01*
X179592192Y-16854842D01*
X179628287Y-16856734D01*
X179649095Y-16848745D01*
X179667736Y-16843223D01*
X179689548Y-16838588D01*
X179691999Y-16836806D01*
X179720463Y-16821352D01*
X179721308Y-16821027D01*
X179723300Y-16820263D01*
X179739063Y-16804498D01*
X179753844Y-16791873D01*
X179771883Y-16778768D01*
X179773403Y-16776133D01*
X179793106Y-16750455D01*
X180390453Y-16153108D01*
X180451772Y-16119626D01*
X180478675Y-16116793D01*
X182193394Y-16124448D01*
G37*
%TD.AperFunction*%
%TD*%
M02*
