%TF.GenerationSoftware,KiCad,Pcbnew,7.0.2-6a45011f42~172~ubuntu22.04.1*%
%TF.CreationDate,2023-07-04T12:36:34+08:00*%
%TF.ProjectId,fly2040_leds,666c7932-3034-4305-9f6c-6564732e6b69,rev?*%
%TF.SameCoordinates,PX3a4ec20PY2569a30*%
%TF.FileFunction,Other,Comment*%
%FSLAX46Y46*%
G04 Gerber Fmt 4.6, Leading zero omitted, Abs format (unit mm)*
G04 Created by KiCad (PCBNEW 7.0.2-6a45011f42~172~ubuntu22.04.1) date 2023-07-04 12:36:34*
%MOMM*%
%LPD*%
G01*
G04 APERTURE LIST*
%ADD10C,0.300000*%
%ADD11C,0.200000*%
G04 APERTURE END LIST*
D10*
X155922553Y-9508928D02*
X155922553Y-10508928D01*
X155565410Y-8937500D02*
X155208267Y-10008928D01*
X155208267Y-10008928D02*
X156136838Y-10008928D01*
X156993981Y-9008928D02*
X157136838Y-9008928D01*
X157136838Y-9008928D02*
X157279695Y-9080357D01*
X157279695Y-9080357D02*
X157351124Y-9151785D01*
X157351124Y-9151785D02*
X157422552Y-9294642D01*
X157422552Y-9294642D02*
X157493981Y-9580357D01*
X157493981Y-9580357D02*
X157493981Y-9937500D01*
X157493981Y-9937500D02*
X157422552Y-10223214D01*
X157422552Y-10223214D02*
X157351124Y-10366071D01*
X157351124Y-10366071D02*
X157279695Y-10437500D01*
X157279695Y-10437500D02*
X157136838Y-10508928D01*
X157136838Y-10508928D02*
X156993981Y-10508928D01*
X156993981Y-10508928D02*
X156851124Y-10437500D01*
X156851124Y-10437500D02*
X156779695Y-10366071D01*
X156779695Y-10366071D02*
X156708266Y-10223214D01*
X156708266Y-10223214D02*
X156636838Y-9937500D01*
X156636838Y-9937500D02*
X156636838Y-9580357D01*
X156636838Y-9580357D02*
X156708266Y-9294642D01*
X156708266Y-9294642D02*
X156779695Y-9151785D01*
X156779695Y-9151785D02*
X156851124Y-9080357D01*
X156851124Y-9080357D02*
X156993981Y-9008928D01*
X158136837Y-10366071D02*
X158208266Y-10437500D01*
X158208266Y-10437500D02*
X158136837Y-10508928D01*
X158136837Y-10508928D02*
X158065409Y-10437500D01*
X158065409Y-10437500D02*
X158136837Y-10366071D01*
X158136837Y-10366071D02*
X158136837Y-10508928D01*
X158922552Y-10508928D02*
X159208266Y-10508928D01*
X159208266Y-10508928D02*
X159351123Y-10437500D01*
X159351123Y-10437500D02*
X159422552Y-10366071D01*
X159422552Y-10366071D02*
X159565409Y-10151785D01*
X159565409Y-10151785D02*
X159636838Y-9866071D01*
X159636838Y-9866071D02*
X159636838Y-9294642D01*
X159636838Y-9294642D02*
X159565409Y-9151785D01*
X159565409Y-9151785D02*
X159493981Y-9080357D01*
X159493981Y-9080357D02*
X159351123Y-9008928D01*
X159351123Y-9008928D02*
X159065409Y-9008928D01*
X159065409Y-9008928D02*
X158922552Y-9080357D01*
X158922552Y-9080357D02*
X158851123Y-9151785D01*
X158851123Y-9151785D02*
X158779695Y-9294642D01*
X158779695Y-9294642D02*
X158779695Y-9651785D01*
X158779695Y-9651785D02*
X158851123Y-9794642D01*
X158851123Y-9794642D02*
X158922552Y-9866071D01*
X158922552Y-9866071D02*
X159065409Y-9937500D01*
X159065409Y-9937500D02*
X159351123Y-9937500D01*
X159351123Y-9937500D02*
X159493981Y-9866071D01*
X159493981Y-9866071D02*
X159565409Y-9794642D01*
X159565409Y-9794642D02*
X159636838Y-9651785D01*
X160208266Y-9151785D02*
X160279694Y-9080357D01*
X160279694Y-9080357D02*
X160422552Y-9008928D01*
X160422552Y-9008928D02*
X160779694Y-9008928D01*
X160779694Y-9008928D02*
X160922552Y-9080357D01*
X160922552Y-9080357D02*
X160993980Y-9151785D01*
X160993980Y-9151785D02*
X161065409Y-9294642D01*
X161065409Y-9294642D02*
X161065409Y-9437500D01*
X161065409Y-9437500D02*
X160993980Y-9651785D01*
X160993980Y-9651785D02*
X160136837Y-10508928D01*
X160136837Y-10508928D02*
X161065409Y-10508928D01*
X161993980Y-9008928D02*
X162136837Y-9008928D01*
X162136837Y-9008928D02*
X162279694Y-9080357D01*
X162279694Y-9080357D02*
X162351123Y-9151785D01*
X162351123Y-9151785D02*
X162422551Y-9294642D01*
X162422551Y-9294642D02*
X162493980Y-9580357D01*
X162493980Y-9580357D02*
X162493980Y-9937500D01*
X162493980Y-9937500D02*
X162422551Y-10223214D01*
X162422551Y-10223214D02*
X162351123Y-10366071D01*
X162351123Y-10366071D02*
X162279694Y-10437500D01*
X162279694Y-10437500D02*
X162136837Y-10508928D01*
X162136837Y-10508928D02*
X161993980Y-10508928D01*
X161993980Y-10508928D02*
X161851123Y-10437500D01*
X161851123Y-10437500D02*
X161779694Y-10366071D01*
X161779694Y-10366071D02*
X161708265Y-10223214D01*
X161708265Y-10223214D02*
X161636837Y-9937500D01*
X161636837Y-9937500D02*
X161636837Y-9580357D01*
X161636837Y-9580357D02*
X161708265Y-9294642D01*
X161708265Y-9294642D02*
X161779694Y-9151785D01*
X161779694Y-9151785D02*
X161851123Y-9080357D01*
X161851123Y-9080357D02*
X161993980Y-9008928D01*
X163422551Y-9008928D02*
X163565408Y-9008928D01*
X163565408Y-9008928D02*
X163708265Y-9080357D01*
X163708265Y-9080357D02*
X163779694Y-9151785D01*
X163779694Y-9151785D02*
X163851122Y-9294642D01*
X163851122Y-9294642D02*
X163922551Y-9580357D01*
X163922551Y-9580357D02*
X163922551Y-9937500D01*
X163922551Y-9937500D02*
X163851122Y-10223214D01*
X163851122Y-10223214D02*
X163779694Y-10366071D01*
X163779694Y-10366071D02*
X163708265Y-10437500D01*
X163708265Y-10437500D02*
X163565408Y-10508928D01*
X163565408Y-10508928D02*
X163422551Y-10508928D01*
X163422551Y-10508928D02*
X163279694Y-10437500D01*
X163279694Y-10437500D02*
X163208265Y-10366071D01*
X163208265Y-10366071D02*
X163136836Y-10223214D01*
X163136836Y-10223214D02*
X163065408Y-9937500D01*
X163065408Y-9937500D02*
X163065408Y-9580357D01*
X163065408Y-9580357D02*
X163136836Y-9294642D01*
X163136836Y-9294642D02*
X163208265Y-9151785D01*
X163208265Y-9151785D02*
X163279694Y-9080357D01*
X163279694Y-9080357D02*
X163422551Y-9008928D01*
X165708264Y-10508928D02*
X165708264Y-9508928D01*
X165708264Y-9651785D02*
X165779693Y-9580357D01*
X165779693Y-9580357D02*
X165922550Y-9508928D01*
X165922550Y-9508928D02*
X166136836Y-9508928D01*
X166136836Y-9508928D02*
X166279693Y-9580357D01*
X166279693Y-9580357D02*
X166351122Y-9723214D01*
X166351122Y-9723214D02*
X166351122Y-10508928D01*
X166351122Y-9723214D02*
X166422550Y-9580357D01*
X166422550Y-9580357D02*
X166565407Y-9508928D01*
X166565407Y-9508928D02*
X166779693Y-9508928D01*
X166779693Y-9508928D02*
X166922550Y-9580357D01*
X166922550Y-9580357D02*
X166993979Y-9723214D01*
X166993979Y-9723214D02*
X166993979Y-10508928D01*
X167708264Y-10508928D02*
X167708264Y-9508928D01*
X167708264Y-9651785D02*
X167779693Y-9580357D01*
X167779693Y-9580357D02*
X167922550Y-9508928D01*
X167922550Y-9508928D02*
X168136836Y-9508928D01*
X168136836Y-9508928D02*
X168279693Y-9580357D01*
X168279693Y-9580357D02*
X168351122Y-9723214D01*
X168351122Y-9723214D02*
X168351122Y-10508928D01*
X168351122Y-9723214D02*
X168422550Y-9580357D01*
X168422550Y-9580357D02*
X168565407Y-9508928D01*
X168565407Y-9508928D02*
X168779693Y-9508928D01*
X168779693Y-9508928D02*
X168922550Y-9580357D01*
X168922550Y-9580357D02*
X168993979Y-9723214D01*
X168993979Y-9723214D02*
X168993979Y-10508928D01*
D11*
X141676837Y-12785000D02*
X141676837Y-11028580D01*
X182596837Y-11028580D02*
X182596837Y-12785000D01*
X141676837Y-11615000D02*
X182596837Y-11615000D01*
X141676837Y-11615000D02*
X182596837Y-11615000D01*
X141676837Y-11615000D02*
X142803341Y-11028579D01*
X141676837Y-11615000D02*
X142803341Y-12201421D01*
X182596837Y-11615000D02*
X181470333Y-12201421D01*
X182596837Y-11615000D02*
X181470333Y-11028579D01*
D10*
X67770765Y-20784999D02*
X68770765Y-20784999D01*
X67199337Y-21142141D02*
X68270765Y-21499284D01*
X68270765Y-21499284D02*
X68270765Y-20570713D01*
X68627908Y-19999285D02*
X68699337Y-19927856D01*
X68699337Y-19927856D02*
X68770765Y-19999285D01*
X68770765Y-19999285D02*
X68699337Y-20070713D01*
X68699337Y-20070713D02*
X68627908Y-19999285D01*
X68627908Y-19999285D02*
X68770765Y-19999285D01*
X67270765Y-18999284D02*
X67270765Y-18856427D01*
X67270765Y-18856427D02*
X67342194Y-18713570D01*
X67342194Y-18713570D02*
X67413622Y-18642142D01*
X67413622Y-18642142D02*
X67556479Y-18570713D01*
X67556479Y-18570713D02*
X67842194Y-18499284D01*
X67842194Y-18499284D02*
X68199337Y-18499284D01*
X68199337Y-18499284D02*
X68485051Y-18570713D01*
X68485051Y-18570713D02*
X68627908Y-18642142D01*
X68627908Y-18642142D02*
X68699337Y-18713570D01*
X68699337Y-18713570D02*
X68770765Y-18856427D01*
X68770765Y-18856427D02*
X68770765Y-18999284D01*
X68770765Y-18999284D02*
X68699337Y-19142142D01*
X68699337Y-19142142D02*
X68627908Y-19213570D01*
X68627908Y-19213570D02*
X68485051Y-19284999D01*
X68485051Y-19284999D02*
X68199337Y-19356427D01*
X68199337Y-19356427D02*
X67842194Y-19356427D01*
X67842194Y-19356427D02*
X67556479Y-19284999D01*
X67556479Y-19284999D02*
X67413622Y-19213570D01*
X67413622Y-19213570D02*
X67342194Y-19142142D01*
X67342194Y-19142142D02*
X67270765Y-18999284D01*
X67270765Y-17570713D02*
X67270765Y-17427856D01*
X67270765Y-17427856D02*
X67342194Y-17284999D01*
X67342194Y-17284999D02*
X67413622Y-17213571D01*
X67413622Y-17213571D02*
X67556479Y-17142142D01*
X67556479Y-17142142D02*
X67842194Y-17070713D01*
X67842194Y-17070713D02*
X68199337Y-17070713D01*
X68199337Y-17070713D02*
X68485051Y-17142142D01*
X68485051Y-17142142D02*
X68627908Y-17213571D01*
X68627908Y-17213571D02*
X68699337Y-17284999D01*
X68699337Y-17284999D02*
X68770765Y-17427856D01*
X68770765Y-17427856D02*
X68770765Y-17570713D01*
X68770765Y-17570713D02*
X68699337Y-17713571D01*
X68699337Y-17713571D02*
X68627908Y-17784999D01*
X68627908Y-17784999D02*
X68485051Y-17856428D01*
X68485051Y-17856428D02*
X68199337Y-17927856D01*
X68199337Y-17927856D02*
X67842194Y-17927856D01*
X67842194Y-17927856D02*
X67556479Y-17856428D01*
X67556479Y-17856428D02*
X67413622Y-17784999D01*
X67413622Y-17784999D02*
X67342194Y-17713571D01*
X67342194Y-17713571D02*
X67270765Y-17570713D01*
X67270765Y-16142142D02*
X67270765Y-15999285D01*
X67270765Y-15999285D02*
X67342194Y-15856428D01*
X67342194Y-15856428D02*
X67413622Y-15785000D01*
X67413622Y-15785000D02*
X67556479Y-15713571D01*
X67556479Y-15713571D02*
X67842194Y-15642142D01*
X67842194Y-15642142D02*
X68199337Y-15642142D01*
X68199337Y-15642142D02*
X68485051Y-15713571D01*
X68485051Y-15713571D02*
X68627908Y-15785000D01*
X68627908Y-15785000D02*
X68699337Y-15856428D01*
X68699337Y-15856428D02*
X68770765Y-15999285D01*
X68770765Y-15999285D02*
X68770765Y-16142142D01*
X68770765Y-16142142D02*
X68699337Y-16285000D01*
X68699337Y-16285000D02*
X68627908Y-16356428D01*
X68627908Y-16356428D02*
X68485051Y-16427857D01*
X68485051Y-16427857D02*
X68199337Y-16499285D01*
X68199337Y-16499285D02*
X67842194Y-16499285D01*
X67842194Y-16499285D02*
X67556479Y-16427857D01*
X67556479Y-16427857D02*
X67413622Y-16356428D01*
X67413622Y-16356428D02*
X67342194Y-16285000D01*
X67342194Y-16285000D02*
X67270765Y-16142142D01*
X67270765Y-14713571D02*
X67270765Y-14570714D01*
X67270765Y-14570714D02*
X67342194Y-14427857D01*
X67342194Y-14427857D02*
X67413622Y-14356429D01*
X67413622Y-14356429D02*
X67556479Y-14285000D01*
X67556479Y-14285000D02*
X67842194Y-14213571D01*
X67842194Y-14213571D02*
X68199337Y-14213571D01*
X68199337Y-14213571D02*
X68485051Y-14285000D01*
X68485051Y-14285000D02*
X68627908Y-14356429D01*
X68627908Y-14356429D02*
X68699337Y-14427857D01*
X68699337Y-14427857D02*
X68770765Y-14570714D01*
X68770765Y-14570714D02*
X68770765Y-14713571D01*
X68770765Y-14713571D02*
X68699337Y-14856429D01*
X68699337Y-14856429D02*
X68627908Y-14927857D01*
X68627908Y-14927857D02*
X68485051Y-14999286D01*
X68485051Y-14999286D02*
X68199337Y-15070714D01*
X68199337Y-15070714D02*
X67842194Y-15070714D01*
X67842194Y-15070714D02*
X67556479Y-14999286D01*
X67556479Y-14999286D02*
X67413622Y-14927857D01*
X67413622Y-14927857D02*
X67342194Y-14856429D01*
X67342194Y-14856429D02*
X67270765Y-14713571D01*
X68770765Y-12427858D02*
X67770765Y-12427858D01*
X67913622Y-12427858D02*
X67842194Y-12356429D01*
X67842194Y-12356429D02*
X67770765Y-12213572D01*
X67770765Y-12213572D02*
X67770765Y-11999286D01*
X67770765Y-11999286D02*
X67842194Y-11856429D01*
X67842194Y-11856429D02*
X67985051Y-11785001D01*
X67985051Y-11785001D02*
X68770765Y-11785001D01*
X67985051Y-11785001D02*
X67842194Y-11713572D01*
X67842194Y-11713572D02*
X67770765Y-11570715D01*
X67770765Y-11570715D02*
X67770765Y-11356429D01*
X67770765Y-11356429D02*
X67842194Y-11213572D01*
X67842194Y-11213572D02*
X67985051Y-11142143D01*
X67985051Y-11142143D02*
X68770765Y-11142143D01*
X68770765Y-10427858D02*
X67770765Y-10427858D01*
X67913622Y-10427858D02*
X67842194Y-10356429D01*
X67842194Y-10356429D02*
X67770765Y-10213572D01*
X67770765Y-10213572D02*
X67770765Y-9999286D01*
X67770765Y-9999286D02*
X67842194Y-9856429D01*
X67842194Y-9856429D02*
X67985051Y-9785001D01*
X67985051Y-9785001D02*
X68770765Y-9785001D01*
X67985051Y-9785001D02*
X67842194Y-9713572D01*
X67842194Y-9713572D02*
X67770765Y-9570715D01*
X67770765Y-9570715D02*
X67770765Y-9356429D01*
X67770765Y-9356429D02*
X67842194Y-9213572D01*
X67842194Y-9213572D02*
X67985051Y-9142143D01*
X67985051Y-9142143D02*
X68770765Y-9142143D01*
D11*
X71006837Y-13285000D02*
X69290417Y-13285000D01*
X69290417Y-17285000D02*
X71006837Y-17285000D01*
X69876837Y-13285000D02*
X69876837Y-17285000D01*
X69876837Y-13285000D02*
X69876837Y-17285000D01*
X69876837Y-13285000D02*
X70463258Y-14411504D01*
X69876837Y-13285000D02*
X69290416Y-14411504D01*
X69876837Y-17285000D02*
X69290416Y-16158496D01*
X69876837Y-17285000D02*
X70463258Y-16158496D01*
D10*
X99541838Y-9008928D02*
X100541838Y-9008928D01*
X100541838Y-9008928D02*
X99898981Y-10508928D01*
X101398981Y-9008928D02*
X101541838Y-9008928D01*
X101541838Y-9008928D02*
X101684695Y-9080357D01*
X101684695Y-9080357D02*
X101756124Y-9151785D01*
X101756124Y-9151785D02*
X101827552Y-9294642D01*
X101827552Y-9294642D02*
X101898981Y-9580357D01*
X101898981Y-9580357D02*
X101898981Y-9937500D01*
X101898981Y-9937500D02*
X101827552Y-10223214D01*
X101827552Y-10223214D02*
X101756124Y-10366071D01*
X101756124Y-10366071D02*
X101684695Y-10437500D01*
X101684695Y-10437500D02*
X101541838Y-10508928D01*
X101541838Y-10508928D02*
X101398981Y-10508928D01*
X101398981Y-10508928D02*
X101256124Y-10437500D01*
X101256124Y-10437500D02*
X101184695Y-10366071D01*
X101184695Y-10366071D02*
X101113266Y-10223214D01*
X101113266Y-10223214D02*
X101041838Y-9937500D01*
X101041838Y-9937500D02*
X101041838Y-9580357D01*
X101041838Y-9580357D02*
X101113266Y-9294642D01*
X101113266Y-9294642D02*
X101184695Y-9151785D01*
X101184695Y-9151785D02*
X101256124Y-9080357D01*
X101256124Y-9080357D02*
X101398981Y-9008928D01*
X102541837Y-10366071D02*
X102613266Y-10437500D01*
X102613266Y-10437500D02*
X102541837Y-10508928D01*
X102541837Y-10508928D02*
X102470409Y-10437500D01*
X102470409Y-10437500D02*
X102541837Y-10366071D01*
X102541837Y-10366071D02*
X102541837Y-10508928D01*
X103184695Y-9151785D02*
X103256123Y-9080357D01*
X103256123Y-9080357D02*
X103398981Y-9008928D01*
X103398981Y-9008928D02*
X103756123Y-9008928D01*
X103756123Y-9008928D02*
X103898981Y-9080357D01*
X103898981Y-9080357D02*
X103970409Y-9151785D01*
X103970409Y-9151785D02*
X104041838Y-9294642D01*
X104041838Y-9294642D02*
X104041838Y-9437500D01*
X104041838Y-9437500D02*
X103970409Y-9651785D01*
X103970409Y-9651785D02*
X103113266Y-10508928D01*
X103113266Y-10508928D02*
X104041838Y-10508928D01*
X104541837Y-9008928D02*
X105541837Y-9008928D01*
X105541837Y-9008928D02*
X104898980Y-10508928D01*
X106398980Y-9008928D02*
X106541837Y-9008928D01*
X106541837Y-9008928D02*
X106684694Y-9080357D01*
X106684694Y-9080357D02*
X106756123Y-9151785D01*
X106756123Y-9151785D02*
X106827551Y-9294642D01*
X106827551Y-9294642D02*
X106898980Y-9580357D01*
X106898980Y-9580357D02*
X106898980Y-9937500D01*
X106898980Y-9937500D02*
X106827551Y-10223214D01*
X106827551Y-10223214D02*
X106756123Y-10366071D01*
X106756123Y-10366071D02*
X106684694Y-10437500D01*
X106684694Y-10437500D02*
X106541837Y-10508928D01*
X106541837Y-10508928D02*
X106398980Y-10508928D01*
X106398980Y-10508928D02*
X106256123Y-10437500D01*
X106256123Y-10437500D02*
X106184694Y-10366071D01*
X106184694Y-10366071D02*
X106113265Y-10223214D01*
X106113265Y-10223214D02*
X106041837Y-9937500D01*
X106041837Y-9937500D02*
X106041837Y-9580357D01*
X106041837Y-9580357D02*
X106113265Y-9294642D01*
X106113265Y-9294642D02*
X106184694Y-9151785D01*
X106184694Y-9151785D02*
X106256123Y-9080357D01*
X106256123Y-9080357D02*
X106398980Y-9008928D01*
X107827551Y-9008928D02*
X107970408Y-9008928D01*
X107970408Y-9008928D02*
X108113265Y-9080357D01*
X108113265Y-9080357D02*
X108184694Y-9151785D01*
X108184694Y-9151785D02*
X108256122Y-9294642D01*
X108256122Y-9294642D02*
X108327551Y-9580357D01*
X108327551Y-9580357D02*
X108327551Y-9937500D01*
X108327551Y-9937500D02*
X108256122Y-10223214D01*
X108256122Y-10223214D02*
X108184694Y-10366071D01*
X108184694Y-10366071D02*
X108113265Y-10437500D01*
X108113265Y-10437500D02*
X107970408Y-10508928D01*
X107970408Y-10508928D02*
X107827551Y-10508928D01*
X107827551Y-10508928D02*
X107684694Y-10437500D01*
X107684694Y-10437500D02*
X107613265Y-10366071D01*
X107613265Y-10366071D02*
X107541836Y-10223214D01*
X107541836Y-10223214D02*
X107470408Y-9937500D01*
X107470408Y-9937500D02*
X107470408Y-9580357D01*
X107470408Y-9580357D02*
X107541836Y-9294642D01*
X107541836Y-9294642D02*
X107613265Y-9151785D01*
X107613265Y-9151785D02*
X107684694Y-9080357D01*
X107684694Y-9080357D02*
X107827551Y-9008928D01*
X110113264Y-10508928D02*
X110113264Y-9508928D01*
X110113264Y-9651785D02*
X110184693Y-9580357D01*
X110184693Y-9580357D02*
X110327550Y-9508928D01*
X110327550Y-9508928D02*
X110541836Y-9508928D01*
X110541836Y-9508928D02*
X110684693Y-9580357D01*
X110684693Y-9580357D02*
X110756122Y-9723214D01*
X110756122Y-9723214D02*
X110756122Y-10508928D01*
X110756122Y-9723214D02*
X110827550Y-9580357D01*
X110827550Y-9580357D02*
X110970407Y-9508928D01*
X110970407Y-9508928D02*
X111184693Y-9508928D01*
X111184693Y-9508928D02*
X111327550Y-9580357D01*
X111327550Y-9580357D02*
X111398979Y-9723214D01*
X111398979Y-9723214D02*
X111398979Y-10508928D01*
X112113264Y-10508928D02*
X112113264Y-9508928D01*
X112113264Y-9651785D02*
X112184693Y-9580357D01*
X112184693Y-9580357D02*
X112327550Y-9508928D01*
X112327550Y-9508928D02*
X112541836Y-9508928D01*
X112541836Y-9508928D02*
X112684693Y-9580357D01*
X112684693Y-9580357D02*
X112756122Y-9723214D01*
X112756122Y-9723214D02*
X112756122Y-10508928D01*
X112756122Y-9723214D02*
X112827550Y-9580357D01*
X112827550Y-9580357D02*
X112970407Y-9508928D01*
X112970407Y-9508928D02*
X113184693Y-9508928D01*
X113184693Y-9508928D02*
X113327550Y-9580357D01*
X113327550Y-9580357D02*
X113398979Y-9723214D01*
X113398979Y-9723214D02*
X113398979Y-10508928D01*
D11*
X141676837Y-12785000D02*
X141676837Y-11028580D01*
X71406837Y-11028580D02*
X71406837Y-12785000D01*
X141676837Y-11615000D02*
X71406837Y-11615000D01*
X141676837Y-11615000D02*
X71406837Y-11615000D01*
X141676837Y-11615000D02*
X140550333Y-12201421D01*
X141676837Y-11615000D02*
X140550333Y-11028579D01*
X71406837Y-11615000D02*
X72533341Y-11028579D01*
X71406837Y-11615000D02*
X72533341Y-12201421D01*
M02*
