M48
; DRILL file {KiCad 7.0.2-6a45011f42~172~ubuntu22.04.1} date Mon Jun 12 10:28:05 2023
; FORMAT={-:-/ absolute / metric / decimal}
; #@! TF.CreationDate,2023-06-12T10:28:05+08:00
; #@! TF.GenerationSoftware,Kicad,Pcbnew,7.0.2-6a45011f42~172~ubuntu22.04.1
; #@! TF.FileFunction,MixedPlating,1,4
FMAT,2
METRIC
; #@! TA.AperFunction,Plated,PTH,ViaDrill
T1C0.200
; #@! TA.AperFunction,Plated,PTH,ComponentDrill
T2C0.500
; #@! TA.AperFunction,Plated,PTH,ComponentDrill
T3C0.650
%
G90
G05
T1
X7.705Y-21.0
X7.705Y-36.56
X7.705Y-52.12
X9.315Y-23.53
X9.315Y-39.09
X9.315Y-54.65
X10.815Y-19.93
X10.815Y-35.49
X10.815Y-51.05
X12.005Y-22.29
X12.005Y-37.85
X12.005Y-53.41
X12.125Y-20.9
X12.125Y-36.46
X12.125Y-52.02
X12.245Y-14.08
X12.245Y-29.64
X12.245Y-45.2
X13.365Y-17.6
X13.365Y-33.16
X13.365Y-48.72
X13.375Y-18.655
X13.375Y-34.215
X13.375Y-49.775
X13.585Y-15.87
X13.585Y-31.43
X13.585Y-46.99
X14.255Y-23.25
X14.255Y-38.81
X14.255Y-54.37
X14.525Y-15.19
X14.525Y-30.75
X14.525Y-46.31
X15.48Y-12.96
X15.48Y-28.52
X15.48Y-44.08
X17.275Y-19.86
X17.275Y-35.42
X17.275Y-50.98
X18.165Y-19.375
X18.165Y-34.935
X18.165Y-50.495
X19.145Y-13.72
X19.145Y-29.28
X19.145Y-44.84
X19.28Y-20.96
X19.28Y-36.52
X19.28Y-52.08
X21.135Y-18.63
X21.135Y-34.19
X21.135Y-49.75
X22.465Y-14.42
X22.465Y-29.98
X22.465Y-45.54
X23.335Y-15.74
X23.335Y-31.3
X23.335Y-46.86
X23.395Y-12.53
X23.395Y-28.09
X23.395Y-43.65
X26.675Y-21.0
X26.675Y-36.56
X26.675Y-52.12
X28.285Y-23.53
X28.285Y-39.09
X28.285Y-54.65
X29.785Y-19.93
X29.785Y-35.49
X29.785Y-51.05
X30.975Y-22.29
X30.975Y-37.85
X30.975Y-53.41
X31.095Y-20.9
X31.095Y-36.46
X31.095Y-52.02
X31.215Y-14.08
X31.215Y-29.64
X31.215Y-45.2
X32.335Y-17.6
X32.335Y-33.16
X32.335Y-48.72
X32.345Y-18.655
X32.345Y-34.215
X32.345Y-49.775
X32.555Y-15.87
X32.555Y-31.43
X32.555Y-46.99
X33.225Y-23.25
X33.225Y-38.81
X33.225Y-54.37
X33.495Y-15.19
X33.495Y-30.75
X33.495Y-46.31
X34.45Y-12.96
X34.45Y-28.52
X34.45Y-44.08
X36.245Y-19.86
X36.245Y-35.42
X36.245Y-50.98
X37.135Y-19.375
X37.135Y-34.935
X37.135Y-50.495
X38.115Y-13.72
X38.115Y-29.28
X38.115Y-44.84
X38.25Y-20.96
X38.25Y-36.52
X38.25Y-52.08
X40.105Y-18.63
X40.105Y-34.19
X40.105Y-49.75
X41.435Y-14.42
X41.435Y-29.98
X41.435Y-45.54
X42.305Y-15.74
X42.305Y-31.3
X42.305Y-46.86
X42.365Y-12.53
X42.365Y-28.09
X42.365Y-43.65
X45.645Y-21.0
X45.645Y-36.56
X45.645Y-52.12
X47.255Y-23.53
X47.255Y-39.09
X47.255Y-54.65
X48.755Y-19.93
X48.755Y-35.49
X48.755Y-51.05
X49.945Y-22.29
X49.945Y-37.85
X49.945Y-53.41
X50.065Y-20.9
X50.065Y-36.46
X50.065Y-52.02
X50.185Y-14.08
X50.185Y-29.64
X50.185Y-45.2
X51.305Y-17.6
X51.305Y-33.16
X51.305Y-48.72
X51.315Y-18.655
X51.315Y-34.215
X51.315Y-49.775
X51.525Y-15.87
X51.525Y-31.43
X51.525Y-46.99
X52.195Y-23.25
X52.195Y-38.81
X52.195Y-54.37
X52.465Y-15.19
X52.465Y-30.75
X52.465Y-46.31
X53.42Y-12.96
X53.42Y-28.52
X53.42Y-44.08
X55.215Y-19.86
X55.215Y-35.42
X55.215Y-50.98
X56.105Y-19.375
X56.105Y-34.935
X56.105Y-50.495
X57.085Y-13.72
X57.085Y-29.28
X57.085Y-44.84
X57.22Y-20.96
X57.22Y-36.52
X57.22Y-52.08
X59.075Y-18.63
X59.075Y-34.19
X59.075Y-49.75
X60.405Y-14.42
X60.405Y-29.98
X60.405Y-45.54
X61.275Y-15.74
X61.275Y-31.3
X61.275Y-46.86
X61.335Y-12.53
X61.335Y-28.09
X61.335Y-43.65
T2
X7.955Y-12.98
X7.955Y-28.54
X7.955Y-44.1
X10.232Y-25.81
X10.232Y-41.37
X10.232Y-56.93
X11.865Y-25.81
X11.865Y-41.37
X11.865Y-56.93
X13.487Y-25.81
X13.487Y-41.37
X13.487Y-56.93
X15.115Y-25.81
X15.115Y-41.37
X15.115Y-56.93
X16.742Y-25.81
X16.742Y-41.37
X16.742Y-56.93
X18.37Y-25.81
X18.37Y-41.37
X18.37Y-56.93
X19.997Y-25.81
X19.997Y-41.37
X19.997Y-56.93
X21.625Y-25.81
X21.625Y-41.37
X21.625Y-56.93
X26.925Y-12.98
X26.925Y-28.54
X26.925Y-44.1
X29.202Y-25.81
X29.202Y-41.37
X29.202Y-56.93
X30.835Y-25.81
X30.835Y-41.37
X30.835Y-56.93
X32.457Y-25.81
X32.457Y-41.37
X32.457Y-56.93
X34.085Y-25.81
X34.085Y-41.37
X34.085Y-56.93
X35.712Y-25.81
X35.712Y-41.37
X35.712Y-56.93
X37.34Y-25.81
X37.34Y-41.37
X37.34Y-56.93
X38.968Y-25.81
X38.968Y-41.37
X38.968Y-56.93
X40.595Y-25.81
X40.595Y-41.37
X40.595Y-56.93
X45.895Y-12.98
X45.895Y-28.54
X45.895Y-44.1
X48.172Y-25.81
X48.172Y-41.37
X48.172Y-56.93
X49.805Y-25.81
X49.805Y-41.37
X49.805Y-56.93
X51.427Y-25.81
X51.427Y-41.37
X51.427Y-56.93
X53.055Y-25.81
X53.055Y-41.37
X53.055Y-56.93
X54.682Y-25.81
X54.682Y-41.37
X54.682Y-56.93
X56.31Y-25.81
X56.31Y-41.37
X56.31Y-56.93
X57.938Y-25.81
X57.938Y-41.37
X57.938Y-56.93
X59.565Y-25.81
X59.565Y-41.37
X59.565Y-56.93
T3
X24.189Y-18.878
X24.189Y-20.148
X24.189Y-21.418
X24.189Y-22.688
X24.189Y-23.958
X24.189Y-25.228
X24.189Y-34.438
X24.189Y-35.708
X24.189Y-36.978
X24.189Y-38.248
X24.189Y-39.518
X24.189Y-40.788
X24.189Y-49.998
X24.189Y-51.268
X24.189Y-52.538
X24.189Y-53.808
X24.189Y-55.078
X24.189Y-56.348
X43.159Y-18.878
X43.159Y-20.148
X43.159Y-21.418
X43.159Y-22.688
X43.159Y-23.958
X43.159Y-25.228
X43.159Y-34.438
X43.159Y-35.708
X43.159Y-36.978
X43.159Y-38.248
X43.159Y-39.518
X43.159Y-40.788
X43.159Y-49.998
X43.159Y-51.268
X43.159Y-52.538
X43.159Y-53.808
X43.159Y-55.078
X43.159Y-56.348
X62.129Y-18.878
X62.129Y-20.148
X62.129Y-21.418
X62.129Y-22.688
X62.129Y-23.958
X62.129Y-25.228
X62.129Y-34.438
X62.129Y-35.708
X62.129Y-36.978
X62.129Y-38.248
X62.129Y-39.518
X62.129Y-40.788
X62.129Y-49.998
X62.129Y-51.268
X62.129Y-52.538
X62.129Y-53.808
X62.129Y-55.078
X62.129Y-56.348
T0
M30
