G04 #@! TF.GenerationSoftware,KiCad,Pcbnew,7.0.2-6a45011f42~172~ubuntu22.04.1*
G04 #@! TF.CreationDate,2023-06-12T10:28:05+08:00*
G04 #@! TF.ProjectId,panel_3_3,70616e65-6c5f-4335-9f33-2e6b69636164,rev?*
G04 #@! TF.SameCoordinates,Original*
G04 #@! TF.FileFunction,Legend,Bot*
G04 #@! TF.FilePolarity,Positive*
%FSLAX46Y46*%
G04 Gerber Fmt 4.6, Leading zero omitted, Abs format (unit mm)*
G04 Created by KiCad (PCBNEW 7.0.2-6a45011f42~172~ubuntu22.04.1) date 2023-06-12 10:28:05*
%MOMM*%
%LPD*%
G01*
G04 APERTURE LIST*
%ADD10C,0.150000*%
G04 APERTURE END LIST*
D10*
X10715000Y-37970476D02*
X10762619Y-38113333D01*
X10762619Y-38113333D02*
X10762619Y-38351428D01*
X10762619Y-38351428D02*
X10715000Y-38446666D01*
X10715000Y-38446666D02*
X10667380Y-38494285D01*
X10667380Y-38494285D02*
X10572142Y-38541904D01*
X10572142Y-38541904D02*
X10476904Y-38541904D01*
X10476904Y-38541904D02*
X10381666Y-38494285D01*
X10381666Y-38494285D02*
X10334047Y-38446666D01*
X10334047Y-38446666D02*
X10286428Y-38351428D01*
X10286428Y-38351428D02*
X10238809Y-38160952D01*
X10238809Y-38160952D02*
X10191190Y-38065714D01*
X10191190Y-38065714D02*
X10143571Y-38018095D01*
X10143571Y-38018095D02*
X10048333Y-37970476D01*
X10048333Y-37970476D02*
X9953095Y-37970476D01*
X9953095Y-37970476D02*
X9857857Y-38018095D01*
X9857857Y-38018095D02*
X9810238Y-38065714D01*
X9810238Y-38065714D02*
X9762619Y-38160952D01*
X9762619Y-38160952D02*
X9762619Y-38399047D01*
X9762619Y-38399047D02*
X9810238Y-38541904D01*
X10667380Y-39541904D02*
X10715000Y-39494285D01*
X10715000Y-39494285D02*
X10762619Y-39351428D01*
X10762619Y-39351428D02*
X10762619Y-39256190D01*
X10762619Y-39256190D02*
X10715000Y-39113333D01*
X10715000Y-39113333D02*
X10619761Y-39018095D01*
X10619761Y-39018095D02*
X10524523Y-38970476D01*
X10524523Y-38970476D02*
X10334047Y-38922857D01*
X10334047Y-38922857D02*
X10191190Y-38922857D01*
X10191190Y-38922857D02*
X10000714Y-38970476D01*
X10000714Y-38970476D02*
X9905476Y-39018095D01*
X9905476Y-39018095D02*
X9810238Y-39113333D01*
X9810238Y-39113333D02*
X9762619Y-39256190D01*
X9762619Y-39256190D02*
X9762619Y-39351428D01*
X9762619Y-39351428D02*
X9810238Y-39494285D01*
X9810238Y-39494285D02*
X9857857Y-39541904D01*
X10762619Y-40446666D02*
X10762619Y-39970476D01*
X10762619Y-39970476D02*
X9762619Y-39970476D01*
X18772380Y-38454523D02*
X18820000Y-38406904D01*
X18820000Y-38406904D02*
X18867619Y-38264047D01*
X18867619Y-38264047D02*
X18867619Y-38168809D01*
X18867619Y-38168809D02*
X18820000Y-38025952D01*
X18820000Y-38025952D02*
X18724761Y-37930714D01*
X18724761Y-37930714D02*
X18629523Y-37883095D01*
X18629523Y-37883095D02*
X18439047Y-37835476D01*
X18439047Y-37835476D02*
X18296190Y-37835476D01*
X18296190Y-37835476D02*
X18105714Y-37883095D01*
X18105714Y-37883095D02*
X18010476Y-37930714D01*
X18010476Y-37930714D02*
X17915238Y-38025952D01*
X17915238Y-38025952D02*
X17867619Y-38168809D01*
X17867619Y-38168809D02*
X17867619Y-38264047D01*
X17867619Y-38264047D02*
X17915238Y-38406904D01*
X17915238Y-38406904D02*
X17962857Y-38454523D01*
X18867619Y-38883095D02*
X17867619Y-38883095D01*
X17867619Y-38883095D02*
X18581904Y-39216428D01*
X18581904Y-39216428D02*
X17867619Y-39549761D01*
X17867619Y-39549761D02*
X18867619Y-39549761D01*
X18867619Y-40025952D02*
X17867619Y-40025952D01*
X17867619Y-40025952D02*
X17867619Y-40264047D01*
X17867619Y-40264047D02*
X17915238Y-40406904D01*
X17915238Y-40406904D02*
X18010476Y-40502142D01*
X18010476Y-40502142D02*
X18105714Y-40549761D01*
X18105714Y-40549761D02*
X18296190Y-40597380D01*
X18296190Y-40597380D02*
X18439047Y-40597380D01*
X18439047Y-40597380D02*
X18629523Y-40549761D01*
X18629523Y-40549761D02*
X18724761Y-40502142D01*
X18724761Y-40502142D02*
X18820000Y-40406904D01*
X18820000Y-40406904D02*
X18867619Y-40264047D01*
X18867619Y-40264047D02*
X18867619Y-40025952D01*
X12265000Y-37970476D02*
X12312619Y-38113333D01*
X12312619Y-38113333D02*
X12312619Y-38351428D01*
X12312619Y-38351428D02*
X12265000Y-38446666D01*
X12265000Y-38446666D02*
X12217380Y-38494285D01*
X12217380Y-38494285D02*
X12122142Y-38541904D01*
X12122142Y-38541904D02*
X12026904Y-38541904D01*
X12026904Y-38541904D02*
X11931666Y-38494285D01*
X11931666Y-38494285D02*
X11884047Y-38446666D01*
X11884047Y-38446666D02*
X11836428Y-38351428D01*
X11836428Y-38351428D02*
X11788809Y-38160952D01*
X11788809Y-38160952D02*
X11741190Y-38065714D01*
X11741190Y-38065714D02*
X11693571Y-38018095D01*
X11693571Y-38018095D02*
X11598333Y-37970476D01*
X11598333Y-37970476D02*
X11503095Y-37970476D01*
X11503095Y-37970476D02*
X11407857Y-38018095D01*
X11407857Y-38018095D02*
X11360238Y-38065714D01*
X11360238Y-38065714D02*
X11312619Y-38160952D01*
X11312619Y-38160952D02*
X11312619Y-38399047D01*
X11312619Y-38399047D02*
X11360238Y-38541904D01*
X12312619Y-38970476D02*
X11312619Y-38970476D01*
X11312619Y-38970476D02*
X11312619Y-39208571D01*
X11312619Y-39208571D02*
X11360238Y-39351428D01*
X11360238Y-39351428D02*
X11455476Y-39446666D01*
X11455476Y-39446666D02*
X11550714Y-39494285D01*
X11550714Y-39494285D02*
X11741190Y-39541904D01*
X11741190Y-39541904D02*
X11884047Y-39541904D01*
X11884047Y-39541904D02*
X12074523Y-39494285D01*
X12074523Y-39494285D02*
X12169761Y-39446666D01*
X12169761Y-39446666D02*
X12265000Y-39351428D01*
X12265000Y-39351428D02*
X12312619Y-39208571D01*
X12312619Y-39208571D02*
X12312619Y-38970476D01*
X12026904Y-39922857D02*
X12026904Y-40399047D01*
X12312619Y-39827619D02*
X11312619Y-40160952D01*
X11312619Y-40160952D02*
X12312619Y-40494285D01*
X39512619Y-39038095D02*
X38512619Y-39038095D01*
X38512619Y-39038095D02*
X38512619Y-39276190D01*
X38512619Y-39276190D02*
X38560238Y-39419047D01*
X38560238Y-39419047D02*
X38655476Y-39514285D01*
X38655476Y-39514285D02*
X38750714Y-39561904D01*
X38750714Y-39561904D02*
X38941190Y-39609523D01*
X38941190Y-39609523D02*
X39084047Y-39609523D01*
X39084047Y-39609523D02*
X39274523Y-39561904D01*
X39274523Y-39561904D02*
X39369761Y-39514285D01*
X39369761Y-39514285D02*
X39465000Y-39419047D01*
X39465000Y-39419047D02*
X39512619Y-39276190D01*
X39512619Y-39276190D02*
X39512619Y-39038095D01*
X38512619Y-40228571D02*
X38512619Y-40323809D01*
X38512619Y-40323809D02*
X38560238Y-40419047D01*
X38560238Y-40419047D02*
X38607857Y-40466666D01*
X38607857Y-40466666D02*
X38703095Y-40514285D01*
X38703095Y-40514285D02*
X38893571Y-40561904D01*
X38893571Y-40561904D02*
X39131666Y-40561904D01*
X39131666Y-40561904D02*
X39322142Y-40514285D01*
X39322142Y-40514285D02*
X39417380Y-40466666D01*
X39417380Y-40466666D02*
X39465000Y-40419047D01*
X39465000Y-40419047D02*
X39512619Y-40323809D01*
X39512619Y-40323809D02*
X39512619Y-40228571D01*
X39512619Y-40228571D02*
X39465000Y-40133333D01*
X39465000Y-40133333D02*
X39417380Y-40085714D01*
X39417380Y-40085714D02*
X39322142Y-40038095D01*
X39322142Y-40038095D02*
X39131666Y-39990476D01*
X39131666Y-39990476D02*
X38893571Y-39990476D01*
X38893571Y-39990476D02*
X38703095Y-40038095D01*
X38703095Y-40038095D02*
X38607857Y-40085714D01*
X38607857Y-40085714D02*
X38560238Y-40133333D01*
X38560238Y-40133333D02*
X38512619Y-40228571D01*
X61346904Y-53826666D02*
X60585000Y-53826666D01*
X50205000Y-53530476D02*
X50252619Y-53673333D01*
X50252619Y-53673333D02*
X50252619Y-53911428D01*
X50252619Y-53911428D02*
X50205000Y-54006666D01*
X50205000Y-54006666D02*
X50157380Y-54054285D01*
X50157380Y-54054285D02*
X50062142Y-54101904D01*
X50062142Y-54101904D02*
X49966904Y-54101904D01*
X49966904Y-54101904D02*
X49871666Y-54054285D01*
X49871666Y-54054285D02*
X49824047Y-54006666D01*
X49824047Y-54006666D02*
X49776428Y-53911428D01*
X49776428Y-53911428D02*
X49728809Y-53720952D01*
X49728809Y-53720952D02*
X49681190Y-53625714D01*
X49681190Y-53625714D02*
X49633571Y-53578095D01*
X49633571Y-53578095D02*
X49538333Y-53530476D01*
X49538333Y-53530476D02*
X49443095Y-53530476D01*
X49443095Y-53530476D02*
X49347857Y-53578095D01*
X49347857Y-53578095D02*
X49300238Y-53625714D01*
X49300238Y-53625714D02*
X49252619Y-53720952D01*
X49252619Y-53720952D02*
X49252619Y-53959047D01*
X49252619Y-53959047D02*
X49300238Y-54101904D01*
X50252619Y-54530476D02*
X49252619Y-54530476D01*
X49252619Y-54530476D02*
X49252619Y-54768571D01*
X49252619Y-54768571D02*
X49300238Y-54911428D01*
X49300238Y-54911428D02*
X49395476Y-55006666D01*
X49395476Y-55006666D02*
X49490714Y-55054285D01*
X49490714Y-55054285D02*
X49681190Y-55101904D01*
X49681190Y-55101904D02*
X49824047Y-55101904D01*
X49824047Y-55101904D02*
X50014523Y-55054285D01*
X50014523Y-55054285D02*
X50109761Y-55006666D01*
X50109761Y-55006666D02*
X50205000Y-54911428D01*
X50205000Y-54911428D02*
X50252619Y-54768571D01*
X50252619Y-54768571D02*
X50252619Y-54530476D01*
X49966904Y-55482857D02*
X49966904Y-55959047D01*
X50252619Y-55387619D02*
X49252619Y-55720952D01*
X49252619Y-55720952D02*
X50252619Y-56054285D01*
X12265000Y-53530476D02*
X12312619Y-53673333D01*
X12312619Y-53673333D02*
X12312619Y-53911428D01*
X12312619Y-53911428D02*
X12265000Y-54006666D01*
X12265000Y-54006666D02*
X12217380Y-54054285D01*
X12217380Y-54054285D02*
X12122142Y-54101904D01*
X12122142Y-54101904D02*
X12026904Y-54101904D01*
X12026904Y-54101904D02*
X11931666Y-54054285D01*
X11931666Y-54054285D02*
X11884047Y-54006666D01*
X11884047Y-54006666D02*
X11836428Y-53911428D01*
X11836428Y-53911428D02*
X11788809Y-53720952D01*
X11788809Y-53720952D02*
X11741190Y-53625714D01*
X11741190Y-53625714D02*
X11693571Y-53578095D01*
X11693571Y-53578095D02*
X11598333Y-53530476D01*
X11598333Y-53530476D02*
X11503095Y-53530476D01*
X11503095Y-53530476D02*
X11407857Y-53578095D01*
X11407857Y-53578095D02*
X11360238Y-53625714D01*
X11360238Y-53625714D02*
X11312619Y-53720952D01*
X11312619Y-53720952D02*
X11312619Y-53959047D01*
X11312619Y-53959047D02*
X11360238Y-54101904D01*
X12312619Y-54530476D02*
X11312619Y-54530476D01*
X11312619Y-54530476D02*
X11312619Y-54768571D01*
X11312619Y-54768571D02*
X11360238Y-54911428D01*
X11360238Y-54911428D02*
X11455476Y-55006666D01*
X11455476Y-55006666D02*
X11550714Y-55054285D01*
X11550714Y-55054285D02*
X11741190Y-55101904D01*
X11741190Y-55101904D02*
X11884047Y-55101904D01*
X11884047Y-55101904D02*
X12074523Y-55054285D01*
X12074523Y-55054285D02*
X12169761Y-55006666D01*
X12169761Y-55006666D02*
X12265000Y-54911428D01*
X12265000Y-54911428D02*
X12312619Y-54768571D01*
X12312619Y-54768571D02*
X12312619Y-54530476D01*
X12026904Y-55482857D02*
X12026904Y-55959047D01*
X12312619Y-55387619D02*
X11312619Y-55720952D01*
X11312619Y-55720952D02*
X12312619Y-56054285D01*
X36132380Y-23184523D02*
X36180000Y-23136904D01*
X36180000Y-23136904D02*
X36227619Y-22994047D01*
X36227619Y-22994047D02*
X36227619Y-22898809D01*
X36227619Y-22898809D02*
X36180000Y-22755952D01*
X36180000Y-22755952D02*
X36084761Y-22660714D01*
X36084761Y-22660714D02*
X35989523Y-22613095D01*
X35989523Y-22613095D02*
X35799047Y-22565476D01*
X35799047Y-22565476D02*
X35656190Y-22565476D01*
X35656190Y-22565476D02*
X35465714Y-22613095D01*
X35465714Y-22613095D02*
X35370476Y-22660714D01*
X35370476Y-22660714D02*
X35275238Y-22755952D01*
X35275238Y-22755952D02*
X35227619Y-22898809D01*
X35227619Y-22898809D02*
X35227619Y-22994047D01*
X35227619Y-22994047D02*
X35275238Y-23136904D01*
X35275238Y-23136904D02*
X35322857Y-23184523D01*
X36227619Y-24089285D02*
X36227619Y-23613095D01*
X36227619Y-23613095D02*
X35227619Y-23613095D01*
X36227619Y-24422619D02*
X35227619Y-24422619D01*
X36227619Y-24994047D02*
X35656190Y-24565476D01*
X35227619Y-24994047D02*
X35799047Y-24422619D01*
X61436904Y-52556666D02*
X60675000Y-52556666D01*
X61055952Y-52937619D02*
X61055952Y-52175714D01*
X17162380Y-38744523D02*
X17210000Y-38696904D01*
X17210000Y-38696904D02*
X17257619Y-38554047D01*
X17257619Y-38554047D02*
X17257619Y-38458809D01*
X17257619Y-38458809D02*
X17210000Y-38315952D01*
X17210000Y-38315952D02*
X17114761Y-38220714D01*
X17114761Y-38220714D02*
X17019523Y-38173095D01*
X17019523Y-38173095D02*
X16829047Y-38125476D01*
X16829047Y-38125476D02*
X16686190Y-38125476D01*
X16686190Y-38125476D02*
X16495714Y-38173095D01*
X16495714Y-38173095D02*
X16400476Y-38220714D01*
X16400476Y-38220714D02*
X16305238Y-38315952D01*
X16305238Y-38315952D02*
X16257619Y-38458809D01*
X16257619Y-38458809D02*
X16257619Y-38554047D01*
X16257619Y-38554047D02*
X16305238Y-38696904D01*
X16305238Y-38696904D02*
X16352857Y-38744523D01*
X17257619Y-39649285D02*
X17257619Y-39173095D01*
X17257619Y-39173095D02*
X16257619Y-39173095D01*
X17257619Y-39982619D02*
X16257619Y-39982619D01*
X17257619Y-40554047D02*
X16686190Y-40125476D01*
X16257619Y-40554047D02*
X16829047Y-39982619D01*
X50970238Y-22891904D02*
X50922619Y-22796666D01*
X50922619Y-22796666D02*
X50922619Y-22653809D01*
X50922619Y-22653809D02*
X50970238Y-22510952D01*
X50970238Y-22510952D02*
X51065476Y-22415714D01*
X51065476Y-22415714D02*
X51160714Y-22368095D01*
X51160714Y-22368095D02*
X51351190Y-22320476D01*
X51351190Y-22320476D02*
X51494047Y-22320476D01*
X51494047Y-22320476D02*
X51684523Y-22368095D01*
X51684523Y-22368095D02*
X51779761Y-22415714D01*
X51779761Y-22415714D02*
X51875000Y-22510952D01*
X51875000Y-22510952D02*
X51922619Y-22653809D01*
X51922619Y-22653809D02*
X51922619Y-22749047D01*
X51922619Y-22749047D02*
X51875000Y-22891904D01*
X51875000Y-22891904D02*
X51827380Y-22939523D01*
X51827380Y-22939523D02*
X51494047Y-22939523D01*
X51494047Y-22939523D02*
X51494047Y-22749047D01*
X51922619Y-23368095D02*
X50922619Y-23368095D01*
X50922619Y-23368095D02*
X51922619Y-23939523D01*
X51922619Y-23939523D02*
X50922619Y-23939523D01*
X51922619Y-24415714D02*
X50922619Y-24415714D01*
X50922619Y-24415714D02*
X50922619Y-24653809D01*
X50922619Y-24653809D02*
X50970238Y-24796666D01*
X50970238Y-24796666D02*
X51065476Y-24891904D01*
X51065476Y-24891904D02*
X51160714Y-24939523D01*
X51160714Y-24939523D02*
X51351190Y-24987142D01*
X51351190Y-24987142D02*
X51494047Y-24987142D01*
X51494047Y-24987142D02*
X51684523Y-24939523D01*
X51684523Y-24939523D02*
X51779761Y-24891904D01*
X51779761Y-24891904D02*
X51875000Y-24796666D01*
X51875000Y-24796666D02*
X51922619Y-24653809D01*
X51922619Y-24653809D02*
X51922619Y-24415714D01*
X56712380Y-22894523D02*
X56760000Y-22846904D01*
X56760000Y-22846904D02*
X56807619Y-22704047D01*
X56807619Y-22704047D02*
X56807619Y-22608809D01*
X56807619Y-22608809D02*
X56760000Y-22465952D01*
X56760000Y-22465952D02*
X56664761Y-22370714D01*
X56664761Y-22370714D02*
X56569523Y-22323095D01*
X56569523Y-22323095D02*
X56379047Y-22275476D01*
X56379047Y-22275476D02*
X56236190Y-22275476D01*
X56236190Y-22275476D02*
X56045714Y-22323095D01*
X56045714Y-22323095D02*
X55950476Y-22370714D01*
X55950476Y-22370714D02*
X55855238Y-22465952D01*
X55855238Y-22465952D02*
X55807619Y-22608809D01*
X55807619Y-22608809D02*
X55807619Y-22704047D01*
X55807619Y-22704047D02*
X55855238Y-22846904D01*
X55855238Y-22846904D02*
X55902857Y-22894523D01*
X56807619Y-23323095D02*
X55807619Y-23323095D01*
X55807619Y-23323095D02*
X56521904Y-23656428D01*
X56521904Y-23656428D02*
X55807619Y-23989761D01*
X55807619Y-23989761D02*
X56807619Y-23989761D01*
X56807619Y-24465952D02*
X55807619Y-24465952D01*
X55807619Y-24465952D02*
X55807619Y-24704047D01*
X55807619Y-24704047D02*
X55855238Y-24846904D01*
X55855238Y-24846904D02*
X55950476Y-24942142D01*
X55950476Y-24942142D02*
X56045714Y-24989761D01*
X56045714Y-24989761D02*
X56236190Y-25037380D01*
X56236190Y-25037380D02*
X56379047Y-25037380D01*
X56379047Y-25037380D02*
X56569523Y-24989761D01*
X56569523Y-24989761D02*
X56664761Y-24942142D01*
X56664761Y-24942142D02*
X56760000Y-24846904D01*
X56760000Y-24846904D02*
X56807619Y-24704047D01*
X56807619Y-24704047D02*
X56807619Y-24465952D01*
X29685000Y-53530476D02*
X29732619Y-53673333D01*
X29732619Y-53673333D02*
X29732619Y-53911428D01*
X29732619Y-53911428D02*
X29685000Y-54006666D01*
X29685000Y-54006666D02*
X29637380Y-54054285D01*
X29637380Y-54054285D02*
X29542142Y-54101904D01*
X29542142Y-54101904D02*
X29446904Y-54101904D01*
X29446904Y-54101904D02*
X29351666Y-54054285D01*
X29351666Y-54054285D02*
X29304047Y-54006666D01*
X29304047Y-54006666D02*
X29256428Y-53911428D01*
X29256428Y-53911428D02*
X29208809Y-53720952D01*
X29208809Y-53720952D02*
X29161190Y-53625714D01*
X29161190Y-53625714D02*
X29113571Y-53578095D01*
X29113571Y-53578095D02*
X29018333Y-53530476D01*
X29018333Y-53530476D02*
X28923095Y-53530476D01*
X28923095Y-53530476D02*
X28827857Y-53578095D01*
X28827857Y-53578095D02*
X28780238Y-53625714D01*
X28780238Y-53625714D02*
X28732619Y-53720952D01*
X28732619Y-53720952D02*
X28732619Y-53959047D01*
X28732619Y-53959047D02*
X28780238Y-54101904D01*
X29637380Y-55101904D02*
X29685000Y-55054285D01*
X29685000Y-55054285D02*
X29732619Y-54911428D01*
X29732619Y-54911428D02*
X29732619Y-54816190D01*
X29732619Y-54816190D02*
X29685000Y-54673333D01*
X29685000Y-54673333D02*
X29589761Y-54578095D01*
X29589761Y-54578095D02*
X29494523Y-54530476D01*
X29494523Y-54530476D02*
X29304047Y-54482857D01*
X29304047Y-54482857D02*
X29161190Y-54482857D01*
X29161190Y-54482857D02*
X28970714Y-54530476D01*
X28970714Y-54530476D02*
X28875476Y-54578095D01*
X28875476Y-54578095D02*
X28780238Y-54673333D01*
X28780238Y-54673333D02*
X28732619Y-54816190D01*
X28732619Y-54816190D02*
X28732619Y-54911428D01*
X28732619Y-54911428D02*
X28780238Y-55054285D01*
X28780238Y-55054285D02*
X28827857Y-55101904D01*
X29732619Y-56006666D02*
X29732619Y-55530476D01*
X29732619Y-55530476D02*
X28732619Y-55530476D01*
X22805476Y-19357619D02*
X23138809Y-18881428D01*
X23376904Y-19357619D02*
X23376904Y-18357619D01*
X23376904Y-18357619D02*
X22995952Y-18357619D01*
X22995952Y-18357619D02*
X22900714Y-18405238D01*
X22900714Y-18405238D02*
X22853095Y-18452857D01*
X22853095Y-18452857D02*
X22805476Y-18548095D01*
X22805476Y-18548095D02*
X22805476Y-18690952D01*
X22805476Y-18690952D02*
X22853095Y-18786190D01*
X22853095Y-18786190D02*
X22900714Y-18833809D01*
X22900714Y-18833809D02*
X22995952Y-18881428D01*
X22995952Y-18881428D02*
X23376904Y-18881428D01*
X27337380Y-14479523D02*
X27385000Y-14431904D01*
X27385000Y-14431904D02*
X27432619Y-14289047D01*
X27432619Y-14289047D02*
X27432619Y-14193809D01*
X27432619Y-14193809D02*
X27385000Y-14050952D01*
X27385000Y-14050952D02*
X27289761Y-13955714D01*
X27289761Y-13955714D02*
X27194523Y-13908095D01*
X27194523Y-13908095D02*
X27004047Y-13860476D01*
X27004047Y-13860476D02*
X26861190Y-13860476D01*
X26861190Y-13860476D02*
X26670714Y-13908095D01*
X26670714Y-13908095D02*
X26575476Y-13955714D01*
X26575476Y-13955714D02*
X26480238Y-14050952D01*
X26480238Y-14050952D02*
X26432619Y-14193809D01*
X26432619Y-14193809D02*
X26432619Y-14289047D01*
X26432619Y-14289047D02*
X26480238Y-14431904D01*
X26480238Y-14431904D02*
X26527857Y-14479523D01*
X27432619Y-14908095D02*
X26432619Y-14908095D01*
X26432619Y-14908095D02*
X26432619Y-15289047D01*
X26432619Y-15289047D02*
X26480238Y-15384285D01*
X26480238Y-15384285D02*
X26527857Y-15431904D01*
X26527857Y-15431904D02*
X26623095Y-15479523D01*
X26623095Y-15479523D02*
X26765952Y-15479523D01*
X26765952Y-15479523D02*
X26861190Y-15431904D01*
X26861190Y-15431904D02*
X26908809Y-15384285D01*
X26908809Y-15384285D02*
X26956428Y-15289047D01*
X26956428Y-15289047D02*
X26956428Y-14908095D01*
X26432619Y-15908095D02*
X27242142Y-15908095D01*
X27242142Y-15908095D02*
X27337380Y-15955714D01*
X27337380Y-15955714D02*
X27385000Y-16003333D01*
X27385000Y-16003333D02*
X27432619Y-16098571D01*
X27432619Y-16098571D02*
X27432619Y-16289047D01*
X27432619Y-16289047D02*
X27385000Y-16384285D01*
X27385000Y-16384285D02*
X27337380Y-16431904D01*
X27337380Y-16431904D02*
X27242142Y-16479523D01*
X27242142Y-16479523D02*
X26432619Y-16479523D01*
X32000238Y-38451904D02*
X31952619Y-38356666D01*
X31952619Y-38356666D02*
X31952619Y-38213809D01*
X31952619Y-38213809D02*
X32000238Y-38070952D01*
X32000238Y-38070952D02*
X32095476Y-37975714D01*
X32095476Y-37975714D02*
X32190714Y-37928095D01*
X32190714Y-37928095D02*
X32381190Y-37880476D01*
X32381190Y-37880476D02*
X32524047Y-37880476D01*
X32524047Y-37880476D02*
X32714523Y-37928095D01*
X32714523Y-37928095D02*
X32809761Y-37975714D01*
X32809761Y-37975714D02*
X32905000Y-38070952D01*
X32905000Y-38070952D02*
X32952619Y-38213809D01*
X32952619Y-38213809D02*
X32952619Y-38309047D01*
X32952619Y-38309047D02*
X32905000Y-38451904D01*
X32905000Y-38451904D02*
X32857380Y-38499523D01*
X32857380Y-38499523D02*
X32524047Y-38499523D01*
X32524047Y-38499523D02*
X32524047Y-38309047D01*
X32952619Y-38928095D02*
X31952619Y-38928095D01*
X31952619Y-38928095D02*
X32952619Y-39499523D01*
X32952619Y-39499523D02*
X31952619Y-39499523D01*
X32952619Y-39975714D02*
X31952619Y-39975714D01*
X31952619Y-39975714D02*
X31952619Y-40213809D01*
X31952619Y-40213809D02*
X32000238Y-40356666D01*
X32000238Y-40356666D02*
X32095476Y-40451904D01*
X32095476Y-40451904D02*
X32190714Y-40499523D01*
X32190714Y-40499523D02*
X32381190Y-40547142D01*
X32381190Y-40547142D02*
X32524047Y-40547142D01*
X32524047Y-40547142D02*
X32714523Y-40499523D01*
X32714523Y-40499523D02*
X32809761Y-40451904D01*
X32809761Y-40451904D02*
X32905000Y-40356666D01*
X32905000Y-40356666D02*
X32952619Y-40213809D01*
X32952619Y-40213809D02*
X32952619Y-39975714D01*
X17162380Y-23184523D02*
X17210000Y-23136904D01*
X17210000Y-23136904D02*
X17257619Y-22994047D01*
X17257619Y-22994047D02*
X17257619Y-22898809D01*
X17257619Y-22898809D02*
X17210000Y-22755952D01*
X17210000Y-22755952D02*
X17114761Y-22660714D01*
X17114761Y-22660714D02*
X17019523Y-22613095D01*
X17019523Y-22613095D02*
X16829047Y-22565476D01*
X16829047Y-22565476D02*
X16686190Y-22565476D01*
X16686190Y-22565476D02*
X16495714Y-22613095D01*
X16495714Y-22613095D02*
X16400476Y-22660714D01*
X16400476Y-22660714D02*
X16305238Y-22755952D01*
X16305238Y-22755952D02*
X16257619Y-22898809D01*
X16257619Y-22898809D02*
X16257619Y-22994047D01*
X16257619Y-22994047D02*
X16305238Y-23136904D01*
X16305238Y-23136904D02*
X16352857Y-23184523D01*
X17257619Y-24089285D02*
X17257619Y-23613095D01*
X17257619Y-23613095D02*
X16257619Y-23613095D01*
X17257619Y-24422619D02*
X16257619Y-24422619D01*
X17257619Y-24994047D02*
X16686190Y-24565476D01*
X16257619Y-24994047D02*
X16829047Y-24422619D01*
X41775476Y-34917619D02*
X42108809Y-34441428D01*
X42346904Y-34917619D02*
X42346904Y-33917619D01*
X42346904Y-33917619D02*
X41965952Y-33917619D01*
X41965952Y-33917619D02*
X41870714Y-33965238D01*
X41870714Y-33965238D02*
X41823095Y-34012857D01*
X41823095Y-34012857D02*
X41775476Y-34108095D01*
X41775476Y-34108095D02*
X41775476Y-34250952D01*
X41775476Y-34250952D02*
X41823095Y-34346190D01*
X41823095Y-34346190D02*
X41870714Y-34393809D01*
X41870714Y-34393809D02*
X41965952Y-34441428D01*
X41965952Y-34441428D02*
X42346904Y-34441428D01*
X32000238Y-54011904D02*
X31952619Y-53916666D01*
X31952619Y-53916666D02*
X31952619Y-53773809D01*
X31952619Y-53773809D02*
X32000238Y-53630952D01*
X32000238Y-53630952D02*
X32095476Y-53535714D01*
X32095476Y-53535714D02*
X32190714Y-53488095D01*
X32190714Y-53488095D02*
X32381190Y-53440476D01*
X32381190Y-53440476D02*
X32524047Y-53440476D01*
X32524047Y-53440476D02*
X32714523Y-53488095D01*
X32714523Y-53488095D02*
X32809761Y-53535714D01*
X32809761Y-53535714D02*
X32905000Y-53630952D01*
X32905000Y-53630952D02*
X32952619Y-53773809D01*
X32952619Y-53773809D02*
X32952619Y-53869047D01*
X32952619Y-53869047D02*
X32905000Y-54011904D01*
X32905000Y-54011904D02*
X32857380Y-54059523D01*
X32857380Y-54059523D02*
X32524047Y-54059523D01*
X32524047Y-54059523D02*
X32524047Y-53869047D01*
X32952619Y-54488095D02*
X31952619Y-54488095D01*
X31952619Y-54488095D02*
X32952619Y-55059523D01*
X32952619Y-55059523D02*
X31952619Y-55059523D01*
X32952619Y-55535714D02*
X31952619Y-55535714D01*
X31952619Y-55535714D02*
X31952619Y-55773809D01*
X31952619Y-55773809D02*
X32000238Y-55916666D01*
X32000238Y-55916666D02*
X32095476Y-56011904D01*
X32095476Y-56011904D02*
X32190714Y-56059523D01*
X32190714Y-56059523D02*
X32381190Y-56107142D01*
X32381190Y-56107142D02*
X32524047Y-56107142D01*
X32524047Y-56107142D02*
X32714523Y-56059523D01*
X32714523Y-56059523D02*
X32809761Y-56011904D01*
X32809761Y-56011904D02*
X32905000Y-55916666D01*
X32905000Y-55916666D02*
X32952619Y-55773809D01*
X32952619Y-55773809D02*
X32952619Y-55535714D01*
X23406904Y-53826666D02*
X22645000Y-53826666D01*
X40082619Y-53692857D02*
X40082619Y-54311904D01*
X40082619Y-54311904D02*
X40463571Y-53978571D01*
X40463571Y-53978571D02*
X40463571Y-54121428D01*
X40463571Y-54121428D02*
X40511190Y-54216666D01*
X40511190Y-54216666D02*
X40558809Y-54264285D01*
X40558809Y-54264285D02*
X40654047Y-54311904D01*
X40654047Y-54311904D02*
X40892142Y-54311904D01*
X40892142Y-54311904D02*
X40987380Y-54264285D01*
X40987380Y-54264285D02*
X41035000Y-54216666D01*
X41035000Y-54216666D02*
X41082619Y-54121428D01*
X41082619Y-54121428D02*
X41082619Y-53835714D01*
X41082619Y-53835714D02*
X41035000Y-53740476D01*
X41035000Y-53740476D02*
X40987380Y-53692857D01*
X40082619Y-54597619D02*
X41082619Y-54930952D01*
X41082619Y-54930952D02*
X40082619Y-55264285D01*
X40082619Y-55502381D02*
X40082619Y-56121428D01*
X40082619Y-56121428D02*
X40463571Y-55788095D01*
X40463571Y-55788095D02*
X40463571Y-55930952D01*
X40463571Y-55930952D02*
X40511190Y-56026190D01*
X40511190Y-56026190D02*
X40558809Y-56073809D01*
X40558809Y-56073809D02*
X40654047Y-56121428D01*
X40654047Y-56121428D02*
X40892142Y-56121428D01*
X40892142Y-56121428D02*
X40987380Y-56073809D01*
X40987380Y-56073809D02*
X41035000Y-56026190D01*
X41035000Y-56026190D02*
X41082619Y-55930952D01*
X41082619Y-55930952D02*
X41082619Y-55645238D01*
X41082619Y-55645238D02*
X41035000Y-55550000D01*
X41035000Y-55550000D02*
X40987380Y-55502381D01*
X22863095Y-24805238D02*
X22958333Y-24757619D01*
X22958333Y-24757619D02*
X23101190Y-24757619D01*
X23101190Y-24757619D02*
X23244047Y-24805238D01*
X23244047Y-24805238D02*
X23339285Y-24900476D01*
X23339285Y-24900476D02*
X23386904Y-24995714D01*
X23386904Y-24995714D02*
X23434523Y-25186190D01*
X23434523Y-25186190D02*
X23434523Y-25329047D01*
X23434523Y-25329047D02*
X23386904Y-25519523D01*
X23386904Y-25519523D02*
X23339285Y-25614761D01*
X23339285Y-25614761D02*
X23244047Y-25710000D01*
X23244047Y-25710000D02*
X23101190Y-25757619D01*
X23101190Y-25757619D02*
X23005952Y-25757619D01*
X23005952Y-25757619D02*
X22863095Y-25710000D01*
X22863095Y-25710000D02*
X22815476Y-25662380D01*
X22815476Y-25662380D02*
X22815476Y-25329047D01*
X22815476Y-25329047D02*
X23005952Y-25329047D01*
X56712380Y-38454523D02*
X56760000Y-38406904D01*
X56760000Y-38406904D02*
X56807619Y-38264047D01*
X56807619Y-38264047D02*
X56807619Y-38168809D01*
X56807619Y-38168809D02*
X56760000Y-38025952D01*
X56760000Y-38025952D02*
X56664761Y-37930714D01*
X56664761Y-37930714D02*
X56569523Y-37883095D01*
X56569523Y-37883095D02*
X56379047Y-37835476D01*
X56379047Y-37835476D02*
X56236190Y-37835476D01*
X56236190Y-37835476D02*
X56045714Y-37883095D01*
X56045714Y-37883095D02*
X55950476Y-37930714D01*
X55950476Y-37930714D02*
X55855238Y-38025952D01*
X55855238Y-38025952D02*
X55807619Y-38168809D01*
X55807619Y-38168809D02*
X55807619Y-38264047D01*
X55807619Y-38264047D02*
X55855238Y-38406904D01*
X55855238Y-38406904D02*
X55902857Y-38454523D01*
X56807619Y-38883095D02*
X55807619Y-38883095D01*
X55807619Y-38883095D02*
X56521904Y-39216428D01*
X56521904Y-39216428D02*
X55807619Y-39549761D01*
X55807619Y-39549761D02*
X56807619Y-39549761D01*
X56807619Y-40025952D02*
X55807619Y-40025952D01*
X55807619Y-40025952D02*
X55807619Y-40264047D01*
X55807619Y-40264047D02*
X55855238Y-40406904D01*
X55855238Y-40406904D02*
X55950476Y-40502142D01*
X55950476Y-40502142D02*
X56045714Y-40549761D01*
X56045714Y-40549761D02*
X56236190Y-40597380D01*
X56236190Y-40597380D02*
X56379047Y-40597380D01*
X56379047Y-40597380D02*
X56569523Y-40549761D01*
X56569523Y-40549761D02*
X56664761Y-40502142D01*
X56664761Y-40502142D02*
X56760000Y-40406904D01*
X56760000Y-40406904D02*
X56807619Y-40264047D01*
X56807619Y-40264047D02*
X56807619Y-40025952D01*
X40082619Y-38132857D02*
X40082619Y-38751904D01*
X40082619Y-38751904D02*
X40463571Y-38418571D01*
X40463571Y-38418571D02*
X40463571Y-38561428D01*
X40463571Y-38561428D02*
X40511190Y-38656666D01*
X40511190Y-38656666D02*
X40558809Y-38704285D01*
X40558809Y-38704285D02*
X40654047Y-38751904D01*
X40654047Y-38751904D02*
X40892142Y-38751904D01*
X40892142Y-38751904D02*
X40987380Y-38704285D01*
X40987380Y-38704285D02*
X41035000Y-38656666D01*
X41035000Y-38656666D02*
X41082619Y-38561428D01*
X41082619Y-38561428D02*
X41082619Y-38275714D01*
X41082619Y-38275714D02*
X41035000Y-38180476D01*
X41035000Y-38180476D02*
X40987380Y-38132857D01*
X40082619Y-39037619D02*
X41082619Y-39370952D01*
X41082619Y-39370952D02*
X40082619Y-39704285D01*
X40082619Y-39942381D02*
X40082619Y-40561428D01*
X40082619Y-40561428D02*
X40463571Y-40228095D01*
X40463571Y-40228095D02*
X40463571Y-40370952D01*
X40463571Y-40370952D02*
X40511190Y-40466190D01*
X40511190Y-40466190D02*
X40558809Y-40513809D01*
X40558809Y-40513809D02*
X40654047Y-40561428D01*
X40654047Y-40561428D02*
X40892142Y-40561428D01*
X40892142Y-40561428D02*
X40987380Y-40513809D01*
X40987380Y-40513809D02*
X41035000Y-40466190D01*
X41035000Y-40466190D02*
X41082619Y-40370952D01*
X41082619Y-40370952D02*
X41082619Y-40085238D01*
X41082619Y-40085238D02*
X41035000Y-39990000D01*
X41035000Y-39990000D02*
X40987380Y-39942381D01*
X8367380Y-30039523D02*
X8415000Y-29991904D01*
X8415000Y-29991904D02*
X8462619Y-29849047D01*
X8462619Y-29849047D02*
X8462619Y-29753809D01*
X8462619Y-29753809D02*
X8415000Y-29610952D01*
X8415000Y-29610952D02*
X8319761Y-29515714D01*
X8319761Y-29515714D02*
X8224523Y-29468095D01*
X8224523Y-29468095D02*
X8034047Y-29420476D01*
X8034047Y-29420476D02*
X7891190Y-29420476D01*
X7891190Y-29420476D02*
X7700714Y-29468095D01*
X7700714Y-29468095D02*
X7605476Y-29515714D01*
X7605476Y-29515714D02*
X7510238Y-29610952D01*
X7510238Y-29610952D02*
X7462619Y-29753809D01*
X7462619Y-29753809D02*
X7462619Y-29849047D01*
X7462619Y-29849047D02*
X7510238Y-29991904D01*
X7510238Y-29991904D02*
X7557857Y-30039523D01*
X8462619Y-30468095D02*
X7462619Y-30468095D01*
X7462619Y-30468095D02*
X7462619Y-30849047D01*
X7462619Y-30849047D02*
X7510238Y-30944285D01*
X7510238Y-30944285D02*
X7557857Y-30991904D01*
X7557857Y-30991904D02*
X7653095Y-31039523D01*
X7653095Y-31039523D02*
X7795952Y-31039523D01*
X7795952Y-31039523D02*
X7891190Y-30991904D01*
X7891190Y-30991904D02*
X7938809Y-30944285D01*
X7938809Y-30944285D02*
X7986428Y-30849047D01*
X7986428Y-30849047D02*
X7986428Y-30468095D01*
X7462619Y-31468095D02*
X8272142Y-31468095D01*
X8272142Y-31468095D02*
X8367380Y-31515714D01*
X8367380Y-31515714D02*
X8415000Y-31563333D01*
X8415000Y-31563333D02*
X8462619Y-31658571D01*
X8462619Y-31658571D02*
X8462619Y-31849047D01*
X8462619Y-31849047D02*
X8415000Y-31944285D01*
X8415000Y-31944285D02*
X8367380Y-31991904D01*
X8367380Y-31991904D02*
X8272142Y-32039523D01*
X8272142Y-32039523D02*
X7462619Y-32039523D01*
X22805476Y-50477619D02*
X23138809Y-50001428D01*
X23376904Y-50477619D02*
X23376904Y-49477619D01*
X23376904Y-49477619D02*
X22995952Y-49477619D01*
X22995952Y-49477619D02*
X22900714Y-49525238D01*
X22900714Y-49525238D02*
X22853095Y-49572857D01*
X22853095Y-49572857D02*
X22805476Y-49668095D01*
X22805476Y-49668095D02*
X22805476Y-49810952D01*
X22805476Y-49810952D02*
X22853095Y-49906190D01*
X22853095Y-49906190D02*
X22900714Y-49953809D01*
X22900714Y-49953809D02*
X22995952Y-50001428D01*
X22995952Y-50001428D02*
X23376904Y-50001428D01*
X42466904Y-52556666D02*
X41705000Y-52556666D01*
X42085952Y-52937619D02*
X42085952Y-52175714D01*
X10715000Y-22410476D02*
X10762619Y-22553333D01*
X10762619Y-22553333D02*
X10762619Y-22791428D01*
X10762619Y-22791428D02*
X10715000Y-22886666D01*
X10715000Y-22886666D02*
X10667380Y-22934285D01*
X10667380Y-22934285D02*
X10572142Y-22981904D01*
X10572142Y-22981904D02*
X10476904Y-22981904D01*
X10476904Y-22981904D02*
X10381666Y-22934285D01*
X10381666Y-22934285D02*
X10334047Y-22886666D01*
X10334047Y-22886666D02*
X10286428Y-22791428D01*
X10286428Y-22791428D02*
X10238809Y-22600952D01*
X10238809Y-22600952D02*
X10191190Y-22505714D01*
X10191190Y-22505714D02*
X10143571Y-22458095D01*
X10143571Y-22458095D02*
X10048333Y-22410476D01*
X10048333Y-22410476D02*
X9953095Y-22410476D01*
X9953095Y-22410476D02*
X9857857Y-22458095D01*
X9857857Y-22458095D02*
X9810238Y-22505714D01*
X9810238Y-22505714D02*
X9762619Y-22600952D01*
X9762619Y-22600952D02*
X9762619Y-22839047D01*
X9762619Y-22839047D02*
X9810238Y-22981904D01*
X10667380Y-23981904D02*
X10715000Y-23934285D01*
X10715000Y-23934285D02*
X10762619Y-23791428D01*
X10762619Y-23791428D02*
X10762619Y-23696190D01*
X10762619Y-23696190D02*
X10715000Y-23553333D01*
X10715000Y-23553333D02*
X10619761Y-23458095D01*
X10619761Y-23458095D02*
X10524523Y-23410476D01*
X10524523Y-23410476D02*
X10334047Y-23362857D01*
X10334047Y-23362857D02*
X10191190Y-23362857D01*
X10191190Y-23362857D02*
X10000714Y-23410476D01*
X10000714Y-23410476D02*
X9905476Y-23458095D01*
X9905476Y-23458095D02*
X9810238Y-23553333D01*
X9810238Y-23553333D02*
X9762619Y-23696190D01*
X9762619Y-23696190D02*
X9762619Y-23791428D01*
X9762619Y-23791428D02*
X9810238Y-23934285D01*
X9810238Y-23934285D02*
X9857857Y-23981904D01*
X10762619Y-24886666D02*
X10762619Y-24410476D01*
X10762619Y-24410476D02*
X9762619Y-24410476D01*
X48655000Y-22410476D02*
X48702619Y-22553333D01*
X48702619Y-22553333D02*
X48702619Y-22791428D01*
X48702619Y-22791428D02*
X48655000Y-22886666D01*
X48655000Y-22886666D02*
X48607380Y-22934285D01*
X48607380Y-22934285D02*
X48512142Y-22981904D01*
X48512142Y-22981904D02*
X48416904Y-22981904D01*
X48416904Y-22981904D02*
X48321666Y-22934285D01*
X48321666Y-22934285D02*
X48274047Y-22886666D01*
X48274047Y-22886666D02*
X48226428Y-22791428D01*
X48226428Y-22791428D02*
X48178809Y-22600952D01*
X48178809Y-22600952D02*
X48131190Y-22505714D01*
X48131190Y-22505714D02*
X48083571Y-22458095D01*
X48083571Y-22458095D02*
X47988333Y-22410476D01*
X47988333Y-22410476D02*
X47893095Y-22410476D01*
X47893095Y-22410476D02*
X47797857Y-22458095D01*
X47797857Y-22458095D02*
X47750238Y-22505714D01*
X47750238Y-22505714D02*
X47702619Y-22600952D01*
X47702619Y-22600952D02*
X47702619Y-22839047D01*
X47702619Y-22839047D02*
X47750238Y-22981904D01*
X48607380Y-23981904D02*
X48655000Y-23934285D01*
X48655000Y-23934285D02*
X48702619Y-23791428D01*
X48702619Y-23791428D02*
X48702619Y-23696190D01*
X48702619Y-23696190D02*
X48655000Y-23553333D01*
X48655000Y-23553333D02*
X48559761Y-23458095D01*
X48559761Y-23458095D02*
X48464523Y-23410476D01*
X48464523Y-23410476D02*
X48274047Y-23362857D01*
X48274047Y-23362857D02*
X48131190Y-23362857D01*
X48131190Y-23362857D02*
X47940714Y-23410476D01*
X47940714Y-23410476D02*
X47845476Y-23458095D01*
X47845476Y-23458095D02*
X47750238Y-23553333D01*
X47750238Y-23553333D02*
X47702619Y-23696190D01*
X47702619Y-23696190D02*
X47702619Y-23791428D01*
X47702619Y-23791428D02*
X47750238Y-23934285D01*
X47750238Y-23934285D02*
X47797857Y-23981904D01*
X48702619Y-24886666D02*
X48702619Y-24410476D01*
X48702619Y-24410476D02*
X47702619Y-24410476D01*
X61346904Y-38266666D02*
X60585000Y-38266666D01*
X20542619Y-54598095D02*
X19542619Y-54598095D01*
X19542619Y-54598095D02*
X19542619Y-54836190D01*
X19542619Y-54836190D02*
X19590238Y-54979047D01*
X19590238Y-54979047D02*
X19685476Y-55074285D01*
X19685476Y-55074285D02*
X19780714Y-55121904D01*
X19780714Y-55121904D02*
X19971190Y-55169523D01*
X19971190Y-55169523D02*
X20114047Y-55169523D01*
X20114047Y-55169523D02*
X20304523Y-55121904D01*
X20304523Y-55121904D02*
X20399761Y-55074285D01*
X20399761Y-55074285D02*
X20495000Y-54979047D01*
X20495000Y-54979047D02*
X20542619Y-54836190D01*
X20542619Y-54836190D02*
X20542619Y-54598095D01*
X19542619Y-55788571D02*
X19542619Y-55883809D01*
X19542619Y-55883809D02*
X19590238Y-55979047D01*
X19590238Y-55979047D02*
X19637857Y-56026666D01*
X19637857Y-56026666D02*
X19733095Y-56074285D01*
X19733095Y-56074285D02*
X19923571Y-56121904D01*
X19923571Y-56121904D02*
X20161666Y-56121904D01*
X20161666Y-56121904D02*
X20352142Y-56074285D01*
X20352142Y-56074285D02*
X20447380Y-56026666D01*
X20447380Y-56026666D02*
X20495000Y-55979047D01*
X20495000Y-55979047D02*
X20542619Y-55883809D01*
X20542619Y-55883809D02*
X20542619Y-55788571D01*
X20542619Y-55788571D02*
X20495000Y-55693333D01*
X20495000Y-55693333D02*
X20447380Y-55645714D01*
X20447380Y-55645714D02*
X20352142Y-55598095D01*
X20352142Y-55598095D02*
X20161666Y-55550476D01*
X20161666Y-55550476D02*
X19923571Y-55550476D01*
X19923571Y-55550476D02*
X19733095Y-55598095D01*
X19733095Y-55598095D02*
X19637857Y-55645714D01*
X19637857Y-55645714D02*
X19590238Y-55693333D01*
X19590238Y-55693333D02*
X19542619Y-55788571D01*
X50205000Y-37970476D02*
X50252619Y-38113333D01*
X50252619Y-38113333D02*
X50252619Y-38351428D01*
X50252619Y-38351428D02*
X50205000Y-38446666D01*
X50205000Y-38446666D02*
X50157380Y-38494285D01*
X50157380Y-38494285D02*
X50062142Y-38541904D01*
X50062142Y-38541904D02*
X49966904Y-38541904D01*
X49966904Y-38541904D02*
X49871666Y-38494285D01*
X49871666Y-38494285D02*
X49824047Y-38446666D01*
X49824047Y-38446666D02*
X49776428Y-38351428D01*
X49776428Y-38351428D02*
X49728809Y-38160952D01*
X49728809Y-38160952D02*
X49681190Y-38065714D01*
X49681190Y-38065714D02*
X49633571Y-38018095D01*
X49633571Y-38018095D02*
X49538333Y-37970476D01*
X49538333Y-37970476D02*
X49443095Y-37970476D01*
X49443095Y-37970476D02*
X49347857Y-38018095D01*
X49347857Y-38018095D02*
X49300238Y-38065714D01*
X49300238Y-38065714D02*
X49252619Y-38160952D01*
X49252619Y-38160952D02*
X49252619Y-38399047D01*
X49252619Y-38399047D02*
X49300238Y-38541904D01*
X50252619Y-38970476D02*
X49252619Y-38970476D01*
X49252619Y-38970476D02*
X49252619Y-39208571D01*
X49252619Y-39208571D02*
X49300238Y-39351428D01*
X49300238Y-39351428D02*
X49395476Y-39446666D01*
X49395476Y-39446666D02*
X49490714Y-39494285D01*
X49490714Y-39494285D02*
X49681190Y-39541904D01*
X49681190Y-39541904D02*
X49824047Y-39541904D01*
X49824047Y-39541904D02*
X50014523Y-39494285D01*
X50014523Y-39494285D02*
X50109761Y-39446666D01*
X50109761Y-39446666D02*
X50205000Y-39351428D01*
X50205000Y-39351428D02*
X50252619Y-39208571D01*
X50252619Y-39208571D02*
X50252619Y-38970476D01*
X49966904Y-39922857D02*
X49966904Y-40399047D01*
X50252619Y-39827619D02*
X49252619Y-40160952D01*
X49252619Y-40160952D02*
X50252619Y-40494285D01*
X60803095Y-40365238D02*
X60898333Y-40317619D01*
X60898333Y-40317619D02*
X61041190Y-40317619D01*
X61041190Y-40317619D02*
X61184047Y-40365238D01*
X61184047Y-40365238D02*
X61279285Y-40460476D01*
X61279285Y-40460476D02*
X61326904Y-40555714D01*
X61326904Y-40555714D02*
X61374523Y-40746190D01*
X61374523Y-40746190D02*
X61374523Y-40889047D01*
X61374523Y-40889047D02*
X61326904Y-41079523D01*
X61326904Y-41079523D02*
X61279285Y-41174761D01*
X61279285Y-41174761D02*
X61184047Y-41270000D01*
X61184047Y-41270000D02*
X61041190Y-41317619D01*
X61041190Y-41317619D02*
X60945952Y-41317619D01*
X60945952Y-41317619D02*
X60803095Y-41270000D01*
X60803095Y-41270000D02*
X60755476Y-41222380D01*
X60755476Y-41222380D02*
X60755476Y-40889047D01*
X60755476Y-40889047D02*
X60945952Y-40889047D01*
X41833095Y-40365238D02*
X41928333Y-40317619D01*
X41928333Y-40317619D02*
X42071190Y-40317619D01*
X42071190Y-40317619D02*
X42214047Y-40365238D01*
X42214047Y-40365238D02*
X42309285Y-40460476D01*
X42309285Y-40460476D02*
X42356904Y-40555714D01*
X42356904Y-40555714D02*
X42404523Y-40746190D01*
X42404523Y-40746190D02*
X42404523Y-40889047D01*
X42404523Y-40889047D02*
X42356904Y-41079523D01*
X42356904Y-41079523D02*
X42309285Y-41174761D01*
X42309285Y-41174761D02*
X42214047Y-41270000D01*
X42214047Y-41270000D02*
X42071190Y-41317619D01*
X42071190Y-41317619D02*
X41975952Y-41317619D01*
X41975952Y-41317619D02*
X41833095Y-41270000D01*
X41833095Y-41270000D02*
X41785476Y-41222380D01*
X41785476Y-41222380D02*
X41785476Y-40889047D01*
X41785476Y-40889047D02*
X41975952Y-40889047D01*
X8367380Y-45599523D02*
X8415000Y-45551904D01*
X8415000Y-45551904D02*
X8462619Y-45409047D01*
X8462619Y-45409047D02*
X8462619Y-45313809D01*
X8462619Y-45313809D02*
X8415000Y-45170952D01*
X8415000Y-45170952D02*
X8319761Y-45075714D01*
X8319761Y-45075714D02*
X8224523Y-45028095D01*
X8224523Y-45028095D02*
X8034047Y-44980476D01*
X8034047Y-44980476D02*
X7891190Y-44980476D01*
X7891190Y-44980476D02*
X7700714Y-45028095D01*
X7700714Y-45028095D02*
X7605476Y-45075714D01*
X7605476Y-45075714D02*
X7510238Y-45170952D01*
X7510238Y-45170952D02*
X7462619Y-45313809D01*
X7462619Y-45313809D02*
X7462619Y-45409047D01*
X7462619Y-45409047D02*
X7510238Y-45551904D01*
X7510238Y-45551904D02*
X7557857Y-45599523D01*
X8462619Y-46028095D02*
X7462619Y-46028095D01*
X7462619Y-46028095D02*
X7462619Y-46409047D01*
X7462619Y-46409047D02*
X7510238Y-46504285D01*
X7510238Y-46504285D02*
X7557857Y-46551904D01*
X7557857Y-46551904D02*
X7653095Y-46599523D01*
X7653095Y-46599523D02*
X7795952Y-46599523D01*
X7795952Y-46599523D02*
X7891190Y-46551904D01*
X7891190Y-46551904D02*
X7938809Y-46504285D01*
X7938809Y-46504285D02*
X7986428Y-46409047D01*
X7986428Y-46409047D02*
X7986428Y-46028095D01*
X7462619Y-47028095D02*
X8272142Y-47028095D01*
X8272142Y-47028095D02*
X8367380Y-47075714D01*
X8367380Y-47075714D02*
X8415000Y-47123333D01*
X8415000Y-47123333D02*
X8462619Y-47218571D01*
X8462619Y-47218571D02*
X8462619Y-47409047D01*
X8462619Y-47409047D02*
X8415000Y-47504285D01*
X8415000Y-47504285D02*
X8367380Y-47551904D01*
X8367380Y-47551904D02*
X8272142Y-47599523D01*
X8272142Y-47599523D02*
X7462619Y-47599523D01*
X60745476Y-19357619D02*
X61078809Y-18881428D01*
X61316904Y-19357619D02*
X61316904Y-18357619D01*
X61316904Y-18357619D02*
X60935952Y-18357619D01*
X60935952Y-18357619D02*
X60840714Y-18405238D01*
X60840714Y-18405238D02*
X60793095Y-18452857D01*
X60793095Y-18452857D02*
X60745476Y-18548095D01*
X60745476Y-18548095D02*
X60745476Y-18690952D01*
X60745476Y-18690952D02*
X60793095Y-18786190D01*
X60793095Y-18786190D02*
X60840714Y-18833809D01*
X60840714Y-18833809D02*
X60935952Y-18881428D01*
X60935952Y-18881428D02*
X61316904Y-18881428D01*
X55102380Y-54304523D02*
X55150000Y-54256904D01*
X55150000Y-54256904D02*
X55197619Y-54114047D01*
X55197619Y-54114047D02*
X55197619Y-54018809D01*
X55197619Y-54018809D02*
X55150000Y-53875952D01*
X55150000Y-53875952D02*
X55054761Y-53780714D01*
X55054761Y-53780714D02*
X54959523Y-53733095D01*
X54959523Y-53733095D02*
X54769047Y-53685476D01*
X54769047Y-53685476D02*
X54626190Y-53685476D01*
X54626190Y-53685476D02*
X54435714Y-53733095D01*
X54435714Y-53733095D02*
X54340476Y-53780714D01*
X54340476Y-53780714D02*
X54245238Y-53875952D01*
X54245238Y-53875952D02*
X54197619Y-54018809D01*
X54197619Y-54018809D02*
X54197619Y-54114047D01*
X54197619Y-54114047D02*
X54245238Y-54256904D01*
X54245238Y-54256904D02*
X54292857Y-54304523D01*
X55197619Y-55209285D02*
X55197619Y-54733095D01*
X55197619Y-54733095D02*
X54197619Y-54733095D01*
X55197619Y-55542619D02*
X54197619Y-55542619D01*
X55197619Y-56114047D02*
X54626190Y-55685476D01*
X54197619Y-56114047D02*
X54769047Y-55542619D01*
X12265000Y-22410476D02*
X12312619Y-22553333D01*
X12312619Y-22553333D02*
X12312619Y-22791428D01*
X12312619Y-22791428D02*
X12265000Y-22886666D01*
X12265000Y-22886666D02*
X12217380Y-22934285D01*
X12217380Y-22934285D02*
X12122142Y-22981904D01*
X12122142Y-22981904D02*
X12026904Y-22981904D01*
X12026904Y-22981904D02*
X11931666Y-22934285D01*
X11931666Y-22934285D02*
X11884047Y-22886666D01*
X11884047Y-22886666D02*
X11836428Y-22791428D01*
X11836428Y-22791428D02*
X11788809Y-22600952D01*
X11788809Y-22600952D02*
X11741190Y-22505714D01*
X11741190Y-22505714D02*
X11693571Y-22458095D01*
X11693571Y-22458095D02*
X11598333Y-22410476D01*
X11598333Y-22410476D02*
X11503095Y-22410476D01*
X11503095Y-22410476D02*
X11407857Y-22458095D01*
X11407857Y-22458095D02*
X11360238Y-22505714D01*
X11360238Y-22505714D02*
X11312619Y-22600952D01*
X11312619Y-22600952D02*
X11312619Y-22839047D01*
X11312619Y-22839047D02*
X11360238Y-22981904D01*
X12312619Y-23410476D02*
X11312619Y-23410476D01*
X11312619Y-23410476D02*
X11312619Y-23648571D01*
X11312619Y-23648571D02*
X11360238Y-23791428D01*
X11360238Y-23791428D02*
X11455476Y-23886666D01*
X11455476Y-23886666D02*
X11550714Y-23934285D01*
X11550714Y-23934285D02*
X11741190Y-23981904D01*
X11741190Y-23981904D02*
X11884047Y-23981904D01*
X11884047Y-23981904D02*
X12074523Y-23934285D01*
X12074523Y-23934285D02*
X12169761Y-23886666D01*
X12169761Y-23886666D02*
X12265000Y-23791428D01*
X12265000Y-23791428D02*
X12312619Y-23648571D01*
X12312619Y-23648571D02*
X12312619Y-23410476D01*
X12026904Y-24362857D02*
X12026904Y-24839047D01*
X12312619Y-24267619D02*
X11312619Y-24600952D01*
X11312619Y-24600952D02*
X12312619Y-24934285D01*
X50205000Y-22410476D02*
X50252619Y-22553333D01*
X50252619Y-22553333D02*
X50252619Y-22791428D01*
X50252619Y-22791428D02*
X50205000Y-22886666D01*
X50205000Y-22886666D02*
X50157380Y-22934285D01*
X50157380Y-22934285D02*
X50062142Y-22981904D01*
X50062142Y-22981904D02*
X49966904Y-22981904D01*
X49966904Y-22981904D02*
X49871666Y-22934285D01*
X49871666Y-22934285D02*
X49824047Y-22886666D01*
X49824047Y-22886666D02*
X49776428Y-22791428D01*
X49776428Y-22791428D02*
X49728809Y-22600952D01*
X49728809Y-22600952D02*
X49681190Y-22505714D01*
X49681190Y-22505714D02*
X49633571Y-22458095D01*
X49633571Y-22458095D02*
X49538333Y-22410476D01*
X49538333Y-22410476D02*
X49443095Y-22410476D01*
X49443095Y-22410476D02*
X49347857Y-22458095D01*
X49347857Y-22458095D02*
X49300238Y-22505714D01*
X49300238Y-22505714D02*
X49252619Y-22600952D01*
X49252619Y-22600952D02*
X49252619Y-22839047D01*
X49252619Y-22839047D02*
X49300238Y-22981904D01*
X50252619Y-23410476D02*
X49252619Y-23410476D01*
X49252619Y-23410476D02*
X49252619Y-23648571D01*
X49252619Y-23648571D02*
X49300238Y-23791428D01*
X49300238Y-23791428D02*
X49395476Y-23886666D01*
X49395476Y-23886666D02*
X49490714Y-23934285D01*
X49490714Y-23934285D02*
X49681190Y-23981904D01*
X49681190Y-23981904D02*
X49824047Y-23981904D01*
X49824047Y-23981904D02*
X50014523Y-23934285D01*
X50014523Y-23934285D02*
X50109761Y-23886666D01*
X50109761Y-23886666D02*
X50205000Y-23791428D01*
X50205000Y-23791428D02*
X50252619Y-23648571D01*
X50252619Y-23648571D02*
X50252619Y-23410476D01*
X49966904Y-24362857D02*
X49966904Y-24839047D01*
X50252619Y-24267619D02*
X49252619Y-24600952D01*
X49252619Y-24600952D02*
X50252619Y-24934285D01*
X32000238Y-22891904D02*
X31952619Y-22796666D01*
X31952619Y-22796666D02*
X31952619Y-22653809D01*
X31952619Y-22653809D02*
X32000238Y-22510952D01*
X32000238Y-22510952D02*
X32095476Y-22415714D01*
X32095476Y-22415714D02*
X32190714Y-22368095D01*
X32190714Y-22368095D02*
X32381190Y-22320476D01*
X32381190Y-22320476D02*
X32524047Y-22320476D01*
X32524047Y-22320476D02*
X32714523Y-22368095D01*
X32714523Y-22368095D02*
X32809761Y-22415714D01*
X32809761Y-22415714D02*
X32905000Y-22510952D01*
X32905000Y-22510952D02*
X32952619Y-22653809D01*
X32952619Y-22653809D02*
X32952619Y-22749047D01*
X32952619Y-22749047D02*
X32905000Y-22891904D01*
X32905000Y-22891904D02*
X32857380Y-22939523D01*
X32857380Y-22939523D02*
X32524047Y-22939523D01*
X32524047Y-22939523D02*
X32524047Y-22749047D01*
X32952619Y-23368095D02*
X31952619Y-23368095D01*
X31952619Y-23368095D02*
X32952619Y-23939523D01*
X32952619Y-23939523D02*
X31952619Y-23939523D01*
X32952619Y-24415714D02*
X31952619Y-24415714D01*
X31952619Y-24415714D02*
X31952619Y-24653809D01*
X31952619Y-24653809D02*
X32000238Y-24796666D01*
X32000238Y-24796666D02*
X32095476Y-24891904D01*
X32095476Y-24891904D02*
X32190714Y-24939523D01*
X32190714Y-24939523D02*
X32381190Y-24987142D01*
X32381190Y-24987142D02*
X32524047Y-24987142D01*
X32524047Y-24987142D02*
X32714523Y-24939523D01*
X32714523Y-24939523D02*
X32809761Y-24891904D01*
X32809761Y-24891904D02*
X32905000Y-24796666D01*
X32905000Y-24796666D02*
X32952619Y-24653809D01*
X32952619Y-24653809D02*
X32952619Y-24415714D01*
X23496904Y-36996666D02*
X22735000Y-36996666D01*
X23115952Y-37377619D02*
X23115952Y-36615714D01*
X59052619Y-22572857D02*
X59052619Y-23191904D01*
X59052619Y-23191904D02*
X59433571Y-22858571D01*
X59433571Y-22858571D02*
X59433571Y-23001428D01*
X59433571Y-23001428D02*
X59481190Y-23096666D01*
X59481190Y-23096666D02*
X59528809Y-23144285D01*
X59528809Y-23144285D02*
X59624047Y-23191904D01*
X59624047Y-23191904D02*
X59862142Y-23191904D01*
X59862142Y-23191904D02*
X59957380Y-23144285D01*
X59957380Y-23144285D02*
X60005000Y-23096666D01*
X60005000Y-23096666D02*
X60052619Y-23001428D01*
X60052619Y-23001428D02*
X60052619Y-22715714D01*
X60052619Y-22715714D02*
X60005000Y-22620476D01*
X60005000Y-22620476D02*
X59957380Y-22572857D01*
X59052619Y-23477619D02*
X60052619Y-23810952D01*
X60052619Y-23810952D02*
X59052619Y-24144285D01*
X59052619Y-24382381D02*
X59052619Y-25001428D01*
X59052619Y-25001428D02*
X59433571Y-24668095D01*
X59433571Y-24668095D02*
X59433571Y-24810952D01*
X59433571Y-24810952D02*
X59481190Y-24906190D01*
X59481190Y-24906190D02*
X59528809Y-24953809D01*
X59528809Y-24953809D02*
X59624047Y-25001428D01*
X59624047Y-25001428D02*
X59862142Y-25001428D01*
X59862142Y-25001428D02*
X59957380Y-24953809D01*
X59957380Y-24953809D02*
X60005000Y-24906190D01*
X60005000Y-24906190D02*
X60052619Y-24810952D01*
X60052619Y-24810952D02*
X60052619Y-24525238D01*
X60052619Y-24525238D02*
X60005000Y-24430000D01*
X60005000Y-24430000D02*
X59957380Y-24382381D01*
X21112619Y-53692857D02*
X21112619Y-54311904D01*
X21112619Y-54311904D02*
X21493571Y-53978571D01*
X21493571Y-53978571D02*
X21493571Y-54121428D01*
X21493571Y-54121428D02*
X21541190Y-54216666D01*
X21541190Y-54216666D02*
X21588809Y-54264285D01*
X21588809Y-54264285D02*
X21684047Y-54311904D01*
X21684047Y-54311904D02*
X21922142Y-54311904D01*
X21922142Y-54311904D02*
X22017380Y-54264285D01*
X22017380Y-54264285D02*
X22065000Y-54216666D01*
X22065000Y-54216666D02*
X22112619Y-54121428D01*
X22112619Y-54121428D02*
X22112619Y-53835714D01*
X22112619Y-53835714D02*
X22065000Y-53740476D01*
X22065000Y-53740476D02*
X22017380Y-53692857D01*
X21112619Y-54597619D02*
X22112619Y-54930952D01*
X22112619Y-54930952D02*
X21112619Y-55264285D01*
X21112619Y-55502381D02*
X21112619Y-56121428D01*
X21112619Y-56121428D02*
X21493571Y-55788095D01*
X21493571Y-55788095D02*
X21493571Y-55930952D01*
X21493571Y-55930952D02*
X21541190Y-56026190D01*
X21541190Y-56026190D02*
X21588809Y-56073809D01*
X21588809Y-56073809D02*
X21684047Y-56121428D01*
X21684047Y-56121428D02*
X21922142Y-56121428D01*
X21922142Y-56121428D02*
X22017380Y-56073809D01*
X22017380Y-56073809D02*
X22065000Y-56026190D01*
X22065000Y-56026190D02*
X22112619Y-55930952D01*
X22112619Y-55930952D02*
X22112619Y-55645238D01*
X22112619Y-55645238D02*
X22065000Y-55550000D01*
X22065000Y-55550000D02*
X22017380Y-55502381D01*
X22863095Y-55925238D02*
X22958333Y-55877619D01*
X22958333Y-55877619D02*
X23101190Y-55877619D01*
X23101190Y-55877619D02*
X23244047Y-55925238D01*
X23244047Y-55925238D02*
X23339285Y-56020476D01*
X23339285Y-56020476D02*
X23386904Y-56115714D01*
X23386904Y-56115714D02*
X23434523Y-56306190D01*
X23434523Y-56306190D02*
X23434523Y-56449047D01*
X23434523Y-56449047D02*
X23386904Y-56639523D01*
X23386904Y-56639523D02*
X23339285Y-56734761D01*
X23339285Y-56734761D02*
X23244047Y-56830000D01*
X23244047Y-56830000D02*
X23101190Y-56877619D01*
X23101190Y-56877619D02*
X23005952Y-56877619D01*
X23005952Y-56877619D02*
X22863095Y-56830000D01*
X22863095Y-56830000D02*
X22815476Y-56782380D01*
X22815476Y-56782380D02*
X22815476Y-56449047D01*
X22815476Y-56449047D02*
X23005952Y-56449047D01*
X29685000Y-37970476D02*
X29732619Y-38113333D01*
X29732619Y-38113333D02*
X29732619Y-38351428D01*
X29732619Y-38351428D02*
X29685000Y-38446666D01*
X29685000Y-38446666D02*
X29637380Y-38494285D01*
X29637380Y-38494285D02*
X29542142Y-38541904D01*
X29542142Y-38541904D02*
X29446904Y-38541904D01*
X29446904Y-38541904D02*
X29351666Y-38494285D01*
X29351666Y-38494285D02*
X29304047Y-38446666D01*
X29304047Y-38446666D02*
X29256428Y-38351428D01*
X29256428Y-38351428D02*
X29208809Y-38160952D01*
X29208809Y-38160952D02*
X29161190Y-38065714D01*
X29161190Y-38065714D02*
X29113571Y-38018095D01*
X29113571Y-38018095D02*
X29018333Y-37970476D01*
X29018333Y-37970476D02*
X28923095Y-37970476D01*
X28923095Y-37970476D02*
X28827857Y-38018095D01*
X28827857Y-38018095D02*
X28780238Y-38065714D01*
X28780238Y-38065714D02*
X28732619Y-38160952D01*
X28732619Y-38160952D02*
X28732619Y-38399047D01*
X28732619Y-38399047D02*
X28780238Y-38541904D01*
X29637380Y-39541904D02*
X29685000Y-39494285D01*
X29685000Y-39494285D02*
X29732619Y-39351428D01*
X29732619Y-39351428D02*
X29732619Y-39256190D01*
X29732619Y-39256190D02*
X29685000Y-39113333D01*
X29685000Y-39113333D02*
X29589761Y-39018095D01*
X29589761Y-39018095D02*
X29494523Y-38970476D01*
X29494523Y-38970476D02*
X29304047Y-38922857D01*
X29304047Y-38922857D02*
X29161190Y-38922857D01*
X29161190Y-38922857D02*
X28970714Y-38970476D01*
X28970714Y-38970476D02*
X28875476Y-39018095D01*
X28875476Y-39018095D02*
X28780238Y-39113333D01*
X28780238Y-39113333D02*
X28732619Y-39256190D01*
X28732619Y-39256190D02*
X28732619Y-39351428D01*
X28732619Y-39351428D02*
X28780238Y-39494285D01*
X28780238Y-39494285D02*
X28827857Y-39541904D01*
X29732619Y-40446666D02*
X29732619Y-39970476D01*
X29732619Y-39970476D02*
X28732619Y-39970476D01*
X50970238Y-38451904D02*
X50922619Y-38356666D01*
X50922619Y-38356666D02*
X50922619Y-38213809D01*
X50922619Y-38213809D02*
X50970238Y-38070952D01*
X50970238Y-38070952D02*
X51065476Y-37975714D01*
X51065476Y-37975714D02*
X51160714Y-37928095D01*
X51160714Y-37928095D02*
X51351190Y-37880476D01*
X51351190Y-37880476D02*
X51494047Y-37880476D01*
X51494047Y-37880476D02*
X51684523Y-37928095D01*
X51684523Y-37928095D02*
X51779761Y-37975714D01*
X51779761Y-37975714D02*
X51875000Y-38070952D01*
X51875000Y-38070952D02*
X51922619Y-38213809D01*
X51922619Y-38213809D02*
X51922619Y-38309047D01*
X51922619Y-38309047D02*
X51875000Y-38451904D01*
X51875000Y-38451904D02*
X51827380Y-38499523D01*
X51827380Y-38499523D02*
X51494047Y-38499523D01*
X51494047Y-38499523D02*
X51494047Y-38309047D01*
X51922619Y-38928095D02*
X50922619Y-38928095D01*
X50922619Y-38928095D02*
X51922619Y-39499523D01*
X51922619Y-39499523D02*
X50922619Y-39499523D01*
X51922619Y-39975714D02*
X50922619Y-39975714D01*
X50922619Y-39975714D02*
X50922619Y-40213809D01*
X50922619Y-40213809D02*
X50970238Y-40356666D01*
X50970238Y-40356666D02*
X51065476Y-40451904D01*
X51065476Y-40451904D02*
X51160714Y-40499523D01*
X51160714Y-40499523D02*
X51351190Y-40547142D01*
X51351190Y-40547142D02*
X51494047Y-40547142D01*
X51494047Y-40547142D02*
X51684523Y-40499523D01*
X51684523Y-40499523D02*
X51779761Y-40451904D01*
X51779761Y-40451904D02*
X51875000Y-40356666D01*
X51875000Y-40356666D02*
X51922619Y-40213809D01*
X51922619Y-40213809D02*
X51922619Y-39975714D01*
X29685000Y-22410476D02*
X29732619Y-22553333D01*
X29732619Y-22553333D02*
X29732619Y-22791428D01*
X29732619Y-22791428D02*
X29685000Y-22886666D01*
X29685000Y-22886666D02*
X29637380Y-22934285D01*
X29637380Y-22934285D02*
X29542142Y-22981904D01*
X29542142Y-22981904D02*
X29446904Y-22981904D01*
X29446904Y-22981904D02*
X29351666Y-22934285D01*
X29351666Y-22934285D02*
X29304047Y-22886666D01*
X29304047Y-22886666D02*
X29256428Y-22791428D01*
X29256428Y-22791428D02*
X29208809Y-22600952D01*
X29208809Y-22600952D02*
X29161190Y-22505714D01*
X29161190Y-22505714D02*
X29113571Y-22458095D01*
X29113571Y-22458095D02*
X29018333Y-22410476D01*
X29018333Y-22410476D02*
X28923095Y-22410476D01*
X28923095Y-22410476D02*
X28827857Y-22458095D01*
X28827857Y-22458095D02*
X28780238Y-22505714D01*
X28780238Y-22505714D02*
X28732619Y-22600952D01*
X28732619Y-22600952D02*
X28732619Y-22839047D01*
X28732619Y-22839047D02*
X28780238Y-22981904D01*
X29637380Y-23981904D02*
X29685000Y-23934285D01*
X29685000Y-23934285D02*
X29732619Y-23791428D01*
X29732619Y-23791428D02*
X29732619Y-23696190D01*
X29732619Y-23696190D02*
X29685000Y-23553333D01*
X29685000Y-23553333D02*
X29589761Y-23458095D01*
X29589761Y-23458095D02*
X29494523Y-23410476D01*
X29494523Y-23410476D02*
X29304047Y-23362857D01*
X29304047Y-23362857D02*
X29161190Y-23362857D01*
X29161190Y-23362857D02*
X28970714Y-23410476D01*
X28970714Y-23410476D02*
X28875476Y-23458095D01*
X28875476Y-23458095D02*
X28780238Y-23553333D01*
X28780238Y-23553333D02*
X28732619Y-23696190D01*
X28732619Y-23696190D02*
X28732619Y-23791428D01*
X28732619Y-23791428D02*
X28780238Y-23934285D01*
X28780238Y-23934285D02*
X28827857Y-23981904D01*
X29732619Y-24886666D02*
X29732619Y-24410476D01*
X29732619Y-24410476D02*
X28732619Y-24410476D01*
X53592619Y-54269523D02*
X53116428Y-53936190D01*
X53592619Y-53698095D02*
X52592619Y-53698095D01*
X52592619Y-53698095D02*
X52592619Y-54079047D01*
X52592619Y-54079047D02*
X52640238Y-54174285D01*
X52640238Y-54174285D02*
X52687857Y-54221904D01*
X52687857Y-54221904D02*
X52783095Y-54269523D01*
X52783095Y-54269523D02*
X52925952Y-54269523D01*
X52925952Y-54269523D02*
X53021190Y-54221904D01*
X53021190Y-54221904D02*
X53068809Y-54174285D01*
X53068809Y-54174285D02*
X53116428Y-54079047D01*
X53116428Y-54079047D02*
X53116428Y-53698095D01*
X53545000Y-54650476D02*
X53592619Y-54793333D01*
X53592619Y-54793333D02*
X53592619Y-55031428D01*
X53592619Y-55031428D02*
X53545000Y-55126666D01*
X53545000Y-55126666D02*
X53497380Y-55174285D01*
X53497380Y-55174285D02*
X53402142Y-55221904D01*
X53402142Y-55221904D02*
X53306904Y-55221904D01*
X53306904Y-55221904D02*
X53211666Y-55174285D01*
X53211666Y-55174285D02*
X53164047Y-55126666D01*
X53164047Y-55126666D02*
X53116428Y-55031428D01*
X53116428Y-55031428D02*
X53068809Y-54840952D01*
X53068809Y-54840952D02*
X53021190Y-54745714D01*
X53021190Y-54745714D02*
X52973571Y-54698095D01*
X52973571Y-54698095D02*
X52878333Y-54650476D01*
X52878333Y-54650476D02*
X52783095Y-54650476D01*
X52783095Y-54650476D02*
X52687857Y-54698095D01*
X52687857Y-54698095D02*
X52640238Y-54745714D01*
X52640238Y-54745714D02*
X52592619Y-54840952D01*
X52592619Y-54840952D02*
X52592619Y-55079047D01*
X52592619Y-55079047D02*
X52640238Y-55221904D01*
X52592619Y-55507619D02*
X52592619Y-56079047D01*
X53592619Y-55793333D02*
X52592619Y-55793333D01*
X42466904Y-21436666D02*
X41705000Y-21436666D01*
X42085952Y-21817619D02*
X42085952Y-21055714D01*
X34622619Y-23149523D02*
X34146428Y-22816190D01*
X34622619Y-22578095D02*
X33622619Y-22578095D01*
X33622619Y-22578095D02*
X33622619Y-22959047D01*
X33622619Y-22959047D02*
X33670238Y-23054285D01*
X33670238Y-23054285D02*
X33717857Y-23101904D01*
X33717857Y-23101904D02*
X33813095Y-23149523D01*
X33813095Y-23149523D02*
X33955952Y-23149523D01*
X33955952Y-23149523D02*
X34051190Y-23101904D01*
X34051190Y-23101904D02*
X34098809Y-23054285D01*
X34098809Y-23054285D02*
X34146428Y-22959047D01*
X34146428Y-22959047D02*
X34146428Y-22578095D01*
X34575000Y-23530476D02*
X34622619Y-23673333D01*
X34622619Y-23673333D02*
X34622619Y-23911428D01*
X34622619Y-23911428D02*
X34575000Y-24006666D01*
X34575000Y-24006666D02*
X34527380Y-24054285D01*
X34527380Y-24054285D02*
X34432142Y-24101904D01*
X34432142Y-24101904D02*
X34336904Y-24101904D01*
X34336904Y-24101904D02*
X34241666Y-24054285D01*
X34241666Y-24054285D02*
X34194047Y-24006666D01*
X34194047Y-24006666D02*
X34146428Y-23911428D01*
X34146428Y-23911428D02*
X34098809Y-23720952D01*
X34098809Y-23720952D02*
X34051190Y-23625714D01*
X34051190Y-23625714D02*
X34003571Y-23578095D01*
X34003571Y-23578095D02*
X33908333Y-23530476D01*
X33908333Y-23530476D02*
X33813095Y-23530476D01*
X33813095Y-23530476D02*
X33717857Y-23578095D01*
X33717857Y-23578095D02*
X33670238Y-23625714D01*
X33670238Y-23625714D02*
X33622619Y-23720952D01*
X33622619Y-23720952D02*
X33622619Y-23959047D01*
X33622619Y-23959047D02*
X33670238Y-24101904D01*
X33622619Y-24387619D02*
X33622619Y-24959047D01*
X34622619Y-24673333D02*
X33622619Y-24673333D01*
X13030238Y-22891904D02*
X12982619Y-22796666D01*
X12982619Y-22796666D02*
X12982619Y-22653809D01*
X12982619Y-22653809D02*
X13030238Y-22510952D01*
X13030238Y-22510952D02*
X13125476Y-22415714D01*
X13125476Y-22415714D02*
X13220714Y-22368095D01*
X13220714Y-22368095D02*
X13411190Y-22320476D01*
X13411190Y-22320476D02*
X13554047Y-22320476D01*
X13554047Y-22320476D02*
X13744523Y-22368095D01*
X13744523Y-22368095D02*
X13839761Y-22415714D01*
X13839761Y-22415714D02*
X13935000Y-22510952D01*
X13935000Y-22510952D02*
X13982619Y-22653809D01*
X13982619Y-22653809D02*
X13982619Y-22749047D01*
X13982619Y-22749047D02*
X13935000Y-22891904D01*
X13935000Y-22891904D02*
X13887380Y-22939523D01*
X13887380Y-22939523D02*
X13554047Y-22939523D01*
X13554047Y-22939523D02*
X13554047Y-22749047D01*
X13982619Y-23368095D02*
X12982619Y-23368095D01*
X12982619Y-23368095D02*
X13982619Y-23939523D01*
X13982619Y-23939523D02*
X12982619Y-23939523D01*
X13982619Y-24415714D02*
X12982619Y-24415714D01*
X12982619Y-24415714D02*
X12982619Y-24653809D01*
X12982619Y-24653809D02*
X13030238Y-24796666D01*
X13030238Y-24796666D02*
X13125476Y-24891904D01*
X13125476Y-24891904D02*
X13220714Y-24939523D01*
X13220714Y-24939523D02*
X13411190Y-24987142D01*
X13411190Y-24987142D02*
X13554047Y-24987142D01*
X13554047Y-24987142D02*
X13744523Y-24939523D01*
X13744523Y-24939523D02*
X13839761Y-24891904D01*
X13839761Y-24891904D02*
X13935000Y-24796666D01*
X13935000Y-24796666D02*
X13982619Y-24653809D01*
X13982619Y-24653809D02*
X13982619Y-24415714D01*
X42376904Y-38266666D02*
X41615000Y-38266666D01*
X60803095Y-24805238D02*
X60898333Y-24757619D01*
X60898333Y-24757619D02*
X61041190Y-24757619D01*
X61041190Y-24757619D02*
X61184047Y-24805238D01*
X61184047Y-24805238D02*
X61279285Y-24900476D01*
X61279285Y-24900476D02*
X61326904Y-24995714D01*
X61326904Y-24995714D02*
X61374523Y-25186190D01*
X61374523Y-25186190D02*
X61374523Y-25329047D01*
X61374523Y-25329047D02*
X61326904Y-25519523D01*
X61326904Y-25519523D02*
X61279285Y-25614761D01*
X61279285Y-25614761D02*
X61184047Y-25710000D01*
X61184047Y-25710000D02*
X61041190Y-25757619D01*
X61041190Y-25757619D02*
X60945952Y-25757619D01*
X60945952Y-25757619D02*
X60803095Y-25710000D01*
X60803095Y-25710000D02*
X60755476Y-25662380D01*
X60755476Y-25662380D02*
X60755476Y-25329047D01*
X60755476Y-25329047D02*
X60945952Y-25329047D01*
X21112619Y-22572857D02*
X21112619Y-23191904D01*
X21112619Y-23191904D02*
X21493571Y-22858571D01*
X21493571Y-22858571D02*
X21493571Y-23001428D01*
X21493571Y-23001428D02*
X21541190Y-23096666D01*
X21541190Y-23096666D02*
X21588809Y-23144285D01*
X21588809Y-23144285D02*
X21684047Y-23191904D01*
X21684047Y-23191904D02*
X21922142Y-23191904D01*
X21922142Y-23191904D02*
X22017380Y-23144285D01*
X22017380Y-23144285D02*
X22065000Y-23096666D01*
X22065000Y-23096666D02*
X22112619Y-23001428D01*
X22112619Y-23001428D02*
X22112619Y-22715714D01*
X22112619Y-22715714D02*
X22065000Y-22620476D01*
X22065000Y-22620476D02*
X22017380Y-22572857D01*
X21112619Y-23477619D02*
X22112619Y-23810952D01*
X22112619Y-23810952D02*
X21112619Y-24144285D01*
X21112619Y-24382381D02*
X21112619Y-25001428D01*
X21112619Y-25001428D02*
X21493571Y-24668095D01*
X21493571Y-24668095D02*
X21493571Y-24810952D01*
X21493571Y-24810952D02*
X21541190Y-24906190D01*
X21541190Y-24906190D02*
X21588809Y-24953809D01*
X21588809Y-24953809D02*
X21684047Y-25001428D01*
X21684047Y-25001428D02*
X21922142Y-25001428D01*
X21922142Y-25001428D02*
X22017380Y-24953809D01*
X22017380Y-24953809D02*
X22065000Y-24906190D01*
X22065000Y-24906190D02*
X22112619Y-24810952D01*
X22112619Y-24810952D02*
X22112619Y-24525238D01*
X22112619Y-24525238D02*
X22065000Y-24430000D01*
X22065000Y-24430000D02*
X22017380Y-24382381D01*
X20542619Y-23478095D02*
X19542619Y-23478095D01*
X19542619Y-23478095D02*
X19542619Y-23716190D01*
X19542619Y-23716190D02*
X19590238Y-23859047D01*
X19590238Y-23859047D02*
X19685476Y-23954285D01*
X19685476Y-23954285D02*
X19780714Y-24001904D01*
X19780714Y-24001904D02*
X19971190Y-24049523D01*
X19971190Y-24049523D02*
X20114047Y-24049523D01*
X20114047Y-24049523D02*
X20304523Y-24001904D01*
X20304523Y-24001904D02*
X20399761Y-23954285D01*
X20399761Y-23954285D02*
X20495000Y-23859047D01*
X20495000Y-23859047D02*
X20542619Y-23716190D01*
X20542619Y-23716190D02*
X20542619Y-23478095D01*
X19542619Y-24668571D02*
X19542619Y-24763809D01*
X19542619Y-24763809D02*
X19590238Y-24859047D01*
X19590238Y-24859047D02*
X19637857Y-24906666D01*
X19637857Y-24906666D02*
X19733095Y-24954285D01*
X19733095Y-24954285D02*
X19923571Y-25001904D01*
X19923571Y-25001904D02*
X20161666Y-25001904D01*
X20161666Y-25001904D02*
X20352142Y-24954285D01*
X20352142Y-24954285D02*
X20447380Y-24906666D01*
X20447380Y-24906666D02*
X20495000Y-24859047D01*
X20495000Y-24859047D02*
X20542619Y-24763809D01*
X20542619Y-24763809D02*
X20542619Y-24668571D01*
X20542619Y-24668571D02*
X20495000Y-24573333D01*
X20495000Y-24573333D02*
X20447380Y-24525714D01*
X20447380Y-24525714D02*
X20352142Y-24478095D01*
X20352142Y-24478095D02*
X20161666Y-24430476D01*
X20161666Y-24430476D02*
X19923571Y-24430476D01*
X19923571Y-24430476D02*
X19733095Y-24478095D01*
X19733095Y-24478095D02*
X19637857Y-24525714D01*
X19637857Y-24525714D02*
X19590238Y-24573333D01*
X19590238Y-24573333D02*
X19542619Y-24668571D01*
X15652619Y-23149523D02*
X15176428Y-22816190D01*
X15652619Y-22578095D02*
X14652619Y-22578095D01*
X14652619Y-22578095D02*
X14652619Y-22959047D01*
X14652619Y-22959047D02*
X14700238Y-23054285D01*
X14700238Y-23054285D02*
X14747857Y-23101904D01*
X14747857Y-23101904D02*
X14843095Y-23149523D01*
X14843095Y-23149523D02*
X14985952Y-23149523D01*
X14985952Y-23149523D02*
X15081190Y-23101904D01*
X15081190Y-23101904D02*
X15128809Y-23054285D01*
X15128809Y-23054285D02*
X15176428Y-22959047D01*
X15176428Y-22959047D02*
X15176428Y-22578095D01*
X15605000Y-23530476D02*
X15652619Y-23673333D01*
X15652619Y-23673333D02*
X15652619Y-23911428D01*
X15652619Y-23911428D02*
X15605000Y-24006666D01*
X15605000Y-24006666D02*
X15557380Y-24054285D01*
X15557380Y-24054285D02*
X15462142Y-24101904D01*
X15462142Y-24101904D02*
X15366904Y-24101904D01*
X15366904Y-24101904D02*
X15271666Y-24054285D01*
X15271666Y-24054285D02*
X15224047Y-24006666D01*
X15224047Y-24006666D02*
X15176428Y-23911428D01*
X15176428Y-23911428D02*
X15128809Y-23720952D01*
X15128809Y-23720952D02*
X15081190Y-23625714D01*
X15081190Y-23625714D02*
X15033571Y-23578095D01*
X15033571Y-23578095D02*
X14938333Y-23530476D01*
X14938333Y-23530476D02*
X14843095Y-23530476D01*
X14843095Y-23530476D02*
X14747857Y-23578095D01*
X14747857Y-23578095D02*
X14700238Y-23625714D01*
X14700238Y-23625714D02*
X14652619Y-23720952D01*
X14652619Y-23720952D02*
X14652619Y-23959047D01*
X14652619Y-23959047D02*
X14700238Y-24101904D01*
X14652619Y-24387619D02*
X14652619Y-24959047D01*
X15652619Y-24673333D02*
X14652619Y-24673333D01*
X61436904Y-36996666D02*
X60675000Y-36996666D01*
X61055952Y-37377619D02*
X61055952Y-36615714D01*
X27337380Y-45599523D02*
X27385000Y-45551904D01*
X27385000Y-45551904D02*
X27432619Y-45409047D01*
X27432619Y-45409047D02*
X27432619Y-45313809D01*
X27432619Y-45313809D02*
X27385000Y-45170952D01*
X27385000Y-45170952D02*
X27289761Y-45075714D01*
X27289761Y-45075714D02*
X27194523Y-45028095D01*
X27194523Y-45028095D02*
X27004047Y-44980476D01*
X27004047Y-44980476D02*
X26861190Y-44980476D01*
X26861190Y-44980476D02*
X26670714Y-45028095D01*
X26670714Y-45028095D02*
X26575476Y-45075714D01*
X26575476Y-45075714D02*
X26480238Y-45170952D01*
X26480238Y-45170952D02*
X26432619Y-45313809D01*
X26432619Y-45313809D02*
X26432619Y-45409047D01*
X26432619Y-45409047D02*
X26480238Y-45551904D01*
X26480238Y-45551904D02*
X26527857Y-45599523D01*
X27432619Y-46028095D02*
X26432619Y-46028095D01*
X26432619Y-46028095D02*
X26432619Y-46409047D01*
X26432619Y-46409047D02*
X26480238Y-46504285D01*
X26480238Y-46504285D02*
X26527857Y-46551904D01*
X26527857Y-46551904D02*
X26623095Y-46599523D01*
X26623095Y-46599523D02*
X26765952Y-46599523D01*
X26765952Y-46599523D02*
X26861190Y-46551904D01*
X26861190Y-46551904D02*
X26908809Y-46504285D01*
X26908809Y-46504285D02*
X26956428Y-46409047D01*
X26956428Y-46409047D02*
X26956428Y-46028095D01*
X26432619Y-47028095D02*
X27242142Y-47028095D01*
X27242142Y-47028095D02*
X27337380Y-47075714D01*
X27337380Y-47075714D02*
X27385000Y-47123333D01*
X27385000Y-47123333D02*
X27432619Y-47218571D01*
X27432619Y-47218571D02*
X27432619Y-47409047D01*
X27432619Y-47409047D02*
X27385000Y-47504285D01*
X27385000Y-47504285D02*
X27337380Y-47551904D01*
X27337380Y-47551904D02*
X27242142Y-47599523D01*
X27242142Y-47599523D02*
X26432619Y-47599523D01*
X36132380Y-54304523D02*
X36180000Y-54256904D01*
X36180000Y-54256904D02*
X36227619Y-54114047D01*
X36227619Y-54114047D02*
X36227619Y-54018809D01*
X36227619Y-54018809D02*
X36180000Y-53875952D01*
X36180000Y-53875952D02*
X36084761Y-53780714D01*
X36084761Y-53780714D02*
X35989523Y-53733095D01*
X35989523Y-53733095D02*
X35799047Y-53685476D01*
X35799047Y-53685476D02*
X35656190Y-53685476D01*
X35656190Y-53685476D02*
X35465714Y-53733095D01*
X35465714Y-53733095D02*
X35370476Y-53780714D01*
X35370476Y-53780714D02*
X35275238Y-53875952D01*
X35275238Y-53875952D02*
X35227619Y-54018809D01*
X35227619Y-54018809D02*
X35227619Y-54114047D01*
X35227619Y-54114047D02*
X35275238Y-54256904D01*
X35275238Y-54256904D02*
X35322857Y-54304523D01*
X36227619Y-55209285D02*
X36227619Y-54733095D01*
X36227619Y-54733095D02*
X35227619Y-54733095D01*
X36227619Y-55542619D02*
X35227619Y-55542619D01*
X36227619Y-56114047D02*
X35656190Y-55685476D01*
X35227619Y-56114047D02*
X35799047Y-55542619D01*
X60983571Y-20133809D02*
X60840714Y-20181428D01*
X60840714Y-20181428D02*
X60793095Y-20229047D01*
X60793095Y-20229047D02*
X60745476Y-20324285D01*
X60745476Y-20324285D02*
X60745476Y-20467142D01*
X60745476Y-20467142D02*
X60793095Y-20562380D01*
X60793095Y-20562380D02*
X60840714Y-20610000D01*
X60840714Y-20610000D02*
X60935952Y-20657619D01*
X60935952Y-20657619D02*
X61316904Y-20657619D01*
X61316904Y-20657619D02*
X61316904Y-19657619D01*
X61316904Y-19657619D02*
X60983571Y-19657619D01*
X60983571Y-19657619D02*
X60888333Y-19705238D01*
X60888333Y-19705238D02*
X60840714Y-19752857D01*
X60840714Y-19752857D02*
X60793095Y-19848095D01*
X60793095Y-19848095D02*
X60793095Y-19943333D01*
X60793095Y-19943333D02*
X60840714Y-20038571D01*
X60840714Y-20038571D02*
X60888333Y-20086190D01*
X60888333Y-20086190D02*
X60983571Y-20133809D01*
X60983571Y-20133809D02*
X61316904Y-20133809D01*
X41833095Y-24805238D02*
X41928333Y-24757619D01*
X41928333Y-24757619D02*
X42071190Y-24757619D01*
X42071190Y-24757619D02*
X42214047Y-24805238D01*
X42214047Y-24805238D02*
X42309285Y-24900476D01*
X42309285Y-24900476D02*
X42356904Y-24995714D01*
X42356904Y-24995714D02*
X42404523Y-25186190D01*
X42404523Y-25186190D02*
X42404523Y-25329047D01*
X42404523Y-25329047D02*
X42356904Y-25519523D01*
X42356904Y-25519523D02*
X42309285Y-25614761D01*
X42309285Y-25614761D02*
X42214047Y-25710000D01*
X42214047Y-25710000D02*
X42071190Y-25757619D01*
X42071190Y-25757619D02*
X41975952Y-25757619D01*
X41975952Y-25757619D02*
X41833095Y-25710000D01*
X41833095Y-25710000D02*
X41785476Y-25662380D01*
X41785476Y-25662380D02*
X41785476Y-25329047D01*
X41785476Y-25329047D02*
X41975952Y-25329047D01*
X39512619Y-54598095D02*
X38512619Y-54598095D01*
X38512619Y-54598095D02*
X38512619Y-54836190D01*
X38512619Y-54836190D02*
X38560238Y-54979047D01*
X38560238Y-54979047D02*
X38655476Y-55074285D01*
X38655476Y-55074285D02*
X38750714Y-55121904D01*
X38750714Y-55121904D02*
X38941190Y-55169523D01*
X38941190Y-55169523D02*
X39084047Y-55169523D01*
X39084047Y-55169523D02*
X39274523Y-55121904D01*
X39274523Y-55121904D02*
X39369761Y-55074285D01*
X39369761Y-55074285D02*
X39465000Y-54979047D01*
X39465000Y-54979047D02*
X39512619Y-54836190D01*
X39512619Y-54836190D02*
X39512619Y-54598095D01*
X38512619Y-55788571D02*
X38512619Y-55883809D01*
X38512619Y-55883809D02*
X38560238Y-55979047D01*
X38560238Y-55979047D02*
X38607857Y-56026666D01*
X38607857Y-56026666D02*
X38703095Y-56074285D01*
X38703095Y-56074285D02*
X38893571Y-56121904D01*
X38893571Y-56121904D02*
X39131666Y-56121904D01*
X39131666Y-56121904D02*
X39322142Y-56074285D01*
X39322142Y-56074285D02*
X39417380Y-56026666D01*
X39417380Y-56026666D02*
X39465000Y-55979047D01*
X39465000Y-55979047D02*
X39512619Y-55883809D01*
X39512619Y-55883809D02*
X39512619Y-55788571D01*
X39512619Y-55788571D02*
X39465000Y-55693333D01*
X39465000Y-55693333D02*
X39417380Y-55645714D01*
X39417380Y-55645714D02*
X39322142Y-55598095D01*
X39322142Y-55598095D02*
X39131666Y-55550476D01*
X39131666Y-55550476D02*
X38893571Y-55550476D01*
X38893571Y-55550476D02*
X38703095Y-55598095D01*
X38703095Y-55598095D02*
X38607857Y-55645714D01*
X38607857Y-55645714D02*
X38560238Y-55693333D01*
X38560238Y-55693333D02*
X38512619Y-55788571D01*
X31235000Y-53530476D02*
X31282619Y-53673333D01*
X31282619Y-53673333D02*
X31282619Y-53911428D01*
X31282619Y-53911428D02*
X31235000Y-54006666D01*
X31235000Y-54006666D02*
X31187380Y-54054285D01*
X31187380Y-54054285D02*
X31092142Y-54101904D01*
X31092142Y-54101904D02*
X30996904Y-54101904D01*
X30996904Y-54101904D02*
X30901666Y-54054285D01*
X30901666Y-54054285D02*
X30854047Y-54006666D01*
X30854047Y-54006666D02*
X30806428Y-53911428D01*
X30806428Y-53911428D02*
X30758809Y-53720952D01*
X30758809Y-53720952D02*
X30711190Y-53625714D01*
X30711190Y-53625714D02*
X30663571Y-53578095D01*
X30663571Y-53578095D02*
X30568333Y-53530476D01*
X30568333Y-53530476D02*
X30473095Y-53530476D01*
X30473095Y-53530476D02*
X30377857Y-53578095D01*
X30377857Y-53578095D02*
X30330238Y-53625714D01*
X30330238Y-53625714D02*
X30282619Y-53720952D01*
X30282619Y-53720952D02*
X30282619Y-53959047D01*
X30282619Y-53959047D02*
X30330238Y-54101904D01*
X31282619Y-54530476D02*
X30282619Y-54530476D01*
X30282619Y-54530476D02*
X30282619Y-54768571D01*
X30282619Y-54768571D02*
X30330238Y-54911428D01*
X30330238Y-54911428D02*
X30425476Y-55006666D01*
X30425476Y-55006666D02*
X30520714Y-55054285D01*
X30520714Y-55054285D02*
X30711190Y-55101904D01*
X30711190Y-55101904D02*
X30854047Y-55101904D01*
X30854047Y-55101904D02*
X31044523Y-55054285D01*
X31044523Y-55054285D02*
X31139761Y-55006666D01*
X31139761Y-55006666D02*
X31235000Y-54911428D01*
X31235000Y-54911428D02*
X31282619Y-54768571D01*
X31282619Y-54768571D02*
X31282619Y-54530476D01*
X30996904Y-55482857D02*
X30996904Y-55959047D01*
X31282619Y-55387619D02*
X30282619Y-55720952D01*
X30282619Y-55720952D02*
X31282619Y-56054285D01*
X23043571Y-51253809D02*
X22900714Y-51301428D01*
X22900714Y-51301428D02*
X22853095Y-51349047D01*
X22853095Y-51349047D02*
X22805476Y-51444285D01*
X22805476Y-51444285D02*
X22805476Y-51587142D01*
X22805476Y-51587142D02*
X22853095Y-51682380D01*
X22853095Y-51682380D02*
X22900714Y-51730000D01*
X22900714Y-51730000D02*
X22995952Y-51777619D01*
X22995952Y-51777619D02*
X23376904Y-51777619D01*
X23376904Y-51777619D02*
X23376904Y-50777619D01*
X23376904Y-50777619D02*
X23043571Y-50777619D01*
X23043571Y-50777619D02*
X22948333Y-50825238D01*
X22948333Y-50825238D02*
X22900714Y-50872857D01*
X22900714Y-50872857D02*
X22853095Y-50968095D01*
X22853095Y-50968095D02*
X22853095Y-51063333D01*
X22853095Y-51063333D02*
X22900714Y-51158571D01*
X22900714Y-51158571D02*
X22948333Y-51206190D01*
X22948333Y-51206190D02*
X23043571Y-51253809D01*
X23043571Y-51253809D02*
X23376904Y-51253809D01*
X34622619Y-54269523D02*
X34146428Y-53936190D01*
X34622619Y-53698095D02*
X33622619Y-53698095D01*
X33622619Y-53698095D02*
X33622619Y-54079047D01*
X33622619Y-54079047D02*
X33670238Y-54174285D01*
X33670238Y-54174285D02*
X33717857Y-54221904D01*
X33717857Y-54221904D02*
X33813095Y-54269523D01*
X33813095Y-54269523D02*
X33955952Y-54269523D01*
X33955952Y-54269523D02*
X34051190Y-54221904D01*
X34051190Y-54221904D02*
X34098809Y-54174285D01*
X34098809Y-54174285D02*
X34146428Y-54079047D01*
X34146428Y-54079047D02*
X34146428Y-53698095D01*
X34575000Y-54650476D02*
X34622619Y-54793333D01*
X34622619Y-54793333D02*
X34622619Y-55031428D01*
X34622619Y-55031428D02*
X34575000Y-55126666D01*
X34575000Y-55126666D02*
X34527380Y-55174285D01*
X34527380Y-55174285D02*
X34432142Y-55221904D01*
X34432142Y-55221904D02*
X34336904Y-55221904D01*
X34336904Y-55221904D02*
X34241666Y-55174285D01*
X34241666Y-55174285D02*
X34194047Y-55126666D01*
X34194047Y-55126666D02*
X34146428Y-55031428D01*
X34146428Y-55031428D02*
X34098809Y-54840952D01*
X34098809Y-54840952D02*
X34051190Y-54745714D01*
X34051190Y-54745714D02*
X34003571Y-54698095D01*
X34003571Y-54698095D02*
X33908333Y-54650476D01*
X33908333Y-54650476D02*
X33813095Y-54650476D01*
X33813095Y-54650476D02*
X33717857Y-54698095D01*
X33717857Y-54698095D02*
X33670238Y-54745714D01*
X33670238Y-54745714D02*
X33622619Y-54840952D01*
X33622619Y-54840952D02*
X33622619Y-55079047D01*
X33622619Y-55079047D02*
X33670238Y-55221904D01*
X33622619Y-55507619D02*
X33622619Y-56079047D01*
X34622619Y-55793333D02*
X33622619Y-55793333D01*
X21112619Y-38132857D02*
X21112619Y-38751904D01*
X21112619Y-38751904D02*
X21493571Y-38418571D01*
X21493571Y-38418571D02*
X21493571Y-38561428D01*
X21493571Y-38561428D02*
X21541190Y-38656666D01*
X21541190Y-38656666D02*
X21588809Y-38704285D01*
X21588809Y-38704285D02*
X21684047Y-38751904D01*
X21684047Y-38751904D02*
X21922142Y-38751904D01*
X21922142Y-38751904D02*
X22017380Y-38704285D01*
X22017380Y-38704285D02*
X22065000Y-38656666D01*
X22065000Y-38656666D02*
X22112619Y-38561428D01*
X22112619Y-38561428D02*
X22112619Y-38275714D01*
X22112619Y-38275714D02*
X22065000Y-38180476D01*
X22065000Y-38180476D02*
X22017380Y-38132857D01*
X21112619Y-39037619D02*
X22112619Y-39370952D01*
X22112619Y-39370952D02*
X21112619Y-39704285D01*
X21112619Y-39942381D02*
X21112619Y-40561428D01*
X21112619Y-40561428D02*
X21493571Y-40228095D01*
X21493571Y-40228095D02*
X21493571Y-40370952D01*
X21493571Y-40370952D02*
X21541190Y-40466190D01*
X21541190Y-40466190D02*
X21588809Y-40513809D01*
X21588809Y-40513809D02*
X21684047Y-40561428D01*
X21684047Y-40561428D02*
X21922142Y-40561428D01*
X21922142Y-40561428D02*
X22017380Y-40513809D01*
X22017380Y-40513809D02*
X22065000Y-40466190D01*
X22065000Y-40466190D02*
X22112619Y-40370952D01*
X22112619Y-40370952D02*
X22112619Y-40085238D01*
X22112619Y-40085238D02*
X22065000Y-39990000D01*
X22065000Y-39990000D02*
X22017380Y-39942381D01*
X8367380Y-14479523D02*
X8415000Y-14431904D01*
X8415000Y-14431904D02*
X8462619Y-14289047D01*
X8462619Y-14289047D02*
X8462619Y-14193809D01*
X8462619Y-14193809D02*
X8415000Y-14050952D01*
X8415000Y-14050952D02*
X8319761Y-13955714D01*
X8319761Y-13955714D02*
X8224523Y-13908095D01*
X8224523Y-13908095D02*
X8034047Y-13860476D01*
X8034047Y-13860476D02*
X7891190Y-13860476D01*
X7891190Y-13860476D02*
X7700714Y-13908095D01*
X7700714Y-13908095D02*
X7605476Y-13955714D01*
X7605476Y-13955714D02*
X7510238Y-14050952D01*
X7510238Y-14050952D02*
X7462619Y-14193809D01*
X7462619Y-14193809D02*
X7462619Y-14289047D01*
X7462619Y-14289047D02*
X7510238Y-14431904D01*
X7510238Y-14431904D02*
X7557857Y-14479523D01*
X8462619Y-14908095D02*
X7462619Y-14908095D01*
X7462619Y-14908095D02*
X7462619Y-15289047D01*
X7462619Y-15289047D02*
X7510238Y-15384285D01*
X7510238Y-15384285D02*
X7557857Y-15431904D01*
X7557857Y-15431904D02*
X7653095Y-15479523D01*
X7653095Y-15479523D02*
X7795952Y-15479523D01*
X7795952Y-15479523D02*
X7891190Y-15431904D01*
X7891190Y-15431904D02*
X7938809Y-15384285D01*
X7938809Y-15384285D02*
X7986428Y-15289047D01*
X7986428Y-15289047D02*
X7986428Y-14908095D01*
X7462619Y-15908095D02*
X8272142Y-15908095D01*
X8272142Y-15908095D02*
X8367380Y-15955714D01*
X8367380Y-15955714D02*
X8415000Y-16003333D01*
X8415000Y-16003333D02*
X8462619Y-16098571D01*
X8462619Y-16098571D02*
X8462619Y-16289047D01*
X8462619Y-16289047D02*
X8415000Y-16384285D01*
X8415000Y-16384285D02*
X8367380Y-16431904D01*
X8367380Y-16431904D02*
X8272142Y-16479523D01*
X8272142Y-16479523D02*
X7462619Y-16479523D01*
X42013571Y-51253809D02*
X41870714Y-51301428D01*
X41870714Y-51301428D02*
X41823095Y-51349047D01*
X41823095Y-51349047D02*
X41775476Y-51444285D01*
X41775476Y-51444285D02*
X41775476Y-51587142D01*
X41775476Y-51587142D02*
X41823095Y-51682380D01*
X41823095Y-51682380D02*
X41870714Y-51730000D01*
X41870714Y-51730000D02*
X41965952Y-51777619D01*
X41965952Y-51777619D02*
X42346904Y-51777619D01*
X42346904Y-51777619D02*
X42346904Y-50777619D01*
X42346904Y-50777619D02*
X42013571Y-50777619D01*
X42013571Y-50777619D02*
X41918333Y-50825238D01*
X41918333Y-50825238D02*
X41870714Y-50872857D01*
X41870714Y-50872857D02*
X41823095Y-50968095D01*
X41823095Y-50968095D02*
X41823095Y-51063333D01*
X41823095Y-51063333D02*
X41870714Y-51158571D01*
X41870714Y-51158571D02*
X41918333Y-51206190D01*
X41918333Y-51206190D02*
X42013571Y-51253809D01*
X42013571Y-51253809D02*
X42346904Y-51253809D01*
X60983571Y-35693809D02*
X60840714Y-35741428D01*
X60840714Y-35741428D02*
X60793095Y-35789047D01*
X60793095Y-35789047D02*
X60745476Y-35884285D01*
X60745476Y-35884285D02*
X60745476Y-36027142D01*
X60745476Y-36027142D02*
X60793095Y-36122380D01*
X60793095Y-36122380D02*
X60840714Y-36170000D01*
X60840714Y-36170000D02*
X60935952Y-36217619D01*
X60935952Y-36217619D02*
X61316904Y-36217619D01*
X61316904Y-36217619D02*
X61316904Y-35217619D01*
X61316904Y-35217619D02*
X60983571Y-35217619D01*
X60983571Y-35217619D02*
X60888333Y-35265238D01*
X60888333Y-35265238D02*
X60840714Y-35312857D01*
X60840714Y-35312857D02*
X60793095Y-35408095D01*
X60793095Y-35408095D02*
X60793095Y-35503333D01*
X60793095Y-35503333D02*
X60840714Y-35598571D01*
X60840714Y-35598571D02*
X60888333Y-35646190D01*
X60888333Y-35646190D02*
X60983571Y-35693809D01*
X60983571Y-35693809D02*
X61316904Y-35693809D01*
X60803095Y-55925238D02*
X60898333Y-55877619D01*
X60898333Y-55877619D02*
X61041190Y-55877619D01*
X61041190Y-55877619D02*
X61184047Y-55925238D01*
X61184047Y-55925238D02*
X61279285Y-56020476D01*
X61279285Y-56020476D02*
X61326904Y-56115714D01*
X61326904Y-56115714D02*
X61374523Y-56306190D01*
X61374523Y-56306190D02*
X61374523Y-56449047D01*
X61374523Y-56449047D02*
X61326904Y-56639523D01*
X61326904Y-56639523D02*
X61279285Y-56734761D01*
X61279285Y-56734761D02*
X61184047Y-56830000D01*
X61184047Y-56830000D02*
X61041190Y-56877619D01*
X61041190Y-56877619D02*
X60945952Y-56877619D01*
X60945952Y-56877619D02*
X60803095Y-56830000D01*
X60803095Y-56830000D02*
X60755476Y-56782380D01*
X60755476Y-56782380D02*
X60755476Y-56449047D01*
X60755476Y-56449047D02*
X60945952Y-56449047D01*
X37742380Y-38454523D02*
X37790000Y-38406904D01*
X37790000Y-38406904D02*
X37837619Y-38264047D01*
X37837619Y-38264047D02*
X37837619Y-38168809D01*
X37837619Y-38168809D02*
X37790000Y-38025952D01*
X37790000Y-38025952D02*
X37694761Y-37930714D01*
X37694761Y-37930714D02*
X37599523Y-37883095D01*
X37599523Y-37883095D02*
X37409047Y-37835476D01*
X37409047Y-37835476D02*
X37266190Y-37835476D01*
X37266190Y-37835476D02*
X37075714Y-37883095D01*
X37075714Y-37883095D02*
X36980476Y-37930714D01*
X36980476Y-37930714D02*
X36885238Y-38025952D01*
X36885238Y-38025952D02*
X36837619Y-38168809D01*
X36837619Y-38168809D02*
X36837619Y-38264047D01*
X36837619Y-38264047D02*
X36885238Y-38406904D01*
X36885238Y-38406904D02*
X36932857Y-38454523D01*
X37837619Y-38883095D02*
X36837619Y-38883095D01*
X36837619Y-38883095D02*
X37551904Y-39216428D01*
X37551904Y-39216428D02*
X36837619Y-39549761D01*
X36837619Y-39549761D02*
X37837619Y-39549761D01*
X37837619Y-40025952D02*
X36837619Y-40025952D01*
X36837619Y-40025952D02*
X36837619Y-40264047D01*
X36837619Y-40264047D02*
X36885238Y-40406904D01*
X36885238Y-40406904D02*
X36980476Y-40502142D01*
X36980476Y-40502142D02*
X37075714Y-40549761D01*
X37075714Y-40549761D02*
X37266190Y-40597380D01*
X37266190Y-40597380D02*
X37409047Y-40597380D01*
X37409047Y-40597380D02*
X37599523Y-40549761D01*
X37599523Y-40549761D02*
X37694761Y-40502142D01*
X37694761Y-40502142D02*
X37790000Y-40406904D01*
X37790000Y-40406904D02*
X37837619Y-40264047D01*
X37837619Y-40264047D02*
X37837619Y-40025952D01*
X15652619Y-54269523D02*
X15176428Y-53936190D01*
X15652619Y-53698095D02*
X14652619Y-53698095D01*
X14652619Y-53698095D02*
X14652619Y-54079047D01*
X14652619Y-54079047D02*
X14700238Y-54174285D01*
X14700238Y-54174285D02*
X14747857Y-54221904D01*
X14747857Y-54221904D02*
X14843095Y-54269523D01*
X14843095Y-54269523D02*
X14985952Y-54269523D01*
X14985952Y-54269523D02*
X15081190Y-54221904D01*
X15081190Y-54221904D02*
X15128809Y-54174285D01*
X15128809Y-54174285D02*
X15176428Y-54079047D01*
X15176428Y-54079047D02*
X15176428Y-53698095D01*
X15605000Y-54650476D02*
X15652619Y-54793333D01*
X15652619Y-54793333D02*
X15652619Y-55031428D01*
X15652619Y-55031428D02*
X15605000Y-55126666D01*
X15605000Y-55126666D02*
X15557380Y-55174285D01*
X15557380Y-55174285D02*
X15462142Y-55221904D01*
X15462142Y-55221904D02*
X15366904Y-55221904D01*
X15366904Y-55221904D02*
X15271666Y-55174285D01*
X15271666Y-55174285D02*
X15224047Y-55126666D01*
X15224047Y-55126666D02*
X15176428Y-55031428D01*
X15176428Y-55031428D02*
X15128809Y-54840952D01*
X15128809Y-54840952D02*
X15081190Y-54745714D01*
X15081190Y-54745714D02*
X15033571Y-54698095D01*
X15033571Y-54698095D02*
X14938333Y-54650476D01*
X14938333Y-54650476D02*
X14843095Y-54650476D01*
X14843095Y-54650476D02*
X14747857Y-54698095D01*
X14747857Y-54698095D02*
X14700238Y-54745714D01*
X14700238Y-54745714D02*
X14652619Y-54840952D01*
X14652619Y-54840952D02*
X14652619Y-55079047D01*
X14652619Y-55079047D02*
X14700238Y-55221904D01*
X14652619Y-55507619D02*
X14652619Y-56079047D01*
X15652619Y-55793333D02*
X14652619Y-55793333D01*
X53592619Y-23149523D02*
X53116428Y-22816190D01*
X53592619Y-22578095D02*
X52592619Y-22578095D01*
X52592619Y-22578095D02*
X52592619Y-22959047D01*
X52592619Y-22959047D02*
X52640238Y-23054285D01*
X52640238Y-23054285D02*
X52687857Y-23101904D01*
X52687857Y-23101904D02*
X52783095Y-23149523D01*
X52783095Y-23149523D02*
X52925952Y-23149523D01*
X52925952Y-23149523D02*
X53021190Y-23101904D01*
X53021190Y-23101904D02*
X53068809Y-23054285D01*
X53068809Y-23054285D02*
X53116428Y-22959047D01*
X53116428Y-22959047D02*
X53116428Y-22578095D01*
X53545000Y-23530476D02*
X53592619Y-23673333D01*
X53592619Y-23673333D02*
X53592619Y-23911428D01*
X53592619Y-23911428D02*
X53545000Y-24006666D01*
X53545000Y-24006666D02*
X53497380Y-24054285D01*
X53497380Y-24054285D02*
X53402142Y-24101904D01*
X53402142Y-24101904D02*
X53306904Y-24101904D01*
X53306904Y-24101904D02*
X53211666Y-24054285D01*
X53211666Y-24054285D02*
X53164047Y-24006666D01*
X53164047Y-24006666D02*
X53116428Y-23911428D01*
X53116428Y-23911428D02*
X53068809Y-23720952D01*
X53068809Y-23720952D02*
X53021190Y-23625714D01*
X53021190Y-23625714D02*
X52973571Y-23578095D01*
X52973571Y-23578095D02*
X52878333Y-23530476D01*
X52878333Y-23530476D02*
X52783095Y-23530476D01*
X52783095Y-23530476D02*
X52687857Y-23578095D01*
X52687857Y-23578095D02*
X52640238Y-23625714D01*
X52640238Y-23625714D02*
X52592619Y-23720952D01*
X52592619Y-23720952D02*
X52592619Y-23959047D01*
X52592619Y-23959047D02*
X52640238Y-24101904D01*
X52592619Y-24387619D02*
X52592619Y-24959047D01*
X53592619Y-24673333D02*
X52592619Y-24673333D01*
X37742380Y-54014523D02*
X37790000Y-53966904D01*
X37790000Y-53966904D02*
X37837619Y-53824047D01*
X37837619Y-53824047D02*
X37837619Y-53728809D01*
X37837619Y-53728809D02*
X37790000Y-53585952D01*
X37790000Y-53585952D02*
X37694761Y-53490714D01*
X37694761Y-53490714D02*
X37599523Y-53443095D01*
X37599523Y-53443095D02*
X37409047Y-53395476D01*
X37409047Y-53395476D02*
X37266190Y-53395476D01*
X37266190Y-53395476D02*
X37075714Y-53443095D01*
X37075714Y-53443095D02*
X36980476Y-53490714D01*
X36980476Y-53490714D02*
X36885238Y-53585952D01*
X36885238Y-53585952D02*
X36837619Y-53728809D01*
X36837619Y-53728809D02*
X36837619Y-53824047D01*
X36837619Y-53824047D02*
X36885238Y-53966904D01*
X36885238Y-53966904D02*
X36932857Y-54014523D01*
X37837619Y-54443095D02*
X36837619Y-54443095D01*
X36837619Y-54443095D02*
X37551904Y-54776428D01*
X37551904Y-54776428D02*
X36837619Y-55109761D01*
X36837619Y-55109761D02*
X37837619Y-55109761D01*
X37837619Y-55585952D02*
X36837619Y-55585952D01*
X36837619Y-55585952D02*
X36837619Y-55824047D01*
X36837619Y-55824047D02*
X36885238Y-55966904D01*
X36885238Y-55966904D02*
X36980476Y-56062142D01*
X36980476Y-56062142D02*
X37075714Y-56109761D01*
X37075714Y-56109761D02*
X37266190Y-56157380D01*
X37266190Y-56157380D02*
X37409047Y-56157380D01*
X37409047Y-56157380D02*
X37599523Y-56109761D01*
X37599523Y-56109761D02*
X37694761Y-56062142D01*
X37694761Y-56062142D02*
X37790000Y-55966904D01*
X37790000Y-55966904D02*
X37837619Y-55824047D01*
X37837619Y-55824047D02*
X37837619Y-55585952D01*
X17162380Y-54304523D02*
X17210000Y-54256904D01*
X17210000Y-54256904D02*
X17257619Y-54114047D01*
X17257619Y-54114047D02*
X17257619Y-54018809D01*
X17257619Y-54018809D02*
X17210000Y-53875952D01*
X17210000Y-53875952D02*
X17114761Y-53780714D01*
X17114761Y-53780714D02*
X17019523Y-53733095D01*
X17019523Y-53733095D02*
X16829047Y-53685476D01*
X16829047Y-53685476D02*
X16686190Y-53685476D01*
X16686190Y-53685476D02*
X16495714Y-53733095D01*
X16495714Y-53733095D02*
X16400476Y-53780714D01*
X16400476Y-53780714D02*
X16305238Y-53875952D01*
X16305238Y-53875952D02*
X16257619Y-54018809D01*
X16257619Y-54018809D02*
X16257619Y-54114047D01*
X16257619Y-54114047D02*
X16305238Y-54256904D01*
X16305238Y-54256904D02*
X16352857Y-54304523D01*
X17257619Y-55209285D02*
X17257619Y-54733095D01*
X17257619Y-54733095D02*
X16257619Y-54733095D01*
X17257619Y-55542619D02*
X16257619Y-55542619D01*
X17257619Y-56114047D02*
X16686190Y-55685476D01*
X16257619Y-56114047D02*
X16829047Y-55542619D01*
X55102380Y-23184523D02*
X55150000Y-23136904D01*
X55150000Y-23136904D02*
X55197619Y-22994047D01*
X55197619Y-22994047D02*
X55197619Y-22898809D01*
X55197619Y-22898809D02*
X55150000Y-22755952D01*
X55150000Y-22755952D02*
X55054761Y-22660714D01*
X55054761Y-22660714D02*
X54959523Y-22613095D01*
X54959523Y-22613095D02*
X54769047Y-22565476D01*
X54769047Y-22565476D02*
X54626190Y-22565476D01*
X54626190Y-22565476D02*
X54435714Y-22613095D01*
X54435714Y-22613095D02*
X54340476Y-22660714D01*
X54340476Y-22660714D02*
X54245238Y-22755952D01*
X54245238Y-22755952D02*
X54197619Y-22898809D01*
X54197619Y-22898809D02*
X54197619Y-22994047D01*
X54197619Y-22994047D02*
X54245238Y-23136904D01*
X54245238Y-23136904D02*
X54292857Y-23184523D01*
X55197619Y-24089285D02*
X55197619Y-23613095D01*
X55197619Y-23613095D02*
X54197619Y-23613095D01*
X55197619Y-24422619D02*
X54197619Y-24422619D01*
X55197619Y-24994047D02*
X54626190Y-24565476D01*
X54197619Y-24994047D02*
X54769047Y-24422619D01*
X31235000Y-37970476D02*
X31282619Y-38113333D01*
X31282619Y-38113333D02*
X31282619Y-38351428D01*
X31282619Y-38351428D02*
X31235000Y-38446666D01*
X31235000Y-38446666D02*
X31187380Y-38494285D01*
X31187380Y-38494285D02*
X31092142Y-38541904D01*
X31092142Y-38541904D02*
X30996904Y-38541904D01*
X30996904Y-38541904D02*
X30901666Y-38494285D01*
X30901666Y-38494285D02*
X30854047Y-38446666D01*
X30854047Y-38446666D02*
X30806428Y-38351428D01*
X30806428Y-38351428D02*
X30758809Y-38160952D01*
X30758809Y-38160952D02*
X30711190Y-38065714D01*
X30711190Y-38065714D02*
X30663571Y-38018095D01*
X30663571Y-38018095D02*
X30568333Y-37970476D01*
X30568333Y-37970476D02*
X30473095Y-37970476D01*
X30473095Y-37970476D02*
X30377857Y-38018095D01*
X30377857Y-38018095D02*
X30330238Y-38065714D01*
X30330238Y-38065714D02*
X30282619Y-38160952D01*
X30282619Y-38160952D02*
X30282619Y-38399047D01*
X30282619Y-38399047D02*
X30330238Y-38541904D01*
X31282619Y-38970476D02*
X30282619Y-38970476D01*
X30282619Y-38970476D02*
X30282619Y-39208571D01*
X30282619Y-39208571D02*
X30330238Y-39351428D01*
X30330238Y-39351428D02*
X30425476Y-39446666D01*
X30425476Y-39446666D02*
X30520714Y-39494285D01*
X30520714Y-39494285D02*
X30711190Y-39541904D01*
X30711190Y-39541904D02*
X30854047Y-39541904D01*
X30854047Y-39541904D02*
X31044523Y-39494285D01*
X31044523Y-39494285D02*
X31139761Y-39446666D01*
X31139761Y-39446666D02*
X31235000Y-39351428D01*
X31235000Y-39351428D02*
X31282619Y-39208571D01*
X31282619Y-39208571D02*
X31282619Y-38970476D01*
X30996904Y-39922857D02*
X30996904Y-40399047D01*
X31282619Y-39827619D02*
X30282619Y-40160952D01*
X30282619Y-40160952D02*
X31282619Y-40494285D01*
X41833095Y-55925238D02*
X41928333Y-55877619D01*
X41928333Y-55877619D02*
X42071190Y-55877619D01*
X42071190Y-55877619D02*
X42214047Y-55925238D01*
X42214047Y-55925238D02*
X42309285Y-56020476D01*
X42309285Y-56020476D02*
X42356904Y-56115714D01*
X42356904Y-56115714D02*
X42404523Y-56306190D01*
X42404523Y-56306190D02*
X42404523Y-56449047D01*
X42404523Y-56449047D02*
X42356904Y-56639523D01*
X42356904Y-56639523D02*
X42309285Y-56734761D01*
X42309285Y-56734761D02*
X42214047Y-56830000D01*
X42214047Y-56830000D02*
X42071190Y-56877619D01*
X42071190Y-56877619D02*
X41975952Y-56877619D01*
X41975952Y-56877619D02*
X41833095Y-56830000D01*
X41833095Y-56830000D02*
X41785476Y-56782380D01*
X41785476Y-56782380D02*
X41785476Y-56449047D01*
X41785476Y-56449047D02*
X41975952Y-56449047D01*
X23043571Y-20133809D02*
X22900714Y-20181428D01*
X22900714Y-20181428D02*
X22853095Y-20229047D01*
X22853095Y-20229047D02*
X22805476Y-20324285D01*
X22805476Y-20324285D02*
X22805476Y-20467142D01*
X22805476Y-20467142D02*
X22853095Y-20562380D01*
X22853095Y-20562380D02*
X22900714Y-20610000D01*
X22900714Y-20610000D02*
X22995952Y-20657619D01*
X22995952Y-20657619D02*
X23376904Y-20657619D01*
X23376904Y-20657619D02*
X23376904Y-19657619D01*
X23376904Y-19657619D02*
X23043571Y-19657619D01*
X23043571Y-19657619D02*
X22948333Y-19705238D01*
X22948333Y-19705238D02*
X22900714Y-19752857D01*
X22900714Y-19752857D02*
X22853095Y-19848095D01*
X22853095Y-19848095D02*
X22853095Y-19943333D01*
X22853095Y-19943333D02*
X22900714Y-20038571D01*
X22900714Y-20038571D02*
X22948333Y-20086190D01*
X22948333Y-20086190D02*
X23043571Y-20133809D01*
X23043571Y-20133809D02*
X23376904Y-20133809D01*
X60745476Y-34917619D02*
X61078809Y-34441428D01*
X61316904Y-34917619D02*
X61316904Y-33917619D01*
X61316904Y-33917619D02*
X60935952Y-33917619D01*
X60935952Y-33917619D02*
X60840714Y-33965238D01*
X60840714Y-33965238D02*
X60793095Y-34012857D01*
X60793095Y-34012857D02*
X60745476Y-34108095D01*
X60745476Y-34108095D02*
X60745476Y-34250952D01*
X60745476Y-34250952D02*
X60793095Y-34346190D01*
X60793095Y-34346190D02*
X60840714Y-34393809D01*
X60840714Y-34393809D02*
X60935952Y-34441428D01*
X60935952Y-34441428D02*
X61316904Y-34441428D01*
X18772380Y-22894523D02*
X18820000Y-22846904D01*
X18820000Y-22846904D02*
X18867619Y-22704047D01*
X18867619Y-22704047D02*
X18867619Y-22608809D01*
X18867619Y-22608809D02*
X18820000Y-22465952D01*
X18820000Y-22465952D02*
X18724761Y-22370714D01*
X18724761Y-22370714D02*
X18629523Y-22323095D01*
X18629523Y-22323095D02*
X18439047Y-22275476D01*
X18439047Y-22275476D02*
X18296190Y-22275476D01*
X18296190Y-22275476D02*
X18105714Y-22323095D01*
X18105714Y-22323095D02*
X18010476Y-22370714D01*
X18010476Y-22370714D02*
X17915238Y-22465952D01*
X17915238Y-22465952D02*
X17867619Y-22608809D01*
X17867619Y-22608809D02*
X17867619Y-22704047D01*
X17867619Y-22704047D02*
X17915238Y-22846904D01*
X17915238Y-22846904D02*
X17962857Y-22894523D01*
X18867619Y-23323095D02*
X17867619Y-23323095D01*
X17867619Y-23323095D02*
X18581904Y-23656428D01*
X18581904Y-23656428D02*
X17867619Y-23989761D01*
X17867619Y-23989761D02*
X18867619Y-23989761D01*
X18867619Y-24465952D02*
X17867619Y-24465952D01*
X17867619Y-24465952D02*
X17867619Y-24704047D01*
X17867619Y-24704047D02*
X17915238Y-24846904D01*
X17915238Y-24846904D02*
X18010476Y-24942142D01*
X18010476Y-24942142D02*
X18105714Y-24989761D01*
X18105714Y-24989761D02*
X18296190Y-25037380D01*
X18296190Y-25037380D02*
X18439047Y-25037380D01*
X18439047Y-25037380D02*
X18629523Y-24989761D01*
X18629523Y-24989761D02*
X18724761Y-24942142D01*
X18724761Y-24942142D02*
X18820000Y-24846904D01*
X18820000Y-24846904D02*
X18867619Y-24704047D01*
X18867619Y-24704047D02*
X18867619Y-24465952D01*
X23406904Y-22706666D02*
X22645000Y-22706666D01*
X39512619Y-23478095D02*
X38512619Y-23478095D01*
X38512619Y-23478095D02*
X38512619Y-23716190D01*
X38512619Y-23716190D02*
X38560238Y-23859047D01*
X38560238Y-23859047D02*
X38655476Y-23954285D01*
X38655476Y-23954285D02*
X38750714Y-24001904D01*
X38750714Y-24001904D02*
X38941190Y-24049523D01*
X38941190Y-24049523D02*
X39084047Y-24049523D01*
X39084047Y-24049523D02*
X39274523Y-24001904D01*
X39274523Y-24001904D02*
X39369761Y-23954285D01*
X39369761Y-23954285D02*
X39465000Y-23859047D01*
X39465000Y-23859047D02*
X39512619Y-23716190D01*
X39512619Y-23716190D02*
X39512619Y-23478095D01*
X38512619Y-24668571D02*
X38512619Y-24763809D01*
X38512619Y-24763809D02*
X38560238Y-24859047D01*
X38560238Y-24859047D02*
X38607857Y-24906666D01*
X38607857Y-24906666D02*
X38703095Y-24954285D01*
X38703095Y-24954285D02*
X38893571Y-25001904D01*
X38893571Y-25001904D02*
X39131666Y-25001904D01*
X39131666Y-25001904D02*
X39322142Y-24954285D01*
X39322142Y-24954285D02*
X39417380Y-24906666D01*
X39417380Y-24906666D02*
X39465000Y-24859047D01*
X39465000Y-24859047D02*
X39512619Y-24763809D01*
X39512619Y-24763809D02*
X39512619Y-24668571D01*
X39512619Y-24668571D02*
X39465000Y-24573333D01*
X39465000Y-24573333D02*
X39417380Y-24525714D01*
X39417380Y-24525714D02*
X39322142Y-24478095D01*
X39322142Y-24478095D02*
X39131666Y-24430476D01*
X39131666Y-24430476D02*
X38893571Y-24430476D01*
X38893571Y-24430476D02*
X38703095Y-24478095D01*
X38703095Y-24478095D02*
X38607857Y-24525714D01*
X38607857Y-24525714D02*
X38560238Y-24573333D01*
X38560238Y-24573333D02*
X38512619Y-24668571D01*
X22863095Y-40365238D02*
X22958333Y-40317619D01*
X22958333Y-40317619D02*
X23101190Y-40317619D01*
X23101190Y-40317619D02*
X23244047Y-40365238D01*
X23244047Y-40365238D02*
X23339285Y-40460476D01*
X23339285Y-40460476D02*
X23386904Y-40555714D01*
X23386904Y-40555714D02*
X23434523Y-40746190D01*
X23434523Y-40746190D02*
X23434523Y-40889047D01*
X23434523Y-40889047D02*
X23386904Y-41079523D01*
X23386904Y-41079523D02*
X23339285Y-41174761D01*
X23339285Y-41174761D02*
X23244047Y-41270000D01*
X23244047Y-41270000D02*
X23101190Y-41317619D01*
X23101190Y-41317619D02*
X23005952Y-41317619D01*
X23005952Y-41317619D02*
X22863095Y-41270000D01*
X22863095Y-41270000D02*
X22815476Y-41222380D01*
X22815476Y-41222380D02*
X22815476Y-40889047D01*
X22815476Y-40889047D02*
X23005952Y-40889047D01*
X58482619Y-54598095D02*
X57482619Y-54598095D01*
X57482619Y-54598095D02*
X57482619Y-54836190D01*
X57482619Y-54836190D02*
X57530238Y-54979047D01*
X57530238Y-54979047D02*
X57625476Y-55074285D01*
X57625476Y-55074285D02*
X57720714Y-55121904D01*
X57720714Y-55121904D02*
X57911190Y-55169523D01*
X57911190Y-55169523D02*
X58054047Y-55169523D01*
X58054047Y-55169523D02*
X58244523Y-55121904D01*
X58244523Y-55121904D02*
X58339761Y-55074285D01*
X58339761Y-55074285D02*
X58435000Y-54979047D01*
X58435000Y-54979047D02*
X58482619Y-54836190D01*
X58482619Y-54836190D02*
X58482619Y-54598095D01*
X57482619Y-55788571D02*
X57482619Y-55883809D01*
X57482619Y-55883809D02*
X57530238Y-55979047D01*
X57530238Y-55979047D02*
X57577857Y-56026666D01*
X57577857Y-56026666D02*
X57673095Y-56074285D01*
X57673095Y-56074285D02*
X57863571Y-56121904D01*
X57863571Y-56121904D02*
X58101666Y-56121904D01*
X58101666Y-56121904D02*
X58292142Y-56074285D01*
X58292142Y-56074285D02*
X58387380Y-56026666D01*
X58387380Y-56026666D02*
X58435000Y-55979047D01*
X58435000Y-55979047D02*
X58482619Y-55883809D01*
X58482619Y-55883809D02*
X58482619Y-55788571D01*
X58482619Y-55788571D02*
X58435000Y-55693333D01*
X58435000Y-55693333D02*
X58387380Y-55645714D01*
X58387380Y-55645714D02*
X58292142Y-55598095D01*
X58292142Y-55598095D02*
X58101666Y-55550476D01*
X58101666Y-55550476D02*
X57863571Y-55550476D01*
X57863571Y-55550476D02*
X57673095Y-55598095D01*
X57673095Y-55598095D02*
X57577857Y-55645714D01*
X57577857Y-55645714D02*
X57530238Y-55693333D01*
X57530238Y-55693333D02*
X57482619Y-55788571D01*
X31235000Y-22410476D02*
X31282619Y-22553333D01*
X31282619Y-22553333D02*
X31282619Y-22791428D01*
X31282619Y-22791428D02*
X31235000Y-22886666D01*
X31235000Y-22886666D02*
X31187380Y-22934285D01*
X31187380Y-22934285D02*
X31092142Y-22981904D01*
X31092142Y-22981904D02*
X30996904Y-22981904D01*
X30996904Y-22981904D02*
X30901666Y-22934285D01*
X30901666Y-22934285D02*
X30854047Y-22886666D01*
X30854047Y-22886666D02*
X30806428Y-22791428D01*
X30806428Y-22791428D02*
X30758809Y-22600952D01*
X30758809Y-22600952D02*
X30711190Y-22505714D01*
X30711190Y-22505714D02*
X30663571Y-22458095D01*
X30663571Y-22458095D02*
X30568333Y-22410476D01*
X30568333Y-22410476D02*
X30473095Y-22410476D01*
X30473095Y-22410476D02*
X30377857Y-22458095D01*
X30377857Y-22458095D02*
X30330238Y-22505714D01*
X30330238Y-22505714D02*
X30282619Y-22600952D01*
X30282619Y-22600952D02*
X30282619Y-22839047D01*
X30282619Y-22839047D02*
X30330238Y-22981904D01*
X31282619Y-23410476D02*
X30282619Y-23410476D01*
X30282619Y-23410476D02*
X30282619Y-23648571D01*
X30282619Y-23648571D02*
X30330238Y-23791428D01*
X30330238Y-23791428D02*
X30425476Y-23886666D01*
X30425476Y-23886666D02*
X30520714Y-23934285D01*
X30520714Y-23934285D02*
X30711190Y-23981904D01*
X30711190Y-23981904D02*
X30854047Y-23981904D01*
X30854047Y-23981904D02*
X31044523Y-23934285D01*
X31044523Y-23934285D02*
X31139761Y-23886666D01*
X31139761Y-23886666D02*
X31235000Y-23791428D01*
X31235000Y-23791428D02*
X31282619Y-23648571D01*
X31282619Y-23648571D02*
X31282619Y-23410476D01*
X30996904Y-24362857D02*
X30996904Y-24839047D01*
X31282619Y-24267619D02*
X30282619Y-24600952D01*
X30282619Y-24600952D02*
X31282619Y-24934285D01*
X61346904Y-22706666D02*
X60585000Y-22706666D01*
X40082619Y-22572857D02*
X40082619Y-23191904D01*
X40082619Y-23191904D02*
X40463571Y-22858571D01*
X40463571Y-22858571D02*
X40463571Y-23001428D01*
X40463571Y-23001428D02*
X40511190Y-23096666D01*
X40511190Y-23096666D02*
X40558809Y-23144285D01*
X40558809Y-23144285D02*
X40654047Y-23191904D01*
X40654047Y-23191904D02*
X40892142Y-23191904D01*
X40892142Y-23191904D02*
X40987380Y-23144285D01*
X40987380Y-23144285D02*
X41035000Y-23096666D01*
X41035000Y-23096666D02*
X41082619Y-23001428D01*
X41082619Y-23001428D02*
X41082619Y-22715714D01*
X41082619Y-22715714D02*
X41035000Y-22620476D01*
X41035000Y-22620476D02*
X40987380Y-22572857D01*
X40082619Y-23477619D02*
X41082619Y-23810952D01*
X41082619Y-23810952D02*
X40082619Y-24144285D01*
X40082619Y-24382381D02*
X40082619Y-25001428D01*
X40082619Y-25001428D02*
X40463571Y-24668095D01*
X40463571Y-24668095D02*
X40463571Y-24810952D01*
X40463571Y-24810952D02*
X40511190Y-24906190D01*
X40511190Y-24906190D02*
X40558809Y-24953809D01*
X40558809Y-24953809D02*
X40654047Y-25001428D01*
X40654047Y-25001428D02*
X40892142Y-25001428D01*
X40892142Y-25001428D02*
X40987380Y-24953809D01*
X40987380Y-24953809D02*
X41035000Y-24906190D01*
X41035000Y-24906190D02*
X41082619Y-24810952D01*
X41082619Y-24810952D02*
X41082619Y-24525238D01*
X41082619Y-24525238D02*
X41035000Y-24430000D01*
X41035000Y-24430000D02*
X40987380Y-24382381D01*
X34622619Y-38709523D02*
X34146428Y-38376190D01*
X34622619Y-38138095D02*
X33622619Y-38138095D01*
X33622619Y-38138095D02*
X33622619Y-38519047D01*
X33622619Y-38519047D02*
X33670238Y-38614285D01*
X33670238Y-38614285D02*
X33717857Y-38661904D01*
X33717857Y-38661904D02*
X33813095Y-38709523D01*
X33813095Y-38709523D02*
X33955952Y-38709523D01*
X33955952Y-38709523D02*
X34051190Y-38661904D01*
X34051190Y-38661904D02*
X34098809Y-38614285D01*
X34098809Y-38614285D02*
X34146428Y-38519047D01*
X34146428Y-38519047D02*
X34146428Y-38138095D01*
X34575000Y-39090476D02*
X34622619Y-39233333D01*
X34622619Y-39233333D02*
X34622619Y-39471428D01*
X34622619Y-39471428D02*
X34575000Y-39566666D01*
X34575000Y-39566666D02*
X34527380Y-39614285D01*
X34527380Y-39614285D02*
X34432142Y-39661904D01*
X34432142Y-39661904D02*
X34336904Y-39661904D01*
X34336904Y-39661904D02*
X34241666Y-39614285D01*
X34241666Y-39614285D02*
X34194047Y-39566666D01*
X34194047Y-39566666D02*
X34146428Y-39471428D01*
X34146428Y-39471428D02*
X34098809Y-39280952D01*
X34098809Y-39280952D02*
X34051190Y-39185714D01*
X34051190Y-39185714D02*
X34003571Y-39138095D01*
X34003571Y-39138095D02*
X33908333Y-39090476D01*
X33908333Y-39090476D02*
X33813095Y-39090476D01*
X33813095Y-39090476D02*
X33717857Y-39138095D01*
X33717857Y-39138095D02*
X33670238Y-39185714D01*
X33670238Y-39185714D02*
X33622619Y-39280952D01*
X33622619Y-39280952D02*
X33622619Y-39519047D01*
X33622619Y-39519047D02*
X33670238Y-39661904D01*
X33622619Y-39947619D02*
X33622619Y-40519047D01*
X34622619Y-40233333D02*
X33622619Y-40233333D01*
X55102380Y-38744523D02*
X55150000Y-38696904D01*
X55150000Y-38696904D02*
X55197619Y-38554047D01*
X55197619Y-38554047D02*
X55197619Y-38458809D01*
X55197619Y-38458809D02*
X55150000Y-38315952D01*
X55150000Y-38315952D02*
X55054761Y-38220714D01*
X55054761Y-38220714D02*
X54959523Y-38173095D01*
X54959523Y-38173095D02*
X54769047Y-38125476D01*
X54769047Y-38125476D02*
X54626190Y-38125476D01*
X54626190Y-38125476D02*
X54435714Y-38173095D01*
X54435714Y-38173095D02*
X54340476Y-38220714D01*
X54340476Y-38220714D02*
X54245238Y-38315952D01*
X54245238Y-38315952D02*
X54197619Y-38458809D01*
X54197619Y-38458809D02*
X54197619Y-38554047D01*
X54197619Y-38554047D02*
X54245238Y-38696904D01*
X54245238Y-38696904D02*
X54292857Y-38744523D01*
X55197619Y-39649285D02*
X55197619Y-39173095D01*
X55197619Y-39173095D02*
X54197619Y-39173095D01*
X55197619Y-39982619D02*
X54197619Y-39982619D01*
X55197619Y-40554047D02*
X54626190Y-40125476D01*
X54197619Y-40554047D02*
X54769047Y-39982619D01*
X13030238Y-38451904D02*
X12982619Y-38356666D01*
X12982619Y-38356666D02*
X12982619Y-38213809D01*
X12982619Y-38213809D02*
X13030238Y-38070952D01*
X13030238Y-38070952D02*
X13125476Y-37975714D01*
X13125476Y-37975714D02*
X13220714Y-37928095D01*
X13220714Y-37928095D02*
X13411190Y-37880476D01*
X13411190Y-37880476D02*
X13554047Y-37880476D01*
X13554047Y-37880476D02*
X13744523Y-37928095D01*
X13744523Y-37928095D02*
X13839761Y-37975714D01*
X13839761Y-37975714D02*
X13935000Y-38070952D01*
X13935000Y-38070952D02*
X13982619Y-38213809D01*
X13982619Y-38213809D02*
X13982619Y-38309047D01*
X13982619Y-38309047D02*
X13935000Y-38451904D01*
X13935000Y-38451904D02*
X13887380Y-38499523D01*
X13887380Y-38499523D02*
X13554047Y-38499523D01*
X13554047Y-38499523D02*
X13554047Y-38309047D01*
X13982619Y-38928095D02*
X12982619Y-38928095D01*
X12982619Y-38928095D02*
X13982619Y-39499523D01*
X13982619Y-39499523D02*
X12982619Y-39499523D01*
X13982619Y-39975714D02*
X12982619Y-39975714D01*
X12982619Y-39975714D02*
X12982619Y-40213809D01*
X12982619Y-40213809D02*
X13030238Y-40356666D01*
X13030238Y-40356666D02*
X13125476Y-40451904D01*
X13125476Y-40451904D02*
X13220714Y-40499523D01*
X13220714Y-40499523D02*
X13411190Y-40547142D01*
X13411190Y-40547142D02*
X13554047Y-40547142D01*
X13554047Y-40547142D02*
X13744523Y-40499523D01*
X13744523Y-40499523D02*
X13839761Y-40451904D01*
X13839761Y-40451904D02*
X13935000Y-40356666D01*
X13935000Y-40356666D02*
X13982619Y-40213809D01*
X13982619Y-40213809D02*
X13982619Y-39975714D01*
X23496904Y-52556666D02*
X22735000Y-52556666D01*
X23115952Y-52937619D02*
X23115952Y-52175714D01*
X41775476Y-50477619D02*
X42108809Y-50001428D01*
X42346904Y-50477619D02*
X42346904Y-49477619D01*
X42346904Y-49477619D02*
X41965952Y-49477619D01*
X41965952Y-49477619D02*
X41870714Y-49525238D01*
X41870714Y-49525238D02*
X41823095Y-49572857D01*
X41823095Y-49572857D02*
X41775476Y-49668095D01*
X41775476Y-49668095D02*
X41775476Y-49810952D01*
X41775476Y-49810952D02*
X41823095Y-49906190D01*
X41823095Y-49906190D02*
X41870714Y-49953809D01*
X41870714Y-49953809D02*
X41965952Y-50001428D01*
X41965952Y-50001428D02*
X42346904Y-50001428D01*
X46307380Y-30039523D02*
X46355000Y-29991904D01*
X46355000Y-29991904D02*
X46402619Y-29849047D01*
X46402619Y-29849047D02*
X46402619Y-29753809D01*
X46402619Y-29753809D02*
X46355000Y-29610952D01*
X46355000Y-29610952D02*
X46259761Y-29515714D01*
X46259761Y-29515714D02*
X46164523Y-29468095D01*
X46164523Y-29468095D02*
X45974047Y-29420476D01*
X45974047Y-29420476D02*
X45831190Y-29420476D01*
X45831190Y-29420476D02*
X45640714Y-29468095D01*
X45640714Y-29468095D02*
X45545476Y-29515714D01*
X45545476Y-29515714D02*
X45450238Y-29610952D01*
X45450238Y-29610952D02*
X45402619Y-29753809D01*
X45402619Y-29753809D02*
X45402619Y-29849047D01*
X45402619Y-29849047D02*
X45450238Y-29991904D01*
X45450238Y-29991904D02*
X45497857Y-30039523D01*
X46402619Y-30468095D02*
X45402619Y-30468095D01*
X45402619Y-30468095D02*
X45402619Y-30849047D01*
X45402619Y-30849047D02*
X45450238Y-30944285D01*
X45450238Y-30944285D02*
X45497857Y-30991904D01*
X45497857Y-30991904D02*
X45593095Y-31039523D01*
X45593095Y-31039523D02*
X45735952Y-31039523D01*
X45735952Y-31039523D02*
X45831190Y-30991904D01*
X45831190Y-30991904D02*
X45878809Y-30944285D01*
X45878809Y-30944285D02*
X45926428Y-30849047D01*
X45926428Y-30849047D02*
X45926428Y-30468095D01*
X45402619Y-31468095D02*
X46212142Y-31468095D01*
X46212142Y-31468095D02*
X46307380Y-31515714D01*
X46307380Y-31515714D02*
X46355000Y-31563333D01*
X46355000Y-31563333D02*
X46402619Y-31658571D01*
X46402619Y-31658571D02*
X46402619Y-31849047D01*
X46402619Y-31849047D02*
X46355000Y-31944285D01*
X46355000Y-31944285D02*
X46307380Y-31991904D01*
X46307380Y-31991904D02*
X46212142Y-32039523D01*
X46212142Y-32039523D02*
X45402619Y-32039523D01*
X46307380Y-45599523D02*
X46355000Y-45551904D01*
X46355000Y-45551904D02*
X46402619Y-45409047D01*
X46402619Y-45409047D02*
X46402619Y-45313809D01*
X46402619Y-45313809D02*
X46355000Y-45170952D01*
X46355000Y-45170952D02*
X46259761Y-45075714D01*
X46259761Y-45075714D02*
X46164523Y-45028095D01*
X46164523Y-45028095D02*
X45974047Y-44980476D01*
X45974047Y-44980476D02*
X45831190Y-44980476D01*
X45831190Y-44980476D02*
X45640714Y-45028095D01*
X45640714Y-45028095D02*
X45545476Y-45075714D01*
X45545476Y-45075714D02*
X45450238Y-45170952D01*
X45450238Y-45170952D02*
X45402619Y-45313809D01*
X45402619Y-45313809D02*
X45402619Y-45409047D01*
X45402619Y-45409047D02*
X45450238Y-45551904D01*
X45450238Y-45551904D02*
X45497857Y-45599523D01*
X46402619Y-46028095D02*
X45402619Y-46028095D01*
X45402619Y-46028095D02*
X45402619Y-46409047D01*
X45402619Y-46409047D02*
X45450238Y-46504285D01*
X45450238Y-46504285D02*
X45497857Y-46551904D01*
X45497857Y-46551904D02*
X45593095Y-46599523D01*
X45593095Y-46599523D02*
X45735952Y-46599523D01*
X45735952Y-46599523D02*
X45831190Y-46551904D01*
X45831190Y-46551904D02*
X45878809Y-46504285D01*
X45878809Y-46504285D02*
X45926428Y-46409047D01*
X45926428Y-46409047D02*
X45926428Y-46028095D01*
X45402619Y-47028095D02*
X46212142Y-47028095D01*
X46212142Y-47028095D02*
X46307380Y-47075714D01*
X46307380Y-47075714D02*
X46355000Y-47123333D01*
X46355000Y-47123333D02*
X46402619Y-47218571D01*
X46402619Y-47218571D02*
X46402619Y-47409047D01*
X46402619Y-47409047D02*
X46355000Y-47504285D01*
X46355000Y-47504285D02*
X46307380Y-47551904D01*
X46307380Y-47551904D02*
X46212142Y-47599523D01*
X46212142Y-47599523D02*
X45402619Y-47599523D01*
X27337380Y-30039523D02*
X27385000Y-29991904D01*
X27385000Y-29991904D02*
X27432619Y-29849047D01*
X27432619Y-29849047D02*
X27432619Y-29753809D01*
X27432619Y-29753809D02*
X27385000Y-29610952D01*
X27385000Y-29610952D02*
X27289761Y-29515714D01*
X27289761Y-29515714D02*
X27194523Y-29468095D01*
X27194523Y-29468095D02*
X27004047Y-29420476D01*
X27004047Y-29420476D02*
X26861190Y-29420476D01*
X26861190Y-29420476D02*
X26670714Y-29468095D01*
X26670714Y-29468095D02*
X26575476Y-29515714D01*
X26575476Y-29515714D02*
X26480238Y-29610952D01*
X26480238Y-29610952D02*
X26432619Y-29753809D01*
X26432619Y-29753809D02*
X26432619Y-29849047D01*
X26432619Y-29849047D02*
X26480238Y-29991904D01*
X26480238Y-29991904D02*
X26527857Y-30039523D01*
X27432619Y-30468095D02*
X26432619Y-30468095D01*
X26432619Y-30468095D02*
X26432619Y-30849047D01*
X26432619Y-30849047D02*
X26480238Y-30944285D01*
X26480238Y-30944285D02*
X26527857Y-30991904D01*
X26527857Y-30991904D02*
X26623095Y-31039523D01*
X26623095Y-31039523D02*
X26765952Y-31039523D01*
X26765952Y-31039523D02*
X26861190Y-30991904D01*
X26861190Y-30991904D02*
X26908809Y-30944285D01*
X26908809Y-30944285D02*
X26956428Y-30849047D01*
X26956428Y-30849047D02*
X26956428Y-30468095D01*
X26432619Y-31468095D02*
X27242142Y-31468095D01*
X27242142Y-31468095D02*
X27337380Y-31515714D01*
X27337380Y-31515714D02*
X27385000Y-31563333D01*
X27385000Y-31563333D02*
X27432619Y-31658571D01*
X27432619Y-31658571D02*
X27432619Y-31849047D01*
X27432619Y-31849047D02*
X27385000Y-31944285D01*
X27385000Y-31944285D02*
X27337380Y-31991904D01*
X27337380Y-31991904D02*
X27242142Y-32039523D01*
X27242142Y-32039523D02*
X26432619Y-32039523D01*
X36132380Y-38744523D02*
X36180000Y-38696904D01*
X36180000Y-38696904D02*
X36227619Y-38554047D01*
X36227619Y-38554047D02*
X36227619Y-38458809D01*
X36227619Y-38458809D02*
X36180000Y-38315952D01*
X36180000Y-38315952D02*
X36084761Y-38220714D01*
X36084761Y-38220714D02*
X35989523Y-38173095D01*
X35989523Y-38173095D02*
X35799047Y-38125476D01*
X35799047Y-38125476D02*
X35656190Y-38125476D01*
X35656190Y-38125476D02*
X35465714Y-38173095D01*
X35465714Y-38173095D02*
X35370476Y-38220714D01*
X35370476Y-38220714D02*
X35275238Y-38315952D01*
X35275238Y-38315952D02*
X35227619Y-38458809D01*
X35227619Y-38458809D02*
X35227619Y-38554047D01*
X35227619Y-38554047D02*
X35275238Y-38696904D01*
X35275238Y-38696904D02*
X35322857Y-38744523D01*
X36227619Y-39649285D02*
X36227619Y-39173095D01*
X36227619Y-39173095D02*
X35227619Y-39173095D01*
X36227619Y-39982619D02*
X35227619Y-39982619D01*
X36227619Y-40554047D02*
X35656190Y-40125476D01*
X35227619Y-40554047D02*
X35799047Y-39982619D01*
X48655000Y-53530476D02*
X48702619Y-53673333D01*
X48702619Y-53673333D02*
X48702619Y-53911428D01*
X48702619Y-53911428D02*
X48655000Y-54006666D01*
X48655000Y-54006666D02*
X48607380Y-54054285D01*
X48607380Y-54054285D02*
X48512142Y-54101904D01*
X48512142Y-54101904D02*
X48416904Y-54101904D01*
X48416904Y-54101904D02*
X48321666Y-54054285D01*
X48321666Y-54054285D02*
X48274047Y-54006666D01*
X48274047Y-54006666D02*
X48226428Y-53911428D01*
X48226428Y-53911428D02*
X48178809Y-53720952D01*
X48178809Y-53720952D02*
X48131190Y-53625714D01*
X48131190Y-53625714D02*
X48083571Y-53578095D01*
X48083571Y-53578095D02*
X47988333Y-53530476D01*
X47988333Y-53530476D02*
X47893095Y-53530476D01*
X47893095Y-53530476D02*
X47797857Y-53578095D01*
X47797857Y-53578095D02*
X47750238Y-53625714D01*
X47750238Y-53625714D02*
X47702619Y-53720952D01*
X47702619Y-53720952D02*
X47702619Y-53959047D01*
X47702619Y-53959047D02*
X47750238Y-54101904D01*
X48607380Y-55101904D02*
X48655000Y-55054285D01*
X48655000Y-55054285D02*
X48702619Y-54911428D01*
X48702619Y-54911428D02*
X48702619Y-54816190D01*
X48702619Y-54816190D02*
X48655000Y-54673333D01*
X48655000Y-54673333D02*
X48559761Y-54578095D01*
X48559761Y-54578095D02*
X48464523Y-54530476D01*
X48464523Y-54530476D02*
X48274047Y-54482857D01*
X48274047Y-54482857D02*
X48131190Y-54482857D01*
X48131190Y-54482857D02*
X47940714Y-54530476D01*
X47940714Y-54530476D02*
X47845476Y-54578095D01*
X47845476Y-54578095D02*
X47750238Y-54673333D01*
X47750238Y-54673333D02*
X47702619Y-54816190D01*
X47702619Y-54816190D02*
X47702619Y-54911428D01*
X47702619Y-54911428D02*
X47750238Y-55054285D01*
X47750238Y-55054285D02*
X47797857Y-55101904D01*
X48702619Y-56006666D02*
X48702619Y-55530476D01*
X48702619Y-55530476D02*
X47702619Y-55530476D01*
X22805476Y-34917619D02*
X23138809Y-34441428D01*
X23376904Y-34917619D02*
X23376904Y-33917619D01*
X23376904Y-33917619D02*
X22995952Y-33917619D01*
X22995952Y-33917619D02*
X22900714Y-33965238D01*
X22900714Y-33965238D02*
X22853095Y-34012857D01*
X22853095Y-34012857D02*
X22805476Y-34108095D01*
X22805476Y-34108095D02*
X22805476Y-34250952D01*
X22805476Y-34250952D02*
X22853095Y-34346190D01*
X22853095Y-34346190D02*
X22900714Y-34393809D01*
X22900714Y-34393809D02*
X22995952Y-34441428D01*
X22995952Y-34441428D02*
X23376904Y-34441428D01*
X58482619Y-39038095D02*
X57482619Y-39038095D01*
X57482619Y-39038095D02*
X57482619Y-39276190D01*
X57482619Y-39276190D02*
X57530238Y-39419047D01*
X57530238Y-39419047D02*
X57625476Y-39514285D01*
X57625476Y-39514285D02*
X57720714Y-39561904D01*
X57720714Y-39561904D02*
X57911190Y-39609523D01*
X57911190Y-39609523D02*
X58054047Y-39609523D01*
X58054047Y-39609523D02*
X58244523Y-39561904D01*
X58244523Y-39561904D02*
X58339761Y-39514285D01*
X58339761Y-39514285D02*
X58435000Y-39419047D01*
X58435000Y-39419047D02*
X58482619Y-39276190D01*
X58482619Y-39276190D02*
X58482619Y-39038095D01*
X57482619Y-40228571D02*
X57482619Y-40323809D01*
X57482619Y-40323809D02*
X57530238Y-40419047D01*
X57530238Y-40419047D02*
X57577857Y-40466666D01*
X57577857Y-40466666D02*
X57673095Y-40514285D01*
X57673095Y-40514285D02*
X57863571Y-40561904D01*
X57863571Y-40561904D02*
X58101666Y-40561904D01*
X58101666Y-40561904D02*
X58292142Y-40514285D01*
X58292142Y-40514285D02*
X58387380Y-40466666D01*
X58387380Y-40466666D02*
X58435000Y-40419047D01*
X58435000Y-40419047D02*
X58482619Y-40323809D01*
X58482619Y-40323809D02*
X58482619Y-40228571D01*
X58482619Y-40228571D02*
X58435000Y-40133333D01*
X58435000Y-40133333D02*
X58387380Y-40085714D01*
X58387380Y-40085714D02*
X58292142Y-40038095D01*
X58292142Y-40038095D02*
X58101666Y-39990476D01*
X58101666Y-39990476D02*
X57863571Y-39990476D01*
X57863571Y-39990476D02*
X57673095Y-40038095D01*
X57673095Y-40038095D02*
X57577857Y-40085714D01*
X57577857Y-40085714D02*
X57530238Y-40133333D01*
X57530238Y-40133333D02*
X57482619Y-40228571D01*
X48655000Y-37970476D02*
X48702619Y-38113333D01*
X48702619Y-38113333D02*
X48702619Y-38351428D01*
X48702619Y-38351428D02*
X48655000Y-38446666D01*
X48655000Y-38446666D02*
X48607380Y-38494285D01*
X48607380Y-38494285D02*
X48512142Y-38541904D01*
X48512142Y-38541904D02*
X48416904Y-38541904D01*
X48416904Y-38541904D02*
X48321666Y-38494285D01*
X48321666Y-38494285D02*
X48274047Y-38446666D01*
X48274047Y-38446666D02*
X48226428Y-38351428D01*
X48226428Y-38351428D02*
X48178809Y-38160952D01*
X48178809Y-38160952D02*
X48131190Y-38065714D01*
X48131190Y-38065714D02*
X48083571Y-38018095D01*
X48083571Y-38018095D02*
X47988333Y-37970476D01*
X47988333Y-37970476D02*
X47893095Y-37970476D01*
X47893095Y-37970476D02*
X47797857Y-38018095D01*
X47797857Y-38018095D02*
X47750238Y-38065714D01*
X47750238Y-38065714D02*
X47702619Y-38160952D01*
X47702619Y-38160952D02*
X47702619Y-38399047D01*
X47702619Y-38399047D02*
X47750238Y-38541904D01*
X48607380Y-39541904D02*
X48655000Y-39494285D01*
X48655000Y-39494285D02*
X48702619Y-39351428D01*
X48702619Y-39351428D02*
X48702619Y-39256190D01*
X48702619Y-39256190D02*
X48655000Y-39113333D01*
X48655000Y-39113333D02*
X48559761Y-39018095D01*
X48559761Y-39018095D02*
X48464523Y-38970476D01*
X48464523Y-38970476D02*
X48274047Y-38922857D01*
X48274047Y-38922857D02*
X48131190Y-38922857D01*
X48131190Y-38922857D02*
X47940714Y-38970476D01*
X47940714Y-38970476D02*
X47845476Y-39018095D01*
X47845476Y-39018095D02*
X47750238Y-39113333D01*
X47750238Y-39113333D02*
X47702619Y-39256190D01*
X47702619Y-39256190D02*
X47702619Y-39351428D01*
X47702619Y-39351428D02*
X47750238Y-39494285D01*
X47750238Y-39494285D02*
X47797857Y-39541904D01*
X48702619Y-40446666D02*
X48702619Y-39970476D01*
X48702619Y-39970476D02*
X47702619Y-39970476D01*
X60983571Y-51253809D02*
X60840714Y-51301428D01*
X60840714Y-51301428D02*
X60793095Y-51349047D01*
X60793095Y-51349047D02*
X60745476Y-51444285D01*
X60745476Y-51444285D02*
X60745476Y-51587142D01*
X60745476Y-51587142D02*
X60793095Y-51682380D01*
X60793095Y-51682380D02*
X60840714Y-51730000D01*
X60840714Y-51730000D02*
X60935952Y-51777619D01*
X60935952Y-51777619D02*
X61316904Y-51777619D01*
X61316904Y-51777619D02*
X61316904Y-50777619D01*
X61316904Y-50777619D02*
X60983571Y-50777619D01*
X60983571Y-50777619D02*
X60888333Y-50825238D01*
X60888333Y-50825238D02*
X60840714Y-50872857D01*
X60840714Y-50872857D02*
X60793095Y-50968095D01*
X60793095Y-50968095D02*
X60793095Y-51063333D01*
X60793095Y-51063333D02*
X60840714Y-51158571D01*
X60840714Y-51158571D02*
X60888333Y-51206190D01*
X60888333Y-51206190D02*
X60983571Y-51253809D01*
X60983571Y-51253809D02*
X61316904Y-51253809D01*
X18772380Y-54014523D02*
X18820000Y-53966904D01*
X18820000Y-53966904D02*
X18867619Y-53824047D01*
X18867619Y-53824047D02*
X18867619Y-53728809D01*
X18867619Y-53728809D02*
X18820000Y-53585952D01*
X18820000Y-53585952D02*
X18724761Y-53490714D01*
X18724761Y-53490714D02*
X18629523Y-53443095D01*
X18629523Y-53443095D02*
X18439047Y-53395476D01*
X18439047Y-53395476D02*
X18296190Y-53395476D01*
X18296190Y-53395476D02*
X18105714Y-53443095D01*
X18105714Y-53443095D02*
X18010476Y-53490714D01*
X18010476Y-53490714D02*
X17915238Y-53585952D01*
X17915238Y-53585952D02*
X17867619Y-53728809D01*
X17867619Y-53728809D02*
X17867619Y-53824047D01*
X17867619Y-53824047D02*
X17915238Y-53966904D01*
X17915238Y-53966904D02*
X17962857Y-54014523D01*
X18867619Y-54443095D02*
X17867619Y-54443095D01*
X17867619Y-54443095D02*
X18581904Y-54776428D01*
X18581904Y-54776428D02*
X17867619Y-55109761D01*
X17867619Y-55109761D02*
X18867619Y-55109761D01*
X18867619Y-55585952D02*
X17867619Y-55585952D01*
X17867619Y-55585952D02*
X17867619Y-55824047D01*
X17867619Y-55824047D02*
X17915238Y-55966904D01*
X17915238Y-55966904D02*
X18010476Y-56062142D01*
X18010476Y-56062142D02*
X18105714Y-56109761D01*
X18105714Y-56109761D02*
X18296190Y-56157380D01*
X18296190Y-56157380D02*
X18439047Y-56157380D01*
X18439047Y-56157380D02*
X18629523Y-56109761D01*
X18629523Y-56109761D02*
X18724761Y-56062142D01*
X18724761Y-56062142D02*
X18820000Y-55966904D01*
X18820000Y-55966904D02*
X18867619Y-55824047D01*
X18867619Y-55824047D02*
X18867619Y-55585952D01*
X50970238Y-54011904D02*
X50922619Y-53916666D01*
X50922619Y-53916666D02*
X50922619Y-53773809D01*
X50922619Y-53773809D02*
X50970238Y-53630952D01*
X50970238Y-53630952D02*
X51065476Y-53535714D01*
X51065476Y-53535714D02*
X51160714Y-53488095D01*
X51160714Y-53488095D02*
X51351190Y-53440476D01*
X51351190Y-53440476D02*
X51494047Y-53440476D01*
X51494047Y-53440476D02*
X51684523Y-53488095D01*
X51684523Y-53488095D02*
X51779761Y-53535714D01*
X51779761Y-53535714D02*
X51875000Y-53630952D01*
X51875000Y-53630952D02*
X51922619Y-53773809D01*
X51922619Y-53773809D02*
X51922619Y-53869047D01*
X51922619Y-53869047D02*
X51875000Y-54011904D01*
X51875000Y-54011904D02*
X51827380Y-54059523D01*
X51827380Y-54059523D02*
X51494047Y-54059523D01*
X51494047Y-54059523D02*
X51494047Y-53869047D01*
X51922619Y-54488095D02*
X50922619Y-54488095D01*
X50922619Y-54488095D02*
X51922619Y-55059523D01*
X51922619Y-55059523D02*
X50922619Y-55059523D01*
X51922619Y-55535714D02*
X50922619Y-55535714D01*
X50922619Y-55535714D02*
X50922619Y-55773809D01*
X50922619Y-55773809D02*
X50970238Y-55916666D01*
X50970238Y-55916666D02*
X51065476Y-56011904D01*
X51065476Y-56011904D02*
X51160714Y-56059523D01*
X51160714Y-56059523D02*
X51351190Y-56107142D01*
X51351190Y-56107142D02*
X51494047Y-56107142D01*
X51494047Y-56107142D02*
X51684523Y-56059523D01*
X51684523Y-56059523D02*
X51779761Y-56011904D01*
X51779761Y-56011904D02*
X51875000Y-55916666D01*
X51875000Y-55916666D02*
X51922619Y-55773809D01*
X51922619Y-55773809D02*
X51922619Y-55535714D01*
X37742380Y-22894523D02*
X37790000Y-22846904D01*
X37790000Y-22846904D02*
X37837619Y-22704047D01*
X37837619Y-22704047D02*
X37837619Y-22608809D01*
X37837619Y-22608809D02*
X37790000Y-22465952D01*
X37790000Y-22465952D02*
X37694761Y-22370714D01*
X37694761Y-22370714D02*
X37599523Y-22323095D01*
X37599523Y-22323095D02*
X37409047Y-22275476D01*
X37409047Y-22275476D02*
X37266190Y-22275476D01*
X37266190Y-22275476D02*
X37075714Y-22323095D01*
X37075714Y-22323095D02*
X36980476Y-22370714D01*
X36980476Y-22370714D02*
X36885238Y-22465952D01*
X36885238Y-22465952D02*
X36837619Y-22608809D01*
X36837619Y-22608809D02*
X36837619Y-22704047D01*
X36837619Y-22704047D02*
X36885238Y-22846904D01*
X36885238Y-22846904D02*
X36932857Y-22894523D01*
X37837619Y-23323095D02*
X36837619Y-23323095D01*
X36837619Y-23323095D02*
X37551904Y-23656428D01*
X37551904Y-23656428D02*
X36837619Y-23989761D01*
X36837619Y-23989761D02*
X37837619Y-23989761D01*
X37837619Y-24465952D02*
X36837619Y-24465952D01*
X36837619Y-24465952D02*
X36837619Y-24704047D01*
X36837619Y-24704047D02*
X36885238Y-24846904D01*
X36885238Y-24846904D02*
X36980476Y-24942142D01*
X36980476Y-24942142D02*
X37075714Y-24989761D01*
X37075714Y-24989761D02*
X37266190Y-25037380D01*
X37266190Y-25037380D02*
X37409047Y-25037380D01*
X37409047Y-25037380D02*
X37599523Y-24989761D01*
X37599523Y-24989761D02*
X37694761Y-24942142D01*
X37694761Y-24942142D02*
X37790000Y-24846904D01*
X37790000Y-24846904D02*
X37837619Y-24704047D01*
X37837619Y-24704047D02*
X37837619Y-24465952D01*
X15652619Y-38709523D02*
X15176428Y-38376190D01*
X15652619Y-38138095D02*
X14652619Y-38138095D01*
X14652619Y-38138095D02*
X14652619Y-38519047D01*
X14652619Y-38519047D02*
X14700238Y-38614285D01*
X14700238Y-38614285D02*
X14747857Y-38661904D01*
X14747857Y-38661904D02*
X14843095Y-38709523D01*
X14843095Y-38709523D02*
X14985952Y-38709523D01*
X14985952Y-38709523D02*
X15081190Y-38661904D01*
X15081190Y-38661904D02*
X15128809Y-38614285D01*
X15128809Y-38614285D02*
X15176428Y-38519047D01*
X15176428Y-38519047D02*
X15176428Y-38138095D01*
X15605000Y-39090476D02*
X15652619Y-39233333D01*
X15652619Y-39233333D02*
X15652619Y-39471428D01*
X15652619Y-39471428D02*
X15605000Y-39566666D01*
X15605000Y-39566666D02*
X15557380Y-39614285D01*
X15557380Y-39614285D02*
X15462142Y-39661904D01*
X15462142Y-39661904D02*
X15366904Y-39661904D01*
X15366904Y-39661904D02*
X15271666Y-39614285D01*
X15271666Y-39614285D02*
X15224047Y-39566666D01*
X15224047Y-39566666D02*
X15176428Y-39471428D01*
X15176428Y-39471428D02*
X15128809Y-39280952D01*
X15128809Y-39280952D02*
X15081190Y-39185714D01*
X15081190Y-39185714D02*
X15033571Y-39138095D01*
X15033571Y-39138095D02*
X14938333Y-39090476D01*
X14938333Y-39090476D02*
X14843095Y-39090476D01*
X14843095Y-39090476D02*
X14747857Y-39138095D01*
X14747857Y-39138095D02*
X14700238Y-39185714D01*
X14700238Y-39185714D02*
X14652619Y-39280952D01*
X14652619Y-39280952D02*
X14652619Y-39519047D01*
X14652619Y-39519047D02*
X14700238Y-39661904D01*
X14652619Y-39947619D02*
X14652619Y-40519047D01*
X15652619Y-40233333D02*
X14652619Y-40233333D01*
X42013571Y-35693809D02*
X41870714Y-35741428D01*
X41870714Y-35741428D02*
X41823095Y-35789047D01*
X41823095Y-35789047D02*
X41775476Y-35884285D01*
X41775476Y-35884285D02*
X41775476Y-36027142D01*
X41775476Y-36027142D02*
X41823095Y-36122380D01*
X41823095Y-36122380D02*
X41870714Y-36170000D01*
X41870714Y-36170000D02*
X41965952Y-36217619D01*
X41965952Y-36217619D02*
X42346904Y-36217619D01*
X42346904Y-36217619D02*
X42346904Y-35217619D01*
X42346904Y-35217619D02*
X42013571Y-35217619D01*
X42013571Y-35217619D02*
X41918333Y-35265238D01*
X41918333Y-35265238D02*
X41870714Y-35312857D01*
X41870714Y-35312857D02*
X41823095Y-35408095D01*
X41823095Y-35408095D02*
X41823095Y-35503333D01*
X41823095Y-35503333D02*
X41870714Y-35598571D01*
X41870714Y-35598571D02*
X41918333Y-35646190D01*
X41918333Y-35646190D02*
X42013571Y-35693809D01*
X42013571Y-35693809D02*
X42346904Y-35693809D01*
X23406904Y-38266666D02*
X22645000Y-38266666D01*
X10715000Y-53530476D02*
X10762619Y-53673333D01*
X10762619Y-53673333D02*
X10762619Y-53911428D01*
X10762619Y-53911428D02*
X10715000Y-54006666D01*
X10715000Y-54006666D02*
X10667380Y-54054285D01*
X10667380Y-54054285D02*
X10572142Y-54101904D01*
X10572142Y-54101904D02*
X10476904Y-54101904D01*
X10476904Y-54101904D02*
X10381666Y-54054285D01*
X10381666Y-54054285D02*
X10334047Y-54006666D01*
X10334047Y-54006666D02*
X10286428Y-53911428D01*
X10286428Y-53911428D02*
X10238809Y-53720952D01*
X10238809Y-53720952D02*
X10191190Y-53625714D01*
X10191190Y-53625714D02*
X10143571Y-53578095D01*
X10143571Y-53578095D02*
X10048333Y-53530476D01*
X10048333Y-53530476D02*
X9953095Y-53530476D01*
X9953095Y-53530476D02*
X9857857Y-53578095D01*
X9857857Y-53578095D02*
X9810238Y-53625714D01*
X9810238Y-53625714D02*
X9762619Y-53720952D01*
X9762619Y-53720952D02*
X9762619Y-53959047D01*
X9762619Y-53959047D02*
X9810238Y-54101904D01*
X10667380Y-55101904D02*
X10715000Y-55054285D01*
X10715000Y-55054285D02*
X10762619Y-54911428D01*
X10762619Y-54911428D02*
X10762619Y-54816190D01*
X10762619Y-54816190D02*
X10715000Y-54673333D01*
X10715000Y-54673333D02*
X10619761Y-54578095D01*
X10619761Y-54578095D02*
X10524523Y-54530476D01*
X10524523Y-54530476D02*
X10334047Y-54482857D01*
X10334047Y-54482857D02*
X10191190Y-54482857D01*
X10191190Y-54482857D02*
X10000714Y-54530476D01*
X10000714Y-54530476D02*
X9905476Y-54578095D01*
X9905476Y-54578095D02*
X9810238Y-54673333D01*
X9810238Y-54673333D02*
X9762619Y-54816190D01*
X9762619Y-54816190D02*
X9762619Y-54911428D01*
X9762619Y-54911428D02*
X9810238Y-55054285D01*
X9810238Y-55054285D02*
X9857857Y-55101904D01*
X10762619Y-56006666D02*
X10762619Y-55530476D01*
X10762619Y-55530476D02*
X9762619Y-55530476D01*
X42376904Y-53826666D02*
X41615000Y-53826666D01*
X23043571Y-35693809D02*
X22900714Y-35741428D01*
X22900714Y-35741428D02*
X22853095Y-35789047D01*
X22853095Y-35789047D02*
X22805476Y-35884285D01*
X22805476Y-35884285D02*
X22805476Y-36027142D01*
X22805476Y-36027142D02*
X22853095Y-36122380D01*
X22853095Y-36122380D02*
X22900714Y-36170000D01*
X22900714Y-36170000D02*
X22995952Y-36217619D01*
X22995952Y-36217619D02*
X23376904Y-36217619D01*
X23376904Y-36217619D02*
X23376904Y-35217619D01*
X23376904Y-35217619D02*
X23043571Y-35217619D01*
X23043571Y-35217619D02*
X22948333Y-35265238D01*
X22948333Y-35265238D02*
X22900714Y-35312857D01*
X22900714Y-35312857D02*
X22853095Y-35408095D01*
X22853095Y-35408095D02*
X22853095Y-35503333D01*
X22853095Y-35503333D02*
X22900714Y-35598571D01*
X22900714Y-35598571D02*
X22948333Y-35646190D01*
X22948333Y-35646190D02*
X23043571Y-35693809D01*
X23043571Y-35693809D02*
X23376904Y-35693809D01*
X41775476Y-19357619D02*
X42108809Y-18881428D01*
X42346904Y-19357619D02*
X42346904Y-18357619D01*
X42346904Y-18357619D02*
X41965952Y-18357619D01*
X41965952Y-18357619D02*
X41870714Y-18405238D01*
X41870714Y-18405238D02*
X41823095Y-18452857D01*
X41823095Y-18452857D02*
X41775476Y-18548095D01*
X41775476Y-18548095D02*
X41775476Y-18690952D01*
X41775476Y-18690952D02*
X41823095Y-18786190D01*
X41823095Y-18786190D02*
X41870714Y-18833809D01*
X41870714Y-18833809D02*
X41965952Y-18881428D01*
X41965952Y-18881428D02*
X42346904Y-18881428D01*
X42376904Y-22706666D02*
X41615000Y-22706666D01*
X23496904Y-21436666D02*
X22735000Y-21436666D01*
X23115952Y-21817619D02*
X23115952Y-21055714D01*
X60745476Y-50477619D02*
X61078809Y-50001428D01*
X61316904Y-50477619D02*
X61316904Y-49477619D01*
X61316904Y-49477619D02*
X60935952Y-49477619D01*
X60935952Y-49477619D02*
X60840714Y-49525238D01*
X60840714Y-49525238D02*
X60793095Y-49572857D01*
X60793095Y-49572857D02*
X60745476Y-49668095D01*
X60745476Y-49668095D02*
X60745476Y-49810952D01*
X60745476Y-49810952D02*
X60793095Y-49906190D01*
X60793095Y-49906190D02*
X60840714Y-49953809D01*
X60840714Y-49953809D02*
X60935952Y-50001428D01*
X60935952Y-50001428D02*
X61316904Y-50001428D01*
X13030238Y-54011904D02*
X12982619Y-53916666D01*
X12982619Y-53916666D02*
X12982619Y-53773809D01*
X12982619Y-53773809D02*
X13030238Y-53630952D01*
X13030238Y-53630952D02*
X13125476Y-53535714D01*
X13125476Y-53535714D02*
X13220714Y-53488095D01*
X13220714Y-53488095D02*
X13411190Y-53440476D01*
X13411190Y-53440476D02*
X13554047Y-53440476D01*
X13554047Y-53440476D02*
X13744523Y-53488095D01*
X13744523Y-53488095D02*
X13839761Y-53535714D01*
X13839761Y-53535714D02*
X13935000Y-53630952D01*
X13935000Y-53630952D02*
X13982619Y-53773809D01*
X13982619Y-53773809D02*
X13982619Y-53869047D01*
X13982619Y-53869047D02*
X13935000Y-54011904D01*
X13935000Y-54011904D02*
X13887380Y-54059523D01*
X13887380Y-54059523D02*
X13554047Y-54059523D01*
X13554047Y-54059523D02*
X13554047Y-53869047D01*
X13982619Y-54488095D02*
X12982619Y-54488095D01*
X12982619Y-54488095D02*
X13982619Y-55059523D01*
X13982619Y-55059523D02*
X12982619Y-55059523D01*
X13982619Y-55535714D02*
X12982619Y-55535714D01*
X12982619Y-55535714D02*
X12982619Y-55773809D01*
X12982619Y-55773809D02*
X13030238Y-55916666D01*
X13030238Y-55916666D02*
X13125476Y-56011904D01*
X13125476Y-56011904D02*
X13220714Y-56059523D01*
X13220714Y-56059523D02*
X13411190Y-56107142D01*
X13411190Y-56107142D02*
X13554047Y-56107142D01*
X13554047Y-56107142D02*
X13744523Y-56059523D01*
X13744523Y-56059523D02*
X13839761Y-56011904D01*
X13839761Y-56011904D02*
X13935000Y-55916666D01*
X13935000Y-55916666D02*
X13982619Y-55773809D01*
X13982619Y-55773809D02*
X13982619Y-55535714D01*
X61436904Y-21436666D02*
X60675000Y-21436666D01*
X61055952Y-21817619D02*
X61055952Y-21055714D01*
X42466904Y-36996666D02*
X41705000Y-36996666D01*
X42085952Y-37377619D02*
X42085952Y-36615714D01*
X20542619Y-39038095D02*
X19542619Y-39038095D01*
X19542619Y-39038095D02*
X19542619Y-39276190D01*
X19542619Y-39276190D02*
X19590238Y-39419047D01*
X19590238Y-39419047D02*
X19685476Y-39514285D01*
X19685476Y-39514285D02*
X19780714Y-39561904D01*
X19780714Y-39561904D02*
X19971190Y-39609523D01*
X19971190Y-39609523D02*
X20114047Y-39609523D01*
X20114047Y-39609523D02*
X20304523Y-39561904D01*
X20304523Y-39561904D02*
X20399761Y-39514285D01*
X20399761Y-39514285D02*
X20495000Y-39419047D01*
X20495000Y-39419047D02*
X20542619Y-39276190D01*
X20542619Y-39276190D02*
X20542619Y-39038095D01*
X19542619Y-40228571D02*
X19542619Y-40323809D01*
X19542619Y-40323809D02*
X19590238Y-40419047D01*
X19590238Y-40419047D02*
X19637857Y-40466666D01*
X19637857Y-40466666D02*
X19733095Y-40514285D01*
X19733095Y-40514285D02*
X19923571Y-40561904D01*
X19923571Y-40561904D02*
X20161666Y-40561904D01*
X20161666Y-40561904D02*
X20352142Y-40514285D01*
X20352142Y-40514285D02*
X20447380Y-40466666D01*
X20447380Y-40466666D02*
X20495000Y-40419047D01*
X20495000Y-40419047D02*
X20542619Y-40323809D01*
X20542619Y-40323809D02*
X20542619Y-40228571D01*
X20542619Y-40228571D02*
X20495000Y-40133333D01*
X20495000Y-40133333D02*
X20447380Y-40085714D01*
X20447380Y-40085714D02*
X20352142Y-40038095D01*
X20352142Y-40038095D02*
X20161666Y-39990476D01*
X20161666Y-39990476D02*
X19923571Y-39990476D01*
X19923571Y-39990476D02*
X19733095Y-40038095D01*
X19733095Y-40038095D02*
X19637857Y-40085714D01*
X19637857Y-40085714D02*
X19590238Y-40133333D01*
X19590238Y-40133333D02*
X19542619Y-40228571D01*
X59052619Y-53692857D02*
X59052619Y-54311904D01*
X59052619Y-54311904D02*
X59433571Y-53978571D01*
X59433571Y-53978571D02*
X59433571Y-54121428D01*
X59433571Y-54121428D02*
X59481190Y-54216666D01*
X59481190Y-54216666D02*
X59528809Y-54264285D01*
X59528809Y-54264285D02*
X59624047Y-54311904D01*
X59624047Y-54311904D02*
X59862142Y-54311904D01*
X59862142Y-54311904D02*
X59957380Y-54264285D01*
X59957380Y-54264285D02*
X60005000Y-54216666D01*
X60005000Y-54216666D02*
X60052619Y-54121428D01*
X60052619Y-54121428D02*
X60052619Y-53835714D01*
X60052619Y-53835714D02*
X60005000Y-53740476D01*
X60005000Y-53740476D02*
X59957380Y-53692857D01*
X59052619Y-54597619D02*
X60052619Y-54930952D01*
X60052619Y-54930952D02*
X59052619Y-55264285D01*
X59052619Y-55502381D02*
X59052619Y-56121428D01*
X59052619Y-56121428D02*
X59433571Y-55788095D01*
X59433571Y-55788095D02*
X59433571Y-55930952D01*
X59433571Y-55930952D02*
X59481190Y-56026190D01*
X59481190Y-56026190D02*
X59528809Y-56073809D01*
X59528809Y-56073809D02*
X59624047Y-56121428D01*
X59624047Y-56121428D02*
X59862142Y-56121428D01*
X59862142Y-56121428D02*
X59957380Y-56073809D01*
X59957380Y-56073809D02*
X60005000Y-56026190D01*
X60005000Y-56026190D02*
X60052619Y-55930952D01*
X60052619Y-55930952D02*
X60052619Y-55645238D01*
X60052619Y-55645238D02*
X60005000Y-55550000D01*
X60005000Y-55550000D02*
X59957380Y-55502381D01*
X53592619Y-38709523D02*
X53116428Y-38376190D01*
X53592619Y-38138095D02*
X52592619Y-38138095D01*
X52592619Y-38138095D02*
X52592619Y-38519047D01*
X52592619Y-38519047D02*
X52640238Y-38614285D01*
X52640238Y-38614285D02*
X52687857Y-38661904D01*
X52687857Y-38661904D02*
X52783095Y-38709523D01*
X52783095Y-38709523D02*
X52925952Y-38709523D01*
X52925952Y-38709523D02*
X53021190Y-38661904D01*
X53021190Y-38661904D02*
X53068809Y-38614285D01*
X53068809Y-38614285D02*
X53116428Y-38519047D01*
X53116428Y-38519047D02*
X53116428Y-38138095D01*
X53545000Y-39090476D02*
X53592619Y-39233333D01*
X53592619Y-39233333D02*
X53592619Y-39471428D01*
X53592619Y-39471428D02*
X53545000Y-39566666D01*
X53545000Y-39566666D02*
X53497380Y-39614285D01*
X53497380Y-39614285D02*
X53402142Y-39661904D01*
X53402142Y-39661904D02*
X53306904Y-39661904D01*
X53306904Y-39661904D02*
X53211666Y-39614285D01*
X53211666Y-39614285D02*
X53164047Y-39566666D01*
X53164047Y-39566666D02*
X53116428Y-39471428D01*
X53116428Y-39471428D02*
X53068809Y-39280952D01*
X53068809Y-39280952D02*
X53021190Y-39185714D01*
X53021190Y-39185714D02*
X52973571Y-39138095D01*
X52973571Y-39138095D02*
X52878333Y-39090476D01*
X52878333Y-39090476D02*
X52783095Y-39090476D01*
X52783095Y-39090476D02*
X52687857Y-39138095D01*
X52687857Y-39138095D02*
X52640238Y-39185714D01*
X52640238Y-39185714D02*
X52592619Y-39280952D01*
X52592619Y-39280952D02*
X52592619Y-39519047D01*
X52592619Y-39519047D02*
X52640238Y-39661904D01*
X52592619Y-39947619D02*
X52592619Y-40519047D01*
X53592619Y-40233333D02*
X52592619Y-40233333D01*
X59052619Y-38132857D02*
X59052619Y-38751904D01*
X59052619Y-38751904D02*
X59433571Y-38418571D01*
X59433571Y-38418571D02*
X59433571Y-38561428D01*
X59433571Y-38561428D02*
X59481190Y-38656666D01*
X59481190Y-38656666D02*
X59528809Y-38704285D01*
X59528809Y-38704285D02*
X59624047Y-38751904D01*
X59624047Y-38751904D02*
X59862142Y-38751904D01*
X59862142Y-38751904D02*
X59957380Y-38704285D01*
X59957380Y-38704285D02*
X60005000Y-38656666D01*
X60005000Y-38656666D02*
X60052619Y-38561428D01*
X60052619Y-38561428D02*
X60052619Y-38275714D01*
X60052619Y-38275714D02*
X60005000Y-38180476D01*
X60005000Y-38180476D02*
X59957380Y-38132857D01*
X59052619Y-39037619D02*
X60052619Y-39370952D01*
X60052619Y-39370952D02*
X59052619Y-39704285D01*
X59052619Y-39942381D02*
X59052619Y-40561428D01*
X59052619Y-40561428D02*
X59433571Y-40228095D01*
X59433571Y-40228095D02*
X59433571Y-40370952D01*
X59433571Y-40370952D02*
X59481190Y-40466190D01*
X59481190Y-40466190D02*
X59528809Y-40513809D01*
X59528809Y-40513809D02*
X59624047Y-40561428D01*
X59624047Y-40561428D02*
X59862142Y-40561428D01*
X59862142Y-40561428D02*
X59957380Y-40513809D01*
X59957380Y-40513809D02*
X60005000Y-40466190D01*
X60005000Y-40466190D02*
X60052619Y-40370952D01*
X60052619Y-40370952D02*
X60052619Y-40085238D01*
X60052619Y-40085238D02*
X60005000Y-39990000D01*
X60005000Y-39990000D02*
X59957380Y-39942381D01*
X46307380Y-14479523D02*
X46355000Y-14431904D01*
X46355000Y-14431904D02*
X46402619Y-14289047D01*
X46402619Y-14289047D02*
X46402619Y-14193809D01*
X46402619Y-14193809D02*
X46355000Y-14050952D01*
X46355000Y-14050952D02*
X46259761Y-13955714D01*
X46259761Y-13955714D02*
X46164523Y-13908095D01*
X46164523Y-13908095D02*
X45974047Y-13860476D01*
X45974047Y-13860476D02*
X45831190Y-13860476D01*
X45831190Y-13860476D02*
X45640714Y-13908095D01*
X45640714Y-13908095D02*
X45545476Y-13955714D01*
X45545476Y-13955714D02*
X45450238Y-14050952D01*
X45450238Y-14050952D02*
X45402619Y-14193809D01*
X45402619Y-14193809D02*
X45402619Y-14289047D01*
X45402619Y-14289047D02*
X45450238Y-14431904D01*
X45450238Y-14431904D02*
X45497857Y-14479523D01*
X46402619Y-14908095D02*
X45402619Y-14908095D01*
X45402619Y-14908095D02*
X45402619Y-15289047D01*
X45402619Y-15289047D02*
X45450238Y-15384285D01*
X45450238Y-15384285D02*
X45497857Y-15431904D01*
X45497857Y-15431904D02*
X45593095Y-15479523D01*
X45593095Y-15479523D02*
X45735952Y-15479523D01*
X45735952Y-15479523D02*
X45831190Y-15431904D01*
X45831190Y-15431904D02*
X45878809Y-15384285D01*
X45878809Y-15384285D02*
X45926428Y-15289047D01*
X45926428Y-15289047D02*
X45926428Y-14908095D01*
X45402619Y-15908095D02*
X46212142Y-15908095D01*
X46212142Y-15908095D02*
X46307380Y-15955714D01*
X46307380Y-15955714D02*
X46355000Y-16003333D01*
X46355000Y-16003333D02*
X46402619Y-16098571D01*
X46402619Y-16098571D02*
X46402619Y-16289047D01*
X46402619Y-16289047D02*
X46355000Y-16384285D01*
X46355000Y-16384285D02*
X46307380Y-16431904D01*
X46307380Y-16431904D02*
X46212142Y-16479523D01*
X46212142Y-16479523D02*
X45402619Y-16479523D01*
X42013571Y-20133809D02*
X41870714Y-20181428D01*
X41870714Y-20181428D02*
X41823095Y-20229047D01*
X41823095Y-20229047D02*
X41775476Y-20324285D01*
X41775476Y-20324285D02*
X41775476Y-20467142D01*
X41775476Y-20467142D02*
X41823095Y-20562380D01*
X41823095Y-20562380D02*
X41870714Y-20610000D01*
X41870714Y-20610000D02*
X41965952Y-20657619D01*
X41965952Y-20657619D02*
X42346904Y-20657619D01*
X42346904Y-20657619D02*
X42346904Y-19657619D01*
X42346904Y-19657619D02*
X42013571Y-19657619D01*
X42013571Y-19657619D02*
X41918333Y-19705238D01*
X41918333Y-19705238D02*
X41870714Y-19752857D01*
X41870714Y-19752857D02*
X41823095Y-19848095D01*
X41823095Y-19848095D02*
X41823095Y-19943333D01*
X41823095Y-19943333D02*
X41870714Y-20038571D01*
X41870714Y-20038571D02*
X41918333Y-20086190D01*
X41918333Y-20086190D02*
X42013571Y-20133809D01*
X42013571Y-20133809D02*
X42346904Y-20133809D01*
X58482619Y-23478095D02*
X57482619Y-23478095D01*
X57482619Y-23478095D02*
X57482619Y-23716190D01*
X57482619Y-23716190D02*
X57530238Y-23859047D01*
X57530238Y-23859047D02*
X57625476Y-23954285D01*
X57625476Y-23954285D02*
X57720714Y-24001904D01*
X57720714Y-24001904D02*
X57911190Y-24049523D01*
X57911190Y-24049523D02*
X58054047Y-24049523D01*
X58054047Y-24049523D02*
X58244523Y-24001904D01*
X58244523Y-24001904D02*
X58339761Y-23954285D01*
X58339761Y-23954285D02*
X58435000Y-23859047D01*
X58435000Y-23859047D02*
X58482619Y-23716190D01*
X58482619Y-23716190D02*
X58482619Y-23478095D01*
X57482619Y-24668571D02*
X57482619Y-24763809D01*
X57482619Y-24763809D02*
X57530238Y-24859047D01*
X57530238Y-24859047D02*
X57577857Y-24906666D01*
X57577857Y-24906666D02*
X57673095Y-24954285D01*
X57673095Y-24954285D02*
X57863571Y-25001904D01*
X57863571Y-25001904D02*
X58101666Y-25001904D01*
X58101666Y-25001904D02*
X58292142Y-24954285D01*
X58292142Y-24954285D02*
X58387380Y-24906666D01*
X58387380Y-24906666D02*
X58435000Y-24859047D01*
X58435000Y-24859047D02*
X58482619Y-24763809D01*
X58482619Y-24763809D02*
X58482619Y-24668571D01*
X58482619Y-24668571D02*
X58435000Y-24573333D01*
X58435000Y-24573333D02*
X58387380Y-24525714D01*
X58387380Y-24525714D02*
X58292142Y-24478095D01*
X58292142Y-24478095D02*
X58101666Y-24430476D01*
X58101666Y-24430476D02*
X57863571Y-24430476D01*
X57863571Y-24430476D02*
X57673095Y-24478095D01*
X57673095Y-24478095D02*
X57577857Y-24525714D01*
X57577857Y-24525714D02*
X57530238Y-24573333D01*
X57530238Y-24573333D02*
X57482619Y-24668571D01*
X56712380Y-54014523D02*
X56760000Y-53966904D01*
X56760000Y-53966904D02*
X56807619Y-53824047D01*
X56807619Y-53824047D02*
X56807619Y-53728809D01*
X56807619Y-53728809D02*
X56760000Y-53585952D01*
X56760000Y-53585952D02*
X56664761Y-53490714D01*
X56664761Y-53490714D02*
X56569523Y-53443095D01*
X56569523Y-53443095D02*
X56379047Y-53395476D01*
X56379047Y-53395476D02*
X56236190Y-53395476D01*
X56236190Y-53395476D02*
X56045714Y-53443095D01*
X56045714Y-53443095D02*
X55950476Y-53490714D01*
X55950476Y-53490714D02*
X55855238Y-53585952D01*
X55855238Y-53585952D02*
X55807619Y-53728809D01*
X55807619Y-53728809D02*
X55807619Y-53824047D01*
X55807619Y-53824047D02*
X55855238Y-53966904D01*
X55855238Y-53966904D02*
X55902857Y-54014523D01*
X56807619Y-54443095D02*
X55807619Y-54443095D01*
X55807619Y-54443095D02*
X56521904Y-54776428D01*
X56521904Y-54776428D02*
X55807619Y-55109761D01*
X55807619Y-55109761D02*
X56807619Y-55109761D01*
X56807619Y-55585952D02*
X55807619Y-55585952D01*
X55807619Y-55585952D02*
X55807619Y-55824047D01*
X55807619Y-55824047D02*
X55855238Y-55966904D01*
X55855238Y-55966904D02*
X55950476Y-56062142D01*
X55950476Y-56062142D02*
X56045714Y-56109761D01*
X56045714Y-56109761D02*
X56236190Y-56157380D01*
X56236190Y-56157380D02*
X56379047Y-56157380D01*
X56379047Y-56157380D02*
X56569523Y-56109761D01*
X56569523Y-56109761D02*
X56664761Y-56062142D01*
X56664761Y-56062142D02*
X56760000Y-55966904D01*
X56760000Y-55966904D02*
X56807619Y-55824047D01*
X56807619Y-55824047D02*
X56807619Y-55585952D01*
M02*
