G04 #@! TF.GenerationSoftware,KiCad,Pcbnew,7.0.2-6a45011f42~172~ubuntu22.04.1*
G04 #@! TF.CreationDate,2023-07-03T14:39:39+08:00*
G04 #@! TF.ProjectId,panel_3_1,70616e65-6c5f-4335-9f31-2e6b69636164,rev?*
G04 #@! TF.SameCoordinates,Original*
G04 #@! TF.FileFunction,Copper,L1,Top*
G04 #@! TF.FilePolarity,Positive*
%FSLAX46Y46*%
G04 Gerber Fmt 4.6, Leading zero omitted, Abs format (unit mm)*
G04 Created by KiCad (PCBNEW 7.0.2-6a45011f42~172~ubuntu22.04.1) date 2023-07-03 14:39:39*
%MOMM*%
%LPD*%
G01*
G04 APERTURE LIST*
G04 #@! TA.AperFunction,ComponentPad*
%ADD10R,1.200000X1.000000*%
G04 #@! TD*
G04 #@! TA.AperFunction,SMDPad,CuDef*
%ADD11R,0.450000X0.450000*%
G04 #@! TD*
G04 #@! TA.AperFunction,SMDPad,CuDef*
%ADD12C,2.000000*%
G04 #@! TD*
G04 #@! TA.AperFunction,Conductor*
%ADD13C,0.200000*%
G04 #@! TD*
G04 APERTURE END LIST*
D10*
G04 #@! TO.P,J8,1,Pin_1*
G04 #@! TO.N,Board_2-GND*
X788163Y-37675000D03*
G04 #@! TD*
G04 #@! TO.P,J6,1,Pin_1*
G04 #@! TO.N,Board_0-GND*
X110140000Y-29675000D03*
G04 #@! TD*
D11*
G04 #@! TO.P,U2,1,DOUT*
G04 #@! TO.N,Board_2-Net-(U2-DOUT)*
X78884299Y-39195000D03*
G04 #@! TO.P,U2,2,VDD*
G04 #@! TO.N,Board_2-+3V3*
X78034299Y-39195000D03*
G04 #@! TO.P,U2,3,GND*
G04 #@! TO.N,Board_2-GND*
X78884299Y-38345000D03*
G04 #@! TO.P,U2,4,DIN*
G04 #@! TO.N,Board_2-Net-(U1-DOUT)*
X78034299Y-38345000D03*
G04 #@! TD*
D10*
G04 #@! TO.P,J4,1,Pin_1*
G04 #@! TO.N,Board_0-LED_OUT*
X110140000Y-31000000D03*
G04 #@! TD*
G04 #@! TO.P,J5,1,Pin_1*
G04 #@! TO.N,Board_1-+3V3*
X110140000Y-36325000D03*
G04 #@! TD*
G04 #@! TO.P,J1,1,Pin_1*
G04 #@! TO.N,Board_2-+3V3*
X72370000Y-40330000D03*
G04 #@! TD*
G04 #@! TO.P,J6,1,Pin_1*
G04 #@! TO.N,Board_2-GND*
X110140000Y-37675000D03*
G04 #@! TD*
G04 #@! TO.P,J3,1,Pin_1*
G04 #@! TO.N,Board_0-LED_DATA*
X72370000Y-31005000D03*
G04 #@! TD*
D11*
G04 #@! TO.P,U9,1,DOUT*
G04 #@! TO.N,Board_1-LED_OUT*
X107680000Y-35195000D03*
G04 #@! TO.P,U9,2,VDD*
G04 #@! TO.N,Board_1-+3V3*
X106830000Y-35195000D03*
G04 #@! TO.P,U9,3,GND*
G04 #@! TO.N,Board_1-GND*
X107680000Y-34345000D03*
G04 #@! TO.P,U9,4,DIN*
G04 #@! TO.N,Board_1-Net-(U8-DOUT)*
X106830000Y-34345000D03*
G04 #@! TD*
G04 #@! TO.P,U6,1,DOUT*
G04 #@! TO.N,Board_1-Net-(U6-DOUT)*
X95338983Y-35195000D03*
G04 #@! TO.P,U6,2,VDD*
G04 #@! TO.N,Board_1-+3V3*
X94488983Y-35195000D03*
G04 #@! TO.P,U6,3,GND*
G04 #@! TO.N,Board_1-GND*
X95338983Y-34345000D03*
G04 #@! TO.P,U6,4,DIN*
G04 #@! TO.N,Board_1-Net-(U5-DOUT)*
X94488983Y-34345000D03*
G04 #@! TD*
D10*
G04 #@! TO.P,J8,1,Pin_1*
G04 #@! TO.N,Board_0-GND*
X788163Y-29675000D03*
G04 #@! TD*
D11*
G04 #@! TO.P,U2,1,DOUT*
G04 #@! TO.N,Board_1-Net-(U2-DOUT)*
X78884299Y-35195000D03*
G04 #@! TO.P,U2,2,VDD*
G04 #@! TO.N,Board_1-+3V3*
X78034299Y-35195000D03*
G04 #@! TO.P,U2,3,GND*
G04 #@! TO.N,Board_1-GND*
X78884299Y-34345000D03*
G04 #@! TO.P,U2,4,DIN*
G04 #@! TO.N,Board_1-Net-(U1-DOUT)*
X78034299Y-34345000D03*
G04 #@! TD*
G04 #@! TO.P,U7,1,DOUT*
G04 #@! TO.N,Board_0-Net-(U7-DOUT)*
X99452654Y-31195000D03*
G04 #@! TO.P,U7,2,VDD*
G04 #@! TO.N,Board_0-+3V3*
X98602654Y-31195000D03*
G04 #@! TO.P,U7,3,GND*
G04 #@! TO.N,Board_0-GND*
X99452654Y-30345000D03*
G04 #@! TO.P,U7,4,DIN*
G04 #@! TO.N,Board_0-Net-(U6-DOUT)*
X98602654Y-30345000D03*
G04 #@! TD*
D10*
G04 #@! TO.P,J2,1,Pin_1*
G04 #@! TO.N,Board_2-GND*
X72370000Y-37680000D03*
G04 #@! TD*
D11*
G04 #@! TO.P,U9,1,DOUT*
G04 #@! TO.N,Board_0-LED_OUT*
X107680000Y-31195000D03*
G04 #@! TO.P,U9,2,VDD*
G04 #@! TO.N,Board_0-+3V3*
X106830000Y-31195000D03*
G04 #@! TO.P,U9,3,GND*
G04 #@! TO.N,Board_0-GND*
X107680000Y-30345000D03*
G04 #@! TO.P,U9,4,DIN*
G04 #@! TO.N,Board_0-Net-(U8-DOUT)*
X106830000Y-30345000D03*
G04 #@! TD*
G04 #@! TO.P,U3,1,DOUT*
G04 #@! TO.N,Board_2-Net-(U3-DOUT)*
X82997970Y-39195000D03*
G04 #@! TO.P,U3,2,VDD*
G04 #@! TO.N,Board_2-+3V3*
X82147970Y-39195000D03*
G04 #@! TO.P,U3,3,GND*
G04 #@! TO.N,Board_2-GND*
X82997970Y-38345000D03*
G04 #@! TO.P,U3,4,DIN*
G04 #@! TO.N,Board_2-Net-(U2-DOUT)*
X82147970Y-38345000D03*
G04 #@! TD*
G04 #@! TO.P,U8,1,DOUT*
G04 #@! TO.N,Board_0-Net-(U8-DOUT)*
X103566325Y-31195000D03*
G04 #@! TO.P,U8,2,VDD*
G04 #@! TO.N,Board_0-+3V3*
X102716325Y-31195000D03*
G04 #@! TO.P,U8,3,GND*
G04 #@! TO.N,Board_0-GND*
X103566325Y-30345000D03*
G04 #@! TO.P,U8,4,DIN*
G04 #@! TO.N,Board_0-Net-(U7-DOUT)*
X102716325Y-30345000D03*
G04 #@! TD*
G04 #@! TO.P,U6,1,DOUT*
G04 #@! TO.N,Board_2-Net-(U6-DOUT)*
X95338983Y-39195000D03*
G04 #@! TO.P,U6,2,VDD*
G04 #@! TO.N,Board_2-+3V3*
X94488983Y-39195000D03*
G04 #@! TO.P,U6,3,GND*
G04 #@! TO.N,Board_2-GND*
X95338983Y-38345000D03*
G04 #@! TO.P,U6,4,DIN*
G04 #@! TO.N,Board_2-Net-(U5-DOUT)*
X94488983Y-38345000D03*
G04 #@! TD*
G04 #@! TO.P,U4,1,DOUT*
G04 #@! TO.N,Board_2-Net-(U4-DOUT)*
X87111641Y-39195000D03*
G04 #@! TO.P,U4,2,VDD*
G04 #@! TO.N,Board_2-+3V3*
X86261641Y-39195000D03*
G04 #@! TO.P,U4,3,GND*
G04 #@! TO.N,Board_2-GND*
X87111641Y-38345000D03*
G04 #@! TO.P,U4,4,DIN*
G04 #@! TO.N,Board_2-Net-(U3-DOUT)*
X86261641Y-38345000D03*
G04 #@! TD*
D10*
G04 #@! TO.P,J7,1,Pin_1*
G04 #@! TO.N,Board_2-+3V3*
X783163Y-40325000D03*
G04 #@! TD*
G04 #@! TO.P,J1,1,Pin_1*
G04 #@! TO.N,Board_1-+3V3*
X72370000Y-36330000D03*
G04 #@! TD*
D11*
G04 #@! TO.P,U5,1,DOUT*
G04 #@! TO.N,Board_0-Net-(U5-DOUT)*
X91225312Y-31195000D03*
G04 #@! TO.P,U5,2,VDD*
G04 #@! TO.N,Board_0-+3V3*
X90375312Y-31195000D03*
G04 #@! TO.P,U5,3,GND*
G04 #@! TO.N,Board_0-GND*
X91225312Y-30345000D03*
G04 #@! TO.P,U5,4,DIN*
G04 #@! TO.N,Board_0-Net-(U4-DOUT)*
X90375312Y-30345000D03*
G04 #@! TD*
D10*
G04 #@! TO.P,J9,1,Pin_1*
G04 #@! TO.N,Board_2-LED_DATA*
X788163Y-39000000D03*
G04 #@! TD*
G04 #@! TO.P,J7,1,Pin_1*
G04 #@! TO.N,Board_1-+3V3*
X783163Y-36325000D03*
G04 #@! TD*
G04 #@! TO.P,J2,1,Pin_1*
G04 #@! TO.N,Board_1-GND*
X72370000Y-33680000D03*
G04 #@! TD*
G04 #@! TO.P,J4,1,Pin_1*
G04 #@! TO.N,Board_2-LED_OUT*
X110140000Y-39000000D03*
G04 #@! TD*
D11*
G04 #@! TO.P,U1,1,DOUT*
G04 #@! TO.N,Board_1-Net-(U1-DOUT)*
X74770628Y-35195000D03*
G04 #@! TO.P,U1,2,VDD*
G04 #@! TO.N,Board_1-+3V3*
X73920628Y-35195000D03*
G04 #@! TO.P,U1,3,GND*
G04 #@! TO.N,Board_1-GND*
X74770628Y-34345000D03*
G04 #@! TO.P,U1,4,DIN*
G04 #@! TO.N,Board_1-LED_DATA*
X73920628Y-34345000D03*
G04 #@! TD*
G04 #@! TO.P,U3,1,DOUT*
G04 #@! TO.N,Board_1-Net-(U3-DOUT)*
X82997970Y-35195000D03*
G04 #@! TO.P,U3,2,VDD*
G04 #@! TO.N,Board_1-+3V3*
X82147970Y-35195000D03*
G04 #@! TO.P,U3,3,GND*
G04 #@! TO.N,Board_1-GND*
X82997970Y-34345000D03*
G04 #@! TO.P,U3,4,DIN*
G04 #@! TO.N,Board_1-Net-(U2-DOUT)*
X82147970Y-34345000D03*
G04 #@! TD*
G04 #@! TO.P,U8,1,DOUT*
G04 #@! TO.N,Board_1-Net-(U8-DOUT)*
X103566325Y-35195000D03*
G04 #@! TO.P,U8,2,VDD*
G04 #@! TO.N,Board_1-+3V3*
X102716325Y-35195000D03*
G04 #@! TO.P,U8,3,GND*
G04 #@! TO.N,Board_1-GND*
X103566325Y-34345000D03*
G04 #@! TO.P,U8,4,DIN*
G04 #@! TO.N,Board_1-Net-(U7-DOUT)*
X102716325Y-34345000D03*
G04 #@! TD*
D10*
G04 #@! TO.P,J9,1,Pin_1*
G04 #@! TO.N,Board_1-LED_DATA*
X788163Y-35000000D03*
G04 #@! TD*
D12*
G04 #@! TO.P,REF\u002A\u002A,*
G04 #@! TO.N,*
X96090000Y-3350000D03*
G04 #@! TD*
D11*
G04 #@! TO.P,U7,1,DOUT*
G04 #@! TO.N,Board_1-Net-(U7-DOUT)*
X99452654Y-35195000D03*
G04 #@! TO.P,U7,2,VDD*
G04 #@! TO.N,Board_1-+3V3*
X98602654Y-35195000D03*
G04 #@! TO.P,U7,3,GND*
G04 #@! TO.N,Board_1-GND*
X99452654Y-34345000D03*
G04 #@! TO.P,U7,4,DIN*
G04 #@! TO.N,Board_1-Net-(U6-DOUT)*
X98602654Y-34345000D03*
G04 #@! TD*
G04 #@! TO.P,U6,1,DOUT*
G04 #@! TO.N,Board_0-Net-(U6-DOUT)*
X95338983Y-31195000D03*
G04 #@! TO.P,U6,2,VDD*
G04 #@! TO.N,Board_0-+3V3*
X94488983Y-31195000D03*
G04 #@! TO.P,U6,3,GND*
G04 #@! TO.N,Board_0-GND*
X95338983Y-30345000D03*
G04 #@! TO.P,U6,4,DIN*
G04 #@! TO.N,Board_0-Net-(U5-DOUT)*
X94488983Y-30345000D03*
G04 #@! TD*
D10*
G04 #@! TO.P,J3,1,Pin_1*
G04 #@! TO.N,Board_2-LED_DATA*
X72370000Y-39005000D03*
G04 #@! TD*
D11*
G04 #@! TO.P,U7,1,DOUT*
G04 #@! TO.N,Board_2-Net-(U7-DOUT)*
X99452654Y-39195000D03*
G04 #@! TO.P,U7,2,VDD*
G04 #@! TO.N,Board_2-+3V3*
X98602654Y-39195000D03*
G04 #@! TO.P,U7,3,GND*
G04 #@! TO.N,Board_2-GND*
X99452654Y-38345000D03*
G04 #@! TO.P,U7,4,DIN*
G04 #@! TO.N,Board_2-Net-(U6-DOUT)*
X98602654Y-38345000D03*
G04 #@! TD*
G04 #@! TO.P,U2,1,DOUT*
G04 #@! TO.N,Board_0-Net-(U2-DOUT)*
X78884299Y-31195000D03*
G04 #@! TO.P,U2,2,VDD*
G04 #@! TO.N,Board_0-+3V3*
X78034299Y-31195000D03*
G04 #@! TO.P,U2,3,GND*
G04 #@! TO.N,Board_0-GND*
X78884299Y-30345000D03*
G04 #@! TO.P,U2,4,DIN*
G04 #@! TO.N,Board_0-Net-(U1-DOUT)*
X78034299Y-30345000D03*
G04 #@! TD*
D10*
G04 #@! TO.P,J5,1,Pin_1*
G04 #@! TO.N,Board_0-+3V3*
X110140000Y-32325000D03*
G04 #@! TD*
D11*
G04 #@! TO.P,U8,1,DOUT*
G04 #@! TO.N,Board_2-Net-(U8-DOUT)*
X103566325Y-39195000D03*
G04 #@! TO.P,U8,2,VDD*
G04 #@! TO.N,Board_2-+3V3*
X102716325Y-39195000D03*
G04 #@! TO.P,U8,3,GND*
G04 #@! TO.N,Board_2-GND*
X103566325Y-38345000D03*
G04 #@! TO.P,U8,4,DIN*
G04 #@! TO.N,Board_2-Net-(U7-DOUT)*
X102716325Y-38345000D03*
G04 #@! TD*
D10*
G04 #@! TO.P,J6,1,Pin_1*
G04 #@! TO.N,Board_1-GND*
X110140000Y-33675000D03*
G04 #@! TD*
G04 #@! TO.P,J8,1,Pin_1*
G04 #@! TO.N,Board_1-GND*
X788163Y-33675000D03*
G04 #@! TD*
G04 #@! TO.P,J4,1,Pin_1*
G04 #@! TO.N,Board_1-LED_OUT*
X110140000Y-35000000D03*
G04 #@! TD*
G04 #@! TO.P,J9,1,Pin_1*
G04 #@! TO.N,Board_0-LED_DATA*
X788163Y-31000000D03*
G04 #@! TD*
D11*
G04 #@! TO.P,U1,1,DOUT*
G04 #@! TO.N,Board_0-Net-(U1-DOUT)*
X74770628Y-31195000D03*
G04 #@! TO.P,U1,2,VDD*
G04 #@! TO.N,Board_0-+3V3*
X73920628Y-31195000D03*
G04 #@! TO.P,U1,3,GND*
G04 #@! TO.N,Board_0-GND*
X74770628Y-30345000D03*
G04 #@! TO.P,U1,4,DIN*
G04 #@! TO.N,Board_0-LED_DATA*
X73920628Y-30345000D03*
G04 #@! TD*
G04 #@! TO.P,U5,1,DOUT*
G04 #@! TO.N,Board_1-Net-(U5-DOUT)*
X91225312Y-35195000D03*
G04 #@! TO.P,U5,2,VDD*
G04 #@! TO.N,Board_1-+3V3*
X90375312Y-35195000D03*
G04 #@! TO.P,U5,3,GND*
G04 #@! TO.N,Board_1-GND*
X91225312Y-34345000D03*
G04 #@! TO.P,U5,4,DIN*
G04 #@! TO.N,Board_1-Net-(U4-DOUT)*
X90375312Y-34345000D03*
G04 #@! TD*
G04 #@! TO.P,U4,1,DOUT*
G04 #@! TO.N,Board_0-Net-(U4-DOUT)*
X87111641Y-31195000D03*
G04 #@! TO.P,U4,2,VDD*
G04 #@! TO.N,Board_0-+3V3*
X86261641Y-31195000D03*
G04 #@! TO.P,U4,3,GND*
G04 #@! TO.N,Board_0-GND*
X87111641Y-30345000D03*
G04 #@! TO.P,U4,4,DIN*
G04 #@! TO.N,Board_0-Net-(U3-DOUT)*
X86261641Y-30345000D03*
G04 #@! TD*
D10*
G04 #@! TO.P,J7,1,Pin_1*
G04 #@! TO.N,Board_0-+3V3*
X783163Y-32325000D03*
G04 #@! TD*
D11*
G04 #@! TO.P,U4,1,DOUT*
G04 #@! TO.N,Board_1-Net-(U4-DOUT)*
X87111641Y-35195000D03*
G04 #@! TO.P,U4,2,VDD*
G04 #@! TO.N,Board_1-+3V3*
X86261641Y-35195000D03*
G04 #@! TO.P,U4,3,GND*
G04 #@! TO.N,Board_1-GND*
X87111641Y-34345000D03*
G04 #@! TO.P,U4,4,DIN*
G04 #@! TO.N,Board_1-Net-(U3-DOUT)*
X86261641Y-34345000D03*
G04 #@! TD*
G04 #@! TO.P,U3,1,DOUT*
G04 #@! TO.N,Board_0-Net-(U3-DOUT)*
X82997970Y-31195000D03*
G04 #@! TO.P,U3,2,VDD*
G04 #@! TO.N,Board_0-+3V3*
X82147970Y-31195000D03*
G04 #@! TO.P,U3,3,GND*
G04 #@! TO.N,Board_0-GND*
X82997970Y-30345000D03*
G04 #@! TO.P,U3,4,DIN*
G04 #@! TO.N,Board_0-Net-(U2-DOUT)*
X82147970Y-30345000D03*
G04 #@! TD*
G04 #@! TO.P,U9,1,DOUT*
G04 #@! TO.N,Board_2-LED_OUT*
X107680000Y-39195000D03*
G04 #@! TO.P,U9,2,VDD*
G04 #@! TO.N,Board_2-+3V3*
X106830000Y-39195000D03*
G04 #@! TO.P,U9,3,GND*
G04 #@! TO.N,Board_2-GND*
X107680000Y-38345000D03*
G04 #@! TO.P,U9,4,DIN*
G04 #@! TO.N,Board_2-Net-(U8-DOUT)*
X106830000Y-38345000D03*
G04 #@! TD*
G04 #@! TO.P,U1,1,DOUT*
G04 #@! TO.N,Board_2-Net-(U1-DOUT)*
X74770628Y-39195000D03*
G04 #@! TO.P,U1,2,VDD*
G04 #@! TO.N,Board_2-+3V3*
X73920628Y-39195000D03*
G04 #@! TO.P,U1,3,GND*
G04 #@! TO.N,Board_2-GND*
X74770628Y-38345000D03*
G04 #@! TO.P,U1,4,DIN*
G04 #@! TO.N,Board_2-LED_DATA*
X73920628Y-38345000D03*
G04 #@! TD*
D12*
G04 #@! TO.P,REF\u002A\u002A,*
G04 #@! TO.N,*
X15000000Y-3350000D03*
G04 #@! TD*
D10*
G04 #@! TO.P,J3,1,Pin_1*
G04 #@! TO.N,Board_1-LED_DATA*
X72370000Y-35005000D03*
G04 #@! TD*
D11*
G04 #@! TO.P,U5,1,DOUT*
G04 #@! TO.N,Board_2-Net-(U5-DOUT)*
X91225312Y-39195000D03*
G04 #@! TO.P,U5,2,VDD*
G04 #@! TO.N,Board_2-+3V3*
X90375312Y-39195000D03*
G04 #@! TO.P,U5,3,GND*
G04 #@! TO.N,Board_2-GND*
X91225312Y-38345000D03*
G04 #@! TO.P,U5,4,DIN*
G04 #@! TO.N,Board_2-Net-(U4-DOUT)*
X90375312Y-38345000D03*
G04 #@! TD*
D12*
G04 #@! TO.P,REF\u002A\u002A,*
G04 #@! TO.N,*
X15000000Y-66650000D03*
G04 #@! TD*
D10*
G04 #@! TO.P,J1,1,Pin_1*
G04 #@! TO.N,Board_0-+3V3*
X72370000Y-32330000D03*
G04 #@! TD*
G04 #@! TO.P,J2,1,Pin_1*
G04 #@! TO.N,Board_0-GND*
X72370000Y-29680000D03*
G04 #@! TD*
G04 #@! TO.P,J5,1,Pin_1*
G04 #@! TO.N,Board_2-+3V3*
X110140000Y-40325000D03*
G04 #@! TD*
D13*
G04 #@! TO.N,Board_0-LED_DATA*
X73675000Y-30345000D02*
X73920628Y-30345000D01*
X72370000Y-31005000D02*
X73015000Y-31005000D01*
X73015000Y-31005000D02*
X73675000Y-30345000D01*
G04 #@! TO.N,Board_0-LED_OUT*
X109765000Y-31195000D02*
X109960000Y-31000000D01*
X107680000Y-31195000D02*
X109765000Y-31195000D01*
G04 #@! TO.N,Board_0-Net-(U1-DOUT)*
X77184299Y-31195000D02*
X78034299Y-30345000D01*
X74770628Y-31195000D02*
X77184299Y-31195000D01*
G04 #@! TO.N,Board_0-Net-(U2-DOUT)*
X81297970Y-31195000D02*
X82147970Y-30345000D01*
X78884299Y-31195000D02*
X81297970Y-31195000D01*
G04 #@! TO.N,Board_0-Net-(U3-DOUT)*
X82997970Y-31195000D02*
X85411641Y-31195000D01*
X85411641Y-31195000D02*
X86261641Y-30345000D01*
G04 #@! TO.N,Board_0-Net-(U4-DOUT)*
X89525312Y-31195000D02*
X90375312Y-30345000D01*
X87111641Y-31195000D02*
X89525312Y-31195000D01*
G04 #@! TO.N,Board_0-Net-(U5-DOUT)*
X93638983Y-31195000D02*
X94488983Y-30345000D01*
X91225312Y-31195000D02*
X93638983Y-31195000D01*
G04 #@! TO.N,Board_0-Net-(U6-DOUT)*
X95338983Y-31195000D02*
X97752654Y-31195000D01*
X97752654Y-31195000D02*
X98602654Y-30345000D01*
G04 #@! TO.N,Board_0-Net-(U7-DOUT)*
X101866325Y-31195000D02*
X102716325Y-30345000D01*
X99452654Y-31195000D02*
X101866325Y-31195000D01*
G04 #@! TO.N,Board_0-Net-(U8-DOUT)*
X103566325Y-31195000D02*
X105980000Y-31195000D01*
X105980000Y-31195000D02*
X106830000Y-30345000D01*
G04 #@! TO.N,Board_1-LED_DATA*
X72370000Y-35005000D02*
X73015000Y-35005000D01*
X73675000Y-34345000D02*
X73920628Y-34345000D01*
X73015000Y-35005000D02*
X73675000Y-34345000D01*
G04 #@! TO.N,Board_1-LED_OUT*
X107680000Y-35195000D02*
X109765000Y-35195000D01*
X109765000Y-35195000D02*
X109960000Y-35000000D01*
G04 #@! TO.N,Board_1-Net-(U1-DOUT)*
X77184299Y-35195000D02*
X78034299Y-34345000D01*
X74770628Y-35195000D02*
X77184299Y-35195000D01*
G04 #@! TO.N,Board_1-Net-(U2-DOUT)*
X81297970Y-35195000D02*
X82147970Y-34345000D01*
X78884299Y-35195000D02*
X81297970Y-35195000D01*
G04 #@! TO.N,Board_1-Net-(U3-DOUT)*
X85411641Y-35195000D02*
X86261641Y-34345000D01*
X82997970Y-35195000D02*
X85411641Y-35195000D01*
G04 #@! TO.N,Board_1-Net-(U4-DOUT)*
X87111641Y-35195000D02*
X89525312Y-35195000D01*
X89525312Y-35195000D02*
X90375312Y-34345000D01*
G04 #@! TO.N,Board_1-Net-(U5-DOUT)*
X91225312Y-35195000D02*
X93638983Y-35195000D01*
X93638983Y-35195000D02*
X94488983Y-34345000D01*
G04 #@! TO.N,Board_1-Net-(U6-DOUT)*
X95338983Y-35195000D02*
X97752654Y-35195000D01*
X97752654Y-35195000D02*
X98602654Y-34345000D01*
G04 #@! TO.N,Board_1-Net-(U7-DOUT)*
X101866325Y-35195000D02*
X102716325Y-34345000D01*
X99452654Y-35195000D02*
X101866325Y-35195000D01*
G04 #@! TO.N,Board_1-Net-(U8-DOUT)*
X103566325Y-35195000D02*
X105980000Y-35195000D01*
X105980000Y-35195000D02*
X106830000Y-34345000D01*
G04 #@! TO.N,Board_2-LED_DATA*
X73675000Y-38345000D02*
X73920628Y-38345000D01*
X73015000Y-39005000D02*
X73675000Y-38345000D01*
X72370000Y-39005000D02*
X73015000Y-39005000D01*
G04 #@! TO.N,Board_2-LED_OUT*
X109765000Y-39195000D02*
X109960000Y-39000000D01*
X107680000Y-39195000D02*
X109765000Y-39195000D01*
G04 #@! TO.N,Board_2-Net-(U1-DOUT)*
X74770628Y-39195000D02*
X77184299Y-39195000D01*
X77184299Y-39195000D02*
X78034299Y-38345000D01*
G04 #@! TO.N,Board_2-Net-(U2-DOUT)*
X81297970Y-39195000D02*
X82147970Y-38345000D01*
X78884299Y-39195000D02*
X81297970Y-39195000D01*
G04 #@! TO.N,Board_2-Net-(U3-DOUT)*
X85411641Y-39195000D02*
X86261641Y-38345000D01*
X82997970Y-39195000D02*
X85411641Y-39195000D01*
G04 #@! TO.N,Board_2-Net-(U4-DOUT)*
X89525312Y-39195000D02*
X90375312Y-38345000D01*
X87111641Y-39195000D02*
X89525312Y-39195000D01*
G04 #@! TO.N,Board_2-Net-(U5-DOUT)*
X91225312Y-39195000D02*
X93638983Y-39195000D01*
X93638983Y-39195000D02*
X94488983Y-38345000D01*
G04 #@! TO.N,Board_2-Net-(U6-DOUT)*
X97752654Y-39195000D02*
X98602654Y-38345000D01*
X95338983Y-39195000D02*
X97752654Y-39195000D01*
G04 #@! TO.N,Board_2-Net-(U7-DOUT)*
X101866325Y-39195000D02*
X102716325Y-38345000D01*
X99452654Y-39195000D02*
X101866325Y-39195000D01*
G04 #@! TO.N,Board_2-Net-(U8-DOUT)*
X105980000Y-39195000D02*
X106830000Y-38345000D01*
X103566325Y-39195000D02*
X105980000Y-39195000D01*
G04 #@! TD*
G04 #@! TA.AperFunction,Conductor*
G04 #@! TO.N,Board_1-GND*
G36*
X110695517Y-33169949D02*
G01*
X110762548Y-33189661D01*
X110808281Y-33242483D01*
X110819465Y-33294481D01*
X110815252Y-34276032D01*
X110795280Y-34342987D01*
X110742280Y-34388514D01*
X110691253Y-34399500D01*
X109530100Y-34399500D01*
X109500787Y-34405330D01*
X109467542Y-34427543D01*
X109445330Y-34460787D01*
X109439500Y-34490098D01*
X109439500Y-34490100D01*
X109439500Y-34490101D01*
X109439500Y-34738269D01*
X109439501Y-34881600D01*
X109419817Y-34948639D01*
X109367013Y-34994394D01*
X109315501Y-35005600D01*
X108115936Y-35005600D01*
X108048897Y-34985915D01*
X108012833Y-34950489D01*
X107977456Y-34897542D01*
X107944212Y-34875330D01*
X107914901Y-34869500D01*
X107445100Y-34869500D01*
X107423278Y-34873841D01*
X107353687Y-34867611D01*
X107329157Y-34854620D01*
X107239910Y-34793665D01*
X107236979Y-34791723D01*
X107208541Y-34778502D01*
X107156049Y-34732390D01*
X107136820Y-34665218D01*
X107146309Y-34633691D01*
X107144858Y-34633403D01*
X107155373Y-34580535D01*
X107155500Y-34579899D01*
X107155499Y-34110102D01*
X107155498Y-34110098D01*
X107149669Y-34080787D01*
X107127456Y-34047542D01*
X107094212Y-34025330D01*
X107064901Y-34019500D01*
X106595100Y-34019500D01*
X106565787Y-34025330D01*
X106532542Y-34047543D01*
X106510330Y-34080787D01*
X106504499Y-34110098D01*
X106504500Y-34351285D01*
X106484815Y-34418324D01*
X106468181Y-34438966D01*
X105937867Y-34969281D01*
X105876544Y-35002766D01*
X105850186Y-35005600D01*
X104002261Y-35005600D01*
X103935222Y-34985915D01*
X103899158Y-34950489D01*
X103863781Y-34897542D01*
X103830537Y-34875330D01*
X103801226Y-34869500D01*
X103370220Y-34869500D01*
X103303181Y-34849815D01*
X103276532Y-34826732D01*
X103270968Y-34820315D01*
X103263545Y-34811753D01*
X103252464Y-34804636D01*
X103213528Y-34779628D01*
X103146483Y-34759963D01*
X103139434Y-34758952D01*
X103075872Y-34729942D01*
X103038084Y-34671172D01*
X103035436Y-34612018D01*
X103035994Y-34609213D01*
X103041825Y-34579899D01*
X103041824Y-34110102D01*
X103041823Y-34110098D01*
X103035994Y-34080787D01*
X103013781Y-34047542D01*
X102980537Y-34025330D01*
X102951226Y-34019500D01*
X102481425Y-34019500D01*
X102452112Y-34025330D01*
X102418867Y-34047543D01*
X102396655Y-34080787D01*
X102390825Y-34110098D01*
X102390825Y-34351285D01*
X102371140Y-34418324D01*
X102354506Y-34438966D01*
X101824192Y-34969281D01*
X101762869Y-35002766D01*
X101736511Y-35005600D01*
X99888590Y-35005600D01*
X99821551Y-34985915D01*
X99785487Y-34950489D01*
X99750110Y-34897542D01*
X99716866Y-34875330D01*
X99687555Y-34869500D01*
X99255488Y-34869500D01*
X99188449Y-34849815D01*
X99161800Y-34826731D01*
X99149873Y-34812975D01*
X99099855Y-34780851D01*
X99032812Y-34761187D01*
X99025529Y-34760142D01*
X98961966Y-34731133D01*
X98924177Y-34672364D01*
X98921528Y-34613207D01*
X98922322Y-34609214D01*
X98922323Y-34609213D01*
X98928154Y-34579899D01*
X98928153Y-34110102D01*
X98928152Y-34110098D01*
X98922323Y-34080787D01*
X98900110Y-34047542D01*
X98866866Y-34025330D01*
X98837555Y-34019500D01*
X98367754Y-34019500D01*
X98338441Y-34025330D01*
X98305196Y-34047543D01*
X98282984Y-34080787D01*
X98277154Y-34110098D01*
X98277154Y-34351285D01*
X98257469Y-34418324D01*
X98240835Y-34438966D01*
X97710521Y-34969281D01*
X97649198Y-35002766D01*
X97622840Y-35005600D01*
X95774919Y-35005600D01*
X95707880Y-34985915D01*
X95671816Y-34950489D01*
X95636439Y-34897542D01*
X95603195Y-34875330D01*
X95573884Y-34869500D01*
X95140756Y-34869500D01*
X95073717Y-34849815D01*
X95047068Y-34826731D01*
X95036203Y-34814200D01*
X94986186Y-34782075D01*
X94931685Y-34766090D01*
X94919142Y-34762411D01*
X94917297Y-34762146D01*
X94911618Y-34761331D01*
X94848056Y-34732320D01*
X94810269Y-34673550D01*
X94807621Y-34614397D01*
X94808858Y-34608172D01*
X94814483Y-34579899D01*
X94814482Y-34110102D01*
X94814481Y-34110098D01*
X94808652Y-34080787D01*
X94786439Y-34047542D01*
X94753195Y-34025330D01*
X94723884Y-34019500D01*
X94254083Y-34019500D01*
X94224770Y-34025330D01*
X94191525Y-34047543D01*
X94169313Y-34080787D01*
X94163482Y-34110098D01*
X94163482Y-34351285D01*
X94143797Y-34418325D01*
X94127163Y-34438966D01*
X93596850Y-34969281D01*
X93535527Y-35002766D01*
X93509169Y-35005600D01*
X91661248Y-35005600D01*
X91594209Y-34985915D01*
X91558145Y-34950489D01*
X91522768Y-34897542D01*
X91489524Y-34875330D01*
X91460213Y-34869500D01*
X91026025Y-34869500D01*
X90958986Y-34849815D01*
X90932338Y-34826733D01*
X90922530Y-34815422D01*
X90872513Y-34783298D01*
X90805471Y-34763634D01*
X90797713Y-34762521D01*
X90734150Y-34733512D01*
X90696361Y-34674743D01*
X90693713Y-34615587D01*
X90694981Y-34609213D01*
X90700812Y-34579899D01*
X90700811Y-34110102D01*
X90700810Y-34110098D01*
X90694981Y-34080787D01*
X90672768Y-34047542D01*
X90639524Y-34025330D01*
X90610213Y-34019500D01*
X90140412Y-34019500D01*
X90111099Y-34025330D01*
X90077854Y-34047543D01*
X90055642Y-34080787D01*
X90049812Y-34110098D01*
X90049812Y-34351285D01*
X90030127Y-34418324D01*
X90013493Y-34438966D01*
X89483179Y-34969281D01*
X89421856Y-35002766D01*
X89395498Y-35005600D01*
X87547577Y-35005600D01*
X87480538Y-34985915D01*
X87444474Y-34950489D01*
X87409097Y-34897542D01*
X87375853Y-34875330D01*
X87346542Y-34869500D01*
X86911292Y-34869500D01*
X86844253Y-34849815D01*
X86817605Y-34826733D01*
X86816132Y-34825035D01*
X86808859Y-34816646D01*
X86758844Y-34784523D01*
X86758843Y-34784522D01*
X86758842Y-34784522D01*
X86727348Y-34775284D01*
X86691802Y-34764858D01*
X86691798Y-34764857D01*
X86691797Y-34764857D01*
X86683805Y-34763710D01*
X86620242Y-34734701D01*
X86582453Y-34675932D01*
X86579805Y-34616775D01*
X86581308Y-34609214D01*
X86581310Y-34609213D01*
X86587141Y-34579899D01*
X86587140Y-34110102D01*
X86587139Y-34110098D01*
X86581310Y-34080787D01*
X86559097Y-34047542D01*
X86525853Y-34025330D01*
X86496542Y-34019500D01*
X86026741Y-34019500D01*
X85997428Y-34025330D01*
X85964183Y-34047543D01*
X85941971Y-34080787D01*
X85936141Y-34110098D01*
X85936141Y-34351285D01*
X85916456Y-34418324D01*
X85899822Y-34438966D01*
X85369508Y-34969281D01*
X85308185Y-35002766D01*
X85281827Y-35005600D01*
X83433906Y-35005600D01*
X83366867Y-34985915D01*
X83330803Y-34950489D01*
X83295426Y-34897542D01*
X83262182Y-34875330D01*
X83232871Y-34869500D01*
X82796561Y-34869500D01*
X82729522Y-34849815D01*
X82702873Y-34826731D01*
X82695190Y-34817870D01*
X82645173Y-34785747D01*
X82578124Y-34766081D01*
X82569900Y-34764901D01*
X82506337Y-34735893D01*
X82468547Y-34677125D01*
X82465898Y-34617968D01*
X82473343Y-34580535D01*
X82473470Y-34579899D01*
X82473469Y-34110102D01*
X82473468Y-34110098D01*
X82467639Y-34080787D01*
X82445426Y-34047542D01*
X82412182Y-34025330D01*
X82382871Y-34019500D01*
X81913070Y-34019500D01*
X81883757Y-34025330D01*
X81850512Y-34047543D01*
X81828300Y-34080787D01*
X81822469Y-34110098D01*
X81822470Y-34351285D01*
X81802785Y-34418324D01*
X81786151Y-34438966D01*
X81255837Y-34969281D01*
X81194514Y-35002766D01*
X81168156Y-35005600D01*
X79320235Y-35005600D01*
X79253196Y-34985915D01*
X79217132Y-34950489D01*
X79181755Y-34897542D01*
X79148511Y-34875330D01*
X79119200Y-34869500D01*
X78681828Y-34869500D01*
X78614789Y-34849815D01*
X78588141Y-34826733D01*
X78588139Y-34826731D01*
X78581517Y-34819093D01*
X78544678Y-34795433D01*
X78531499Y-34786969D01*
X78491114Y-34775124D01*
X78464458Y-34767306D01*
X78464454Y-34767305D01*
X78464453Y-34767305D01*
X78455987Y-34766090D01*
X78392425Y-34737079D01*
X78354638Y-34678309D01*
X78351990Y-34619156D01*
X78353968Y-34609213D01*
X78359799Y-34579899D01*
X78359798Y-34110102D01*
X78359797Y-34110098D01*
X78353968Y-34080787D01*
X78331755Y-34047542D01*
X78298511Y-34025330D01*
X78269200Y-34019500D01*
X77799399Y-34019500D01*
X77770086Y-34025330D01*
X77736841Y-34047543D01*
X77714629Y-34080787D01*
X77708799Y-34110098D01*
X77708799Y-34351285D01*
X77689114Y-34418324D01*
X77672480Y-34438966D01*
X77142166Y-34969281D01*
X77080843Y-35002766D01*
X77054485Y-35005600D01*
X75206564Y-35005600D01*
X75139525Y-34985915D01*
X75103461Y-34950489D01*
X75068084Y-34897542D01*
X75034840Y-34875330D01*
X75005529Y-34869500D01*
X74567096Y-34869500D01*
X74500057Y-34849815D01*
X74473407Y-34826731D01*
X74467844Y-34820315D01*
X74417830Y-34788194D01*
X74350785Y-34768528D01*
X74342080Y-34767279D01*
X74278518Y-34738269D01*
X74240730Y-34679499D01*
X74238082Y-34620344D01*
X74240295Y-34609215D01*
X74240297Y-34609213D01*
X74246128Y-34579899D01*
X74246127Y-34110102D01*
X74246126Y-34110098D01*
X74240297Y-34080787D01*
X74218084Y-34047542D01*
X74184840Y-34025330D01*
X74155529Y-34019500D01*
X73685728Y-34019500D01*
X73656415Y-34025330D01*
X73623170Y-34047543D01*
X73600958Y-34080787D01*
X73592745Y-34122079D01*
X73590440Y-34121620D01*
X73575443Y-34172697D01*
X73558793Y-34193356D01*
X73553506Y-34198641D01*
X73543157Y-34207887D01*
X73518377Y-34227649D01*
X73503423Y-34248723D01*
X73260305Y-34491841D01*
X73198982Y-34525326D01*
X73129290Y-34520342D01*
X73073357Y-34478470D01*
X73069521Y-34473049D01*
X73061328Y-34460787D01*
X73042457Y-34432543D01*
X73034973Y-34427542D01*
X73009212Y-34410330D01*
X72979901Y-34404500D01*
X71760100Y-34404500D01*
X71730787Y-34410330D01*
X71697542Y-34432543D01*
X71675330Y-34465787D01*
X71669500Y-34495098D01*
X71669500Y-34495627D01*
X71668244Y-34501410D01*
X71667117Y-34507079D01*
X71667018Y-34507059D01*
X71658339Y-34547041D01*
X71645811Y-34574536D01*
X71600128Y-34730619D01*
X71562405Y-34789429D01*
X71498874Y-34818510D01*
X71481329Y-34819787D01*
X1674381Y-34936847D01*
X1607309Y-34917275D01*
X1561465Y-34864548D01*
X1552226Y-34835318D01*
X1505623Y-34582406D01*
X1502491Y-34569811D01*
X1494396Y-34544126D01*
X1488662Y-34506854D01*
X1488662Y-34490100D01*
X1482832Y-34460787D01*
X1468252Y-34438966D01*
X1460620Y-34427543D01*
X1453064Y-34422494D01*
X1427375Y-34405330D01*
X1398064Y-34399500D01*
X1398062Y-34399500D01*
X1323567Y-34399500D01*
X1305923Y-34398238D01*
X1279925Y-34394500D01*
X226066Y-34394500D01*
X223530Y-34394766D01*
X155680Y-34378651D01*
X107222Y-34328316D01*
X93163Y-34270967D01*
X93163Y-33249050D01*
X112848Y-33182011D01*
X165652Y-33136256D01*
X217211Y-33125050D01*
X110695517Y-33169949D01*
G37*
G04 #@! TD.AperFunction*
G04 #@! TD*
G04 #@! TA.AperFunction,Conductor*
G04 #@! TO.N,Board_2-GND*
G36*
X110695517Y-37169949D02*
G01*
X110762548Y-37189661D01*
X110808281Y-37242483D01*
X110819465Y-37294481D01*
X110815252Y-38276032D01*
X110795280Y-38342987D01*
X110742280Y-38388514D01*
X110691253Y-38399500D01*
X109530100Y-38399500D01*
X109500787Y-38405330D01*
X109467542Y-38427543D01*
X109445330Y-38460787D01*
X109439500Y-38490098D01*
X109439500Y-38490100D01*
X109439500Y-38490101D01*
X109439500Y-38738269D01*
X109439501Y-38881600D01*
X109419817Y-38948639D01*
X109367013Y-38994394D01*
X109315501Y-39005600D01*
X108115936Y-39005600D01*
X108048897Y-38985915D01*
X108012833Y-38950489D01*
X107977456Y-38897542D01*
X107944212Y-38875330D01*
X107914901Y-38869500D01*
X107445100Y-38869500D01*
X107423278Y-38873841D01*
X107353687Y-38867611D01*
X107329157Y-38854620D01*
X107239910Y-38793665D01*
X107236979Y-38791723D01*
X107208541Y-38778502D01*
X107156049Y-38732390D01*
X107136820Y-38665218D01*
X107146309Y-38633691D01*
X107144858Y-38633403D01*
X107155373Y-38580535D01*
X107155500Y-38579899D01*
X107155499Y-38110102D01*
X107155498Y-38110098D01*
X107149669Y-38080787D01*
X107127456Y-38047542D01*
X107094212Y-38025330D01*
X107064901Y-38019500D01*
X106595100Y-38019500D01*
X106565787Y-38025330D01*
X106532542Y-38047543D01*
X106510330Y-38080787D01*
X106504499Y-38110098D01*
X106504500Y-38351285D01*
X106484815Y-38418324D01*
X106468181Y-38438966D01*
X105937867Y-38969281D01*
X105876544Y-39002766D01*
X105850186Y-39005600D01*
X104002261Y-39005600D01*
X103935222Y-38985915D01*
X103899158Y-38950489D01*
X103863781Y-38897542D01*
X103830537Y-38875330D01*
X103801226Y-38869500D01*
X103370220Y-38869500D01*
X103303181Y-38849815D01*
X103276532Y-38826732D01*
X103270968Y-38820315D01*
X103263545Y-38811753D01*
X103252464Y-38804636D01*
X103213528Y-38779628D01*
X103146483Y-38759963D01*
X103139434Y-38758952D01*
X103075872Y-38729942D01*
X103038084Y-38671172D01*
X103035436Y-38612018D01*
X103035994Y-38609213D01*
X103041825Y-38579899D01*
X103041824Y-38110102D01*
X103041823Y-38110098D01*
X103035994Y-38080787D01*
X103013781Y-38047542D01*
X102980537Y-38025330D01*
X102951226Y-38019500D01*
X102481425Y-38019500D01*
X102452112Y-38025330D01*
X102418867Y-38047543D01*
X102396655Y-38080787D01*
X102390825Y-38110098D01*
X102390825Y-38351285D01*
X102371140Y-38418324D01*
X102354506Y-38438966D01*
X101824192Y-38969281D01*
X101762869Y-39002766D01*
X101736511Y-39005600D01*
X99888590Y-39005600D01*
X99821551Y-38985915D01*
X99785487Y-38950489D01*
X99750110Y-38897542D01*
X99716866Y-38875330D01*
X99687555Y-38869500D01*
X99255488Y-38869500D01*
X99188449Y-38849815D01*
X99161800Y-38826731D01*
X99149873Y-38812975D01*
X99099855Y-38780851D01*
X99032812Y-38761187D01*
X99025529Y-38760142D01*
X98961966Y-38731133D01*
X98924177Y-38672364D01*
X98921528Y-38613207D01*
X98922322Y-38609214D01*
X98922323Y-38609213D01*
X98928154Y-38579899D01*
X98928153Y-38110102D01*
X98928152Y-38110098D01*
X98922323Y-38080787D01*
X98900110Y-38047542D01*
X98866866Y-38025330D01*
X98837555Y-38019500D01*
X98367754Y-38019500D01*
X98338441Y-38025330D01*
X98305196Y-38047543D01*
X98282984Y-38080787D01*
X98277154Y-38110098D01*
X98277154Y-38351285D01*
X98257469Y-38418324D01*
X98240835Y-38438966D01*
X97710521Y-38969281D01*
X97649198Y-39002766D01*
X97622840Y-39005600D01*
X95774919Y-39005600D01*
X95707880Y-38985915D01*
X95671816Y-38950489D01*
X95636439Y-38897542D01*
X95603195Y-38875330D01*
X95573884Y-38869500D01*
X95140756Y-38869500D01*
X95073717Y-38849815D01*
X95047068Y-38826731D01*
X95036203Y-38814200D01*
X94986186Y-38782075D01*
X94931685Y-38766090D01*
X94919142Y-38762411D01*
X94917297Y-38762146D01*
X94911618Y-38761331D01*
X94848056Y-38732320D01*
X94810269Y-38673550D01*
X94807621Y-38614397D01*
X94808858Y-38608172D01*
X94814483Y-38579899D01*
X94814482Y-38110102D01*
X94814481Y-38110098D01*
X94808652Y-38080787D01*
X94786439Y-38047542D01*
X94753195Y-38025330D01*
X94723884Y-38019500D01*
X94254083Y-38019500D01*
X94224770Y-38025330D01*
X94191525Y-38047543D01*
X94169313Y-38080787D01*
X94163482Y-38110098D01*
X94163482Y-38351285D01*
X94143797Y-38418325D01*
X94127163Y-38438966D01*
X93596850Y-38969281D01*
X93535527Y-39002766D01*
X93509169Y-39005600D01*
X91661248Y-39005600D01*
X91594209Y-38985915D01*
X91558145Y-38950489D01*
X91522768Y-38897542D01*
X91489524Y-38875330D01*
X91460213Y-38869500D01*
X91026025Y-38869500D01*
X90958986Y-38849815D01*
X90932338Y-38826733D01*
X90922530Y-38815422D01*
X90872513Y-38783298D01*
X90805471Y-38763634D01*
X90797713Y-38762521D01*
X90734150Y-38733512D01*
X90696361Y-38674743D01*
X90693713Y-38615587D01*
X90694981Y-38609213D01*
X90700812Y-38579899D01*
X90700811Y-38110102D01*
X90700810Y-38110098D01*
X90694981Y-38080787D01*
X90672768Y-38047542D01*
X90639524Y-38025330D01*
X90610213Y-38019500D01*
X90140412Y-38019500D01*
X90111099Y-38025330D01*
X90077854Y-38047543D01*
X90055642Y-38080787D01*
X90049812Y-38110098D01*
X90049812Y-38351285D01*
X90030127Y-38418324D01*
X90013493Y-38438966D01*
X89483179Y-38969281D01*
X89421856Y-39002766D01*
X89395498Y-39005600D01*
X87547577Y-39005600D01*
X87480538Y-38985915D01*
X87444474Y-38950489D01*
X87409097Y-38897542D01*
X87375853Y-38875330D01*
X87346542Y-38869500D01*
X86911292Y-38869500D01*
X86844253Y-38849815D01*
X86817605Y-38826733D01*
X86816132Y-38825035D01*
X86808859Y-38816646D01*
X86758844Y-38784523D01*
X86758843Y-38784522D01*
X86758842Y-38784522D01*
X86727348Y-38775284D01*
X86691802Y-38764858D01*
X86691798Y-38764857D01*
X86691797Y-38764857D01*
X86683805Y-38763710D01*
X86620242Y-38734701D01*
X86582453Y-38675932D01*
X86579805Y-38616775D01*
X86581308Y-38609214D01*
X86581310Y-38609213D01*
X86587141Y-38579899D01*
X86587140Y-38110102D01*
X86587139Y-38110098D01*
X86581310Y-38080787D01*
X86559097Y-38047542D01*
X86525853Y-38025330D01*
X86496542Y-38019500D01*
X86026741Y-38019500D01*
X85997428Y-38025330D01*
X85964183Y-38047543D01*
X85941971Y-38080787D01*
X85936141Y-38110098D01*
X85936141Y-38351285D01*
X85916456Y-38418324D01*
X85899822Y-38438966D01*
X85369508Y-38969281D01*
X85308185Y-39002766D01*
X85281827Y-39005600D01*
X83433906Y-39005600D01*
X83366867Y-38985915D01*
X83330803Y-38950489D01*
X83295426Y-38897542D01*
X83262182Y-38875330D01*
X83232871Y-38869500D01*
X82796561Y-38869500D01*
X82729522Y-38849815D01*
X82702873Y-38826731D01*
X82695190Y-38817870D01*
X82645173Y-38785747D01*
X82578124Y-38766081D01*
X82569900Y-38764901D01*
X82506337Y-38735893D01*
X82468547Y-38677125D01*
X82465898Y-38617968D01*
X82473343Y-38580535D01*
X82473470Y-38579899D01*
X82473469Y-38110102D01*
X82473468Y-38110098D01*
X82467639Y-38080787D01*
X82445426Y-38047542D01*
X82412182Y-38025330D01*
X82382871Y-38019500D01*
X81913070Y-38019500D01*
X81883757Y-38025330D01*
X81850512Y-38047543D01*
X81828300Y-38080787D01*
X81822469Y-38110098D01*
X81822470Y-38351285D01*
X81802785Y-38418324D01*
X81786151Y-38438966D01*
X81255837Y-38969281D01*
X81194514Y-39002766D01*
X81168156Y-39005600D01*
X79320235Y-39005600D01*
X79253196Y-38985915D01*
X79217132Y-38950489D01*
X79181755Y-38897542D01*
X79148511Y-38875330D01*
X79119200Y-38869500D01*
X78681828Y-38869500D01*
X78614789Y-38849815D01*
X78588141Y-38826733D01*
X78588139Y-38826731D01*
X78581517Y-38819093D01*
X78544678Y-38795433D01*
X78531499Y-38786969D01*
X78491114Y-38775124D01*
X78464458Y-38767306D01*
X78464454Y-38767305D01*
X78464453Y-38767305D01*
X78455987Y-38766090D01*
X78392425Y-38737079D01*
X78354638Y-38678309D01*
X78351990Y-38619156D01*
X78353968Y-38609213D01*
X78359799Y-38579899D01*
X78359798Y-38110102D01*
X78359797Y-38110098D01*
X78353968Y-38080787D01*
X78331755Y-38047542D01*
X78298511Y-38025330D01*
X78269200Y-38019500D01*
X77799399Y-38019500D01*
X77770086Y-38025330D01*
X77736841Y-38047543D01*
X77714629Y-38080787D01*
X77708799Y-38110098D01*
X77708799Y-38351285D01*
X77689114Y-38418324D01*
X77672480Y-38438966D01*
X77142166Y-38969281D01*
X77080843Y-39002766D01*
X77054485Y-39005600D01*
X75206564Y-39005600D01*
X75139525Y-38985915D01*
X75103461Y-38950489D01*
X75068084Y-38897542D01*
X75034840Y-38875330D01*
X75005529Y-38869500D01*
X74567096Y-38869500D01*
X74500057Y-38849815D01*
X74473407Y-38826731D01*
X74467844Y-38820315D01*
X74417830Y-38788194D01*
X74350785Y-38768528D01*
X74342080Y-38767279D01*
X74278518Y-38738269D01*
X74240730Y-38679499D01*
X74238082Y-38620344D01*
X74240295Y-38609215D01*
X74240297Y-38609213D01*
X74246128Y-38579899D01*
X74246127Y-38110102D01*
X74246126Y-38110098D01*
X74240297Y-38080787D01*
X74218084Y-38047542D01*
X74184840Y-38025330D01*
X74155529Y-38019500D01*
X73685728Y-38019500D01*
X73656415Y-38025330D01*
X73623170Y-38047543D01*
X73600958Y-38080787D01*
X73592745Y-38122079D01*
X73590440Y-38121620D01*
X73575443Y-38172697D01*
X73558793Y-38193356D01*
X73553506Y-38198641D01*
X73543157Y-38207887D01*
X73518377Y-38227649D01*
X73503423Y-38248723D01*
X73260305Y-38491841D01*
X73198982Y-38525326D01*
X73129290Y-38520342D01*
X73073357Y-38478470D01*
X73069521Y-38473049D01*
X73061328Y-38460787D01*
X73042457Y-38432543D01*
X73034973Y-38427542D01*
X73009212Y-38410330D01*
X72979901Y-38404500D01*
X71760100Y-38404500D01*
X71730787Y-38410330D01*
X71697542Y-38432543D01*
X71675330Y-38465787D01*
X71669500Y-38495098D01*
X71669500Y-38495627D01*
X71668244Y-38501410D01*
X71667117Y-38507079D01*
X71667018Y-38507059D01*
X71658339Y-38547041D01*
X71645811Y-38574536D01*
X71600128Y-38730619D01*
X71562405Y-38789429D01*
X71498874Y-38818510D01*
X71481329Y-38819787D01*
X1674381Y-38936847D01*
X1607309Y-38917275D01*
X1561465Y-38864548D01*
X1552226Y-38835318D01*
X1505623Y-38582406D01*
X1502491Y-38569811D01*
X1494396Y-38544126D01*
X1488662Y-38506854D01*
X1488662Y-38490100D01*
X1482832Y-38460787D01*
X1468252Y-38438966D01*
X1460620Y-38427543D01*
X1453064Y-38422494D01*
X1427375Y-38405330D01*
X1398064Y-38399500D01*
X1398062Y-38399500D01*
X1323567Y-38399500D01*
X1305923Y-38398238D01*
X1279925Y-38394500D01*
X226066Y-38394500D01*
X223530Y-38394766D01*
X155680Y-38378651D01*
X107222Y-38328316D01*
X93163Y-38270967D01*
X93163Y-37249050D01*
X112848Y-37182011D01*
X165652Y-37136256D01*
X217211Y-37125050D01*
X110695517Y-37169949D01*
G37*
G04 #@! TD.AperFunction*
G04 #@! TD*
G04 #@! TA.AperFunction,Conductor*
G04 #@! TO.N,Board_2-+3V3*
G36*
X107178716Y-38879676D02*
G01*
X107181646Y-38881617D01*
X107300443Y-38962767D01*
X107344697Y-39016835D01*
X107354500Y-39065158D01*
X107354500Y-39429899D01*
X107360330Y-39459212D01*
X107360331Y-39459213D01*
X107382543Y-39492457D01*
X107415787Y-39514669D01*
X107445101Y-39520500D01*
X107914898Y-39520499D01*
X107914899Y-39520499D01*
X107924669Y-39518555D01*
X107944213Y-39514669D01*
X107957549Y-39505758D01*
X108024225Y-39484882D01*
X108091605Y-39503367D01*
X108096380Y-39506471D01*
X108569998Y-39829999D01*
X108570000Y-39830000D01*
X110686557Y-39839448D01*
X110753504Y-39859432D01*
X110799023Y-39912440D01*
X110810000Y-39963447D01*
X110810000Y-40716061D01*
X110790315Y-40783100D01*
X110737511Y-40828855D01*
X110686062Y-40840061D01*
X217224Y-40894938D01*
X150174Y-40875287D01*
X104393Y-40822505D01*
X93163Y-40770942D01*
X93163Y-39854288D01*
X112847Y-39787253D01*
X165651Y-39741498D01*
X216954Y-39730292D01*
X218650Y-39730289D01*
X218656Y-39730290D01*
X47552859Y-39651047D01*
X72973163Y-39665000D01*
X73014123Y-39606520D01*
X73039859Y-39581344D01*
X73042455Y-39577458D01*
X73042457Y-39577457D01*
X73064669Y-39544213D01*
X73064669Y-39544211D01*
X73072143Y-39533026D01*
X73082368Y-39509087D01*
X73492990Y-38922838D01*
X73547570Y-38879225D01*
X73594509Y-38869980D01*
X74321093Y-38869764D01*
X74388136Y-38889429D01*
X74433907Y-38942219D01*
X74445128Y-38993764D01*
X74445128Y-39429899D01*
X74450958Y-39459212D01*
X74450959Y-39459213D01*
X74473171Y-39492457D01*
X74506415Y-39514669D01*
X74535729Y-39520500D01*
X75005526Y-39520499D01*
X75005527Y-39520499D01*
X75033684Y-39514899D01*
X75034841Y-39514669D01*
X75068085Y-39492457D01*
X75090297Y-39459213D01*
X75090297Y-39459211D01*
X75103461Y-39439511D01*
X75157072Y-39394705D01*
X75206564Y-39384400D01*
X77131053Y-39384400D01*
X77156525Y-39388727D01*
X77162546Y-39388048D01*
X77162548Y-39388049D01*
X77188012Y-39385179D01*
X77201896Y-39384400D01*
X77205637Y-39384400D01*
X77205640Y-39384400D01*
X77209297Y-39383565D01*
X77222973Y-39381240D01*
X77248463Y-39378369D01*
X77248465Y-39378367D01*
X77254497Y-39377688D01*
X77263846Y-39373815D01*
X77288629Y-39354051D01*
X77299975Y-39346000D01*
X77303135Y-39344016D01*
X77305781Y-39341369D01*
X77316137Y-39332113D01*
X77336186Y-39316126D01*
X77336187Y-39316122D01*
X77340926Y-39312344D01*
X77355877Y-39291272D01*
X77742113Y-38905036D01*
X77803432Y-38871554D01*
X77829743Y-38868721D01*
X78434765Y-38868541D01*
X78501807Y-38888205D01*
X78547578Y-38940995D01*
X78558799Y-38992540D01*
X78558799Y-39429899D01*
X78564629Y-39459212D01*
X78564630Y-39459213D01*
X78586842Y-39492457D01*
X78620086Y-39514669D01*
X78649400Y-39520500D01*
X79119197Y-39520499D01*
X79119198Y-39520499D01*
X79147355Y-39514899D01*
X79148512Y-39514669D01*
X79181756Y-39492457D01*
X79203968Y-39459213D01*
X79203968Y-39459211D01*
X79217132Y-39439511D01*
X79270743Y-39394705D01*
X79320235Y-39384400D01*
X81244724Y-39384400D01*
X81270196Y-39388727D01*
X81276217Y-39388048D01*
X81276219Y-39388049D01*
X81301683Y-39385179D01*
X81315567Y-39384400D01*
X81319308Y-39384400D01*
X81319311Y-39384400D01*
X81322968Y-39383565D01*
X81336644Y-39381240D01*
X81362134Y-39378369D01*
X81362136Y-39378367D01*
X81368168Y-39377688D01*
X81377517Y-39373815D01*
X81402300Y-39354051D01*
X81413646Y-39346000D01*
X81416806Y-39344016D01*
X81419452Y-39341369D01*
X81429808Y-39332113D01*
X81449857Y-39316126D01*
X81449858Y-39316122D01*
X81454597Y-39312344D01*
X81469548Y-39291272D01*
X81857008Y-38903812D01*
X81918327Y-38870330D01*
X81944637Y-38867497D01*
X82548434Y-38867317D01*
X82615479Y-38886982D01*
X82661249Y-38939772D01*
X82672470Y-38991317D01*
X82672470Y-39429899D01*
X82678300Y-39459212D01*
X82678301Y-39459213D01*
X82700513Y-39492457D01*
X82733757Y-39514669D01*
X82763071Y-39520500D01*
X83232868Y-39520499D01*
X83232869Y-39520499D01*
X83261026Y-39514899D01*
X83262183Y-39514669D01*
X83295427Y-39492457D01*
X83317639Y-39459213D01*
X83317639Y-39459211D01*
X83330803Y-39439511D01*
X83384414Y-39394705D01*
X83433906Y-39384400D01*
X85358395Y-39384400D01*
X85383867Y-39388727D01*
X85389888Y-39388048D01*
X85389890Y-39388049D01*
X85415354Y-39385179D01*
X85429238Y-39384400D01*
X85432979Y-39384400D01*
X85432982Y-39384400D01*
X85436639Y-39383565D01*
X85450315Y-39381240D01*
X85475805Y-39378369D01*
X85475807Y-39378367D01*
X85481839Y-39377688D01*
X85491188Y-39373815D01*
X85515971Y-39354051D01*
X85527317Y-39346000D01*
X85530477Y-39344016D01*
X85533123Y-39341369D01*
X85543479Y-39332113D01*
X85563528Y-39316126D01*
X85563529Y-39316122D01*
X85568268Y-39312344D01*
X85583219Y-39291272D01*
X85971903Y-38902588D01*
X86033222Y-38869106D01*
X86059531Y-38866273D01*
X86662107Y-38866093D01*
X86729149Y-38885758D01*
X86774920Y-38938548D01*
X86786141Y-38990093D01*
X86786141Y-39429899D01*
X86791971Y-39459212D01*
X86791972Y-39459213D01*
X86814184Y-39492457D01*
X86847428Y-39514669D01*
X86876742Y-39520500D01*
X87346539Y-39520499D01*
X87346540Y-39520499D01*
X87374697Y-39514899D01*
X87375854Y-39514669D01*
X87409098Y-39492457D01*
X87431310Y-39459213D01*
X87431310Y-39459211D01*
X87444474Y-39439511D01*
X87498085Y-39394705D01*
X87547577Y-39384400D01*
X89472066Y-39384400D01*
X89497538Y-39388727D01*
X89503559Y-39388048D01*
X89503561Y-39388049D01*
X89529025Y-39385179D01*
X89542909Y-39384400D01*
X89546650Y-39384400D01*
X89546653Y-39384400D01*
X89550310Y-39383565D01*
X89563986Y-39381240D01*
X89589476Y-39378369D01*
X89589478Y-39378367D01*
X89595510Y-39377688D01*
X89604859Y-39373815D01*
X89629642Y-39354051D01*
X89640988Y-39346000D01*
X89644148Y-39344016D01*
X89646794Y-39341369D01*
X89657150Y-39332113D01*
X89677199Y-39316126D01*
X89677200Y-39316122D01*
X89681939Y-39312344D01*
X89696890Y-39291272D01*
X90086798Y-38901364D01*
X90148117Y-38867882D01*
X90174426Y-38865049D01*
X90775779Y-38864870D01*
X90842820Y-38884534D01*
X90888591Y-38937324D01*
X90899812Y-38988869D01*
X90899812Y-39429899D01*
X90905642Y-39459212D01*
X90905643Y-39459213D01*
X90927855Y-39492457D01*
X90961099Y-39514669D01*
X90990413Y-39520500D01*
X91460210Y-39520499D01*
X91460211Y-39520499D01*
X91488368Y-39514899D01*
X91489525Y-39514669D01*
X91522769Y-39492457D01*
X91544981Y-39459213D01*
X91544981Y-39459211D01*
X91558145Y-39439511D01*
X91611756Y-39394705D01*
X91661248Y-39384400D01*
X93585737Y-39384400D01*
X93611209Y-39388727D01*
X93617230Y-39388048D01*
X93617232Y-39388049D01*
X93642696Y-39385179D01*
X93656580Y-39384400D01*
X93660321Y-39384400D01*
X93660324Y-39384400D01*
X93663981Y-39383565D01*
X93677657Y-39381240D01*
X93703147Y-39378369D01*
X93703149Y-39378367D01*
X93709181Y-39377688D01*
X93718530Y-39373815D01*
X93743313Y-39354051D01*
X93754659Y-39346000D01*
X93757819Y-39344016D01*
X93760465Y-39341369D01*
X93770821Y-39332113D01*
X93790870Y-39316126D01*
X93790871Y-39316122D01*
X93795610Y-39312344D01*
X93810561Y-39291272D01*
X94201693Y-38900140D01*
X94263012Y-38866658D01*
X94289320Y-38863825D01*
X94889448Y-38863646D01*
X94956492Y-38883311D01*
X95002262Y-38936101D01*
X95013483Y-38987646D01*
X95013483Y-39429899D01*
X95019313Y-39459212D01*
X95019314Y-39459213D01*
X95041526Y-39492457D01*
X95074770Y-39514669D01*
X95104084Y-39520500D01*
X95573881Y-39520499D01*
X95573882Y-39520499D01*
X95602039Y-39514899D01*
X95603196Y-39514669D01*
X95636440Y-39492457D01*
X95658652Y-39459213D01*
X95658652Y-39459211D01*
X95671816Y-39439511D01*
X95725427Y-39394705D01*
X95774919Y-39384400D01*
X97699408Y-39384400D01*
X97724880Y-39388727D01*
X97730901Y-39388048D01*
X97730903Y-39388049D01*
X97756367Y-39385179D01*
X97770251Y-39384400D01*
X97773992Y-39384400D01*
X97773995Y-39384400D01*
X97777652Y-39383565D01*
X97791328Y-39381240D01*
X97816818Y-39378369D01*
X97816820Y-39378367D01*
X97822852Y-39377688D01*
X97832201Y-39373815D01*
X97856984Y-39354051D01*
X97868330Y-39346000D01*
X97871490Y-39344016D01*
X97874136Y-39341369D01*
X97884492Y-39332113D01*
X97904541Y-39316126D01*
X97904542Y-39316122D01*
X97909281Y-39312344D01*
X97924232Y-39291272D01*
X98316588Y-38898916D01*
X98377907Y-38865434D01*
X98404215Y-38862601D01*
X99003121Y-38862423D01*
X99070162Y-38882087D01*
X99115933Y-38934877D01*
X99127154Y-38986422D01*
X99127154Y-39429899D01*
X99132984Y-39459212D01*
X99132985Y-39459213D01*
X99155197Y-39492457D01*
X99188441Y-39514669D01*
X99217755Y-39520500D01*
X99687552Y-39520499D01*
X99687553Y-39520499D01*
X99715710Y-39514899D01*
X99716867Y-39514669D01*
X99750111Y-39492457D01*
X99772323Y-39459213D01*
X99772323Y-39459211D01*
X99785487Y-39439511D01*
X99839098Y-39394705D01*
X99888590Y-39384400D01*
X101813079Y-39384400D01*
X101838551Y-39388727D01*
X101844572Y-39388048D01*
X101844574Y-39388049D01*
X101870038Y-39385179D01*
X101883922Y-39384400D01*
X101887663Y-39384400D01*
X101887666Y-39384400D01*
X101891323Y-39383565D01*
X101904999Y-39381240D01*
X101930489Y-39378369D01*
X101930491Y-39378367D01*
X101936523Y-39377688D01*
X101945872Y-39373815D01*
X101970655Y-39354051D01*
X101982001Y-39346000D01*
X101985161Y-39344016D01*
X101987807Y-39341369D01*
X101998163Y-39332113D01*
X102018212Y-39316126D01*
X102018213Y-39316122D01*
X102022952Y-39312344D01*
X102037903Y-39291272D01*
X102431483Y-38897692D01*
X102492802Y-38864210D01*
X102519109Y-38861377D01*
X103116790Y-38861199D01*
X103183834Y-38880864D01*
X103229604Y-38933654D01*
X103240825Y-38985199D01*
X103240825Y-39429899D01*
X103246655Y-39459212D01*
X103246656Y-39459213D01*
X103268868Y-39492457D01*
X103302112Y-39514669D01*
X103331426Y-39520500D01*
X103801223Y-39520499D01*
X103801224Y-39520499D01*
X103829381Y-39514899D01*
X103830538Y-39514669D01*
X103863782Y-39492457D01*
X103885994Y-39459213D01*
X103885994Y-39459211D01*
X103899158Y-39439511D01*
X103952769Y-39394705D01*
X104002261Y-39384400D01*
X105926754Y-39384400D01*
X105952226Y-39388727D01*
X105958247Y-39388048D01*
X105958249Y-39388049D01*
X105983713Y-39385179D01*
X105997597Y-39384400D01*
X106001338Y-39384400D01*
X106001341Y-39384400D01*
X106004998Y-39383565D01*
X106018674Y-39381240D01*
X106044164Y-39378369D01*
X106044166Y-39378367D01*
X106050198Y-39377688D01*
X106059547Y-39373815D01*
X106084330Y-39354051D01*
X106095676Y-39346000D01*
X106098836Y-39344016D01*
X106101482Y-39341369D01*
X106111838Y-39332113D01*
X106131887Y-39316126D01*
X106131888Y-39316122D01*
X106136627Y-39312344D01*
X106151578Y-39291272D01*
X106546382Y-38896468D01*
X106607701Y-38862986D01*
X106634008Y-38860153D01*
X107111671Y-38860011D01*
X107178716Y-38879676D01*
G37*
G04 #@! TD.AperFunction*
G04 #@! TD*
G04 #@! TA.AperFunction,Conductor*
G04 #@! TO.N,Board_1-+3V3*
G36*
X107178716Y-34879676D02*
G01*
X107181646Y-34881617D01*
X107300443Y-34962767D01*
X107344697Y-35016835D01*
X107354500Y-35065158D01*
X107354500Y-35429899D01*
X107360330Y-35459212D01*
X107360331Y-35459213D01*
X107382543Y-35492457D01*
X107415787Y-35514669D01*
X107445101Y-35520500D01*
X107914898Y-35520499D01*
X107914899Y-35520499D01*
X107924669Y-35518555D01*
X107944213Y-35514669D01*
X107957549Y-35505758D01*
X108024225Y-35484882D01*
X108091605Y-35503367D01*
X108096380Y-35506471D01*
X108569998Y-35829999D01*
X108570000Y-35830000D01*
X110686557Y-35839448D01*
X110753504Y-35859432D01*
X110799023Y-35912440D01*
X110810000Y-35963447D01*
X110810000Y-36716061D01*
X110790315Y-36783100D01*
X110737511Y-36828855D01*
X110686062Y-36840061D01*
X217224Y-36894938D01*
X150174Y-36875287D01*
X104393Y-36822505D01*
X93163Y-36770942D01*
X93163Y-35854288D01*
X112847Y-35787253D01*
X165651Y-35741498D01*
X216954Y-35730292D01*
X218650Y-35730289D01*
X218656Y-35730290D01*
X47552859Y-35651047D01*
X72973163Y-35665000D01*
X73014123Y-35606520D01*
X73039859Y-35581344D01*
X73042455Y-35577458D01*
X73042457Y-35577457D01*
X73064669Y-35544213D01*
X73064669Y-35544211D01*
X73072143Y-35533026D01*
X73082368Y-35509087D01*
X73492990Y-34922838D01*
X73547570Y-34879225D01*
X73594509Y-34869980D01*
X74321093Y-34869764D01*
X74388136Y-34889429D01*
X74433907Y-34942219D01*
X74445128Y-34993764D01*
X74445128Y-35429899D01*
X74450958Y-35459212D01*
X74450959Y-35459213D01*
X74473171Y-35492457D01*
X74506415Y-35514669D01*
X74535729Y-35520500D01*
X75005526Y-35520499D01*
X75005527Y-35520499D01*
X75033684Y-35514899D01*
X75034841Y-35514669D01*
X75068085Y-35492457D01*
X75090297Y-35459213D01*
X75090297Y-35459211D01*
X75103461Y-35439511D01*
X75157072Y-35394705D01*
X75206564Y-35384400D01*
X77131053Y-35384400D01*
X77156525Y-35388727D01*
X77162546Y-35388048D01*
X77162548Y-35388049D01*
X77188012Y-35385179D01*
X77201896Y-35384400D01*
X77205637Y-35384400D01*
X77205640Y-35384400D01*
X77209297Y-35383565D01*
X77222973Y-35381240D01*
X77248463Y-35378369D01*
X77248465Y-35378367D01*
X77254497Y-35377688D01*
X77263846Y-35373815D01*
X77288629Y-35354051D01*
X77299975Y-35346000D01*
X77303135Y-35344016D01*
X77305781Y-35341369D01*
X77316137Y-35332113D01*
X77336186Y-35316126D01*
X77336187Y-35316122D01*
X77340926Y-35312344D01*
X77355877Y-35291272D01*
X77742113Y-34905036D01*
X77803432Y-34871554D01*
X77829743Y-34868721D01*
X78434765Y-34868541D01*
X78501807Y-34888205D01*
X78547578Y-34940995D01*
X78558799Y-34992540D01*
X78558799Y-35429899D01*
X78564629Y-35459212D01*
X78564630Y-35459213D01*
X78586842Y-35492457D01*
X78620086Y-35514669D01*
X78649400Y-35520500D01*
X79119197Y-35520499D01*
X79119198Y-35520499D01*
X79147355Y-35514899D01*
X79148512Y-35514669D01*
X79181756Y-35492457D01*
X79203968Y-35459213D01*
X79203968Y-35459211D01*
X79217132Y-35439511D01*
X79270743Y-35394705D01*
X79320235Y-35384400D01*
X81244724Y-35384400D01*
X81270196Y-35388727D01*
X81276217Y-35388048D01*
X81276219Y-35388049D01*
X81301683Y-35385179D01*
X81315567Y-35384400D01*
X81319308Y-35384400D01*
X81319311Y-35384400D01*
X81322968Y-35383565D01*
X81336644Y-35381240D01*
X81362134Y-35378369D01*
X81362136Y-35378367D01*
X81368168Y-35377688D01*
X81377517Y-35373815D01*
X81402300Y-35354051D01*
X81413646Y-35346000D01*
X81416806Y-35344016D01*
X81419452Y-35341369D01*
X81429808Y-35332113D01*
X81449857Y-35316126D01*
X81449858Y-35316122D01*
X81454597Y-35312344D01*
X81469548Y-35291272D01*
X81857008Y-34903812D01*
X81918327Y-34870330D01*
X81944637Y-34867497D01*
X82548434Y-34867317D01*
X82615479Y-34886982D01*
X82661249Y-34939772D01*
X82672470Y-34991317D01*
X82672470Y-35429899D01*
X82678300Y-35459212D01*
X82678301Y-35459213D01*
X82700513Y-35492457D01*
X82733757Y-35514669D01*
X82763071Y-35520500D01*
X83232868Y-35520499D01*
X83232869Y-35520499D01*
X83261026Y-35514899D01*
X83262183Y-35514669D01*
X83295427Y-35492457D01*
X83317639Y-35459213D01*
X83317639Y-35459211D01*
X83330803Y-35439511D01*
X83384414Y-35394705D01*
X83433906Y-35384400D01*
X85358395Y-35384400D01*
X85383867Y-35388727D01*
X85389888Y-35388048D01*
X85389890Y-35388049D01*
X85415354Y-35385179D01*
X85429238Y-35384400D01*
X85432979Y-35384400D01*
X85432982Y-35384400D01*
X85436639Y-35383565D01*
X85450315Y-35381240D01*
X85475805Y-35378369D01*
X85475807Y-35378367D01*
X85481839Y-35377688D01*
X85491188Y-35373815D01*
X85515971Y-35354051D01*
X85527317Y-35346000D01*
X85530477Y-35344016D01*
X85533123Y-35341369D01*
X85543479Y-35332113D01*
X85563528Y-35316126D01*
X85563529Y-35316122D01*
X85568268Y-35312344D01*
X85583219Y-35291272D01*
X85971903Y-34902588D01*
X86033222Y-34869106D01*
X86059531Y-34866273D01*
X86662107Y-34866093D01*
X86729149Y-34885758D01*
X86774920Y-34938548D01*
X86786141Y-34990093D01*
X86786141Y-35429899D01*
X86791971Y-35459212D01*
X86791972Y-35459213D01*
X86814184Y-35492457D01*
X86847428Y-35514669D01*
X86876742Y-35520500D01*
X87346539Y-35520499D01*
X87346540Y-35520499D01*
X87374697Y-35514899D01*
X87375854Y-35514669D01*
X87409098Y-35492457D01*
X87431310Y-35459213D01*
X87431310Y-35459211D01*
X87444474Y-35439511D01*
X87498085Y-35394705D01*
X87547577Y-35384400D01*
X89472066Y-35384400D01*
X89497538Y-35388727D01*
X89503559Y-35388048D01*
X89503561Y-35388049D01*
X89529025Y-35385179D01*
X89542909Y-35384400D01*
X89546650Y-35384400D01*
X89546653Y-35384400D01*
X89550310Y-35383565D01*
X89563986Y-35381240D01*
X89589476Y-35378369D01*
X89589478Y-35378367D01*
X89595510Y-35377688D01*
X89604859Y-35373815D01*
X89629642Y-35354051D01*
X89640988Y-35346000D01*
X89644148Y-35344016D01*
X89646794Y-35341369D01*
X89657150Y-35332113D01*
X89677199Y-35316126D01*
X89677200Y-35316122D01*
X89681939Y-35312344D01*
X89696890Y-35291272D01*
X90086798Y-34901364D01*
X90148117Y-34867882D01*
X90174426Y-34865049D01*
X90775779Y-34864870D01*
X90842820Y-34884534D01*
X90888591Y-34937324D01*
X90899812Y-34988869D01*
X90899812Y-35429899D01*
X90905642Y-35459212D01*
X90905643Y-35459213D01*
X90927855Y-35492457D01*
X90961099Y-35514669D01*
X90990413Y-35520500D01*
X91460210Y-35520499D01*
X91460211Y-35520499D01*
X91488368Y-35514899D01*
X91489525Y-35514669D01*
X91522769Y-35492457D01*
X91544981Y-35459213D01*
X91544981Y-35459211D01*
X91558145Y-35439511D01*
X91611756Y-35394705D01*
X91661248Y-35384400D01*
X93585737Y-35384400D01*
X93611209Y-35388727D01*
X93617230Y-35388048D01*
X93617232Y-35388049D01*
X93642696Y-35385179D01*
X93656580Y-35384400D01*
X93660321Y-35384400D01*
X93660324Y-35384400D01*
X93663981Y-35383565D01*
X93677657Y-35381240D01*
X93703147Y-35378369D01*
X93703149Y-35378367D01*
X93709181Y-35377688D01*
X93718530Y-35373815D01*
X93743313Y-35354051D01*
X93754659Y-35346000D01*
X93757819Y-35344016D01*
X93760465Y-35341369D01*
X93770821Y-35332113D01*
X93790870Y-35316126D01*
X93790871Y-35316122D01*
X93795610Y-35312344D01*
X93810561Y-35291272D01*
X94201693Y-34900140D01*
X94263012Y-34866658D01*
X94289320Y-34863825D01*
X94889448Y-34863646D01*
X94956492Y-34883311D01*
X95002262Y-34936101D01*
X95013483Y-34987646D01*
X95013483Y-35429899D01*
X95019313Y-35459212D01*
X95019314Y-35459213D01*
X95041526Y-35492457D01*
X95074770Y-35514669D01*
X95104084Y-35520500D01*
X95573881Y-35520499D01*
X95573882Y-35520499D01*
X95602039Y-35514899D01*
X95603196Y-35514669D01*
X95636440Y-35492457D01*
X95658652Y-35459213D01*
X95658652Y-35459211D01*
X95671816Y-35439511D01*
X95725427Y-35394705D01*
X95774919Y-35384400D01*
X97699408Y-35384400D01*
X97724880Y-35388727D01*
X97730901Y-35388048D01*
X97730903Y-35388049D01*
X97756367Y-35385179D01*
X97770251Y-35384400D01*
X97773992Y-35384400D01*
X97773995Y-35384400D01*
X97777652Y-35383565D01*
X97791328Y-35381240D01*
X97816818Y-35378369D01*
X97816820Y-35378367D01*
X97822852Y-35377688D01*
X97832201Y-35373815D01*
X97856984Y-35354051D01*
X97868330Y-35346000D01*
X97871490Y-35344016D01*
X97874136Y-35341369D01*
X97884492Y-35332113D01*
X97904541Y-35316126D01*
X97904542Y-35316122D01*
X97909281Y-35312344D01*
X97924232Y-35291272D01*
X98316588Y-34898916D01*
X98377907Y-34865434D01*
X98404215Y-34862601D01*
X99003121Y-34862423D01*
X99070162Y-34882087D01*
X99115933Y-34934877D01*
X99127154Y-34986422D01*
X99127154Y-35429899D01*
X99132984Y-35459212D01*
X99132985Y-35459213D01*
X99155197Y-35492457D01*
X99188441Y-35514669D01*
X99217755Y-35520500D01*
X99687552Y-35520499D01*
X99687553Y-35520499D01*
X99715710Y-35514899D01*
X99716867Y-35514669D01*
X99750111Y-35492457D01*
X99772323Y-35459213D01*
X99772323Y-35459211D01*
X99785487Y-35439511D01*
X99839098Y-35394705D01*
X99888590Y-35384400D01*
X101813079Y-35384400D01*
X101838551Y-35388727D01*
X101844572Y-35388048D01*
X101844574Y-35388049D01*
X101870038Y-35385179D01*
X101883922Y-35384400D01*
X101887663Y-35384400D01*
X101887666Y-35384400D01*
X101891323Y-35383565D01*
X101904999Y-35381240D01*
X101930489Y-35378369D01*
X101930491Y-35378367D01*
X101936523Y-35377688D01*
X101945872Y-35373815D01*
X101970655Y-35354051D01*
X101982001Y-35346000D01*
X101985161Y-35344016D01*
X101987807Y-35341369D01*
X101998163Y-35332113D01*
X102018212Y-35316126D01*
X102018213Y-35316122D01*
X102022952Y-35312344D01*
X102037903Y-35291272D01*
X102431483Y-34897692D01*
X102492802Y-34864210D01*
X102519109Y-34861377D01*
X103116790Y-34861199D01*
X103183834Y-34880864D01*
X103229604Y-34933654D01*
X103240825Y-34985199D01*
X103240825Y-35429899D01*
X103246655Y-35459212D01*
X103246656Y-35459213D01*
X103268868Y-35492457D01*
X103302112Y-35514669D01*
X103331426Y-35520500D01*
X103801223Y-35520499D01*
X103801224Y-35520499D01*
X103829381Y-35514899D01*
X103830538Y-35514669D01*
X103863782Y-35492457D01*
X103885994Y-35459213D01*
X103885994Y-35459211D01*
X103899158Y-35439511D01*
X103952769Y-35394705D01*
X104002261Y-35384400D01*
X105926754Y-35384400D01*
X105952226Y-35388727D01*
X105958247Y-35388048D01*
X105958249Y-35388049D01*
X105983713Y-35385179D01*
X105997597Y-35384400D01*
X106001338Y-35384400D01*
X106001341Y-35384400D01*
X106004998Y-35383565D01*
X106018674Y-35381240D01*
X106044164Y-35378369D01*
X106044166Y-35378367D01*
X106050198Y-35377688D01*
X106059547Y-35373815D01*
X106084330Y-35354051D01*
X106095676Y-35346000D01*
X106098836Y-35344016D01*
X106101482Y-35341369D01*
X106111838Y-35332113D01*
X106131887Y-35316126D01*
X106131888Y-35316122D01*
X106136627Y-35312344D01*
X106151578Y-35291272D01*
X106546382Y-34896468D01*
X106607701Y-34862986D01*
X106634008Y-34860153D01*
X107111671Y-34860011D01*
X107178716Y-34879676D01*
G37*
G04 #@! TD.AperFunction*
G04 #@! TD*
G04 #@! TA.AperFunction,Conductor*
G04 #@! TO.N,Board_0-LED_DATA*
G36*
X1346964Y-30519685D02*
G01*
X1392719Y-30572489D01*
X1401870Y-30601524D01*
X1483159Y-31042669D01*
X71653163Y-30925000D01*
X71747064Y-30604169D01*
X71784788Y-30545358D01*
X71848318Y-30516278D01*
X71866072Y-30515000D01*
X72840409Y-30515000D01*
X72907448Y-30534685D01*
X72953203Y-30587489D01*
X72964402Y-30637747D01*
X72967304Y-30925000D01*
X72971898Y-31379748D01*
X72952891Y-31446982D01*
X72900552Y-31493268D01*
X72847904Y-31505000D01*
X71773163Y-31505000D01*
X218479Y-31624790D01*
X151406Y-31605218D01*
X105563Y-31552490D01*
X94276Y-31499691D01*
X102071Y-30622898D01*
X122351Y-30556036D01*
X175559Y-30510752D01*
X226066Y-30500000D01*
X1279925Y-30500000D01*
X1346964Y-30519685D01*
G37*
G04 #@! TD.AperFunction*
G04 #@! TD*
G04 #@! TA.AperFunction,Conductor*
G04 #@! TO.N,Board_2-LED_DATA*
G36*
X1346964Y-38519685D02*
G01*
X1392719Y-38572489D01*
X1401870Y-38601524D01*
X1483159Y-39042669D01*
X71653163Y-38925000D01*
X71747064Y-38604169D01*
X71784788Y-38545358D01*
X71848318Y-38516278D01*
X71866072Y-38515000D01*
X72840409Y-38515000D01*
X72907448Y-38534685D01*
X72953203Y-38587489D01*
X72964402Y-38637747D01*
X72967304Y-38925000D01*
X72971898Y-39379748D01*
X72952891Y-39446982D01*
X72900552Y-39493268D01*
X72847904Y-39505000D01*
X71773163Y-39505000D01*
X218479Y-39624790D01*
X151406Y-39605218D01*
X105563Y-39552490D01*
X94276Y-39499691D01*
X102071Y-38622898D01*
X122351Y-38556036D01*
X175559Y-38510752D01*
X226066Y-38500000D01*
X1279925Y-38500000D01*
X1346964Y-38519685D01*
G37*
G04 #@! TD.AperFunction*
G04 #@! TD*
G04 #@! TA.AperFunction,Conductor*
G04 #@! TO.N,Board_1-LED_DATA*
G36*
X1346964Y-34519685D02*
G01*
X1392719Y-34572489D01*
X1401870Y-34601524D01*
X1483159Y-35042669D01*
X71653163Y-34925000D01*
X71747064Y-34604169D01*
X71784788Y-34545358D01*
X71848318Y-34516278D01*
X71866072Y-34515000D01*
X72840409Y-34515000D01*
X72907448Y-34534685D01*
X72953203Y-34587489D01*
X72964402Y-34637747D01*
X72967304Y-34925000D01*
X72971898Y-35379748D01*
X72952891Y-35446982D01*
X72900552Y-35493268D01*
X72847904Y-35505000D01*
X71773163Y-35505000D01*
X218479Y-35624790D01*
X151406Y-35605218D01*
X105563Y-35552490D01*
X94276Y-35499691D01*
X102071Y-34622898D01*
X122351Y-34556036D01*
X175559Y-34510752D01*
X226066Y-34500000D01*
X1279925Y-34500000D01*
X1346964Y-34519685D01*
G37*
G04 #@! TD.AperFunction*
G04 #@! TD*
G04 #@! TA.AperFunction,Conductor*
G04 #@! TO.N,Board_0-+3V3*
G36*
X107178716Y-30879676D02*
G01*
X107181646Y-30881617D01*
X107300443Y-30962767D01*
X107344697Y-31016835D01*
X107354500Y-31065158D01*
X107354500Y-31429899D01*
X107360330Y-31459212D01*
X107360331Y-31459213D01*
X107382543Y-31492457D01*
X107415787Y-31514669D01*
X107445101Y-31520500D01*
X107914898Y-31520499D01*
X107914899Y-31520499D01*
X107924669Y-31518555D01*
X107944213Y-31514669D01*
X107957549Y-31505758D01*
X108024225Y-31484882D01*
X108091605Y-31503367D01*
X108096380Y-31506471D01*
X108569998Y-31829999D01*
X108570000Y-31830000D01*
X110686557Y-31839448D01*
X110753504Y-31859432D01*
X110799023Y-31912440D01*
X110810000Y-31963447D01*
X110810000Y-32716061D01*
X110790315Y-32783100D01*
X110737511Y-32828855D01*
X110686062Y-32840061D01*
X217224Y-32894938D01*
X150174Y-32875287D01*
X104393Y-32822505D01*
X93163Y-32770942D01*
X93163Y-31854288D01*
X112847Y-31787253D01*
X165651Y-31741498D01*
X216954Y-31730292D01*
X218650Y-31730289D01*
X218656Y-31730290D01*
X47552859Y-31651047D01*
X72973163Y-31665000D01*
X73014123Y-31606520D01*
X73039859Y-31581344D01*
X73042455Y-31577458D01*
X73042457Y-31577457D01*
X73064669Y-31544213D01*
X73064669Y-31544211D01*
X73072143Y-31533026D01*
X73082368Y-31509087D01*
X73492990Y-30922838D01*
X73547570Y-30879225D01*
X73594509Y-30869980D01*
X74321093Y-30869764D01*
X74388136Y-30889429D01*
X74433907Y-30942219D01*
X74445128Y-30993764D01*
X74445128Y-31429899D01*
X74450958Y-31459212D01*
X74450959Y-31459213D01*
X74473171Y-31492457D01*
X74506415Y-31514669D01*
X74535729Y-31520500D01*
X75005526Y-31520499D01*
X75005527Y-31520499D01*
X75033684Y-31514899D01*
X75034841Y-31514669D01*
X75068085Y-31492457D01*
X75090297Y-31459213D01*
X75090297Y-31459211D01*
X75103461Y-31439511D01*
X75157072Y-31394705D01*
X75206564Y-31384400D01*
X77131053Y-31384400D01*
X77156525Y-31388727D01*
X77162546Y-31388048D01*
X77162548Y-31388049D01*
X77188012Y-31385179D01*
X77201896Y-31384400D01*
X77205637Y-31384400D01*
X77205640Y-31384400D01*
X77209297Y-31383565D01*
X77222973Y-31381240D01*
X77248463Y-31378369D01*
X77248465Y-31378367D01*
X77254497Y-31377688D01*
X77263846Y-31373815D01*
X77288629Y-31354051D01*
X77299975Y-31346000D01*
X77303135Y-31344016D01*
X77305781Y-31341369D01*
X77316137Y-31332113D01*
X77336186Y-31316126D01*
X77336187Y-31316122D01*
X77340926Y-31312344D01*
X77355877Y-31291272D01*
X77742113Y-30905036D01*
X77803432Y-30871554D01*
X77829743Y-30868721D01*
X78434765Y-30868541D01*
X78501807Y-30888205D01*
X78547578Y-30940995D01*
X78558799Y-30992540D01*
X78558799Y-31429899D01*
X78564629Y-31459212D01*
X78564630Y-31459213D01*
X78586842Y-31492457D01*
X78620086Y-31514669D01*
X78649400Y-31520500D01*
X79119197Y-31520499D01*
X79119198Y-31520499D01*
X79147355Y-31514899D01*
X79148512Y-31514669D01*
X79181756Y-31492457D01*
X79203968Y-31459213D01*
X79203968Y-31459211D01*
X79217132Y-31439511D01*
X79270743Y-31394705D01*
X79320235Y-31384400D01*
X81244724Y-31384400D01*
X81270196Y-31388727D01*
X81276217Y-31388048D01*
X81276219Y-31388049D01*
X81301683Y-31385179D01*
X81315567Y-31384400D01*
X81319308Y-31384400D01*
X81319311Y-31384400D01*
X81322968Y-31383565D01*
X81336644Y-31381240D01*
X81362134Y-31378369D01*
X81362136Y-31378367D01*
X81368168Y-31377688D01*
X81377517Y-31373815D01*
X81402300Y-31354051D01*
X81413646Y-31346000D01*
X81416806Y-31344016D01*
X81419452Y-31341369D01*
X81429808Y-31332113D01*
X81449857Y-31316126D01*
X81449858Y-31316122D01*
X81454597Y-31312344D01*
X81469548Y-31291272D01*
X81857008Y-30903812D01*
X81918327Y-30870330D01*
X81944637Y-30867497D01*
X82548434Y-30867317D01*
X82615479Y-30886982D01*
X82661249Y-30939772D01*
X82672470Y-30991317D01*
X82672470Y-31429899D01*
X82678300Y-31459212D01*
X82678301Y-31459213D01*
X82700513Y-31492457D01*
X82733757Y-31514669D01*
X82763071Y-31520500D01*
X83232868Y-31520499D01*
X83232869Y-31520499D01*
X83261026Y-31514899D01*
X83262183Y-31514669D01*
X83295427Y-31492457D01*
X83317639Y-31459213D01*
X83317639Y-31459211D01*
X83330803Y-31439511D01*
X83384414Y-31394705D01*
X83433906Y-31384400D01*
X85358395Y-31384400D01*
X85383867Y-31388727D01*
X85389888Y-31388048D01*
X85389890Y-31388049D01*
X85415354Y-31385179D01*
X85429238Y-31384400D01*
X85432979Y-31384400D01*
X85432982Y-31384400D01*
X85436639Y-31383565D01*
X85450315Y-31381240D01*
X85475805Y-31378369D01*
X85475807Y-31378367D01*
X85481839Y-31377688D01*
X85491188Y-31373815D01*
X85515971Y-31354051D01*
X85527317Y-31346000D01*
X85530477Y-31344016D01*
X85533123Y-31341369D01*
X85543479Y-31332113D01*
X85563528Y-31316126D01*
X85563529Y-31316122D01*
X85568268Y-31312344D01*
X85583219Y-31291272D01*
X85971903Y-30902588D01*
X86033222Y-30869106D01*
X86059531Y-30866273D01*
X86662107Y-30866093D01*
X86729149Y-30885758D01*
X86774920Y-30938548D01*
X86786141Y-30990093D01*
X86786141Y-31429899D01*
X86791971Y-31459212D01*
X86791972Y-31459213D01*
X86814184Y-31492457D01*
X86847428Y-31514669D01*
X86876742Y-31520500D01*
X87346539Y-31520499D01*
X87346540Y-31520499D01*
X87374697Y-31514899D01*
X87375854Y-31514669D01*
X87409098Y-31492457D01*
X87431310Y-31459213D01*
X87431310Y-31459211D01*
X87444474Y-31439511D01*
X87498085Y-31394705D01*
X87547577Y-31384400D01*
X89472066Y-31384400D01*
X89497538Y-31388727D01*
X89503559Y-31388048D01*
X89503561Y-31388049D01*
X89529025Y-31385179D01*
X89542909Y-31384400D01*
X89546650Y-31384400D01*
X89546653Y-31384400D01*
X89550310Y-31383565D01*
X89563986Y-31381240D01*
X89589476Y-31378369D01*
X89589478Y-31378367D01*
X89595510Y-31377688D01*
X89604859Y-31373815D01*
X89629642Y-31354051D01*
X89640988Y-31346000D01*
X89644148Y-31344016D01*
X89646794Y-31341369D01*
X89657150Y-31332113D01*
X89677199Y-31316126D01*
X89677200Y-31316122D01*
X89681939Y-31312344D01*
X89696890Y-31291272D01*
X90086798Y-30901364D01*
X90148117Y-30867882D01*
X90174426Y-30865049D01*
X90775779Y-30864870D01*
X90842820Y-30884534D01*
X90888591Y-30937324D01*
X90899812Y-30988869D01*
X90899812Y-31429899D01*
X90905642Y-31459212D01*
X90905643Y-31459213D01*
X90927855Y-31492457D01*
X90961099Y-31514669D01*
X90990413Y-31520500D01*
X91460210Y-31520499D01*
X91460211Y-31520499D01*
X91488368Y-31514899D01*
X91489525Y-31514669D01*
X91522769Y-31492457D01*
X91544981Y-31459213D01*
X91544981Y-31459211D01*
X91558145Y-31439511D01*
X91611756Y-31394705D01*
X91661248Y-31384400D01*
X93585737Y-31384400D01*
X93611209Y-31388727D01*
X93617230Y-31388048D01*
X93617232Y-31388049D01*
X93642696Y-31385179D01*
X93656580Y-31384400D01*
X93660321Y-31384400D01*
X93660324Y-31384400D01*
X93663981Y-31383565D01*
X93677657Y-31381240D01*
X93703147Y-31378369D01*
X93703149Y-31378367D01*
X93709181Y-31377688D01*
X93718530Y-31373815D01*
X93743313Y-31354051D01*
X93754659Y-31346000D01*
X93757819Y-31344016D01*
X93760465Y-31341369D01*
X93770821Y-31332113D01*
X93790870Y-31316126D01*
X93790871Y-31316122D01*
X93795610Y-31312344D01*
X93810561Y-31291272D01*
X94201693Y-30900140D01*
X94263012Y-30866658D01*
X94289320Y-30863825D01*
X94889448Y-30863646D01*
X94956492Y-30883311D01*
X95002262Y-30936101D01*
X95013483Y-30987646D01*
X95013483Y-31429899D01*
X95019313Y-31459212D01*
X95019314Y-31459213D01*
X95041526Y-31492457D01*
X95074770Y-31514669D01*
X95104084Y-31520500D01*
X95573881Y-31520499D01*
X95573882Y-31520499D01*
X95602039Y-31514899D01*
X95603196Y-31514669D01*
X95636440Y-31492457D01*
X95658652Y-31459213D01*
X95658652Y-31459211D01*
X95671816Y-31439511D01*
X95725427Y-31394705D01*
X95774919Y-31384400D01*
X97699408Y-31384400D01*
X97724880Y-31388727D01*
X97730901Y-31388048D01*
X97730903Y-31388049D01*
X97756367Y-31385179D01*
X97770251Y-31384400D01*
X97773992Y-31384400D01*
X97773995Y-31384400D01*
X97777652Y-31383565D01*
X97791328Y-31381240D01*
X97816818Y-31378369D01*
X97816820Y-31378367D01*
X97822852Y-31377688D01*
X97832201Y-31373815D01*
X97856984Y-31354051D01*
X97868330Y-31346000D01*
X97871490Y-31344016D01*
X97874136Y-31341369D01*
X97884492Y-31332113D01*
X97904541Y-31316126D01*
X97904542Y-31316122D01*
X97909281Y-31312344D01*
X97924232Y-31291272D01*
X98316588Y-30898916D01*
X98377907Y-30865434D01*
X98404215Y-30862601D01*
X99003121Y-30862423D01*
X99070162Y-30882087D01*
X99115933Y-30934877D01*
X99127154Y-30986422D01*
X99127154Y-31429899D01*
X99132984Y-31459212D01*
X99132985Y-31459213D01*
X99155197Y-31492457D01*
X99188441Y-31514669D01*
X99217755Y-31520500D01*
X99687552Y-31520499D01*
X99687553Y-31520499D01*
X99715710Y-31514899D01*
X99716867Y-31514669D01*
X99750111Y-31492457D01*
X99772323Y-31459213D01*
X99772323Y-31459211D01*
X99785487Y-31439511D01*
X99839098Y-31394705D01*
X99888590Y-31384400D01*
X101813079Y-31384400D01*
X101838551Y-31388727D01*
X101844572Y-31388048D01*
X101844574Y-31388049D01*
X101870038Y-31385179D01*
X101883922Y-31384400D01*
X101887663Y-31384400D01*
X101887666Y-31384400D01*
X101891323Y-31383565D01*
X101904999Y-31381240D01*
X101930489Y-31378369D01*
X101930491Y-31378367D01*
X101936523Y-31377688D01*
X101945872Y-31373815D01*
X101970655Y-31354051D01*
X101982001Y-31346000D01*
X101985161Y-31344016D01*
X101987807Y-31341369D01*
X101998163Y-31332113D01*
X102018212Y-31316126D01*
X102018213Y-31316122D01*
X102022952Y-31312344D01*
X102037903Y-31291272D01*
X102431483Y-30897692D01*
X102492802Y-30864210D01*
X102519109Y-30861377D01*
X103116790Y-30861199D01*
X103183834Y-30880864D01*
X103229604Y-30933654D01*
X103240825Y-30985199D01*
X103240825Y-31429899D01*
X103246655Y-31459212D01*
X103246656Y-31459213D01*
X103268868Y-31492457D01*
X103302112Y-31514669D01*
X103331426Y-31520500D01*
X103801223Y-31520499D01*
X103801224Y-31520499D01*
X103829381Y-31514899D01*
X103830538Y-31514669D01*
X103863782Y-31492457D01*
X103885994Y-31459213D01*
X103885994Y-31459211D01*
X103899158Y-31439511D01*
X103952769Y-31394705D01*
X104002261Y-31384400D01*
X105926754Y-31384400D01*
X105952226Y-31388727D01*
X105958247Y-31388048D01*
X105958249Y-31388049D01*
X105983713Y-31385179D01*
X105997597Y-31384400D01*
X106001338Y-31384400D01*
X106001341Y-31384400D01*
X106004998Y-31383565D01*
X106018674Y-31381240D01*
X106044164Y-31378369D01*
X106044166Y-31378367D01*
X106050198Y-31377688D01*
X106059547Y-31373815D01*
X106084330Y-31354051D01*
X106095676Y-31346000D01*
X106098836Y-31344016D01*
X106101482Y-31341369D01*
X106111838Y-31332113D01*
X106131887Y-31316126D01*
X106131888Y-31316122D01*
X106136627Y-31312344D01*
X106151578Y-31291272D01*
X106546382Y-30896468D01*
X106607701Y-30862986D01*
X106634008Y-30860153D01*
X107111671Y-30860011D01*
X107178716Y-30879676D01*
G37*
G04 #@! TD.AperFunction*
G04 #@! TD*
G04 #@! TA.AperFunction,Conductor*
G04 #@! TO.N,Board_0-GND*
G36*
X110695517Y-29169949D02*
G01*
X110762548Y-29189661D01*
X110808281Y-29242483D01*
X110819465Y-29294481D01*
X110815252Y-30276032D01*
X110795280Y-30342987D01*
X110742280Y-30388514D01*
X110691253Y-30399500D01*
X109530100Y-30399500D01*
X109500787Y-30405330D01*
X109467542Y-30427543D01*
X109445330Y-30460787D01*
X109439500Y-30490098D01*
X109439500Y-30490100D01*
X109439500Y-30490101D01*
X109439500Y-30738269D01*
X109439501Y-30881600D01*
X109419817Y-30948639D01*
X109367013Y-30994394D01*
X109315501Y-31005600D01*
X108115936Y-31005600D01*
X108048897Y-30985915D01*
X108012833Y-30950489D01*
X107977456Y-30897542D01*
X107944212Y-30875330D01*
X107914901Y-30869500D01*
X107445100Y-30869500D01*
X107423278Y-30873841D01*
X107353687Y-30867611D01*
X107329157Y-30854620D01*
X107239910Y-30793665D01*
X107236979Y-30791723D01*
X107208541Y-30778502D01*
X107156049Y-30732390D01*
X107136820Y-30665218D01*
X107146309Y-30633691D01*
X107144858Y-30633403D01*
X107155373Y-30580535D01*
X107155500Y-30579899D01*
X107155499Y-30110102D01*
X107155498Y-30110098D01*
X107149669Y-30080787D01*
X107127456Y-30047542D01*
X107094212Y-30025330D01*
X107064901Y-30019500D01*
X106595100Y-30019500D01*
X106565787Y-30025330D01*
X106532542Y-30047543D01*
X106510330Y-30080787D01*
X106504499Y-30110098D01*
X106504500Y-30351285D01*
X106484815Y-30418324D01*
X106468181Y-30438966D01*
X105937867Y-30969281D01*
X105876544Y-31002766D01*
X105850186Y-31005600D01*
X104002261Y-31005600D01*
X103935222Y-30985915D01*
X103899158Y-30950489D01*
X103863781Y-30897542D01*
X103830537Y-30875330D01*
X103801226Y-30869500D01*
X103370220Y-30869500D01*
X103303181Y-30849815D01*
X103276532Y-30826732D01*
X103270968Y-30820315D01*
X103263545Y-30811753D01*
X103252464Y-30804636D01*
X103213528Y-30779628D01*
X103146483Y-30759963D01*
X103139434Y-30758952D01*
X103075872Y-30729942D01*
X103038084Y-30671172D01*
X103035436Y-30612018D01*
X103035994Y-30609213D01*
X103041825Y-30579899D01*
X103041824Y-30110102D01*
X103041823Y-30110098D01*
X103035994Y-30080787D01*
X103013781Y-30047542D01*
X102980537Y-30025330D01*
X102951226Y-30019500D01*
X102481425Y-30019500D01*
X102452112Y-30025330D01*
X102418867Y-30047543D01*
X102396655Y-30080787D01*
X102390825Y-30110098D01*
X102390825Y-30351285D01*
X102371140Y-30418324D01*
X102354506Y-30438966D01*
X101824192Y-30969281D01*
X101762869Y-31002766D01*
X101736511Y-31005600D01*
X99888590Y-31005600D01*
X99821551Y-30985915D01*
X99785487Y-30950489D01*
X99750110Y-30897542D01*
X99716866Y-30875330D01*
X99687555Y-30869500D01*
X99255488Y-30869500D01*
X99188449Y-30849815D01*
X99161800Y-30826731D01*
X99149873Y-30812975D01*
X99099855Y-30780851D01*
X99032812Y-30761187D01*
X99025529Y-30760142D01*
X98961966Y-30731133D01*
X98924177Y-30672364D01*
X98921528Y-30613207D01*
X98922322Y-30609214D01*
X98922323Y-30609213D01*
X98928154Y-30579899D01*
X98928153Y-30110102D01*
X98928152Y-30110098D01*
X98922323Y-30080787D01*
X98900110Y-30047542D01*
X98866866Y-30025330D01*
X98837555Y-30019500D01*
X98367754Y-30019500D01*
X98338441Y-30025330D01*
X98305196Y-30047543D01*
X98282984Y-30080787D01*
X98277154Y-30110098D01*
X98277154Y-30351285D01*
X98257469Y-30418324D01*
X98240835Y-30438966D01*
X97710521Y-30969281D01*
X97649198Y-31002766D01*
X97622840Y-31005600D01*
X95774919Y-31005600D01*
X95707880Y-30985915D01*
X95671816Y-30950489D01*
X95636439Y-30897542D01*
X95603195Y-30875330D01*
X95573884Y-30869500D01*
X95140756Y-30869500D01*
X95073717Y-30849815D01*
X95047068Y-30826731D01*
X95036203Y-30814200D01*
X94986186Y-30782075D01*
X94931685Y-30766090D01*
X94919142Y-30762411D01*
X94917297Y-30762146D01*
X94911618Y-30761331D01*
X94848056Y-30732320D01*
X94810269Y-30673550D01*
X94807621Y-30614397D01*
X94808858Y-30608172D01*
X94814483Y-30579899D01*
X94814482Y-30110102D01*
X94814481Y-30110098D01*
X94808652Y-30080787D01*
X94786439Y-30047542D01*
X94753195Y-30025330D01*
X94723884Y-30019500D01*
X94254083Y-30019500D01*
X94224770Y-30025330D01*
X94191525Y-30047543D01*
X94169313Y-30080787D01*
X94163482Y-30110098D01*
X94163482Y-30351285D01*
X94143797Y-30418325D01*
X94127163Y-30438966D01*
X93596850Y-30969281D01*
X93535527Y-31002766D01*
X93509169Y-31005600D01*
X91661248Y-31005600D01*
X91594209Y-30985915D01*
X91558145Y-30950489D01*
X91522768Y-30897542D01*
X91489524Y-30875330D01*
X91460213Y-30869500D01*
X91026025Y-30869500D01*
X90958986Y-30849815D01*
X90932338Y-30826733D01*
X90922530Y-30815422D01*
X90872513Y-30783298D01*
X90805471Y-30763634D01*
X90797713Y-30762521D01*
X90734150Y-30733512D01*
X90696361Y-30674743D01*
X90693713Y-30615587D01*
X90694981Y-30609213D01*
X90700812Y-30579899D01*
X90700811Y-30110102D01*
X90700810Y-30110098D01*
X90694981Y-30080787D01*
X90672768Y-30047542D01*
X90639524Y-30025330D01*
X90610213Y-30019500D01*
X90140412Y-30019500D01*
X90111099Y-30025330D01*
X90077854Y-30047543D01*
X90055642Y-30080787D01*
X90049812Y-30110098D01*
X90049812Y-30351285D01*
X90030127Y-30418324D01*
X90013493Y-30438966D01*
X89483179Y-30969281D01*
X89421856Y-31002766D01*
X89395498Y-31005600D01*
X87547577Y-31005600D01*
X87480538Y-30985915D01*
X87444474Y-30950489D01*
X87409097Y-30897542D01*
X87375853Y-30875330D01*
X87346542Y-30869500D01*
X86911292Y-30869500D01*
X86844253Y-30849815D01*
X86817605Y-30826733D01*
X86816132Y-30825035D01*
X86808859Y-30816646D01*
X86758844Y-30784523D01*
X86758843Y-30784522D01*
X86758842Y-30784522D01*
X86727348Y-30775284D01*
X86691802Y-30764858D01*
X86691798Y-30764857D01*
X86691797Y-30764857D01*
X86683805Y-30763710D01*
X86620242Y-30734701D01*
X86582453Y-30675932D01*
X86579805Y-30616775D01*
X86581308Y-30609214D01*
X86581310Y-30609213D01*
X86587141Y-30579899D01*
X86587140Y-30110102D01*
X86587139Y-30110098D01*
X86581310Y-30080787D01*
X86559097Y-30047542D01*
X86525853Y-30025330D01*
X86496542Y-30019500D01*
X86026741Y-30019500D01*
X85997428Y-30025330D01*
X85964183Y-30047543D01*
X85941971Y-30080787D01*
X85936141Y-30110098D01*
X85936141Y-30351285D01*
X85916456Y-30418324D01*
X85899822Y-30438966D01*
X85369508Y-30969281D01*
X85308185Y-31002766D01*
X85281827Y-31005600D01*
X83433906Y-31005600D01*
X83366867Y-30985915D01*
X83330803Y-30950489D01*
X83295426Y-30897542D01*
X83262182Y-30875330D01*
X83232871Y-30869500D01*
X82796561Y-30869500D01*
X82729522Y-30849815D01*
X82702873Y-30826731D01*
X82695190Y-30817870D01*
X82645173Y-30785747D01*
X82578124Y-30766081D01*
X82569900Y-30764901D01*
X82506337Y-30735893D01*
X82468547Y-30677125D01*
X82465898Y-30617968D01*
X82473343Y-30580535D01*
X82473470Y-30579899D01*
X82473469Y-30110102D01*
X82473468Y-30110098D01*
X82467639Y-30080787D01*
X82445426Y-30047542D01*
X82412182Y-30025330D01*
X82382871Y-30019500D01*
X81913070Y-30019500D01*
X81883757Y-30025330D01*
X81850512Y-30047543D01*
X81828300Y-30080787D01*
X81822469Y-30110098D01*
X81822470Y-30351285D01*
X81802785Y-30418324D01*
X81786151Y-30438966D01*
X81255837Y-30969281D01*
X81194514Y-31002766D01*
X81168156Y-31005600D01*
X79320235Y-31005600D01*
X79253196Y-30985915D01*
X79217132Y-30950489D01*
X79181755Y-30897542D01*
X79148511Y-30875330D01*
X79119200Y-30869500D01*
X78681828Y-30869500D01*
X78614789Y-30849815D01*
X78588141Y-30826733D01*
X78588139Y-30826731D01*
X78581517Y-30819093D01*
X78544678Y-30795433D01*
X78531499Y-30786969D01*
X78491114Y-30775124D01*
X78464458Y-30767306D01*
X78464454Y-30767305D01*
X78464453Y-30767305D01*
X78455987Y-30766090D01*
X78392425Y-30737079D01*
X78354638Y-30678309D01*
X78351990Y-30619156D01*
X78353968Y-30609213D01*
X78359799Y-30579899D01*
X78359798Y-30110102D01*
X78359797Y-30110098D01*
X78353968Y-30080787D01*
X78331755Y-30047542D01*
X78298511Y-30025330D01*
X78269200Y-30019500D01*
X77799399Y-30019500D01*
X77770086Y-30025330D01*
X77736841Y-30047543D01*
X77714629Y-30080787D01*
X77708799Y-30110098D01*
X77708799Y-30351285D01*
X77689114Y-30418324D01*
X77672480Y-30438966D01*
X77142166Y-30969281D01*
X77080843Y-31002766D01*
X77054485Y-31005600D01*
X75206564Y-31005600D01*
X75139525Y-30985915D01*
X75103461Y-30950489D01*
X75068084Y-30897542D01*
X75034840Y-30875330D01*
X75005529Y-30869500D01*
X74567096Y-30869500D01*
X74500057Y-30849815D01*
X74473407Y-30826731D01*
X74467844Y-30820315D01*
X74417830Y-30788194D01*
X74350785Y-30768528D01*
X74342080Y-30767279D01*
X74278518Y-30738269D01*
X74240730Y-30679499D01*
X74238082Y-30620344D01*
X74240295Y-30609215D01*
X74240297Y-30609213D01*
X74246128Y-30579899D01*
X74246127Y-30110102D01*
X74246126Y-30110098D01*
X74240297Y-30080787D01*
X74218084Y-30047542D01*
X74184840Y-30025330D01*
X74155529Y-30019500D01*
X73685728Y-30019500D01*
X73656415Y-30025330D01*
X73623170Y-30047543D01*
X73600958Y-30080787D01*
X73592745Y-30122079D01*
X73590440Y-30121620D01*
X73575443Y-30172697D01*
X73558793Y-30193356D01*
X73553506Y-30198641D01*
X73543157Y-30207887D01*
X73518377Y-30227649D01*
X73503423Y-30248723D01*
X73260305Y-30491841D01*
X73198982Y-30525326D01*
X73129290Y-30520342D01*
X73073357Y-30478470D01*
X73069521Y-30473049D01*
X73061328Y-30460787D01*
X73042457Y-30432543D01*
X73034973Y-30427542D01*
X73009212Y-30410330D01*
X72979901Y-30404500D01*
X71760100Y-30404500D01*
X71730787Y-30410330D01*
X71697542Y-30432543D01*
X71675330Y-30465787D01*
X71669500Y-30495098D01*
X71669500Y-30495627D01*
X71668244Y-30501410D01*
X71667117Y-30507079D01*
X71667018Y-30507059D01*
X71658339Y-30547041D01*
X71645811Y-30574536D01*
X71600128Y-30730619D01*
X71562405Y-30789429D01*
X71498874Y-30818510D01*
X71481329Y-30819787D01*
X1674381Y-30936847D01*
X1607309Y-30917275D01*
X1561465Y-30864548D01*
X1552226Y-30835318D01*
X1505623Y-30582406D01*
X1502491Y-30569811D01*
X1494396Y-30544126D01*
X1488662Y-30506854D01*
X1488662Y-30490100D01*
X1482832Y-30460787D01*
X1468252Y-30438966D01*
X1460620Y-30427543D01*
X1453064Y-30422494D01*
X1427375Y-30405330D01*
X1398064Y-30399500D01*
X1398062Y-30399500D01*
X1323567Y-30399500D01*
X1305923Y-30398238D01*
X1279925Y-30394500D01*
X226066Y-30394500D01*
X223530Y-30394766D01*
X155680Y-30378651D01*
X107222Y-30328316D01*
X93163Y-30270967D01*
X93163Y-29249050D01*
X112848Y-29182011D01*
X165652Y-29136256D01*
X217211Y-29125050D01*
X110695517Y-29169949D01*
G37*
G04 #@! TD.AperFunction*
G04 #@! TD*
M02*
