M48
; DRILL file {KiCad 7.0.2-6a45011f42~172~ubuntu22.04.1} date Mon Jul  3 14:39:39 2023
; FORMAT={-:-/ absolute / metric / decimal}
; #@! TF.CreationDate,2023-07-03T14:39:39+08:00
; #@! TF.GenerationSoftware,Kicad,Pcbnew,7.0.2-6a45011f42~172~ubuntu22.04.1
; #@! TF.FileFunction,MixedPlating,1,2
FMAT,2
METRIC
; #@! TA.AperFunction,Plated,PTH,ComponentDrill
T1C0.200
; #@! TA.AperFunction,NonPlated,NPTH,ComponentDrill
T2C1.152
%
G90
G05
T1
X0.783Y-32.325
X0.783Y-36.325
X0.783Y-40.325
X0.788Y-29.675
X0.788Y-31.0
X0.788Y-33.675
X0.788Y-35.0
X0.788Y-37.675
X0.788Y-39.0
X72.37Y-29.68
X72.37Y-31.005
X72.37Y-32.33
X72.37Y-33.68
X72.37Y-35.005
X72.37Y-36.33
X72.37Y-37.68
X72.37Y-39.005
X72.37Y-40.33
X110.14Y-29.675
X110.14Y-31.0
X110.14Y-32.325
X110.14Y-33.675
X110.14Y-35.0
X110.14Y-36.325
X110.14Y-37.675
X110.14Y-39.0
X110.14Y-40.325
T2
X2.5Y-2.5
X2.5Y-67.5
X108.59Y-2.5
T0
M30
