G04 #@! TF.GenerationSoftware,KiCad,Pcbnew,7.0.2-6a45011f42~172~ubuntu22.04.1*
G04 #@! TF.CreationDate,2023-07-03T14:39:39+08:00*
G04 #@! TF.ProjectId,panel_3_1,70616e65-6c5f-4335-9f31-2e6b69636164,rev?*
G04 #@! TF.SameCoordinates,Original*
G04 #@! TF.FileFunction,Legend,Top*
G04 #@! TF.FilePolarity,Positive*
%FSLAX46Y46*%
G04 Gerber Fmt 4.6, Leading zero omitted, Abs format (unit mm)*
G04 Created by KiCad (PCBNEW 7.0.2-6a45011f42~172~ubuntu22.04.1) date 2023-07-03 14:39:39*
%MOMM*%
%LPD*%
G01*
G04 APERTURE LIST*
%ADD10C,0.120000*%
%ADD11C,0.250000*%
%ADD12C,0.100000*%
G04 APERTURE END LIST*
D10*
X70295000Y-29090000D02*
X110975000Y-29090000D01*
X110975000Y-32915000D01*
X70295000Y-32915000D01*
X70295000Y-29090000D01*
X70295000Y-37090000D02*
X110975000Y-37090000D01*
X110975000Y-40915000D01*
X70295000Y-40915000D01*
X70295000Y-37090000D01*
X70295000Y-33090000D02*
X110975000Y-33090000D01*
X110975000Y-36915000D01*
X70295000Y-36915000D01*
X70295000Y-33090000D01*
D11*
X2682924Y-34065476D02*
X2730543Y-33941666D01*
X2730543Y-33941666D02*
X2730543Y-33755952D01*
X2730543Y-33755952D02*
X2682924Y-33570238D01*
X2682924Y-33570238D02*
X2587686Y-33446428D01*
X2587686Y-33446428D02*
X2492448Y-33384523D01*
X2492448Y-33384523D02*
X2301972Y-33322619D01*
X2301972Y-33322619D02*
X2159115Y-33322619D01*
X2159115Y-33322619D02*
X1968639Y-33384523D01*
X1968639Y-33384523D02*
X1873401Y-33446428D01*
X1873401Y-33446428D02*
X1778163Y-33570238D01*
X1778163Y-33570238D02*
X1730543Y-33755952D01*
X1730543Y-33755952D02*
X1730543Y-33879761D01*
X1730543Y-33879761D02*
X1778163Y-34065476D01*
X1778163Y-34065476D02*
X1825782Y-34127380D01*
X1825782Y-34127380D02*
X2159115Y-34127380D01*
X2159115Y-34127380D02*
X2159115Y-33879761D01*
X1730543Y-34684523D02*
X2730543Y-34684523D01*
X2730543Y-34684523D02*
X2730543Y-34994047D01*
X2730543Y-34994047D02*
X2682924Y-35179761D01*
X2682924Y-35179761D02*
X2587686Y-35303571D01*
X2587686Y-35303571D02*
X2492448Y-35365476D01*
X2492448Y-35365476D02*
X2301972Y-35427380D01*
X2301972Y-35427380D02*
X2159115Y-35427380D01*
X2159115Y-35427380D02*
X1968639Y-35365476D01*
X1968639Y-35365476D02*
X1873401Y-35303571D01*
X1873401Y-35303571D02*
X1778163Y-35179761D01*
X1778163Y-35179761D02*
X1730543Y-34994047D01*
X1730543Y-34994047D02*
X1730543Y-34684523D01*
X2730543Y-35798809D02*
X1730543Y-36232142D01*
X1730543Y-36232142D02*
X2730543Y-36665476D01*
X109314761Y-34030476D02*
X109362380Y-33906666D01*
X109362380Y-33906666D02*
X109362380Y-33720952D01*
X109362380Y-33720952D02*
X109314761Y-33535238D01*
X109314761Y-33535238D02*
X109219523Y-33411428D01*
X109219523Y-33411428D02*
X109124285Y-33349523D01*
X109124285Y-33349523D02*
X108933809Y-33287619D01*
X108933809Y-33287619D02*
X108790952Y-33287619D01*
X108790952Y-33287619D02*
X108600476Y-33349523D01*
X108600476Y-33349523D02*
X108505238Y-33411428D01*
X108505238Y-33411428D02*
X108410000Y-33535238D01*
X108410000Y-33535238D02*
X108362380Y-33720952D01*
X108362380Y-33720952D02*
X108362380Y-33844761D01*
X108362380Y-33844761D02*
X108410000Y-34030476D01*
X108410000Y-34030476D02*
X108457619Y-34092380D01*
X108457619Y-34092380D02*
X108790952Y-34092380D01*
X108790952Y-34092380D02*
X108790952Y-33844761D01*
X109362380Y-34897142D02*
X109362380Y-35144761D01*
X109362380Y-35144761D02*
X109314761Y-35268571D01*
X109314761Y-35268571D02*
X109219523Y-35392380D01*
X109219523Y-35392380D02*
X109029047Y-35454285D01*
X109029047Y-35454285D02*
X108695714Y-35454285D01*
X108695714Y-35454285D02*
X108505238Y-35392380D01*
X108505238Y-35392380D02*
X108410000Y-35268571D01*
X108410000Y-35268571D02*
X108362380Y-35144761D01*
X108362380Y-35144761D02*
X108362380Y-34897142D01*
X108362380Y-34897142D02*
X108410000Y-34773333D01*
X108410000Y-34773333D02*
X108505238Y-34649523D01*
X108505238Y-34649523D02*
X108695714Y-34587619D01*
X108695714Y-34587619D02*
X109029047Y-34587619D01*
X109029047Y-34587619D02*
X109219523Y-34649523D01*
X109219523Y-34649523D02*
X109314761Y-34773333D01*
X109314761Y-34773333D02*
X109362380Y-34897142D01*
X109362380Y-35825714D02*
X108362380Y-36259047D01*
X108362380Y-36259047D02*
X109362380Y-36692381D01*
X71464761Y-30090476D02*
X71512380Y-29966666D01*
X71512380Y-29966666D02*
X71512380Y-29780952D01*
X71512380Y-29780952D02*
X71464761Y-29595238D01*
X71464761Y-29595238D02*
X71369523Y-29471428D01*
X71369523Y-29471428D02*
X71274285Y-29409523D01*
X71274285Y-29409523D02*
X71083809Y-29347619D01*
X71083809Y-29347619D02*
X70940952Y-29347619D01*
X70940952Y-29347619D02*
X70750476Y-29409523D01*
X70750476Y-29409523D02*
X70655238Y-29471428D01*
X70655238Y-29471428D02*
X70560000Y-29595238D01*
X70560000Y-29595238D02*
X70512380Y-29780952D01*
X70512380Y-29780952D02*
X70512380Y-29904761D01*
X70512380Y-29904761D02*
X70560000Y-30090476D01*
X70560000Y-30090476D02*
X70607619Y-30152380D01*
X70607619Y-30152380D02*
X70940952Y-30152380D01*
X70940952Y-30152380D02*
X70940952Y-29904761D01*
X70512380Y-30709523D02*
X71512380Y-30709523D01*
X71512380Y-30709523D02*
X71512380Y-31019047D01*
X71512380Y-31019047D02*
X71464761Y-31204761D01*
X71464761Y-31204761D02*
X71369523Y-31328571D01*
X71369523Y-31328571D02*
X71274285Y-31390476D01*
X71274285Y-31390476D02*
X71083809Y-31452380D01*
X71083809Y-31452380D02*
X70940952Y-31452380D01*
X70940952Y-31452380D02*
X70750476Y-31390476D01*
X70750476Y-31390476D02*
X70655238Y-31328571D01*
X70655238Y-31328571D02*
X70560000Y-31204761D01*
X70560000Y-31204761D02*
X70512380Y-31019047D01*
X70512380Y-31019047D02*
X70512380Y-30709523D01*
X71512380Y-31823809D02*
X70512380Y-32257142D01*
X70512380Y-32257142D02*
X71512380Y-32690476D01*
X71464761Y-34090476D02*
X71512380Y-33966666D01*
X71512380Y-33966666D02*
X71512380Y-33780952D01*
X71512380Y-33780952D02*
X71464761Y-33595238D01*
X71464761Y-33595238D02*
X71369523Y-33471428D01*
X71369523Y-33471428D02*
X71274285Y-33409523D01*
X71274285Y-33409523D02*
X71083809Y-33347619D01*
X71083809Y-33347619D02*
X70940952Y-33347619D01*
X70940952Y-33347619D02*
X70750476Y-33409523D01*
X70750476Y-33409523D02*
X70655238Y-33471428D01*
X70655238Y-33471428D02*
X70560000Y-33595238D01*
X70560000Y-33595238D02*
X70512380Y-33780952D01*
X70512380Y-33780952D02*
X70512380Y-33904761D01*
X70512380Y-33904761D02*
X70560000Y-34090476D01*
X70560000Y-34090476D02*
X70607619Y-34152380D01*
X70607619Y-34152380D02*
X70940952Y-34152380D01*
X70940952Y-34152380D02*
X70940952Y-33904761D01*
X70512380Y-34709523D02*
X71512380Y-34709523D01*
X71512380Y-34709523D02*
X71512380Y-35019047D01*
X71512380Y-35019047D02*
X71464761Y-35204761D01*
X71464761Y-35204761D02*
X71369523Y-35328571D01*
X71369523Y-35328571D02*
X71274285Y-35390476D01*
X71274285Y-35390476D02*
X71083809Y-35452380D01*
X71083809Y-35452380D02*
X70940952Y-35452380D01*
X70940952Y-35452380D02*
X70750476Y-35390476D01*
X70750476Y-35390476D02*
X70655238Y-35328571D01*
X70655238Y-35328571D02*
X70560000Y-35204761D01*
X70560000Y-35204761D02*
X70512380Y-35019047D01*
X70512380Y-35019047D02*
X70512380Y-34709523D01*
X71512380Y-35823809D02*
X70512380Y-36257142D01*
X70512380Y-36257142D02*
X71512380Y-36690476D01*
X109314761Y-38030476D02*
X109362380Y-37906666D01*
X109362380Y-37906666D02*
X109362380Y-37720952D01*
X109362380Y-37720952D02*
X109314761Y-37535238D01*
X109314761Y-37535238D02*
X109219523Y-37411428D01*
X109219523Y-37411428D02*
X109124285Y-37349523D01*
X109124285Y-37349523D02*
X108933809Y-37287619D01*
X108933809Y-37287619D02*
X108790952Y-37287619D01*
X108790952Y-37287619D02*
X108600476Y-37349523D01*
X108600476Y-37349523D02*
X108505238Y-37411428D01*
X108505238Y-37411428D02*
X108410000Y-37535238D01*
X108410000Y-37535238D02*
X108362380Y-37720952D01*
X108362380Y-37720952D02*
X108362380Y-37844761D01*
X108362380Y-37844761D02*
X108410000Y-38030476D01*
X108410000Y-38030476D02*
X108457619Y-38092380D01*
X108457619Y-38092380D02*
X108790952Y-38092380D01*
X108790952Y-38092380D02*
X108790952Y-37844761D01*
X109362380Y-38897142D02*
X109362380Y-39144761D01*
X109362380Y-39144761D02*
X109314761Y-39268571D01*
X109314761Y-39268571D02*
X109219523Y-39392380D01*
X109219523Y-39392380D02*
X109029047Y-39454285D01*
X109029047Y-39454285D02*
X108695714Y-39454285D01*
X108695714Y-39454285D02*
X108505238Y-39392380D01*
X108505238Y-39392380D02*
X108410000Y-39268571D01*
X108410000Y-39268571D02*
X108362380Y-39144761D01*
X108362380Y-39144761D02*
X108362380Y-38897142D01*
X108362380Y-38897142D02*
X108410000Y-38773333D01*
X108410000Y-38773333D02*
X108505238Y-38649523D01*
X108505238Y-38649523D02*
X108695714Y-38587619D01*
X108695714Y-38587619D02*
X109029047Y-38587619D01*
X109029047Y-38587619D02*
X109219523Y-38649523D01*
X109219523Y-38649523D02*
X109314761Y-38773333D01*
X109314761Y-38773333D02*
X109362380Y-38897142D01*
X109362380Y-39825714D02*
X108362380Y-40259047D01*
X108362380Y-40259047D02*
X109362380Y-40692381D01*
X2682924Y-38065476D02*
X2730543Y-37941666D01*
X2730543Y-37941666D02*
X2730543Y-37755952D01*
X2730543Y-37755952D02*
X2682924Y-37570238D01*
X2682924Y-37570238D02*
X2587686Y-37446428D01*
X2587686Y-37446428D02*
X2492448Y-37384523D01*
X2492448Y-37384523D02*
X2301972Y-37322619D01*
X2301972Y-37322619D02*
X2159115Y-37322619D01*
X2159115Y-37322619D02*
X1968639Y-37384523D01*
X1968639Y-37384523D02*
X1873401Y-37446428D01*
X1873401Y-37446428D02*
X1778163Y-37570238D01*
X1778163Y-37570238D02*
X1730543Y-37755952D01*
X1730543Y-37755952D02*
X1730543Y-37879761D01*
X1730543Y-37879761D02*
X1778163Y-38065476D01*
X1778163Y-38065476D02*
X1825782Y-38127380D01*
X1825782Y-38127380D02*
X2159115Y-38127380D01*
X2159115Y-38127380D02*
X2159115Y-37879761D01*
X1730543Y-38684523D02*
X2730543Y-38684523D01*
X2730543Y-38684523D02*
X2730543Y-38994047D01*
X2730543Y-38994047D02*
X2682924Y-39179761D01*
X2682924Y-39179761D02*
X2587686Y-39303571D01*
X2587686Y-39303571D02*
X2492448Y-39365476D01*
X2492448Y-39365476D02*
X2301972Y-39427380D01*
X2301972Y-39427380D02*
X2159115Y-39427380D01*
X2159115Y-39427380D02*
X1968639Y-39365476D01*
X1968639Y-39365476D02*
X1873401Y-39303571D01*
X1873401Y-39303571D02*
X1778163Y-39179761D01*
X1778163Y-39179761D02*
X1730543Y-38994047D01*
X1730543Y-38994047D02*
X1730543Y-38684523D01*
X2730543Y-39798809D02*
X1730543Y-40232142D01*
X1730543Y-40232142D02*
X2730543Y-40665476D01*
X109314761Y-30030476D02*
X109362380Y-29906666D01*
X109362380Y-29906666D02*
X109362380Y-29720952D01*
X109362380Y-29720952D02*
X109314761Y-29535238D01*
X109314761Y-29535238D02*
X109219523Y-29411428D01*
X109219523Y-29411428D02*
X109124285Y-29349523D01*
X109124285Y-29349523D02*
X108933809Y-29287619D01*
X108933809Y-29287619D02*
X108790952Y-29287619D01*
X108790952Y-29287619D02*
X108600476Y-29349523D01*
X108600476Y-29349523D02*
X108505238Y-29411428D01*
X108505238Y-29411428D02*
X108410000Y-29535238D01*
X108410000Y-29535238D02*
X108362380Y-29720952D01*
X108362380Y-29720952D02*
X108362380Y-29844761D01*
X108362380Y-29844761D02*
X108410000Y-30030476D01*
X108410000Y-30030476D02*
X108457619Y-30092380D01*
X108457619Y-30092380D02*
X108790952Y-30092380D01*
X108790952Y-30092380D02*
X108790952Y-29844761D01*
X109362380Y-30897142D02*
X109362380Y-31144761D01*
X109362380Y-31144761D02*
X109314761Y-31268571D01*
X109314761Y-31268571D02*
X109219523Y-31392380D01*
X109219523Y-31392380D02*
X109029047Y-31454285D01*
X109029047Y-31454285D02*
X108695714Y-31454285D01*
X108695714Y-31454285D02*
X108505238Y-31392380D01*
X108505238Y-31392380D02*
X108410000Y-31268571D01*
X108410000Y-31268571D02*
X108362380Y-31144761D01*
X108362380Y-31144761D02*
X108362380Y-30897142D01*
X108362380Y-30897142D02*
X108410000Y-30773333D01*
X108410000Y-30773333D02*
X108505238Y-30649523D01*
X108505238Y-30649523D02*
X108695714Y-30587619D01*
X108695714Y-30587619D02*
X109029047Y-30587619D01*
X109029047Y-30587619D02*
X109219523Y-30649523D01*
X109219523Y-30649523D02*
X109314761Y-30773333D01*
X109314761Y-30773333D02*
X109362380Y-30897142D01*
X109362380Y-31825714D02*
X108362380Y-32259047D01*
X108362380Y-32259047D02*
X109362380Y-32692381D01*
X2682924Y-30065476D02*
X2730543Y-29941666D01*
X2730543Y-29941666D02*
X2730543Y-29755952D01*
X2730543Y-29755952D02*
X2682924Y-29570238D01*
X2682924Y-29570238D02*
X2587686Y-29446428D01*
X2587686Y-29446428D02*
X2492448Y-29384523D01*
X2492448Y-29384523D02*
X2301972Y-29322619D01*
X2301972Y-29322619D02*
X2159115Y-29322619D01*
X2159115Y-29322619D02*
X1968639Y-29384523D01*
X1968639Y-29384523D02*
X1873401Y-29446428D01*
X1873401Y-29446428D02*
X1778163Y-29570238D01*
X1778163Y-29570238D02*
X1730543Y-29755952D01*
X1730543Y-29755952D02*
X1730543Y-29879761D01*
X1730543Y-29879761D02*
X1778163Y-30065476D01*
X1778163Y-30065476D02*
X1825782Y-30127380D01*
X1825782Y-30127380D02*
X2159115Y-30127380D01*
X2159115Y-30127380D02*
X2159115Y-29879761D01*
X1730543Y-30684523D02*
X2730543Y-30684523D01*
X2730543Y-30684523D02*
X2730543Y-30994047D01*
X2730543Y-30994047D02*
X2682924Y-31179761D01*
X2682924Y-31179761D02*
X2587686Y-31303571D01*
X2587686Y-31303571D02*
X2492448Y-31365476D01*
X2492448Y-31365476D02*
X2301972Y-31427380D01*
X2301972Y-31427380D02*
X2159115Y-31427380D01*
X2159115Y-31427380D02*
X1968639Y-31365476D01*
X1968639Y-31365476D02*
X1873401Y-31303571D01*
X1873401Y-31303571D02*
X1778163Y-31179761D01*
X1778163Y-31179761D02*
X1730543Y-30994047D01*
X1730543Y-30994047D02*
X1730543Y-30684523D01*
X2730543Y-31798809D02*
X1730543Y-32232142D01*
X1730543Y-32232142D02*
X2730543Y-32665476D01*
X71464761Y-38090476D02*
X71512380Y-37966666D01*
X71512380Y-37966666D02*
X71512380Y-37780952D01*
X71512380Y-37780952D02*
X71464761Y-37595238D01*
X71464761Y-37595238D02*
X71369523Y-37471428D01*
X71369523Y-37471428D02*
X71274285Y-37409523D01*
X71274285Y-37409523D02*
X71083809Y-37347619D01*
X71083809Y-37347619D02*
X70940952Y-37347619D01*
X70940952Y-37347619D02*
X70750476Y-37409523D01*
X70750476Y-37409523D02*
X70655238Y-37471428D01*
X70655238Y-37471428D02*
X70560000Y-37595238D01*
X70560000Y-37595238D02*
X70512380Y-37780952D01*
X70512380Y-37780952D02*
X70512380Y-37904761D01*
X70512380Y-37904761D02*
X70560000Y-38090476D01*
X70560000Y-38090476D02*
X70607619Y-38152380D01*
X70607619Y-38152380D02*
X70940952Y-38152380D01*
X70940952Y-38152380D02*
X70940952Y-37904761D01*
X70512380Y-38709523D02*
X71512380Y-38709523D01*
X71512380Y-38709523D02*
X71512380Y-39019047D01*
X71512380Y-39019047D02*
X71464761Y-39204761D01*
X71464761Y-39204761D02*
X71369523Y-39328571D01*
X71369523Y-39328571D02*
X71274285Y-39390476D01*
X71274285Y-39390476D02*
X71083809Y-39452380D01*
X71083809Y-39452380D02*
X70940952Y-39452380D01*
X70940952Y-39452380D02*
X70750476Y-39390476D01*
X70750476Y-39390476D02*
X70655238Y-39328571D01*
X70655238Y-39328571D02*
X70560000Y-39204761D01*
X70560000Y-39204761D02*
X70512380Y-39019047D01*
X70512380Y-39019047D02*
X70512380Y-38709523D01*
X71512380Y-39823809D02*
X70512380Y-40257142D01*
X70512380Y-40257142D02*
X71512380Y-40690476D01*
D12*
G04 #@! TO.C,U2*
X79309299Y-39620000D02*
X79309299Y-37920000D01*
X79309299Y-37920000D02*
X77609299Y-37920000D01*
X77609299Y-39620000D02*
X79309299Y-39620000D01*
X77609299Y-37920000D02*
X77609299Y-39620000D01*
X79509299Y-39470000D02*
G75*
G03*
X79509299Y-39470000I-50000J0D01*
G01*
D10*
X78559299Y-38370000D02*
X78409299Y-38470000D01*
X78409299Y-38270000D01*
X78559299Y-38370000D01*
G36*
X78559299Y-38370000D02*
G01*
X78409299Y-38470000D01*
X78409299Y-38270000D01*
X78559299Y-38370000D01*
G37*
X77634299Y-39295000D02*
X77184299Y-39295000D01*
X77184299Y-39195000D01*
X77634299Y-39195000D01*
X77634299Y-39295000D01*
G36*
X77634299Y-39295000D02*
G01*
X77184299Y-39295000D01*
X77184299Y-39195000D01*
X77634299Y-39195000D01*
X77634299Y-39295000D01*
G37*
X77459299Y-39470000D02*
X77359299Y-39470000D01*
X77359299Y-39020000D01*
X77459299Y-39020000D01*
X77459299Y-39470000D01*
G36*
X77459299Y-39470000D02*
G01*
X77359299Y-39470000D01*
X77359299Y-39020000D01*
X77459299Y-39020000D01*
X77459299Y-39470000D01*
G37*
X78959299Y-38770000D02*
X78789299Y-38770000D01*
X78789299Y-38640000D01*
X78799299Y-38640000D01*
X78959299Y-38640000D01*
X78959299Y-38770000D01*
G36*
X78959299Y-38770000D02*
G01*
X78789299Y-38770000D01*
X78789299Y-38640000D01*
X78799299Y-38640000D01*
X78959299Y-38640000D01*
X78959299Y-38770000D01*
G37*
D12*
G04 #@! TO.C,U9*
X108105000Y-35620000D02*
X108105000Y-33920000D01*
X108105000Y-33920000D02*
X106405000Y-33920000D01*
X106405000Y-35620000D02*
X108105000Y-35620000D01*
X106405000Y-33920000D02*
X106405000Y-35620000D01*
X108305000Y-35470000D02*
G75*
G03*
X108305000Y-35470000I-50000J0D01*
G01*
D10*
X107355000Y-34370000D02*
X107205000Y-34470000D01*
X107205000Y-34270000D01*
X107355000Y-34370000D01*
G36*
X107355000Y-34370000D02*
G01*
X107205000Y-34470000D01*
X107205000Y-34270000D01*
X107355000Y-34370000D01*
G37*
X106430000Y-35295000D02*
X105980000Y-35295000D01*
X105980000Y-35195000D01*
X106430000Y-35195000D01*
X106430000Y-35295000D01*
G36*
X106430000Y-35295000D02*
G01*
X105980000Y-35295000D01*
X105980000Y-35195000D01*
X106430000Y-35195000D01*
X106430000Y-35295000D01*
G37*
X106255000Y-35470000D02*
X106155000Y-35470000D01*
X106155000Y-35020000D01*
X106255000Y-35020000D01*
X106255000Y-35470000D01*
G36*
X106255000Y-35470000D02*
G01*
X106155000Y-35470000D01*
X106155000Y-35020000D01*
X106255000Y-35020000D01*
X106255000Y-35470000D01*
G37*
X107755000Y-34770000D02*
X107585000Y-34770000D01*
X107585000Y-34640000D01*
X107595000Y-34640000D01*
X107755000Y-34640000D01*
X107755000Y-34770000D01*
G36*
X107755000Y-34770000D02*
G01*
X107585000Y-34770000D01*
X107585000Y-34640000D01*
X107595000Y-34640000D01*
X107755000Y-34640000D01*
X107755000Y-34770000D01*
G37*
D12*
G04 #@! TO.C,U6*
X95763983Y-35620000D02*
X95763983Y-33920000D01*
X95763983Y-33920000D02*
X94063983Y-33920000D01*
X94063983Y-35620000D02*
X95763983Y-35620000D01*
X94063983Y-33920000D02*
X94063983Y-35620000D01*
X95963983Y-35470000D02*
G75*
G03*
X95963983Y-35470000I-50000J0D01*
G01*
D10*
X95013983Y-34370000D02*
X94863983Y-34470000D01*
X94863983Y-34270000D01*
X95013983Y-34370000D01*
G36*
X95013983Y-34370000D02*
G01*
X94863983Y-34470000D01*
X94863983Y-34270000D01*
X95013983Y-34370000D01*
G37*
X94088983Y-35295000D02*
X93638983Y-35295000D01*
X93638983Y-35195000D01*
X94088983Y-35195000D01*
X94088983Y-35295000D01*
G36*
X94088983Y-35295000D02*
G01*
X93638983Y-35295000D01*
X93638983Y-35195000D01*
X94088983Y-35195000D01*
X94088983Y-35295000D01*
G37*
X93913983Y-35470000D02*
X93813983Y-35470000D01*
X93813983Y-35020000D01*
X93913983Y-35020000D01*
X93913983Y-35470000D01*
G36*
X93913983Y-35470000D02*
G01*
X93813983Y-35470000D01*
X93813983Y-35020000D01*
X93913983Y-35020000D01*
X93913983Y-35470000D01*
G37*
X95413983Y-34770000D02*
X95243983Y-34770000D01*
X95243983Y-34640000D01*
X95253983Y-34640000D01*
X95413983Y-34640000D01*
X95413983Y-34770000D01*
G36*
X95413983Y-34770000D02*
G01*
X95243983Y-34770000D01*
X95243983Y-34640000D01*
X95253983Y-34640000D01*
X95413983Y-34640000D01*
X95413983Y-34770000D01*
G37*
D12*
G04 #@! TO.C,U2*
X79309299Y-35620000D02*
X79309299Y-33920000D01*
X79309299Y-33920000D02*
X77609299Y-33920000D01*
X77609299Y-35620000D02*
X79309299Y-35620000D01*
X77609299Y-33920000D02*
X77609299Y-35620000D01*
X79509299Y-35470000D02*
G75*
G03*
X79509299Y-35470000I-50000J0D01*
G01*
D10*
X78559299Y-34370000D02*
X78409299Y-34470000D01*
X78409299Y-34270000D01*
X78559299Y-34370000D01*
G36*
X78559299Y-34370000D02*
G01*
X78409299Y-34470000D01*
X78409299Y-34270000D01*
X78559299Y-34370000D01*
G37*
X77634299Y-35295000D02*
X77184299Y-35295000D01*
X77184299Y-35195000D01*
X77634299Y-35195000D01*
X77634299Y-35295000D01*
G36*
X77634299Y-35295000D02*
G01*
X77184299Y-35295000D01*
X77184299Y-35195000D01*
X77634299Y-35195000D01*
X77634299Y-35295000D01*
G37*
X77459299Y-35470000D02*
X77359299Y-35470000D01*
X77359299Y-35020000D01*
X77459299Y-35020000D01*
X77459299Y-35470000D01*
G36*
X77459299Y-35470000D02*
G01*
X77359299Y-35470000D01*
X77359299Y-35020000D01*
X77459299Y-35020000D01*
X77459299Y-35470000D01*
G37*
X78959299Y-34770000D02*
X78789299Y-34770000D01*
X78789299Y-34640000D01*
X78799299Y-34640000D01*
X78959299Y-34640000D01*
X78959299Y-34770000D01*
G36*
X78959299Y-34770000D02*
G01*
X78789299Y-34770000D01*
X78789299Y-34640000D01*
X78799299Y-34640000D01*
X78959299Y-34640000D01*
X78959299Y-34770000D01*
G37*
D12*
G04 #@! TO.C,U7*
X99877654Y-31620000D02*
X99877654Y-29920000D01*
X99877654Y-29920000D02*
X98177654Y-29920000D01*
X98177654Y-31620000D02*
X99877654Y-31620000D01*
X98177654Y-29920000D02*
X98177654Y-31620000D01*
X100077654Y-31470000D02*
G75*
G03*
X100077654Y-31470000I-50000J0D01*
G01*
D10*
X99127654Y-30370000D02*
X98977654Y-30470000D01*
X98977654Y-30270000D01*
X99127654Y-30370000D01*
G36*
X99127654Y-30370000D02*
G01*
X98977654Y-30470000D01*
X98977654Y-30270000D01*
X99127654Y-30370000D01*
G37*
X98202654Y-31295000D02*
X97752654Y-31295000D01*
X97752654Y-31195000D01*
X98202654Y-31195000D01*
X98202654Y-31295000D01*
G36*
X98202654Y-31295000D02*
G01*
X97752654Y-31295000D01*
X97752654Y-31195000D01*
X98202654Y-31195000D01*
X98202654Y-31295000D01*
G37*
X98027654Y-31470000D02*
X97927654Y-31470000D01*
X97927654Y-31020000D01*
X98027654Y-31020000D01*
X98027654Y-31470000D01*
G36*
X98027654Y-31470000D02*
G01*
X97927654Y-31470000D01*
X97927654Y-31020000D01*
X98027654Y-31020000D01*
X98027654Y-31470000D01*
G37*
X99527654Y-30770000D02*
X99357654Y-30770000D01*
X99357654Y-30640000D01*
X99367654Y-30640000D01*
X99527654Y-30640000D01*
X99527654Y-30770000D01*
G36*
X99527654Y-30770000D02*
G01*
X99357654Y-30770000D01*
X99357654Y-30640000D01*
X99367654Y-30640000D01*
X99527654Y-30640000D01*
X99527654Y-30770000D01*
G37*
D12*
G04 #@! TO.C,U9*
X108105000Y-31620000D02*
X108105000Y-29920000D01*
X108105000Y-29920000D02*
X106405000Y-29920000D01*
X106405000Y-31620000D02*
X108105000Y-31620000D01*
X106405000Y-29920000D02*
X106405000Y-31620000D01*
X108305000Y-31470000D02*
G75*
G03*
X108305000Y-31470000I-50000J0D01*
G01*
D10*
X107355000Y-30370000D02*
X107205000Y-30470000D01*
X107205000Y-30270000D01*
X107355000Y-30370000D01*
G36*
X107355000Y-30370000D02*
G01*
X107205000Y-30470000D01*
X107205000Y-30270000D01*
X107355000Y-30370000D01*
G37*
X106430000Y-31295000D02*
X105980000Y-31295000D01*
X105980000Y-31195000D01*
X106430000Y-31195000D01*
X106430000Y-31295000D01*
G36*
X106430000Y-31295000D02*
G01*
X105980000Y-31295000D01*
X105980000Y-31195000D01*
X106430000Y-31195000D01*
X106430000Y-31295000D01*
G37*
X106255000Y-31470000D02*
X106155000Y-31470000D01*
X106155000Y-31020000D01*
X106255000Y-31020000D01*
X106255000Y-31470000D01*
G36*
X106255000Y-31470000D02*
G01*
X106155000Y-31470000D01*
X106155000Y-31020000D01*
X106255000Y-31020000D01*
X106255000Y-31470000D01*
G37*
X107755000Y-30770000D02*
X107585000Y-30770000D01*
X107585000Y-30640000D01*
X107595000Y-30640000D01*
X107755000Y-30640000D01*
X107755000Y-30770000D01*
G36*
X107755000Y-30770000D02*
G01*
X107585000Y-30770000D01*
X107585000Y-30640000D01*
X107595000Y-30640000D01*
X107755000Y-30640000D01*
X107755000Y-30770000D01*
G37*
D12*
G04 #@! TO.C,U3*
X83422970Y-39620000D02*
X83422970Y-37920000D01*
X83422970Y-37920000D02*
X81722970Y-37920000D01*
X81722970Y-39620000D02*
X83422970Y-39620000D01*
X81722970Y-37920000D02*
X81722970Y-39620000D01*
X83622970Y-39470000D02*
G75*
G03*
X83622970Y-39470000I-50000J0D01*
G01*
D10*
X82672970Y-38370000D02*
X82522970Y-38470000D01*
X82522970Y-38270000D01*
X82672970Y-38370000D01*
G36*
X82672970Y-38370000D02*
G01*
X82522970Y-38470000D01*
X82522970Y-38270000D01*
X82672970Y-38370000D01*
G37*
X81747970Y-39295000D02*
X81297970Y-39295000D01*
X81297970Y-39195000D01*
X81747970Y-39195000D01*
X81747970Y-39295000D01*
G36*
X81747970Y-39295000D02*
G01*
X81297970Y-39295000D01*
X81297970Y-39195000D01*
X81747970Y-39195000D01*
X81747970Y-39295000D01*
G37*
X81572970Y-39470000D02*
X81472970Y-39470000D01*
X81472970Y-39020000D01*
X81572970Y-39020000D01*
X81572970Y-39470000D01*
G36*
X81572970Y-39470000D02*
G01*
X81472970Y-39470000D01*
X81472970Y-39020000D01*
X81572970Y-39020000D01*
X81572970Y-39470000D01*
G37*
X83072970Y-38770000D02*
X82902970Y-38770000D01*
X82902970Y-38640000D01*
X82912970Y-38640000D01*
X83072970Y-38640000D01*
X83072970Y-38770000D01*
G36*
X83072970Y-38770000D02*
G01*
X82902970Y-38770000D01*
X82902970Y-38640000D01*
X82912970Y-38640000D01*
X83072970Y-38640000D01*
X83072970Y-38770000D01*
G37*
D12*
G04 #@! TO.C,U8*
X103991325Y-31620000D02*
X103991325Y-29920000D01*
X103991325Y-29920000D02*
X102291325Y-29920000D01*
X102291325Y-31620000D02*
X103991325Y-31620000D01*
X102291325Y-29920000D02*
X102291325Y-31620000D01*
X104191325Y-31470000D02*
G75*
G03*
X104191325Y-31470000I-50000J0D01*
G01*
D10*
X103241325Y-30370000D02*
X103091325Y-30470000D01*
X103091325Y-30270000D01*
X103241325Y-30370000D01*
G36*
X103241325Y-30370000D02*
G01*
X103091325Y-30470000D01*
X103091325Y-30270000D01*
X103241325Y-30370000D01*
G37*
X102316325Y-31295000D02*
X101866325Y-31295000D01*
X101866325Y-31195000D01*
X102316325Y-31195000D01*
X102316325Y-31295000D01*
G36*
X102316325Y-31295000D02*
G01*
X101866325Y-31295000D01*
X101866325Y-31195000D01*
X102316325Y-31195000D01*
X102316325Y-31295000D01*
G37*
X102141325Y-31470000D02*
X102041325Y-31470000D01*
X102041325Y-31020000D01*
X102141325Y-31020000D01*
X102141325Y-31470000D01*
G36*
X102141325Y-31470000D02*
G01*
X102041325Y-31470000D01*
X102041325Y-31020000D01*
X102141325Y-31020000D01*
X102141325Y-31470000D01*
G37*
X103641325Y-30770000D02*
X103471325Y-30770000D01*
X103471325Y-30640000D01*
X103481325Y-30640000D01*
X103641325Y-30640000D01*
X103641325Y-30770000D01*
G36*
X103641325Y-30770000D02*
G01*
X103471325Y-30770000D01*
X103471325Y-30640000D01*
X103481325Y-30640000D01*
X103641325Y-30640000D01*
X103641325Y-30770000D01*
G37*
D12*
G04 #@! TO.C,U6*
X95763983Y-39620000D02*
X95763983Y-37920000D01*
X95763983Y-37920000D02*
X94063983Y-37920000D01*
X94063983Y-39620000D02*
X95763983Y-39620000D01*
X94063983Y-37920000D02*
X94063983Y-39620000D01*
X95963983Y-39470000D02*
G75*
G03*
X95963983Y-39470000I-50000J0D01*
G01*
D10*
X95013983Y-38370000D02*
X94863983Y-38470000D01*
X94863983Y-38270000D01*
X95013983Y-38370000D01*
G36*
X95013983Y-38370000D02*
G01*
X94863983Y-38470000D01*
X94863983Y-38270000D01*
X95013983Y-38370000D01*
G37*
X94088983Y-39295000D02*
X93638983Y-39295000D01*
X93638983Y-39195000D01*
X94088983Y-39195000D01*
X94088983Y-39295000D01*
G36*
X94088983Y-39295000D02*
G01*
X93638983Y-39295000D01*
X93638983Y-39195000D01*
X94088983Y-39195000D01*
X94088983Y-39295000D01*
G37*
X93913983Y-39470000D02*
X93813983Y-39470000D01*
X93813983Y-39020000D01*
X93913983Y-39020000D01*
X93913983Y-39470000D01*
G36*
X93913983Y-39470000D02*
G01*
X93813983Y-39470000D01*
X93813983Y-39020000D01*
X93913983Y-39020000D01*
X93913983Y-39470000D01*
G37*
X95413983Y-38770000D02*
X95243983Y-38770000D01*
X95243983Y-38640000D01*
X95253983Y-38640000D01*
X95413983Y-38640000D01*
X95413983Y-38770000D01*
G36*
X95413983Y-38770000D02*
G01*
X95243983Y-38770000D01*
X95243983Y-38640000D01*
X95253983Y-38640000D01*
X95413983Y-38640000D01*
X95413983Y-38770000D01*
G37*
D12*
G04 #@! TO.C,U4*
X87536641Y-39620000D02*
X87536641Y-37920000D01*
X87536641Y-37920000D02*
X85836641Y-37920000D01*
X85836641Y-39620000D02*
X87536641Y-39620000D01*
X85836641Y-37920000D02*
X85836641Y-39620000D01*
X87736641Y-39470000D02*
G75*
G03*
X87736641Y-39470000I-50000J0D01*
G01*
D10*
X86786641Y-38370000D02*
X86636641Y-38470000D01*
X86636641Y-38270000D01*
X86786641Y-38370000D01*
G36*
X86786641Y-38370000D02*
G01*
X86636641Y-38470000D01*
X86636641Y-38270000D01*
X86786641Y-38370000D01*
G37*
X85861641Y-39295000D02*
X85411641Y-39295000D01*
X85411641Y-39195000D01*
X85861641Y-39195000D01*
X85861641Y-39295000D01*
G36*
X85861641Y-39295000D02*
G01*
X85411641Y-39295000D01*
X85411641Y-39195000D01*
X85861641Y-39195000D01*
X85861641Y-39295000D01*
G37*
X85686641Y-39470000D02*
X85586641Y-39470000D01*
X85586641Y-39020000D01*
X85686641Y-39020000D01*
X85686641Y-39470000D01*
G36*
X85686641Y-39470000D02*
G01*
X85586641Y-39470000D01*
X85586641Y-39020000D01*
X85686641Y-39020000D01*
X85686641Y-39470000D01*
G37*
X87186641Y-38770000D02*
X87016641Y-38770000D01*
X87016641Y-38640000D01*
X87026641Y-38640000D01*
X87186641Y-38640000D01*
X87186641Y-38770000D01*
G36*
X87186641Y-38770000D02*
G01*
X87016641Y-38770000D01*
X87016641Y-38640000D01*
X87026641Y-38640000D01*
X87186641Y-38640000D01*
X87186641Y-38770000D01*
G37*
D12*
G04 #@! TO.C,U5*
X91650312Y-31620000D02*
X91650312Y-29920000D01*
X91650312Y-29920000D02*
X89950312Y-29920000D01*
X89950312Y-31620000D02*
X91650312Y-31620000D01*
X89950312Y-29920000D02*
X89950312Y-31620000D01*
X91850312Y-31470000D02*
G75*
G03*
X91850312Y-31470000I-50000J0D01*
G01*
D10*
X90900312Y-30370000D02*
X90750312Y-30470000D01*
X90750312Y-30270000D01*
X90900312Y-30370000D01*
G36*
X90900312Y-30370000D02*
G01*
X90750312Y-30470000D01*
X90750312Y-30270000D01*
X90900312Y-30370000D01*
G37*
X89975312Y-31295000D02*
X89525312Y-31295000D01*
X89525312Y-31195000D01*
X89975312Y-31195000D01*
X89975312Y-31295000D01*
G36*
X89975312Y-31295000D02*
G01*
X89525312Y-31295000D01*
X89525312Y-31195000D01*
X89975312Y-31195000D01*
X89975312Y-31295000D01*
G37*
X89800312Y-31470000D02*
X89700312Y-31470000D01*
X89700312Y-31020000D01*
X89800312Y-31020000D01*
X89800312Y-31470000D01*
G36*
X89800312Y-31470000D02*
G01*
X89700312Y-31470000D01*
X89700312Y-31020000D01*
X89800312Y-31020000D01*
X89800312Y-31470000D01*
G37*
X91300312Y-30770000D02*
X91130312Y-30770000D01*
X91130312Y-30640000D01*
X91140312Y-30640000D01*
X91300312Y-30640000D01*
X91300312Y-30770000D01*
G36*
X91300312Y-30770000D02*
G01*
X91130312Y-30770000D01*
X91130312Y-30640000D01*
X91140312Y-30640000D01*
X91300312Y-30640000D01*
X91300312Y-30770000D01*
G37*
D12*
G04 #@! TO.C,U1*
X75195628Y-35620000D02*
X75195628Y-33920000D01*
X75195628Y-33920000D02*
X73495628Y-33920000D01*
X73495628Y-35620000D02*
X75195628Y-35620000D01*
X73495628Y-33920000D02*
X73495628Y-35620000D01*
X75395628Y-35470000D02*
G75*
G03*
X75395628Y-35470000I-50000J0D01*
G01*
D10*
X74445628Y-34370000D02*
X74295628Y-34470000D01*
X74295628Y-34270000D01*
X74445628Y-34370000D01*
G36*
X74445628Y-34370000D02*
G01*
X74295628Y-34470000D01*
X74295628Y-34270000D01*
X74445628Y-34370000D01*
G37*
X73520628Y-35295000D02*
X73070628Y-35295000D01*
X73070628Y-35195000D01*
X73520628Y-35195000D01*
X73520628Y-35295000D01*
G36*
X73520628Y-35295000D02*
G01*
X73070628Y-35295000D01*
X73070628Y-35195000D01*
X73520628Y-35195000D01*
X73520628Y-35295000D01*
G37*
X73345628Y-35470000D02*
X73245628Y-35470000D01*
X73245628Y-35020000D01*
X73345628Y-35020000D01*
X73345628Y-35470000D01*
G36*
X73345628Y-35470000D02*
G01*
X73245628Y-35470000D01*
X73245628Y-35020000D01*
X73345628Y-35020000D01*
X73345628Y-35470000D01*
G37*
X74845628Y-34770000D02*
X74675628Y-34770000D01*
X74675628Y-34640000D01*
X74685628Y-34640000D01*
X74845628Y-34640000D01*
X74845628Y-34770000D01*
G36*
X74845628Y-34770000D02*
G01*
X74675628Y-34770000D01*
X74675628Y-34640000D01*
X74685628Y-34640000D01*
X74845628Y-34640000D01*
X74845628Y-34770000D01*
G37*
D12*
G04 #@! TO.C,U3*
X83422970Y-35620000D02*
X83422970Y-33920000D01*
X83422970Y-33920000D02*
X81722970Y-33920000D01*
X81722970Y-35620000D02*
X83422970Y-35620000D01*
X81722970Y-33920000D02*
X81722970Y-35620000D01*
X83622970Y-35470000D02*
G75*
G03*
X83622970Y-35470000I-50000J0D01*
G01*
D10*
X82672970Y-34370000D02*
X82522970Y-34470000D01*
X82522970Y-34270000D01*
X82672970Y-34370000D01*
G36*
X82672970Y-34370000D02*
G01*
X82522970Y-34470000D01*
X82522970Y-34270000D01*
X82672970Y-34370000D01*
G37*
X81747970Y-35295000D02*
X81297970Y-35295000D01*
X81297970Y-35195000D01*
X81747970Y-35195000D01*
X81747970Y-35295000D01*
G36*
X81747970Y-35295000D02*
G01*
X81297970Y-35295000D01*
X81297970Y-35195000D01*
X81747970Y-35195000D01*
X81747970Y-35295000D01*
G37*
X81572970Y-35470000D02*
X81472970Y-35470000D01*
X81472970Y-35020000D01*
X81572970Y-35020000D01*
X81572970Y-35470000D01*
G36*
X81572970Y-35470000D02*
G01*
X81472970Y-35470000D01*
X81472970Y-35020000D01*
X81572970Y-35020000D01*
X81572970Y-35470000D01*
G37*
X83072970Y-34770000D02*
X82902970Y-34770000D01*
X82902970Y-34640000D01*
X82912970Y-34640000D01*
X83072970Y-34640000D01*
X83072970Y-34770000D01*
G36*
X83072970Y-34770000D02*
G01*
X82902970Y-34770000D01*
X82902970Y-34640000D01*
X82912970Y-34640000D01*
X83072970Y-34640000D01*
X83072970Y-34770000D01*
G37*
D12*
G04 #@! TO.C,U8*
X103991325Y-35620000D02*
X103991325Y-33920000D01*
X103991325Y-33920000D02*
X102291325Y-33920000D01*
X102291325Y-35620000D02*
X103991325Y-35620000D01*
X102291325Y-33920000D02*
X102291325Y-35620000D01*
X104191325Y-35470000D02*
G75*
G03*
X104191325Y-35470000I-50000J0D01*
G01*
D10*
X103241325Y-34370000D02*
X103091325Y-34470000D01*
X103091325Y-34270000D01*
X103241325Y-34370000D01*
G36*
X103241325Y-34370000D02*
G01*
X103091325Y-34470000D01*
X103091325Y-34270000D01*
X103241325Y-34370000D01*
G37*
X102316325Y-35295000D02*
X101866325Y-35295000D01*
X101866325Y-35195000D01*
X102316325Y-35195000D01*
X102316325Y-35295000D01*
G36*
X102316325Y-35295000D02*
G01*
X101866325Y-35295000D01*
X101866325Y-35195000D01*
X102316325Y-35195000D01*
X102316325Y-35295000D01*
G37*
X102141325Y-35470000D02*
X102041325Y-35470000D01*
X102041325Y-35020000D01*
X102141325Y-35020000D01*
X102141325Y-35470000D01*
G36*
X102141325Y-35470000D02*
G01*
X102041325Y-35470000D01*
X102041325Y-35020000D01*
X102141325Y-35020000D01*
X102141325Y-35470000D01*
G37*
X103641325Y-34770000D02*
X103471325Y-34770000D01*
X103471325Y-34640000D01*
X103481325Y-34640000D01*
X103641325Y-34640000D01*
X103641325Y-34770000D01*
G36*
X103641325Y-34770000D02*
G01*
X103471325Y-34770000D01*
X103471325Y-34640000D01*
X103481325Y-34640000D01*
X103641325Y-34640000D01*
X103641325Y-34770000D01*
G37*
D12*
G04 #@! TO.C,U7*
X99877654Y-35620000D02*
X99877654Y-33920000D01*
X99877654Y-33920000D02*
X98177654Y-33920000D01*
X98177654Y-35620000D02*
X99877654Y-35620000D01*
X98177654Y-33920000D02*
X98177654Y-35620000D01*
X100077654Y-35470000D02*
G75*
G03*
X100077654Y-35470000I-50000J0D01*
G01*
D10*
X99127654Y-34370000D02*
X98977654Y-34470000D01*
X98977654Y-34270000D01*
X99127654Y-34370000D01*
G36*
X99127654Y-34370000D02*
G01*
X98977654Y-34470000D01*
X98977654Y-34270000D01*
X99127654Y-34370000D01*
G37*
X98202654Y-35295000D02*
X97752654Y-35295000D01*
X97752654Y-35195000D01*
X98202654Y-35195000D01*
X98202654Y-35295000D01*
G36*
X98202654Y-35295000D02*
G01*
X97752654Y-35295000D01*
X97752654Y-35195000D01*
X98202654Y-35195000D01*
X98202654Y-35295000D01*
G37*
X98027654Y-35470000D02*
X97927654Y-35470000D01*
X97927654Y-35020000D01*
X98027654Y-35020000D01*
X98027654Y-35470000D01*
G36*
X98027654Y-35470000D02*
G01*
X97927654Y-35470000D01*
X97927654Y-35020000D01*
X98027654Y-35020000D01*
X98027654Y-35470000D01*
G37*
X99527654Y-34770000D02*
X99357654Y-34770000D01*
X99357654Y-34640000D01*
X99367654Y-34640000D01*
X99527654Y-34640000D01*
X99527654Y-34770000D01*
G36*
X99527654Y-34770000D02*
G01*
X99357654Y-34770000D01*
X99357654Y-34640000D01*
X99367654Y-34640000D01*
X99527654Y-34640000D01*
X99527654Y-34770000D01*
G37*
D12*
G04 #@! TO.C,U6*
X95763983Y-31620000D02*
X95763983Y-29920000D01*
X95763983Y-29920000D02*
X94063983Y-29920000D01*
X94063983Y-31620000D02*
X95763983Y-31620000D01*
X94063983Y-29920000D02*
X94063983Y-31620000D01*
X95963983Y-31470000D02*
G75*
G03*
X95963983Y-31470000I-50000J0D01*
G01*
D10*
X95013983Y-30370000D02*
X94863983Y-30470000D01*
X94863983Y-30270000D01*
X95013983Y-30370000D01*
G36*
X95013983Y-30370000D02*
G01*
X94863983Y-30470000D01*
X94863983Y-30270000D01*
X95013983Y-30370000D01*
G37*
X94088983Y-31295000D02*
X93638983Y-31295000D01*
X93638983Y-31195000D01*
X94088983Y-31195000D01*
X94088983Y-31295000D01*
G36*
X94088983Y-31295000D02*
G01*
X93638983Y-31295000D01*
X93638983Y-31195000D01*
X94088983Y-31195000D01*
X94088983Y-31295000D01*
G37*
X93913983Y-31470000D02*
X93813983Y-31470000D01*
X93813983Y-31020000D01*
X93913983Y-31020000D01*
X93913983Y-31470000D01*
G36*
X93913983Y-31470000D02*
G01*
X93813983Y-31470000D01*
X93813983Y-31020000D01*
X93913983Y-31020000D01*
X93913983Y-31470000D01*
G37*
X95413983Y-30770000D02*
X95243983Y-30770000D01*
X95243983Y-30640000D01*
X95253983Y-30640000D01*
X95413983Y-30640000D01*
X95413983Y-30770000D01*
G36*
X95413983Y-30770000D02*
G01*
X95243983Y-30770000D01*
X95243983Y-30640000D01*
X95253983Y-30640000D01*
X95413983Y-30640000D01*
X95413983Y-30770000D01*
G37*
D12*
G04 #@! TO.C,U7*
X99877654Y-39620000D02*
X99877654Y-37920000D01*
X99877654Y-37920000D02*
X98177654Y-37920000D01*
X98177654Y-39620000D02*
X99877654Y-39620000D01*
X98177654Y-37920000D02*
X98177654Y-39620000D01*
X100077654Y-39470000D02*
G75*
G03*
X100077654Y-39470000I-50000J0D01*
G01*
D10*
X99127654Y-38370000D02*
X98977654Y-38470000D01*
X98977654Y-38270000D01*
X99127654Y-38370000D01*
G36*
X99127654Y-38370000D02*
G01*
X98977654Y-38470000D01*
X98977654Y-38270000D01*
X99127654Y-38370000D01*
G37*
X98202654Y-39295000D02*
X97752654Y-39295000D01*
X97752654Y-39195000D01*
X98202654Y-39195000D01*
X98202654Y-39295000D01*
G36*
X98202654Y-39295000D02*
G01*
X97752654Y-39295000D01*
X97752654Y-39195000D01*
X98202654Y-39195000D01*
X98202654Y-39295000D01*
G37*
X98027654Y-39470000D02*
X97927654Y-39470000D01*
X97927654Y-39020000D01*
X98027654Y-39020000D01*
X98027654Y-39470000D01*
G36*
X98027654Y-39470000D02*
G01*
X97927654Y-39470000D01*
X97927654Y-39020000D01*
X98027654Y-39020000D01*
X98027654Y-39470000D01*
G37*
X99527654Y-38770000D02*
X99357654Y-38770000D01*
X99357654Y-38640000D01*
X99367654Y-38640000D01*
X99527654Y-38640000D01*
X99527654Y-38770000D01*
G36*
X99527654Y-38770000D02*
G01*
X99357654Y-38770000D01*
X99357654Y-38640000D01*
X99367654Y-38640000D01*
X99527654Y-38640000D01*
X99527654Y-38770000D01*
G37*
D12*
G04 #@! TO.C,U2*
X79309299Y-31620000D02*
X79309299Y-29920000D01*
X79309299Y-29920000D02*
X77609299Y-29920000D01*
X77609299Y-31620000D02*
X79309299Y-31620000D01*
X77609299Y-29920000D02*
X77609299Y-31620000D01*
X79509299Y-31470000D02*
G75*
G03*
X79509299Y-31470000I-50000J0D01*
G01*
D10*
X78559299Y-30370000D02*
X78409299Y-30470000D01*
X78409299Y-30270000D01*
X78559299Y-30370000D01*
G36*
X78559299Y-30370000D02*
G01*
X78409299Y-30470000D01*
X78409299Y-30270000D01*
X78559299Y-30370000D01*
G37*
X77634299Y-31295000D02*
X77184299Y-31295000D01*
X77184299Y-31195000D01*
X77634299Y-31195000D01*
X77634299Y-31295000D01*
G36*
X77634299Y-31295000D02*
G01*
X77184299Y-31295000D01*
X77184299Y-31195000D01*
X77634299Y-31195000D01*
X77634299Y-31295000D01*
G37*
X77459299Y-31470000D02*
X77359299Y-31470000D01*
X77359299Y-31020000D01*
X77459299Y-31020000D01*
X77459299Y-31470000D01*
G36*
X77459299Y-31470000D02*
G01*
X77359299Y-31470000D01*
X77359299Y-31020000D01*
X77459299Y-31020000D01*
X77459299Y-31470000D01*
G37*
X78959299Y-30770000D02*
X78789299Y-30770000D01*
X78789299Y-30640000D01*
X78799299Y-30640000D01*
X78959299Y-30640000D01*
X78959299Y-30770000D01*
G36*
X78959299Y-30770000D02*
G01*
X78789299Y-30770000D01*
X78789299Y-30640000D01*
X78799299Y-30640000D01*
X78959299Y-30640000D01*
X78959299Y-30770000D01*
G37*
D12*
G04 #@! TO.C,U8*
X103991325Y-39620000D02*
X103991325Y-37920000D01*
X103991325Y-37920000D02*
X102291325Y-37920000D01*
X102291325Y-39620000D02*
X103991325Y-39620000D01*
X102291325Y-37920000D02*
X102291325Y-39620000D01*
X104191325Y-39470000D02*
G75*
G03*
X104191325Y-39470000I-50000J0D01*
G01*
D10*
X103241325Y-38370000D02*
X103091325Y-38470000D01*
X103091325Y-38270000D01*
X103241325Y-38370000D01*
G36*
X103241325Y-38370000D02*
G01*
X103091325Y-38470000D01*
X103091325Y-38270000D01*
X103241325Y-38370000D01*
G37*
X102316325Y-39295000D02*
X101866325Y-39295000D01*
X101866325Y-39195000D01*
X102316325Y-39195000D01*
X102316325Y-39295000D01*
G36*
X102316325Y-39295000D02*
G01*
X101866325Y-39295000D01*
X101866325Y-39195000D01*
X102316325Y-39195000D01*
X102316325Y-39295000D01*
G37*
X102141325Y-39470000D02*
X102041325Y-39470000D01*
X102041325Y-39020000D01*
X102141325Y-39020000D01*
X102141325Y-39470000D01*
G36*
X102141325Y-39470000D02*
G01*
X102041325Y-39470000D01*
X102041325Y-39020000D01*
X102141325Y-39020000D01*
X102141325Y-39470000D01*
G37*
X103641325Y-38770000D02*
X103471325Y-38770000D01*
X103471325Y-38640000D01*
X103481325Y-38640000D01*
X103641325Y-38640000D01*
X103641325Y-38770000D01*
G36*
X103641325Y-38770000D02*
G01*
X103471325Y-38770000D01*
X103471325Y-38640000D01*
X103481325Y-38640000D01*
X103641325Y-38640000D01*
X103641325Y-38770000D01*
G37*
D12*
G04 #@! TO.C,U1*
X75195628Y-31620000D02*
X75195628Y-29920000D01*
X75195628Y-29920000D02*
X73495628Y-29920000D01*
X73495628Y-31620000D02*
X75195628Y-31620000D01*
X73495628Y-29920000D02*
X73495628Y-31620000D01*
X75395628Y-31470000D02*
G75*
G03*
X75395628Y-31470000I-50000J0D01*
G01*
D10*
X74445628Y-30370000D02*
X74295628Y-30470000D01*
X74295628Y-30270000D01*
X74445628Y-30370000D01*
G36*
X74445628Y-30370000D02*
G01*
X74295628Y-30470000D01*
X74295628Y-30270000D01*
X74445628Y-30370000D01*
G37*
X73520628Y-31295000D02*
X73070628Y-31295000D01*
X73070628Y-31195000D01*
X73520628Y-31195000D01*
X73520628Y-31295000D01*
G36*
X73520628Y-31295000D02*
G01*
X73070628Y-31295000D01*
X73070628Y-31195000D01*
X73520628Y-31195000D01*
X73520628Y-31295000D01*
G37*
X73345628Y-31470000D02*
X73245628Y-31470000D01*
X73245628Y-31020000D01*
X73345628Y-31020000D01*
X73345628Y-31470000D01*
G36*
X73345628Y-31470000D02*
G01*
X73245628Y-31470000D01*
X73245628Y-31020000D01*
X73345628Y-31020000D01*
X73345628Y-31470000D01*
G37*
X74845628Y-30770000D02*
X74675628Y-30770000D01*
X74675628Y-30640000D01*
X74685628Y-30640000D01*
X74845628Y-30640000D01*
X74845628Y-30770000D01*
G36*
X74845628Y-30770000D02*
G01*
X74675628Y-30770000D01*
X74675628Y-30640000D01*
X74685628Y-30640000D01*
X74845628Y-30640000D01*
X74845628Y-30770000D01*
G37*
D12*
G04 #@! TO.C,U5*
X91650312Y-35620000D02*
X91650312Y-33920000D01*
X91650312Y-33920000D02*
X89950312Y-33920000D01*
X89950312Y-35620000D02*
X91650312Y-35620000D01*
X89950312Y-33920000D02*
X89950312Y-35620000D01*
X91850312Y-35470000D02*
G75*
G03*
X91850312Y-35470000I-50000J0D01*
G01*
D10*
X90900312Y-34370000D02*
X90750312Y-34470000D01*
X90750312Y-34270000D01*
X90900312Y-34370000D01*
G36*
X90900312Y-34370000D02*
G01*
X90750312Y-34470000D01*
X90750312Y-34270000D01*
X90900312Y-34370000D01*
G37*
X89975312Y-35295000D02*
X89525312Y-35295000D01*
X89525312Y-35195000D01*
X89975312Y-35195000D01*
X89975312Y-35295000D01*
G36*
X89975312Y-35295000D02*
G01*
X89525312Y-35295000D01*
X89525312Y-35195000D01*
X89975312Y-35195000D01*
X89975312Y-35295000D01*
G37*
X89800312Y-35470000D02*
X89700312Y-35470000D01*
X89700312Y-35020000D01*
X89800312Y-35020000D01*
X89800312Y-35470000D01*
G36*
X89800312Y-35470000D02*
G01*
X89700312Y-35470000D01*
X89700312Y-35020000D01*
X89800312Y-35020000D01*
X89800312Y-35470000D01*
G37*
X91300312Y-34770000D02*
X91130312Y-34770000D01*
X91130312Y-34640000D01*
X91140312Y-34640000D01*
X91300312Y-34640000D01*
X91300312Y-34770000D01*
G36*
X91300312Y-34770000D02*
G01*
X91130312Y-34770000D01*
X91130312Y-34640000D01*
X91140312Y-34640000D01*
X91300312Y-34640000D01*
X91300312Y-34770000D01*
G37*
D12*
G04 #@! TO.C,U4*
X87536641Y-31620000D02*
X87536641Y-29920000D01*
X87536641Y-29920000D02*
X85836641Y-29920000D01*
X85836641Y-31620000D02*
X87536641Y-31620000D01*
X85836641Y-29920000D02*
X85836641Y-31620000D01*
X87736641Y-31470000D02*
G75*
G03*
X87736641Y-31470000I-50000J0D01*
G01*
D10*
X86786641Y-30370000D02*
X86636641Y-30470000D01*
X86636641Y-30270000D01*
X86786641Y-30370000D01*
G36*
X86786641Y-30370000D02*
G01*
X86636641Y-30470000D01*
X86636641Y-30270000D01*
X86786641Y-30370000D01*
G37*
X85861641Y-31295000D02*
X85411641Y-31295000D01*
X85411641Y-31195000D01*
X85861641Y-31195000D01*
X85861641Y-31295000D01*
G36*
X85861641Y-31295000D02*
G01*
X85411641Y-31295000D01*
X85411641Y-31195000D01*
X85861641Y-31195000D01*
X85861641Y-31295000D01*
G37*
X85686641Y-31470000D02*
X85586641Y-31470000D01*
X85586641Y-31020000D01*
X85686641Y-31020000D01*
X85686641Y-31470000D01*
G36*
X85686641Y-31470000D02*
G01*
X85586641Y-31470000D01*
X85586641Y-31020000D01*
X85686641Y-31020000D01*
X85686641Y-31470000D01*
G37*
X87186641Y-30770000D02*
X87016641Y-30770000D01*
X87016641Y-30640000D01*
X87026641Y-30640000D01*
X87186641Y-30640000D01*
X87186641Y-30770000D01*
G36*
X87186641Y-30770000D02*
G01*
X87016641Y-30770000D01*
X87016641Y-30640000D01*
X87026641Y-30640000D01*
X87186641Y-30640000D01*
X87186641Y-30770000D01*
G37*
D12*
X87536641Y-35620000D02*
X87536641Y-33920000D01*
X87536641Y-33920000D02*
X85836641Y-33920000D01*
X85836641Y-35620000D02*
X87536641Y-35620000D01*
X85836641Y-33920000D02*
X85836641Y-35620000D01*
X87736641Y-35470000D02*
G75*
G03*
X87736641Y-35470000I-50000J0D01*
G01*
D10*
X86786641Y-34370000D02*
X86636641Y-34470000D01*
X86636641Y-34270000D01*
X86786641Y-34370000D01*
G36*
X86786641Y-34370000D02*
G01*
X86636641Y-34470000D01*
X86636641Y-34270000D01*
X86786641Y-34370000D01*
G37*
X85861641Y-35295000D02*
X85411641Y-35295000D01*
X85411641Y-35195000D01*
X85861641Y-35195000D01*
X85861641Y-35295000D01*
G36*
X85861641Y-35295000D02*
G01*
X85411641Y-35295000D01*
X85411641Y-35195000D01*
X85861641Y-35195000D01*
X85861641Y-35295000D01*
G37*
X85686641Y-35470000D02*
X85586641Y-35470000D01*
X85586641Y-35020000D01*
X85686641Y-35020000D01*
X85686641Y-35470000D01*
G36*
X85686641Y-35470000D02*
G01*
X85586641Y-35470000D01*
X85586641Y-35020000D01*
X85686641Y-35020000D01*
X85686641Y-35470000D01*
G37*
X87186641Y-34770000D02*
X87016641Y-34770000D01*
X87016641Y-34640000D01*
X87026641Y-34640000D01*
X87186641Y-34640000D01*
X87186641Y-34770000D01*
G36*
X87186641Y-34770000D02*
G01*
X87016641Y-34770000D01*
X87016641Y-34640000D01*
X87026641Y-34640000D01*
X87186641Y-34640000D01*
X87186641Y-34770000D01*
G37*
D12*
G04 #@! TO.C,U3*
X83422970Y-31620000D02*
X83422970Y-29920000D01*
X83422970Y-29920000D02*
X81722970Y-29920000D01*
X81722970Y-31620000D02*
X83422970Y-31620000D01*
X81722970Y-29920000D02*
X81722970Y-31620000D01*
X83622970Y-31470000D02*
G75*
G03*
X83622970Y-31470000I-50000J0D01*
G01*
D10*
X82672970Y-30370000D02*
X82522970Y-30470000D01*
X82522970Y-30270000D01*
X82672970Y-30370000D01*
G36*
X82672970Y-30370000D02*
G01*
X82522970Y-30470000D01*
X82522970Y-30270000D01*
X82672970Y-30370000D01*
G37*
X81747970Y-31295000D02*
X81297970Y-31295000D01*
X81297970Y-31195000D01*
X81747970Y-31195000D01*
X81747970Y-31295000D01*
G36*
X81747970Y-31295000D02*
G01*
X81297970Y-31295000D01*
X81297970Y-31195000D01*
X81747970Y-31195000D01*
X81747970Y-31295000D01*
G37*
X81572970Y-31470000D02*
X81472970Y-31470000D01*
X81472970Y-31020000D01*
X81572970Y-31020000D01*
X81572970Y-31470000D01*
G36*
X81572970Y-31470000D02*
G01*
X81472970Y-31470000D01*
X81472970Y-31020000D01*
X81572970Y-31020000D01*
X81572970Y-31470000D01*
G37*
X83072970Y-30770000D02*
X82902970Y-30770000D01*
X82902970Y-30640000D01*
X82912970Y-30640000D01*
X83072970Y-30640000D01*
X83072970Y-30770000D01*
G36*
X83072970Y-30770000D02*
G01*
X82902970Y-30770000D01*
X82902970Y-30640000D01*
X82912970Y-30640000D01*
X83072970Y-30640000D01*
X83072970Y-30770000D01*
G37*
D12*
G04 #@! TO.C,U9*
X108105000Y-39620000D02*
X108105000Y-37920000D01*
X108105000Y-37920000D02*
X106405000Y-37920000D01*
X106405000Y-39620000D02*
X108105000Y-39620000D01*
X106405000Y-37920000D02*
X106405000Y-39620000D01*
X108305000Y-39470000D02*
G75*
G03*
X108305000Y-39470000I-50000J0D01*
G01*
D10*
X107355000Y-38370000D02*
X107205000Y-38470000D01*
X107205000Y-38270000D01*
X107355000Y-38370000D01*
G36*
X107355000Y-38370000D02*
G01*
X107205000Y-38470000D01*
X107205000Y-38270000D01*
X107355000Y-38370000D01*
G37*
X106430000Y-39295000D02*
X105980000Y-39295000D01*
X105980000Y-39195000D01*
X106430000Y-39195000D01*
X106430000Y-39295000D01*
G36*
X106430000Y-39295000D02*
G01*
X105980000Y-39295000D01*
X105980000Y-39195000D01*
X106430000Y-39195000D01*
X106430000Y-39295000D01*
G37*
X106255000Y-39470000D02*
X106155000Y-39470000D01*
X106155000Y-39020000D01*
X106255000Y-39020000D01*
X106255000Y-39470000D01*
G36*
X106255000Y-39470000D02*
G01*
X106155000Y-39470000D01*
X106155000Y-39020000D01*
X106255000Y-39020000D01*
X106255000Y-39470000D01*
G37*
X107755000Y-38770000D02*
X107585000Y-38770000D01*
X107585000Y-38640000D01*
X107595000Y-38640000D01*
X107755000Y-38640000D01*
X107755000Y-38770000D01*
G36*
X107755000Y-38770000D02*
G01*
X107585000Y-38770000D01*
X107585000Y-38640000D01*
X107595000Y-38640000D01*
X107755000Y-38640000D01*
X107755000Y-38770000D01*
G37*
D12*
G04 #@! TO.C,U1*
X75195628Y-39620000D02*
X75195628Y-37920000D01*
X75195628Y-37920000D02*
X73495628Y-37920000D01*
X73495628Y-39620000D02*
X75195628Y-39620000D01*
X73495628Y-37920000D02*
X73495628Y-39620000D01*
X75395628Y-39470000D02*
G75*
G03*
X75395628Y-39470000I-50000J0D01*
G01*
D10*
X74445628Y-38370000D02*
X74295628Y-38470000D01*
X74295628Y-38270000D01*
X74445628Y-38370000D01*
G36*
X74445628Y-38370000D02*
G01*
X74295628Y-38470000D01*
X74295628Y-38270000D01*
X74445628Y-38370000D01*
G37*
X73520628Y-39295000D02*
X73070628Y-39295000D01*
X73070628Y-39195000D01*
X73520628Y-39195000D01*
X73520628Y-39295000D01*
G36*
X73520628Y-39295000D02*
G01*
X73070628Y-39295000D01*
X73070628Y-39195000D01*
X73520628Y-39195000D01*
X73520628Y-39295000D01*
G37*
X73345628Y-39470000D02*
X73245628Y-39470000D01*
X73245628Y-39020000D01*
X73345628Y-39020000D01*
X73345628Y-39470000D01*
G36*
X73345628Y-39470000D02*
G01*
X73245628Y-39470000D01*
X73245628Y-39020000D01*
X73345628Y-39020000D01*
X73345628Y-39470000D01*
G37*
X74845628Y-38770000D02*
X74675628Y-38770000D01*
X74675628Y-38640000D01*
X74685628Y-38640000D01*
X74845628Y-38640000D01*
X74845628Y-38770000D01*
G36*
X74845628Y-38770000D02*
G01*
X74675628Y-38770000D01*
X74675628Y-38640000D01*
X74685628Y-38640000D01*
X74845628Y-38640000D01*
X74845628Y-38770000D01*
G37*
D12*
G04 #@! TO.C,U5*
X91650312Y-39620000D02*
X91650312Y-37920000D01*
X91650312Y-37920000D02*
X89950312Y-37920000D01*
X89950312Y-39620000D02*
X91650312Y-39620000D01*
X89950312Y-37920000D02*
X89950312Y-39620000D01*
X91850312Y-39470000D02*
G75*
G03*
X91850312Y-39470000I-50000J0D01*
G01*
D10*
X90900312Y-38370000D02*
X90750312Y-38470000D01*
X90750312Y-38270000D01*
X90900312Y-38370000D01*
G36*
X90900312Y-38370000D02*
G01*
X90750312Y-38470000D01*
X90750312Y-38270000D01*
X90900312Y-38370000D01*
G37*
X89975312Y-39295000D02*
X89525312Y-39295000D01*
X89525312Y-39195000D01*
X89975312Y-39195000D01*
X89975312Y-39295000D01*
G36*
X89975312Y-39295000D02*
G01*
X89525312Y-39295000D01*
X89525312Y-39195000D01*
X89975312Y-39195000D01*
X89975312Y-39295000D01*
G37*
X89800312Y-39470000D02*
X89700312Y-39470000D01*
X89700312Y-39020000D01*
X89800312Y-39020000D01*
X89800312Y-39470000D01*
G36*
X89800312Y-39470000D02*
G01*
X89700312Y-39470000D01*
X89700312Y-39020000D01*
X89800312Y-39020000D01*
X89800312Y-39470000D01*
G37*
X91300312Y-38770000D02*
X91130312Y-38770000D01*
X91130312Y-38640000D01*
X91140312Y-38640000D01*
X91300312Y-38640000D01*
X91300312Y-38770000D01*
G36*
X91300312Y-38770000D02*
G01*
X91130312Y-38770000D01*
X91130312Y-38640000D01*
X91140312Y-38640000D01*
X91300312Y-38640000D01*
X91300312Y-38770000D01*
G37*
G04 #@! TD*
M02*
