%TF.GenerationSoftware,KiCad,Pcbnew,7.0.2-6a45011f42~172~ubuntu22.04.1*%
%TF.CreationDate,2023-06-03T20:54:13+08:00*%
%TF.ProjectId,fly2040_min,666c7932-3034-4305-9f6d-696e2e6b6963,rev?*%
%TF.SameCoordinates,PX45b6ae0PY2f1c8c0*%
%TF.FileFunction,Legend,Top*%
%TF.FilePolarity,Positive*%
%FSLAX46Y46*%
G04 Gerber Fmt 4.6, Leading zero omitted, Abs format (unit mm)*
G04 Created by KiCad (PCBNEW 7.0.2-6a45011f42~172~ubuntu22.04.1) date 2023-06-03 20:54:13*
%MOMM*%
%LPD*%
G01*
G04 APERTURE LIST*
G04 Aperture macros list*
%AMRoundRect*
0 Rectangle with rounded corners*
0 $1 Rounding radius*
0 $2 $3 $4 $5 $6 $7 $8 $9 X,Y pos of 4 corners*
0 Add a 4 corners polygon primitive as box body*
4,1,4,$2,$3,$4,$5,$6,$7,$8,$9,$2,$3,0*
0 Add four circle primitives for the rounded corners*
1,1,$1+$1,$2,$3*
1,1,$1+$1,$4,$5*
1,1,$1+$1,$6,$7*
1,1,$1+$1,$8,$9*
0 Add four rect primitives between the rounded corners*
20,1,$1+$1,$2,$3,$4,$5,0*
20,1,$1+$1,$4,$5,$6,$7,0*
20,1,$1+$1,$6,$7,$8,$9,0*
20,1,$1+$1,$8,$9,$2,$3,0*%
%AMFreePoly0*
4,1,6,1.000000,0.000000,0.500000,-0.750000,-0.500000,-0.750000,-0.500000,0.750000,0.500000,0.750000,1.000000,0.000000,1.000000,0.000000,$1*%
%AMFreePoly1*
4,1,6,0.500000,-0.750000,-0.650000,-0.750000,-0.150000,0.000000,-0.650000,0.750000,0.500000,0.750000,0.500000,-0.750000,0.500000,-0.750000,$1*%
G04 Aperture macros list end*
%ADD10C,0.120000*%
%ADD11C,0.254000*%
%ADD12C,0.152000*%
%ADD13C,0.200000*%
%ADD14C,0.100000*%
%ADD15RoundRect,0.135000X-0.135000X-0.185000X0.135000X-0.185000X0.135000X0.185000X-0.135000X0.185000X0*%
%ADD16RoundRect,0.135000X-0.185000X0.135000X-0.185000X-0.135000X0.185000X-0.135000X0.185000X0.135000X0*%
%ADD17RoundRect,0.135000X0.185000X-0.135000X0.185000X0.135000X-0.185000X0.135000X-0.185000X-0.135000X0*%
%ADD18RoundRect,0.140000X-0.170000X0.140000X-0.170000X-0.140000X0.170000X-0.140000X0.170000X0.140000X0*%
%ADD19RoundRect,0.140000X-0.140000X-0.170000X0.140000X-0.170000X0.140000X0.170000X-0.140000X0.170000X0*%
%ADD20RoundRect,0.140000X0.140000X0.170000X-0.140000X0.170000X-0.140000X-0.170000X0.140000X-0.170000X0*%
%ADD21R,1.200000X1.200000*%
%ADD22R,0.200000X1.100000*%
%ADD23R,1.100000X0.200000*%
%ADD24R,3.100000X3.100000*%
%ADD25R,0.280000X0.600000*%
%ADD26R,1.700000X0.300000*%
%ADD27O,1.000000X1.000000*%
%ADD28R,1.000000X1.524000*%
%ADD29R,1.200000X1.400000*%
%ADD30R,0.450000X0.450000*%
%ADD31FreePoly0,0.000000*%
%ADD32FreePoly1,0.000000*%
G04 APERTURE END LIST*
D10*
%TO.C,R12*%
X6276359Y-660000D02*
X6583641Y-660000D01*
X6276359Y-1420000D02*
X6583641Y-1420000D01*
%TO.C,R11*%
X13190000Y-11626359D02*
X13190000Y-11933641D01*
X12430000Y-11626359D02*
X12430000Y-11933641D01*
%TO.C,R10*%
X11910000Y-11626359D02*
X11910000Y-11933641D01*
X11150000Y-11626359D02*
X11150000Y-11933641D01*
%TO.C,R9*%
X10630000Y-11626359D02*
X10630000Y-11933641D01*
X9870000Y-11626359D02*
X9870000Y-11933641D01*
%TO.C,R6*%
X17400000Y-3608641D02*
X17400000Y-3301359D01*
X18160000Y-3608641D02*
X18160000Y-3301359D01*
%TO.C,R5*%
X18160000Y-1316359D02*
X18160000Y-1623641D01*
X17400000Y-1316359D02*
X17400000Y-1623641D01*
%TO.C,R3*%
X9105000Y-11026359D02*
X9105000Y-11333641D01*
X8345000Y-11026359D02*
X8345000Y-11333641D01*
%TO.C,R2*%
X4130000Y-9913641D02*
X4130000Y-9606359D01*
X4890000Y-9913641D02*
X4890000Y-9606359D01*
%TO.C,R1*%
X4100000Y-6653641D02*
X4100000Y-6346359D01*
X4860000Y-6653641D02*
X4860000Y-6346359D01*
%TO.C,C14*%
X17420000Y-5312164D02*
X17420000Y-5527836D01*
X18140000Y-5312164D02*
X18140000Y-5527836D01*
%TO.C,C13*%
X1860000Y-9557164D02*
X1860000Y-9772836D01*
X2580000Y-9557164D02*
X2580000Y-9772836D01*
%TO.C,C12*%
X10207164Y-1385000D02*
X10422836Y-1385000D01*
X10207164Y-665000D02*
X10422836Y-665000D01*
%TO.C,C11*%
X12972164Y-1380000D02*
X13187836Y-1380000D01*
X12972164Y-660000D02*
X13187836Y-660000D01*
%TO.C,C10*%
X15872164Y-7760000D02*
X16087836Y-7760000D01*
X15872164Y-7040000D02*
X16087836Y-7040000D01*
%TO.C,C9*%
X14297164Y-11595000D02*
X14512836Y-11595000D01*
X14297164Y-10875000D02*
X14512836Y-10875000D01*
%TO.C,C8*%
X14302164Y-12680000D02*
X14517836Y-12680000D01*
X14302164Y-11960000D02*
X14517836Y-11960000D01*
%TO.C,C7*%
X7337836Y-10310000D02*
X7122164Y-10310000D01*
X7337836Y-11030000D02*
X7122164Y-11030000D01*
%TO.C,C6*%
X14512836Y-9807500D02*
X14297164Y-9807500D01*
X14512836Y-10527500D02*
X14297164Y-10527500D01*
%TO.C,C5*%
X14297164Y-9460000D02*
X14512836Y-9460000D01*
X14297164Y-8740000D02*
X14512836Y-8740000D01*
%TO.C,C4*%
X2990000Y-9552164D02*
X2990000Y-9767836D01*
X3710000Y-9552164D02*
X3710000Y-9767836D01*
%TO.C,C3*%
X2202164Y-3420000D02*
X2417836Y-3420000D01*
X2202164Y-2700000D02*
X2417836Y-2700000D01*
%TO.C,C2*%
X15872164Y-6700000D02*
X16087836Y-6700000D01*
X15872164Y-5980000D02*
X16087836Y-5980000D01*
%TO.C,C1*%
X2182164Y-8490000D02*
X2397836Y-8490000D01*
X2182164Y-7770000D02*
X2397836Y-7770000D01*
D11*
%TO.C,U1*%
X12685000Y-2415000D02*
X12685000Y-2984000D01*
X12116000Y-2415000D02*
X12685000Y-2415000D01*
X12116000Y-2415000D02*
X12685000Y-2984000D01*
X5685000Y-2415000D02*
X6254000Y-2415000D01*
X5685000Y-2515000D02*
X5685000Y-2415000D01*
X12685000Y-2674000D02*
X12588000Y-2674000D01*
X12588000Y-2674000D02*
X12329000Y-2415000D01*
X5685000Y-2984000D02*
X5685000Y-2515000D01*
X12685000Y-8846000D02*
X12685000Y-9415000D01*
X12685000Y-9415000D02*
X12116000Y-9415000D01*
X6254000Y-9415000D02*
X5685000Y-9415000D01*
X5685000Y-9415000D02*
X5685000Y-8846000D01*
X13012000Y-1915000D02*
G75*
G03*
X13012000Y-1915000I-127000J0D01*
G01*
D12*
%TO.C,U2*%
X16981000Y-4978500D02*
X16981000Y-1826500D01*
X14829000Y-1826500D02*
X14829000Y-4978500D01*
D13*
X16767000Y-1370500D02*
G75*
G03*
X16767000Y-1370500I-100000J0D01*
G01*
D11*
%TO.C,SW1*%
X1266000Y-10844000D02*
X4314000Y-10844000D01*
X1266000Y-12876000D02*
X4314000Y-12876000D01*
X3298491Y-12114252D02*
G75*
G03*
X3191999Y-12261999I-508491J254252D01*
G01*
D12*
%TO.C,X1*%
X3674000Y-7879000D02*
X4182000Y-7879000D01*
X4182000Y-7879000D02*
X4182000Y-7371000D01*
X626000Y-7622000D02*
X626000Y-3561000D01*
X3956000Y-7622000D02*
X626000Y-7622000D01*
X626000Y-3561000D02*
X2277000Y-3561000D01*
X2277000Y-3561000D02*
X3928000Y-3561000D01*
X3928000Y-3561000D02*
X3956000Y-7622000D01*
X3928000Y-3561000D02*
X3928000Y-3561000D01*
D14*
%TO.C,U5*%
X645000Y-13260000D02*
X645000Y-14960000D01*
X645000Y-14960000D02*
X2345000Y-14960000D01*
X2345000Y-13260000D02*
X645000Y-13260000D01*
X2345000Y-14960000D02*
X2345000Y-13260000D01*
X545000Y-13410000D02*
G75*
G03*
X545000Y-13410000I-50000J0D01*
G01*
D10*
X1545000Y-14610000D02*
X1395000Y-14510000D01*
X1545000Y-14410000D01*
X1545000Y-14610000D01*
G36*
X1545000Y-14610000D02*
G01*
X1395000Y-14510000D01*
X1545000Y-14410000D01*
X1545000Y-14610000D01*
G37*
X2770000Y-13685000D02*
X2320000Y-13685000D01*
X2320000Y-13585000D01*
X2770000Y-13585000D01*
X2770000Y-13685000D01*
G36*
X2770000Y-13685000D02*
G01*
X2320000Y-13685000D01*
X2320000Y-13585000D01*
X2770000Y-13585000D01*
X2770000Y-13685000D01*
G37*
X2595000Y-13860000D02*
X2495000Y-13860000D01*
X2495000Y-13410000D01*
X2595000Y-13410000D01*
X2595000Y-13860000D01*
G36*
X2595000Y-13860000D02*
G01*
X2495000Y-13860000D01*
X2495000Y-13410000D01*
X2595000Y-13410000D01*
X2595000Y-13860000D01*
G37*
X1165000Y-14240000D02*
X1155000Y-14240000D01*
X995000Y-14240000D01*
X995000Y-14110000D01*
X1165000Y-14110000D01*
X1165000Y-14240000D01*
G36*
X1165000Y-14240000D02*
G01*
X1155000Y-14240000D01*
X995000Y-14240000D01*
X995000Y-14110000D01*
X1165000Y-14110000D01*
X1165000Y-14240000D01*
G37*
%TO.C,JP1*%
X2460000Y-570000D02*
X5260000Y-570000D01*
X2460000Y-2570000D02*
X2460000Y-570000D01*
X5260000Y-570000D02*
X5260000Y-2570000D01*
X5260000Y-2570000D02*
X2460000Y-2570000D01*
%TD*%
%LPC*%
D15*
%TO.C,R12*%
X5920000Y-1040000D03*
X6940000Y-1040000D03*
%TD*%
D16*
%TO.C,R11*%
X12810000Y-11270000D03*
X12810000Y-12290000D03*
%TD*%
%TO.C,R10*%
X11530000Y-11270000D03*
X11530000Y-12290000D03*
%TD*%
%TO.C,R9*%
X10250000Y-11270000D03*
X10250000Y-12290000D03*
%TD*%
D17*
%TO.C,R6*%
X17780000Y-3965000D03*
X17780000Y-2945000D03*
%TD*%
D16*
%TO.C,R5*%
X17780000Y-960000D03*
X17780000Y-1980000D03*
%TD*%
%TO.C,R3*%
X8725000Y-10670000D03*
X8725000Y-11690000D03*
%TD*%
D17*
%TO.C,R2*%
X4510000Y-10270000D03*
X4510000Y-9250000D03*
%TD*%
%TO.C,R1*%
X4480000Y-7010000D03*
X4480000Y-5990000D03*
%TD*%
D18*
%TO.C,C14*%
X17780000Y-4940000D03*
X17780000Y-5900000D03*
%TD*%
%TO.C,C13*%
X2220000Y-9185000D03*
X2220000Y-10145000D03*
%TD*%
D19*
%TO.C,C12*%
X9835000Y-1025000D03*
X10795000Y-1025000D03*
%TD*%
%TO.C,C11*%
X12600000Y-1020000D03*
X13560000Y-1020000D03*
%TD*%
%TO.C,C10*%
X15500000Y-7400000D03*
X16460000Y-7400000D03*
%TD*%
%TO.C,C9*%
X13925000Y-11235000D03*
X14885000Y-11235000D03*
%TD*%
%TO.C,C8*%
X13930000Y-12320000D03*
X14890000Y-12320000D03*
%TD*%
D20*
%TO.C,C7*%
X7710000Y-10670000D03*
X6750000Y-10670000D03*
%TD*%
%TO.C,C6*%
X14885000Y-10167500D03*
X13925000Y-10167500D03*
%TD*%
D19*
%TO.C,C5*%
X13925000Y-9100000D03*
X14885000Y-9100000D03*
%TD*%
D18*
%TO.C,C4*%
X3350000Y-9180000D03*
X3350000Y-10140000D03*
%TD*%
D19*
%TO.C,C3*%
X1830000Y-3060000D03*
X2790000Y-3060000D03*
%TD*%
%TO.C,C2*%
X15500000Y-6340000D03*
X16460000Y-6340000D03*
%TD*%
%TO.C,C1*%
X1810000Y-8130000D03*
X2770000Y-8130000D03*
%TD*%
D21*
%TO.C,J7*%
X3687500Y-14150000D03*
%TD*%
D22*
%TO.C,U1*%
X11785000Y-2365000D03*
X11385000Y-2365000D03*
X10985000Y-2365000D03*
X10585000Y-2365000D03*
X10185000Y-2365000D03*
X9785000Y-2365000D03*
X9385000Y-2365000D03*
X8985000Y-2365000D03*
X8585000Y-2365000D03*
X8185000Y-2365000D03*
X7785000Y-2365000D03*
X7385000Y-2365000D03*
X6985000Y-2365000D03*
X6585000Y-2365000D03*
D23*
X5635000Y-3315000D03*
X5635000Y-3715000D03*
X5635000Y-4115000D03*
X5635000Y-4515000D03*
X5635000Y-4915000D03*
X5635000Y-5315000D03*
X5635000Y-5715000D03*
X5635000Y-6115000D03*
X5635000Y-6515000D03*
X5635000Y-6915000D03*
X5635000Y-7315000D03*
X5635000Y-7715000D03*
X5635000Y-8115000D03*
X5635000Y-8515000D03*
D22*
X6585000Y-9465000D03*
X6985000Y-9465000D03*
X7385000Y-9465000D03*
X7785000Y-9465000D03*
X8185000Y-9465000D03*
X8585000Y-9465000D03*
X8985000Y-9465000D03*
X9385000Y-9465000D03*
X9785000Y-9465000D03*
X10185000Y-9465000D03*
X10585000Y-9465000D03*
X10985000Y-9465000D03*
X11385000Y-9465000D03*
X11785000Y-9465000D03*
D23*
X12735000Y-8515000D03*
X12735000Y-8115000D03*
X12735000Y-7715000D03*
X12735000Y-7315000D03*
X12735000Y-6915000D03*
X12735000Y-6515000D03*
X12735000Y-6115000D03*
X12735000Y-5715000D03*
X12735000Y-5315000D03*
X12735000Y-4915000D03*
X12735000Y-4515000D03*
X12735000Y-4115000D03*
X12735000Y-3715000D03*
X12735000Y-3315000D03*
D24*
X9185000Y-5915000D03*
%TD*%
D25*
%TO.C,U2*%
X16655000Y-1895500D03*
X16155000Y-1895500D03*
X15655000Y-1895500D03*
X15155000Y-1895500D03*
X15155000Y-4909500D03*
X15655000Y-4909500D03*
X16155000Y-4909500D03*
X16655000Y-4909500D03*
D26*
X15905000Y-3402500D03*
%TD*%
D27*
%TO.C,J8*%
X17644248Y-7218121D03*
X17644248Y-8488121D03*
X17644248Y-9758121D03*
X17644248Y-11028121D03*
X17644248Y-12298121D03*
X17644248Y-13568121D03*
%TD*%
D21*
%TO.C,J1*%
X1410000Y-1320000D03*
%TD*%
%TO.C,J4*%
X11825000Y-14150000D03*
%TD*%
%TO.C,J2*%
X8570000Y-14150000D03*
%TD*%
%TO.C,J6*%
X5320000Y-14150000D03*
%TD*%
%TO.C,J5*%
X13452500Y-14150000D03*
%TD*%
%TO.C,J9*%
X6942500Y-14150000D03*
%TD*%
%TO.C,J3*%
X10197500Y-14150000D03*
%TD*%
%TO.C,J10*%
X15080000Y-14150000D03*
%TD*%
D28*
%TO.C,SW1*%
X1190000Y-11860000D03*
X4390000Y-11860000D03*
%TD*%
D29*
%TO.C,X1*%
X3152000Y-6693000D03*
X3152000Y-4493000D03*
X1402000Y-4493000D03*
X1402000Y-6693000D03*
%TD*%
D30*
%TO.C,U5*%
X1070000Y-13685000D03*
X1920000Y-13685000D03*
X1070000Y-14535000D03*
X1920000Y-14535000D03*
%TD*%
D31*
%TO.C,JP1*%
X3135000Y-1570000D03*
D32*
X4585000Y-1570000D03*
%TD*%
%LPD*%
M02*
