%TF.GenerationSoftware,KiCad,Pcbnew,7.0.2-6a45011f42~172~ubuntu22.04.1*%
%TF.CreationDate,2023-06-03T20:54:13+08:00*%
%TF.ProjectId,fly2040_min,666c7932-3034-4305-9f6d-696e2e6b6963,rev?*%
%TF.SameCoordinates,PX45b6ae0PY2f1c8c0*%
%TF.FileFunction,Soldermask,Top*%
%TF.FilePolarity,Negative*%
%FSLAX46Y46*%
G04 Gerber Fmt 4.6, Leading zero omitted, Abs format (unit mm)*
G04 Created by KiCad (PCBNEW 7.0.2-6a45011f42~172~ubuntu22.04.1) date 2023-06-03 20:54:13*
%MOMM*%
%LPD*%
G01*
G04 APERTURE LIST*
G04 Aperture macros list*
%AMRoundRect*
0 Rectangle with rounded corners*
0 $1 Rounding radius*
0 $2 $3 $4 $5 $6 $7 $8 $9 X,Y pos of 4 corners*
0 Add a 4 corners polygon primitive as box body*
4,1,4,$2,$3,$4,$5,$6,$7,$8,$9,$2,$3,0*
0 Add four circle primitives for the rounded corners*
1,1,$1+$1,$2,$3*
1,1,$1+$1,$4,$5*
1,1,$1+$1,$6,$7*
1,1,$1+$1,$8,$9*
0 Add four rect primitives between the rounded corners*
20,1,$1+$1,$2,$3,$4,$5,0*
20,1,$1+$1,$4,$5,$6,$7,0*
20,1,$1+$1,$6,$7,$8,$9,0*
20,1,$1+$1,$8,$9,$2,$3,0*%
%AMFreePoly0*
4,1,6,1.000000,0.000000,0.500000,-0.750000,-0.500000,-0.750000,-0.500000,0.750000,0.500000,0.750000,1.000000,0.000000,1.000000,0.000000,$1*%
%AMFreePoly1*
4,1,6,0.500000,-0.750000,-0.650000,-0.750000,-0.150000,0.000000,-0.650000,0.750000,0.500000,0.750000,0.500000,-0.750000,0.500000,-0.750000,$1*%
G04 Aperture macros list end*
%ADD10RoundRect,0.135000X-0.135000X-0.185000X0.135000X-0.185000X0.135000X0.185000X-0.135000X0.185000X0*%
%ADD11RoundRect,0.135000X-0.185000X0.135000X-0.185000X-0.135000X0.185000X-0.135000X0.185000X0.135000X0*%
%ADD12RoundRect,0.135000X0.185000X-0.135000X0.185000X0.135000X-0.185000X0.135000X-0.185000X-0.135000X0*%
%ADD13RoundRect,0.140000X-0.170000X0.140000X-0.170000X-0.140000X0.170000X-0.140000X0.170000X0.140000X0*%
%ADD14RoundRect,0.140000X-0.140000X-0.170000X0.140000X-0.170000X0.140000X0.170000X-0.140000X0.170000X0*%
%ADD15RoundRect,0.140000X0.140000X0.170000X-0.140000X0.170000X-0.140000X-0.170000X0.140000X-0.170000X0*%
%ADD16R,1.200000X1.200000*%
%ADD17R,0.200000X1.100000*%
%ADD18R,1.100000X0.200000*%
%ADD19R,3.100000X3.100000*%
%ADD20R,0.280000X0.600000*%
%ADD21R,1.700000X0.300000*%
%ADD22O,1.000000X1.000000*%
%ADD23R,1.000000X1.524000*%
%ADD24R,1.200000X1.400000*%
%ADD25R,0.450000X0.450000*%
%ADD26FreePoly0,0.000000*%
%ADD27FreePoly1,0.000000*%
G04 APERTURE END LIST*
D10*
%TO.C,R12*%
X5920000Y-1040000D03*
X6940000Y-1040000D03*
%TD*%
D11*
%TO.C,R11*%
X12810000Y-11270000D03*
X12810000Y-12290000D03*
%TD*%
%TO.C,R10*%
X11530000Y-11270000D03*
X11530000Y-12290000D03*
%TD*%
%TO.C,R9*%
X10250000Y-11270000D03*
X10250000Y-12290000D03*
%TD*%
D12*
%TO.C,R6*%
X17780000Y-3965000D03*
X17780000Y-2945000D03*
%TD*%
D11*
%TO.C,R5*%
X17780000Y-960000D03*
X17780000Y-1980000D03*
%TD*%
%TO.C,R3*%
X8725000Y-10670000D03*
X8725000Y-11690000D03*
%TD*%
D12*
%TO.C,R2*%
X4510000Y-10270000D03*
X4510000Y-9250000D03*
%TD*%
%TO.C,R1*%
X4480000Y-7010000D03*
X4480000Y-5990000D03*
%TD*%
D13*
%TO.C,C14*%
X17780000Y-4940000D03*
X17780000Y-5900000D03*
%TD*%
%TO.C,C13*%
X2220000Y-9185000D03*
X2220000Y-10145000D03*
%TD*%
D14*
%TO.C,C12*%
X9835000Y-1025000D03*
X10795000Y-1025000D03*
%TD*%
%TO.C,C11*%
X12600000Y-1020000D03*
X13560000Y-1020000D03*
%TD*%
%TO.C,C10*%
X15500000Y-7400000D03*
X16460000Y-7400000D03*
%TD*%
%TO.C,C9*%
X13925000Y-11235000D03*
X14885000Y-11235000D03*
%TD*%
%TO.C,C8*%
X13930000Y-12320000D03*
X14890000Y-12320000D03*
%TD*%
D15*
%TO.C,C7*%
X7710000Y-10670000D03*
X6750000Y-10670000D03*
%TD*%
%TO.C,C6*%
X14885000Y-10167500D03*
X13925000Y-10167500D03*
%TD*%
D14*
%TO.C,C5*%
X13925000Y-9100000D03*
X14885000Y-9100000D03*
%TD*%
D13*
%TO.C,C4*%
X3350000Y-9180000D03*
X3350000Y-10140000D03*
%TD*%
D14*
%TO.C,C3*%
X1830000Y-3060000D03*
X2790000Y-3060000D03*
%TD*%
%TO.C,C2*%
X15500000Y-6340000D03*
X16460000Y-6340000D03*
%TD*%
%TO.C,C1*%
X1810000Y-8130000D03*
X2770000Y-8130000D03*
%TD*%
D16*
%TO.C,J7*%
X3687500Y-14150000D03*
%TD*%
D17*
%TO.C,U1*%
X11785000Y-2365000D03*
X11385000Y-2365000D03*
X10985000Y-2365000D03*
X10585000Y-2365000D03*
X10185000Y-2365000D03*
X9785000Y-2365000D03*
X9385000Y-2365000D03*
X8985000Y-2365000D03*
X8585000Y-2365000D03*
X8185000Y-2365000D03*
X7785000Y-2365000D03*
X7385000Y-2365000D03*
X6985000Y-2365000D03*
X6585000Y-2365000D03*
D18*
X5635000Y-3315000D03*
X5635000Y-3715000D03*
X5635000Y-4115000D03*
X5635000Y-4515000D03*
X5635000Y-4915000D03*
X5635000Y-5315000D03*
X5635000Y-5715000D03*
X5635000Y-6115000D03*
X5635000Y-6515000D03*
X5635000Y-6915000D03*
X5635000Y-7315000D03*
X5635000Y-7715000D03*
X5635000Y-8115000D03*
X5635000Y-8515000D03*
D17*
X6585000Y-9465000D03*
X6985000Y-9465000D03*
X7385000Y-9465000D03*
X7785000Y-9465000D03*
X8185000Y-9465000D03*
X8585000Y-9465000D03*
X8985000Y-9465000D03*
X9385000Y-9465000D03*
X9785000Y-9465000D03*
X10185000Y-9465000D03*
X10585000Y-9465000D03*
X10985000Y-9465000D03*
X11385000Y-9465000D03*
X11785000Y-9465000D03*
D18*
X12735000Y-8515000D03*
X12735000Y-8115000D03*
X12735000Y-7715000D03*
X12735000Y-7315000D03*
X12735000Y-6915000D03*
X12735000Y-6515000D03*
X12735000Y-6115000D03*
X12735000Y-5715000D03*
X12735000Y-5315000D03*
X12735000Y-4915000D03*
X12735000Y-4515000D03*
X12735000Y-4115000D03*
X12735000Y-3715000D03*
X12735000Y-3315000D03*
D19*
X9185000Y-5915000D03*
%TD*%
D20*
%TO.C,U2*%
X16655000Y-1895500D03*
X16155000Y-1895500D03*
X15655000Y-1895500D03*
X15155000Y-1895500D03*
X15155000Y-4909500D03*
X15655000Y-4909500D03*
X16155000Y-4909500D03*
X16655000Y-4909500D03*
D21*
X15905000Y-3402500D03*
%TD*%
D22*
%TO.C,J8*%
X17644248Y-7218121D03*
X17644248Y-8488121D03*
X17644248Y-9758121D03*
X17644248Y-11028121D03*
X17644248Y-12298121D03*
X17644248Y-13568121D03*
%TD*%
D16*
%TO.C,J1*%
X1410000Y-1320000D03*
%TD*%
%TO.C,J4*%
X11825000Y-14150000D03*
%TD*%
%TO.C,J2*%
X8570000Y-14150000D03*
%TD*%
%TO.C,J6*%
X5320000Y-14150000D03*
%TD*%
%TO.C,J5*%
X13452500Y-14150000D03*
%TD*%
%TO.C,J9*%
X6942500Y-14150000D03*
%TD*%
%TO.C,J3*%
X10197500Y-14150000D03*
%TD*%
%TO.C,J10*%
X15080000Y-14150000D03*
%TD*%
D23*
%TO.C,SW1*%
X1190000Y-11860000D03*
X4390000Y-11860000D03*
%TD*%
D24*
%TO.C,X1*%
X3152000Y-6693000D03*
X3152000Y-4493000D03*
X1402000Y-4493000D03*
X1402000Y-6693000D03*
%TD*%
D25*
%TO.C,U5*%
X1070000Y-13685000D03*
X1920000Y-13685000D03*
X1070000Y-14535000D03*
X1920000Y-14535000D03*
%TD*%
D26*
%TO.C,JP1*%
X3135000Y-1570000D03*
D27*
X4585000Y-1570000D03*
%TD*%
M02*
