%TF.GenerationSoftware,KiCad,Pcbnew,7.0.2-6a45011f42~172~ubuntu22.04.1*%
%TF.CreationDate,2023-05-25T04:45:34+08:00*%
%TF.ProjectId,fly2040_min,666c7932-3034-4305-9f6d-696e2e6b6963,rev?*%
%TF.SameCoordinates,PX4323800PY2f1c8c0*%
%TF.FileFunction,Soldermask,Top*%
%TF.FilePolarity,Negative*%
%FSLAX46Y46*%
G04 Gerber Fmt 4.6, Leading zero omitted, Abs format (unit mm)*
G04 Created by KiCad (PCBNEW 7.0.2-6a45011f42~172~ubuntu22.04.1) date 2023-05-25 04:45:34*
%MOMM*%
%LPD*%
G01*
G04 APERTURE LIST*
G04 Aperture macros list*
%AMRoundRect*
0 Rectangle with rounded corners*
0 $1 Rounding radius*
0 $2 $3 $4 $5 $6 $7 $8 $9 X,Y pos of 4 corners*
0 Add a 4 corners polygon primitive as box body*
4,1,4,$2,$3,$4,$5,$6,$7,$8,$9,$2,$3,0*
0 Add four circle primitives for the rounded corners*
1,1,$1+$1,$2,$3*
1,1,$1+$1,$4,$5*
1,1,$1+$1,$6,$7*
1,1,$1+$1,$8,$9*
0 Add four rect primitives between the rounded corners*
20,1,$1+$1,$2,$3,$4,$5,0*
20,1,$1+$1,$4,$5,$6,$7,0*
20,1,$1+$1,$6,$7,$8,$9,0*
20,1,$1+$1,$8,$9,$2,$3,0*%
%AMFreePoly0*
4,1,6,1.000000,0.000000,0.500000,-0.750000,-0.500000,-0.750000,-0.500000,0.750000,0.500000,0.750000,1.000000,0.000000,1.000000,0.000000,$1*%
%AMFreePoly1*
4,1,6,0.500000,-0.750000,-0.650000,-0.750000,-0.150000,0.000000,-0.650000,0.750000,0.500000,0.750000,0.500000,-0.750000,0.500000,-0.750000,$1*%
G04 Aperture macros list end*
%ADD10RoundRect,0.135000X-0.135000X-0.185000X0.135000X-0.185000X0.135000X0.185000X-0.135000X0.185000X0*%
%ADD11RoundRect,0.135000X-0.185000X0.135000X-0.185000X-0.135000X0.185000X-0.135000X0.185000X0.135000X0*%
%ADD12RoundRect,0.135000X0.185000X-0.135000X0.185000X0.135000X-0.185000X0.135000X-0.185000X-0.135000X0*%
%ADD13RoundRect,0.140000X-0.170000X0.140000X-0.170000X-0.140000X0.170000X-0.140000X0.170000X0.140000X0*%
%ADD14RoundRect,0.140000X-0.140000X-0.170000X0.140000X-0.170000X0.140000X0.170000X-0.140000X0.170000X0*%
%ADD15RoundRect,0.140000X0.140000X0.170000X-0.140000X0.170000X-0.140000X-0.170000X0.140000X-0.170000X0*%
%ADD16R,1.200000X1.200000*%
%ADD17R,0.450000X0.450000*%
%ADD18R,0.200000X1.100000*%
%ADD19R,1.100000X0.200000*%
%ADD20R,3.100000X3.100000*%
%ADD21R,0.280000X0.600000*%
%ADD22R,1.700000X0.300000*%
%ADD23O,1.000000X1.000000*%
%ADD24R,1.000000X1.524000*%
%ADD25R,1.200000X1.400000*%
%ADD26FreePoly0,0.000000*%
%ADD27FreePoly1,0.000000*%
G04 APERTURE END LIST*
D10*
%TO.C,R12*%
X8620000Y-1040000D03*
X9640000Y-1040000D03*
%TD*%
D11*
%TO.C,R11*%
X15510000Y-11270000D03*
X15510000Y-12290000D03*
%TD*%
%TO.C,R10*%
X14230000Y-11270000D03*
X14230000Y-12290000D03*
%TD*%
%TO.C,R9*%
X12950000Y-11270000D03*
X12950000Y-12290000D03*
%TD*%
%TO.C,R8*%
X11670000Y-11270000D03*
X11670000Y-12290000D03*
%TD*%
D12*
%TO.C,R6*%
X20480000Y-3965000D03*
X20480000Y-2945000D03*
%TD*%
D11*
%TO.C,R5*%
X20480000Y-960000D03*
X20480000Y-1980000D03*
%TD*%
D12*
%TO.C,R2*%
X7210000Y-10270000D03*
X7210000Y-9250000D03*
%TD*%
%TO.C,R1*%
X7180000Y-7010000D03*
X7180000Y-5990000D03*
%TD*%
D13*
%TO.C,C14*%
X20480000Y-4940000D03*
X20480000Y-5900000D03*
%TD*%
%TO.C,C13*%
X4920000Y-9185000D03*
X4920000Y-10145000D03*
%TD*%
D14*
%TO.C,C12*%
X12535000Y-1025000D03*
X13495000Y-1025000D03*
%TD*%
%TO.C,C11*%
X15300000Y-1020000D03*
X16260000Y-1020000D03*
%TD*%
%TO.C,C10*%
X18200000Y-7400000D03*
X19160000Y-7400000D03*
%TD*%
%TO.C,C9*%
X16625000Y-11235000D03*
X17585000Y-11235000D03*
%TD*%
%TO.C,C8*%
X16630000Y-12320000D03*
X17590000Y-12320000D03*
%TD*%
D15*
%TO.C,C7*%
X10410000Y-10670000D03*
X9450000Y-10670000D03*
%TD*%
%TO.C,C6*%
X17585000Y-10167500D03*
X16625000Y-10167500D03*
%TD*%
D14*
%TO.C,C5*%
X16625000Y-9100000D03*
X17585000Y-9100000D03*
%TD*%
D13*
%TO.C,C4*%
X6050000Y-9180000D03*
X6050000Y-10140000D03*
%TD*%
D14*
%TO.C,C3*%
X4530000Y-3060000D03*
X5490000Y-3060000D03*
%TD*%
%TO.C,C2*%
X18200000Y-6340000D03*
X19160000Y-6340000D03*
%TD*%
%TO.C,C1*%
X4510000Y-8130000D03*
X5470000Y-8130000D03*
%TD*%
D16*
%TO.C,J10*%
X17780000Y-14150000D03*
%TD*%
%TO.C,J9*%
X9642500Y-14150000D03*
%TD*%
%TO.C,J7*%
X6387500Y-14150000D03*
%TD*%
%TO.C,J6*%
X8020000Y-14150000D03*
%TD*%
%TO.C,J5*%
X16152500Y-14150000D03*
%TD*%
%TO.C,J4*%
X14525000Y-14150000D03*
%TD*%
%TO.C,J3*%
X12897500Y-14150000D03*
%TD*%
%TO.C,J2*%
X11270000Y-14150000D03*
%TD*%
%TO.C,J1*%
X4110000Y-1320000D03*
%TD*%
D17*
%TO.C,U5*%
X3617500Y-14705000D03*
X4467500Y-14705000D03*
X3617500Y-13855000D03*
X4467500Y-13855000D03*
%TD*%
D18*
%TO.C,U1*%
X14485000Y-2365000D03*
X14085000Y-2365000D03*
X13685000Y-2365000D03*
X13285000Y-2365000D03*
X12885000Y-2365000D03*
X12485000Y-2365000D03*
X12085000Y-2365000D03*
X11685000Y-2365000D03*
X11285000Y-2365000D03*
X10885000Y-2365000D03*
X10485000Y-2365000D03*
X10085000Y-2365000D03*
X9685000Y-2365000D03*
X9285000Y-2365000D03*
D19*
X8335000Y-3315000D03*
X8335000Y-3715000D03*
X8335000Y-4115000D03*
X8335000Y-4515000D03*
X8335000Y-4915000D03*
X8335000Y-5315000D03*
X8335000Y-5715000D03*
X8335000Y-6115000D03*
X8335000Y-6515000D03*
X8335000Y-6915000D03*
X8335000Y-7315000D03*
X8335000Y-7715000D03*
X8335000Y-8115000D03*
X8335000Y-8515000D03*
D18*
X9285000Y-9465000D03*
X9685000Y-9465000D03*
X10085000Y-9465000D03*
X10485000Y-9465000D03*
X10885000Y-9465000D03*
X11285000Y-9465000D03*
X11685000Y-9465000D03*
X12085000Y-9465000D03*
X12485000Y-9465000D03*
X12885000Y-9465000D03*
X13285000Y-9465000D03*
X13685000Y-9465000D03*
X14085000Y-9465000D03*
X14485000Y-9465000D03*
D19*
X15435000Y-8515000D03*
X15435000Y-8115000D03*
X15435000Y-7715000D03*
X15435000Y-7315000D03*
X15435000Y-6915000D03*
X15435000Y-6515000D03*
X15435000Y-6115000D03*
X15435000Y-5715000D03*
X15435000Y-5315000D03*
X15435000Y-4915000D03*
X15435000Y-4515000D03*
X15435000Y-4115000D03*
X15435000Y-3715000D03*
X15435000Y-3315000D03*
D20*
X11885000Y-5915000D03*
%TD*%
D21*
%TO.C,U2*%
X19355000Y-1895500D03*
X18855000Y-1895500D03*
X18355000Y-1895500D03*
X17855000Y-1895500D03*
X17855000Y-4909500D03*
X18355000Y-4909500D03*
X18855000Y-4909500D03*
X19355000Y-4909500D03*
D22*
X18605000Y-3402500D03*
%TD*%
D23*
%TO.C,J8*%
X20344248Y-7218121D03*
X20344248Y-8488121D03*
X20344248Y-9758121D03*
X20344248Y-11028121D03*
X20344248Y-12298121D03*
X20344248Y-13568121D03*
%TD*%
D24*
%TO.C,SW1*%
X7090000Y-11860000D03*
X3890000Y-11860000D03*
%TD*%
D25*
%TO.C,X1*%
X4102000Y-6693000D03*
X4102000Y-4493000D03*
X5852000Y-4493000D03*
X5852000Y-6693000D03*
%TD*%
D26*
%TO.C,JP1*%
X5835000Y-1570000D03*
D27*
X7285000Y-1570000D03*
%TD*%
M02*
