%TF.GenerationSoftware,KiCad,Pcbnew,7.0.2-6a45011f42~172~ubuntu22.04.1*%
%TF.CreationDate,2023-05-25T04:45:34+08:00*%
%TF.ProjectId,fly2040_min,666c7932-3034-4305-9f6d-696e2e6b6963,rev?*%
%TF.SameCoordinates,PX4323800PY2f1c8c0*%
%TF.FileFunction,Legend,Bot*%
%TF.FilePolarity,Positive*%
%FSLAX46Y46*%
G04 Gerber Fmt 4.6, Leading zero omitted, Abs format (unit mm)*
G04 Created by KiCad (PCBNEW 7.0.2-6a45011f42~172~ubuntu22.04.1) date 2023-05-25 04:45:34*
%MOMM*%
%LPD*%
G01*
G04 APERTURE LIST*
%ADD10C,0.150000*%
%ADD11R,1.200000X1.200000*%
%ADD12O,1.000000X1.000000*%
G04 APERTURE END LIST*
D10*
X4522380Y-2819523D02*
X4570000Y-2771904D01*
X4570000Y-2771904D02*
X4617619Y-2629047D01*
X4617619Y-2629047D02*
X4617619Y-2533809D01*
X4617619Y-2533809D02*
X4570000Y-2390952D01*
X4570000Y-2390952D02*
X4474761Y-2295714D01*
X4474761Y-2295714D02*
X4379523Y-2248095D01*
X4379523Y-2248095D02*
X4189047Y-2200476D01*
X4189047Y-2200476D02*
X4046190Y-2200476D01*
X4046190Y-2200476D02*
X3855714Y-2248095D01*
X3855714Y-2248095D02*
X3760476Y-2295714D01*
X3760476Y-2295714D02*
X3665238Y-2390952D01*
X3665238Y-2390952D02*
X3617619Y-2533809D01*
X3617619Y-2533809D02*
X3617619Y-2629047D01*
X3617619Y-2629047D02*
X3665238Y-2771904D01*
X3665238Y-2771904D02*
X3712857Y-2819523D01*
X4617619Y-3248095D02*
X3617619Y-3248095D01*
X3617619Y-3248095D02*
X3617619Y-3629047D01*
X3617619Y-3629047D02*
X3665238Y-3724285D01*
X3665238Y-3724285D02*
X3712857Y-3771904D01*
X3712857Y-3771904D02*
X3808095Y-3819523D01*
X3808095Y-3819523D02*
X3950952Y-3819523D01*
X3950952Y-3819523D02*
X4046190Y-3771904D01*
X4046190Y-3771904D02*
X4093809Y-3724285D01*
X4093809Y-3724285D02*
X4141428Y-3629047D01*
X4141428Y-3629047D02*
X4141428Y-3248095D01*
X3617619Y-4248095D02*
X4427142Y-4248095D01*
X4427142Y-4248095D02*
X4522380Y-4295714D01*
X4522380Y-4295714D02*
X4570000Y-4343333D01*
X4570000Y-4343333D02*
X4617619Y-4438571D01*
X4617619Y-4438571D02*
X4617619Y-4629047D01*
X4617619Y-4629047D02*
X4570000Y-4724285D01*
X4570000Y-4724285D02*
X4522380Y-4771904D01*
X4522380Y-4771904D02*
X4427142Y-4819523D01*
X4427142Y-4819523D02*
X3617619Y-4819523D01*
X9185238Y-11231904D02*
X9137619Y-11136666D01*
X9137619Y-11136666D02*
X9137619Y-10993809D01*
X9137619Y-10993809D02*
X9185238Y-10850952D01*
X9185238Y-10850952D02*
X9280476Y-10755714D01*
X9280476Y-10755714D02*
X9375714Y-10708095D01*
X9375714Y-10708095D02*
X9566190Y-10660476D01*
X9566190Y-10660476D02*
X9709047Y-10660476D01*
X9709047Y-10660476D02*
X9899523Y-10708095D01*
X9899523Y-10708095D02*
X9994761Y-10755714D01*
X9994761Y-10755714D02*
X10090000Y-10850952D01*
X10090000Y-10850952D02*
X10137619Y-10993809D01*
X10137619Y-10993809D02*
X10137619Y-11089047D01*
X10137619Y-11089047D02*
X10090000Y-11231904D01*
X10090000Y-11231904D02*
X10042380Y-11279523D01*
X10042380Y-11279523D02*
X9709047Y-11279523D01*
X9709047Y-11279523D02*
X9709047Y-11089047D01*
X10137619Y-11708095D02*
X9137619Y-11708095D01*
X9137619Y-11708095D02*
X10137619Y-12279523D01*
X10137619Y-12279523D02*
X9137619Y-12279523D01*
X10137619Y-12755714D02*
X9137619Y-12755714D01*
X9137619Y-12755714D02*
X9137619Y-12993809D01*
X9137619Y-12993809D02*
X9185238Y-13136666D01*
X9185238Y-13136666D02*
X9280476Y-13231904D01*
X9280476Y-13231904D02*
X9375714Y-13279523D01*
X9375714Y-13279523D02*
X9566190Y-13327142D01*
X9566190Y-13327142D02*
X9709047Y-13327142D01*
X9709047Y-13327142D02*
X9899523Y-13279523D01*
X9899523Y-13279523D02*
X9994761Y-13231904D01*
X9994761Y-13231904D02*
X10090000Y-13136666D01*
X10090000Y-13136666D02*
X10137619Y-12993809D01*
X10137619Y-12993809D02*
X10137619Y-12755714D01*
X6870000Y-10750476D02*
X6917619Y-10893333D01*
X6917619Y-10893333D02*
X6917619Y-11131428D01*
X6917619Y-11131428D02*
X6870000Y-11226666D01*
X6870000Y-11226666D02*
X6822380Y-11274285D01*
X6822380Y-11274285D02*
X6727142Y-11321904D01*
X6727142Y-11321904D02*
X6631904Y-11321904D01*
X6631904Y-11321904D02*
X6536666Y-11274285D01*
X6536666Y-11274285D02*
X6489047Y-11226666D01*
X6489047Y-11226666D02*
X6441428Y-11131428D01*
X6441428Y-11131428D02*
X6393809Y-10940952D01*
X6393809Y-10940952D02*
X6346190Y-10845714D01*
X6346190Y-10845714D02*
X6298571Y-10798095D01*
X6298571Y-10798095D02*
X6203333Y-10750476D01*
X6203333Y-10750476D02*
X6108095Y-10750476D01*
X6108095Y-10750476D02*
X6012857Y-10798095D01*
X6012857Y-10798095D02*
X5965238Y-10845714D01*
X5965238Y-10845714D02*
X5917619Y-10940952D01*
X5917619Y-10940952D02*
X5917619Y-11179047D01*
X5917619Y-11179047D02*
X5965238Y-11321904D01*
X6822380Y-12321904D02*
X6870000Y-12274285D01*
X6870000Y-12274285D02*
X6917619Y-12131428D01*
X6917619Y-12131428D02*
X6917619Y-12036190D01*
X6917619Y-12036190D02*
X6870000Y-11893333D01*
X6870000Y-11893333D02*
X6774761Y-11798095D01*
X6774761Y-11798095D02*
X6679523Y-11750476D01*
X6679523Y-11750476D02*
X6489047Y-11702857D01*
X6489047Y-11702857D02*
X6346190Y-11702857D01*
X6346190Y-11702857D02*
X6155714Y-11750476D01*
X6155714Y-11750476D02*
X6060476Y-11798095D01*
X6060476Y-11798095D02*
X5965238Y-11893333D01*
X5965238Y-11893333D02*
X5917619Y-12036190D01*
X5917619Y-12036190D02*
X5917619Y-12131428D01*
X5917619Y-12131428D02*
X5965238Y-12274285D01*
X5965238Y-12274285D02*
X6012857Y-12321904D01*
X6917619Y-13226666D02*
X6917619Y-12750476D01*
X6917619Y-12750476D02*
X5917619Y-12750476D01*
X19198571Y-8473809D02*
X19055714Y-8521428D01*
X19055714Y-8521428D02*
X19008095Y-8569047D01*
X19008095Y-8569047D02*
X18960476Y-8664285D01*
X18960476Y-8664285D02*
X18960476Y-8807142D01*
X18960476Y-8807142D02*
X19008095Y-8902380D01*
X19008095Y-8902380D02*
X19055714Y-8950000D01*
X19055714Y-8950000D02*
X19150952Y-8997619D01*
X19150952Y-8997619D02*
X19531904Y-8997619D01*
X19531904Y-8997619D02*
X19531904Y-7997619D01*
X19531904Y-7997619D02*
X19198571Y-7997619D01*
X19198571Y-7997619D02*
X19103333Y-8045238D01*
X19103333Y-8045238D02*
X19055714Y-8092857D01*
X19055714Y-8092857D02*
X19008095Y-8188095D01*
X19008095Y-8188095D02*
X19008095Y-8283333D01*
X19008095Y-8283333D02*
X19055714Y-8378571D01*
X19055714Y-8378571D02*
X19103333Y-8426190D01*
X19103333Y-8426190D02*
X19198571Y-8473809D01*
X19198571Y-8473809D02*
X19531904Y-8473809D01*
X19561904Y-11046666D02*
X18800000Y-11046666D01*
X14927380Y-11234523D02*
X14975000Y-11186904D01*
X14975000Y-11186904D02*
X15022619Y-11044047D01*
X15022619Y-11044047D02*
X15022619Y-10948809D01*
X15022619Y-10948809D02*
X14975000Y-10805952D01*
X14975000Y-10805952D02*
X14879761Y-10710714D01*
X14879761Y-10710714D02*
X14784523Y-10663095D01*
X14784523Y-10663095D02*
X14594047Y-10615476D01*
X14594047Y-10615476D02*
X14451190Y-10615476D01*
X14451190Y-10615476D02*
X14260714Y-10663095D01*
X14260714Y-10663095D02*
X14165476Y-10710714D01*
X14165476Y-10710714D02*
X14070238Y-10805952D01*
X14070238Y-10805952D02*
X14022619Y-10948809D01*
X14022619Y-10948809D02*
X14022619Y-11044047D01*
X14022619Y-11044047D02*
X14070238Y-11186904D01*
X14070238Y-11186904D02*
X14117857Y-11234523D01*
X15022619Y-11663095D02*
X14022619Y-11663095D01*
X14022619Y-11663095D02*
X14736904Y-11996428D01*
X14736904Y-11996428D02*
X14022619Y-12329761D01*
X14022619Y-12329761D02*
X15022619Y-12329761D01*
X15022619Y-12805952D02*
X14022619Y-12805952D01*
X14022619Y-12805952D02*
X14022619Y-13044047D01*
X14022619Y-13044047D02*
X14070238Y-13186904D01*
X14070238Y-13186904D02*
X14165476Y-13282142D01*
X14165476Y-13282142D02*
X14260714Y-13329761D01*
X14260714Y-13329761D02*
X14451190Y-13377380D01*
X14451190Y-13377380D02*
X14594047Y-13377380D01*
X14594047Y-13377380D02*
X14784523Y-13329761D01*
X14784523Y-13329761D02*
X14879761Y-13282142D01*
X14879761Y-13282142D02*
X14975000Y-13186904D01*
X14975000Y-13186904D02*
X15022619Y-13044047D01*
X15022619Y-13044047D02*
X15022619Y-12805952D01*
X19651904Y-9776666D02*
X18890000Y-9776666D01*
X19270952Y-10157619D02*
X19270952Y-9395714D01*
X16697619Y-11818095D02*
X15697619Y-11818095D01*
X15697619Y-11818095D02*
X15697619Y-12056190D01*
X15697619Y-12056190D02*
X15745238Y-12199047D01*
X15745238Y-12199047D02*
X15840476Y-12294285D01*
X15840476Y-12294285D02*
X15935714Y-12341904D01*
X15935714Y-12341904D02*
X16126190Y-12389523D01*
X16126190Y-12389523D02*
X16269047Y-12389523D01*
X16269047Y-12389523D02*
X16459523Y-12341904D01*
X16459523Y-12341904D02*
X16554761Y-12294285D01*
X16554761Y-12294285D02*
X16650000Y-12199047D01*
X16650000Y-12199047D02*
X16697619Y-12056190D01*
X16697619Y-12056190D02*
X16697619Y-11818095D01*
X15697619Y-13008571D02*
X15697619Y-13103809D01*
X15697619Y-13103809D02*
X15745238Y-13199047D01*
X15745238Y-13199047D02*
X15792857Y-13246666D01*
X15792857Y-13246666D02*
X15888095Y-13294285D01*
X15888095Y-13294285D02*
X16078571Y-13341904D01*
X16078571Y-13341904D02*
X16316666Y-13341904D01*
X16316666Y-13341904D02*
X16507142Y-13294285D01*
X16507142Y-13294285D02*
X16602380Y-13246666D01*
X16602380Y-13246666D02*
X16650000Y-13199047D01*
X16650000Y-13199047D02*
X16697619Y-13103809D01*
X16697619Y-13103809D02*
X16697619Y-13008571D01*
X16697619Y-13008571D02*
X16650000Y-12913333D01*
X16650000Y-12913333D02*
X16602380Y-12865714D01*
X16602380Y-12865714D02*
X16507142Y-12818095D01*
X16507142Y-12818095D02*
X16316666Y-12770476D01*
X16316666Y-12770476D02*
X16078571Y-12770476D01*
X16078571Y-12770476D02*
X15888095Y-12818095D01*
X15888095Y-12818095D02*
X15792857Y-12865714D01*
X15792857Y-12865714D02*
X15745238Y-12913333D01*
X15745238Y-12913333D02*
X15697619Y-13008571D01*
X19018095Y-13145238D02*
X19113333Y-13097619D01*
X19113333Y-13097619D02*
X19256190Y-13097619D01*
X19256190Y-13097619D02*
X19399047Y-13145238D01*
X19399047Y-13145238D02*
X19494285Y-13240476D01*
X19494285Y-13240476D02*
X19541904Y-13335714D01*
X19541904Y-13335714D02*
X19589523Y-13526190D01*
X19589523Y-13526190D02*
X19589523Y-13669047D01*
X19589523Y-13669047D02*
X19541904Y-13859523D01*
X19541904Y-13859523D02*
X19494285Y-13954761D01*
X19494285Y-13954761D02*
X19399047Y-14050000D01*
X19399047Y-14050000D02*
X19256190Y-14097619D01*
X19256190Y-14097619D02*
X19160952Y-14097619D01*
X19160952Y-14097619D02*
X19018095Y-14050000D01*
X19018095Y-14050000D02*
X18970476Y-14002380D01*
X18970476Y-14002380D02*
X18970476Y-13669047D01*
X18970476Y-13669047D02*
X19160952Y-13669047D01*
X13317380Y-11524523D02*
X13365000Y-11476904D01*
X13365000Y-11476904D02*
X13412619Y-11334047D01*
X13412619Y-11334047D02*
X13412619Y-11238809D01*
X13412619Y-11238809D02*
X13365000Y-11095952D01*
X13365000Y-11095952D02*
X13269761Y-11000714D01*
X13269761Y-11000714D02*
X13174523Y-10953095D01*
X13174523Y-10953095D02*
X12984047Y-10905476D01*
X12984047Y-10905476D02*
X12841190Y-10905476D01*
X12841190Y-10905476D02*
X12650714Y-10953095D01*
X12650714Y-10953095D02*
X12555476Y-11000714D01*
X12555476Y-11000714D02*
X12460238Y-11095952D01*
X12460238Y-11095952D02*
X12412619Y-11238809D01*
X12412619Y-11238809D02*
X12412619Y-11334047D01*
X12412619Y-11334047D02*
X12460238Y-11476904D01*
X12460238Y-11476904D02*
X12507857Y-11524523D01*
X13412619Y-12429285D02*
X13412619Y-11953095D01*
X13412619Y-11953095D02*
X12412619Y-11953095D01*
X13412619Y-12762619D02*
X12412619Y-12762619D01*
X13412619Y-13334047D02*
X12841190Y-12905476D01*
X12412619Y-13334047D02*
X12984047Y-12762619D01*
X8420000Y-10750476D02*
X8467619Y-10893333D01*
X8467619Y-10893333D02*
X8467619Y-11131428D01*
X8467619Y-11131428D02*
X8420000Y-11226666D01*
X8420000Y-11226666D02*
X8372380Y-11274285D01*
X8372380Y-11274285D02*
X8277142Y-11321904D01*
X8277142Y-11321904D02*
X8181904Y-11321904D01*
X8181904Y-11321904D02*
X8086666Y-11274285D01*
X8086666Y-11274285D02*
X8039047Y-11226666D01*
X8039047Y-11226666D02*
X7991428Y-11131428D01*
X7991428Y-11131428D02*
X7943809Y-10940952D01*
X7943809Y-10940952D02*
X7896190Y-10845714D01*
X7896190Y-10845714D02*
X7848571Y-10798095D01*
X7848571Y-10798095D02*
X7753333Y-10750476D01*
X7753333Y-10750476D02*
X7658095Y-10750476D01*
X7658095Y-10750476D02*
X7562857Y-10798095D01*
X7562857Y-10798095D02*
X7515238Y-10845714D01*
X7515238Y-10845714D02*
X7467619Y-10940952D01*
X7467619Y-10940952D02*
X7467619Y-11179047D01*
X7467619Y-11179047D02*
X7515238Y-11321904D01*
X8467619Y-11750476D02*
X7467619Y-11750476D01*
X7467619Y-11750476D02*
X7467619Y-11988571D01*
X7467619Y-11988571D02*
X7515238Y-12131428D01*
X7515238Y-12131428D02*
X7610476Y-12226666D01*
X7610476Y-12226666D02*
X7705714Y-12274285D01*
X7705714Y-12274285D02*
X7896190Y-12321904D01*
X7896190Y-12321904D02*
X8039047Y-12321904D01*
X8039047Y-12321904D02*
X8229523Y-12274285D01*
X8229523Y-12274285D02*
X8324761Y-12226666D01*
X8324761Y-12226666D02*
X8420000Y-12131428D01*
X8420000Y-12131428D02*
X8467619Y-11988571D01*
X8467619Y-11988571D02*
X8467619Y-11750476D01*
X8181904Y-12702857D02*
X8181904Y-13179047D01*
X8467619Y-12607619D02*
X7467619Y-12940952D01*
X7467619Y-12940952D02*
X8467619Y-13274285D01*
X18960476Y-7697619D02*
X19293809Y-7221428D01*
X19531904Y-7697619D02*
X19531904Y-6697619D01*
X19531904Y-6697619D02*
X19150952Y-6697619D01*
X19150952Y-6697619D02*
X19055714Y-6745238D01*
X19055714Y-6745238D02*
X19008095Y-6792857D01*
X19008095Y-6792857D02*
X18960476Y-6888095D01*
X18960476Y-6888095D02*
X18960476Y-7030952D01*
X18960476Y-7030952D02*
X19008095Y-7126190D01*
X19008095Y-7126190D02*
X19055714Y-7173809D01*
X19055714Y-7173809D02*
X19150952Y-7221428D01*
X19150952Y-7221428D02*
X19531904Y-7221428D01*
X11807619Y-11489523D02*
X11331428Y-11156190D01*
X11807619Y-10918095D02*
X10807619Y-10918095D01*
X10807619Y-10918095D02*
X10807619Y-11299047D01*
X10807619Y-11299047D02*
X10855238Y-11394285D01*
X10855238Y-11394285D02*
X10902857Y-11441904D01*
X10902857Y-11441904D02*
X10998095Y-11489523D01*
X10998095Y-11489523D02*
X11140952Y-11489523D01*
X11140952Y-11489523D02*
X11236190Y-11441904D01*
X11236190Y-11441904D02*
X11283809Y-11394285D01*
X11283809Y-11394285D02*
X11331428Y-11299047D01*
X11331428Y-11299047D02*
X11331428Y-10918095D01*
X11760000Y-11870476D02*
X11807619Y-12013333D01*
X11807619Y-12013333D02*
X11807619Y-12251428D01*
X11807619Y-12251428D02*
X11760000Y-12346666D01*
X11760000Y-12346666D02*
X11712380Y-12394285D01*
X11712380Y-12394285D02*
X11617142Y-12441904D01*
X11617142Y-12441904D02*
X11521904Y-12441904D01*
X11521904Y-12441904D02*
X11426666Y-12394285D01*
X11426666Y-12394285D02*
X11379047Y-12346666D01*
X11379047Y-12346666D02*
X11331428Y-12251428D01*
X11331428Y-12251428D02*
X11283809Y-12060952D01*
X11283809Y-12060952D02*
X11236190Y-11965714D01*
X11236190Y-11965714D02*
X11188571Y-11918095D01*
X11188571Y-11918095D02*
X11093333Y-11870476D01*
X11093333Y-11870476D02*
X10998095Y-11870476D01*
X10998095Y-11870476D02*
X10902857Y-11918095D01*
X10902857Y-11918095D02*
X10855238Y-11965714D01*
X10855238Y-11965714D02*
X10807619Y-12060952D01*
X10807619Y-12060952D02*
X10807619Y-12299047D01*
X10807619Y-12299047D02*
X10855238Y-12441904D01*
X10807619Y-12727619D02*
X10807619Y-13299047D01*
X11807619Y-13013333D02*
X10807619Y-13013333D01*
X17267619Y-10912857D02*
X17267619Y-11531904D01*
X17267619Y-11531904D02*
X17648571Y-11198571D01*
X17648571Y-11198571D02*
X17648571Y-11341428D01*
X17648571Y-11341428D02*
X17696190Y-11436666D01*
X17696190Y-11436666D02*
X17743809Y-11484285D01*
X17743809Y-11484285D02*
X17839047Y-11531904D01*
X17839047Y-11531904D02*
X18077142Y-11531904D01*
X18077142Y-11531904D02*
X18172380Y-11484285D01*
X18172380Y-11484285D02*
X18220000Y-11436666D01*
X18220000Y-11436666D02*
X18267619Y-11341428D01*
X18267619Y-11341428D02*
X18267619Y-11055714D01*
X18267619Y-11055714D02*
X18220000Y-10960476D01*
X18220000Y-10960476D02*
X18172380Y-10912857D01*
X17267619Y-11817619D02*
X18267619Y-12150952D01*
X18267619Y-12150952D02*
X17267619Y-12484285D01*
X17267619Y-12722381D02*
X17267619Y-13341428D01*
X17267619Y-13341428D02*
X17648571Y-13008095D01*
X17648571Y-13008095D02*
X17648571Y-13150952D01*
X17648571Y-13150952D02*
X17696190Y-13246190D01*
X17696190Y-13246190D02*
X17743809Y-13293809D01*
X17743809Y-13293809D02*
X17839047Y-13341428D01*
X17839047Y-13341428D02*
X18077142Y-13341428D01*
X18077142Y-13341428D02*
X18172380Y-13293809D01*
X18172380Y-13293809D02*
X18220000Y-13246190D01*
X18220000Y-13246190D02*
X18267619Y-13150952D01*
X18267619Y-13150952D02*
X18267619Y-12865238D01*
X18267619Y-12865238D02*
X18220000Y-12770000D01*
X18220000Y-12770000D02*
X18172380Y-12722381D01*
%LPC*%
D11*
%TO.C,J10*%
X17780000Y-14150000D03*
%TD*%
%TO.C,J9*%
X9642500Y-14150000D03*
%TD*%
%TO.C,J7*%
X6387500Y-14150000D03*
%TD*%
%TO.C,J6*%
X8020000Y-14150000D03*
%TD*%
%TO.C,J5*%
X16152500Y-14150000D03*
%TD*%
%TO.C,J4*%
X14525000Y-14150000D03*
%TD*%
%TO.C,J3*%
X12897500Y-14150000D03*
%TD*%
%TO.C,J2*%
X11270000Y-14150000D03*
%TD*%
%TO.C,J1*%
X4110000Y-1320000D03*
%TD*%
D12*
%TO.C,J8*%
X20344248Y-7218121D03*
X20344248Y-8488121D03*
X20344248Y-9758121D03*
X20344248Y-11028121D03*
X20344248Y-12298121D03*
X20344248Y-13568121D03*
%TD*%
%LPD*%
M02*
