M48
; DRILL file {KiCad 7.0.2-6a45011f42~172~ubuntu22.04.1} date Sat 03 Jun 2023 20:54:13
; FORMAT={-:-/ absolute / inch / decimal}
; #@! TF.CreationDate,2023-06-03T20:54:13+08:00
; #@! TF.GenerationSoftware,Kicad,Pcbnew,7.0.2-6a45011f42~172~ubuntu22.04.1
; #@! TF.FileFunction,Plated,1,4,PTH
FMAT,2
INCH
; #@! TA.AperFunction,Plated,PTH,ViaDrill
T1C0.0079
; #@! TA.AperFunction,Plated,PTH,ComponentDrill
T2C0.0197
; #@! TA.AperFunction,Plated,PTH,ComponentDrill
T3C0.0256
%
G90
G05
T1
X0.0457Y-0.3677
X0.1091Y-0.4673
X0.1681Y-0.3256
X0.215Y-0.4185
X0.2197Y-0.3638
X0.2244Y-0.0953
X0.2685Y-0.2339
X0.2689Y-0.2754
X0.2772Y-0.1657
X0.3035Y-0.4563
X0.3142Y-0.139
X0.3518Y-0.0512
X0.4224Y-0.3228
X0.4575Y-0.3037
X0.4961Y-0.0811
X0.5014Y-0.3661
X0.5744Y-0.2744
X0.6268Y-0.1087
X0.661Y-0.1606
X0.6634Y-0.0343
T2
X0.0555Y-0.052
X0.1452Y-0.5571
X0.2094Y-0.5571
X0.2733Y-0.5571
X0.3374Y-0.5571
X0.4015Y-0.5571
X0.4656Y-0.5571
X0.5296Y-0.5571
X0.5937Y-0.5571
T3
X0.6947Y-0.2842
X0.6947Y-0.3342
X0.6947Y-0.3842
X0.6947Y-0.4342
X0.6947Y-0.4842
X0.6947Y-0.5342
T0
M30
