M48
; DRILL file {KiCad 7.0.2-6a45011f42~172~ubuntu22.04.1} date Thu 25 May 2023 04:45:34
; FORMAT={-:-/ absolute / inch / decimal}
; #@! TF.CreationDate,2023-05-25T04:45:34+08:00
; #@! TF.GenerationSoftware,Kicad,Pcbnew,7.0.2-6a45011f42~172~ubuntu22.04.1
; #@! TF.FileFunction,Plated,1,4,PTH
FMAT,2
INCH
; #@! TA.AperFunction,Plated,PTH,ViaDrill
T1C0.0079
; #@! TA.AperFunction,Plated,PTH,ComponentDrill
T2C0.0197
; #@! TA.AperFunction,Plated,PTH,ComponentDrill
T3C0.0256
%
G90
G05
T1
X0.152Y-0.3677
X0.2154Y-0.4673
X0.2744Y-0.3256
X0.3213Y-0.4185
X0.326Y-0.3638
X0.3307Y-0.0953
X0.3748Y-0.2339
X0.3752Y-0.2754
X0.3835Y-0.1657
X0.4098Y-0.4563
X0.4205Y-0.139
X0.4581Y-0.0512
X0.5287Y-0.3228
X0.5638Y-0.3037
X0.6024Y-0.0811
X0.6077Y-0.3661
X0.6807Y-0.2744
X0.7331Y-0.1087
X0.7673Y-0.1606
X0.7697Y-0.0343
T2
X0.1618Y-0.052
X0.2515Y-0.5571
X0.3157Y-0.5571
X0.3796Y-0.5571
X0.4437Y-0.5571
X0.5078Y-0.5571
X0.5719Y-0.5571
X0.6359Y-0.5571
X0.7Y-0.5571
T3
X0.801Y-0.2842
X0.801Y-0.3342
X0.801Y-0.3842
X0.801Y-0.4342
X0.801Y-0.4842
X0.801Y-0.5342
T0
M30
