%TF.GenerationSoftware,KiCad,Pcbnew,7.0.2-6a45011f42~172~ubuntu22.04.1*%
%TF.CreationDate,2023-06-03T20:54:13+08:00*%
%TF.ProjectId,fly2040_min,666c7932-3034-4305-9f6d-696e2e6b6963,rev?*%
%TF.SameCoordinates,PX45b6ae0PY2f1c8c0*%
%TF.FileFunction,Copper,L1,Top*%
%TF.FilePolarity,Positive*%
%FSLAX46Y46*%
G04 Gerber Fmt 4.6, Leading zero omitted, Abs format (unit mm)*
G04 Created by KiCad (PCBNEW 7.0.2-6a45011f42~172~ubuntu22.04.1) date 2023-06-03 20:54:13*
%MOMM*%
%LPD*%
G01*
G04 APERTURE LIST*
G04 Aperture macros list*
%AMRoundRect*
0 Rectangle with rounded corners*
0 $1 Rounding radius*
0 $2 $3 $4 $5 $6 $7 $8 $9 X,Y pos of 4 corners*
0 Add a 4 corners polygon primitive as box body*
4,1,4,$2,$3,$4,$5,$6,$7,$8,$9,$2,$3,0*
0 Add four circle primitives for the rounded corners*
1,1,$1+$1,$2,$3*
1,1,$1+$1,$4,$5*
1,1,$1+$1,$6,$7*
1,1,$1+$1,$8,$9*
0 Add four rect primitives between the rounded corners*
20,1,$1+$1,$2,$3,$4,$5,0*
20,1,$1+$1,$4,$5,$6,$7,0*
20,1,$1+$1,$6,$7,$8,$9,0*
20,1,$1+$1,$8,$9,$2,$3,0*%
%AMFreePoly0*
4,1,6,1.000000,0.000000,0.500000,-0.750000,-0.500000,-0.750000,-0.500000,0.750000,0.500000,0.750000,1.000000,0.000000,1.000000,0.000000,$1*%
%AMFreePoly1*
4,1,6,0.500000,-0.750000,-0.650000,-0.750000,-0.150000,0.000000,-0.650000,0.750000,0.500000,0.750000,0.500000,-0.750000,0.500000,-0.750000,$1*%
G04 Aperture macros list end*
%ADD10C,0.300000*%
%TA.AperFunction,NonConductor*%
%ADD11C,0.300000*%
%TD*%
%TA.AperFunction,NonConductor*%
%ADD12C,0.200000*%
%TD*%
%TA.AperFunction,SMDPad,CuDef*%
%ADD13RoundRect,0.135000X-0.135000X-0.185000X0.135000X-0.185000X0.135000X0.185000X-0.135000X0.185000X0*%
%TD*%
%TA.AperFunction,SMDPad,CuDef*%
%ADD14RoundRect,0.135000X-0.185000X0.135000X-0.185000X-0.135000X0.185000X-0.135000X0.185000X0.135000X0*%
%TD*%
%TA.AperFunction,SMDPad,CuDef*%
%ADD15RoundRect,0.135000X0.185000X-0.135000X0.185000X0.135000X-0.185000X0.135000X-0.185000X-0.135000X0*%
%TD*%
%TA.AperFunction,SMDPad,CuDef*%
%ADD16RoundRect,0.140000X-0.170000X0.140000X-0.170000X-0.140000X0.170000X-0.140000X0.170000X0.140000X0*%
%TD*%
%TA.AperFunction,SMDPad,CuDef*%
%ADD17RoundRect,0.140000X-0.140000X-0.170000X0.140000X-0.170000X0.140000X0.170000X-0.140000X0.170000X0*%
%TD*%
%TA.AperFunction,SMDPad,CuDef*%
%ADD18RoundRect,0.140000X0.140000X0.170000X-0.140000X0.170000X-0.140000X-0.170000X0.140000X-0.170000X0*%
%TD*%
%TA.AperFunction,ComponentPad*%
%ADD19R,1.200000X1.200000*%
%TD*%
%TA.AperFunction,SMDPad,CuDef*%
%ADD20R,0.200000X1.100000*%
%TD*%
%TA.AperFunction,SMDPad,CuDef*%
%ADD21R,1.100000X0.200000*%
%TD*%
%TA.AperFunction,SMDPad,CuDef*%
%ADD22R,3.100000X3.100000*%
%TD*%
%TA.AperFunction,SMDPad,CuDef*%
%ADD23R,0.280000X0.600000*%
%TD*%
%TA.AperFunction,SMDPad,CuDef*%
%ADD24R,1.700000X0.300000*%
%TD*%
%TA.AperFunction,ComponentPad*%
%ADD25O,1.000000X1.000000*%
%TD*%
%TA.AperFunction,SMDPad,CuDef*%
%ADD26R,1.000000X1.524000*%
%TD*%
%TA.AperFunction,SMDPad,CuDef*%
%ADD27R,1.200000X1.400000*%
%TD*%
%TA.AperFunction,SMDPad,CuDef*%
%ADD28R,0.450000X0.450000*%
%TD*%
%TA.AperFunction,SMDPad,CuDef*%
%ADD29FreePoly0,0.000000*%
%TD*%
%TA.AperFunction,SMDPad,CuDef*%
%ADD30FreePoly1,0.000000*%
%TD*%
%TA.AperFunction,ViaPad*%
%ADD31C,0.450000*%
%TD*%
%TA.AperFunction,Conductor*%
%ADD32C,0.100000*%
%TD*%
%TA.AperFunction,Conductor*%
%ADD33C,0.200000*%
%TD*%
%TA.AperFunction,Conductor*%
%ADD34C,0.357600*%
%TD*%
G04 APERTURE END LIST*
D10*
D11*
X3413573Y2776072D02*
X2556430Y2776072D01*
X2985001Y2776072D02*
X2985001Y4276072D01*
X2985001Y4276072D02*
X2842144Y4061786D01*
X2842144Y4061786D02*
X2699287Y3918929D01*
X2699287Y3918929D02*
X2556430Y3847500D01*
X4270715Y3633215D02*
X4127858Y3704643D01*
X4127858Y3704643D02*
X4056429Y3776072D01*
X4056429Y3776072D02*
X3985001Y3918929D01*
X3985001Y3918929D02*
X3985001Y3990358D01*
X3985001Y3990358D02*
X4056429Y4133215D01*
X4056429Y4133215D02*
X4127858Y4204643D01*
X4127858Y4204643D02*
X4270715Y4276072D01*
X4270715Y4276072D02*
X4556429Y4276072D01*
X4556429Y4276072D02*
X4699287Y4204643D01*
X4699287Y4204643D02*
X4770715Y4133215D01*
X4770715Y4133215D02*
X4842144Y3990358D01*
X4842144Y3990358D02*
X4842144Y3918929D01*
X4842144Y3918929D02*
X4770715Y3776072D01*
X4770715Y3776072D02*
X4699287Y3704643D01*
X4699287Y3704643D02*
X4556429Y3633215D01*
X4556429Y3633215D02*
X4270715Y3633215D01*
X4270715Y3633215D02*
X4127858Y3561786D01*
X4127858Y3561786D02*
X4056429Y3490358D01*
X4056429Y3490358D02*
X3985001Y3347500D01*
X3985001Y3347500D02*
X3985001Y3061786D01*
X3985001Y3061786D02*
X4056429Y2918929D01*
X4056429Y2918929D02*
X4127858Y2847500D01*
X4127858Y2847500D02*
X4270715Y2776072D01*
X4270715Y2776072D02*
X4556429Y2776072D01*
X4556429Y2776072D02*
X4699287Y2847500D01*
X4699287Y2847500D02*
X4770715Y2918929D01*
X4770715Y2918929D02*
X4842144Y3061786D01*
X4842144Y3061786D02*
X4842144Y3347500D01*
X4842144Y3347500D02*
X4770715Y3490358D01*
X4770715Y3490358D02*
X4699287Y3561786D01*
X4699287Y3561786D02*
X4556429Y3633215D01*
X5485000Y2918929D02*
X5556429Y2847500D01*
X5556429Y2847500D02*
X5485000Y2776072D01*
X5485000Y2776072D02*
X5413572Y2847500D01*
X5413572Y2847500D02*
X5485000Y2918929D01*
X5485000Y2918929D02*
X5485000Y2776072D01*
X6270715Y2776072D02*
X6556429Y2776072D01*
X6556429Y2776072D02*
X6699286Y2847500D01*
X6699286Y2847500D02*
X6770715Y2918929D01*
X6770715Y2918929D02*
X6913572Y3133215D01*
X6913572Y3133215D02*
X6985001Y3418929D01*
X6985001Y3418929D02*
X6985001Y3990358D01*
X6985001Y3990358D02*
X6913572Y4133215D01*
X6913572Y4133215D02*
X6842144Y4204643D01*
X6842144Y4204643D02*
X6699286Y4276072D01*
X6699286Y4276072D02*
X6413572Y4276072D01*
X6413572Y4276072D02*
X6270715Y4204643D01*
X6270715Y4204643D02*
X6199286Y4133215D01*
X6199286Y4133215D02*
X6127858Y3990358D01*
X6127858Y3990358D02*
X6127858Y3633215D01*
X6127858Y3633215D02*
X6199286Y3490358D01*
X6199286Y3490358D02*
X6270715Y3418929D01*
X6270715Y3418929D02*
X6413572Y3347500D01*
X6413572Y3347500D02*
X6699286Y3347500D01*
X6699286Y3347500D02*
X6842144Y3418929D01*
X6842144Y3418929D02*
X6913572Y3490358D01*
X6913572Y3490358D02*
X6985001Y3633215D01*
X7485000Y4276072D02*
X8485000Y4276072D01*
X8485000Y4276072D02*
X7842143Y2776072D01*
X9342143Y4276072D02*
X9485000Y4276072D01*
X9485000Y4276072D02*
X9627857Y4204643D01*
X9627857Y4204643D02*
X9699286Y4133215D01*
X9699286Y4133215D02*
X9770714Y3990358D01*
X9770714Y3990358D02*
X9842143Y3704643D01*
X9842143Y3704643D02*
X9842143Y3347500D01*
X9842143Y3347500D02*
X9770714Y3061786D01*
X9770714Y3061786D02*
X9699286Y2918929D01*
X9699286Y2918929D02*
X9627857Y2847500D01*
X9627857Y2847500D02*
X9485000Y2776072D01*
X9485000Y2776072D02*
X9342143Y2776072D01*
X9342143Y2776072D02*
X9199286Y2847500D01*
X9199286Y2847500D02*
X9127857Y2918929D01*
X9127857Y2918929D02*
X9056428Y3061786D01*
X9056428Y3061786D02*
X8985000Y3347500D01*
X8985000Y3347500D02*
X8985000Y3704643D01*
X8985000Y3704643D02*
X9056428Y3990358D01*
X9056428Y3990358D02*
X9127857Y4133215D01*
X9127857Y4133215D02*
X9199286Y4204643D01*
X9199286Y4204643D02*
X9342143Y4276072D01*
X10770714Y4276072D02*
X10913571Y4276072D01*
X10913571Y4276072D02*
X11056428Y4204643D01*
X11056428Y4204643D02*
X11127857Y4133215D01*
X11127857Y4133215D02*
X11199285Y3990358D01*
X11199285Y3990358D02*
X11270714Y3704643D01*
X11270714Y3704643D02*
X11270714Y3347500D01*
X11270714Y3347500D02*
X11199285Y3061786D01*
X11199285Y3061786D02*
X11127857Y2918929D01*
X11127857Y2918929D02*
X11056428Y2847500D01*
X11056428Y2847500D02*
X10913571Y2776072D01*
X10913571Y2776072D02*
X10770714Y2776072D01*
X10770714Y2776072D02*
X10627857Y2847500D01*
X10627857Y2847500D02*
X10556428Y2918929D01*
X10556428Y2918929D02*
X10484999Y3061786D01*
X10484999Y3061786D02*
X10413571Y3347500D01*
X10413571Y3347500D02*
X10413571Y3704643D01*
X10413571Y3704643D02*
X10484999Y3990358D01*
X10484999Y3990358D02*
X10556428Y4133215D01*
X10556428Y4133215D02*
X10627857Y4204643D01*
X10627857Y4204643D02*
X10770714Y4276072D01*
X13056427Y2776072D02*
X13056427Y3776072D01*
X13056427Y3633215D02*
X13127856Y3704643D01*
X13127856Y3704643D02*
X13270713Y3776072D01*
X13270713Y3776072D02*
X13484999Y3776072D01*
X13484999Y3776072D02*
X13627856Y3704643D01*
X13627856Y3704643D02*
X13699285Y3561786D01*
X13699285Y3561786D02*
X13699285Y2776072D01*
X13699285Y3561786D02*
X13770713Y3704643D01*
X13770713Y3704643D02*
X13913570Y3776072D01*
X13913570Y3776072D02*
X14127856Y3776072D01*
X14127856Y3776072D02*
X14270713Y3704643D01*
X14270713Y3704643D02*
X14342142Y3561786D01*
X14342142Y3561786D02*
X14342142Y2776072D01*
X15056427Y2776072D02*
X15056427Y3776072D01*
X15056427Y3633215D02*
X15127856Y3704643D01*
X15127856Y3704643D02*
X15270713Y3776072D01*
X15270713Y3776072D02*
X15484999Y3776072D01*
X15484999Y3776072D02*
X15627856Y3704643D01*
X15627856Y3704643D02*
X15699285Y3561786D01*
X15699285Y3561786D02*
X15699285Y2776072D01*
X15699285Y3561786D02*
X15770713Y3704643D01*
X15770713Y3704643D02*
X15913570Y3776072D01*
X15913570Y3776072D02*
X16127856Y3776072D01*
X16127856Y3776072D02*
X16270713Y3704643D01*
X16270713Y3704643D02*
X16342142Y3561786D01*
X16342142Y3561786D02*
X16342142Y2776072D01*
D12*
X0Y500000D02*
X0Y2256420D01*
X18970000Y2256420D02*
X18970000Y500000D01*
X0Y1670000D02*
X18970000Y1670000D01*
X0Y1670000D02*
X18970000Y1670000D01*
X0Y1670000D02*
X1126504Y2256421D01*
X0Y1670000D02*
X1126504Y1083579D01*
X18970000Y1670000D02*
X17843496Y1083579D01*
X18970000Y1670000D02*
X17843496Y2256421D01*
D10*
D11*
X-2736072Y-13851426D02*
X-2736072Y-14708569D01*
X-2736072Y-14279998D02*
X-4236072Y-14279998D01*
X-4236072Y-14279998D02*
X-4021786Y-14422855D01*
X-4021786Y-14422855D02*
X-3878929Y-14565712D01*
X-3878929Y-14565712D02*
X-3807500Y-14708569D01*
X-4236072Y-12494284D02*
X-4236072Y-13208570D01*
X-4236072Y-13208570D02*
X-3521786Y-13279998D01*
X-3521786Y-13279998D02*
X-3593215Y-13208570D01*
X-3593215Y-13208570D02*
X-3664643Y-13065713D01*
X-3664643Y-13065713D02*
X-3664643Y-12708570D01*
X-3664643Y-12708570D02*
X-3593215Y-12565713D01*
X-3593215Y-12565713D02*
X-3521786Y-12494284D01*
X-3521786Y-12494284D02*
X-3378929Y-12422855D01*
X-3378929Y-12422855D02*
X-3021786Y-12422855D01*
X-3021786Y-12422855D02*
X-2878929Y-12494284D01*
X-2878929Y-12494284D02*
X-2807500Y-12565713D01*
X-2807500Y-12565713D02*
X-2736072Y-12708570D01*
X-2736072Y-12708570D02*
X-2736072Y-13065713D01*
X-2736072Y-13065713D02*
X-2807500Y-13208570D01*
X-2807500Y-13208570D02*
X-2878929Y-13279998D01*
X-2878929Y-11779999D02*
X-2807500Y-11708570D01*
X-2807500Y-11708570D02*
X-2736072Y-11779999D01*
X-2736072Y-11779999D02*
X-2807500Y-11851427D01*
X-2807500Y-11851427D02*
X-2878929Y-11779999D01*
X-2878929Y-11779999D02*
X-2736072Y-11779999D01*
X-4236072Y-10351427D02*
X-4236072Y-11065713D01*
X-4236072Y-11065713D02*
X-3521786Y-11137141D01*
X-3521786Y-11137141D02*
X-3593215Y-11065713D01*
X-3593215Y-11065713D02*
X-3664643Y-10922856D01*
X-3664643Y-10922856D02*
X-3664643Y-10565713D01*
X-3664643Y-10565713D02*
X-3593215Y-10422856D01*
X-3593215Y-10422856D02*
X-3521786Y-10351427D01*
X-3521786Y-10351427D02*
X-3378929Y-10279998D01*
X-3378929Y-10279998D02*
X-3021786Y-10279998D01*
X-3021786Y-10279998D02*
X-2878929Y-10351427D01*
X-2878929Y-10351427D02*
X-2807500Y-10422856D01*
X-2807500Y-10422856D02*
X-2736072Y-10565713D01*
X-2736072Y-10565713D02*
X-2736072Y-10922856D01*
X-2736072Y-10922856D02*
X-2807500Y-11065713D01*
X-2807500Y-11065713D02*
X-2878929Y-11137141D01*
X-4236072Y-8994285D02*
X-4236072Y-9279999D01*
X-4236072Y-9279999D02*
X-4164643Y-9422856D01*
X-4164643Y-9422856D02*
X-4093215Y-9494285D01*
X-4093215Y-9494285D02*
X-3878929Y-9637142D01*
X-3878929Y-9637142D02*
X-3593215Y-9708570D01*
X-3593215Y-9708570D02*
X-3021786Y-9708570D01*
X-3021786Y-9708570D02*
X-2878929Y-9637142D01*
X-2878929Y-9637142D02*
X-2807500Y-9565713D01*
X-2807500Y-9565713D02*
X-2736072Y-9422856D01*
X-2736072Y-9422856D02*
X-2736072Y-9137142D01*
X-2736072Y-9137142D02*
X-2807500Y-8994285D01*
X-2807500Y-8994285D02*
X-2878929Y-8922856D01*
X-2878929Y-8922856D02*
X-3021786Y-8851427D01*
X-3021786Y-8851427D02*
X-3378929Y-8851427D01*
X-3378929Y-8851427D02*
X-3521786Y-8922856D01*
X-3521786Y-8922856D02*
X-3593215Y-8994285D01*
X-3593215Y-8994285D02*
X-3664643Y-9137142D01*
X-3664643Y-9137142D02*
X-3664643Y-9422856D01*
X-3664643Y-9422856D02*
X-3593215Y-9565713D01*
X-3593215Y-9565713D02*
X-3521786Y-9637142D01*
X-3521786Y-9637142D02*
X-3378929Y-9708570D01*
X-4236072Y-7922856D02*
X-4236072Y-7779999D01*
X-4236072Y-7779999D02*
X-4164643Y-7637142D01*
X-4164643Y-7637142D02*
X-4093215Y-7565714D01*
X-4093215Y-7565714D02*
X-3950358Y-7494285D01*
X-3950358Y-7494285D02*
X-3664643Y-7422856D01*
X-3664643Y-7422856D02*
X-3307500Y-7422856D01*
X-3307500Y-7422856D02*
X-3021786Y-7494285D01*
X-3021786Y-7494285D02*
X-2878929Y-7565714D01*
X-2878929Y-7565714D02*
X-2807500Y-7637142D01*
X-2807500Y-7637142D02*
X-2736072Y-7779999D01*
X-2736072Y-7779999D02*
X-2736072Y-7922856D01*
X-2736072Y-7922856D02*
X-2807500Y-8065714D01*
X-2807500Y-8065714D02*
X-2878929Y-8137142D01*
X-2878929Y-8137142D02*
X-3021786Y-8208571D01*
X-3021786Y-8208571D02*
X-3307500Y-8279999D01*
X-3307500Y-8279999D02*
X-3664643Y-8279999D01*
X-3664643Y-8279999D02*
X-3950358Y-8208571D01*
X-3950358Y-8208571D02*
X-4093215Y-8137142D01*
X-4093215Y-8137142D02*
X-4164643Y-8065714D01*
X-4164643Y-8065714D02*
X-4236072Y-7922856D01*
X-4236072Y-6494285D02*
X-4236072Y-6351428D01*
X-4236072Y-6351428D02*
X-4164643Y-6208571D01*
X-4164643Y-6208571D02*
X-4093215Y-6137143D01*
X-4093215Y-6137143D02*
X-3950358Y-6065714D01*
X-3950358Y-6065714D02*
X-3664643Y-5994285D01*
X-3664643Y-5994285D02*
X-3307500Y-5994285D01*
X-3307500Y-5994285D02*
X-3021786Y-6065714D01*
X-3021786Y-6065714D02*
X-2878929Y-6137143D01*
X-2878929Y-6137143D02*
X-2807500Y-6208571D01*
X-2807500Y-6208571D02*
X-2736072Y-6351428D01*
X-2736072Y-6351428D02*
X-2736072Y-6494285D01*
X-2736072Y-6494285D02*
X-2807500Y-6637143D01*
X-2807500Y-6637143D02*
X-2878929Y-6708571D01*
X-2878929Y-6708571D02*
X-3021786Y-6780000D01*
X-3021786Y-6780000D02*
X-3307500Y-6851428D01*
X-3307500Y-6851428D02*
X-3664643Y-6851428D01*
X-3664643Y-6851428D02*
X-3950358Y-6780000D01*
X-3950358Y-6780000D02*
X-4093215Y-6708571D01*
X-4093215Y-6708571D02*
X-4164643Y-6637143D01*
X-4164643Y-6637143D02*
X-4236072Y-6494285D01*
X-2736072Y-4208572D02*
X-3736072Y-4208572D01*
X-3593215Y-4208572D02*
X-3664643Y-4137143D01*
X-3664643Y-4137143D02*
X-3736072Y-3994286D01*
X-3736072Y-3994286D02*
X-3736072Y-3780000D01*
X-3736072Y-3780000D02*
X-3664643Y-3637143D01*
X-3664643Y-3637143D02*
X-3521786Y-3565715D01*
X-3521786Y-3565715D02*
X-2736072Y-3565715D01*
X-3521786Y-3565715D02*
X-3664643Y-3494286D01*
X-3664643Y-3494286D02*
X-3736072Y-3351429D01*
X-3736072Y-3351429D02*
X-3736072Y-3137143D01*
X-3736072Y-3137143D02*
X-3664643Y-2994286D01*
X-3664643Y-2994286D02*
X-3521786Y-2922857D01*
X-3521786Y-2922857D02*
X-2736072Y-2922857D01*
X-2736072Y-2208572D02*
X-3736072Y-2208572D01*
X-3593215Y-2208572D02*
X-3664643Y-2137143D01*
X-3664643Y-2137143D02*
X-3736072Y-1994286D01*
X-3736072Y-1994286D02*
X-3736072Y-1780000D01*
X-3736072Y-1780000D02*
X-3664643Y-1637143D01*
X-3664643Y-1637143D02*
X-3521786Y-1565715D01*
X-3521786Y-1565715D02*
X-2736072Y-1565715D01*
X-3521786Y-1565715D02*
X-3664643Y-1494286D01*
X-3664643Y-1494286D02*
X-3736072Y-1351429D01*
X-3736072Y-1351429D02*
X-3736072Y-1137143D01*
X-3736072Y-1137143D02*
X-3664643Y-994286D01*
X-3664643Y-994286D02*
X-3521786Y-922857D01*
X-3521786Y-922857D02*
X-2736072Y-922857D01*
D12*
X-500000Y0D02*
X-2216420Y0D01*
X-2216420Y-15560000D02*
X-500000Y-15560000D01*
X-1630000Y0D02*
X-1630000Y-15560000D01*
X-1630000Y0D02*
X-1630000Y-15560000D01*
X-1630000Y0D02*
X-1043579Y-1126504D01*
X-1630000Y0D02*
X-2216421Y-1126504D01*
X-1630000Y-15560000D02*
X-2216421Y-14433496D01*
X-1630000Y-15560000D02*
X-1043579Y-14433496D01*
D13*
%TO.P,R12,1*%
%TO.N,Net-(JP1-B)*%
X5920000Y-1040000D03*
%TO.P,R12,2*%
%TO.N,GND*%
X6940000Y-1040000D03*
%TD*%
D14*
%TO.P,R11,1*%
%TO.N,Net-(U1-GPIO29_ADC3)*%
X12810000Y-11270000D03*
%TO.P,R11,2*%
%TO.N,NS_D0*%
X12810000Y-12290000D03*
%TD*%
%TO.P,R10,1*%
%TO.N,Net-(U1-GPIO28_ADC2)*%
X11530000Y-11270000D03*
%TO.P,R10,2*%
%TO.N,NS_CMD*%
X11530000Y-12290000D03*
%TD*%
%TO.P,R9,1*%
%TO.N,Net-(U1-GPIO27_ADC1)*%
X10250000Y-11270000D03*
%TO.P,R9,2*%
%TO.N,NS_CLK*%
X10250000Y-12290000D03*
%TD*%
D15*
%TO.P,R6,1*%
%TO.N,+3V3*%
X17780000Y-3965000D03*
%TO.P,R6,2*%
%TO.N,QSPI_CS*%
X17780000Y-2945000D03*
%TD*%
D14*
%TO.P,R5,1*%
%TO.N,BOOT*%
X17780000Y-960000D03*
%TO.P,R5,2*%
%TO.N,QSPI_CS*%
X17780000Y-1980000D03*
%TD*%
%TO.P,R3,1*%
%TO.N,BOARD_DET*%
X8725000Y-10670000D03*
%TO.P,R3,2*%
%TO.N,GND*%
X8725000Y-11690000D03*
%TD*%
D15*
%TO.P,R2,1*%
%TO.N,+3V3*%
X4510000Y-10270000D03*
%TO.P,R2,2*%
%TO.N,RST*%
X4510000Y-9250000D03*
%TD*%
%TO.P,R1,1*%
%TO.N,Net-(X1-OSC1)*%
X4480000Y-7010000D03*
%TO.P,R1,2*%
%TO.N,XOUT*%
X4480000Y-5990000D03*
%TD*%
D16*
%TO.P,C14,1*%
%TO.N,+3V3*%
X17780000Y-4940000D03*
%TO.P,C14,2*%
%TO.N,GND*%
X17780000Y-5900000D03*
%TD*%
%TO.P,C13,1*%
%TO.N,+3V3*%
X2220000Y-9185000D03*
%TO.P,C13,2*%
%TO.N,GND*%
X2220000Y-10145000D03*
%TD*%
D17*
%TO.P,C12,1*%
%TO.N,+3V3*%
X9835000Y-1025000D03*
%TO.P,C12,2*%
%TO.N,GND*%
X10795000Y-1025000D03*
%TD*%
%TO.P,C11,1*%
%TO.N,+3V3*%
X12600000Y-1020000D03*
%TO.P,C11,2*%
%TO.N,GND*%
X13560000Y-1020000D03*
%TD*%
%TO.P,C10,1*%
%TO.N,+3V3*%
X15500000Y-7400000D03*
%TO.P,C10,2*%
%TO.N,GND*%
X16460000Y-7400000D03*
%TD*%
%TO.P,C9,1*%
%TO.N,+3V3*%
X13925000Y-11235000D03*
%TO.P,C9,2*%
%TO.N,GND*%
X14885000Y-11235000D03*
%TD*%
%TO.P,C8,1*%
%TO.N,+3V3*%
X13930000Y-12320000D03*
%TO.P,C8,2*%
%TO.N,GND*%
X14890000Y-12320000D03*
%TD*%
D18*
%TO.P,C7,1*%
%TO.N,+3V3*%
X7710000Y-10670000D03*
%TO.P,C7,2*%
%TO.N,GND*%
X6750000Y-10670000D03*
%TD*%
%TO.P,C6,1*%
%TO.N,GND*%
X14885000Y-10167500D03*
%TO.P,C6,2*%
%TO.N,+3V3*%
X13925000Y-10167500D03*
%TD*%
D17*
%TO.P,C5,1*%
%TO.N,+1V1*%
X13925000Y-9100000D03*
%TO.P,C5,2*%
%TO.N,GND*%
X14885000Y-9100000D03*
%TD*%
D16*
%TO.P,C4,1*%
%TO.N,+1V1*%
X3350000Y-9180000D03*
%TO.P,C4,2*%
%TO.N,GND*%
X3350000Y-10140000D03*
%TD*%
D17*
%TO.P,C3,1*%
%TO.N,XIN*%
X1830000Y-3060000D03*
%TO.P,C3,2*%
%TO.N,GND*%
X2790000Y-3060000D03*
%TD*%
%TO.P,C2,1*%
%TO.N,+1V1*%
X15500000Y-6340000D03*
%TO.P,C2,2*%
%TO.N,GND*%
X16460000Y-6340000D03*
%TD*%
%TO.P,C1,1*%
%TO.N,GND*%
X1810000Y-8130000D03*
%TO.P,C1,2*%
%TO.N,Net-(X1-OSC1)*%
X2770000Y-8130000D03*
%TD*%
D19*
%TO.P,J7,1,Pin_1*%
%TO.N,NS_SCL*%
X3687500Y-14150000D03*
%TD*%
D20*
%TO.P,U1,1,IOVDD*%
%TO.N,+3V3*%
X11785000Y-2365000D03*
%TO.P,U1,2,GPIO0*%
%TO.N,unconnected-(U1-GPIO0-Pad2)*%
X11385000Y-2365000D03*
%TO.P,U1,3,GPIO1*%
%TO.N,unconnected-(U1-GPIO1-Pad3)*%
X10985000Y-2365000D03*
%TO.P,U1,4,GPIO2*%
%TO.N,unconnected-(U1-GPIO2-Pad4)*%
X10585000Y-2365000D03*
%TO.P,U1,5,GPIO3*%
%TO.N,unconnected-(U1-GPIO3-Pad5)*%
X10185000Y-2365000D03*
%TO.P,U1,6,GPIO4*%
%TO.N,unconnected-(U1-GPIO4-Pad6)*%
X9785000Y-2365000D03*
%TO.P,U1,7,GPIO5*%
%TO.N,unconnected-(U1-GPIO5-Pad7)*%
X9385000Y-2365000D03*
%TO.P,U1,8,GPIO6*%
%TO.N,unconnected-(U1-GPIO6-Pad8)*%
X8985000Y-2365000D03*
%TO.P,U1,9,GPIO7*%
%TO.N,unconnected-(U1-GPIO7-Pad9)*%
X8585000Y-2365000D03*
%TO.P,U1,10,IOVDD*%
%TO.N,+3V3*%
X8185000Y-2365000D03*
%TO.P,U1,11,GPIO8*%
%TO.N,unconnected-(U1-GPIO8-Pad11)*%
X7785000Y-2365000D03*
%TO.P,U1,12,GPIO9*%
%TO.N,unconnected-(U1-GPIO9-Pad12)*%
X7385000Y-2365000D03*
%TO.P,U1,13,GPIO10*%
%TO.N,unconnected-(U1-GPIO10-Pad13)*%
X6985000Y-2365000D03*
%TO.P,U1,14,GPIO11*%
%TO.N,unconnected-(U1-GPIO11-Pad14)*%
X6585000Y-2365000D03*
D21*
%TO.P,U1,15,GPIO12*%
%TO.N,NS_SDA*%
X5635000Y-3315000D03*
%TO.P,U1,16,GPIO13*%
%TO.N,NS_SCL*%
X5635000Y-3715000D03*
%TO.P,U1,17,GPIO14*%
%TO.N,unconnected-(U1-GPIO14-Pad17)*%
X5635000Y-4115000D03*
%TO.P,U1,18,GPIO15*%
%TO.N,NS_CPU*%
X5635000Y-4515000D03*
%TO.P,U1,19,TESTEN*%
%TO.N,GND*%
X5635000Y-4915000D03*
%TO.P,U1,20,XIN*%
%TO.N,XIN*%
X5635000Y-5315000D03*
%TO.P,U1,21,XOUT*%
%TO.N,XOUT*%
X5635000Y-5715000D03*
%TO.P,U1,22,IOVDD*%
%TO.N,+3V3*%
X5635000Y-6115000D03*
%TO.P,U1,23,DVDD*%
%TO.N,+1V1*%
X5635000Y-6515000D03*
%TO.P,U1,24,SWCLK*%
%TO.N,DBG_CLK*%
X5635000Y-6915000D03*
%TO.P,U1,25,SWD*%
%TO.N,DBG_DAT*%
X5635000Y-7315000D03*
%TO.P,U1,26,RUN*%
%TO.N,RST*%
X5635000Y-7715000D03*
%TO.P,U1,27,GPIO16*%
%TO.N,LED_DATA*%
X5635000Y-8115000D03*
%TO.P,U1,28,GPIO17*%
%TO.N,unconnected-(U1-GPIO17-Pad28)*%
X5635000Y-8515000D03*
D20*
%TO.P,U1,29,GPIO18*%
%TO.N,unconnected-(U1-GPIO18-Pad29)*%
X6585000Y-9465000D03*
%TO.P,U1,30,GPIO19*%
%TO.N,unconnected-(U1-GPIO19-Pad30)*%
X6985000Y-9465000D03*
%TO.P,U1,31,GPIO20*%
%TO.N,unconnected-(U1-GPIO20-Pad31)*%
X7385000Y-9465000D03*
%TO.P,U1,32,GPIO21*%
%TO.N,unconnected-(U1-GPIO21-Pad32)*%
X7785000Y-9465000D03*
%TO.P,U1,33,IOVDD*%
%TO.N,+3V3*%
X8185000Y-9465000D03*
%TO.P,U1,34,GPIO22*%
%TO.N,unconnected-(U1-GPIO22-Pad34)*%
X8585000Y-9465000D03*
%TO.P,U1,35,GPIO23*%
%TO.N,unconnected-(U1-GPIO23-Pad35)*%
X8985000Y-9465000D03*
%TO.P,U1,36,GPIO24*%
%TO.N,unconnected-(U1-GPIO24-Pad36)*%
X9385000Y-9465000D03*
%TO.P,U1,37,GPIO25*%
%TO.N,BOARD_DET*%
X9785000Y-9465000D03*
%TO.P,U1,38,GPIO26_ADC0*%
%TO.N,NS_RST*%
X10185000Y-9465000D03*
%TO.P,U1,39,GPIO27_ADC1*%
%TO.N,Net-(U1-GPIO27_ADC1)*%
X10585000Y-9465000D03*
%TO.P,U1,40,GPIO28_ADC2*%
%TO.N,Net-(U1-GPIO28_ADC2)*%
X10985000Y-9465000D03*
%TO.P,U1,41,GPIO29_ADC3*%
%TO.N,Net-(U1-GPIO29_ADC3)*%
X11385000Y-9465000D03*
%TO.P,U1,42,IOVDD*%
%TO.N,+3V3*%
X11785000Y-9465000D03*
D21*
%TO.P,U1,43,ADC_AVDD*%
X12735000Y-8515000D03*
%TO.P,U1,44,VREG_IN*%
X12735000Y-8115000D03*
%TO.P,U1,45,VREG_VOUT*%
%TO.N,+1V1*%
X12735000Y-7715000D03*
%TO.P,U1,46,USB_DM*%
%TO.N,D-*%
X12735000Y-7315000D03*
%TO.P,U1,47,USB_DP*%
%TO.N,D+*%
X12735000Y-6915000D03*
%TO.P,U1,48,USB_VDD*%
%TO.N,+3V3*%
X12735000Y-6515000D03*
%TO.P,U1,49,IOVDD*%
X12735000Y-6115000D03*
%TO.P,U1,50,DVDD*%
%TO.N,+1V1*%
X12735000Y-5715000D03*
%TO.P,U1,51,QSPI_SD3*%
%TO.N,QSPI_SD3*%
X12735000Y-5315000D03*
%TO.P,U1,52,QSPI_SCLK*%
%TO.N,QSPI_SCK*%
X12735000Y-4915000D03*
%TO.P,U1,53,QSPI_SD0*%
%TO.N,QSPI_SD0*%
X12735000Y-4515000D03*
%TO.P,U1,54,QSPI_SD2*%
%TO.N,QSPI_SD2*%
X12735000Y-4115000D03*
%TO.P,U1,55,QSPI_SD1*%
%TO.N,QSPI_SD1*%
X12735000Y-3715000D03*
%TO.P,U1,56,QSPI_SS*%
%TO.N,QSPI_CS*%
X12735000Y-3315000D03*
D22*
%TO.P,U1,57,GND*%
%TO.N,GND*%
X9185000Y-5915000D03*
%TD*%
D23*
%TO.P,U2,1,CS#*%
%TO.N,QSPI_CS*%
X16655000Y-1895500D03*
%TO.P,U2,2,DO(IO1)*%
%TO.N,QSPI_SD1*%
X16155000Y-1895500D03*
%TO.P,U2,3,WP#(IO2)*%
%TO.N,QSPI_SD2*%
X15655000Y-1895500D03*
%TO.P,U2,4,GND*%
%TO.N,GND*%
X15155000Y-1895500D03*
%TO.P,U2,5,DI(IO0)*%
%TO.N,QSPI_SD0*%
X15155000Y-4909500D03*
%TO.P,U2,6,CLK*%
%TO.N,QSPI_SCK*%
X15655000Y-4909500D03*
%TO.P,U2,7,HOLD#orRESET#(IO3)*%
%TO.N,QSPI_SD3*%
X16155000Y-4909500D03*
%TO.P,U2,8,VCC*%
%TO.N,+3V3*%
X16655000Y-4909500D03*
D24*
%TO.P,U2,9,EP*%
%TO.N,GND*%
X15905000Y-3402500D03*
%TD*%
D25*
%TO.P,J8,1,Pin_1*%
%TO.N,RST*%
X17644248Y-7218121D03*
%TO.P,J8,2,Pin_2*%
%TO.N,BOOT*%
X17644248Y-8488121D03*
%TO.P,J8,3,Pin_3*%
%TO.N,D+*%
X17644248Y-9758121D03*
%TO.P,J8,4,Pin_4*%
%TO.N,D-*%
X17644248Y-11028121D03*
%TO.P,J8,5,Pin_5*%
%TO.N,+3V3*%
X17644248Y-12298121D03*
%TO.P,J8,6,Pin_6*%
%TO.N,GND*%
X17644248Y-13568121D03*
%TD*%
D19*
%TO.P,J1,1,Pin_1*%
%TO.N,NS_CPU*%
X1410000Y-1320000D03*
%TD*%
%TO.P,J4,1,Pin_1*%
%TO.N,NS_CMD*%
X11825000Y-14150000D03*
%TD*%
%TO.P,J2,1,Pin_1*%
%TO.N,NS_RST*%
X8570000Y-14150000D03*
%TD*%
%TO.P,J6,1,Pin_1*%
%TO.N,NS_SDA*%
X5320000Y-14150000D03*
%TD*%
%TO.P,J5,1,Pin_1*%
%TO.N,NS_D0*%
X13452500Y-14150000D03*
%TD*%
%TO.P,J9,1,Pin_1*%
%TO.N,GND*%
X6942500Y-14150000D03*
%TD*%
%TO.P,J3,1,Pin_1*%
%TO.N,NS_CLK*%
X10197500Y-14150000D03*
%TD*%
%TO.P,J10,1,Pin_1*%
%TO.N,+3V3*%
X15080000Y-14150000D03*
%TD*%
D26*
%TO.P,SW1,1,1*%
%TO.N,BOOT*%
X1190000Y-11860000D03*
%TO.P,SW1,2,2*%
%TO.N,GND*%
X4390000Y-11860000D03*
%TD*%
D27*
%TO.P,X1,1,OSC1*%
%TO.N,Net-(X1-OSC1)*%
X3152000Y-6693000D03*
%TO.P,X1,2,2*%
%TO.N,GND*%
X3152000Y-4493000D03*
%TO.P,X1,3,OSC2*%
%TO.N,XIN*%
X1402000Y-4493000D03*
%TO.P,X1,4,4*%
%TO.N,GND*%
X1402000Y-6693000D03*
%TD*%
D28*
%TO.P,U5,1,DOUT*%
%TO.N,unconnected-(U5-DOUT-Pad1)*%
X1070000Y-13685000D03*
%TO.P,U5,2,VDD*%
%TO.N,+3V3*%
X1920000Y-13685000D03*
%TO.P,U5,3,GND*%
%TO.N,GND*%
X1070000Y-14535000D03*
%TO.P,U5,4,DIN*%
%TO.N,LED_DATA*%
X1920000Y-14535000D03*
%TD*%
D29*
%TO.P,JP1,1,A*%
%TO.N,NS_CPU*%
X3135000Y-1570000D03*
D30*
%TO.P,JP1,2,B*%
%TO.N,Net-(JP1-B)*%
X4585000Y-1570000D03*
%TD*%
D31*
%TO.N,GND*%
X10730000Y-8200000D03*
X5700000Y-2420000D03*
X15920000Y-2760000D03*
%TO.N,+3V3*%
X5460000Y-10630000D03*
X12600000Y-2060000D03*
X12735000Y-9300000D03*
X8935000Y-1300000D03*
X6820000Y-5940000D03*
X1160000Y-9340000D03*
X16790000Y-4080000D03*
X14590000Y-6970000D03*
X7710000Y-11590000D03*
%TO.N,BOOT*%
X16850000Y-870000D03*
X2770000Y-11870000D03*
%TO.N,RST*%
X5580000Y-9240000D03*
%TO.N,+1V1*%
X6830000Y-6995000D03*
X11620000Y-7715000D03*
X4270000Y-8270000D03*
%TO.N,NS_SDA*%
X7980000Y-3530000D03*
%TO.N,NS_SCL*%
X7040000Y-4210000D03*
%TD*%
D32*
%TO.N,LED_DATA*%
X5635000Y-8115000D02*
X6145000Y-8115000D01*
X4579800Y-13210000D02*
X3010000Y-13210000D01*
X6145000Y-8115000D02*
X6400000Y-8370000D01*
X6220000Y-8857800D02*
X6220000Y-11569800D01*
X6400000Y-8370000D02*
X6400000Y-8677800D01*
X6400000Y-8677800D02*
X6220000Y-8857800D01*
X6220000Y-11569800D02*
X4579800Y-13210000D01*
X3010000Y-13210000D02*
X2730000Y-13490000D01*
X2730000Y-13490000D02*
X2730000Y-13725000D01*
X2730000Y-13725000D02*
X1920000Y-14535000D01*
D33*
%TO.N,+3V3*%
X1920000Y-13685000D02*
X1920000Y-13680000D01*
X1920000Y-13680000D02*
X3390000Y-12210000D01*
X3390000Y-12210000D02*
X3390000Y-11240000D01*
X3390000Y-11240000D02*
X4360000Y-10270000D01*
X4360000Y-10270000D02*
X4510000Y-10270000D01*
%TO.N,NS_RST*%
X10185000Y-9465000D02*
X10185000Y-10310000D01*
X8570000Y-13710000D02*
X8570000Y-14150000D01*
X10185000Y-10310000D02*
X9480000Y-11015000D01*
X9480000Y-11015000D02*
X9480000Y-12800000D01*
X9480000Y-12800000D02*
X8570000Y-13710000D01*
%TO.N,BOARD_DET*%
X9785000Y-9465000D02*
X9785000Y-10010000D01*
X9785000Y-10010000D02*
X9125000Y-10670000D01*
X9125000Y-10670000D02*
X8725000Y-10670000D01*
D32*
%TO.N,GND*%
X1810000Y-8130000D02*
X1402000Y-7722000D01*
X2790000Y-3060000D02*
X3152000Y-3422000D01*
X1402000Y-7722000D02*
X1402000Y-6693000D01*
D33*
X4510000Y-11160000D02*
X4505000Y-11165000D01*
D32*
X3152000Y-3422000D02*
X3152000Y-4493000D01*
D33*
%TO.N,+3V3*%
X15020000Y-7400000D02*
X15500000Y-7400000D01*
X12600000Y-2060000D02*
X12600000Y-1020000D01*
X14580000Y-6970000D02*
X13725000Y-6115000D01*
X5635000Y-6115000D02*
X6645000Y-6115000D01*
X8185000Y-1835000D02*
X8185000Y-2365000D01*
X8935000Y-1300000D02*
X8720000Y-1300000D01*
D34*
X16905000Y-3965000D02*
X16790000Y-4080000D01*
D33*
X2065000Y-9340000D02*
X2220000Y-9185000D01*
X12600000Y-2060000D02*
X12295000Y-2365000D01*
D34*
X13930000Y-11240000D02*
X13925000Y-11235000D01*
D32*
X5100000Y-10270000D02*
X4510000Y-10270000D01*
D34*
X17780000Y-3965000D02*
X16905000Y-3965000D01*
D33*
X6645000Y-6115000D02*
X6820000Y-5940000D01*
X1160000Y-9340000D02*
X2065000Y-9340000D01*
X8935000Y-1300000D02*
X9210000Y-1025000D01*
X12735000Y-6115000D02*
X12735000Y-6515000D01*
X7710000Y-10670000D02*
X8185000Y-10195000D01*
X8720000Y-1300000D02*
X8185000Y-1835000D01*
X17830500Y-4909500D02*
X16655000Y-4909500D01*
X7710000Y-11590000D02*
X7710000Y-10670000D01*
D32*
X5460000Y-10630000D02*
X5100000Y-10270000D01*
D33*
X8185000Y-10195000D02*
X8185000Y-9465000D01*
X14590000Y-6970000D02*
X14580000Y-6970000D01*
D34*
X13930000Y-12320000D02*
X13930000Y-11240000D01*
D32*
X12735000Y-9300000D02*
X12735000Y-8515000D01*
D33*
X12295000Y-2365000D02*
X11785000Y-2365000D01*
X13725000Y-6115000D02*
X12735000Y-6115000D01*
X9210000Y-1025000D02*
X9835000Y-1025000D01*
D34*
X17780000Y-3965000D02*
X17780000Y-4940000D01*
D33*
X14590000Y-6970000D02*
X15020000Y-7400000D01*
%TO.N,BOOT*%
X2770000Y-11870000D02*
X2760000Y-11860000D01*
X16850000Y-870000D02*
X17690000Y-870000D01*
X2760000Y-11860000D02*
X1190000Y-11860000D01*
X17690000Y-870000D02*
X17780000Y-960000D01*
%TO.N,RST*%
X4510000Y-9250000D02*
X5570000Y-9250000D01*
D32*
X4510000Y-9250000D02*
X4946100Y-8813900D01*
D33*
X5570000Y-9250000D02*
X5580000Y-9240000D01*
D32*
X5107200Y-7715000D02*
X5635000Y-7715000D01*
X4946100Y-8813900D02*
X4946100Y-7876100D01*
X4946100Y-7876100D02*
X5107200Y-7715000D01*
D33*
%TO.N,+1V1*%
X6350000Y-6515000D02*
X6830000Y-6995000D01*
X13925000Y-9100000D02*
X13925000Y-8185000D01*
X3360000Y-9180000D02*
X4270000Y-8270000D01*
X11620000Y-6080000D02*
X11620000Y-7715000D01*
X13455000Y-7715000D02*
X12735000Y-7715000D01*
X13907144Y-5715000D02*
X14532144Y-6340000D01*
X12735000Y-7715000D02*
X11620000Y-7715000D01*
X13925000Y-8185000D02*
X13455000Y-7715000D01*
X12735000Y-5715000D02*
X11985000Y-5715000D01*
X5635000Y-6515000D02*
X6350000Y-6515000D01*
X12735000Y-5715000D02*
X13907144Y-5715000D01*
X3350000Y-9180000D02*
X3360000Y-9180000D01*
X11985000Y-5715000D02*
X11620000Y-6080000D01*
X14532144Y-6340000D02*
X15500000Y-6340000D01*
D32*
%TO.N,D-*%
X17538121Y-11028121D02*
X17644248Y-11028121D01*
X12735000Y-7315000D02*
X13825000Y-7315000D01*
X13825000Y-7315000D02*
X17538121Y-11028121D01*
%TO.N,D+*%
X16598121Y-9758121D02*
X17644248Y-9758121D01*
X12735000Y-6915000D02*
X13755000Y-6915000D01*
X13755000Y-6915000D02*
X16598121Y-9758121D01*
%TO.N,XIN*%
X5635000Y-5315000D02*
X5580000Y-5370000D01*
X1830000Y-3060000D02*
X1402000Y-3488000D01*
X2279000Y-5370000D02*
X1402000Y-4493000D01*
X5580000Y-5370000D02*
X2279000Y-5370000D01*
X1402000Y-3488000D02*
X1402000Y-4493000D01*
%TO.N,Net-(X1-OSC1)*%
X4480000Y-7010000D02*
X3469000Y-7010000D01*
X3152000Y-6693000D02*
X3152000Y-7748000D01*
X3469000Y-7010000D02*
X3152000Y-6693000D01*
X3152000Y-7748000D02*
X2770000Y-8130000D01*
%TO.N,XOUT*%
X5635000Y-5715000D02*
X4755000Y-5715000D01*
X4755000Y-5715000D02*
X4480000Y-5990000D01*
%TO.N,QSPI_CS*%
X16655000Y-1895500D02*
X17695500Y-1895500D01*
X16655000Y-1560000D02*
X16655000Y-1895500D01*
X14150000Y-2490000D02*
X14150000Y-1160000D01*
X15830000Y-735000D02*
X16655000Y-1560000D01*
X17780000Y-1980000D02*
X17780000Y-2945000D01*
X12735000Y-3315000D02*
X13325000Y-3315000D01*
X13325000Y-3315000D02*
X14150000Y-2490000D01*
X14575000Y-735000D02*
X15830000Y-735000D01*
X17695500Y-1895500D02*
X17780000Y-1980000D01*
X14150000Y-1160000D02*
X14575000Y-735000D01*
%TO.N,QSPI_SD3*%
X15655122Y-5739500D02*
X16155000Y-5239622D01*
X14269500Y-5739500D02*
X15655122Y-5739500D01*
X16155000Y-5239622D02*
X16155000Y-4909500D01*
X12735000Y-5315000D02*
X13845000Y-5315000D01*
X13845000Y-5315000D02*
X14269500Y-5739500D01*
%TO.N,QSPI_SCK*%
X15655000Y-5329500D02*
X15655000Y-4909500D01*
X14484500Y-5449500D02*
X15535000Y-5449500D01*
X15535000Y-5449500D02*
X15655000Y-5329500D01*
X12735000Y-4915000D02*
X13950000Y-4915000D01*
X13950000Y-4915000D02*
X14484500Y-5449500D01*
%TO.N,QSPI_SD0*%
X14010000Y-4515000D02*
X14404500Y-4909500D01*
X12735000Y-4515000D02*
X14010000Y-4515000D01*
X14404500Y-4909500D02*
X15155000Y-4909500D01*
%TO.N,QSPI_SD2*%
X12735000Y-4115000D02*
X13605000Y-4115000D01*
X14815500Y-1315000D02*
X15360000Y-1315000D01*
X15360000Y-1315000D02*
X15655000Y-1610000D01*
X14715000Y-1415500D02*
X14815500Y-1315000D01*
X14715000Y-3005000D02*
X14715000Y-1415500D01*
X13605000Y-4115000D02*
X14715000Y-3005000D01*
X15655000Y-1610000D02*
X15655000Y-1895500D01*
%TO.N,QSPI_SD1*%
X14695378Y-1025000D02*
X15704500Y-1025000D01*
X15704500Y-1025000D02*
X16155000Y-1475500D01*
X12735000Y-3715000D02*
X13594878Y-3715000D01*
X14425000Y-1295378D02*
X14695378Y-1025000D01*
X16155000Y-1475500D02*
X16155000Y-1895500D01*
X13594878Y-3715000D02*
X14425000Y-2884878D01*
X14425000Y-2884878D02*
X14425000Y-1295378D01*
D33*
%TO.N,NS_CLK*%
X10250000Y-14097500D02*
X10197500Y-14150000D01*
X10250000Y-12290000D02*
X10250000Y-14097500D01*
%TO.N,NS_CMD*%
X11530000Y-13855000D02*
X11825000Y-14150000D01*
X11530000Y-12290000D02*
X11530000Y-13855000D01*
%TO.N,NS_D0*%
X12810000Y-12290000D02*
X13452500Y-12932500D01*
X13452500Y-12932500D02*
X13452500Y-14150000D01*
%TO.N,Net-(U1-GPIO27_ADC1)*%
X10585000Y-10935000D02*
X10250000Y-11270000D01*
X10585000Y-9465000D02*
X10585000Y-10935000D01*
%TO.N,Net-(U1-GPIO28_ADC2)*%
X10985000Y-9465000D02*
X10985000Y-10725000D01*
X10985000Y-10725000D02*
X11530000Y-11270000D01*
%TO.N,Net-(U1-GPIO29_ADC3)*%
X11385000Y-10092800D02*
X12562200Y-11270000D01*
X12562200Y-11270000D02*
X12810000Y-11270000D01*
X11385000Y-9465000D02*
X11385000Y-10092800D01*
%TO.N,NS_CPU*%
X3135000Y-1570000D02*
X1660000Y-1570000D01*
X4925000Y-4515000D02*
X3560000Y-3150000D01*
X3560000Y-1995000D02*
X3135000Y-1570000D01*
X1660000Y-1570000D02*
X1410000Y-1320000D01*
X3560000Y-3150000D02*
X3560000Y-1995000D01*
X5635000Y-4515000D02*
X4925000Y-4515000D01*
%TO.N,NS_SDA*%
X5635000Y-3315000D02*
X7765000Y-3315000D01*
X7765000Y-3315000D02*
X7980000Y-3530000D01*
%TO.N,NS_SCL*%
X5635000Y-3715000D02*
X6545000Y-3715000D01*
X6545000Y-3715000D02*
X7040000Y-4210000D01*
%TO.N,Net-(JP1-B)*%
X5390000Y-1570000D02*
X5920000Y-1040000D01*
X4585000Y-1570000D02*
X5390000Y-1570000D01*
%TD*%
%TA.AperFunction,Conductor*%
%TO.N,GND*%
G36*
X18915648Y-54352D02*
G01*
X18930000Y-89000D01*
X18930000Y-15461025D01*
X18915648Y-15495673D01*
X18881026Y-15510025D01*
X98994Y-15519974D01*
X64338Y-15505641D01*
X49968Y-15471006D01*
X49567Y-14850499D01*
X48966Y-13919897D01*
X744500Y-13919897D01*
X750330Y-13949213D01*
X772542Y-13982456D01*
X772543Y-13982457D01*
X805787Y-14004669D01*
X835101Y-14010500D01*
X1304898Y-14010499D01*
X1334213Y-14004669D01*
X1367457Y-13982457D01*
X1389669Y-13949213D01*
X1395500Y-13919899D01*
X1395499Y-13450102D01*
X1392525Y-13435148D01*
X1389669Y-13420786D01*
X1367457Y-13387543D01*
X1342919Y-13371148D01*
X1334213Y-13365331D01*
X1334212Y-13365330D01*
X1334211Y-13365330D01*
X1304900Y-13359500D01*
X835102Y-13359500D01*
X805786Y-13365330D01*
X772543Y-13387542D01*
X750330Y-13420788D01*
X744500Y-13450099D01*
X744500Y-13919897D01*
X48966Y-13919897D01*
X48134Y-12631897D01*
X589500Y-12631897D01*
X595330Y-12661213D01*
X606031Y-12677228D01*
X617543Y-12694457D01*
X650787Y-12716669D01*
X680101Y-12722500D01*
X1699898Y-12722499D01*
X1729213Y-12716669D01*
X1762457Y-12694457D01*
X1784669Y-12661213D01*
X1790500Y-12631899D01*
X1790500Y-12098400D01*
X1804852Y-12063752D01*
X1839500Y-12049400D01*
X2438006Y-12049400D01*
X2472654Y-12063752D01*
X2481664Y-12076153D01*
X2482903Y-12078585D01*
X2482904Y-12078587D01*
X2482905Y-12078587D01*
X2561413Y-12157095D01*
X2585748Y-12169494D01*
X2660337Y-12207500D01*
X2686718Y-12211678D01*
X2770000Y-12224869D01*
X2864667Y-12209874D01*
X2879662Y-12207500D01*
X2922493Y-12185676D01*
X2978587Y-12157095D01*
X3057095Y-12078587D01*
X3107500Y-11979661D01*
X3107499Y-11979661D01*
X3107941Y-11978796D01*
X3136458Y-11954440D01*
X3173846Y-11957383D01*
X3198202Y-11985900D01*
X3200600Y-12001042D01*
X3200600Y-12111251D01*
X3186248Y-12145899D01*
X1986998Y-13345148D01*
X1952350Y-13359500D01*
X1685102Y-13359500D01*
X1655786Y-13365330D01*
X1622543Y-13387542D01*
X1600330Y-13420788D01*
X1594500Y-13450099D01*
X1594500Y-13919897D01*
X1600330Y-13949213D01*
X1622542Y-13982456D01*
X1622543Y-13982457D01*
X1655787Y-14004669D01*
X1685101Y-14010500D01*
X2129063Y-14010499D01*
X2163711Y-14024851D01*
X2178063Y-14059499D01*
X2163711Y-14094147D01*
X2062709Y-14195148D01*
X2028061Y-14209500D01*
X1685102Y-14209500D01*
X1655786Y-14215330D01*
X1622543Y-14237542D01*
X1600330Y-14270788D01*
X1594500Y-14300099D01*
X1594500Y-14769897D01*
X1600330Y-14799213D01*
X1615861Y-14822457D01*
X1622543Y-14832457D01*
X1655787Y-14854669D01*
X1685101Y-14860500D01*
X2154898Y-14860499D01*
X2184213Y-14854669D01*
X2217457Y-14832457D01*
X2239669Y-14799213D01*
X2245500Y-14769899D01*
X2245499Y-14426935D01*
X2259850Y-14392289D01*
X2841546Y-13810595D01*
X2841546Y-13810593D01*
X2845578Y-13806562D01*
X2845579Y-13806559D01*
X2854982Y-13797158D01*
X2858230Y-13785034D01*
X2863127Y-13773214D01*
X2869399Y-13762352D01*
X2869399Y-13749059D01*
X2869400Y-13749050D01*
X2869400Y-13568037D01*
X2883751Y-13533390D01*
X2883751Y-13533389D01*
X2903352Y-13513788D01*
X2937999Y-13499436D01*
X2972647Y-13513787D01*
X2987000Y-13548435D01*
X2987000Y-14759897D01*
X2992830Y-14789213D01*
X3015042Y-14822456D01*
X3015043Y-14822457D01*
X3048287Y-14844669D01*
X3077601Y-14850500D01*
X4297398Y-14850499D01*
X4326713Y-14844669D01*
X4359957Y-14822457D01*
X4382169Y-14789213D01*
X4388000Y-14759899D01*
X4388000Y-14759897D01*
X4619500Y-14759897D01*
X4625330Y-14789213D01*
X4647542Y-14822456D01*
X4647543Y-14822457D01*
X4680787Y-14844669D01*
X4710101Y-14850500D01*
X5929898Y-14850499D01*
X5959213Y-14844669D01*
X5992457Y-14822457D01*
X6014669Y-14789213D01*
X6020500Y-14759899D01*
X6020499Y-13540102D01*
X6014669Y-13510787D01*
X6014669Y-13510786D01*
X5992457Y-13477543D01*
X5983633Y-13471647D01*
X5959213Y-13455331D01*
X5959212Y-13455330D01*
X5959211Y-13455330D01*
X5929900Y-13449500D01*
X4710102Y-13449500D01*
X4680786Y-13455330D01*
X4647543Y-13477542D01*
X4625330Y-13510788D01*
X4619500Y-13540099D01*
X4619500Y-14759897D01*
X4388000Y-14759897D01*
X4387999Y-13540102D01*
X4382169Y-13510787D01*
X4382169Y-13510786D01*
X4359957Y-13477543D01*
X4351133Y-13471647D01*
X4326713Y-13455331D01*
X4326712Y-13455330D01*
X4326711Y-13455330D01*
X4297401Y-13449500D01*
X3085936Y-13449500D01*
X3051288Y-13435148D01*
X3036936Y-13400500D01*
X3051287Y-13365853D01*
X3053397Y-13363744D01*
X3088037Y-13349400D01*
X4604178Y-13349400D01*
X4604186Y-13349399D01*
X4617152Y-13349399D01*
X4628015Y-13343126D01*
X4639831Y-13338230D01*
X4651958Y-13334982D01*
X4659773Y-13327167D01*
X4659776Y-13327165D01*
X5473253Y-12513688D01*
X6331546Y-11655395D01*
X6331546Y-11655393D01*
X6335578Y-11651362D01*
X6335579Y-11651359D01*
X6344982Y-11641958D01*
X6348230Y-11629834D01*
X6353127Y-11618014D01*
X6355133Y-11614540D01*
X6359399Y-11607152D01*
X6359399Y-11593859D01*
X6359400Y-11593850D01*
X6359400Y-10143619D01*
X6373752Y-10108971D01*
X6408400Y-10094619D01*
X6435620Y-10102876D01*
X6445787Y-10109669D01*
X6475101Y-10115500D01*
X6694898Y-10115499D01*
X6724213Y-10109669D01*
X6757457Y-10087457D01*
X6757458Y-10087454D01*
X6757777Y-10087242D01*
X6794559Y-10079925D01*
X6812223Y-10087242D01*
X6812541Y-10087454D01*
X6812543Y-10087457D01*
X6845787Y-10109669D01*
X6875101Y-10115500D01*
X7094898Y-10115499D01*
X7124213Y-10109669D01*
X7157457Y-10087457D01*
X7157458Y-10087454D01*
X7157777Y-10087242D01*
X7194559Y-10079925D01*
X7212223Y-10087242D01*
X7212541Y-10087454D01*
X7212543Y-10087457D01*
X7245787Y-10109669D01*
X7275101Y-10115500D01*
X7494898Y-10115499D01*
X7524213Y-10109669D01*
X7557457Y-10087457D01*
X7557458Y-10087454D01*
X7557777Y-10087242D01*
X7594559Y-10079925D01*
X7612223Y-10087242D01*
X7612541Y-10087454D01*
X7612543Y-10087457D01*
X7645787Y-10109669D01*
X7675101Y-10115500D01*
X7878352Y-10115499D01*
X7913000Y-10129851D01*
X7927352Y-10164499D01*
X7913000Y-10199147D01*
X7866999Y-10245148D01*
X7832353Y-10259500D01*
X7546309Y-10259500D01*
X7476162Y-10273453D01*
X7396609Y-10326609D01*
X7343453Y-10406162D01*
X7329500Y-10476309D01*
X7329500Y-10863690D01*
X7343453Y-10933837D01*
X7343453Y-10933838D01*
X7343454Y-10933839D01*
X7396609Y-11013391D01*
X7440352Y-11042619D01*
X7476159Y-11066545D01*
X7476161Y-11066546D01*
X7481158Y-11067540D01*
X7512341Y-11088373D01*
X7520600Y-11115598D01*
X7520600Y-11263422D01*
X7506248Y-11298070D01*
X7422905Y-11381412D01*
X7372499Y-11480337D01*
X7355131Y-11590000D01*
X7372499Y-11699662D01*
X7410166Y-11773585D01*
X7422905Y-11798587D01*
X7501413Y-11877095D01*
X7533554Y-11893472D01*
X7600337Y-11927500D01*
X7626718Y-11931678D01*
X7710000Y-11944869D01*
X7805260Y-11929781D01*
X7819662Y-11927500D01*
X7853053Y-11910486D01*
X7918587Y-11877095D01*
X7997095Y-11798587D01*
X8030486Y-11733053D01*
X8047500Y-11699662D01*
X8053694Y-11660556D01*
X8064869Y-11590000D01*
X8047500Y-11480339D01*
X8047500Y-11480337D01*
X8012627Y-11411896D01*
X7997095Y-11381413D01*
X7918587Y-11302905D01*
X7913752Y-11298070D01*
X7899400Y-11263422D01*
X7899400Y-11115598D01*
X7913752Y-11080950D01*
X7938840Y-11067540D01*
X7943839Y-11066546D01*
X8023391Y-11013391D01*
X8076546Y-10933839D01*
X8085160Y-10890535D01*
X8090500Y-10863690D01*
X8090500Y-10577647D01*
X8104851Y-10543000D01*
X8232109Y-10415742D01*
X8266755Y-10401391D01*
X8301403Y-10415743D01*
X8315755Y-10450391D01*
X8314814Y-10459950D01*
X8304500Y-10511805D01*
X8304500Y-10828197D01*
X8318163Y-10896887D01*
X8326069Y-10908719D01*
X8370214Y-10974786D01*
X8432853Y-11016640D01*
X8448112Y-11026836D01*
X8516802Y-11040500D01*
X8516804Y-11040500D01*
X8933198Y-11040500D01*
X8978990Y-11031390D01*
X9001888Y-11026836D01*
X9079786Y-10974786D01*
X9131836Y-10896888D01*
X9132390Y-10894102D01*
X9153223Y-10862921D01*
X9174963Y-10854969D01*
X9189164Y-10853369D01*
X9191464Y-10851923D01*
X9206637Y-10845637D01*
X9209291Y-10845032D01*
X9232631Y-10826417D01*
X9237099Y-10823248D01*
X9243836Y-10819016D01*
X9247062Y-10815788D01*
X9249461Y-10813391D01*
X9253549Y-10809736D01*
X9276887Y-10791126D01*
X9278068Y-10788672D01*
X9287565Y-10775285D01*
X9890285Y-10172565D01*
X9903672Y-10163068D01*
X9906126Y-10161887D01*
X9908289Y-10159173D01*
X9941111Y-10141031D01*
X9977149Y-10151412D01*
X9995292Y-10184234D01*
X9995600Y-10189723D01*
X9995600Y-10211251D01*
X9981248Y-10245899D01*
X9374715Y-10852431D01*
X9361333Y-10861928D01*
X9358873Y-10863112D01*
X9340265Y-10886445D01*
X9336611Y-10890535D01*
X9330984Y-10896163D01*
X9326750Y-10902901D01*
X9323574Y-10907377D01*
X9304966Y-10930711D01*
X9304360Y-10933368D01*
X9298083Y-10948525D01*
X9296631Y-10950835D01*
X9293288Y-10980493D01*
X9292370Y-10985897D01*
X9290600Y-10993658D01*
X9290600Y-11001611D01*
X9290292Y-11007097D01*
X9286951Y-11036751D01*
X9287556Y-11038481D01*
X9287850Y-11039319D01*
X9290600Y-11055504D01*
X9290600Y-12701251D01*
X9276248Y-12735899D01*
X8576998Y-13435148D01*
X8542350Y-13449500D01*
X7960102Y-13449500D01*
X7930786Y-13455330D01*
X7897543Y-13477542D01*
X7875330Y-13510788D01*
X7869500Y-13540099D01*
X7869500Y-14759897D01*
X7875330Y-14789213D01*
X7897542Y-14822456D01*
X7897543Y-14822457D01*
X7930787Y-14844669D01*
X7960101Y-14850500D01*
X9179898Y-14850499D01*
X9209213Y-14844669D01*
X9242457Y-14822457D01*
X9264669Y-14789213D01*
X9270500Y-14759899D01*
X9270500Y-14759897D01*
X9497000Y-14759897D01*
X9502830Y-14789213D01*
X9525042Y-14822456D01*
X9525043Y-14822457D01*
X9558287Y-14844669D01*
X9587601Y-14850500D01*
X10807398Y-14850499D01*
X10836713Y-14844669D01*
X10869957Y-14822457D01*
X10892169Y-14789213D01*
X10898000Y-14759899D01*
X10897999Y-13540102D01*
X10892169Y-13510787D01*
X10892169Y-13510786D01*
X10869957Y-13477543D01*
X10861133Y-13471647D01*
X10836713Y-13455331D01*
X10836712Y-13455330D01*
X10836711Y-13455330D01*
X10807401Y-13449500D01*
X10807399Y-13449500D01*
X10488400Y-13449500D01*
X10453752Y-13435148D01*
X10439400Y-13400500D01*
X10439400Y-12704451D01*
X10453752Y-12669803D01*
X10478836Y-12656394D01*
X10526888Y-12646836D01*
X10604786Y-12594786D01*
X10656836Y-12516888D01*
X10670500Y-12448197D01*
X11109500Y-12448197D01*
X11123163Y-12516887D01*
X11123164Y-12516888D01*
X11175214Y-12594786D01*
X11230754Y-12631897D01*
X11253110Y-12646835D01*
X11253112Y-12646836D01*
X11301161Y-12656393D01*
X11332342Y-12677228D01*
X11340600Y-12704451D01*
X11340600Y-13400500D01*
X11326248Y-13435148D01*
X11291601Y-13449500D01*
X11215102Y-13449500D01*
X11185786Y-13455330D01*
X11152543Y-13477542D01*
X11130330Y-13510788D01*
X11124500Y-13540099D01*
X11124500Y-14759897D01*
X11130330Y-14789213D01*
X11152542Y-14822456D01*
X11152543Y-14822457D01*
X11185787Y-14844669D01*
X11215101Y-14850500D01*
X12434898Y-14850499D01*
X12464213Y-14844669D01*
X12497457Y-14822457D01*
X12519669Y-14789213D01*
X12525500Y-14759899D01*
X12525499Y-13540102D01*
X12519669Y-13510787D01*
X12519669Y-13510786D01*
X12497457Y-13477543D01*
X12488633Y-13471647D01*
X12464213Y-13455331D01*
X12464212Y-13455330D01*
X12464211Y-13455330D01*
X12434901Y-13449500D01*
X12434899Y-13449500D01*
X11768400Y-13449500D01*
X11733752Y-13435148D01*
X11719400Y-13400500D01*
X11719400Y-12704451D01*
X11733752Y-12669803D01*
X11758836Y-12656394D01*
X11806888Y-12646836D01*
X11884786Y-12594786D01*
X11936836Y-12516888D01*
X11950500Y-12448197D01*
X12389500Y-12448197D01*
X12403163Y-12516887D01*
X12403164Y-12516888D01*
X12455214Y-12594786D01*
X12510759Y-12631900D01*
X12533112Y-12646836D01*
X12601802Y-12660500D01*
X12601804Y-12660500D01*
X12892352Y-12660500D01*
X12927000Y-12674852D01*
X13248748Y-12996600D01*
X13263100Y-13031248D01*
X13263100Y-13400500D01*
X13248748Y-13435148D01*
X13214100Y-13449500D01*
X12842602Y-13449500D01*
X12813286Y-13455330D01*
X12780043Y-13477542D01*
X12757830Y-13510788D01*
X12752000Y-13540099D01*
X12752000Y-14759897D01*
X12757830Y-14789213D01*
X12780042Y-14822456D01*
X12780043Y-14822457D01*
X12813287Y-14844669D01*
X12842601Y-14850500D01*
X14062398Y-14850499D01*
X14091713Y-14844669D01*
X14124957Y-14822457D01*
X14147169Y-14789213D01*
X14153000Y-14759899D01*
X14153000Y-14759897D01*
X14379500Y-14759897D01*
X14385330Y-14789213D01*
X14407542Y-14822456D01*
X14407543Y-14822457D01*
X14440787Y-14844669D01*
X14470101Y-14850500D01*
X15689898Y-14850499D01*
X15719213Y-14844669D01*
X15752457Y-14822457D01*
X15774669Y-14789213D01*
X15780500Y-14759899D01*
X15780499Y-13540102D01*
X15774669Y-13510787D01*
X15774669Y-13510786D01*
X15752457Y-13477543D01*
X15743633Y-13471647D01*
X15719213Y-13455331D01*
X15719212Y-13455330D01*
X15719211Y-13455330D01*
X15689900Y-13449500D01*
X14470102Y-13449500D01*
X14440786Y-13455330D01*
X14407543Y-13477542D01*
X14385330Y-13510788D01*
X14379500Y-13540099D01*
X14379500Y-14759897D01*
X14153000Y-14759897D01*
X14152999Y-13540102D01*
X14147169Y-13510787D01*
X14147169Y-13510786D01*
X14124957Y-13477543D01*
X14116133Y-13471647D01*
X14091713Y-13455331D01*
X14091712Y-13455330D01*
X14091711Y-13455330D01*
X14062401Y-13449500D01*
X14062399Y-13449500D01*
X13690900Y-13449500D01*
X13656252Y-13435148D01*
X13641900Y-13400500D01*
X13641900Y-12973004D01*
X13644650Y-12956819D01*
X13645549Y-12954251D01*
X13642208Y-12924597D01*
X13641900Y-12919111D01*
X13641900Y-12911157D01*
X13640130Y-12903403D01*
X13639210Y-12897992D01*
X13635869Y-12868336D01*
X13635869Y-12868335D01*
X13634421Y-12866031D01*
X13628138Y-12850866D01*
X13627532Y-12848209D01*
X13608924Y-12824875D01*
X13605747Y-12820397D01*
X13601515Y-12813663D01*
X13595896Y-12808044D01*
X13592235Y-12803947D01*
X13573626Y-12780613D01*
X13571166Y-12779428D01*
X13557782Y-12769930D01*
X13244852Y-12456999D01*
X13230500Y-12422351D01*
X13230500Y-12131802D01*
X13216836Y-12063112D01*
X13207674Y-12049400D01*
X13164786Y-11985214D01*
X13112735Y-11950434D01*
X13086887Y-11933163D01*
X13018198Y-11919500D01*
X13018196Y-11919500D01*
X12601804Y-11919500D01*
X12601802Y-11919500D01*
X12533112Y-11933163D01*
X12455214Y-11985214D01*
X12403163Y-12063112D01*
X12389500Y-12131802D01*
X12389500Y-12448197D01*
X11950500Y-12448197D01*
X11950500Y-12448196D01*
X11950500Y-12131804D01*
X11943855Y-12098400D01*
X11936836Y-12063112D01*
X11927674Y-12049400D01*
X11884786Y-11985214D01*
X11832735Y-11950434D01*
X11806887Y-11933163D01*
X11738198Y-11919500D01*
X11738196Y-11919500D01*
X11321804Y-11919500D01*
X11321802Y-11919500D01*
X11253112Y-11933163D01*
X11175214Y-11985214D01*
X11123163Y-12063112D01*
X11109500Y-12131802D01*
X11109500Y-12448197D01*
X10670500Y-12448197D01*
X10670500Y-12448196D01*
X10670500Y-12131804D01*
X10663855Y-12098400D01*
X10656836Y-12063112D01*
X10647674Y-12049400D01*
X10604786Y-11985214D01*
X10552735Y-11950434D01*
X10526887Y-11933163D01*
X10458198Y-11919500D01*
X10458196Y-11919500D01*
X10041804Y-11919500D01*
X10041802Y-11919500D01*
X9973112Y-11933163D01*
X9895214Y-11985214D01*
X9843163Y-12063112D01*
X9829500Y-12131802D01*
X9829500Y-12448197D01*
X9843163Y-12516887D01*
X9843164Y-12516888D01*
X9895214Y-12594786D01*
X9950754Y-12631897D01*
X9973110Y-12646835D01*
X9973112Y-12646836D01*
X10021161Y-12656393D01*
X10052342Y-12677228D01*
X10060600Y-12704451D01*
X10060600Y-13400500D01*
X10046248Y-13435148D01*
X10011600Y-13449500D01*
X9587602Y-13449500D01*
X9558286Y-13455330D01*
X9525043Y-13477542D01*
X9502830Y-13510788D01*
X9497000Y-13540099D01*
X9497000Y-14759897D01*
X9270500Y-14759897D01*
X9270499Y-13540102D01*
X9264669Y-13510787D01*
X9264669Y-13510786D01*
X9242457Y-13477543D01*
X9233637Y-13471650D01*
X9209213Y-13455331D01*
X9209210Y-13455330D01*
X9201790Y-13453854D01*
X9170608Y-13433018D01*
X9163292Y-13396236D01*
X9176700Y-13371150D01*
X9585285Y-12962565D01*
X9598672Y-12953068D01*
X9601126Y-12951887D01*
X9619736Y-12928549D01*
X9623391Y-12924461D01*
X9625988Y-12921864D01*
X9629016Y-12918836D01*
X9633248Y-12912099D01*
X9636417Y-12907631D01*
X9655032Y-12884291D01*
X9655637Y-12881637D01*
X9661923Y-12866465D01*
X9662196Y-12866031D01*
X9663369Y-12864164D01*
X9666710Y-12834505D01*
X9667628Y-12829101D01*
X9669400Y-12821341D01*
X9669400Y-12813387D01*
X9669708Y-12807901D01*
X9669911Y-12806096D01*
X9673049Y-12778249D01*
X9672410Y-12776423D01*
X9672149Y-12775676D01*
X9669400Y-12759494D01*
X9669400Y-11113746D01*
X9683751Y-11079099D01*
X9759592Y-11003258D01*
X9794239Y-10988907D01*
X9828887Y-11003259D01*
X9843239Y-11037907D01*
X9842297Y-11047466D01*
X9829500Y-11111801D01*
X9829500Y-11428197D01*
X9843163Y-11496887D01*
X9853300Y-11512058D01*
X9895214Y-11574786D01*
X9969237Y-11624247D01*
X9973112Y-11626836D01*
X10041802Y-11640500D01*
X10041804Y-11640500D01*
X10458198Y-11640500D01*
X10511801Y-11629837D01*
X10526888Y-11626836D01*
X10604786Y-11574786D01*
X10656836Y-11496888D01*
X10670500Y-11428196D01*
X10670500Y-11137647D01*
X10684849Y-11103003D01*
X10690281Y-11097570D01*
X10703674Y-11088067D01*
X10706126Y-11086887D01*
X10724736Y-11063549D01*
X10728391Y-11059461D01*
X10730789Y-11057062D01*
X10734017Y-11053835D01*
X10738249Y-11047098D01*
X10741418Y-11042630D01*
X10760032Y-11019291D01*
X10760637Y-11016635D01*
X10766923Y-11001464D01*
X10768369Y-10999163D01*
X10769606Y-10988179D01*
X10771710Y-10969502D01*
X10772631Y-10964088D01*
X10774400Y-10956341D01*
X10774400Y-10948393D01*
X10774708Y-10942907D01*
X10777049Y-10922129D01*
X10778050Y-10913248D01*
X10778049Y-10913246D01*
X10779019Y-10904643D01*
X10797160Y-10871820D01*
X10833197Y-10861437D01*
X10853497Y-10872657D01*
X10853798Y-10872034D01*
X10863873Y-10876885D01*
X10863874Y-10876887D01*
X10866331Y-10878070D01*
X10879716Y-10887568D01*
X10991311Y-10999163D01*
X11095148Y-11102999D01*
X11109500Y-11137647D01*
X11109500Y-11428197D01*
X11123163Y-11496887D01*
X11133300Y-11512058D01*
X11175214Y-11574786D01*
X11249237Y-11624247D01*
X11253112Y-11626836D01*
X11321802Y-11640500D01*
X11321804Y-11640500D01*
X11738198Y-11640500D01*
X11791801Y-11629837D01*
X11806888Y-11626836D01*
X11884786Y-11574786D01*
X11936836Y-11496888D01*
X11950500Y-11428196D01*
X11950500Y-11111804D01*
X11950499Y-11111801D01*
X11935915Y-11038481D01*
X11943231Y-11001698D01*
X11974413Y-10980863D01*
X12011196Y-10988179D01*
X12018621Y-10994273D01*
X12375148Y-11350800D01*
X12389500Y-11385448D01*
X12389500Y-11428197D01*
X12403163Y-11496887D01*
X12413300Y-11512058D01*
X12455214Y-11574786D01*
X12529237Y-11624247D01*
X12533112Y-11626836D01*
X12601802Y-11640500D01*
X12601804Y-11640500D01*
X13018198Y-11640500D01*
X13071801Y-11629837D01*
X13086888Y-11626836D01*
X13164786Y-11574786D01*
X13216836Y-11496888D01*
X13227540Y-11443075D01*
X13248374Y-11411896D01*
X13285156Y-11404579D01*
X13305748Y-11414013D01*
X13546448Y-11601907D01*
X13546898Y-11602246D01*
X13550327Y-11604794D01*
X13550792Y-11605128D01*
X13559585Y-11611363D01*
X13580709Y-11621600D01*
X13590904Y-11626541D01*
X13626605Y-11637024D01*
X13655806Y-11660556D01*
X13661800Y-11684039D01*
X13661800Y-11920222D01*
X13647448Y-11954870D01*
X13640023Y-11960964D01*
X13616609Y-11976608D01*
X13563453Y-12056162D01*
X13549500Y-12126309D01*
X13549500Y-12513690D01*
X13563453Y-12583837D01*
X13563453Y-12583838D01*
X13563454Y-12583839D01*
X13616609Y-12663391D01*
X13696161Y-12716546D01*
X13713698Y-12720034D01*
X13766309Y-12730500D01*
X13766312Y-12730500D01*
X14093691Y-12730500D01*
X14138692Y-12721548D01*
X14163839Y-12716546D01*
X14243391Y-12663391D01*
X14296546Y-12583839D01*
X14303523Y-12548763D01*
X14310500Y-12513690D01*
X14310500Y-12126309D01*
X14296546Y-12056162D01*
X14296546Y-12056161D01*
X14243391Y-11976609D01*
X14219977Y-11960964D01*
X14199141Y-11929781D01*
X14198200Y-11920222D01*
X14198200Y-11647113D01*
X14212552Y-11612465D01*
X14214877Y-11610286D01*
X14264533Y-11566742D01*
X14296374Y-11516545D01*
X14315662Y-11449390D01*
X14319760Y-11419642D01*
X14311219Y-9976309D01*
X14308865Y-9954763D01*
X14298215Y-9905214D01*
X14275548Y-9859166D01*
X14230369Y-9805868D01*
X14180713Y-9773188D01*
X14113892Y-9752776D01*
X14084222Y-9748179D01*
X13438967Y-9741166D01*
X13404477Y-9726439D01*
X13390500Y-9692169D01*
X13390500Y-8139735D01*
X13390500Y-8139734D01*
X13390500Y-8138440D01*
X13388139Y-8116247D01*
X13386594Y-8109069D01*
X13385499Y-8098767D01*
X13385499Y-8031646D01*
X13399851Y-7996998D01*
X13434499Y-7982646D01*
X13469145Y-7996997D01*
X13570916Y-8098767D01*
X13721248Y-8249099D01*
X13735600Y-8283747D01*
X13735600Y-8654401D01*
X13721248Y-8689049D01*
X13696160Y-8702459D01*
X13691162Y-8703453D01*
X13611609Y-8756609D01*
X13558453Y-8836162D01*
X13544500Y-8906309D01*
X13544500Y-9293690D01*
X13558453Y-9363837D01*
X13558453Y-9363838D01*
X13558454Y-9363839D01*
X13611609Y-9443391D01*
X13691161Y-9496546D01*
X13708698Y-9500034D01*
X13761309Y-9510500D01*
X13761312Y-9510500D01*
X14088691Y-9510500D01*
X14130778Y-9502127D01*
X14158839Y-9496546D01*
X14238391Y-9443391D01*
X14291546Y-9363839D01*
X14305500Y-9293688D01*
X14305500Y-8906312D01*
X14305500Y-8906309D01*
X14292815Y-8842543D01*
X14291546Y-8836161D01*
X14238391Y-8756609D01*
X14158839Y-8703454D01*
X14158838Y-8703453D01*
X14158837Y-8703453D01*
X14153840Y-8702459D01*
X14122658Y-8681623D01*
X14114400Y-8654401D01*
X14114400Y-8225504D01*
X14117150Y-8209319D01*
X14118049Y-8206751D01*
X14114708Y-8177097D01*
X14114400Y-8171611D01*
X14114400Y-8163657D01*
X14112630Y-8155903D01*
X14111710Y-8150492D01*
X14108369Y-8120836D01*
X14108369Y-8120835D01*
X14106921Y-8118531D01*
X14100638Y-8103366D01*
X14100032Y-8100709D01*
X14081424Y-8077375D01*
X14078247Y-8072897D01*
X14074015Y-8066163D01*
X14068396Y-8060544D01*
X14064735Y-8056447D01*
X14046126Y-8033113D01*
X14043666Y-8031928D01*
X14030282Y-8022430D01*
X13617568Y-7609716D01*
X13608070Y-7596331D01*
X13606887Y-7593874D01*
X13597901Y-7586708D01*
X13583551Y-7575263D01*
X13579455Y-7571602D01*
X13573835Y-7565982D01*
X13567100Y-7561750D01*
X13562621Y-7558572D01*
X13541476Y-7541710D01*
X13523334Y-7508887D01*
X13533716Y-7472850D01*
X13566539Y-7454708D01*
X13572026Y-7454400D01*
X13746963Y-7454400D01*
X13781611Y-7468752D01*
X17072668Y-10759809D01*
X17087020Y-10794457D01*
X17083290Y-10813208D01*
X17059204Y-10871357D01*
X17049425Y-10945640D01*
X17038566Y-11028121D01*
X17059204Y-11184883D01*
X17119712Y-11330962D01*
X17119713Y-11330963D01*
X17215965Y-11456403D01*
X17288497Y-11512058D01*
X17341407Y-11552657D01*
X17431561Y-11590000D01*
X17487485Y-11613165D01*
X17497929Y-11614540D01*
X17530407Y-11633292D01*
X17540114Y-11669517D01*
X17521362Y-11701995D01*
X17497929Y-11711702D01*
X17487485Y-11713076D01*
X17341405Y-11773586D01*
X17215965Y-11869838D01*
X17119713Y-11995278D01*
X17059204Y-12141358D01*
X17053370Y-12185676D01*
X17038566Y-12298121D01*
X17059204Y-12454883D01*
X17119712Y-12600962D01*
X17119713Y-12600963D01*
X17215965Y-12726403D01*
X17280180Y-12775676D01*
X17341407Y-12822657D01*
X17487486Y-12883165D01*
X17644248Y-12903803D01*
X17801010Y-12883165D01*
X17947089Y-12822657D01*
X18072530Y-12726403D01*
X18168784Y-12600962D01*
X18229292Y-12454883D01*
X18249930Y-12298121D01*
X18229292Y-12141359D01*
X18168784Y-11995280D01*
X18078098Y-11877095D01*
X18072530Y-11869838D01*
X17947090Y-11773586D01*
X17947089Y-11773585D01*
X17801010Y-11713077D01*
X17790566Y-11711702D01*
X17758088Y-11692950D01*
X17748381Y-11656725D01*
X17767133Y-11624247D01*
X17790566Y-11614540D01*
X17790856Y-11614501D01*
X17801010Y-11613165D01*
X17947089Y-11552657D01*
X18072530Y-11456403D01*
X18168784Y-11330962D01*
X18229292Y-11184883D01*
X18249930Y-11028121D01*
X18229292Y-10871359D01*
X18168784Y-10725280D01*
X18119384Y-10660900D01*
X18072530Y-10599838D01*
X17966521Y-10518496D01*
X17947089Y-10503585D01*
X17801010Y-10443077D01*
X17790566Y-10441702D01*
X17758088Y-10422950D01*
X17748381Y-10386725D01*
X17767133Y-10354247D01*
X17790566Y-10344540D01*
X17790856Y-10344501D01*
X17801010Y-10343165D01*
X17947089Y-10282657D01*
X18072530Y-10186403D01*
X18168784Y-10060962D01*
X18229292Y-9914883D01*
X18249930Y-9758121D01*
X18229292Y-9601359D01*
X18168784Y-9455280D01*
X18086995Y-9348690D01*
X18072530Y-9329838D01*
X17947090Y-9233586D01*
X17947089Y-9233585D01*
X17801010Y-9173077D01*
X17790566Y-9171702D01*
X17758088Y-9152950D01*
X17748381Y-9116725D01*
X17767133Y-9084247D01*
X17790566Y-9074540D01*
X17790856Y-9074501D01*
X17801010Y-9073165D01*
X17947089Y-9012657D01*
X18072530Y-8916403D01*
X18168784Y-8790962D01*
X18229292Y-8644883D01*
X18249930Y-8488121D01*
X18229292Y-8331359D01*
X18168784Y-8185280D01*
X18114841Y-8114980D01*
X18072530Y-8059838D01*
X17947090Y-7963586D01*
X17947089Y-7963585D01*
X17801010Y-7903077D01*
X17790566Y-7901702D01*
X17758088Y-7882950D01*
X17748381Y-7846725D01*
X17767133Y-7814247D01*
X17790566Y-7804540D01*
X17790856Y-7804501D01*
X17801010Y-7803165D01*
X17947089Y-7742657D01*
X18072530Y-7646403D01*
X18168784Y-7520962D01*
X18229292Y-7374883D01*
X18249930Y-7218121D01*
X18229292Y-7061359D01*
X18168784Y-6915280D01*
X18084242Y-6805102D01*
X18072530Y-6789838D01*
X17947090Y-6693586D01*
X17947089Y-6693585D01*
X17801010Y-6633077D01*
X17644248Y-6612439D01*
X17644247Y-6612439D01*
X17487485Y-6633077D01*
X17384190Y-6675863D01*
X17356202Y-6687457D01*
X17341405Y-6693586D01*
X17215965Y-6789838D01*
X17119713Y-6915278D01*
X17059204Y-7061358D01*
X17046447Y-7158257D01*
X17038566Y-7218121D01*
X17059204Y-7374883D01*
X17119712Y-7520962D01*
X17119713Y-7520963D01*
X17215965Y-7646403D01*
X17238690Y-7663840D01*
X17341407Y-7742657D01*
X17444482Y-7785352D01*
X17487485Y-7803165D01*
X17497929Y-7804540D01*
X17530407Y-7823292D01*
X17540114Y-7859517D01*
X17521362Y-7891995D01*
X17497929Y-7901702D01*
X17487485Y-7903076D01*
X17341405Y-7963586D01*
X17215965Y-8059838D01*
X17119713Y-8185278D01*
X17059204Y-8331358D01*
X17059034Y-8332647D01*
X17038566Y-8488121D01*
X17059204Y-8644883D01*
X17119712Y-8790962D01*
X17126761Y-8800148D01*
X17215965Y-8916403D01*
X17261265Y-8951162D01*
X17341407Y-9012657D01*
X17438574Y-9052905D01*
X17487485Y-9073165D01*
X17497929Y-9074540D01*
X17530407Y-9093292D01*
X17540114Y-9129517D01*
X17521362Y-9161995D01*
X17497929Y-9171702D01*
X17487485Y-9173076D01*
X17357209Y-9227039D01*
X17349249Y-9230337D01*
X17341405Y-9233586D01*
X17215965Y-9329838D01*
X17119713Y-9455278D01*
X17119712Y-9455279D01*
X17119712Y-9455280D01*
X17113944Y-9469206D01*
X17064541Y-9588473D01*
X17038022Y-9614991D01*
X17019271Y-9618721D01*
X16676158Y-9618721D01*
X16641510Y-9604369D01*
X14422432Y-7385291D01*
X14408080Y-7350643D01*
X14422432Y-7315995D01*
X14457080Y-7301643D01*
X14479328Y-7306985D01*
X14480338Y-7307500D01*
X14497707Y-7310250D01*
X14590000Y-7324869D01*
X14640460Y-7316876D01*
X14676925Y-7325631D01*
X14682772Y-7330625D01*
X14857431Y-7505284D01*
X14866929Y-7518668D01*
X14868113Y-7521126D01*
X14891442Y-7539731D01*
X14895541Y-7543394D01*
X14901164Y-7549017D01*
X14907900Y-7553249D01*
X14912383Y-7556430D01*
X14935707Y-7575031D01*
X14935708Y-7575031D01*
X14935709Y-7575032D01*
X14938362Y-7575637D01*
X14953532Y-7581921D01*
X14954705Y-7582657D01*
X14955837Y-7583369D01*
X14985485Y-7586708D01*
X14990897Y-7587627D01*
X14998659Y-7589400D01*
X15006613Y-7589400D01*
X15012098Y-7589707D01*
X15041751Y-7593049D01*
X15043782Y-7592338D01*
X15044324Y-7592149D01*
X15060506Y-7589400D01*
X15078434Y-7589400D01*
X15113082Y-7603752D01*
X15126492Y-7628839D01*
X15128823Y-7640558D01*
X15133454Y-7663840D01*
X15151107Y-7690259D01*
X15186609Y-7743391D01*
X15266161Y-7796546D01*
X15283698Y-7800034D01*
X15336309Y-7810500D01*
X15336312Y-7810500D01*
X15663691Y-7810500D01*
X15707400Y-7801805D01*
X15733839Y-7796546D01*
X15813391Y-7743391D01*
X15866546Y-7663839D01*
X15877312Y-7609716D01*
X15880500Y-7593690D01*
X15880500Y-7206309D01*
X15867752Y-7142226D01*
X15866546Y-7136161D01*
X15813391Y-7056609D01*
X15733839Y-7003454D01*
X15733838Y-7003453D01*
X15733837Y-7003453D01*
X15663691Y-6989500D01*
X15663688Y-6989500D01*
X15336312Y-6989500D01*
X15336309Y-6989500D01*
X15266162Y-7003453D01*
X15186609Y-7056609D01*
X15133453Y-7136162D01*
X15133180Y-7137535D01*
X15112342Y-7168717D01*
X15075560Y-7176031D01*
X15050474Y-7162621D01*
X14950625Y-7062772D01*
X14936273Y-7028124D01*
X14936875Y-7020469D01*
X14944869Y-6970000D01*
X14929125Y-6870600D01*
X14927500Y-6860337D01*
X14889833Y-6786413D01*
X14877095Y-6761413D01*
X14798587Y-6682905D01*
X14748725Y-6657499D01*
X14699662Y-6632500D01*
X14663655Y-6626797D01*
X14631678Y-6607201D01*
X14622923Y-6570735D01*
X14642519Y-6538758D01*
X14671320Y-6529400D01*
X15078434Y-6529400D01*
X15113082Y-6543752D01*
X15126492Y-6568839D01*
X15131685Y-6594949D01*
X15133454Y-6603840D01*
X15148794Y-6626797D01*
X15186609Y-6683391D01*
X15266161Y-6736546D01*
X15283698Y-6740034D01*
X15336309Y-6750500D01*
X15336312Y-6750500D01*
X15663691Y-6750500D01*
X15705778Y-6742127D01*
X15733839Y-6736546D01*
X15813391Y-6683391D01*
X15866546Y-6603839D01*
X15880500Y-6533688D01*
X15880500Y-6146312D01*
X15880500Y-6146311D01*
X15880500Y-6146309D01*
X15866546Y-6076162D01*
X15866546Y-6076161D01*
X15813391Y-5996609D01*
X15733839Y-5943454D01*
X15733838Y-5943453D01*
X15732210Y-5942366D01*
X15711375Y-5911184D01*
X15718691Y-5874401D01*
X15724785Y-5866976D01*
X15727278Y-5864482D01*
X15727280Y-5864482D01*
X15735094Y-5856668D01*
X15735097Y-5856666D01*
X16267412Y-5324351D01*
X16302060Y-5309999D01*
X16304898Y-5309999D01*
X16334213Y-5304169D01*
X16375561Y-5276542D01*
X16376785Y-5278374D01*
X16395426Y-5265911D01*
X16432210Y-5273217D01*
X16437746Y-5278751D01*
X16442541Y-5281955D01*
X16442543Y-5281957D01*
X16475787Y-5304169D01*
X16505101Y-5310000D01*
X16804898Y-5309999D01*
X16834213Y-5304169D01*
X16867457Y-5281957D01*
X16889669Y-5248713D01*
X16895500Y-5219399D01*
X16895500Y-5147899D01*
X16909852Y-5113252D01*
X16944500Y-5098900D01*
X17328334Y-5098900D01*
X17362982Y-5113252D01*
X17376392Y-5138340D01*
X17383453Y-5173838D01*
X17384756Y-5175788D01*
X17436609Y-5253391D01*
X17516161Y-5306546D01*
X17533520Y-5309999D01*
X17586309Y-5320500D01*
X17586312Y-5320500D01*
X17973691Y-5320500D01*
X18017526Y-5311780D01*
X18043839Y-5306546D01*
X18123391Y-5253391D01*
X18176546Y-5173839D01*
X18186348Y-5124560D01*
X18190500Y-5103690D01*
X18190500Y-4776309D01*
X18176922Y-4708050D01*
X18176546Y-4706161D01*
X18123391Y-4626609D01*
X18120833Y-4624900D01*
X18069977Y-4590918D01*
X18049141Y-4559735D01*
X18048200Y-4550176D01*
X18048200Y-4353832D01*
X18062552Y-4319184D01*
X18069977Y-4313090D01*
X18081426Y-4305440D01*
X18134786Y-4269786D01*
X18186836Y-4191888D01*
X18200500Y-4123196D01*
X18200500Y-3806804D01*
X18197735Y-3792905D01*
X18186836Y-3738112D01*
X18175386Y-3720976D01*
X18134786Y-3660214D01*
X18056888Y-3608164D01*
X18056887Y-3608163D01*
X17988198Y-3594500D01*
X17988196Y-3594500D01*
X17571804Y-3594500D01*
X17571802Y-3594500D01*
X17503112Y-3608163D01*
X17425214Y-3660213D01*
X17415319Y-3675023D01*
X17384136Y-3695858D01*
X17374577Y-3696800D01*
X16936242Y-3696800D01*
X16926683Y-3695859D01*
X16905000Y-3691546D01*
X16800353Y-3712361D01*
X16787458Y-3720976D01*
X16767904Y-3728630D01*
X16680337Y-3742500D01*
X16581412Y-3792905D01*
X16502905Y-3871412D01*
X16452499Y-3970337D01*
X16435131Y-4080000D01*
X16452499Y-4189662D01*
X16485965Y-4255341D01*
X16502905Y-4288587D01*
X16581413Y-4367095D01*
X16646038Y-4400023D01*
X16678064Y-4416341D01*
X16702420Y-4444858D01*
X16699477Y-4482246D01*
X16670960Y-4506602D01*
X16655818Y-4509000D01*
X16505102Y-4509000D01*
X16475786Y-4514830D01*
X16434439Y-4542458D01*
X16433214Y-4540625D01*
X16414556Y-4553091D01*
X16377774Y-4545772D01*
X16372244Y-4540242D01*
X16367457Y-4537043D01*
X16334213Y-4514831D01*
X16334212Y-4514830D01*
X16334211Y-4514830D01*
X16304900Y-4509000D01*
X16005102Y-4509000D01*
X15975786Y-4514830D01*
X15934439Y-4542458D01*
X15933214Y-4540625D01*
X15914556Y-4553091D01*
X15877774Y-4545772D01*
X15872244Y-4540242D01*
X15867457Y-4537043D01*
X15834213Y-4514831D01*
X15834212Y-4514830D01*
X15834211Y-4514830D01*
X15804900Y-4509000D01*
X15505102Y-4509000D01*
X15475786Y-4514830D01*
X15434439Y-4542458D01*
X15433214Y-4540625D01*
X15414556Y-4553091D01*
X15377774Y-4545772D01*
X15372244Y-4540242D01*
X15367457Y-4537043D01*
X15334213Y-4514831D01*
X15334212Y-4514830D01*
X15334211Y-4514830D01*
X15304900Y-4509000D01*
X15005102Y-4509000D01*
X14975786Y-4514830D01*
X14942543Y-4537042D01*
X14920330Y-4570288D01*
X14914500Y-4599599D01*
X14914500Y-4721100D01*
X14900148Y-4755748D01*
X14865500Y-4770100D01*
X14482537Y-4770100D01*
X14447889Y-4755748D01*
X14092164Y-4400023D01*
X14092163Y-4400023D01*
X14082159Y-4390019D01*
X14082158Y-4390018D01*
X14070032Y-4386768D01*
X14058219Y-4381875D01*
X14047351Y-4375600D01*
X14028352Y-4375600D01*
X14028350Y-4375600D01*
X13405736Y-4375600D01*
X13371088Y-4361248D01*
X13364996Y-4353826D01*
X13363546Y-4351656D01*
X13357457Y-4342543D01*
X13357454Y-4342541D01*
X13357244Y-4342226D01*
X13349925Y-4305444D01*
X13357244Y-4287774D01*
X13357454Y-4287458D01*
X13357457Y-4287457D01*
X13364995Y-4276174D01*
X13396180Y-4255341D01*
X13405736Y-4254400D01*
X13629378Y-4254400D01*
X13629386Y-4254399D01*
X13642352Y-4254399D01*
X13653215Y-4248126D01*
X13665031Y-4243230D01*
X13677158Y-4239982D01*
X13684973Y-4232167D01*
X13684976Y-4232165D01*
X14256928Y-3660213D01*
X14826546Y-3090595D01*
X14826546Y-3090593D01*
X14830578Y-3086562D01*
X14830579Y-3086559D01*
X14839982Y-3077158D01*
X14843230Y-3065034D01*
X14848127Y-3053214D01*
X14854399Y-3042352D01*
X14854399Y-3029059D01*
X14854400Y-3029050D01*
X14854400Y-1503400D01*
X14868752Y-1468752D01*
X14903400Y-1454400D01*
X15281963Y-1454400D01*
X15316611Y-1468752D01*
X15400148Y-1552289D01*
X15414500Y-1586937D01*
X15414500Y-2205397D01*
X15420330Y-2234713D01*
X15440149Y-2264374D01*
X15442543Y-2267957D01*
X15475787Y-2290169D01*
X15505101Y-2296000D01*
X15804898Y-2295999D01*
X15834213Y-2290169D01*
X15867457Y-2267957D01*
X15867457Y-2267956D01*
X15875561Y-2262542D01*
X15876785Y-2264374D01*
X15895426Y-2251911D01*
X15932210Y-2259217D01*
X15937746Y-2264751D01*
X15942541Y-2267955D01*
X15942543Y-2267957D01*
X15975787Y-2290169D01*
X16005101Y-2296000D01*
X16304898Y-2295999D01*
X16334213Y-2290169D01*
X16367457Y-2267957D01*
X16367457Y-2267956D01*
X16375561Y-2262542D01*
X16376785Y-2264374D01*
X16395426Y-2251911D01*
X16432210Y-2259217D01*
X16437746Y-2264751D01*
X16442541Y-2267955D01*
X16442543Y-2267957D01*
X16475787Y-2290169D01*
X16505101Y-2296000D01*
X16804898Y-2295999D01*
X16834213Y-2290169D01*
X16867457Y-2267957D01*
X16889669Y-2234713D01*
X16895500Y-2205399D01*
X16895500Y-2083899D01*
X16909852Y-2049252D01*
X16944500Y-2034900D01*
X17310500Y-2034900D01*
X17345148Y-2049252D01*
X17359500Y-2083900D01*
X17359499Y-2138197D01*
X17373163Y-2206887D01*
X17373164Y-2206888D01*
X17425214Y-2284786D01*
X17477917Y-2320001D01*
X17503112Y-2336836D01*
X17571802Y-2350500D01*
X17571804Y-2350500D01*
X17591600Y-2350500D01*
X17626248Y-2364852D01*
X17640600Y-2399500D01*
X17640600Y-2525500D01*
X17626248Y-2560148D01*
X17591600Y-2574500D01*
X17571802Y-2574500D01*
X17503112Y-2588163D01*
X17425214Y-2640214D01*
X17373163Y-2718112D01*
X17359500Y-2786802D01*
X17359500Y-3103197D01*
X17373163Y-3171887D01*
X17390434Y-3197734D01*
X17425214Y-3249786D01*
X17468264Y-3278551D01*
X17503112Y-3301836D01*
X17571802Y-3315500D01*
X17571804Y-3315500D01*
X17988198Y-3315500D01*
X18050694Y-3303068D01*
X18056888Y-3301836D01*
X18134786Y-3249786D01*
X18186836Y-3171888D01*
X18196028Y-3125676D01*
X18200500Y-3103197D01*
X18200500Y-2786802D01*
X18186836Y-2718112D01*
X18185832Y-2716609D01*
X18134786Y-2640214D01*
X18056888Y-2588164D01*
X18056887Y-2588163D01*
X17988198Y-2574500D01*
X17988196Y-2574500D01*
X17968400Y-2574500D01*
X17933752Y-2560148D01*
X17919400Y-2525500D01*
X17919400Y-2399500D01*
X17933752Y-2364852D01*
X17968400Y-2350500D01*
X17988198Y-2350500D01*
X18033990Y-2341390D01*
X18056888Y-2336836D01*
X18134786Y-2284786D01*
X18186836Y-2206888D01*
X18197601Y-2152768D01*
X18200500Y-2138197D01*
X18200500Y-1821802D01*
X18186836Y-1753112D01*
X18176011Y-1736912D01*
X18134786Y-1675214D01*
X18068394Y-1630852D01*
X18056887Y-1623163D01*
X17988198Y-1609500D01*
X17988196Y-1609500D01*
X17571804Y-1609500D01*
X17571802Y-1609500D01*
X17503112Y-1623163D01*
X17425213Y-1675214D01*
X17385718Y-1734323D01*
X17354535Y-1755159D01*
X17344976Y-1756100D01*
X16944499Y-1756100D01*
X16909851Y-1741748D01*
X16895499Y-1707100D01*
X16895499Y-1585602D01*
X16889669Y-1556286D01*
X16867457Y-1523043D01*
X16845821Y-1508587D01*
X16834213Y-1500831D01*
X16834212Y-1500830D01*
X16834211Y-1500830D01*
X16800165Y-1494058D01*
X16800545Y-1492144D01*
X16772790Y-1480648D01*
X16766551Y-1474409D01*
X16766546Y-1474405D01*
X16162141Y-870000D01*
X16495131Y-870000D01*
X16512499Y-979662D01*
X16553129Y-1059400D01*
X16562905Y-1078587D01*
X16641413Y-1157095D01*
X16644271Y-1158551D01*
X16740337Y-1207500D01*
X16766718Y-1211678D01*
X16850000Y-1224869D01*
X16945247Y-1209783D01*
X16959662Y-1207500D01*
X16996305Y-1188829D01*
X17058587Y-1157095D01*
X17137095Y-1078587D01*
X17137095Y-1078586D01*
X17141930Y-1073752D01*
X17176578Y-1059400D01*
X17310500Y-1059400D01*
X17345148Y-1073752D01*
X17359500Y-1108400D01*
X17359500Y-1118197D01*
X17373163Y-1186887D01*
X17388462Y-1209783D01*
X17425214Y-1264786D01*
X17503112Y-1316836D01*
X17571802Y-1330500D01*
X17571804Y-1330500D01*
X17988198Y-1330500D01*
X18033990Y-1321390D01*
X18056888Y-1316836D01*
X18134786Y-1264786D01*
X18186836Y-1186888D01*
X18196529Y-1138161D01*
X18200500Y-1118197D01*
X18200500Y-801802D01*
X18186836Y-733112D01*
X18154831Y-685214D01*
X18134786Y-655214D01*
X18081336Y-619500D01*
X18056887Y-603163D01*
X17988198Y-589500D01*
X17988196Y-589500D01*
X17571804Y-589500D01*
X17571802Y-589500D01*
X17503112Y-603163D01*
X17436694Y-647543D01*
X17425214Y-655214D01*
X17422802Y-658822D01*
X17391621Y-679658D01*
X17382061Y-680600D01*
X17176578Y-680600D01*
X17141930Y-666248D01*
X17058587Y-582905D01*
X16959662Y-532499D01*
X16863189Y-517220D01*
X16850000Y-515131D01*
X16849999Y-515131D01*
X16740337Y-532499D01*
X16641412Y-582905D01*
X16562905Y-661412D01*
X16512499Y-760337D01*
X16495131Y-870000D01*
X16162141Y-870000D01*
X15912164Y-620023D01*
X15912163Y-620023D01*
X15902159Y-610019D01*
X15902158Y-610018D01*
X15890032Y-606768D01*
X15878219Y-601875D01*
X15867351Y-595600D01*
X15848352Y-595600D01*
X15848350Y-595600D01*
X14556650Y-595600D01*
X14550622Y-595600D01*
X14550614Y-595601D01*
X14537647Y-595601D01*
X14526776Y-601876D01*
X14514967Y-606768D01*
X14502842Y-610017D01*
X14502839Y-610019D01*
X14483786Y-629070D01*
X14483782Y-629076D01*
X14038454Y-1074405D01*
X14025020Y-1087839D01*
X14025016Y-1087846D01*
X14021768Y-1099966D01*
X14016876Y-1111777D01*
X14010600Y-1122647D01*
X14010600Y-2411962D01*
X13996248Y-2446610D01*
X13341326Y-3101531D01*
X13306678Y-3115883D01*
X13297123Y-3114942D01*
X13294899Y-3114500D01*
X13294896Y-3114500D01*
X12175102Y-3114500D01*
X12145786Y-3120330D01*
X12112543Y-3142542D01*
X12090330Y-3175788D01*
X12084500Y-3205099D01*
X12084500Y-3424897D01*
X12090330Y-3454213D01*
X12112757Y-3487777D01*
X12120073Y-3524560D01*
X12112758Y-3542222D01*
X12112543Y-3542542D01*
X12112543Y-3542543D01*
X12105006Y-3553824D01*
X12090330Y-3575788D01*
X12084500Y-3605099D01*
X12084500Y-3824897D01*
X12090330Y-3854213D01*
X12112757Y-3887777D01*
X12120073Y-3924560D01*
X12112758Y-3942222D01*
X12112543Y-3942542D01*
X12112543Y-3942543D01*
X12111678Y-3943838D01*
X12090330Y-3975788D01*
X12084500Y-4005099D01*
X12084500Y-4224897D01*
X12090330Y-4254213D01*
X12112757Y-4287777D01*
X12120073Y-4324560D01*
X12112758Y-4342222D01*
X12112543Y-4342542D01*
X12112543Y-4342543D01*
X12105004Y-4353826D01*
X12090330Y-4375788D01*
X12084500Y-4405099D01*
X12084500Y-4624897D01*
X12090330Y-4654213D01*
X12112757Y-4687777D01*
X12120073Y-4724560D01*
X12112758Y-4742222D01*
X12112543Y-4742542D01*
X12112543Y-4742543D01*
X12105004Y-4753826D01*
X12090330Y-4775788D01*
X12084500Y-4805099D01*
X12084500Y-5024897D01*
X12090330Y-5054213D01*
X12112757Y-5087777D01*
X12120073Y-5124560D01*
X12112758Y-5142222D01*
X12112543Y-5142542D01*
X12112543Y-5142543D01*
X12108964Y-5147900D01*
X12090330Y-5175788D01*
X12084500Y-5205099D01*
X12084500Y-5424897D01*
X12092232Y-5463774D01*
X12090049Y-5464207D01*
X12094415Y-5486162D01*
X12073578Y-5517344D01*
X12046357Y-5525600D01*
X12025506Y-5525600D01*
X12009324Y-5522851D01*
X12006751Y-5521951D01*
X11977098Y-5525292D01*
X11971612Y-5525600D01*
X11963659Y-5525600D01*
X11955897Y-5527370D01*
X11950493Y-5528288D01*
X11920835Y-5531631D01*
X11918525Y-5533083D01*
X11903368Y-5539360D01*
X11900711Y-5539966D01*
X11877377Y-5558574D01*
X11872901Y-5561750D01*
X11866163Y-5565984D01*
X11860535Y-5571611D01*
X11856445Y-5575265D01*
X11833112Y-5593873D01*
X11831928Y-5596333D01*
X11822431Y-5609715D01*
X11514715Y-5917431D01*
X11501333Y-5926928D01*
X11498873Y-5928112D01*
X11480265Y-5951445D01*
X11476611Y-5955535D01*
X11470984Y-5961163D01*
X11466750Y-5967901D01*
X11463576Y-5972373D01*
X11455975Y-5981905D01*
X11444966Y-5995711D01*
X11444360Y-5998368D01*
X11438083Y-6013525D01*
X11436631Y-6015835D01*
X11433288Y-6045493D01*
X11432370Y-6050897D01*
X11430600Y-6058658D01*
X11430600Y-6066611D01*
X11430292Y-6072097D01*
X11426951Y-6101750D01*
X11427850Y-6104319D01*
X11430600Y-6120504D01*
X11430600Y-7388422D01*
X11416248Y-7423070D01*
X11332905Y-7506412D01*
X11282499Y-7605337D01*
X11265131Y-7715000D01*
X11282499Y-7824662D01*
X11325813Y-7909669D01*
X11332905Y-7923587D01*
X11411413Y-8002095D01*
X11417315Y-8005102D01*
X11510337Y-8052500D01*
X11535259Y-8056447D01*
X11620000Y-8069869D01*
X11714667Y-8054874D01*
X11729662Y-8052500D01*
X11770036Y-8031928D01*
X11828587Y-8002095D01*
X11907095Y-7923587D01*
X11907095Y-7923586D01*
X11911930Y-7918752D01*
X11946578Y-7904400D01*
X12046358Y-7904400D01*
X12081006Y-7918752D01*
X12095358Y-7953400D01*
X12091394Y-7966467D01*
X12092153Y-7966625D01*
X12092142Y-7966678D01*
X12090290Y-7970103D01*
X12087100Y-7980623D01*
X12084917Y-7983890D01*
X12083392Y-7982871D01*
X12078789Y-7991391D01*
X12069997Y-8000170D01*
X12053310Y-8022430D01*
X12051983Y-8024200D01*
X11895685Y-8309958D01*
X11617515Y-8818530D01*
X11588297Y-8842041D01*
X11551011Y-8838006D01*
X11547309Y-8835762D01*
X11524213Y-8820331D01*
X11524212Y-8820330D01*
X11524211Y-8820330D01*
X11494900Y-8814500D01*
X11275102Y-8814500D01*
X11245784Y-8820331D01*
X11212221Y-8842757D01*
X11175439Y-8850073D01*
X11157777Y-8842757D01*
X11156705Y-8842041D01*
X11142052Y-8832250D01*
X11124212Y-8820330D01*
X11094900Y-8814500D01*
X10875102Y-8814500D01*
X10845784Y-8820331D01*
X10812221Y-8842757D01*
X10775439Y-8850073D01*
X10757777Y-8842757D01*
X10756705Y-8842041D01*
X10742052Y-8832250D01*
X10724212Y-8820330D01*
X10694900Y-8814500D01*
X10475102Y-8814500D01*
X10445784Y-8820331D01*
X10412221Y-8842757D01*
X10375439Y-8850073D01*
X10357777Y-8842757D01*
X10356705Y-8842041D01*
X10342052Y-8832250D01*
X10324212Y-8820330D01*
X10294900Y-8814500D01*
X10075102Y-8814500D01*
X10045784Y-8820331D01*
X10012221Y-8842757D01*
X9975439Y-8850073D01*
X9957777Y-8842757D01*
X9956705Y-8842041D01*
X9942052Y-8832250D01*
X9924212Y-8820330D01*
X9894900Y-8814500D01*
X9675102Y-8814500D01*
X9645784Y-8820331D01*
X9612221Y-8842757D01*
X9575439Y-8850073D01*
X9557777Y-8842757D01*
X9556705Y-8842041D01*
X9542052Y-8832250D01*
X9524212Y-8820330D01*
X9494900Y-8814500D01*
X9275102Y-8814500D01*
X9245784Y-8820331D01*
X9212221Y-8842757D01*
X9175439Y-8850073D01*
X9157777Y-8842757D01*
X9156705Y-8842041D01*
X9142052Y-8832250D01*
X9124212Y-8820330D01*
X9094900Y-8814500D01*
X8875102Y-8814500D01*
X8845784Y-8820331D01*
X8812221Y-8842757D01*
X8775439Y-8850073D01*
X8757777Y-8842757D01*
X8756705Y-8842041D01*
X8742052Y-8832250D01*
X8724212Y-8820330D01*
X8694900Y-8814500D01*
X8475102Y-8814500D01*
X8445784Y-8820331D01*
X8412221Y-8842757D01*
X8375439Y-8850073D01*
X8357777Y-8842757D01*
X8356705Y-8842041D01*
X8342052Y-8832250D01*
X8324212Y-8820330D01*
X8294900Y-8814500D01*
X8075102Y-8814500D01*
X8045784Y-8820331D01*
X8012221Y-8842757D01*
X7975439Y-8850073D01*
X7957777Y-8842757D01*
X7956705Y-8842041D01*
X7942052Y-8832250D01*
X7924212Y-8820330D01*
X7894900Y-8814500D01*
X7675102Y-8814500D01*
X7645784Y-8820331D01*
X7612221Y-8842757D01*
X7575439Y-8850073D01*
X7557777Y-8842757D01*
X7556705Y-8842041D01*
X7542052Y-8832250D01*
X7524212Y-8820330D01*
X7494900Y-8814500D01*
X7275102Y-8814500D01*
X7245784Y-8820331D01*
X7212221Y-8842757D01*
X7175439Y-8850073D01*
X7157777Y-8842757D01*
X7156705Y-8842041D01*
X7142052Y-8832250D01*
X7124212Y-8820330D01*
X7094900Y-8814500D01*
X6875102Y-8814500D01*
X6845784Y-8820331D01*
X6812221Y-8842757D01*
X6775439Y-8850073D01*
X6757777Y-8842757D01*
X6756705Y-8842041D01*
X6742052Y-8832250D01*
X6724212Y-8820330D01*
X6694901Y-8814500D01*
X6571546Y-8814500D01*
X6536898Y-8800148D01*
X6522546Y-8765500D01*
X6524215Y-8752819D01*
X6524982Y-8749958D01*
X6528229Y-8737836D01*
X6533125Y-8726021D01*
X6539397Y-8715156D01*
X6539399Y-8715152D01*
X6539399Y-8704104D01*
X6539400Y-8704099D01*
X6539400Y-8345622D01*
X6539399Y-8345614D01*
X6539399Y-8332647D01*
X6539398Y-8332646D01*
X6538654Y-8331358D01*
X6533123Y-8321776D01*
X6528229Y-8309961D01*
X6524982Y-8297842D01*
X6517170Y-8290030D01*
X6517164Y-8290021D01*
X6299851Y-8072709D01*
X6285499Y-8038061D01*
X6285499Y-8005102D01*
X6279669Y-7975786D01*
X6260194Y-7946640D01*
X6257457Y-7942543D01*
X6257456Y-7942542D01*
X6257242Y-7942222D01*
X6249926Y-7905440D01*
X6257242Y-7887776D01*
X6257453Y-7887459D01*
X6257457Y-7887457D01*
X6279669Y-7854213D01*
X6285500Y-7824899D01*
X6285499Y-7605102D01*
X6283266Y-7593873D01*
X6279669Y-7575786D01*
X6264610Y-7553249D01*
X6257457Y-7542543D01*
X6257456Y-7542542D01*
X6257242Y-7542222D01*
X6249926Y-7505440D01*
X6257242Y-7487776D01*
X6257453Y-7487459D01*
X6257457Y-7487457D01*
X6279669Y-7454213D01*
X6285500Y-7424899D01*
X6285499Y-7205102D01*
X6279669Y-7175787D01*
X6279669Y-7175786D01*
X6262119Y-7149521D01*
X6257457Y-7142543D01*
X6257456Y-7142542D01*
X6257242Y-7142222D01*
X6249926Y-7105440D01*
X6257242Y-7087776D01*
X6257453Y-7087459D01*
X6257457Y-7087457D01*
X6279669Y-7054213D01*
X6285500Y-7024899D01*
X6285499Y-6836646D01*
X6299851Y-6801999D01*
X6334499Y-6787647D01*
X6369147Y-6801999D01*
X6469373Y-6902225D01*
X6483725Y-6936873D01*
X6483122Y-6944537D01*
X6475130Y-6994998D01*
X6492499Y-7104662D01*
X6530167Y-7178587D01*
X6542905Y-7203587D01*
X6621413Y-7282095D01*
X6653554Y-7298472D01*
X6720337Y-7332500D01*
X6746718Y-7336678D01*
X6830000Y-7349869D01*
X6924667Y-7334874D01*
X6939662Y-7332500D01*
X6977989Y-7312971D01*
X7038587Y-7282095D01*
X7117095Y-7203587D01*
X7159516Y-7120331D01*
X7167500Y-7104662D01*
X7172012Y-7076174D01*
X7184869Y-6995000D01*
X7170175Y-6902225D01*
X7167500Y-6885337D01*
X7125036Y-6801999D01*
X7117095Y-6786413D01*
X7038587Y-6707905D01*
X7031708Y-6704400D01*
X6939662Y-6657499D01*
X6829998Y-6640130D01*
X6779537Y-6648122D01*
X6743071Y-6639366D01*
X6737225Y-6634373D01*
X6512568Y-6409716D01*
X6503070Y-6396331D01*
X6501887Y-6393874D01*
X6499171Y-6391708D01*
X6481032Y-6358885D01*
X6491415Y-6322848D01*
X6524239Y-6304708D01*
X6529724Y-6304400D01*
X6604494Y-6304400D01*
X6620676Y-6307149D01*
X6621423Y-6307410D01*
X6623249Y-6308049D01*
X6652902Y-6304707D01*
X6658388Y-6304400D01*
X6666339Y-6304400D01*
X6666341Y-6304400D01*
X6674101Y-6302628D01*
X6679505Y-6301710D01*
X6709164Y-6298369D01*
X6711465Y-6296922D01*
X6726638Y-6290637D01*
X6729291Y-6290032D01*
X6729291Y-6290031D01*
X6740198Y-6287543D01*
X6740812Y-6290235D01*
X6758407Y-6285163D01*
X6760588Y-6285458D01*
X6820000Y-6294869D01*
X6914667Y-6279874D01*
X6929662Y-6277500D01*
X6963053Y-6260486D01*
X7028587Y-6227095D01*
X7107095Y-6148587D01*
X7143999Y-6076159D01*
X7157500Y-6049662D01*
X7162857Y-6015836D01*
X7174869Y-5940000D01*
X7157500Y-5830339D01*
X7157500Y-5830337D01*
X7107094Y-5731412D01*
X7028587Y-5652905D01*
X6929662Y-5602499D01*
X6820000Y-5585131D01*
X6710337Y-5602499D01*
X6611412Y-5652905D01*
X6532905Y-5731412D01*
X6482500Y-5830337D01*
X6473959Y-5884265D01*
X6454364Y-5916242D01*
X6425562Y-5925600D01*
X6323642Y-5925600D01*
X6288994Y-5911248D01*
X6274642Y-5876600D01*
X6278489Y-5863914D01*
X6277768Y-5863771D01*
X6284126Y-5831804D01*
X6285500Y-5824899D01*
X6285499Y-5605102D01*
X6281521Y-5585100D01*
X6279669Y-5575786D01*
X6267095Y-5556969D01*
X6257457Y-5542543D01*
X6257456Y-5542542D01*
X6257242Y-5542222D01*
X6249926Y-5505440D01*
X6257242Y-5487776D01*
X6257453Y-5487459D01*
X6257457Y-5487457D01*
X6279669Y-5454213D01*
X6285500Y-5424899D01*
X6285499Y-5205102D01*
X6279669Y-5175787D01*
X6279669Y-5175786D01*
X6257457Y-5142543D01*
X6256977Y-5142222D01*
X6224213Y-5120331D01*
X6224212Y-5120330D01*
X6224211Y-5120330D01*
X6194900Y-5114500D01*
X5075102Y-5114500D01*
X5045786Y-5120330D01*
X5012543Y-5142542D01*
X5005004Y-5153826D01*
X4990331Y-5175787D01*
X4987272Y-5191160D01*
X4966438Y-5222342D01*
X4939215Y-5230600D01*
X2357037Y-5230600D01*
X2322389Y-5216248D01*
X2116851Y-5010710D01*
X2102499Y-4976062D01*
X2102499Y-3783102D01*
X2096669Y-3753786D01*
X2074457Y-3720543D01*
X2062211Y-3712361D01*
X2041213Y-3698331D01*
X2041212Y-3698330D01*
X2041211Y-3698330D01*
X2011901Y-3692500D01*
X2011899Y-3692500D01*
X1590400Y-3692500D01*
X1555752Y-3678148D01*
X1541400Y-3643500D01*
X1541400Y-3566037D01*
X1555750Y-3531390D01*
X1606364Y-3480776D01*
X1641010Y-3466426D01*
X1650561Y-3467366D01*
X1666312Y-3470500D01*
X1666313Y-3470500D01*
X1993691Y-3470500D01*
X2035778Y-3462127D01*
X2063839Y-3456546D01*
X2143391Y-3403391D01*
X2196546Y-3323839D01*
X2203523Y-3288763D01*
X2210500Y-3253690D01*
X2210500Y-2866309D01*
X2196546Y-2796162D01*
X2196546Y-2796161D01*
X2143391Y-2716609D01*
X2063839Y-2663454D01*
X2063838Y-2663453D01*
X2063837Y-2663453D01*
X1993691Y-2649500D01*
X1993688Y-2649500D01*
X1666312Y-2649500D01*
X1666309Y-2649500D01*
X1596162Y-2663453D01*
X1516609Y-2716609D01*
X1463453Y-2796162D01*
X1449500Y-2866309D01*
X1449500Y-3223062D01*
X1435148Y-3257710D01*
X1290454Y-3402405D01*
X1277020Y-3415839D01*
X1277016Y-3415846D01*
X1273768Y-3427966D01*
X1268876Y-3439777D01*
X1262600Y-3450647D01*
X1262600Y-3643500D01*
X1248248Y-3678148D01*
X1213600Y-3692500D01*
X792102Y-3692500D01*
X762786Y-3698330D01*
X729543Y-3720542D01*
X707330Y-3753788D01*
X701500Y-3783099D01*
X701500Y-5202897D01*
X707330Y-5232213D01*
X718355Y-5248713D01*
X729543Y-5265457D01*
X762787Y-5287669D01*
X792101Y-5293500D01*
X1985061Y-5293499D01*
X2019709Y-5307851D01*
X2199024Y-5487166D01*
X2199029Y-5487169D01*
X2206842Y-5494982D01*
X2210121Y-5495860D01*
X2218962Y-5498230D01*
X2230782Y-5503125D01*
X2241648Y-5509399D01*
X2252695Y-5509399D01*
X2252701Y-5509400D01*
X2260650Y-5509400D01*
X2316351Y-5509400D01*
X4645163Y-5509400D01*
X4679811Y-5523752D01*
X4694163Y-5558400D01*
X4679811Y-5593048D01*
X4679808Y-5593051D01*
X4667706Y-5605151D01*
X4633061Y-5619500D01*
X4271802Y-5619500D01*
X4203112Y-5633163D01*
X4125214Y-5685214D01*
X4073163Y-5763112D01*
X4059500Y-5831802D01*
X4059500Y-6148197D01*
X4073163Y-6216887D01*
X4078513Y-6224894D01*
X4125214Y-6294786D01*
X4196207Y-6342222D01*
X4203112Y-6346836D01*
X4271802Y-6360500D01*
X4271804Y-6360500D01*
X4688198Y-6360500D01*
X4733990Y-6351390D01*
X4756888Y-6346836D01*
X4834786Y-6294786D01*
X4886836Y-6216888D01*
X4887441Y-6213841D01*
X4908274Y-6182658D01*
X4945055Y-6175339D01*
X4976240Y-6196172D01*
X4983523Y-6220173D01*
X4983560Y-6220166D01*
X4983633Y-6220533D01*
X4984500Y-6223390D01*
X4984500Y-6224894D01*
X4990330Y-6254213D01*
X5012757Y-6287777D01*
X5020073Y-6324560D01*
X5012758Y-6342222D01*
X5012543Y-6342542D01*
X5012543Y-6342543D01*
X5011678Y-6343838D01*
X4990330Y-6375788D01*
X4984500Y-6405099D01*
X4984500Y-6624897D01*
X4990330Y-6654213D01*
X5012757Y-6687777D01*
X5020073Y-6724560D01*
X5012758Y-6742222D01*
X5012543Y-6742542D01*
X5012543Y-6742543D01*
X4990331Y-6775787D01*
X4990330Y-6775789D01*
X4985913Y-6797995D01*
X4965078Y-6829177D01*
X4928295Y-6836493D01*
X4897113Y-6815658D01*
X4889797Y-6797995D01*
X4886836Y-6783112D01*
X4881942Y-6775788D01*
X4834786Y-6705214D01*
X4782735Y-6670434D01*
X4756887Y-6653163D01*
X4688198Y-6639500D01*
X4688196Y-6639500D01*
X4271804Y-6639500D01*
X4271802Y-6639500D01*
X4203112Y-6653163D01*
X4125214Y-6705214D01*
X4073163Y-6783112D01*
X4063606Y-6831160D01*
X4042771Y-6862342D01*
X4015548Y-6870600D01*
X3901500Y-6870600D01*
X3866852Y-6856248D01*
X3852500Y-6821600D01*
X3852499Y-5983102D01*
X3846669Y-5953786D01*
X3824457Y-5920543D01*
X3810545Y-5911248D01*
X3791213Y-5898331D01*
X3791212Y-5898330D01*
X3791211Y-5898330D01*
X3761900Y-5892500D01*
X2542102Y-5892500D01*
X2512786Y-5898330D01*
X2479543Y-5920542D01*
X2457330Y-5953788D01*
X2451500Y-5983099D01*
X2451500Y-7402897D01*
X2457330Y-7432213D01*
X2479542Y-7465456D01*
X2479543Y-7465457D01*
X2512787Y-7487669D01*
X2542101Y-7493500D01*
X2963600Y-7493499D01*
X2998248Y-7507851D01*
X3012600Y-7542499D01*
X3012600Y-7669961D01*
X2998248Y-7704609D01*
X2993637Y-7709220D01*
X2958989Y-7723572D01*
X2949431Y-7722631D01*
X2933688Y-7719500D01*
X2606312Y-7719500D01*
X2606309Y-7719500D01*
X2536162Y-7733453D01*
X2456609Y-7786609D01*
X2403453Y-7866162D01*
X2389500Y-7936309D01*
X2389500Y-8323690D01*
X2403453Y-8393837D01*
X2403453Y-8393838D01*
X2403454Y-8393839D01*
X2456609Y-8473391D01*
X2536161Y-8526546D01*
X2553698Y-8530034D01*
X2606309Y-8540500D01*
X2606312Y-8540500D01*
X2933691Y-8540500D01*
X2975778Y-8532127D01*
X3003839Y-8526546D01*
X3083391Y-8473391D01*
X3136546Y-8393839D01*
X3148974Y-8331359D01*
X3150500Y-8323690D01*
X3150500Y-7966936D01*
X3164852Y-7932288D01*
X3205145Y-7891995D01*
X3263546Y-7833595D01*
X3263546Y-7833593D01*
X3267578Y-7829562D01*
X3267579Y-7829559D01*
X3276982Y-7820158D01*
X3280230Y-7808034D01*
X3285127Y-7796214D01*
X3288422Y-7790507D01*
X3291399Y-7785352D01*
X3291399Y-7772059D01*
X3291400Y-7772050D01*
X3291400Y-7542499D01*
X3305752Y-7507851D01*
X3340400Y-7493499D01*
X3761898Y-7493499D01*
X3791213Y-7487669D01*
X3793468Y-7486162D01*
X3824457Y-7465457D01*
X3846669Y-7432213D01*
X3852500Y-7402899D01*
X3852500Y-7198400D01*
X3866852Y-7163752D01*
X3901500Y-7149400D01*
X4015548Y-7149400D01*
X4050196Y-7163752D01*
X4063606Y-7188840D01*
X4073163Y-7236887D01*
X4086666Y-7257095D01*
X4125214Y-7314786D01*
X4178878Y-7350643D01*
X4203112Y-7366836D01*
X4271802Y-7380500D01*
X4271804Y-7380500D01*
X4688198Y-7380500D01*
X4733990Y-7371390D01*
X4756888Y-7366836D01*
X4834786Y-7314786D01*
X4886836Y-7236888D01*
X4887441Y-7233842D01*
X4908276Y-7202661D01*
X4945058Y-7195343D01*
X4976241Y-7216178D01*
X4984500Y-7243402D01*
X4984500Y-7424897D01*
X4990330Y-7454213D01*
X5012757Y-7487777D01*
X5020073Y-7524560D01*
X5012758Y-7542222D01*
X5012543Y-7542542D01*
X5012543Y-7542543D01*
X5001833Y-7558572D01*
X4990330Y-7575788D01*
X4984500Y-7605099D01*
X4984500Y-7620262D01*
X4970148Y-7654910D01*
X4834554Y-7790505D01*
X4821120Y-7803939D01*
X4821116Y-7803946D01*
X4817868Y-7816066D01*
X4812976Y-7827877D01*
X4806700Y-7838747D01*
X4806700Y-8735862D01*
X4792348Y-8770510D01*
X4697711Y-8865148D01*
X4663063Y-8879500D01*
X4301802Y-8879500D01*
X4233112Y-8893163D01*
X4155214Y-8945214D01*
X4103163Y-9023112D01*
X4089500Y-9091802D01*
X4089500Y-9408197D01*
X4103163Y-9476887D01*
X4103164Y-9476888D01*
X4155214Y-9554786D01*
X4224914Y-9601358D01*
X4233112Y-9606836D01*
X4301802Y-9620500D01*
X4301804Y-9620500D01*
X4718198Y-9620500D01*
X4763990Y-9611390D01*
X4786888Y-9606836D01*
X4864786Y-9554786D01*
X4916836Y-9476888D01*
X4916836Y-9476887D01*
X4922251Y-9468784D01*
X4922884Y-9469206D01*
X4937282Y-9447658D01*
X4964506Y-9439400D01*
X5263422Y-9439400D01*
X5298070Y-9453752D01*
X5371413Y-9527095D01*
X5403554Y-9543472D01*
X5470337Y-9577500D01*
X5496718Y-9581678D01*
X5580000Y-9594869D01*
X5674667Y-9579874D01*
X5689662Y-9577500D01*
X5734242Y-9554785D01*
X5788587Y-9527095D01*
X5867095Y-9448587D01*
X5910277Y-9363837D01*
X5917500Y-9349662D01*
X5926365Y-9293688D01*
X5934869Y-9240000D01*
X5917500Y-9130339D01*
X5917500Y-9130337D01*
X5880745Y-9058202D01*
X5867095Y-9031413D01*
X5788587Y-8952905D01*
X5775351Y-8946161D01*
X5689662Y-8902499D01*
X5580000Y-8885131D01*
X5470337Y-8902499D01*
X5371412Y-8952905D01*
X5292903Y-9031414D01*
X5291664Y-9033847D01*
X5263146Y-9058202D01*
X5248006Y-9060600D01*
X5014836Y-9060600D01*
X4980188Y-9046248D01*
X4965836Y-9011600D01*
X4980188Y-8976952D01*
X5057646Y-8899495D01*
X5057646Y-8899493D01*
X5061678Y-8895462D01*
X5061679Y-8895459D01*
X5071082Y-8886058D01*
X5074330Y-8873934D01*
X5079227Y-8862114D01*
X5085499Y-8851252D01*
X5085499Y-8837959D01*
X5085500Y-8837950D01*
X5085500Y-8764499D01*
X5099852Y-8729851D01*
X5134500Y-8715499D01*
X6050645Y-8715499D01*
X6085293Y-8729851D01*
X6099645Y-8764499D01*
X6095718Y-8779154D01*
X6096687Y-8779414D01*
X6091768Y-8797766D01*
X6086876Y-8809577D01*
X6080600Y-8820447D01*
X6080600Y-11491762D01*
X6066248Y-11526410D01*
X4536411Y-13056248D01*
X4501763Y-13070600D01*
X2985622Y-13070600D01*
X2985614Y-13070601D01*
X2972647Y-13070601D01*
X2961776Y-13076876D01*
X2949967Y-13081768D01*
X2937842Y-13085017D01*
X2937839Y-13085019D01*
X2918787Y-13104069D01*
X2918782Y-13104077D01*
X2605020Y-13417839D01*
X2605016Y-13417846D01*
X2601768Y-13429966D01*
X2596876Y-13441777D01*
X2590600Y-13452647D01*
X2590600Y-13646962D01*
X2576248Y-13681610D01*
X2329147Y-13928710D01*
X2294499Y-13943062D01*
X2259851Y-13928710D01*
X2245499Y-13894064D01*
X2245499Y-13642646D01*
X2259850Y-13608000D01*
X3495285Y-12372565D01*
X3508672Y-12363068D01*
X3511126Y-12361887D01*
X3529736Y-12338549D01*
X3533391Y-12334461D01*
X3535788Y-12332062D01*
X3539016Y-12328836D01*
X3543248Y-12322099D01*
X3546417Y-12317631D01*
X3565032Y-12294291D01*
X3565637Y-12291637D01*
X3571923Y-12276465D01*
X3571981Y-12276371D01*
X3573369Y-12274164D01*
X3576710Y-12244505D01*
X3577628Y-12239101D01*
X3579400Y-12231341D01*
X3579400Y-12223387D01*
X3579708Y-12217901D01*
X3580880Y-12207500D01*
X3583049Y-12188249D01*
X3582149Y-12185676D01*
X3579400Y-12169494D01*
X3579400Y-11338747D01*
X3593751Y-11304100D01*
X4246207Y-10651643D01*
X4280854Y-10637292D01*
X4290411Y-10638233D01*
X4301804Y-10640500D01*
X4301805Y-10640500D01*
X4718198Y-10640500D01*
X4770987Y-10629999D01*
X4786888Y-10626836D01*
X4864786Y-10574786D01*
X4916836Y-10496888D01*
X4923564Y-10463066D01*
X4926394Y-10448840D01*
X4947229Y-10417658D01*
X4974452Y-10409400D01*
X5021963Y-10409400D01*
X5056611Y-10423752D01*
X5109042Y-10476183D01*
X5123394Y-10510831D01*
X5122791Y-10518496D01*
X5105131Y-10629999D01*
X5122499Y-10739662D01*
X5167611Y-10828197D01*
X5172905Y-10838587D01*
X5251413Y-10917095D01*
X5278132Y-10930709D01*
X5350337Y-10967500D01*
X5376718Y-10971678D01*
X5460000Y-10984869D01*
X5556958Y-10969512D01*
X5569662Y-10967500D01*
X5612564Y-10945640D01*
X5668587Y-10917095D01*
X5747095Y-10838587D01*
X5788779Y-10756777D01*
X5797500Y-10739662D01*
X5804919Y-10692820D01*
X5814869Y-10630000D01*
X5797500Y-10520339D01*
X5797500Y-10520337D01*
X5757091Y-10441031D01*
X5747095Y-10421413D01*
X5668587Y-10342905D01*
X5666367Y-10341774D01*
X5569662Y-10292499D01*
X5473189Y-10277220D01*
X5460000Y-10275131D01*
X5459999Y-10275131D01*
X5348496Y-10292791D01*
X5312029Y-10284036D01*
X5306183Y-10279042D01*
X5182164Y-10155023D01*
X5182163Y-10155023D01*
X5172159Y-10145019D01*
X5172158Y-10145018D01*
X5160032Y-10141768D01*
X5148219Y-10136875D01*
X5137351Y-10130600D01*
X5118352Y-10130600D01*
X5118350Y-10130600D01*
X4974452Y-10130600D01*
X4939804Y-10116248D01*
X4926394Y-10091160D01*
X4916836Y-10043112D01*
X4916835Y-10043112D01*
X4864786Y-9965214D01*
X4786888Y-9913164D01*
X4786887Y-9913163D01*
X4718198Y-9899500D01*
X4718196Y-9899500D01*
X4301804Y-9899500D01*
X4301802Y-9899500D01*
X4233112Y-9913163D01*
X4155214Y-9965214D01*
X4103163Y-10043112D01*
X4089500Y-10111802D01*
X4089500Y-10252351D01*
X4075148Y-10286999D01*
X3284715Y-11077431D01*
X3271333Y-11086928D01*
X3268873Y-11088112D01*
X3250265Y-11111445D01*
X3246611Y-11115535D01*
X3240984Y-11121163D01*
X3236750Y-11127901D01*
X3233576Y-11132373D01*
X3225975Y-11141905D01*
X3214966Y-11155711D01*
X3214360Y-11158368D01*
X3208083Y-11173525D01*
X3206631Y-11175835D01*
X3203288Y-11205493D01*
X3202370Y-11210897D01*
X3200600Y-11218658D01*
X3200600Y-11226611D01*
X3200292Y-11232097D01*
X3196951Y-11261750D01*
X3197850Y-11264319D01*
X3200600Y-11280504D01*
X3200600Y-11738957D01*
X3186248Y-11773605D01*
X3151600Y-11787957D01*
X3116952Y-11773605D01*
X3107941Y-11761203D01*
X3057094Y-11661412D01*
X2978587Y-11582905D01*
X2879662Y-11532499D01*
X2770000Y-11515131D01*
X2660337Y-11532499D01*
X2561412Y-11582905D01*
X2488070Y-11656248D01*
X2453422Y-11670600D01*
X1839499Y-11670600D01*
X1804851Y-11656248D01*
X1790499Y-11621600D01*
X1790499Y-11088102D01*
X1784669Y-11058786D01*
X1762457Y-11025543D01*
X1730759Y-11004364D01*
X1729213Y-11003331D01*
X1729212Y-11003330D01*
X1729211Y-11003330D01*
X1699900Y-10997500D01*
X680102Y-10997500D01*
X650786Y-11003330D01*
X617543Y-11025542D01*
X595330Y-11058788D01*
X589500Y-11088099D01*
X589500Y-12631897D01*
X48134Y-12631897D01*
X46007Y-9340000D01*
X805131Y-9340000D01*
X822499Y-9449662D01*
X861954Y-9527094D01*
X872905Y-9548587D01*
X951413Y-9627095D01*
X983554Y-9643472D01*
X1050337Y-9677500D01*
X1076718Y-9681678D01*
X1160000Y-9694869D01*
X1254667Y-9679874D01*
X1269662Y-9677500D01*
X1303053Y-9660486D01*
X1368587Y-9627095D01*
X1447095Y-9548587D01*
X1447095Y-9548586D01*
X1451930Y-9543752D01*
X1486578Y-9529400D01*
X1908153Y-9529400D01*
X1935376Y-9537658D01*
X1956161Y-9551546D01*
X1973698Y-9555034D01*
X2026309Y-9565500D01*
X2026312Y-9565500D01*
X2413691Y-9565500D01*
X2455778Y-9557127D01*
X2483839Y-9551546D01*
X2563391Y-9498391D01*
X2616546Y-9418839D01*
X2627487Y-9363837D01*
X2630500Y-9348690D01*
X2630500Y-9343690D01*
X2939500Y-9343690D01*
X2953453Y-9413837D01*
X2953453Y-9413838D01*
X2953454Y-9413839D01*
X3006609Y-9493391D01*
X3086161Y-9546546D01*
X3096422Y-9548587D01*
X3156309Y-9560500D01*
X3156312Y-9560500D01*
X3543691Y-9560500D01*
X3588702Y-9551546D01*
X3613839Y-9546546D01*
X3693391Y-9493391D01*
X3746546Y-9413839D01*
X3759505Y-9348690D01*
X3760500Y-9343690D01*
X3760500Y-9067647D01*
X3774851Y-9033000D01*
X4177226Y-8630624D01*
X4211873Y-8616273D01*
X4219530Y-8616875D01*
X4270000Y-8624869D01*
X4364667Y-8609874D01*
X4379662Y-8607500D01*
X4413053Y-8590486D01*
X4478587Y-8557095D01*
X4557095Y-8478587D01*
X4600277Y-8393837D01*
X4607500Y-8379662D01*
X4611101Y-8356927D01*
X4624869Y-8270000D01*
X4610154Y-8177097D01*
X4607500Y-8160337D01*
X4562946Y-8072897D01*
X4557095Y-8061413D01*
X4478587Y-7982905D01*
X4464617Y-7975787D01*
X4379662Y-7932499D01*
X4270000Y-7915131D01*
X4160337Y-7932499D01*
X4061412Y-7982905D01*
X3982905Y-8061412D01*
X3932499Y-8160337D01*
X3915130Y-8270000D01*
X3923122Y-8320461D01*
X3914366Y-8356927D01*
X3909373Y-8362773D01*
X3487000Y-8785148D01*
X3452352Y-8799500D01*
X3156309Y-8799500D01*
X3086162Y-8813453D01*
X3006609Y-8866609D01*
X2953453Y-8946162D01*
X2939500Y-9016309D01*
X2939500Y-9343690D01*
X2630500Y-9343690D01*
X2630500Y-9021309D01*
X2616546Y-8951162D01*
X2616546Y-8951161D01*
X2563391Y-8871609D01*
X2483839Y-8818454D01*
X2483838Y-8818453D01*
X2483837Y-8818453D01*
X2413691Y-8804500D01*
X2413688Y-8804500D01*
X2026312Y-8804500D01*
X2026309Y-8804500D01*
X1956162Y-8818453D01*
X1876609Y-8871609D01*
X1823453Y-8951162D01*
X1809500Y-9021309D01*
X1809500Y-9101600D01*
X1795148Y-9136248D01*
X1760500Y-9150600D01*
X1486578Y-9150600D01*
X1451930Y-9136248D01*
X1368587Y-9052905D01*
X1269662Y-9002499D01*
X1160000Y-8985131D01*
X1050337Y-9002499D01*
X951412Y-9052905D01*
X872905Y-9131412D01*
X822499Y-9230337D01*
X805131Y-9340000D01*
X46007Y-9340000D01*
X44598Y-7158257D01*
X41221Y-1929897D01*
X709500Y-1929897D01*
X715330Y-1959213D01*
X737542Y-1992456D01*
X737543Y-1992457D01*
X770787Y-2014669D01*
X800101Y-2020500D01*
X2019898Y-2020499D01*
X2049213Y-2014669D01*
X2082457Y-1992457D01*
X2104669Y-1959213D01*
X2110500Y-1929899D01*
X2110500Y-1808400D01*
X2124852Y-1773752D01*
X2159500Y-1759400D01*
X2483531Y-1759400D01*
X2518179Y-1773752D01*
X2532531Y-1808400D01*
X2532531Y-2320001D01*
X2540330Y-2359211D01*
X2540330Y-2359212D01*
X2540331Y-2359213D01*
X2562543Y-2392457D01*
X2595787Y-2414669D01*
X2608858Y-2417269D01*
X2634998Y-2422469D01*
X2635000Y-2422469D01*
X3321600Y-2422469D01*
X3356248Y-2436821D01*
X3370600Y-2471469D01*
X3370600Y-3109494D01*
X3367851Y-3125676D01*
X3367045Y-3127981D01*
X3366951Y-3128249D01*
X3368562Y-3142543D01*
X3370292Y-3157901D01*
X3370600Y-3163387D01*
X3370600Y-3171341D01*
X3371614Y-3175787D01*
X3372368Y-3179089D01*
X3373288Y-3184502D01*
X3376631Y-3214164D01*
X3378081Y-3216471D01*
X3384361Y-3231632D01*
X3384968Y-3234291D01*
X3400438Y-3253690D01*
X3403572Y-3257620D01*
X3406750Y-3262100D01*
X3410982Y-3268835D01*
X3416602Y-3274455D01*
X3420263Y-3278551D01*
X3431881Y-3293118D01*
X3438874Y-3301887D01*
X3441331Y-3303070D01*
X3454716Y-3312568D01*
X4762430Y-4620282D01*
X4771928Y-4633666D01*
X4773113Y-4636126D01*
X4796447Y-4654735D01*
X4800544Y-4658396D01*
X4806165Y-4664017D01*
X4812903Y-4668251D01*
X4817377Y-4671426D01*
X4837881Y-4687777D01*
X4840709Y-4690032D01*
X4843362Y-4690637D01*
X4858532Y-4696921D01*
X4859705Y-4697657D01*
X4860837Y-4698369D01*
X4890499Y-4701710D01*
X4895907Y-4702630D01*
X4899456Y-4703440D01*
X4903658Y-4704400D01*
X4903659Y-4704400D01*
X4911607Y-4704400D01*
X4917093Y-4704708D01*
X4946752Y-4708050D01*
X4949324Y-4707149D01*
X4965508Y-4704400D01*
X5023038Y-4704400D01*
X5036110Y-4708365D01*
X5036229Y-4707768D01*
X5045787Y-4709669D01*
X5075101Y-4715500D01*
X6194898Y-4715499D01*
X6224213Y-4709669D01*
X6257457Y-4687457D01*
X6279669Y-4654213D01*
X6285500Y-4624899D01*
X6285499Y-4405102D01*
X6279669Y-4375787D01*
X6279669Y-4375786D01*
X6264996Y-4353826D01*
X6257457Y-4342543D01*
X6257456Y-4342542D01*
X6257242Y-4342222D01*
X6249926Y-4305440D01*
X6257242Y-4287776D01*
X6257453Y-4287459D01*
X6257457Y-4287457D01*
X6279669Y-4254213D01*
X6285500Y-4224899D01*
X6285499Y-4005102D01*
X6284765Y-4001412D01*
X6277768Y-3966226D01*
X6279950Y-3965792D01*
X6275585Y-3943838D01*
X6296422Y-3912656D01*
X6323643Y-3904400D01*
X6446252Y-3904400D01*
X6480900Y-3918752D01*
X6679373Y-4117225D01*
X6693725Y-4151873D01*
X6693122Y-4159537D01*
X6685130Y-4209998D01*
X6702499Y-4319662D01*
X6746034Y-4405102D01*
X6752905Y-4418587D01*
X6831413Y-4497095D01*
X6850072Y-4506602D01*
X6930337Y-4547500D01*
X6956718Y-4551678D01*
X7040000Y-4564869D01*
X7134667Y-4549874D01*
X7149662Y-4547500D01*
X7183053Y-4530486D01*
X7248587Y-4497095D01*
X7327095Y-4418587D01*
X7375004Y-4324560D01*
X7377500Y-4319662D01*
X7382550Y-4287776D01*
X7394869Y-4210000D01*
X7377500Y-4100339D01*
X7377500Y-4100337D01*
X7343472Y-4033554D01*
X7327095Y-4001413D01*
X7248587Y-3922905D01*
X7240436Y-3918752D01*
X7149662Y-3872499D01*
X7039998Y-3855130D01*
X6989537Y-3863122D01*
X6953071Y-3854366D01*
X6947225Y-3849373D01*
X6707568Y-3609716D01*
X6698070Y-3596331D01*
X6696887Y-3593874D01*
X6694171Y-3591708D01*
X6676032Y-3558885D01*
X6686415Y-3522848D01*
X6719239Y-3504708D01*
X6724724Y-3504400D01*
X7579226Y-3504400D01*
X7613874Y-3518752D01*
X7627623Y-3545735D01*
X7642499Y-3639662D01*
X7683711Y-3720543D01*
X7692905Y-3738587D01*
X7771413Y-3817095D01*
X7789962Y-3826546D01*
X7870337Y-3867500D01*
X7895038Y-3871412D01*
X7980000Y-3884869D01*
X8074667Y-3869874D01*
X8089662Y-3867500D01*
X8143668Y-3839982D01*
X8188587Y-3817095D01*
X8267095Y-3738587D01*
X8315544Y-3643500D01*
X8317500Y-3639662D01*
X8325095Y-3591709D01*
X8334869Y-3530000D01*
X8320579Y-3439777D01*
X8317500Y-3420337D01*
X8267094Y-3321412D01*
X8188587Y-3242905D01*
X8089662Y-3192499D01*
X7979998Y-3175130D01*
X7929538Y-3183122D01*
X7893072Y-3174366D01*
X7887226Y-3169373D01*
X7883835Y-3165982D01*
X7877100Y-3161750D01*
X7872620Y-3158572D01*
X7871035Y-3157308D01*
X7849291Y-3139968D01*
X7846632Y-3139361D01*
X7831473Y-3133081D01*
X7829164Y-3131631D01*
X7813895Y-3129910D01*
X7799502Y-3128288D01*
X7794093Y-3127368D01*
X7786341Y-3125600D01*
X7778388Y-3125600D01*
X7772902Y-3125292D01*
X7743249Y-3121951D01*
X7743248Y-3121951D01*
X7740676Y-3122851D01*
X7724494Y-3125600D01*
X6246962Y-3125600D01*
X6233889Y-3121634D01*
X6233771Y-3122232D01*
X6194900Y-3114500D01*
X5075102Y-3114500D01*
X5045786Y-3120330D01*
X5012543Y-3142542D01*
X4990330Y-3175788D01*
X4984500Y-3205099D01*
X4984500Y-3424897D01*
X4990330Y-3454213D01*
X5012757Y-3487777D01*
X5020073Y-3524560D01*
X5012758Y-3542222D01*
X5012543Y-3542542D01*
X5012543Y-3542543D01*
X5005006Y-3553824D01*
X4990330Y-3575788D01*
X4984500Y-3605099D01*
X4984500Y-3824897D01*
X4990330Y-3854213D01*
X5012757Y-3887777D01*
X5020073Y-3924560D01*
X5012758Y-3942222D01*
X5012543Y-3942542D01*
X5012543Y-3942543D01*
X5011678Y-3943838D01*
X4990330Y-3975788D01*
X4984500Y-4005099D01*
X4984500Y-4188352D01*
X4970148Y-4223000D01*
X4935500Y-4237352D01*
X4900852Y-4223000D01*
X4376183Y-3698331D01*
X3763752Y-3085899D01*
X3749400Y-3051251D01*
X3749400Y-2924897D01*
X6384500Y-2924897D01*
X6390330Y-2954213D01*
X6407510Y-2979925D01*
X6412543Y-2987457D01*
X6445787Y-3009669D01*
X6475101Y-3015500D01*
X6694898Y-3015499D01*
X6724213Y-3009669D01*
X6757457Y-2987457D01*
X6757458Y-2987454D01*
X6757777Y-2987242D01*
X6794559Y-2979925D01*
X6812223Y-2987242D01*
X6812541Y-2987454D01*
X6812543Y-2987457D01*
X6845787Y-3009669D01*
X6875101Y-3015500D01*
X7094898Y-3015499D01*
X7124213Y-3009669D01*
X7157457Y-2987457D01*
X7157458Y-2987454D01*
X7157777Y-2987242D01*
X7194559Y-2979925D01*
X7212223Y-2987242D01*
X7212541Y-2987454D01*
X7212543Y-2987457D01*
X7245787Y-3009669D01*
X7275101Y-3015500D01*
X7494898Y-3015499D01*
X7524213Y-3009669D01*
X7557457Y-2987457D01*
X7557458Y-2987454D01*
X7557777Y-2987242D01*
X7594559Y-2979925D01*
X7612223Y-2987242D01*
X7612541Y-2987454D01*
X7612543Y-2987457D01*
X7645787Y-3009669D01*
X7675101Y-3015500D01*
X7894898Y-3015499D01*
X7924213Y-3009669D01*
X7957457Y-2987457D01*
X7957458Y-2987454D01*
X7957777Y-2987242D01*
X7994559Y-2979925D01*
X8012223Y-2987242D01*
X8012541Y-2987454D01*
X8012543Y-2987457D01*
X8045787Y-3009669D01*
X8075101Y-3015500D01*
X8294898Y-3015499D01*
X8324213Y-3009669D01*
X8357457Y-2987457D01*
X8357458Y-2987454D01*
X8357777Y-2987242D01*
X8394559Y-2979925D01*
X8412223Y-2987242D01*
X8412541Y-2987454D01*
X8412543Y-2987457D01*
X8445787Y-3009669D01*
X8475101Y-3015500D01*
X8694898Y-3015499D01*
X8724213Y-3009669D01*
X8757457Y-2987457D01*
X8757458Y-2987454D01*
X8757777Y-2987242D01*
X8794559Y-2979925D01*
X8812223Y-2987242D01*
X8812541Y-2987454D01*
X8812543Y-2987457D01*
X8845787Y-3009669D01*
X8875101Y-3015500D01*
X9094898Y-3015499D01*
X9124213Y-3009669D01*
X9157457Y-2987457D01*
X9157458Y-2987454D01*
X9157777Y-2987242D01*
X9194559Y-2979925D01*
X9212223Y-2987242D01*
X9212541Y-2987454D01*
X9212543Y-2987457D01*
X9245787Y-3009669D01*
X9275101Y-3015500D01*
X9494898Y-3015499D01*
X9524213Y-3009669D01*
X9557457Y-2987457D01*
X9557458Y-2987454D01*
X9557777Y-2987242D01*
X9594559Y-2979925D01*
X9612223Y-2987242D01*
X9612541Y-2987454D01*
X9612543Y-2987457D01*
X9645787Y-3009669D01*
X9675101Y-3015500D01*
X9894898Y-3015499D01*
X9924213Y-3009669D01*
X9957457Y-2987457D01*
X9957458Y-2987454D01*
X9957777Y-2987242D01*
X9994559Y-2979925D01*
X10012223Y-2987242D01*
X10012541Y-2987454D01*
X10012543Y-2987457D01*
X10045787Y-3009669D01*
X10075101Y-3015500D01*
X10294898Y-3015499D01*
X10324213Y-3009669D01*
X10357457Y-2987457D01*
X10357458Y-2987454D01*
X10357777Y-2987242D01*
X10394559Y-2979925D01*
X10412223Y-2987242D01*
X10412541Y-2987454D01*
X10412543Y-2987457D01*
X10445787Y-3009669D01*
X10475101Y-3015500D01*
X10694898Y-3015499D01*
X10724213Y-3009669D01*
X10757457Y-2987457D01*
X10757458Y-2987454D01*
X10757777Y-2987242D01*
X10794559Y-2979925D01*
X10812223Y-2987242D01*
X10812541Y-2987454D01*
X10812543Y-2987457D01*
X10845787Y-3009669D01*
X10875101Y-3015500D01*
X11094898Y-3015499D01*
X11124213Y-3009669D01*
X11157457Y-2987457D01*
X11157458Y-2987454D01*
X11157777Y-2987242D01*
X11194559Y-2979925D01*
X11212223Y-2987242D01*
X11212541Y-2987454D01*
X11212543Y-2987457D01*
X11245787Y-3009669D01*
X11275101Y-3015500D01*
X11494898Y-3015499D01*
X11524213Y-3009669D01*
X11557457Y-2987457D01*
X11557458Y-2987454D01*
X11557777Y-2987242D01*
X11594559Y-2979925D01*
X11612223Y-2987242D01*
X11612541Y-2987454D01*
X11612543Y-2987457D01*
X11645787Y-3009669D01*
X11675101Y-3015500D01*
X11894898Y-3015499D01*
X11924213Y-3009669D01*
X11957457Y-2987457D01*
X11979669Y-2954213D01*
X11985500Y-2924899D01*
X11985500Y-2603399D01*
X11999852Y-2568752D01*
X12034500Y-2554400D01*
X12254494Y-2554400D01*
X12270676Y-2557149D01*
X12271423Y-2557410D01*
X12273249Y-2558049D01*
X12302902Y-2554707D01*
X12308388Y-2554400D01*
X12316339Y-2554400D01*
X12316341Y-2554400D01*
X12324101Y-2552628D01*
X12329505Y-2551710D01*
X12359164Y-2548369D01*
X12361464Y-2546923D01*
X12376637Y-2540637D01*
X12379291Y-2540032D01*
X12402631Y-2521417D01*
X12407099Y-2518248D01*
X12413836Y-2514016D01*
X12417062Y-2510788D01*
X12419461Y-2508391D01*
X12423549Y-2504736D01*
X12446887Y-2486126D01*
X12448068Y-2483672D01*
X12457565Y-2470285D01*
X12507226Y-2420624D01*
X12541873Y-2406273D01*
X12549530Y-2406875D01*
X12600000Y-2414869D01*
X12697034Y-2399500D01*
X12709662Y-2397500D01*
X12743053Y-2380486D01*
X12808587Y-2347095D01*
X12887095Y-2268587D01*
X12934474Y-2175600D01*
X12937500Y-2169662D01*
X12941101Y-2146926D01*
X12954869Y-2060000D01*
X12937500Y-1950339D01*
X12937500Y-1950337D01*
X12887094Y-1851412D01*
X12803752Y-1768070D01*
X12789400Y-1733422D01*
X12789400Y-1465598D01*
X12803752Y-1430950D01*
X12828840Y-1417540D01*
X12833839Y-1416546D01*
X12913391Y-1363391D01*
X12966546Y-1283839D01*
X12973665Y-1248048D01*
X12980500Y-1213690D01*
X12980500Y-826309D01*
X12967903Y-762982D01*
X12966546Y-756161D01*
X12913391Y-676609D01*
X12833839Y-623454D01*
X12833838Y-623453D01*
X12833837Y-623453D01*
X12763691Y-609500D01*
X12763688Y-609500D01*
X12436312Y-609500D01*
X12436309Y-609500D01*
X12366162Y-623453D01*
X12286609Y-676609D01*
X12233453Y-756162D01*
X12219500Y-826309D01*
X12219500Y-1213690D01*
X12233453Y-1283837D01*
X12233453Y-1283838D01*
X12233454Y-1283839D01*
X12286609Y-1363391D01*
X12337133Y-1397150D01*
X12366159Y-1416545D01*
X12366161Y-1416546D01*
X12371158Y-1417540D01*
X12402341Y-1438373D01*
X12410600Y-1465598D01*
X12410600Y-1733422D01*
X12396248Y-1768070D01*
X12312905Y-1851412D01*
X12262499Y-1950337D01*
X12245130Y-2060000D01*
X12253122Y-2110459D01*
X12244366Y-2146926D01*
X12239377Y-2152768D01*
X12230903Y-2161244D01*
X12196257Y-2175600D01*
X12034499Y-2175600D01*
X11999851Y-2161248D01*
X11985499Y-2126600D01*
X11985499Y-1805102D01*
X11979669Y-1775786D01*
X11957457Y-1742543D01*
X11940106Y-1730950D01*
X11924213Y-1720331D01*
X11924212Y-1720330D01*
X11924211Y-1720330D01*
X11894900Y-1714500D01*
X11675102Y-1714500D01*
X11645784Y-1720331D01*
X11612221Y-1742757D01*
X11575439Y-1750073D01*
X11557777Y-1742757D01*
X11557455Y-1742542D01*
X11532015Y-1725544D01*
X11524212Y-1720330D01*
X11494900Y-1714500D01*
X11275102Y-1714500D01*
X11245784Y-1720331D01*
X11212221Y-1742757D01*
X11175439Y-1750073D01*
X11157777Y-1742757D01*
X11157455Y-1742542D01*
X11132015Y-1725544D01*
X11124212Y-1720330D01*
X11094900Y-1714500D01*
X10875102Y-1714500D01*
X10845784Y-1720331D01*
X10812221Y-1742757D01*
X10775439Y-1750073D01*
X10757777Y-1742757D01*
X10757455Y-1742542D01*
X10732015Y-1725544D01*
X10724212Y-1720330D01*
X10694900Y-1714500D01*
X10475102Y-1714500D01*
X10445784Y-1720331D01*
X10412221Y-1742757D01*
X10375439Y-1750073D01*
X10357777Y-1742757D01*
X10357455Y-1742542D01*
X10332015Y-1725544D01*
X10324212Y-1720330D01*
X10294900Y-1714500D01*
X10075102Y-1714500D01*
X10045784Y-1720331D01*
X10012221Y-1742757D01*
X9975439Y-1750073D01*
X9957777Y-1742757D01*
X9957455Y-1742542D01*
X9932015Y-1725544D01*
X9924212Y-1720330D01*
X9894900Y-1714500D01*
X9675102Y-1714500D01*
X9645784Y-1720331D01*
X9612221Y-1742757D01*
X9575439Y-1750073D01*
X9557777Y-1742757D01*
X9557455Y-1742542D01*
X9532015Y-1725544D01*
X9524212Y-1720330D01*
X9494900Y-1714500D01*
X9275102Y-1714500D01*
X9245784Y-1720331D01*
X9212221Y-1742757D01*
X9175439Y-1750073D01*
X9157777Y-1742757D01*
X9157455Y-1742542D01*
X9132015Y-1725544D01*
X9124212Y-1720330D01*
X9090165Y-1713558D01*
X9090560Y-1711567D01*
X9062992Y-1700148D01*
X9048640Y-1665500D01*
X9062992Y-1630852D01*
X9075394Y-1621841D01*
X9099614Y-1609500D01*
X9143587Y-1587095D01*
X9222095Y-1508587D01*
X9257985Y-1438148D01*
X9272500Y-1409662D01*
X9277491Y-1378148D01*
X9289869Y-1300000D01*
X9285286Y-1271064D01*
X9294041Y-1234599D01*
X9326018Y-1215003D01*
X9333683Y-1214400D01*
X9413434Y-1214400D01*
X9448082Y-1228752D01*
X9461492Y-1253839D01*
X9463670Y-1264786D01*
X9468454Y-1288840D01*
X9487161Y-1316836D01*
X9521609Y-1368391D01*
X9601161Y-1421546D01*
X9618698Y-1425034D01*
X9671309Y-1435500D01*
X9671312Y-1435500D01*
X9998691Y-1435500D01*
X10049539Y-1425385D01*
X10068839Y-1421546D01*
X10148391Y-1368391D01*
X10201546Y-1288839D01*
X10209630Y-1248197D01*
X10215500Y-1218690D01*
X10215500Y-831309D01*
X10202145Y-764172D01*
X10201546Y-761161D01*
X10148391Y-681609D01*
X10068839Y-628454D01*
X10068838Y-628453D01*
X10068837Y-628453D01*
X9998691Y-614500D01*
X9998688Y-614500D01*
X9671312Y-614500D01*
X9671309Y-614500D01*
X9601162Y-628453D01*
X9521609Y-681609D01*
X9468454Y-761159D01*
X9468066Y-763112D01*
X9461492Y-796160D01*
X9440657Y-827342D01*
X9413434Y-835600D01*
X9250508Y-835600D01*
X9234324Y-832850D01*
X9231752Y-831950D01*
X9202093Y-835292D01*
X9196607Y-835600D01*
X9188658Y-835600D01*
X9180904Y-837369D01*
X9175494Y-838288D01*
X9145836Y-841630D01*
X9143526Y-843082D01*
X9128368Y-849360D01*
X9125709Y-849966D01*
X9102371Y-868577D01*
X9097895Y-871753D01*
X9091165Y-875982D01*
X9085535Y-881611D01*
X9081445Y-885265D01*
X9058112Y-903873D01*
X9056928Y-906333D01*
X9047431Y-919715D01*
X9027773Y-939373D01*
X8993125Y-953725D01*
X8985461Y-953122D01*
X8935000Y-945130D01*
X8825337Y-962499D01*
X8726412Y-1012905D01*
X8647905Y-1091411D01*
X8632268Y-1122100D01*
X8619162Y-1138161D01*
X8612375Y-1143574D01*
X8607896Y-1146753D01*
X8601163Y-1150984D01*
X8595535Y-1156611D01*
X8591445Y-1160265D01*
X8568112Y-1178873D01*
X8566928Y-1181333D01*
X8557431Y-1194715D01*
X8079715Y-1672431D01*
X8066333Y-1681928D01*
X8063873Y-1683112D01*
X8045265Y-1706445D01*
X8041611Y-1710535D01*
X8035982Y-1716165D01*
X8031749Y-1722901D01*
X8028576Y-1727373D01*
X8025724Y-1730950D01*
X8014638Y-1741142D01*
X8012226Y-1742754D01*
X7975444Y-1750074D01*
X7957777Y-1742757D01*
X7957455Y-1742542D01*
X7932015Y-1725544D01*
X7924212Y-1720330D01*
X7894900Y-1714500D01*
X7675102Y-1714500D01*
X7645784Y-1720331D01*
X7612221Y-1742757D01*
X7575439Y-1750073D01*
X7557777Y-1742757D01*
X7557455Y-1742542D01*
X7532015Y-1725544D01*
X7524212Y-1720330D01*
X7494900Y-1714500D01*
X7275102Y-1714500D01*
X7245784Y-1720331D01*
X7212221Y-1742757D01*
X7175439Y-1750073D01*
X7157777Y-1742757D01*
X7157455Y-1742542D01*
X7132015Y-1725544D01*
X7124212Y-1720330D01*
X7094900Y-1714500D01*
X6875102Y-1714500D01*
X6845784Y-1720331D01*
X6812221Y-1742757D01*
X6775439Y-1750073D01*
X6757777Y-1742757D01*
X6757455Y-1742542D01*
X6732015Y-1725544D01*
X6724212Y-1720330D01*
X6694900Y-1714500D01*
X6475102Y-1714500D01*
X6445786Y-1720330D01*
X6412543Y-1742542D01*
X6390330Y-1775788D01*
X6384500Y-1805099D01*
X6384500Y-2924897D01*
X3749400Y-2924897D01*
X3749400Y-2384655D01*
X3763752Y-2350007D01*
X3798400Y-2335655D01*
X3833048Y-2350007D01*
X3839143Y-2357433D01*
X3840330Y-2359210D01*
X3840331Y-2359213D01*
X3862543Y-2392457D01*
X3895787Y-2414669D01*
X3908858Y-2417269D01*
X3934998Y-2422469D01*
X3935000Y-2422469D01*
X5085002Y-2422469D01*
X5104606Y-2418569D01*
X5124213Y-2414669D01*
X5157457Y-2392457D01*
X5179669Y-2359213D01*
X5187469Y-2320000D01*
X5187469Y-1808400D01*
X5201821Y-1773752D01*
X5236469Y-1759400D01*
X5349494Y-1759400D01*
X5365676Y-1762149D01*
X5366423Y-1762410D01*
X5368249Y-1763049D01*
X5397902Y-1759707D01*
X5403388Y-1759400D01*
X5411339Y-1759400D01*
X5411341Y-1759400D01*
X5419101Y-1757628D01*
X5424505Y-1756710D01*
X5454164Y-1753369D01*
X5456464Y-1751923D01*
X5471637Y-1745637D01*
X5474291Y-1745032D01*
X5497631Y-1726417D01*
X5502099Y-1723248D01*
X5508836Y-1719016D01*
X5512062Y-1715788D01*
X5514461Y-1713391D01*
X5518549Y-1709736D01*
X5541887Y-1691126D01*
X5543068Y-1688672D01*
X5552565Y-1675285D01*
X5752999Y-1474852D01*
X5787648Y-1460500D01*
X6078198Y-1460500D01*
X6135853Y-1449031D01*
X6146888Y-1446836D01*
X6224786Y-1394786D01*
X6276836Y-1316888D01*
X6290500Y-1248196D01*
X6290500Y-831804D01*
X6290402Y-831312D01*
X6276836Y-763112D01*
X6257879Y-734741D01*
X6224786Y-685214D01*
X6146888Y-633164D01*
X6146887Y-633163D01*
X6078198Y-619500D01*
X6078196Y-619500D01*
X5761804Y-619500D01*
X5761802Y-619500D01*
X5693112Y-633163D01*
X5615214Y-685214D01*
X5563163Y-763112D01*
X5549500Y-831802D01*
X5549500Y-1122351D01*
X5535148Y-1156999D01*
X5325900Y-1366248D01*
X5291252Y-1380600D01*
X5236469Y-1380600D01*
X5201821Y-1366248D01*
X5187469Y-1331600D01*
X5187469Y-819998D01*
X5179669Y-780788D01*
X5179669Y-780787D01*
X5157457Y-747543D01*
X5124213Y-725331D01*
X5124212Y-725330D01*
X5124211Y-725330D01*
X5085002Y-717531D01*
X5085000Y-717531D01*
X3935000Y-717531D01*
X3933817Y-717646D01*
X3933794Y-717648D01*
X3915117Y-719478D01*
X3915114Y-719478D01*
X3915114Y-719479D01*
X3906822Y-722903D01*
X3878158Y-734741D01*
X3849860Y-762981D01*
X3835227Y-798202D01*
X3808680Y-824692D01*
X3771177Y-824652D01*
X3749207Y-806582D01*
X3732010Y-780787D01*
X3720259Y-763160D01*
X3717946Y-760339D01*
X3707457Y-747543D01*
X3674213Y-725331D01*
X3674212Y-725330D01*
X3674211Y-725330D01*
X3635002Y-717531D01*
X3635000Y-717531D01*
X2635000Y-717531D01*
X2634998Y-717531D01*
X2595788Y-725330D01*
X2562543Y-747543D01*
X2540330Y-780788D01*
X2532531Y-819998D01*
X2532531Y-1331600D01*
X2518179Y-1366248D01*
X2483531Y-1380600D01*
X2159500Y-1380600D01*
X2124852Y-1366248D01*
X2110500Y-1331600D01*
X2110499Y-710102D01*
X2104669Y-680786D01*
X2082457Y-647543D01*
X2053887Y-628454D01*
X2049213Y-625331D01*
X2049212Y-625330D01*
X2049211Y-625330D01*
X2019900Y-619500D01*
X800102Y-619500D01*
X770786Y-625330D01*
X737543Y-647542D01*
X715330Y-680788D01*
X709500Y-710099D01*
X709500Y-1929897D01*
X41221Y-1929897D01*
X40032Y-89032D01*
X54361Y-54374D01*
X89000Y-40000D01*
X18881000Y-40000D01*
X18915648Y-54352D01*
G37*
%TD.AperFunction*%
%TD*%
%TA.AperFunction,Conductor*%
%TO.N,+3V3*%
G36*
X13161562Y-8014441D02*
G01*
X13228511Y-8034429D01*
X13274026Y-8087439D01*
X13285000Y-8138440D01*
X13285000Y-9844999D01*
X13285000Y-9845000D01*
X14083073Y-9853674D01*
X14149892Y-9874086D01*
X14195071Y-9927384D01*
X14205721Y-9976933D01*
X14214262Y-11420266D01*
X14194974Y-11487421D01*
X14142442Y-11533488D01*
X14090264Y-11545000D01*
X13687667Y-11545000D01*
X13620628Y-11525315D01*
X13611366Y-11518745D01*
X13278199Y-11258670D01*
X13237466Y-11201902D01*
X13230500Y-11160925D01*
X13230500Y-11111803D01*
X13216836Y-11043112D01*
X13164786Y-10965213D01*
X13086887Y-10913163D01*
X13018197Y-10899500D01*
X13018196Y-10899500D01*
X12860752Y-10899500D01*
X12793713Y-10879815D01*
X12784451Y-10873245D01*
X11732699Y-10052234D01*
X11691966Y-9995466D01*
X11685000Y-9954489D01*
X11685000Y-8946695D01*
X11700210Y-8887191D01*
X12144542Y-8074826D01*
X12193980Y-8025459D01*
X12253889Y-8010334D01*
X13161562Y-8014441D01*
G37*
%TD.AperFunction*%
%TD*%
M02*
