M48
; DRILL file {KiCad 7.0.2-6a45011f42~172~ubuntu22.04.1} date Thu 25 May 2023 09:16:40
; FORMAT={-:-/ absolute / inch / decimal}
; #@! TF.CreationDate,2023-05-25T09:16:40+08:00
; #@! TF.GenerationSoftware,Kicad,Pcbnew,7.0.2-6a45011f42~172~ubuntu22.04.1
; #@! TF.FileFunction,Plated,1,4,PTH
FMAT,2
INCH
; #@! TA.AperFunction,Plated,PTH,ViaDrill
T1C0.0079
; #@! TA.AperFunction,Plated,PTH,ComponentDrill
T2C0.0197
; #@! TA.AperFunction,Plated,PTH,ComponentDrill
T3C0.0256
%
G90
G05
T1
X0.0362Y-0.1079
X0.0362Y-0.3173
X0.1748Y-0.1827
X0.1795Y-0.1114
X0.1807Y-0.3516
X0.1961Y-0.389
X0.2689Y-0.313
X0.2693Y-0.2256
X0.2697Y-0.1516
X0.2697Y-0.2671
X0.3087Y-0.1384
X0.3093Y-0.3083
X0.3457Y-0.3146
X0.3526Y-0.0429
X0.3563Y-0.1451
X0.3848Y-0.1455
X0.3882Y-0.3071
X0.4244Y-0.3055
X0.4445Y-0.176
X0.4445Y-0.2075
X0.448Y-0.1461
X0.449Y-0.2451
X0.4579Y-0.3169
X0.4591Y-0.276
X0.4614Y-0.0362
X0.5022Y-0.3579
T2
X0.0563Y-0.0437
X0.0857Y-0.4417
X0.15Y-0.4417
X0.2139Y-0.4417
X0.278Y-0.4417
X0.342Y-0.4417
X0.4061Y-0.4417
X0.4702Y-0.4417
X0.5343Y-0.4417
T3
X0.5613Y-0.0887
X0.5613Y-0.1387
X0.5613Y-0.1887
X0.5613Y-0.2387
X0.5613Y-0.2887
X0.5613Y-0.3387
T0
M30
