%TF.GenerationSoftware,KiCad,Pcbnew,7.0.2-6a45011f42~172~ubuntu22.04.1*%
%TF.CreationDate,2023-05-25T09:16:40+08:00*%
%TF.ProjectId,fly2040_ds,666c7932-3034-4305-9f64-732e6b696361,rev?*%
%TF.SameCoordinates,PX45b1cc0PY2f4fd10*%
%TF.FileFunction,Copper,L1,Top*%
%TF.FilePolarity,Positive*%
%FSLAX46Y46*%
G04 Gerber Fmt 4.6, Leading zero omitted, Abs format (unit mm)*
G04 Created by KiCad (PCBNEW 7.0.2-6a45011f42~172~ubuntu22.04.1) date 2023-05-25 09:16:40*
%MOMM*%
%LPD*%
G01*
G04 APERTURE LIST*
G04 Aperture macros list*
%AMRoundRect*
0 Rectangle with rounded corners*
0 $1 Rounding radius*
0 $2 $3 $4 $5 $6 $7 $8 $9 X,Y pos of 4 corners*
0 Add a 4 corners polygon primitive as box body*
4,1,4,$2,$3,$4,$5,$6,$7,$8,$9,$2,$3,0*
0 Add four circle primitives for the rounded corners*
1,1,$1+$1,$2,$3*
1,1,$1+$1,$4,$5*
1,1,$1+$1,$6,$7*
1,1,$1+$1,$8,$9*
0 Add four rect primitives between the rounded corners*
20,1,$1+$1,$2,$3,$4,$5,0*
20,1,$1+$1,$4,$5,$6,$7,0*
20,1,$1+$1,$6,$7,$8,$9,0*
20,1,$1+$1,$8,$9,$2,$3,0*%
%AMFreePoly0*
4,1,6,1.000000,0.000000,0.500000,-0.750000,-0.500000,-0.750000,-0.500000,0.750000,0.500000,0.750000,1.000000,0.000000,1.000000,0.000000,$1*%
%AMFreePoly1*
4,1,6,0.500000,-0.750000,-0.650000,-0.750000,-0.150000,0.000000,-0.650000,0.750000,0.500000,0.750000,0.500000,-0.750000,0.500000,-0.750000,$1*%
G04 Aperture macros list end*
%ADD10C,0.300000*%
%TA.AperFunction,NonConductor*%
%ADD11C,0.300000*%
%TD*%
%TA.AperFunction,NonConductor*%
%ADD12C,0.200000*%
%TD*%
%TA.AperFunction,SMDPad,CuDef*%
%ADD13RoundRect,0.135000X-0.135000X-0.185000X0.135000X-0.185000X0.135000X0.185000X-0.135000X0.185000X0*%
%TD*%
%TA.AperFunction,SMDPad,CuDef*%
%ADD14RoundRect,0.135000X0.185000X-0.135000X0.185000X0.135000X-0.185000X0.135000X-0.185000X-0.135000X0*%
%TD*%
%TA.AperFunction,SMDPad,CuDef*%
%ADD15RoundRect,0.140000X-0.140000X-0.170000X0.140000X-0.170000X0.140000X0.170000X-0.140000X0.170000X0*%
%TD*%
%TA.AperFunction,ComponentPad*%
%ADD16R,1.200000X1.200000*%
%TD*%
%TA.AperFunction,SMDPad,CuDef*%
%ADD17R,0.200000X1.100000*%
%TD*%
%TA.AperFunction,SMDPad,CuDef*%
%ADD18R,1.100000X0.200000*%
%TD*%
%TA.AperFunction,SMDPad,CuDef*%
%ADD19R,3.100000X3.100000*%
%TD*%
%TA.AperFunction,ComponentPad*%
%ADD20O,1.000000X1.000000*%
%TD*%
%TA.AperFunction,SMDPad,CuDef*%
%ADD21R,1.200000X1.400000*%
%TD*%
%TA.AperFunction,SMDPad,CuDef*%
%ADD22FreePoly0,0.000000*%
%TD*%
%TA.AperFunction,SMDPad,CuDef*%
%ADD23FreePoly1,0.000000*%
%TD*%
%TA.AperFunction,ViaPad*%
%ADD24C,0.450000*%
%TD*%
%TA.AperFunction,Conductor*%
%ADD25C,0.200000*%
%TD*%
%TA.AperFunction,Conductor*%
%ADD26C,0.100000*%
%TD*%
G04 APERTURE END LIST*
D10*
D11*
X1428573Y2776072D02*
X571430Y2776072D01*
X1000001Y2776072D02*
X1000001Y4276072D01*
X1000001Y4276072D02*
X857144Y4061786D01*
X857144Y4061786D02*
X714287Y3918929D01*
X714287Y3918929D02*
X571430Y3847500D01*
X2785715Y4276072D02*
X2071429Y4276072D01*
X2071429Y4276072D02*
X2000001Y3561786D01*
X2000001Y3561786D02*
X2071429Y3633215D01*
X2071429Y3633215D02*
X2214287Y3704643D01*
X2214287Y3704643D02*
X2571429Y3704643D01*
X2571429Y3704643D02*
X2714287Y3633215D01*
X2714287Y3633215D02*
X2785715Y3561786D01*
X2785715Y3561786D02*
X2857144Y3418929D01*
X2857144Y3418929D02*
X2857144Y3061786D01*
X2857144Y3061786D02*
X2785715Y2918929D01*
X2785715Y2918929D02*
X2714287Y2847500D01*
X2714287Y2847500D02*
X2571429Y2776072D01*
X2571429Y2776072D02*
X2214287Y2776072D01*
X2214287Y2776072D02*
X2071429Y2847500D01*
X2071429Y2847500D02*
X2000001Y2918929D01*
X3500000Y2918929D02*
X3571429Y2847500D01*
X3571429Y2847500D02*
X3500000Y2776072D01*
X3500000Y2776072D02*
X3428572Y2847500D01*
X3428572Y2847500D02*
X3500000Y2918929D01*
X3500000Y2918929D02*
X3500000Y2776072D01*
X4500001Y4276072D02*
X4642858Y4276072D01*
X4642858Y4276072D02*
X4785715Y4204643D01*
X4785715Y4204643D02*
X4857144Y4133215D01*
X4857144Y4133215D02*
X4928572Y3990358D01*
X4928572Y3990358D02*
X5000001Y3704643D01*
X5000001Y3704643D02*
X5000001Y3347500D01*
X5000001Y3347500D02*
X4928572Y3061786D01*
X4928572Y3061786D02*
X4857144Y2918929D01*
X4857144Y2918929D02*
X4785715Y2847500D01*
X4785715Y2847500D02*
X4642858Y2776072D01*
X4642858Y2776072D02*
X4500001Y2776072D01*
X4500001Y2776072D02*
X4357144Y2847500D01*
X4357144Y2847500D02*
X4285715Y2918929D01*
X4285715Y2918929D02*
X4214286Y3061786D01*
X4214286Y3061786D02*
X4142858Y3347500D01*
X4142858Y3347500D02*
X4142858Y3704643D01*
X4142858Y3704643D02*
X4214286Y3990358D01*
X4214286Y3990358D02*
X4285715Y4133215D01*
X4285715Y4133215D02*
X4357144Y4204643D01*
X4357144Y4204643D02*
X4500001Y4276072D01*
X5928572Y4276072D02*
X6071429Y4276072D01*
X6071429Y4276072D02*
X6214286Y4204643D01*
X6214286Y4204643D02*
X6285715Y4133215D01*
X6285715Y4133215D02*
X6357143Y3990358D01*
X6357143Y3990358D02*
X6428572Y3704643D01*
X6428572Y3704643D02*
X6428572Y3347500D01*
X6428572Y3347500D02*
X6357143Y3061786D01*
X6357143Y3061786D02*
X6285715Y2918929D01*
X6285715Y2918929D02*
X6214286Y2847500D01*
X6214286Y2847500D02*
X6071429Y2776072D01*
X6071429Y2776072D02*
X5928572Y2776072D01*
X5928572Y2776072D02*
X5785715Y2847500D01*
X5785715Y2847500D02*
X5714286Y2918929D01*
X5714286Y2918929D02*
X5642857Y3061786D01*
X5642857Y3061786D02*
X5571429Y3347500D01*
X5571429Y3347500D02*
X5571429Y3704643D01*
X5571429Y3704643D02*
X5642857Y3990358D01*
X5642857Y3990358D02*
X5714286Y4133215D01*
X5714286Y4133215D02*
X5785715Y4204643D01*
X5785715Y4204643D02*
X5928572Y4276072D01*
X7357143Y4276072D02*
X7500000Y4276072D01*
X7500000Y4276072D02*
X7642857Y4204643D01*
X7642857Y4204643D02*
X7714286Y4133215D01*
X7714286Y4133215D02*
X7785714Y3990358D01*
X7785714Y3990358D02*
X7857143Y3704643D01*
X7857143Y3704643D02*
X7857143Y3347500D01*
X7857143Y3347500D02*
X7785714Y3061786D01*
X7785714Y3061786D02*
X7714286Y2918929D01*
X7714286Y2918929D02*
X7642857Y2847500D01*
X7642857Y2847500D02*
X7500000Y2776072D01*
X7500000Y2776072D02*
X7357143Y2776072D01*
X7357143Y2776072D02*
X7214286Y2847500D01*
X7214286Y2847500D02*
X7142857Y2918929D01*
X7142857Y2918929D02*
X7071428Y3061786D01*
X7071428Y3061786D02*
X7000000Y3347500D01*
X7000000Y3347500D02*
X7000000Y3704643D01*
X7000000Y3704643D02*
X7071428Y3990358D01*
X7071428Y3990358D02*
X7142857Y4133215D01*
X7142857Y4133215D02*
X7214286Y4204643D01*
X7214286Y4204643D02*
X7357143Y4276072D01*
X8785714Y4276072D02*
X8928571Y4276072D01*
X8928571Y4276072D02*
X9071428Y4204643D01*
X9071428Y4204643D02*
X9142857Y4133215D01*
X9142857Y4133215D02*
X9214285Y3990358D01*
X9214285Y3990358D02*
X9285714Y3704643D01*
X9285714Y3704643D02*
X9285714Y3347500D01*
X9285714Y3347500D02*
X9214285Y3061786D01*
X9214285Y3061786D02*
X9142857Y2918929D01*
X9142857Y2918929D02*
X9071428Y2847500D01*
X9071428Y2847500D02*
X8928571Y2776072D01*
X8928571Y2776072D02*
X8785714Y2776072D01*
X8785714Y2776072D02*
X8642857Y2847500D01*
X8642857Y2847500D02*
X8571428Y2918929D01*
X8571428Y2918929D02*
X8499999Y3061786D01*
X8499999Y3061786D02*
X8428571Y3347500D01*
X8428571Y3347500D02*
X8428571Y3704643D01*
X8428571Y3704643D02*
X8499999Y3990358D01*
X8499999Y3990358D02*
X8571428Y4133215D01*
X8571428Y4133215D02*
X8642857Y4204643D01*
X8642857Y4204643D02*
X8785714Y4276072D01*
X11071427Y2776072D02*
X11071427Y3776072D01*
X11071427Y3633215D02*
X11142856Y3704643D01*
X11142856Y3704643D02*
X11285713Y3776072D01*
X11285713Y3776072D02*
X11499999Y3776072D01*
X11499999Y3776072D02*
X11642856Y3704643D01*
X11642856Y3704643D02*
X11714285Y3561786D01*
X11714285Y3561786D02*
X11714285Y2776072D01*
X11714285Y3561786D02*
X11785713Y3704643D01*
X11785713Y3704643D02*
X11928570Y3776072D01*
X11928570Y3776072D02*
X12142856Y3776072D01*
X12142856Y3776072D02*
X12285713Y3704643D01*
X12285713Y3704643D02*
X12357142Y3561786D01*
X12357142Y3561786D02*
X12357142Y2776072D01*
X13071427Y2776072D02*
X13071427Y3776072D01*
X13071427Y3633215D02*
X13142856Y3704643D01*
X13142856Y3704643D02*
X13285713Y3776072D01*
X13285713Y3776072D02*
X13499999Y3776072D01*
X13499999Y3776072D02*
X13642856Y3704643D01*
X13642856Y3704643D02*
X13714285Y3561786D01*
X13714285Y3561786D02*
X13714285Y2776072D01*
X13714285Y3561786D02*
X13785713Y3704643D01*
X13785713Y3704643D02*
X13928570Y3776072D01*
X13928570Y3776072D02*
X14142856Y3776072D01*
X14142856Y3776072D02*
X14285713Y3704643D01*
X14285713Y3704643D02*
X14357142Y3561786D01*
X14357142Y3561786D02*
X14357142Y2776072D01*
D12*
X0Y500000D02*
X0Y2256420D01*
X15000000Y2256420D02*
X15000000Y500000D01*
X0Y1670000D02*
X15000000Y1670000D01*
X0Y1670000D02*
X15000000Y1670000D01*
X0Y1670000D02*
X1126504Y2256421D01*
X0Y1670000D02*
X1126504Y1083579D01*
X15000000Y1670000D02*
X13873496Y1083579D01*
X15000000Y1670000D02*
X13873496Y2256421D01*
D10*
D11*
X-2736072Y-12071426D02*
X-2736072Y-12928569D01*
X-2736072Y-12499998D02*
X-4236072Y-12499998D01*
X-4236072Y-12499998D02*
X-4021786Y-12642855D01*
X-4021786Y-12642855D02*
X-3878929Y-12785712D01*
X-3878929Y-12785712D02*
X-3807500Y-12928569D01*
X-4093215Y-11499998D02*
X-4164643Y-11428570D01*
X-4164643Y-11428570D02*
X-4236072Y-11285713D01*
X-4236072Y-11285713D02*
X-4236072Y-10928570D01*
X-4236072Y-10928570D02*
X-4164643Y-10785713D01*
X-4164643Y-10785713D02*
X-4093215Y-10714284D01*
X-4093215Y-10714284D02*
X-3950358Y-10642855D01*
X-3950358Y-10642855D02*
X-3807500Y-10642855D01*
X-3807500Y-10642855D02*
X-3593215Y-10714284D01*
X-3593215Y-10714284D02*
X-2736072Y-11571427D01*
X-2736072Y-11571427D02*
X-2736072Y-10642855D01*
X-2878929Y-9999999D02*
X-2807500Y-9928570D01*
X-2807500Y-9928570D02*
X-2736072Y-9999999D01*
X-2736072Y-9999999D02*
X-2807500Y-10071427D01*
X-2807500Y-10071427D02*
X-2878929Y-9999999D01*
X-2878929Y-9999999D02*
X-2736072Y-9999999D01*
X-4236072Y-8999998D02*
X-4236072Y-8857141D01*
X-4236072Y-8857141D02*
X-4164643Y-8714284D01*
X-4164643Y-8714284D02*
X-4093215Y-8642856D01*
X-4093215Y-8642856D02*
X-3950358Y-8571427D01*
X-3950358Y-8571427D02*
X-3664643Y-8499998D01*
X-3664643Y-8499998D02*
X-3307500Y-8499998D01*
X-3307500Y-8499998D02*
X-3021786Y-8571427D01*
X-3021786Y-8571427D02*
X-2878929Y-8642856D01*
X-2878929Y-8642856D02*
X-2807500Y-8714284D01*
X-2807500Y-8714284D02*
X-2736072Y-8857141D01*
X-2736072Y-8857141D02*
X-2736072Y-8999998D01*
X-2736072Y-8999998D02*
X-2807500Y-9142856D01*
X-2807500Y-9142856D02*
X-2878929Y-9214284D01*
X-2878929Y-9214284D02*
X-3021786Y-9285713D01*
X-3021786Y-9285713D02*
X-3307500Y-9357141D01*
X-3307500Y-9357141D02*
X-3664643Y-9357141D01*
X-3664643Y-9357141D02*
X-3950358Y-9285713D01*
X-3950358Y-9285713D02*
X-4093215Y-9214284D01*
X-4093215Y-9214284D02*
X-4164643Y-9142856D01*
X-4164643Y-9142856D02*
X-4236072Y-8999998D01*
X-4236072Y-7571427D02*
X-4236072Y-7428570D01*
X-4236072Y-7428570D02*
X-4164643Y-7285713D01*
X-4164643Y-7285713D02*
X-4093215Y-7214285D01*
X-4093215Y-7214285D02*
X-3950358Y-7142856D01*
X-3950358Y-7142856D02*
X-3664643Y-7071427D01*
X-3664643Y-7071427D02*
X-3307500Y-7071427D01*
X-3307500Y-7071427D02*
X-3021786Y-7142856D01*
X-3021786Y-7142856D02*
X-2878929Y-7214285D01*
X-2878929Y-7214285D02*
X-2807500Y-7285713D01*
X-2807500Y-7285713D02*
X-2736072Y-7428570D01*
X-2736072Y-7428570D02*
X-2736072Y-7571427D01*
X-2736072Y-7571427D02*
X-2807500Y-7714285D01*
X-2807500Y-7714285D02*
X-2878929Y-7785713D01*
X-2878929Y-7785713D02*
X-3021786Y-7857142D01*
X-3021786Y-7857142D02*
X-3307500Y-7928570D01*
X-3307500Y-7928570D02*
X-3664643Y-7928570D01*
X-3664643Y-7928570D02*
X-3950358Y-7857142D01*
X-3950358Y-7857142D02*
X-4093215Y-7785713D01*
X-4093215Y-7785713D02*
X-4164643Y-7714285D01*
X-4164643Y-7714285D02*
X-4236072Y-7571427D01*
X-4236072Y-6142856D02*
X-4236072Y-5999999D01*
X-4236072Y-5999999D02*
X-4164643Y-5857142D01*
X-4164643Y-5857142D02*
X-4093215Y-5785714D01*
X-4093215Y-5785714D02*
X-3950358Y-5714285D01*
X-3950358Y-5714285D02*
X-3664643Y-5642856D01*
X-3664643Y-5642856D02*
X-3307500Y-5642856D01*
X-3307500Y-5642856D02*
X-3021786Y-5714285D01*
X-3021786Y-5714285D02*
X-2878929Y-5785714D01*
X-2878929Y-5785714D02*
X-2807500Y-5857142D01*
X-2807500Y-5857142D02*
X-2736072Y-5999999D01*
X-2736072Y-5999999D02*
X-2736072Y-6142856D01*
X-2736072Y-6142856D02*
X-2807500Y-6285714D01*
X-2807500Y-6285714D02*
X-2878929Y-6357142D01*
X-2878929Y-6357142D02*
X-3021786Y-6428571D01*
X-3021786Y-6428571D02*
X-3307500Y-6499999D01*
X-3307500Y-6499999D02*
X-3664643Y-6499999D01*
X-3664643Y-6499999D02*
X-3950358Y-6428571D01*
X-3950358Y-6428571D02*
X-4093215Y-6357142D01*
X-4093215Y-6357142D02*
X-4164643Y-6285714D01*
X-4164643Y-6285714D02*
X-4236072Y-6142856D01*
X-4236072Y-4714285D02*
X-4236072Y-4571428D01*
X-4236072Y-4571428D02*
X-4164643Y-4428571D01*
X-4164643Y-4428571D02*
X-4093215Y-4357143D01*
X-4093215Y-4357143D02*
X-3950358Y-4285714D01*
X-3950358Y-4285714D02*
X-3664643Y-4214285D01*
X-3664643Y-4214285D02*
X-3307500Y-4214285D01*
X-3307500Y-4214285D02*
X-3021786Y-4285714D01*
X-3021786Y-4285714D02*
X-2878929Y-4357143D01*
X-2878929Y-4357143D02*
X-2807500Y-4428571D01*
X-2807500Y-4428571D02*
X-2736072Y-4571428D01*
X-2736072Y-4571428D02*
X-2736072Y-4714285D01*
X-2736072Y-4714285D02*
X-2807500Y-4857143D01*
X-2807500Y-4857143D02*
X-2878929Y-4928571D01*
X-2878929Y-4928571D02*
X-3021786Y-5000000D01*
X-3021786Y-5000000D02*
X-3307500Y-5071428D01*
X-3307500Y-5071428D02*
X-3664643Y-5071428D01*
X-3664643Y-5071428D02*
X-3950358Y-5000000D01*
X-3950358Y-5000000D02*
X-4093215Y-4928571D01*
X-4093215Y-4928571D02*
X-4164643Y-4857143D01*
X-4164643Y-4857143D02*
X-4236072Y-4714285D01*
X-2736072Y-2428572D02*
X-3736072Y-2428572D01*
X-3593215Y-2428572D02*
X-3664643Y-2357143D01*
X-3664643Y-2357143D02*
X-3736072Y-2214286D01*
X-3736072Y-2214286D02*
X-3736072Y-2000000D01*
X-3736072Y-2000000D02*
X-3664643Y-1857143D01*
X-3664643Y-1857143D02*
X-3521786Y-1785715D01*
X-3521786Y-1785715D02*
X-2736072Y-1785715D01*
X-3521786Y-1785715D02*
X-3664643Y-1714286D01*
X-3664643Y-1714286D02*
X-3736072Y-1571429D01*
X-3736072Y-1571429D02*
X-3736072Y-1357143D01*
X-3736072Y-1357143D02*
X-3664643Y-1214286D01*
X-3664643Y-1214286D02*
X-3521786Y-1142857D01*
X-3521786Y-1142857D02*
X-2736072Y-1142857D01*
X-2736072Y-428572D02*
X-3736072Y-428572D01*
X-3593215Y-428572D02*
X-3664643Y-357143D01*
X-3664643Y-357143D02*
X-3736072Y-214286D01*
X-3736072Y-214286D02*
X-3736072Y0D01*
X-3736072Y0D02*
X-3664643Y142857D01*
X-3664643Y142857D02*
X-3521786Y214285D01*
X-3521786Y214285D02*
X-2736072Y214285D01*
X-3521786Y214285D02*
X-3664643Y285714D01*
X-3664643Y285714D02*
X-3736072Y428571D01*
X-3736072Y428571D02*
X-3736072Y642857D01*
X-3736072Y642857D02*
X-3664643Y785714D01*
X-3664643Y785714D02*
X-3521786Y857143D01*
X-3521786Y857143D02*
X-2736072Y857143D01*
D12*
X-500000Y0D02*
X-2216420Y0D01*
X-2216420Y-12000000D02*
X-500000Y-12000000D01*
X-1630000Y0D02*
X-1630000Y-12000000D01*
X-1630000Y0D02*
X-1630000Y-12000000D01*
X-1630000Y0D02*
X-1043579Y-1126504D01*
X-1630000Y0D02*
X-2216421Y-1126504D01*
X-1630000Y-12000000D02*
X-2216421Y-10873496D01*
X-1630000Y-12000000D02*
X-1043579Y-10873496D01*
D13*
%TO.P,R12,1*%
%TO.N,Net-(JP1-B)*%
X5940000Y-970000D03*
%TO.P,R12,2*%
%TO.N,GND*%
X6960000Y-970000D03*
%TD*%
D14*
%TO.P,R1,1*%
%TO.N,Net-(X1-OSC1)*%
X4500000Y-6800000D03*
%TO.P,R1,2*%
%TO.N,XOUT*%
X4500000Y-5780000D03*
%TD*%
D15*
%TO.P,C3,1*%
%TO.N,XIN*%
X1850000Y-2850000D03*
%TO.P,C3,2*%
%TO.N,GND*%
X2810000Y-2850000D03*
%TD*%
%TO.P,C1,1*%
%TO.N,GND*%
X1830000Y-7920000D03*
%TO.P,C1,2*%
%TO.N,Net-(X1-OSC1)*%
X2790000Y-7920000D03*
%TD*%
D16*
%TO.P,J7,1,Pin_1*%
%TO.N,NS_SCL*%
X2177500Y-11220000D03*
%TD*%
D17*
%TO.P,U1,1,IOVDD*%
%TO.N,+3V3*%
X11805000Y-2155000D03*
%TO.P,U1,2,GPIO0*%
%TO.N,unconnected-(U1-GPIO0-Pad2)*%
X11405000Y-2155000D03*
%TO.P,U1,3,GPIO1*%
%TO.N,unconnected-(U1-GPIO1-Pad3)*%
X11005000Y-2155000D03*
%TO.P,U1,4,GPIO2*%
%TO.N,unconnected-(U1-GPIO2-Pad4)*%
X10605000Y-2155000D03*
%TO.P,U1,5,GPIO3*%
%TO.N,unconnected-(U1-GPIO3-Pad5)*%
X10205000Y-2155000D03*
%TO.P,U1,6,GPIO4*%
%TO.N,unconnected-(U1-GPIO4-Pad6)*%
X9805000Y-2155000D03*
%TO.P,U1,7,GPIO5*%
%TO.N,unconnected-(U1-GPIO5-Pad7)*%
X9405000Y-2155000D03*
%TO.P,U1,8,GPIO6*%
%TO.N,unconnected-(U1-GPIO6-Pad8)*%
X9005000Y-2155000D03*
%TO.P,U1,9,GPIO7*%
%TO.N,unconnected-(U1-GPIO7-Pad9)*%
X8605000Y-2155000D03*
%TO.P,U1,10,IOVDD*%
%TO.N,+3V3*%
X8205000Y-2155000D03*
%TO.P,U1,11,GPIO8*%
%TO.N,unconnected-(U1-GPIO8-Pad11)*%
X7805000Y-2155000D03*
%TO.P,U1,12,GPIO9*%
%TO.N,unconnected-(U1-GPIO9-Pad12)*%
X7405000Y-2155000D03*
%TO.P,U1,13,GPIO10*%
%TO.N,unconnected-(U1-GPIO10-Pad13)*%
X7005000Y-2155000D03*
%TO.P,U1,14,GPIO11*%
%TO.N,unconnected-(U1-GPIO11-Pad14)*%
X6605000Y-2155000D03*
D18*
%TO.P,U1,15,GPIO12*%
%TO.N,NS_SDA*%
X5655000Y-3105000D03*
%TO.P,U1,16,GPIO13*%
%TO.N,NS_SCL*%
X5655000Y-3505000D03*
%TO.P,U1,17,GPIO14*%
%TO.N,unconnected-(U1-GPIO14-Pad17)*%
X5655000Y-3905000D03*
%TO.P,U1,18,GPIO15*%
%TO.N,NS_CPU*%
X5655000Y-4305000D03*
%TO.P,U1,19,TESTEN*%
%TO.N,GND*%
X5655000Y-4705000D03*
%TO.P,U1,20,XIN*%
%TO.N,XIN*%
X5655000Y-5105000D03*
%TO.P,U1,21,XOUT*%
%TO.N,XOUT*%
X5655000Y-5505000D03*
%TO.P,U1,22,IOVDD*%
%TO.N,+3V3*%
X5655000Y-5905000D03*
%TO.P,U1,23,DVDD*%
%TO.N,+1V1*%
X5655000Y-6305000D03*
%TO.P,U1,24,SWCLK*%
%TO.N,DBG_CLK*%
X5655000Y-6705000D03*
%TO.P,U1,25,SWD*%
%TO.N,DBG_DAT*%
X5655000Y-7105000D03*
%TO.P,U1,26,RUN*%
%TO.N,RST*%
X5655000Y-7505000D03*
%TO.P,U1,27,GPIO16*%
%TO.N,LED_DATA*%
X5655000Y-7905000D03*
%TO.P,U1,28,GPIO17*%
%TO.N,unconnected-(U1-GPIO17-Pad28)*%
X5655000Y-8305000D03*
D17*
%TO.P,U1,29,GPIO18*%
%TO.N,unconnected-(U1-GPIO18-Pad29)*%
X6605000Y-9255000D03*
%TO.P,U1,30,GPIO19*%
%TO.N,unconnected-(U1-GPIO19-Pad30)*%
X7005000Y-9255000D03*
%TO.P,U1,31,GPIO20*%
%TO.N,unconnected-(U1-GPIO20-Pad31)*%
X7405000Y-9255000D03*
%TO.P,U1,32,GPIO21*%
%TO.N,unconnected-(U1-GPIO21-Pad32)*%
X7805000Y-9255000D03*
%TO.P,U1,33,IOVDD*%
%TO.N,+3V3*%
X8205000Y-9255000D03*
%TO.P,U1,34,GPIO22*%
%TO.N,unconnected-(U1-GPIO22-Pad34)*%
X8605000Y-9255000D03*
%TO.P,U1,35,GPIO23*%
%TO.N,unconnected-(U1-GPIO23-Pad35)*%
X9005000Y-9255000D03*
%TO.P,U1,36,GPIO24*%
%TO.N,unconnected-(U1-GPIO24-Pad36)*%
X9405000Y-9255000D03*
%TO.P,U1,37,GPIO25*%
%TO.N,unconnected-(U1-GPIO25-Pad37)*%
X9805000Y-9255000D03*
%TO.P,U1,38,GPIO26_ADC0*%
%TO.N,Net-(U1-GPIO26_ADC0)*%
X10205000Y-9255000D03*
%TO.P,U1,39,GPIO27_ADC1*%
%TO.N,Net-(U1-GPIO27_ADC1)*%
X10605000Y-9255000D03*
%TO.P,U1,40,GPIO28_ADC2*%
%TO.N,Net-(U1-GPIO28_ADC2)*%
X11005000Y-9255000D03*
%TO.P,U1,41,GPIO29_ADC3*%
%TO.N,Net-(U1-GPIO29_ADC3)*%
X11405000Y-9255000D03*
%TO.P,U1,42,IOVDD*%
%TO.N,+3V3*%
X11805000Y-9255000D03*
D18*
%TO.P,U1,43,ADC_AVDD*%
X12755000Y-8305000D03*
%TO.P,U1,44,VREG_IN*%
X12755000Y-7905000D03*
%TO.P,U1,45,VREG_VOUT*%
%TO.N,+1V1*%
X12755000Y-7505000D03*
%TO.P,U1,46,USB_DM*%
%TO.N,D-*%
X12755000Y-7105000D03*
%TO.P,U1,47,USB_DP*%
%TO.N,D+*%
X12755000Y-6705000D03*
%TO.P,U1,48,USB_VDD*%
%TO.N,+3V3*%
X12755000Y-6305000D03*
%TO.P,U1,49,IOVDD*%
X12755000Y-5905000D03*
%TO.P,U1,50,DVDD*%
%TO.N,+1V1*%
X12755000Y-5505000D03*
%TO.P,U1,51,QSPI_SD3*%
%TO.N,QSPI_SD3*%
X12755000Y-5105000D03*
%TO.P,U1,52,QSPI_SCLK*%
%TO.N,QSPI_SCK*%
X12755000Y-4705000D03*
%TO.P,U1,53,QSPI_SD0*%
%TO.N,QSPI_SD0*%
X12755000Y-4305000D03*
%TO.P,U1,54,QSPI_SD2*%
%TO.N,QSPI_SD2*%
X12755000Y-3905000D03*
%TO.P,U1,55,QSPI_SD1*%
%TO.N,QSPI_SD1*%
X12755000Y-3505000D03*
%TO.P,U1,56,QSPI_SS*%
%TO.N,QSPI_CS*%
X12755000Y-3105000D03*
D19*
%TO.P,U1,57,GND*%
%TO.N,GND*%
X9205000Y-5705000D03*
%TD*%
D20*
%TO.P,J8,1,Pin_1*%
%TO.N,RST*%
X14255753Y-8601880D03*
%TO.P,J8,2,Pin_2*%
%TO.N,D-*%
X14255753Y-7331880D03*
%TO.P,J8,3,Pin_3*%
%TO.N,D+*%
X14255753Y-6061880D03*
%TO.P,J8,4,Pin_4*%
%TO.N,+3V3*%
X14255753Y-4791880D03*
%TO.P,J8,5,Pin_5*%
%TO.N,GND*%
X14255753Y-3521880D03*
%TO.P,J8,6,Pin_6*%
%TO.N,BOOT*%
X14255753Y-2251880D03*
%TD*%
D16*
%TO.P,J1,1,Pin_1*%
%TO.N,NS_CPU*%
X1430000Y-1110000D03*
%TD*%
%TO.P,J4,1,Pin_1*%
%TO.N,NS_CMD*%
X10315000Y-11220000D03*
%TD*%
%TO.P,J2,1,Pin_1*%
%TO.N,NS_RST*%
X7060000Y-11220000D03*
%TD*%
%TO.P,J6,1,Pin_1*%
%TO.N,NS_SDA*%
X3810000Y-11220000D03*
%TD*%
%TO.P,J5,1,Pin_1*%
%TO.N,NS_D0*%
X11942500Y-11220000D03*
%TD*%
%TO.P,J9,1,Pin_1*%
%TO.N,GND*%
X5432500Y-11220000D03*
%TD*%
%TO.P,J3,1,Pin_1*%
%TO.N,NS_CLK*%
X8687500Y-11220000D03*
%TD*%
%TO.P,J10,1,Pin_1*%
%TO.N,+3V3*%
X13570000Y-11220000D03*
%TD*%
D21*
%TO.P,X1,1,OSC1*%
%TO.N,Net-(X1-OSC1)*%
X3172000Y-6483000D03*
%TO.P,X1,2,2*%
%TO.N,GND*%
X3172000Y-4283000D03*
%TO.P,X1,3,OSC2*%
%TO.N,XIN*%
X1422000Y-4283000D03*
%TO.P,X1,4,4*%
%TO.N,GND*%
X1422000Y-6483000D03*
%TD*%
D22*
%TO.P,JP1,1,A*%
%TO.N,NS_CPU*%
X3155000Y-1360000D03*
D23*
%TO.P,JP1,2,B*%
%TO.N,Net-(JP1-B)*%
X4605000Y-1360000D03*
%TD*%
D24*
%TO.N,GND*%
X4440000Y-4640000D03*
X920000Y-8060000D03*
X920000Y-2740000D03*
%TO.N,+3V3*%
X4560000Y-2830000D03*
%TO.N,LED_DATA*%
X4590000Y-8930000D03*
%TO.N,RST*%
X6830000Y-7950000D03*
%TO.N,Net-(U1-GPIO29_ADC3)*%
X11630000Y-8050000D03*
%TO.N,Net-(U1-GPIO28_ADC2)*%
X10780000Y-7760000D03*
%TO.N,Net-(U1-GPIO27_ADC1)*%
X9860000Y-7800000D03*
%TO.N,Net-(U1-GPIO26_ADC0)*%
X8780000Y-7990000D03*
%TO.N,+3V3*%
X7855000Y-7830000D03*
%TO.N,QSPI_SD3*%
X11405000Y-6225000D03*
%TO.N,QSPI_SCK*%
X11290000Y-5270000D03*
%TO.N,QSPI_SD0*%
X11290000Y-4470000D03*
%TO.N,QSPI_SD2*%
X11380000Y-3710000D03*
%TO.N,QSPI_SD1*%
X9775000Y-3695000D03*
%TO.N,QSPI_CS*%
X9050000Y-3685000D03*
%TO.N,+3V3*%
X4980000Y-9880000D03*
X11720000Y-920000D03*
X12755000Y-9090000D03*
X8955000Y-1090000D03*
X6840000Y-5730000D03*
%TO.N,+1V1*%
X6850000Y-6785000D03*
X11660000Y-7010000D03*
%TO.N,NS_SDA*%
X7840000Y-3515000D03*
%TO.N,NS_SCL*%
X6850000Y-3850000D03*
%TD*%
D25*
%TO.N,Net-(JP1-B)*%
X4605000Y-1360000D02*
X5550000Y-1360000D01*
X5550000Y-1360000D02*
X5940000Y-970000D01*
D26*
%TO.N,QSPI_SD3*%
X11405000Y-6225000D02*
X11710000Y-5920000D01*
X11710000Y-5920000D02*
X11710000Y-5560000D01*
X11710000Y-5560000D02*
X12165000Y-5105000D01*
X12165000Y-5105000D02*
X12755000Y-5105000D01*
%TO.N,QSPI_SCK*%
X11434707Y-5270000D02*
X11999707Y-4705000D01*
X11999707Y-4705000D02*
X12755000Y-4705000D01*
X11290000Y-5270000D02*
X11434707Y-5270000D01*
%TO.N,QSPI_SD0*%
X11728126Y-4305000D02*
X12755000Y-4305000D01*
X11290000Y-4470000D02*
X11563126Y-4470000D01*
X11563126Y-4470000D02*
X11728126Y-4305000D01*
D25*
%TO.N,+3V3*%
X12755000Y-5905000D02*
X13382800Y-5905000D01*
X13382800Y-5905000D02*
X13493900Y-5793900D01*
X13493900Y-5793900D02*
X13493900Y-5553733D01*
X13493900Y-5553733D02*
X14255753Y-4791880D01*
%TO.N,D-*%
X12755000Y-7105000D02*
X14028873Y-7105000D01*
X14028873Y-7105000D02*
X14255753Y-7331880D01*
%TO.N,D+*%
X12755000Y-6705000D02*
X13612633Y-6705000D01*
X13612633Y-6705000D02*
X14255753Y-6061880D01*
D26*
%TO.N,QSPI_SD2*%
X11930000Y-3710000D02*
X12125000Y-3905000D01*
X11380000Y-3710000D02*
X11930000Y-3710000D01*
X12125000Y-3905000D02*
X12755000Y-3905000D01*
%TO.N,QSPI_SD1*%
X9775000Y-3695000D02*
X10270000Y-3200000D01*
X10270000Y-3200000D02*
X11835000Y-3200000D01*
X11835000Y-3200000D02*
X12140000Y-3505000D01*
X12140000Y-3505000D02*
X12755000Y-3505000D01*
%TO.N,QSPI_CS*%
X9050000Y-3685000D02*
X9765000Y-2970000D01*
X9765000Y-2970000D02*
X12010000Y-2970000D01*
X12010000Y-2970000D02*
X12145000Y-3105000D01*
X12145000Y-3105000D02*
X12755000Y-3105000D01*
D25*
%TO.N,+1V1*%
X11660000Y-7010000D02*
X12010000Y-6660000D01*
X12010000Y-6660000D02*
X12010000Y-5622200D01*
X12010000Y-5622200D02*
X12127200Y-5505000D01*
X12127200Y-5505000D02*
X12755000Y-5505000D01*
%TO.N,Net-(U1-GPIO27_ADC1)*%
X9860000Y-7800000D02*
X9900000Y-7800000D01*
X9900000Y-7800000D02*
X10605000Y-8505000D01*
X10605000Y-8505000D02*
X10605000Y-9255000D01*
%TO.N,Net-(U1-GPIO26_ADC0)*%
X8780000Y-7990000D02*
X8960000Y-7990000D01*
X8960000Y-7990000D02*
X9410000Y-8440000D01*
X9410000Y-8440000D02*
X10017800Y-8440000D01*
X10017800Y-8440000D02*
X10205000Y-8627200D01*
X10205000Y-8627200D02*
X10205000Y-9255000D01*
%TO.N,Net-(U1-GPIO28_ADC2)*%
X10780000Y-7760000D02*
X11005000Y-7985000D01*
X11005000Y-7985000D02*
X11005000Y-9255000D01*
%TO.N,+3V3*%
X8205000Y-8627200D02*
X8205000Y-9255000D01*
X7855000Y-8277200D02*
X8205000Y-8627200D01*
X7855000Y-7830000D02*
X7855000Y-8277200D01*
%TO.N,Net-(U1-GPIO29_ADC3)*%
X11405000Y-8695000D02*
X11405000Y-9255000D01*
X11630000Y-8050000D02*
X11630000Y-8470000D01*
X11630000Y-8470000D02*
X11405000Y-8695000D01*
%TO.N,+1V1*%
X12155000Y-7505000D02*
X12755000Y-7505000D01*
X11660000Y-7010000D02*
X12155000Y-7505000D01*
%TO.N,LED_DATA*%
X4590000Y-8220000D02*
X4590000Y-8930000D01*
X4905000Y-7905000D02*
X4590000Y-8220000D01*
X5655000Y-7905000D02*
X4905000Y-7905000D01*
%TO.N,RST*%
X6385000Y-7505000D02*
X6830000Y-7950000D01*
X5655000Y-7505000D02*
X6385000Y-7505000D01*
%TO.N,NS_SCL*%
X6850000Y-3850000D02*
X6505000Y-3505000D01*
X6505000Y-3505000D02*
X5655000Y-3505000D01*
%TO.N,+3V3*%
X11720000Y-2070000D02*
X11805000Y-2155000D01*
X11720000Y-920000D02*
X11720000Y-2070000D01*
%TO.N,NS_SDA*%
X7840000Y-3515000D02*
X7430000Y-3105000D01*
X7430000Y-3105000D02*
X5655000Y-3105000D01*
D26*
%TO.N,GND*%
X1830000Y-7920000D02*
X1422000Y-7512000D01*
X2810000Y-2850000D02*
X3172000Y-3212000D01*
X1422000Y-7512000D02*
X1422000Y-6483000D01*
X3172000Y-3212000D02*
X3172000Y-4283000D01*
D25*
%TO.N,+3V3*%
X5655000Y-5905000D02*
X6665000Y-5905000D01*
X8205000Y-1625000D02*
X8205000Y-2155000D01*
X8955000Y-1090000D02*
X8740000Y-1090000D01*
X6665000Y-5905000D02*
X6840000Y-5730000D01*
X12755000Y-5905000D02*
X12755000Y-6305000D01*
X8740000Y-1090000D02*
X8205000Y-1625000D01*
D26*
X12755000Y-9090000D02*
X12755000Y-8305000D01*
D25*
%TO.N,+1V1*%
X6370000Y-6305000D02*
X6850000Y-6785000D01*
X5655000Y-6305000D02*
X6370000Y-6305000D01*
D26*
%TO.N,XIN*%
X5655000Y-5105000D02*
X5600000Y-5160000D01*
X1850000Y-2850000D02*
X1422000Y-3278000D01*
X2299000Y-5160000D02*
X1422000Y-4283000D01*
X5600000Y-5160000D02*
X2299000Y-5160000D01*
X1422000Y-3278000D02*
X1422000Y-4283000D01*
%TO.N,Net-(X1-OSC1)*%
X4500000Y-6800000D02*
X3489000Y-6800000D01*
X3172000Y-6483000D02*
X3172000Y-7538000D01*
X3489000Y-6800000D02*
X3172000Y-6483000D01*
X3172000Y-7538000D02*
X2790000Y-7920000D01*
%TO.N,XOUT*%
X5655000Y-5505000D02*
X4775000Y-5505000D01*
X4775000Y-5505000D02*
X4500000Y-5780000D01*
D25*
%TO.N,NS_CPU*%
X3155000Y-1360000D02*
X1680000Y-1360000D01*
X4945000Y-4305000D02*
X3580000Y-2940000D01*
X3580000Y-1785000D02*
X3155000Y-1360000D01*
X1680000Y-1360000D02*
X1430000Y-1110000D01*
X3580000Y-2940000D02*
X3580000Y-1785000D01*
X5655000Y-4305000D02*
X4945000Y-4305000D01*
%TD*%
%TA.AperFunction,Conductor*%
%TO.N,GND*%
G36*
X14935648Y-64352D02*
G01*
X14950000Y-99000D01*
X14950000Y-2177000D01*
X14935648Y-2211648D01*
X14901000Y-2226000D01*
X14866352Y-2211648D01*
X14852419Y-2183396D01*
X14851268Y-2174655D01*
X14840797Y-2095118D01*
X14780289Y-1949039D01*
X14743950Y-1901681D01*
X14684035Y-1823597D01*
X14558595Y-1727345D01*
X14558594Y-1727344D01*
X14412515Y-1666836D01*
X14255753Y-1646198D01*
X14098990Y-1666836D01*
X13995695Y-1709622D01*
X13970884Y-1719900D01*
X13952910Y-1727345D01*
X13827470Y-1823597D01*
X13731218Y-1949037D01*
X13670709Y-2095117D01*
X13653478Y-2226000D01*
X13650071Y-2251880D01*
X13670709Y-2408642D01*
X13731217Y-2554721D01*
X13731218Y-2554722D01*
X13827470Y-2680162D01*
X13876012Y-2717409D01*
X13952912Y-2776416D01*
X14098991Y-2836924D01*
X14255753Y-2857562D01*
X14412515Y-2836924D01*
X14558594Y-2776416D01*
X14684035Y-2680162D01*
X14780289Y-2554721D01*
X14840797Y-2408642D01*
X14852419Y-2320362D01*
X14871171Y-2287885D01*
X14907396Y-2278178D01*
X14939874Y-2296930D01*
X14950000Y-2326759D01*
X14950000Y-4717000D01*
X14935648Y-4751648D01*
X14901000Y-4766000D01*
X14866352Y-4751648D01*
X14852419Y-4723396D01*
X14851577Y-4717000D01*
X14840797Y-4635118D01*
X14780289Y-4489039D01*
X14724375Y-4416170D01*
X14684035Y-4363597D01*
X14558595Y-4267345D01*
X14558594Y-4267344D01*
X14412515Y-4206836D01*
X14255753Y-4186198D01*
X14098990Y-4206836D01*
X14019276Y-4239855D01*
X13970278Y-4260151D01*
X13952910Y-4267345D01*
X13827470Y-4363597D01*
X13731218Y-4489037D01*
X13731217Y-4489038D01*
X13731217Y-4489039D01*
X13728869Y-4494708D01*
X13670709Y-4635117D01*
X13654651Y-4757095D01*
X13650071Y-4791880D01*
X13656961Y-4844213D01*
X13670709Y-4948643D01*
X13705167Y-5031835D01*
X13705167Y-5069338D01*
X13694545Y-5085234D01*
X13477802Y-5301977D01*
X13443154Y-5316329D01*
X13408506Y-5301977D01*
X13394154Y-5267329D01*
X13398239Y-5253864D01*
X13397768Y-5253771D01*
X13399857Y-5243269D01*
X13405500Y-5214899D01*
X13405499Y-4995102D01*
X13402726Y-4981159D01*
X13399669Y-4965786D01*
X13387095Y-4946969D01*
X13377457Y-4932543D01*
X13377456Y-4932542D01*
X13377242Y-4932222D01*
X13369926Y-4895440D01*
X13377242Y-4877776D01*
X13377453Y-4877459D01*
X13377457Y-4877457D01*
X13399669Y-4844213D01*
X13405500Y-4814899D01*
X13405499Y-4595102D01*
X13399669Y-4565787D01*
X13399669Y-4565786D01*
X13384994Y-4543823D01*
X13377457Y-4532543D01*
X13377456Y-4532542D01*
X13377242Y-4532222D01*
X13369926Y-4495440D01*
X13377242Y-4477776D01*
X13377453Y-4477459D01*
X13377457Y-4477457D01*
X13399669Y-4444213D01*
X13405500Y-4414899D01*
X13405499Y-4195102D01*
X13399669Y-4165787D01*
X13399669Y-4165786D01*
X13380498Y-4137095D01*
X13377457Y-4132543D01*
X13377456Y-4132542D01*
X13377242Y-4132222D01*
X13369926Y-4095440D01*
X13377242Y-4077776D01*
X13377453Y-4077459D01*
X13377457Y-4077457D01*
X13399669Y-4044213D01*
X13405500Y-4014899D01*
X13405499Y-3795102D01*
X13404857Y-3791873D01*
X13399669Y-3765786D01*
X13382666Y-3740339D01*
X13377457Y-3732543D01*
X13377456Y-3732542D01*
X13377242Y-3732222D01*
X13369926Y-3695440D01*
X13377242Y-3677776D01*
X13377453Y-3677459D01*
X13377457Y-3677457D01*
X13399669Y-3644213D01*
X13405500Y-3614899D01*
X13405499Y-3395102D01*
X13403266Y-3383873D01*
X13399669Y-3365786D01*
X13382527Y-3340131D01*
X13377457Y-3332543D01*
X13377456Y-3332542D01*
X13377242Y-3332222D01*
X13369926Y-3295440D01*
X13377242Y-3277776D01*
X13377453Y-3277459D01*
X13377457Y-3277457D01*
X13399669Y-3244213D01*
X13405500Y-3214899D01*
X13405499Y-2995102D01*
X13399669Y-2965787D01*
X13399669Y-2965786D01*
X13377457Y-2932543D01*
X13369923Y-2927509D01*
X13344213Y-2910331D01*
X13344212Y-2910330D01*
X13344211Y-2910330D01*
X13314900Y-2904500D01*
X12195099Y-2904500D01*
X12176193Y-2908260D01*
X12139412Y-2900941D01*
X12131990Y-2894849D01*
X12092164Y-2855023D01*
X12092163Y-2855023D01*
X12082159Y-2845019D01*
X12082158Y-2845018D01*
X12070032Y-2841768D01*
X12058219Y-2836875D01*
X12047350Y-2830600D01*
X12033617Y-2830600D01*
X11998969Y-2816247D01*
X11984619Y-2781598D01*
X11992876Y-2754379D01*
X11999669Y-2744213D01*
X12005500Y-2714899D01*
X12005499Y-1595102D01*
X11999669Y-1565787D01*
X11999669Y-1565786D01*
X11977457Y-1532543D01*
X11960106Y-1520950D01*
X11944213Y-1510331D01*
X11944211Y-1510330D01*
X11936109Y-1504917D01*
X11937112Y-1503415D01*
X11917657Y-1490415D01*
X11909400Y-1463193D01*
X11909400Y-1246578D01*
X11923752Y-1211930D01*
X11965082Y-1170600D01*
X12007095Y-1128587D01*
X12040486Y-1063053D01*
X12057500Y-1029662D01*
X12066738Y-971333D01*
X12074869Y-920000D01*
X12057500Y-810339D01*
X12057500Y-810337D01*
X12007094Y-711412D01*
X11928587Y-632905D01*
X11829662Y-582499D01*
X11733189Y-567220D01*
X11720000Y-565131D01*
X11719999Y-565131D01*
X11610337Y-582499D01*
X11511412Y-632905D01*
X11432905Y-711412D01*
X11382499Y-810337D01*
X11365131Y-920000D01*
X11382499Y-1029662D01*
X11432905Y-1128587D01*
X11516248Y-1211930D01*
X11530600Y-1246578D01*
X11530600Y-1455500D01*
X11516248Y-1490148D01*
X11481600Y-1504500D01*
X11295102Y-1504500D01*
X11265784Y-1510331D01*
X11232221Y-1532757D01*
X11195439Y-1540073D01*
X11177777Y-1532757D01*
X11177455Y-1532542D01*
X11152015Y-1515544D01*
X11144212Y-1510330D01*
X11114900Y-1504500D01*
X10895102Y-1504500D01*
X10865784Y-1510331D01*
X10832221Y-1532757D01*
X10795439Y-1540073D01*
X10777777Y-1532757D01*
X10777455Y-1532542D01*
X10752015Y-1515544D01*
X10744212Y-1510330D01*
X10714900Y-1504500D01*
X10495102Y-1504500D01*
X10465784Y-1510331D01*
X10432221Y-1532757D01*
X10395439Y-1540073D01*
X10377777Y-1532757D01*
X10377455Y-1532542D01*
X10352015Y-1515544D01*
X10344212Y-1510330D01*
X10314900Y-1504500D01*
X10095102Y-1504500D01*
X10065784Y-1510331D01*
X10032221Y-1532757D01*
X9995439Y-1540073D01*
X9977777Y-1532757D01*
X9977455Y-1532542D01*
X9952015Y-1515544D01*
X9944212Y-1510330D01*
X9914900Y-1504500D01*
X9695102Y-1504500D01*
X9665784Y-1510331D01*
X9632221Y-1532757D01*
X9595439Y-1540073D01*
X9577777Y-1532757D01*
X9577455Y-1532542D01*
X9552015Y-1515544D01*
X9544212Y-1510330D01*
X9514900Y-1504500D01*
X9295102Y-1504500D01*
X9265784Y-1510331D01*
X9232221Y-1532757D01*
X9195439Y-1540073D01*
X9177777Y-1532757D01*
X9177455Y-1532542D01*
X9152015Y-1515544D01*
X9144212Y-1510330D01*
X9110165Y-1503558D01*
X9110560Y-1501567D01*
X9082992Y-1490148D01*
X9068640Y-1455500D01*
X9082992Y-1420852D01*
X9095394Y-1411841D01*
X9109112Y-1404851D01*
X9163587Y-1377095D01*
X9242095Y-1298587D01*
X9286249Y-1211930D01*
X9292500Y-1199662D01*
X9303757Y-1128587D01*
X9309869Y-1090000D01*
X9292500Y-980339D01*
X9292500Y-980337D01*
X9242094Y-881412D01*
X9163587Y-802905D01*
X9064662Y-752499D01*
X8955000Y-735131D01*
X8845337Y-752499D01*
X8746412Y-802905D01*
X8667905Y-881411D01*
X8652268Y-912100D01*
X8639162Y-928161D01*
X8632375Y-933574D01*
X8627896Y-936753D01*
X8621163Y-940984D01*
X8615535Y-946611D01*
X8611445Y-950265D01*
X8588112Y-968873D01*
X8586928Y-971333D01*
X8577431Y-984715D01*
X8099715Y-1462431D01*
X8086333Y-1471928D01*
X8083873Y-1473112D01*
X8065265Y-1496445D01*
X8061611Y-1500535D01*
X8055982Y-1506165D01*
X8051749Y-1512901D01*
X8048576Y-1517373D01*
X8045724Y-1520950D01*
X8034638Y-1531142D01*
X8032226Y-1532754D01*
X7995444Y-1540074D01*
X7977777Y-1532757D01*
X7977455Y-1532542D01*
X7952015Y-1515544D01*
X7944212Y-1510330D01*
X7914900Y-1504500D01*
X7695102Y-1504500D01*
X7665784Y-1510331D01*
X7632221Y-1532757D01*
X7595439Y-1540073D01*
X7577777Y-1532757D01*
X7577455Y-1532542D01*
X7552015Y-1515544D01*
X7544212Y-1510330D01*
X7514900Y-1504500D01*
X7295102Y-1504500D01*
X7265784Y-1510331D01*
X7232221Y-1532757D01*
X7195439Y-1540073D01*
X7177777Y-1532757D01*
X7177455Y-1532542D01*
X7152015Y-1515544D01*
X7144212Y-1510330D01*
X7114900Y-1504500D01*
X6895102Y-1504500D01*
X6865784Y-1510331D01*
X6832221Y-1532757D01*
X6795439Y-1540073D01*
X6777777Y-1532757D01*
X6777455Y-1532542D01*
X6752015Y-1515544D01*
X6744212Y-1510330D01*
X6714900Y-1504500D01*
X6495102Y-1504500D01*
X6465786Y-1510330D01*
X6432543Y-1532542D01*
X6410330Y-1565788D01*
X6404500Y-1595099D01*
X6404500Y-2714897D01*
X6410330Y-2744213D01*
X6427510Y-2769925D01*
X6432543Y-2777457D01*
X6465787Y-2799669D01*
X6495101Y-2805500D01*
X6714898Y-2805499D01*
X6744213Y-2799669D01*
X6777457Y-2777457D01*
X6777458Y-2777454D01*
X6777777Y-2777242D01*
X6814559Y-2769925D01*
X6832223Y-2777242D01*
X6832541Y-2777454D01*
X6832543Y-2777457D01*
X6865787Y-2799669D01*
X6895101Y-2805500D01*
X7114898Y-2805499D01*
X7144213Y-2799669D01*
X7177457Y-2777457D01*
X7177458Y-2777454D01*
X7177777Y-2777242D01*
X7214559Y-2769925D01*
X7232223Y-2777242D01*
X7232541Y-2777454D01*
X7232543Y-2777457D01*
X7265787Y-2799669D01*
X7295101Y-2805500D01*
X7514898Y-2805499D01*
X7544213Y-2799669D01*
X7577457Y-2777457D01*
X7577458Y-2777454D01*
X7577777Y-2777242D01*
X7614559Y-2769925D01*
X7632223Y-2777242D01*
X7632541Y-2777454D01*
X7632543Y-2777457D01*
X7665787Y-2799669D01*
X7695101Y-2805500D01*
X7914898Y-2805499D01*
X7944213Y-2799669D01*
X7977457Y-2777457D01*
X7977458Y-2777454D01*
X7977777Y-2777242D01*
X8014559Y-2769925D01*
X8032223Y-2777242D01*
X8032541Y-2777454D01*
X8032543Y-2777457D01*
X8065787Y-2799669D01*
X8095101Y-2805500D01*
X8314898Y-2805499D01*
X8344213Y-2799669D01*
X8377457Y-2777457D01*
X8377458Y-2777454D01*
X8377777Y-2777242D01*
X8414559Y-2769925D01*
X8432223Y-2777242D01*
X8432541Y-2777454D01*
X8432543Y-2777457D01*
X8465787Y-2799669D01*
X8495101Y-2805500D01*
X8714898Y-2805499D01*
X8744213Y-2799669D01*
X8777457Y-2777457D01*
X8777458Y-2777454D01*
X8777777Y-2777242D01*
X8814559Y-2769925D01*
X8832223Y-2777242D01*
X8832541Y-2777454D01*
X8832543Y-2777457D01*
X8865787Y-2799669D01*
X8895101Y-2805500D01*
X9114898Y-2805499D01*
X9144213Y-2799669D01*
X9177457Y-2777457D01*
X9177458Y-2777454D01*
X9177777Y-2777242D01*
X9214559Y-2769925D01*
X9232223Y-2777242D01*
X9232541Y-2777454D01*
X9232543Y-2777457D01*
X9265787Y-2799669D01*
X9295101Y-2805500D01*
X9514898Y-2805499D01*
X9544213Y-2799669D01*
X9577457Y-2777457D01*
X9577458Y-2777454D01*
X9577777Y-2777242D01*
X9614559Y-2769925D01*
X9632223Y-2777242D01*
X9632541Y-2777454D01*
X9632543Y-2777457D01*
X9659545Y-2795498D01*
X9680380Y-2826681D01*
X9673064Y-2863463D01*
X9666970Y-2870888D01*
X9203815Y-3334042D01*
X9169167Y-3348394D01*
X9161502Y-3347791D01*
X9050000Y-3330131D01*
X8940337Y-3347499D01*
X8841412Y-3397905D01*
X8762905Y-3476412D01*
X8712499Y-3575337D01*
X8695131Y-3685000D01*
X8712499Y-3794662D01*
X8750820Y-3869869D01*
X8762905Y-3893587D01*
X8841413Y-3972095D01*
X8873554Y-3988472D01*
X8940337Y-4022500D01*
X8966718Y-4026678D01*
X9050000Y-4039869D01*
X9144667Y-4024874D01*
X9159662Y-4022500D01*
X9209523Y-3997094D01*
X9258587Y-3972095D01*
X9337095Y-3893587D01*
X9358030Y-3852500D01*
X9366293Y-3836283D01*
X9394810Y-3811926D01*
X9432197Y-3814869D01*
X9453611Y-3836282D01*
X9460600Y-3849998D01*
X9487905Y-3903587D01*
X9566413Y-3982095D01*
X9595850Y-3997094D01*
X9665337Y-4032500D01*
X9691718Y-4036678D01*
X9775000Y-4049869D01*
X9869667Y-4034874D01*
X9884662Y-4032500D01*
X9922932Y-4013000D01*
X9983587Y-3982095D01*
X10062095Y-3903587D01*
X10107299Y-3814869D01*
X10112500Y-3804662D01*
X10120013Y-3757225D01*
X10129869Y-3695000D01*
X10112500Y-3585339D01*
X10112208Y-3583495D01*
X10120963Y-3547029D01*
X10125950Y-3541189D01*
X10313388Y-3353752D01*
X10348037Y-3339400D01*
X11136622Y-3339400D01*
X11171270Y-3353752D01*
X11185622Y-3388400D01*
X11171270Y-3423048D01*
X11092905Y-3501412D01*
X11042499Y-3600337D01*
X11025131Y-3710000D01*
X11042499Y-3819662D01*
X11092905Y-3918587D01*
X11171413Y-3997095D01*
X11241888Y-4033004D01*
X11266245Y-4061521D01*
X11263302Y-4098908D01*
X11234785Y-4123265D01*
X11227309Y-4125060D01*
X11180337Y-4132500D01*
X11081412Y-4182905D01*
X11002905Y-4261412D01*
X10952499Y-4360337D01*
X10935131Y-4470000D01*
X10952499Y-4579662D01*
X11002905Y-4678586D01*
X11002905Y-4678587D01*
X11081413Y-4757095D01*
X11099012Y-4766062D01*
X11180337Y-4807500D01*
X11269379Y-4821603D01*
X11287895Y-4832950D01*
X11289484Y-4830358D01*
X11310620Y-4821603D01*
X11399661Y-4807500D01*
X11498587Y-4757095D01*
X11577095Y-4678587D01*
X11607324Y-4619256D01*
X11630448Y-4599506D01*
X11629698Y-4598207D01*
X11635280Y-4594982D01*
X11635284Y-4594982D01*
X11643095Y-4587171D01*
X11643098Y-4587169D01*
X11771515Y-4458752D01*
X11806163Y-4444400D01*
X12084264Y-4444400D01*
X12118912Y-4458752D01*
X12125006Y-4466177D01*
X12132757Y-4477777D01*
X12140074Y-4514559D01*
X12132757Y-4532223D01*
X12125006Y-4543823D01*
X12093823Y-4564659D01*
X12084264Y-4565600D01*
X11975329Y-4565600D01*
X11975321Y-4565601D01*
X11962354Y-4565601D01*
X11951483Y-4571876D01*
X11939674Y-4576768D01*
X11927549Y-4580017D01*
X11927546Y-4580019D01*
X11908493Y-4599070D01*
X11908489Y-4599076D01*
X11541033Y-4966532D01*
X11506385Y-4980884D01*
X11484139Y-4975543D01*
X11399662Y-4932500D01*
X11310620Y-4918397D01*
X11292103Y-4907049D01*
X11290515Y-4909642D01*
X11269379Y-4918397D01*
X11180337Y-4932499D01*
X11081412Y-4982905D01*
X11002905Y-5061412D01*
X10952499Y-5160337D01*
X10935131Y-5270000D01*
X10952499Y-5379662D01*
X10996366Y-5465754D01*
X11002905Y-5478587D01*
X11081413Y-5557095D01*
X11113554Y-5573472D01*
X11180337Y-5607500D01*
X11206718Y-5611678D01*
X11290000Y-5624869D01*
X11384667Y-5609874D01*
X11399662Y-5607500D01*
X11499354Y-5556704D01*
X11536742Y-5553761D01*
X11565259Y-5578117D01*
X11570600Y-5600363D01*
X11570600Y-5838987D01*
X11556248Y-5873635D01*
X11521600Y-5887987D01*
X11513935Y-5887384D01*
X11405000Y-5870131D01*
X11295337Y-5887499D01*
X11196412Y-5937905D01*
X11117905Y-6016412D01*
X11067499Y-6115337D01*
X11050131Y-6225000D01*
X11067499Y-6334662D01*
X11113210Y-6424373D01*
X11117905Y-6433587D01*
X11196413Y-6512095D01*
X11228554Y-6528472D01*
X11295337Y-6562500D01*
X11316104Y-6565789D01*
X11405000Y-6579869D01*
X11499667Y-6564874D01*
X11514662Y-6562500D01*
X11574085Y-6532222D01*
X11613587Y-6512095D01*
X11692095Y-6433587D01*
X11727940Y-6363235D01*
X11756458Y-6338879D01*
X11793846Y-6341822D01*
X11818202Y-6370339D01*
X11820600Y-6385481D01*
X11820600Y-6561251D01*
X11806248Y-6595899D01*
X11806248Y-6595900D01*
X11752773Y-6649374D01*
X11718125Y-6663725D01*
X11710461Y-6663122D01*
X11660000Y-6655130D01*
X11550337Y-6672499D01*
X11451412Y-6722905D01*
X11372905Y-6801412D01*
X11322499Y-6900337D01*
X11305131Y-7010000D01*
X11322499Y-7119662D01*
X11359816Y-7192899D01*
X11372905Y-7218587D01*
X11451413Y-7297095D01*
X11477390Y-7310331D01*
X11550337Y-7347500D01*
X11577172Y-7351750D01*
X11660000Y-7364869D01*
X11710461Y-7356876D01*
X11746926Y-7365631D01*
X11752773Y-7370625D01*
X11992430Y-7610282D01*
X12001928Y-7623666D01*
X12003113Y-7626126D01*
X12026447Y-7644735D01*
X12030544Y-7648396D01*
X12036165Y-7654017D01*
X12042903Y-7658251D01*
X12047377Y-7661426D01*
X12049232Y-7662905D01*
X12070709Y-7680032D01*
X12073362Y-7680637D01*
X12088529Y-7686918D01*
X12090837Y-7688369D01*
X12090838Y-7688369D01*
X12098330Y-7693077D01*
X12120031Y-7723664D01*
X12113748Y-7760637D01*
X12113004Y-7761785D01*
X12104920Y-7773886D01*
X12103394Y-7772867D01*
X12098789Y-7781391D01*
X12089997Y-7790170D01*
X12071981Y-7814202D01*
X12029140Y-7892526D01*
X11999922Y-7916037D01*
X11962637Y-7912001D01*
X11942492Y-7891257D01*
X11917095Y-7841413D01*
X11838587Y-7762905D01*
X11739662Y-7712499D01*
X11630000Y-7695131D01*
X11520337Y-7712499D01*
X11421412Y-7762905D01*
X11342905Y-7841412D01*
X11292500Y-7940337D01*
X11289831Y-7957189D01*
X11270235Y-7989165D01*
X11233768Y-7997920D01*
X11201792Y-7978324D01*
X11193664Y-7960431D01*
X11192631Y-7955907D01*
X11191710Y-7950492D01*
X11188369Y-7920836D01*
X11188369Y-7920835D01*
X11186921Y-7918531D01*
X11180638Y-7903366D01*
X11180032Y-7900709D01*
X11164914Y-7881752D01*
X11161424Y-7877375D01*
X11158247Y-7872897D01*
X11154015Y-7866163D01*
X11148396Y-7860544D01*
X11144735Y-7856448D01*
X11137223Y-7847029D01*
X11126841Y-7810993D01*
X11127137Y-7808811D01*
X11130090Y-7790173D01*
X11134869Y-7760000D01*
X11127346Y-7712500D01*
X11117500Y-7650337D01*
X11072519Y-7562059D01*
X11067095Y-7551413D01*
X10988587Y-7472905D01*
X10988586Y-7472904D01*
X10889662Y-7422499D01*
X10780000Y-7405131D01*
X10670337Y-7422499D01*
X10571412Y-7472905D01*
X10492905Y-7551412D01*
X10442499Y-7650337D01*
X10425131Y-7760000D01*
X10442499Y-7869662D01*
X10483681Y-7950484D01*
X10492905Y-7968587D01*
X10571413Y-8047095D01*
X10670339Y-8097500D01*
X10774266Y-8113960D01*
X10806242Y-8133555D01*
X10815600Y-8162357D01*
X10815600Y-8325276D01*
X10801248Y-8359924D01*
X10766600Y-8374276D01*
X10731952Y-8359924D01*
X10728291Y-8355828D01*
X10726125Y-8353112D01*
X10723666Y-8351928D01*
X10710282Y-8342430D01*
X10226094Y-7858242D01*
X10211742Y-7823594D01*
X10212346Y-7815927D01*
X10214869Y-7800000D01*
X10197500Y-7690337D01*
X10162380Y-7621412D01*
X10147095Y-7591413D01*
X10068587Y-7512905D01*
X10041729Y-7499220D01*
X9969662Y-7462499D01*
X9860000Y-7445131D01*
X9750337Y-7462499D01*
X9651412Y-7512905D01*
X9572905Y-7591412D01*
X9522499Y-7690337D01*
X9505131Y-7800000D01*
X9522499Y-7909662D01*
X9572904Y-8008586D01*
X9572905Y-8008587D01*
X9651413Y-8087095D01*
X9750339Y-8137500D01*
X9849482Y-8153203D01*
X9859031Y-8159055D01*
X9870515Y-8153203D01*
X9944991Y-8141406D01*
X9981456Y-8150161D01*
X9987303Y-8155155D01*
X9999100Y-8166952D01*
X10013452Y-8201600D01*
X9999100Y-8236248D01*
X9964452Y-8250600D01*
X9878182Y-8250600D01*
X9862196Y-8243978D01*
X9841817Y-8250600D01*
X9508748Y-8250600D01*
X9474100Y-8236248D01*
X9122568Y-7884716D01*
X9113066Y-7871323D01*
X9107915Y-7860624D01*
X9106688Y-7859119D01*
X9067095Y-7781413D01*
X8988587Y-7702905D01*
X8889662Y-7652499D01*
X8780000Y-7635131D01*
X8670337Y-7652499D01*
X8571412Y-7702905D01*
X8492905Y-7781412D01*
X8442499Y-7880337D01*
X8425131Y-7990000D01*
X8442499Y-8099662D01*
X8486233Y-8185493D01*
X8492905Y-8198587D01*
X8571413Y-8277095D01*
X8587126Y-8285101D01*
X8670337Y-8327500D01*
X8696718Y-8331678D01*
X8780000Y-8344869D01*
X8889661Y-8327500D01*
X8950677Y-8296409D01*
X8988062Y-8293467D01*
X9007569Y-8305421D01*
X9247430Y-8545282D01*
X9256926Y-8558663D01*
X9259435Y-8563871D01*
X9261544Y-8601315D01*
X9242514Y-8625880D01*
X9232222Y-8632757D01*
X9195440Y-8640074D01*
X9177777Y-8632757D01*
X9177455Y-8632542D01*
X9160899Y-8621480D01*
X9144212Y-8610330D01*
X9114900Y-8604500D01*
X8895102Y-8604500D01*
X8865784Y-8610331D01*
X8832221Y-8632757D01*
X8795439Y-8640073D01*
X8777777Y-8632757D01*
X8777455Y-8632542D01*
X8760899Y-8621480D01*
X8744212Y-8610330D01*
X8714900Y-8604500D01*
X8495102Y-8604500D01*
X8465785Y-8610331D01*
X8465646Y-8610424D01*
X8428863Y-8617737D01*
X8397682Y-8596898D01*
X8389735Y-8575164D01*
X8388995Y-8568596D01*
X8388369Y-8563037D01*
X8386921Y-8560732D01*
X8380637Y-8545562D01*
X8380032Y-8542909D01*
X8372446Y-8533396D01*
X8361426Y-8519577D01*
X8358251Y-8515103D01*
X8354017Y-8508365D01*
X8348396Y-8502744D01*
X8344735Y-8498647D01*
X8326126Y-8475313D01*
X8323666Y-8474128D01*
X8310282Y-8464630D01*
X8058752Y-8213100D01*
X8044400Y-8178452D01*
X8044400Y-8156578D01*
X8058752Y-8121930D01*
X8093588Y-8087094D01*
X8142095Y-8038587D01*
X8177762Y-7968587D01*
X8192500Y-7939662D01*
X8196881Y-7912001D01*
X8209869Y-7830000D01*
X8192500Y-7720339D01*
X8192500Y-7720337D01*
X8153711Y-7644211D01*
X8142095Y-7621413D01*
X8063587Y-7542905D01*
X7964662Y-7492499D01*
X7855000Y-7475131D01*
X7745337Y-7492499D01*
X7646412Y-7542905D01*
X7567905Y-7621412D01*
X7517499Y-7720337D01*
X7500131Y-7830000D01*
X7517499Y-7939662D01*
X7556822Y-8016835D01*
X7567905Y-8038587D01*
X7646413Y-8117095D01*
X7646414Y-8117095D01*
X7651248Y-8121929D01*
X7665600Y-8156577D01*
X7665600Y-8236694D01*
X7662851Y-8252876D01*
X7662815Y-8252981D01*
X7661951Y-8255449D01*
X7662846Y-8263390D01*
X7665292Y-8285101D01*
X7665600Y-8290587D01*
X7665600Y-8298540D01*
X7667368Y-8306289D01*
X7668288Y-8311702D01*
X7671631Y-8341364D01*
X7672301Y-8342430D01*
X7673081Y-8343671D01*
X7679361Y-8358832D01*
X7679968Y-8361491D01*
X7689875Y-8373914D01*
X7698572Y-8384820D01*
X7701750Y-8389300D01*
X7705982Y-8396035D01*
X7711602Y-8401655D01*
X7715263Y-8405751D01*
X7722559Y-8414899D01*
X7733874Y-8429087D01*
X7736331Y-8430270D01*
X7749716Y-8439768D01*
X7830800Y-8520852D01*
X7845152Y-8555500D01*
X7830800Y-8590148D01*
X7796152Y-8604500D01*
X7695102Y-8604500D01*
X7665784Y-8610331D01*
X7632221Y-8632757D01*
X7595439Y-8640073D01*
X7577777Y-8632757D01*
X7577455Y-8632542D01*
X7560899Y-8621480D01*
X7544212Y-8610330D01*
X7514900Y-8604500D01*
X7295102Y-8604500D01*
X7265784Y-8610331D01*
X7232221Y-8632757D01*
X7195439Y-8640073D01*
X7177777Y-8632757D01*
X7177455Y-8632542D01*
X7160899Y-8621480D01*
X7144212Y-8610330D01*
X7114900Y-8604500D01*
X6895102Y-8604500D01*
X6865784Y-8610331D01*
X6832221Y-8632757D01*
X6795439Y-8640073D01*
X6777777Y-8632757D01*
X6777455Y-8632542D01*
X6760899Y-8621480D01*
X6744212Y-8610330D01*
X6714900Y-8604500D01*
X6495102Y-8604500D01*
X6465786Y-8610330D01*
X6432543Y-8632542D01*
X6410330Y-8665788D01*
X6404500Y-8695099D01*
X6404500Y-9814897D01*
X6410330Y-9844213D01*
X6432399Y-9877242D01*
X6432543Y-9877457D01*
X6465787Y-9899669D01*
X6495101Y-9905500D01*
X6714898Y-9905499D01*
X6744213Y-9899669D01*
X6777457Y-9877457D01*
X6777458Y-9877454D01*
X6777777Y-9877242D01*
X6814559Y-9869925D01*
X6832223Y-9877242D01*
X6832541Y-9877454D01*
X6832543Y-9877457D01*
X6865787Y-9899669D01*
X6895101Y-9905500D01*
X7114898Y-9905499D01*
X7144213Y-9899669D01*
X7177457Y-9877457D01*
X7177458Y-9877454D01*
X7177777Y-9877242D01*
X7214559Y-9869925D01*
X7232223Y-9877242D01*
X7232541Y-9877454D01*
X7232543Y-9877457D01*
X7265787Y-9899669D01*
X7295101Y-9905500D01*
X7514898Y-9905499D01*
X7544213Y-9899669D01*
X7577457Y-9877457D01*
X7577458Y-9877454D01*
X7577777Y-9877242D01*
X7614559Y-9869925D01*
X7632223Y-9877242D01*
X7632541Y-9877454D01*
X7632543Y-9877457D01*
X7665787Y-9899669D01*
X7695101Y-9905500D01*
X7914898Y-9905499D01*
X7944213Y-9899669D01*
X7977457Y-9877457D01*
X7977458Y-9877454D01*
X7977777Y-9877242D01*
X8014559Y-9869925D01*
X8032223Y-9877242D01*
X8032541Y-9877454D01*
X8032543Y-9877457D01*
X8065787Y-9899669D01*
X8095101Y-9905500D01*
X8314898Y-9905499D01*
X8344213Y-9899669D01*
X8377457Y-9877457D01*
X8377458Y-9877454D01*
X8377777Y-9877242D01*
X8414559Y-9869925D01*
X8432223Y-9877242D01*
X8432541Y-9877454D01*
X8432543Y-9877457D01*
X8465787Y-9899669D01*
X8495101Y-9905500D01*
X8714898Y-9905499D01*
X8744213Y-9899669D01*
X8777457Y-9877457D01*
X8777458Y-9877454D01*
X8777777Y-9877242D01*
X8814559Y-9869925D01*
X8832223Y-9877242D01*
X8832541Y-9877454D01*
X8832543Y-9877457D01*
X8865787Y-9899669D01*
X8895101Y-9905500D01*
X9114898Y-9905499D01*
X9144213Y-9899669D01*
X9177457Y-9877457D01*
X9177458Y-9877454D01*
X9177777Y-9877242D01*
X9214559Y-9869925D01*
X9232223Y-9877242D01*
X9232541Y-9877454D01*
X9232543Y-9877457D01*
X9265787Y-9899669D01*
X9295101Y-9905500D01*
X9514898Y-9905499D01*
X9544213Y-9899669D01*
X9577457Y-9877457D01*
X9577458Y-9877454D01*
X9577777Y-9877242D01*
X9614559Y-9869925D01*
X9632223Y-9877242D01*
X9632541Y-9877454D01*
X9632543Y-9877457D01*
X9665787Y-9899669D01*
X9695101Y-9905500D01*
X9914898Y-9905499D01*
X9944213Y-9899669D01*
X9977457Y-9877457D01*
X9977458Y-9877454D01*
X9977777Y-9877242D01*
X10014559Y-9869925D01*
X10032223Y-9877242D01*
X10032541Y-9877454D01*
X10032543Y-9877457D01*
X10065787Y-9899669D01*
X10095101Y-9905500D01*
X10314898Y-9905499D01*
X10344213Y-9899669D01*
X10377457Y-9877457D01*
X10377458Y-9877454D01*
X10377777Y-9877242D01*
X10414559Y-9869925D01*
X10432223Y-9877242D01*
X10432541Y-9877454D01*
X10432543Y-9877457D01*
X10465787Y-9899669D01*
X10495101Y-9905500D01*
X10714898Y-9905499D01*
X10744213Y-9899669D01*
X10777457Y-9877457D01*
X10777458Y-9877454D01*
X10777777Y-9877242D01*
X10814559Y-9869925D01*
X10832223Y-9877242D01*
X10832541Y-9877454D01*
X10832543Y-9877457D01*
X10865787Y-9899669D01*
X10895101Y-9905500D01*
X11114898Y-9905499D01*
X11144213Y-9899669D01*
X11177457Y-9877457D01*
X11177458Y-9877454D01*
X11177777Y-9877242D01*
X11214559Y-9869925D01*
X11232223Y-9877242D01*
X11232541Y-9877454D01*
X11232543Y-9877457D01*
X11265787Y-9899669D01*
X11295101Y-9905500D01*
X11514898Y-9905499D01*
X11544213Y-9899669D01*
X11577457Y-9877457D01*
X11577457Y-9877456D01*
X11577777Y-9877243D01*
X11614560Y-9869927D01*
X11632222Y-9877242D01*
X11632542Y-9877456D01*
X11632543Y-9877457D01*
X11655074Y-9892511D01*
X11664312Y-9901446D01*
X11664556Y-9901212D01*
X11666979Y-9903735D01*
X11666982Y-9903739D01*
X11687781Y-9925396D01*
X11687785Y-9925400D01*
X12336603Y-10431875D01*
X12355084Y-10464508D01*
X12345077Y-10500651D01*
X12312444Y-10519132D01*
X12306452Y-10519500D01*
X11332602Y-10519500D01*
X11303286Y-10525330D01*
X11270043Y-10547542D01*
X11247830Y-10580788D01*
X11242000Y-10610099D01*
X11242000Y-11829897D01*
X11247830Y-11859213D01*
X11257562Y-11873777D01*
X11264878Y-11910559D01*
X11244043Y-11941742D01*
X11216820Y-11950000D01*
X11040680Y-11950000D01*
X11006032Y-11935648D01*
X10991680Y-11901000D01*
X10999937Y-11873778D01*
X10999938Y-11873777D01*
X11009669Y-11859213D01*
X11015500Y-11829899D01*
X11015499Y-10610102D01*
X11009669Y-10580787D01*
X11009669Y-10580786D01*
X10987457Y-10547543D01*
X10987456Y-10547542D01*
X10954213Y-10525331D01*
X10954212Y-10525330D01*
X10954211Y-10525330D01*
X10924900Y-10519500D01*
X9705102Y-10519500D01*
X9675786Y-10525330D01*
X9642543Y-10547542D01*
X9620330Y-10580788D01*
X9614500Y-10610099D01*
X9614500Y-11829897D01*
X9620330Y-11859213D01*
X9630062Y-11873777D01*
X9637378Y-11910559D01*
X9616543Y-11941742D01*
X9589320Y-11950000D01*
X9413180Y-11950000D01*
X9378532Y-11935648D01*
X9364180Y-11901000D01*
X9372437Y-11873778D01*
X9372438Y-11873777D01*
X9382169Y-11859213D01*
X9388000Y-11829899D01*
X9387999Y-10610102D01*
X9382169Y-10580787D01*
X9382169Y-10580786D01*
X9359957Y-10547543D01*
X9359956Y-10547542D01*
X9326713Y-10525331D01*
X9326712Y-10525330D01*
X9326711Y-10525330D01*
X9297400Y-10519500D01*
X8077602Y-10519500D01*
X8048286Y-10525330D01*
X8015043Y-10547542D01*
X7992830Y-10580788D01*
X7987000Y-10610099D01*
X7987000Y-11829897D01*
X7992830Y-11859213D01*
X8002562Y-11873777D01*
X8009878Y-11910559D01*
X7989043Y-11941742D01*
X7961820Y-11950000D01*
X7785680Y-11950000D01*
X7751032Y-11935648D01*
X7736680Y-11901000D01*
X7744937Y-11873778D01*
X7744938Y-11873777D01*
X7754669Y-11859213D01*
X7760500Y-11829899D01*
X7760499Y-10610102D01*
X7754669Y-10580787D01*
X7754669Y-10580786D01*
X7732457Y-10547543D01*
X7732456Y-10547542D01*
X7699213Y-10525331D01*
X7699212Y-10525330D01*
X7699211Y-10525330D01*
X7669900Y-10519500D01*
X6450102Y-10519500D01*
X6420786Y-10525330D01*
X6387543Y-10547542D01*
X6365330Y-10580788D01*
X6359500Y-10610099D01*
X6359500Y-11829897D01*
X6365330Y-11859213D01*
X6375062Y-11873777D01*
X6382378Y-11910559D01*
X6361543Y-11941742D01*
X6334320Y-11950000D01*
X4535680Y-11950000D01*
X4501032Y-11935648D01*
X4486680Y-11901000D01*
X4494937Y-11873778D01*
X4494938Y-11873777D01*
X4504669Y-11859213D01*
X4510500Y-11829899D01*
X4510499Y-10610102D01*
X4504669Y-10580787D01*
X4504669Y-10580786D01*
X4482457Y-10547543D01*
X4482456Y-10547542D01*
X4449213Y-10525331D01*
X4449212Y-10525330D01*
X4449211Y-10525330D01*
X4419900Y-10519500D01*
X3200102Y-10519500D01*
X3170786Y-10525330D01*
X3137543Y-10547542D01*
X3115330Y-10580788D01*
X3109500Y-10610099D01*
X3109500Y-11829897D01*
X3115330Y-11859213D01*
X3125062Y-11873777D01*
X3132378Y-11910559D01*
X3111543Y-11941742D01*
X3084320Y-11950000D01*
X2903180Y-11950000D01*
X2868532Y-11935648D01*
X2854180Y-11901000D01*
X2862437Y-11873778D01*
X2862438Y-11873777D01*
X2872169Y-11859213D01*
X2878000Y-11829899D01*
X2877999Y-10610102D01*
X2872169Y-10580787D01*
X2872169Y-10580786D01*
X2849957Y-10547543D01*
X2849956Y-10547542D01*
X2816713Y-10525331D01*
X2816712Y-10525330D01*
X2816711Y-10525330D01*
X2787400Y-10519500D01*
X1567602Y-10519500D01*
X1538286Y-10525330D01*
X1505043Y-10547542D01*
X1482830Y-10580788D01*
X1477000Y-10610099D01*
X1477000Y-11829897D01*
X1482830Y-11859213D01*
X1492562Y-11873777D01*
X1499878Y-11910559D01*
X1479043Y-11941742D01*
X1451820Y-11950000D01*
X99000Y-11950000D01*
X64352Y-11935648D01*
X50000Y-11901000D01*
X50000Y-9880000D01*
X4625131Y-9880000D01*
X4642499Y-9989662D01*
X4692904Y-10088586D01*
X4692905Y-10088587D01*
X4771413Y-10167095D01*
X4803554Y-10183472D01*
X4870337Y-10217500D01*
X4896718Y-10221678D01*
X4980000Y-10234869D01*
X5074667Y-10219874D01*
X5089662Y-10217500D01*
X5123053Y-10200486D01*
X5188587Y-10167095D01*
X5267095Y-10088587D01*
X5300486Y-10023053D01*
X5317500Y-9989662D01*
X5327678Y-9925400D01*
X5334869Y-9880000D01*
X5317500Y-9770339D01*
X5317500Y-9770337D01*
X5267094Y-9671412D01*
X5188587Y-9592905D01*
X5089662Y-9542499D01*
X4980000Y-9525131D01*
X4870337Y-9542499D01*
X4771412Y-9592905D01*
X4692905Y-9671412D01*
X4642499Y-9770337D01*
X4625131Y-9880000D01*
X50000Y-9880000D01*
X50000Y-4992897D01*
X721500Y-4992897D01*
X727330Y-5022213D01*
X749542Y-5055456D01*
X749543Y-5055457D01*
X782787Y-5077669D01*
X812101Y-5083500D01*
X2005061Y-5083499D01*
X2039709Y-5097851D01*
X2219024Y-5277166D01*
X2219029Y-5277169D01*
X2226842Y-5284982D01*
X2230121Y-5285860D01*
X2238962Y-5288230D01*
X2250782Y-5293125D01*
X2261648Y-5299399D01*
X2272695Y-5299399D01*
X2272701Y-5299400D01*
X2280650Y-5299400D01*
X2336351Y-5299400D01*
X4665163Y-5299400D01*
X4699811Y-5313752D01*
X4714163Y-5348400D01*
X4699811Y-5383048D01*
X4699808Y-5383051D01*
X4687706Y-5395151D01*
X4653061Y-5409500D01*
X4291802Y-5409500D01*
X4223112Y-5423163D01*
X4145214Y-5475214D01*
X4093163Y-5553112D01*
X4079500Y-5621802D01*
X4079500Y-5938197D01*
X4093163Y-6006887D01*
X4098513Y-6014894D01*
X4145214Y-6084786D01*
X4213425Y-6130363D01*
X4223112Y-6136836D01*
X4291802Y-6150500D01*
X4291804Y-6150500D01*
X4708198Y-6150500D01*
X4753990Y-6141390D01*
X4776888Y-6136836D01*
X4854786Y-6084786D01*
X4906836Y-6006888D01*
X4907441Y-6003841D01*
X4928274Y-5972658D01*
X4965055Y-5965339D01*
X4996240Y-5986172D01*
X5003523Y-6010173D01*
X5003560Y-6010166D01*
X5003633Y-6010533D01*
X5004500Y-6013390D01*
X5004500Y-6014894D01*
X5010330Y-6044213D01*
X5032757Y-6077777D01*
X5040073Y-6114560D01*
X5032758Y-6132222D01*
X5032543Y-6132542D01*
X5032543Y-6132543D01*
X5029726Y-6136759D01*
X5010330Y-6165788D01*
X5004500Y-6195099D01*
X5004500Y-6414897D01*
X5010330Y-6444213D01*
X5032757Y-6477777D01*
X5040073Y-6514560D01*
X5032758Y-6532222D01*
X5032543Y-6532542D01*
X5032543Y-6532543D01*
X5010331Y-6565787D01*
X5010330Y-6565789D01*
X5005913Y-6587995D01*
X4985078Y-6619177D01*
X4948295Y-6626493D01*
X4917113Y-6605658D01*
X4909797Y-6587995D01*
X4906836Y-6573112D01*
X4901943Y-6565789D01*
X4854786Y-6495214D01*
X4802735Y-6460434D01*
X4776887Y-6443163D01*
X4708198Y-6429500D01*
X4708196Y-6429500D01*
X4291804Y-6429500D01*
X4291802Y-6429500D01*
X4223112Y-6443163D01*
X4145214Y-6495214D01*
X4093163Y-6573112D01*
X4083606Y-6621160D01*
X4062771Y-6652342D01*
X4035548Y-6660600D01*
X3921500Y-6660600D01*
X3886852Y-6646248D01*
X3872500Y-6611600D01*
X3872499Y-5773102D01*
X3866669Y-5743786D01*
X3844457Y-5710543D01*
X3828182Y-5699669D01*
X3811213Y-5688331D01*
X3811212Y-5688330D01*
X3811211Y-5688330D01*
X3781900Y-5682500D01*
X2562102Y-5682500D01*
X2532786Y-5688330D01*
X2499543Y-5710542D01*
X2477330Y-5743788D01*
X2471500Y-5773099D01*
X2471500Y-7192897D01*
X2477330Y-7222213D01*
X2492030Y-7244213D01*
X2499543Y-7255457D01*
X2532787Y-7277669D01*
X2562101Y-7283500D01*
X2983600Y-7283499D01*
X3018248Y-7297851D01*
X3032600Y-7332499D01*
X3032600Y-7459961D01*
X3018248Y-7494609D01*
X3013637Y-7499220D01*
X2978989Y-7513572D01*
X2969431Y-7512631D01*
X2953688Y-7509500D01*
X2626312Y-7509500D01*
X2626309Y-7509500D01*
X2556162Y-7523453D01*
X2476609Y-7576609D01*
X2423453Y-7656162D01*
X2409500Y-7726309D01*
X2409500Y-8113690D01*
X2423453Y-8183837D01*
X2423453Y-8183838D01*
X2423454Y-8183839D01*
X2476609Y-8263391D01*
X2556161Y-8316546D01*
X2567226Y-8318747D01*
X2626309Y-8330500D01*
X2626312Y-8330500D01*
X2953691Y-8330500D01*
X2995778Y-8322127D01*
X3023839Y-8316546D01*
X3103391Y-8263391D01*
X3156546Y-8183839D01*
X3165763Y-8137501D01*
X3170500Y-8113690D01*
X3170500Y-7756936D01*
X3184852Y-7722288D01*
X3226504Y-7680636D01*
X3283546Y-7623595D01*
X3283546Y-7623593D01*
X3287578Y-7619562D01*
X3287579Y-7619559D01*
X3296982Y-7610158D01*
X3300230Y-7598034D01*
X3305127Y-7586214D01*
X3311399Y-7575352D01*
X3311399Y-7562059D01*
X3311400Y-7562050D01*
X3311400Y-7332499D01*
X3325752Y-7297851D01*
X3360400Y-7283499D01*
X3781898Y-7283499D01*
X3811213Y-7277669D01*
X3811530Y-7277457D01*
X3844457Y-7255457D01*
X3866669Y-7222213D01*
X3872500Y-7192899D01*
X3872500Y-6988400D01*
X3886852Y-6953752D01*
X3921500Y-6939400D01*
X4035548Y-6939400D01*
X4070196Y-6953752D01*
X4083606Y-6978840D01*
X4093163Y-7026887D01*
X4110434Y-7052734D01*
X4145214Y-7104786D01*
X4223112Y-7156836D01*
X4291802Y-7170500D01*
X4291804Y-7170500D01*
X4708198Y-7170500D01*
X4753990Y-7161390D01*
X4776888Y-7156836D01*
X4854786Y-7104786D01*
X4906836Y-7026888D01*
X4907441Y-7023842D01*
X4928276Y-6992661D01*
X4965058Y-6985343D01*
X4996241Y-7006178D01*
X5004500Y-7033402D01*
X5004500Y-7214897D01*
X5010330Y-7244213D01*
X5032757Y-7277777D01*
X5040073Y-7314560D01*
X5032758Y-7332222D01*
X5032543Y-7332542D01*
X5032543Y-7332543D01*
X5021833Y-7348572D01*
X5010330Y-7365788D01*
X5004500Y-7395099D01*
X5004500Y-7614897D01*
X5012232Y-7653774D01*
X5010049Y-7654207D01*
X5014415Y-7676162D01*
X4993578Y-7707344D01*
X4966357Y-7715600D01*
X4945504Y-7715600D01*
X4929321Y-7712850D01*
X4926751Y-7711951D01*
X4926750Y-7711951D01*
X4897098Y-7715292D01*
X4891612Y-7715600D01*
X4883659Y-7715600D01*
X4875897Y-7717370D01*
X4870493Y-7718288D01*
X4840835Y-7721631D01*
X4838525Y-7723083D01*
X4823368Y-7729360D01*
X4820711Y-7729966D01*
X4797377Y-7748574D01*
X4792901Y-7751750D01*
X4786163Y-7755984D01*
X4780535Y-7761611D01*
X4776445Y-7765265D01*
X4753112Y-7783873D01*
X4751928Y-7786333D01*
X4742431Y-7799715D01*
X4484715Y-8057431D01*
X4471333Y-8066928D01*
X4468873Y-8068112D01*
X4450265Y-8091445D01*
X4446611Y-8095535D01*
X4440984Y-8101163D01*
X4436750Y-8107901D01*
X4433576Y-8112373D01*
X4425975Y-8121905D01*
X4414966Y-8135711D01*
X4414360Y-8138368D01*
X4408083Y-8153525D01*
X4406631Y-8155835D01*
X4403288Y-8185493D01*
X4402370Y-8190897D01*
X4400600Y-8198658D01*
X4400600Y-8206611D01*
X4400292Y-8212097D01*
X4397476Y-8237095D01*
X4396951Y-8241751D01*
X4397730Y-8243978D01*
X4397850Y-8244319D01*
X4400600Y-8260504D01*
X4400600Y-8603422D01*
X4386248Y-8638070D01*
X4302905Y-8721412D01*
X4252499Y-8820337D01*
X4235131Y-8930000D01*
X4252499Y-9039662D01*
X4302905Y-9138587D01*
X4381413Y-9217095D01*
X4413554Y-9233472D01*
X4480337Y-9267500D01*
X4506718Y-9271678D01*
X4590000Y-9284869D01*
X4684667Y-9269874D01*
X4699662Y-9267500D01*
X4733053Y-9250486D01*
X4798587Y-9217095D01*
X4877095Y-9138587D01*
X4910486Y-9073053D01*
X4927500Y-9039662D01*
X4929874Y-9024667D01*
X4944869Y-8930000D01*
X4927500Y-8820339D01*
X4927500Y-8820337D01*
X4877094Y-8721412D01*
X4793752Y-8638070D01*
X4779400Y-8603422D01*
X4779400Y-8318747D01*
X4793751Y-8284100D01*
X4920853Y-8156998D01*
X4955500Y-8142647D01*
X4990148Y-8156999D01*
X5004500Y-8191647D01*
X5004500Y-8414897D01*
X5010330Y-8444213D01*
X5031110Y-8475313D01*
X5032543Y-8477457D01*
X5065787Y-8499669D01*
X5095101Y-8505500D01*
X6214898Y-8505499D01*
X6244213Y-8499669D01*
X6277457Y-8477457D01*
X6299669Y-8444213D01*
X6305500Y-8414899D01*
X6305499Y-8195102D01*
X6302188Y-8178452D01*
X6299669Y-8165786D01*
X6281349Y-8138368D01*
X6277457Y-8132543D01*
X6277456Y-8132542D01*
X6277242Y-8132222D01*
X6269926Y-8095440D01*
X6277242Y-8077776D01*
X6277453Y-8077459D01*
X6277457Y-8077457D01*
X6299669Y-8044213D01*
X6305500Y-8014899D01*
X6305499Y-7811646D01*
X6319851Y-7776999D01*
X6354499Y-7762647D01*
X6389147Y-7776999D01*
X6469373Y-7857225D01*
X6483725Y-7891873D01*
X6483122Y-7899537D01*
X6475130Y-7949998D01*
X6492499Y-8059662D01*
X6532161Y-8137501D01*
X6542905Y-8158587D01*
X6621413Y-8237095D01*
X6636967Y-8245020D01*
X6720337Y-8287500D01*
X6739829Y-8290587D01*
X6830000Y-8304869D01*
X6924667Y-8289874D01*
X6939662Y-8287500D01*
X6973053Y-8270486D01*
X7038587Y-8237095D01*
X7117095Y-8158587D01*
X7163194Y-8068112D01*
X7167500Y-8059662D01*
X7170838Y-8038587D01*
X7184869Y-7950000D01*
X7170175Y-7857225D01*
X7167500Y-7840337D01*
X7129514Y-7765787D01*
X7117095Y-7741413D01*
X7038587Y-7662905D01*
X7035684Y-7661426D01*
X6939662Y-7612499D01*
X6829998Y-7595130D01*
X6779537Y-7603122D01*
X6743071Y-7594366D01*
X6737225Y-7589373D01*
X6547568Y-7399716D01*
X6538070Y-7386331D01*
X6536887Y-7383874D01*
X6528118Y-7376881D01*
X6513551Y-7365263D01*
X6509455Y-7361602D01*
X6503835Y-7355982D01*
X6497100Y-7351750D01*
X6492620Y-7348572D01*
X6491035Y-7347308D01*
X6469291Y-7329968D01*
X6466632Y-7329361D01*
X6451473Y-7323081D01*
X6449164Y-7321631D01*
X6433895Y-7319910D01*
X6419502Y-7318288D01*
X6414093Y-7317368D01*
X6406341Y-7315600D01*
X6398388Y-7315600D01*
X6392902Y-7315292D01*
X6386405Y-7314560D01*
X6363249Y-7311951D01*
X6363248Y-7311951D01*
X6360676Y-7312851D01*
X6344494Y-7315600D01*
X6343642Y-7315600D01*
X6308994Y-7301248D01*
X6294642Y-7266600D01*
X6298489Y-7253914D01*
X6297768Y-7253771D01*
X6304045Y-7222213D01*
X6305500Y-7214899D01*
X6305499Y-6995102D01*
X6299669Y-6965787D01*
X6299669Y-6965786D01*
X6287095Y-6946969D01*
X6277457Y-6932543D01*
X6277456Y-6932542D01*
X6277242Y-6932222D01*
X6269926Y-6895440D01*
X6277242Y-6877776D01*
X6277453Y-6877459D01*
X6277457Y-6877457D01*
X6299669Y-6844213D01*
X6305500Y-6814899D01*
X6305499Y-6626646D01*
X6319851Y-6591999D01*
X6354499Y-6577647D01*
X6389147Y-6591999D01*
X6489373Y-6692225D01*
X6503725Y-6726873D01*
X6503122Y-6734537D01*
X6495130Y-6784998D01*
X6512499Y-6894662D01*
X6555391Y-6978840D01*
X6562905Y-6993587D01*
X6641413Y-7072095D01*
X6666974Y-7085119D01*
X6740337Y-7122500D01*
X6766718Y-7126678D01*
X6850000Y-7139869D01*
X6944667Y-7124874D01*
X6959662Y-7122500D01*
X6994429Y-7104785D01*
X7058587Y-7072095D01*
X7137095Y-6993587D01*
X7182233Y-6904999D01*
X7187500Y-6894662D01*
X7191200Y-6871303D01*
X7204869Y-6785000D01*
X7187500Y-6675339D01*
X7187500Y-6675337D01*
X7147024Y-6595900D01*
X7137095Y-6576413D01*
X7058587Y-6497905D01*
X7051708Y-6494400D01*
X6959662Y-6447499D01*
X6849998Y-6430130D01*
X6799537Y-6438122D01*
X6763071Y-6429366D01*
X6757225Y-6424373D01*
X6532568Y-6199716D01*
X6523070Y-6186331D01*
X6521887Y-6183874D01*
X6519171Y-6181708D01*
X6501032Y-6148885D01*
X6511415Y-6112848D01*
X6544239Y-6094708D01*
X6549724Y-6094400D01*
X6624494Y-6094400D01*
X6640676Y-6097149D01*
X6641423Y-6097410D01*
X6643249Y-6098049D01*
X6672902Y-6094707D01*
X6678388Y-6094400D01*
X6686339Y-6094400D01*
X6686341Y-6094400D01*
X6694101Y-6092628D01*
X6699505Y-6091710D01*
X6729164Y-6088369D01*
X6731465Y-6086922D01*
X6746638Y-6080637D01*
X6749291Y-6080032D01*
X6749291Y-6080031D01*
X6760198Y-6077543D01*
X6760812Y-6080235D01*
X6778407Y-6075163D01*
X6780588Y-6075458D01*
X6840000Y-6084869D01*
X6934667Y-6069874D01*
X6949662Y-6067500D01*
X6990978Y-6046448D01*
X7048587Y-6017095D01*
X7127095Y-5938587D01*
X7168123Y-5858064D01*
X7177500Y-5839662D01*
X7181368Y-5815241D01*
X7194869Y-5730000D01*
X7179376Y-5632185D01*
X7177500Y-5620337D01*
X7137406Y-5541650D01*
X7127095Y-5521413D01*
X7048587Y-5442905D01*
X7029689Y-5433276D01*
X6949662Y-5392499D01*
X6840000Y-5375131D01*
X6730337Y-5392499D01*
X6631412Y-5442905D01*
X6552905Y-5521412D01*
X6502500Y-5620337D01*
X6493959Y-5674265D01*
X6474364Y-5706242D01*
X6445562Y-5715600D01*
X6343642Y-5715600D01*
X6308994Y-5701248D01*
X6294642Y-5666600D01*
X6298489Y-5653914D01*
X6297768Y-5653771D01*
X6301780Y-5633598D01*
X6305500Y-5614899D01*
X6305499Y-5395102D01*
X6299669Y-5365787D01*
X6299669Y-5365786D01*
X6284086Y-5342464D01*
X6277457Y-5332543D01*
X6277456Y-5332542D01*
X6277242Y-5332222D01*
X6269926Y-5295440D01*
X6277242Y-5277776D01*
X6277453Y-5277459D01*
X6277457Y-5277457D01*
X6299669Y-5244213D01*
X6305500Y-5214899D01*
X6305499Y-4995102D01*
X6302726Y-4981159D01*
X6299669Y-4965786D01*
X6277457Y-4932543D01*
X6250541Y-4914559D01*
X6244213Y-4910331D01*
X6244212Y-4910330D01*
X6244211Y-4910330D01*
X6214900Y-4904500D01*
X5095102Y-4904500D01*
X5065786Y-4910330D01*
X5032543Y-4932542D01*
X5012182Y-4963017D01*
X5010331Y-4965787D01*
X5007272Y-4981160D01*
X4986438Y-5012342D01*
X4959215Y-5020600D01*
X2377037Y-5020600D01*
X2342389Y-5006248D01*
X2136851Y-4800710D01*
X2122499Y-4766062D01*
X2122499Y-3573102D01*
X2116669Y-3543786D01*
X2094457Y-3510543D01*
X2071390Y-3495131D01*
X2061213Y-3488331D01*
X2061212Y-3488330D01*
X2061211Y-3488330D01*
X2031901Y-3482500D01*
X2031899Y-3482500D01*
X1610400Y-3482500D01*
X1575752Y-3468148D01*
X1561400Y-3433500D01*
X1561400Y-3356037D01*
X1575750Y-3321390D01*
X1626364Y-3270776D01*
X1661010Y-3256426D01*
X1670561Y-3257366D01*
X1686312Y-3260500D01*
X1686313Y-3260500D01*
X2013691Y-3260500D01*
X2055778Y-3252127D01*
X2083839Y-3246546D01*
X2163391Y-3193391D01*
X2216546Y-3113839D01*
X2223523Y-3078763D01*
X2230500Y-3043690D01*
X2230500Y-2656309D01*
X2216546Y-2586162D01*
X2216546Y-2586161D01*
X2163391Y-2506609D01*
X2083839Y-2453454D01*
X2083838Y-2453453D01*
X2083837Y-2453453D01*
X2013691Y-2439500D01*
X2013688Y-2439500D01*
X1686312Y-2439500D01*
X1686309Y-2439500D01*
X1616162Y-2453453D01*
X1536609Y-2506609D01*
X1483453Y-2586162D01*
X1469500Y-2656309D01*
X1469500Y-3013062D01*
X1455148Y-3047710D01*
X1310454Y-3192405D01*
X1297020Y-3205839D01*
X1297016Y-3205846D01*
X1293768Y-3217966D01*
X1288876Y-3229777D01*
X1282600Y-3240647D01*
X1282600Y-3433500D01*
X1268248Y-3468148D01*
X1233600Y-3482500D01*
X812102Y-3482500D01*
X782786Y-3488330D01*
X749543Y-3510542D01*
X727330Y-3543788D01*
X721500Y-3573099D01*
X721500Y-4992897D01*
X50000Y-4992897D01*
X50000Y-1719897D01*
X729500Y-1719897D01*
X735330Y-1749213D01*
X757542Y-1782456D01*
X757543Y-1782457D01*
X790787Y-1804669D01*
X820101Y-1810500D01*
X2039898Y-1810499D01*
X2069213Y-1804669D01*
X2102457Y-1782457D01*
X2124669Y-1749213D01*
X2130500Y-1719899D01*
X2130500Y-1598400D01*
X2144852Y-1563752D01*
X2179500Y-1549400D01*
X2503531Y-1549400D01*
X2538179Y-1563752D01*
X2552531Y-1598400D01*
X2552531Y-2110001D01*
X2560330Y-2149211D01*
X2560330Y-2149212D01*
X2560331Y-2149213D01*
X2582543Y-2182457D01*
X2615787Y-2204669D01*
X2628858Y-2207269D01*
X2654998Y-2212469D01*
X2655000Y-2212469D01*
X3341600Y-2212469D01*
X3376248Y-2226821D01*
X3390600Y-2261469D01*
X3390600Y-2899494D01*
X3387851Y-2915676D01*
X3387045Y-2917981D01*
X3386951Y-2918249D01*
X3388562Y-2932543D01*
X3390292Y-2947901D01*
X3390600Y-2953387D01*
X3390600Y-2961341D01*
X3391614Y-2965787D01*
X3392368Y-2969089D01*
X3393288Y-2974502D01*
X3396631Y-3004164D01*
X3398081Y-3006471D01*
X3404361Y-3021632D01*
X3404968Y-3024291D01*
X3420438Y-3043690D01*
X3423572Y-3047620D01*
X3426750Y-3052100D01*
X3430982Y-3058835D01*
X3436602Y-3064455D01*
X3440263Y-3068551D01*
X3451881Y-3083118D01*
X3458874Y-3091887D01*
X3461331Y-3093070D01*
X3474716Y-3102568D01*
X4782430Y-4410282D01*
X4791928Y-4423666D01*
X4793113Y-4426126D01*
X4816447Y-4444735D01*
X4820544Y-4448396D01*
X4826165Y-4454017D01*
X4832903Y-4458251D01*
X4837377Y-4461426D01*
X4843335Y-4466177D01*
X4860709Y-4480032D01*
X4863362Y-4480637D01*
X4878532Y-4486921D01*
X4879705Y-4487657D01*
X4880837Y-4488369D01*
X4910499Y-4491710D01*
X4915907Y-4492630D01*
X4919456Y-4493440D01*
X4923658Y-4494400D01*
X4923659Y-4494400D01*
X4931607Y-4494400D01*
X4937093Y-4494708D01*
X4966752Y-4498050D01*
X4969324Y-4497149D01*
X4985508Y-4494400D01*
X5043038Y-4494400D01*
X5056110Y-4498365D01*
X5056229Y-4497768D01*
X5065787Y-4499669D01*
X5095101Y-4505500D01*
X6214898Y-4505499D01*
X6244213Y-4499669D01*
X6277457Y-4477457D01*
X6299669Y-4444213D01*
X6305500Y-4414899D01*
X6305499Y-4195102D01*
X6299669Y-4165787D01*
X6299669Y-4165786D01*
X6280498Y-4137095D01*
X6277457Y-4132543D01*
X6277456Y-4132542D01*
X6277242Y-4132222D01*
X6269926Y-4095440D01*
X6277242Y-4077776D01*
X6277453Y-4077459D01*
X6277457Y-4077457D01*
X6299669Y-4044213D01*
X6305500Y-4014899D01*
X6305499Y-3795102D01*
X6305498Y-3795099D01*
X6297768Y-3756226D01*
X6299950Y-3755792D01*
X6295585Y-3733838D01*
X6316422Y-3702656D01*
X6343643Y-3694400D01*
X6406252Y-3694400D01*
X6440900Y-3708752D01*
X6489373Y-3757225D01*
X6503725Y-3791873D01*
X6503122Y-3799537D01*
X6495130Y-3849998D01*
X6512499Y-3959662D01*
X6555580Y-4044211D01*
X6562905Y-4058587D01*
X6641413Y-4137095D01*
X6654618Y-4143823D01*
X6740337Y-4187500D01*
X6766718Y-4191678D01*
X6850000Y-4204869D01*
X6944667Y-4189874D01*
X6959662Y-4187500D01*
X7004489Y-4164659D01*
X7058587Y-4137095D01*
X7137095Y-4058587D01*
X7170486Y-3993053D01*
X7187500Y-3959662D01*
X7194005Y-3918588D01*
X7204869Y-3850000D01*
X7187500Y-3740339D01*
X7187500Y-3740337D01*
X7138616Y-3644399D01*
X7137095Y-3641413D01*
X7058587Y-3562905D01*
X7045522Y-3556248D01*
X6959662Y-3512499D01*
X6849998Y-3495130D01*
X6799537Y-3503122D01*
X6763071Y-3494366D01*
X6757225Y-3489373D01*
X6667568Y-3399716D01*
X6658070Y-3386331D01*
X6656887Y-3383874D01*
X6654171Y-3381708D01*
X6636032Y-3348885D01*
X6646415Y-3312848D01*
X6679239Y-3294708D01*
X6684724Y-3294400D01*
X7331252Y-3294400D01*
X7365900Y-3308752D01*
X7479373Y-3422225D01*
X7493725Y-3456873D01*
X7493122Y-3464537D01*
X7485130Y-3514998D01*
X7502499Y-3624662D01*
X7552905Y-3723587D01*
X7631413Y-3802095D01*
X7650708Y-3811926D01*
X7730337Y-3852500D01*
X7756718Y-3856678D01*
X7840000Y-3869869D01*
X7934667Y-3854874D01*
X7949662Y-3852500D01*
X7983053Y-3835486D01*
X8048587Y-3802095D01*
X8127095Y-3723587D01*
X8167539Y-3644211D01*
X8177500Y-3624662D01*
X8185666Y-3573101D01*
X8194869Y-3515000D01*
X8180175Y-3422225D01*
X8177500Y-3405337D01*
X8134849Y-3321631D01*
X8127095Y-3306413D01*
X8048587Y-3227905D01*
X8041304Y-3224194D01*
X7949662Y-3177499D01*
X7839998Y-3160130D01*
X7789537Y-3168122D01*
X7753071Y-3159366D01*
X7747225Y-3154373D01*
X7592568Y-2999716D01*
X7583070Y-2986331D01*
X7581887Y-2983874D01*
X7570135Y-2974502D01*
X7558551Y-2965263D01*
X7554455Y-2961602D01*
X7548835Y-2955982D01*
X7542100Y-2951750D01*
X7537620Y-2948572D01*
X7526447Y-2939662D01*
X7514291Y-2929968D01*
X7511632Y-2929361D01*
X7496473Y-2923081D01*
X7494164Y-2921631D01*
X7478895Y-2919910D01*
X7464502Y-2918288D01*
X7459093Y-2917368D01*
X7451341Y-2915600D01*
X7443388Y-2915600D01*
X7437902Y-2915292D01*
X7408249Y-2911951D01*
X7408248Y-2911951D01*
X7405676Y-2912851D01*
X7389494Y-2915600D01*
X6266962Y-2915600D01*
X6253889Y-2911634D01*
X6253771Y-2912232D01*
X6214900Y-2904500D01*
X5095102Y-2904500D01*
X5065786Y-2910330D01*
X5032543Y-2932542D01*
X5010330Y-2965788D01*
X5004500Y-2995099D01*
X5004500Y-3214897D01*
X5010330Y-3244213D01*
X5032757Y-3277777D01*
X5040073Y-3314560D01*
X5032758Y-3332222D01*
X5032543Y-3332542D01*
X5032543Y-3332543D01*
X5022355Y-3347791D01*
X5010330Y-3365788D01*
X5004500Y-3395099D01*
X5004500Y-3614897D01*
X5010330Y-3644213D01*
X5032757Y-3677777D01*
X5040073Y-3714560D01*
X5032758Y-3732222D01*
X5032543Y-3732542D01*
X5032543Y-3732543D01*
X5027334Y-3740339D01*
X5010330Y-3765788D01*
X5004500Y-3795099D01*
X5004500Y-3978352D01*
X4990148Y-4013000D01*
X4955500Y-4027352D01*
X4920852Y-4013000D01*
X4396183Y-3488331D01*
X3783752Y-2875899D01*
X3769400Y-2841251D01*
X3769400Y-2830000D01*
X4205131Y-2830000D01*
X4222499Y-2939662D01*
X4256541Y-3006471D01*
X4272905Y-3038587D01*
X4351413Y-3117095D01*
X4383554Y-3133472D01*
X4450337Y-3167500D01*
X4476718Y-3171678D01*
X4560000Y-3184869D01*
X4654667Y-3169874D01*
X4669662Y-3167500D01*
X4703053Y-3150486D01*
X4768587Y-3117095D01*
X4847095Y-3038587D01*
X4889184Y-2955982D01*
X4897500Y-2939662D01*
X4900891Y-2918249D01*
X4914869Y-2830000D01*
X4897500Y-2720339D01*
X4897500Y-2720337D01*
X4847094Y-2621412D01*
X4768587Y-2542905D01*
X4669662Y-2492499D01*
X4560000Y-2475131D01*
X4450337Y-2492499D01*
X4351412Y-2542905D01*
X4272905Y-2621412D01*
X4222499Y-2720337D01*
X4205131Y-2830000D01*
X3769400Y-2830000D01*
X3769400Y-2174655D01*
X3783752Y-2140007D01*
X3818400Y-2125655D01*
X3853048Y-2140007D01*
X3859143Y-2147433D01*
X3860330Y-2149210D01*
X3860331Y-2149213D01*
X3882543Y-2182457D01*
X3915787Y-2204669D01*
X3928858Y-2207269D01*
X3954998Y-2212469D01*
X3955000Y-2212469D01*
X5105002Y-2212469D01*
X5124606Y-2208569D01*
X5144213Y-2204669D01*
X5177457Y-2182457D01*
X5199669Y-2149213D01*
X5207469Y-2110000D01*
X5207469Y-1598400D01*
X5221821Y-1563752D01*
X5256469Y-1549400D01*
X5509494Y-1549400D01*
X5525676Y-1552149D01*
X5526423Y-1552410D01*
X5528249Y-1553049D01*
X5557902Y-1549707D01*
X5563388Y-1549400D01*
X5571339Y-1549400D01*
X5571341Y-1549400D01*
X5579101Y-1547628D01*
X5584505Y-1546710D01*
X5614164Y-1543369D01*
X5616464Y-1541923D01*
X5631637Y-1535637D01*
X5634291Y-1535032D01*
X5657631Y-1516417D01*
X5662099Y-1513248D01*
X5668836Y-1509016D01*
X5672062Y-1505788D01*
X5674461Y-1503391D01*
X5678549Y-1499736D01*
X5701887Y-1481126D01*
X5703068Y-1478672D01*
X5712562Y-1465288D01*
X5773001Y-1404850D01*
X5807648Y-1390500D01*
X6098198Y-1390500D01*
X6154722Y-1379256D01*
X6166888Y-1376836D01*
X6244786Y-1324786D01*
X6296836Y-1246888D01*
X6310500Y-1178196D01*
X6310500Y-761804D01*
X6308649Y-752500D01*
X6296836Y-693112D01*
X6296835Y-693112D01*
X6244786Y-615214D01*
X6166888Y-563164D01*
X6166887Y-563163D01*
X6098198Y-549500D01*
X6098196Y-549500D01*
X5781804Y-549500D01*
X5781802Y-549500D01*
X5713112Y-563163D01*
X5635214Y-615214D01*
X5583163Y-693112D01*
X5569500Y-761802D01*
X5569500Y-1052352D01*
X5555148Y-1087000D01*
X5485900Y-1156248D01*
X5451252Y-1170600D01*
X5256469Y-1170600D01*
X5221821Y-1156248D01*
X5207469Y-1121600D01*
X5207469Y-609998D01*
X5199669Y-570788D01*
X5199669Y-570787D01*
X5177457Y-537543D01*
X5144213Y-515331D01*
X5144212Y-515330D01*
X5144211Y-515330D01*
X5105002Y-507531D01*
X5105000Y-507531D01*
X3955000Y-507531D01*
X3953817Y-507646D01*
X3953794Y-507648D01*
X3935117Y-509478D01*
X3935114Y-509478D01*
X3935114Y-509479D01*
X3926822Y-512903D01*
X3898158Y-524741D01*
X3869860Y-552981D01*
X3855227Y-588202D01*
X3828680Y-614692D01*
X3791177Y-614652D01*
X3769207Y-596582D01*
X3752010Y-570787D01*
X3740259Y-553160D01*
X3727457Y-537543D01*
X3694213Y-515331D01*
X3694212Y-515330D01*
X3694211Y-515330D01*
X3655002Y-507531D01*
X3655000Y-507531D01*
X2655000Y-507531D01*
X2654998Y-507531D01*
X2615788Y-515330D01*
X2582543Y-537543D01*
X2560330Y-570788D01*
X2552531Y-609998D01*
X2552531Y-1121600D01*
X2538179Y-1156248D01*
X2503531Y-1170600D01*
X2179500Y-1170600D01*
X2144852Y-1156248D01*
X2130500Y-1121600D01*
X2130499Y-500102D01*
X2124669Y-470786D01*
X2102457Y-437543D01*
X2102456Y-437542D01*
X2069213Y-415331D01*
X2069212Y-415330D01*
X2069211Y-415330D01*
X2039900Y-409500D01*
X820102Y-409500D01*
X790786Y-415330D01*
X757543Y-437542D01*
X735330Y-470788D01*
X729500Y-500099D01*
X729500Y-1719897D01*
X50000Y-1719897D01*
X50000Y-99000D01*
X64352Y-64352D01*
X99000Y-50000D01*
X14901000Y-50000D01*
X14935648Y-64352D01*
G37*
%TD.AperFunction*%
%TD*%
%TA.AperFunction,Conductor*%
%TO.N,+3V3*%
G36*
X13181562Y-7804441D02*
G01*
X13248511Y-7824429D01*
X13294026Y-7877439D01*
X13305000Y-7928440D01*
X13305000Y-9634999D01*
X13305000Y-9635000D01*
X14103073Y-9643674D01*
X14169892Y-9664086D01*
X14215071Y-9717384D01*
X14225721Y-9766933D01*
X14234262Y-11210266D01*
X14214974Y-11277421D01*
X14162442Y-11323488D01*
X14110264Y-11335000D01*
X13707667Y-11335000D01*
X13640628Y-11315315D01*
X13631366Y-11308745D01*
X11752699Y-9842234D01*
X11711966Y-9785466D01*
X11705000Y-9744489D01*
X11705000Y-8736694D01*
X11720208Y-8677195D01*
X11743858Y-8633955D01*
X11755687Y-8616167D01*
X11767112Y-8601839D01*
X11776369Y-8591482D01*
X11779016Y-8588836D01*
X11781000Y-8585676D01*
X11789051Y-8574330D01*
X11808815Y-8549547D01*
X11812688Y-8540197D01*
X11813367Y-8534166D01*
X11813369Y-8534164D01*
X11814512Y-8524013D01*
X11828939Y-8478403D01*
X12164542Y-7864826D01*
X12213980Y-7815459D01*
X12273889Y-7800334D01*
X13181562Y-7804441D01*
G37*
%TD.AperFunction*%
%TD*%
M02*
