%TF.GenerationSoftware,KiCad,Pcbnew,7.0.2-6a45011f42~172~ubuntu22.04.1*%
%TF.CreationDate,2023-05-25T09:16:40+08:00*%
%TF.ProjectId,fly2040_ds,666c7932-3034-4305-9f64-732e6b696361,rev?*%
%TF.SameCoordinates,PX45b1cc0PY2f4fd10*%
%TF.FileFunction,Copper,L4,Bot*%
%TF.FilePolarity,Positive*%
%FSLAX46Y46*%
G04 Gerber Fmt 4.6, Leading zero omitted, Abs format (unit mm)*
G04 Created by KiCad (PCBNEW 7.0.2-6a45011f42~172~ubuntu22.04.1) date 2023-05-25 09:16:40*
%MOMM*%
%LPD*%
G01*
G04 APERTURE LIST*
G04 Aperture macros list*
%AMRoundRect*
0 Rectangle with rounded corners*
0 $1 Rounding radius*
0 $2 $3 $4 $5 $6 $7 $8 $9 X,Y pos of 4 corners*
0 Add a 4 corners polygon primitive as box body*
4,1,4,$2,$3,$4,$5,$6,$7,$8,$9,$2,$3,0*
0 Add four circle primitives for the rounded corners*
1,1,$1+$1,$2,$3*
1,1,$1+$1,$4,$5*
1,1,$1+$1,$6,$7*
1,1,$1+$1,$8,$9*
0 Add four rect primitives between the rounded corners*
20,1,$1+$1,$2,$3,$4,$5,0*
20,1,$1+$1,$4,$5,$6,$7,0*
20,1,$1+$1,$6,$7,$8,$9,0*
20,1,$1+$1,$8,$9,$2,$3,0*%
G04 Aperture macros list end*
%TA.AperFunction,SMDPad,CuDef*%
%ADD10RoundRect,0.135000X-0.185000X0.135000X-0.185000X-0.135000X0.185000X-0.135000X0.185000X0.135000X0*%
%TD*%
%TA.AperFunction,SMDPad,CuDef*%
%ADD11RoundRect,0.135000X0.185000X-0.135000X0.185000X0.135000X-0.185000X0.135000X-0.185000X-0.135000X0*%
%TD*%
%TA.AperFunction,SMDPad,CuDef*%
%ADD12RoundRect,0.140000X0.170000X-0.140000X0.170000X0.140000X-0.170000X0.140000X-0.170000X-0.140000X0*%
%TD*%
%TA.AperFunction,SMDPad,CuDef*%
%ADD13RoundRect,0.140000X-0.170000X0.140000X-0.170000X-0.140000X0.170000X-0.140000X0.170000X0.140000X0*%
%TD*%
%TA.AperFunction,SMDPad,CuDef*%
%ADD14RoundRect,0.140000X-0.140000X-0.170000X0.140000X-0.170000X0.140000X0.170000X-0.140000X0.170000X0*%
%TD*%
%TA.AperFunction,SMDPad,CuDef*%
%ADD15RoundRect,0.140000X0.140000X0.170000X-0.140000X0.170000X-0.140000X-0.170000X0.140000X-0.170000X0*%
%TD*%
%TA.AperFunction,ComponentPad*%
%ADD16R,1.200000X1.200000*%
%TD*%
%TA.AperFunction,SMDPad,CuDef*%
%ADD17R,0.280000X0.600000*%
%TD*%
%TA.AperFunction,SMDPad,CuDef*%
%ADD18R,1.700000X0.300000*%
%TD*%
%TA.AperFunction,ComponentPad*%
%ADD19O,1.000000X1.000000*%
%TD*%
%TA.AperFunction,SMDPad,CuDef*%
%ADD20R,1.000000X1.524000*%
%TD*%
%TA.AperFunction,SMDPad,CuDef*%
%ADD21R,0.450000X0.450000*%
%TD*%
%TA.AperFunction,ViaPad*%
%ADD22C,0.450000*%
%TD*%
%TA.AperFunction,Conductor*%
%ADD23C,0.200000*%
%TD*%
%TA.AperFunction,Conductor*%
%ADD24C,0.100000*%
%TD*%
G04 APERTURE END LIST*
D10*
%TO.P,R11,1*%
%TO.N,Net-(U1-GPIO29_ADC3)*%
X11810000Y-8900000D03*
%TO.P,R11,2*%
%TO.N,NS_D0*%
X11810000Y-9920000D03*
%TD*%
%TO.P,R10,1*%
%TO.N,Net-(U1-GPIO28_ADC2)*%
X10680000Y-8900000D03*
%TO.P,R10,2*%
%TO.N,NS_CMD*%
X10680000Y-9920000D03*
%TD*%
%TO.P,R9,1*%
%TO.N,Net-(U1-GPIO27_ADC1)*%
X9570000Y-8900000D03*
%TO.P,R9,2*%
%TO.N,NS_CLK*%
X9570000Y-9920000D03*
%TD*%
%TO.P,R8,1*%
%TO.N,Net-(U1-GPIO26_ADC0)*%
X8440000Y-8900000D03*
%TO.P,R8,2*%
%TO.N,NS_RST*%
X8440000Y-9920000D03*
%TD*%
%TO.P,R6,1*%
%TO.N,+3V3*%
X8115000Y-1455000D03*
%TO.P,R6,2*%
%TO.N,QSPI_CS*%
X8115000Y-2475000D03*
%TD*%
%TO.P,R5,1*%
%TO.N,BOOT*%
X7090000Y-1455000D03*
%TO.P,R5,2*%
%TO.N,QSPI_CS*%
X7090000Y-2475000D03*
%TD*%
D11*
%TO.P,R2,1*%
%TO.N,+3V3*%
X6680000Y-9930000D03*
%TO.P,R2,2*%
%TO.N,RST*%
X6680000Y-8910000D03*
%TD*%
D12*
%TO.P,C14,1*%
%TO.N,+3V3*%
X7840000Y-5810000D03*
%TO.P,C14,2*%
%TO.N,GND*%
X7840000Y-4850000D03*
%TD*%
D13*
%TO.P,C13,1*%
%TO.N,+3V3*%
X5570000Y-3130000D03*
%TO.P,C13,2*%
%TO.N,GND*%
X5570000Y-4090000D03*
%TD*%
D14*
%TO.P,C12,1*%
%TO.N,+3V3*%
X9830000Y-1680000D03*
%TO.P,C12,2*%
%TO.N,GND*%
X10790000Y-1680000D03*
%TD*%
D13*
%TO.P,C11,1*%
%TO.N,+3V3*%
X12840000Y-1630000D03*
%TO.P,C11,2*%
%TO.N,GND*%
X12840000Y-2590000D03*
%TD*%
D12*
%TO.P,C10,1*%
%TO.N,+3V3*%
X12840000Y-4525000D03*
%TO.P,C10,2*%
%TO.N,GND*%
X12840000Y-3565000D03*
%TD*%
D13*
%TO.P,C9,1*%
%TO.N,+3V3*%
X11810000Y-1640000D03*
%TO.P,C9,2*%
%TO.N,GND*%
X11810000Y-2600000D03*
%TD*%
D12*
%TO.P,C8,1*%
%TO.N,+3V3*%
X12840000Y-8395000D03*
%TO.P,C8,2*%
%TO.N,GND*%
X12840000Y-7435000D03*
%TD*%
%TO.P,C7,1*%
%TO.N,+3V3*%
X5570000Y-6085000D03*
%TO.P,C7,2*%
%TO.N,GND*%
X5570000Y-5125000D03*
%TD*%
D15*
%TO.P,C6,1*%
%TO.N,GND*%
X14360000Y-9910000D03*
%TO.P,C6,2*%
%TO.N,+3V3*%
X13400000Y-9910000D03*
%TD*%
D12*
%TO.P,C5,1*%
%TO.N,+1V1*%
X12840000Y-6460000D03*
%TO.P,C5,2*%
%TO.N,GND*%
X12840000Y-5500000D03*
%TD*%
D13*
%TO.P,C4,1*%
%TO.N,+1V1*%
X5570000Y-7120000D03*
%TO.P,C4,2*%
%TO.N,GND*%
X5570000Y-8080000D03*
%TD*%
D15*
%TO.P,C2,1*%
%TO.N,+1V1*%
X9380000Y-6880000D03*
%TO.P,C2,2*%
%TO.N,GND*%
X8420000Y-6880000D03*
%TD*%
D16*
%TO.P,J7,1,Pin_1*%
%TO.N,NS_SCL*%
X2177500Y-11220000D03*
%TD*%
D17*
%TO.P,U2,1,CS#*%
%TO.N,QSPI_CS*%
X9040000Y-2861000D03*
%TO.P,U2,2,DO(IO1)*%
%TO.N,QSPI_SD1*%
X9540000Y-2861000D03*
%TO.P,U2,3,WP#(IO2)*%
%TO.N,QSPI_SD2*%
X10040000Y-2861000D03*
%TO.P,U2,4,GND*%
%TO.N,GND*%
X10540000Y-2861000D03*
%TO.P,U2,5,DI(IO0)*%
%TO.N,QSPI_SD0*%
X10540000Y-5875000D03*
%TO.P,U2,6,CLK*%
%TO.N,QSPI_SCK*%
X10040000Y-5875000D03*
%TO.P,U2,7,HOLD#orRESET#(IO3)*%
%TO.N,QSPI_SD3*%
X9540000Y-5875000D03*
%TO.P,U2,8,VCC*%
%TO.N,+3V3*%
X9040000Y-5875000D03*
D18*
%TO.P,U2,9,EP*%
%TO.N,GND*%
X9790000Y-4368000D03*
%TD*%
D19*
%TO.P,J8,1,Pin_1*%
%TO.N,RST*%
X14255753Y-8601880D03*
%TO.P,J8,2,Pin_2*%
%TO.N,D-*%
X14255753Y-7331880D03*
%TO.P,J8,3,Pin_3*%
%TO.N,D+*%
X14255753Y-6061880D03*
%TO.P,J8,4,Pin_4*%
%TO.N,+3V3*%
X14255753Y-4791880D03*
%TO.P,J8,5,Pin_5*%
%TO.N,GND*%
X14255753Y-3521880D03*
%TO.P,J8,6,Pin_6*%
%TO.N,BOOT*%
X14255753Y-2251880D03*
%TD*%
D16*
%TO.P,J1,1,Pin_1*%
%TO.N,NS_CPU*%
X1430000Y-1110000D03*
%TD*%
%TO.P,J4,1,Pin_1*%
%TO.N,NS_CMD*%
X10315000Y-11220000D03*
%TD*%
%TO.P,J2,1,Pin_1*%
%TO.N,NS_RST*%
X7060000Y-11220000D03*
%TD*%
%TO.P,J6,1,Pin_1*%
%TO.N,NS_SDA*%
X3810000Y-11220000D03*
%TD*%
%TO.P,J5,1,Pin_1*%
%TO.N,NS_D0*%
X11942500Y-11220000D03*
%TD*%
%TO.P,J9,1,Pin_1*%
%TO.N,GND*%
X5432500Y-11220000D03*
%TD*%
%TO.P,J3,1,Pin_1*%
%TO.N,NS_CLK*%
X8687500Y-11220000D03*
%TD*%
%TO.P,J10,1,Pin_1*%
%TO.N,+3V3*%
X13570000Y-11220000D03*
%TD*%
D20*
%TO.P,SW1,1,1*%
%TO.N,BOOT*%
X5970000Y-1455000D03*
%TO.P,SW1,2,2*%
%TO.N,GND*%
X2770000Y-1455000D03*
%TD*%
D21*
%TO.P,U5,4,DIN*%
%TO.N,LED_DATA*%
X2755000Y-9345000D03*
%TO.P,U5,3,GND*%
%TO.N,GND*%
X2755000Y-8495000D03*
%TO.P,U5,2,VDD*%
%TO.N,+3V3*%
X1905000Y-9345000D03*
%TO.P,U5,1,DOUT*%
%TO.N,unconnected-(U5-DOUT-Pad1)*%
X1905000Y-8495000D03*
%TD*%
D22*
%TO.N,GND*%
X4440000Y-4640000D03*
X920000Y-8060000D03*
X920000Y-2740000D03*
%TO.N,+3V3*%
X4560000Y-2830000D03*
%TO.N,LED_DATA*%
X4590000Y-8930000D03*
%TO.N,RST*%
X6830000Y-7950000D03*
%TO.N,Net-(U1-GPIO29_ADC3)*%
X11630000Y-8050000D03*
%TO.N,Net-(U1-GPIO28_ADC2)*%
X10780000Y-7760000D03*
%TO.N,Net-(U1-GPIO27_ADC1)*%
X9860000Y-7800000D03*
%TO.N,Net-(U1-GPIO26_ADC0)*%
X8780000Y-7990000D03*
%TO.N,+3V3*%
X7855000Y-7830000D03*
%TO.N,QSPI_SD3*%
X11405000Y-6225000D03*
%TO.N,QSPI_SCK*%
X11290000Y-5270000D03*
%TO.N,QSPI_SD0*%
X11290000Y-4470000D03*
%TO.N,QSPI_SD2*%
X11380000Y-3710000D03*
%TO.N,QSPI_SD1*%
X9775000Y-3695000D03*
%TO.N,QSPI_CS*%
X9050000Y-3685000D03*
%TO.N,+3V3*%
X4980000Y-9880000D03*
X11720000Y-920000D03*
X12755000Y-9090000D03*
X8955000Y-1090000D03*
X6840000Y-5730000D03*
%TO.N,+1V1*%
X6850000Y-6785000D03*
X11660000Y-7010000D03*
%TO.N,NS_SDA*%
X7840000Y-3515000D03*
%TO.N,NS_SCL*%
X6850000Y-3850000D03*
%TD*%
D23*
%TO.N,+3V3*%
X4860000Y-3130000D02*
X4560000Y-2830000D01*
X5570000Y-3130000D02*
X4860000Y-3130000D01*
%TO.N,QSPI_CS*%
X8115000Y-2475000D02*
X7090000Y-2475000D01*
X9040000Y-2861000D02*
X8501000Y-2861000D01*
X8501000Y-2861000D02*
X8115000Y-2475000D01*
D24*
%TO.N,QSPI_SCK*%
X10885000Y-5675000D02*
X10885000Y-6247800D01*
X11290000Y-5270000D02*
X10885000Y-5675000D01*
X10885000Y-6247800D02*
X10737800Y-6395000D01*
X10360000Y-6395000D02*
X10040000Y-6075000D01*
X10737800Y-6395000D02*
X10360000Y-6395000D01*
X10040000Y-6075000D02*
X10040000Y-5875000D01*
%TO.N,QSPI_SD0*%
X11290000Y-4470000D02*
X11290000Y-4525000D01*
X11290000Y-4525000D02*
X10540000Y-5275000D01*
X10540000Y-5275000D02*
X10540000Y-5875000D01*
D23*
%TO.N,+3V3*%
X12840000Y-4525000D02*
X13988873Y-4525000D01*
X13988873Y-4525000D02*
X14255753Y-4791880D01*
%TO.N,BOOT*%
X7090000Y-1455000D02*
X8200000Y-345000D01*
X8200000Y-345000D02*
X13095000Y-345000D01*
X13095000Y-345000D02*
X14255753Y-1505753D01*
X14255753Y-1505753D02*
X14255753Y-2251880D01*
D24*
%TO.N,QSPI_SD2*%
X10040000Y-3078800D02*
X10040000Y-2861000D01*
X11380000Y-3710000D02*
X10671200Y-3710000D01*
X10671200Y-3710000D02*
X10040000Y-3078800D01*
D23*
%TO.N,+1V1*%
X11660000Y-7010000D02*
X9510000Y-7010000D01*
X9510000Y-7010000D02*
X9380000Y-6880000D01*
%TO.N,+3V3*%
X7855000Y-7830000D02*
X7840000Y-7815000D01*
X7840000Y-7815000D02*
X7840000Y-5810000D01*
X8975000Y-5810000D02*
X9040000Y-5875000D01*
X7840000Y-5810000D02*
X8975000Y-5810000D01*
%TO.N,NS_RST*%
X8440000Y-9920000D02*
X8240000Y-9920000D01*
X8240000Y-9920000D02*
X7060000Y-11100000D01*
X7060000Y-11100000D02*
X7060000Y-11220000D01*
%TO.N,NS_CMD*%
X10680000Y-9920000D02*
X10680000Y-10150000D01*
X10680000Y-10150000D02*
X10250000Y-10580000D01*
X10250000Y-10580000D02*
X10250000Y-11155000D01*
X10250000Y-11155000D02*
X10315000Y-11220000D01*
%TO.N,NS_CLK*%
X9570000Y-9920000D02*
X9570000Y-9970000D01*
X9570000Y-9970000D02*
X8687500Y-10852500D01*
X8687500Y-10852500D02*
X8687500Y-11220000D01*
%TO.N,Net-(U1-GPIO27_ADC1)*%
X9860000Y-7800000D02*
X9570000Y-8090000D01*
X9570000Y-8090000D02*
X9570000Y-8900000D01*
%TO.N,Net-(U1-GPIO28_ADC2)*%
X10780000Y-7760000D02*
X10780000Y-8650000D01*
X10780000Y-8650000D02*
X10530000Y-8900000D01*
%TO.N,Net-(U1-GPIO26_ADC0)*%
X8780000Y-7990000D02*
X8440000Y-8330000D01*
X8440000Y-8330000D02*
X8440000Y-8900000D01*
%TO.N,Net-(U1-GPIO29_ADC3)*%
X11630000Y-8050000D02*
X11630000Y-8720000D01*
X11630000Y-8720000D02*
X11810000Y-8900000D01*
%TO.N,+1V1*%
X11890000Y-7010000D02*
X12440000Y-6460000D01*
X11660000Y-7010000D02*
X11890000Y-7010000D01*
X12440000Y-6460000D02*
X12840000Y-6460000D01*
%TO.N,LED_DATA*%
X4590000Y-8930000D02*
X4175000Y-9345000D01*
X4175000Y-9345000D02*
X2755000Y-9345000D01*
%TO.N,RST*%
X6830000Y-7950000D02*
X6830000Y-8760000D01*
X6830000Y-8760000D02*
X6680000Y-8910000D01*
%TO.N,+3V3*%
X1905000Y-9345000D02*
X2440000Y-9880000D01*
X2440000Y-9880000D02*
X4980000Y-9880000D01*
%TO.N,+1V1*%
X5570000Y-7120000D02*
X5720000Y-6970000D01*
X5720000Y-6970000D02*
X6665000Y-6970000D01*
X6665000Y-6970000D02*
X6850000Y-6785000D01*
%TO.N,+3V3*%
X5570000Y-6085000D02*
X5755000Y-5900000D01*
X5755000Y-5900000D02*
X6670000Y-5900000D01*
X6670000Y-5900000D02*
X6840000Y-5730000D01*
X12755000Y-9090000D02*
X12755000Y-8480000D01*
X12755000Y-8480000D02*
X12840000Y-8395000D01*
X12755000Y-9090000D02*
X12755000Y-9265000D01*
X12755000Y-9265000D02*
X13400000Y-9910000D01*
%TO.N,NS_D0*%
X11810000Y-9920000D02*
X11810000Y-11087500D01*
X11810000Y-11087500D02*
X11942500Y-11220000D01*
%TO.N,+3V3*%
X4980000Y-9880000D02*
X6630000Y-9880000D01*
X6630000Y-9880000D02*
X6680000Y-9930000D01*
X11810000Y-1640000D02*
X11810000Y-1010000D01*
X11810000Y-1010000D02*
X11720000Y-920000D01*
X11810000Y-1640000D02*
X12830000Y-1640000D01*
X12830000Y-1640000D02*
X12840000Y-1630000D01*
X8955000Y-1090000D02*
X9240000Y-1090000D01*
X9240000Y-1090000D02*
X9830000Y-1680000D01*
%TO.N,BOOT*%
X5970000Y-1455000D02*
X7090000Y-1455000D01*
%TO.N,+3V3*%
X8115000Y-1455000D02*
X8120000Y-1450000D01*
X8120000Y-1450000D02*
X8595000Y-1450000D01*
X8595000Y-1450000D02*
X8955000Y-1090000D01*
D24*
%TO.N,QSPI_SD3*%
X11405000Y-6225000D02*
X10995000Y-6635000D01*
X10995000Y-6635000D02*
X9945000Y-6635000D01*
X9945000Y-6635000D02*
X9540000Y-6230000D01*
X9540000Y-6230000D02*
X9540000Y-5875000D01*
%TO.N,QSPI_SD1*%
X9775000Y-3695000D02*
X9540000Y-3460000D01*
X9540000Y-3460000D02*
X9540000Y-2861000D01*
%TO.N,QSPI_CS*%
X9050000Y-3685000D02*
X9040000Y-3675000D01*
X9040000Y-3675000D02*
X9040000Y-2861000D01*
%TD*%
%TA.AperFunction,Conductor*%
%TO.N,GND*%
G36*
X7941077Y-120002D02*
G01*
X7987570Y-173658D01*
X7997674Y-243932D01*
X7968180Y-308512D01*
X7962052Y-315095D01*
X7229553Y-1047595D01*
X7167240Y-1081620D01*
X7140457Y-1084500D01*
X6881804Y-1084500D01*
X6854154Y-1090000D01*
X6813111Y-1098164D01*
X6766500Y-1129309D01*
X6698747Y-1150523D01*
X6630280Y-1131740D01*
X6582838Y-1078922D01*
X6570499Y-1024543D01*
X6570499Y-683102D01*
X6569550Y-678332D01*
X6564669Y-653787D01*
X6542457Y-620543D01*
X6509213Y-598331D01*
X6509212Y-598330D01*
X6479899Y-592500D01*
X5460102Y-592500D01*
X5430787Y-598331D01*
X5397543Y-620543D01*
X5375330Y-653787D01*
X5369500Y-683100D01*
X5369500Y-2226897D01*
X5373720Y-2248111D01*
X5375331Y-2256213D01*
X5397543Y-2289457D01*
X5430787Y-2311669D01*
X5460101Y-2317500D01*
X6479898Y-2317499D01*
X6479899Y-2317499D01*
X6494619Y-2314571D01*
X6509213Y-2311669D01*
X6509213Y-2311668D01*
X6518921Y-2309738D01*
X6589635Y-2316067D01*
X6645701Y-2359623D01*
X6669320Y-2426576D01*
X6669500Y-2433317D01*
X6669500Y-2633196D01*
X6675707Y-2664400D01*
X6683164Y-2701888D01*
X6735213Y-2779786D01*
X6787263Y-2814564D01*
X6813112Y-2831836D01*
X6881804Y-2845500D01*
X6881805Y-2845500D01*
X7298195Y-2845500D01*
X7298196Y-2845500D01*
X7366888Y-2831836D01*
X7444786Y-2779786D01*
X7484467Y-2720398D01*
X7538945Y-2674870D01*
X7589233Y-2664400D01*
X7615767Y-2664400D01*
X7683888Y-2684402D01*
X7720532Y-2720398D01*
X7760213Y-2779786D01*
X7812263Y-2814564D01*
X7838112Y-2831836D01*
X7906804Y-2845500D01*
X8165458Y-2845500D01*
X8233579Y-2865502D01*
X8254553Y-2882405D01*
X8329180Y-2957032D01*
X8344215Y-2978220D01*
X8369068Y-2998040D01*
X8379598Y-3007450D01*
X8382164Y-3010016D01*
X8385239Y-3011948D01*
X8396754Y-3020119D01*
X8421612Y-3039942D01*
X8430603Y-3043666D01*
X8436834Y-3044368D01*
X8436836Y-3044369D01*
X8462196Y-3047226D01*
X8476117Y-3049591D01*
X8479659Y-3050400D01*
X8483286Y-3050400D01*
X8497393Y-3051192D01*
X8522751Y-3054049D01*
X8522752Y-3054048D01*
X8528980Y-3054750D01*
X8554588Y-3050400D01*
X8673501Y-3050400D01*
X8741622Y-3070402D01*
X8788115Y-3124058D01*
X8795716Y-3159000D01*
X8797081Y-3158729D01*
X8799501Y-3170897D01*
X8799501Y-3170898D01*
X8805331Y-3200213D01*
X8827543Y-3233457D01*
X8827544Y-3233457D01*
X8841468Y-3254297D01*
X8837905Y-3256677D01*
X8851945Y-3273236D01*
X8861296Y-3343614D01*
X8831114Y-3407875D01*
X8825874Y-3413443D01*
X8762905Y-3476412D01*
X8712500Y-3575338D01*
X8695130Y-3685000D01*
X8712500Y-3794661D01*
X8762906Y-3893589D01*
X8841410Y-3972093D01*
X8841412Y-3972094D01*
X8841413Y-3972095D01*
X8940339Y-4022500D01*
X9050000Y-4039869D01*
X9159661Y-4022500D01*
X9258587Y-3972095D01*
X9318406Y-3912275D01*
X9380716Y-3878252D01*
X9451532Y-3883316D01*
X9496593Y-3912275D01*
X9566413Y-3982095D01*
X9665339Y-4032500D01*
X9775000Y-4049869D01*
X9884661Y-4032500D01*
X9983587Y-3982095D01*
X10062095Y-3903587D01*
X10112500Y-3804661D01*
X10129869Y-3695000D01*
X10128582Y-3686875D01*
X10137679Y-3616465D01*
X10183399Y-3562150D01*
X10251227Y-3541175D01*
X10319627Y-3560200D01*
X10342125Y-3578067D01*
X10599036Y-3834978D01*
X10599040Y-3834980D01*
X10599042Y-3834982D01*
X10601370Y-3835605D01*
X10631759Y-3848193D01*
X10633848Y-3849399D01*
X10633849Y-3849399D01*
X10633851Y-3849400D01*
X10652850Y-3849400D01*
X10708552Y-3849400D01*
X10980440Y-3849400D01*
X11048561Y-3869402D01*
X11092708Y-3918200D01*
X11092906Y-3918589D01*
X11141496Y-3967179D01*
X11175522Y-4029491D01*
X11170457Y-4100306D01*
X11127910Y-4157142D01*
X11109604Y-4168541D01*
X11081410Y-4182906D01*
X11002906Y-4261410D01*
X10952500Y-4360338D01*
X10935130Y-4470000D01*
X10954174Y-4590230D01*
X10945075Y-4660641D01*
X10918821Y-4699036D01*
X10428456Y-5189402D01*
X10428455Y-5189403D01*
X10428454Y-5189405D01*
X10428452Y-5189407D01*
X10421735Y-5196124D01*
X10415017Y-5202842D01*
X10414392Y-5205178D01*
X10401807Y-5235559D01*
X10400601Y-5237647D01*
X10400600Y-5256647D01*
X10400600Y-5365800D01*
X10380598Y-5433921D01*
X10326942Y-5480414D01*
X10256668Y-5490518D01*
X10241813Y-5484825D01*
X10189899Y-5474500D01*
X9890102Y-5474500D01*
X9860787Y-5480331D01*
X9860000Y-5480857D01*
X9792246Y-5502070D01*
X9723780Y-5483285D01*
X9719999Y-5480856D01*
X9719212Y-5480330D01*
X9689899Y-5474500D01*
X9390102Y-5474500D01*
X9360787Y-5480331D01*
X9360000Y-5480857D01*
X9292246Y-5502070D01*
X9223780Y-5483285D01*
X9219999Y-5480856D01*
X9219212Y-5480330D01*
X9189899Y-5474500D01*
X8890102Y-5474500D01*
X8860787Y-5480331D01*
X8827543Y-5502543D01*
X8791407Y-5556626D01*
X8789658Y-5555457D01*
X8775730Y-5582087D01*
X8714036Y-5617222D01*
X8685055Y-5620600D01*
X8333587Y-5620600D01*
X8265466Y-5600598D01*
X8228823Y-5564603D01*
X8183391Y-5496609D01*
X8175312Y-5491211D01*
X8103839Y-5443454D01*
X8101079Y-5442905D01*
X8033688Y-5429500D01*
X7646312Y-5429500D01*
X7611236Y-5436477D01*
X7576160Y-5443454D01*
X7496608Y-5496608D01*
X7443454Y-5576160D01*
X7429149Y-5648075D01*
X7396241Y-5710984D01*
X7351590Y-5736408D01*
X7399893Y-5768435D01*
X7428461Y-5833430D01*
X7429500Y-5849578D01*
X7429500Y-5973688D01*
X7436697Y-6009871D01*
X7443454Y-6043839D01*
X7464296Y-6075032D01*
X7496609Y-6123391D01*
X7576161Y-6176546D01*
X7576163Y-6176546D01*
X7594601Y-6188866D01*
X7640129Y-6243343D01*
X7650600Y-6293632D01*
X7650600Y-7486527D01*
X7630598Y-7554648D01*
X7613695Y-7575622D01*
X7567906Y-7621410D01*
X7517500Y-7720338D01*
X7500130Y-7830000D01*
X7517500Y-7939661D01*
X7567906Y-8038589D01*
X7646410Y-8117093D01*
X7646412Y-8117094D01*
X7646413Y-8117095D01*
X7745339Y-8167500D01*
X7855000Y-8184869D01*
X7964661Y-8167500D01*
X8063587Y-8117095D01*
X8063589Y-8117092D01*
X8078226Y-8109635D01*
X8148002Y-8096531D01*
X8213787Y-8123231D01*
X8254694Y-8181258D01*
X8257081Y-8236953D01*
X8259851Y-8237266D01*
X8253772Y-8291198D01*
X8251410Y-8305104D01*
X8250600Y-8308655D01*
X8250600Y-8312286D01*
X8249808Y-8326393D01*
X8246249Y-8357980D01*
X8250600Y-8383588D01*
X8250600Y-8422356D01*
X8230598Y-8490477D01*
X8176942Y-8536970D01*
X8168116Y-8539820D01*
X8085213Y-8595213D01*
X8033164Y-8673111D01*
X8033163Y-8673112D01*
X8033164Y-8673112D01*
X8019500Y-8741804D01*
X8019500Y-9058196D01*
X8027736Y-9099601D01*
X8033164Y-9126888D01*
X8085213Y-9204786D01*
X8109014Y-9220689D01*
X8163112Y-9256836D01*
X8231804Y-9270500D01*
X8231805Y-9270500D01*
X8648195Y-9270500D01*
X8648196Y-9270500D01*
X8716888Y-9256836D01*
X8794786Y-9204786D01*
X8846836Y-9126888D01*
X8860500Y-9058196D01*
X8860500Y-8741804D01*
X8846836Y-8673112D01*
X8794786Y-8595214D01*
X8756750Y-8569799D01*
X8711223Y-8515321D01*
X8702376Y-8444878D01*
X8733017Y-8380834D01*
X8793419Y-8343523D01*
X8807030Y-8340587D01*
X8889661Y-8327500D01*
X8988587Y-8277095D01*
X9067095Y-8198587D01*
X9117500Y-8099661D01*
X9134869Y-7990000D01*
X9117500Y-7880339D01*
X9067095Y-7781413D01*
X9067094Y-7781412D01*
X9067093Y-7781410D01*
X8988589Y-7702906D01*
X8889661Y-7652500D01*
X8780000Y-7635130D01*
X8670338Y-7652500D01*
X8571410Y-7702906D01*
X8492906Y-7781410D01*
X8447168Y-7871176D01*
X8398419Y-7922791D01*
X8329504Y-7939857D01*
X8262303Y-7916956D01*
X8218151Y-7861358D01*
X8210452Y-7833684D01*
X8209868Y-7830001D01*
X8209869Y-7830000D01*
X8192500Y-7720339D01*
X8142095Y-7621413D01*
X8112092Y-7591410D01*
X8066304Y-7545621D01*
X8032279Y-7483309D01*
X8029400Y-7456526D01*
X8029400Y-6293632D01*
X8049402Y-6225511D01*
X8085399Y-6188866D01*
X8103836Y-6176546D01*
X8103839Y-6176546D01*
X8183391Y-6123391D01*
X8228822Y-6055397D01*
X8283298Y-6009871D01*
X8333587Y-5999400D01*
X8673501Y-5999400D01*
X8741622Y-6019402D01*
X8788115Y-6073058D01*
X8799501Y-6125400D01*
X8799501Y-6184898D01*
X8805331Y-6214213D01*
X8827543Y-6247457D01*
X8860787Y-6269669D01*
X8890101Y-6275500D01*
X9042020Y-6275499D01*
X9110140Y-6295501D01*
X9156633Y-6349156D01*
X9166738Y-6419430D01*
X9137245Y-6484011D01*
X9112023Y-6506264D01*
X9066608Y-6536609D01*
X9013454Y-6616160D01*
X9013453Y-6616161D01*
X9013454Y-6616161D01*
X8999500Y-6686312D01*
X8999500Y-7073688D01*
X9010187Y-7127416D01*
X9013454Y-7143839D01*
X9066608Y-7223391D01*
X9119763Y-7258907D01*
X9146161Y-7276546D01*
X9216312Y-7290500D01*
X9216313Y-7290500D01*
X9543684Y-7290500D01*
X9543688Y-7290500D01*
X9548402Y-7289562D01*
X9619114Y-7295887D01*
X9675183Y-7339439D01*
X9698805Y-7406390D01*
X9682481Y-7475485D01*
X9662082Y-7502235D01*
X9572905Y-7591412D01*
X9522500Y-7690338D01*
X9505130Y-7800001D01*
X9506807Y-7810588D01*
X9497706Y-7880998D01*
X9451983Y-7935312D01*
X9450380Y-7936223D01*
X9432958Y-7958069D01*
X9423556Y-7968590D01*
X9420984Y-7971161D01*
X9419051Y-7974239D01*
X9410882Y-7985752D01*
X9391063Y-8010605D01*
X9387332Y-8019614D01*
X9383772Y-8051198D01*
X9381410Y-8065104D01*
X9380600Y-8068655D01*
X9380600Y-8072286D01*
X9379808Y-8086393D01*
X9376249Y-8117980D01*
X9380600Y-8143588D01*
X9380600Y-8422356D01*
X9360598Y-8490477D01*
X9306942Y-8536970D01*
X9298116Y-8539820D01*
X9215213Y-8595213D01*
X9163164Y-8673111D01*
X9163163Y-8673112D01*
X9163164Y-8673112D01*
X9149500Y-8741804D01*
X9149500Y-9058196D01*
X9157736Y-9099601D01*
X9163164Y-9126888D01*
X9215213Y-9204786D01*
X9239014Y-9220689D01*
X9293112Y-9256836D01*
X9361804Y-9270500D01*
X9361805Y-9270500D01*
X9778195Y-9270500D01*
X9778196Y-9270500D01*
X9846888Y-9256836D01*
X9924786Y-9204786D01*
X9976836Y-9126888D01*
X9990500Y-9058196D01*
X9990500Y-8741804D01*
X9976836Y-8673112D01*
X9947254Y-8628839D01*
X9924786Y-8595213D01*
X9826049Y-8529240D01*
X9826788Y-8528133D01*
X9797906Y-8513024D01*
X9762776Y-8451328D01*
X9759400Y-8422356D01*
X9759400Y-8278416D01*
X9779402Y-8210295D01*
X9833058Y-8163802D01*
X9865684Y-8153968D01*
X9969661Y-8137500D01*
X10068587Y-8087095D01*
X10147095Y-8008587D01*
X10197500Y-7909661D01*
X10199767Y-7895344D01*
X10230179Y-7831193D01*
X10290446Y-7793666D01*
X10361436Y-7794679D01*
X10420608Y-7833911D01*
X10436483Y-7857853D01*
X10492906Y-7968589D01*
X10553695Y-8029378D01*
X10587721Y-8091690D01*
X10590600Y-8118473D01*
X10590600Y-8403500D01*
X10570598Y-8471621D01*
X10516942Y-8518114D01*
X10483633Y-8525359D01*
X10483976Y-8527079D01*
X10471805Y-8529500D01*
X10471804Y-8529500D01*
X10446864Y-8534461D01*
X10403111Y-8543164D01*
X10325213Y-8595213D01*
X10273164Y-8673111D01*
X10273163Y-8673112D01*
X10273164Y-8673112D01*
X10259500Y-8741804D01*
X10259500Y-9058196D01*
X10267736Y-9099601D01*
X10273164Y-9126888D01*
X10325213Y-9204786D01*
X10349014Y-9220689D01*
X10403112Y-9256836D01*
X10471804Y-9270500D01*
X10471805Y-9270500D01*
X10888195Y-9270500D01*
X10888196Y-9270500D01*
X10956888Y-9256836D01*
X11034786Y-9204786D01*
X11086836Y-9126888D01*
X11100500Y-9058196D01*
X11100500Y-8741804D01*
X11086836Y-8673112D01*
X11034786Y-8595214D01*
X11034785Y-8595213D01*
X11025396Y-8588939D01*
X10979869Y-8534461D01*
X10969400Y-8484175D01*
X10969400Y-8118473D01*
X10989402Y-8050352D01*
X11006304Y-8029378D01*
X11029973Y-8005709D01*
X11060696Y-7974985D01*
X11123006Y-7940962D01*
X11193821Y-7946026D01*
X11250658Y-7988572D01*
X11274239Y-8044370D01*
X11289954Y-8143588D01*
X11292500Y-8159661D01*
X11342905Y-8258587D01*
X11403696Y-8319378D01*
X11437720Y-8381688D01*
X11440600Y-8408472D01*
X11440600Y-8578863D01*
X11420598Y-8646984D01*
X11419366Y-8648864D01*
X11403164Y-8673111D01*
X11403163Y-8673112D01*
X11403164Y-8673112D01*
X11389500Y-8741804D01*
X11389500Y-9058196D01*
X11397736Y-9099601D01*
X11403164Y-9126888D01*
X11455213Y-9204786D01*
X11479014Y-9220689D01*
X11533112Y-9256836D01*
X11601804Y-9270500D01*
X11601805Y-9270500D01*
X12018195Y-9270500D01*
X12018196Y-9270500D01*
X12086888Y-9256836D01*
X12164786Y-9204786D01*
X12190878Y-9165735D01*
X12245354Y-9120209D01*
X12315797Y-9111360D01*
X12379841Y-9142001D01*
X12405424Y-9183416D01*
X12408440Y-9181880D01*
X12467906Y-9298589D01*
X12546411Y-9377094D01*
X12636342Y-9422916D01*
X12668235Y-9446087D01*
X12831361Y-9609213D01*
X12982595Y-9760446D01*
X13016620Y-9822759D01*
X13019500Y-9849542D01*
X13019500Y-10103688D01*
X13022870Y-10120630D01*
X13033454Y-10173839D01*
X13074177Y-10234786D01*
X13086609Y-10253391D01*
X13139506Y-10288736D01*
X13185033Y-10343211D01*
X13193882Y-10413654D01*
X13163241Y-10477698D01*
X13102840Y-10515010D01*
X13069505Y-10519500D01*
X12960102Y-10519500D01*
X12930787Y-10525331D01*
X12897543Y-10547543D01*
X12861407Y-10601626D01*
X12858212Y-10599491D01*
X12846907Y-10621095D01*
X12785206Y-10656217D01*
X12714312Y-10652405D01*
X12656733Y-10610870D01*
X12652182Y-10600900D01*
X12651094Y-10601628D01*
X12632491Y-10573786D01*
X12614957Y-10547543D01*
X12581713Y-10525331D01*
X12581712Y-10525330D01*
X12552400Y-10519500D01*
X12552399Y-10519500D01*
X12139082Y-10519500D01*
X12070961Y-10499498D01*
X12024468Y-10445842D01*
X12014364Y-10375568D01*
X12043858Y-10310988D01*
X12069080Y-10288735D01*
X12164786Y-10224786D01*
X12169655Y-10217499D01*
X12216836Y-10146888D01*
X12230500Y-10078196D01*
X12230500Y-9761804D01*
X12216836Y-9693112D01*
X12185464Y-9646160D01*
X12164786Y-9615213D01*
X12086888Y-9563164D01*
X12068468Y-9559500D01*
X12018196Y-9549500D01*
X11601804Y-9549500D01*
X11567458Y-9556332D01*
X11533111Y-9563164D01*
X11455213Y-9615213D01*
X11403164Y-9693111D01*
X11403163Y-9693112D01*
X11403164Y-9693112D01*
X11389500Y-9761804D01*
X11389500Y-10078196D01*
X11396875Y-10115272D01*
X11403164Y-10146888D01*
X11450345Y-10217500D01*
X11455214Y-10224786D01*
X11533112Y-10276836D01*
X11533113Y-10276836D01*
X11550921Y-10288735D01*
X11596448Y-10343211D01*
X11605297Y-10413654D01*
X11574656Y-10477699D01*
X11514254Y-10515010D01*
X11480920Y-10519500D01*
X11332602Y-10519500D01*
X11303287Y-10525331D01*
X11270043Y-10547543D01*
X11233907Y-10601626D01*
X11230712Y-10599491D01*
X11219407Y-10621095D01*
X11157706Y-10656217D01*
X11086812Y-10652405D01*
X11029233Y-10610870D01*
X11024682Y-10600900D01*
X11023594Y-10601628D01*
X11004991Y-10573786D01*
X10987457Y-10547543D01*
X10954213Y-10525331D01*
X10954212Y-10525330D01*
X10952189Y-10524928D01*
X10889280Y-10492020D01*
X10854148Y-10430325D01*
X10857948Y-10359430D01*
X10899474Y-10301844D01*
X10952188Y-10277770D01*
X10956888Y-10276836D01*
X11034786Y-10224786D01*
X11086836Y-10146888D01*
X11100500Y-10078196D01*
X11100500Y-9761804D01*
X11086836Y-9693112D01*
X11055464Y-9646160D01*
X11034786Y-9615213D01*
X10956888Y-9563164D01*
X10938468Y-9559500D01*
X10888196Y-9549500D01*
X10471804Y-9549500D01*
X10437458Y-9556332D01*
X10403111Y-9563164D01*
X10325213Y-9615213D01*
X10273164Y-9693111D01*
X10259500Y-9761805D01*
X10259500Y-10078194D01*
X10273659Y-10149379D01*
X10293845Y-10213839D01*
X10275063Y-10282307D01*
X10256960Y-10305185D01*
X10153962Y-10408183D01*
X10132778Y-10423216D01*
X10112960Y-10448067D01*
X10103554Y-10458593D01*
X10090954Y-10471195D01*
X10090191Y-10470433D01*
X10048190Y-10507578D01*
X9994691Y-10519500D01*
X9899080Y-10519500D01*
X9830959Y-10499498D01*
X9784466Y-10445842D01*
X9774362Y-10375568D01*
X9803856Y-10310988D01*
X9829079Y-10288734D01*
X9846884Y-10276836D01*
X9846888Y-10276836D01*
X9924786Y-10224786D01*
X9976836Y-10146888D01*
X9990500Y-10078196D01*
X9990500Y-9761804D01*
X9976836Y-9693112D01*
X9945464Y-9646160D01*
X9924786Y-9615213D01*
X9846888Y-9563164D01*
X9828468Y-9559500D01*
X9778196Y-9549500D01*
X9361804Y-9549500D01*
X9327458Y-9556332D01*
X9293111Y-9563164D01*
X9215213Y-9615213D01*
X9163164Y-9693111D01*
X9149500Y-9761805D01*
X9149500Y-10070456D01*
X9129498Y-10138577D01*
X9112595Y-10159551D01*
X9071410Y-10200736D01*
X9009098Y-10234762D01*
X8938283Y-10229697D01*
X8881447Y-10187150D01*
X8856636Y-10120630D01*
X8858736Y-10087060D01*
X8860500Y-10078196D01*
X8860500Y-9761804D01*
X8846836Y-9693112D01*
X8815464Y-9646160D01*
X8794786Y-9615213D01*
X8716888Y-9563164D01*
X8698468Y-9559500D01*
X8648196Y-9549500D01*
X8231804Y-9549500D01*
X8197458Y-9556332D01*
X8163111Y-9563164D01*
X8085213Y-9615213D01*
X8033164Y-9693111D01*
X8019500Y-9761805D01*
X8019500Y-9820457D01*
X7999498Y-9888578D01*
X7982599Y-9909547D01*
X7691411Y-10200736D01*
X7409551Y-10482596D01*
X7347239Y-10516621D01*
X7320456Y-10519500D01*
X7024047Y-10519500D01*
X6955926Y-10499498D01*
X6909433Y-10445842D01*
X6899329Y-10375568D01*
X6928823Y-10310988D01*
X6954046Y-10288735D01*
X7034785Y-10234787D01*
X7038217Y-10229651D01*
X7086836Y-10156888D01*
X7100500Y-10088196D01*
X7100500Y-9771804D01*
X7086836Y-9703112D01*
X7065045Y-9670499D01*
X7034786Y-9625213D01*
X6956888Y-9573164D01*
X6888196Y-9559500D01*
X6471804Y-9559500D01*
X6437458Y-9566332D01*
X6403111Y-9573164D01*
X6325213Y-9625213D01*
X6318941Y-9634602D01*
X6264464Y-9680130D01*
X6214176Y-9690600D01*
X5338473Y-9690600D01*
X5270352Y-9670598D01*
X5249378Y-9653695D01*
X5188589Y-9592906D01*
X5089661Y-9542500D01*
X4980000Y-9525130D01*
X4870338Y-9542500D01*
X4771410Y-9592906D01*
X4710622Y-9653695D01*
X4648310Y-9687721D01*
X4621527Y-9690600D01*
X4405493Y-9690600D01*
X4337372Y-9670598D01*
X4290879Y-9616942D01*
X4280775Y-9546668D01*
X4310269Y-9482088D01*
X4326934Y-9466089D01*
X4331786Y-9462218D01*
X4346819Y-9441031D01*
X4469484Y-9318366D01*
X4531794Y-9284342D01*
X4578288Y-9283014D01*
X4589999Y-9284869D01*
X4589999Y-9284868D01*
X4590000Y-9284869D01*
X4699661Y-9267500D01*
X4798587Y-9217095D01*
X4877095Y-9138587D01*
X4912961Y-9068196D01*
X6259500Y-9068196D01*
X6267836Y-9110101D01*
X6273164Y-9136888D01*
X6325213Y-9214786D01*
X6334048Y-9220689D01*
X6403112Y-9266836D01*
X6471804Y-9280500D01*
X6471805Y-9280500D01*
X6888195Y-9280500D01*
X6888196Y-9280500D01*
X6956888Y-9266836D01*
X7034786Y-9214786D01*
X7086836Y-9136888D01*
X7100500Y-9068196D01*
X7100500Y-8751804D01*
X7086836Y-8683112D01*
X7040634Y-8613967D01*
X7019420Y-8546215D01*
X7019400Y-8543966D01*
X7019400Y-8308473D01*
X7039402Y-8240352D01*
X7056305Y-8219378D01*
X7117093Y-8158589D01*
X7117095Y-8158587D01*
X7167500Y-8059661D01*
X7184869Y-7950000D01*
X7167500Y-7840339D01*
X7117095Y-7741413D01*
X7117094Y-7741412D01*
X7117093Y-7741410D01*
X7038589Y-7662906D01*
X6939661Y-7612500D01*
X6830000Y-7595130D01*
X6720338Y-7612500D01*
X6621410Y-7662906D01*
X6542906Y-7741410D01*
X6492500Y-7840338D01*
X6475130Y-7950000D01*
X6492058Y-8056871D01*
X6492500Y-8059661D01*
X6542905Y-8158587D01*
X6603696Y-8219378D01*
X6637720Y-8281688D01*
X6640600Y-8308472D01*
X6640600Y-8413500D01*
X6620598Y-8481621D01*
X6566942Y-8528114D01*
X6514600Y-8539500D01*
X6471804Y-8539500D01*
X6438046Y-8546215D01*
X6403111Y-8553164D01*
X6325213Y-8605213D01*
X6273164Y-8683111D01*
X6269024Y-8703925D01*
X6259500Y-8751804D01*
X6259500Y-9068196D01*
X4912961Y-9068196D01*
X4927500Y-9039661D01*
X4944869Y-8930000D01*
X4927500Y-8820339D01*
X4877095Y-8721413D01*
X4877094Y-8721412D01*
X4877093Y-8721410D01*
X4798589Y-8642906D01*
X4699661Y-8592500D01*
X4590000Y-8575130D01*
X4480338Y-8592500D01*
X4381410Y-8642906D01*
X4302906Y-8721410D01*
X4252500Y-8820338D01*
X4235130Y-8930001D01*
X4236985Y-8941710D01*
X4227885Y-9012121D01*
X4201633Y-9050513D01*
X4133454Y-9118694D01*
X4071142Y-9152720D01*
X4044357Y-9155600D01*
X3192006Y-9155600D01*
X3123885Y-9135598D01*
X3087240Y-9099601D01*
X3066255Y-9068194D01*
X3052457Y-9047543D01*
X3028808Y-9031742D01*
X3019212Y-9025330D01*
X2989899Y-9019500D01*
X2520102Y-9019500D01*
X2490787Y-9025331D01*
X2457542Y-9047543D01*
X2434764Y-9081634D01*
X2380286Y-9127161D01*
X2309843Y-9136008D01*
X2245799Y-9105367D01*
X2225233Y-9081631D01*
X2202456Y-9047542D01*
X2168366Y-9024764D01*
X2122838Y-8970287D01*
X2113990Y-8899844D01*
X2144631Y-8835800D01*
X2168369Y-8815232D01*
X2169211Y-8814669D01*
X2169213Y-8814669D01*
X2202457Y-8792457D01*
X2224669Y-8759213D01*
X2230500Y-8729899D01*
X2230499Y-8260102D01*
X2224669Y-8230787D01*
X2202457Y-8197543D01*
X2169213Y-8175331D01*
X2169212Y-8175330D01*
X2139899Y-8169500D01*
X1670102Y-8169500D01*
X1640787Y-8175331D01*
X1607543Y-8197543D01*
X1585330Y-8230787D01*
X1579500Y-8260100D01*
X1579500Y-8729897D01*
X1583858Y-8751805D01*
X1585331Y-8759213D01*
X1603876Y-8786968D01*
X1607543Y-8792457D01*
X1641632Y-8815234D01*
X1687160Y-8869711D01*
X1696009Y-8940154D01*
X1665368Y-9004199D01*
X1641632Y-9024766D01*
X1607543Y-9047543D01*
X1585330Y-9080787D01*
X1579500Y-9110100D01*
X1579500Y-9579897D01*
X1582088Y-9592906D01*
X1585331Y-9609213D01*
X1607543Y-9642457D01*
X1640787Y-9664669D01*
X1670101Y-9670500D01*
X1910457Y-9670499D01*
X1978577Y-9690501D01*
X1999552Y-9707404D01*
X2268180Y-9976032D01*
X2283215Y-9997220D01*
X2308068Y-10017040D01*
X2318598Y-10026450D01*
X2321164Y-10029016D01*
X2324239Y-10030948D01*
X2335754Y-10039119D01*
X2360612Y-10058942D01*
X2369603Y-10062666D01*
X2375834Y-10063368D01*
X2375836Y-10063369D01*
X2401196Y-10066226D01*
X2415117Y-10068591D01*
X2418659Y-10069400D01*
X2422286Y-10069400D01*
X2436393Y-10070192D01*
X2461751Y-10073049D01*
X2461752Y-10073048D01*
X2467980Y-10073750D01*
X2493588Y-10069400D01*
X4621527Y-10069400D01*
X4689648Y-10089402D01*
X4710622Y-10106305D01*
X4771410Y-10167093D01*
X4771412Y-10167094D01*
X4771413Y-10167095D01*
X4870339Y-10217500D01*
X4980000Y-10234869D01*
X5089661Y-10217500D01*
X5188587Y-10167095D01*
X5217105Y-10138577D01*
X5249378Y-10106305D01*
X5311690Y-10072279D01*
X5338473Y-10069400D01*
X6152356Y-10069400D01*
X6220477Y-10089402D01*
X6266970Y-10143058D01*
X6269820Y-10151883D01*
X6273163Y-10156887D01*
X6273164Y-10156888D01*
X6279983Y-10167093D01*
X6325213Y-10234786D01*
X6423951Y-10300760D01*
X6423895Y-10300842D01*
X6456346Y-10317816D01*
X6491479Y-10379510D01*
X6487681Y-10450405D01*
X6446157Y-10507992D01*
X6438858Y-10513255D01*
X6387544Y-10547541D01*
X6365330Y-10580787D01*
X6359500Y-10610100D01*
X6359501Y-11774000D01*
X6339499Y-11842121D01*
X6285843Y-11888614D01*
X6233501Y-11900000D01*
X4636500Y-11900000D01*
X4568379Y-11879998D01*
X4521886Y-11826342D01*
X4510500Y-11774000D01*
X4510499Y-10610102D01*
X4510499Y-10610100D01*
X4504669Y-10580787D01*
X4482457Y-10547543D01*
X4449213Y-10525331D01*
X4449212Y-10525330D01*
X4419899Y-10519500D01*
X3200102Y-10519500D01*
X3170787Y-10525331D01*
X3137543Y-10547543D01*
X3101407Y-10601626D01*
X3101233Y-10601509D01*
X3084421Y-10633650D01*
X3022726Y-10668782D01*
X2951832Y-10664982D01*
X2894246Y-10623456D01*
X2880355Y-10593039D01*
X2867491Y-10573786D01*
X2849957Y-10547543D01*
X2816713Y-10525331D01*
X2816712Y-10525330D01*
X2787399Y-10519500D01*
X1567602Y-10519500D01*
X1538287Y-10525331D01*
X1505043Y-10547543D01*
X1482830Y-10580787D01*
X1477000Y-10610100D01*
X1477001Y-11774000D01*
X1456999Y-11842121D01*
X1403343Y-11888614D01*
X1351001Y-11900000D01*
X226000Y-11900000D01*
X157879Y-11879998D01*
X111386Y-11826342D01*
X100000Y-11774000D01*
X100000Y-7283688D01*
X5159500Y-7283688D01*
X5162167Y-7297095D01*
X5173454Y-7353839D01*
X5226608Y-7433391D01*
X5279763Y-7468907D01*
X5306161Y-7486546D01*
X5376312Y-7500500D01*
X5376313Y-7500500D01*
X5763687Y-7500500D01*
X5763688Y-7500500D01*
X5833839Y-7486546D01*
X5913391Y-7433391D01*
X5966546Y-7353839D01*
X5980500Y-7283688D01*
X5980500Y-7283686D01*
X5982921Y-7271516D01*
X5984485Y-7271827D01*
X6000502Y-7217279D01*
X6054158Y-7170786D01*
X6106500Y-7159400D01*
X6611414Y-7159400D01*
X6637021Y-7163750D01*
X6643247Y-7163048D01*
X6643249Y-7163049D01*
X6668606Y-7160192D01*
X6682713Y-7159400D01*
X6686339Y-7159400D01*
X6686341Y-7159400D01*
X6689884Y-7158591D01*
X6703796Y-7156227D01*
X6729164Y-7153369D01*
X6729166Y-7153367D01*
X6735401Y-7152665D01*
X6759402Y-7142724D01*
X6777338Y-7138632D01*
X6778014Y-7141596D01*
X6793616Y-7135216D01*
X6826229Y-7136103D01*
X6850000Y-7139869D01*
X6959661Y-7122500D01*
X7058587Y-7072095D01*
X7137095Y-6993587D01*
X7187500Y-6894661D01*
X7204869Y-6785000D01*
X7187500Y-6675339D01*
X7137095Y-6576413D01*
X7137094Y-6576412D01*
X7137093Y-6576410D01*
X7058589Y-6497906D01*
X6959661Y-6447500D01*
X6849999Y-6430130D01*
X6740338Y-6447500D01*
X6641410Y-6497906D01*
X6562905Y-6576411D01*
X6507841Y-6684482D01*
X6482250Y-6738464D01*
X6421982Y-6775991D01*
X6388214Y-6780600D01*
X5912687Y-6780600D01*
X5844566Y-6760598D01*
X5842685Y-6759365D01*
X5833839Y-6753454D01*
X5799110Y-6746546D01*
X5763688Y-6739500D01*
X5376312Y-6739500D01*
X5341236Y-6746477D01*
X5306160Y-6753454D01*
X5226608Y-6806608D01*
X5173454Y-6886160D01*
X5168272Y-6912214D01*
X5159500Y-6956312D01*
X5159500Y-7283688D01*
X100000Y-7283688D01*
X100000Y-6248688D01*
X5159500Y-6248688D01*
X5166485Y-6283805D01*
X5173454Y-6318839D01*
X5226608Y-6398391D01*
X5258096Y-6419430D01*
X5306161Y-6451546D01*
X5376312Y-6465500D01*
X5376313Y-6465500D01*
X5763687Y-6465500D01*
X5763688Y-6465500D01*
X5833839Y-6451546D01*
X5913391Y-6398391D01*
X5966546Y-6318839D01*
X5980500Y-6248688D01*
X5980500Y-6215400D01*
X6000502Y-6147279D01*
X6054158Y-6100786D01*
X6106500Y-6089400D01*
X6616414Y-6089400D01*
X6642021Y-6093750D01*
X6648247Y-6093048D01*
X6648249Y-6093049D01*
X6673606Y-6090192D01*
X6687713Y-6089400D01*
X6691339Y-6089400D01*
X6691341Y-6089400D01*
X6694884Y-6088591D01*
X6708796Y-6086227D01*
X6734164Y-6083369D01*
X6734165Y-6083368D01*
X6762746Y-6080148D01*
X6762994Y-6082354D01*
X6781819Y-6077031D01*
X6800273Y-6078577D01*
X6839997Y-6084869D01*
X6839998Y-6084868D01*
X6840000Y-6084869D01*
X6949661Y-6067500D01*
X7048587Y-6017095D01*
X7127095Y-5938587D01*
X7177500Y-5839661D01*
X7179051Y-5829867D01*
X7209464Y-5765715D01*
X7255956Y-5736765D01*
X7206065Y-5700788D01*
X7181121Y-5643202D01*
X7177500Y-5620339D01*
X7127095Y-5521413D01*
X7127094Y-5521412D01*
X7127093Y-5521410D01*
X7048589Y-5442906D01*
X6949661Y-5392500D01*
X6840000Y-5375130D01*
X6730338Y-5392500D01*
X6631410Y-5442906D01*
X6552905Y-5521411D01*
X6493440Y-5638120D01*
X6489872Y-5636302D01*
X6474630Y-5668460D01*
X6414364Y-5705989D01*
X6380590Y-5710600D01*
X5808582Y-5710600D01*
X5772648Y-5704500D01*
X5763688Y-5704500D01*
X5376312Y-5704500D01*
X5343715Y-5710984D01*
X5306160Y-5718454D01*
X5226608Y-5771608D01*
X5173454Y-5851160D01*
X5169681Y-5870130D01*
X5159500Y-5921312D01*
X5159500Y-6248688D01*
X100000Y-6248688D01*
X100000Y-3849999D01*
X6495130Y-3849999D01*
X6512500Y-3959661D01*
X6562906Y-4058589D01*
X6641410Y-4137093D01*
X6641412Y-4137094D01*
X6641413Y-4137095D01*
X6740339Y-4187500D01*
X6850000Y-4204869D01*
X6959661Y-4187500D01*
X7058587Y-4137095D01*
X7137095Y-4058587D01*
X7187500Y-3959661D01*
X7204869Y-3850000D01*
X7187500Y-3740339D01*
X7137095Y-3641413D01*
X7137094Y-3641412D01*
X7137093Y-3641410D01*
X7058589Y-3562906D01*
X6964568Y-3515000D01*
X7485130Y-3515000D01*
X7502500Y-3624661D01*
X7552906Y-3723589D01*
X7631410Y-3802093D01*
X7631412Y-3802094D01*
X7631413Y-3802095D01*
X7730339Y-3852500D01*
X7840000Y-3869869D01*
X7949661Y-3852500D01*
X8048587Y-3802095D01*
X8127095Y-3723587D01*
X8177500Y-3624661D01*
X8194869Y-3515000D01*
X8177500Y-3405339D01*
X8127095Y-3306413D01*
X8127094Y-3306412D01*
X8127093Y-3306410D01*
X8048589Y-3227906D01*
X7949661Y-3177500D01*
X7840000Y-3160130D01*
X7730338Y-3177500D01*
X7631410Y-3227906D01*
X7552906Y-3306410D01*
X7502500Y-3405338D01*
X7485130Y-3515000D01*
X6964568Y-3515000D01*
X6959661Y-3512500D01*
X6850000Y-3495130D01*
X6740338Y-3512500D01*
X6641410Y-3562906D01*
X6562906Y-3641410D01*
X6512500Y-3740338D01*
X6495130Y-3849999D01*
X100000Y-3849999D01*
X100000Y-2829999D01*
X4205130Y-2829999D01*
X4222500Y-2939661D01*
X4272906Y-3038589D01*
X4351410Y-3117093D01*
X4351412Y-3117094D01*
X4351413Y-3117095D01*
X4450339Y-3167500D01*
X4560000Y-3184869D01*
X4560001Y-3184868D01*
X4560002Y-3184869D01*
X4571709Y-3183015D01*
X4642120Y-3192113D01*
X4680516Y-3218368D01*
X4688180Y-3226032D01*
X4703215Y-3247220D01*
X4728068Y-3267040D01*
X4738598Y-3276450D01*
X4741164Y-3279016D01*
X4744239Y-3280948D01*
X4755754Y-3289119D01*
X4780612Y-3308942D01*
X4789603Y-3312666D01*
X4795834Y-3313368D01*
X4795836Y-3313369D01*
X4821196Y-3316226D01*
X4835117Y-3318591D01*
X4838659Y-3319400D01*
X4842286Y-3319400D01*
X4856393Y-3320192D01*
X4881751Y-3323049D01*
X4881752Y-3323048D01*
X4887980Y-3323750D01*
X4913588Y-3319400D01*
X5076413Y-3319400D01*
X5144534Y-3339402D01*
X5181176Y-3375396D01*
X5226609Y-3443391D01*
X5306161Y-3496546D01*
X5376312Y-3510500D01*
X5376313Y-3510500D01*
X5763687Y-3510500D01*
X5763688Y-3510500D01*
X5833839Y-3496546D01*
X5913391Y-3443391D01*
X5966546Y-3363839D01*
X5980500Y-3293688D01*
X5980500Y-2966312D01*
X5966546Y-2896161D01*
X5948907Y-2869763D01*
X5913391Y-2816608D01*
X5833839Y-2763454D01*
X5763688Y-2749500D01*
X5376312Y-2749500D01*
X5341236Y-2756477D01*
X5306160Y-2763454D01*
X5226609Y-2816608D01*
X5214781Y-2834311D01*
X5181177Y-2884602D01*
X5126702Y-2930129D01*
X5076413Y-2940600D01*
X5040001Y-2940600D01*
X4971880Y-2920598D01*
X4925387Y-2866942D01*
X4915552Y-2834311D01*
X4912244Y-2813427D01*
X4897500Y-2720339D01*
X4847095Y-2621413D01*
X4847094Y-2621412D01*
X4847093Y-2621410D01*
X4768589Y-2542906D01*
X4669661Y-2492500D01*
X4560000Y-2475130D01*
X4450338Y-2492500D01*
X4351410Y-2542906D01*
X4272906Y-2621410D01*
X4222500Y-2720338D01*
X4205130Y-2829999D01*
X100000Y-2829999D01*
X100000Y-1719897D01*
X729500Y-1719897D01*
X734171Y-1743381D01*
X735331Y-1749213D01*
X757543Y-1782457D01*
X790787Y-1804669D01*
X820101Y-1810500D01*
X2039898Y-1810499D01*
X2069213Y-1804669D01*
X2102457Y-1782457D01*
X2124669Y-1749213D01*
X2130500Y-1719899D01*
X2130499Y-500102D01*
X2124669Y-470787D01*
X2102457Y-437543D01*
X2069213Y-415331D01*
X2069212Y-415330D01*
X2039899Y-409500D01*
X820102Y-409500D01*
X790787Y-415331D01*
X757543Y-437543D01*
X735330Y-470787D01*
X729500Y-500100D01*
X729500Y-1719897D01*
X100000Y-1719897D01*
X100000Y-226000D01*
X120002Y-157879D01*
X173658Y-111386D01*
X226000Y-100000D01*
X7872956Y-100000D01*
X7941077Y-120002D01*
G37*
%TD.AperFunction*%
%TA.AperFunction,Conductor*%
G36*
X11385605Y-554402D02*
G01*
X11432098Y-608058D01*
X11442202Y-678332D01*
X11429751Y-717603D01*
X11382500Y-810338D01*
X11365130Y-920000D01*
X11382500Y-1029661D01*
X11432906Y-1128589D01*
X11459306Y-1154989D01*
X11493332Y-1217301D01*
X11488267Y-1288116D01*
X11474976Y-1314085D01*
X11413454Y-1406158D01*
X11406123Y-1443014D01*
X11399500Y-1476312D01*
X11399500Y-1803688D01*
X11405174Y-1832214D01*
X11413454Y-1873839D01*
X11466608Y-1953391D01*
X11519763Y-1988907D01*
X11546161Y-2006546D01*
X11616312Y-2020500D01*
X11616313Y-2020500D01*
X12003687Y-2020500D01*
X12003688Y-2020500D01*
X12073839Y-2006546D01*
X12153391Y-1953391D01*
X12198822Y-1885397D01*
X12253298Y-1839871D01*
X12303587Y-1829400D01*
X12353094Y-1829400D01*
X12421215Y-1849402D01*
X12457859Y-1885398D01*
X12457898Y-1885457D01*
X12496609Y-1943391D01*
X12576161Y-1996546D01*
X12646312Y-2010500D01*
X12646313Y-2010500D01*
X13033687Y-2010500D01*
X13033688Y-2010500D01*
X13103839Y-1996546D01*
X13183391Y-1943391D01*
X13236546Y-1863839D01*
X13250500Y-1793688D01*
X13250500Y-1466312D01*
X13236546Y-1396161D01*
X13218907Y-1369763D01*
X13183391Y-1316608D01*
X13103839Y-1263454D01*
X13083961Y-1259500D01*
X13033688Y-1249500D01*
X12646312Y-1249500D01*
X12639782Y-1250799D01*
X12576160Y-1263454D01*
X12496608Y-1316608D01*
X12454687Y-1379349D01*
X12444497Y-1394601D01*
X12444496Y-1394602D01*
X12390020Y-1440129D01*
X12339731Y-1450600D01*
X12303587Y-1450600D01*
X12235466Y-1430598D01*
X12198823Y-1394603D01*
X12153391Y-1326609D01*
X12138423Y-1316608D01*
X12062077Y-1265595D01*
X12016549Y-1211118D01*
X12007701Y-1140675D01*
X12019810Y-1103630D01*
X12057500Y-1029661D01*
X12074869Y-920000D01*
X12057500Y-810339D01*
X12010249Y-717603D01*
X11997145Y-647826D01*
X12023845Y-582041D01*
X12081873Y-541135D01*
X12122516Y-534400D01*
X12964358Y-534400D01*
X13032479Y-554402D01*
X13053453Y-571305D01*
X14001000Y-1518852D01*
X14035026Y-1581164D01*
X14029961Y-1651979D01*
X13987414Y-1708815D01*
X13960127Y-1724354D01*
X13952912Y-1727342D01*
X13827470Y-1823597D01*
X13731217Y-1949037D01*
X13670708Y-2095118D01*
X13653360Y-2226897D01*
X13650071Y-2251880D01*
X13651877Y-2265598D01*
X13670708Y-2408641D01*
X13731217Y-2554722D01*
X13827470Y-2680162D01*
X13952910Y-2776415D01*
X13952911Y-2776415D01*
X13952912Y-2776416D01*
X14098991Y-2836924D01*
X14255753Y-2857562D01*
X14412515Y-2836924D01*
X14558594Y-2776416D01*
X14684035Y-2680162D01*
X14684035Y-2680161D01*
X14697195Y-2670064D01*
X14700254Y-2674051D01*
X14731213Y-2651381D01*
X14802078Y-2647062D01*
X14864029Y-2681742D01*
X14897396Y-2744409D01*
X14900000Y-2769894D01*
X14900000Y-4273865D01*
X14879998Y-4341986D01*
X14826342Y-4388479D01*
X14756068Y-4398583D01*
X14698331Y-4372214D01*
X14697195Y-4373696D01*
X14558595Y-4267344D01*
X14412514Y-4206835D01*
X14255753Y-4186198D01*
X14098991Y-4206835D01*
X13952912Y-4267343D01*
X13897891Y-4309563D01*
X13831671Y-4335163D01*
X13821187Y-4335600D01*
X13333587Y-4335600D01*
X13265466Y-4315598D01*
X13228823Y-4279603D01*
X13183391Y-4211609D01*
X13176246Y-4206835D01*
X13103839Y-4158454D01*
X13097243Y-4157142D01*
X13033688Y-4144500D01*
X12646312Y-4144500D01*
X12616108Y-4150508D01*
X12576160Y-4158454D01*
X12496608Y-4211608D01*
X12443454Y-4291160D01*
X12438593Y-4315598D01*
X12429500Y-4361312D01*
X12429500Y-4688688D01*
X12436697Y-4724871D01*
X12443454Y-4758839D01*
X12496608Y-4838391D01*
X12535841Y-4864605D01*
X12576161Y-4891546D01*
X12646312Y-4905500D01*
X12646313Y-4905500D01*
X13033687Y-4905500D01*
X13033688Y-4905500D01*
X13103839Y-4891546D01*
X13183391Y-4838391D01*
X13228822Y-4770397D01*
X13283298Y-4724871D01*
X13333587Y-4714400D01*
X13529372Y-4714400D01*
X13597493Y-4734402D01*
X13643986Y-4788058D01*
X13654293Y-4823951D01*
X13659471Y-4863280D01*
X13670708Y-4948641D01*
X13731217Y-5094722D01*
X13827470Y-5220162D01*
X13966072Y-5326515D01*
X13963167Y-5330300D01*
X13993863Y-5355054D01*
X14016261Y-5422425D01*
X13998680Y-5491211D01*
X13963521Y-5523921D01*
X13966072Y-5527245D01*
X13827470Y-5633597D01*
X13731217Y-5759037D01*
X13670708Y-5905118D01*
X13650071Y-6061880D01*
X13670708Y-6218641D01*
X13731217Y-6364722D01*
X13827470Y-6490162D01*
X13966072Y-6596515D01*
X13963167Y-6600300D01*
X13993863Y-6625054D01*
X14016261Y-6692425D01*
X13998680Y-6761211D01*
X13963521Y-6793921D01*
X13966072Y-6797245D01*
X13827470Y-6903597D01*
X13731217Y-7029037D01*
X13670708Y-7175118D01*
X13650071Y-7331879D01*
X13670708Y-7488641D01*
X13731217Y-7634722D01*
X13827470Y-7760162D01*
X13966072Y-7866515D01*
X13963167Y-7870300D01*
X13993863Y-7895054D01*
X14016261Y-7962425D01*
X13998680Y-8031211D01*
X13963521Y-8063921D01*
X13966072Y-8067245D01*
X13827470Y-8173597D01*
X13731217Y-8299037D01*
X13670708Y-8445118D01*
X13650071Y-8601880D01*
X13670708Y-8758641D01*
X13731217Y-8904722D01*
X13827470Y-9030162D01*
X13952910Y-9126415D01*
X13952911Y-9126415D01*
X13952912Y-9126416D01*
X14098991Y-9186924D01*
X14255753Y-9207562D01*
X14412515Y-9186924D01*
X14558594Y-9126416D01*
X14684035Y-9030162D01*
X14684035Y-9030161D01*
X14697195Y-9020064D01*
X14700254Y-9024051D01*
X14731213Y-9001381D01*
X14802078Y-8997062D01*
X14864029Y-9031742D01*
X14897396Y-9094409D01*
X14900000Y-9119894D01*
X14900000Y-11774000D01*
X14879998Y-11842121D01*
X14826342Y-11888614D01*
X14774000Y-11900000D01*
X14396500Y-11900000D01*
X14328379Y-11879998D01*
X14281886Y-11826342D01*
X14270500Y-11774000D01*
X14270499Y-10610102D01*
X14270499Y-10610100D01*
X14264669Y-10580787D01*
X14242457Y-10547543D01*
X14209213Y-10525331D01*
X14209212Y-10525330D01*
X14179900Y-10519500D01*
X13730496Y-10519500D01*
X13662375Y-10499498D01*
X13615882Y-10445842D01*
X13605778Y-10375568D01*
X13635272Y-10310988D01*
X13660490Y-10288738D01*
X13713391Y-10253391D01*
X13766546Y-10173839D01*
X13780500Y-10103688D01*
X13780500Y-9716312D01*
X13766546Y-9646161D01*
X13748907Y-9619763D01*
X13713391Y-9566608D01*
X13633839Y-9513454D01*
X13633839Y-9513453D01*
X13563688Y-9499500D01*
X13563687Y-9499500D01*
X13309542Y-9499500D01*
X13241421Y-9479498D01*
X13220447Y-9462595D01*
X13111668Y-9353816D01*
X13077642Y-9291504D01*
X13082707Y-9220689D01*
X13088498Y-9207515D01*
X13092500Y-9199661D01*
X13109869Y-9090000D01*
X13108543Y-9081631D01*
X13107117Y-9072629D01*
X13092500Y-8980339D01*
X13063044Y-8922529D01*
X13049941Y-8852753D01*
X13076641Y-8786968D01*
X13105305Y-8760566D01*
X13183391Y-8708391D01*
X13236546Y-8628839D01*
X13250500Y-8558688D01*
X13250500Y-8231312D01*
X13236546Y-8161161D01*
X13208023Y-8118473D01*
X13183391Y-8081608D01*
X13103839Y-8028454D01*
X13103839Y-8028453D01*
X13033688Y-8014500D01*
X12646312Y-8014500D01*
X12611236Y-8021476D01*
X12576160Y-8028454D01*
X12496608Y-8081608D01*
X12443454Y-8161160D01*
X12440635Y-8175331D01*
X12429605Y-8230787D01*
X12429500Y-8231313D01*
X12429500Y-8571098D01*
X12426900Y-8571098D01*
X12422145Y-8624238D01*
X12378591Y-8680306D01*
X12311638Y-8703925D01*
X12242545Y-8687598D01*
X12200129Y-8648108D01*
X12164786Y-8595213D01*
X12086888Y-8543164D01*
X12055749Y-8536970D01*
X12018196Y-8529500D01*
X12018195Y-8529500D01*
X11950373Y-8529500D01*
X11882252Y-8509498D01*
X11835759Y-8455842D01*
X11825655Y-8385568D01*
X11855149Y-8320988D01*
X11861278Y-8314405D01*
X11917093Y-8258589D01*
X11917095Y-8258587D01*
X11967500Y-8159661D01*
X11984869Y-8050000D01*
X11967500Y-7940339D01*
X11917095Y-7841413D01*
X11917094Y-7841412D01*
X11917093Y-7841410D01*
X11838589Y-7762906D01*
X11739661Y-7712500D01*
X11629999Y-7695130D01*
X11520338Y-7712500D01*
X11421412Y-7762905D01*
X11349304Y-7835013D01*
X11286992Y-7869038D01*
X11216176Y-7863972D01*
X11159340Y-7821425D01*
X11135760Y-7765628D01*
X11134869Y-7760000D01*
X11117500Y-7650339D01*
X11067095Y-7551413D01*
X11067094Y-7551412D01*
X11067093Y-7551410D01*
X10988589Y-7472906D01*
X10919428Y-7437667D01*
X10867813Y-7388919D01*
X10850747Y-7320004D01*
X10873648Y-7252802D01*
X10929245Y-7208650D01*
X10976631Y-7199400D01*
X11301527Y-7199400D01*
X11369648Y-7219402D01*
X11390622Y-7236305D01*
X11451410Y-7297093D01*
X11451412Y-7297094D01*
X11451413Y-7297095D01*
X11550339Y-7347500D01*
X11660000Y-7364869D01*
X11769661Y-7347500D01*
X11868587Y-7297095D01*
X11947095Y-7218587D01*
X11954280Y-7211402D01*
X11978601Y-7181594D01*
X11994250Y-7169114D01*
X12005770Y-7160942D01*
X12006964Y-7160192D01*
X12008836Y-7159016D01*
X12011401Y-7156450D01*
X12021933Y-7147038D01*
X12041887Y-7131126D01*
X12041888Y-7131123D01*
X12046788Y-7127216D01*
X12061819Y-7106031D01*
X12362258Y-6805592D01*
X12424568Y-6771568D01*
X12495383Y-6776633D01*
X12521350Y-6789922D01*
X12576161Y-6826546D01*
X12646312Y-6840500D01*
X12646313Y-6840500D01*
X13033687Y-6840500D01*
X13033688Y-6840500D01*
X13103839Y-6826546D01*
X13183391Y-6773391D01*
X13236546Y-6693839D01*
X13250500Y-6623688D01*
X13250500Y-6296312D01*
X13236546Y-6226161D01*
X13208974Y-6184897D01*
X13183391Y-6146608D01*
X13103839Y-6093454D01*
X13071483Y-6087018D01*
X13033688Y-6079500D01*
X12646312Y-6079500D01*
X12612503Y-6086225D01*
X12576160Y-6093454D01*
X12496609Y-6146608D01*
X12444999Y-6223848D01*
X12400161Y-6261318D01*
X12400175Y-6261340D01*
X12400016Y-6261439D01*
X12390521Y-6269375D01*
X12385055Y-6270837D01*
X12384593Y-6271128D01*
X12360605Y-6281063D01*
X12335752Y-6300882D01*
X12324239Y-6309051D01*
X12321161Y-6310984D01*
X12318590Y-6313556D01*
X12308069Y-6322958D01*
X12283215Y-6342779D01*
X12268183Y-6363963D01*
X11960252Y-6671895D01*
X11897939Y-6705920D01*
X11827124Y-6700856D01*
X11813954Y-6695067D01*
X11769660Y-6672499D01*
X11740696Y-6667911D01*
X11676544Y-6637498D01*
X11639018Y-6577229D01*
X11640033Y-6506240D01*
X11671313Y-6454368D01*
X11692095Y-6433587D01*
X11742500Y-6334661D01*
X11759869Y-6225000D01*
X11742500Y-6115339D01*
X11692095Y-6016413D01*
X11692094Y-6016412D01*
X11692093Y-6016410D01*
X11613589Y-5937906D01*
X11514661Y-5887500D01*
X11404999Y-5870130D01*
X11295336Y-5887500D01*
X11207602Y-5932203D01*
X11137825Y-5945307D01*
X11072041Y-5918606D01*
X11031135Y-5860579D01*
X11024400Y-5819936D01*
X11024400Y-5784931D01*
X11044402Y-5716810D01*
X11061299Y-5695841D01*
X11108444Y-5648696D01*
X11170751Y-5614674D01*
X11217248Y-5613346D01*
X11289997Y-5624869D01*
X11289998Y-5624868D01*
X11290000Y-5624869D01*
X11399661Y-5607500D01*
X11498587Y-5557095D01*
X11577095Y-5478587D01*
X11627500Y-5379661D01*
X11644869Y-5270000D01*
X11627500Y-5160339D01*
X11577095Y-5061413D01*
X11577094Y-5061412D01*
X11577093Y-5061410D01*
X11498589Y-4982906D01*
X11498533Y-4982877D01*
X11497335Y-4982267D01*
X11445720Y-4933520D01*
X11428653Y-4864605D01*
X11451553Y-4797404D01*
X11497334Y-4757733D01*
X11498587Y-4757095D01*
X11577095Y-4678587D01*
X11627500Y-4579661D01*
X11644869Y-4470000D01*
X11627500Y-4360339D01*
X11577095Y-4261413D01*
X11577094Y-4261412D01*
X11577093Y-4261410D01*
X11528503Y-4212820D01*
X11494477Y-4150508D01*
X11499542Y-4079693D01*
X11542089Y-4022857D01*
X11560389Y-4011462D01*
X11588587Y-3997095D01*
X11667095Y-3918587D01*
X11717500Y-3819661D01*
X11734869Y-3710000D01*
X11717500Y-3600339D01*
X11667095Y-3501413D01*
X11667094Y-3501412D01*
X11667093Y-3501410D01*
X11588589Y-3422906D01*
X11489661Y-3372500D01*
X11380000Y-3355130D01*
X11270338Y-3372500D01*
X11171410Y-3422906D01*
X11092906Y-3501410D01*
X11092708Y-3501800D01*
X11043961Y-3553416D01*
X10980440Y-3570600D01*
X10781131Y-3570600D01*
X10713010Y-3550598D01*
X10692036Y-3533695D01*
X10317404Y-3159063D01*
X10283378Y-3096751D01*
X10280499Y-3069968D01*
X10280499Y-2551102D01*
X10278869Y-2542905D01*
X10274669Y-2521787D01*
X10252457Y-2488543D01*
X10223634Y-2469285D01*
X10219212Y-2466330D01*
X10189899Y-2460500D01*
X9890102Y-2460500D01*
X9860787Y-2466331D01*
X9860000Y-2466857D01*
X9792246Y-2488070D01*
X9723780Y-2469285D01*
X9719999Y-2466856D01*
X9719212Y-2466330D01*
X9689899Y-2460500D01*
X9390102Y-2460500D01*
X9360787Y-2466331D01*
X9360000Y-2466857D01*
X9292246Y-2488070D01*
X9223780Y-2469285D01*
X9219999Y-2466856D01*
X9219212Y-2466330D01*
X9189899Y-2460500D01*
X8890102Y-2460500D01*
X8860787Y-2466331D01*
X8827543Y-2488543D01*
X8805330Y-2521787D01*
X8797079Y-2563272D01*
X8794463Y-2562751D01*
X8779498Y-2613721D01*
X8725842Y-2660214D01*
X8673500Y-2671600D01*
X8661500Y-2671600D01*
X8593379Y-2651598D01*
X8546886Y-2597942D01*
X8535500Y-2545600D01*
X8535500Y-2316805D01*
X8535353Y-2316067D01*
X8521836Y-2248112D01*
X8469992Y-2170522D01*
X8469786Y-2170213D01*
X8391888Y-2118164D01*
X8323196Y-2104500D01*
X7906804Y-2104500D01*
X7872458Y-2111332D01*
X7838111Y-2118164D01*
X7760213Y-2170213D01*
X7720532Y-2229602D01*
X7666055Y-2275130D01*
X7615767Y-2285600D01*
X7589233Y-2285600D01*
X7521112Y-2265598D01*
X7484468Y-2229602D01*
X7444786Y-2170213D01*
X7366888Y-2118164D01*
X7298196Y-2104500D01*
X6881804Y-2104500D01*
X6847458Y-2111332D01*
X6813111Y-2118164D01*
X6766501Y-2149308D01*
X6698748Y-2170522D01*
X6630281Y-2151738D01*
X6582838Y-2098921D01*
X6570500Y-2044542D01*
X6570500Y-1885457D01*
X6590502Y-1817336D01*
X6644158Y-1770843D01*
X6714432Y-1760739D01*
X6766501Y-1780691D01*
X6813112Y-1811836D01*
X6881804Y-1825500D01*
X6881805Y-1825500D01*
X7298195Y-1825500D01*
X7298196Y-1825500D01*
X7366888Y-1811836D01*
X7444786Y-1759786D01*
X7496836Y-1681888D01*
X7496836Y-1681887D01*
X7497735Y-1680542D01*
X7552212Y-1635014D01*
X7622655Y-1626166D01*
X7686699Y-1656807D01*
X7707265Y-1680542D01*
X7760213Y-1759786D01*
X7791502Y-1780692D01*
X7838112Y-1811836D01*
X7906804Y-1825500D01*
X7906805Y-1825500D01*
X8323195Y-1825500D01*
X8323196Y-1825500D01*
X8391888Y-1811836D01*
X8469786Y-1759786D01*
X8487106Y-1733865D01*
X8512809Y-1695398D01*
X8567286Y-1649870D01*
X8603529Y-1642324D01*
X8616339Y-1639400D01*
X8616341Y-1639400D01*
X8619884Y-1638591D01*
X8633796Y-1636227D01*
X8659164Y-1633369D01*
X8659166Y-1633367D01*
X8665401Y-1632665D01*
X8674386Y-1628944D01*
X8699237Y-1609125D01*
X8710770Y-1600942D01*
X8713836Y-1599016D01*
X8716401Y-1596450D01*
X8726933Y-1587038D01*
X8746887Y-1571126D01*
X8746888Y-1571123D01*
X8751788Y-1567216D01*
X8766819Y-1546031D01*
X8834484Y-1478366D01*
X8896794Y-1444342D01*
X8943288Y-1443014D01*
X8954999Y-1444869D01*
X8954999Y-1444868D01*
X8955000Y-1444869D01*
X9064661Y-1427500D01*
X9145389Y-1386366D01*
X9215166Y-1373263D01*
X9280950Y-1399963D01*
X9291687Y-1409539D01*
X9412595Y-1530447D01*
X9446621Y-1592759D01*
X9449500Y-1619542D01*
X9449500Y-1873688D01*
X9451841Y-1885457D01*
X9463454Y-1943839D01*
X9516608Y-2023391D01*
X9569763Y-2058907D01*
X9596161Y-2076546D01*
X9666312Y-2090500D01*
X9666313Y-2090500D01*
X9993687Y-2090500D01*
X9993688Y-2090500D01*
X10063839Y-2076546D01*
X10143391Y-2023391D01*
X10196546Y-1943839D01*
X10210500Y-1873688D01*
X10210500Y-1486312D01*
X10196546Y-1416161D01*
X10168255Y-1373821D01*
X10143391Y-1336608D01*
X10063839Y-1283454D01*
X9993688Y-1269500D01*
X9993687Y-1269500D01*
X9739542Y-1269500D01*
X9671421Y-1249498D01*
X9650447Y-1232595D01*
X9411820Y-993968D01*
X9396787Y-972781D01*
X9371935Y-952963D01*
X9361403Y-943551D01*
X9358836Y-940984D01*
X9355762Y-939052D01*
X9344242Y-930878D01*
X9319394Y-911062D01*
X9310388Y-907331D01*
X9306441Y-906887D01*
X9240989Y-879381D01*
X9231458Y-870775D01*
X9163589Y-802906D01*
X9104241Y-772667D01*
X9052626Y-723919D01*
X9035560Y-655004D01*
X9058461Y-587802D01*
X9114058Y-543650D01*
X9161444Y-534400D01*
X11317484Y-534400D01*
X11385605Y-554402D01*
G37*
%TD.AperFunction*%
%TD*%
M02*
