%TF.GenerationSoftware,KiCad,Pcbnew,7.0.2-6a45011f42~172~ubuntu22.04.1*%
%TF.CreationDate,2023-05-25T09:16:40+08:00*%
%TF.ProjectId,fly2040_ds,666c7932-3034-4305-9f64-732e6b696361,rev?*%
%TF.SameCoordinates,PX45b1cc0PY2f4fd10*%
%TF.FileFunction,Copper,L3,Inr*%
%TF.FilePolarity,Positive*%
%FSLAX46Y46*%
G04 Gerber Fmt 4.6, Leading zero omitted, Abs format (unit mm)*
G04 Created by KiCad (PCBNEW 7.0.2-6a45011f42~172~ubuntu22.04.1) date 2023-05-25 09:16:40*
%MOMM*%
%LPD*%
G01*
G04 APERTURE LIST*
%TA.AperFunction,ComponentPad*%
%ADD10R,1.200000X1.200000*%
%TD*%
%TA.AperFunction,ComponentPad*%
%ADD11O,1.000000X1.000000*%
%TD*%
%TA.AperFunction,ViaPad*%
%ADD12C,0.450000*%
%TD*%
%TA.AperFunction,Conductor*%
%ADD13C,0.200000*%
%TD*%
G04 APERTURE END LIST*
D10*
%TO.N,NS_SCL*%
%TO.C,J7*%
X2177500Y-11220000D03*
%TD*%
D11*
%TO.N,RST*%
%TO.C,J8*%
X14255753Y-8601880D03*
%TO.N,D-*%
X14255753Y-7331880D03*
%TO.N,D+*%
X14255753Y-6061880D03*
%TO.N,+3V3*%
X14255753Y-4791880D03*
%TO.N,GND*%
X14255753Y-3521880D03*
%TO.N,BOOT*%
X14255753Y-2251880D03*
%TD*%
D10*
%TO.N,NS_CPU*%
%TO.C,J1*%
X1430000Y-1110000D03*
%TD*%
%TO.N,NS_CMD*%
%TO.C,J4*%
X10315000Y-11220000D03*
%TD*%
%TO.N,NS_RST*%
%TO.C,J2*%
X7060000Y-11220000D03*
%TD*%
%TO.N,NS_SDA*%
%TO.C,J6*%
X3810000Y-11220000D03*
%TD*%
%TO.N,NS_D0*%
%TO.C,J5*%
X11942500Y-11220000D03*
%TD*%
%TO.N,GND*%
%TO.C,J9*%
X5432500Y-11220000D03*
%TD*%
%TO.N,NS_CLK*%
%TO.C,J3*%
X8687500Y-11220000D03*
%TD*%
%TO.N,+3V3*%
%TO.C,J10*%
X13570000Y-11220000D03*
%TD*%
D12*
%TO.N,GND*%
X4440000Y-4640000D03*
X920000Y-8060000D03*
X920000Y-2740000D03*
%TO.N,+3V3*%
X4560000Y-2830000D03*
%TO.N,LED_DATA*%
X4590000Y-8930000D03*
%TO.N,RST*%
X6830000Y-7950000D03*
%TO.N,Net-(U1-GPIO29_ADC3)*%
X11630000Y-8050000D03*
%TO.N,Net-(U1-GPIO28_ADC2)*%
X10780000Y-7760000D03*
%TO.N,Net-(U1-GPIO27_ADC1)*%
X9860000Y-7800000D03*
%TO.N,Net-(U1-GPIO26_ADC0)*%
X8780000Y-7990000D03*
%TO.N,+3V3*%
X7855000Y-7830000D03*
%TO.N,QSPI_SD3*%
X11405000Y-6225000D03*
%TO.N,QSPI_SCK*%
X11290000Y-5270000D03*
%TO.N,QSPI_SD0*%
X11290000Y-4470000D03*
%TO.N,QSPI_SD2*%
X11380000Y-3710000D03*
%TO.N,QSPI_SD1*%
X9775000Y-3695000D03*
%TO.N,QSPI_CS*%
X9050000Y-3685000D03*
%TO.N,+3V3*%
X4980000Y-9880000D03*
X11720000Y-920000D03*
X12755000Y-9090000D03*
X8955000Y-1090000D03*
X6840000Y-5730000D03*
%TO.N,+1V1*%
X6850000Y-6785000D03*
X11660000Y-7010000D03*
%TO.N,NS_SDA*%
X7840000Y-3515000D03*
%TO.N,NS_SCL*%
X6850000Y-3850000D03*
%TD*%
D13*
%TO.N,NS_SCL*%
X6850000Y-3850000D02*
X6850000Y-3860000D01*
X6850000Y-3860000D02*
X2177500Y-8532500D01*
X2177500Y-8532500D02*
X2177500Y-11220000D01*
%TO.N,NS_SDA*%
X7840000Y-3515000D02*
X7840000Y-3890000D01*
X7840000Y-3890000D02*
X3810000Y-7920000D01*
X3810000Y-7920000D02*
X3810000Y-11220000D01*
%TD*%
%TA.AperFunction,Conductor*%
%TO.N,+3V3*%
G36*
X14885648Y-114352D02*
G01*
X14900000Y-149000D01*
X14900000Y-1991707D01*
X14885648Y-2026355D01*
X14851000Y-2040707D01*
X14816352Y-2026355D01*
X14805730Y-2010459D01*
X14780289Y-1949039D01*
X14743950Y-1901681D01*
X14684035Y-1823597D01*
X14558595Y-1727345D01*
X14558594Y-1727344D01*
X14412515Y-1666836D01*
X14255753Y-1646198D01*
X14098990Y-1666836D01*
X13995695Y-1709622D01*
X13970884Y-1719900D01*
X13952910Y-1727345D01*
X13827470Y-1823597D01*
X13731218Y-1949037D01*
X13699192Y-2026355D01*
X13670709Y-2095118D01*
X13650071Y-2251880D01*
X13670709Y-2408642D01*
X13731217Y-2554721D01*
X13731218Y-2554722D01*
X13827470Y-2680162D01*
X13905454Y-2740000D01*
X13952912Y-2776416D01*
X14060833Y-2821118D01*
X14098990Y-2836924D01*
X14109434Y-2838299D01*
X14141912Y-2857051D01*
X14151619Y-2893276D01*
X14132867Y-2925754D01*
X14109434Y-2935461D01*
X14098990Y-2936835D01*
X13952910Y-2997345D01*
X13827470Y-3093597D01*
X13731218Y-3219037D01*
X13670709Y-3365117D01*
X13665414Y-3405337D01*
X13650071Y-3521880D01*
X13670709Y-3678642D01*
X13731217Y-3824721D01*
X13731218Y-3824722D01*
X13827470Y-3950162D01*
X13869087Y-3982095D01*
X13952912Y-4046416D01*
X14098991Y-4106924D01*
X14255753Y-4127562D01*
X14412515Y-4106924D01*
X14558594Y-4046416D01*
X14684035Y-3950162D01*
X14780289Y-3824721D01*
X14805730Y-3763299D01*
X14832249Y-3736782D01*
X14869752Y-3736782D01*
X14896270Y-3763301D01*
X14900000Y-3782052D01*
X14900000Y-5801707D01*
X14885648Y-5836355D01*
X14851000Y-5850707D01*
X14816352Y-5836355D01*
X14805730Y-5820459D01*
X14780289Y-5759039D01*
X14743950Y-5711681D01*
X14684035Y-5633597D01*
X14558595Y-5537345D01*
X14558594Y-5537344D01*
X14412515Y-5476836D01*
X14255753Y-5456198D01*
X14255752Y-5456198D01*
X14098990Y-5476836D01*
X13952910Y-5537345D01*
X13827470Y-5633597D01*
X13731218Y-5759037D01*
X13670709Y-5905117D01*
X13666393Y-5937905D01*
X13650071Y-6061880D01*
X13670709Y-6218642D01*
X13731217Y-6364721D01*
X13731218Y-6364722D01*
X13827470Y-6490162D01*
X13905554Y-6550077D01*
X13952912Y-6586416D01*
X14060833Y-6631118D01*
X14098990Y-6646924D01*
X14109434Y-6648299D01*
X14141912Y-6667051D01*
X14151619Y-6703276D01*
X14132867Y-6735754D01*
X14109434Y-6745461D01*
X14098990Y-6746835D01*
X13952910Y-6807345D01*
X13827470Y-6903597D01*
X13731218Y-7029037D01*
X13670709Y-7175117D01*
X13654651Y-7297095D01*
X13650071Y-7331880D01*
X13670709Y-7488642D01*
X13731217Y-7634721D01*
X13731218Y-7634722D01*
X13827470Y-7760162D01*
X13880906Y-7801164D01*
X13952912Y-7856416D01*
X14060833Y-7901118D01*
X14098990Y-7916924D01*
X14109434Y-7918299D01*
X14141912Y-7937051D01*
X14151619Y-7973276D01*
X14132867Y-8005754D01*
X14109434Y-8015461D01*
X14098990Y-8016835D01*
X13952910Y-8077345D01*
X13827470Y-8173597D01*
X13731218Y-8299037D01*
X13670709Y-8445117D01*
X13653593Y-8575131D01*
X13650071Y-8601880D01*
X13670709Y-8758642D01*
X13731217Y-8904721D01*
X13731218Y-8904722D01*
X13827470Y-9030162D01*
X13905554Y-9090077D01*
X13952912Y-9126416D01*
X14098991Y-9186924D01*
X14255753Y-9207562D01*
X14412515Y-9186924D01*
X14558594Y-9126416D01*
X14684035Y-9030162D01*
X14780289Y-8904721D01*
X14805730Y-8843299D01*
X14832249Y-8816782D01*
X14869752Y-8816782D01*
X14896270Y-8843301D01*
X14900000Y-8862052D01*
X14900000Y-11851000D01*
X14885648Y-11885648D01*
X14851000Y-11900000D01*
X12688763Y-11900000D01*
X12654115Y-11885648D01*
X12639763Y-11851000D01*
X12640704Y-11841441D01*
X12643000Y-11829899D01*
X12642999Y-10610102D01*
X12637169Y-10580787D01*
X12637169Y-10580786D01*
X12614957Y-10547543D01*
X12614956Y-10547542D01*
X12581713Y-10525331D01*
X12581712Y-10525330D01*
X12581711Y-10525330D01*
X12552400Y-10519500D01*
X11332602Y-10519500D01*
X11303286Y-10525330D01*
X11270043Y-10547542D01*
X11247830Y-10580788D01*
X11242000Y-10610099D01*
X11242000Y-11829897D01*
X11244297Y-11841443D01*
X11236979Y-11878225D01*
X11205795Y-11899059D01*
X11196238Y-11900000D01*
X11061263Y-11900000D01*
X11026615Y-11885648D01*
X11012263Y-11851000D01*
X11013204Y-11841441D01*
X11015500Y-11829899D01*
X11015499Y-10610102D01*
X11009669Y-10580787D01*
X11009669Y-10580786D01*
X10987457Y-10547543D01*
X10987456Y-10547542D01*
X10954213Y-10525331D01*
X10954212Y-10525330D01*
X10954211Y-10525330D01*
X10924900Y-10519500D01*
X9705102Y-10519500D01*
X9675786Y-10525330D01*
X9642543Y-10547542D01*
X9620330Y-10580788D01*
X9614500Y-10610099D01*
X9614500Y-11829897D01*
X9616797Y-11841443D01*
X9609479Y-11878225D01*
X9578295Y-11899059D01*
X9568738Y-11900000D01*
X9433763Y-11900000D01*
X9399115Y-11885648D01*
X9384763Y-11851000D01*
X9385704Y-11841441D01*
X9388000Y-11829899D01*
X9387999Y-10610102D01*
X9382169Y-10580787D01*
X9382169Y-10580786D01*
X9359957Y-10547543D01*
X9359956Y-10547542D01*
X9326713Y-10525331D01*
X9326712Y-10525330D01*
X9326711Y-10525330D01*
X9297400Y-10519500D01*
X8077602Y-10519500D01*
X8048286Y-10525330D01*
X8015043Y-10547542D01*
X7992830Y-10580788D01*
X7987000Y-10610099D01*
X7987000Y-11829897D01*
X7989297Y-11841443D01*
X7981979Y-11878225D01*
X7950795Y-11899059D01*
X7941238Y-11900000D01*
X7806263Y-11900000D01*
X7771615Y-11885648D01*
X7757263Y-11851000D01*
X7758204Y-11841441D01*
X7760500Y-11829899D01*
X7760499Y-10610102D01*
X7754669Y-10580787D01*
X7754669Y-10580786D01*
X7732457Y-10547543D01*
X7732456Y-10547542D01*
X7699213Y-10525331D01*
X7699212Y-10525330D01*
X7699211Y-10525330D01*
X7669900Y-10519500D01*
X6450102Y-10519500D01*
X6420786Y-10525330D01*
X6387543Y-10547542D01*
X6365330Y-10580788D01*
X6359500Y-10610099D01*
X6359500Y-11829897D01*
X6361797Y-11841443D01*
X6354479Y-11878225D01*
X6323295Y-11899059D01*
X6313738Y-11900000D01*
X6178763Y-11900000D01*
X6144115Y-11885648D01*
X6129763Y-11851000D01*
X6130704Y-11841441D01*
X6133000Y-11829899D01*
X6132999Y-10610102D01*
X6127169Y-10580787D01*
X6127169Y-10580786D01*
X6104957Y-10547543D01*
X6104956Y-10547542D01*
X6071713Y-10525331D01*
X6071712Y-10525330D01*
X6071711Y-10525330D01*
X6042400Y-10519500D01*
X4822602Y-10519500D01*
X4793286Y-10525330D01*
X4760043Y-10547542D01*
X4737830Y-10580788D01*
X4732000Y-10610099D01*
X4732000Y-11829897D01*
X4734297Y-11841443D01*
X4726979Y-11878225D01*
X4695795Y-11899059D01*
X4686238Y-11900000D01*
X4556263Y-11900000D01*
X4521615Y-11885648D01*
X4507263Y-11851000D01*
X4508204Y-11841441D01*
X4510500Y-11829899D01*
X4510499Y-10610102D01*
X4504669Y-10580787D01*
X4504669Y-10580786D01*
X4482457Y-10547543D01*
X4482456Y-10547542D01*
X4449213Y-10525331D01*
X4449212Y-10525330D01*
X4449211Y-10525330D01*
X4419901Y-10519500D01*
X4419899Y-10519500D01*
X4048400Y-10519500D01*
X4013752Y-10505148D01*
X3999400Y-10470500D01*
X3999400Y-8930000D01*
X4235131Y-8930000D01*
X4252499Y-9039662D01*
X4302905Y-9138587D01*
X4381413Y-9217095D01*
X4413554Y-9233472D01*
X4480337Y-9267500D01*
X4506718Y-9271678D01*
X4590000Y-9284869D01*
X4684667Y-9269874D01*
X4699662Y-9267500D01*
X4733053Y-9250486D01*
X4798587Y-9217095D01*
X4877095Y-9138587D01*
X4910486Y-9073053D01*
X4927500Y-9039662D01*
X4929874Y-9024667D01*
X4944869Y-8930000D01*
X4927500Y-8820339D01*
X4927500Y-8820337D01*
X4877094Y-8721412D01*
X4798587Y-8642905D01*
X4699662Y-8592499D01*
X4590000Y-8575131D01*
X4480337Y-8592499D01*
X4381412Y-8642905D01*
X4302905Y-8721412D01*
X4252499Y-8820337D01*
X4235131Y-8930000D01*
X3999400Y-8930000D01*
X3999400Y-8018747D01*
X4013751Y-7984100D01*
X4047851Y-7950000D01*
X6475131Y-7950000D01*
X6492499Y-8059662D01*
X6541010Y-8154868D01*
X6542905Y-8158587D01*
X6621413Y-8237095D01*
X6653554Y-8253472D01*
X6720337Y-8287500D01*
X6746718Y-8291678D01*
X6830000Y-8304869D01*
X6924667Y-8289874D01*
X6939662Y-8287500D01*
X6996406Y-8258587D01*
X7038587Y-8237095D01*
X7117095Y-8158587D01*
X7158490Y-8077344D01*
X7167500Y-8059662D01*
X7174283Y-8016835D01*
X7178533Y-7990000D01*
X8425131Y-7990000D01*
X8442499Y-8099662D01*
X8492904Y-8198586D01*
X8492905Y-8198587D01*
X8571413Y-8277095D01*
X8591834Y-8287500D01*
X8670337Y-8327500D01*
X8696718Y-8331678D01*
X8780000Y-8344869D01*
X8874667Y-8329874D01*
X8889662Y-8327500D01*
X8945519Y-8299039D01*
X8988587Y-8277095D01*
X9067095Y-8198587D01*
X9109752Y-8114868D01*
X9117500Y-8099662D01*
X9123835Y-8059662D01*
X9134869Y-7990000D01*
X9118749Y-7888222D01*
X9117500Y-7880337D01*
X9080591Y-7807901D01*
X9076565Y-7800000D01*
X9505131Y-7800000D01*
X9522499Y-7909662D01*
X9572904Y-8008586D01*
X9572905Y-8008587D01*
X9651413Y-8087095D01*
X9683554Y-8103472D01*
X9750337Y-8137500D01*
X9776718Y-8141678D01*
X9860000Y-8154869D01*
X9954667Y-8139874D01*
X9969662Y-8137500D01*
X10014079Y-8114868D01*
X10068587Y-8087095D01*
X10147095Y-8008587D01*
X10193099Y-7918299D01*
X10197500Y-7909662D01*
X10202144Y-7880339D01*
X10214869Y-7800000D01*
X10208533Y-7760000D01*
X10425131Y-7760000D01*
X10442499Y-7869662D01*
X10492904Y-7968586D01*
X10492905Y-7968587D01*
X10571413Y-8047095D01*
X10596741Y-8060000D01*
X10670337Y-8097500D01*
X10696718Y-8101678D01*
X10780000Y-8114869D01*
X10876017Y-8099661D01*
X10889662Y-8097500D01*
X10923053Y-8080486D01*
X10982886Y-8050000D01*
X11275131Y-8050000D01*
X11292499Y-8159662D01*
X11331954Y-8237094D01*
X11342905Y-8258587D01*
X11421413Y-8337095D01*
X11453554Y-8353472D01*
X11520337Y-8387500D01*
X11546718Y-8391678D01*
X11630000Y-8404869D01*
X11724667Y-8389874D01*
X11739662Y-8387500D01*
X11792732Y-8360459D01*
X11838587Y-8337095D01*
X11917095Y-8258587D01*
X11960399Y-8173598D01*
X11967500Y-8159662D01*
X11971010Y-8137500D01*
X11984869Y-8050000D01*
X11969030Y-7950000D01*
X11967500Y-7940337D01*
X11922190Y-7851413D01*
X11917095Y-7841413D01*
X11838587Y-7762905D01*
X11827844Y-7757431D01*
X11739662Y-7712499D01*
X11630000Y-7695131D01*
X11520337Y-7712499D01*
X11421412Y-7762905D01*
X11342905Y-7841412D01*
X11292499Y-7940337D01*
X11275131Y-8050000D01*
X10982886Y-8050000D01*
X10988587Y-8047095D01*
X11067095Y-7968587D01*
X11108043Y-7888222D01*
X11117500Y-7869662D01*
X11122144Y-7840339D01*
X11134869Y-7760000D01*
X11119490Y-7662905D01*
X11117500Y-7650337D01*
X11067094Y-7551412D01*
X10988587Y-7472905D01*
X10889662Y-7422499D01*
X10780000Y-7405131D01*
X10670337Y-7422499D01*
X10571412Y-7472905D01*
X10492905Y-7551412D01*
X10442499Y-7650337D01*
X10425131Y-7760000D01*
X10208533Y-7760000D01*
X10197500Y-7690339D01*
X10197500Y-7690337D01*
X10148989Y-7595131D01*
X10147095Y-7591413D01*
X10068587Y-7512905D01*
X9969662Y-7462499D01*
X9860000Y-7445131D01*
X9750337Y-7462499D01*
X9651412Y-7512905D01*
X9572905Y-7591412D01*
X9522499Y-7690337D01*
X9505131Y-7800000D01*
X9076565Y-7800000D01*
X9067095Y-7781413D01*
X8988587Y-7702905D01*
X8963921Y-7690337D01*
X8889662Y-7652499D01*
X8780000Y-7635131D01*
X8670337Y-7652499D01*
X8571412Y-7702905D01*
X8492905Y-7781412D01*
X8442499Y-7880337D01*
X8425131Y-7990000D01*
X7178533Y-7990000D01*
X7184869Y-7950000D01*
X7171678Y-7866718D01*
X7167500Y-7840337D01*
X7128256Y-7763318D01*
X7117095Y-7741413D01*
X7038587Y-7662905D01*
X7038586Y-7662905D01*
X6939662Y-7612499D01*
X6830000Y-7595131D01*
X6720337Y-7612499D01*
X6621412Y-7662905D01*
X6542905Y-7741412D01*
X6492499Y-7840337D01*
X6475131Y-7950000D01*
X4047851Y-7950000D01*
X5212851Y-6785000D01*
X6495131Y-6785000D01*
X6512499Y-6894662D01*
X6562905Y-6993587D01*
X6641413Y-7072095D01*
X6673554Y-7088472D01*
X6740337Y-7122500D01*
X6766718Y-7126678D01*
X6850000Y-7139869D01*
X6944667Y-7124874D01*
X6959662Y-7122500D01*
X7022545Y-7090459D01*
X7058587Y-7072095D01*
X7120682Y-7010000D01*
X11305131Y-7010000D01*
X11322499Y-7119662D01*
X11372904Y-7218586D01*
X11372905Y-7218587D01*
X11451413Y-7297095D01*
X11483554Y-7313472D01*
X11550337Y-7347500D01*
X11576718Y-7351678D01*
X11660000Y-7364869D01*
X11754667Y-7349874D01*
X11769662Y-7347500D01*
X11803053Y-7330486D01*
X11868587Y-7297095D01*
X11947095Y-7218587D01*
X11987204Y-7139868D01*
X11997500Y-7119662D01*
X12011853Y-7029039D01*
X12014869Y-7010000D01*
X11997500Y-6900339D01*
X11997500Y-6900337D01*
X11947094Y-6801412D01*
X11868587Y-6722905D01*
X11769662Y-6672499D01*
X11660000Y-6655131D01*
X11550337Y-6672499D01*
X11451412Y-6722905D01*
X11372905Y-6801412D01*
X11322499Y-6900337D01*
X11305131Y-7010000D01*
X7120682Y-7010000D01*
X7137095Y-6993587D01*
X7170486Y-6928053D01*
X7187500Y-6894662D01*
X7189874Y-6879667D01*
X7204869Y-6785000D01*
X7187500Y-6675339D01*
X7187500Y-6675337D01*
X7153472Y-6608554D01*
X7137095Y-6576413D01*
X7058587Y-6497905D01*
X7058586Y-6497905D01*
X6959662Y-6447499D01*
X6850000Y-6430131D01*
X6740337Y-6447499D01*
X6641412Y-6497905D01*
X6562905Y-6576412D01*
X6512499Y-6675337D01*
X6495131Y-6785000D01*
X5212851Y-6785000D01*
X5772851Y-6225000D01*
X11050131Y-6225000D01*
X11067499Y-6334662D01*
X11116144Y-6430131D01*
X11117905Y-6433587D01*
X11196413Y-6512095D01*
X11228554Y-6528472D01*
X11295337Y-6562500D01*
X11321718Y-6566678D01*
X11405000Y-6579869D01*
X11499667Y-6564874D01*
X11514662Y-6562500D01*
X11548053Y-6545486D01*
X11613587Y-6512095D01*
X11692095Y-6433587D01*
X11727184Y-6364721D01*
X11742500Y-6334662D01*
X11751667Y-6276782D01*
X11759869Y-6225000D01*
X11742500Y-6115339D01*
X11742500Y-6115337D01*
X11692094Y-6016412D01*
X11613587Y-5937905D01*
X11514662Y-5887499D01*
X11405000Y-5870131D01*
X11295337Y-5887499D01*
X11196412Y-5937905D01*
X11117905Y-6016412D01*
X11067499Y-6115337D01*
X11050131Y-6225000D01*
X5772851Y-6225000D01*
X6727850Y-5270000D01*
X10935131Y-5270000D01*
X10952499Y-5379662D01*
X10991497Y-5456198D01*
X11002905Y-5478587D01*
X11081413Y-5557095D01*
X11113554Y-5573472D01*
X11180337Y-5607500D01*
X11206718Y-5611678D01*
X11290000Y-5624869D01*
X11384667Y-5609874D01*
X11399662Y-5607500D01*
X11433053Y-5590486D01*
X11498587Y-5557095D01*
X11577095Y-5478587D01*
X11610486Y-5413053D01*
X11627500Y-5379662D01*
X11629874Y-5364667D01*
X11644869Y-5270000D01*
X11627500Y-5160339D01*
X11627500Y-5160337D01*
X11577094Y-5061412D01*
X11498587Y-4982905D01*
X11399662Y-4932500D01*
X11310620Y-4918397D01*
X11292103Y-4907049D01*
X11290515Y-4909642D01*
X11269379Y-4918397D01*
X11180337Y-4932499D01*
X11081412Y-4982905D01*
X11002905Y-5061412D01*
X10952499Y-5160337D01*
X10935131Y-5270000D01*
X6727850Y-5270000D01*
X7527850Y-4470000D01*
X10935131Y-4470000D01*
X10952499Y-4579662D01*
X11002905Y-4678586D01*
X11002905Y-4678587D01*
X11081413Y-4757095D01*
X11113554Y-4773472D01*
X11180337Y-4807500D01*
X11269379Y-4821603D01*
X11287895Y-4832950D01*
X11289484Y-4830358D01*
X11310620Y-4821603D01*
X11399661Y-4807500D01*
X11498587Y-4757095D01*
X11577095Y-4678587D01*
X11610486Y-4613053D01*
X11627500Y-4579662D01*
X11635312Y-4530337D01*
X11644869Y-4470000D01*
X11627500Y-4360339D01*
X11627500Y-4360337D01*
X11577094Y-4261412D01*
X11498587Y-4182905D01*
X11428110Y-4146995D01*
X11403754Y-4118478D01*
X11406697Y-4081090D01*
X11435214Y-4056734D01*
X11442684Y-4054940D01*
X11489661Y-4047500D01*
X11588587Y-3997095D01*
X11667095Y-3918587D01*
X11700486Y-3853053D01*
X11717500Y-3819662D01*
X11720282Y-3802095D01*
X11734869Y-3710000D01*
X11717500Y-3600339D01*
X11717500Y-3600337D01*
X11672744Y-3512500D01*
X11667095Y-3501413D01*
X11588587Y-3422905D01*
X11588586Y-3422904D01*
X11489662Y-3372499D01*
X11380000Y-3355131D01*
X11270337Y-3372499D01*
X11171412Y-3422905D01*
X11092905Y-3501412D01*
X11042499Y-3600337D01*
X11025131Y-3710000D01*
X11042499Y-3819662D01*
X11092905Y-3918587D01*
X11171413Y-3997095D01*
X11241888Y-4033004D01*
X11266245Y-4061521D01*
X11263302Y-4098908D01*
X11234785Y-4123265D01*
X11227309Y-4125060D01*
X11180337Y-4132500D01*
X11081412Y-4182905D01*
X11002905Y-4261412D01*
X10952499Y-4360337D01*
X10935131Y-4470000D01*
X7527850Y-4470000D01*
X7945285Y-4052565D01*
X7958672Y-4043068D01*
X7961126Y-4041887D01*
X7979736Y-4018549D01*
X7983391Y-4014461D01*
X7985789Y-4012062D01*
X7989017Y-4008835D01*
X7993249Y-4002098D01*
X7996418Y-3997630D01*
X8015032Y-3974291D01*
X8015637Y-3971635D01*
X8021923Y-3956464D01*
X8023369Y-3954163D01*
X8024338Y-3945559D01*
X8026710Y-3924502D01*
X8027631Y-3919088D01*
X8027746Y-3918587D01*
X8029400Y-3911341D01*
X8029400Y-3903393D01*
X8029708Y-3897907D01*
X8030195Y-3893586D01*
X8033050Y-3868248D01*
X8032149Y-3865675D01*
X8029400Y-3849492D01*
X8029400Y-3841578D01*
X8043752Y-3806930D01*
X8068916Y-3781766D01*
X8127095Y-3723587D01*
X8146756Y-3685000D01*
X8695131Y-3685000D01*
X8712499Y-3794662D01*
X8749994Y-3868248D01*
X8762905Y-3893587D01*
X8841413Y-3972095D01*
X8873554Y-3988472D01*
X8940337Y-4022500D01*
X8966718Y-4026678D01*
X9050000Y-4039869D01*
X9144667Y-4024874D01*
X9159662Y-4022500D01*
X9209523Y-3997094D01*
X9258587Y-3972095D01*
X9337095Y-3893587D01*
X9355321Y-3857817D01*
X9366293Y-3836283D01*
X9394810Y-3811926D01*
X9432197Y-3814869D01*
X9453611Y-3836282D01*
X9469898Y-3868247D01*
X9487905Y-3903587D01*
X9566413Y-3982095D01*
X9595850Y-3997094D01*
X9665337Y-4032500D01*
X9691718Y-4036678D01*
X9775000Y-4049869D01*
X9869667Y-4034874D01*
X9884662Y-4032500D01*
X9920065Y-4014461D01*
X9983587Y-3982095D01*
X10062095Y-3903587D01*
X10096388Y-3836282D01*
X10112500Y-3804662D01*
X10119051Y-3763300D01*
X10129869Y-3695000D01*
X10112500Y-3585339D01*
X10112500Y-3585337D01*
X10062094Y-3486412D01*
X9983587Y-3407905D01*
X9884662Y-3357499D01*
X9775000Y-3340131D01*
X9665337Y-3357499D01*
X9566412Y-3407905D01*
X9487905Y-3486412D01*
X9458706Y-3543717D01*
X9430188Y-3568073D01*
X9392801Y-3565130D01*
X9371388Y-3543717D01*
X9355482Y-3512500D01*
X9337095Y-3476413D01*
X9258587Y-3397905D01*
X9258586Y-3397904D01*
X9159662Y-3347499D01*
X9050000Y-3330131D01*
X8940337Y-3347499D01*
X8841412Y-3397905D01*
X8762905Y-3476412D01*
X8712499Y-3575337D01*
X8695131Y-3685000D01*
X8146756Y-3685000D01*
X8160486Y-3658053D01*
X8177500Y-3624662D01*
X8185312Y-3575337D01*
X8194869Y-3515000D01*
X8180282Y-3422905D01*
X8177500Y-3405337D01*
X8139180Y-3330131D01*
X8127095Y-3306413D01*
X8048587Y-3227905D01*
X8048586Y-3227904D01*
X7949662Y-3177499D01*
X7840000Y-3160131D01*
X7730337Y-3177499D01*
X7631412Y-3227905D01*
X7552905Y-3306412D01*
X7502499Y-3405337D01*
X7485131Y-3515000D01*
X7502499Y-3624662D01*
X7552905Y-3723587D01*
X7611084Y-3781766D01*
X7625436Y-3816414D01*
X7611084Y-3851062D01*
X3704715Y-7757431D01*
X3691333Y-7766928D01*
X3688873Y-7768112D01*
X3670265Y-7791445D01*
X3666611Y-7795535D01*
X3660984Y-7801163D01*
X3656750Y-7807901D01*
X3653574Y-7812377D01*
X3634966Y-7835711D01*
X3634360Y-7838368D01*
X3628083Y-7853525D01*
X3626631Y-7855835D01*
X3623288Y-7885493D01*
X3622370Y-7890897D01*
X3620600Y-7898658D01*
X3620600Y-7906611D01*
X3620292Y-7912097D01*
X3616951Y-7941750D01*
X3617850Y-7944319D01*
X3620600Y-7960504D01*
X3620599Y-10470500D01*
X3606247Y-10505148D01*
X3571599Y-10519500D01*
X3200102Y-10519500D01*
X3170786Y-10525330D01*
X3137543Y-10547542D01*
X3115330Y-10580788D01*
X3109500Y-10610099D01*
X3109500Y-11829897D01*
X3111797Y-11841443D01*
X3104479Y-11878225D01*
X3073295Y-11899059D01*
X3063738Y-11900000D01*
X2923763Y-11900000D01*
X2889115Y-11885648D01*
X2874763Y-11851000D01*
X2875704Y-11841441D01*
X2878000Y-11829899D01*
X2877999Y-10610102D01*
X2872169Y-10580787D01*
X2872169Y-10580786D01*
X2849957Y-10547543D01*
X2849956Y-10547542D01*
X2816713Y-10525331D01*
X2816712Y-10525330D01*
X2816711Y-10525330D01*
X2787401Y-10519500D01*
X2787399Y-10519500D01*
X2415900Y-10519500D01*
X2381252Y-10505148D01*
X2366900Y-10470500D01*
X2366900Y-8631247D01*
X2381252Y-8596599D01*
X4547720Y-6430131D01*
X6765859Y-4211991D01*
X6800506Y-4197640D01*
X6808162Y-4198242D01*
X6850000Y-4204869D01*
X6944667Y-4189874D01*
X6959662Y-4187500D01*
X6993053Y-4170486D01*
X7058587Y-4137095D01*
X7137095Y-4058587D01*
X7170486Y-3993053D01*
X7187500Y-3959662D01*
X7193926Y-3919088D01*
X7204869Y-3850000D01*
X7187500Y-3740339D01*
X7187500Y-3740337D01*
X7137094Y-3641412D01*
X7058587Y-3562905D01*
X6959662Y-3512499D01*
X6850000Y-3495131D01*
X6740337Y-3512499D01*
X6641412Y-3562905D01*
X6562905Y-3641412D01*
X6512499Y-3740337D01*
X6495131Y-3850000D01*
X6504490Y-3909092D01*
X6495735Y-3945559D01*
X6490741Y-3951405D01*
X2072215Y-8369931D01*
X2058833Y-8379428D01*
X2056373Y-8380612D01*
X2037765Y-8403945D01*
X2034111Y-8408035D01*
X2028484Y-8413663D01*
X2024250Y-8420401D01*
X2021074Y-8424877D01*
X2002466Y-8448211D01*
X2001860Y-8450868D01*
X1995583Y-8466025D01*
X1994131Y-8468335D01*
X1990788Y-8497993D01*
X1989870Y-8503397D01*
X1988100Y-8511158D01*
X1988100Y-8519111D01*
X1987792Y-8524597D01*
X1984451Y-8554250D01*
X1985350Y-8556819D01*
X1988100Y-8573004D01*
X1988100Y-10470500D01*
X1973748Y-10505148D01*
X1939100Y-10519500D01*
X1567602Y-10519500D01*
X1538286Y-10525330D01*
X1505043Y-10547542D01*
X1482830Y-10580788D01*
X1477000Y-10610099D01*
X1477000Y-11829897D01*
X1479297Y-11841443D01*
X1471979Y-11878225D01*
X1440795Y-11899059D01*
X1431238Y-11900000D01*
X149000Y-11900000D01*
X114352Y-11885648D01*
X100000Y-11851000D01*
X100000Y-8060000D01*
X565131Y-8060000D01*
X582499Y-8169662D01*
X616859Y-8237095D01*
X632905Y-8268587D01*
X711413Y-8347095D01*
X743554Y-8363472D01*
X810337Y-8397500D01*
X836718Y-8401678D01*
X920000Y-8414869D01*
X1014667Y-8399874D01*
X1029662Y-8397500D01*
X1063053Y-8380486D01*
X1128587Y-8347095D01*
X1207095Y-8268587D01*
X1255495Y-8173597D01*
X1257500Y-8169662D01*
X1266178Y-8114869D01*
X1274869Y-8060000D01*
X1259107Y-7960484D01*
X1257500Y-7950337D01*
X1209643Y-7856414D01*
X1207095Y-7851413D01*
X1128587Y-7772905D01*
X1119180Y-7768112D01*
X1029662Y-7722499D01*
X920000Y-7705131D01*
X810337Y-7722499D01*
X711412Y-7772905D01*
X632905Y-7851412D01*
X582499Y-7950337D01*
X565131Y-8060000D01*
X100000Y-8060000D01*
X100000Y-4640000D01*
X4085131Y-4640000D01*
X4102499Y-4749662D01*
X4152904Y-4848586D01*
X4152905Y-4848587D01*
X4231413Y-4927095D01*
X4263554Y-4943472D01*
X4330337Y-4977500D01*
X4356718Y-4981678D01*
X4440000Y-4994869D01*
X4534667Y-4979874D01*
X4549662Y-4977500D01*
X4583053Y-4960486D01*
X4648587Y-4927095D01*
X4727095Y-4848587D01*
X4760486Y-4783053D01*
X4777500Y-4749662D01*
X4788757Y-4678587D01*
X4794869Y-4640000D01*
X4777500Y-4530339D01*
X4777500Y-4530337D01*
X4727094Y-4431412D01*
X4648587Y-4352905D01*
X4549662Y-4302499D01*
X4440000Y-4285131D01*
X4330337Y-4302499D01*
X4231412Y-4352905D01*
X4152905Y-4431412D01*
X4102499Y-4530337D01*
X4085131Y-4640000D01*
X100000Y-4640000D01*
X100000Y-2740000D01*
X565131Y-2740000D01*
X582499Y-2849662D01*
X632904Y-2948586D01*
X632905Y-2948587D01*
X711413Y-3027095D01*
X743554Y-3043472D01*
X810337Y-3077500D01*
X836718Y-3081678D01*
X920000Y-3094869D01*
X1014667Y-3079874D01*
X1029662Y-3077500D01*
X1063053Y-3060486D01*
X1128587Y-3027095D01*
X1207095Y-2948587D01*
X1241795Y-2880484D01*
X1257500Y-2849662D01*
X1269101Y-2776414D01*
X1274869Y-2740000D01*
X1257500Y-2630339D01*
X1257500Y-2630337D01*
X1207094Y-2531412D01*
X1128587Y-2452905D01*
X1029662Y-2402499D01*
X920000Y-2385131D01*
X810337Y-2402499D01*
X711412Y-2452905D01*
X632905Y-2531412D01*
X582499Y-2630337D01*
X565131Y-2740000D01*
X100000Y-2740000D01*
X100000Y-1719897D01*
X729500Y-1719897D01*
X735330Y-1749213D01*
X757542Y-1782456D01*
X757543Y-1782457D01*
X790787Y-1804669D01*
X820101Y-1810500D01*
X2039898Y-1810499D01*
X2069213Y-1804669D01*
X2102457Y-1782457D01*
X2124669Y-1749213D01*
X2130500Y-1719899D01*
X2130499Y-500102D01*
X2124669Y-470787D01*
X2124669Y-470786D01*
X2102457Y-437543D01*
X2102456Y-437542D01*
X2069213Y-415331D01*
X2069212Y-415330D01*
X2069211Y-415330D01*
X2039900Y-409500D01*
X820102Y-409500D01*
X790786Y-415330D01*
X757543Y-437542D01*
X735330Y-470788D01*
X729500Y-500099D01*
X729500Y-1719897D01*
X100000Y-1719897D01*
X100000Y-149000D01*
X114352Y-114352D01*
X149000Y-100000D01*
X14851000Y-100000D01*
X14885648Y-114352D01*
G37*
%TD.AperFunction*%
%TD*%
M02*
