%TF.GenerationSoftware,KiCad,Pcbnew,7.0.2-6a45011f42~172~ubuntu22.04.1*%
%TF.CreationDate,2023-05-25T09:16:40+08:00*%
%TF.ProjectId,fly2040_ds,666c7932-3034-4305-9f64-732e6b696361,rev?*%
%TF.SameCoordinates,PX45b1cc0PY2f4fd10*%
%TF.FileFunction,Paste,Bot*%
%TF.FilePolarity,Positive*%
%FSLAX46Y46*%
G04 Gerber Fmt 4.6, Leading zero omitted, Abs format (unit mm)*
G04 Created by KiCad (PCBNEW 7.0.2-6a45011f42~172~ubuntu22.04.1) date 2023-05-25 09:16:40*
%MOMM*%
%LPD*%
G01*
G04 APERTURE LIST*
G04 Aperture macros list*
%AMRoundRect*
0 Rectangle with rounded corners*
0 $1 Rounding radius*
0 $2 $3 $4 $5 $6 $7 $8 $9 X,Y pos of 4 corners*
0 Add a 4 corners polygon primitive as box body*
4,1,4,$2,$3,$4,$5,$6,$7,$8,$9,$2,$3,0*
0 Add four circle primitives for the rounded corners*
1,1,$1+$1,$2,$3*
1,1,$1+$1,$4,$5*
1,1,$1+$1,$6,$7*
1,1,$1+$1,$8,$9*
0 Add four rect primitives between the rounded corners*
20,1,$1+$1,$2,$3,$4,$5,0*
20,1,$1+$1,$4,$5,$6,$7,0*
20,1,$1+$1,$6,$7,$8,$9,0*
20,1,$1+$1,$8,$9,$2,$3,0*%
G04 Aperture macros list end*
%ADD10RoundRect,0.135000X-0.185000X0.135000X-0.185000X-0.135000X0.185000X-0.135000X0.185000X0.135000X0*%
%ADD11RoundRect,0.135000X0.185000X-0.135000X0.185000X0.135000X-0.185000X0.135000X-0.185000X-0.135000X0*%
%ADD12RoundRect,0.140000X0.170000X-0.140000X0.170000X0.140000X-0.170000X0.140000X-0.170000X-0.140000X0*%
%ADD13RoundRect,0.140000X-0.170000X0.140000X-0.170000X-0.140000X0.170000X-0.140000X0.170000X0.140000X0*%
%ADD14RoundRect,0.140000X-0.140000X-0.170000X0.140000X-0.170000X0.140000X0.170000X-0.140000X0.170000X0*%
%ADD15RoundRect,0.140000X0.140000X0.170000X-0.140000X0.170000X-0.140000X-0.170000X0.140000X-0.170000X0*%
%ADD16R,0.280000X0.600000*%
%ADD17R,1.700000X0.300000*%
%ADD18R,1.000000X1.524000*%
%ADD19R,0.450000X0.450000*%
G04 APERTURE END LIST*
D10*
%TO.C,R11*%
X11810000Y-8900000D03*
X11810000Y-9920000D03*
%TD*%
%TO.C,R10*%
X10680000Y-8900000D03*
X10680000Y-9920000D03*
%TD*%
%TO.C,R9*%
X9570000Y-8900000D03*
X9570000Y-9920000D03*
%TD*%
%TO.C,R8*%
X8440000Y-8900000D03*
X8440000Y-9920000D03*
%TD*%
%TO.C,R6*%
X8115000Y-1455000D03*
X8115000Y-2475000D03*
%TD*%
%TO.C,R5*%
X7090000Y-1455000D03*
X7090000Y-2475000D03*
%TD*%
D11*
%TO.C,R2*%
X6680000Y-9930000D03*
X6680000Y-8910000D03*
%TD*%
D12*
%TO.C,C14*%
X7840000Y-5810000D03*
X7840000Y-4850000D03*
%TD*%
D13*
%TO.C,C13*%
X5570000Y-3130000D03*
X5570000Y-4090000D03*
%TD*%
D14*
%TO.C,C12*%
X9830000Y-1680000D03*
X10790000Y-1680000D03*
%TD*%
D13*
%TO.C,C11*%
X12840000Y-1630000D03*
X12840000Y-2590000D03*
%TD*%
D12*
%TO.C,C10*%
X12840000Y-4525000D03*
X12840000Y-3565000D03*
%TD*%
D13*
%TO.C,C9*%
X11810000Y-1640000D03*
X11810000Y-2600000D03*
%TD*%
D12*
%TO.C,C8*%
X12840000Y-8395000D03*
X12840000Y-7435000D03*
%TD*%
%TO.C,C7*%
X5570000Y-6085000D03*
X5570000Y-5125000D03*
%TD*%
D15*
%TO.C,C6*%
X14360000Y-9910000D03*
X13400000Y-9910000D03*
%TD*%
D12*
%TO.C,C5*%
X12840000Y-6460000D03*
X12840000Y-5500000D03*
%TD*%
D13*
%TO.C,C4*%
X5570000Y-7120000D03*
X5570000Y-8080000D03*
%TD*%
D15*
%TO.C,C2*%
X9380000Y-6880000D03*
X8420000Y-6880000D03*
%TD*%
D16*
%TO.C,U2*%
X9040000Y-2861000D03*
X9540000Y-2861000D03*
X10040000Y-2861000D03*
X10540000Y-2861000D03*
X10540000Y-5875000D03*
X10040000Y-5875000D03*
X9540000Y-5875000D03*
X9040000Y-5875000D03*
D17*
X9790000Y-4368000D03*
%TD*%
D18*
%TO.C,SW1*%
X5970000Y-1455000D03*
X2770000Y-1455000D03*
%TD*%
D19*
%TO.C,U5*%
X2755000Y-9345000D03*
X2755000Y-8495000D03*
X1905000Y-9345000D03*
X1905000Y-8495000D03*
%TD*%
M02*
