%TF.GenerationSoftware,KiCad,Pcbnew,7.0.2-6a45011f42~172~ubuntu22.04.1*%
%TF.CreationDate,2023-05-25T09:16:40+08:00*%
%TF.ProjectId,fly2040_ds,666c7932-3034-4305-9f64-732e6b696361,rev?*%
%TF.SameCoordinates,PX45b1cc0PY2f4fd10*%
%TF.FileFunction,Paste,Top*%
%TF.FilePolarity,Positive*%
%FSLAX46Y46*%
G04 Gerber Fmt 4.6, Leading zero omitted, Abs format (unit mm)*
G04 Created by KiCad (PCBNEW 7.0.2-6a45011f42~172~ubuntu22.04.1) date 2023-05-25 09:16:40*
%MOMM*%
%LPD*%
G01*
G04 APERTURE LIST*
G04 Aperture macros list*
%AMRoundRect*
0 Rectangle with rounded corners*
0 $1 Rounding radius*
0 $2 $3 $4 $5 $6 $7 $8 $9 X,Y pos of 4 corners*
0 Add a 4 corners polygon primitive as box body*
4,1,4,$2,$3,$4,$5,$6,$7,$8,$9,$2,$3,0*
0 Add four circle primitives for the rounded corners*
1,1,$1+$1,$2,$3*
1,1,$1+$1,$4,$5*
1,1,$1+$1,$6,$7*
1,1,$1+$1,$8,$9*
0 Add four rect primitives between the rounded corners*
20,1,$1+$1,$2,$3,$4,$5,0*
20,1,$1+$1,$4,$5,$6,$7,0*
20,1,$1+$1,$6,$7,$8,$9,0*
20,1,$1+$1,$8,$9,$2,$3,0*%
G04 Aperture macros list end*
%ADD10C,0.120000*%
%ADD11RoundRect,0.135000X-0.135000X-0.185000X0.135000X-0.185000X0.135000X0.185000X-0.135000X0.185000X0*%
%ADD12RoundRect,0.135000X0.185000X-0.135000X0.185000X0.135000X-0.185000X0.135000X-0.185000X-0.135000X0*%
%ADD13RoundRect,0.140000X-0.140000X-0.170000X0.140000X-0.170000X0.140000X0.170000X-0.140000X0.170000X0*%
%ADD14R,0.200000X1.100000*%
%ADD15R,1.100000X0.200000*%
%ADD16R,3.100000X3.100000*%
%ADD17R,1.200000X1.400000*%
G04 APERTURE END LIST*
%TO.C,U1*%
D10*
X11905000Y-2705000D02*
X11705000Y-2705000D01*
X11705000Y-1605000D01*
X11905000Y-1605000D01*
X11905000Y-2705000D01*
G36*
X11905000Y-2705000D02*
G01*
X11705000Y-2705000D01*
X11705000Y-1605000D01*
X11905000Y-1605000D01*
X11905000Y-2705000D01*
G37*
X11505000Y-2705000D02*
X11305000Y-2705000D01*
X11305000Y-1605000D01*
X11505000Y-1605000D01*
X11505000Y-2705000D01*
G36*
X11505000Y-2705000D02*
G01*
X11305000Y-2705000D01*
X11305000Y-1605000D01*
X11505000Y-1605000D01*
X11505000Y-2705000D01*
G37*
X11105000Y-2705000D02*
X10905000Y-2705000D01*
X10905000Y-1605000D01*
X11105000Y-1605000D01*
X11105000Y-2705000D01*
G36*
X11105000Y-2705000D02*
G01*
X10905000Y-2705000D01*
X10905000Y-1605000D01*
X11105000Y-1605000D01*
X11105000Y-2705000D01*
G37*
X10705000Y-2705000D02*
X10505000Y-2705000D01*
X10505000Y-1605000D01*
X10705000Y-1605000D01*
X10705000Y-2705000D01*
G36*
X10705000Y-2705000D02*
G01*
X10505000Y-2705000D01*
X10505000Y-1605000D01*
X10705000Y-1605000D01*
X10705000Y-2705000D01*
G37*
X10305000Y-2705000D02*
X10105000Y-2705000D01*
X10105000Y-1605000D01*
X10305000Y-1605000D01*
X10305000Y-2705000D01*
G36*
X10305000Y-2705000D02*
G01*
X10105000Y-2705000D01*
X10105000Y-1605000D01*
X10305000Y-1605000D01*
X10305000Y-2705000D01*
G37*
X9905000Y-2705000D02*
X9705000Y-2705000D01*
X9705000Y-1605000D01*
X9905000Y-1605000D01*
X9905000Y-2705000D01*
G36*
X9905000Y-2705000D02*
G01*
X9705000Y-2705000D01*
X9705000Y-1605000D01*
X9905000Y-1605000D01*
X9905000Y-2705000D01*
G37*
X9505000Y-2705000D02*
X9305000Y-2705000D01*
X9305000Y-1605000D01*
X9505000Y-1605000D01*
X9505000Y-2705000D01*
G36*
X9505000Y-2705000D02*
G01*
X9305000Y-2705000D01*
X9305000Y-1605000D01*
X9505000Y-1605000D01*
X9505000Y-2705000D01*
G37*
X8705000Y-2705000D02*
X8505000Y-2705000D01*
X8505000Y-1605000D01*
X8705000Y-1605000D01*
X8705000Y-2705000D01*
G36*
X8705000Y-2705000D02*
G01*
X8505000Y-2705000D01*
X8505000Y-1605000D01*
X8705000Y-1605000D01*
X8705000Y-2705000D01*
G37*
X8305000Y-2705000D02*
X8105000Y-2705000D01*
X8105000Y-1605000D01*
X8305000Y-1605000D01*
X8305000Y-2705000D01*
G36*
X8305000Y-2705000D02*
G01*
X8105000Y-2705000D01*
X8105000Y-1605000D01*
X8305000Y-1605000D01*
X8305000Y-2705000D01*
G37*
X7905000Y-2705000D02*
X7705000Y-2705000D01*
X7705000Y-1605000D01*
X7905000Y-1605000D01*
X7905000Y-2705000D01*
G36*
X7905000Y-2705000D02*
G01*
X7705000Y-2705000D01*
X7705000Y-1605000D01*
X7905000Y-1605000D01*
X7905000Y-2705000D01*
G37*
X7505000Y-2705000D02*
X7305000Y-2705000D01*
X7305000Y-1605000D01*
X7505000Y-1605000D01*
X7505000Y-2705000D01*
G36*
X7505000Y-2705000D02*
G01*
X7305000Y-2705000D01*
X7305000Y-1605000D01*
X7505000Y-1605000D01*
X7505000Y-2705000D01*
G37*
X7105000Y-2705000D02*
X6905000Y-2705000D01*
X6905000Y-1605000D01*
X7105000Y-1605000D01*
X7105000Y-2705000D01*
G36*
X7105000Y-2705000D02*
G01*
X6905000Y-2705000D01*
X6905000Y-1605000D01*
X7105000Y-1605000D01*
X7105000Y-2705000D01*
G37*
X6705000Y-2705000D02*
X6505000Y-2705000D01*
X6505000Y-1605000D01*
X6705000Y-1605000D01*
X6705000Y-2705000D01*
G36*
X6705000Y-2705000D02*
G01*
X6505000Y-2705000D01*
X6505000Y-1605000D01*
X6705000Y-1605000D01*
X6705000Y-2705000D01*
G37*
X9105000Y-2705000D02*
X8905000Y-2705000D01*
X8905000Y-1605000D01*
X9105000Y-1605000D01*
X9105000Y-2705000D01*
G36*
X9105000Y-2705000D02*
G01*
X8905000Y-2705000D01*
X8905000Y-1605000D01*
X9105000Y-1605000D01*
X9105000Y-2705000D01*
G37*
X13305000Y-3205000D02*
X12205000Y-3205000D01*
X12205000Y-3005000D01*
X13305000Y-3005000D01*
X13305000Y-3205000D01*
G36*
X13305000Y-3205000D02*
G01*
X12205000Y-3205000D01*
X12205000Y-3005000D01*
X13305000Y-3005000D01*
X13305000Y-3205000D01*
G37*
X6205000Y-3205000D02*
X5105000Y-3205000D01*
X5105000Y-3005000D01*
X6205000Y-3005000D01*
X6205000Y-3205000D01*
G36*
X6205000Y-3205000D02*
G01*
X5105000Y-3205000D01*
X5105000Y-3005000D01*
X6205000Y-3005000D01*
X6205000Y-3205000D01*
G37*
X13305000Y-3605000D02*
X12205000Y-3605000D01*
X12205000Y-3405000D01*
X13305000Y-3405000D01*
X13305000Y-3605000D01*
G36*
X13305000Y-3605000D02*
G01*
X12205000Y-3605000D01*
X12205000Y-3405000D01*
X13305000Y-3405000D01*
X13305000Y-3605000D01*
G37*
X6205000Y-3605000D02*
X5105000Y-3605000D01*
X5105000Y-3405000D01*
X6205000Y-3405000D01*
X6205000Y-3605000D01*
G36*
X6205000Y-3605000D02*
G01*
X5105000Y-3605000D01*
X5105000Y-3405000D01*
X6205000Y-3405000D01*
X6205000Y-3605000D01*
G37*
X6205000Y-4005000D02*
X5105000Y-4005000D01*
X5105000Y-3805000D01*
X6205000Y-3805000D01*
X6205000Y-4005000D01*
G36*
X6205000Y-4005000D02*
G01*
X5105000Y-4005000D01*
X5105000Y-3805000D01*
X6205000Y-3805000D01*
X6205000Y-4005000D01*
G37*
X13305000Y-4005000D02*
X12205000Y-4005000D01*
X12205000Y-3805000D01*
X13305000Y-3805000D01*
X13305000Y-4005000D01*
G36*
X13305000Y-4005000D02*
G01*
X12205000Y-4005000D01*
X12205000Y-3805000D01*
X13305000Y-3805000D01*
X13305000Y-4005000D01*
G37*
X6205000Y-4405000D02*
X5105000Y-4405000D01*
X5105000Y-4205000D01*
X6205000Y-4205000D01*
X6205000Y-4405000D01*
G36*
X6205000Y-4405000D02*
G01*
X5105000Y-4405000D01*
X5105000Y-4205000D01*
X6205000Y-4205000D01*
X6205000Y-4405000D01*
G37*
X13305000Y-4405000D02*
X12205000Y-4405000D01*
X12205000Y-4205000D01*
X13305000Y-4205000D01*
X13305000Y-4405000D01*
G36*
X13305000Y-4405000D02*
G01*
X12205000Y-4405000D01*
X12205000Y-4205000D01*
X13305000Y-4205000D01*
X13305000Y-4405000D01*
G37*
X10445000Y-6945000D02*
X7965000Y-6945000D01*
X7965000Y-4465000D01*
X10445000Y-4465000D01*
X10445000Y-6945000D01*
G36*
X10445000Y-6945000D02*
G01*
X7965000Y-6945000D01*
X7965000Y-4465000D01*
X10445000Y-4465000D01*
X10445000Y-6945000D01*
G37*
X13305000Y-4805000D02*
X12205000Y-4805000D01*
X12205000Y-4605000D01*
X13305000Y-4605000D01*
X13305000Y-4805000D01*
G36*
X13305000Y-4805000D02*
G01*
X12205000Y-4805000D01*
X12205000Y-4605000D01*
X13305000Y-4605000D01*
X13305000Y-4805000D01*
G37*
X6205000Y-4805000D02*
X5105000Y-4805000D01*
X5105000Y-4605000D01*
X6205000Y-4605000D01*
X6205000Y-4805000D01*
G36*
X6205000Y-4805000D02*
G01*
X5105000Y-4805000D01*
X5105000Y-4605000D01*
X6205000Y-4605000D01*
X6205000Y-4805000D01*
G37*
X6205000Y-5205000D02*
X5105000Y-5205000D01*
X5105000Y-5005000D01*
X6205000Y-5005000D01*
X6205000Y-5205000D01*
G36*
X6205000Y-5205000D02*
G01*
X5105000Y-5205000D01*
X5105000Y-5005000D01*
X6205000Y-5005000D01*
X6205000Y-5205000D01*
G37*
X13305000Y-5205000D02*
X12205000Y-5205000D01*
X12205000Y-5005000D01*
X13305000Y-5005000D01*
X13305000Y-5205000D01*
G36*
X13305000Y-5205000D02*
G01*
X12205000Y-5205000D01*
X12205000Y-5005000D01*
X13305000Y-5005000D01*
X13305000Y-5205000D01*
G37*
X6205000Y-5605000D02*
X5105000Y-5605000D01*
X5105000Y-5405000D01*
X6205000Y-5405000D01*
X6205000Y-5605000D01*
G36*
X6205000Y-5605000D02*
G01*
X5105000Y-5605000D01*
X5105000Y-5405000D01*
X6205000Y-5405000D01*
X6205000Y-5605000D01*
G37*
X13305000Y-5605000D02*
X12205000Y-5605000D01*
X12205000Y-5405000D01*
X13305000Y-5405000D01*
X13305000Y-5605000D01*
G36*
X13305000Y-5605000D02*
G01*
X12205000Y-5605000D01*
X12205000Y-5405000D01*
X13305000Y-5405000D01*
X13305000Y-5605000D01*
G37*
X13305000Y-6005000D02*
X12205000Y-6005000D01*
X12205000Y-5805000D01*
X13305000Y-5805000D01*
X13305000Y-6005000D01*
G36*
X13305000Y-6005000D02*
G01*
X12205000Y-6005000D01*
X12205000Y-5805000D01*
X13305000Y-5805000D01*
X13305000Y-6005000D01*
G37*
X6205000Y-6005000D02*
X5105000Y-6005000D01*
X5105000Y-5805000D01*
X6205000Y-5805000D01*
X6205000Y-6005000D01*
G36*
X6205000Y-6005000D02*
G01*
X5105000Y-6005000D01*
X5105000Y-5805000D01*
X6205000Y-5805000D01*
X6205000Y-6005000D01*
G37*
X13305000Y-6405000D02*
X12205000Y-6405000D01*
X12205000Y-6205000D01*
X13305000Y-6205000D01*
X13305000Y-6405000D01*
G36*
X13305000Y-6405000D02*
G01*
X12205000Y-6405000D01*
X12205000Y-6205000D01*
X13305000Y-6205000D01*
X13305000Y-6405000D01*
G37*
X6205000Y-6405000D02*
X5105000Y-6405000D01*
X5105000Y-6205000D01*
X6205000Y-6205000D01*
X6205000Y-6405000D01*
G36*
X6205000Y-6405000D02*
G01*
X5105000Y-6405000D01*
X5105000Y-6205000D01*
X6205000Y-6205000D01*
X6205000Y-6405000D01*
G37*
X6205000Y-6805000D02*
X5105000Y-6805000D01*
X5105000Y-6605000D01*
X6205000Y-6605000D01*
X6205000Y-6805000D01*
G36*
X6205000Y-6805000D02*
G01*
X5105000Y-6805000D01*
X5105000Y-6605000D01*
X6205000Y-6605000D01*
X6205000Y-6805000D01*
G37*
X13305000Y-6805000D02*
X12205000Y-6805000D01*
X12205000Y-6605000D01*
X13305000Y-6605000D01*
X13305000Y-6805000D01*
G36*
X13305000Y-6805000D02*
G01*
X12205000Y-6805000D01*
X12205000Y-6605000D01*
X13305000Y-6605000D01*
X13305000Y-6805000D01*
G37*
X6205000Y-7205000D02*
X5105000Y-7205000D01*
X5105000Y-7005000D01*
X6205000Y-7005000D01*
X6205000Y-7205000D01*
G36*
X6205000Y-7205000D02*
G01*
X5105000Y-7205000D01*
X5105000Y-7005000D01*
X6205000Y-7005000D01*
X6205000Y-7205000D01*
G37*
X13305000Y-7205000D02*
X12205000Y-7205000D01*
X12205000Y-7005000D01*
X13305000Y-7005000D01*
X13305000Y-7205000D01*
G36*
X13305000Y-7205000D02*
G01*
X12205000Y-7205000D01*
X12205000Y-7005000D01*
X13305000Y-7005000D01*
X13305000Y-7205000D01*
G37*
X6205000Y-7605000D02*
X5105000Y-7605000D01*
X5105000Y-7405000D01*
X6205000Y-7405000D01*
X6205000Y-7605000D01*
G36*
X6205000Y-7605000D02*
G01*
X5105000Y-7605000D01*
X5105000Y-7405000D01*
X6205000Y-7405000D01*
X6205000Y-7605000D01*
G37*
X13305000Y-7605000D02*
X12205000Y-7605000D01*
X12205000Y-7405000D01*
X13305000Y-7405000D01*
X13305000Y-7605000D01*
G36*
X13305000Y-7605000D02*
G01*
X12205000Y-7605000D01*
X12205000Y-7405000D01*
X13305000Y-7405000D01*
X13305000Y-7605000D01*
G37*
X13305000Y-8005000D02*
X12205000Y-8005000D01*
X12205000Y-7805000D01*
X13305000Y-7805000D01*
X13305000Y-8005000D01*
G36*
X13305000Y-8005000D02*
G01*
X12205000Y-8005000D01*
X12205000Y-7805000D01*
X13305000Y-7805000D01*
X13305000Y-8005000D01*
G37*
X6205000Y-8005000D02*
X5105000Y-8005000D01*
X5105000Y-7805000D01*
X6205000Y-7805000D01*
X6205000Y-8005000D01*
G36*
X6205000Y-8005000D02*
G01*
X5105000Y-8005000D01*
X5105000Y-7805000D01*
X6205000Y-7805000D01*
X6205000Y-8005000D01*
G37*
X13305000Y-8405000D02*
X12205000Y-8405000D01*
X12205000Y-8205000D01*
X13305000Y-8205000D01*
X13305000Y-8405000D01*
G36*
X13305000Y-8405000D02*
G01*
X12205000Y-8405000D01*
X12205000Y-8205000D01*
X13305000Y-8205000D01*
X13305000Y-8405000D01*
G37*
X6205000Y-8405000D02*
X5105000Y-8405000D01*
X5105000Y-8205000D01*
X6205000Y-8205000D01*
X6205000Y-8405000D01*
G36*
X6205000Y-8405000D02*
G01*
X5105000Y-8405000D01*
X5105000Y-8205000D01*
X6205000Y-8205000D01*
X6205000Y-8405000D01*
G37*
X9505000Y-9805000D02*
X9305000Y-9805000D01*
X9305000Y-8705000D01*
X9505000Y-8705000D01*
X9505000Y-9805000D01*
G36*
X9505000Y-9805000D02*
G01*
X9305000Y-9805000D01*
X9305000Y-8705000D01*
X9505000Y-8705000D01*
X9505000Y-9805000D01*
G37*
X6705000Y-9805000D02*
X6505000Y-9805000D01*
X6505000Y-8705000D01*
X6705000Y-8705000D01*
X6705000Y-9805000D01*
G36*
X6705000Y-9805000D02*
G01*
X6505000Y-9805000D01*
X6505000Y-8705000D01*
X6705000Y-8705000D01*
X6705000Y-9805000D01*
G37*
X11905000Y-9805000D02*
X11705000Y-9805000D01*
X11705000Y-8705000D01*
X11905000Y-8705000D01*
X11905000Y-9805000D01*
G36*
X11905000Y-9805000D02*
G01*
X11705000Y-9805000D01*
X11705000Y-8705000D01*
X11905000Y-8705000D01*
X11905000Y-9805000D01*
G37*
X11505000Y-9805000D02*
X11305000Y-9805000D01*
X11305000Y-8705000D01*
X11505000Y-8705000D01*
X11505000Y-9805000D01*
G36*
X11505000Y-9805000D02*
G01*
X11305000Y-9805000D01*
X11305000Y-8705000D01*
X11505000Y-8705000D01*
X11505000Y-9805000D01*
G37*
X11105000Y-9805000D02*
X10905000Y-9805000D01*
X10905000Y-8705000D01*
X11105000Y-8705000D01*
X11105000Y-9805000D01*
G36*
X11105000Y-9805000D02*
G01*
X10905000Y-9805000D01*
X10905000Y-8705000D01*
X11105000Y-8705000D01*
X11105000Y-9805000D01*
G37*
X10705000Y-9805000D02*
X10505000Y-9805000D01*
X10505000Y-8705000D01*
X10705000Y-8705000D01*
X10705000Y-9805000D01*
G36*
X10705000Y-9805000D02*
G01*
X10505000Y-9805000D01*
X10505000Y-8705000D01*
X10705000Y-8705000D01*
X10705000Y-9805000D01*
G37*
X10305000Y-9805000D02*
X10105000Y-9805000D01*
X10105000Y-8705000D01*
X10305000Y-8705000D01*
X10305000Y-9805000D01*
G36*
X10305000Y-9805000D02*
G01*
X10105000Y-9805000D01*
X10105000Y-8705000D01*
X10305000Y-8705000D01*
X10305000Y-9805000D01*
G37*
X9905000Y-9805000D02*
X9705000Y-9805000D01*
X9705000Y-8705000D01*
X9905000Y-8705000D01*
X9905000Y-9805000D01*
G36*
X9905000Y-9805000D02*
G01*
X9705000Y-9805000D01*
X9705000Y-8705000D01*
X9905000Y-8705000D01*
X9905000Y-9805000D01*
G37*
X9105000Y-9805000D02*
X8905000Y-9805000D01*
X8905000Y-8705000D01*
X9105000Y-8705000D01*
X9105000Y-9805000D01*
G36*
X9105000Y-9805000D02*
G01*
X8905000Y-9805000D01*
X8905000Y-8705000D01*
X9105000Y-8705000D01*
X9105000Y-9805000D01*
G37*
X8705000Y-9805000D02*
X8505000Y-9805000D01*
X8505000Y-8705000D01*
X8705000Y-8705000D01*
X8705000Y-9805000D01*
G36*
X8705000Y-9805000D02*
G01*
X8505000Y-9805000D01*
X8505000Y-8705000D01*
X8705000Y-8705000D01*
X8705000Y-9805000D01*
G37*
X8305000Y-9805000D02*
X8105000Y-9805000D01*
X8105000Y-8705000D01*
X8305000Y-8705000D01*
X8305000Y-9805000D01*
G36*
X8305000Y-9805000D02*
G01*
X8105000Y-9805000D01*
X8105000Y-8705000D01*
X8305000Y-8705000D01*
X8305000Y-9805000D01*
G37*
X7905000Y-9805000D02*
X7705000Y-9805000D01*
X7705000Y-8705000D01*
X7905000Y-8705000D01*
X7905000Y-9805000D01*
G36*
X7905000Y-9805000D02*
G01*
X7705000Y-9805000D01*
X7705000Y-8705000D01*
X7905000Y-8705000D01*
X7905000Y-9805000D01*
G37*
X7505000Y-9805000D02*
X7305000Y-9805000D01*
X7305000Y-8705000D01*
X7505000Y-8705000D01*
X7505000Y-9805000D01*
G36*
X7505000Y-9805000D02*
G01*
X7305000Y-9805000D01*
X7305000Y-8705000D01*
X7505000Y-8705000D01*
X7505000Y-9805000D01*
G37*
X7105000Y-9805000D02*
X6905000Y-9805000D01*
X6905000Y-8705000D01*
X7105000Y-8705000D01*
X7105000Y-9805000D01*
G36*
X7105000Y-9805000D02*
G01*
X6905000Y-9805000D01*
X6905000Y-8705000D01*
X7105000Y-8705000D01*
X7105000Y-9805000D01*
G37*
%TD*%
D11*
%TO.C,R12*%
X5940000Y-970000D03*
X6960000Y-970000D03*
%TD*%
D12*
%TO.C,R1*%
X4500000Y-6800000D03*
X4500000Y-5780000D03*
%TD*%
D13*
%TO.C,C3*%
X1850000Y-2850000D03*
X2810000Y-2850000D03*
%TD*%
%TO.C,C1*%
X1830000Y-7920000D03*
X2790000Y-7920000D03*
%TD*%
D14*
%TO.C,U1*%
X11805000Y-2155000D03*
X11405000Y-2155000D03*
X11005000Y-2155000D03*
X10605000Y-2155000D03*
X10205000Y-2155000D03*
X9805000Y-2155000D03*
X9405000Y-2155000D03*
X9005000Y-2155000D03*
X8605000Y-2155000D03*
X8205000Y-2155000D03*
X7805000Y-2155000D03*
X7405000Y-2155000D03*
X7005000Y-2155000D03*
X6605000Y-2155000D03*
D15*
X5655000Y-3105000D03*
X5655000Y-3505000D03*
X5655000Y-3905000D03*
X5655000Y-4305000D03*
X5655000Y-4705000D03*
X5655000Y-5105000D03*
X5655000Y-5505000D03*
X5655000Y-5905000D03*
X5655000Y-6305000D03*
X5655000Y-6705000D03*
X5655000Y-7105000D03*
X5655000Y-7505000D03*
X5655000Y-7905000D03*
X5655000Y-8305000D03*
D14*
X6605000Y-9255000D03*
X7005000Y-9255000D03*
X7405000Y-9255000D03*
X7805000Y-9255000D03*
X8205000Y-9255000D03*
X8605000Y-9255000D03*
X9005000Y-9255000D03*
X9405000Y-9255000D03*
X9805000Y-9255000D03*
X10205000Y-9255000D03*
X10605000Y-9255000D03*
X11005000Y-9255000D03*
X11405000Y-9255000D03*
X11805000Y-9255000D03*
D15*
X12755000Y-8305000D03*
X12755000Y-7905000D03*
X12755000Y-7505000D03*
X12755000Y-7105000D03*
X12755000Y-6705000D03*
X12755000Y-6305000D03*
X12755000Y-5905000D03*
X12755000Y-5505000D03*
X12755000Y-5105000D03*
X12755000Y-4705000D03*
X12755000Y-4305000D03*
X12755000Y-3905000D03*
X12755000Y-3505000D03*
X12755000Y-3105000D03*
D16*
X9205000Y-5705000D03*
%TD*%
D17*
%TO.C,X1*%
X3172000Y-6483000D03*
X3172000Y-4283000D03*
X1422000Y-4283000D03*
X1422000Y-6483000D03*
%TD*%
M02*
