%TF.GenerationSoftware,KiCad,Pcbnew,7.0.2-6a45011f42~172~ubuntu22.04.1*%
%TF.CreationDate,2023-05-25T09:16:40+08:00*%
%TF.ProjectId,fly2040_ds,666c7932-3034-4305-9f64-732e6b696361,rev?*%
%TF.SameCoordinates,PX45b1cc0PY2f4fd10*%
%TF.FileFunction,Legend,Bot*%
%TF.FilePolarity,Positive*%
%FSLAX46Y46*%
G04 Gerber Fmt 4.6, Leading zero omitted, Abs format (unit mm)*
G04 Created by KiCad (PCBNEW 7.0.2-6a45011f42~172~ubuntu22.04.1) date 2023-05-25 09:16:40*
%MOMM*%
%LPD*%
G01*
G04 APERTURE LIST*
G04 Aperture macros list*
%AMRoundRect*
0 Rectangle with rounded corners*
0 $1 Rounding radius*
0 $2 $3 $4 $5 $6 $7 $8 $9 X,Y pos of 4 corners*
0 Add a 4 corners polygon primitive as box body*
4,1,4,$2,$3,$4,$5,$6,$7,$8,$9,$2,$3,0*
0 Add four circle primitives for the rounded corners*
1,1,$1+$1,$2,$3*
1,1,$1+$1,$4,$5*
1,1,$1+$1,$6,$7*
1,1,$1+$1,$8,$9*
0 Add four rect primitives between the rounded corners*
20,1,$1+$1,$2,$3,$4,$5,0*
20,1,$1+$1,$4,$5,$6,$7,0*
20,1,$1+$1,$6,$7,$8,$9,0*
20,1,$1+$1,$8,$9,$2,$3,0*%
G04 Aperture macros list end*
%ADD10C,0.120000*%
%ADD11C,0.152000*%
%ADD12C,0.200000*%
%ADD13C,0.254000*%
%ADD14C,0.100000*%
%ADD15RoundRect,0.135000X-0.185000X0.135000X-0.185000X-0.135000X0.185000X-0.135000X0.185000X0.135000X0*%
%ADD16RoundRect,0.135000X0.185000X-0.135000X0.185000X0.135000X-0.185000X0.135000X-0.185000X-0.135000X0*%
%ADD17RoundRect,0.140000X0.170000X-0.140000X0.170000X0.140000X-0.170000X0.140000X-0.170000X-0.140000X0*%
%ADD18RoundRect,0.140000X-0.170000X0.140000X-0.170000X-0.140000X0.170000X-0.140000X0.170000X0.140000X0*%
%ADD19RoundRect,0.140000X-0.140000X-0.170000X0.140000X-0.170000X0.140000X0.170000X-0.140000X0.170000X0*%
%ADD20RoundRect,0.140000X0.140000X0.170000X-0.140000X0.170000X-0.140000X-0.170000X0.140000X-0.170000X0*%
%ADD21R,1.200000X1.200000*%
%ADD22R,0.280000X0.600000*%
%ADD23R,1.700000X0.300000*%
%ADD24O,1.000000X1.000000*%
%ADD25R,1.000000X1.524000*%
%ADD26R,0.450000X0.450000*%
G04 APERTURE END LIST*
D10*
%TO.C,R11*%
X11430000Y-9256359D02*
X11430000Y-9563641D01*
X12190000Y-9256359D02*
X12190000Y-9563641D01*
%TO.C,R10*%
X10300000Y-9256359D02*
X10300000Y-9563641D01*
X11060000Y-9256359D02*
X11060000Y-9563641D01*
%TO.C,R9*%
X9190000Y-9256359D02*
X9190000Y-9563641D01*
X9950000Y-9256359D02*
X9950000Y-9563641D01*
%TO.C,R8*%
X8060000Y-9256359D02*
X8060000Y-9563641D01*
X8820000Y-9256359D02*
X8820000Y-9563641D01*
%TO.C,R6*%
X7735000Y-1811359D02*
X7735000Y-2118641D01*
X8495000Y-1811359D02*
X8495000Y-2118641D01*
%TO.C,R5*%
X6710000Y-1811359D02*
X6710000Y-2118641D01*
X7470000Y-1811359D02*
X7470000Y-2118641D01*
%TO.C,R2*%
X7060000Y-9573641D02*
X7060000Y-9266359D01*
X6300000Y-9573641D02*
X6300000Y-9266359D01*
%TO.C,C14*%
X7480000Y-5437836D02*
X7480000Y-5222164D01*
X8200000Y-5437836D02*
X8200000Y-5222164D01*
%TO.C,C13*%
X5930000Y-3502164D02*
X5930000Y-3717836D01*
X5210000Y-3502164D02*
X5210000Y-3717836D01*
%TO.C,C12*%
X10202164Y-1320000D02*
X10417836Y-1320000D01*
X10202164Y-2040000D02*
X10417836Y-2040000D01*
%TO.C,C11*%
X13200000Y-2002164D02*
X13200000Y-2217836D01*
X12480000Y-2002164D02*
X12480000Y-2217836D01*
%TO.C,C10*%
X12480000Y-4152836D02*
X12480000Y-3937164D01*
X13200000Y-4152836D02*
X13200000Y-3937164D01*
%TO.C,C9*%
X12170000Y-2012164D02*
X12170000Y-2227836D01*
X11450000Y-2012164D02*
X11450000Y-2227836D01*
%TO.C,C8*%
X12480000Y-8022836D02*
X12480000Y-7807164D01*
X13200000Y-8022836D02*
X13200000Y-7807164D01*
%TO.C,C7*%
X5210000Y-5712836D02*
X5210000Y-5497164D01*
X5930000Y-5712836D02*
X5930000Y-5497164D01*
%TO.C,C6*%
X13987836Y-10270000D02*
X13772164Y-10270000D01*
X13987836Y-9550000D02*
X13772164Y-9550000D01*
%TO.C,C5*%
X12480000Y-6087836D02*
X12480000Y-5872164D01*
X13200000Y-6087836D02*
X13200000Y-5872164D01*
%TO.C,C4*%
X5930000Y-7492164D02*
X5930000Y-7707836D01*
X5210000Y-7492164D02*
X5210000Y-7707836D01*
%TO.C,C2*%
X9007836Y-7240000D02*
X8792164Y-7240000D01*
X9007836Y-6520000D02*
X8792164Y-6520000D01*
D11*
%TO.C,U2*%
X8714000Y-5944000D02*
X8714000Y-2792000D01*
X10866000Y-2792000D02*
X10866000Y-5944000D01*
D12*
X9128000Y-2336000D02*
G75*
G03*
X9128000Y-2336000I-100000J0D01*
G01*
D13*
%TO.C,SW1*%
X5894000Y-439000D02*
X2846000Y-439000D01*
X5894000Y-2471000D02*
X2846000Y-2471000D01*
X3968000Y-1857000D02*
G75*
G03*
X3861508Y-1709252I402000J402000D01*
G01*
%TO.C,U5*%
D10*
X2460000Y-8580000D02*
X2460000Y-8590000D01*
X2330000Y-8590000D01*
X2330000Y-8420000D01*
X2460000Y-8420000D01*
X2460000Y-8580000D01*
G36*
X2460000Y-8580000D02*
G01*
X2460000Y-8590000D01*
X2330000Y-8590000D01*
X2330000Y-8420000D01*
X2460000Y-8420000D01*
X2460000Y-8580000D01*
G37*
X2080000Y-10020000D02*
X1630000Y-10020000D01*
X1630000Y-9920000D01*
X2080000Y-9920000D01*
X2080000Y-10020000D01*
G36*
X2080000Y-10020000D02*
G01*
X1630000Y-10020000D01*
X1630000Y-9920000D01*
X2080000Y-9920000D01*
X2080000Y-10020000D01*
G37*
X1905000Y-10195000D02*
X1805000Y-10195000D01*
X1805000Y-9745000D01*
X1905000Y-9745000D01*
X1905000Y-10195000D01*
G36*
X1905000Y-10195000D02*
G01*
X1805000Y-10195000D01*
X1805000Y-9745000D01*
X1905000Y-9745000D01*
X1905000Y-10195000D01*
G37*
X2830000Y-8970000D02*
X2630000Y-8970000D01*
X2730000Y-8820000D01*
X2830000Y-8970000D01*
G36*
X2830000Y-8970000D02*
G01*
X2630000Y-8970000D01*
X2730000Y-8820000D01*
X2830000Y-8970000D01*
G37*
D14*
X1680000Y-7920000D02*
G75*
G03*
X1680000Y-7920000I-50000J0D01*
G01*
X3180000Y-9770000D02*
X1480000Y-9770000D01*
X1480000Y-9770000D02*
X1480000Y-8070000D01*
X3180000Y-8070000D02*
X3180000Y-9770000D01*
X1480000Y-8070000D02*
X3180000Y-8070000D01*
%TD*%
%LPC*%
D15*
%TO.C,R11*%
X11810000Y-8900000D03*
X11810000Y-9920000D03*
%TD*%
%TO.C,R10*%
X10680000Y-8900000D03*
X10680000Y-9920000D03*
%TD*%
%TO.C,R9*%
X9570000Y-8900000D03*
X9570000Y-9920000D03*
%TD*%
%TO.C,R8*%
X8440000Y-8900000D03*
X8440000Y-9920000D03*
%TD*%
%TO.C,R6*%
X8115000Y-1455000D03*
X8115000Y-2475000D03*
%TD*%
%TO.C,R5*%
X7090000Y-1455000D03*
X7090000Y-2475000D03*
%TD*%
D16*
%TO.C,R2*%
X6680000Y-9930000D03*
X6680000Y-8910000D03*
%TD*%
D17*
%TO.C,C14*%
X7840000Y-5810000D03*
X7840000Y-4850000D03*
%TD*%
D18*
%TO.C,C13*%
X5570000Y-3130000D03*
X5570000Y-4090000D03*
%TD*%
D19*
%TO.C,C12*%
X9830000Y-1680000D03*
X10790000Y-1680000D03*
%TD*%
D18*
%TO.C,C11*%
X12840000Y-1630000D03*
X12840000Y-2590000D03*
%TD*%
D17*
%TO.C,C10*%
X12840000Y-4525000D03*
X12840000Y-3565000D03*
%TD*%
D18*
%TO.C,C9*%
X11810000Y-1640000D03*
X11810000Y-2600000D03*
%TD*%
D17*
%TO.C,C8*%
X12840000Y-8395000D03*
X12840000Y-7435000D03*
%TD*%
%TO.C,C7*%
X5570000Y-6085000D03*
X5570000Y-5125000D03*
%TD*%
D20*
%TO.C,C6*%
X14360000Y-9910000D03*
X13400000Y-9910000D03*
%TD*%
D17*
%TO.C,C5*%
X12840000Y-6460000D03*
X12840000Y-5500000D03*
%TD*%
D18*
%TO.C,C4*%
X5570000Y-7120000D03*
X5570000Y-8080000D03*
%TD*%
D20*
%TO.C,C2*%
X9380000Y-6880000D03*
X8420000Y-6880000D03*
%TD*%
D21*
%TO.C,J7*%
X2177500Y-11220000D03*
%TD*%
D22*
%TO.C,U2*%
X9040000Y-2861000D03*
X9540000Y-2861000D03*
X10040000Y-2861000D03*
X10540000Y-2861000D03*
X10540000Y-5875000D03*
X10040000Y-5875000D03*
X9540000Y-5875000D03*
X9040000Y-5875000D03*
D23*
X9790000Y-4368000D03*
%TD*%
D24*
%TO.C,J8*%
X14255753Y-8601880D03*
X14255753Y-7331880D03*
X14255753Y-6061880D03*
X14255753Y-4791880D03*
X14255753Y-3521880D03*
X14255753Y-2251880D03*
%TD*%
D21*
%TO.C,J1*%
X1430000Y-1110000D03*
%TD*%
%TO.C,J4*%
X10315000Y-11220000D03*
%TD*%
%TO.C,J2*%
X7060000Y-11220000D03*
%TD*%
%TO.C,J6*%
X3810000Y-11220000D03*
%TD*%
%TO.C,J5*%
X11942500Y-11220000D03*
%TD*%
%TO.C,J9*%
X5432500Y-11220000D03*
%TD*%
%TO.C,J3*%
X8687500Y-11220000D03*
%TD*%
%TO.C,J10*%
X13570000Y-11220000D03*
%TD*%
D25*
%TO.C,SW1*%
X5970000Y-1455000D03*
X2770000Y-1455000D03*
%TD*%
D26*
%TO.C,U5*%
X2755000Y-9345000D03*
X2755000Y-8495000D03*
X1905000Y-9345000D03*
X1905000Y-8495000D03*
%TD*%
%LPD*%
M02*
