M48
; DRILL file {KiCad 7.0.2-6a45011f42~172~ubuntu22.04.1} date Mon Jun 12 10:15:53 2023
; FORMAT={-:-/ absolute / metric / decimal}
; #@! TF.CreationDate,2023-06-12T10:15:53+08:00
; #@! TF.GenerationSoftware,Kicad,Pcbnew,7.0.2-6a45011f42~172~ubuntu22.04.1
; #@! TF.FileFunction,MixedPlating,1,4
FMAT,2
METRIC
; #@! TA.AperFunction,Plated,PTH,ViaDrill
T1C0.200
; #@! TA.AperFunction,Plated,PTH,ComponentDrill
T2C0.500
; #@! TA.AperFunction,Plated,PTH,ComponentDrill
T3C0.650
%
G90
G05
T1
X17.19Y-28.78
X17.19Y-44.34
X18.8Y-31.31
X18.8Y-46.87
X20.3Y-27.71
X20.3Y-43.27
X21.49Y-30.07
X21.49Y-45.63
X21.61Y-28.68
X21.61Y-44.24
X21.73Y-21.86
X21.73Y-37.42
X22.85Y-25.38
X22.85Y-40.94
X22.86Y-26.435
X22.86Y-41.995
X23.07Y-23.65
X23.07Y-39.21
X23.74Y-31.03
X23.74Y-46.59
X24.01Y-22.97
X24.01Y-38.53
X24.965Y-20.74
X24.965Y-36.3
X26.76Y-27.64
X26.76Y-43.2
X27.65Y-27.155
X27.65Y-42.715
X28.63Y-21.5
X28.63Y-37.06
X28.765Y-28.74
X28.765Y-44.3
X30.62Y-26.41
X30.62Y-41.97
X31.95Y-22.2
X31.95Y-37.76
X32.82Y-23.52
X32.82Y-39.08
X32.88Y-20.31
X32.88Y-35.87
X36.16Y-28.78
X36.16Y-44.34
X37.77Y-31.31
X37.77Y-46.87
X39.27Y-27.71
X39.27Y-43.27
X40.46Y-30.07
X40.46Y-45.63
X40.58Y-28.68
X40.58Y-44.24
X40.7Y-21.86
X40.7Y-37.42
X41.82Y-25.38
X41.82Y-40.94
X41.83Y-26.435
X41.83Y-41.995
X42.04Y-23.65
X42.04Y-39.21
X42.71Y-31.03
X42.71Y-46.59
X42.98Y-22.97
X42.98Y-38.53
X43.935Y-20.74
X43.935Y-36.3
X45.73Y-27.64
X45.73Y-43.2
X46.62Y-27.155
X46.62Y-42.715
X47.6Y-21.5
X47.6Y-37.06
X47.735Y-28.74
X47.735Y-44.3
X49.59Y-26.41
X49.59Y-41.97
X50.92Y-22.2
X50.92Y-37.76
X51.79Y-23.52
X51.79Y-39.08
X51.85Y-20.31
X51.85Y-35.87
T2
X17.44Y-20.76
X17.44Y-36.32
X19.717Y-33.59
X19.717Y-49.15
X21.35Y-33.59
X21.35Y-49.15
X22.973Y-33.59
X22.973Y-49.15
X24.6Y-33.59
X24.6Y-49.15
X26.227Y-33.59
X26.227Y-49.15
X27.855Y-33.59
X27.855Y-49.15
X29.482Y-33.59
X29.482Y-49.15
X31.11Y-33.59
X31.11Y-49.15
X36.41Y-20.76
X36.41Y-36.32
X38.688Y-33.59
X38.688Y-49.15
X40.32Y-33.59
X40.32Y-49.15
X41.942Y-33.59
X41.942Y-49.15
X43.57Y-33.59
X43.57Y-49.15
X45.197Y-33.59
X45.197Y-49.15
X46.825Y-33.59
X46.825Y-49.15
X48.453Y-33.59
X48.453Y-49.15
X50.08Y-33.59
X50.08Y-49.15
T3
X33.674Y-26.658
X33.674Y-27.928
X33.674Y-29.198
X33.674Y-30.468
X33.674Y-31.738
X33.674Y-33.008
X33.674Y-42.218
X33.674Y-43.488
X33.674Y-44.758
X33.674Y-46.028
X33.674Y-47.298
X33.674Y-48.568
X52.644Y-26.658
X52.644Y-27.928
X52.644Y-29.198
X52.644Y-30.468
X52.644Y-31.738
X52.644Y-33.008
X52.644Y-42.218
X52.644Y-43.488
X52.644Y-44.758
X52.644Y-46.028
X52.644Y-47.298
X52.644Y-48.568
T0
M30
