G04 #@! TF.GenerationSoftware,KiCad,Pcbnew,7.0.2-6a45011f42~172~ubuntu22.04.1*
G04 #@! TF.CreationDate,2023-06-12T10:15:53+08:00*
G04 #@! TF.ProjectId,panel_2_2,70616e65-6c5f-4325-9f32-2e6b69636164,rev?*
G04 #@! TF.SameCoordinates,Original*
G04 #@! TF.FileFunction,Legend,Bot*
G04 #@! TF.FilePolarity,Positive*
%FSLAX46Y46*%
G04 Gerber Fmt 4.6, Leading zero omitted, Abs format (unit mm)*
G04 Created by KiCad (PCBNEW 7.0.2-6a45011f42~172~ubuntu22.04.1) date 2023-06-12 10:15:53*
%MOMM*%
%LPD*%
G01*
G04 APERTURE LIST*
%ADD10C,0.150000*%
G04 APERTURE END LIST*
D10*
X25137619Y-46489523D02*
X24661428Y-46156190D01*
X25137619Y-45918095D02*
X24137619Y-45918095D01*
X24137619Y-45918095D02*
X24137619Y-46299047D01*
X24137619Y-46299047D02*
X24185238Y-46394285D01*
X24185238Y-46394285D02*
X24232857Y-46441904D01*
X24232857Y-46441904D02*
X24328095Y-46489523D01*
X24328095Y-46489523D02*
X24470952Y-46489523D01*
X24470952Y-46489523D02*
X24566190Y-46441904D01*
X24566190Y-46441904D02*
X24613809Y-46394285D01*
X24613809Y-46394285D02*
X24661428Y-46299047D01*
X24661428Y-46299047D02*
X24661428Y-45918095D01*
X25090000Y-46870476D02*
X25137619Y-47013333D01*
X25137619Y-47013333D02*
X25137619Y-47251428D01*
X25137619Y-47251428D02*
X25090000Y-47346666D01*
X25090000Y-47346666D02*
X25042380Y-47394285D01*
X25042380Y-47394285D02*
X24947142Y-47441904D01*
X24947142Y-47441904D02*
X24851904Y-47441904D01*
X24851904Y-47441904D02*
X24756666Y-47394285D01*
X24756666Y-47394285D02*
X24709047Y-47346666D01*
X24709047Y-47346666D02*
X24661428Y-47251428D01*
X24661428Y-47251428D02*
X24613809Y-47060952D01*
X24613809Y-47060952D02*
X24566190Y-46965714D01*
X24566190Y-46965714D02*
X24518571Y-46918095D01*
X24518571Y-46918095D02*
X24423333Y-46870476D01*
X24423333Y-46870476D02*
X24328095Y-46870476D01*
X24328095Y-46870476D02*
X24232857Y-46918095D01*
X24232857Y-46918095D02*
X24185238Y-46965714D01*
X24185238Y-46965714D02*
X24137619Y-47060952D01*
X24137619Y-47060952D02*
X24137619Y-47299047D01*
X24137619Y-47299047D02*
X24185238Y-47441904D01*
X24137619Y-47727619D02*
X24137619Y-48299047D01*
X25137619Y-48013333D02*
X24137619Y-48013333D01*
X51861904Y-46046666D02*
X51100000Y-46046666D01*
X39170000Y-30190476D02*
X39217619Y-30333333D01*
X39217619Y-30333333D02*
X39217619Y-30571428D01*
X39217619Y-30571428D02*
X39170000Y-30666666D01*
X39170000Y-30666666D02*
X39122380Y-30714285D01*
X39122380Y-30714285D02*
X39027142Y-30761904D01*
X39027142Y-30761904D02*
X38931904Y-30761904D01*
X38931904Y-30761904D02*
X38836666Y-30714285D01*
X38836666Y-30714285D02*
X38789047Y-30666666D01*
X38789047Y-30666666D02*
X38741428Y-30571428D01*
X38741428Y-30571428D02*
X38693809Y-30380952D01*
X38693809Y-30380952D02*
X38646190Y-30285714D01*
X38646190Y-30285714D02*
X38598571Y-30238095D01*
X38598571Y-30238095D02*
X38503333Y-30190476D01*
X38503333Y-30190476D02*
X38408095Y-30190476D01*
X38408095Y-30190476D02*
X38312857Y-30238095D01*
X38312857Y-30238095D02*
X38265238Y-30285714D01*
X38265238Y-30285714D02*
X38217619Y-30380952D01*
X38217619Y-30380952D02*
X38217619Y-30619047D01*
X38217619Y-30619047D02*
X38265238Y-30761904D01*
X39122380Y-31761904D02*
X39170000Y-31714285D01*
X39170000Y-31714285D02*
X39217619Y-31571428D01*
X39217619Y-31571428D02*
X39217619Y-31476190D01*
X39217619Y-31476190D02*
X39170000Y-31333333D01*
X39170000Y-31333333D02*
X39074761Y-31238095D01*
X39074761Y-31238095D02*
X38979523Y-31190476D01*
X38979523Y-31190476D02*
X38789047Y-31142857D01*
X38789047Y-31142857D02*
X38646190Y-31142857D01*
X38646190Y-31142857D02*
X38455714Y-31190476D01*
X38455714Y-31190476D02*
X38360476Y-31238095D01*
X38360476Y-31238095D02*
X38265238Y-31333333D01*
X38265238Y-31333333D02*
X38217619Y-31476190D01*
X38217619Y-31476190D02*
X38217619Y-31571428D01*
X38217619Y-31571428D02*
X38265238Y-31714285D01*
X38265238Y-31714285D02*
X38312857Y-31761904D01*
X39217619Y-32666666D02*
X39217619Y-32190476D01*
X39217619Y-32190476D02*
X38217619Y-32190476D01*
X51260476Y-27137619D02*
X51593809Y-26661428D01*
X51831904Y-27137619D02*
X51831904Y-26137619D01*
X51831904Y-26137619D02*
X51450952Y-26137619D01*
X51450952Y-26137619D02*
X51355714Y-26185238D01*
X51355714Y-26185238D02*
X51308095Y-26232857D01*
X51308095Y-26232857D02*
X51260476Y-26328095D01*
X51260476Y-26328095D02*
X51260476Y-26470952D01*
X51260476Y-26470952D02*
X51308095Y-26566190D01*
X51308095Y-26566190D02*
X51355714Y-26613809D01*
X51355714Y-26613809D02*
X51450952Y-26661428D01*
X51450952Y-26661428D02*
X51831904Y-26661428D01*
X21750000Y-30190476D02*
X21797619Y-30333333D01*
X21797619Y-30333333D02*
X21797619Y-30571428D01*
X21797619Y-30571428D02*
X21750000Y-30666666D01*
X21750000Y-30666666D02*
X21702380Y-30714285D01*
X21702380Y-30714285D02*
X21607142Y-30761904D01*
X21607142Y-30761904D02*
X21511904Y-30761904D01*
X21511904Y-30761904D02*
X21416666Y-30714285D01*
X21416666Y-30714285D02*
X21369047Y-30666666D01*
X21369047Y-30666666D02*
X21321428Y-30571428D01*
X21321428Y-30571428D02*
X21273809Y-30380952D01*
X21273809Y-30380952D02*
X21226190Y-30285714D01*
X21226190Y-30285714D02*
X21178571Y-30238095D01*
X21178571Y-30238095D02*
X21083333Y-30190476D01*
X21083333Y-30190476D02*
X20988095Y-30190476D01*
X20988095Y-30190476D02*
X20892857Y-30238095D01*
X20892857Y-30238095D02*
X20845238Y-30285714D01*
X20845238Y-30285714D02*
X20797619Y-30380952D01*
X20797619Y-30380952D02*
X20797619Y-30619047D01*
X20797619Y-30619047D02*
X20845238Y-30761904D01*
X21797619Y-31190476D02*
X20797619Y-31190476D01*
X20797619Y-31190476D02*
X20797619Y-31428571D01*
X20797619Y-31428571D02*
X20845238Y-31571428D01*
X20845238Y-31571428D02*
X20940476Y-31666666D01*
X20940476Y-31666666D02*
X21035714Y-31714285D01*
X21035714Y-31714285D02*
X21226190Y-31761904D01*
X21226190Y-31761904D02*
X21369047Y-31761904D01*
X21369047Y-31761904D02*
X21559523Y-31714285D01*
X21559523Y-31714285D02*
X21654761Y-31666666D01*
X21654761Y-31666666D02*
X21750000Y-31571428D01*
X21750000Y-31571428D02*
X21797619Y-31428571D01*
X21797619Y-31428571D02*
X21797619Y-31190476D01*
X21511904Y-32142857D02*
X21511904Y-32619047D01*
X21797619Y-32047619D02*
X20797619Y-32380952D01*
X20797619Y-32380952D02*
X21797619Y-32714285D01*
X36822380Y-37819523D02*
X36870000Y-37771904D01*
X36870000Y-37771904D02*
X36917619Y-37629047D01*
X36917619Y-37629047D02*
X36917619Y-37533809D01*
X36917619Y-37533809D02*
X36870000Y-37390952D01*
X36870000Y-37390952D02*
X36774761Y-37295714D01*
X36774761Y-37295714D02*
X36679523Y-37248095D01*
X36679523Y-37248095D02*
X36489047Y-37200476D01*
X36489047Y-37200476D02*
X36346190Y-37200476D01*
X36346190Y-37200476D02*
X36155714Y-37248095D01*
X36155714Y-37248095D02*
X36060476Y-37295714D01*
X36060476Y-37295714D02*
X35965238Y-37390952D01*
X35965238Y-37390952D02*
X35917619Y-37533809D01*
X35917619Y-37533809D02*
X35917619Y-37629047D01*
X35917619Y-37629047D02*
X35965238Y-37771904D01*
X35965238Y-37771904D02*
X36012857Y-37819523D01*
X36917619Y-38248095D02*
X35917619Y-38248095D01*
X35917619Y-38248095D02*
X35917619Y-38629047D01*
X35917619Y-38629047D02*
X35965238Y-38724285D01*
X35965238Y-38724285D02*
X36012857Y-38771904D01*
X36012857Y-38771904D02*
X36108095Y-38819523D01*
X36108095Y-38819523D02*
X36250952Y-38819523D01*
X36250952Y-38819523D02*
X36346190Y-38771904D01*
X36346190Y-38771904D02*
X36393809Y-38724285D01*
X36393809Y-38724285D02*
X36441428Y-38629047D01*
X36441428Y-38629047D02*
X36441428Y-38248095D01*
X35917619Y-39248095D02*
X36727142Y-39248095D01*
X36727142Y-39248095D02*
X36822380Y-39295714D01*
X36822380Y-39295714D02*
X36870000Y-39343333D01*
X36870000Y-39343333D02*
X36917619Y-39438571D01*
X36917619Y-39438571D02*
X36917619Y-39629047D01*
X36917619Y-39629047D02*
X36870000Y-39724285D01*
X36870000Y-39724285D02*
X36822380Y-39771904D01*
X36822380Y-39771904D02*
X36727142Y-39819523D01*
X36727142Y-39819523D02*
X35917619Y-39819523D01*
X30597619Y-30352857D02*
X30597619Y-30971904D01*
X30597619Y-30971904D02*
X30978571Y-30638571D01*
X30978571Y-30638571D02*
X30978571Y-30781428D01*
X30978571Y-30781428D02*
X31026190Y-30876666D01*
X31026190Y-30876666D02*
X31073809Y-30924285D01*
X31073809Y-30924285D02*
X31169047Y-30971904D01*
X31169047Y-30971904D02*
X31407142Y-30971904D01*
X31407142Y-30971904D02*
X31502380Y-30924285D01*
X31502380Y-30924285D02*
X31550000Y-30876666D01*
X31550000Y-30876666D02*
X31597619Y-30781428D01*
X31597619Y-30781428D02*
X31597619Y-30495714D01*
X31597619Y-30495714D02*
X31550000Y-30400476D01*
X31550000Y-30400476D02*
X31502380Y-30352857D01*
X30597619Y-31257619D02*
X31597619Y-31590952D01*
X31597619Y-31590952D02*
X30597619Y-31924285D01*
X30597619Y-32162381D02*
X30597619Y-32781428D01*
X30597619Y-32781428D02*
X30978571Y-32448095D01*
X30978571Y-32448095D02*
X30978571Y-32590952D01*
X30978571Y-32590952D02*
X31026190Y-32686190D01*
X31026190Y-32686190D02*
X31073809Y-32733809D01*
X31073809Y-32733809D02*
X31169047Y-32781428D01*
X31169047Y-32781428D02*
X31407142Y-32781428D01*
X31407142Y-32781428D02*
X31502380Y-32733809D01*
X31502380Y-32733809D02*
X31550000Y-32686190D01*
X31550000Y-32686190D02*
X31597619Y-32590952D01*
X31597619Y-32590952D02*
X31597619Y-32305238D01*
X31597619Y-32305238D02*
X31550000Y-32210000D01*
X31550000Y-32210000D02*
X31502380Y-32162381D01*
X22515238Y-30671904D02*
X22467619Y-30576666D01*
X22467619Y-30576666D02*
X22467619Y-30433809D01*
X22467619Y-30433809D02*
X22515238Y-30290952D01*
X22515238Y-30290952D02*
X22610476Y-30195714D01*
X22610476Y-30195714D02*
X22705714Y-30148095D01*
X22705714Y-30148095D02*
X22896190Y-30100476D01*
X22896190Y-30100476D02*
X23039047Y-30100476D01*
X23039047Y-30100476D02*
X23229523Y-30148095D01*
X23229523Y-30148095D02*
X23324761Y-30195714D01*
X23324761Y-30195714D02*
X23420000Y-30290952D01*
X23420000Y-30290952D02*
X23467619Y-30433809D01*
X23467619Y-30433809D02*
X23467619Y-30529047D01*
X23467619Y-30529047D02*
X23420000Y-30671904D01*
X23420000Y-30671904D02*
X23372380Y-30719523D01*
X23372380Y-30719523D02*
X23039047Y-30719523D01*
X23039047Y-30719523D02*
X23039047Y-30529047D01*
X23467619Y-31148095D02*
X22467619Y-31148095D01*
X22467619Y-31148095D02*
X23467619Y-31719523D01*
X23467619Y-31719523D02*
X22467619Y-31719523D01*
X23467619Y-32195714D02*
X22467619Y-32195714D01*
X22467619Y-32195714D02*
X22467619Y-32433809D01*
X22467619Y-32433809D02*
X22515238Y-32576666D01*
X22515238Y-32576666D02*
X22610476Y-32671904D01*
X22610476Y-32671904D02*
X22705714Y-32719523D01*
X22705714Y-32719523D02*
X22896190Y-32767142D01*
X22896190Y-32767142D02*
X23039047Y-32767142D01*
X23039047Y-32767142D02*
X23229523Y-32719523D01*
X23229523Y-32719523D02*
X23324761Y-32671904D01*
X23324761Y-32671904D02*
X23420000Y-32576666D01*
X23420000Y-32576666D02*
X23467619Y-32433809D01*
X23467619Y-32433809D02*
X23467619Y-32195714D01*
X26647380Y-46524523D02*
X26695000Y-46476904D01*
X26695000Y-46476904D02*
X26742619Y-46334047D01*
X26742619Y-46334047D02*
X26742619Y-46238809D01*
X26742619Y-46238809D02*
X26695000Y-46095952D01*
X26695000Y-46095952D02*
X26599761Y-46000714D01*
X26599761Y-46000714D02*
X26504523Y-45953095D01*
X26504523Y-45953095D02*
X26314047Y-45905476D01*
X26314047Y-45905476D02*
X26171190Y-45905476D01*
X26171190Y-45905476D02*
X25980714Y-45953095D01*
X25980714Y-45953095D02*
X25885476Y-46000714D01*
X25885476Y-46000714D02*
X25790238Y-46095952D01*
X25790238Y-46095952D02*
X25742619Y-46238809D01*
X25742619Y-46238809D02*
X25742619Y-46334047D01*
X25742619Y-46334047D02*
X25790238Y-46476904D01*
X25790238Y-46476904D02*
X25837857Y-46524523D01*
X26742619Y-47429285D02*
X26742619Y-46953095D01*
X26742619Y-46953095D02*
X25742619Y-46953095D01*
X26742619Y-47762619D02*
X25742619Y-47762619D01*
X26742619Y-48334047D02*
X26171190Y-47905476D01*
X25742619Y-48334047D02*
X26314047Y-47762619D01*
X32290476Y-27137619D02*
X32623809Y-26661428D01*
X32861904Y-27137619D02*
X32861904Y-26137619D01*
X32861904Y-26137619D02*
X32480952Y-26137619D01*
X32480952Y-26137619D02*
X32385714Y-26185238D01*
X32385714Y-26185238D02*
X32338095Y-26232857D01*
X32338095Y-26232857D02*
X32290476Y-26328095D01*
X32290476Y-26328095D02*
X32290476Y-26470952D01*
X32290476Y-26470952D02*
X32338095Y-26566190D01*
X32338095Y-26566190D02*
X32385714Y-26613809D01*
X32385714Y-26613809D02*
X32480952Y-26661428D01*
X32480952Y-26661428D02*
X32861904Y-26661428D01*
X40720000Y-30190476D02*
X40767619Y-30333333D01*
X40767619Y-30333333D02*
X40767619Y-30571428D01*
X40767619Y-30571428D02*
X40720000Y-30666666D01*
X40720000Y-30666666D02*
X40672380Y-30714285D01*
X40672380Y-30714285D02*
X40577142Y-30761904D01*
X40577142Y-30761904D02*
X40481904Y-30761904D01*
X40481904Y-30761904D02*
X40386666Y-30714285D01*
X40386666Y-30714285D02*
X40339047Y-30666666D01*
X40339047Y-30666666D02*
X40291428Y-30571428D01*
X40291428Y-30571428D02*
X40243809Y-30380952D01*
X40243809Y-30380952D02*
X40196190Y-30285714D01*
X40196190Y-30285714D02*
X40148571Y-30238095D01*
X40148571Y-30238095D02*
X40053333Y-30190476D01*
X40053333Y-30190476D02*
X39958095Y-30190476D01*
X39958095Y-30190476D02*
X39862857Y-30238095D01*
X39862857Y-30238095D02*
X39815238Y-30285714D01*
X39815238Y-30285714D02*
X39767619Y-30380952D01*
X39767619Y-30380952D02*
X39767619Y-30619047D01*
X39767619Y-30619047D02*
X39815238Y-30761904D01*
X40767619Y-31190476D02*
X39767619Y-31190476D01*
X39767619Y-31190476D02*
X39767619Y-31428571D01*
X39767619Y-31428571D02*
X39815238Y-31571428D01*
X39815238Y-31571428D02*
X39910476Y-31666666D01*
X39910476Y-31666666D02*
X40005714Y-31714285D01*
X40005714Y-31714285D02*
X40196190Y-31761904D01*
X40196190Y-31761904D02*
X40339047Y-31761904D01*
X40339047Y-31761904D02*
X40529523Y-31714285D01*
X40529523Y-31714285D02*
X40624761Y-31666666D01*
X40624761Y-31666666D02*
X40720000Y-31571428D01*
X40720000Y-31571428D02*
X40767619Y-31428571D01*
X40767619Y-31428571D02*
X40767619Y-31190476D01*
X40481904Y-32142857D02*
X40481904Y-32619047D01*
X40767619Y-32047619D02*
X39767619Y-32380952D01*
X39767619Y-32380952D02*
X40767619Y-32714285D01*
X30027619Y-31258095D02*
X29027619Y-31258095D01*
X29027619Y-31258095D02*
X29027619Y-31496190D01*
X29027619Y-31496190D02*
X29075238Y-31639047D01*
X29075238Y-31639047D02*
X29170476Y-31734285D01*
X29170476Y-31734285D02*
X29265714Y-31781904D01*
X29265714Y-31781904D02*
X29456190Y-31829523D01*
X29456190Y-31829523D02*
X29599047Y-31829523D01*
X29599047Y-31829523D02*
X29789523Y-31781904D01*
X29789523Y-31781904D02*
X29884761Y-31734285D01*
X29884761Y-31734285D02*
X29980000Y-31639047D01*
X29980000Y-31639047D02*
X30027619Y-31496190D01*
X30027619Y-31496190D02*
X30027619Y-31258095D01*
X29027619Y-32448571D02*
X29027619Y-32543809D01*
X29027619Y-32543809D02*
X29075238Y-32639047D01*
X29075238Y-32639047D02*
X29122857Y-32686666D01*
X29122857Y-32686666D02*
X29218095Y-32734285D01*
X29218095Y-32734285D02*
X29408571Y-32781904D01*
X29408571Y-32781904D02*
X29646666Y-32781904D01*
X29646666Y-32781904D02*
X29837142Y-32734285D01*
X29837142Y-32734285D02*
X29932380Y-32686666D01*
X29932380Y-32686666D02*
X29980000Y-32639047D01*
X29980000Y-32639047D02*
X30027619Y-32543809D01*
X30027619Y-32543809D02*
X30027619Y-32448571D01*
X30027619Y-32448571D02*
X29980000Y-32353333D01*
X29980000Y-32353333D02*
X29932380Y-32305714D01*
X29932380Y-32305714D02*
X29837142Y-32258095D01*
X29837142Y-32258095D02*
X29646666Y-32210476D01*
X29646666Y-32210476D02*
X29408571Y-32210476D01*
X29408571Y-32210476D02*
X29218095Y-32258095D01*
X29218095Y-32258095D02*
X29122857Y-32305714D01*
X29122857Y-32305714D02*
X29075238Y-32353333D01*
X29075238Y-32353333D02*
X29027619Y-32448571D01*
X32981904Y-44776666D02*
X32220000Y-44776666D01*
X32600952Y-45157619D02*
X32600952Y-44395714D01*
X51498571Y-43473809D02*
X51355714Y-43521428D01*
X51355714Y-43521428D02*
X51308095Y-43569047D01*
X51308095Y-43569047D02*
X51260476Y-43664285D01*
X51260476Y-43664285D02*
X51260476Y-43807142D01*
X51260476Y-43807142D02*
X51308095Y-43902380D01*
X51308095Y-43902380D02*
X51355714Y-43950000D01*
X51355714Y-43950000D02*
X51450952Y-43997619D01*
X51450952Y-43997619D02*
X51831904Y-43997619D01*
X51831904Y-43997619D02*
X51831904Y-42997619D01*
X51831904Y-42997619D02*
X51498571Y-42997619D01*
X51498571Y-42997619D02*
X51403333Y-43045238D01*
X51403333Y-43045238D02*
X51355714Y-43092857D01*
X51355714Y-43092857D02*
X51308095Y-43188095D01*
X51308095Y-43188095D02*
X51308095Y-43283333D01*
X51308095Y-43283333D02*
X51355714Y-43378571D01*
X51355714Y-43378571D02*
X51403333Y-43426190D01*
X51403333Y-43426190D02*
X51498571Y-43473809D01*
X51498571Y-43473809D02*
X51831904Y-43473809D01*
X32290476Y-42697619D02*
X32623809Y-42221428D01*
X32861904Y-42697619D02*
X32861904Y-41697619D01*
X32861904Y-41697619D02*
X32480952Y-41697619D01*
X32480952Y-41697619D02*
X32385714Y-41745238D01*
X32385714Y-41745238D02*
X32338095Y-41792857D01*
X32338095Y-41792857D02*
X32290476Y-41888095D01*
X32290476Y-41888095D02*
X32290476Y-42030952D01*
X32290476Y-42030952D02*
X32338095Y-42126190D01*
X32338095Y-42126190D02*
X32385714Y-42173809D01*
X32385714Y-42173809D02*
X32480952Y-42221428D01*
X32480952Y-42221428D02*
X32861904Y-42221428D01*
X32348095Y-48145238D02*
X32443333Y-48097619D01*
X32443333Y-48097619D02*
X32586190Y-48097619D01*
X32586190Y-48097619D02*
X32729047Y-48145238D01*
X32729047Y-48145238D02*
X32824285Y-48240476D01*
X32824285Y-48240476D02*
X32871904Y-48335714D01*
X32871904Y-48335714D02*
X32919523Y-48526190D01*
X32919523Y-48526190D02*
X32919523Y-48669047D01*
X32919523Y-48669047D02*
X32871904Y-48859523D01*
X32871904Y-48859523D02*
X32824285Y-48954761D01*
X32824285Y-48954761D02*
X32729047Y-49050000D01*
X32729047Y-49050000D02*
X32586190Y-49097619D01*
X32586190Y-49097619D02*
X32490952Y-49097619D01*
X32490952Y-49097619D02*
X32348095Y-49050000D01*
X32348095Y-49050000D02*
X32300476Y-49002380D01*
X32300476Y-49002380D02*
X32300476Y-48669047D01*
X32300476Y-48669047D02*
X32490952Y-48669047D01*
X47227380Y-30674523D02*
X47275000Y-30626904D01*
X47275000Y-30626904D02*
X47322619Y-30484047D01*
X47322619Y-30484047D02*
X47322619Y-30388809D01*
X47322619Y-30388809D02*
X47275000Y-30245952D01*
X47275000Y-30245952D02*
X47179761Y-30150714D01*
X47179761Y-30150714D02*
X47084523Y-30103095D01*
X47084523Y-30103095D02*
X46894047Y-30055476D01*
X46894047Y-30055476D02*
X46751190Y-30055476D01*
X46751190Y-30055476D02*
X46560714Y-30103095D01*
X46560714Y-30103095D02*
X46465476Y-30150714D01*
X46465476Y-30150714D02*
X46370238Y-30245952D01*
X46370238Y-30245952D02*
X46322619Y-30388809D01*
X46322619Y-30388809D02*
X46322619Y-30484047D01*
X46322619Y-30484047D02*
X46370238Y-30626904D01*
X46370238Y-30626904D02*
X46417857Y-30674523D01*
X47322619Y-31103095D02*
X46322619Y-31103095D01*
X46322619Y-31103095D02*
X47036904Y-31436428D01*
X47036904Y-31436428D02*
X46322619Y-31769761D01*
X46322619Y-31769761D02*
X47322619Y-31769761D01*
X47322619Y-32245952D02*
X46322619Y-32245952D01*
X46322619Y-32245952D02*
X46322619Y-32484047D01*
X46322619Y-32484047D02*
X46370238Y-32626904D01*
X46370238Y-32626904D02*
X46465476Y-32722142D01*
X46465476Y-32722142D02*
X46560714Y-32769761D01*
X46560714Y-32769761D02*
X46751190Y-32817380D01*
X46751190Y-32817380D02*
X46894047Y-32817380D01*
X46894047Y-32817380D02*
X47084523Y-32769761D01*
X47084523Y-32769761D02*
X47179761Y-32722142D01*
X47179761Y-32722142D02*
X47275000Y-32626904D01*
X47275000Y-32626904D02*
X47322619Y-32484047D01*
X47322619Y-32484047D02*
X47322619Y-32245952D01*
X32528571Y-43473809D02*
X32385714Y-43521428D01*
X32385714Y-43521428D02*
X32338095Y-43569047D01*
X32338095Y-43569047D02*
X32290476Y-43664285D01*
X32290476Y-43664285D02*
X32290476Y-43807142D01*
X32290476Y-43807142D02*
X32338095Y-43902380D01*
X32338095Y-43902380D02*
X32385714Y-43950000D01*
X32385714Y-43950000D02*
X32480952Y-43997619D01*
X32480952Y-43997619D02*
X32861904Y-43997619D01*
X32861904Y-43997619D02*
X32861904Y-42997619D01*
X32861904Y-42997619D02*
X32528571Y-42997619D01*
X32528571Y-42997619D02*
X32433333Y-43045238D01*
X32433333Y-43045238D02*
X32385714Y-43092857D01*
X32385714Y-43092857D02*
X32338095Y-43188095D01*
X32338095Y-43188095D02*
X32338095Y-43283333D01*
X32338095Y-43283333D02*
X32385714Y-43378571D01*
X32385714Y-43378571D02*
X32433333Y-43426190D01*
X32433333Y-43426190D02*
X32528571Y-43473809D01*
X32528571Y-43473809D02*
X32861904Y-43473809D01*
X22515238Y-46231904D02*
X22467619Y-46136666D01*
X22467619Y-46136666D02*
X22467619Y-45993809D01*
X22467619Y-45993809D02*
X22515238Y-45850952D01*
X22515238Y-45850952D02*
X22610476Y-45755714D01*
X22610476Y-45755714D02*
X22705714Y-45708095D01*
X22705714Y-45708095D02*
X22896190Y-45660476D01*
X22896190Y-45660476D02*
X23039047Y-45660476D01*
X23039047Y-45660476D02*
X23229523Y-45708095D01*
X23229523Y-45708095D02*
X23324761Y-45755714D01*
X23324761Y-45755714D02*
X23420000Y-45850952D01*
X23420000Y-45850952D02*
X23467619Y-45993809D01*
X23467619Y-45993809D02*
X23467619Y-46089047D01*
X23467619Y-46089047D02*
X23420000Y-46231904D01*
X23420000Y-46231904D02*
X23372380Y-46279523D01*
X23372380Y-46279523D02*
X23039047Y-46279523D01*
X23039047Y-46279523D02*
X23039047Y-46089047D01*
X23467619Y-46708095D02*
X22467619Y-46708095D01*
X22467619Y-46708095D02*
X23467619Y-47279523D01*
X23467619Y-47279523D02*
X22467619Y-47279523D01*
X23467619Y-47755714D02*
X22467619Y-47755714D01*
X22467619Y-47755714D02*
X22467619Y-47993809D01*
X22467619Y-47993809D02*
X22515238Y-48136666D01*
X22515238Y-48136666D02*
X22610476Y-48231904D01*
X22610476Y-48231904D02*
X22705714Y-48279523D01*
X22705714Y-48279523D02*
X22896190Y-48327142D01*
X22896190Y-48327142D02*
X23039047Y-48327142D01*
X23039047Y-48327142D02*
X23229523Y-48279523D01*
X23229523Y-48279523D02*
X23324761Y-48231904D01*
X23324761Y-48231904D02*
X23420000Y-48136666D01*
X23420000Y-48136666D02*
X23467619Y-47993809D01*
X23467619Y-47993809D02*
X23467619Y-47755714D01*
X30597619Y-45912857D02*
X30597619Y-46531904D01*
X30597619Y-46531904D02*
X30978571Y-46198571D01*
X30978571Y-46198571D02*
X30978571Y-46341428D01*
X30978571Y-46341428D02*
X31026190Y-46436666D01*
X31026190Y-46436666D02*
X31073809Y-46484285D01*
X31073809Y-46484285D02*
X31169047Y-46531904D01*
X31169047Y-46531904D02*
X31407142Y-46531904D01*
X31407142Y-46531904D02*
X31502380Y-46484285D01*
X31502380Y-46484285D02*
X31550000Y-46436666D01*
X31550000Y-46436666D02*
X31597619Y-46341428D01*
X31597619Y-46341428D02*
X31597619Y-46055714D01*
X31597619Y-46055714D02*
X31550000Y-45960476D01*
X31550000Y-45960476D02*
X31502380Y-45912857D01*
X30597619Y-46817619D02*
X31597619Y-47150952D01*
X31597619Y-47150952D02*
X30597619Y-47484285D01*
X30597619Y-47722381D02*
X30597619Y-48341428D01*
X30597619Y-48341428D02*
X30978571Y-48008095D01*
X30978571Y-48008095D02*
X30978571Y-48150952D01*
X30978571Y-48150952D02*
X31026190Y-48246190D01*
X31026190Y-48246190D02*
X31073809Y-48293809D01*
X31073809Y-48293809D02*
X31169047Y-48341428D01*
X31169047Y-48341428D02*
X31407142Y-48341428D01*
X31407142Y-48341428D02*
X31502380Y-48293809D01*
X31502380Y-48293809D02*
X31550000Y-48246190D01*
X31550000Y-48246190D02*
X31597619Y-48150952D01*
X31597619Y-48150952D02*
X31597619Y-47865238D01*
X31597619Y-47865238D02*
X31550000Y-47770000D01*
X31550000Y-47770000D02*
X31502380Y-47722381D01*
X32891904Y-46046666D02*
X32130000Y-46046666D01*
X26647380Y-30964523D02*
X26695000Y-30916904D01*
X26695000Y-30916904D02*
X26742619Y-30774047D01*
X26742619Y-30774047D02*
X26742619Y-30678809D01*
X26742619Y-30678809D02*
X26695000Y-30535952D01*
X26695000Y-30535952D02*
X26599761Y-30440714D01*
X26599761Y-30440714D02*
X26504523Y-30393095D01*
X26504523Y-30393095D02*
X26314047Y-30345476D01*
X26314047Y-30345476D02*
X26171190Y-30345476D01*
X26171190Y-30345476D02*
X25980714Y-30393095D01*
X25980714Y-30393095D02*
X25885476Y-30440714D01*
X25885476Y-30440714D02*
X25790238Y-30535952D01*
X25790238Y-30535952D02*
X25742619Y-30678809D01*
X25742619Y-30678809D02*
X25742619Y-30774047D01*
X25742619Y-30774047D02*
X25790238Y-30916904D01*
X25790238Y-30916904D02*
X25837857Y-30964523D01*
X26742619Y-31869285D02*
X26742619Y-31393095D01*
X26742619Y-31393095D02*
X25742619Y-31393095D01*
X26742619Y-32202619D02*
X25742619Y-32202619D01*
X26742619Y-32774047D02*
X26171190Y-32345476D01*
X25742619Y-32774047D02*
X26314047Y-32202619D01*
X21750000Y-45750476D02*
X21797619Y-45893333D01*
X21797619Y-45893333D02*
X21797619Y-46131428D01*
X21797619Y-46131428D02*
X21750000Y-46226666D01*
X21750000Y-46226666D02*
X21702380Y-46274285D01*
X21702380Y-46274285D02*
X21607142Y-46321904D01*
X21607142Y-46321904D02*
X21511904Y-46321904D01*
X21511904Y-46321904D02*
X21416666Y-46274285D01*
X21416666Y-46274285D02*
X21369047Y-46226666D01*
X21369047Y-46226666D02*
X21321428Y-46131428D01*
X21321428Y-46131428D02*
X21273809Y-45940952D01*
X21273809Y-45940952D02*
X21226190Y-45845714D01*
X21226190Y-45845714D02*
X21178571Y-45798095D01*
X21178571Y-45798095D02*
X21083333Y-45750476D01*
X21083333Y-45750476D02*
X20988095Y-45750476D01*
X20988095Y-45750476D02*
X20892857Y-45798095D01*
X20892857Y-45798095D02*
X20845238Y-45845714D01*
X20845238Y-45845714D02*
X20797619Y-45940952D01*
X20797619Y-45940952D02*
X20797619Y-46179047D01*
X20797619Y-46179047D02*
X20845238Y-46321904D01*
X21797619Y-46750476D02*
X20797619Y-46750476D01*
X20797619Y-46750476D02*
X20797619Y-46988571D01*
X20797619Y-46988571D02*
X20845238Y-47131428D01*
X20845238Y-47131428D02*
X20940476Y-47226666D01*
X20940476Y-47226666D02*
X21035714Y-47274285D01*
X21035714Y-47274285D02*
X21226190Y-47321904D01*
X21226190Y-47321904D02*
X21369047Y-47321904D01*
X21369047Y-47321904D02*
X21559523Y-47274285D01*
X21559523Y-47274285D02*
X21654761Y-47226666D01*
X21654761Y-47226666D02*
X21750000Y-47131428D01*
X21750000Y-47131428D02*
X21797619Y-46988571D01*
X21797619Y-46988571D02*
X21797619Y-46750476D01*
X21511904Y-47702857D02*
X21511904Y-48179047D01*
X21797619Y-47607619D02*
X20797619Y-47940952D01*
X20797619Y-47940952D02*
X21797619Y-48274285D01*
X44107619Y-30929523D02*
X43631428Y-30596190D01*
X44107619Y-30358095D02*
X43107619Y-30358095D01*
X43107619Y-30358095D02*
X43107619Y-30739047D01*
X43107619Y-30739047D02*
X43155238Y-30834285D01*
X43155238Y-30834285D02*
X43202857Y-30881904D01*
X43202857Y-30881904D02*
X43298095Y-30929523D01*
X43298095Y-30929523D02*
X43440952Y-30929523D01*
X43440952Y-30929523D02*
X43536190Y-30881904D01*
X43536190Y-30881904D02*
X43583809Y-30834285D01*
X43583809Y-30834285D02*
X43631428Y-30739047D01*
X43631428Y-30739047D02*
X43631428Y-30358095D01*
X44060000Y-31310476D02*
X44107619Y-31453333D01*
X44107619Y-31453333D02*
X44107619Y-31691428D01*
X44107619Y-31691428D02*
X44060000Y-31786666D01*
X44060000Y-31786666D02*
X44012380Y-31834285D01*
X44012380Y-31834285D02*
X43917142Y-31881904D01*
X43917142Y-31881904D02*
X43821904Y-31881904D01*
X43821904Y-31881904D02*
X43726666Y-31834285D01*
X43726666Y-31834285D02*
X43679047Y-31786666D01*
X43679047Y-31786666D02*
X43631428Y-31691428D01*
X43631428Y-31691428D02*
X43583809Y-31500952D01*
X43583809Y-31500952D02*
X43536190Y-31405714D01*
X43536190Y-31405714D02*
X43488571Y-31358095D01*
X43488571Y-31358095D02*
X43393333Y-31310476D01*
X43393333Y-31310476D02*
X43298095Y-31310476D01*
X43298095Y-31310476D02*
X43202857Y-31358095D01*
X43202857Y-31358095D02*
X43155238Y-31405714D01*
X43155238Y-31405714D02*
X43107619Y-31500952D01*
X43107619Y-31500952D02*
X43107619Y-31739047D01*
X43107619Y-31739047D02*
X43155238Y-31881904D01*
X43107619Y-32167619D02*
X43107619Y-32739047D01*
X44107619Y-32453333D02*
X43107619Y-32453333D01*
X49567619Y-30352857D02*
X49567619Y-30971904D01*
X49567619Y-30971904D02*
X49948571Y-30638571D01*
X49948571Y-30638571D02*
X49948571Y-30781428D01*
X49948571Y-30781428D02*
X49996190Y-30876666D01*
X49996190Y-30876666D02*
X50043809Y-30924285D01*
X50043809Y-30924285D02*
X50139047Y-30971904D01*
X50139047Y-30971904D02*
X50377142Y-30971904D01*
X50377142Y-30971904D02*
X50472380Y-30924285D01*
X50472380Y-30924285D02*
X50520000Y-30876666D01*
X50520000Y-30876666D02*
X50567619Y-30781428D01*
X50567619Y-30781428D02*
X50567619Y-30495714D01*
X50567619Y-30495714D02*
X50520000Y-30400476D01*
X50520000Y-30400476D02*
X50472380Y-30352857D01*
X49567619Y-31257619D02*
X50567619Y-31590952D01*
X50567619Y-31590952D02*
X49567619Y-31924285D01*
X49567619Y-32162381D02*
X49567619Y-32781428D01*
X49567619Y-32781428D02*
X49948571Y-32448095D01*
X49948571Y-32448095D02*
X49948571Y-32590952D01*
X49948571Y-32590952D02*
X49996190Y-32686190D01*
X49996190Y-32686190D02*
X50043809Y-32733809D01*
X50043809Y-32733809D02*
X50139047Y-32781428D01*
X50139047Y-32781428D02*
X50377142Y-32781428D01*
X50377142Y-32781428D02*
X50472380Y-32733809D01*
X50472380Y-32733809D02*
X50520000Y-32686190D01*
X50520000Y-32686190D02*
X50567619Y-32590952D01*
X50567619Y-32590952D02*
X50567619Y-32305238D01*
X50567619Y-32305238D02*
X50520000Y-32210000D01*
X50520000Y-32210000D02*
X50472380Y-32162381D01*
X51951904Y-44776666D02*
X51190000Y-44776666D01*
X51570952Y-45157619D02*
X51570952Y-44395714D01*
X17852380Y-22259523D02*
X17900000Y-22211904D01*
X17900000Y-22211904D02*
X17947619Y-22069047D01*
X17947619Y-22069047D02*
X17947619Y-21973809D01*
X17947619Y-21973809D02*
X17900000Y-21830952D01*
X17900000Y-21830952D02*
X17804761Y-21735714D01*
X17804761Y-21735714D02*
X17709523Y-21688095D01*
X17709523Y-21688095D02*
X17519047Y-21640476D01*
X17519047Y-21640476D02*
X17376190Y-21640476D01*
X17376190Y-21640476D02*
X17185714Y-21688095D01*
X17185714Y-21688095D02*
X17090476Y-21735714D01*
X17090476Y-21735714D02*
X16995238Y-21830952D01*
X16995238Y-21830952D02*
X16947619Y-21973809D01*
X16947619Y-21973809D02*
X16947619Y-22069047D01*
X16947619Y-22069047D02*
X16995238Y-22211904D01*
X16995238Y-22211904D02*
X17042857Y-22259523D01*
X17947619Y-22688095D02*
X16947619Y-22688095D01*
X16947619Y-22688095D02*
X16947619Y-23069047D01*
X16947619Y-23069047D02*
X16995238Y-23164285D01*
X16995238Y-23164285D02*
X17042857Y-23211904D01*
X17042857Y-23211904D02*
X17138095Y-23259523D01*
X17138095Y-23259523D02*
X17280952Y-23259523D01*
X17280952Y-23259523D02*
X17376190Y-23211904D01*
X17376190Y-23211904D02*
X17423809Y-23164285D01*
X17423809Y-23164285D02*
X17471428Y-23069047D01*
X17471428Y-23069047D02*
X17471428Y-22688095D01*
X16947619Y-23688095D02*
X17757142Y-23688095D01*
X17757142Y-23688095D02*
X17852380Y-23735714D01*
X17852380Y-23735714D02*
X17900000Y-23783333D01*
X17900000Y-23783333D02*
X17947619Y-23878571D01*
X17947619Y-23878571D02*
X17947619Y-24069047D01*
X17947619Y-24069047D02*
X17900000Y-24164285D01*
X17900000Y-24164285D02*
X17852380Y-24211904D01*
X17852380Y-24211904D02*
X17757142Y-24259523D01*
X17757142Y-24259523D02*
X16947619Y-24259523D01*
X51951904Y-29216666D02*
X51190000Y-29216666D01*
X51570952Y-29597619D02*
X51570952Y-28835714D01*
X51498571Y-27913809D02*
X51355714Y-27961428D01*
X51355714Y-27961428D02*
X51308095Y-28009047D01*
X51308095Y-28009047D02*
X51260476Y-28104285D01*
X51260476Y-28104285D02*
X51260476Y-28247142D01*
X51260476Y-28247142D02*
X51308095Y-28342380D01*
X51308095Y-28342380D02*
X51355714Y-28390000D01*
X51355714Y-28390000D02*
X51450952Y-28437619D01*
X51450952Y-28437619D02*
X51831904Y-28437619D01*
X51831904Y-28437619D02*
X51831904Y-27437619D01*
X51831904Y-27437619D02*
X51498571Y-27437619D01*
X51498571Y-27437619D02*
X51403333Y-27485238D01*
X51403333Y-27485238D02*
X51355714Y-27532857D01*
X51355714Y-27532857D02*
X51308095Y-27628095D01*
X51308095Y-27628095D02*
X51308095Y-27723333D01*
X51308095Y-27723333D02*
X51355714Y-27818571D01*
X51355714Y-27818571D02*
X51403333Y-27866190D01*
X51403333Y-27866190D02*
X51498571Y-27913809D01*
X51498571Y-27913809D02*
X51831904Y-27913809D01*
X28257380Y-46234523D02*
X28305000Y-46186904D01*
X28305000Y-46186904D02*
X28352619Y-46044047D01*
X28352619Y-46044047D02*
X28352619Y-45948809D01*
X28352619Y-45948809D02*
X28305000Y-45805952D01*
X28305000Y-45805952D02*
X28209761Y-45710714D01*
X28209761Y-45710714D02*
X28114523Y-45663095D01*
X28114523Y-45663095D02*
X27924047Y-45615476D01*
X27924047Y-45615476D02*
X27781190Y-45615476D01*
X27781190Y-45615476D02*
X27590714Y-45663095D01*
X27590714Y-45663095D02*
X27495476Y-45710714D01*
X27495476Y-45710714D02*
X27400238Y-45805952D01*
X27400238Y-45805952D02*
X27352619Y-45948809D01*
X27352619Y-45948809D02*
X27352619Y-46044047D01*
X27352619Y-46044047D02*
X27400238Y-46186904D01*
X27400238Y-46186904D02*
X27447857Y-46234523D01*
X28352619Y-46663095D02*
X27352619Y-46663095D01*
X27352619Y-46663095D02*
X28066904Y-46996428D01*
X28066904Y-46996428D02*
X27352619Y-47329761D01*
X27352619Y-47329761D02*
X28352619Y-47329761D01*
X28352619Y-47805952D02*
X27352619Y-47805952D01*
X27352619Y-47805952D02*
X27352619Y-48044047D01*
X27352619Y-48044047D02*
X27400238Y-48186904D01*
X27400238Y-48186904D02*
X27495476Y-48282142D01*
X27495476Y-48282142D02*
X27590714Y-48329761D01*
X27590714Y-48329761D02*
X27781190Y-48377380D01*
X27781190Y-48377380D02*
X27924047Y-48377380D01*
X27924047Y-48377380D02*
X28114523Y-48329761D01*
X28114523Y-48329761D02*
X28209761Y-48282142D01*
X28209761Y-48282142D02*
X28305000Y-48186904D01*
X28305000Y-48186904D02*
X28352619Y-48044047D01*
X28352619Y-48044047D02*
X28352619Y-47805952D01*
X49567619Y-45912857D02*
X49567619Y-46531904D01*
X49567619Y-46531904D02*
X49948571Y-46198571D01*
X49948571Y-46198571D02*
X49948571Y-46341428D01*
X49948571Y-46341428D02*
X49996190Y-46436666D01*
X49996190Y-46436666D02*
X50043809Y-46484285D01*
X50043809Y-46484285D02*
X50139047Y-46531904D01*
X50139047Y-46531904D02*
X50377142Y-46531904D01*
X50377142Y-46531904D02*
X50472380Y-46484285D01*
X50472380Y-46484285D02*
X50520000Y-46436666D01*
X50520000Y-46436666D02*
X50567619Y-46341428D01*
X50567619Y-46341428D02*
X50567619Y-46055714D01*
X50567619Y-46055714D02*
X50520000Y-45960476D01*
X50520000Y-45960476D02*
X50472380Y-45912857D01*
X49567619Y-46817619D02*
X50567619Y-47150952D01*
X50567619Y-47150952D02*
X49567619Y-47484285D01*
X49567619Y-47722381D02*
X49567619Y-48341428D01*
X49567619Y-48341428D02*
X49948571Y-48008095D01*
X49948571Y-48008095D02*
X49948571Y-48150952D01*
X49948571Y-48150952D02*
X49996190Y-48246190D01*
X49996190Y-48246190D02*
X50043809Y-48293809D01*
X50043809Y-48293809D02*
X50139047Y-48341428D01*
X50139047Y-48341428D02*
X50377142Y-48341428D01*
X50377142Y-48341428D02*
X50472380Y-48293809D01*
X50472380Y-48293809D02*
X50520000Y-48246190D01*
X50520000Y-48246190D02*
X50567619Y-48150952D01*
X50567619Y-48150952D02*
X50567619Y-47865238D01*
X50567619Y-47865238D02*
X50520000Y-47770000D01*
X50520000Y-47770000D02*
X50472380Y-47722381D01*
X40720000Y-45750476D02*
X40767619Y-45893333D01*
X40767619Y-45893333D02*
X40767619Y-46131428D01*
X40767619Y-46131428D02*
X40720000Y-46226666D01*
X40720000Y-46226666D02*
X40672380Y-46274285D01*
X40672380Y-46274285D02*
X40577142Y-46321904D01*
X40577142Y-46321904D02*
X40481904Y-46321904D01*
X40481904Y-46321904D02*
X40386666Y-46274285D01*
X40386666Y-46274285D02*
X40339047Y-46226666D01*
X40339047Y-46226666D02*
X40291428Y-46131428D01*
X40291428Y-46131428D02*
X40243809Y-45940952D01*
X40243809Y-45940952D02*
X40196190Y-45845714D01*
X40196190Y-45845714D02*
X40148571Y-45798095D01*
X40148571Y-45798095D02*
X40053333Y-45750476D01*
X40053333Y-45750476D02*
X39958095Y-45750476D01*
X39958095Y-45750476D02*
X39862857Y-45798095D01*
X39862857Y-45798095D02*
X39815238Y-45845714D01*
X39815238Y-45845714D02*
X39767619Y-45940952D01*
X39767619Y-45940952D02*
X39767619Y-46179047D01*
X39767619Y-46179047D02*
X39815238Y-46321904D01*
X40767619Y-46750476D02*
X39767619Y-46750476D01*
X39767619Y-46750476D02*
X39767619Y-46988571D01*
X39767619Y-46988571D02*
X39815238Y-47131428D01*
X39815238Y-47131428D02*
X39910476Y-47226666D01*
X39910476Y-47226666D02*
X40005714Y-47274285D01*
X40005714Y-47274285D02*
X40196190Y-47321904D01*
X40196190Y-47321904D02*
X40339047Y-47321904D01*
X40339047Y-47321904D02*
X40529523Y-47274285D01*
X40529523Y-47274285D02*
X40624761Y-47226666D01*
X40624761Y-47226666D02*
X40720000Y-47131428D01*
X40720000Y-47131428D02*
X40767619Y-46988571D01*
X40767619Y-46988571D02*
X40767619Y-46750476D01*
X40481904Y-47702857D02*
X40481904Y-48179047D01*
X40767619Y-47607619D02*
X39767619Y-47940952D01*
X39767619Y-47940952D02*
X40767619Y-48274285D01*
X28257380Y-30674523D02*
X28305000Y-30626904D01*
X28305000Y-30626904D02*
X28352619Y-30484047D01*
X28352619Y-30484047D02*
X28352619Y-30388809D01*
X28352619Y-30388809D02*
X28305000Y-30245952D01*
X28305000Y-30245952D02*
X28209761Y-30150714D01*
X28209761Y-30150714D02*
X28114523Y-30103095D01*
X28114523Y-30103095D02*
X27924047Y-30055476D01*
X27924047Y-30055476D02*
X27781190Y-30055476D01*
X27781190Y-30055476D02*
X27590714Y-30103095D01*
X27590714Y-30103095D02*
X27495476Y-30150714D01*
X27495476Y-30150714D02*
X27400238Y-30245952D01*
X27400238Y-30245952D02*
X27352619Y-30388809D01*
X27352619Y-30388809D02*
X27352619Y-30484047D01*
X27352619Y-30484047D02*
X27400238Y-30626904D01*
X27400238Y-30626904D02*
X27447857Y-30674523D01*
X28352619Y-31103095D02*
X27352619Y-31103095D01*
X27352619Y-31103095D02*
X28066904Y-31436428D01*
X28066904Y-31436428D02*
X27352619Y-31769761D01*
X27352619Y-31769761D02*
X28352619Y-31769761D01*
X28352619Y-32245952D02*
X27352619Y-32245952D01*
X27352619Y-32245952D02*
X27352619Y-32484047D01*
X27352619Y-32484047D02*
X27400238Y-32626904D01*
X27400238Y-32626904D02*
X27495476Y-32722142D01*
X27495476Y-32722142D02*
X27590714Y-32769761D01*
X27590714Y-32769761D02*
X27781190Y-32817380D01*
X27781190Y-32817380D02*
X27924047Y-32817380D01*
X27924047Y-32817380D02*
X28114523Y-32769761D01*
X28114523Y-32769761D02*
X28209761Y-32722142D01*
X28209761Y-32722142D02*
X28305000Y-32626904D01*
X28305000Y-32626904D02*
X28352619Y-32484047D01*
X28352619Y-32484047D02*
X28352619Y-32245952D01*
X20200000Y-45750476D02*
X20247619Y-45893333D01*
X20247619Y-45893333D02*
X20247619Y-46131428D01*
X20247619Y-46131428D02*
X20200000Y-46226666D01*
X20200000Y-46226666D02*
X20152380Y-46274285D01*
X20152380Y-46274285D02*
X20057142Y-46321904D01*
X20057142Y-46321904D02*
X19961904Y-46321904D01*
X19961904Y-46321904D02*
X19866666Y-46274285D01*
X19866666Y-46274285D02*
X19819047Y-46226666D01*
X19819047Y-46226666D02*
X19771428Y-46131428D01*
X19771428Y-46131428D02*
X19723809Y-45940952D01*
X19723809Y-45940952D02*
X19676190Y-45845714D01*
X19676190Y-45845714D02*
X19628571Y-45798095D01*
X19628571Y-45798095D02*
X19533333Y-45750476D01*
X19533333Y-45750476D02*
X19438095Y-45750476D01*
X19438095Y-45750476D02*
X19342857Y-45798095D01*
X19342857Y-45798095D02*
X19295238Y-45845714D01*
X19295238Y-45845714D02*
X19247619Y-45940952D01*
X19247619Y-45940952D02*
X19247619Y-46179047D01*
X19247619Y-46179047D02*
X19295238Y-46321904D01*
X20152380Y-47321904D02*
X20200000Y-47274285D01*
X20200000Y-47274285D02*
X20247619Y-47131428D01*
X20247619Y-47131428D02*
X20247619Y-47036190D01*
X20247619Y-47036190D02*
X20200000Y-46893333D01*
X20200000Y-46893333D02*
X20104761Y-46798095D01*
X20104761Y-46798095D02*
X20009523Y-46750476D01*
X20009523Y-46750476D02*
X19819047Y-46702857D01*
X19819047Y-46702857D02*
X19676190Y-46702857D01*
X19676190Y-46702857D02*
X19485714Y-46750476D01*
X19485714Y-46750476D02*
X19390476Y-46798095D01*
X19390476Y-46798095D02*
X19295238Y-46893333D01*
X19295238Y-46893333D02*
X19247619Y-47036190D01*
X19247619Y-47036190D02*
X19247619Y-47131428D01*
X19247619Y-47131428D02*
X19295238Y-47274285D01*
X19295238Y-47274285D02*
X19342857Y-47321904D01*
X20247619Y-48226666D02*
X20247619Y-47750476D01*
X20247619Y-47750476D02*
X19247619Y-47750476D01*
X41485238Y-30671904D02*
X41437619Y-30576666D01*
X41437619Y-30576666D02*
X41437619Y-30433809D01*
X41437619Y-30433809D02*
X41485238Y-30290952D01*
X41485238Y-30290952D02*
X41580476Y-30195714D01*
X41580476Y-30195714D02*
X41675714Y-30148095D01*
X41675714Y-30148095D02*
X41866190Y-30100476D01*
X41866190Y-30100476D02*
X42009047Y-30100476D01*
X42009047Y-30100476D02*
X42199523Y-30148095D01*
X42199523Y-30148095D02*
X42294761Y-30195714D01*
X42294761Y-30195714D02*
X42390000Y-30290952D01*
X42390000Y-30290952D02*
X42437619Y-30433809D01*
X42437619Y-30433809D02*
X42437619Y-30529047D01*
X42437619Y-30529047D02*
X42390000Y-30671904D01*
X42390000Y-30671904D02*
X42342380Y-30719523D01*
X42342380Y-30719523D02*
X42009047Y-30719523D01*
X42009047Y-30719523D02*
X42009047Y-30529047D01*
X42437619Y-31148095D02*
X41437619Y-31148095D01*
X41437619Y-31148095D02*
X42437619Y-31719523D01*
X42437619Y-31719523D02*
X41437619Y-31719523D01*
X42437619Y-32195714D02*
X41437619Y-32195714D01*
X41437619Y-32195714D02*
X41437619Y-32433809D01*
X41437619Y-32433809D02*
X41485238Y-32576666D01*
X41485238Y-32576666D02*
X41580476Y-32671904D01*
X41580476Y-32671904D02*
X41675714Y-32719523D01*
X41675714Y-32719523D02*
X41866190Y-32767142D01*
X41866190Y-32767142D02*
X42009047Y-32767142D01*
X42009047Y-32767142D02*
X42199523Y-32719523D01*
X42199523Y-32719523D02*
X42294761Y-32671904D01*
X42294761Y-32671904D02*
X42390000Y-32576666D01*
X42390000Y-32576666D02*
X42437619Y-32433809D01*
X42437619Y-32433809D02*
X42437619Y-32195714D01*
X32981904Y-29216666D02*
X32220000Y-29216666D01*
X32600952Y-29597619D02*
X32600952Y-28835714D01*
X41485238Y-46231904D02*
X41437619Y-46136666D01*
X41437619Y-46136666D02*
X41437619Y-45993809D01*
X41437619Y-45993809D02*
X41485238Y-45850952D01*
X41485238Y-45850952D02*
X41580476Y-45755714D01*
X41580476Y-45755714D02*
X41675714Y-45708095D01*
X41675714Y-45708095D02*
X41866190Y-45660476D01*
X41866190Y-45660476D02*
X42009047Y-45660476D01*
X42009047Y-45660476D02*
X42199523Y-45708095D01*
X42199523Y-45708095D02*
X42294761Y-45755714D01*
X42294761Y-45755714D02*
X42390000Y-45850952D01*
X42390000Y-45850952D02*
X42437619Y-45993809D01*
X42437619Y-45993809D02*
X42437619Y-46089047D01*
X42437619Y-46089047D02*
X42390000Y-46231904D01*
X42390000Y-46231904D02*
X42342380Y-46279523D01*
X42342380Y-46279523D02*
X42009047Y-46279523D01*
X42009047Y-46279523D02*
X42009047Y-46089047D01*
X42437619Y-46708095D02*
X41437619Y-46708095D01*
X41437619Y-46708095D02*
X42437619Y-47279523D01*
X42437619Y-47279523D02*
X41437619Y-47279523D01*
X42437619Y-47755714D02*
X41437619Y-47755714D01*
X41437619Y-47755714D02*
X41437619Y-47993809D01*
X41437619Y-47993809D02*
X41485238Y-48136666D01*
X41485238Y-48136666D02*
X41580476Y-48231904D01*
X41580476Y-48231904D02*
X41675714Y-48279523D01*
X41675714Y-48279523D02*
X41866190Y-48327142D01*
X41866190Y-48327142D02*
X42009047Y-48327142D01*
X42009047Y-48327142D02*
X42199523Y-48279523D01*
X42199523Y-48279523D02*
X42294761Y-48231904D01*
X42294761Y-48231904D02*
X42390000Y-48136666D01*
X42390000Y-48136666D02*
X42437619Y-47993809D01*
X42437619Y-47993809D02*
X42437619Y-47755714D01*
X45617380Y-30964523D02*
X45665000Y-30916904D01*
X45665000Y-30916904D02*
X45712619Y-30774047D01*
X45712619Y-30774047D02*
X45712619Y-30678809D01*
X45712619Y-30678809D02*
X45665000Y-30535952D01*
X45665000Y-30535952D02*
X45569761Y-30440714D01*
X45569761Y-30440714D02*
X45474523Y-30393095D01*
X45474523Y-30393095D02*
X45284047Y-30345476D01*
X45284047Y-30345476D02*
X45141190Y-30345476D01*
X45141190Y-30345476D02*
X44950714Y-30393095D01*
X44950714Y-30393095D02*
X44855476Y-30440714D01*
X44855476Y-30440714D02*
X44760238Y-30535952D01*
X44760238Y-30535952D02*
X44712619Y-30678809D01*
X44712619Y-30678809D02*
X44712619Y-30774047D01*
X44712619Y-30774047D02*
X44760238Y-30916904D01*
X44760238Y-30916904D02*
X44807857Y-30964523D01*
X45712619Y-31869285D02*
X45712619Y-31393095D01*
X45712619Y-31393095D02*
X44712619Y-31393095D01*
X45712619Y-32202619D02*
X44712619Y-32202619D01*
X45712619Y-32774047D02*
X45141190Y-32345476D01*
X44712619Y-32774047D02*
X45284047Y-32202619D01*
X47227380Y-46234523D02*
X47275000Y-46186904D01*
X47275000Y-46186904D02*
X47322619Y-46044047D01*
X47322619Y-46044047D02*
X47322619Y-45948809D01*
X47322619Y-45948809D02*
X47275000Y-45805952D01*
X47275000Y-45805952D02*
X47179761Y-45710714D01*
X47179761Y-45710714D02*
X47084523Y-45663095D01*
X47084523Y-45663095D02*
X46894047Y-45615476D01*
X46894047Y-45615476D02*
X46751190Y-45615476D01*
X46751190Y-45615476D02*
X46560714Y-45663095D01*
X46560714Y-45663095D02*
X46465476Y-45710714D01*
X46465476Y-45710714D02*
X46370238Y-45805952D01*
X46370238Y-45805952D02*
X46322619Y-45948809D01*
X46322619Y-45948809D02*
X46322619Y-46044047D01*
X46322619Y-46044047D02*
X46370238Y-46186904D01*
X46370238Y-46186904D02*
X46417857Y-46234523D01*
X47322619Y-46663095D02*
X46322619Y-46663095D01*
X46322619Y-46663095D02*
X47036904Y-46996428D01*
X47036904Y-46996428D02*
X46322619Y-47329761D01*
X46322619Y-47329761D02*
X47322619Y-47329761D01*
X47322619Y-47805952D02*
X46322619Y-47805952D01*
X46322619Y-47805952D02*
X46322619Y-48044047D01*
X46322619Y-48044047D02*
X46370238Y-48186904D01*
X46370238Y-48186904D02*
X46465476Y-48282142D01*
X46465476Y-48282142D02*
X46560714Y-48329761D01*
X46560714Y-48329761D02*
X46751190Y-48377380D01*
X46751190Y-48377380D02*
X46894047Y-48377380D01*
X46894047Y-48377380D02*
X47084523Y-48329761D01*
X47084523Y-48329761D02*
X47179761Y-48282142D01*
X47179761Y-48282142D02*
X47275000Y-48186904D01*
X47275000Y-48186904D02*
X47322619Y-48044047D01*
X47322619Y-48044047D02*
X47322619Y-47805952D01*
X32891904Y-30486666D02*
X32130000Y-30486666D01*
X17852380Y-37819523D02*
X17900000Y-37771904D01*
X17900000Y-37771904D02*
X17947619Y-37629047D01*
X17947619Y-37629047D02*
X17947619Y-37533809D01*
X17947619Y-37533809D02*
X17900000Y-37390952D01*
X17900000Y-37390952D02*
X17804761Y-37295714D01*
X17804761Y-37295714D02*
X17709523Y-37248095D01*
X17709523Y-37248095D02*
X17519047Y-37200476D01*
X17519047Y-37200476D02*
X17376190Y-37200476D01*
X17376190Y-37200476D02*
X17185714Y-37248095D01*
X17185714Y-37248095D02*
X17090476Y-37295714D01*
X17090476Y-37295714D02*
X16995238Y-37390952D01*
X16995238Y-37390952D02*
X16947619Y-37533809D01*
X16947619Y-37533809D02*
X16947619Y-37629047D01*
X16947619Y-37629047D02*
X16995238Y-37771904D01*
X16995238Y-37771904D02*
X17042857Y-37819523D01*
X17947619Y-38248095D02*
X16947619Y-38248095D01*
X16947619Y-38248095D02*
X16947619Y-38629047D01*
X16947619Y-38629047D02*
X16995238Y-38724285D01*
X16995238Y-38724285D02*
X17042857Y-38771904D01*
X17042857Y-38771904D02*
X17138095Y-38819523D01*
X17138095Y-38819523D02*
X17280952Y-38819523D01*
X17280952Y-38819523D02*
X17376190Y-38771904D01*
X17376190Y-38771904D02*
X17423809Y-38724285D01*
X17423809Y-38724285D02*
X17471428Y-38629047D01*
X17471428Y-38629047D02*
X17471428Y-38248095D01*
X16947619Y-39248095D02*
X17757142Y-39248095D01*
X17757142Y-39248095D02*
X17852380Y-39295714D01*
X17852380Y-39295714D02*
X17900000Y-39343333D01*
X17900000Y-39343333D02*
X17947619Y-39438571D01*
X17947619Y-39438571D02*
X17947619Y-39629047D01*
X17947619Y-39629047D02*
X17900000Y-39724285D01*
X17900000Y-39724285D02*
X17852380Y-39771904D01*
X17852380Y-39771904D02*
X17757142Y-39819523D01*
X17757142Y-39819523D02*
X16947619Y-39819523D01*
X39170000Y-45750476D02*
X39217619Y-45893333D01*
X39217619Y-45893333D02*
X39217619Y-46131428D01*
X39217619Y-46131428D02*
X39170000Y-46226666D01*
X39170000Y-46226666D02*
X39122380Y-46274285D01*
X39122380Y-46274285D02*
X39027142Y-46321904D01*
X39027142Y-46321904D02*
X38931904Y-46321904D01*
X38931904Y-46321904D02*
X38836666Y-46274285D01*
X38836666Y-46274285D02*
X38789047Y-46226666D01*
X38789047Y-46226666D02*
X38741428Y-46131428D01*
X38741428Y-46131428D02*
X38693809Y-45940952D01*
X38693809Y-45940952D02*
X38646190Y-45845714D01*
X38646190Y-45845714D02*
X38598571Y-45798095D01*
X38598571Y-45798095D02*
X38503333Y-45750476D01*
X38503333Y-45750476D02*
X38408095Y-45750476D01*
X38408095Y-45750476D02*
X38312857Y-45798095D01*
X38312857Y-45798095D02*
X38265238Y-45845714D01*
X38265238Y-45845714D02*
X38217619Y-45940952D01*
X38217619Y-45940952D02*
X38217619Y-46179047D01*
X38217619Y-46179047D02*
X38265238Y-46321904D01*
X39122380Y-47321904D02*
X39170000Y-47274285D01*
X39170000Y-47274285D02*
X39217619Y-47131428D01*
X39217619Y-47131428D02*
X39217619Y-47036190D01*
X39217619Y-47036190D02*
X39170000Y-46893333D01*
X39170000Y-46893333D02*
X39074761Y-46798095D01*
X39074761Y-46798095D02*
X38979523Y-46750476D01*
X38979523Y-46750476D02*
X38789047Y-46702857D01*
X38789047Y-46702857D02*
X38646190Y-46702857D01*
X38646190Y-46702857D02*
X38455714Y-46750476D01*
X38455714Y-46750476D02*
X38360476Y-46798095D01*
X38360476Y-46798095D02*
X38265238Y-46893333D01*
X38265238Y-46893333D02*
X38217619Y-47036190D01*
X38217619Y-47036190D02*
X38217619Y-47131428D01*
X38217619Y-47131428D02*
X38265238Y-47274285D01*
X38265238Y-47274285D02*
X38312857Y-47321904D01*
X39217619Y-48226666D02*
X39217619Y-47750476D01*
X39217619Y-47750476D02*
X38217619Y-47750476D01*
X45617380Y-46524523D02*
X45665000Y-46476904D01*
X45665000Y-46476904D02*
X45712619Y-46334047D01*
X45712619Y-46334047D02*
X45712619Y-46238809D01*
X45712619Y-46238809D02*
X45665000Y-46095952D01*
X45665000Y-46095952D02*
X45569761Y-46000714D01*
X45569761Y-46000714D02*
X45474523Y-45953095D01*
X45474523Y-45953095D02*
X45284047Y-45905476D01*
X45284047Y-45905476D02*
X45141190Y-45905476D01*
X45141190Y-45905476D02*
X44950714Y-45953095D01*
X44950714Y-45953095D02*
X44855476Y-46000714D01*
X44855476Y-46000714D02*
X44760238Y-46095952D01*
X44760238Y-46095952D02*
X44712619Y-46238809D01*
X44712619Y-46238809D02*
X44712619Y-46334047D01*
X44712619Y-46334047D02*
X44760238Y-46476904D01*
X44760238Y-46476904D02*
X44807857Y-46524523D01*
X45712619Y-47429285D02*
X45712619Y-46953095D01*
X45712619Y-46953095D02*
X44712619Y-46953095D01*
X45712619Y-47762619D02*
X44712619Y-47762619D01*
X45712619Y-48334047D02*
X45141190Y-47905476D01*
X44712619Y-48334047D02*
X45284047Y-47762619D01*
X51861904Y-30486666D02*
X51100000Y-30486666D01*
X20200000Y-30190476D02*
X20247619Y-30333333D01*
X20247619Y-30333333D02*
X20247619Y-30571428D01*
X20247619Y-30571428D02*
X20200000Y-30666666D01*
X20200000Y-30666666D02*
X20152380Y-30714285D01*
X20152380Y-30714285D02*
X20057142Y-30761904D01*
X20057142Y-30761904D02*
X19961904Y-30761904D01*
X19961904Y-30761904D02*
X19866666Y-30714285D01*
X19866666Y-30714285D02*
X19819047Y-30666666D01*
X19819047Y-30666666D02*
X19771428Y-30571428D01*
X19771428Y-30571428D02*
X19723809Y-30380952D01*
X19723809Y-30380952D02*
X19676190Y-30285714D01*
X19676190Y-30285714D02*
X19628571Y-30238095D01*
X19628571Y-30238095D02*
X19533333Y-30190476D01*
X19533333Y-30190476D02*
X19438095Y-30190476D01*
X19438095Y-30190476D02*
X19342857Y-30238095D01*
X19342857Y-30238095D02*
X19295238Y-30285714D01*
X19295238Y-30285714D02*
X19247619Y-30380952D01*
X19247619Y-30380952D02*
X19247619Y-30619047D01*
X19247619Y-30619047D02*
X19295238Y-30761904D01*
X20152380Y-31761904D02*
X20200000Y-31714285D01*
X20200000Y-31714285D02*
X20247619Y-31571428D01*
X20247619Y-31571428D02*
X20247619Y-31476190D01*
X20247619Y-31476190D02*
X20200000Y-31333333D01*
X20200000Y-31333333D02*
X20104761Y-31238095D01*
X20104761Y-31238095D02*
X20009523Y-31190476D01*
X20009523Y-31190476D02*
X19819047Y-31142857D01*
X19819047Y-31142857D02*
X19676190Y-31142857D01*
X19676190Y-31142857D02*
X19485714Y-31190476D01*
X19485714Y-31190476D02*
X19390476Y-31238095D01*
X19390476Y-31238095D02*
X19295238Y-31333333D01*
X19295238Y-31333333D02*
X19247619Y-31476190D01*
X19247619Y-31476190D02*
X19247619Y-31571428D01*
X19247619Y-31571428D02*
X19295238Y-31714285D01*
X19295238Y-31714285D02*
X19342857Y-31761904D01*
X20247619Y-32666666D02*
X20247619Y-32190476D01*
X20247619Y-32190476D02*
X19247619Y-32190476D01*
X48997619Y-31258095D02*
X47997619Y-31258095D01*
X47997619Y-31258095D02*
X47997619Y-31496190D01*
X47997619Y-31496190D02*
X48045238Y-31639047D01*
X48045238Y-31639047D02*
X48140476Y-31734285D01*
X48140476Y-31734285D02*
X48235714Y-31781904D01*
X48235714Y-31781904D02*
X48426190Y-31829523D01*
X48426190Y-31829523D02*
X48569047Y-31829523D01*
X48569047Y-31829523D02*
X48759523Y-31781904D01*
X48759523Y-31781904D02*
X48854761Y-31734285D01*
X48854761Y-31734285D02*
X48950000Y-31639047D01*
X48950000Y-31639047D02*
X48997619Y-31496190D01*
X48997619Y-31496190D02*
X48997619Y-31258095D01*
X47997619Y-32448571D02*
X47997619Y-32543809D01*
X47997619Y-32543809D02*
X48045238Y-32639047D01*
X48045238Y-32639047D02*
X48092857Y-32686666D01*
X48092857Y-32686666D02*
X48188095Y-32734285D01*
X48188095Y-32734285D02*
X48378571Y-32781904D01*
X48378571Y-32781904D02*
X48616666Y-32781904D01*
X48616666Y-32781904D02*
X48807142Y-32734285D01*
X48807142Y-32734285D02*
X48902380Y-32686666D01*
X48902380Y-32686666D02*
X48950000Y-32639047D01*
X48950000Y-32639047D02*
X48997619Y-32543809D01*
X48997619Y-32543809D02*
X48997619Y-32448571D01*
X48997619Y-32448571D02*
X48950000Y-32353333D01*
X48950000Y-32353333D02*
X48902380Y-32305714D01*
X48902380Y-32305714D02*
X48807142Y-32258095D01*
X48807142Y-32258095D02*
X48616666Y-32210476D01*
X48616666Y-32210476D02*
X48378571Y-32210476D01*
X48378571Y-32210476D02*
X48188095Y-32258095D01*
X48188095Y-32258095D02*
X48092857Y-32305714D01*
X48092857Y-32305714D02*
X48045238Y-32353333D01*
X48045238Y-32353333D02*
X47997619Y-32448571D01*
X36822380Y-22259523D02*
X36870000Y-22211904D01*
X36870000Y-22211904D02*
X36917619Y-22069047D01*
X36917619Y-22069047D02*
X36917619Y-21973809D01*
X36917619Y-21973809D02*
X36870000Y-21830952D01*
X36870000Y-21830952D02*
X36774761Y-21735714D01*
X36774761Y-21735714D02*
X36679523Y-21688095D01*
X36679523Y-21688095D02*
X36489047Y-21640476D01*
X36489047Y-21640476D02*
X36346190Y-21640476D01*
X36346190Y-21640476D02*
X36155714Y-21688095D01*
X36155714Y-21688095D02*
X36060476Y-21735714D01*
X36060476Y-21735714D02*
X35965238Y-21830952D01*
X35965238Y-21830952D02*
X35917619Y-21973809D01*
X35917619Y-21973809D02*
X35917619Y-22069047D01*
X35917619Y-22069047D02*
X35965238Y-22211904D01*
X35965238Y-22211904D02*
X36012857Y-22259523D01*
X36917619Y-22688095D02*
X35917619Y-22688095D01*
X35917619Y-22688095D02*
X35917619Y-23069047D01*
X35917619Y-23069047D02*
X35965238Y-23164285D01*
X35965238Y-23164285D02*
X36012857Y-23211904D01*
X36012857Y-23211904D02*
X36108095Y-23259523D01*
X36108095Y-23259523D02*
X36250952Y-23259523D01*
X36250952Y-23259523D02*
X36346190Y-23211904D01*
X36346190Y-23211904D02*
X36393809Y-23164285D01*
X36393809Y-23164285D02*
X36441428Y-23069047D01*
X36441428Y-23069047D02*
X36441428Y-22688095D01*
X35917619Y-23688095D02*
X36727142Y-23688095D01*
X36727142Y-23688095D02*
X36822380Y-23735714D01*
X36822380Y-23735714D02*
X36870000Y-23783333D01*
X36870000Y-23783333D02*
X36917619Y-23878571D01*
X36917619Y-23878571D02*
X36917619Y-24069047D01*
X36917619Y-24069047D02*
X36870000Y-24164285D01*
X36870000Y-24164285D02*
X36822380Y-24211904D01*
X36822380Y-24211904D02*
X36727142Y-24259523D01*
X36727142Y-24259523D02*
X35917619Y-24259523D01*
X51318095Y-48145238D02*
X51413333Y-48097619D01*
X51413333Y-48097619D02*
X51556190Y-48097619D01*
X51556190Y-48097619D02*
X51699047Y-48145238D01*
X51699047Y-48145238D02*
X51794285Y-48240476D01*
X51794285Y-48240476D02*
X51841904Y-48335714D01*
X51841904Y-48335714D02*
X51889523Y-48526190D01*
X51889523Y-48526190D02*
X51889523Y-48669047D01*
X51889523Y-48669047D02*
X51841904Y-48859523D01*
X51841904Y-48859523D02*
X51794285Y-48954761D01*
X51794285Y-48954761D02*
X51699047Y-49050000D01*
X51699047Y-49050000D02*
X51556190Y-49097619D01*
X51556190Y-49097619D02*
X51460952Y-49097619D01*
X51460952Y-49097619D02*
X51318095Y-49050000D01*
X51318095Y-49050000D02*
X51270476Y-49002380D01*
X51270476Y-49002380D02*
X51270476Y-48669047D01*
X51270476Y-48669047D02*
X51460952Y-48669047D01*
X25137619Y-30929523D02*
X24661428Y-30596190D01*
X25137619Y-30358095D02*
X24137619Y-30358095D01*
X24137619Y-30358095D02*
X24137619Y-30739047D01*
X24137619Y-30739047D02*
X24185238Y-30834285D01*
X24185238Y-30834285D02*
X24232857Y-30881904D01*
X24232857Y-30881904D02*
X24328095Y-30929523D01*
X24328095Y-30929523D02*
X24470952Y-30929523D01*
X24470952Y-30929523D02*
X24566190Y-30881904D01*
X24566190Y-30881904D02*
X24613809Y-30834285D01*
X24613809Y-30834285D02*
X24661428Y-30739047D01*
X24661428Y-30739047D02*
X24661428Y-30358095D01*
X25090000Y-31310476D02*
X25137619Y-31453333D01*
X25137619Y-31453333D02*
X25137619Y-31691428D01*
X25137619Y-31691428D02*
X25090000Y-31786666D01*
X25090000Y-31786666D02*
X25042380Y-31834285D01*
X25042380Y-31834285D02*
X24947142Y-31881904D01*
X24947142Y-31881904D02*
X24851904Y-31881904D01*
X24851904Y-31881904D02*
X24756666Y-31834285D01*
X24756666Y-31834285D02*
X24709047Y-31786666D01*
X24709047Y-31786666D02*
X24661428Y-31691428D01*
X24661428Y-31691428D02*
X24613809Y-31500952D01*
X24613809Y-31500952D02*
X24566190Y-31405714D01*
X24566190Y-31405714D02*
X24518571Y-31358095D01*
X24518571Y-31358095D02*
X24423333Y-31310476D01*
X24423333Y-31310476D02*
X24328095Y-31310476D01*
X24328095Y-31310476D02*
X24232857Y-31358095D01*
X24232857Y-31358095D02*
X24185238Y-31405714D01*
X24185238Y-31405714D02*
X24137619Y-31500952D01*
X24137619Y-31500952D02*
X24137619Y-31739047D01*
X24137619Y-31739047D02*
X24185238Y-31881904D01*
X24137619Y-32167619D02*
X24137619Y-32739047D01*
X25137619Y-32453333D02*
X24137619Y-32453333D01*
X51260476Y-42697619D02*
X51593809Y-42221428D01*
X51831904Y-42697619D02*
X51831904Y-41697619D01*
X51831904Y-41697619D02*
X51450952Y-41697619D01*
X51450952Y-41697619D02*
X51355714Y-41745238D01*
X51355714Y-41745238D02*
X51308095Y-41792857D01*
X51308095Y-41792857D02*
X51260476Y-41888095D01*
X51260476Y-41888095D02*
X51260476Y-42030952D01*
X51260476Y-42030952D02*
X51308095Y-42126190D01*
X51308095Y-42126190D02*
X51355714Y-42173809D01*
X51355714Y-42173809D02*
X51450952Y-42221428D01*
X51450952Y-42221428D02*
X51831904Y-42221428D01*
X51318095Y-32585238D02*
X51413333Y-32537619D01*
X51413333Y-32537619D02*
X51556190Y-32537619D01*
X51556190Y-32537619D02*
X51699047Y-32585238D01*
X51699047Y-32585238D02*
X51794285Y-32680476D01*
X51794285Y-32680476D02*
X51841904Y-32775714D01*
X51841904Y-32775714D02*
X51889523Y-32966190D01*
X51889523Y-32966190D02*
X51889523Y-33109047D01*
X51889523Y-33109047D02*
X51841904Y-33299523D01*
X51841904Y-33299523D02*
X51794285Y-33394761D01*
X51794285Y-33394761D02*
X51699047Y-33490000D01*
X51699047Y-33490000D02*
X51556190Y-33537619D01*
X51556190Y-33537619D02*
X51460952Y-33537619D01*
X51460952Y-33537619D02*
X51318095Y-33490000D01*
X51318095Y-33490000D02*
X51270476Y-33442380D01*
X51270476Y-33442380D02*
X51270476Y-33109047D01*
X51270476Y-33109047D02*
X51460952Y-33109047D01*
X32348095Y-32585238D02*
X32443333Y-32537619D01*
X32443333Y-32537619D02*
X32586190Y-32537619D01*
X32586190Y-32537619D02*
X32729047Y-32585238D01*
X32729047Y-32585238D02*
X32824285Y-32680476D01*
X32824285Y-32680476D02*
X32871904Y-32775714D01*
X32871904Y-32775714D02*
X32919523Y-32966190D01*
X32919523Y-32966190D02*
X32919523Y-33109047D01*
X32919523Y-33109047D02*
X32871904Y-33299523D01*
X32871904Y-33299523D02*
X32824285Y-33394761D01*
X32824285Y-33394761D02*
X32729047Y-33490000D01*
X32729047Y-33490000D02*
X32586190Y-33537619D01*
X32586190Y-33537619D02*
X32490952Y-33537619D01*
X32490952Y-33537619D02*
X32348095Y-33490000D01*
X32348095Y-33490000D02*
X32300476Y-33442380D01*
X32300476Y-33442380D02*
X32300476Y-33109047D01*
X32300476Y-33109047D02*
X32490952Y-33109047D01*
X44107619Y-46489523D02*
X43631428Y-46156190D01*
X44107619Y-45918095D02*
X43107619Y-45918095D01*
X43107619Y-45918095D02*
X43107619Y-46299047D01*
X43107619Y-46299047D02*
X43155238Y-46394285D01*
X43155238Y-46394285D02*
X43202857Y-46441904D01*
X43202857Y-46441904D02*
X43298095Y-46489523D01*
X43298095Y-46489523D02*
X43440952Y-46489523D01*
X43440952Y-46489523D02*
X43536190Y-46441904D01*
X43536190Y-46441904D02*
X43583809Y-46394285D01*
X43583809Y-46394285D02*
X43631428Y-46299047D01*
X43631428Y-46299047D02*
X43631428Y-45918095D01*
X44060000Y-46870476D02*
X44107619Y-47013333D01*
X44107619Y-47013333D02*
X44107619Y-47251428D01*
X44107619Y-47251428D02*
X44060000Y-47346666D01*
X44060000Y-47346666D02*
X44012380Y-47394285D01*
X44012380Y-47394285D02*
X43917142Y-47441904D01*
X43917142Y-47441904D02*
X43821904Y-47441904D01*
X43821904Y-47441904D02*
X43726666Y-47394285D01*
X43726666Y-47394285D02*
X43679047Y-47346666D01*
X43679047Y-47346666D02*
X43631428Y-47251428D01*
X43631428Y-47251428D02*
X43583809Y-47060952D01*
X43583809Y-47060952D02*
X43536190Y-46965714D01*
X43536190Y-46965714D02*
X43488571Y-46918095D01*
X43488571Y-46918095D02*
X43393333Y-46870476D01*
X43393333Y-46870476D02*
X43298095Y-46870476D01*
X43298095Y-46870476D02*
X43202857Y-46918095D01*
X43202857Y-46918095D02*
X43155238Y-46965714D01*
X43155238Y-46965714D02*
X43107619Y-47060952D01*
X43107619Y-47060952D02*
X43107619Y-47299047D01*
X43107619Y-47299047D02*
X43155238Y-47441904D01*
X43107619Y-47727619D02*
X43107619Y-48299047D01*
X44107619Y-48013333D02*
X43107619Y-48013333D01*
X30027619Y-46818095D02*
X29027619Y-46818095D01*
X29027619Y-46818095D02*
X29027619Y-47056190D01*
X29027619Y-47056190D02*
X29075238Y-47199047D01*
X29075238Y-47199047D02*
X29170476Y-47294285D01*
X29170476Y-47294285D02*
X29265714Y-47341904D01*
X29265714Y-47341904D02*
X29456190Y-47389523D01*
X29456190Y-47389523D02*
X29599047Y-47389523D01*
X29599047Y-47389523D02*
X29789523Y-47341904D01*
X29789523Y-47341904D02*
X29884761Y-47294285D01*
X29884761Y-47294285D02*
X29980000Y-47199047D01*
X29980000Y-47199047D02*
X30027619Y-47056190D01*
X30027619Y-47056190D02*
X30027619Y-46818095D01*
X29027619Y-48008571D02*
X29027619Y-48103809D01*
X29027619Y-48103809D02*
X29075238Y-48199047D01*
X29075238Y-48199047D02*
X29122857Y-48246666D01*
X29122857Y-48246666D02*
X29218095Y-48294285D01*
X29218095Y-48294285D02*
X29408571Y-48341904D01*
X29408571Y-48341904D02*
X29646666Y-48341904D01*
X29646666Y-48341904D02*
X29837142Y-48294285D01*
X29837142Y-48294285D02*
X29932380Y-48246666D01*
X29932380Y-48246666D02*
X29980000Y-48199047D01*
X29980000Y-48199047D02*
X30027619Y-48103809D01*
X30027619Y-48103809D02*
X30027619Y-48008571D01*
X30027619Y-48008571D02*
X29980000Y-47913333D01*
X29980000Y-47913333D02*
X29932380Y-47865714D01*
X29932380Y-47865714D02*
X29837142Y-47818095D01*
X29837142Y-47818095D02*
X29646666Y-47770476D01*
X29646666Y-47770476D02*
X29408571Y-47770476D01*
X29408571Y-47770476D02*
X29218095Y-47818095D01*
X29218095Y-47818095D02*
X29122857Y-47865714D01*
X29122857Y-47865714D02*
X29075238Y-47913333D01*
X29075238Y-47913333D02*
X29027619Y-48008571D01*
X32528571Y-27913809D02*
X32385714Y-27961428D01*
X32385714Y-27961428D02*
X32338095Y-28009047D01*
X32338095Y-28009047D02*
X32290476Y-28104285D01*
X32290476Y-28104285D02*
X32290476Y-28247142D01*
X32290476Y-28247142D02*
X32338095Y-28342380D01*
X32338095Y-28342380D02*
X32385714Y-28390000D01*
X32385714Y-28390000D02*
X32480952Y-28437619D01*
X32480952Y-28437619D02*
X32861904Y-28437619D01*
X32861904Y-28437619D02*
X32861904Y-27437619D01*
X32861904Y-27437619D02*
X32528571Y-27437619D01*
X32528571Y-27437619D02*
X32433333Y-27485238D01*
X32433333Y-27485238D02*
X32385714Y-27532857D01*
X32385714Y-27532857D02*
X32338095Y-27628095D01*
X32338095Y-27628095D02*
X32338095Y-27723333D01*
X32338095Y-27723333D02*
X32385714Y-27818571D01*
X32385714Y-27818571D02*
X32433333Y-27866190D01*
X32433333Y-27866190D02*
X32528571Y-27913809D01*
X32528571Y-27913809D02*
X32861904Y-27913809D01*
X48997619Y-46818095D02*
X47997619Y-46818095D01*
X47997619Y-46818095D02*
X47997619Y-47056190D01*
X47997619Y-47056190D02*
X48045238Y-47199047D01*
X48045238Y-47199047D02*
X48140476Y-47294285D01*
X48140476Y-47294285D02*
X48235714Y-47341904D01*
X48235714Y-47341904D02*
X48426190Y-47389523D01*
X48426190Y-47389523D02*
X48569047Y-47389523D01*
X48569047Y-47389523D02*
X48759523Y-47341904D01*
X48759523Y-47341904D02*
X48854761Y-47294285D01*
X48854761Y-47294285D02*
X48950000Y-47199047D01*
X48950000Y-47199047D02*
X48997619Y-47056190D01*
X48997619Y-47056190D02*
X48997619Y-46818095D01*
X47997619Y-48008571D02*
X47997619Y-48103809D01*
X47997619Y-48103809D02*
X48045238Y-48199047D01*
X48045238Y-48199047D02*
X48092857Y-48246666D01*
X48092857Y-48246666D02*
X48188095Y-48294285D01*
X48188095Y-48294285D02*
X48378571Y-48341904D01*
X48378571Y-48341904D02*
X48616666Y-48341904D01*
X48616666Y-48341904D02*
X48807142Y-48294285D01*
X48807142Y-48294285D02*
X48902380Y-48246666D01*
X48902380Y-48246666D02*
X48950000Y-48199047D01*
X48950000Y-48199047D02*
X48997619Y-48103809D01*
X48997619Y-48103809D02*
X48997619Y-48008571D01*
X48997619Y-48008571D02*
X48950000Y-47913333D01*
X48950000Y-47913333D02*
X48902380Y-47865714D01*
X48902380Y-47865714D02*
X48807142Y-47818095D01*
X48807142Y-47818095D02*
X48616666Y-47770476D01*
X48616666Y-47770476D02*
X48378571Y-47770476D01*
X48378571Y-47770476D02*
X48188095Y-47818095D01*
X48188095Y-47818095D02*
X48092857Y-47865714D01*
X48092857Y-47865714D02*
X48045238Y-47913333D01*
X48045238Y-47913333D02*
X47997619Y-48008571D01*
M02*
