G04 #@! TF.GenerationSoftware,KiCad,Pcbnew,7.0.2-6a45011f42~172~ubuntu22.04.1*
G04 #@! TF.CreationDate,2023-06-12T10:15:53+08:00*
G04 #@! TF.ProjectId,panel_2_2,70616e65-6c5f-4325-9f32-2e6b69636164,rev?*
G04 #@! TF.SameCoordinates,Original*
G04 #@! TF.FileFunction,Soldermask,Top*
G04 #@! TF.FilePolarity,Negative*
%FSLAX46Y46*%
G04 Gerber Fmt 4.6, Leading zero omitted, Abs format (unit mm)*
G04 Created by KiCad (PCBNEW 7.0.2-6a45011f42~172~ubuntu22.04.1) date 2023-06-12 10:15:53*
%MOMM*%
%LPD*%
G01*
G04 APERTURE LIST*
G04 Aperture macros list*
%AMRoundRect*
0 Rectangle with rounded corners*
0 $1 Rounding radius*
0 $2 $3 $4 $5 $6 $7 $8 $9 X,Y pos of 4 corners*
0 Add a 4 corners polygon primitive as box body*
4,1,4,$2,$3,$4,$5,$6,$7,$8,$9,$2,$3,0*
0 Add four circle primitives for the rounded corners*
1,1,$1+$1,$2,$3*
1,1,$1+$1,$4,$5*
1,1,$1+$1,$6,$7*
1,1,$1+$1,$8,$9*
0 Add four rect primitives between the rounded corners*
20,1,$1+$1,$2,$3,$4,$5,0*
20,1,$1+$1,$4,$5,$6,$7,0*
20,1,$1+$1,$6,$7,$8,$9,0*
20,1,$1+$1,$8,$9,$2,$3,0*%
%AMFreePoly0*
4,1,6,1.000000,0.000000,0.500000,-0.750000,-0.500000,-0.750000,-0.500000,0.750000,0.500000,0.750000,1.000000,0.000000,1.000000,0.000000,$1*%
%AMFreePoly1*
4,1,6,0.500000,-0.750000,-0.650000,-0.750000,-0.150000,0.000000,-0.650000,0.750000,0.500000,0.750000,0.500000,-0.750000,0.500000,-0.750000,$1*%
G04 Aperture macros list end*
%ADD10RoundRect,0.140000X-0.170000X0.140000X-0.170000X-0.140000X0.170000X-0.140000X0.170000X0.140000X0*%
%ADD11RoundRect,0.140000X-0.140000X-0.170000X0.140000X-0.170000X0.140000X0.170000X-0.140000X0.170000X0*%
%ADD12R,1.000000X1.524000*%
%ADD13RoundRect,0.135000X0.185000X-0.135000X0.185000X0.135000X-0.185000X0.135000X-0.185000X-0.135000X0*%
%ADD14O,1.000000X1.000000*%
%ADD15R,1.200000X1.200000*%
%ADD16RoundRect,0.135000X-0.185000X0.135000X-0.185000X-0.135000X0.185000X-0.135000X0.185000X0.135000X0*%
%ADD17R,0.200000X1.100000*%
%ADD18R,1.100000X0.200000*%
%ADD19R,3.100000X3.100000*%
%ADD20RoundRect,0.140000X0.140000X0.170000X-0.140000X0.170000X-0.140000X-0.170000X0.140000X-0.170000X0*%
%ADD21C,1.000000*%
%ADD22R,0.450000X0.450000*%
%ADD23FreePoly0,0.000000*%
%ADD24FreePoly1,0.000000*%
%ADD25RoundRect,0.135000X-0.135000X-0.185000X0.135000X-0.185000X0.135000X0.185000X-0.135000X0.185000X0*%
%ADD26R,1.200000X1.400000*%
%ADD27R,0.280000X0.600000*%
%ADD28R,1.700000X0.300000*%
G04 APERTURE END LIST*
D10*
G04 #@! TO.C,C14*
X52780000Y-39940000D03*
X52780000Y-40900000D03*
G04 #@! TD*
D11*
G04 #@! TO.C,C2*
X50500000Y-25780000D03*
X51460000Y-25780000D03*
G04 #@! TD*
D12*
G04 #@! TO.C,SW1*
X36190000Y-31300000D03*
X39390000Y-31300000D03*
G04 #@! TD*
D13*
G04 #@! TO.C,R1*
X39480000Y-26450000D03*
X39480000Y-25430000D03*
G04 #@! TD*
D14*
G04 #@! TO.C,J8*
X52644248Y-42218121D03*
X52644248Y-43488121D03*
X52644248Y-44758121D03*
X52644248Y-46028121D03*
X52644248Y-47298121D03*
X52644248Y-48568121D03*
G04 #@! TD*
D12*
G04 #@! TO.C,SW1*
X17220000Y-31300000D03*
X20420000Y-31300000D03*
G04 #@! TD*
D15*
G04 #@! TO.C,J2*
X43570000Y-49150000D03*
G04 #@! TD*
D16*
G04 #@! TO.C,R9*
X26280000Y-30710000D03*
X26280000Y-31730000D03*
G04 #@! TD*
D11*
G04 #@! TO.C,C8*
X29960000Y-47320000D03*
X30920000Y-47320000D03*
G04 #@! TD*
D16*
G04 #@! TO.C,R11*
X47810000Y-46270000D03*
X47810000Y-47290000D03*
G04 #@! TD*
D15*
G04 #@! TO.C,J1*
X17440000Y-20760000D03*
G04 #@! TD*
D11*
G04 #@! TO.C,C10*
X50500000Y-42400000D03*
X51460000Y-42400000D03*
G04 #@! TD*
D17*
G04 #@! TO.C,U1*
X46785000Y-37365000D03*
X46385000Y-37365000D03*
X45985000Y-37365000D03*
X45585000Y-37365000D03*
X45185000Y-37365000D03*
X44785000Y-37365000D03*
X44385000Y-37365000D03*
X43985000Y-37365000D03*
X43585000Y-37365000D03*
X43185000Y-37365000D03*
X42785000Y-37365000D03*
X42385000Y-37365000D03*
X41985000Y-37365000D03*
X41585000Y-37365000D03*
D18*
X40635000Y-38315000D03*
X40635000Y-38715000D03*
X40635000Y-39115000D03*
X40635000Y-39515000D03*
X40635000Y-39915000D03*
X40635000Y-40315000D03*
X40635000Y-40715000D03*
X40635000Y-41115000D03*
X40635000Y-41515000D03*
X40635000Y-41915000D03*
X40635000Y-42315000D03*
X40635000Y-42715000D03*
X40635000Y-43115000D03*
X40635000Y-43515000D03*
D17*
X41585000Y-44465000D03*
X41985000Y-44465000D03*
X42385000Y-44465000D03*
X42785000Y-44465000D03*
X43185000Y-44465000D03*
X43585000Y-44465000D03*
X43985000Y-44465000D03*
X44385000Y-44465000D03*
X44785000Y-44465000D03*
X45185000Y-44465000D03*
X45585000Y-44465000D03*
X45985000Y-44465000D03*
X46385000Y-44465000D03*
X46785000Y-44465000D03*
D18*
X47735000Y-43515000D03*
X47735000Y-43115000D03*
X47735000Y-42715000D03*
X47735000Y-42315000D03*
X47735000Y-41915000D03*
X47735000Y-41515000D03*
X47735000Y-41115000D03*
X47735000Y-40715000D03*
X47735000Y-40315000D03*
X47735000Y-39915000D03*
X47735000Y-39515000D03*
X47735000Y-39115000D03*
X47735000Y-38715000D03*
X47735000Y-38315000D03*
D19*
X44185000Y-40915000D03*
G04 #@! TD*
D20*
G04 #@! TO.C,C6*
X30915000Y-45167500D03*
X29955000Y-45167500D03*
G04 #@! TD*
D16*
G04 #@! TO.C,R11*
X28840000Y-30710000D03*
X28840000Y-31730000D03*
G04 #@! TD*
D15*
G04 #@! TO.C,J7*
X19717500Y-33590000D03*
G04 #@! TD*
D21*
G04 #@! TO.C,REF\u002A\u002A*
X55000000Y-3350000D03*
G04 #@! TD*
D15*
G04 #@! TO.C,J6*
X21350000Y-49150000D03*
G04 #@! TD*
D16*
G04 #@! TO.C,R3*
X24755000Y-30110000D03*
X24755000Y-31130000D03*
G04 #@! TD*
D11*
G04 #@! TO.C,C2*
X31530000Y-41340000D03*
X32490000Y-41340000D03*
G04 #@! TD*
D15*
G04 #@! TO.C,J3*
X26227500Y-49150000D03*
G04 #@! TD*
D14*
G04 #@! TO.C,J8*
X33674248Y-26658121D03*
X33674248Y-27928121D03*
X33674248Y-29198121D03*
X33674248Y-30468121D03*
X33674248Y-31738121D03*
X33674248Y-33008121D03*
G04 #@! TD*
D11*
G04 #@! TO.C,C8*
X48930000Y-47320000D03*
X49890000Y-47320000D03*
G04 #@! TD*
G04 #@! TO.C,C10*
X31530000Y-26840000D03*
X32490000Y-26840000D03*
G04 #@! TD*
D13*
G04 #@! TO.C,R2*
X20540000Y-45270000D03*
X20540000Y-44250000D03*
G04 #@! TD*
D15*
G04 #@! TO.C,J5*
X48452500Y-33590000D03*
G04 #@! TD*
D10*
G04 #@! TO.C,C13*
X18250000Y-44185000D03*
X18250000Y-45145000D03*
G04 #@! TD*
D22*
G04 #@! TO.C,U5*
X36070000Y-33125000D03*
X36920000Y-33125000D03*
X36070000Y-33975000D03*
X36920000Y-33975000D03*
G04 #@! TD*
D10*
G04 #@! TO.C,C14*
X52780000Y-24380000D03*
X52780000Y-25340000D03*
G04 #@! TD*
D11*
G04 #@! TO.C,C9*
X29955000Y-46235000D03*
X30915000Y-46235000D03*
G04 #@! TD*
D10*
G04 #@! TO.C,C4*
X19380000Y-28620000D03*
X19380000Y-29580000D03*
G04 #@! TD*
D15*
G04 #@! TO.C,J7*
X19717500Y-49150000D03*
G04 #@! TD*
D23*
G04 #@! TO.C,JP1*
X38135000Y-36570000D03*
D24*
X39585000Y-36570000D03*
G04 #@! TD*
D23*
G04 #@! TO.C,JP1*
X19165000Y-36570000D03*
D24*
X20615000Y-36570000D03*
G04 #@! TD*
D11*
G04 #@! TO.C,C5*
X48925000Y-28540000D03*
X49885000Y-28540000D03*
G04 #@! TD*
D15*
G04 #@! TO.C,J10*
X50080000Y-33590000D03*
G04 #@! TD*
G04 #@! TO.C,J1*
X17440000Y-36320000D03*
G04 #@! TD*
D14*
G04 #@! TO.C,J8*
X33674248Y-42218121D03*
X33674248Y-43488121D03*
X33674248Y-44758121D03*
X33674248Y-46028121D03*
X33674248Y-47298121D03*
X33674248Y-48568121D03*
G04 #@! TD*
D15*
G04 #@! TO.C,J10*
X50080000Y-49150000D03*
G04 #@! TD*
D16*
G04 #@! TO.C,R10*
X46530000Y-30710000D03*
X46530000Y-31730000D03*
G04 #@! TD*
D12*
G04 #@! TO.C,SW1*
X17220000Y-46860000D03*
X20420000Y-46860000D03*
G04 #@! TD*
D22*
G04 #@! TO.C,U5*
X17100000Y-48685000D03*
X17950000Y-48685000D03*
X17100000Y-49535000D03*
X17950000Y-49535000D03*
G04 #@! TD*
D16*
G04 #@! TO.C,R10*
X46530000Y-46270000D03*
X46530000Y-47290000D03*
G04 #@! TD*
G04 #@! TO.C,R3*
X43725000Y-30110000D03*
X43725000Y-31130000D03*
G04 #@! TD*
D15*
G04 #@! TO.C,J4*
X27855000Y-33590000D03*
G04 #@! TD*
D20*
G04 #@! TO.C,C7*
X23740000Y-45670000D03*
X22780000Y-45670000D03*
G04 #@! TD*
D15*
G04 #@! TO.C,J2*
X24600000Y-33590000D03*
G04 #@! TD*
D11*
G04 #@! TO.C,C9*
X48925000Y-30675000D03*
X49885000Y-30675000D03*
G04 #@! TD*
D15*
G04 #@! TO.C,J4*
X46825000Y-49150000D03*
G04 #@! TD*
G04 #@! TO.C,J1*
X36410000Y-36320000D03*
G04 #@! TD*
D11*
G04 #@! TO.C,C12*
X44835000Y-36025000D03*
X45795000Y-36025000D03*
G04 #@! TD*
D15*
G04 #@! TO.C,J7*
X38687500Y-33590000D03*
G04 #@! TD*
D11*
G04 #@! TO.C,C5*
X48925000Y-44100000D03*
X49885000Y-44100000D03*
G04 #@! TD*
D15*
G04 #@! TO.C,J3*
X26227500Y-33590000D03*
G04 #@! TD*
D11*
G04 #@! TO.C,C10*
X31530000Y-42400000D03*
X32490000Y-42400000D03*
G04 #@! TD*
D10*
G04 #@! TO.C,C14*
X33810000Y-39940000D03*
X33810000Y-40900000D03*
G04 #@! TD*
D12*
G04 #@! TO.C,SW1*
X36190000Y-46860000D03*
X39390000Y-46860000D03*
G04 #@! TD*
D25*
G04 #@! TO.C,R12*
X21950000Y-36040000D03*
X22970000Y-36040000D03*
G04 #@! TD*
D26*
G04 #@! TO.C,X1*
X38152000Y-26133000D03*
X38152000Y-23933000D03*
X36402000Y-23933000D03*
X36402000Y-26133000D03*
G04 #@! TD*
D20*
G04 #@! TO.C,C7*
X42710000Y-45670000D03*
X41750000Y-45670000D03*
G04 #@! TD*
D15*
G04 #@! TO.C,J9*
X41942500Y-33590000D03*
G04 #@! TD*
D27*
G04 #@! TO.C,U2*
X32685000Y-36895500D03*
X32185000Y-36895500D03*
X31685000Y-36895500D03*
X31185000Y-36895500D03*
X31185000Y-39909500D03*
X31685000Y-39909500D03*
X32185000Y-39909500D03*
X32685000Y-39909500D03*
D28*
X31935000Y-38402500D03*
G04 #@! TD*
D17*
G04 #@! TO.C,U1*
X46785000Y-21805000D03*
X46385000Y-21805000D03*
X45985000Y-21805000D03*
X45585000Y-21805000D03*
X45185000Y-21805000D03*
X44785000Y-21805000D03*
X44385000Y-21805000D03*
X43985000Y-21805000D03*
X43585000Y-21805000D03*
X43185000Y-21805000D03*
X42785000Y-21805000D03*
X42385000Y-21805000D03*
X41985000Y-21805000D03*
X41585000Y-21805000D03*
D18*
X40635000Y-22755000D03*
X40635000Y-23155000D03*
X40635000Y-23555000D03*
X40635000Y-23955000D03*
X40635000Y-24355000D03*
X40635000Y-24755000D03*
X40635000Y-25155000D03*
X40635000Y-25555000D03*
X40635000Y-25955000D03*
X40635000Y-26355000D03*
X40635000Y-26755000D03*
X40635000Y-27155000D03*
X40635000Y-27555000D03*
X40635000Y-27955000D03*
D17*
X41585000Y-28905000D03*
X41985000Y-28905000D03*
X42385000Y-28905000D03*
X42785000Y-28905000D03*
X43185000Y-28905000D03*
X43585000Y-28905000D03*
X43985000Y-28905000D03*
X44385000Y-28905000D03*
X44785000Y-28905000D03*
X45185000Y-28905000D03*
X45585000Y-28905000D03*
X45985000Y-28905000D03*
X46385000Y-28905000D03*
X46785000Y-28905000D03*
D18*
X47735000Y-27955000D03*
X47735000Y-27555000D03*
X47735000Y-27155000D03*
X47735000Y-26755000D03*
X47735000Y-26355000D03*
X47735000Y-25955000D03*
X47735000Y-25555000D03*
X47735000Y-25155000D03*
X47735000Y-24755000D03*
X47735000Y-24355000D03*
X47735000Y-23955000D03*
X47735000Y-23555000D03*
X47735000Y-23155000D03*
X47735000Y-22755000D03*
D19*
X44185000Y-25355000D03*
G04 #@! TD*
D10*
G04 #@! TO.C,C13*
X18250000Y-28625000D03*
X18250000Y-29585000D03*
G04 #@! TD*
D21*
G04 #@! TO.C,REF\u002A\u002A*
X15000000Y-3350000D03*
G04 #@! TD*
D22*
G04 #@! TO.C,U5*
X36070000Y-48685000D03*
X36920000Y-48685000D03*
X36070000Y-49535000D03*
X36920000Y-49535000D03*
G04 #@! TD*
D15*
G04 #@! TO.C,J9*
X41942500Y-49150000D03*
G04 #@! TD*
D13*
G04 #@! TO.C,R2*
X39510000Y-45270000D03*
X39510000Y-44250000D03*
G04 #@! TD*
G04 #@! TO.C,R1*
X39480000Y-42010000D03*
X39480000Y-40990000D03*
G04 #@! TD*
D15*
G04 #@! TO.C,J5*
X48452500Y-49150000D03*
G04 #@! TD*
D11*
G04 #@! TO.C,C11*
X28630000Y-20460000D03*
X29590000Y-20460000D03*
G04 #@! TD*
D16*
G04 #@! TO.C,R5*
X52780000Y-35960000D03*
X52780000Y-36980000D03*
G04 #@! TD*
G04 #@! TO.C,R5*
X33810000Y-20400000D03*
X33810000Y-21420000D03*
G04 #@! TD*
D23*
G04 #@! TO.C,JP1*
X38135000Y-21010000D03*
D24*
X39585000Y-21010000D03*
G04 #@! TD*
D17*
G04 #@! TO.C,U1*
X27815000Y-37365000D03*
X27415000Y-37365000D03*
X27015000Y-37365000D03*
X26615000Y-37365000D03*
X26215000Y-37365000D03*
X25815000Y-37365000D03*
X25415000Y-37365000D03*
X25015000Y-37365000D03*
X24615000Y-37365000D03*
X24215000Y-37365000D03*
X23815000Y-37365000D03*
X23415000Y-37365000D03*
X23015000Y-37365000D03*
X22615000Y-37365000D03*
D18*
X21665000Y-38315000D03*
X21665000Y-38715000D03*
X21665000Y-39115000D03*
X21665000Y-39515000D03*
X21665000Y-39915000D03*
X21665000Y-40315000D03*
X21665000Y-40715000D03*
X21665000Y-41115000D03*
X21665000Y-41515000D03*
X21665000Y-41915000D03*
X21665000Y-42315000D03*
X21665000Y-42715000D03*
X21665000Y-43115000D03*
X21665000Y-43515000D03*
D17*
X22615000Y-44465000D03*
X23015000Y-44465000D03*
X23415000Y-44465000D03*
X23815000Y-44465000D03*
X24215000Y-44465000D03*
X24615000Y-44465000D03*
X25015000Y-44465000D03*
X25415000Y-44465000D03*
X25815000Y-44465000D03*
X26215000Y-44465000D03*
X26615000Y-44465000D03*
X27015000Y-44465000D03*
X27415000Y-44465000D03*
X27815000Y-44465000D03*
D18*
X28765000Y-43515000D03*
X28765000Y-43115000D03*
X28765000Y-42715000D03*
X28765000Y-42315000D03*
X28765000Y-41915000D03*
X28765000Y-41515000D03*
X28765000Y-41115000D03*
X28765000Y-40715000D03*
X28765000Y-40315000D03*
X28765000Y-39915000D03*
X28765000Y-39515000D03*
X28765000Y-39115000D03*
X28765000Y-38715000D03*
X28765000Y-38315000D03*
D19*
X25215000Y-40915000D03*
G04 #@! TD*
D16*
G04 #@! TO.C,R11*
X28840000Y-46270000D03*
X28840000Y-47290000D03*
G04 #@! TD*
D15*
G04 #@! TO.C,J2*
X24600000Y-49150000D03*
G04 #@! TD*
D13*
G04 #@! TO.C,R6*
X52780000Y-38965000D03*
X52780000Y-37945000D03*
G04 #@! TD*
D11*
G04 #@! TO.C,C1*
X17840000Y-27570000D03*
X18800000Y-27570000D03*
G04 #@! TD*
D10*
G04 #@! TO.C,C13*
X37220000Y-44185000D03*
X37220000Y-45145000D03*
G04 #@! TD*
D20*
G04 #@! TO.C,C7*
X42710000Y-30110000D03*
X41750000Y-30110000D03*
G04 #@! TD*
D17*
G04 #@! TO.C,U1*
X27815000Y-21805000D03*
X27415000Y-21805000D03*
X27015000Y-21805000D03*
X26615000Y-21805000D03*
X26215000Y-21805000D03*
X25815000Y-21805000D03*
X25415000Y-21805000D03*
X25015000Y-21805000D03*
X24615000Y-21805000D03*
X24215000Y-21805000D03*
X23815000Y-21805000D03*
X23415000Y-21805000D03*
X23015000Y-21805000D03*
X22615000Y-21805000D03*
D18*
X21665000Y-22755000D03*
X21665000Y-23155000D03*
X21665000Y-23555000D03*
X21665000Y-23955000D03*
X21665000Y-24355000D03*
X21665000Y-24755000D03*
X21665000Y-25155000D03*
X21665000Y-25555000D03*
X21665000Y-25955000D03*
X21665000Y-26355000D03*
X21665000Y-26755000D03*
X21665000Y-27155000D03*
X21665000Y-27555000D03*
X21665000Y-27955000D03*
D17*
X22615000Y-28905000D03*
X23015000Y-28905000D03*
X23415000Y-28905000D03*
X23815000Y-28905000D03*
X24215000Y-28905000D03*
X24615000Y-28905000D03*
X25015000Y-28905000D03*
X25415000Y-28905000D03*
X25815000Y-28905000D03*
X26215000Y-28905000D03*
X26615000Y-28905000D03*
X27015000Y-28905000D03*
X27415000Y-28905000D03*
X27815000Y-28905000D03*
D18*
X28765000Y-27955000D03*
X28765000Y-27555000D03*
X28765000Y-27155000D03*
X28765000Y-26755000D03*
X28765000Y-26355000D03*
X28765000Y-25955000D03*
X28765000Y-25555000D03*
X28765000Y-25155000D03*
X28765000Y-24755000D03*
X28765000Y-24355000D03*
X28765000Y-23955000D03*
X28765000Y-23555000D03*
X28765000Y-23155000D03*
X28765000Y-22755000D03*
D19*
X25215000Y-25355000D03*
G04 #@! TD*
D27*
G04 #@! TO.C,U2*
X51655000Y-36895500D03*
X51155000Y-36895500D03*
X50655000Y-36895500D03*
X50155000Y-36895500D03*
X50155000Y-39909500D03*
X50655000Y-39909500D03*
X51155000Y-39909500D03*
X51655000Y-39909500D03*
D28*
X50905000Y-38402500D03*
G04 #@! TD*
D16*
G04 #@! TO.C,R9*
X45250000Y-30710000D03*
X45250000Y-31730000D03*
G04 #@! TD*
D11*
G04 #@! TO.C,C1*
X36810000Y-27570000D03*
X37770000Y-27570000D03*
G04 #@! TD*
D20*
G04 #@! TO.C,C6*
X30915000Y-29607500D03*
X29955000Y-29607500D03*
G04 #@! TD*
D15*
G04 #@! TO.C,J10*
X31110000Y-33590000D03*
G04 #@! TD*
D23*
G04 #@! TO.C,JP1*
X19165000Y-21010000D03*
D24*
X20615000Y-21010000D03*
G04 #@! TD*
D20*
G04 #@! TO.C,C7*
X23740000Y-30110000D03*
X22780000Y-30110000D03*
G04 #@! TD*
D11*
G04 #@! TO.C,C11*
X28630000Y-36020000D03*
X29590000Y-36020000D03*
G04 #@! TD*
D10*
G04 #@! TO.C,C14*
X33810000Y-24380000D03*
X33810000Y-25340000D03*
G04 #@! TD*
D20*
G04 #@! TO.C,C6*
X49885000Y-45167500D03*
X48925000Y-45167500D03*
G04 #@! TD*
D16*
G04 #@! TO.C,R9*
X45250000Y-46270000D03*
X45250000Y-47290000D03*
G04 #@! TD*
D11*
G04 #@! TO.C,C9*
X29955000Y-30675000D03*
X30915000Y-30675000D03*
G04 #@! TD*
D26*
G04 #@! TO.C,X1*
X19182000Y-41693000D03*
X19182000Y-39493000D03*
X17432000Y-39493000D03*
X17432000Y-41693000D03*
G04 #@! TD*
D15*
G04 #@! TO.C,J6*
X40320000Y-33590000D03*
G04 #@! TD*
D11*
G04 #@! TO.C,C9*
X48925000Y-46235000D03*
X49885000Y-46235000D03*
G04 #@! TD*
G04 #@! TO.C,C3*
X36830000Y-38060000D03*
X37790000Y-38060000D03*
G04 #@! TD*
G04 #@! TO.C,C11*
X47600000Y-20460000D03*
X48560000Y-20460000D03*
G04 #@! TD*
D15*
G04 #@! TO.C,J2*
X43570000Y-33590000D03*
G04 #@! TD*
D16*
G04 #@! TO.C,R5*
X33810000Y-35960000D03*
X33810000Y-36980000D03*
G04 #@! TD*
D15*
G04 #@! TO.C,J1*
X36410000Y-20760000D03*
G04 #@! TD*
D13*
G04 #@! TO.C,R1*
X20510000Y-42010000D03*
X20510000Y-40990000D03*
G04 #@! TD*
D15*
G04 #@! TO.C,J9*
X22972500Y-33590000D03*
G04 #@! TD*
G04 #@! TO.C,J5*
X29482500Y-33590000D03*
G04 #@! TD*
D25*
G04 #@! TO.C,R12*
X40920000Y-20480000D03*
X41940000Y-20480000D03*
G04 #@! TD*
D14*
G04 #@! TO.C,J8*
X52644248Y-26658121D03*
X52644248Y-27928121D03*
X52644248Y-29198121D03*
X52644248Y-30468121D03*
X52644248Y-31738121D03*
X52644248Y-33008121D03*
G04 #@! TD*
D13*
G04 #@! TO.C,R6*
X33810000Y-23405000D03*
X33810000Y-22385000D03*
G04 #@! TD*
D15*
G04 #@! TO.C,J9*
X22972500Y-49150000D03*
G04 #@! TD*
D11*
G04 #@! TO.C,C3*
X36830000Y-22500000D03*
X37790000Y-22500000D03*
G04 #@! TD*
G04 #@! TO.C,C5*
X29955000Y-44100000D03*
X30915000Y-44100000D03*
G04 #@! TD*
G04 #@! TO.C,C12*
X25865000Y-36025000D03*
X26825000Y-36025000D03*
G04 #@! TD*
G04 #@! TO.C,C1*
X17840000Y-43130000D03*
X18800000Y-43130000D03*
G04 #@! TD*
D16*
G04 #@! TO.C,R10*
X27560000Y-46270000D03*
X27560000Y-47290000D03*
G04 #@! TD*
D22*
G04 #@! TO.C,U5*
X17100000Y-33125000D03*
X17950000Y-33125000D03*
X17100000Y-33975000D03*
X17950000Y-33975000D03*
G04 #@! TD*
D21*
G04 #@! TO.C,REF\u002A\u002A*
X15000000Y-66650000D03*
G04 #@! TD*
D11*
G04 #@! TO.C,C2*
X31530000Y-25780000D03*
X32490000Y-25780000D03*
G04 #@! TD*
G04 #@! TO.C,C2*
X50500000Y-41340000D03*
X51460000Y-41340000D03*
G04 #@! TD*
D15*
G04 #@! TO.C,J6*
X21350000Y-33590000D03*
G04 #@! TD*
D27*
G04 #@! TO.C,U2*
X51655000Y-21335500D03*
X51155000Y-21335500D03*
X50655000Y-21335500D03*
X50155000Y-21335500D03*
X50155000Y-24349500D03*
X50655000Y-24349500D03*
X51155000Y-24349500D03*
X51655000Y-24349500D03*
D28*
X50905000Y-22842500D03*
G04 #@! TD*
D15*
G04 #@! TO.C,J4*
X46825000Y-33590000D03*
G04 #@! TD*
D13*
G04 #@! TO.C,R6*
X52780000Y-23405000D03*
X52780000Y-22385000D03*
G04 #@! TD*
D15*
G04 #@! TO.C,J3*
X45197500Y-33590000D03*
G04 #@! TD*
D11*
G04 #@! TO.C,C3*
X17860000Y-22500000D03*
X18820000Y-22500000D03*
G04 #@! TD*
D13*
G04 #@! TO.C,R2*
X20540000Y-29710000D03*
X20540000Y-28690000D03*
G04 #@! TD*
D16*
G04 #@! TO.C,R11*
X47810000Y-30710000D03*
X47810000Y-31730000D03*
G04 #@! TD*
G04 #@! TO.C,R5*
X52780000Y-20400000D03*
X52780000Y-21420000D03*
G04 #@! TD*
D15*
G04 #@! TO.C,J4*
X27855000Y-49150000D03*
G04 #@! TD*
G04 #@! TO.C,J10*
X31110000Y-49150000D03*
G04 #@! TD*
D10*
G04 #@! TO.C,C4*
X38350000Y-44180000D03*
X38350000Y-45140000D03*
G04 #@! TD*
G04 #@! TO.C,C13*
X37220000Y-28625000D03*
X37220000Y-29585000D03*
G04 #@! TD*
D13*
G04 #@! TO.C,R6*
X33810000Y-38965000D03*
X33810000Y-37945000D03*
G04 #@! TD*
G04 #@! TO.C,R1*
X20510000Y-26450000D03*
X20510000Y-25430000D03*
G04 #@! TD*
D27*
G04 #@! TO.C,U2*
X32685000Y-21335500D03*
X32185000Y-21335500D03*
X31685000Y-21335500D03*
X31185000Y-21335500D03*
X31185000Y-24349500D03*
X31685000Y-24349500D03*
X32185000Y-24349500D03*
X32685000Y-24349500D03*
D28*
X31935000Y-22842500D03*
G04 #@! TD*
D16*
G04 #@! TO.C,R3*
X24755000Y-45670000D03*
X24755000Y-46690000D03*
G04 #@! TD*
D25*
G04 #@! TO.C,R12*
X21950000Y-20480000D03*
X22970000Y-20480000D03*
G04 #@! TD*
D11*
G04 #@! TO.C,C1*
X36810000Y-43130000D03*
X37770000Y-43130000D03*
G04 #@! TD*
D26*
G04 #@! TO.C,X1*
X19182000Y-26133000D03*
X19182000Y-23933000D03*
X17432000Y-23933000D03*
X17432000Y-26133000D03*
G04 #@! TD*
G04 #@! TO.C,X1*
X38152000Y-41693000D03*
X38152000Y-39493000D03*
X36402000Y-39493000D03*
X36402000Y-41693000D03*
G04 #@! TD*
D15*
G04 #@! TO.C,J6*
X40320000Y-49150000D03*
G04 #@! TD*
D20*
G04 #@! TO.C,C6*
X49885000Y-29607500D03*
X48925000Y-29607500D03*
G04 #@! TD*
D11*
G04 #@! TO.C,C8*
X29960000Y-31760000D03*
X30920000Y-31760000D03*
G04 #@! TD*
D10*
G04 #@! TO.C,C4*
X38350000Y-28620000D03*
X38350000Y-29580000D03*
G04 #@! TD*
G04 #@! TO.C,C4*
X19380000Y-44180000D03*
X19380000Y-45140000D03*
G04 #@! TD*
D11*
G04 #@! TO.C,C8*
X48930000Y-31760000D03*
X49890000Y-31760000D03*
G04 #@! TD*
G04 #@! TO.C,C3*
X17860000Y-38060000D03*
X18820000Y-38060000D03*
G04 #@! TD*
D25*
G04 #@! TO.C,R12*
X40920000Y-36040000D03*
X41940000Y-36040000D03*
G04 #@! TD*
D15*
G04 #@! TO.C,J7*
X38687500Y-49150000D03*
G04 #@! TD*
D16*
G04 #@! TO.C,R10*
X27560000Y-30710000D03*
X27560000Y-31730000D03*
G04 #@! TD*
D11*
G04 #@! TO.C,C12*
X44835000Y-20465000D03*
X45795000Y-20465000D03*
G04 #@! TD*
G04 #@! TO.C,C11*
X47600000Y-36020000D03*
X48560000Y-36020000D03*
G04 #@! TD*
G04 #@! TO.C,C12*
X25865000Y-20465000D03*
X26825000Y-20465000D03*
G04 #@! TD*
D13*
G04 #@! TO.C,R2*
X39510000Y-29710000D03*
X39510000Y-28690000D03*
G04 #@! TD*
D16*
G04 #@! TO.C,R3*
X43725000Y-45670000D03*
X43725000Y-46690000D03*
G04 #@! TD*
D15*
G04 #@! TO.C,J5*
X29482500Y-49150000D03*
G04 #@! TD*
D11*
G04 #@! TO.C,C10*
X50500000Y-26840000D03*
X51460000Y-26840000D03*
G04 #@! TD*
G04 #@! TO.C,C5*
X29955000Y-28540000D03*
X30915000Y-28540000D03*
G04 #@! TD*
D16*
G04 #@! TO.C,R9*
X26280000Y-46270000D03*
X26280000Y-47290000D03*
G04 #@! TD*
D15*
G04 #@! TO.C,J3*
X45197500Y-49150000D03*
G04 #@! TD*
M02*
