G04 #@! TF.GenerationSoftware,KiCad,Pcbnew,7.0.2-6a45011f42~172~ubuntu22.04.1*
G04 #@! TF.CreationDate,2023-06-12T10:15:53+08:00*
G04 #@! TF.ProjectId,panel_2_2,70616e65-6c5f-4325-9f32-2e6b69636164,rev?*
G04 #@! TF.SameCoordinates,Original*
G04 #@! TF.FileFunction,Other,Comment*
%FSLAX46Y46*%
G04 Gerber Fmt 4.6, Leading zero omitted, Abs format (unit mm)*
G04 Created by KiCad (PCBNEW 7.0.2-6a45011f42~172~ubuntu22.04.1) date 2023-06-12 10:15:53*
%MOMM*%
%LPD*%
G01*
G04 APERTURE LIST*
%ADD10C,0.400000*%
G04 APERTURE END LIST*
D10*
X-3000000Y-35000000D02*
X73000000Y-35000000D01*
X16035000Y3000000D02*
X16035000Y-73000000D01*
X34995000Y3000000D02*
X34995000Y-73000000D01*
X53975000Y3000000D02*
X53975000Y-73000000D01*
X-3000000Y-50560000D02*
X73000000Y-50560000D01*
X-3000000Y-19440000D02*
X73000000Y-19440000D01*
X76190476Y-33925238D02*
X76857142Y-35925238D01*
X76857142Y-35925238D02*
X77523809Y-33925238D01*
X78190476Y-35163333D02*
X79714286Y-35163333D01*
X81809523Y-35734761D02*
X81714285Y-35830000D01*
X81714285Y-35830000D02*
X81428571Y-35925238D01*
X81428571Y-35925238D02*
X81238095Y-35925238D01*
X81238095Y-35925238D02*
X80952380Y-35830000D01*
X80952380Y-35830000D02*
X80761904Y-35639523D01*
X80761904Y-35639523D02*
X80666666Y-35449047D01*
X80666666Y-35449047D02*
X80571428Y-35068095D01*
X80571428Y-35068095D02*
X80571428Y-34782380D01*
X80571428Y-34782380D02*
X80666666Y-34401428D01*
X80666666Y-34401428D02*
X80761904Y-34210952D01*
X80761904Y-34210952D02*
X80952380Y-34020476D01*
X80952380Y-34020476D02*
X81238095Y-33925238D01*
X81238095Y-33925238D02*
X81428571Y-33925238D01*
X81428571Y-33925238D02*
X81714285Y-34020476D01*
X81714285Y-34020476D02*
X81809523Y-34115714D01*
X82666666Y-33925238D02*
X82666666Y-35544285D01*
X82666666Y-35544285D02*
X82761904Y-35734761D01*
X82761904Y-35734761D02*
X82857142Y-35830000D01*
X82857142Y-35830000D02*
X83047618Y-35925238D01*
X83047618Y-35925238D02*
X83428571Y-35925238D01*
X83428571Y-35925238D02*
X83619047Y-35830000D01*
X83619047Y-35830000D02*
X83714285Y-35734761D01*
X83714285Y-35734761D02*
X83809523Y-35544285D01*
X83809523Y-35544285D02*
X83809523Y-33925238D01*
X84476190Y-33925238D02*
X85619047Y-33925238D01*
X85047618Y-35925238D02*
X85047618Y-33925238D01*
X33920238Y6190477D02*
X35920238Y6857143D01*
X35920238Y6857143D02*
X33920238Y7523810D01*
X35158333Y8190477D02*
X35158333Y9714286D01*
X35729761Y11809524D02*
X35825000Y11714286D01*
X35825000Y11714286D02*
X35920238Y11428572D01*
X35920238Y11428572D02*
X35920238Y11238096D01*
X35920238Y11238096D02*
X35825000Y10952381D01*
X35825000Y10952381D02*
X35634523Y10761905D01*
X35634523Y10761905D02*
X35444047Y10666667D01*
X35444047Y10666667D02*
X35063095Y10571429D01*
X35063095Y10571429D02*
X34777380Y10571429D01*
X34777380Y10571429D02*
X34396428Y10666667D01*
X34396428Y10666667D02*
X34205952Y10761905D01*
X34205952Y10761905D02*
X34015476Y10952381D01*
X34015476Y10952381D02*
X33920238Y11238096D01*
X33920238Y11238096D02*
X33920238Y11428572D01*
X33920238Y11428572D02*
X34015476Y11714286D01*
X34015476Y11714286D02*
X34110714Y11809524D01*
X33920238Y12666667D02*
X35539285Y12666667D01*
X35539285Y12666667D02*
X35729761Y12761905D01*
X35729761Y12761905D02*
X35825000Y12857143D01*
X35825000Y12857143D02*
X35920238Y13047619D01*
X35920238Y13047619D02*
X35920238Y13428572D01*
X35920238Y13428572D02*
X35825000Y13619048D01*
X35825000Y13619048D02*
X35729761Y13714286D01*
X35729761Y13714286D02*
X35539285Y13809524D01*
X35539285Y13809524D02*
X33920238Y13809524D01*
X33920238Y14476191D02*
X33920238Y15619048D01*
X35920238Y15047619D02*
X33920238Y15047619D01*
X76190476Y-49485238D02*
X76857142Y-51485238D01*
X76857142Y-51485238D02*
X77523809Y-49485238D01*
X78190476Y-50723333D02*
X79714286Y-50723333D01*
X81809523Y-51294761D02*
X81714285Y-51390000D01*
X81714285Y-51390000D02*
X81428571Y-51485238D01*
X81428571Y-51485238D02*
X81238095Y-51485238D01*
X81238095Y-51485238D02*
X80952380Y-51390000D01*
X80952380Y-51390000D02*
X80761904Y-51199523D01*
X80761904Y-51199523D02*
X80666666Y-51009047D01*
X80666666Y-51009047D02*
X80571428Y-50628095D01*
X80571428Y-50628095D02*
X80571428Y-50342380D01*
X80571428Y-50342380D02*
X80666666Y-49961428D01*
X80666666Y-49961428D02*
X80761904Y-49770952D01*
X80761904Y-49770952D02*
X80952380Y-49580476D01*
X80952380Y-49580476D02*
X81238095Y-49485238D01*
X81238095Y-49485238D02*
X81428571Y-49485238D01*
X81428571Y-49485238D02*
X81714285Y-49580476D01*
X81714285Y-49580476D02*
X81809523Y-49675714D01*
X82666666Y-49485238D02*
X82666666Y-51104285D01*
X82666666Y-51104285D02*
X82761904Y-51294761D01*
X82761904Y-51294761D02*
X82857142Y-51390000D01*
X82857142Y-51390000D02*
X83047618Y-51485238D01*
X83047618Y-51485238D02*
X83428571Y-51485238D01*
X83428571Y-51485238D02*
X83619047Y-51390000D01*
X83619047Y-51390000D02*
X83714285Y-51294761D01*
X83714285Y-51294761D02*
X83809523Y-51104285D01*
X83809523Y-51104285D02*
X83809523Y-49485238D01*
X84476190Y-49485238D02*
X85619047Y-49485238D01*
X85047618Y-51485238D02*
X85047618Y-49485238D01*
X52900238Y6190477D02*
X54900238Y6857143D01*
X54900238Y6857143D02*
X52900238Y7523810D01*
X54138333Y8190477D02*
X54138333Y9714286D01*
X54709761Y11809524D02*
X54805000Y11714286D01*
X54805000Y11714286D02*
X54900238Y11428572D01*
X54900238Y11428572D02*
X54900238Y11238096D01*
X54900238Y11238096D02*
X54805000Y10952381D01*
X54805000Y10952381D02*
X54614523Y10761905D01*
X54614523Y10761905D02*
X54424047Y10666667D01*
X54424047Y10666667D02*
X54043095Y10571429D01*
X54043095Y10571429D02*
X53757380Y10571429D01*
X53757380Y10571429D02*
X53376428Y10666667D01*
X53376428Y10666667D02*
X53185952Y10761905D01*
X53185952Y10761905D02*
X52995476Y10952381D01*
X52995476Y10952381D02*
X52900238Y11238096D01*
X52900238Y11238096D02*
X52900238Y11428572D01*
X52900238Y11428572D02*
X52995476Y11714286D01*
X52995476Y11714286D02*
X53090714Y11809524D01*
X52900238Y12666667D02*
X54519285Y12666667D01*
X54519285Y12666667D02*
X54709761Y12761905D01*
X54709761Y12761905D02*
X54805000Y12857143D01*
X54805000Y12857143D02*
X54900238Y13047619D01*
X54900238Y13047619D02*
X54900238Y13428572D01*
X54900238Y13428572D02*
X54805000Y13619048D01*
X54805000Y13619048D02*
X54709761Y13714286D01*
X54709761Y13714286D02*
X54519285Y13809524D01*
X54519285Y13809524D02*
X52900238Y13809524D01*
X52900238Y14476191D02*
X52900238Y15619048D01*
X54900238Y15047619D02*
X52900238Y15047619D01*
X76190476Y-18365238D02*
X76857142Y-20365238D01*
X76857142Y-20365238D02*
X77523809Y-18365238D01*
X78190476Y-19603333D02*
X79714286Y-19603333D01*
X81809523Y-20174761D02*
X81714285Y-20270000D01*
X81714285Y-20270000D02*
X81428571Y-20365238D01*
X81428571Y-20365238D02*
X81238095Y-20365238D01*
X81238095Y-20365238D02*
X80952380Y-20270000D01*
X80952380Y-20270000D02*
X80761904Y-20079523D01*
X80761904Y-20079523D02*
X80666666Y-19889047D01*
X80666666Y-19889047D02*
X80571428Y-19508095D01*
X80571428Y-19508095D02*
X80571428Y-19222380D01*
X80571428Y-19222380D02*
X80666666Y-18841428D01*
X80666666Y-18841428D02*
X80761904Y-18650952D01*
X80761904Y-18650952D02*
X80952380Y-18460476D01*
X80952380Y-18460476D02*
X81238095Y-18365238D01*
X81238095Y-18365238D02*
X81428571Y-18365238D01*
X81428571Y-18365238D02*
X81714285Y-18460476D01*
X81714285Y-18460476D02*
X81809523Y-18555714D01*
X82666666Y-18365238D02*
X82666666Y-19984285D01*
X82666666Y-19984285D02*
X82761904Y-20174761D01*
X82761904Y-20174761D02*
X82857142Y-20270000D01*
X82857142Y-20270000D02*
X83047618Y-20365238D01*
X83047618Y-20365238D02*
X83428571Y-20365238D01*
X83428571Y-20365238D02*
X83619047Y-20270000D01*
X83619047Y-20270000D02*
X83714285Y-20174761D01*
X83714285Y-20174761D02*
X83809523Y-19984285D01*
X83809523Y-19984285D02*
X83809523Y-18365238D01*
X84476190Y-18365238D02*
X85619047Y-18365238D01*
X85047618Y-20365238D02*
X85047618Y-18365238D01*
X14960238Y6190477D02*
X16960238Y6857143D01*
X16960238Y6857143D02*
X14960238Y7523810D01*
X16198333Y8190477D02*
X16198333Y9714286D01*
X16769761Y11809524D02*
X16865000Y11714286D01*
X16865000Y11714286D02*
X16960238Y11428572D01*
X16960238Y11428572D02*
X16960238Y11238096D01*
X16960238Y11238096D02*
X16865000Y10952381D01*
X16865000Y10952381D02*
X16674523Y10761905D01*
X16674523Y10761905D02*
X16484047Y10666667D01*
X16484047Y10666667D02*
X16103095Y10571429D01*
X16103095Y10571429D02*
X15817380Y10571429D01*
X15817380Y10571429D02*
X15436428Y10666667D01*
X15436428Y10666667D02*
X15245952Y10761905D01*
X15245952Y10761905D02*
X15055476Y10952381D01*
X15055476Y10952381D02*
X14960238Y11238096D01*
X14960238Y11238096D02*
X14960238Y11428572D01*
X14960238Y11428572D02*
X15055476Y11714286D01*
X15055476Y11714286D02*
X15150714Y11809524D01*
X14960238Y12666667D02*
X16579285Y12666667D01*
X16579285Y12666667D02*
X16769761Y12761905D01*
X16769761Y12761905D02*
X16865000Y12857143D01*
X16865000Y12857143D02*
X16960238Y13047619D01*
X16960238Y13047619D02*
X16960238Y13428572D01*
X16960238Y13428572D02*
X16865000Y13619048D01*
X16865000Y13619048D02*
X16769761Y13714286D01*
X16769761Y13714286D02*
X16579285Y13809524D01*
X16579285Y13809524D02*
X14960238Y13809524D01*
X14960238Y14476191D02*
X14960238Y15619048D01*
X16960238Y15047619D02*
X14960238Y15047619D01*
M02*
