G04 #@! TF.GenerationSoftware,KiCad,Pcbnew,7.0.2-6a45011f42~172~ubuntu22.04.1*
G04 #@! TF.CreationDate,2023-06-12T10:15:53+08:00*
G04 #@! TF.ProjectId,panel_2_2,70616e65-6c5f-4325-9f32-2e6b69636164,rev?*
G04 #@! TF.SameCoordinates,Original*
G04 #@! TF.FileFunction,Copper,L2,Inr*
G04 #@! TF.FilePolarity,Positive*
%FSLAX46Y46*%
G04 Gerber Fmt 4.6, Leading zero omitted, Abs format (unit mm)*
G04 Created by KiCad (PCBNEW 7.0.2-6a45011f42~172~ubuntu22.04.1) date 2023-06-12 10:15:53*
%MOMM*%
%LPD*%
G01*
G04 APERTURE LIST*
G04 #@! TA.AperFunction,ComponentPad*
%ADD10O,1.000000X1.000000*%
G04 #@! TD*
G04 #@! TA.AperFunction,ComponentPad*
%ADD11R,1.200000X1.200000*%
G04 #@! TD*
G04 #@! TA.AperFunction,ViaPad*
%ADD12C,0.450000*%
G04 #@! TD*
G04 #@! TA.AperFunction,Conductor*
%ADD13C,0.357600*%
G04 #@! TD*
G04 #@! TA.AperFunction,Conductor*
%ADD14C,0.200000*%
G04 #@! TD*
G04 APERTURE END LIST*
D10*
G04 #@! TO.N,Board_3-RST*
G04 #@! TO.C,J8*
X52644248Y-42218121D03*
G04 #@! TO.N,Board_3-BOOT*
X52644248Y-43488121D03*
G04 #@! TO.N,Board_3-D+*
X52644248Y-44758121D03*
G04 #@! TO.N,Board_3-D-*
X52644248Y-46028121D03*
G04 #@! TO.N,Board_3-+3V3*
X52644248Y-47298121D03*
G04 #@! TO.N,Board_3-GND*
X52644248Y-48568121D03*
G04 #@! TD*
D11*
G04 #@! TO.N,Board_3-NS_RST*
G04 #@! TO.C,J2*
X43570000Y-49150000D03*
G04 #@! TD*
G04 #@! TO.N,Board_0-NS_CPU*
G04 #@! TO.C,J1*
X17440000Y-20760000D03*
G04 #@! TD*
G04 #@! TO.N,Board_0-NS_SCL*
G04 #@! TO.C,J7*
X19717500Y-33590000D03*
G04 #@! TD*
G04 #@! TO.N,Board_2-NS_SDA*
G04 #@! TO.C,J6*
X21350000Y-49150000D03*
G04 #@! TD*
G04 #@! TO.N,Board_2-NS_CLK*
G04 #@! TO.C,J3*
X26227500Y-49150000D03*
G04 #@! TD*
D10*
G04 #@! TO.N,Board_0-RST*
G04 #@! TO.C,J8*
X33674248Y-26658121D03*
G04 #@! TO.N,Board_0-BOOT*
X33674248Y-27928121D03*
G04 #@! TO.N,Board_0-D+*
X33674248Y-29198121D03*
G04 #@! TO.N,Board_0-D-*
X33674248Y-30468121D03*
G04 #@! TO.N,Board_0-+3V3*
X33674248Y-31738121D03*
G04 #@! TO.N,Board_0-GND*
X33674248Y-33008121D03*
G04 #@! TD*
D11*
G04 #@! TO.N,Board_1-NS_D0*
G04 #@! TO.C,J5*
X48452500Y-33590000D03*
G04 #@! TD*
G04 #@! TO.N,Board_2-NS_SCL*
G04 #@! TO.C,J7*
X19717500Y-49150000D03*
G04 #@! TD*
G04 #@! TO.N,Board_1-+3V3*
G04 #@! TO.C,J10*
X50080000Y-33590000D03*
G04 #@! TD*
G04 #@! TO.N,Board_2-NS_CPU*
G04 #@! TO.C,J1*
X17440000Y-36320000D03*
G04 #@! TD*
D10*
G04 #@! TO.N,Board_2-RST*
G04 #@! TO.C,J8*
X33674248Y-42218121D03*
G04 #@! TO.N,Board_2-BOOT*
X33674248Y-43488121D03*
G04 #@! TO.N,Board_2-D+*
X33674248Y-44758121D03*
G04 #@! TO.N,Board_2-D-*
X33674248Y-46028121D03*
G04 #@! TO.N,Board_2-+3V3*
X33674248Y-47298121D03*
G04 #@! TO.N,Board_2-GND*
X33674248Y-48568121D03*
G04 #@! TD*
D11*
G04 #@! TO.N,Board_3-+3V3*
G04 #@! TO.C,J10*
X50080000Y-49150000D03*
G04 #@! TD*
G04 #@! TO.N,Board_0-NS_CMD*
G04 #@! TO.C,J4*
X27855000Y-33590000D03*
G04 #@! TD*
G04 #@! TO.N,Board_0-NS_RST*
G04 #@! TO.C,J2*
X24600000Y-33590000D03*
G04 #@! TD*
G04 #@! TO.N,Board_3-NS_CMD*
G04 #@! TO.C,J4*
X46825000Y-49150000D03*
G04 #@! TD*
G04 #@! TO.N,Board_3-NS_CPU*
G04 #@! TO.C,J1*
X36410000Y-36320000D03*
G04 #@! TD*
G04 #@! TO.N,Board_1-NS_SCL*
G04 #@! TO.C,J7*
X38687500Y-33590000D03*
G04 #@! TD*
G04 #@! TO.N,Board_0-NS_CLK*
G04 #@! TO.C,J3*
X26227500Y-33590000D03*
G04 #@! TD*
G04 #@! TO.N,Board_1-GND*
G04 #@! TO.C,J9*
X41942500Y-33590000D03*
G04 #@! TD*
G04 #@! TO.N,Board_3-GND*
G04 #@! TO.C,J9*
X41942500Y-49150000D03*
G04 #@! TD*
G04 #@! TO.N,Board_3-NS_D0*
G04 #@! TO.C,J5*
X48452500Y-49150000D03*
G04 #@! TD*
G04 #@! TO.N,Board_2-NS_RST*
G04 #@! TO.C,J2*
X24600000Y-49150000D03*
G04 #@! TD*
G04 #@! TO.N,Board_0-+3V3*
G04 #@! TO.C,J10*
X31110000Y-33590000D03*
G04 #@! TD*
G04 #@! TO.N,Board_1-NS_SDA*
G04 #@! TO.C,J6*
X40320000Y-33590000D03*
G04 #@! TD*
G04 #@! TO.N,Board_1-NS_RST*
G04 #@! TO.C,J2*
X43570000Y-33590000D03*
G04 #@! TD*
G04 #@! TO.N,Board_1-NS_CPU*
G04 #@! TO.C,J1*
X36410000Y-20760000D03*
G04 #@! TD*
G04 #@! TO.N,Board_0-GND*
G04 #@! TO.C,J9*
X22972500Y-33590000D03*
G04 #@! TD*
G04 #@! TO.N,Board_0-NS_D0*
G04 #@! TO.C,J5*
X29482500Y-33590000D03*
G04 #@! TD*
D10*
G04 #@! TO.N,Board_1-RST*
G04 #@! TO.C,J8*
X52644248Y-26658121D03*
G04 #@! TO.N,Board_1-BOOT*
X52644248Y-27928121D03*
G04 #@! TO.N,Board_1-D+*
X52644248Y-29198121D03*
G04 #@! TO.N,Board_1-D-*
X52644248Y-30468121D03*
G04 #@! TO.N,Board_1-+3V3*
X52644248Y-31738121D03*
G04 #@! TO.N,Board_1-GND*
X52644248Y-33008121D03*
G04 #@! TD*
D11*
G04 #@! TO.N,Board_2-GND*
G04 #@! TO.C,J9*
X22972500Y-49150000D03*
G04 #@! TD*
G04 #@! TO.N,Board_0-NS_SDA*
G04 #@! TO.C,J6*
X21350000Y-33590000D03*
G04 #@! TD*
G04 #@! TO.N,Board_1-NS_CMD*
G04 #@! TO.C,J4*
X46825000Y-33590000D03*
G04 #@! TD*
G04 #@! TO.N,Board_1-NS_CLK*
G04 #@! TO.C,J3*
X45197500Y-33590000D03*
G04 #@! TD*
G04 #@! TO.N,Board_2-NS_CMD*
G04 #@! TO.C,J4*
X27855000Y-49150000D03*
G04 #@! TD*
G04 #@! TO.N,Board_2-+3V3*
G04 #@! TO.C,J10*
X31110000Y-49150000D03*
G04 #@! TD*
G04 #@! TO.N,Board_3-NS_SDA*
G04 #@! TO.C,J6*
X40320000Y-49150000D03*
G04 #@! TD*
G04 #@! TO.N,Board_3-NS_SCL*
G04 #@! TO.C,J7*
X38687500Y-49150000D03*
G04 #@! TD*
G04 #@! TO.N,Board_2-NS_D0*
G04 #@! TO.C,J5*
X29482500Y-49150000D03*
G04 #@! TD*
G04 #@! TO.N,Board_3-NS_CLK*
G04 #@! TO.C,J3*
X45197500Y-49150000D03*
G04 #@! TD*
D12*
G04 #@! TO.N,Board_0-+1V1*
X20300000Y-27710000D03*
X27650000Y-27155000D03*
X22860000Y-26435000D03*
G04 #@! TO.N,Board_0-+3V3*
X21490000Y-30070000D03*
X28765000Y-28740000D03*
X17190000Y-28780000D03*
X22850000Y-25380000D03*
X24965000Y-20740000D03*
X23740000Y-31030000D03*
X28630000Y-21500000D03*
X30620000Y-26410000D03*
X32820000Y-23520000D03*
G04 #@! TO.N,Board_0-BOOT*
X32880000Y-20310000D03*
X18800000Y-31310000D03*
G04 #@! TO.N,Board_0-GND*
X26760000Y-27640000D03*
X21730000Y-21860000D03*
X31950000Y-22200000D03*
G04 #@! TO.N,Board_0-NS_SCL*
X23070000Y-23650000D03*
G04 #@! TO.N,Board_0-NS_SDA*
X24010000Y-22970000D03*
G04 #@! TO.N,Board_0-RST*
X21610000Y-28680000D03*
G04 #@! TO.N,Board_1-+1V1*
X41830000Y-26435000D03*
X39270000Y-27710000D03*
X46620000Y-27155000D03*
G04 #@! TO.N,Board_1-+3V3*
X47735000Y-28740000D03*
X51790000Y-23520000D03*
X40460000Y-30070000D03*
X36160000Y-28780000D03*
X42710000Y-31030000D03*
X43935000Y-20740000D03*
X41820000Y-25380000D03*
X47600000Y-21500000D03*
X49590000Y-26410000D03*
G04 #@! TO.N,Board_1-BOOT*
X37770000Y-31310000D03*
X51850000Y-20310000D03*
G04 #@! TO.N,Board_1-GND*
X45730000Y-27640000D03*
X50920000Y-22200000D03*
X40700000Y-21860000D03*
G04 #@! TO.N,Board_1-NS_SCL*
X42040000Y-23650000D03*
G04 #@! TO.N,Board_1-NS_SDA*
X42980000Y-22970000D03*
G04 #@! TO.N,Board_1-RST*
X40580000Y-28680000D03*
G04 #@! TO.N,Board_2-+1V1*
X20300000Y-43270000D03*
X27650000Y-42715000D03*
X22860000Y-41995000D03*
G04 #@! TO.N,Board_2-+3V3*
X17190000Y-44340000D03*
X32820000Y-39080000D03*
X28765000Y-44300000D03*
X30620000Y-41970000D03*
X23740000Y-46590000D03*
X22850000Y-40940000D03*
X28630000Y-37060000D03*
X24965000Y-36300000D03*
X21490000Y-45630000D03*
G04 #@! TO.N,Board_2-BOOT*
X18800000Y-46870000D03*
X32880000Y-35870000D03*
G04 #@! TO.N,Board_2-GND*
X31950000Y-37760000D03*
X26760000Y-43200000D03*
X21730000Y-37420000D03*
G04 #@! TO.N,Board_2-NS_SCL*
X23070000Y-39210000D03*
G04 #@! TO.N,Board_2-NS_SDA*
X24010000Y-38530000D03*
G04 #@! TO.N,Board_2-RST*
X21610000Y-44240000D03*
G04 #@! TO.N,Board_3-+1V1*
X41830000Y-41995000D03*
X46620000Y-42715000D03*
X39270000Y-43270000D03*
G04 #@! TO.N,Board_3-+3V3*
X36160000Y-44340000D03*
X42710000Y-46590000D03*
X47600000Y-37060000D03*
X43935000Y-36300000D03*
X40460000Y-45630000D03*
X51790000Y-39080000D03*
X41820000Y-40940000D03*
X49590000Y-41970000D03*
X47735000Y-44300000D03*
G04 #@! TO.N,Board_3-BOOT*
X37770000Y-46870000D03*
X51850000Y-35870000D03*
G04 #@! TO.N,Board_3-GND*
X45730000Y-43200000D03*
X40700000Y-37420000D03*
X50920000Y-37760000D03*
G04 #@! TO.N,Board_3-NS_SCL*
X42040000Y-39210000D03*
G04 #@! TO.N,Board_3-NS_SDA*
X42980000Y-38530000D03*
G04 #@! TO.N,Board_3-RST*
X40580000Y-44240000D03*
G04 #@! TD*
D13*
G04 #@! TO.N,Board_0-+1V1*
X22865000Y-26440000D02*
X26935000Y-26440000D01*
D14*
X21575000Y-26435000D02*
X22860000Y-26435000D01*
D13*
X26935000Y-26440000D02*
X27650000Y-27155000D01*
D14*
X20300000Y-27710000D02*
X21575000Y-26435000D01*
D13*
X22860000Y-26435000D02*
X22865000Y-26440000D01*
D14*
G04 #@! TO.N,Board_0-RST*
X28710000Y-27820000D02*
X32520000Y-27820000D01*
X21610000Y-28680000D02*
X27850000Y-28680000D01*
X27850000Y-28680000D02*
X28710000Y-27820000D01*
X32520000Y-27820000D02*
X33674248Y-26665752D01*
X33674248Y-26665752D02*
X33674248Y-26658121D01*
G04 #@! TO.N,Board_1-+1V1*
X39270000Y-27710000D02*
X40545000Y-26435000D01*
D13*
X41835000Y-26440000D02*
X45905000Y-26440000D01*
D14*
X40545000Y-26435000D02*
X41830000Y-26435000D01*
D13*
X41830000Y-26435000D02*
X41835000Y-26440000D01*
X45905000Y-26440000D02*
X46620000Y-27155000D01*
D14*
G04 #@! TO.N,Board_1-RST*
X47680000Y-27820000D02*
X51490000Y-27820000D01*
X52644248Y-26665752D02*
X52644248Y-26658121D01*
X40580000Y-28680000D02*
X46820000Y-28680000D01*
X51490000Y-27820000D02*
X52644248Y-26665752D01*
X46820000Y-28680000D02*
X47680000Y-27820000D01*
D13*
G04 #@! TO.N,Board_2-+1V1*
X22865000Y-42000000D02*
X26935000Y-42000000D01*
D14*
X20300000Y-43270000D02*
X21575000Y-41995000D01*
D13*
X26935000Y-42000000D02*
X27650000Y-42715000D01*
D14*
X21575000Y-41995000D02*
X22860000Y-41995000D01*
D13*
X22860000Y-41995000D02*
X22865000Y-42000000D01*
D14*
G04 #@! TO.N,Board_2-RST*
X28710000Y-43380000D02*
X32520000Y-43380000D01*
X21610000Y-44240000D02*
X27850000Y-44240000D01*
X32520000Y-43380000D02*
X33674248Y-42225752D01*
X33674248Y-42225752D02*
X33674248Y-42218121D01*
X27850000Y-44240000D02*
X28710000Y-43380000D01*
G04 #@! TO.N,Board_3-+1V1*
X40545000Y-41995000D02*
X41830000Y-41995000D01*
D13*
X41830000Y-41995000D02*
X41835000Y-42000000D01*
X45905000Y-42000000D02*
X46620000Y-42715000D01*
X41835000Y-42000000D02*
X45905000Y-42000000D01*
D14*
X39270000Y-43270000D02*
X40545000Y-41995000D01*
G04 #@! TO.N,Board_3-RST*
X40580000Y-44240000D02*
X46820000Y-44240000D01*
X47680000Y-43380000D02*
X51490000Y-43380000D01*
X52644248Y-42225752D02*
X52644248Y-42218121D01*
X46820000Y-44240000D02*
X47680000Y-43380000D01*
X51490000Y-43380000D02*
X52644248Y-42225752D01*
G04 #@! TD*
G04 #@! TA.AperFunction,Conductor*
G04 #@! TO.N,Board_2-GND*
G36*
X34902121Y-35060002D02*
G01*
X34948614Y-35113658D01*
X34960000Y-35166000D01*
X34960000Y-50393933D01*
X34939998Y-50462054D01*
X34886342Y-50508547D01*
X34833933Y-50519933D01*
X16205851Y-50510066D01*
X16137741Y-50490028D01*
X16091277Y-50436348D01*
X16079918Y-50384149D01*
X16079514Y-49759897D01*
X19017000Y-49759897D01*
X19018832Y-49769105D01*
X19022831Y-49789213D01*
X19045043Y-49822457D01*
X19078287Y-49844669D01*
X19107601Y-49850500D01*
X20327398Y-49850499D01*
X20356713Y-49844669D01*
X20389957Y-49822457D01*
X20412169Y-49789213D01*
X20412169Y-49789212D01*
X20426093Y-49768374D01*
X20426265Y-49768489D01*
X20443071Y-49736356D01*
X20504763Y-49701219D01*
X20575658Y-49705014D01*
X20633247Y-49746535D01*
X20647142Y-49776958D01*
X20655331Y-49789213D01*
X20677543Y-49822457D01*
X20710787Y-49844669D01*
X20740101Y-49850500D01*
X21959898Y-49850499D01*
X21989213Y-49844669D01*
X22022457Y-49822457D01*
X22044669Y-49789213D01*
X22050500Y-49759899D01*
X22050500Y-49759897D01*
X23899500Y-49759897D01*
X23901332Y-49769105D01*
X23905331Y-49789213D01*
X23927543Y-49822457D01*
X23960787Y-49844669D01*
X23990101Y-49850500D01*
X25209898Y-49850499D01*
X25239213Y-49844669D01*
X25272457Y-49822457D01*
X25294669Y-49789213D01*
X25294669Y-49789212D01*
X25308593Y-49768374D01*
X25311781Y-49770504D01*
X25323041Y-49748957D01*
X25384721Y-49713799D01*
X25455617Y-49717570D01*
X25513221Y-49759071D01*
X25517807Y-49769105D01*
X25518906Y-49768372D01*
X25532830Y-49789212D01*
X25532831Y-49789213D01*
X25555043Y-49822457D01*
X25588287Y-49844669D01*
X25617601Y-49850500D01*
X26837398Y-49850499D01*
X26866713Y-49844669D01*
X26899957Y-49822457D01*
X26922169Y-49789213D01*
X26922169Y-49789212D01*
X26936093Y-49768374D01*
X26939281Y-49770504D01*
X26950541Y-49748957D01*
X27012221Y-49713799D01*
X27083117Y-49717570D01*
X27140721Y-49759071D01*
X27145307Y-49769105D01*
X27146406Y-49768372D01*
X27160330Y-49789212D01*
X27160331Y-49789213D01*
X27182543Y-49822457D01*
X27215787Y-49844669D01*
X27245101Y-49850500D01*
X28464898Y-49850499D01*
X28494213Y-49844669D01*
X28527457Y-49822457D01*
X28549669Y-49789213D01*
X28549669Y-49789212D01*
X28563593Y-49768374D01*
X28566781Y-49770504D01*
X28578041Y-49748957D01*
X28639721Y-49713799D01*
X28710617Y-49717570D01*
X28768221Y-49759071D01*
X28772807Y-49769105D01*
X28773906Y-49768372D01*
X28787830Y-49789212D01*
X28787831Y-49789213D01*
X28810043Y-49822457D01*
X28843287Y-49844669D01*
X28872601Y-49850500D01*
X30092398Y-49850499D01*
X30121713Y-49844669D01*
X30154957Y-49822457D01*
X30177169Y-49789213D01*
X30177169Y-49789212D01*
X30191093Y-49768374D01*
X30194281Y-49770504D01*
X30205541Y-49748957D01*
X30267221Y-49713799D01*
X30338117Y-49717570D01*
X30395721Y-49759071D01*
X30400307Y-49769105D01*
X30401406Y-49768372D01*
X30415330Y-49789212D01*
X30415331Y-49789213D01*
X30437543Y-49822457D01*
X30470787Y-49844669D01*
X30500101Y-49850500D01*
X31719898Y-49850499D01*
X31749213Y-49844669D01*
X31782457Y-49822457D01*
X31804669Y-49789213D01*
X31810500Y-49759899D01*
X31810499Y-48822121D01*
X32915564Y-48822121D01*
X32948911Y-48917423D01*
X33044826Y-49070071D01*
X33172298Y-49197543D01*
X33324942Y-49293456D01*
X33420248Y-49326803D01*
X33420248Y-48822121D01*
X32915564Y-48822121D01*
X31810499Y-48822121D01*
X31810499Y-48540102D01*
X31804669Y-48510787D01*
X31782457Y-48477543D01*
X31749213Y-48455331D01*
X31749212Y-48455330D01*
X31719899Y-48449500D01*
X30500102Y-48449500D01*
X30470787Y-48455331D01*
X30437543Y-48477543D01*
X30401407Y-48531626D01*
X30398212Y-48529491D01*
X30386907Y-48551095D01*
X30325206Y-48586217D01*
X30254312Y-48582405D01*
X30196733Y-48540870D01*
X30192182Y-48530900D01*
X30191094Y-48531628D01*
X30177169Y-48510787D01*
X30154957Y-48477543D01*
X30121713Y-48455331D01*
X30121712Y-48455330D01*
X30092399Y-48449500D01*
X28872602Y-48449500D01*
X28843287Y-48455331D01*
X28810043Y-48477543D01*
X28773907Y-48531626D01*
X28770712Y-48529491D01*
X28759407Y-48551095D01*
X28697706Y-48586217D01*
X28626812Y-48582405D01*
X28569233Y-48540870D01*
X28564682Y-48530900D01*
X28563594Y-48531628D01*
X28549669Y-48510787D01*
X28527457Y-48477543D01*
X28494213Y-48455331D01*
X28494212Y-48455330D01*
X28464899Y-48449500D01*
X27245102Y-48449500D01*
X27215787Y-48455331D01*
X27182543Y-48477543D01*
X27146407Y-48531626D01*
X27143212Y-48529491D01*
X27131907Y-48551095D01*
X27070206Y-48586217D01*
X26999312Y-48582405D01*
X26941733Y-48540870D01*
X26937182Y-48530900D01*
X26936094Y-48531628D01*
X26922169Y-48510787D01*
X26899957Y-48477543D01*
X26866713Y-48455331D01*
X26866712Y-48455330D01*
X26837399Y-48449500D01*
X25617602Y-48449500D01*
X25588287Y-48455331D01*
X25555043Y-48477543D01*
X25518907Y-48531626D01*
X25515712Y-48529491D01*
X25504407Y-48551095D01*
X25442706Y-48586217D01*
X25371812Y-48582405D01*
X25314233Y-48540870D01*
X25309682Y-48530900D01*
X25308594Y-48531628D01*
X25294669Y-48510787D01*
X25272457Y-48477543D01*
X25239213Y-48455331D01*
X25239212Y-48455330D01*
X25209899Y-48449500D01*
X23990102Y-48449500D01*
X23960787Y-48455331D01*
X23927543Y-48477543D01*
X23905330Y-48510787D01*
X23899500Y-48540100D01*
X23899500Y-49759897D01*
X22050500Y-49759897D01*
X22050499Y-48540102D01*
X22044669Y-48510787D01*
X22022457Y-48477543D01*
X21989213Y-48455331D01*
X21989212Y-48455330D01*
X21959899Y-48449500D01*
X20740102Y-48449500D01*
X20710787Y-48455331D01*
X20677543Y-48477543D01*
X20641407Y-48531626D01*
X20641233Y-48531509D01*
X20624421Y-48563650D01*
X20562726Y-48598782D01*
X20491832Y-48594982D01*
X20434246Y-48553456D01*
X20420355Y-48523039D01*
X20412169Y-48510787D01*
X20389957Y-48477543D01*
X20356713Y-48455331D01*
X20356712Y-48455330D01*
X20327399Y-48449500D01*
X19107602Y-48449500D01*
X19078287Y-48455331D01*
X19045043Y-48477543D01*
X19022830Y-48510787D01*
X19017000Y-48540100D01*
X19017000Y-49759897D01*
X16079514Y-49759897D01*
X16077646Y-46869999D01*
X18269965Y-46869999D01*
X18288025Y-47007183D01*
X18340974Y-47135016D01*
X18340976Y-47135018D01*
X18425209Y-47244791D01*
X18494708Y-47298120D01*
X18534983Y-47329025D01*
X18662816Y-47381974D01*
X18678775Y-47384075D01*
X18800000Y-47400035D01*
X18937183Y-47381974D01*
X19065018Y-47329024D01*
X19174791Y-47244791D01*
X19259024Y-47135018D01*
X19265231Y-47120034D01*
X19311974Y-47007183D01*
X19317555Y-46964790D01*
X19330035Y-46870000D01*
X19311974Y-46732817D01*
X19259024Y-46604983D01*
X19247526Y-46589999D01*
X23209965Y-46589999D01*
X23228025Y-46727183D01*
X23280974Y-46855016D01*
X23280976Y-46855018D01*
X23365209Y-46964791D01*
X23420455Y-47007183D01*
X23474983Y-47049025D01*
X23602816Y-47101974D01*
X23618775Y-47104075D01*
X23740000Y-47120035D01*
X23877183Y-47101974D01*
X24005018Y-47049024D01*
X24114791Y-46964791D01*
X24199024Y-46855018D01*
X24251974Y-46727183D01*
X24270035Y-46590000D01*
X24251974Y-46452817D01*
X24199024Y-46324983D01*
X24114791Y-46215209D01*
X24019351Y-46141974D01*
X24005016Y-46130974D01*
X23877183Y-46078025D01*
X23755958Y-46062066D01*
X23740000Y-46059965D01*
X23739999Y-46059965D01*
X23602817Y-46078025D01*
X23474983Y-46130975D01*
X23365209Y-46215209D01*
X23280975Y-46324983D01*
X23228025Y-46452817D01*
X23209965Y-46589999D01*
X19247526Y-46589999D01*
X19174791Y-46495209D01*
X19106455Y-46442772D01*
X19065016Y-46410974D01*
X18937183Y-46358025D01*
X18815958Y-46342066D01*
X18800000Y-46339965D01*
X18799999Y-46339965D01*
X18662817Y-46358025D01*
X18534983Y-46410975D01*
X18425209Y-46495209D01*
X18340975Y-46604983D01*
X18288025Y-46732817D01*
X18269965Y-46869999D01*
X16077646Y-46869999D01*
X16076845Y-45629999D01*
X20959965Y-45629999D01*
X20978025Y-45767183D01*
X21030974Y-45895016D01*
X21030976Y-45895018D01*
X21115209Y-46004791D01*
X21187112Y-46059965D01*
X21224983Y-46089025D01*
X21352816Y-46141974D01*
X21368775Y-46144075D01*
X21490000Y-46160035D01*
X21627183Y-46141974D01*
X21653735Y-46130976D01*
X21755016Y-46089025D01*
X21755016Y-46089024D01*
X21755018Y-46089024D01*
X21864791Y-46004791D01*
X21949024Y-45895018D01*
X21968141Y-45848866D01*
X22001974Y-45767183D01*
X22001973Y-45767182D01*
X22020035Y-45630000D01*
X22001974Y-45492817D01*
X21949024Y-45364983D01*
X21864791Y-45255209D01*
X21796455Y-45202772D01*
X21755016Y-45170974D01*
X21627183Y-45118025D01*
X21505958Y-45102066D01*
X21490000Y-45099965D01*
X21489999Y-45099965D01*
X21352817Y-45118025D01*
X21224983Y-45170975D01*
X21115209Y-45255209D01*
X21030975Y-45364983D01*
X20978025Y-45492817D01*
X20959965Y-45629999D01*
X16076845Y-45629999D01*
X16076011Y-44339999D01*
X16659965Y-44339999D01*
X16678025Y-44477183D01*
X16730974Y-44605016D01*
X16730976Y-44605018D01*
X16815209Y-44714791D01*
X16904263Y-44783125D01*
X16924983Y-44799025D01*
X17052816Y-44851974D01*
X17070876Y-44854351D01*
X17190000Y-44870035D01*
X17327183Y-44851974D01*
X17327182Y-44851974D01*
X17455016Y-44799025D01*
X17455016Y-44799024D01*
X17455018Y-44799024D01*
X17564791Y-44714791D01*
X17649024Y-44605018D01*
X17701974Y-44477183D01*
X17720035Y-44340000D01*
X17706869Y-44239999D01*
X21079965Y-44239999D01*
X21098025Y-44377183D01*
X21150974Y-44505016D01*
X21150976Y-44505018D01*
X21235209Y-44614791D01*
X21324263Y-44683125D01*
X21344983Y-44699025D01*
X21472816Y-44751974D01*
X21490877Y-44754351D01*
X21610000Y-44770035D01*
X21747183Y-44751974D01*
X21747182Y-44751974D01*
X21875016Y-44699025D01*
X21875016Y-44699024D01*
X21875018Y-44699024D01*
X21984791Y-44614791D01*
X22069024Y-44505018D01*
X22069024Y-44505015D01*
X22079123Y-44491856D01*
X22079960Y-44492498D01*
X22112672Y-44451903D01*
X22180035Y-44429480D01*
X22184536Y-44429400D01*
X27796414Y-44429400D01*
X27822021Y-44433750D01*
X27828247Y-44433048D01*
X27828249Y-44433049D01*
X27853606Y-44430192D01*
X27867713Y-44429400D01*
X27871339Y-44429400D01*
X27871341Y-44429400D01*
X27874884Y-44428591D01*
X27888796Y-44426227D01*
X27914164Y-44423369D01*
X27914166Y-44423367D01*
X27920401Y-44422665D01*
X27929386Y-44418944D01*
X27954237Y-44399125D01*
X27965770Y-44390942D01*
X27968836Y-44389016D01*
X27971401Y-44386450D01*
X27981933Y-44377038D01*
X28001887Y-44361126D01*
X28001888Y-44361123D01*
X28006788Y-44357216D01*
X28021819Y-44336031D01*
X28033695Y-44324155D01*
X28096005Y-44290131D01*
X28166820Y-44295196D01*
X28223656Y-44337743D01*
X28247710Y-44396805D01*
X28253026Y-44437183D01*
X28305974Y-44565016D01*
X28316602Y-44578866D01*
X28390209Y-44674791D01*
X28479263Y-44743125D01*
X28499983Y-44759025D01*
X28627816Y-44811974D01*
X28643775Y-44814075D01*
X28765000Y-44830035D01*
X28902183Y-44811974D01*
X29030018Y-44759024D01*
X29139791Y-44674791D01*
X29224024Y-44565018D01*
X29276974Y-44437183D01*
X29295035Y-44300000D01*
X29276974Y-44162817D01*
X29224024Y-44034983D01*
X29139791Y-43925209D01*
X29061599Y-43865209D01*
X29030016Y-43840974D01*
X28959602Y-43811809D01*
X28904321Y-43767262D01*
X28881899Y-43699898D01*
X28899457Y-43631107D01*
X28951418Y-43582728D01*
X29007819Y-43569400D01*
X32466414Y-43569400D01*
X32492021Y-43573750D01*
X32498247Y-43573048D01*
X32498249Y-43573049D01*
X32523606Y-43570192D01*
X32537713Y-43569400D01*
X32541339Y-43569400D01*
X32541341Y-43569400D01*
X32544884Y-43568591D01*
X32558796Y-43566227D01*
X32584164Y-43563369D01*
X32584166Y-43563367D01*
X32590401Y-43562665D01*
X32599386Y-43558944D01*
X32624237Y-43539125D01*
X32635770Y-43530942D01*
X32638836Y-43529016D01*
X32641401Y-43526450D01*
X32651925Y-43517043D01*
X32671887Y-43501126D01*
X32671888Y-43501122D01*
X32675560Y-43498195D01*
X32741290Y-43471361D01*
X32811093Y-43484323D01*
X32862808Y-43532965D01*
X32879328Y-43582598D01*
X32888880Y-43667378D01*
X32948458Y-43837642D01*
X33044432Y-43990384D01*
X33088074Y-44034026D01*
X33122100Y-44096338D01*
X33117035Y-44167153D01*
X33088074Y-44212216D01*
X33044432Y-44255857D01*
X32948458Y-44408599D01*
X32888880Y-44578863D01*
X32868683Y-44758120D01*
X32888880Y-44937378D01*
X32948458Y-45107642D01*
X33044432Y-45260384D01*
X33088074Y-45304026D01*
X33122100Y-45366338D01*
X33117035Y-45437153D01*
X33088074Y-45482216D01*
X33044432Y-45525857D01*
X32948458Y-45678599D01*
X32888880Y-45848863D01*
X32868683Y-46028120D01*
X32888880Y-46207378D01*
X32948458Y-46377642D01*
X33044432Y-46530384D01*
X33088074Y-46574026D01*
X33122100Y-46636338D01*
X33117035Y-46707153D01*
X33088074Y-46752216D01*
X33044432Y-46795857D01*
X32948458Y-46948599D01*
X32888880Y-47118863D01*
X32868683Y-47298120D01*
X32888880Y-47477378D01*
X32948458Y-47647642D01*
X33044432Y-47800384D01*
X33088427Y-47844379D01*
X33122453Y-47906691D01*
X33117388Y-47977506D01*
X33088428Y-48022569D01*
X33044824Y-48066173D01*
X32948911Y-48218818D01*
X32915563Y-48314120D01*
X32915564Y-48314121D01*
X33464189Y-48314121D01*
X33462119Y-48315316D01*
X33388447Y-48403114D01*
X33349248Y-48510815D01*
X33349248Y-48625427D01*
X33388447Y-48733128D01*
X33462119Y-48820926D01*
X33561377Y-48878233D01*
X33645812Y-48893121D01*
X33702684Y-48893121D01*
X33787119Y-48878233D01*
X33884307Y-48822121D01*
X33928248Y-48822121D01*
X33928248Y-49326803D01*
X34023553Y-49293456D01*
X34176197Y-49197543D01*
X34303669Y-49070071D01*
X34399584Y-48917423D01*
X34432932Y-48822121D01*
X33928248Y-48822121D01*
X33884307Y-48822121D01*
X33886377Y-48820926D01*
X33960049Y-48733128D01*
X33999248Y-48625427D01*
X33999248Y-48510815D01*
X33960049Y-48403114D01*
X33886377Y-48315316D01*
X33884307Y-48314121D01*
X34432932Y-48314121D01*
X34432932Y-48314120D01*
X34399584Y-48218818D01*
X34303669Y-48066170D01*
X34260068Y-48022569D01*
X34226042Y-47960257D01*
X34231107Y-47889442D01*
X34260066Y-47844380D01*
X34304064Y-47800383D01*
X34400037Y-47647643D01*
X34459616Y-47477376D01*
X34479813Y-47298121D01*
X34459616Y-47118866D01*
X34400037Y-46948599D01*
X34304064Y-46795859D01*
X34304063Y-46795857D01*
X34260422Y-46752216D01*
X34226396Y-46689904D01*
X34231461Y-46619089D01*
X34260422Y-46574026D01*
X34304063Y-46530384D01*
X34326165Y-46495209D01*
X34400037Y-46377643D01*
X34459616Y-46207376D01*
X34479813Y-46028121D01*
X34459616Y-45848866D01*
X34400037Y-45678599D01*
X34304064Y-45525859D01*
X34304063Y-45525857D01*
X34260422Y-45482216D01*
X34226396Y-45419904D01*
X34231461Y-45349089D01*
X34260422Y-45304026D01*
X34304063Y-45260384D01*
X34360242Y-45170976D01*
X34400037Y-45107643D01*
X34459616Y-44937376D01*
X34479813Y-44758121D01*
X34459616Y-44578866D01*
X34400037Y-44408599D01*
X34380297Y-44377183D01*
X34304063Y-44255857D01*
X34260422Y-44212216D01*
X34226396Y-44149904D01*
X34231461Y-44079089D01*
X34260422Y-44034026D01*
X34304063Y-43990384D01*
X34304064Y-43990383D01*
X34400037Y-43837643D01*
X34459616Y-43667376D01*
X34479813Y-43488121D01*
X34459616Y-43308866D01*
X34400037Y-43138599D01*
X34348890Y-43057199D01*
X34304063Y-42985857D01*
X34260422Y-42942216D01*
X34226396Y-42879904D01*
X34231461Y-42809089D01*
X34260422Y-42764026D01*
X34304063Y-42720384D01*
X34307447Y-42714999D01*
X34400037Y-42567643D01*
X34459616Y-42397376D01*
X34479813Y-42218121D01*
X34459616Y-42038866D01*
X34400037Y-41868599D01*
X34360402Y-41805520D01*
X34304063Y-41715857D01*
X34176511Y-41588305D01*
X34023769Y-41492331D01*
X33853505Y-41432753D01*
X33674248Y-41412556D01*
X33494990Y-41432753D01*
X33324726Y-41492331D01*
X33171984Y-41588305D01*
X33044432Y-41715857D01*
X32948458Y-41868599D01*
X32888880Y-42038863D01*
X32875393Y-42158564D01*
X32868683Y-42218121D01*
X32875162Y-42275628D01*
X32888880Y-42397378D01*
X32952390Y-42578879D01*
X32956009Y-42649783D01*
X32922557Y-42709589D01*
X32478453Y-43153695D01*
X32416141Y-43187720D01*
X32389357Y-43190600D01*
X28763592Y-43190600D01*
X28737980Y-43186248D01*
X28706388Y-43189808D01*
X28692280Y-43190600D01*
X28688659Y-43190600D01*
X28685114Y-43191409D01*
X28671195Y-43193773D01*
X28639612Y-43197332D01*
X28630605Y-43201063D01*
X28605753Y-43220881D01*
X28594240Y-43229050D01*
X28591162Y-43230983D01*
X28588590Y-43233556D01*
X28578069Y-43242958D01*
X28553215Y-43262779D01*
X28538183Y-43283963D01*
X27808453Y-44013695D01*
X27746140Y-44047720D01*
X27719357Y-44050600D01*
X22184536Y-44050600D01*
X22116415Y-44030598D01*
X22079426Y-43987910D01*
X22079123Y-43988144D01*
X22075211Y-43983046D01*
X22069922Y-43976942D01*
X22069128Y-43975119D01*
X21984792Y-43865210D01*
X21948865Y-43837642D01*
X21876319Y-43781974D01*
X21875016Y-43780974D01*
X21747183Y-43728025D01*
X21625958Y-43712066D01*
X21610000Y-43709965D01*
X21609999Y-43709965D01*
X21472817Y-43728025D01*
X21344983Y-43780975D01*
X21235209Y-43865209D01*
X21150975Y-43974983D01*
X21098025Y-44102817D01*
X21079965Y-44239999D01*
X17706869Y-44239999D01*
X17701974Y-44202817D01*
X17649024Y-44074983D01*
X17564791Y-43965209D01*
X17496455Y-43912772D01*
X17455016Y-43880974D01*
X17327183Y-43828025D01*
X17204006Y-43811809D01*
X17190000Y-43809965D01*
X17189999Y-43809965D01*
X17052817Y-43828025D01*
X16924983Y-43880975D01*
X16815209Y-43965209D01*
X16730975Y-44074983D01*
X16678025Y-44202817D01*
X16659965Y-44339999D01*
X16076011Y-44339999D01*
X16075319Y-43269999D01*
X19769965Y-43269999D01*
X19788025Y-43407183D01*
X19840974Y-43535016D01*
X19862731Y-43563369D01*
X19925209Y-43644791D01*
X19954645Y-43667378D01*
X20034983Y-43729025D01*
X20162816Y-43781974D01*
X20180876Y-43784351D01*
X20300000Y-43800035D01*
X20437183Y-43781974D01*
X20565018Y-43729024D01*
X20674791Y-43644791D01*
X20759024Y-43535018D01*
X20759875Y-43532965D01*
X20811974Y-43407183D01*
X20811973Y-43407182D01*
X20830035Y-43270000D01*
X20811974Y-43132817D01*
X20809809Y-43116370D01*
X20810855Y-43116232D01*
X20805281Y-43064391D01*
X20837060Y-43000904D01*
X20840154Y-42997696D01*
X21616547Y-42221304D01*
X21678860Y-42187279D01*
X21705643Y-42184400D01*
X22285464Y-42184400D01*
X22353585Y-42204402D01*
X22390573Y-42247089D01*
X22390877Y-42246856D01*
X22394788Y-42251954D01*
X22400078Y-42258058D01*
X22400871Y-42259880D01*
X22400974Y-42260015D01*
X22400976Y-42260018D01*
X22485209Y-42369791D01*
X22521161Y-42397378D01*
X22594983Y-42454025D01*
X22722816Y-42506974D01*
X22738775Y-42509075D01*
X22860000Y-42525035D01*
X22997183Y-42506974D01*
X23013938Y-42500034D01*
X23125016Y-42454025D01*
X23125016Y-42454024D01*
X23125018Y-42454024D01*
X23234791Y-42369791D01*
X23253975Y-42344791D01*
X23274921Y-42317495D01*
X23332259Y-42275628D01*
X23374882Y-42268200D01*
X26771716Y-42268200D01*
X26839837Y-42288202D01*
X26860811Y-42305104D01*
X27093564Y-42537856D01*
X27127589Y-42600169D01*
X27129391Y-42643397D01*
X27120677Y-42709589D01*
X27119965Y-42715000D01*
X27123252Y-42739965D01*
X27138025Y-42852183D01*
X27190974Y-42980016D01*
X27222772Y-43021455D01*
X27275209Y-43089791D01*
X27331281Y-43132817D01*
X27384983Y-43174025D01*
X27512816Y-43226974D01*
X27528585Y-43229050D01*
X27650000Y-43245035D01*
X27787183Y-43226974D01*
X27849739Y-43201063D01*
X27915016Y-43174025D01*
X27915016Y-43174024D01*
X27915018Y-43174024D01*
X28024791Y-43089791D01*
X28109024Y-42980018D01*
X28161974Y-42852183D01*
X28180035Y-42715000D01*
X28161974Y-42577817D01*
X28109024Y-42449983D01*
X28024791Y-42340209D01*
X27940629Y-42275628D01*
X27915016Y-42255974D01*
X27787183Y-42203025D01*
X27678591Y-42188729D01*
X27650000Y-42184965D01*
X27649999Y-42184965D01*
X27649998Y-42184965D01*
X27578397Y-42194391D01*
X27508249Y-42183451D01*
X27472856Y-42158564D01*
X27284292Y-41969999D01*
X30089965Y-41969999D01*
X30108025Y-42107183D01*
X30160974Y-42235016D01*
X30180159Y-42260018D01*
X30245209Y-42344791D01*
X30313738Y-42397376D01*
X30354983Y-42429025D01*
X30482816Y-42481974D01*
X30498775Y-42484075D01*
X30620000Y-42500035D01*
X30757183Y-42481974D01*
X30885018Y-42429024D01*
X30994791Y-42344791D01*
X31079024Y-42235018D01*
X31084705Y-42221304D01*
X31131974Y-42107183D01*
X31140968Y-42038866D01*
X31150035Y-41970000D01*
X31131974Y-41832817D01*
X31079024Y-41704983D01*
X30994791Y-41595209D01*
X30917598Y-41535976D01*
X30885016Y-41510974D01*
X30757183Y-41458025D01*
X30635958Y-41442066D01*
X30620000Y-41439965D01*
X30619999Y-41439965D01*
X30482817Y-41458025D01*
X30354983Y-41510975D01*
X30245209Y-41595209D01*
X30160975Y-41704983D01*
X30108025Y-41832817D01*
X30089965Y-41969999D01*
X27284292Y-41969999D01*
X27152095Y-41837802D01*
X27136426Y-41818709D01*
X27132165Y-41812332D01*
X27128361Y-41806639D01*
X27128360Y-41806638D01*
X27116290Y-41798573D01*
X27116283Y-41798567D01*
X27039647Y-41747360D01*
X26935000Y-41726546D01*
X26920757Y-41729379D01*
X26896177Y-41731800D01*
X23382554Y-41731800D01*
X23314433Y-41711798D01*
X23282592Y-41682504D01*
X23234792Y-41620210D01*
X23193213Y-41588305D01*
X23161049Y-41563624D01*
X23119183Y-41506286D01*
X23114962Y-41435415D01*
X23149727Y-41373513D01*
X23161051Y-41363701D01*
X23224791Y-41314791D01*
X23309024Y-41205018D01*
X23361974Y-41077183D01*
X23380035Y-40940000D01*
X23361974Y-40802817D01*
X23309024Y-40674983D01*
X23224791Y-40565209D01*
X23156455Y-40512772D01*
X23115016Y-40480974D01*
X22987183Y-40428025D01*
X22865958Y-40412066D01*
X22850000Y-40409965D01*
X22849999Y-40409965D01*
X22712817Y-40428025D01*
X22584983Y-40480975D01*
X22475209Y-40565209D01*
X22390975Y-40674983D01*
X22338025Y-40802817D01*
X22319965Y-40939999D01*
X22338025Y-41077183D01*
X22390974Y-41205016D01*
X22390976Y-41205018D01*
X22475209Y-41314791D01*
X22548949Y-41371375D01*
X22590816Y-41428712D01*
X22595037Y-41499583D01*
X22560272Y-41561486D01*
X22548950Y-41571297D01*
X22485208Y-41620209D01*
X22390877Y-41743144D01*
X22390040Y-41742501D01*
X22357325Y-41783099D01*
X22289962Y-41805520D01*
X22285464Y-41805600D01*
X21628588Y-41805600D01*
X21602980Y-41801249D01*
X21571393Y-41804808D01*
X21557286Y-41805600D01*
X21553655Y-41805600D01*
X21550104Y-41806410D01*
X21536198Y-41808772D01*
X21504614Y-41812332D01*
X21495605Y-41816063D01*
X21470752Y-41835882D01*
X21459239Y-41844051D01*
X21456161Y-41845984D01*
X21453590Y-41848556D01*
X21443069Y-41857958D01*
X21418215Y-41877779D01*
X21403181Y-41898965D01*
X20572331Y-42729815D01*
X20510019Y-42763841D01*
X20453678Y-42759811D01*
X20453629Y-42760191D01*
X20447255Y-42759351D01*
X20439204Y-42758776D01*
X20437355Y-42758048D01*
X20323286Y-42743030D01*
X20300000Y-42739965D01*
X20299999Y-42739965D01*
X20162817Y-42758025D01*
X20034983Y-42810975D01*
X19925209Y-42895209D01*
X19840975Y-43004983D01*
X19788025Y-43132817D01*
X19769965Y-43269999D01*
X16075319Y-43269999D01*
X16073038Y-39740034D01*
X16072695Y-39209999D01*
X22539965Y-39209999D01*
X22558025Y-39347183D01*
X22610974Y-39475016D01*
X22610976Y-39475018D01*
X22695209Y-39584791D01*
X22784263Y-39653125D01*
X22804983Y-39669025D01*
X22932816Y-39721974D01*
X22948775Y-39724075D01*
X23070000Y-39740035D01*
X23207183Y-39721974D01*
X23335018Y-39669024D01*
X23444791Y-39584791D01*
X23529024Y-39475018D01*
X23581974Y-39347183D01*
X23600035Y-39210000D01*
X23589390Y-39129146D01*
X23597054Y-39079999D01*
X32289965Y-39079999D01*
X32308025Y-39217183D01*
X32360974Y-39345016D01*
X32360976Y-39345018D01*
X32445209Y-39454791D01*
X32534263Y-39523125D01*
X32554983Y-39539025D01*
X32682816Y-39591974D01*
X32698775Y-39594075D01*
X32820000Y-39610035D01*
X32957183Y-39591974D01*
X33085018Y-39539024D01*
X33194791Y-39454791D01*
X33279024Y-39345018D01*
X33331974Y-39217183D01*
X33350035Y-39080000D01*
X33331974Y-38942817D01*
X33279024Y-38814983D01*
X33194791Y-38705209D01*
X33126455Y-38652772D01*
X33085016Y-38620974D01*
X32957183Y-38568025D01*
X32835958Y-38552066D01*
X32820000Y-38549965D01*
X32819999Y-38549965D01*
X32682817Y-38568025D01*
X32554983Y-38620975D01*
X32445209Y-38705209D01*
X32360975Y-38814983D01*
X32308025Y-38942817D01*
X32289965Y-39079999D01*
X23597054Y-39079999D01*
X23600329Y-39058999D01*
X23647457Y-39005900D01*
X23715811Y-38986710D01*
X23762527Y-38996291D01*
X23872817Y-39041974D01*
X24010000Y-39060035D01*
X24147183Y-39041974D01*
X24234275Y-39005900D01*
X24275016Y-38989025D01*
X24275016Y-38989024D01*
X24275018Y-38989024D01*
X24384791Y-38904791D01*
X24469024Y-38795018D01*
X24486309Y-38753289D01*
X24521974Y-38667183D01*
X24528057Y-38620976D01*
X24540035Y-38530000D01*
X24521974Y-38392817D01*
X24469024Y-38264983D01*
X24384791Y-38155209D01*
X24316455Y-38102772D01*
X24275016Y-38070974D01*
X24147183Y-38018025D01*
X24025958Y-38002066D01*
X24010000Y-37999965D01*
X24009999Y-37999965D01*
X23872817Y-38018025D01*
X23744983Y-38070975D01*
X23635209Y-38155209D01*
X23550975Y-38264983D01*
X23498025Y-38392817D01*
X23479965Y-38530000D01*
X23490609Y-38610852D01*
X23479669Y-38681001D01*
X23432541Y-38734099D01*
X23364187Y-38753289D01*
X23317470Y-38743707D01*
X23207183Y-38698025D01*
X23085958Y-38682066D01*
X23070000Y-38679965D01*
X23069999Y-38679965D01*
X22932817Y-38698025D01*
X22804983Y-38750975D01*
X22695209Y-38835209D01*
X22610975Y-38944983D01*
X22558025Y-39072817D01*
X22539965Y-39209999D01*
X16072695Y-39209999D01*
X16071306Y-37059999D01*
X28099965Y-37059999D01*
X28118025Y-37197183D01*
X28170974Y-37325016D01*
X28170976Y-37325018D01*
X28255209Y-37434791D01*
X28344263Y-37503125D01*
X28364983Y-37519025D01*
X28492816Y-37571974D01*
X28510876Y-37574351D01*
X28630000Y-37590035D01*
X28767183Y-37571974D01*
X28895018Y-37519024D01*
X29004791Y-37434791D01*
X29089024Y-37325018D01*
X29141974Y-37197183D01*
X29160035Y-37060000D01*
X29141974Y-36922817D01*
X29089024Y-36794983D01*
X29004791Y-36685209D01*
X28936455Y-36632772D01*
X28895016Y-36600974D01*
X28767183Y-36548025D01*
X28645958Y-36532066D01*
X28630000Y-36529965D01*
X28629999Y-36529965D01*
X28492817Y-36548025D01*
X28364983Y-36600975D01*
X28255209Y-36685209D01*
X28170975Y-36794983D01*
X28118025Y-36922817D01*
X28099965Y-37059999D01*
X16071306Y-37059999D01*
X16071222Y-36929897D01*
X16739500Y-36929897D01*
X16744171Y-36953381D01*
X16745331Y-36959213D01*
X16767543Y-36992457D01*
X16800787Y-37014669D01*
X16830101Y-37020500D01*
X18049898Y-37020499D01*
X18079213Y-37014669D01*
X18112457Y-36992457D01*
X18134669Y-36959213D01*
X18140500Y-36929899D01*
X18140499Y-36299999D01*
X24434965Y-36299999D01*
X24453025Y-36437183D01*
X24505974Y-36565016D01*
X24505976Y-36565018D01*
X24590209Y-36674791D01*
X24679263Y-36743125D01*
X24699983Y-36759025D01*
X24827816Y-36811974D01*
X24843775Y-36814075D01*
X24965000Y-36830035D01*
X25102183Y-36811974D01*
X25230018Y-36759024D01*
X25339791Y-36674791D01*
X25424024Y-36565018D01*
X25476974Y-36437183D01*
X25495035Y-36300000D01*
X25476974Y-36162817D01*
X25424024Y-36034983D01*
X25339791Y-35925209D01*
X25267841Y-35869999D01*
X32349965Y-35869999D01*
X32368025Y-36007183D01*
X32420974Y-36135016D01*
X32420976Y-36135018D01*
X32505209Y-36244791D01*
X32577158Y-36300000D01*
X32614983Y-36329025D01*
X32742816Y-36381974D01*
X32760876Y-36384351D01*
X32880000Y-36400035D01*
X33017183Y-36381974D01*
X33145018Y-36329024D01*
X33254791Y-36244791D01*
X33339024Y-36135018D01*
X33391974Y-36007183D01*
X33410035Y-35870000D01*
X33391974Y-35732817D01*
X33339024Y-35604983D01*
X33254791Y-35495209D01*
X33186455Y-35442772D01*
X33145016Y-35410974D01*
X33017183Y-35358025D01*
X32895958Y-35342066D01*
X32880000Y-35339965D01*
X32879999Y-35339965D01*
X32742817Y-35358025D01*
X32614983Y-35410975D01*
X32505209Y-35495209D01*
X32420975Y-35604983D01*
X32368025Y-35732817D01*
X32349965Y-35869999D01*
X25267841Y-35869999D01*
X25230016Y-35840974D01*
X25102183Y-35788025D01*
X24980958Y-35772066D01*
X24965000Y-35769965D01*
X24964999Y-35769965D01*
X24827817Y-35788025D01*
X24699983Y-35840975D01*
X24590209Y-35925209D01*
X24505975Y-36034983D01*
X24453025Y-36162817D01*
X24434965Y-36299999D01*
X18140499Y-36299999D01*
X18140499Y-35710102D01*
X18134669Y-35680787D01*
X18112457Y-35647543D01*
X18079213Y-35625331D01*
X18079212Y-35625330D01*
X18049899Y-35619500D01*
X16830102Y-35619500D01*
X16800787Y-35625331D01*
X16767543Y-35647543D01*
X16745330Y-35680787D01*
X16739500Y-35710100D01*
X16739500Y-36929897D01*
X16071222Y-36929897D01*
X16070082Y-35166081D01*
X16090040Y-35097948D01*
X16143666Y-35051420D01*
X16196082Y-35040000D01*
X34834000Y-35040000D01*
X34902121Y-35060002D01*
G37*
G04 #@! TD.AperFunction*
G04 #@! TD*
G04 #@! TA.AperFunction,Conductor*
G04 #@! TO.N,Board_0-GND*
G36*
X34902121Y-19500002D02*
G01*
X34948614Y-19553658D01*
X34960000Y-19606000D01*
X34960000Y-34833933D01*
X34939998Y-34902054D01*
X34886342Y-34948547D01*
X34833933Y-34959933D01*
X16205851Y-34950066D01*
X16137741Y-34930028D01*
X16091277Y-34876348D01*
X16079918Y-34824149D01*
X16079514Y-34199897D01*
X19017000Y-34199897D01*
X19018832Y-34209105D01*
X19022831Y-34229213D01*
X19045043Y-34262457D01*
X19078287Y-34284669D01*
X19107601Y-34290500D01*
X20327398Y-34290499D01*
X20356713Y-34284669D01*
X20389957Y-34262457D01*
X20412169Y-34229213D01*
X20412169Y-34229212D01*
X20426093Y-34208374D01*
X20426265Y-34208489D01*
X20443071Y-34176356D01*
X20504763Y-34141219D01*
X20575658Y-34145014D01*
X20633247Y-34186535D01*
X20647142Y-34216958D01*
X20655331Y-34229213D01*
X20677543Y-34262457D01*
X20710787Y-34284669D01*
X20740101Y-34290500D01*
X21959898Y-34290499D01*
X21989213Y-34284669D01*
X22022457Y-34262457D01*
X22044669Y-34229213D01*
X22050500Y-34199899D01*
X22050500Y-34199897D01*
X23899500Y-34199897D01*
X23901332Y-34209105D01*
X23905331Y-34229213D01*
X23927543Y-34262457D01*
X23960787Y-34284669D01*
X23990101Y-34290500D01*
X25209898Y-34290499D01*
X25239213Y-34284669D01*
X25272457Y-34262457D01*
X25294669Y-34229213D01*
X25294669Y-34229212D01*
X25308593Y-34208374D01*
X25311781Y-34210504D01*
X25323041Y-34188957D01*
X25384721Y-34153799D01*
X25455617Y-34157570D01*
X25513221Y-34199071D01*
X25517807Y-34209105D01*
X25518906Y-34208372D01*
X25532830Y-34229212D01*
X25532831Y-34229213D01*
X25555043Y-34262457D01*
X25588287Y-34284669D01*
X25617601Y-34290500D01*
X26837398Y-34290499D01*
X26866713Y-34284669D01*
X26899957Y-34262457D01*
X26922169Y-34229213D01*
X26922169Y-34229212D01*
X26936093Y-34208374D01*
X26939281Y-34210504D01*
X26950541Y-34188957D01*
X27012221Y-34153799D01*
X27083117Y-34157570D01*
X27140721Y-34199071D01*
X27145307Y-34209105D01*
X27146406Y-34208372D01*
X27160330Y-34229212D01*
X27160331Y-34229213D01*
X27182543Y-34262457D01*
X27215787Y-34284669D01*
X27245101Y-34290500D01*
X28464898Y-34290499D01*
X28494213Y-34284669D01*
X28527457Y-34262457D01*
X28549669Y-34229213D01*
X28549669Y-34229212D01*
X28563593Y-34208374D01*
X28566781Y-34210504D01*
X28578041Y-34188957D01*
X28639721Y-34153799D01*
X28710617Y-34157570D01*
X28768221Y-34199071D01*
X28772807Y-34209105D01*
X28773906Y-34208372D01*
X28787830Y-34229212D01*
X28787831Y-34229213D01*
X28810043Y-34262457D01*
X28843287Y-34284669D01*
X28872601Y-34290500D01*
X30092398Y-34290499D01*
X30121713Y-34284669D01*
X30154957Y-34262457D01*
X30177169Y-34229213D01*
X30177169Y-34229212D01*
X30191093Y-34208374D01*
X30194281Y-34210504D01*
X30205541Y-34188957D01*
X30267221Y-34153799D01*
X30338117Y-34157570D01*
X30395721Y-34199071D01*
X30400307Y-34209105D01*
X30401406Y-34208372D01*
X30415330Y-34229212D01*
X30415331Y-34229213D01*
X30437543Y-34262457D01*
X30470787Y-34284669D01*
X30500101Y-34290500D01*
X31719898Y-34290499D01*
X31749213Y-34284669D01*
X31782457Y-34262457D01*
X31804669Y-34229213D01*
X31810500Y-34199899D01*
X31810499Y-33262121D01*
X32915564Y-33262121D01*
X32948911Y-33357423D01*
X33044826Y-33510071D01*
X33172298Y-33637543D01*
X33324942Y-33733456D01*
X33420248Y-33766803D01*
X33420248Y-33262121D01*
X32915564Y-33262121D01*
X31810499Y-33262121D01*
X31810499Y-32980102D01*
X31804669Y-32950787D01*
X31782457Y-32917543D01*
X31749213Y-32895331D01*
X31749212Y-32895330D01*
X31719899Y-32889500D01*
X30500102Y-32889500D01*
X30470787Y-32895331D01*
X30437543Y-32917543D01*
X30401407Y-32971626D01*
X30398212Y-32969491D01*
X30386907Y-32991095D01*
X30325206Y-33026217D01*
X30254312Y-33022405D01*
X30196733Y-32980870D01*
X30192182Y-32970900D01*
X30191094Y-32971628D01*
X30177169Y-32950787D01*
X30154957Y-32917543D01*
X30121713Y-32895331D01*
X30121712Y-32895330D01*
X30092399Y-32889500D01*
X28872602Y-32889500D01*
X28843287Y-32895331D01*
X28810043Y-32917543D01*
X28773907Y-32971626D01*
X28770712Y-32969491D01*
X28759407Y-32991095D01*
X28697706Y-33026217D01*
X28626812Y-33022405D01*
X28569233Y-32980870D01*
X28564682Y-32970900D01*
X28563594Y-32971628D01*
X28549669Y-32950787D01*
X28527457Y-32917543D01*
X28494213Y-32895331D01*
X28494212Y-32895330D01*
X28464899Y-32889500D01*
X27245102Y-32889500D01*
X27215787Y-32895331D01*
X27182543Y-32917543D01*
X27146407Y-32971626D01*
X27143212Y-32969491D01*
X27131907Y-32991095D01*
X27070206Y-33026217D01*
X26999312Y-33022405D01*
X26941733Y-32980870D01*
X26937182Y-32970900D01*
X26936094Y-32971628D01*
X26922169Y-32950787D01*
X26899957Y-32917543D01*
X26866713Y-32895331D01*
X26866712Y-32895330D01*
X26837399Y-32889500D01*
X25617602Y-32889500D01*
X25588287Y-32895331D01*
X25555043Y-32917543D01*
X25518907Y-32971626D01*
X25515712Y-32969491D01*
X25504407Y-32991095D01*
X25442706Y-33026217D01*
X25371812Y-33022405D01*
X25314233Y-32980870D01*
X25309682Y-32970900D01*
X25308594Y-32971628D01*
X25294669Y-32950787D01*
X25272457Y-32917543D01*
X25239213Y-32895331D01*
X25239212Y-32895330D01*
X25209899Y-32889500D01*
X23990102Y-32889500D01*
X23960787Y-32895331D01*
X23927543Y-32917543D01*
X23905330Y-32950787D01*
X23899500Y-32980100D01*
X23899500Y-34199897D01*
X22050500Y-34199897D01*
X22050499Y-32980102D01*
X22044669Y-32950787D01*
X22022457Y-32917543D01*
X21989213Y-32895331D01*
X21989212Y-32895330D01*
X21959899Y-32889500D01*
X20740102Y-32889500D01*
X20710787Y-32895331D01*
X20677543Y-32917543D01*
X20641407Y-32971626D01*
X20641233Y-32971509D01*
X20624421Y-33003650D01*
X20562726Y-33038782D01*
X20491832Y-33034982D01*
X20434246Y-32993456D01*
X20420355Y-32963039D01*
X20412169Y-32950787D01*
X20389957Y-32917543D01*
X20356713Y-32895331D01*
X20356712Y-32895330D01*
X20327399Y-32889500D01*
X19107602Y-32889500D01*
X19078287Y-32895331D01*
X19045043Y-32917543D01*
X19022830Y-32950787D01*
X19017000Y-32980100D01*
X19017000Y-34199897D01*
X16079514Y-34199897D01*
X16077646Y-31309999D01*
X18269965Y-31309999D01*
X18288025Y-31447183D01*
X18340974Y-31575016D01*
X18340976Y-31575018D01*
X18425209Y-31684791D01*
X18494708Y-31738120D01*
X18534983Y-31769025D01*
X18662816Y-31821974D01*
X18678775Y-31824075D01*
X18800000Y-31840035D01*
X18937183Y-31821974D01*
X19065018Y-31769024D01*
X19174791Y-31684791D01*
X19259024Y-31575018D01*
X19265231Y-31560034D01*
X19311974Y-31447183D01*
X19317555Y-31404790D01*
X19330035Y-31310000D01*
X19311974Y-31172817D01*
X19259024Y-31044983D01*
X19247526Y-31029999D01*
X23209965Y-31029999D01*
X23228025Y-31167183D01*
X23280974Y-31295016D01*
X23280976Y-31295018D01*
X23365209Y-31404791D01*
X23420455Y-31447183D01*
X23474983Y-31489025D01*
X23602816Y-31541974D01*
X23618775Y-31544075D01*
X23740000Y-31560035D01*
X23877183Y-31541974D01*
X24005018Y-31489024D01*
X24114791Y-31404791D01*
X24199024Y-31295018D01*
X24251974Y-31167183D01*
X24270035Y-31030000D01*
X24251974Y-30892817D01*
X24199024Y-30764983D01*
X24114791Y-30655209D01*
X24019351Y-30581974D01*
X24005016Y-30570974D01*
X23877183Y-30518025D01*
X23755958Y-30502066D01*
X23740000Y-30499965D01*
X23739999Y-30499965D01*
X23602817Y-30518025D01*
X23474983Y-30570975D01*
X23365209Y-30655209D01*
X23280975Y-30764983D01*
X23228025Y-30892817D01*
X23209965Y-31029999D01*
X19247526Y-31029999D01*
X19174791Y-30935209D01*
X19106455Y-30882772D01*
X19065016Y-30850974D01*
X18937183Y-30798025D01*
X18815958Y-30782066D01*
X18800000Y-30779965D01*
X18799999Y-30779965D01*
X18662817Y-30798025D01*
X18534983Y-30850975D01*
X18425209Y-30935209D01*
X18340975Y-31044983D01*
X18288025Y-31172817D01*
X18269965Y-31309999D01*
X16077646Y-31309999D01*
X16076845Y-30069999D01*
X20959965Y-30069999D01*
X20978025Y-30207183D01*
X21030974Y-30335016D01*
X21030976Y-30335018D01*
X21115209Y-30444791D01*
X21187112Y-30499965D01*
X21224983Y-30529025D01*
X21352816Y-30581974D01*
X21368775Y-30584075D01*
X21490000Y-30600035D01*
X21627183Y-30581974D01*
X21653735Y-30570976D01*
X21755016Y-30529025D01*
X21755016Y-30529024D01*
X21755018Y-30529024D01*
X21864791Y-30444791D01*
X21949024Y-30335018D01*
X21968141Y-30288866D01*
X22001974Y-30207183D01*
X22001973Y-30207182D01*
X22020035Y-30070000D01*
X22001974Y-29932817D01*
X21949024Y-29804983D01*
X21864791Y-29695209D01*
X21796455Y-29642772D01*
X21755016Y-29610974D01*
X21627183Y-29558025D01*
X21505958Y-29542066D01*
X21490000Y-29539965D01*
X21489999Y-29539965D01*
X21352817Y-29558025D01*
X21224983Y-29610975D01*
X21115209Y-29695209D01*
X21030975Y-29804983D01*
X20978025Y-29932817D01*
X20959965Y-30069999D01*
X16076845Y-30069999D01*
X16076011Y-28779999D01*
X16659965Y-28779999D01*
X16678025Y-28917183D01*
X16730974Y-29045016D01*
X16730976Y-29045018D01*
X16815209Y-29154791D01*
X16904263Y-29223125D01*
X16924983Y-29239025D01*
X17052816Y-29291974D01*
X17070876Y-29294351D01*
X17190000Y-29310035D01*
X17327183Y-29291974D01*
X17327182Y-29291974D01*
X17455016Y-29239025D01*
X17455016Y-29239024D01*
X17455018Y-29239024D01*
X17564791Y-29154791D01*
X17649024Y-29045018D01*
X17701974Y-28917183D01*
X17720035Y-28780000D01*
X17706869Y-28679999D01*
X21079965Y-28679999D01*
X21098025Y-28817183D01*
X21150974Y-28945016D01*
X21150976Y-28945018D01*
X21235209Y-29054791D01*
X21324263Y-29123125D01*
X21344983Y-29139025D01*
X21472816Y-29191974D01*
X21490877Y-29194351D01*
X21610000Y-29210035D01*
X21747183Y-29191974D01*
X21747182Y-29191974D01*
X21875016Y-29139025D01*
X21875016Y-29139024D01*
X21875018Y-29139024D01*
X21984791Y-29054791D01*
X22069024Y-28945018D01*
X22069024Y-28945015D01*
X22079123Y-28931856D01*
X22079960Y-28932498D01*
X22112672Y-28891903D01*
X22180035Y-28869480D01*
X22184536Y-28869400D01*
X27796414Y-28869400D01*
X27822021Y-28873750D01*
X27828247Y-28873048D01*
X27828249Y-28873049D01*
X27853606Y-28870192D01*
X27867713Y-28869400D01*
X27871339Y-28869400D01*
X27871341Y-28869400D01*
X27874884Y-28868591D01*
X27888796Y-28866227D01*
X27914164Y-28863369D01*
X27914166Y-28863367D01*
X27920401Y-28862665D01*
X27929386Y-28858944D01*
X27954237Y-28839125D01*
X27965770Y-28830942D01*
X27968836Y-28829016D01*
X27971401Y-28826450D01*
X27981933Y-28817038D01*
X28001887Y-28801126D01*
X28001888Y-28801123D01*
X28006788Y-28797216D01*
X28021819Y-28776031D01*
X28033695Y-28764155D01*
X28096005Y-28730131D01*
X28166820Y-28735196D01*
X28223656Y-28777743D01*
X28247710Y-28836805D01*
X28253026Y-28877183D01*
X28305974Y-29005016D01*
X28316602Y-29018866D01*
X28390209Y-29114791D01*
X28479263Y-29183125D01*
X28499983Y-29199025D01*
X28627816Y-29251974D01*
X28643775Y-29254075D01*
X28765000Y-29270035D01*
X28902183Y-29251974D01*
X29030018Y-29199024D01*
X29139791Y-29114791D01*
X29224024Y-29005018D01*
X29276974Y-28877183D01*
X29295035Y-28740000D01*
X29276974Y-28602817D01*
X29224024Y-28474983D01*
X29139791Y-28365209D01*
X29061599Y-28305209D01*
X29030016Y-28280974D01*
X28959602Y-28251809D01*
X28904321Y-28207262D01*
X28881899Y-28139898D01*
X28899457Y-28071107D01*
X28951418Y-28022728D01*
X29007819Y-28009400D01*
X32466414Y-28009400D01*
X32492021Y-28013750D01*
X32498247Y-28013048D01*
X32498249Y-28013049D01*
X32523606Y-28010192D01*
X32537713Y-28009400D01*
X32541339Y-28009400D01*
X32541341Y-28009400D01*
X32544884Y-28008591D01*
X32558796Y-28006227D01*
X32584164Y-28003369D01*
X32584166Y-28003367D01*
X32590401Y-28002665D01*
X32599386Y-27998944D01*
X32624237Y-27979125D01*
X32635770Y-27970942D01*
X32638836Y-27969016D01*
X32641401Y-27966450D01*
X32651925Y-27957043D01*
X32671887Y-27941126D01*
X32671888Y-27941122D01*
X32675560Y-27938195D01*
X32741290Y-27911361D01*
X32811093Y-27924323D01*
X32862808Y-27972965D01*
X32879328Y-28022598D01*
X32888880Y-28107378D01*
X32948458Y-28277642D01*
X33044432Y-28430384D01*
X33088074Y-28474026D01*
X33122100Y-28536338D01*
X33117035Y-28607153D01*
X33088074Y-28652216D01*
X33044432Y-28695857D01*
X32948458Y-28848599D01*
X32888880Y-29018863D01*
X32868683Y-29198120D01*
X32888880Y-29377378D01*
X32948458Y-29547642D01*
X33044432Y-29700384D01*
X33088074Y-29744026D01*
X33122100Y-29806338D01*
X33117035Y-29877153D01*
X33088074Y-29922216D01*
X33044432Y-29965857D01*
X32948458Y-30118599D01*
X32888880Y-30288863D01*
X32868683Y-30468120D01*
X32888880Y-30647378D01*
X32948458Y-30817642D01*
X33044432Y-30970384D01*
X33088074Y-31014026D01*
X33122100Y-31076338D01*
X33117035Y-31147153D01*
X33088074Y-31192216D01*
X33044432Y-31235857D01*
X32948458Y-31388599D01*
X32888880Y-31558863D01*
X32868683Y-31738120D01*
X32888880Y-31917378D01*
X32948458Y-32087642D01*
X33044432Y-32240384D01*
X33088427Y-32284379D01*
X33122453Y-32346691D01*
X33117388Y-32417506D01*
X33088428Y-32462569D01*
X33044824Y-32506173D01*
X32948911Y-32658818D01*
X32915563Y-32754120D01*
X32915564Y-32754121D01*
X33464189Y-32754121D01*
X33462119Y-32755316D01*
X33388447Y-32843114D01*
X33349248Y-32950815D01*
X33349248Y-33065427D01*
X33388447Y-33173128D01*
X33462119Y-33260926D01*
X33561377Y-33318233D01*
X33645812Y-33333121D01*
X33702684Y-33333121D01*
X33787119Y-33318233D01*
X33884307Y-33262121D01*
X33928248Y-33262121D01*
X33928248Y-33766803D01*
X34023553Y-33733456D01*
X34176197Y-33637543D01*
X34303669Y-33510071D01*
X34399584Y-33357423D01*
X34432932Y-33262121D01*
X33928248Y-33262121D01*
X33884307Y-33262121D01*
X33886377Y-33260926D01*
X33960049Y-33173128D01*
X33999248Y-33065427D01*
X33999248Y-32950815D01*
X33960049Y-32843114D01*
X33886377Y-32755316D01*
X33884307Y-32754121D01*
X34432932Y-32754121D01*
X34432932Y-32754120D01*
X34399584Y-32658818D01*
X34303669Y-32506170D01*
X34260068Y-32462569D01*
X34226042Y-32400257D01*
X34231107Y-32329442D01*
X34260066Y-32284380D01*
X34304064Y-32240383D01*
X34400037Y-32087643D01*
X34459616Y-31917376D01*
X34479813Y-31738121D01*
X34459616Y-31558866D01*
X34400037Y-31388599D01*
X34304064Y-31235859D01*
X34304063Y-31235857D01*
X34260422Y-31192216D01*
X34226396Y-31129904D01*
X34231461Y-31059089D01*
X34260422Y-31014026D01*
X34304063Y-30970384D01*
X34326165Y-30935209D01*
X34400037Y-30817643D01*
X34459616Y-30647376D01*
X34479813Y-30468121D01*
X34459616Y-30288866D01*
X34400037Y-30118599D01*
X34304064Y-29965859D01*
X34304063Y-29965857D01*
X34260422Y-29922216D01*
X34226396Y-29859904D01*
X34231461Y-29789089D01*
X34260422Y-29744026D01*
X34304063Y-29700384D01*
X34360242Y-29610976D01*
X34400037Y-29547643D01*
X34459616Y-29377376D01*
X34479813Y-29198121D01*
X34459616Y-29018866D01*
X34400037Y-28848599D01*
X34380297Y-28817183D01*
X34304063Y-28695857D01*
X34260422Y-28652216D01*
X34226396Y-28589904D01*
X34231461Y-28519089D01*
X34260422Y-28474026D01*
X34304063Y-28430384D01*
X34304064Y-28430383D01*
X34400037Y-28277643D01*
X34459616Y-28107376D01*
X34479813Y-27928121D01*
X34459616Y-27748866D01*
X34400037Y-27578599D01*
X34348890Y-27497199D01*
X34304063Y-27425857D01*
X34260422Y-27382216D01*
X34226396Y-27319904D01*
X34231461Y-27249089D01*
X34260422Y-27204026D01*
X34304063Y-27160384D01*
X34307447Y-27154999D01*
X34400037Y-27007643D01*
X34459616Y-26837376D01*
X34479813Y-26658121D01*
X34459616Y-26478866D01*
X34400037Y-26308599D01*
X34360402Y-26245520D01*
X34304063Y-26155857D01*
X34176511Y-26028305D01*
X34023769Y-25932331D01*
X33853505Y-25872753D01*
X33674248Y-25852556D01*
X33494990Y-25872753D01*
X33324726Y-25932331D01*
X33171984Y-26028305D01*
X33044432Y-26155857D01*
X32948458Y-26308599D01*
X32888880Y-26478863D01*
X32875393Y-26598564D01*
X32868683Y-26658121D01*
X32875162Y-26715628D01*
X32888880Y-26837378D01*
X32952390Y-27018879D01*
X32956009Y-27089783D01*
X32922557Y-27149589D01*
X32478453Y-27593695D01*
X32416141Y-27627720D01*
X32389357Y-27630600D01*
X28763592Y-27630600D01*
X28737980Y-27626248D01*
X28706388Y-27629808D01*
X28692280Y-27630600D01*
X28688659Y-27630600D01*
X28685114Y-27631409D01*
X28671195Y-27633773D01*
X28639612Y-27637332D01*
X28630605Y-27641063D01*
X28605753Y-27660881D01*
X28594240Y-27669050D01*
X28591162Y-27670983D01*
X28588590Y-27673556D01*
X28578069Y-27682958D01*
X28553215Y-27702779D01*
X28538183Y-27723963D01*
X27808453Y-28453695D01*
X27746140Y-28487720D01*
X27719357Y-28490600D01*
X22184536Y-28490600D01*
X22116415Y-28470598D01*
X22079426Y-28427910D01*
X22079123Y-28428144D01*
X22075211Y-28423046D01*
X22069922Y-28416942D01*
X22069128Y-28415119D01*
X21984792Y-28305210D01*
X21948865Y-28277642D01*
X21876319Y-28221974D01*
X21875016Y-28220974D01*
X21747183Y-28168025D01*
X21625958Y-28152066D01*
X21610000Y-28149965D01*
X21609999Y-28149965D01*
X21472817Y-28168025D01*
X21344983Y-28220975D01*
X21235209Y-28305209D01*
X21150975Y-28414983D01*
X21098025Y-28542817D01*
X21079965Y-28679999D01*
X17706869Y-28679999D01*
X17701974Y-28642817D01*
X17649024Y-28514983D01*
X17564791Y-28405209D01*
X17496455Y-28352772D01*
X17455016Y-28320974D01*
X17327183Y-28268025D01*
X17204006Y-28251809D01*
X17190000Y-28249965D01*
X17189999Y-28249965D01*
X17052817Y-28268025D01*
X16924983Y-28320975D01*
X16815209Y-28405209D01*
X16730975Y-28514983D01*
X16678025Y-28642817D01*
X16659965Y-28779999D01*
X16076011Y-28779999D01*
X16075319Y-27709999D01*
X19769965Y-27709999D01*
X19788025Y-27847183D01*
X19840974Y-27975016D01*
X19862731Y-28003369D01*
X19925209Y-28084791D01*
X19954645Y-28107378D01*
X20034983Y-28169025D01*
X20162816Y-28221974D01*
X20180876Y-28224351D01*
X20300000Y-28240035D01*
X20437183Y-28221974D01*
X20565018Y-28169024D01*
X20674791Y-28084791D01*
X20759024Y-27975018D01*
X20759875Y-27972965D01*
X20811974Y-27847183D01*
X20811973Y-27847182D01*
X20830035Y-27710000D01*
X20811974Y-27572817D01*
X20809809Y-27556370D01*
X20810855Y-27556232D01*
X20805281Y-27504391D01*
X20837060Y-27440904D01*
X20840154Y-27437696D01*
X21616547Y-26661304D01*
X21678860Y-26627279D01*
X21705643Y-26624400D01*
X22285464Y-26624400D01*
X22353585Y-26644402D01*
X22390573Y-26687089D01*
X22390877Y-26686856D01*
X22394788Y-26691954D01*
X22400078Y-26698058D01*
X22400871Y-26699880D01*
X22400974Y-26700015D01*
X22400976Y-26700018D01*
X22485209Y-26809791D01*
X22521161Y-26837378D01*
X22594983Y-26894025D01*
X22722816Y-26946974D01*
X22738775Y-26949075D01*
X22860000Y-26965035D01*
X22997183Y-26946974D01*
X23013938Y-26940034D01*
X23125016Y-26894025D01*
X23125016Y-26894024D01*
X23125018Y-26894024D01*
X23234791Y-26809791D01*
X23253975Y-26784791D01*
X23274921Y-26757495D01*
X23332259Y-26715628D01*
X23374882Y-26708200D01*
X26771716Y-26708200D01*
X26839837Y-26728202D01*
X26860811Y-26745104D01*
X27093564Y-26977856D01*
X27127589Y-27040169D01*
X27129391Y-27083397D01*
X27120677Y-27149589D01*
X27119965Y-27155000D01*
X27123252Y-27179965D01*
X27138025Y-27292183D01*
X27190974Y-27420016D01*
X27222772Y-27461455D01*
X27275209Y-27529791D01*
X27331281Y-27572817D01*
X27384983Y-27614025D01*
X27512816Y-27666974D01*
X27528585Y-27669050D01*
X27650000Y-27685035D01*
X27787183Y-27666974D01*
X27849739Y-27641063D01*
X27915016Y-27614025D01*
X27915016Y-27614024D01*
X27915018Y-27614024D01*
X28024791Y-27529791D01*
X28109024Y-27420018D01*
X28161974Y-27292183D01*
X28180035Y-27155000D01*
X28161974Y-27017817D01*
X28109024Y-26889983D01*
X28024791Y-26780209D01*
X27940629Y-26715628D01*
X27915016Y-26695974D01*
X27787183Y-26643025D01*
X27678591Y-26628729D01*
X27650000Y-26624965D01*
X27649999Y-26624965D01*
X27649998Y-26624965D01*
X27578397Y-26634391D01*
X27508249Y-26623451D01*
X27472856Y-26598564D01*
X27284292Y-26409999D01*
X30089965Y-26409999D01*
X30108025Y-26547183D01*
X30160974Y-26675016D01*
X30180159Y-26700018D01*
X30245209Y-26784791D01*
X30313738Y-26837376D01*
X30354983Y-26869025D01*
X30482816Y-26921974D01*
X30498775Y-26924075D01*
X30620000Y-26940035D01*
X30757183Y-26921974D01*
X30885018Y-26869024D01*
X30994791Y-26784791D01*
X31079024Y-26675018D01*
X31084705Y-26661304D01*
X31131974Y-26547183D01*
X31140968Y-26478866D01*
X31150035Y-26410000D01*
X31131974Y-26272817D01*
X31079024Y-26144983D01*
X30994791Y-26035209D01*
X30917598Y-25975976D01*
X30885016Y-25950974D01*
X30757183Y-25898025D01*
X30635958Y-25882066D01*
X30620000Y-25879965D01*
X30619999Y-25879965D01*
X30482817Y-25898025D01*
X30354983Y-25950975D01*
X30245209Y-26035209D01*
X30160975Y-26144983D01*
X30108025Y-26272817D01*
X30089965Y-26409999D01*
X27284292Y-26409999D01*
X27152095Y-26277802D01*
X27136426Y-26258709D01*
X27132165Y-26252332D01*
X27128361Y-26246639D01*
X27128360Y-26246638D01*
X27116290Y-26238573D01*
X27116283Y-26238567D01*
X27039647Y-26187360D01*
X26935000Y-26166546D01*
X26920757Y-26169379D01*
X26896177Y-26171800D01*
X23382554Y-26171800D01*
X23314433Y-26151798D01*
X23282592Y-26122504D01*
X23234792Y-26060210D01*
X23193213Y-26028305D01*
X23161049Y-26003624D01*
X23119183Y-25946286D01*
X23114962Y-25875415D01*
X23149727Y-25813513D01*
X23161051Y-25803701D01*
X23224791Y-25754791D01*
X23309024Y-25645018D01*
X23361974Y-25517183D01*
X23380035Y-25380000D01*
X23361974Y-25242817D01*
X23309024Y-25114983D01*
X23224791Y-25005209D01*
X23156455Y-24952772D01*
X23115016Y-24920974D01*
X22987183Y-24868025D01*
X22865958Y-24852066D01*
X22850000Y-24849965D01*
X22849999Y-24849965D01*
X22712817Y-24868025D01*
X22584983Y-24920975D01*
X22475209Y-25005209D01*
X22390975Y-25114983D01*
X22338025Y-25242817D01*
X22319965Y-25379999D01*
X22338025Y-25517183D01*
X22390974Y-25645016D01*
X22390976Y-25645018D01*
X22475209Y-25754791D01*
X22548949Y-25811375D01*
X22590816Y-25868712D01*
X22595037Y-25939583D01*
X22560272Y-26001486D01*
X22548950Y-26011297D01*
X22485208Y-26060209D01*
X22390877Y-26183144D01*
X22390040Y-26182501D01*
X22357325Y-26223099D01*
X22289962Y-26245520D01*
X22285464Y-26245600D01*
X21628588Y-26245600D01*
X21602980Y-26241249D01*
X21571393Y-26244808D01*
X21557286Y-26245600D01*
X21553655Y-26245600D01*
X21550104Y-26246410D01*
X21536198Y-26248772D01*
X21504614Y-26252332D01*
X21495605Y-26256063D01*
X21470752Y-26275882D01*
X21459239Y-26284051D01*
X21456161Y-26285984D01*
X21453590Y-26288556D01*
X21443069Y-26297958D01*
X21418215Y-26317779D01*
X21403181Y-26338965D01*
X20572331Y-27169815D01*
X20510019Y-27203841D01*
X20453678Y-27199811D01*
X20453629Y-27200191D01*
X20447255Y-27199351D01*
X20439204Y-27198776D01*
X20437355Y-27198048D01*
X20323286Y-27183030D01*
X20300000Y-27179965D01*
X20299999Y-27179965D01*
X20162817Y-27198025D01*
X20034983Y-27250975D01*
X19925209Y-27335209D01*
X19840975Y-27444983D01*
X19788025Y-27572817D01*
X19769965Y-27709999D01*
X16075319Y-27709999D01*
X16073038Y-24180034D01*
X16072695Y-23649999D01*
X22539965Y-23649999D01*
X22558025Y-23787183D01*
X22610974Y-23915016D01*
X22610976Y-23915018D01*
X22695209Y-24024791D01*
X22784263Y-24093125D01*
X22804983Y-24109025D01*
X22932816Y-24161974D01*
X22948775Y-24164075D01*
X23070000Y-24180035D01*
X23207183Y-24161974D01*
X23335018Y-24109024D01*
X23444791Y-24024791D01*
X23529024Y-23915018D01*
X23581974Y-23787183D01*
X23600035Y-23650000D01*
X23589390Y-23569146D01*
X23597054Y-23519999D01*
X32289965Y-23519999D01*
X32308025Y-23657183D01*
X32360974Y-23785016D01*
X32360976Y-23785018D01*
X32445209Y-23894791D01*
X32534263Y-23963125D01*
X32554983Y-23979025D01*
X32682816Y-24031974D01*
X32698775Y-24034075D01*
X32820000Y-24050035D01*
X32957183Y-24031974D01*
X33085018Y-23979024D01*
X33194791Y-23894791D01*
X33279024Y-23785018D01*
X33331974Y-23657183D01*
X33350035Y-23520000D01*
X33331974Y-23382817D01*
X33279024Y-23254983D01*
X33194791Y-23145209D01*
X33126455Y-23092772D01*
X33085016Y-23060974D01*
X32957183Y-23008025D01*
X32835958Y-22992066D01*
X32820000Y-22989965D01*
X32819999Y-22989965D01*
X32682817Y-23008025D01*
X32554983Y-23060975D01*
X32445209Y-23145209D01*
X32360975Y-23254983D01*
X32308025Y-23382817D01*
X32289965Y-23519999D01*
X23597054Y-23519999D01*
X23600329Y-23498999D01*
X23647457Y-23445900D01*
X23715811Y-23426710D01*
X23762527Y-23436291D01*
X23872817Y-23481974D01*
X24010000Y-23500035D01*
X24147183Y-23481974D01*
X24234275Y-23445900D01*
X24275016Y-23429025D01*
X24275016Y-23429024D01*
X24275018Y-23429024D01*
X24384791Y-23344791D01*
X24469024Y-23235018D01*
X24486309Y-23193289D01*
X24521974Y-23107183D01*
X24528057Y-23060976D01*
X24540035Y-22970000D01*
X24521974Y-22832817D01*
X24469024Y-22704983D01*
X24384791Y-22595209D01*
X24316455Y-22542772D01*
X24275016Y-22510974D01*
X24147183Y-22458025D01*
X24025958Y-22442066D01*
X24010000Y-22439965D01*
X24009999Y-22439965D01*
X23872817Y-22458025D01*
X23744983Y-22510975D01*
X23635209Y-22595209D01*
X23550975Y-22704983D01*
X23498025Y-22832817D01*
X23479965Y-22970000D01*
X23490609Y-23050852D01*
X23479669Y-23121001D01*
X23432541Y-23174099D01*
X23364187Y-23193289D01*
X23317470Y-23183707D01*
X23207183Y-23138025D01*
X23085958Y-23122066D01*
X23070000Y-23119965D01*
X23069999Y-23119965D01*
X22932817Y-23138025D01*
X22804983Y-23190975D01*
X22695209Y-23275209D01*
X22610975Y-23384983D01*
X22558025Y-23512817D01*
X22539965Y-23649999D01*
X16072695Y-23649999D01*
X16071306Y-21499999D01*
X28099965Y-21499999D01*
X28118025Y-21637183D01*
X28170974Y-21765016D01*
X28170976Y-21765018D01*
X28255209Y-21874791D01*
X28344263Y-21943125D01*
X28364983Y-21959025D01*
X28492816Y-22011974D01*
X28510876Y-22014351D01*
X28630000Y-22030035D01*
X28767183Y-22011974D01*
X28895018Y-21959024D01*
X29004791Y-21874791D01*
X29089024Y-21765018D01*
X29141974Y-21637183D01*
X29160035Y-21500000D01*
X29141974Y-21362817D01*
X29089024Y-21234983D01*
X29004791Y-21125209D01*
X28936455Y-21072772D01*
X28895016Y-21040974D01*
X28767183Y-20988025D01*
X28645958Y-20972066D01*
X28630000Y-20969965D01*
X28629999Y-20969965D01*
X28492817Y-20988025D01*
X28364983Y-21040975D01*
X28255209Y-21125209D01*
X28170975Y-21234983D01*
X28118025Y-21362817D01*
X28099965Y-21499999D01*
X16071306Y-21499999D01*
X16071222Y-21369897D01*
X16739500Y-21369897D01*
X16744171Y-21393381D01*
X16745331Y-21399213D01*
X16767543Y-21432457D01*
X16800787Y-21454669D01*
X16830101Y-21460500D01*
X18049898Y-21460499D01*
X18079213Y-21454669D01*
X18112457Y-21432457D01*
X18134669Y-21399213D01*
X18140500Y-21369899D01*
X18140499Y-20739999D01*
X24434965Y-20739999D01*
X24453025Y-20877183D01*
X24505974Y-21005016D01*
X24505976Y-21005018D01*
X24590209Y-21114791D01*
X24679263Y-21183125D01*
X24699983Y-21199025D01*
X24827816Y-21251974D01*
X24843775Y-21254075D01*
X24965000Y-21270035D01*
X25102183Y-21251974D01*
X25230018Y-21199024D01*
X25339791Y-21114791D01*
X25424024Y-21005018D01*
X25476974Y-20877183D01*
X25495035Y-20740000D01*
X25476974Y-20602817D01*
X25424024Y-20474983D01*
X25339791Y-20365209D01*
X25267841Y-20309999D01*
X32349965Y-20309999D01*
X32368025Y-20447183D01*
X32420974Y-20575016D01*
X32420976Y-20575018D01*
X32505209Y-20684791D01*
X32577158Y-20740000D01*
X32614983Y-20769025D01*
X32742816Y-20821974D01*
X32760876Y-20824351D01*
X32880000Y-20840035D01*
X33017183Y-20821974D01*
X33145018Y-20769024D01*
X33254791Y-20684791D01*
X33339024Y-20575018D01*
X33391974Y-20447183D01*
X33410035Y-20310000D01*
X33391974Y-20172817D01*
X33339024Y-20044983D01*
X33254791Y-19935209D01*
X33186455Y-19882772D01*
X33145016Y-19850974D01*
X33017183Y-19798025D01*
X32895958Y-19782066D01*
X32880000Y-19779965D01*
X32879999Y-19779965D01*
X32742817Y-19798025D01*
X32614983Y-19850975D01*
X32505209Y-19935209D01*
X32420975Y-20044983D01*
X32368025Y-20172817D01*
X32349965Y-20309999D01*
X25267841Y-20309999D01*
X25230016Y-20280974D01*
X25102183Y-20228025D01*
X24980958Y-20212066D01*
X24965000Y-20209965D01*
X24964999Y-20209965D01*
X24827817Y-20228025D01*
X24699983Y-20280975D01*
X24590209Y-20365209D01*
X24505975Y-20474983D01*
X24453025Y-20602817D01*
X24434965Y-20739999D01*
X18140499Y-20739999D01*
X18140499Y-20150102D01*
X18134669Y-20120787D01*
X18112457Y-20087543D01*
X18079213Y-20065331D01*
X18079212Y-20065330D01*
X18049899Y-20059500D01*
X16830102Y-20059500D01*
X16800787Y-20065331D01*
X16767543Y-20087543D01*
X16745330Y-20120787D01*
X16739500Y-20150100D01*
X16739500Y-21369897D01*
X16071222Y-21369897D01*
X16070082Y-19606081D01*
X16090040Y-19537948D01*
X16143666Y-19491420D01*
X16196082Y-19480000D01*
X34834000Y-19480000D01*
X34902121Y-19500002D01*
G37*
G04 #@! TD.AperFunction*
G04 #@! TD*
G04 #@! TA.AperFunction,Conductor*
G04 #@! TO.N,Board_3-GND*
G36*
X53872121Y-35060002D02*
G01*
X53918614Y-35113658D01*
X53930000Y-35166000D01*
X53930000Y-50393933D01*
X53909998Y-50462054D01*
X53856342Y-50508547D01*
X53803933Y-50519933D01*
X35175851Y-50510066D01*
X35107741Y-50490028D01*
X35061277Y-50436348D01*
X35049918Y-50384149D01*
X35049514Y-49759897D01*
X37987000Y-49759897D01*
X37988832Y-49769105D01*
X37992831Y-49789213D01*
X38015043Y-49822457D01*
X38048287Y-49844669D01*
X38077601Y-49850500D01*
X39297398Y-49850499D01*
X39326713Y-49844669D01*
X39359957Y-49822457D01*
X39382169Y-49789213D01*
X39382169Y-49789212D01*
X39396093Y-49768374D01*
X39396265Y-49768489D01*
X39413071Y-49736356D01*
X39474763Y-49701219D01*
X39545658Y-49705014D01*
X39603247Y-49746535D01*
X39617142Y-49776958D01*
X39625331Y-49789213D01*
X39647543Y-49822457D01*
X39680787Y-49844669D01*
X39710101Y-49850500D01*
X40929898Y-49850499D01*
X40959213Y-49844669D01*
X40992457Y-49822457D01*
X41014669Y-49789213D01*
X41020500Y-49759899D01*
X41020500Y-49759897D01*
X42869500Y-49759897D01*
X42871332Y-49769105D01*
X42875331Y-49789213D01*
X42897543Y-49822457D01*
X42930787Y-49844669D01*
X42960101Y-49850500D01*
X44179898Y-49850499D01*
X44209213Y-49844669D01*
X44242457Y-49822457D01*
X44264669Y-49789213D01*
X44264669Y-49789212D01*
X44278593Y-49768374D01*
X44281781Y-49770504D01*
X44293041Y-49748957D01*
X44354721Y-49713799D01*
X44425617Y-49717570D01*
X44483221Y-49759071D01*
X44487807Y-49769105D01*
X44488906Y-49768372D01*
X44502830Y-49789212D01*
X44502831Y-49789213D01*
X44525043Y-49822457D01*
X44558287Y-49844669D01*
X44587601Y-49850500D01*
X45807398Y-49850499D01*
X45836713Y-49844669D01*
X45869957Y-49822457D01*
X45892169Y-49789213D01*
X45892169Y-49789212D01*
X45906093Y-49768374D01*
X45909281Y-49770504D01*
X45920541Y-49748957D01*
X45982221Y-49713799D01*
X46053117Y-49717570D01*
X46110721Y-49759071D01*
X46115307Y-49769105D01*
X46116406Y-49768372D01*
X46130330Y-49789212D01*
X46130331Y-49789213D01*
X46152543Y-49822457D01*
X46185787Y-49844669D01*
X46215101Y-49850500D01*
X47434898Y-49850499D01*
X47464213Y-49844669D01*
X47497457Y-49822457D01*
X47519669Y-49789213D01*
X47519669Y-49789212D01*
X47533593Y-49768374D01*
X47536781Y-49770504D01*
X47548041Y-49748957D01*
X47609721Y-49713799D01*
X47680617Y-49717570D01*
X47738221Y-49759071D01*
X47742807Y-49769105D01*
X47743906Y-49768372D01*
X47757830Y-49789212D01*
X47757831Y-49789213D01*
X47780043Y-49822457D01*
X47813287Y-49844669D01*
X47842601Y-49850500D01*
X49062398Y-49850499D01*
X49091713Y-49844669D01*
X49124957Y-49822457D01*
X49147169Y-49789213D01*
X49147169Y-49789212D01*
X49161093Y-49768374D01*
X49164281Y-49770504D01*
X49175541Y-49748957D01*
X49237221Y-49713799D01*
X49308117Y-49717570D01*
X49365721Y-49759071D01*
X49370307Y-49769105D01*
X49371406Y-49768372D01*
X49385330Y-49789212D01*
X49385331Y-49789213D01*
X49407543Y-49822457D01*
X49440787Y-49844669D01*
X49470101Y-49850500D01*
X50689898Y-49850499D01*
X50719213Y-49844669D01*
X50752457Y-49822457D01*
X50774669Y-49789213D01*
X50780500Y-49759899D01*
X50780499Y-48822121D01*
X51885564Y-48822121D01*
X51918911Y-48917423D01*
X52014826Y-49070071D01*
X52142298Y-49197543D01*
X52294942Y-49293456D01*
X52390248Y-49326803D01*
X52390248Y-48822121D01*
X51885564Y-48822121D01*
X50780499Y-48822121D01*
X50780499Y-48540102D01*
X50774669Y-48510787D01*
X50752457Y-48477543D01*
X50719213Y-48455331D01*
X50719212Y-48455330D01*
X50689899Y-48449500D01*
X49470102Y-48449500D01*
X49440787Y-48455331D01*
X49407543Y-48477543D01*
X49371407Y-48531626D01*
X49368212Y-48529491D01*
X49356907Y-48551095D01*
X49295206Y-48586217D01*
X49224312Y-48582405D01*
X49166733Y-48540870D01*
X49162182Y-48530900D01*
X49161094Y-48531628D01*
X49147169Y-48510787D01*
X49124957Y-48477543D01*
X49091713Y-48455331D01*
X49091712Y-48455330D01*
X49062399Y-48449500D01*
X47842602Y-48449500D01*
X47813287Y-48455331D01*
X47780043Y-48477543D01*
X47743907Y-48531626D01*
X47740712Y-48529491D01*
X47729407Y-48551095D01*
X47667706Y-48586217D01*
X47596812Y-48582405D01*
X47539233Y-48540870D01*
X47534682Y-48530900D01*
X47533594Y-48531628D01*
X47519669Y-48510787D01*
X47497457Y-48477543D01*
X47464213Y-48455331D01*
X47464212Y-48455330D01*
X47434899Y-48449500D01*
X46215102Y-48449500D01*
X46185787Y-48455331D01*
X46152543Y-48477543D01*
X46116407Y-48531626D01*
X46113212Y-48529491D01*
X46101907Y-48551095D01*
X46040206Y-48586217D01*
X45969312Y-48582405D01*
X45911733Y-48540870D01*
X45907182Y-48530900D01*
X45906094Y-48531628D01*
X45892169Y-48510787D01*
X45869957Y-48477543D01*
X45836713Y-48455331D01*
X45836712Y-48455330D01*
X45807399Y-48449500D01*
X44587602Y-48449500D01*
X44558287Y-48455331D01*
X44525043Y-48477543D01*
X44488907Y-48531626D01*
X44485712Y-48529491D01*
X44474407Y-48551095D01*
X44412706Y-48586217D01*
X44341812Y-48582405D01*
X44284233Y-48540870D01*
X44279682Y-48530900D01*
X44278594Y-48531628D01*
X44264669Y-48510787D01*
X44242457Y-48477543D01*
X44209213Y-48455331D01*
X44209212Y-48455330D01*
X44179899Y-48449500D01*
X42960102Y-48449500D01*
X42930787Y-48455331D01*
X42897543Y-48477543D01*
X42875330Y-48510787D01*
X42869500Y-48540100D01*
X42869500Y-49759897D01*
X41020500Y-49759897D01*
X41020499Y-48540102D01*
X41014669Y-48510787D01*
X40992457Y-48477543D01*
X40959213Y-48455331D01*
X40959212Y-48455330D01*
X40929899Y-48449500D01*
X39710102Y-48449500D01*
X39680787Y-48455331D01*
X39647543Y-48477543D01*
X39611407Y-48531626D01*
X39611233Y-48531509D01*
X39594421Y-48563650D01*
X39532726Y-48598782D01*
X39461832Y-48594982D01*
X39404246Y-48553456D01*
X39390355Y-48523039D01*
X39382169Y-48510787D01*
X39359957Y-48477543D01*
X39326713Y-48455331D01*
X39326712Y-48455330D01*
X39297399Y-48449500D01*
X38077602Y-48449500D01*
X38048287Y-48455331D01*
X38015043Y-48477543D01*
X37992830Y-48510787D01*
X37987000Y-48540100D01*
X37987000Y-49759897D01*
X35049514Y-49759897D01*
X35047646Y-46869999D01*
X37239965Y-46869999D01*
X37258025Y-47007183D01*
X37310974Y-47135016D01*
X37310976Y-47135018D01*
X37395209Y-47244791D01*
X37464708Y-47298120D01*
X37504983Y-47329025D01*
X37632816Y-47381974D01*
X37648775Y-47384075D01*
X37770000Y-47400035D01*
X37907183Y-47381974D01*
X38035018Y-47329024D01*
X38144791Y-47244791D01*
X38229024Y-47135018D01*
X38235231Y-47120034D01*
X38281974Y-47007183D01*
X38287555Y-46964790D01*
X38300035Y-46870000D01*
X38281974Y-46732817D01*
X38229024Y-46604983D01*
X38217526Y-46589999D01*
X42179965Y-46589999D01*
X42198025Y-46727183D01*
X42250974Y-46855016D01*
X42250976Y-46855018D01*
X42335209Y-46964791D01*
X42390455Y-47007183D01*
X42444983Y-47049025D01*
X42572816Y-47101974D01*
X42588775Y-47104075D01*
X42710000Y-47120035D01*
X42847183Y-47101974D01*
X42975018Y-47049024D01*
X43084791Y-46964791D01*
X43169024Y-46855018D01*
X43221974Y-46727183D01*
X43240035Y-46590000D01*
X43221974Y-46452817D01*
X43169024Y-46324983D01*
X43084791Y-46215209D01*
X42989351Y-46141974D01*
X42975016Y-46130974D01*
X42847183Y-46078025D01*
X42725958Y-46062066D01*
X42710000Y-46059965D01*
X42709999Y-46059965D01*
X42572817Y-46078025D01*
X42444983Y-46130975D01*
X42335209Y-46215209D01*
X42250975Y-46324983D01*
X42198025Y-46452817D01*
X42179965Y-46589999D01*
X38217526Y-46589999D01*
X38144791Y-46495209D01*
X38076455Y-46442772D01*
X38035016Y-46410974D01*
X37907183Y-46358025D01*
X37785958Y-46342066D01*
X37770000Y-46339965D01*
X37769999Y-46339965D01*
X37632817Y-46358025D01*
X37504983Y-46410975D01*
X37395209Y-46495209D01*
X37310975Y-46604983D01*
X37258025Y-46732817D01*
X37239965Y-46869999D01*
X35047646Y-46869999D01*
X35046845Y-45629999D01*
X39929965Y-45629999D01*
X39948025Y-45767183D01*
X40000974Y-45895016D01*
X40000976Y-45895018D01*
X40085209Y-46004791D01*
X40157112Y-46059965D01*
X40194983Y-46089025D01*
X40322816Y-46141974D01*
X40338775Y-46144075D01*
X40460000Y-46160035D01*
X40597183Y-46141974D01*
X40623735Y-46130976D01*
X40725016Y-46089025D01*
X40725016Y-46089024D01*
X40725018Y-46089024D01*
X40834791Y-46004791D01*
X40919024Y-45895018D01*
X40938141Y-45848866D01*
X40971974Y-45767183D01*
X40971973Y-45767182D01*
X40990035Y-45630000D01*
X40971974Y-45492817D01*
X40919024Y-45364983D01*
X40834791Y-45255209D01*
X40766455Y-45202772D01*
X40725016Y-45170974D01*
X40597183Y-45118025D01*
X40475958Y-45102066D01*
X40460000Y-45099965D01*
X40459999Y-45099965D01*
X40322817Y-45118025D01*
X40194983Y-45170975D01*
X40085209Y-45255209D01*
X40000975Y-45364983D01*
X39948025Y-45492817D01*
X39929965Y-45629999D01*
X35046845Y-45629999D01*
X35046011Y-44339999D01*
X35629965Y-44339999D01*
X35648025Y-44477183D01*
X35700974Y-44605016D01*
X35700976Y-44605018D01*
X35785209Y-44714791D01*
X35874263Y-44783125D01*
X35894983Y-44799025D01*
X36022816Y-44851974D01*
X36040876Y-44854351D01*
X36160000Y-44870035D01*
X36297183Y-44851974D01*
X36297182Y-44851974D01*
X36425016Y-44799025D01*
X36425016Y-44799024D01*
X36425018Y-44799024D01*
X36534791Y-44714791D01*
X36619024Y-44605018D01*
X36671974Y-44477183D01*
X36690035Y-44340000D01*
X36676869Y-44239999D01*
X40049965Y-44239999D01*
X40068025Y-44377183D01*
X40120974Y-44505016D01*
X40120976Y-44505018D01*
X40205209Y-44614791D01*
X40294263Y-44683125D01*
X40314983Y-44699025D01*
X40442816Y-44751974D01*
X40460877Y-44754351D01*
X40580000Y-44770035D01*
X40717183Y-44751974D01*
X40717182Y-44751974D01*
X40845016Y-44699025D01*
X40845016Y-44699024D01*
X40845018Y-44699024D01*
X40954791Y-44614791D01*
X41039024Y-44505018D01*
X41039024Y-44505015D01*
X41049123Y-44491856D01*
X41049960Y-44492498D01*
X41082672Y-44451903D01*
X41150035Y-44429480D01*
X41154536Y-44429400D01*
X46766414Y-44429400D01*
X46792021Y-44433750D01*
X46798247Y-44433048D01*
X46798249Y-44433049D01*
X46823606Y-44430192D01*
X46837713Y-44429400D01*
X46841339Y-44429400D01*
X46841341Y-44429400D01*
X46844884Y-44428591D01*
X46858796Y-44426227D01*
X46884164Y-44423369D01*
X46884166Y-44423367D01*
X46890401Y-44422665D01*
X46899386Y-44418944D01*
X46924237Y-44399125D01*
X46935770Y-44390942D01*
X46938836Y-44389016D01*
X46941401Y-44386450D01*
X46951933Y-44377038D01*
X46971887Y-44361126D01*
X46971888Y-44361123D01*
X46976788Y-44357216D01*
X46991819Y-44336031D01*
X47003695Y-44324155D01*
X47066005Y-44290131D01*
X47136820Y-44295196D01*
X47193656Y-44337743D01*
X47217710Y-44396805D01*
X47223026Y-44437183D01*
X47275974Y-44565016D01*
X47286602Y-44578866D01*
X47360209Y-44674791D01*
X47449263Y-44743125D01*
X47469983Y-44759025D01*
X47597816Y-44811974D01*
X47613775Y-44814075D01*
X47735000Y-44830035D01*
X47872183Y-44811974D01*
X48000018Y-44759024D01*
X48109791Y-44674791D01*
X48194024Y-44565018D01*
X48246974Y-44437183D01*
X48265035Y-44300000D01*
X48246974Y-44162817D01*
X48194024Y-44034983D01*
X48109791Y-43925209D01*
X48031599Y-43865209D01*
X48000016Y-43840974D01*
X47929602Y-43811809D01*
X47874321Y-43767262D01*
X47851899Y-43699898D01*
X47869457Y-43631107D01*
X47921418Y-43582728D01*
X47977819Y-43569400D01*
X51436414Y-43569400D01*
X51462021Y-43573750D01*
X51468247Y-43573048D01*
X51468249Y-43573049D01*
X51493606Y-43570192D01*
X51507713Y-43569400D01*
X51511339Y-43569400D01*
X51511341Y-43569400D01*
X51514884Y-43568591D01*
X51528796Y-43566227D01*
X51554164Y-43563369D01*
X51554166Y-43563367D01*
X51560401Y-43562665D01*
X51569386Y-43558944D01*
X51594237Y-43539125D01*
X51605770Y-43530942D01*
X51608836Y-43529016D01*
X51611401Y-43526450D01*
X51621925Y-43517043D01*
X51641887Y-43501126D01*
X51641888Y-43501122D01*
X51645560Y-43498195D01*
X51711290Y-43471361D01*
X51781093Y-43484323D01*
X51832808Y-43532965D01*
X51849328Y-43582598D01*
X51858880Y-43667378D01*
X51918458Y-43837642D01*
X52014432Y-43990384D01*
X52058074Y-44034026D01*
X52092100Y-44096338D01*
X52087035Y-44167153D01*
X52058074Y-44212216D01*
X52014432Y-44255857D01*
X51918458Y-44408599D01*
X51858880Y-44578863D01*
X51838683Y-44758120D01*
X51858880Y-44937378D01*
X51918458Y-45107642D01*
X52014432Y-45260384D01*
X52058074Y-45304026D01*
X52092100Y-45366338D01*
X52087035Y-45437153D01*
X52058074Y-45482216D01*
X52014432Y-45525857D01*
X51918458Y-45678599D01*
X51858880Y-45848863D01*
X51838683Y-46028120D01*
X51858880Y-46207378D01*
X51918458Y-46377642D01*
X52014432Y-46530384D01*
X52058074Y-46574026D01*
X52092100Y-46636338D01*
X52087035Y-46707153D01*
X52058074Y-46752216D01*
X52014432Y-46795857D01*
X51918458Y-46948599D01*
X51858880Y-47118863D01*
X51838683Y-47298120D01*
X51858880Y-47477378D01*
X51918458Y-47647642D01*
X52014432Y-47800384D01*
X52058427Y-47844379D01*
X52092453Y-47906691D01*
X52087388Y-47977506D01*
X52058428Y-48022569D01*
X52014824Y-48066173D01*
X51918911Y-48218818D01*
X51885563Y-48314120D01*
X51885564Y-48314121D01*
X52434189Y-48314121D01*
X52432119Y-48315316D01*
X52358447Y-48403114D01*
X52319248Y-48510815D01*
X52319248Y-48625427D01*
X52358447Y-48733128D01*
X52432119Y-48820926D01*
X52531377Y-48878233D01*
X52615812Y-48893121D01*
X52672684Y-48893121D01*
X52757119Y-48878233D01*
X52854307Y-48822121D01*
X52898248Y-48822121D01*
X52898248Y-49326803D01*
X52993553Y-49293456D01*
X53146197Y-49197543D01*
X53273669Y-49070071D01*
X53369584Y-48917423D01*
X53402932Y-48822121D01*
X52898248Y-48822121D01*
X52854307Y-48822121D01*
X52856377Y-48820926D01*
X52930049Y-48733128D01*
X52969248Y-48625427D01*
X52969248Y-48510815D01*
X52930049Y-48403114D01*
X52856377Y-48315316D01*
X52854307Y-48314121D01*
X53402932Y-48314121D01*
X53402932Y-48314120D01*
X53369584Y-48218818D01*
X53273669Y-48066170D01*
X53230068Y-48022569D01*
X53196042Y-47960257D01*
X53201107Y-47889442D01*
X53230066Y-47844380D01*
X53274064Y-47800383D01*
X53370037Y-47647643D01*
X53429616Y-47477376D01*
X53449813Y-47298121D01*
X53429616Y-47118866D01*
X53370037Y-46948599D01*
X53274064Y-46795859D01*
X53274063Y-46795857D01*
X53230422Y-46752216D01*
X53196396Y-46689904D01*
X53201461Y-46619089D01*
X53230422Y-46574026D01*
X53274063Y-46530384D01*
X53296165Y-46495209D01*
X53370037Y-46377643D01*
X53429616Y-46207376D01*
X53449813Y-46028121D01*
X53429616Y-45848866D01*
X53370037Y-45678599D01*
X53274064Y-45525859D01*
X53274063Y-45525857D01*
X53230422Y-45482216D01*
X53196396Y-45419904D01*
X53201461Y-45349089D01*
X53230422Y-45304026D01*
X53274063Y-45260384D01*
X53330242Y-45170976D01*
X53370037Y-45107643D01*
X53429616Y-44937376D01*
X53449813Y-44758121D01*
X53429616Y-44578866D01*
X53370037Y-44408599D01*
X53350297Y-44377183D01*
X53274063Y-44255857D01*
X53230422Y-44212216D01*
X53196396Y-44149904D01*
X53201461Y-44079089D01*
X53230422Y-44034026D01*
X53274063Y-43990384D01*
X53274064Y-43990383D01*
X53370037Y-43837643D01*
X53429616Y-43667376D01*
X53449813Y-43488121D01*
X53429616Y-43308866D01*
X53370037Y-43138599D01*
X53318890Y-43057199D01*
X53274063Y-42985857D01*
X53230422Y-42942216D01*
X53196396Y-42879904D01*
X53201461Y-42809089D01*
X53230422Y-42764026D01*
X53274063Y-42720384D01*
X53277447Y-42714999D01*
X53370037Y-42567643D01*
X53429616Y-42397376D01*
X53449813Y-42218121D01*
X53429616Y-42038866D01*
X53370037Y-41868599D01*
X53330402Y-41805520D01*
X53274063Y-41715857D01*
X53146511Y-41588305D01*
X52993769Y-41492331D01*
X52823505Y-41432753D01*
X52644248Y-41412556D01*
X52464990Y-41432753D01*
X52294726Y-41492331D01*
X52141984Y-41588305D01*
X52014432Y-41715857D01*
X51918458Y-41868599D01*
X51858880Y-42038863D01*
X51845393Y-42158564D01*
X51838683Y-42218121D01*
X51845162Y-42275628D01*
X51858880Y-42397378D01*
X51922390Y-42578879D01*
X51926009Y-42649783D01*
X51892557Y-42709589D01*
X51448453Y-43153695D01*
X51386141Y-43187720D01*
X51359357Y-43190600D01*
X47733592Y-43190600D01*
X47707980Y-43186248D01*
X47676388Y-43189808D01*
X47662280Y-43190600D01*
X47658659Y-43190600D01*
X47655114Y-43191409D01*
X47641195Y-43193773D01*
X47609612Y-43197332D01*
X47600605Y-43201063D01*
X47575753Y-43220881D01*
X47564240Y-43229050D01*
X47561162Y-43230983D01*
X47558590Y-43233556D01*
X47548069Y-43242958D01*
X47523215Y-43262779D01*
X47508183Y-43283963D01*
X46778453Y-44013695D01*
X46716140Y-44047720D01*
X46689357Y-44050600D01*
X41154536Y-44050600D01*
X41086415Y-44030598D01*
X41049426Y-43987910D01*
X41049123Y-43988144D01*
X41045211Y-43983046D01*
X41039922Y-43976942D01*
X41039128Y-43975119D01*
X40954792Y-43865210D01*
X40918865Y-43837642D01*
X40846319Y-43781974D01*
X40845016Y-43780974D01*
X40717183Y-43728025D01*
X40595958Y-43712066D01*
X40580000Y-43709965D01*
X40579999Y-43709965D01*
X40442817Y-43728025D01*
X40314983Y-43780975D01*
X40205209Y-43865209D01*
X40120975Y-43974983D01*
X40068025Y-44102817D01*
X40049965Y-44239999D01*
X36676869Y-44239999D01*
X36671974Y-44202817D01*
X36619024Y-44074983D01*
X36534791Y-43965209D01*
X36466455Y-43912772D01*
X36425016Y-43880974D01*
X36297183Y-43828025D01*
X36174006Y-43811809D01*
X36160000Y-43809965D01*
X36159999Y-43809965D01*
X36022817Y-43828025D01*
X35894983Y-43880975D01*
X35785209Y-43965209D01*
X35700975Y-44074983D01*
X35648025Y-44202817D01*
X35629965Y-44339999D01*
X35046011Y-44339999D01*
X35045319Y-43269999D01*
X38739965Y-43269999D01*
X38758025Y-43407183D01*
X38810974Y-43535016D01*
X38832731Y-43563369D01*
X38895209Y-43644791D01*
X38924645Y-43667378D01*
X39004983Y-43729025D01*
X39132816Y-43781974D01*
X39150876Y-43784351D01*
X39270000Y-43800035D01*
X39407183Y-43781974D01*
X39535018Y-43729024D01*
X39644791Y-43644791D01*
X39729024Y-43535018D01*
X39729875Y-43532965D01*
X39781974Y-43407183D01*
X39781973Y-43407182D01*
X39800035Y-43270000D01*
X39781974Y-43132817D01*
X39779809Y-43116370D01*
X39780855Y-43116232D01*
X39775281Y-43064391D01*
X39807060Y-43000904D01*
X39810154Y-42997696D01*
X40586547Y-42221304D01*
X40648860Y-42187279D01*
X40675643Y-42184400D01*
X41255464Y-42184400D01*
X41323585Y-42204402D01*
X41360573Y-42247089D01*
X41360877Y-42246856D01*
X41364788Y-42251954D01*
X41370078Y-42258058D01*
X41370871Y-42259880D01*
X41370974Y-42260015D01*
X41370976Y-42260018D01*
X41455209Y-42369791D01*
X41491161Y-42397378D01*
X41564983Y-42454025D01*
X41692816Y-42506974D01*
X41708775Y-42509075D01*
X41830000Y-42525035D01*
X41967183Y-42506974D01*
X41983938Y-42500034D01*
X42095016Y-42454025D01*
X42095016Y-42454024D01*
X42095018Y-42454024D01*
X42204791Y-42369791D01*
X42223975Y-42344791D01*
X42244921Y-42317495D01*
X42302259Y-42275628D01*
X42344882Y-42268200D01*
X45741716Y-42268200D01*
X45809837Y-42288202D01*
X45830811Y-42305104D01*
X46063564Y-42537856D01*
X46097589Y-42600169D01*
X46099391Y-42643397D01*
X46090677Y-42709589D01*
X46089965Y-42715000D01*
X46093252Y-42739965D01*
X46108025Y-42852183D01*
X46160974Y-42980016D01*
X46192772Y-43021455D01*
X46245209Y-43089791D01*
X46301281Y-43132817D01*
X46354983Y-43174025D01*
X46482816Y-43226974D01*
X46498585Y-43229050D01*
X46620000Y-43245035D01*
X46757183Y-43226974D01*
X46819739Y-43201063D01*
X46885016Y-43174025D01*
X46885016Y-43174024D01*
X46885018Y-43174024D01*
X46994791Y-43089791D01*
X47079024Y-42980018D01*
X47131974Y-42852183D01*
X47150035Y-42715000D01*
X47131974Y-42577817D01*
X47079024Y-42449983D01*
X46994791Y-42340209D01*
X46910629Y-42275628D01*
X46885016Y-42255974D01*
X46757183Y-42203025D01*
X46648591Y-42188729D01*
X46620000Y-42184965D01*
X46619999Y-42184965D01*
X46619998Y-42184965D01*
X46548397Y-42194391D01*
X46478249Y-42183451D01*
X46442856Y-42158564D01*
X46254292Y-41969999D01*
X49059965Y-41969999D01*
X49078025Y-42107183D01*
X49130974Y-42235016D01*
X49150159Y-42260018D01*
X49215209Y-42344791D01*
X49283738Y-42397376D01*
X49324983Y-42429025D01*
X49452816Y-42481974D01*
X49468775Y-42484075D01*
X49590000Y-42500035D01*
X49727183Y-42481974D01*
X49855018Y-42429024D01*
X49964791Y-42344791D01*
X50049024Y-42235018D01*
X50054705Y-42221304D01*
X50101974Y-42107183D01*
X50110968Y-42038866D01*
X50120035Y-41970000D01*
X50101974Y-41832817D01*
X50049024Y-41704983D01*
X49964791Y-41595209D01*
X49887598Y-41535976D01*
X49855016Y-41510974D01*
X49727183Y-41458025D01*
X49605958Y-41442066D01*
X49590000Y-41439965D01*
X49589999Y-41439965D01*
X49452817Y-41458025D01*
X49324983Y-41510975D01*
X49215209Y-41595209D01*
X49130975Y-41704983D01*
X49078025Y-41832817D01*
X49059965Y-41969999D01*
X46254292Y-41969999D01*
X46122095Y-41837802D01*
X46106426Y-41818709D01*
X46102165Y-41812332D01*
X46098361Y-41806639D01*
X46098360Y-41806638D01*
X46086290Y-41798573D01*
X46086283Y-41798567D01*
X46009647Y-41747360D01*
X45905000Y-41726546D01*
X45890757Y-41729379D01*
X45866177Y-41731800D01*
X42352554Y-41731800D01*
X42284433Y-41711798D01*
X42252592Y-41682504D01*
X42204792Y-41620210D01*
X42163213Y-41588305D01*
X42131049Y-41563624D01*
X42089183Y-41506286D01*
X42084962Y-41435415D01*
X42119727Y-41373513D01*
X42131051Y-41363701D01*
X42194791Y-41314791D01*
X42279024Y-41205018D01*
X42331974Y-41077183D01*
X42350035Y-40940000D01*
X42331974Y-40802817D01*
X42279024Y-40674983D01*
X42194791Y-40565209D01*
X42126455Y-40512772D01*
X42085016Y-40480974D01*
X41957183Y-40428025D01*
X41835958Y-40412066D01*
X41820000Y-40409965D01*
X41819999Y-40409965D01*
X41682817Y-40428025D01*
X41554983Y-40480975D01*
X41445209Y-40565209D01*
X41360975Y-40674983D01*
X41308025Y-40802817D01*
X41289965Y-40939999D01*
X41308025Y-41077183D01*
X41360974Y-41205016D01*
X41360976Y-41205018D01*
X41445209Y-41314791D01*
X41518949Y-41371375D01*
X41560816Y-41428712D01*
X41565037Y-41499583D01*
X41530272Y-41561486D01*
X41518950Y-41571297D01*
X41455208Y-41620209D01*
X41360877Y-41743144D01*
X41360040Y-41742501D01*
X41327325Y-41783099D01*
X41259962Y-41805520D01*
X41255464Y-41805600D01*
X40598588Y-41805600D01*
X40572980Y-41801249D01*
X40541393Y-41804808D01*
X40527286Y-41805600D01*
X40523655Y-41805600D01*
X40520104Y-41806410D01*
X40506198Y-41808772D01*
X40474614Y-41812332D01*
X40465605Y-41816063D01*
X40440752Y-41835882D01*
X40429239Y-41844051D01*
X40426161Y-41845984D01*
X40423590Y-41848556D01*
X40413069Y-41857958D01*
X40388215Y-41877779D01*
X40373181Y-41898965D01*
X39542331Y-42729815D01*
X39480019Y-42763841D01*
X39423678Y-42759811D01*
X39423629Y-42760191D01*
X39417255Y-42759351D01*
X39409204Y-42758776D01*
X39407355Y-42758048D01*
X39293286Y-42743030D01*
X39270000Y-42739965D01*
X39269999Y-42739965D01*
X39132817Y-42758025D01*
X39004983Y-42810975D01*
X38895209Y-42895209D01*
X38810975Y-43004983D01*
X38758025Y-43132817D01*
X38739965Y-43269999D01*
X35045319Y-43269999D01*
X35043038Y-39740034D01*
X35042695Y-39209999D01*
X41509965Y-39209999D01*
X41528025Y-39347183D01*
X41580974Y-39475016D01*
X41580976Y-39475018D01*
X41665209Y-39584791D01*
X41754263Y-39653125D01*
X41774983Y-39669025D01*
X41902816Y-39721974D01*
X41918775Y-39724075D01*
X42040000Y-39740035D01*
X42177183Y-39721974D01*
X42305018Y-39669024D01*
X42414791Y-39584791D01*
X42499024Y-39475018D01*
X42551974Y-39347183D01*
X42570035Y-39210000D01*
X42559390Y-39129146D01*
X42567054Y-39079999D01*
X51259965Y-39079999D01*
X51278025Y-39217183D01*
X51330974Y-39345016D01*
X51330976Y-39345018D01*
X51415209Y-39454791D01*
X51504263Y-39523125D01*
X51524983Y-39539025D01*
X51652816Y-39591974D01*
X51668775Y-39594075D01*
X51790000Y-39610035D01*
X51927183Y-39591974D01*
X52055018Y-39539024D01*
X52164791Y-39454791D01*
X52249024Y-39345018D01*
X52301974Y-39217183D01*
X52320035Y-39080000D01*
X52301974Y-38942817D01*
X52249024Y-38814983D01*
X52164791Y-38705209D01*
X52096455Y-38652772D01*
X52055016Y-38620974D01*
X51927183Y-38568025D01*
X51805958Y-38552066D01*
X51790000Y-38549965D01*
X51789999Y-38549965D01*
X51652817Y-38568025D01*
X51524983Y-38620975D01*
X51415209Y-38705209D01*
X51330975Y-38814983D01*
X51278025Y-38942817D01*
X51259965Y-39079999D01*
X42567054Y-39079999D01*
X42570329Y-39058999D01*
X42617457Y-39005900D01*
X42685811Y-38986710D01*
X42732527Y-38996291D01*
X42842817Y-39041974D01*
X42980000Y-39060035D01*
X43117183Y-39041974D01*
X43204275Y-39005900D01*
X43245016Y-38989025D01*
X43245016Y-38989024D01*
X43245018Y-38989024D01*
X43354791Y-38904791D01*
X43439024Y-38795018D01*
X43456309Y-38753289D01*
X43491974Y-38667183D01*
X43498057Y-38620976D01*
X43510035Y-38530000D01*
X43491974Y-38392817D01*
X43439024Y-38264983D01*
X43354791Y-38155209D01*
X43286455Y-38102772D01*
X43245016Y-38070974D01*
X43117183Y-38018025D01*
X42995958Y-38002066D01*
X42980000Y-37999965D01*
X42979999Y-37999965D01*
X42842817Y-38018025D01*
X42714983Y-38070975D01*
X42605209Y-38155209D01*
X42520975Y-38264983D01*
X42468025Y-38392817D01*
X42449965Y-38530000D01*
X42460609Y-38610852D01*
X42449669Y-38681001D01*
X42402541Y-38734099D01*
X42334187Y-38753289D01*
X42287470Y-38743707D01*
X42177183Y-38698025D01*
X42055958Y-38682066D01*
X42040000Y-38679965D01*
X42039999Y-38679965D01*
X41902817Y-38698025D01*
X41774983Y-38750975D01*
X41665209Y-38835209D01*
X41580975Y-38944983D01*
X41528025Y-39072817D01*
X41509965Y-39209999D01*
X35042695Y-39209999D01*
X35041306Y-37059999D01*
X47069965Y-37059999D01*
X47088025Y-37197183D01*
X47140974Y-37325016D01*
X47140976Y-37325018D01*
X47225209Y-37434791D01*
X47314263Y-37503125D01*
X47334983Y-37519025D01*
X47462816Y-37571974D01*
X47480876Y-37574351D01*
X47600000Y-37590035D01*
X47737183Y-37571974D01*
X47865018Y-37519024D01*
X47974791Y-37434791D01*
X48059024Y-37325018D01*
X48111974Y-37197183D01*
X48130035Y-37060000D01*
X48111974Y-36922817D01*
X48059024Y-36794983D01*
X47974791Y-36685209D01*
X47906455Y-36632772D01*
X47865016Y-36600974D01*
X47737183Y-36548025D01*
X47615958Y-36532066D01*
X47600000Y-36529965D01*
X47599999Y-36529965D01*
X47462817Y-36548025D01*
X47334983Y-36600975D01*
X47225209Y-36685209D01*
X47140975Y-36794983D01*
X47088025Y-36922817D01*
X47069965Y-37059999D01*
X35041306Y-37059999D01*
X35041222Y-36929897D01*
X35709500Y-36929897D01*
X35714171Y-36953381D01*
X35715331Y-36959213D01*
X35737543Y-36992457D01*
X35770787Y-37014669D01*
X35800101Y-37020500D01*
X37019898Y-37020499D01*
X37049213Y-37014669D01*
X37082457Y-36992457D01*
X37104669Y-36959213D01*
X37110500Y-36929899D01*
X37110499Y-36299999D01*
X43404965Y-36299999D01*
X43423025Y-36437183D01*
X43475974Y-36565016D01*
X43475976Y-36565018D01*
X43560209Y-36674791D01*
X43649263Y-36743125D01*
X43669983Y-36759025D01*
X43797816Y-36811974D01*
X43813775Y-36814075D01*
X43935000Y-36830035D01*
X44072183Y-36811974D01*
X44200018Y-36759024D01*
X44309791Y-36674791D01*
X44394024Y-36565018D01*
X44446974Y-36437183D01*
X44465035Y-36300000D01*
X44446974Y-36162817D01*
X44394024Y-36034983D01*
X44309791Y-35925209D01*
X44237841Y-35869999D01*
X51319965Y-35869999D01*
X51338025Y-36007183D01*
X51390974Y-36135016D01*
X51390976Y-36135018D01*
X51475209Y-36244791D01*
X51547158Y-36300000D01*
X51584983Y-36329025D01*
X51712816Y-36381974D01*
X51730876Y-36384351D01*
X51850000Y-36400035D01*
X51987183Y-36381974D01*
X52115018Y-36329024D01*
X52224791Y-36244791D01*
X52309024Y-36135018D01*
X52361974Y-36007183D01*
X52380035Y-35870000D01*
X52361974Y-35732817D01*
X52309024Y-35604983D01*
X52224791Y-35495209D01*
X52156455Y-35442772D01*
X52115016Y-35410974D01*
X51987183Y-35358025D01*
X51865958Y-35342066D01*
X51850000Y-35339965D01*
X51849999Y-35339965D01*
X51712817Y-35358025D01*
X51584983Y-35410975D01*
X51475209Y-35495209D01*
X51390975Y-35604983D01*
X51338025Y-35732817D01*
X51319965Y-35869999D01*
X44237841Y-35869999D01*
X44200016Y-35840974D01*
X44072183Y-35788025D01*
X43950958Y-35772066D01*
X43935000Y-35769965D01*
X43934999Y-35769965D01*
X43797817Y-35788025D01*
X43669983Y-35840975D01*
X43560209Y-35925209D01*
X43475975Y-36034983D01*
X43423025Y-36162817D01*
X43404965Y-36299999D01*
X37110499Y-36299999D01*
X37110499Y-35710102D01*
X37104669Y-35680787D01*
X37082457Y-35647543D01*
X37049213Y-35625331D01*
X37049212Y-35625330D01*
X37019899Y-35619500D01*
X35800102Y-35619500D01*
X35770787Y-35625331D01*
X35737543Y-35647543D01*
X35715330Y-35680787D01*
X35709500Y-35710100D01*
X35709500Y-36929897D01*
X35041222Y-36929897D01*
X35040082Y-35166081D01*
X35060040Y-35097948D01*
X35113666Y-35051420D01*
X35166082Y-35040000D01*
X53804000Y-35040000D01*
X53872121Y-35060002D01*
G37*
G04 #@! TD.AperFunction*
G04 #@! TD*
G04 #@! TA.AperFunction,Conductor*
G04 #@! TO.N,Board_1-GND*
G36*
X53872121Y-19500002D02*
G01*
X53918614Y-19553658D01*
X53930000Y-19606000D01*
X53930000Y-34833933D01*
X53909998Y-34902054D01*
X53856342Y-34948547D01*
X53803933Y-34959933D01*
X35175851Y-34950066D01*
X35107741Y-34930028D01*
X35061277Y-34876348D01*
X35049918Y-34824149D01*
X35049514Y-34199897D01*
X37987000Y-34199897D01*
X37988832Y-34209105D01*
X37992831Y-34229213D01*
X38015043Y-34262457D01*
X38048287Y-34284669D01*
X38077601Y-34290500D01*
X39297398Y-34290499D01*
X39326713Y-34284669D01*
X39359957Y-34262457D01*
X39382169Y-34229213D01*
X39382169Y-34229212D01*
X39396093Y-34208374D01*
X39396265Y-34208489D01*
X39413071Y-34176356D01*
X39474763Y-34141219D01*
X39545658Y-34145014D01*
X39603247Y-34186535D01*
X39617142Y-34216958D01*
X39625331Y-34229213D01*
X39647543Y-34262457D01*
X39680787Y-34284669D01*
X39710101Y-34290500D01*
X40929898Y-34290499D01*
X40959213Y-34284669D01*
X40992457Y-34262457D01*
X41014669Y-34229213D01*
X41020500Y-34199899D01*
X41020500Y-34199897D01*
X42869500Y-34199897D01*
X42871332Y-34209105D01*
X42875331Y-34229213D01*
X42897543Y-34262457D01*
X42930787Y-34284669D01*
X42960101Y-34290500D01*
X44179898Y-34290499D01*
X44209213Y-34284669D01*
X44242457Y-34262457D01*
X44264669Y-34229213D01*
X44264669Y-34229212D01*
X44278593Y-34208374D01*
X44281781Y-34210504D01*
X44293041Y-34188957D01*
X44354721Y-34153799D01*
X44425617Y-34157570D01*
X44483221Y-34199071D01*
X44487807Y-34209105D01*
X44488906Y-34208372D01*
X44502830Y-34229212D01*
X44502831Y-34229213D01*
X44525043Y-34262457D01*
X44558287Y-34284669D01*
X44587601Y-34290500D01*
X45807398Y-34290499D01*
X45836713Y-34284669D01*
X45869957Y-34262457D01*
X45892169Y-34229213D01*
X45892169Y-34229212D01*
X45906093Y-34208374D01*
X45909281Y-34210504D01*
X45920541Y-34188957D01*
X45982221Y-34153799D01*
X46053117Y-34157570D01*
X46110721Y-34199071D01*
X46115307Y-34209105D01*
X46116406Y-34208372D01*
X46130330Y-34229212D01*
X46130331Y-34229213D01*
X46152543Y-34262457D01*
X46185787Y-34284669D01*
X46215101Y-34290500D01*
X47434898Y-34290499D01*
X47464213Y-34284669D01*
X47497457Y-34262457D01*
X47519669Y-34229213D01*
X47519669Y-34229212D01*
X47533593Y-34208374D01*
X47536781Y-34210504D01*
X47548041Y-34188957D01*
X47609721Y-34153799D01*
X47680617Y-34157570D01*
X47738221Y-34199071D01*
X47742807Y-34209105D01*
X47743906Y-34208372D01*
X47757830Y-34229212D01*
X47757831Y-34229213D01*
X47780043Y-34262457D01*
X47813287Y-34284669D01*
X47842601Y-34290500D01*
X49062398Y-34290499D01*
X49091713Y-34284669D01*
X49124957Y-34262457D01*
X49147169Y-34229213D01*
X49147169Y-34229212D01*
X49161093Y-34208374D01*
X49164281Y-34210504D01*
X49175541Y-34188957D01*
X49237221Y-34153799D01*
X49308117Y-34157570D01*
X49365721Y-34199071D01*
X49370307Y-34209105D01*
X49371406Y-34208372D01*
X49385330Y-34229212D01*
X49385331Y-34229213D01*
X49407543Y-34262457D01*
X49440787Y-34284669D01*
X49470101Y-34290500D01*
X50689898Y-34290499D01*
X50719213Y-34284669D01*
X50752457Y-34262457D01*
X50774669Y-34229213D01*
X50780500Y-34199899D01*
X50780499Y-33262121D01*
X51885564Y-33262121D01*
X51918911Y-33357423D01*
X52014826Y-33510071D01*
X52142298Y-33637543D01*
X52294942Y-33733456D01*
X52390248Y-33766803D01*
X52390248Y-33262121D01*
X51885564Y-33262121D01*
X50780499Y-33262121D01*
X50780499Y-32980102D01*
X50774669Y-32950787D01*
X50752457Y-32917543D01*
X50719213Y-32895331D01*
X50719212Y-32895330D01*
X50689899Y-32889500D01*
X49470102Y-32889500D01*
X49440787Y-32895331D01*
X49407543Y-32917543D01*
X49371407Y-32971626D01*
X49368212Y-32969491D01*
X49356907Y-32991095D01*
X49295206Y-33026217D01*
X49224312Y-33022405D01*
X49166733Y-32980870D01*
X49162182Y-32970900D01*
X49161094Y-32971628D01*
X49147169Y-32950787D01*
X49124957Y-32917543D01*
X49091713Y-32895331D01*
X49091712Y-32895330D01*
X49062399Y-32889500D01*
X47842602Y-32889500D01*
X47813287Y-32895331D01*
X47780043Y-32917543D01*
X47743907Y-32971626D01*
X47740712Y-32969491D01*
X47729407Y-32991095D01*
X47667706Y-33026217D01*
X47596812Y-33022405D01*
X47539233Y-32980870D01*
X47534682Y-32970900D01*
X47533594Y-32971628D01*
X47519669Y-32950787D01*
X47497457Y-32917543D01*
X47464213Y-32895331D01*
X47464212Y-32895330D01*
X47434899Y-32889500D01*
X46215102Y-32889500D01*
X46185787Y-32895331D01*
X46152543Y-32917543D01*
X46116407Y-32971626D01*
X46113212Y-32969491D01*
X46101907Y-32991095D01*
X46040206Y-33026217D01*
X45969312Y-33022405D01*
X45911733Y-32980870D01*
X45907182Y-32970900D01*
X45906094Y-32971628D01*
X45892169Y-32950787D01*
X45869957Y-32917543D01*
X45836713Y-32895331D01*
X45836712Y-32895330D01*
X45807399Y-32889500D01*
X44587602Y-32889500D01*
X44558287Y-32895331D01*
X44525043Y-32917543D01*
X44488907Y-32971626D01*
X44485712Y-32969491D01*
X44474407Y-32991095D01*
X44412706Y-33026217D01*
X44341812Y-33022405D01*
X44284233Y-32980870D01*
X44279682Y-32970900D01*
X44278594Y-32971628D01*
X44264669Y-32950787D01*
X44242457Y-32917543D01*
X44209213Y-32895331D01*
X44209212Y-32895330D01*
X44179899Y-32889500D01*
X42960102Y-32889500D01*
X42930787Y-32895331D01*
X42897543Y-32917543D01*
X42875330Y-32950787D01*
X42869500Y-32980100D01*
X42869500Y-34199897D01*
X41020500Y-34199897D01*
X41020499Y-32980102D01*
X41014669Y-32950787D01*
X40992457Y-32917543D01*
X40959213Y-32895331D01*
X40959212Y-32895330D01*
X40929899Y-32889500D01*
X39710102Y-32889500D01*
X39680787Y-32895331D01*
X39647543Y-32917543D01*
X39611407Y-32971626D01*
X39611233Y-32971509D01*
X39594421Y-33003650D01*
X39532726Y-33038782D01*
X39461832Y-33034982D01*
X39404246Y-32993456D01*
X39390355Y-32963039D01*
X39382169Y-32950787D01*
X39359957Y-32917543D01*
X39326713Y-32895331D01*
X39326712Y-32895330D01*
X39297399Y-32889500D01*
X38077602Y-32889500D01*
X38048287Y-32895331D01*
X38015043Y-32917543D01*
X37992830Y-32950787D01*
X37987000Y-32980100D01*
X37987000Y-34199897D01*
X35049514Y-34199897D01*
X35047646Y-31309999D01*
X37239965Y-31309999D01*
X37258025Y-31447183D01*
X37310974Y-31575016D01*
X37310976Y-31575018D01*
X37395209Y-31684791D01*
X37464708Y-31738120D01*
X37504983Y-31769025D01*
X37632816Y-31821974D01*
X37648775Y-31824075D01*
X37770000Y-31840035D01*
X37907183Y-31821974D01*
X38035018Y-31769024D01*
X38144791Y-31684791D01*
X38229024Y-31575018D01*
X38235231Y-31560034D01*
X38281974Y-31447183D01*
X38287555Y-31404790D01*
X38300035Y-31310000D01*
X38281974Y-31172817D01*
X38229024Y-31044983D01*
X38217526Y-31029999D01*
X42179965Y-31029999D01*
X42198025Y-31167183D01*
X42250974Y-31295016D01*
X42250976Y-31295018D01*
X42335209Y-31404791D01*
X42390455Y-31447183D01*
X42444983Y-31489025D01*
X42572816Y-31541974D01*
X42588775Y-31544075D01*
X42710000Y-31560035D01*
X42847183Y-31541974D01*
X42975018Y-31489024D01*
X43084791Y-31404791D01*
X43169024Y-31295018D01*
X43221974Y-31167183D01*
X43240035Y-31030000D01*
X43221974Y-30892817D01*
X43169024Y-30764983D01*
X43084791Y-30655209D01*
X42989351Y-30581974D01*
X42975016Y-30570974D01*
X42847183Y-30518025D01*
X42725958Y-30502066D01*
X42710000Y-30499965D01*
X42709999Y-30499965D01*
X42572817Y-30518025D01*
X42444983Y-30570975D01*
X42335209Y-30655209D01*
X42250975Y-30764983D01*
X42198025Y-30892817D01*
X42179965Y-31029999D01*
X38217526Y-31029999D01*
X38144791Y-30935209D01*
X38076455Y-30882772D01*
X38035016Y-30850974D01*
X37907183Y-30798025D01*
X37785958Y-30782066D01*
X37770000Y-30779965D01*
X37769999Y-30779965D01*
X37632817Y-30798025D01*
X37504983Y-30850975D01*
X37395209Y-30935209D01*
X37310975Y-31044983D01*
X37258025Y-31172817D01*
X37239965Y-31309999D01*
X35047646Y-31309999D01*
X35046845Y-30069999D01*
X39929965Y-30069999D01*
X39948025Y-30207183D01*
X40000974Y-30335016D01*
X40000976Y-30335018D01*
X40085209Y-30444791D01*
X40157112Y-30499965D01*
X40194983Y-30529025D01*
X40322816Y-30581974D01*
X40338775Y-30584075D01*
X40460000Y-30600035D01*
X40597183Y-30581974D01*
X40623735Y-30570976D01*
X40725016Y-30529025D01*
X40725016Y-30529024D01*
X40725018Y-30529024D01*
X40834791Y-30444791D01*
X40919024Y-30335018D01*
X40938141Y-30288866D01*
X40971974Y-30207183D01*
X40971973Y-30207182D01*
X40990035Y-30070000D01*
X40971974Y-29932817D01*
X40919024Y-29804983D01*
X40834791Y-29695209D01*
X40766455Y-29642772D01*
X40725016Y-29610974D01*
X40597183Y-29558025D01*
X40475958Y-29542066D01*
X40460000Y-29539965D01*
X40459999Y-29539965D01*
X40322817Y-29558025D01*
X40194983Y-29610975D01*
X40085209Y-29695209D01*
X40000975Y-29804983D01*
X39948025Y-29932817D01*
X39929965Y-30069999D01*
X35046845Y-30069999D01*
X35046011Y-28779999D01*
X35629965Y-28779999D01*
X35648025Y-28917183D01*
X35700974Y-29045016D01*
X35700976Y-29045018D01*
X35785209Y-29154791D01*
X35874263Y-29223125D01*
X35894983Y-29239025D01*
X36022816Y-29291974D01*
X36040876Y-29294351D01*
X36160000Y-29310035D01*
X36297183Y-29291974D01*
X36297182Y-29291974D01*
X36425016Y-29239025D01*
X36425016Y-29239024D01*
X36425018Y-29239024D01*
X36534791Y-29154791D01*
X36619024Y-29045018D01*
X36671974Y-28917183D01*
X36690035Y-28780000D01*
X36676869Y-28679999D01*
X40049965Y-28679999D01*
X40068025Y-28817183D01*
X40120974Y-28945016D01*
X40120976Y-28945018D01*
X40205209Y-29054791D01*
X40294263Y-29123125D01*
X40314983Y-29139025D01*
X40442816Y-29191974D01*
X40460877Y-29194351D01*
X40580000Y-29210035D01*
X40717183Y-29191974D01*
X40717182Y-29191974D01*
X40845016Y-29139025D01*
X40845016Y-29139024D01*
X40845018Y-29139024D01*
X40954791Y-29054791D01*
X41039024Y-28945018D01*
X41039024Y-28945015D01*
X41049123Y-28931856D01*
X41049960Y-28932498D01*
X41082672Y-28891903D01*
X41150035Y-28869480D01*
X41154536Y-28869400D01*
X46766414Y-28869400D01*
X46792021Y-28873750D01*
X46798247Y-28873048D01*
X46798249Y-28873049D01*
X46823606Y-28870192D01*
X46837713Y-28869400D01*
X46841339Y-28869400D01*
X46841341Y-28869400D01*
X46844884Y-28868591D01*
X46858796Y-28866227D01*
X46884164Y-28863369D01*
X46884166Y-28863367D01*
X46890401Y-28862665D01*
X46899386Y-28858944D01*
X46924237Y-28839125D01*
X46935770Y-28830942D01*
X46938836Y-28829016D01*
X46941401Y-28826450D01*
X46951933Y-28817038D01*
X46971887Y-28801126D01*
X46971888Y-28801123D01*
X46976788Y-28797216D01*
X46991819Y-28776031D01*
X47003695Y-28764155D01*
X47066005Y-28730131D01*
X47136820Y-28735196D01*
X47193656Y-28777743D01*
X47217710Y-28836805D01*
X47223026Y-28877183D01*
X47275974Y-29005016D01*
X47286602Y-29018866D01*
X47360209Y-29114791D01*
X47449263Y-29183125D01*
X47469983Y-29199025D01*
X47597816Y-29251974D01*
X47613775Y-29254075D01*
X47735000Y-29270035D01*
X47872183Y-29251974D01*
X48000018Y-29199024D01*
X48109791Y-29114791D01*
X48194024Y-29005018D01*
X48246974Y-28877183D01*
X48265035Y-28740000D01*
X48246974Y-28602817D01*
X48194024Y-28474983D01*
X48109791Y-28365209D01*
X48031599Y-28305209D01*
X48000016Y-28280974D01*
X47929602Y-28251809D01*
X47874321Y-28207262D01*
X47851899Y-28139898D01*
X47869457Y-28071107D01*
X47921418Y-28022728D01*
X47977819Y-28009400D01*
X51436414Y-28009400D01*
X51462021Y-28013750D01*
X51468247Y-28013048D01*
X51468249Y-28013049D01*
X51493606Y-28010192D01*
X51507713Y-28009400D01*
X51511339Y-28009400D01*
X51511341Y-28009400D01*
X51514884Y-28008591D01*
X51528796Y-28006227D01*
X51554164Y-28003369D01*
X51554166Y-28003367D01*
X51560401Y-28002665D01*
X51569386Y-27998944D01*
X51594237Y-27979125D01*
X51605770Y-27970942D01*
X51608836Y-27969016D01*
X51611401Y-27966450D01*
X51621925Y-27957043D01*
X51641887Y-27941126D01*
X51641888Y-27941122D01*
X51645560Y-27938195D01*
X51711290Y-27911361D01*
X51781093Y-27924323D01*
X51832808Y-27972965D01*
X51849328Y-28022598D01*
X51858880Y-28107378D01*
X51918458Y-28277642D01*
X52014432Y-28430384D01*
X52058074Y-28474026D01*
X52092100Y-28536338D01*
X52087035Y-28607153D01*
X52058074Y-28652216D01*
X52014432Y-28695857D01*
X51918458Y-28848599D01*
X51858880Y-29018863D01*
X51838683Y-29198120D01*
X51858880Y-29377378D01*
X51918458Y-29547642D01*
X52014432Y-29700384D01*
X52058074Y-29744026D01*
X52092100Y-29806338D01*
X52087035Y-29877153D01*
X52058074Y-29922216D01*
X52014432Y-29965857D01*
X51918458Y-30118599D01*
X51858880Y-30288863D01*
X51838683Y-30468120D01*
X51858880Y-30647378D01*
X51918458Y-30817642D01*
X52014432Y-30970384D01*
X52058074Y-31014026D01*
X52092100Y-31076338D01*
X52087035Y-31147153D01*
X52058074Y-31192216D01*
X52014432Y-31235857D01*
X51918458Y-31388599D01*
X51858880Y-31558863D01*
X51838683Y-31738120D01*
X51858880Y-31917378D01*
X51918458Y-32087642D01*
X52014432Y-32240384D01*
X52058427Y-32284379D01*
X52092453Y-32346691D01*
X52087388Y-32417506D01*
X52058428Y-32462569D01*
X52014824Y-32506173D01*
X51918911Y-32658818D01*
X51885563Y-32754120D01*
X51885564Y-32754121D01*
X52434189Y-32754121D01*
X52432119Y-32755316D01*
X52358447Y-32843114D01*
X52319248Y-32950815D01*
X52319248Y-33065427D01*
X52358447Y-33173128D01*
X52432119Y-33260926D01*
X52531377Y-33318233D01*
X52615812Y-33333121D01*
X52672684Y-33333121D01*
X52757119Y-33318233D01*
X52854307Y-33262121D01*
X52898248Y-33262121D01*
X52898248Y-33766803D01*
X52993553Y-33733456D01*
X53146197Y-33637543D01*
X53273669Y-33510071D01*
X53369584Y-33357423D01*
X53402932Y-33262121D01*
X52898248Y-33262121D01*
X52854307Y-33262121D01*
X52856377Y-33260926D01*
X52930049Y-33173128D01*
X52969248Y-33065427D01*
X52969248Y-32950815D01*
X52930049Y-32843114D01*
X52856377Y-32755316D01*
X52854307Y-32754121D01*
X53402932Y-32754121D01*
X53402932Y-32754120D01*
X53369584Y-32658818D01*
X53273669Y-32506170D01*
X53230068Y-32462569D01*
X53196042Y-32400257D01*
X53201107Y-32329442D01*
X53230066Y-32284380D01*
X53274064Y-32240383D01*
X53370037Y-32087643D01*
X53429616Y-31917376D01*
X53449813Y-31738121D01*
X53429616Y-31558866D01*
X53370037Y-31388599D01*
X53274064Y-31235859D01*
X53274063Y-31235857D01*
X53230422Y-31192216D01*
X53196396Y-31129904D01*
X53201461Y-31059089D01*
X53230422Y-31014026D01*
X53274063Y-30970384D01*
X53296165Y-30935209D01*
X53370037Y-30817643D01*
X53429616Y-30647376D01*
X53449813Y-30468121D01*
X53429616Y-30288866D01*
X53370037Y-30118599D01*
X53274064Y-29965859D01*
X53274063Y-29965857D01*
X53230422Y-29922216D01*
X53196396Y-29859904D01*
X53201461Y-29789089D01*
X53230422Y-29744026D01*
X53274063Y-29700384D01*
X53330242Y-29610976D01*
X53370037Y-29547643D01*
X53429616Y-29377376D01*
X53449813Y-29198121D01*
X53429616Y-29018866D01*
X53370037Y-28848599D01*
X53350297Y-28817183D01*
X53274063Y-28695857D01*
X53230422Y-28652216D01*
X53196396Y-28589904D01*
X53201461Y-28519089D01*
X53230422Y-28474026D01*
X53274063Y-28430384D01*
X53274064Y-28430383D01*
X53370037Y-28277643D01*
X53429616Y-28107376D01*
X53449813Y-27928121D01*
X53429616Y-27748866D01*
X53370037Y-27578599D01*
X53318890Y-27497199D01*
X53274063Y-27425857D01*
X53230422Y-27382216D01*
X53196396Y-27319904D01*
X53201461Y-27249089D01*
X53230422Y-27204026D01*
X53274063Y-27160384D01*
X53277447Y-27154999D01*
X53370037Y-27007643D01*
X53429616Y-26837376D01*
X53449813Y-26658121D01*
X53429616Y-26478866D01*
X53370037Y-26308599D01*
X53330402Y-26245520D01*
X53274063Y-26155857D01*
X53146511Y-26028305D01*
X52993769Y-25932331D01*
X52823505Y-25872753D01*
X52644248Y-25852556D01*
X52464990Y-25872753D01*
X52294726Y-25932331D01*
X52141984Y-26028305D01*
X52014432Y-26155857D01*
X51918458Y-26308599D01*
X51858880Y-26478863D01*
X51845393Y-26598564D01*
X51838683Y-26658121D01*
X51845162Y-26715628D01*
X51858880Y-26837378D01*
X51922390Y-27018879D01*
X51926009Y-27089783D01*
X51892557Y-27149589D01*
X51448453Y-27593695D01*
X51386141Y-27627720D01*
X51359357Y-27630600D01*
X47733592Y-27630600D01*
X47707980Y-27626248D01*
X47676388Y-27629808D01*
X47662280Y-27630600D01*
X47658659Y-27630600D01*
X47655114Y-27631409D01*
X47641195Y-27633773D01*
X47609612Y-27637332D01*
X47600605Y-27641063D01*
X47575753Y-27660881D01*
X47564240Y-27669050D01*
X47561162Y-27670983D01*
X47558590Y-27673556D01*
X47548069Y-27682958D01*
X47523215Y-27702779D01*
X47508183Y-27723963D01*
X46778453Y-28453695D01*
X46716140Y-28487720D01*
X46689357Y-28490600D01*
X41154536Y-28490600D01*
X41086415Y-28470598D01*
X41049426Y-28427910D01*
X41049123Y-28428144D01*
X41045211Y-28423046D01*
X41039922Y-28416942D01*
X41039128Y-28415119D01*
X40954792Y-28305210D01*
X40918865Y-28277642D01*
X40846319Y-28221974D01*
X40845016Y-28220974D01*
X40717183Y-28168025D01*
X40595958Y-28152066D01*
X40580000Y-28149965D01*
X40579999Y-28149965D01*
X40442817Y-28168025D01*
X40314983Y-28220975D01*
X40205209Y-28305209D01*
X40120975Y-28414983D01*
X40068025Y-28542817D01*
X40049965Y-28679999D01*
X36676869Y-28679999D01*
X36671974Y-28642817D01*
X36619024Y-28514983D01*
X36534791Y-28405209D01*
X36466455Y-28352772D01*
X36425016Y-28320974D01*
X36297183Y-28268025D01*
X36174006Y-28251809D01*
X36160000Y-28249965D01*
X36159999Y-28249965D01*
X36022817Y-28268025D01*
X35894983Y-28320975D01*
X35785209Y-28405209D01*
X35700975Y-28514983D01*
X35648025Y-28642817D01*
X35629965Y-28779999D01*
X35046011Y-28779999D01*
X35045319Y-27709999D01*
X38739965Y-27709999D01*
X38758025Y-27847183D01*
X38810974Y-27975016D01*
X38832731Y-28003369D01*
X38895209Y-28084791D01*
X38924645Y-28107378D01*
X39004983Y-28169025D01*
X39132816Y-28221974D01*
X39150876Y-28224351D01*
X39270000Y-28240035D01*
X39407183Y-28221974D01*
X39535018Y-28169024D01*
X39644791Y-28084791D01*
X39729024Y-27975018D01*
X39729875Y-27972965D01*
X39781974Y-27847183D01*
X39781973Y-27847182D01*
X39800035Y-27710000D01*
X39781974Y-27572817D01*
X39779809Y-27556370D01*
X39780855Y-27556232D01*
X39775281Y-27504391D01*
X39807060Y-27440904D01*
X39810154Y-27437696D01*
X40586547Y-26661304D01*
X40648860Y-26627279D01*
X40675643Y-26624400D01*
X41255464Y-26624400D01*
X41323585Y-26644402D01*
X41360573Y-26687089D01*
X41360877Y-26686856D01*
X41364788Y-26691954D01*
X41370078Y-26698058D01*
X41370871Y-26699880D01*
X41370974Y-26700015D01*
X41370976Y-26700018D01*
X41455209Y-26809791D01*
X41491161Y-26837378D01*
X41564983Y-26894025D01*
X41692816Y-26946974D01*
X41708775Y-26949075D01*
X41830000Y-26965035D01*
X41967183Y-26946974D01*
X41983938Y-26940034D01*
X42095016Y-26894025D01*
X42095016Y-26894024D01*
X42095018Y-26894024D01*
X42204791Y-26809791D01*
X42223975Y-26784791D01*
X42244921Y-26757495D01*
X42302259Y-26715628D01*
X42344882Y-26708200D01*
X45741716Y-26708200D01*
X45809837Y-26728202D01*
X45830811Y-26745104D01*
X46063564Y-26977856D01*
X46097589Y-27040169D01*
X46099391Y-27083397D01*
X46090677Y-27149589D01*
X46089965Y-27155000D01*
X46093252Y-27179965D01*
X46108025Y-27292183D01*
X46160974Y-27420016D01*
X46192772Y-27461455D01*
X46245209Y-27529791D01*
X46301281Y-27572817D01*
X46354983Y-27614025D01*
X46482816Y-27666974D01*
X46498585Y-27669050D01*
X46620000Y-27685035D01*
X46757183Y-27666974D01*
X46819739Y-27641063D01*
X46885016Y-27614025D01*
X46885016Y-27614024D01*
X46885018Y-27614024D01*
X46994791Y-27529791D01*
X47079024Y-27420018D01*
X47131974Y-27292183D01*
X47150035Y-27155000D01*
X47131974Y-27017817D01*
X47079024Y-26889983D01*
X46994791Y-26780209D01*
X46910629Y-26715628D01*
X46885016Y-26695974D01*
X46757183Y-26643025D01*
X46648591Y-26628729D01*
X46620000Y-26624965D01*
X46619999Y-26624965D01*
X46619998Y-26624965D01*
X46548397Y-26634391D01*
X46478249Y-26623451D01*
X46442856Y-26598564D01*
X46254292Y-26409999D01*
X49059965Y-26409999D01*
X49078025Y-26547183D01*
X49130974Y-26675016D01*
X49150159Y-26700018D01*
X49215209Y-26784791D01*
X49283738Y-26837376D01*
X49324983Y-26869025D01*
X49452816Y-26921974D01*
X49468775Y-26924075D01*
X49590000Y-26940035D01*
X49727183Y-26921974D01*
X49855018Y-26869024D01*
X49964791Y-26784791D01*
X50049024Y-26675018D01*
X50054705Y-26661304D01*
X50101974Y-26547183D01*
X50110968Y-26478866D01*
X50120035Y-26410000D01*
X50101974Y-26272817D01*
X50049024Y-26144983D01*
X49964791Y-26035209D01*
X49887598Y-25975976D01*
X49855016Y-25950974D01*
X49727183Y-25898025D01*
X49605958Y-25882066D01*
X49590000Y-25879965D01*
X49589999Y-25879965D01*
X49452817Y-25898025D01*
X49324983Y-25950975D01*
X49215209Y-26035209D01*
X49130975Y-26144983D01*
X49078025Y-26272817D01*
X49059965Y-26409999D01*
X46254292Y-26409999D01*
X46122095Y-26277802D01*
X46106426Y-26258709D01*
X46102165Y-26252332D01*
X46098361Y-26246639D01*
X46098360Y-26246638D01*
X46086290Y-26238573D01*
X46086283Y-26238567D01*
X46009647Y-26187360D01*
X45905000Y-26166546D01*
X45890757Y-26169379D01*
X45866177Y-26171800D01*
X42352554Y-26171800D01*
X42284433Y-26151798D01*
X42252592Y-26122504D01*
X42204792Y-26060210D01*
X42163213Y-26028305D01*
X42131049Y-26003624D01*
X42089183Y-25946286D01*
X42084962Y-25875415D01*
X42119727Y-25813513D01*
X42131051Y-25803701D01*
X42194791Y-25754791D01*
X42279024Y-25645018D01*
X42331974Y-25517183D01*
X42350035Y-25380000D01*
X42331974Y-25242817D01*
X42279024Y-25114983D01*
X42194791Y-25005209D01*
X42126455Y-24952772D01*
X42085016Y-24920974D01*
X41957183Y-24868025D01*
X41835958Y-24852066D01*
X41820000Y-24849965D01*
X41819999Y-24849965D01*
X41682817Y-24868025D01*
X41554983Y-24920975D01*
X41445209Y-25005209D01*
X41360975Y-25114983D01*
X41308025Y-25242817D01*
X41289965Y-25379999D01*
X41308025Y-25517183D01*
X41360974Y-25645016D01*
X41360976Y-25645018D01*
X41445209Y-25754791D01*
X41518949Y-25811375D01*
X41560816Y-25868712D01*
X41565037Y-25939583D01*
X41530272Y-26001486D01*
X41518950Y-26011297D01*
X41455208Y-26060209D01*
X41360877Y-26183144D01*
X41360040Y-26182501D01*
X41327325Y-26223099D01*
X41259962Y-26245520D01*
X41255464Y-26245600D01*
X40598588Y-26245600D01*
X40572980Y-26241249D01*
X40541393Y-26244808D01*
X40527286Y-26245600D01*
X40523655Y-26245600D01*
X40520104Y-26246410D01*
X40506198Y-26248772D01*
X40474614Y-26252332D01*
X40465605Y-26256063D01*
X40440752Y-26275882D01*
X40429239Y-26284051D01*
X40426161Y-26285984D01*
X40423590Y-26288556D01*
X40413069Y-26297958D01*
X40388215Y-26317779D01*
X40373181Y-26338965D01*
X39542331Y-27169815D01*
X39480019Y-27203841D01*
X39423678Y-27199811D01*
X39423629Y-27200191D01*
X39417255Y-27199351D01*
X39409204Y-27198776D01*
X39407355Y-27198048D01*
X39293286Y-27183030D01*
X39270000Y-27179965D01*
X39269999Y-27179965D01*
X39132817Y-27198025D01*
X39004983Y-27250975D01*
X38895209Y-27335209D01*
X38810975Y-27444983D01*
X38758025Y-27572817D01*
X38739965Y-27709999D01*
X35045319Y-27709999D01*
X35043038Y-24180034D01*
X35042695Y-23649999D01*
X41509965Y-23649999D01*
X41528025Y-23787183D01*
X41580974Y-23915016D01*
X41580976Y-23915018D01*
X41665209Y-24024791D01*
X41754263Y-24093125D01*
X41774983Y-24109025D01*
X41902816Y-24161974D01*
X41918775Y-24164075D01*
X42040000Y-24180035D01*
X42177183Y-24161974D01*
X42305018Y-24109024D01*
X42414791Y-24024791D01*
X42499024Y-23915018D01*
X42551974Y-23787183D01*
X42570035Y-23650000D01*
X42559390Y-23569146D01*
X42567054Y-23519999D01*
X51259965Y-23519999D01*
X51278025Y-23657183D01*
X51330974Y-23785016D01*
X51330976Y-23785018D01*
X51415209Y-23894791D01*
X51504263Y-23963125D01*
X51524983Y-23979025D01*
X51652816Y-24031974D01*
X51668775Y-24034075D01*
X51790000Y-24050035D01*
X51927183Y-24031974D01*
X52055018Y-23979024D01*
X52164791Y-23894791D01*
X52249024Y-23785018D01*
X52301974Y-23657183D01*
X52320035Y-23520000D01*
X52301974Y-23382817D01*
X52249024Y-23254983D01*
X52164791Y-23145209D01*
X52096455Y-23092772D01*
X52055016Y-23060974D01*
X51927183Y-23008025D01*
X51805958Y-22992066D01*
X51790000Y-22989965D01*
X51789999Y-22989965D01*
X51652817Y-23008025D01*
X51524983Y-23060975D01*
X51415209Y-23145209D01*
X51330975Y-23254983D01*
X51278025Y-23382817D01*
X51259965Y-23519999D01*
X42567054Y-23519999D01*
X42570329Y-23498999D01*
X42617457Y-23445900D01*
X42685811Y-23426710D01*
X42732527Y-23436291D01*
X42842817Y-23481974D01*
X42980000Y-23500035D01*
X43117183Y-23481974D01*
X43204275Y-23445900D01*
X43245016Y-23429025D01*
X43245016Y-23429024D01*
X43245018Y-23429024D01*
X43354791Y-23344791D01*
X43439024Y-23235018D01*
X43456309Y-23193289D01*
X43491974Y-23107183D01*
X43498057Y-23060976D01*
X43510035Y-22970000D01*
X43491974Y-22832817D01*
X43439024Y-22704983D01*
X43354791Y-22595209D01*
X43286455Y-22542772D01*
X43245016Y-22510974D01*
X43117183Y-22458025D01*
X42995958Y-22442066D01*
X42980000Y-22439965D01*
X42979999Y-22439965D01*
X42842817Y-22458025D01*
X42714983Y-22510975D01*
X42605209Y-22595209D01*
X42520975Y-22704983D01*
X42468025Y-22832817D01*
X42449965Y-22970000D01*
X42460609Y-23050852D01*
X42449669Y-23121001D01*
X42402541Y-23174099D01*
X42334187Y-23193289D01*
X42287470Y-23183707D01*
X42177183Y-23138025D01*
X42055958Y-23122066D01*
X42040000Y-23119965D01*
X42039999Y-23119965D01*
X41902817Y-23138025D01*
X41774983Y-23190975D01*
X41665209Y-23275209D01*
X41580975Y-23384983D01*
X41528025Y-23512817D01*
X41509965Y-23649999D01*
X35042695Y-23649999D01*
X35041306Y-21499999D01*
X47069965Y-21499999D01*
X47088025Y-21637183D01*
X47140974Y-21765016D01*
X47140976Y-21765018D01*
X47225209Y-21874791D01*
X47314263Y-21943125D01*
X47334983Y-21959025D01*
X47462816Y-22011974D01*
X47480876Y-22014351D01*
X47600000Y-22030035D01*
X47737183Y-22011974D01*
X47865018Y-21959024D01*
X47974791Y-21874791D01*
X48059024Y-21765018D01*
X48111974Y-21637183D01*
X48130035Y-21500000D01*
X48111974Y-21362817D01*
X48059024Y-21234983D01*
X47974791Y-21125209D01*
X47906455Y-21072772D01*
X47865016Y-21040974D01*
X47737183Y-20988025D01*
X47615958Y-20972066D01*
X47600000Y-20969965D01*
X47599999Y-20969965D01*
X47462817Y-20988025D01*
X47334983Y-21040975D01*
X47225209Y-21125209D01*
X47140975Y-21234983D01*
X47088025Y-21362817D01*
X47069965Y-21499999D01*
X35041306Y-21499999D01*
X35041222Y-21369897D01*
X35709500Y-21369897D01*
X35714171Y-21393381D01*
X35715331Y-21399213D01*
X35737543Y-21432457D01*
X35770787Y-21454669D01*
X35800101Y-21460500D01*
X37019898Y-21460499D01*
X37049213Y-21454669D01*
X37082457Y-21432457D01*
X37104669Y-21399213D01*
X37110500Y-21369899D01*
X37110499Y-20739999D01*
X43404965Y-20739999D01*
X43423025Y-20877183D01*
X43475974Y-21005016D01*
X43475976Y-21005018D01*
X43560209Y-21114791D01*
X43649263Y-21183125D01*
X43669983Y-21199025D01*
X43797816Y-21251974D01*
X43813775Y-21254075D01*
X43935000Y-21270035D01*
X44072183Y-21251974D01*
X44200018Y-21199024D01*
X44309791Y-21114791D01*
X44394024Y-21005018D01*
X44446974Y-20877183D01*
X44465035Y-20740000D01*
X44446974Y-20602817D01*
X44394024Y-20474983D01*
X44309791Y-20365209D01*
X44237841Y-20309999D01*
X51319965Y-20309999D01*
X51338025Y-20447183D01*
X51390974Y-20575016D01*
X51390976Y-20575018D01*
X51475209Y-20684791D01*
X51547158Y-20740000D01*
X51584983Y-20769025D01*
X51712816Y-20821974D01*
X51730876Y-20824351D01*
X51850000Y-20840035D01*
X51987183Y-20821974D01*
X52115018Y-20769024D01*
X52224791Y-20684791D01*
X52309024Y-20575018D01*
X52361974Y-20447183D01*
X52380035Y-20310000D01*
X52361974Y-20172817D01*
X52309024Y-20044983D01*
X52224791Y-19935209D01*
X52156455Y-19882772D01*
X52115016Y-19850974D01*
X51987183Y-19798025D01*
X51865958Y-19782066D01*
X51850000Y-19779965D01*
X51849999Y-19779965D01*
X51712817Y-19798025D01*
X51584983Y-19850975D01*
X51475209Y-19935209D01*
X51390975Y-20044983D01*
X51338025Y-20172817D01*
X51319965Y-20309999D01*
X44237841Y-20309999D01*
X44200016Y-20280974D01*
X44072183Y-20228025D01*
X43950958Y-20212066D01*
X43935000Y-20209965D01*
X43934999Y-20209965D01*
X43797817Y-20228025D01*
X43669983Y-20280975D01*
X43560209Y-20365209D01*
X43475975Y-20474983D01*
X43423025Y-20602817D01*
X43404965Y-20739999D01*
X37110499Y-20739999D01*
X37110499Y-20150102D01*
X37104669Y-20120787D01*
X37082457Y-20087543D01*
X37049213Y-20065331D01*
X37049212Y-20065330D01*
X37019899Y-20059500D01*
X35800102Y-20059500D01*
X35770787Y-20065331D01*
X35737543Y-20087543D01*
X35715330Y-20120787D01*
X35709500Y-20150100D01*
X35709500Y-21369897D01*
X35041222Y-21369897D01*
X35040082Y-19606081D01*
X35060040Y-19537948D01*
X35113666Y-19491420D01*
X35166082Y-19480000D01*
X53804000Y-19480000D01*
X53872121Y-19500002D01*
G37*
G04 #@! TD.AperFunction*
G04 #@! TD*
M02*
