G04 #@! TF.GenerationSoftware,KiCad,Pcbnew,7.0.2-6a45011f42~172~ubuntu22.04.1*
G04 #@! TF.CreationDate,2023-07-03T20:32:52+08:00*
G04 #@! TF.ProjectId,panel_5_1,70616e65-6c5f-4355-9f31-2e6b69636164,rev?*
G04 #@! TF.SameCoordinates,Original*
G04 #@! TF.FileFunction,Copper,L2,Bot*
G04 #@! TF.FilePolarity,Positive*
%FSLAX46Y46*%
G04 Gerber Fmt 4.6, Leading zero omitted, Abs format (unit mm)*
G04 Created by KiCad (PCBNEW 7.0.2-6a45011f42~172~ubuntu22.04.1) date 2023-07-03 20:32:52*
%MOMM*%
%LPD*%
G01*
G04 APERTURE LIST*
G04 #@! TA.AperFunction,ComponentPad*
%ADD10R,1.200000X1.000000*%
G04 #@! TD*
G04 #@! TA.AperFunction,SMDPad,CuDef*
%ADD11C,2.000000*%
G04 #@! TD*
G04 #@! TA.AperFunction,ViaPad*
%ADD12C,0.450000*%
G04 #@! TD*
G04 APERTURE END LIST*
D10*
G04 #@! TO.P,J1,1,Pin_1*
G04 #@! TO.N,Board_1-+3V3*
X16727500Y-32330000D03*
G04 #@! TD*
G04 #@! TO.P,J2,1,Pin_1*
G04 #@! TO.N,Board_1-GND*
X16727500Y-29680000D03*
G04 #@! TD*
G04 #@! TO.P,J2,1,Pin_1*
G04 #@! TO.N,Board_2-GND*
X16727500Y-33680000D03*
G04 #@! TD*
G04 #@! TO.P,J4,1,Pin_1*
G04 #@! TO.N,Board_3-LED_OUT*
X54497500Y-39000000D03*
G04 #@! TD*
G04 #@! TO.P,J2,1,Pin_1*
G04 #@! TO.N,Board_3-GND*
X16727500Y-37680000D03*
G04 #@! TD*
G04 #@! TO.P,J3,1,Pin_1*
G04 #@! TO.N,Board_0-LED_DATA*
X16727500Y-27005000D03*
G04 #@! TD*
G04 #@! TO.P,J1,1,Pin_1*
G04 #@! TO.N,Board_4-+3V3*
X16727500Y-44330000D03*
G04 #@! TD*
G04 #@! TO.P,J5,1,Pin_1*
G04 #@! TO.N,Board_4-+3V3*
X54497500Y-44325000D03*
G04 #@! TD*
G04 #@! TO.P,J6,1,Pin_1*
G04 #@! TO.N,Board_1-GND*
X54497500Y-29675000D03*
G04 #@! TD*
G04 #@! TO.P,J5,1,Pin_1*
G04 #@! TO.N,Board_0-+3V3*
X54497500Y-28325000D03*
G04 #@! TD*
G04 #@! TO.P,J4,1,Pin_1*
G04 #@! TO.N,Board_4-LED_OUT*
X54497500Y-43000000D03*
G04 #@! TD*
G04 #@! TO.P,J1,1,Pin_1*
G04 #@! TO.N,Board_0-+3V3*
X16727500Y-28330000D03*
G04 #@! TD*
G04 #@! TO.P,J3,1,Pin_1*
G04 #@! TO.N,Board_1-LED_DATA*
X16727500Y-31005000D03*
G04 #@! TD*
G04 #@! TO.P,J2,1,Pin_1*
G04 #@! TO.N,Board_0-GND*
X16727500Y-25680000D03*
G04 #@! TD*
G04 #@! TO.P,J5,1,Pin_1*
G04 #@! TO.N,Board_3-+3V3*
X54497500Y-40325000D03*
G04 #@! TD*
G04 #@! TO.P,J5,1,Pin_1*
G04 #@! TO.N,Board_2-+3V3*
X54497500Y-36325000D03*
G04 #@! TD*
G04 #@! TO.P,J3,1,Pin_1*
G04 #@! TO.N,Board_2-LED_DATA*
X16727500Y-35005000D03*
G04 #@! TD*
G04 #@! TO.P,J4,1,Pin_1*
G04 #@! TO.N,Board_1-LED_OUT*
X54497500Y-31000000D03*
G04 #@! TD*
G04 #@! TO.P,J6,1,Pin_1*
G04 #@! TO.N,Board_0-GND*
X54497500Y-25675000D03*
G04 #@! TD*
G04 #@! TO.P,J6,1,Pin_1*
G04 #@! TO.N,Board_2-GND*
X54497500Y-33675000D03*
G04 #@! TD*
G04 #@! TO.P,J3,1,Pin_1*
G04 #@! TO.N,Board_3-LED_DATA*
X16727500Y-39005000D03*
G04 #@! TD*
G04 #@! TO.P,J1,1,Pin_1*
G04 #@! TO.N,Board_3-+3V3*
X16727500Y-40330000D03*
G04 #@! TD*
G04 #@! TO.P,J2,1,Pin_1*
G04 #@! TO.N,Board_4-GND*
X16727500Y-41680000D03*
G04 #@! TD*
G04 #@! TO.P,J6,1,Pin_1*
G04 #@! TO.N,Board_4-GND*
X54497500Y-41675000D03*
G04 #@! TD*
G04 #@! TO.P,J3,1,Pin_1*
G04 #@! TO.N,Board_4-LED_DATA*
X16727500Y-43005000D03*
G04 #@! TD*
G04 #@! TO.P,J4,1,Pin_1*
G04 #@! TO.N,Board_2-LED_OUT*
X54497500Y-35000000D03*
G04 #@! TD*
G04 #@! TO.P,J4,1,Pin_1*
G04 #@! TO.N,Board_0-LED_OUT*
X54497500Y-27000000D03*
G04 #@! TD*
G04 #@! TO.P,J1,1,Pin_1*
G04 #@! TO.N,Board_2-+3V3*
X16727500Y-36330000D03*
G04 #@! TD*
G04 #@! TO.P,J5,1,Pin_1*
G04 #@! TO.N,Board_1-+3V3*
X54497500Y-32325000D03*
G04 #@! TD*
G04 #@! TO.P,J6,1,Pin_1*
G04 #@! TO.N,Board_3-GND*
X54497500Y-37675000D03*
G04 #@! TD*
D11*
G04 #@! TO.P,REF\u002A\u002A,*
G04 #@! TO.N,*
X15000000Y-66650000D03*
G04 #@! TD*
G04 #@! TO.P,REF\u002A\u002A,*
G04 #@! TO.N,*
X55000000Y-3350000D03*
G04 #@! TD*
G04 #@! TO.P,REF\u002A\u002A,*
G04 #@! TO.N,*
X15000000Y-3350000D03*
G04 #@! TD*
D12*
G04 #@! TO.N,Board_0-+3V3*
X20650663Y-28400000D03*
X49545663Y-28400000D03*
X37162091Y-28400000D03*
X33034234Y-28400000D03*
X24778520Y-28400000D03*
X41289948Y-28400000D03*
X45417805Y-28400000D03*
X28906377Y-28400000D03*
G04 #@! TO.N,Board_1-+3V3*
X37162091Y-32400000D03*
X45417805Y-32400000D03*
X33034234Y-32400000D03*
X24778520Y-32400000D03*
X41289948Y-32400000D03*
X28906377Y-32400000D03*
X49545663Y-32400000D03*
X20650663Y-32400000D03*
G04 #@! TO.N,Board_2-+3V3*
X33034234Y-36400000D03*
X45417805Y-36400000D03*
X37162091Y-36400000D03*
X20650663Y-36400000D03*
X41289948Y-36400000D03*
X28906377Y-36400000D03*
X49545663Y-36400000D03*
X24778520Y-36400000D03*
G04 #@! TO.N,Board_3-+3V3*
X28906377Y-40400000D03*
X41289948Y-40400000D03*
X20650663Y-40400000D03*
X33034234Y-40400000D03*
X49545663Y-40400000D03*
X37162091Y-40400000D03*
X45417805Y-40400000D03*
X24778520Y-40400000D03*
G04 #@! TO.N,Board_4-+3V3*
X37162091Y-44400000D03*
X45417805Y-44400000D03*
X20650663Y-44400000D03*
X49545663Y-44400000D03*
X28906377Y-44400000D03*
X24778520Y-44400000D03*
X33034234Y-44400000D03*
X41289948Y-44400000D03*
G04 #@! TD*
M02*
