G04 #@! TF.GenerationSoftware,KiCad,Pcbnew,7.0.2-6a45011f42~172~ubuntu22.04.1*
G04 #@! TF.CreationDate,2023-07-03T20:32:52+08:00*
G04 #@! TF.ProjectId,panel_5_1,70616e65-6c5f-4355-9f31-2e6b69636164,rev?*
G04 #@! TF.SameCoordinates,Original*
G04 #@! TF.FileFunction,Legend,Top*
G04 #@! TF.FilePolarity,Positive*
%FSLAX46Y46*%
G04 Gerber Fmt 4.6, Leading zero omitted, Abs format (unit mm)*
G04 Created by KiCad (PCBNEW 7.0.2-6a45011f42~172~ubuntu22.04.1) date 2023-07-03 20:32:52*
%MOMM*%
%LPD*%
G01*
G04 APERTURE LIST*
%ADD10C,0.120000*%
%ADD11C,0.250000*%
%ADD12C,0.100000*%
G04 APERTURE END LIST*
D10*
X14652500Y-33090000D02*
X55332500Y-33090000D01*
X55332500Y-36915000D01*
X14652500Y-36915000D01*
X14652500Y-33090000D01*
X14652500Y-37090000D02*
X55332500Y-37090000D01*
X55332500Y-40915000D01*
X14652500Y-40915000D01*
X14652500Y-37090000D01*
X14652500Y-25090000D02*
X55332500Y-25090000D01*
X55332500Y-28915000D01*
X14652500Y-28915000D01*
X14652500Y-25090000D01*
X14652500Y-41090000D02*
X55332500Y-41090000D01*
X55332500Y-44915000D01*
X14652500Y-44915000D01*
X14652500Y-41090000D01*
X14652500Y-29090000D02*
X55332500Y-29090000D01*
X55332500Y-32915000D01*
X14652500Y-32915000D01*
X14652500Y-29090000D01*
D11*
X15822261Y-38090476D02*
X15869880Y-37966666D01*
X15869880Y-37966666D02*
X15869880Y-37780952D01*
X15869880Y-37780952D02*
X15822261Y-37595238D01*
X15822261Y-37595238D02*
X15727023Y-37471428D01*
X15727023Y-37471428D02*
X15631785Y-37409523D01*
X15631785Y-37409523D02*
X15441309Y-37347619D01*
X15441309Y-37347619D02*
X15298452Y-37347619D01*
X15298452Y-37347619D02*
X15107976Y-37409523D01*
X15107976Y-37409523D02*
X15012738Y-37471428D01*
X15012738Y-37471428D02*
X14917500Y-37595238D01*
X14917500Y-37595238D02*
X14869880Y-37780952D01*
X14869880Y-37780952D02*
X14869880Y-37904761D01*
X14869880Y-37904761D02*
X14917500Y-38090476D01*
X14917500Y-38090476D02*
X14965119Y-38152380D01*
X14965119Y-38152380D02*
X15298452Y-38152380D01*
X15298452Y-38152380D02*
X15298452Y-37904761D01*
X14869880Y-38709523D02*
X15869880Y-38709523D01*
X15869880Y-38709523D02*
X15869880Y-39019047D01*
X15869880Y-39019047D02*
X15822261Y-39204761D01*
X15822261Y-39204761D02*
X15727023Y-39328571D01*
X15727023Y-39328571D02*
X15631785Y-39390476D01*
X15631785Y-39390476D02*
X15441309Y-39452380D01*
X15441309Y-39452380D02*
X15298452Y-39452380D01*
X15298452Y-39452380D02*
X15107976Y-39390476D01*
X15107976Y-39390476D02*
X15012738Y-39328571D01*
X15012738Y-39328571D02*
X14917500Y-39204761D01*
X14917500Y-39204761D02*
X14869880Y-39019047D01*
X14869880Y-39019047D02*
X14869880Y-38709523D01*
X15869880Y-39823809D02*
X14869880Y-40257142D01*
X14869880Y-40257142D02*
X15869880Y-40690476D01*
X53672261Y-26030476D02*
X53719880Y-25906666D01*
X53719880Y-25906666D02*
X53719880Y-25720952D01*
X53719880Y-25720952D02*
X53672261Y-25535238D01*
X53672261Y-25535238D02*
X53577023Y-25411428D01*
X53577023Y-25411428D02*
X53481785Y-25349523D01*
X53481785Y-25349523D02*
X53291309Y-25287619D01*
X53291309Y-25287619D02*
X53148452Y-25287619D01*
X53148452Y-25287619D02*
X52957976Y-25349523D01*
X52957976Y-25349523D02*
X52862738Y-25411428D01*
X52862738Y-25411428D02*
X52767500Y-25535238D01*
X52767500Y-25535238D02*
X52719880Y-25720952D01*
X52719880Y-25720952D02*
X52719880Y-25844761D01*
X52719880Y-25844761D02*
X52767500Y-26030476D01*
X52767500Y-26030476D02*
X52815119Y-26092380D01*
X52815119Y-26092380D02*
X53148452Y-26092380D01*
X53148452Y-26092380D02*
X53148452Y-25844761D01*
X53719880Y-26897142D02*
X53719880Y-27144761D01*
X53719880Y-27144761D02*
X53672261Y-27268571D01*
X53672261Y-27268571D02*
X53577023Y-27392380D01*
X53577023Y-27392380D02*
X53386547Y-27454285D01*
X53386547Y-27454285D02*
X53053214Y-27454285D01*
X53053214Y-27454285D02*
X52862738Y-27392380D01*
X52862738Y-27392380D02*
X52767500Y-27268571D01*
X52767500Y-27268571D02*
X52719880Y-27144761D01*
X52719880Y-27144761D02*
X52719880Y-26897142D01*
X52719880Y-26897142D02*
X52767500Y-26773333D01*
X52767500Y-26773333D02*
X52862738Y-26649523D01*
X52862738Y-26649523D02*
X53053214Y-26587619D01*
X53053214Y-26587619D02*
X53386547Y-26587619D01*
X53386547Y-26587619D02*
X53577023Y-26649523D01*
X53577023Y-26649523D02*
X53672261Y-26773333D01*
X53672261Y-26773333D02*
X53719880Y-26897142D01*
X53719880Y-27825714D02*
X52719880Y-28259047D01*
X52719880Y-28259047D02*
X53719880Y-28692381D01*
X53672261Y-42030476D02*
X53719880Y-41906666D01*
X53719880Y-41906666D02*
X53719880Y-41720952D01*
X53719880Y-41720952D02*
X53672261Y-41535238D01*
X53672261Y-41535238D02*
X53577023Y-41411428D01*
X53577023Y-41411428D02*
X53481785Y-41349523D01*
X53481785Y-41349523D02*
X53291309Y-41287619D01*
X53291309Y-41287619D02*
X53148452Y-41287619D01*
X53148452Y-41287619D02*
X52957976Y-41349523D01*
X52957976Y-41349523D02*
X52862738Y-41411428D01*
X52862738Y-41411428D02*
X52767500Y-41535238D01*
X52767500Y-41535238D02*
X52719880Y-41720952D01*
X52719880Y-41720952D02*
X52719880Y-41844761D01*
X52719880Y-41844761D02*
X52767500Y-42030476D01*
X52767500Y-42030476D02*
X52815119Y-42092380D01*
X52815119Y-42092380D02*
X53148452Y-42092380D01*
X53148452Y-42092380D02*
X53148452Y-41844761D01*
X53719880Y-42897142D02*
X53719880Y-43144761D01*
X53719880Y-43144761D02*
X53672261Y-43268571D01*
X53672261Y-43268571D02*
X53577023Y-43392380D01*
X53577023Y-43392380D02*
X53386547Y-43454285D01*
X53386547Y-43454285D02*
X53053214Y-43454285D01*
X53053214Y-43454285D02*
X52862738Y-43392380D01*
X52862738Y-43392380D02*
X52767500Y-43268571D01*
X52767500Y-43268571D02*
X52719880Y-43144761D01*
X52719880Y-43144761D02*
X52719880Y-42897142D01*
X52719880Y-42897142D02*
X52767500Y-42773333D01*
X52767500Y-42773333D02*
X52862738Y-42649523D01*
X52862738Y-42649523D02*
X53053214Y-42587619D01*
X53053214Y-42587619D02*
X53386547Y-42587619D01*
X53386547Y-42587619D02*
X53577023Y-42649523D01*
X53577023Y-42649523D02*
X53672261Y-42773333D01*
X53672261Y-42773333D02*
X53719880Y-42897142D01*
X53719880Y-43825714D02*
X52719880Y-44259047D01*
X52719880Y-44259047D02*
X53719880Y-44692381D01*
X15822261Y-26090476D02*
X15869880Y-25966666D01*
X15869880Y-25966666D02*
X15869880Y-25780952D01*
X15869880Y-25780952D02*
X15822261Y-25595238D01*
X15822261Y-25595238D02*
X15727023Y-25471428D01*
X15727023Y-25471428D02*
X15631785Y-25409523D01*
X15631785Y-25409523D02*
X15441309Y-25347619D01*
X15441309Y-25347619D02*
X15298452Y-25347619D01*
X15298452Y-25347619D02*
X15107976Y-25409523D01*
X15107976Y-25409523D02*
X15012738Y-25471428D01*
X15012738Y-25471428D02*
X14917500Y-25595238D01*
X14917500Y-25595238D02*
X14869880Y-25780952D01*
X14869880Y-25780952D02*
X14869880Y-25904761D01*
X14869880Y-25904761D02*
X14917500Y-26090476D01*
X14917500Y-26090476D02*
X14965119Y-26152380D01*
X14965119Y-26152380D02*
X15298452Y-26152380D01*
X15298452Y-26152380D02*
X15298452Y-25904761D01*
X14869880Y-26709523D02*
X15869880Y-26709523D01*
X15869880Y-26709523D02*
X15869880Y-27019047D01*
X15869880Y-27019047D02*
X15822261Y-27204761D01*
X15822261Y-27204761D02*
X15727023Y-27328571D01*
X15727023Y-27328571D02*
X15631785Y-27390476D01*
X15631785Y-27390476D02*
X15441309Y-27452380D01*
X15441309Y-27452380D02*
X15298452Y-27452380D01*
X15298452Y-27452380D02*
X15107976Y-27390476D01*
X15107976Y-27390476D02*
X15012738Y-27328571D01*
X15012738Y-27328571D02*
X14917500Y-27204761D01*
X14917500Y-27204761D02*
X14869880Y-27019047D01*
X14869880Y-27019047D02*
X14869880Y-26709523D01*
X15869880Y-27823809D02*
X14869880Y-28257142D01*
X14869880Y-28257142D02*
X15869880Y-28690476D01*
X53672261Y-34030476D02*
X53719880Y-33906666D01*
X53719880Y-33906666D02*
X53719880Y-33720952D01*
X53719880Y-33720952D02*
X53672261Y-33535238D01*
X53672261Y-33535238D02*
X53577023Y-33411428D01*
X53577023Y-33411428D02*
X53481785Y-33349523D01*
X53481785Y-33349523D02*
X53291309Y-33287619D01*
X53291309Y-33287619D02*
X53148452Y-33287619D01*
X53148452Y-33287619D02*
X52957976Y-33349523D01*
X52957976Y-33349523D02*
X52862738Y-33411428D01*
X52862738Y-33411428D02*
X52767500Y-33535238D01*
X52767500Y-33535238D02*
X52719880Y-33720952D01*
X52719880Y-33720952D02*
X52719880Y-33844761D01*
X52719880Y-33844761D02*
X52767500Y-34030476D01*
X52767500Y-34030476D02*
X52815119Y-34092380D01*
X52815119Y-34092380D02*
X53148452Y-34092380D01*
X53148452Y-34092380D02*
X53148452Y-33844761D01*
X53719880Y-34897142D02*
X53719880Y-35144761D01*
X53719880Y-35144761D02*
X53672261Y-35268571D01*
X53672261Y-35268571D02*
X53577023Y-35392380D01*
X53577023Y-35392380D02*
X53386547Y-35454285D01*
X53386547Y-35454285D02*
X53053214Y-35454285D01*
X53053214Y-35454285D02*
X52862738Y-35392380D01*
X52862738Y-35392380D02*
X52767500Y-35268571D01*
X52767500Y-35268571D02*
X52719880Y-35144761D01*
X52719880Y-35144761D02*
X52719880Y-34897142D01*
X52719880Y-34897142D02*
X52767500Y-34773333D01*
X52767500Y-34773333D02*
X52862738Y-34649523D01*
X52862738Y-34649523D02*
X53053214Y-34587619D01*
X53053214Y-34587619D02*
X53386547Y-34587619D01*
X53386547Y-34587619D02*
X53577023Y-34649523D01*
X53577023Y-34649523D02*
X53672261Y-34773333D01*
X53672261Y-34773333D02*
X53719880Y-34897142D01*
X53719880Y-35825714D02*
X52719880Y-36259047D01*
X52719880Y-36259047D02*
X53719880Y-36692381D01*
X15822261Y-34090476D02*
X15869880Y-33966666D01*
X15869880Y-33966666D02*
X15869880Y-33780952D01*
X15869880Y-33780952D02*
X15822261Y-33595238D01*
X15822261Y-33595238D02*
X15727023Y-33471428D01*
X15727023Y-33471428D02*
X15631785Y-33409523D01*
X15631785Y-33409523D02*
X15441309Y-33347619D01*
X15441309Y-33347619D02*
X15298452Y-33347619D01*
X15298452Y-33347619D02*
X15107976Y-33409523D01*
X15107976Y-33409523D02*
X15012738Y-33471428D01*
X15012738Y-33471428D02*
X14917500Y-33595238D01*
X14917500Y-33595238D02*
X14869880Y-33780952D01*
X14869880Y-33780952D02*
X14869880Y-33904761D01*
X14869880Y-33904761D02*
X14917500Y-34090476D01*
X14917500Y-34090476D02*
X14965119Y-34152380D01*
X14965119Y-34152380D02*
X15298452Y-34152380D01*
X15298452Y-34152380D02*
X15298452Y-33904761D01*
X14869880Y-34709523D02*
X15869880Y-34709523D01*
X15869880Y-34709523D02*
X15869880Y-35019047D01*
X15869880Y-35019047D02*
X15822261Y-35204761D01*
X15822261Y-35204761D02*
X15727023Y-35328571D01*
X15727023Y-35328571D02*
X15631785Y-35390476D01*
X15631785Y-35390476D02*
X15441309Y-35452380D01*
X15441309Y-35452380D02*
X15298452Y-35452380D01*
X15298452Y-35452380D02*
X15107976Y-35390476D01*
X15107976Y-35390476D02*
X15012738Y-35328571D01*
X15012738Y-35328571D02*
X14917500Y-35204761D01*
X14917500Y-35204761D02*
X14869880Y-35019047D01*
X14869880Y-35019047D02*
X14869880Y-34709523D01*
X15869880Y-35823809D02*
X14869880Y-36257142D01*
X14869880Y-36257142D02*
X15869880Y-36690476D01*
X15822261Y-42090476D02*
X15869880Y-41966666D01*
X15869880Y-41966666D02*
X15869880Y-41780952D01*
X15869880Y-41780952D02*
X15822261Y-41595238D01*
X15822261Y-41595238D02*
X15727023Y-41471428D01*
X15727023Y-41471428D02*
X15631785Y-41409523D01*
X15631785Y-41409523D02*
X15441309Y-41347619D01*
X15441309Y-41347619D02*
X15298452Y-41347619D01*
X15298452Y-41347619D02*
X15107976Y-41409523D01*
X15107976Y-41409523D02*
X15012738Y-41471428D01*
X15012738Y-41471428D02*
X14917500Y-41595238D01*
X14917500Y-41595238D02*
X14869880Y-41780952D01*
X14869880Y-41780952D02*
X14869880Y-41904761D01*
X14869880Y-41904761D02*
X14917500Y-42090476D01*
X14917500Y-42090476D02*
X14965119Y-42152380D01*
X14965119Y-42152380D02*
X15298452Y-42152380D01*
X15298452Y-42152380D02*
X15298452Y-41904761D01*
X14869880Y-42709523D02*
X15869880Y-42709523D01*
X15869880Y-42709523D02*
X15869880Y-43019047D01*
X15869880Y-43019047D02*
X15822261Y-43204761D01*
X15822261Y-43204761D02*
X15727023Y-43328571D01*
X15727023Y-43328571D02*
X15631785Y-43390476D01*
X15631785Y-43390476D02*
X15441309Y-43452380D01*
X15441309Y-43452380D02*
X15298452Y-43452380D01*
X15298452Y-43452380D02*
X15107976Y-43390476D01*
X15107976Y-43390476D02*
X15012738Y-43328571D01*
X15012738Y-43328571D02*
X14917500Y-43204761D01*
X14917500Y-43204761D02*
X14869880Y-43019047D01*
X14869880Y-43019047D02*
X14869880Y-42709523D01*
X15869880Y-43823809D02*
X14869880Y-44257142D01*
X14869880Y-44257142D02*
X15869880Y-44690476D01*
X15822261Y-30090476D02*
X15869880Y-29966666D01*
X15869880Y-29966666D02*
X15869880Y-29780952D01*
X15869880Y-29780952D02*
X15822261Y-29595238D01*
X15822261Y-29595238D02*
X15727023Y-29471428D01*
X15727023Y-29471428D02*
X15631785Y-29409523D01*
X15631785Y-29409523D02*
X15441309Y-29347619D01*
X15441309Y-29347619D02*
X15298452Y-29347619D01*
X15298452Y-29347619D02*
X15107976Y-29409523D01*
X15107976Y-29409523D02*
X15012738Y-29471428D01*
X15012738Y-29471428D02*
X14917500Y-29595238D01*
X14917500Y-29595238D02*
X14869880Y-29780952D01*
X14869880Y-29780952D02*
X14869880Y-29904761D01*
X14869880Y-29904761D02*
X14917500Y-30090476D01*
X14917500Y-30090476D02*
X14965119Y-30152380D01*
X14965119Y-30152380D02*
X15298452Y-30152380D01*
X15298452Y-30152380D02*
X15298452Y-29904761D01*
X14869880Y-30709523D02*
X15869880Y-30709523D01*
X15869880Y-30709523D02*
X15869880Y-31019047D01*
X15869880Y-31019047D02*
X15822261Y-31204761D01*
X15822261Y-31204761D02*
X15727023Y-31328571D01*
X15727023Y-31328571D02*
X15631785Y-31390476D01*
X15631785Y-31390476D02*
X15441309Y-31452380D01*
X15441309Y-31452380D02*
X15298452Y-31452380D01*
X15298452Y-31452380D02*
X15107976Y-31390476D01*
X15107976Y-31390476D02*
X15012738Y-31328571D01*
X15012738Y-31328571D02*
X14917500Y-31204761D01*
X14917500Y-31204761D02*
X14869880Y-31019047D01*
X14869880Y-31019047D02*
X14869880Y-30709523D01*
X15869880Y-31823809D02*
X14869880Y-32257142D01*
X14869880Y-32257142D02*
X15869880Y-32690476D01*
X53672261Y-38030476D02*
X53719880Y-37906666D01*
X53719880Y-37906666D02*
X53719880Y-37720952D01*
X53719880Y-37720952D02*
X53672261Y-37535238D01*
X53672261Y-37535238D02*
X53577023Y-37411428D01*
X53577023Y-37411428D02*
X53481785Y-37349523D01*
X53481785Y-37349523D02*
X53291309Y-37287619D01*
X53291309Y-37287619D02*
X53148452Y-37287619D01*
X53148452Y-37287619D02*
X52957976Y-37349523D01*
X52957976Y-37349523D02*
X52862738Y-37411428D01*
X52862738Y-37411428D02*
X52767500Y-37535238D01*
X52767500Y-37535238D02*
X52719880Y-37720952D01*
X52719880Y-37720952D02*
X52719880Y-37844761D01*
X52719880Y-37844761D02*
X52767500Y-38030476D01*
X52767500Y-38030476D02*
X52815119Y-38092380D01*
X52815119Y-38092380D02*
X53148452Y-38092380D01*
X53148452Y-38092380D02*
X53148452Y-37844761D01*
X53719880Y-38897142D02*
X53719880Y-39144761D01*
X53719880Y-39144761D02*
X53672261Y-39268571D01*
X53672261Y-39268571D02*
X53577023Y-39392380D01*
X53577023Y-39392380D02*
X53386547Y-39454285D01*
X53386547Y-39454285D02*
X53053214Y-39454285D01*
X53053214Y-39454285D02*
X52862738Y-39392380D01*
X52862738Y-39392380D02*
X52767500Y-39268571D01*
X52767500Y-39268571D02*
X52719880Y-39144761D01*
X52719880Y-39144761D02*
X52719880Y-38897142D01*
X52719880Y-38897142D02*
X52767500Y-38773333D01*
X52767500Y-38773333D02*
X52862738Y-38649523D01*
X52862738Y-38649523D02*
X53053214Y-38587619D01*
X53053214Y-38587619D02*
X53386547Y-38587619D01*
X53386547Y-38587619D02*
X53577023Y-38649523D01*
X53577023Y-38649523D02*
X53672261Y-38773333D01*
X53672261Y-38773333D02*
X53719880Y-38897142D01*
X53719880Y-39825714D02*
X52719880Y-40259047D01*
X52719880Y-40259047D02*
X53719880Y-40692381D01*
X53672261Y-30030476D02*
X53719880Y-29906666D01*
X53719880Y-29906666D02*
X53719880Y-29720952D01*
X53719880Y-29720952D02*
X53672261Y-29535238D01*
X53672261Y-29535238D02*
X53577023Y-29411428D01*
X53577023Y-29411428D02*
X53481785Y-29349523D01*
X53481785Y-29349523D02*
X53291309Y-29287619D01*
X53291309Y-29287619D02*
X53148452Y-29287619D01*
X53148452Y-29287619D02*
X52957976Y-29349523D01*
X52957976Y-29349523D02*
X52862738Y-29411428D01*
X52862738Y-29411428D02*
X52767500Y-29535238D01*
X52767500Y-29535238D02*
X52719880Y-29720952D01*
X52719880Y-29720952D02*
X52719880Y-29844761D01*
X52719880Y-29844761D02*
X52767500Y-30030476D01*
X52767500Y-30030476D02*
X52815119Y-30092380D01*
X52815119Y-30092380D02*
X53148452Y-30092380D01*
X53148452Y-30092380D02*
X53148452Y-29844761D01*
X53719880Y-30897142D02*
X53719880Y-31144761D01*
X53719880Y-31144761D02*
X53672261Y-31268571D01*
X53672261Y-31268571D02*
X53577023Y-31392380D01*
X53577023Y-31392380D02*
X53386547Y-31454285D01*
X53386547Y-31454285D02*
X53053214Y-31454285D01*
X53053214Y-31454285D02*
X52862738Y-31392380D01*
X52862738Y-31392380D02*
X52767500Y-31268571D01*
X52767500Y-31268571D02*
X52719880Y-31144761D01*
X52719880Y-31144761D02*
X52719880Y-30897142D01*
X52719880Y-30897142D02*
X52767500Y-30773333D01*
X52767500Y-30773333D02*
X52862738Y-30649523D01*
X52862738Y-30649523D02*
X53053214Y-30587619D01*
X53053214Y-30587619D02*
X53386547Y-30587619D01*
X53386547Y-30587619D02*
X53577023Y-30649523D01*
X53577023Y-30649523D02*
X53672261Y-30773333D01*
X53672261Y-30773333D02*
X53719880Y-30897142D01*
X53719880Y-31825714D02*
X52719880Y-32259047D01*
X52719880Y-32259047D02*
X53719880Y-32692381D01*
D12*
G04 #@! TO.C,U4*
X31890663Y-36755000D02*
X31890663Y-35055000D01*
X31890663Y-35055000D02*
X30190663Y-35055000D01*
X30190663Y-36755000D02*
X31890663Y-36755000D01*
X30190663Y-35055000D02*
X30190663Y-36755000D01*
X32090663Y-36605000D02*
G75*
G03*
X32090663Y-36605000I-50000J0D01*
G01*
D10*
X31140663Y-35505000D02*
X30990663Y-35605000D01*
X30990663Y-35405000D01*
X31140663Y-35505000D01*
G36*
X31140663Y-35505000D02*
G01*
X30990663Y-35605000D01*
X30990663Y-35405000D01*
X31140663Y-35505000D01*
G37*
X30215663Y-36430000D02*
X29765663Y-36430000D01*
X29765663Y-36330000D01*
X30215663Y-36330000D01*
X30215663Y-36430000D01*
G36*
X30215663Y-36430000D02*
G01*
X29765663Y-36430000D01*
X29765663Y-36330000D01*
X30215663Y-36330000D01*
X30215663Y-36430000D01*
G37*
X30040663Y-36605000D02*
X29940663Y-36605000D01*
X29940663Y-36155000D01*
X30040663Y-36155000D01*
X30040663Y-36605000D01*
G36*
X30040663Y-36605000D02*
G01*
X29940663Y-36605000D01*
X29940663Y-36155000D01*
X30040663Y-36155000D01*
X30040663Y-36605000D01*
G37*
X31540663Y-35905000D02*
X31370663Y-35905000D01*
X31370663Y-35775000D01*
X31380663Y-35775000D01*
X31540663Y-35775000D01*
X31540663Y-35905000D01*
G36*
X31540663Y-35905000D02*
G01*
X31370663Y-35905000D01*
X31370663Y-35775000D01*
X31380663Y-35775000D01*
X31540663Y-35775000D01*
X31540663Y-35905000D01*
G37*
D12*
G04 #@! TO.C,U5*
X36004334Y-40755000D02*
X36004334Y-39055000D01*
X36004334Y-39055000D02*
X34304334Y-39055000D01*
X34304334Y-40755000D02*
X36004334Y-40755000D01*
X34304334Y-39055000D02*
X34304334Y-40755000D01*
X36204334Y-40605000D02*
G75*
G03*
X36204334Y-40605000I-50000J0D01*
G01*
D10*
X35254334Y-39505000D02*
X35104334Y-39605000D01*
X35104334Y-39405000D01*
X35254334Y-39505000D01*
G36*
X35254334Y-39505000D02*
G01*
X35104334Y-39605000D01*
X35104334Y-39405000D01*
X35254334Y-39505000D01*
G37*
X34329334Y-40430000D02*
X33879334Y-40430000D01*
X33879334Y-40330000D01*
X34329334Y-40330000D01*
X34329334Y-40430000D01*
G36*
X34329334Y-40430000D02*
G01*
X33879334Y-40430000D01*
X33879334Y-40330000D01*
X34329334Y-40330000D01*
X34329334Y-40430000D01*
G37*
X34154334Y-40605000D02*
X34054334Y-40605000D01*
X34054334Y-40155000D01*
X34154334Y-40155000D01*
X34154334Y-40605000D01*
G36*
X34154334Y-40605000D02*
G01*
X34054334Y-40605000D01*
X34054334Y-40155000D01*
X34154334Y-40155000D01*
X34154334Y-40605000D01*
G37*
X35654334Y-39905000D02*
X35484334Y-39905000D01*
X35484334Y-39775000D01*
X35494334Y-39775000D01*
X35654334Y-39775000D01*
X35654334Y-39905000D01*
G36*
X35654334Y-39905000D02*
G01*
X35484334Y-39905000D01*
X35484334Y-39775000D01*
X35494334Y-39775000D01*
X35654334Y-39775000D01*
X35654334Y-39905000D01*
G37*
D12*
G04 #@! TO.C,U6*
X40118005Y-44755000D02*
X40118005Y-43055000D01*
X40118005Y-43055000D02*
X38418005Y-43055000D01*
X38418005Y-44755000D02*
X40118005Y-44755000D01*
X38418005Y-43055000D02*
X38418005Y-44755000D01*
X40318005Y-44605000D02*
G75*
G03*
X40318005Y-44605000I-50000J0D01*
G01*
D10*
X39368005Y-43505000D02*
X39218005Y-43605000D01*
X39218005Y-43405000D01*
X39368005Y-43505000D01*
G36*
X39368005Y-43505000D02*
G01*
X39218005Y-43605000D01*
X39218005Y-43405000D01*
X39368005Y-43505000D01*
G37*
X38443005Y-44430000D02*
X37993005Y-44430000D01*
X37993005Y-44330000D01*
X38443005Y-44330000D01*
X38443005Y-44430000D01*
G36*
X38443005Y-44430000D02*
G01*
X37993005Y-44430000D01*
X37993005Y-44330000D01*
X38443005Y-44330000D01*
X38443005Y-44430000D01*
G37*
X38268005Y-44605000D02*
X38168005Y-44605000D01*
X38168005Y-44155000D01*
X38268005Y-44155000D01*
X38268005Y-44605000D01*
G36*
X38268005Y-44605000D02*
G01*
X38168005Y-44605000D01*
X38168005Y-44155000D01*
X38268005Y-44155000D01*
X38268005Y-44605000D01*
G37*
X39768005Y-43905000D02*
X39598005Y-43905000D01*
X39598005Y-43775000D01*
X39608005Y-43775000D01*
X39768005Y-43775000D01*
X39768005Y-43905000D01*
G36*
X39768005Y-43905000D02*
G01*
X39598005Y-43905000D01*
X39598005Y-43775000D01*
X39608005Y-43775000D01*
X39768005Y-43775000D01*
X39768005Y-43905000D01*
G37*
D12*
G04 #@! TO.C,U4*
X31890663Y-32755000D02*
X31890663Y-31055000D01*
X31890663Y-31055000D02*
X30190663Y-31055000D01*
X30190663Y-32755000D02*
X31890663Y-32755000D01*
X30190663Y-31055000D02*
X30190663Y-32755000D01*
X32090663Y-32605000D02*
G75*
G03*
X32090663Y-32605000I-50000J0D01*
G01*
D10*
X31140663Y-31505000D02*
X30990663Y-31605000D01*
X30990663Y-31405000D01*
X31140663Y-31505000D01*
G36*
X31140663Y-31505000D02*
G01*
X30990663Y-31605000D01*
X30990663Y-31405000D01*
X31140663Y-31505000D01*
G37*
X30215663Y-32430000D02*
X29765663Y-32430000D01*
X29765663Y-32330000D01*
X30215663Y-32330000D01*
X30215663Y-32430000D01*
G36*
X30215663Y-32430000D02*
G01*
X29765663Y-32430000D01*
X29765663Y-32330000D01*
X30215663Y-32330000D01*
X30215663Y-32430000D01*
G37*
X30040663Y-32605000D02*
X29940663Y-32605000D01*
X29940663Y-32155000D01*
X30040663Y-32155000D01*
X30040663Y-32605000D01*
G36*
X30040663Y-32605000D02*
G01*
X29940663Y-32605000D01*
X29940663Y-32155000D01*
X30040663Y-32155000D01*
X30040663Y-32605000D01*
G37*
X31540663Y-31905000D02*
X31370663Y-31905000D01*
X31370663Y-31775000D01*
X31380663Y-31775000D01*
X31540663Y-31775000D01*
X31540663Y-31905000D01*
G36*
X31540663Y-31905000D02*
G01*
X31370663Y-31905000D01*
X31370663Y-31775000D01*
X31380663Y-31775000D01*
X31540663Y-31775000D01*
X31540663Y-31905000D01*
G37*
D12*
G04 #@! TO.C,U5*
X36004334Y-32755000D02*
X36004334Y-31055000D01*
X36004334Y-31055000D02*
X34304334Y-31055000D01*
X34304334Y-32755000D02*
X36004334Y-32755000D01*
X34304334Y-31055000D02*
X34304334Y-32755000D01*
X36204334Y-32605000D02*
G75*
G03*
X36204334Y-32605000I-50000J0D01*
G01*
D10*
X35254334Y-31505000D02*
X35104334Y-31605000D01*
X35104334Y-31405000D01*
X35254334Y-31505000D01*
G36*
X35254334Y-31505000D02*
G01*
X35104334Y-31605000D01*
X35104334Y-31405000D01*
X35254334Y-31505000D01*
G37*
X34329334Y-32430000D02*
X33879334Y-32430000D01*
X33879334Y-32330000D01*
X34329334Y-32330000D01*
X34329334Y-32430000D01*
G36*
X34329334Y-32430000D02*
G01*
X33879334Y-32430000D01*
X33879334Y-32330000D01*
X34329334Y-32330000D01*
X34329334Y-32430000D01*
G37*
X34154334Y-32605000D02*
X34054334Y-32605000D01*
X34054334Y-32155000D01*
X34154334Y-32155000D01*
X34154334Y-32605000D01*
G36*
X34154334Y-32605000D02*
G01*
X34054334Y-32605000D01*
X34054334Y-32155000D01*
X34154334Y-32155000D01*
X34154334Y-32605000D01*
G37*
X35654334Y-31905000D02*
X35484334Y-31905000D01*
X35484334Y-31775000D01*
X35494334Y-31775000D01*
X35654334Y-31775000D01*
X35654334Y-31905000D01*
G36*
X35654334Y-31905000D02*
G01*
X35484334Y-31905000D01*
X35484334Y-31775000D01*
X35494334Y-31775000D01*
X35654334Y-31775000D01*
X35654334Y-31905000D01*
G37*
D12*
G04 #@! TO.C,U6*
X40118005Y-32755000D02*
X40118005Y-31055000D01*
X40118005Y-31055000D02*
X38418005Y-31055000D01*
X38418005Y-32755000D02*
X40118005Y-32755000D01*
X38418005Y-31055000D02*
X38418005Y-32755000D01*
X40318005Y-32605000D02*
G75*
G03*
X40318005Y-32605000I-50000J0D01*
G01*
D10*
X39368005Y-31505000D02*
X39218005Y-31605000D01*
X39218005Y-31405000D01*
X39368005Y-31505000D01*
G36*
X39368005Y-31505000D02*
G01*
X39218005Y-31605000D01*
X39218005Y-31405000D01*
X39368005Y-31505000D01*
G37*
X38443005Y-32430000D02*
X37993005Y-32430000D01*
X37993005Y-32330000D01*
X38443005Y-32330000D01*
X38443005Y-32430000D01*
G36*
X38443005Y-32430000D02*
G01*
X37993005Y-32430000D01*
X37993005Y-32330000D01*
X38443005Y-32330000D01*
X38443005Y-32430000D01*
G37*
X38268005Y-32605000D02*
X38168005Y-32605000D01*
X38168005Y-32155000D01*
X38268005Y-32155000D01*
X38268005Y-32605000D01*
G36*
X38268005Y-32605000D02*
G01*
X38168005Y-32605000D01*
X38168005Y-32155000D01*
X38268005Y-32155000D01*
X38268005Y-32605000D01*
G37*
X39768005Y-31905000D02*
X39598005Y-31905000D01*
X39598005Y-31775000D01*
X39608005Y-31775000D01*
X39768005Y-31775000D01*
X39768005Y-31905000D01*
G36*
X39768005Y-31905000D02*
G01*
X39598005Y-31905000D01*
X39598005Y-31775000D01*
X39608005Y-31775000D01*
X39768005Y-31775000D01*
X39768005Y-31905000D01*
G37*
D12*
G04 #@! TO.C,U2*
X23663321Y-44755000D02*
X23663321Y-43055000D01*
X23663321Y-43055000D02*
X21963321Y-43055000D01*
X21963321Y-44755000D02*
X23663321Y-44755000D01*
X21963321Y-43055000D02*
X21963321Y-44755000D01*
X23863321Y-44605000D02*
G75*
G03*
X23863321Y-44605000I-50000J0D01*
G01*
D10*
X22913321Y-43505000D02*
X22763321Y-43605000D01*
X22763321Y-43405000D01*
X22913321Y-43505000D01*
G36*
X22913321Y-43505000D02*
G01*
X22763321Y-43605000D01*
X22763321Y-43405000D01*
X22913321Y-43505000D01*
G37*
X21988321Y-44430000D02*
X21538321Y-44430000D01*
X21538321Y-44330000D01*
X21988321Y-44330000D01*
X21988321Y-44430000D01*
G36*
X21988321Y-44430000D02*
G01*
X21538321Y-44430000D01*
X21538321Y-44330000D01*
X21988321Y-44330000D01*
X21988321Y-44430000D01*
G37*
X21813321Y-44605000D02*
X21713321Y-44605000D01*
X21713321Y-44155000D01*
X21813321Y-44155000D01*
X21813321Y-44605000D01*
G36*
X21813321Y-44605000D02*
G01*
X21713321Y-44605000D01*
X21713321Y-44155000D01*
X21813321Y-44155000D01*
X21813321Y-44605000D01*
G37*
X23313321Y-43905000D02*
X23143321Y-43905000D01*
X23143321Y-43775000D01*
X23153321Y-43775000D01*
X23313321Y-43775000D01*
X23313321Y-43905000D01*
G36*
X23313321Y-43905000D02*
G01*
X23143321Y-43905000D01*
X23143321Y-43775000D01*
X23153321Y-43775000D01*
X23313321Y-43775000D01*
X23313321Y-43905000D01*
G37*
D12*
G04 #@! TO.C,U6*
X40118005Y-40755000D02*
X40118005Y-39055000D01*
X40118005Y-39055000D02*
X38418005Y-39055000D01*
X38418005Y-40755000D02*
X40118005Y-40755000D01*
X38418005Y-39055000D02*
X38418005Y-40755000D01*
X40318005Y-40605000D02*
G75*
G03*
X40318005Y-40605000I-50000J0D01*
G01*
D10*
X39368005Y-39505000D02*
X39218005Y-39605000D01*
X39218005Y-39405000D01*
X39368005Y-39505000D01*
G36*
X39368005Y-39505000D02*
G01*
X39218005Y-39605000D01*
X39218005Y-39405000D01*
X39368005Y-39505000D01*
G37*
X38443005Y-40430000D02*
X37993005Y-40430000D01*
X37993005Y-40330000D01*
X38443005Y-40330000D01*
X38443005Y-40430000D01*
G36*
X38443005Y-40430000D02*
G01*
X37993005Y-40430000D01*
X37993005Y-40330000D01*
X38443005Y-40330000D01*
X38443005Y-40430000D01*
G37*
X38268005Y-40605000D02*
X38168005Y-40605000D01*
X38168005Y-40155000D01*
X38268005Y-40155000D01*
X38268005Y-40605000D01*
G36*
X38268005Y-40605000D02*
G01*
X38168005Y-40605000D01*
X38168005Y-40155000D01*
X38268005Y-40155000D01*
X38268005Y-40605000D01*
G37*
X39768005Y-39905000D02*
X39598005Y-39905000D01*
X39598005Y-39775000D01*
X39608005Y-39775000D01*
X39768005Y-39775000D01*
X39768005Y-39905000D01*
G36*
X39768005Y-39905000D02*
G01*
X39598005Y-39905000D01*
X39598005Y-39775000D01*
X39608005Y-39775000D01*
X39768005Y-39775000D01*
X39768005Y-39905000D01*
G37*
D12*
G04 #@! TO.C,U1*
X19549650Y-44755000D02*
X19549650Y-43055000D01*
X19549650Y-43055000D02*
X17849650Y-43055000D01*
X17849650Y-44755000D02*
X19549650Y-44755000D01*
X17849650Y-43055000D02*
X17849650Y-44755000D01*
X19749650Y-44605000D02*
G75*
G03*
X19749650Y-44605000I-50000J0D01*
G01*
D10*
X18799650Y-43505000D02*
X18649650Y-43605000D01*
X18649650Y-43405000D01*
X18799650Y-43505000D01*
G36*
X18799650Y-43505000D02*
G01*
X18649650Y-43605000D01*
X18649650Y-43405000D01*
X18799650Y-43505000D01*
G37*
X17874650Y-44430000D02*
X17424650Y-44430000D01*
X17424650Y-44330000D01*
X17874650Y-44330000D01*
X17874650Y-44430000D01*
G36*
X17874650Y-44430000D02*
G01*
X17424650Y-44430000D01*
X17424650Y-44330000D01*
X17874650Y-44330000D01*
X17874650Y-44430000D01*
G37*
X17699650Y-44605000D02*
X17599650Y-44605000D01*
X17599650Y-44155000D01*
X17699650Y-44155000D01*
X17699650Y-44605000D01*
G36*
X17699650Y-44605000D02*
G01*
X17599650Y-44605000D01*
X17599650Y-44155000D01*
X17699650Y-44155000D01*
X17699650Y-44605000D01*
G37*
X19199650Y-43905000D02*
X19029650Y-43905000D01*
X19029650Y-43775000D01*
X19039650Y-43775000D01*
X19199650Y-43775000D01*
X19199650Y-43905000D01*
G36*
X19199650Y-43905000D02*
G01*
X19029650Y-43905000D01*
X19029650Y-43775000D01*
X19039650Y-43775000D01*
X19199650Y-43775000D01*
X19199650Y-43905000D01*
G37*
D12*
G04 #@! TO.C,U8*
X48345347Y-44755000D02*
X48345347Y-43055000D01*
X48345347Y-43055000D02*
X46645347Y-43055000D01*
X46645347Y-44755000D02*
X48345347Y-44755000D01*
X46645347Y-43055000D02*
X46645347Y-44755000D01*
X48545347Y-44605000D02*
G75*
G03*
X48545347Y-44605000I-50000J0D01*
G01*
D10*
X47595347Y-43505000D02*
X47445347Y-43605000D01*
X47445347Y-43405000D01*
X47595347Y-43505000D01*
G36*
X47595347Y-43505000D02*
G01*
X47445347Y-43605000D01*
X47445347Y-43405000D01*
X47595347Y-43505000D01*
G37*
X46670347Y-44430000D02*
X46220347Y-44430000D01*
X46220347Y-44330000D01*
X46670347Y-44330000D01*
X46670347Y-44430000D01*
G36*
X46670347Y-44430000D02*
G01*
X46220347Y-44430000D01*
X46220347Y-44330000D01*
X46670347Y-44330000D01*
X46670347Y-44430000D01*
G37*
X46495347Y-44605000D02*
X46395347Y-44605000D01*
X46395347Y-44155000D01*
X46495347Y-44155000D01*
X46495347Y-44605000D01*
G36*
X46495347Y-44605000D02*
G01*
X46395347Y-44605000D01*
X46395347Y-44155000D01*
X46495347Y-44155000D01*
X46495347Y-44605000D01*
G37*
X47995347Y-43905000D02*
X47825347Y-43905000D01*
X47825347Y-43775000D01*
X47835347Y-43775000D01*
X47995347Y-43775000D01*
X47995347Y-43905000D01*
G36*
X47995347Y-43905000D02*
G01*
X47825347Y-43905000D01*
X47825347Y-43775000D01*
X47835347Y-43775000D01*
X47995347Y-43775000D01*
X47995347Y-43905000D01*
G37*
D12*
G04 #@! TO.C,U1*
X19549650Y-36755000D02*
X19549650Y-35055000D01*
X19549650Y-35055000D02*
X17849650Y-35055000D01*
X17849650Y-36755000D02*
X19549650Y-36755000D01*
X17849650Y-35055000D02*
X17849650Y-36755000D01*
X19749650Y-36605000D02*
G75*
G03*
X19749650Y-36605000I-50000J0D01*
G01*
D10*
X18799650Y-35505000D02*
X18649650Y-35605000D01*
X18649650Y-35405000D01*
X18799650Y-35505000D01*
G36*
X18799650Y-35505000D02*
G01*
X18649650Y-35605000D01*
X18649650Y-35405000D01*
X18799650Y-35505000D01*
G37*
X17874650Y-36430000D02*
X17424650Y-36430000D01*
X17424650Y-36330000D01*
X17874650Y-36330000D01*
X17874650Y-36430000D01*
G36*
X17874650Y-36430000D02*
G01*
X17424650Y-36430000D01*
X17424650Y-36330000D01*
X17874650Y-36330000D01*
X17874650Y-36430000D01*
G37*
X17699650Y-36605000D02*
X17599650Y-36605000D01*
X17599650Y-36155000D01*
X17699650Y-36155000D01*
X17699650Y-36605000D01*
G36*
X17699650Y-36605000D02*
G01*
X17599650Y-36605000D01*
X17599650Y-36155000D01*
X17699650Y-36155000D01*
X17699650Y-36605000D01*
G37*
X19199650Y-35905000D02*
X19029650Y-35905000D01*
X19029650Y-35775000D01*
X19039650Y-35775000D01*
X19199650Y-35775000D01*
X19199650Y-35905000D01*
G36*
X19199650Y-35905000D02*
G01*
X19029650Y-35905000D01*
X19029650Y-35775000D01*
X19039650Y-35775000D01*
X19199650Y-35775000D01*
X19199650Y-35905000D01*
G37*
D12*
G04 #@! TO.C,U3*
X27776992Y-40755000D02*
X27776992Y-39055000D01*
X27776992Y-39055000D02*
X26076992Y-39055000D01*
X26076992Y-40755000D02*
X27776992Y-40755000D01*
X26076992Y-39055000D02*
X26076992Y-40755000D01*
X27976992Y-40605000D02*
G75*
G03*
X27976992Y-40605000I-50000J0D01*
G01*
D10*
X27026992Y-39505000D02*
X26876992Y-39605000D01*
X26876992Y-39405000D01*
X27026992Y-39505000D01*
G36*
X27026992Y-39505000D02*
G01*
X26876992Y-39605000D01*
X26876992Y-39405000D01*
X27026992Y-39505000D01*
G37*
X26101992Y-40430000D02*
X25651992Y-40430000D01*
X25651992Y-40330000D01*
X26101992Y-40330000D01*
X26101992Y-40430000D01*
G36*
X26101992Y-40430000D02*
G01*
X25651992Y-40430000D01*
X25651992Y-40330000D01*
X26101992Y-40330000D01*
X26101992Y-40430000D01*
G37*
X25926992Y-40605000D02*
X25826992Y-40605000D01*
X25826992Y-40155000D01*
X25926992Y-40155000D01*
X25926992Y-40605000D01*
G36*
X25926992Y-40605000D02*
G01*
X25826992Y-40605000D01*
X25826992Y-40155000D01*
X25926992Y-40155000D01*
X25926992Y-40605000D01*
G37*
X27426992Y-39905000D02*
X27256992Y-39905000D01*
X27256992Y-39775000D01*
X27266992Y-39775000D01*
X27426992Y-39775000D01*
X27426992Y-39905000D01*
G36*
X27426992Y-39905000D02*
G01*
X27256992Y-39905000D01*
X27256992Y-39775000D01*
X27266992Y-39775000D01*
X27426992Y-39775000D01*
X27426992Y-39905000D01*
G37*
D12*
G04 #@! TO.C,U5*
X36004334Y-28755000D02*
X36004334Y-27055000D01*
X36004334Y-27055000D02*
X34304334Y-27055000D01*
X34304334Y-28755000D02*
X36004334Y-28755000D01*
X34304334Y-27055000D02*
X34304334Y-28755000D01*
X36204334Y-28605000D02*
G75*
G03*
X36204334Y-28605000I-50000J0D01*
G01*
D10*
X35254334Y-27505000D02*
X35104334Y-27605000D01*
X35104334Y-27405000D01*
X35254334Y-27505000D01*
G36*
X35254334Y-27505000D02*
G01*
X35104334Y-27605000D01*
X35104334Y-27405000D01*
X35254334Y-27505000D01*
G37*
X34329334Y-28430000D02*
X33879334Y-28430000D01*
X33879334Y-28330000D01*
X34329334Y-28330000D01*
X34329334Y-28430000D01*
G36*
X34329334Y-28430000D02*
G01*
X33879334Y-28430000D01*
X33879334Y-28330000D01*
X34329334Y-28330000D01*
X34329334Y-28430000D01*
G37*
X34154334Y-28605000D02*
X34054334Y-28605000D01*
X34054334Y-28155000D01*
X34154334Y-28155000D01*
X34154334Y-28605000D01*
G36*
X34154334Y-28605000D02*
G01*
X34054334Y-28605000D01*
X34054334Y-28155000D01*
X34154334Y-28155000D01*
X34154334Y-28605000D01*
G37*
X35654334Y-27905000D02*
X35484334Y-27905000D01*
X35484334Y-27775000D01*
X35494334Y-27775000D01*
X35654334Y-27775000D01*
X35654334Y-27905000D01*
G36*
X35654334Y-27905000D02*
G01*
X35484334Y-27905000D01*
X35484334Y-27775000D01*
X35494334Y-27775000D01*
X35654334Y-27775000D01*
X35654334Y-27905000D01*
G37*
D12*
G04 #@! TO.C,U9*
X52459022Y-44755000D02*
X52459022Y-43055000D01*
X52459022Y-43055000D02*
X50759022Y-43055000D01*
X50759022Y-44755000D02*
X52459022Y-44755000D01*
X50759022Y-43055000D02*
X50759022Y-44755000D01*
X52659022Y-44605000D02*
G75*
G03*
X52659022Y-44605000I-50000J0D01*
G01*
D10*
X51709022Y-43505000D02*
X51559022Y-43605000D01*
X51559022Y-43405000D01*
X51709022Y-43505000D01*
G36*
X51709022Y-43505000D02*
G01*
X51559022Y-43605000D01*
X51559022Y-43405000D01*
X51709022Y-43505000D01*
G37*
X50784022Y-44430000D02*
X50334022Y-44430000D01*
X50334022Y-44330000D01*
X50784022Y-44330000D01*
X50784022Y-44430000D01*
G36*
X50784022Y-44430000D02*
G01*
X50334022Y-44430000D01*
X50334022Y-44330000D01*
X50784022Y-44330000D01*
X50784022Y-44430000D01*
G37*
X50609022Y-44605000D02*
X50509022Y-44605000D01*
X50509022Y-44155000D01*
X50609022Y-44155000D01*
X50609022Y-44605000D01*
G36*
X50609022Y-44605000D02*
G01*
X50509022Y-44605000D01*
X50509022Y-44155000D01*
X50609022Y-44155000D01*
X50609022Y-44605000D01*
G37*
X52109022Y-43905000D02*
X51939022Y-43905000D01*
X51939022Y-43775000D01*
X51949022Y-43775000D01*
X52109022Y-43775000D01*
X52109022Y-43905000D01*
G36*
X52109022Y-43905000D02*
G01*
X51939022Y-43905000D01*
X51939022Y-43775000D01*
X51949022Y-43775000D01*
X52109022Y-43775000D01*
X52109022Y-43905000D01*
G37*
D12*
G04 #@! TO.C,U4*
X31890663Y-40755000D02*
X31890663Y-39055000D01*
X31890663Y-39055000D02*
X30190663Y-39055000D01*
X30190663Y-40755000D02*
X31890663Y-40755000D01*
X30190663Y-39055000D02*
X30190663Y-40755000D01*
X32090663Y-40605000D02*
G75*
G03*
X32090663Y-40605000I-50000J0D01*
G01*
D10*
X31140663Y-39505000D02*
X30990663Y-39605000D01*
X30990663Y-39405000D01*
X31140663Y-39505000D01*
G36*
X31140663Y-39505000D02*
G01*
X30990663Y-39605000D01*
X30990663Y-39405000D01*
X31140663Y-39505000D01*
G37*
X30215663Y-40430000D02*
X29765663Y-40430000D01*
X29765663Y-40330000D01*
X30215663Y-40330000D01*
X30215663Y-40430000D01*
G36*
X30215663Y-40430000D02*
G01*
X29765663Y-40430000D01*
X29765663Y-40330000D01*
X30215663Y-40330000D01*
X30215663Y-40430000D01*
G37*
X30040663Y-40605000D02*
X29940663Y-40605000D01*
X29940663Y-40155000D01*
X30040663Y-40155000D01*
X30040663Y-40605000D01*
G36*
X30040663Y-40605000D02*
G01*
X29940663Y-40605000D01*
X29940663Y-40155000D01*
X30040663Y-40155000D01*
X30040663Y-40605000D01*
G37*
X31540663Y-39905000D02*
X31370663Y-39905000D01*
X31370663Y-39775000D01*
X31380663Y-39775000D01*
X31540663Y-39775000D01*
X31540663Y-39905000D01*
G36*
X31540663Y-39905000D02*
G01*
X31370663Y-39905000D01*
X31370663Y-39775000D01*
X31380663Y-39775000D01*
X31540663Y-39775000D01*
X31540663Y-39905000D01*
G37*
D12*
G04 #@! TO.C,U3*
X27776992Y-28755000D02*
X27776992Y-27055000D01*
X27776992Y-27055000D02*
X26076992Y-27055000D01*
X26076992Y-28755000D02*
X27776992Y-28755000D01*
X26076992Y-27055000D02*
X26076992Y-28755000D01*
X27976992Y-28605000D02*
G75*
G03*
X27976992Y-28605000I-50000J0D01*
G01*
D10*
X27026992Y-27505000D02*
X26876992Y-27605000D01*
X26876992Y-27405000D01*
X27026992Y-27505000D01*
G36*
X27026992Y-27505000D02*
G01*
X26876992Y-27605000D01*
X26876992Y-27405000D01*
X27026992Y-27505000D01*
G37*
X26101992Y-28430000D02*
X25651992Y-28430000D01*
X25651992Y-28330000D01*
X26101992Y-28330000D01*
X26101992Y-28430000D01*
G36*
X26101992Y-28430000D02*
G01*
X25651992Y-28430000D01*
X25651992Y-28330000D01*
X26101992Y-28330000D01*
X26101992Y-28430000D01*
G37*
X25926992Y-28605000D02*
X25826992Y-28605000D01*
X25826992Y-28155000D01*
X25926992Y-28155000D01*
X25926992Y-28605000D01*
G36*
X25926992Y-28605000D02*
G01*
X25826992Y-28605000D01*
X25826992Y-28155000D01*
X25926992Y-28155000D01*
X25926992Y-28605000D01*
G37*
X27426992Y-27905000D02*
X27256992Y-27905000D01*
X27256992Y-27775000D01*
X27266992Y-27775000D01*
X27426992Y-27775000D01*
X27426992Y-27905000D01*
G36*
X27426992Y-27905000D02*
G01*
X27256992Y-27905000D01*
X27256992Y-27775000D01*
X27266992Y-27775000D01*
X27426992Y-27775000D01*
X27426992Y-27905000D01*
G37*
D12*
X27776992Y-44755000D02*
X27776992Y-43055000D01*
X27776992Y-43055000D02*
X26076992Y-43055000D01*
X26076992Y-44755000D02*
X27776992Y-44755000D01*
X26076992Y-43055000D02*
X26076992Y-44755000D01*
X27976992Y-44605000D02*
G75*
G03*
X27976992Y-44605000I-50000J0D01*
G01*
D10*
X27026992Y-43505000D02*
X26876992Y-43605000D01*
X26876992Y-43405000D01*
X27026992Y-43505000D01*
G36*
X27026992Y-43505000D02*
G01*
X26876992Y-43605000D01*
X26876992Y-43405000D01*
X27026992Y-43505000D01*
G37*
X26101992Y-44430000D02*
X25651992Y-44430000D01*
X25651992Y-44330000D01*
X26101992Y-44330000D01*
X26101992Y-44430000D01*
G36*
X26101992Y-44430000D02*
G01*
X25651992Y-44430000D01*
X25651992Y-44330000D01*
X26101992Y-44330000D01*
X26101992Y-44430000D01*
G37*
X25926992Y-44605000D02*
X25826992Y-44605000D01*
X25826992Y-44155000D01*
X25926992Y-44155000D01*
X25926992Y-44605000D01*
G36*
X25926992Y-44605000D02*
G01*
X25826992Y-44605000D01*
X25826992Y-44155000D01*
X25926992Y-44155000D01*
X25926992Y-44605000D01*
G37*
X27426992Y-43905000D02*
X27256992Y-43905000D01*
X27256992Y-43775000D01*
X27266992Y-43775000D01*
X27426992Y-43775000D01*
X27426992Y-43905000D01*
G36*
X27426992Y-43905000D02*
G01*
X27256992Y-43905000D01*
X27256992Y-43775000D01*
X27266992Y-43775000D01*
X27426992Y-43775000D01*
X27426992Y-43905000D01*
G37*
D12*
G04 #@! TO.C,U4*
X31890663Y-28755000D02*
X31890663Y-27055000D01*
X31890663Y-27055000D02*
X30190663Y-27055000D01*
X30190663Y-28755000D02*
X31890663Y-28755000D01*
X30190663Y-27055000D02*
X30190663Y-28755000D01*
X32090663Y-28605000D02*
G75*
G03*
X32090663Y-28605000I-50000J0D01*
G01*
D10*
X31140663Y-27505000D02*
X30990663Y-27605000D01*
X30990663Y-27405000D01*
X31140663Y-27505000D01*
G36*
X31140663Y-27505000D02*
G01*
X30990663Y-27605000D01*
X30990663Y-27405000D01*
X31140663Y-27505000D01*
G37*
X30215663Y-28430000D02*
X29765663Y-28430000D01*
X29765663Y-28330000D01*
X30215663Y-28330000D01*
X30215663Y-28430000D01*
G36*
X30215663Y-28430000D02*
G01*
X29765663Y-28430000D01*
X29765663Y-28330000D01*
X30215663Y-28330000D01*
X30215663Y-28430000D01*
G37*
X30040663Y-28605000D02*
X29940663Y-28605000D01*
X29940663Y-28155000D01*
X30040663Y-28155000D01*
X30040663Y-28605000D01*
G36*
X30040663Y-28605000D02*
G01*
X29940663Y-28605000D01*
X29940663Y-28155000D01*
X30040663Y-28155000D01*
X30040663Y-28605000D01*
G37*
X31540663Y-27905000D02*
X31370663Y-27905000D01*
X31370663Y-27775000D01*
X31380663Y-27775000D01*
X31540663Y-27775000D01*
X31540663Y-27905000D01*
G36*
X31540663Y-27905000D02*
G01*
X31370663Y-27905000D01*
X31370663Y-27775000D01*
X31380663Y-27775000D01*
X31540663Y-27775000D01*
X31540663Y-27905000D01*
G37*
D12*
G04 #@! TO.C,U9*
X52459022Y-32755000D02*
X52459022Y-31055000D01*
X52459022Y-31055000D02*
X50759022Y-31055000D01*
X50759022Y-32755000D02*
X52459022Y-32755000D01*
X50759022Y-31055000D02*
X50759022Y-32755000D01*
X52659022Y-32605000D02*
G75*
G03*
X52659022Y-32605000I-50000J0D01*
G01*
D10*
X51709022Y-31505000D02*
X51559022Y-31605000D01*
X51559022Y-31405000D01*
X51709022Y-31505000D01*
G36*
X51709022Y-31505000D02*
G01*
X51559022Y-31605000D01*
X51559022Y-31405000D01*
X51709022Y-31505000D01*
G37*
X50784022Y-32430000D02*
X50334022Y-32430000D01*
X50334022Y-32330000D01*
X50784022Y-32330000D01*
X50784022Y-32430000D01*
G36*
X50784022Y-32430000D02*
G01*
X50334022Y-32430000D01*
X50334022Y-32330000D01*
X50784022Y-32330000D01*
X50784022Y-32430000D01*
G37*
X50609022Y-32605000D02*
X50509022Y-32605000D01*
X50509022Y-32155000D01*
X50609022Y-32155000D01*
X50609022Y-32605000D01*
G36*
X50609022Y-32605000D02*
G01*
X50509022Y-32605000D01*
X50509022Y-32155000D01*
X50609022Y-32155000D01*
X50609022Y-32605000D01*
G37*
X52109022Y-31905000D02*
X51939022Y-31905000D01*
X51939022Y-31775000D01*
X51949022Y-31775000D01*
X52109022Y-31775000D01*
X52109022Y-31905000D01*
G36*
X52109022Y-31905000D02*
G01*
X51939022Y-31905000D01*
X51939022Y-31775000D01*
X51949022Y-31775000D01*
X52109022Y-31775000D01*
X52109022Y-31905000D01*
G37*
D12*
G04 #@! TO.C,U8*
X48345347Y-40755000D02*
X48345347Y-39055000D01*
X48345347Y-39055000D02*
X46645347Y-39055000D01*
X46645347Y-40755000D02*
X48345347Y-40755000D01*
X46645347Y-39055000D02*
X46645347Y-40755000D01*
X48545347Y-40605000D02*
G75*
G03*
X48545347Y-40605000I-50000J0D01*
G01*
D10*
X47595347Y-39505000D02*
X47445347Y-39605000D01*
X47445347Y-39405000D01*
X47595347Y-39505000D01*
G36*
X47595347Y-39505000D02*
G01*
X47445347Y-39605000D01*
X47445347Y-39405000D01*
X47595347Y-39505000D01*
G37*
X46670347Y-40430000D02*
X46220347Y-40430000D01*
X46220347Y-40330000D01*
X46670347Y-40330000D01*
X46670347Y-40430000D01*
G36*
X46670347Y-40430000D02*
G01*
X46220347Y-40430000D01*
X46220347Y-40330000D01*
X46670347Y-40330000D01*
X46670347Y-40430000D01*
G37*
X46495347Y-40605000D02*
X46395347Y-40605000D01*
X46395347Y-40155000D01*
X46495347Y-40155000D01*
X46495347Y-40605000D01*
G36*
X46495347Y-40605000D02*
G01*
X46395347Y-40605000D01*
X46395347Y-40155000D01*
X46495347Y-40155000D01*
X46495347Y-40605000D01*
G37*
X47995347Y-39905000D02*
X47825347Y-39905000D01*
X47825347Y-39775000D01*
X47835347Y-39775000D01*
X47995347Y-39775000D01*
X47995347Y-39905000D01*
G36*
X47995347Y-39905000D02*
G01*
X47825347Y-39905000D01*
X47825347Y-39775000D01*
X47835347Y-39775000D01*
X47995347Y-39775000D01*
X47995347Y-39905000D01*
G37*
D12*
G04 #@! TO.C,U2*
X23663321Y-32755000D02*
X23663321Y-31055000D01*
X23663321Y-31055000D02*
X21963321Y-31055000D01*
X21963321Y-32755000D02*
X23663321Y-32755000D01*
X21963321Y-31055000D02*
X21963321Y-32755000D01*
X23863321Y-32605000D02*
G75*
G03*
X23863321Y-32605000I-50000J0D01*
G01*
D10*
X22913321Y-31505000D02*
X22763321Y-31605000D01*
X22763321Y-31405000D01*
X22913321Y-31505000D01*
G36*
X22913321Y-31505000D02*
G01*
X22763321Y-31605000D01*
X22763321Y-31405000D01*
X22913321Y-31505000D01*
G37*
X21988321Y-32430000D02*
X21538321Y-32430000D01*
X21538321Y-32330000D01*
X21988321Y-32330000D01*
X21988321Y-32430000D01*
G36*
X21988321Y-32430000D02*
G01*
X21538321Y-32430000D01*
X21538321Y-32330000D01*
X21988321Y-32330000D01*
X21988321Y-32430000D01*
G37*
X21813321Y-32605000D02*
X21713321Y-32605000D01*
X21713321Y-32155000D01*
X21813321Y-32155000D01*
X21813321Y-32605000D01*
G36*
X21813321Y-32605000D02*
G01*
X21713321Y-32605000D01*
X21713321Y-32155000D01*
X21813321Y-32155000D01*
X21813321Y-32605000D01*
G37*
X23313321Y-31905000D02*
X23143321Y-31905000D01*
X23143321Y-31775000D01*
X23153321Y-31775000D01*
X23313321Y-31775000D01*
X23313321Y-31905000D01*
G36*
X23313321Y-31905000D02*
G01*
X23143321Y-31905000D01*
X23143321Y-31775000D01*
X23153321Y-31775000D01*
X23313321Y-31775000D01*
X23313321Y-31905000D01*
G37*
D12*
G04 #@! TO.C,U7*
X44231676Y-40755000D02*
X44231676Y-39055000D01*
X44231676Y-39055000D02*
X42531676Y-39055000D01*
X42531676Y-40755000D02*
X44231676Y-40755000D01*
X42531676Y-39055000D02*
X42531676Y-40755000D01*
X44431676Y-40605000D02*
G75*
G03*
X44431676Y-40605000I-50000J0D01*
G01*
D10*
X43481676Y-39505000D02*
X43331676Y-39605000D01*
X43331676Y-39405000D01*
X43481676Y-39505000D01*
G36*
X43481676Y-39505000D02*
G01*
X43331676Y-39605000D01*
X43331676Y-39405000D01*
X43481676Y-39505000D01*
G37*
X42556676Y-40430000D02*
X42106676Y-40430000D01*
X42106676Y-40330000D01*
X42556676Y-40330000D01*
X42556676Y-40430000D01*
G36*
X42556676Y-40430000D02*
G01*
X42106676Y-40430000D01*
X42106676Y-40330000D01*
X42556676Y-40330000D01*
X42556676Y-40430000D01*
G37*
X42381676Y-40605000D02*
X42281676Y-40605000D01*
X42281676Y-40155000D01*
X42381676Y-40155000D01*
X42381676Y-40605000D01*
G36*
X42381676Y-40605000D02*
G01*
X42281676Y-40605000D01*
X42281676Y-40155000D01*
X42381676Y-40155000D01*
X42381676Y-40605000D01*
G37*
X43881676Y-39905000D02*
X43711676Y-39905000D01*
X43711676Y-39775000D01*
X43721676Y-39775000D01*
X43881676Y-39775000D01*
X43881676Y-39905000D01*
G36*
X43881676Y-39905000D02*
G01*
X43711676Y-39905000D01*
X43711676Y-39775000D01*
X43721676Y-39775000D01*
X43881676Y-39775000D01*
X43881676Y-39905000D01*
G37*
D12*
X44231676Y-44755000D02*
X44231676Y-43055000D01*
X44231676Y-43055000D02*
X42531676Y-43055000D01*
X42531676Y-44755000D02*
X44231676Y-44755000D01*
X42531676Y-43055000D02*
X42531676Y-44755000D01*
X44431676Y-44605000D02*
G75*
G03*
X44431676Y-44605000I-50000J0D01*
G01*
D10*
X43481676Y-43505000D02*
X43331676Y-43605000D01*
X43331676Y-43405000D01*
X43481676Y-43505000D01*
G36*
X43481676Y-43505000D02*
G01*
X43331676Y-43605000D01*
X43331676Y-43405000D01*
X43481676Y-43505000D01*
G37*
X42556676Y-44430000D02*
X42106676Y-44430000D01*
X42106676Y-44330000D01*
X42556676Y-44330000D01*
X42556676Y-44430000D01*
G36*
X42556676Y-44430000D02*
G01*
X42106676Y-44430000D01*
X42106676Y-44330000D01*
X42556676Y-44330000D01*
X42556676Y-44430000D01*
G37*
X42381676Y-44605000D02*
X42281676Y-44605000D01*
X42281676Y-44155000D01*
X42381676Y-44155000D01*
X42381676Y-44605000D01*
G36*
X42381676Y-44605000D02*
G01*
X42281676Y-44605000D01*
X42281676Y-44155000D01*
X42381676Y-44155000D01*
X42381676Y-44605000D01*
G37*
X43881676Y-43905000D02*
X43711676Y-43905000D01*
X43711676Y-43775000D01*
X43721676Y-43775000D01*
X43881676Y-43775000D01*
X43881676Y-43905000D01*
G36*
X43881676Y-43905000D02*
G01*
X43711676Y-43905000D01*
X43711676Y-43775000D01*
X43721676Y-43775000D01*
X43881676Y-43775000D01*
X43881676Y-43905000D01*
G37*
D12*
G04 #@! TO.C,U8*
X48345347Y-28755000D02*
X48345347Y-27055000D01*
X48345347Y-27055000D02*
X46645347Y-27055000D01*
X46645347Y-28755000D02*
X48345347Y-28755000D01*
X46645347Y-27055000D02*
X46645347Y-28755000D01*
X48545347Y-28605000D02*
G75*
G03*
X48545347Y-28605000I-50000J0D01*
G01*
D10*
X47595347Y-27505000D02*
X47445347Y-27605000D01*
X47445347Y-27405000D01*
X47595347Y-27505000D01*
G36*
X47595347Y-27505000D02*
G01*
X47445347Y-27605000D01*
X47445347Y-27405000D01*
X47595347Y-27505000D01*
G37*
X46670347Y-28430000D02*
X46220347Y-28430000D01*
X46220347Y-28330000D01*
X46670347Y-28330000D01*
X46670347Y-28430000D01*
G36*
X46670347Y-28430000D02*
G01*
X46220347Y-28430000D01*
X46220347Y-28330000D01*
X46670347Y-28330000D01*
X46670347Y-28430000D01*
G37*
X46495347Y-28605000D02*
X46395347Y-28605000D01*
X46395347Y-28155000D01*
X46495347Y-28155000D01*
X46495347Y-28605000D01*
G36*
X46495347Y-28605000D02*
G01*
X46395347Y-28605000D01*
X46395347Y-28155000D01*
X46495347Y-28155000D01*
X46495347Y-28605000D01*
G37*
X47995347Y-27905000D02*
X47825347Y-27905000D01*
X47825347Y-27775000D01*
X47835347Y-27775000D01*
X47995347Y-27775000D01*
X47995347Y-27905000D01*
G36*
X47995347Y-27905000D02*
G01*
X47825347Y-27905000D01*
X47825347Y-27775000D01*
X47835347Y-27775000D01*
X47995347Y-27775000D01*
X47995347Y-27905000D01*
G37*
D12*
G04 #@! TO.C,U2*
X23663321Y-40755000D02*
X23663321Y-39055000D01*
X23663321Y-39055000D02*
X21963321Y-39055000D01*
X21963321Y-40755000D02*
X23663321Y-40755000D01*
X21963321Y-39055000D02*
X21963321Y-40755000D01*
X23863321Y-40605000D02*
G75*
G03*
X23863321Y-40605000I-50000J0D01*
G01*
D10*
X22913321Y-39505000D02*
X22763321Y-39605000D01*
X22763321Y-39405000D01*
X22913321Y-39505000D01*
G36*
X22913321Y-39505000D02*
G01*
X22763321Y-39605000D01*
X22763321Y-39405000D01*
X22913321Y-39505000D01*
G37*
X21988321Y-40430000D02*
X21538321Y-40430000D01*
X21538321Y-40330000D01*
X21988321Y-40330000D01*
X21988321Y-40430000D01*
G36*
X21988321Y-40430000D02*
G01*
X21538321Y-40430000D01*
X21538321Y-40330000D01*
X21988321Y-40330000D01*
X21988321Y-40430000D01*
G37*
X21813321Y-40605000D02*
X21713321Y-40605000D01*
X21713321Y-40155000D01*
X21813321Y-40155000D01*
X21813321Y-40605000D01*
G36*
X21813321Y-40605000D02*
G01*
X21713321Y-40605000D01*
X21713321Y-40155000D01*
X21813321Y-40155000D01*
X21813321Y-40605000D01*
G37*
X23313321Y-39905000D02*
X23143321Y-39905000D01*
X23143321Y-39775000D01*
X23153321Y-39775000D01*
X23313321Y-39775000D01*
X23313321Y-39905000D01*
G36*
X23313321Y-39905000D02*
G01*
X23143321Y-39905000D01*
X23143321Y-39775000D01*
X23153321Y-39775000D01*
X23313321Y-39775000D01*
X23313321Y-39905000D01*
G37*
D12*
G04 #@! TO.C,U9*
X52459022Y-36755000D02*
X52459022Y-35055000D01*
X52459022Y-35055000D02*
X50759022Y-35055000D01*
X50759022Y-36755000D02*
X52459022Y-36755000D01*
X50759022Y-35055000D02*
X50759022Y-36755000D01*
X52659022Y-36605000D02*
G75*
G03*
X52659022Y-36605000I-50000J0D01*
G01*
D10*
X51709022Y-35505000D02*
X51559022Y-35605000D01*
X51559022Y-35405000D01*
X51709022Y-35505000D01*
G36*
X51709022Y-35505000D02*
G01*
X51559022Y-35605000D01*
X51559022Y-35405000D01*
X51709022Y-35505000D01*
G37*
X50784022Y-36430000D02*
X50334022Y-36430000D01*
X50334022Y-36330000D01*
X50784022Y-36330000D01*
X50784022Y-36430000D01*
G36*
X50784022Y-36430000D02*
G01*
X50334022Y-36430000D01*
X50334022Y-36330000D01*
X50784022Y-36330000D01*
X50784022Y-36430000D01*
G37*
X50609022Y-36605000D02*
X50509022Y-36605000D01*
X50509022Y-36155000D01*
X50609022Y-36155000D01*
X50609022Y-36605000D01*
G36*
X50609022Y-36605000D02*
G01*
X50509022Y-36605000D01*
X50509022Y-36155000D01*
X50609022Y-36155000D01*
X50609022Y-36605000D01*
G37*
X52109022Y-35905000D02*
X51939022Y-35905000D01*
X51939022Y-35775000D01*
X51949022Y-35775000D01*
X52109022Y-35775000D01*
X52109022Y-35905000D01*
G36*
X52109022Y-35905000D02*
G01*
X51939022Y-35905000D01*
X51939022Y-35775000D01*
X51949022Y-35775000D01*
X52109022Y-35775000D01*
X52109022Y-35905000D01*
G37*
D12*
G04 #@! TO.C,U3*
X27776992Y-36755000D02*
X27776992Y-35055000D01*
X27776992Y-35055000D02*
X26076992Y-35055000D01*
X26076992Y-36755000D02*
X27776992Y-36755000D01*
X26076992Y-35055000D02*
X26076992Y-36755000D01*
X27976992Y-36605000D02*
G75*
G03*
X27976992Y-36605000I-50000J0D01*
G01*
D10*
X27026992Y-35505000D02*
X26876992Y-35605000D01*
X26876992Y-35405000D01*
X27026992Y-35505000D01*
G36*
X27026992Y-35505000D02*
G01*
X26876992Y-35605000D01*
X26876992Y-35405000D01*
X27026992Y-35505000D01*
G37*
X26101992Y-36430000D02*
X25651992Y-36430000D01*
X25651992Y-36330000D01*
X26101992Y-36330000D01*
X26101992Y-36430000D01*
G36*
X26101992Y-36430000D02*
G01*
X25651992Y-36430000D01*
X25651992Y-36330000D01*
X26101992Y-36330000D01*
X26101992Y-36430000D01*
G37*
X25926992Y-36605000D02*
X25826992Y-36605000D01*
X25826992Y-36155000D01*
X25926992Y-36155000D01*
X25926992Y-36605000D01*
G36*
X25926992Y-36605000D02*
G01*
X25826992Y-36605000D01*
X25826992Y-36155000D01*
X25926992Y-36155000D01*
X25926992Y-36605000D01*
G37*
X27426992Y-35905000D02*
X27256992Y-35905000D01*
X27256992Y-35775000D01*
X27266992Y-35775000D01*
X27426992Y-35775000D01*
X27426992Y-35905000D01*
G36*
X27426992Y-35905000D02*
G01*
X27256992Y-35905000D01*
X27256992Y-35775000D01*
X27266992Y-35775000D01*
X27426992Y-35775000D01*
X27426992Y-35905000D01*
G37*
D12*
G04 #@! TO.C,U5*
X36004334Y-44755000D02*
X36004334Y-43055000D01*
X36004334Y-43055000D02*
X34304334Y-43055000D01*
X34304334Y-44755000D02*
X36004334Y-44755000D01*
X34304334Y-43055000D02*
X34304334Y-44755000D01*
X36204334Y-44605000D02*
G75*
G03*
X36204334Y-44605000I-50000J0D01*
G01*
D10*
X35254334Y-43505000D02*
X35104334Y-43605000D01*
X35104334Y-43405000D01*
X35254334Y-43505000D01*
G36*
X35254334Y-43505000D02*
G01*
X35104334Y-43605000D01*
X35104334Y-43405000D01*
X35254334Y-43505000D01*
G37*
X34329334Y-44430000D02*
X33879334Y-44430000D01*
X33879334Y-44330000D01*
X34329334Y-44330000D01*
X34329334Y-44430000D01*
G36*
X34329334Y-44430000D02*
G01*
X33879334Y-44430000D01*
X33879334Y-44330000D01*
X34329334Y-44330000D01*
X34329334Y-44430000D01*
G37*
X34154334Y-44605000D02*
X34054334Y-44605000D01*
X34054334Y-44155000D01*
X34154334Y-44155000D01*
X34154334Y-44605000D01*
G36*
X34154334Y-44605000D02*
G01*
X34054334Y-44605000D01*
X34054334Y-44155000D01*
X34154334Y-44155000D01*
X34154334Y-44605000D01*
G37*
X35654334Y-43905000D02*
X35484334Y-43905000D01*
X35484334Y-43775000D01*
X35494334Y-43775000D01*
X35654334Y-43775000D01*
X35654334Y-43905000D01*
G36*
X35654334Y-43905000D02*
G01*
X35484334Y-43905000D01*
X35484334Y-43775000D01*
X35494334Y-43775000D01*
X35654334Y-43775000D01*
X35654334Y-43905000D01*
G37*
D12*
G04 #@! TO.C,U9*
X52459022Y-28755000D02*
X52459022Y-27055000D01*
X52459022Y-27055000D02*
X50759022Y-27055000D01*
X50759022Y-28755000D02*
X52459022Y-28755000D01*
X50759022Y-27055000D02*
X50759022Y-28755000D01*
X52659022Y-28605000D02*
G75*
G03*
X52659022Y-28605000I-50000J0D01*
G01*
D10*
X51709022Y-27505000D02*
X51559022Y-27605000D01*
X51559022Y-27405000D01*
X51709022Y-27505000D01*
G36*
X51709022Y-27505000D02*
G01*
X51559022Y-27605000D01*
X51559022Y-27405000D01*
X51709022Y-27505000D01*
G37*
X50784022Y-28430000D02*
X50334022Y-28430000D01*
X50334022Y-28330000D01*
X50784022Y-28330000D01*
X50784022Y-28430000D01*
G36*
X50784022Y-28430000D02*
G01*
X50334022Y-28430000D01*
X50334022Y-28330000D01*
X50784022Y-28330000D01*
X50784022Y-28430000D01*
G37*
X50609022Y-28605000D02*
X50509022Y-28605000D01*
X50509022Y-28155000D01*
X50609022Y-28155000D01*
X50609022Y-28605000D01*
G36*
X50609022Y-28605000D02*
G01*
X50509022Y-28605000D01*
X50509022Y-28155000D01*
X50609022Y-28155000D01*
X50609022Y-28605000D01*
G37*
X52109022Y-27905000D02*
X51939022Y-27905000D01*
X51939022Y-27775000D01*
X51949022Y-27775000D01*
X52109022Y-27775000D01*
X52109022Y-27905000D01*
G36*
X52109022Y-27905000D02*
G01*
X51939022Y-27905000D01*
X51939022Y-27775000D01*
X51949022Y-27775000D01*
X52109022Y-27775000D01*
X52109022Y-27905000D01*
G37*
D12*
G04 #@! TO.C,U5*
X36004334Y-36755000D02*
X36004334Y-35055000D01*
X36004334Y-35055000D02*
X34304334Y-35055000D01*
X34304334Y-36755000D02*
X36004334Y-36755000D01*
X34304334Y-35055000D02*
X34304334Y-36755000D01*
X36204334Y-36605000D02*
G75*
G03*
X36204334Y-36605000I-50000J0D01*
G01*
D10*
X35254334Y-35505000D02*
X35104334Y-35605000D01*
X35104334Y-35405000D01*
X35254334Y-35505000D01*
G36*
X35254334Y-35505000D02*
G01*
X35104334Y-35605000D01*
X35104334Y-35405000D01*
X35254334Y-35505000D01*
G37*
X34329334Y-36430000D02*
X33879334Y-36430000D01*
X33879334Y-36330000D01*
X34329334Y-36330000D01*
X34329334Y-36430000D01*
G36*
X34329334Y-36430000D02*
G01*
X33879334Y-36430000D01*
X33879334Y-36330000D01*
X34329334Y-36330000D01*
X34329334Y-36430000D01*
G37*
X34154334Y-36605000D02*
X34054334Y-36605000D01*
X34054334Y-36155000D01*
X34154334Y-36155000D01*
X34154334Y-36605000D01*
G36*
X34154334Y-36605000D02*
G01*
X34054334Y-36605000D01*
X34054334Y-36155000D01*
X34154334Y-36155000D01*
X34154334Y-36605000D01*
G37*
X35654334Y-35905000D02*
X35484334Y-35905000D01*
X35484334Y-35775000D01*
X35494334Y-35775000D01*
X35654334Y-35775000D01*
X35654334Y-35905000D01*
G36*
X35654334Y-35905000D02*
G01*
X35484334Y-35905000D01*
X35484334Y-35775000D01*
X35494334Y-35775000D01*
X35654334Y-35775000D01*
X35654334Y-35905000D01*
G37*
D12*
G04 #@! TO.C,U9*
X52459022Y-40755000D02*
X52459022Y-39055000D01*
X52459022Y-39055000D02*
X50759022Y-39055000D01*
X50759022Y-40755000D02*
X52459022Y-40755000D01*
X50759022Y-39055000D02*
X50759022Y-40755000D01*
X52659022Y-40605000D02*
G75*
G03*
X52659022Y-40605000I-50000J0D01*
G01*
D10*
X51709022Y-39505000D02*
X51559022Y-39605000D01*
X51559022Y-39405000D01*
X51709022Y-39505000D01*
G36*
X51709022Y-39505000D02*
G01*
X51559022Y-39605000D01*
X51559022Y-39405000D01*
X51709022Y-39505000D01*
G37*
X50784022Y-40430000D02*
X50334022Y-40430000D01*
X50334022Y-40330000D01*
X50784022Y-40330000D01*
X50784022Y-40430000D01*
G36*
X50784022Y-40430000D02*
G01*
X50334022Y-40430000D01*
X50334022Y-40330000D01*
X50784022Y-40330000D01*
X50784022Y-40430000D01*
G37*
X50609022Y-40605000D02*
X50509022Y-40605000D01*
X50509022Y-40155000D01*
X50609022Y-40155000D01*
X50609022Y-40605000D01*
G36*
X50609022Y-40605000D02*
G01*
X50509022Y-40605000D01*
X50509022Y-40155000D01*
X50609022Y-40155000D01*
X50609022Y-40605000D01*
G37*
X52109022Y-39905000D02*
X51939022Y-39905000D01*
X51939022Y-39775000D01*
X51949022Y-39775000D01*
X52109022Y-39775000D01*
X52109022Y-39905000D01*
G36*
X52109022Y-39905000D02*
G01*
X51939022Y-39905000D01*
X51939022Y-39775000D01*
X51949022Y-39775000D01*
X52109022Y-39775000D01*
X52109022Y-39905000D01*
G37*
D12*
G04 #@! TO.C,U7*
X44231676Y-36755000D02*
X44231676Y-35055000D01*
X44231676Y-35055000D02*
X42531676Y-35055000D01*
X42531676Y-36755000D02*
X44231676Y-36755000D01*
X42531676Y-35055000D02*
X42531676Y-36755000D01*
X44431676Y-36605000D02*
G75*
G03*
X44431676Y-36605000I-50000J0D01*
G01*
D10*
X43481676Y-35505000D02*
X43331676Y-35605000D01*
X43331676Y-35405000D01*
X43481676Y-35505000D01*
G36*
X43481676Y-35505000D02*
G01*
X43331676Y-35605000D01*
X43331676Y-35405000D01*
X43481676Y-35505000D01*
G37*
X42556676Y-36430000D02*
X42106676Y-36430000D01*
X42106676Y-36330000D01*
X42556676Y-36330000D01*
X42556676Y-36430000D01*
G36*
X42556676Y-36430000D02*
G01*
X42106676Y-36430000D01*
X42106676Y-36330000D01*
X42556676Y-36330000D01*
X42556676Y-36430000D01*
G37*
X42381676Y-36605000D02*
X42281676Y-36605000D01*
X42281676Y-36155000D01*
X42381676Y-36155000D01*
X42381676Y-36605000D01*
G36*
X42381676Y-36605000D02*
G01*
X42281676Y-36605000D01*
X42281676Y-36155000D01*
X42381676Y-36155000D01*
X42381676Y-36605000D01*
G37*
X43881676Y-35905000D02*
X43711676Y-35905000D01*
X43711676Y-35775000D01*
X43721676Y-35775000D01*
X43881676Y-35775000D01*
X43881676Y-35905000D01*
G36*
X43881676Y-35905000D02*
G01*
X43711676Y-35905000D01*
X43711676Y-35775000D01*
X43721676Y-35775000D01*
X43881676Y-35775000D01*
X43881676Y-35905000D01*
G37*
D12*
G04 #@! TO.C,U8*
X48345347Y-36755000D02*
X48345347Y-35055000D01*
X48345347Y-35055000D02*
X46645347Y-35055000D01*
X46645347Y-36755000D02*
X48345347Y-36755000D01*
X46645347Y-35055000D02*
X46645347Y-36755000D01*
X48545347Y-36605000D02*
G75*
G03*
X48545347Y-36605000I-50000J0D01*
G01*
D10*
X47595347Y-35505000D02*
X47445347Y-35605000D01*
X47445347Y-35405000D01*
X47595347Y-35505000D01*
G36*
X47595347Y-35505000D02*
G01*
X47445347Y-35605000D01*
X47445347Y-35405000D01*
X47595347Y-35505000D01*
G37*
X46670347Y-36430000D02*
X46220347Y-36430000D01*
X46220347Y-36330000D01*
X46670347Y-36330000D01*
X46670347Y-36430000D01*
G36*
X46670347Y-36430000D02*
G01*
X46220347Y-36430000D01*
X46220347Y-36330000D01*
X46670347Y-36330000D01*
X46670347Y-36430000D01*
G37*
X46495347Y-36605000D02*
X46395347Y-36605000D01*
X46395347Y-36155000D01*
X46495347Y-36155000D01*
X46495347Y-36605000D01*
G36*
X46495347Y-36605000D02*
G01*
X46395347Y-36605000D01*
X46395347Y-36155000D01*
X46495347Y-36155000D01*
X46495347Y-36605000D01*
G37*
X47995347Y-35905000D02*
X47825347Y-35905000D01*
X47825347Y-35775000D01*
X47835347Y-35775000D01*
X47995347Y-35775000D01*
X47995347Y-35905000D01*
G36*
X47995347Y-35905000D02*
G01*
X47825347Y-35905000D01*
X47825347Y-35775000D01*
X47835347Y-35775000D01*
X47995347Y-35775000D01*
X47995347Y-35905000D01*
G37*
D12*
X48345347Y-32755000D02*
X48345347Y-31055000D01*
X48345347Y-31055000D02*
X46645347Y-31055000D01*
X46645347Y-32755000D02*
X48345347Y-32755000D01*
X46645347Y-31055000D02*
X46645347Y-32755000D01*
X48545347Y-32605000D02*
G75*
G03*
X48545347Y-32605000I-50000J0D01*
G01*
D10*
X47595347Y-31505000D02*
X47445347Y-31605000D01*
X47445347Y-31405000D01*
X47595347Y-31505000D01*
G36*
X47595347Y-31505000D02*
G01*
X47445347Y-31605000D01*
X47445347Y-31405000D01*
X47595347Y-31505000D01*
G37*
X46670347Y-32430000D02*
X46220347Y-32430000D01*
X46220347Y-32330000D01*
X46670347Y-32330000D01*
X46670347Y-32430000D01*
G36*
X46670347Y-32430000D02*
G01*
X46220347Y-32430000D01*
X46220347Y-32330000D01*
X46670347Y-32330000D01*
X46670347Y-32430000D01*
G37*
X46495347Y-32605000D02*
X46395347Y-32605000D01*
X46395347Y-32155000D01*
X46495347Y-32155000D01*
X46495347Y-32605000D01*
G36*
X46495347Y-32605000D02*
G01*
X46395347Y-32605000D01*
X46395347Y-32155000D01*
X46495347Y-32155000D01*
X46495347Y-32605000D01*
G37*
X47995347Y-31905000D02*
X47825347Y-31905000D01*
X47825347Y-31775000D01*
X47835347Y-31775000D01*
X47995347Y-31775000D01*
X47995347Y-31905000D01*
G36*
X47995347Y-31905000D02*
G01*
X47825347Y-31905000D01*
X47825347Y-31775000D01*
X47835347Y-31775000D01*
X47995347Y-31775000D01*
X47995347Y-31905000D01*
G37*
D12*
G04 #@! TO.C,U3*
X27776992Y-32755000D02*
X27776992Y-31055000D01*
X27776992Y-31055000D02*
X26076992Y-31055000D01*
X26076992Y-32755000D02*
X27776992Y-32755000D01*
X26076992Y-31055000D02*
X26076992Y-32755000D01*
X27976992Y-32605000D02*
G75*
G03*
X27976992Y-32605000I-50000J0D01*
G01*
D10*
X27026992Y-31505000D02*
X26876992Y-31605000D01*
X26876992Y-31405000D01*
X27026992Y-31505000D01*
G36*
X27026992Y-31505000D02*
G01*
X26876992Y-31605000D01*
X26876992Y-31405000D01*
X27026992Y-31505000D01*
G37*
X26101992Y-32430000D02*
X25651992Y-32430000D01*
X25651992Y-32330000D01*
X26101992Y-32330000D01*
X26101992Y-32430000D01*
G36*
X26101992Y-32430000D02*
G01*
X25651992Y-32430000D01*
X25651992Y-32330000D01*
X26101992Y-32330000D01*
X26101992Y-32430000D01*
G37*
X25926992Y-32605000D02*
X25826992Y-32605000D01*
X25826992Y-32155000D01*
X25926992Y-32155000D01*
X25926992Y-32605000D01*
G36*
X25926992Y-32605000D02*
G01*
X25826992Y-32605000D01*
X25826992Y-32155000D01*
X25926992Y-32155000D01*
X25926992Y-32605000D01*
G37*
X27426992Y-31905000D02*
X27256992Y-31905000D01*
X27256992Y-31775000D01*
X27266992Y-31775000D01*
X27426992Y-31775000D01*
X27426992Y-31905000D01*
G36*
X27426992Y-31905000D02*
G01*
X27256992Y-31905000D01*
X27256992Y-31775000D01*
X27266992Y-31775000D01*
X27426992Y-31775000D01*
X27426992Y-31905000D01*
G37*
D12*
G04 #@! TO.C,U6*
X40118005Y-28755000D02*
X40118005Y-27055000D01*
X40118005Y-27055000D02*
X38418005Y-27055000D01*
X38418005Y-28755000D02*
X40118005Y-28755000D01*
X38418005Y-27055000D02*
X38418005Y-28755000D01*
X40318005Y-28605000D02*
G75*
G03*
X40318005Y-28605000I-50000J0D01*
G01*
D10*
X39368005Y-27505000D02*
X39218005Y-27605000D01*
X39218005Y-27405000D01*
X39368005Y-27505000D01*
G36*
X39368005Y-27505000D02*
G01*
X39218005Y-27605000D01*
X39218005Y-27405000D01*
X39368005Y-27505000D01*
G37*
X38443005Y-28430000D02*
X37993005Y-28430000D01*
X37993005Y-28330000D01*
X38443005Y-28330000D01*
X38443005Y-28430000D01*
G36*
X38443005Y-28430000D02*
G01*
X37993005Y-28430000D01*
X37993005Y-28330000D01*
X38443005Y-28330000D01*
X38443005Y-28430000D01*
G37*
X38268005Y-28605000D02*
X38168005Y-28605000D01*
X38168005Y-28155000D01*
X38268005Y-28155000D01*
X38268005Y-28605000D01*
G36*
X38268005Y-28605000D02*
G01*
X38168005Y-28605000D01*
X38168005Y-28155000D01*
X38268005Y-28155000D01*
X38268005Y-28605000D01*
G37*
X39768005Y-27905000D02*
X39598005Y-27905000D01*
X39598005Y-27775000D01*
X39608005Y-27775000D01*
X39768005Y-27775000D01*
X39768005Y-27905000D01*
G36*
X39768005Y-27905000D02*
G01*
X39598005Y-27905000D01*
X39598005Y-27775000D01*
X39608005Y-27775000D01*
X39768005Y-27775000D01*
X39768005Y-27905000D01*
G37*
D12*
G04 #@! TO.C,U2*
X23663321Y-28755000D02*
X23663321Y-27055000D01*
X23663321Y-27055000D02*
X21963321Y-27055000D01*
X21963321Y-28755000D02*
X23663321Y-28755000D01*
X21963321Y-27055000D02*
X21963321Y-28755000D01*
X23863321Y-28605000D02*
G75*
G03*
X23863321Y-28605000I-50000J0D01*
G01*
D10*
X22913321Y-27505000D02*
X22763321Y-27605000D01*
X22763321Y-27405000D01*
X22913321Y-27505000D01*
G36*
X22913321Y-27505000D02*
G01*
X22763321Y-27605000D01*
X22763321Y-27405000D01*
X22913321Y-27505000D01*
G37*
X21988321Y-28430000D02*
X21538321Y-28430000D01*
X21538321Y-28330000D01*
X21988321Y-28330000D01*
X21988321Y-28430000D01*
G36*
X21988321Y-28430000D02*
G01*
X21538321Y-28430000D01*
X21538321Y-28330000D01*
X21988321Y-28330000D01*
X21988321Y-28430000D01*
G37*
X21813321Y-28605000D02*
X21713321Y-28605000D01*
X21713321Y-28155000D01*
X21813321Y-28155000D01*
X21813321Y-28605000D01*
G36*
X21813321Y-28605000D02*
G01*
X21713321Y-28605000D01*
X21713321Y-28155000D01*
X21813321Y-28155000D01*
X21813321Y-28605000D01*
G37*
X23313321Y-27905000D02*
X23143321Y-27905000D01*
X23143321Y-27775000D01*
X23153321Y-27775000D01*
X23313321Y-27775000D01*
X23313321Y-27905000D01*
G36*
X23313321Y-27905000D02*
G01*
X23143321Y-27905000D01*
X23143321Y-27775000D01*
X23153321Y-27775000D01*
X23313321Y-27775000D01*
X23313321Y-27905000D01*
G37*
D12*
G04 #@! TO.C,U7*
X44231676Y-28755000D02*
X44231676Y-27055000D01*
X44231676Y-27055000D02*
X42531676Y-27055000D01*
X42531676Y-28755000D02*
X44231676Y-28755000D01*
X42531676Y-27055000D02*
X42531676Y-28755000D01*
X44431676Y-28605000D02*
G75*
G03*
X44431676Y-28605000I-50000J0D01*
G01*
D10*
X43481676Y-27505000D02*
X43331676Y-27605000D01*
X43331676Y-27405000D01*
X43481676Y-27505000D01*
G36*
X43481676Y-27505000D02*
G01*
X43331676Y-27605000D01*
X43331676Y-27405000D01*
X43481676Y-27505000D01*
G37*
X42556676Y-28430000D02*
X42106676Y-28430000D01*
X42106676Y-28330000D01*
X42556676Y-28330000D01*
X42556676Y-28430000D01*
G36*
X42556676Y-28430000D02*
G01*
X42106676Y-28430000D01*
X42106676Y-28330000D01*
X42556676Y-28330000D01*
X42556676Y-28430000D01*
G37*
X42381676Y-28605000D02*
X42281676Y-28605000D01*
X42281676Y-28155000D01*
X42381676Y-28155000D01*
X42381676Y-28605000D01*
G36*
X42381676Y-28605000D02*
G01*
X42281676Y-28605000D01*
X42281676Y-28155000D01*
X42381676Y-28155000D01*
X42381676Y-28605000D01*
G37*
X43881676Y-27905000D02*
X43711676Y-27905000D01*
X43711676Y-27775000D01*
X43721676Y-27775000D01*
X43881676Y-27775000D01*
X43881676Y-27905000D01*
G36*
X43881676Y-27905000D02*
G01*
X43711676Y-27905000D01*
X43711676Y-27775000D01*
X43721676Y-27775000D01*
X43881676Y-27775000D01*
X43881676Y-27905000D01*
G37*
D12*
G04 #@! TO.C,U6*
X40118005Y-36755000D02*
X40118005Y-35055000D01*
X40118005Y-35055000D02*
X38418005Y-35055000D01*
X38418005Y-36755000D02*
X40118005Y-36755000D01*
X38418005Y-35055000D02*
X38418005Y-36755000D01*
X40318005Y-36605000D02*
G75*
G03*
X40318005Y-36605000I-50000J0D01*
G01*
D10*
X39368005Y-35505000D02*
X39218005Y-35605000D01*
X39218005Y-35405000D01*
X39368005Y-35505000D01*
G36*
X39368005Y-35505000D02*
G01*
X39218005Y-35605000D01*
X39218005Y-35405000D01*
X39368005Y-35505000D01*
G37*
X38443005Y-36430000D02*
X37993005Y-36430000D01*
X37993005Y-36330000D01*
X38443005Y-36330000D01*
X38443005Y-36430000D01*
G36*
X38443005Y-36430000D02*
G01*
X37993005Y-36430000D01*
X37993005Y-36330000D01*
X38443005Y-36330000D01*
X38443005Y-36430000D01*
G37*
X38268005Y-36605000D02*
X38168005Y-36605000D01*
X38168005Y-36155000D01*
X38268005Y-36155000D01*
X38268005Y-36605000D01*
G36*
X38268005Y-36605000D02*
G01*
X38168005Y-36605000D01*
X38168005Y-36155000D01*
X38268005Y-36155000D01*
X38268005Y-36605000D01*
G37*
X39768005Y-35905000D02*
X39598005Y-35905000D01*
X39598005Y-35775000D01*
X39608005Y-35775000D01*
X39768005Y-35775000D01*
X39768005Y-35905000D01*
G36*
X39768005Y-35905000D02*
G01*
X39598005Y-35905000D01*
X39598005Y-35775000D01*
X39608005Y-35775000D01*
X39768005Y-35775000D01*
X39768005Y-35905000D01*
G37*
D12*
G04 #@! TO.C,U2*
X23663321Y-36755000D02*
X23663321Y-35055000D01*
X23663321Y-35055000D02*
X21963321Y-35055000D01*
X21963321Y-36755000D02*
X23663321Y-36755000D01*
X21963321Y-35055000D02*
X21963321Y-36755000D01*
X23863321Y-36605000D02*
G75*
G03*
X23863321Y-36605000I-50000J0D01*
G01*
D10*
X22913321Y-35505000D02*
X22763321Y-35605000D01*
X22763321Y-35405000D01*
X22913321Y-35505000D01*
G36*
X22913321Y-35505000D02*
G01*
X22763321Y-35605000D01*
X22763321Y-35405000D01*
X22913321Y-35505000D01*
G37*
X21988321Y-36430000D02*
X21538321Y-36430000D01*
X21538321Y-36330000D01*
X21988321Y-36330000D01*
X21988321Y-36430000D01*
G36*
X21988321Y-36430000D02*
G01*
X21538321Y-36430000D01*
X21538321Y-36330000D01*
X21988321Y-36330000D01*
X21988321Y-36430000D01*
G37*
X21813321Y-36605000D02*
X21713321Y-36605000D01*
X21713321Y-36155000D01*
X21813321Y-36155000D01*
X21813321Y-36605000D01*
G36*
X21813321Y-36605000D02*
G01*
X21713321Y-36605000D01*
X21713321Y-36155000D01*
X21813321Y-36155000D01*
X21813321Y-36605000D01*
G37*
X23313321Y-35905000D02*
X23143321Y-35905000D01*
X23143321Y-35775000D01*
X23153321Y-35775000D01*
X23313321Y-35775000D01*
X23313321Y-35905000D01*
G36*
X23313321Y-35905000D02*
G01*
X23143321Y-35905000D01*
X23143321Y-35775000D01*
X23153321Y-35775000D01*
X23313321Y-35775000D01*
X23313321Y-35905000D01*
G37*
D12*
G04 #@! TO.C,U4*
X31890663Y-44755000D02*
X31890663Y-43055000D01*
X31890663Y-43055000D02*
X30190663Y-43055000D01*
X30190663Y-44755000D02*
X31890663Y-44755000D01*
X30190663Y-43055000D02*
X30190663Y-44755000D01*
X32090663Y-44605000D02*
G75*
G03*
X32090663Y-44605000I-50000J0D01*
G01*
D10*
X31140663Y-43505000D02*
X30990663Y-43605000D01*
X30990663Y-43405000D01*
X31140663Y-43505000D01*
G36*
X31140663Y-43505000D02*
G01*
X30990663Y-43605000D01*
X30990663Y-43405000D01*
X31140663Y-43505000D01*
G37*
X30215663Y-44430000D02*
X29765663Y-44430000D01*
X29765663Y-44330000D01*
X30215663Y-44330000D01*
X30215663Y-44430000D01*
G36*
X30215663Y-44430000D02*
G01*
X29765663Y-44430000D01*
X29765663Y-44330000D01*
X30215663Y-44330000D01*
X30215663Y-44430000D01*
G37*
X30040663Y-44605000D02*
X29940663Y-44605000D01*
X29940663Y-44155000D01*
X30040663Y-44155000D01*
X30040663Y-44605000D01*
G36*
X30040663Y-44605000D02*
G01*
X29940663Y-44605000D01*
X29940663Y-44155000D01*
X30040663Y-44155000D01*
X30040663Y-44605000D01*
G37*
X31540663Y-43905000D02*
X31370663Y-43905000D01*
X31370663Y-43775000D01*
X31380663Y-43775000D01*
X31540663Y-43775000D01*
X31540663Y-43905000D01*
G36*
X31540663Y-43905000D02*
G01*
X31370663Y-43905000D01*
X31370663Y-43775000D01*
X31380663Y-43775000D01*
X31540663Y-43775000D01*
X31540663Y-43905000D01*
G37*
D12*
G04 #@! TO.C,U1*
X19549650Y-28755000D02*
X19549650Y-27055000D01*
X19549650Y-27055000D02*
X17849650Y-27055000D01*
X17849650Y-28755000D02*
X19549650Y-28755000D01*
X17849650Y-27055000D02*
X17849650Y-28755000D01*
X19749650Y-28605000D02*
G75*
G03*
X19749650Y-28605000I-50000J0D01*
G01*
D10*
X18799650Y-27505000D02*
X18649650Y-27605000D01*
X18649650Y-27405000D01*
X18799650Y-27505000D01*
G36*
X18799650Y-27505000D02*
G01*
X18649650Y-27605000D01*
X18649650Y-27405000D01*
X18799650Y-27505000D01*
G37*
X17874650Y-28430000D02*
X17424650Y-28430000D01*
X17424650Y-28330000D01*
X17874650Y-28330000D01*
X17874650Y-28430000D01*
G36*
X17874650Y-28430000D02*
G01*
X17424650Y-28430000D01*
X17424650Y-28330000D01*
X17874650Y-28330000D01*
X17874650Y-28430000D01*
G37*
X17699650Y-28605000D02*
X17599650Y-28605000D01*
X17599650Y-28155000D01*
X17699650Y-28155000D01*
X17699650Y-28605000D01*
G36*
X17699650Y-28605000D02*
G01*
X17599650Y-28605000D01*
X17599650Y-28155000D01*
X17699650Y-28155000D01*
X17699650Y-28605000D01*
G37*
X19199650Y-27905000D02*
X19029650Y-27905000D01*
X19029650Y-27775000D01*
X19039650Y-27775000D01*
X19199650Y-27775000D01*
X19199650Y-27905000D01*
G36*
X19199650Y-27905000D02*
G01*
X19029650Y-27905000D01*
X19029650Y-27775000D01*
X19039650Y-27775000D01*
X19199650Y-27775000D01*
X19199650Y-27905000D01*
G37*
D12*
X19549650Y-40755000D02*
X19549650Y-39055000D01*
X19549650Y-39055000D02*
X17849650Y-39055000D01*
X17849650Y-40755000D02*
X19549650Y-40755000D01*
X17849650Y-39055000D02*
X17849650Y-40755000D01*
X19749650Y-40605000D02*
G75*
G03*
X19749650Y-40605000I-50000J0D01*
G01*
D10*
X18799650Y-39505000D02*
X18649650Y-39605000D01*
X18649650Y-39405000D01*
X18799650Y-39505000D01*
G36*
X18799650Y-39505000D02*
G01*
X18649650Y-39605000D01*
X18649650Y-39405000D01*
X18799650Y-39505000D01*
G37*
X17874650Y-40430000D02*
X17424650Y-40430000D01*
X17424650Y-40330000D01*
X17874650Y-40330000D01*
X17874650Y-40430000D01*
G36*
X17874650Y-40430000D02*
G01*
X17424650Y-40430000D01*
X17424650Y-40330000D01*
X17874650Y-40330000D01*
X17874650Y-40430000D01*
G37*
X17699650Y-40605000D02*
X17599650Y-40605000D01*
X17599650Y-40155000D01*
X17699650Y-40155000D01*
X17699650Y-40605000D01*
G36*
X17699650Y-40605000D02*
G01*
X17599650Y-40605000D01*
X17599650Y-40155000D01*
X17699650Y-40155000D01*
X17699650Y-40605000D01*
G37*
X19199650Y-39905000D02*
X19029650Y-39905000D01*
X19029650Y-39775000D01*
X19039650Y-39775000D01*
X19199650Y-39775000D01*
X19199650Y-39905000D01*
G36*
X19199650Y-39905000D02*
G01*
X19029650Y-39905000D01*
X19029650Y-39775000D01*
X19039650Y-39775000D01*
X19199650Y-39775000D01*
X19199650Y-39905000D01*
G37*
D12*
X19549650Y-32755000D02*
X19549650Y-31055000D01*
X19549650Y-31055000D02*
X17849650Y-31055000D01*
X17849650Y-32755000D02*
X19549650Y-32755000D01*
X17849650Y-31055000D02*
X17849650Y-32755000D01*
X19749650Y-32605000D02*
G75*
G03*
X19749650Y-32605000I-50000J0D01*
G01*
D10*
X18799650Y-31505000D02*
X18649650Y-31605000D01*
X18649650Y-31405000D01*
X18799650Y-31505000D01*
G36*
X18799650Y-31505000D02*
G01*
X18649650Y-31605000D01*
X18649650Y-31405000D01*
X18799650Y-31505000D01*
G37*
X17874650Y-32430000D02*
X17424650Y-32430000D01*
X17424650Y-32330000D01*
X17874650Y-32330000D01*
X17874650Y-32430000D01*
G36*
X17874650Y-32430000D02*
G01*
X17424650Y-32430000D01*
X17424650Y-32330000D01*
X17874650Y-32330000D01*
X17874650Y-32430000D01*
G37*
X17699650Y-32605000D02*
X17599650Y-32605000D01*
X17599650Y-32155000D01*
X17699650Y-32155000D01*
X17699650Y-32605000D01*
G36*
X17699650Y-32605000D02*
G01*
X17599650Y-32605000D01*
X17599650Y-32155000D01*
X17699650Y-32155000D01*
X17699650Y-32605000D01*
G37*
X19199650Y-31905000D02*
X19029650Y-31905000D01*
X19029650Y-31775000D01*
X19039650Y-31775000D01*
X19199650Y-31775000D01*
X19199650Y-31905000D01*
G36*
X19199650Y-31905000D02*
G01*
X19029650Y-31905000D01*
X19029650Y-31775000D01*
X19039650Y-31775000D01*
X19199650Y-31775000D01*
X19199650Y-31905000D01*
G37*
D12*
G04 #@! TO.C,U7*
X44231676Y-32755000D02*
X44231676Y-31055000D01*
X44231676Y-31055000D02*
X42531676Y-31055000D01*
X42531676Y-32755000D02*
X44231676Y-32755000D01*
X42531676Y-31055000D02*
X42531676Y-32755000D01*
X44431676Y-32605000D02*
G75*
G03*
X44431676Y-32605000I-50000J0D01*
G01*
D10*
X43481676Y-31505000D02*
X43331676Y-31605000D01*
X43331676Y-31405000D01*
X43481676Y-31505000D01*
G36*
X43481676Y-31505000D02*
G01*
X43331676Y-31605000D01*
X43331676Y-31405000D01*
X43481676Y-31505000D01*
G37*
X42556676Y-32430000D02*
X42106676Y-32430000D01*
X42106676Y-32330000D01*
X42556676Y-32330000D01*
X42556676Y-32430000D01*
G36*
X42556676Y-32430000D02*
G01*
X42106676Y-32430000D01*
X42106676Y-32330000D01*
X42556676Y-32330000D01*
X42556676Y-32430000D01*
G37*
X42381676Y-32605000D02*
X42281676Y-32605000D01*
X42281676Y-32155000D01*
X42381676Y-32155000D01*
X42381676Y-32605000D01*
G36*
X42381676Y-32605000D02*
G01*
X42281676Y-32605000D01*
X42281676Y-32155000D01*
X42381676Y-32155000D01*
X42381676Y-32605000D01*
G37*
X43881676Y-31905000D02*
X43711676Y-31905000D01*
X43711676Y-31775000D01*
X43721676Y-31775000D01*
X43881676Y-31775000D01*
X43881676Y-31905000D01*
G36*
X43881676Y-31905000D02*
G01*
X43711676Y-31905000D01*
X43711676Y-31775000D01*
X43721676Y-31775000D01*
X43881676Y-31775000D01*
X43881676Y-31905000D01*
G37*
G04 #@! TD*
M02*
