M48
; DRILL file {KiCad 7.0.2-6a45011f42~172~ubuntu22.04.1} date Mon Jul  3 20:32:52 2023
; FORMAT={-:-/ absolute / metric / decimal}
; #@! TF.CreationDate,2023-07-03T20:32:52+08:00
; #@! TF.GenerationSoftware,Kicad,Pcbnew,7.0.2-6a45011f42~172~ubuntu22.04.1
; #@! TF.FileFunction,MixedPlating,1,2
FMAT,2
METRIC
; #@! TA.AperFunction,Plated,PTH,ViaDrill
T1C0.200
; #@! TA.AperFunction,Plated,PTH,ComponentDrill
T2C0.200
; #@! TA.AperFunction,NonPlated,NPTH,ComponentDrill
T3C1.152
%
G90
G05
T1
X20.651Y-28.4
X20.651Y-32.4
X20.651Y-36.4
X20.651Y-40.4
X20.651Y-44.4
X24.779Y-28.4
X24.779Y-32.4
X24.779Y-36.4
X24.779Y-40.4
X24.779Y-44.4
X28.906Y-28.4
X28.906Y-32.4
X28.906Y-36.4
X28.906Y-40.4
X28.906Y-44.4
X33.034Y-28.4
X33.034Y-32.4
X33.034Y-36.4
X33.034Y-40.4
X33.034Y-44.4
X37.162Y-28.4
X37.162Y-32.4
X37.162Y-36.4
X37.162Y-40.4
X37.162Y-44.4
X41.29Y-28.4
X41.29Y-32.4
X41.29Y-36.4
X41.29Y-40.4
X41.29Y-44.4
X45.418Y-28.4
X45.418Y-32.4
X45.418Y-36.4
X45.418Y-40.4
X45.418Y-44.4
X49.546Y-28.4
X49.546Y-32.4
X49.546Y-36.4
X49.546Y-40.4
X49.546Y-44.4
T2
X16.727Y-25.68
X16.727Y-27.005
X16.727Y-28.33
X16.727Y-29.68
X16.727Y-31.005
X16.727Y-32.33
X16.727Y-33.68
X16.727Y-35.005
X16.727Y-36.33
X16.727Y-37.68
X16.727Y-39.005
X16.727Y-40.33
X16.727Y-41.68
X16.727Y-43.005
X16.727Y-44.33
X54.497Y-25.675
X54.497Y-27.0
X54.497Y-28.325
X54.497Y-29.675
X54.497Y-31.0
X54.497Y-32.325
X54.497Y-33.675
X54.497Y-35.0
X54.497Y-36.325
X54.497Y-37.675
X54.497Y-39.0
X54.497Y-40.325
X54.497Y-41.675
X54.497Y-43.0
X54.497Y-44.325
T3
X2.5Y-2.5
X2.5Y-67.5
X67.5Y-2.5
T0
M30
