G04 #@! TF.GenerationSoftware,KiCad,Pcbnew,7.0.2-6a45011f42~172~ubuntu22.04.1*
G04 #@! TF.CreationDate,2023-07-03T20:32:52+08:00*
G04 #@! TF.ProjectId,panel_5_1,70616e65-6c5f-4355-9f31-2e6b69636164,rev?*
G04 #@! TF.SameCoordinates,Original*
G04 #@! TF.FileFunction,Other,Comment*
%FSLAX46Y46*%
G04 Gerber Fmt 4.6, Leading zero omitted, Abs format (unit mm)*
G04 Created by KiCad (PCBNEW 7.0.2-6a45011f42~172~ubuntu22.04.1) date 2023-07-03 20:32:52*
%MOMM*%
%LPD*%
G01*
G04 APERTURE LIST*
%ADD10C,0.400000*%
G04 APERTURE END LIST*
D10*
X-3000000Y-25000000D02*
X73000000Y-25000000D01*
X14550000Y3000000D02*
X14550000Y-73000000D01*
X-3000000Y-29000000D02*
X73000000Y-29000000D01*
X-3000000Y-45000000D02*
X73000000Y-45000000D01*
X55450000Y3000000D02*
X55450000Y-73000000D01*
X-3000000Y-41000000D02*
X73000000Y-41000000D01*
X-3000000Y-33000000D02*
X73000000Y-33000000D01*
X-3000000Y-37000000D02*
X73000000Y-37000000D01*
X76190476Y-23925238D02*
X76857142Y-25925238D01*
X76857142Y-25925238D02*
X77523809Y-23925238D01*
X78190476Y-25163333D02*
X79714286Y-25163333D01*
X81809523Y-25734761D02*
X81714285Y-25830000D01*
X81714285Y-25830000D02*
X81428571Y-25925238D01*
X81428571Y-25925238D02*
X81238095Y-25925238D01*
X81238095Y-25925238D02*
X80952380Y-25830000D01*
X80952380Y-25830000D02*
X80761904Y-25639523D01*
X80761904Y-25639523D02*
X80666666Y-25449047D01*
X80666666Y-25449047D02*
X80571428Y-25068095D01*
X80571428Y-25068095D02*
X80571428Y-24782380D01*
X80571428Y-24782380D02*
X80666666Y-24401428D01*
X80666666Y-24401428D02*
X80761904Y-24210952D01*
X80761904Y-24210952D02*
X80952380Y-24020476D01*
X80952380Y-24020476D02*
X81238095Y-23925238D01*
X81238095Y-23925238D02*
X81428571Y-23925238D01*
X81428571Y-23925238D02*
X81714285Y-24020476D01*
X81714285Y-24020476D02*
X81809523Y-24115714D01*
X82666666Y-23925238D02*
X82666666Y-25544285D01*
X82666666Y-25544285D02*
X82761904Y-25734761D01*
X82761904Y-25734761D02*
X82857142Y-25830000D01*
X82857142Y-25830000D02*
X83047618Y-25925238D01*
X83047618Y-25925238D02*
X83428571Y-25925238D01*
X83428571Y-25925238D02*
X83619047Y-25830000D01*
X83619047Y-25830000D02*
X83714285Y-25734761D01*
X83714285Y-25734761D02*
X83809523Y-25544285D01*
X83809523Y-25544285D02*
X83809523Y-23925238D01*
X84476190Y-23925238D02*
X85619047Y-23925238D01*
X85047618Y-25925238D02*
X85047618Y-23925238D01*
X76190476Y-39925238D02*
X76857142Y-41925238D01*
X76857142Y-41925238D02*
X77523809Y-39925238D01*
X78190476Y-41163333D02*
X79714286Y-41163333D01*
X81809523Y-41734761D02*
X81714285Y-41830000D01*
X81714285Y-41830000D02*
X81428571Y-41925238D01*
X81428571Y-41925238D02*
X81238095Y-41925238D01*
X81238095Y-41925238D02*
X80952380Y-41830000D01*
X80952380Y-41830000D02*
X80761904Y-41639523D01*
X80761904Y-41639523D02*
X80666666Y-41449047D01*
X80666666Y-41449047D02*
X80571428Y-41068095D01*
X80571428Y-41068095D02*
X80571428Y-40782380D01*
X80571428Y-40782380D02*
X80666666Y-40401428D01*
X80666666Y-40401428D02*
X80761904Y-40210952D01*
X80761904Y-40210952D02*
X80952380Y-40020476D01*
X80952380Y-40020476D02*
X81238095Y-39925238D01*
X81238095Y-39925238D02*
X81428571Y-39925238D01*
X81428571Y-39925238D02*
X81714285Y-40020476D01*
X81714285Y-40020476D02*
X81809523Y-40115714D01*
X82666666Y-39925238D02*
X82666666Y-41544285D01*
X82666666Y-41544285D02*
X82761904Y-41734761D01*
X82761904Y-41734761D02*
X82857142Y-41830000D01*
X82857142Y-41830000D02*
X83047618Y-41925238D01*
X83047618Y-41925238D02*
X83428571Y-41925238D01*
X83428571Y-41925238D02*
X83619047Y-41830000D01*
X83619047Y-41830000D02*
X83714285Y-41734761D01*
X83714285Y-41734761D02*
X83809523Y-41544285D01*
X83809523Y-41544285D02*
X83809523Y-39925238D01*
X84476190Y-39925238D02*
X85619047Y-39925238D01*
X85047618Y-41925238D02*
X85047618Y-39925238D01*
X76190476Y-27925238D02*
X76857142Y-29925238D01*
X76857142Y-29925238D02*
X77523809Y-27925238D01*
X78190476Y-29163333D02*
X79714286Y-29163333D01*
X81809523Y-29734761D02*
X81714285Y-29830000D01*
X81714285Y-29830000D02*
X81428571Y-29925238D01*
X81428571Y-29925238D02*
X81238095Y-29925238D01*
X81238095Y-29925238D02*
X80952380Y-29830000D01*
X80952380Y-29830000D02*
X80761904Y-29639523D01*
X80761904Y-29639523D02*
X80666666Y-29449047D01*
X80666666Y-29449047D02*
X80571428Y-29068095D01*
X80571428Y-29068095D02*
X80571428Y-28782380D01*
X80571428Y-28782380D02*
X80666666Y-28401428D01*
X80666666Y-28401428D02*
X80761904Y-28210952D01*
X80761904Y-28210952D02*
X80952380Y-28020476D01*
X80952380Y-28020476D02*
X81238095Y-27925238D01*
X81238095Y-27925238D02*
X81428571Y-27925238D01*
X81428571Y-27925238D02*
X81714285Y-28020476D01*
X81714285Y-28020476D02*
X81809523Y-28115714D01*
X82666666Y-27925238D02*
X82666666Y-29544285D01*
X82666666Y-29544285D02*
X82761904Y-29734761D01*
X82761904Y-29734761D02*
X82857142Y-29830000D01*
X82857142Y-29830000D02*
X83047618Y-29925238D01*
X83047618Y-29925238D02*
X83428571Y-29925238D01*
X83428571Y-29925238D02*
X83619047Y-29830000D01*
X83619047Y-29830000D02*
X83714285Y-29734761D01*
X83714285Y-29734761D02*
X83809523Y-29544285D01*
X83809523Y-29544285D02*
X83809523Y-27925238D01*
X84476190Y-27925238D02*
X85619047Y-27925238D01*
X85047618Y-29925238D02*
X85047618Y-27925238D01*
X76190476Y-43925238D02*
X76857142Y-45925238D01*
X76857142Y-45925238D02*
X77523809Y-43925238D01*
X78190476Y-45163333D02*
X79714286Y-45163333D01*
X81809523Y-45734761D02*
X81714285Y-45830000D01*
X81714285Y-45830000D02*
X81428571Y-45925238D01*
X81428571Y-45925238D02*
X81238095Y-45925238D01*
X81238095Y-45925238D02*
X80952380Y-45830000D01*
X80952380Y-45830000D02*
X80761904Y-45639523D01*
X80761904Y-45639523D02*
X80666666Y-45449047D01*
X80666666Y-45449047D02*
X80571428Y-45068095D01*
X80571428Y-45068095D02*
X80571428Y-44782380D01*
X80571428Y-44782380D02*
X80666666Y-44401428D01*
X80666666Y-44401428D02*
X80761904Y-44210952D01*
X80761904Y-44210952D02*
X80952380Y-44020476D01*
X80952380Y-44020476D02*
X81238095Y-43925238D01*
X81238095Y-43925238D02*
X81428571Y-43925238D01*
X81428571Y-43925238D02*
X81714285Y-44020476D01*
X81714285Y-44020476D02*
X81809523Y-44115714D01*
X82666666Y-43925238D02*
X82666666Y-45544285D01*
X82666666Y-45544285D02*
X82761904Y-45734761D01*
X82761904Y-45734761D02*
X82857142Y-45830000D01*
X82857142Y-45830000D02*
X83047618Y-45925238D01*
X83047618Y-45925238D02*
X83428571Y-45925238D01*
X83428571Y-45925238D02*
X83619047Y-45830000D01*
X83619047Y-45830000D02*
X83714285Y-45734761D01*
X83714285Y-45734761D02*
X83809523Y-45544285D01*
X83809523Y-45544285D02*
X83809523Y-43925238D01*
X84476190Y-43925238D02*
X85619047Y-43925238D01*
X85047618Y-45925238D02*
X85047618Y-43925238D01*
X76190476Y-35925238D02*
X76857142Y-37925238D01*
X76857142Y-37925238D02*
X77523809Y-35925238D01*
X78190476Y-37163333D02*
X79714286Y-37163333D01*
X81809523Y-37734761D02*
X81714285Y-37830000D01*
X81714285Y-37830000D02*
X81428571Y-37925238D01*
X81428571Y-37925238D02*
X81238095Y-37925238D01*
X81238095Y-37925238D02*
X80952380Y-37830000D01*
X80952380Y-37830000D02*
X80761904Y-37639523D01*
X80761904Y-37639523D02*
X80666666Y-37449047D01*
X80666666Y-37449047D02*
X80571428Y-37068095D01*
X80571428Y-37068095D02*
X80571428Y-36782380D01*
X80571428Y-36782380D02*
X80666666Y-36401428D01*
X80666666Y-36401428D02*
X80761904Y-36210952D01*
X80761904Y-36210952D02*
X80952380Y-36020476D01*
X80952380Y-36020476D02*
X81238095Y-35925238D01*
X81238095Y-35925238D02*
X81428571Y-35925238D01*
X81428571Y-35925238D02*
X81714285Y-36020476D01*
X81714285Y-36020476D02*
X81809523Y-36115714D01*
X82666666Y-35925238D02*
X82666666Y-37544285D01*
X82666666Y-37544285D02*
X82761904Y-37734761D01*
X82761904Y-37734761D02*
X82857142Y-37830000D01*
X82857142Y-37830000D02*
X83047618Y-37925238D01*
X83047618Y-37925238D02*
X83428571Y-37925238D01*
X83428571Y-37925238D02*
X83619047Y-37830000D01*
X83619047Y-37830000D02*
X83714285Y-37734761D01*
X83714285Y-37734761D02*
X83809523Y-37544285D01*
X83809523Y-37544285D02*
X83809523Y-35925238D01*
X84476190Y-35925238D02*
X85619047Y-35925238D01*
X85047618Y-37925238D02*
X85047618Y-35925238D01*
X54375238Y6190477D02*
X56375238Y6857143D01*
X56375238Y6857143D02*
X54375238Y7523810D01*
X55613333Y8190477D02*
X55613333Y9714286D01*
X56184761Y11809524D02*
X56280000Y11714286D01*
X56280000Y11714286D02*
X56375238Y11428572D01*
X56375238Y11428572D02*
X56375238Y11238096D01*
X56375238Y11238096D02*
X56280000Y10952381D01*
X56280000Y10952381D02*
X56089523Y10761905D01*
X56089523Y10761905D02*
X55899047Y10666667D01*
X55899047Y10666667D02*
X55518095Y10571429D01*
X55518095Y10571429D02*
X55232380Y10571429D01*
X55232380Y10571429D02*
X54851428Y10666667D01*
X54851428Y10666667D02*
X54660952Y10761905D01*
X54660952Y10761905D02*
X54470476Y10952381D01*
X54470476Y10952381D02*
X54375238Y11238096D01*
X54375238Y11238096D02*
X54375238Y11428572D01*
X54375238Y11428572D02*
X54470476Y11714286D01*
X54470476Y11714286D02*
X54565714Y11809524D01*
X54375238Y12666667D02*
X55994285Y12666667D01*
X55994285Y12666667D02*
X56184761Y12761905D01*
X56184761Y12761905D02*
X56280000Y12857143D01*
X56280000Y12857143D02*
X56375238Y13047619D01*
X56375238Y13047619D02*
X56375238Y13428572D01*
X56375238Y13428572D02*
X56280000Y13619048D01*
X56280000Y13619048D02*
X56184761Y13714286D01*
X56184761Y13714286D02*
X55994285Y13809524D01*
X55994285Y13809524D02*
X54375238Y13809524D01*
X54375238Y14476191D02*
X54375238Y15619048D01*
X56375238Y15047619D02*
X54375238Y15047619D01*
X13475238Y6190477D02*
X15475238Y6857143D01*
X15475238Y6857143D02*
X13475238Y7523810D01*
X14713333Y8190477D02*
X14713333Y9714286D01*
X15284761Y11809524D02*
X15380000Y11714286D01*
X15380000Y11714286D02*
X15475238Y11428572D01*
X15475238Y11428572D02*
X15475238Y11238096D01*
X15475238Y11238096D02*
X15380000Y10952381D01*
X15380000Y10952381D02*
X15189523Y10761905D01*
X15189523Y10761905D02*
X14999047Y10666667D01*
X14999047Y10666667D02*
X14618095Y10571429D01*
X14618095Y10571429D02*
X14332380Y10571429D01*
X14332380Y10571429D02*
X13951428Y10666667D01*
X13951428Y10666667D02*
X13760952Y10761905D01*
X13760952Y10761905D02*
X13570476Y10952381D01*
X13570476Y10952381D02*
X13475238Y11238096D01*
X13475238Y11238096D02*
X13475238Y11428572D01*
X13475238Y11428572D02*
X13570476Y11714286D01*
X13570476Y11714286D02*
X13665714Y11809524D01*
X13475238Y12666667D02*
X15094285Y12666667D01*
X15094285Y12666667D02*
X15284761Y12761905D01*
X15284761Y12761905D02*
X15380000Y12857143D01*
X15380000Y12857143D02*
X15475238Y13047619D01*
X15475238Y13047619D02*
X15475238Y13428572D01*
X15475238Y13428572D02*
X15380000Y13619048D01*
X15380000Y13619048D02*
X15284761Y13714286D01*
X15284761Y13714286D02*
X15094285Y13809524D01*
X15094285Y13809524D02*
X13475238Y13809524D01*
X13475238Y14476191D02*
X13475238Y15619048D01*
X15475238Y15047619D02*
X13475238Y15047619D01*
X76190476Y-31925238D02*
X76857142Y-33925238D01*
X76857142Y-33925238D02*
X77523809Y-31925238D01*
X78190476Y-33163333D02*
X79714286Y-33163333D01*
X81809523Y-33734761D02*
X81714285Y-33830000D01*
X81714285Y-33830000D02*
X81428571Y-33925238D01*
X81428571Y-33925238D02*
X81238095Y-33925238D01*
X81238095Y-33925238D02*
X80952380Y-33830000D01*
X80952380Y-33830000D02*
X80761904Y-33639523D01*
X80761904Y-33639523D02*
X80666666Y-33449047D01*
X80666666Y-33449047D02*
X80571428Y-33068095D01*
X80571428Y-33068095D02*
X80571428Y-32782380D01*
X80571428Y-32782380D02*
X80666666Y-32401428D01*
X80666666Y-32401428D02*
X80761904Y-32210952D01*
X80761904Y-32210952D02*
X80952380Y-32020476D01*
X80952380Y-32020476D02*
X81238095Y-31925238D01*
X81238095Y-31925238D02*
X81428571Y-31925238D01*
X81428571Y-31925238D02*
X81714285Y-32020476D01*
X81714285Y-32020476D02*
X81809523Y-32115714D01*
X82666666Y-31925238D02*
X82666666Y-33544285D01*
X82666666Y-33544285D02*
X82761904Y-33734761D01*
X82761904Y-33734761D02*
X82857142Y-33830000D01*
X82857142Y-33830000D02*
X83047618Y-33925238D01*
X83047618Y-33925238D02*
X83428571Y-33925238D01*
X83428571Y-33925238D02*
X83619047Y-33830000D01*
X83619047Y-33830000D02*
X83714285Y-33734761D01*
X83714285Y-33734761D02*
X83809523Y-33544285D01*
X83809523Y-33544285D02*
X83809523Y-31925238D01*
X84476190Y-31925238D02*
X85619047Y-31925238D01*
X85047618Y-33925238D02*
X85047618Y-31925238D01*
M02*
