G04 #@! TF.GenerationSoftware,KiCad,Pcbnew,7.0.2-6a45011f42~172~ubuntu22.04.1*
G04 #@! TF.CreationDate,2023-07-04T14:06:36+08:00*
G04 #@! TF.ProjectId,panel_3_3,70616e65-6c5f-4335-9f33-2e6b69636164,rev?*
G04 #@! TF.SameCoordinates,Original*
G04 #@! TF.FileFunction,Paste,Top*
G04 #@! TF.FilePolarity,Positive*
%FSLAX46Y46*%
G04 Gerber Fmt 4.6, Leading zero omitted, Abs format (unit mm)*
G04 Created by KiCad (PCBNEW 7.0.2-6a45011f42~172~ubuntu22.04.1) date 2023-07-04 14:06:36*
%MOMM*%
%LPD*%
G01*
G04 APERTURE LIST*
G04 Aperture macros list*
%AMRoundRect*
0 Rectangle with rounded corners*
0 $1 Rounding radius*
0 $2 $3 $4 $5 $6 $7 $8 $9 X,Y pos of 4 corners*
0 Add a 4 corners polygon primitive as box body*
4,1,4,$2,$3,$4,$5,$6,$7,$8,$9,$2,$3,0*
0 Add four circle primitives for the rounded corners*
1,1,$1+$1,$2,$3*
1,1,$1+$1,$4,$5*
1,1,$1+$1,$6,$7*
1,1,$1+$1,$8,$9*
0 Add four rect primitives between the rounded corners*
20,1,$1+$1,$2,$3,$4,$5,0*
20,1,$1+$1,$4,$5,$6,$7,0*
20,1,$1+$1,$6,$7,$8,$9,0*
20,1,$1+$1,$8,$9,$2,$3,0*%
G04 Aperture macros list end*
%ADD10C,0.120000*%
%ADD11R,0.200000X1.100000*%
%ADD12R,1.100000X0.200000*%
%ADD13R,3.100000X3.100000*%
%ADD14RoundRect,0.135000X-0.185000X0.135000X-0.185000X-0.135000X0.185000X-0.135000X0.185000X0.135000X0*%
%ADD15R,1.000000X1.524000*%
%ADD16RoundRect,0.135000X0.135000X0.185000X-0.135000X0.185000X-0.135000X-0.185000X0.135000X-0.185000X0*%
%ADD17C,1.152000*%
%ADD18RoundRect,0.140000X-0.140000X-0.170000X0.140000X-0.170000X0.140000X0.170000X-0.140000X0.170000X0*%
%ADD19RoundRect,0.135000X0.185000X-0.135000X0.185000X0.135000X-0.185000X0.135000X-0.185000X-0.135000X0*%
%ADD20RoundRect,0.135000X-0.135000X-0.185000X0.135000X-0.185000X0.135000X0.185000X-0.135000X0.185000X0*%
%ADD21R,1.200000X1.400000*%
%ADD22R,0.280000X0.600000*%
%ADD23R,1.700000X0.300000*%
%ADD24R,0.450000X0.450000*%
%ADD25RoundRect,0.140000X-0.170000X0.140000X-0.170000X-0.140000X0.170000X-0.140000X0.170000X0.140000X0*%
%ADD26RoundRect,0.140000X0.140000X0.170000X-0.140000X0.170000X-0.140000X-0.170000X0.140000X-0.170000X0*%
G04 APERTURE END LIST*
G04 #@! TO.C,U1*
D10*
X37685000Y-30135000D02*
X37485000Y-30135000D01*
X37485000Y-29035000D01*
X37685000Y-29035000D01*
X37685000Y-30135000D01*
G36*
X37685000Y-30135000D02*
G01*
X37485000Y-30135000D01*
X37485000Y-29035000D01*
X37685000Y-29035000D01*
X37685000Y-30135000D01*
G37*
X37285000Y-30135000D02*
X37085000Y-30135000D01*
X37085000Y-29035000D01*
X37285000Y-29035000D01*
X37285000Y-30135000D01*
G36*
X37285000Y-30135000D02*
G01*
X37085000Y-30135000D01*
X37085000Y-29035000D01*
X37285000Y-29035000D01*
X37285000Y-30135000D01*
G37*
X36885000Y-30135000D02*
X36685000Y-30135000D01*
X36685000Y-29035000D01*
X36885000Y-29035000D01*
X36885000Y-30135000D01*
G36*
X36885000Y-30135000D02*
G01*
X36685000Y-30135000D01*
X36685000Y-29035000D01*
X36885000Y-29035000D01*
X36885000Y-30135000D01*
G37*
X36485000Y-30135000D02*
X36285000Y-30135000D01*
X36285000Y-29035000D01*
X36485000Y-29035000D01*
X36485000Y-30135000D01*
G36*
X36485000Y-30135000D02*
G01*
X36285000Y-30135000D01*
X36285000Y-29035000D01*
X36485000Y-29035000D01*
X36485000Y-30135000D01*
G37*
X36085000Y-30135000D02*
X35885000Y-30135000D01*
X35885000Y-29035000D01*
X36085000Y-29035000D01*
X36085000Y-30135000D01*
G36*
X36085000Y-30135000D02*
G01*
X35885000Y-30135000D01*
X35885000Y-29035000D01*
X36085000Y-29035000D01*
X36085000Y-30135000D01*
G37*
X35685000Y-30135000D02*
X35485000Y-30135000D01*
X35485000Y-29035000D01*
X35685000Y-29035000D01*
X35685000Y-30135000D01*
G36*
X35685000Y-30135000D02*
G01*
X35485000Y-30135000D01*
X35485000Y-29035000D01*
X35685000Y-29035000D01*
X35685000Y-30135000D01*
G37*
X35285000Y-30135000D02*
X35085000Y-30135000D01*
X35085000Y-29035000D01*
X35285000Y-29035000D01*
X35285000Y-30135000D01*
G36*
X35285000Y-30135000D02*
G01*
X35085000Y-30135000D01*
X35085000Y-29035000D01*
X35285000Y-29035000D01*
X35285000Y-30135000D01*
G37*
X34485000Y-30135000D02*
X34285000Y-30135000D01*
X34285000Y-29035000D01*
X34485000Y-29035000D01*
X34485000Y-30135000D01*
G36*
X34485000Y-30135000D02*
G01*
X34285000Y-30135000D01*
X34285000Y-29035000D01*
X34485000Y-29035000D01*
X34485000Y-30135000D01*
G37*
X34085000Y-30135000D02*
X33885000Y-30135000D01*
X33885000Y-29035000D01*
X34085000Y-29035000D01*
X34085000Y-30135000D01*
G36*
X34085000Y-30135000D02*
G01*
X33885000Y-30135000D01*
X33885000Y-29035000D01*
X34085000Y-29035000D01*
X34085000Y-30135000D01*
G37*
X33685000Y-30135000D02*
X33485000Y-30135000D01*
X33485000Y-29035000D01*
X33685000Y-29035000D01*
X33685000Y-30135000D01*
G36*
X33685000Y-30135000D02*
G01*
X33485000Y-30135000D01*
X33485000Y-29035000D01*
X33685000Y-29035000D01*
X33685000Y-30135000D01*
G37*
X33285000Y-30135000D02*
X33085000Y-30135000D01*
X33085000Y-29035000D01*
X33285000Y-29035000D01*
X33285000Y-30135000D01*
G36*
X33285000Y-30135000D02*
G01*
X33085000Y-30135000D01*
X33085000Y-29035000D01*
X33285000Y-29035000D01*
X33285000Y-30135000D01*
G37*
X32885000Y-30135000D02*
X32685000Y-30135000D01*
X32685000Y-29035000D01*
X32885000Y-29035000D01*
X32885000Y-30135000D01*
G36*
X32885000Y-30135000D02*
G01*
X32685000Y-30135000D01*
X32685000Y-29035000D01*
X32885000Y-29035000D01*
X32885000Y-30135000D01*
G37*
X32485000Y-30135000D02*
X32285000Y-30135000D01*
X32285000Y-29035000D01*
X32485000Y-29035000D01*
X32485000Y-30135000D01*
G36*
X32485000Y-30135000D02*
G01*
X32285000Y-30135000D01*
X32285000Y-29035000D01*
X32485000Y-29035000D01*
X32485000Y-30135000D01*
G37*
X34885000Y-30135000D02*
X34685000Y-30135000D01*
X34685000Y-29035000D01*
X34885000Y-29035000D01*
X34885000Y-30135000D01*
G36*
X34885000Y-30135000D02*
G01*
X34685000Y-30135000D01*
X34685000Y-29035000D01*
X34885000Y-29035000D01*
X34885000Y-30135000D01*
G37*
X39085000Y-30635000D02*
X37985000Y-30635000D01*
X37985000Y-30435000D01*
X39085000Y-30435000D01*
X39085000Y-30635000D01*
G36*
X39085000Y-30635000D02*
G01*
X37985000Y-30635000D01*
X37985000Y-30435000D01*
X39085000Y-30435000D01*
X39085000Y-30635000D01*
G37*
X31985000Y-30635000D02*
X30885000Y-30635000D01*
X30885000Y-30435000D01*
X31985000Y-30435000D01*
X31985000Y-30635000D01*
G36*
X31985000Y-30635000D02*
G01*
X30885000Y-30635000D01*
X30885000Y-30435000D01*
X31985000Y-30435000D01*
X31985000Y-30635000D01*
G37*
X39085000Y-31035000D02*
X37985000Y-31035000D01*
X37985000Y-30835000D01*
X39085000Y-30835000D01*
X39085000Y-31035000D01*
G36*
X39085000Y-31035000D02*
G01*
X37985000Y-31035000D01*
X37985000Y-30835000D01*
X39085000Y-30835000D01*
X39085000Y-31035000D01*
G37*
X31985000Y-31035000D02*
X30885000Y-31035000D01*
X30885000Y-30835000D01*
X31985000Y-30835000D01*
X31985000Y-31035000D01*
G36*
X31985000Y-31035000D02*
G01*
X30885000Y-31035000D01*
X30885000Y-30835000D01*
X31985000Y-30835000D01*
X31985000Y-31035000D01*
G37*
X31985000Y-31435000D02*
X30885000Y-31435000D01*
X30885000Y-31235000D01*
X31985000Y-31235000D01*
X31985000Y-31435000D01*
G36*
X31985000Y-31435000D02*
G01*
X30885000Y-31435000D01*
X30885000Y-31235000D01*
X31985000Y-31235000D01*
X31985000Y-31435000D01*
G37*
X39085000Y-31435000D02*
X37985000Y-31435000D01*
X37985000Y-31235000D01*
X39085000Y-31235000D01*
X39085000Y-31435000D01*
G36*
X39085000Y-31435000D02*
G01*
X37985000Y-31435000D01*
X37985000Y-31235000D01*
X39085000Y-31235000D01*
X39085000Y-31435000D01*
G37*
X31985000Y-31835000D02*
X30885000Y-31835000D01*
X30885000Y-31635000D01*
X31985000Y-31635000D01*
X31985000Y-31835000D01*
G36*
X31985000Y-31835000D02*
G01*
X30885000Y-31835000D01*
X30885000Y-31635000D01*
X31985000Y-31635000D01*
X31985000Y-31835000D01*
G37*
X39085000Y-31835000D02*
X37985000Y-31835000D01*
X37985000Y-31635000D01*
X39085000Y-31635000D01*
X39085000Y-31835000D01*
G36*
X39085000Y-31835000D02*
G01*
X37985000Y-31835000D01*
X37985000Y-31635000D01*
X39085000Y-31635000D01*
X39085000Y-31835000D01*
G37*
X36225000Y-34375000D02*
X33745000Y-34375000D01*
X33745000Y-31895000D01*
X36225000Y-31895000D01*
X36225000Y-34375000D01*
G36*
X36225000Y-34375000D02*
G01*
X33745000Y-34375000D01*
X33745000Y-31895000D01*
X36225000Y-31895000D01*
X36225000Y-34375000D01*
G37*
X39085000Y-32235000D02*
X37985000Y-32235000D01*
X37985000Y-32035000D01*
X39085000Y-32035000D01*
X39085000Y-32235000D01*
G36*
X39085000Y-32235000D02*
G01*
X37985000Y-32235000D01*
X37985000Y-32035000D01*
X39085000Y-32035000D01*
X39085000Y-32235000D01*
G37*
X31985000Y-32235000D02*
X30885000Y-32235000D01*
X30885000Y-32035000D01*
X31985000Y-32035000D01*
X31985000Y-32235000D01*
G36*
X31985000Y-32235000D02*
G01*
X30885000Y-32235000D01*
X30885000Y-32035000D01*
X31985000Y-32035000D01*
X31985000Y-32235000D01*
G37*
X31985000Y-32635000D02*
X30885000Y-32635000D01*
X30885000Y-32435000D01*
X31985000Y-32435000D01*
X31985000Y-32635000D01*
G36*
X31985000Y-32635000D02*
G01*
X30885000Y-32635000D01*
X30885000Y-32435000D01*
X31985000Y-32435000D01*
X31985000Y-32635000D01*
G37*
X39085000Y-32635000D02*
X37985000Y-32635000D01*
X37985000Y-32435000D01*
X39085000Y-32435000D01*
X39085000Y-32635000D01*
G36*
X39085000Y-32635000D02*
G01*
X37985000Y-32635000D01*
X37985000Y-32435000D01*
X39085000Y-32435000D01*
X39085000Y-32635000D01*
G37*
X31985000Y-33035000D02*
X30885000Y-33035000D01*
X30885000Y-32835000D01*
X31985000Y-32835000D01*
X31985000Y-33035000D01*
G36*
X31985000Y-33035000D02*
G01*
X30885000Y-33035000D01*
X30885000Y-32835000D01*
X31985000Y-32835000D01*
X31985000Y-33035000D01*
G37*
X39085000Y-33035000D02*
X37985000Y-33035000D01*
X37985000Y-32835000D01*
X39085000Y-32835000D01*
X39085000Y-33035000D01*
G36*
X39085000Y-33035000D02*
G01*
X37985000Y-33035000D01*
X37985000Y-32835000D01*
X39085000Y-32835000D01*
X39085000Y-33035000D01*
G37*
X39085000Y-33435000D02*
X37985000Y-33435000D01*
X37985000Y-33235000D01*
X39085000Y-33235000D01*
X39085000Y-33435000D01*
G36*
X39085000Y-33435000D02*
G01*
X37985000Y-33435000D01*
X37985000Y-33235000D01*
X39085000Y-33235000D01*
X39085000Y-33435000D01*
G37*
X31985000Y-33435000D02*
X30885000Y-33435000D01*
X30885000Y-33235000D01*
X31985000Y-33235000D01*
X31985000Y-33435000D01*
G36*
X31985000Y-33435000D02*
G01*
X30885000Y-33435000D01*
X30885000Y-33235000D01*
X31985000Y-33235000D01*
X31985000Y-33435000D01*
G37*
X39085000Y-33835000D02*
X37985000Y-33835000D01*
X37985000Y-33635000D01*
X39085000Y-33635000D01*
X39085000Y-33835000D01*
G36*
X39085000Y-33835000D02*
G01*
X37985000Y-33835000D01*
X37985000Y-33635000D01*
X39085000Y-33635000D01*
X39085000Y-33835000D01*
G37*
X31985000Y-33835000D02*
X30885000Y-33835000D01*
X30885000Y-33635000D01*
X31985000Y-33635000D01*
X31985000Y-33835000D01*
G36*
X31985000Y-33835000D02*
G01*
X30885000Y-33835000D01*
X30885000Y-33635000D01*
X31985000Y-33635000D01*
X31985000Y-33835000D01*
G37*
X31985000Y-34235000D02*
X30885000Y-34235000D01*
X30885000Y-34035000D01*
X31985000Y-34035000D01*
X31985000Y-34235000D01*
G36*
X31985000Y-34235000D02*
G01*
X30885000Y-34235000D01*
X30885000Y-34035000D01*
X31985000Y-34035000D01*
X31985000Y-34235000D01*
G37*
X39085000Y-34235000D02*
X37985000Y-34235000D01*
X37985000Y-34035000D01*
X39085000Y-34035000D01*
X39085000Y-34235000D01*
G36*
X39085000Y-34235000D02*
G01*
X37985000Y-34235000D01*
X37985000Y-34035000D01*
X39085000Y-34035000D01*
X39085000Y-34235000D01*
G37*
X31985000Y-34635000D02*
X30885000Y-34635000D01*
X30885000Y-34435000D01*
X31985000Y-34435000D01*
X31985000Y-34635000D01*
G36*
X31985000Y-34635000D02*
G01*
X30885000Y-34635000D01*
X30885000Y-34435000D01*
X31985000Y-34435000D01*
X31985000Y-34635000D01*
G37*
X39085000Y-34635000D02*
X37985000Y-34635000D01*
X37985000Y-34435000D01*
X39085000Y-34435000D01*
X39085000Y-34635000D01*
G36*
X39085000Y-34635000D02*
G01*
X37985000Y-34635000D01*
X37985000Y-34435000D01*
X39085000Y-34435000D01*
X39085000Y-34635000D01*
G37*
X31985000Y-35035000D02*
X30885000Y-35035000D01*
X30885000Y-34835000D01*
X31985000Y-34835000D01*
X31985000Y-35035000D01*
G36*
X31985000Y-35035000D02*
G01*
X30885000Y-35035000D01*
X30885000Y-34835000D01*
X31985000Y-34835000D01*
X31985000Y-35035000D01*
G37*
X39085000Y-35035000D02*
X37985000Y-35035000D01*
X37985000Y-34835000D01*
X39085000Y-34835000D01*
X39085000Y-35035000D01*
G36*
X39085000Y-35035000D02*
G01*
X37985000Y-35035000D01*
X37985000Y-34835000D01*
X39085000Y-34835000D01*
X39085000Y-35035000D01*
G37*
X39085000Y-35435000D02*
X37985000Y-35435000D01*
X37985000Y-35235000D01*
X39085000Y-35235000D01*
X39085000Y-35435000D01*
G36*
X39085000Y-35435000D02*
G01*
X37985000Y-35435000D01*
X37985000Y-35235000D01*
X39085000Y-35235000D01*
X39085000Y-35435000D01*
G37*
X31985000Y-35435000D02*
X30885000Y-35435000D01*
X30885000Y-35235000D01*
X31985000Y-35235000D01*
X31985000Y-35435000D01*
G36*
X31985000Y-35435000D02*
G01*
X30885000Y-35435000D01*
X30885000Y-35235000D01*
X31985000Y-35235000D01*
X31985000Y-35435000D01*
G37*
X39085000Y-35835000D02*
X37985000Y-35835000D01*
X37985000Y-35635000D01*
X39085000Y-35635000D01*
X39085000Y-35835000D01*
G36*
X39085000Y-35835000D02*
G01*
X37985000Y-35835000D01*
X37985000Y-35635000D01*
X39085000Y-35635000D01*
X39085000Y-35835000D01*
G37*
X31985000Y-35835000D02*
X30885000Y-35835000D01*
X30885000Y-35635000D01*
X31985000Y-35635000D01*
X31985000Y-35835000D01*
G36*
X31985000Y-35835000D02*
G01*
X30885000Y-35835000D01*
X30885000Y-35635000D01*
X31985000Y-35635000D01*
X31985000Y-35835000D01*
G37*
X35285000Y-37235000D02*
X35085000Y-37235000D01*
X35085000Y-36135000D01*
X35285000Y-36135000D01*
X35285000Y-37235000D01*
G36*
X35285000Y-37235000D02*
G01*
X35085000Y-37235000D01*
X35085000Y-36135000D01*
X35285000Y-36135000D01*
X35285000Y-37235000D01*
G37*
X32485000Y-37235000D02*
X32285000Y-37235000D01*
X32285000Y-36135000D01*
X32485000Y-36135000D01*
X32485000Y-37235000D01*
G36*
X32485000Y-37235000D02*
G01*
X32285000Y-37235000D01*
X32285000Y-36135000D01*
X32485000Y-36135000D01*
X32485000Y-37235000D01*
G37*
X37685000Y-37235000D02*
X37485000Y-37235000D01*
X37485000Y-36135000D01*
X37685000Y-36135000D01*
X37685000Y-37235000D01*
G36*
X37685000Y-37235000D02*
G01*
X37485000Y-37235000D01*
X37485000Y-36135000D01*
X37685000Y-36135000D01*
X37685000Y-37235000D01*
G37*
X37285000Y-37235000D02*
X37085000Y-37235000D01*
X37085000Y-36135000D01*
X37285000Y-36135000D01*
X37285000Y-37235000D01*
G36*
X37285000Y-37235000D02*
G01*
X37085000Y-37235000D01*
X37085000Y-36135000D01*
X37285000Y-36135000D01*
X37285000Y-37235000D01*
G37*
X36885000Y-37235000D02*
X36685000Y-37235000D01*
X36685000Y-36135000D01*
X36885000Y-36135000D01*
X36885000Y-37235000D01*
G36*
X36885000Y-37235000D02*
G01*
X36685000Y-37235000D01*
X36685000Y-36135000D01*
X36885000Y-36135000D01*
X36885000Y-37235000D01*
G37*
X36485000Y-37235000D02*
X36285000Y-37235000D01*
X36285000Y-36135000D01*
X36485000Y-36135000D01*
X36485000Y-37235000D01*
G36*
X36485000Y-37235000D02*
G01*
X36285000Y-37235000D01*
X36285000Y-36135000D01*
X36485000Y-36135000D01*
X36485000Y-37235000D01*
G37*
X36085000Y-37235000D02*
X35885000Y-37235000D01*
X35885000Y-36135000D01*
X36085000Y-36135000D01*
X36085000Y-37235000D01*
G36*
X36085000Y-37235000D02*
G01*
X35885000Y-37235000D01*
X35885000Y-36135000D01*
X36085000Y-36135000D01*
X36085000Y-37235000D01*
G37*
X35685000Y-37235000D02*
X35485000Y-37235000D01*
X35485000Y-36135000D01*
X35685000Y-36135000D01*
X35685000Y-37235000D01*
G36*
X35685000Y-37235000D02*
G01*
X35485000Y-37235000D01*
X35485000Y-36135000D01*
X35685000Y-36135000D01*
X35685000Y-37235000D01*
G37*
X34885000Y-37235000D02*
X34685000Y-37235000D01*
X34685000Y-36135000D01*
X34885000Y-36135000D01*
X34885000Y-37235000D01*
G36*
X34885000Y-37235000D02*
G01*
X34685000Y-37235000D01*
X34685000Y-36135000D01*
X34885000Y-36135000D01*
X34885000Y-37235000D01*
G37*
X34485000Y-37235000D02*
X34285000Y-37235000D01*
X34285000Y-36135000D01*
X34485000Y-36135000D01*
X34485000Y-37235000D01*
G36*
X34485000Y-37235000D02*
G01*
X34285000Y-37235000D01*
X34285000Y-36135000D01*
X34485000Y-36135000D01*
X34485000Y-37235000D01*
G37*
X34085000Y-37235000D02*
X33885000Y-37235000D01*
X33885000Y-36135000D01*
X34085000Y-36135000D01*
X34085000Y-37235000D01*
G36*
X34085000Y-37235000D02*
G01*
X33885000Y-37235000D01*
X33885000Y-36135000D01*
X34085000Y-36135000D01*
X34085000Y-37235000D01*
G37*
X33685000Y-37235000D02*
X33485000Y-37235000D01*
X33485000Y-36135000D01*
X33685000Y-36135000D01*
X33685000Y-37235000D01*
G36*
X33685000Y-37235000D02*
G01*
X33485000Y-37235000D01*
X33485000Y-36135000D01*
X33685000Y-36135000D01*
X33685000Y-37235000D01*
G37*
X33285000Y-37235000D02*
X33085000Y-37235000D01*
X33085000Y-36135000D01*
X33285000Y-36135000D01*
X33285000Y-37235000D01*
G36*
X33285000Y-37235000D02*
G01*
X33085000Y-37235000D01*
X33085000Y-36135000D01*
X33285000Y-36135000D01*
X33285000Y-37235000D01*
G37*
X32885000Y-37235000D02*
X32685000Y-37235000D01*
X32685000Y-36135000D01*
X32885000Y-36135000D01*
X32885000Y-37235000D01*
G36*
X32885000Y-37235000D02*
G01*
X32685000Y-37235000D01*
X32685000Y-36135000D01*
X32885000Y-36135000D01*
X32885000Y-37235000D01*
G37*
X17085000Y-14575000D02*
X16885000Y-14575000D01*
X16885000Y-13475000D01*
X17085000Y-13475000D01*
X17085000Y-14575000D01*
G36*
X17085000Y-14575000D02*
G01*
X16885000Y-14575000D01*
X16885000Y-13475000D01*
X17085000Y-13475000D01*
X17085000Y-14575000D01*
G37*
X16685000Y-14575000D02*
X16485000Y-14575000D01*
X16485000Y-13475000D01*
X16685000Y-13475000D01*
X16685000Y-14575000D01*
G36*
X16685000Y-14575000D02*
G01*
X16485000Y-14575000D01*
X16485000Y-13475000D01*
X16685000Y-13475000D01*
X16685000Y-14575000D01*
G37*
X16285000Y-14575000D02*
X16085000Y-14575000D01*
X16085000Y-13475000D01*
X16285000Y-13475000D01*
X16285000Y-14575000D01*
G36*
X16285000Y-14575000D02*
G01*
X16085000Y-14575000D01*
X16085000Y-13475000D01*
X16285000Y-13475000D01*
X16285000Y-14575000D01*
G37*
X15885000Y-14575000D02*
X15685000Y-14575000D01*
X15685000Y-13475000D01*
X15885000Y-13475000D01*
X15885000Y-14575000D01*
G36*
X15885000Y-14575000D02*
G01*
X15685000Y-14575000D01*
X15685000Y-13475000D01*
X15885000Y-13475000D01*
X15885000Y-14575000D01*
G37*
X15485000Y-14575000D02*
X15285000Y-14575000D01*
X15285000Y-13475000D01*
X15485000Y-13475000D01*
X15485000Y-14575000D01*
G36*
X15485000Y-14575000D02*
G01*
X15285000Y-14575000D01*
X15285000Y-13475000D01*
X15485000Y-13475000D01*
X15485000Y-14575000D01*
G37*
X15085000Y-14575000D02*
X14885000Y-14575000D01*
X14885000Y-13475000D01*
X15085000Y-13475000D01*
X15085000Y-14575000D01*
G36*
X15085000Y-14575000D02*
G01*
X14885000Y-14575000D01*
X14885000Y-13475000D01*
X15085000Y-13475000D01*
X15085000Y-14575000D01*
G37*
X14685000Y-14575000D02*
X14485000Y-14575000D01*
X14485000Y-13475000D01*
X14685000Y-13475000D01*
X14685000Y-14575000D01*
G36*
X14685000Y-14575000D02*
G01*
X14485000Y-14575000D01*
X14485000Y-13475000D01*
X14685000Y-13475000D01*
X14685000Y-14575000D01*
G37*
X13885000Y-14575000D02*
X13685000Y-14575000D01*
X13685000Y-13475000D01*
X13885000Y-13475000D01*
X13885000Y-14575000D01*
G36*
X13885000Y-14575000D02*
G01*
X13685000Y-14575000D01*
X13685000Y-13475000D01*
X13885000Y-13475000D01*
X13885000Y-14575000D01*
G37*
X13485000Y-14575000D02*
X13285000Y-14575000D01*
X13285000Y-13475000D01*
X13485000Y-13475000D01*
X13485000Y-14575000D01*
G36*
X13485000Y-14575000D02*
G01*
X13285000Y-14575000D01*
X13285000Y-13475000D01*
X13485000Y-13475000D01*
X13485000Y-14575000D01*
G37*
X13085000Y-14575000D02*
X12885000Y-14575000D01*
X12885000Y-13475000D01*
X13085000Y-13475000D01*
X13085000Y-14575000D01*
G36*
X13085000Y-14575000D02*
G01*
X12885000Y-14575000D01*
X12885000Y-13475000D01*
X13085000Y-13475000D01*
X13085000Y-14575000D01*
G37*
X12685000Y-14575000D02*
X12485000Y-14575000D01*
X12485000Y-13475000D01*
X12685000Y-13475000D01*
X12685000Y-14575000D01*
G36*
X12685000Y-14575000D02*
G01*
X12485000Y-14575000D01*
X12485000Y-13475000D01*
X12685000Y-13475000D01*
X12685000Y-14575000D01*
G37*
X12285000Y-14575000D02*
X12085000Y-14575000D01*
X12085000Y-13475000D01*
X12285000Y-13475000D01*
X12285000Y-14575000D01*
G36*
X12285000Y-14575000D02*
G01*
X12085000Y-14575000D01*
X12085000Y-13475000D01*
X12285000Y-13475000D01*
X12285000Y-14575000D01*
G37*
X11885000Y-14575000D02*
X11685000Y-14575000D01*
X11685000Y-13475000D01*
X11885000Y-13475000D01*
X11885000Y-14575000D01*
G36*
X11885000Y-14575000D02*
G01*
X11685000Y-14575000D01*
X11685000Y-13475000D01*
X11885000Y-13475000D01*
X11885000Y-14575000D01*
G37*
X14285000Y-14575000D02*
X14085000Y-14575000D01*
X14085000Y-13475000D01*
X14285000Y-13475000D01*
X14285000Y-14575000D01*
G36*
X14285000Y-14575000D02*
G01*
X14085000Y-14575000D01*
X14085000Y-13475000D01*
X14285000Y-13475000D01*
X14285000Y-14575000D01*
G37*
X18485000Y-15075000D02*
X17385000Y-15075000D01*
X17385000Y-14875000D01*
X18485000Y-14875000D01*
X18485000Y-15075000D01*
G36*
X18485000Y-15075000D02*
G01*
X17385000Y-15075000D01*
X17385000Y-14875000D01*
X18485000Y-14875000D01*
X18485000Y-15075000D01*
G37*
X11385000Y-15075000D02*
X10285000Y-15075000D01*
X10285000Y-14875000D01*
X11385000Y-14875000D01*
X11385000Y-15075000D01*
G36*
X11385000Y-15075000D02*
G01*
X10285000Y-15075000D01*
X10285000Y-14875000D01*
X11385000Y-14875000D01*
X11385000Y-15075000D01*
G37*
X18485000Y-15475000D02*
X17385000Y-15475000D01*
X17385000Y-15275000D01*
X18485000Y-15275000D01*
X18485000Y-15475000D01*
G36*
X18485000Y-15475000D02*
G01*
X17385000Y-15475000D01*
X17385000Y-15275000D01*
X18485000Y-15275000D01*
X18485000Y-15475000D01*
G37*
X11385000Y-15475000D02*
X10285000Y-15475000D01*
X10285000Y-15275000D01*
X11385000Y-15275000D01*
X11385000Y-15475000D01*
G36*
X11385000Y-15475000D02*
G01*
X10285000Y-15475000D01*
X10285000Y-15275000D01*
X11385000Y-15275000D01*
X11385000Y-15475000D01*
G37*
X11385000Y-15875000D02*
X10285000Y-15875000D01*
X10285000Y-15675000D01*
X11385000Y-15675000D01*
X11385000Y-15875000D01*
G36*
X11385000Y-15875000D02*
G01*
X10285000Y-15875000D01*
X10285000Y-15675000D01*
X11385000Y-15675000D01*
X11385000Y-15875000D01*
G37*
X18485000Y-15875000D02*
X17385000Y-15875000D01*
X17385000Y-15675000D01*
X18485000Y-15675000D01*
X18485000Y-15875000D01*
G36*
X18485000Y-15875000D02*
G01*
X17385000Y-15875000D01*
X17385000Y-15675000D01*
X18485000Y-15675000D01*
X18485000Y-15875000D01*
G37*
X11385000Y-16275000D02*
X10285000Y-16275000D01*
X10285000Y-16075000D01*
X11385000Y-16075000D01*
X11385000Y-16275000D01*
G36*
X11385000Y-16275000D02*
G01*
X10285000Y-16275000D01*
X10285000Y-16075000D01*
X11385000Y-16075000D01*
X11385000Y-16275000D01*
G37*
X18485000Y-16275000D02*
X17385000Y-16275000D01*
X17385000Y-16075000D01*
X18485000Y-16075000D01*
X18485000Y-16275000D01*
G36*
X18485000Y-16275000D02*
G01*
X17385000Y-16275000D01*
X17385000Y-16075000D01*
X18485000Y-16075000D01*
X18485000Y-16275000D01*
G37*
X15625000Y-18815000D02*
X13145000Y-18815000D01*
X13145000Y-16335000D01*
X15625000Y-16335000D01*
X15625000Y-18815000D01*
G36*
X15625000Y-18815000D02*
G01*
X13145000Y-18815000D01*
X13145000Y-16335000D01*
X15625000Y-16335000D01*
X15625000Y-18815000D01*
G37*
X18485000Y-16675000D02*
X17385000Y-16675000D01*
X17385000Y-16475000D01*
X18485000Y-16475000D01*
X18485000Y-16675000D01*
G36*
X18485000Y-16675000D02*
G01*
X17385000Y-16675000D01*
X17385000Y-16475000D01*
X18485000Y-16475000D01*
X18485000Y-16675000D01*
G37*
X11385000Y-16675000D02*
X10285000Y-16675000D01*
X10285000Y-16475000D01*
X11385000Y-16475000D01*
X11385000Y-16675000D01*
G36*
X11385000Y-16675000D02*
G01*
X10285000Y-16675000D01*
X10285000Y-16475000D01*
X11385000Y-16475000D01*
X11385000Y-16675000D01*
G37*
X11385000Y-17075000D02*
X10285000Y-17075000D01*
X10285000Y-16875000D01*
X11385000Y-16875000D01*
X11385000Y-17075000D01*
G36*
X11385000Y-17075000D02*
G01*
X10285000Y-17075000D01*
X10285000Y-16875000D01*
X11385000Y-16875000D01*
X11385000Y-17075000D01*
G37*
X18485000Y-17075000D02*
X17385000Y-17075000D01*
X17385000Y-16875000D01*
X18485000Y-16875000D01*
X18485000Y-17075000D01*
G36*
X18485000Y-17075000D02*
G01*
X17385000Y-17075000D01*
X17385000Y-16875000D01*
X18485000Y-16875000D01*
X18485000Y-17075000D01*
G37*
X11385000Y-17475000D02*
X10285000Y-17475000D01*
X10285000Y-17275000D01*
X11385000Y-17275000D01*
X11385000Y-17475000D01*
G36*
X11385000Y-17475000D02*
G01*
X10285000Y-17475000D01*
X10285000Y-17275000D01*
X11385000Y-17275000D01*
X11385000Y-17475000D01*
G37*
X18485000Y-17475000D02*
X17385000Y-17475000D01*
X17385000Y-17275000D01*
X18485000Y-17275000D01*
X18485000Y-17475000D01*
G36*
X18485000Y-17475000D02*
G01*
X17385000Y-17475000D01*
X17385000Y-17275000D01*
X18485000Y-17275000D01*
X18485000Y-17475000D01*
G37*
X18485000Y-17875000D02*
X17385000Y-17875000D01*
X17385000Y-17675000D01*
X18485000Y-17675000D01*
X18485000Y-17875000D01*
G36*
X18485000Y-17875000D02*
G01*
X17385000Y-17875000D01*
X17385000Y-17675000D01*
X18485000Y-17675000D01*
X18485000Y-17875000D01*
G37*
X11385000Y-17875000D02*
X10285000Y-17875000D01*
X10285000Y-17675000D01*
X11385000Y-17675000D01*
X11385000Y-17875000D01*
G36*
X11385000Y-17875000D02*
G01*
X10285000Y-17875000D01*
X10285000Y-17675000D01*
X11385000Y-17675000D01*
X11385000Y-17875000D01*
G37*
X18485000Y-18275000D02*
X17385000Y-18275000D01*
X17385000Y-18075000D01*
X18485000Y-18075000D01*
X18485000Y-18275000D01*
G36*
X18485000Y-18275000D02*
G01*
X17385000Y-18275000D01*
X17385000Y-18075000D01*
X18485000Y-18075000D01*
X18485000Y-18275000D01*
G37*
X11385000Y-18275000D02*
X10285000Y-18275000D01*
X10285000Y-18075000D01*
X11385000Y-18075000D01*
X11385000Y-18275000D01*
G36*
X11385000Y-18275000D02*
G01*
X10285000Y-18275000D01*
X10285000Y-18075000D01*
X11385000Y-18075000D01*
X11385000Y-18275000D01*
G37*
X11385000Y-18675000D02*
X10285000Y-18675000D01*
X10285000Y-18475000D01*
X11385000Y-18475000D01*
X11385000Y-18675000D01*
G36*
X11385000Y-18675000D02*
G01*
X10285000Y-18675000D01*
X10285000Y-18475000D01*
X11385000Y-18475000D01*
X11385000Y-18675000D01*
G37*
X18485000Y-18675000D02*
X17385000Y-18675000D01*
X17385000Y-18475000D01*
X18485000Y-18475000D01*
X18485000Y-18675000D01*
G36*
X18485000Y-18675000D02*
G01*
X17385000Y-18675000D01*
X17385000Y-18475000D01*
X18485000Y-18475000D01*
X18485000Y-18675000D01*
G37*
X11385000Y-19075000D02*
X10285000Y-19075000D01*
X10285000Y-18875000D01*
X11385000Y-18875000D01*
X11385000Y-19075000D01*
G36*
X11385000Y-19075000D02*
G01*
X10285000Y-19075000D01*
X10285000Y-18875000D01*
X11385000Y-18875000D01*
X11385000Y-19075000D01*
G37*
X18485000Y-19075000D02*
X17385000Y-19075000D01*
X17385000Y-18875000D01*
X18485000Y-18875000D01*
X18485000Y-19075000D01*
G36*
X18485000Y-19075000D02*
G01*
X17385000Y-19075000D01*
X17385000Y-18875000D01*
X18485000Y-18875000D01*
X18485000Y-19075000D01*
G37*
X11385000Y-19475000D02*
X10285000Y-19475000D01*
X10285000Y-19275000D01*
X11385000Y-19275000D01*
X11385000Y-19475000D01*
G36*
X11385000Y-19475000D02*
G01*
X10285000Y-19475000D01*
X10285000Y-19275000D01*
X11385000Y-19275000D01*
X11385000Y-19475000D01*
G37*
X18485000Y-19475000D02*
X17385000Y-19475000D01*
X17385000Y-19275000D01*
X18485000Y-19275000D01*
X18485000Y-19475000D01*
G36*
X18485000Y-19475000D02*
G01*
X17385000Y-19475000D01*
X17385000Y-19275000D01*
X18485000Y-19275000D01*
X18485000Y-19475000D01*
G37*
X18485000Y-19875000D02*
X17385000Y-19875000D01*
X17385000Y-19675000D01*
X18485000Y-19675000D01*
X18485000Y-19875000D01*
G36*
X18485000Y-19875000D02*
G01*
X17385000Y-19875000D01*
X17385000Y-19675000D01*
X18485000Y-19675000D01*
X18485000Y-19875000D01*
G37*
X11385000Y-19875000D02*
X10285000Y-19875000D01*
X10285000Y-19675000D01*
X11385000Y-19675000D01*
X11385000Y-19875000D01*
G36*
X11385000Y-19875000D02*
G01*
X10285000Y-19875000D01*
X10285000Y-19675000D01*
X11385000Y-19675000D01*
X11385000Y-19875000D01*
G37*
X18485000Y-20275000D02*
X17385000Y-20275000D01*
X17385000Y-20075000D01*
X18485000Y-20075000D01*
X18485000Y-20275000D01*
G36*
X18485000Y-20275000D02*
G01*
X17385000Y-20275000D01*
X17385000Y-20075000D01*
X18485000Y-20075000D01*
X18485000Y-20275000D01*
G37*
X11385000Y-20275000D02*
X10285000Y-20275000D01*
X10285000Y-20075000D01*
X11385000Y-20075000D01*
X11385000Y-20275000D01*
G36*
X11385000Y-20275000D02*
G01*
X10285000Y-20275000D01*
X10285000Y-20075000D01*
X11385000Y-20075000D01*
X11385000Y-20275000D01*
G37*
X14685000Y-21675000D02*
X14485000Y-21675000D01*
X14485000Y-20575000D01*
X14685000Y-20575000D01*
X14685000Y-21675000D01*
G36*
X14685000Y-21675000D02*
G01*
X14485000Y-21675000D01*
X14485000Y-20575000D01*
X14685000Y-20575000D01*
X14685000Y-21675000D01*
G37*
X11885000Y-21675000D02*
X11685000Y-21675000D01*
X11685000Y-20575000D01*
X11885000Y-20575000D01*
X11885000Y-21675000D01*
G36*
X11885000Y-21675000D02*
G01*
X11685000Y-21675000D01*
X11685000Y-20575000D01*
X11885000Y-20575000D01*
X11885000Y-21675000D01*
G37*
X17085000Y-21675000D02*
X16885000Y-21675000D01*
X16885000Y-20575000D01*
X17085000Y-20575000D01*
X17085000Y-21675000D01*
G36*
X17085000Y-21675000D02*
G01*
X16885000Y-21675000D01*
X16885000Y-20575000D01*
X17085000Y-20575000D01*
X17085000Y-21675000D01*
G37*
X16685000Y-21675000D02*
X16485000Y-21675000D01*
X16485000Y-20575000D01*
X16685000Y-20575000D01*
X16685000Y-21675000D01*
G36*
X16685000Y-21675000D02*
G01*
X16485000Y-21675000D01*
X16485000Y-20575000D01*
X16685000Y-20575000D01*
X16685000Y-21675000D01*
G37*
X16285000Y-21675000D02*
X16085000Y-21675000D01*
X16085000Y-20575000D01*
X16285000Y-20575000D01*
X16285000Y-21675000D01*
G36*
X16285000Y-21675000D02*
G01*
X16085000Y-21675000D01*
X16085000Y-20575000D01*
X16285000Y-20575000D01*
X16285000Y-21675000D01*
G37*
X15885000Y-21675000D02*
X15685000Y-21675000D01*
X15685000Y-20575000D01*
X15885000Y-20575000D01*
X15885000Y-21675000D01*
G36*
X15885000Y-21675000D02*
G01*
X15685000Y-21675000D01*
X15685000Y-20575000D01*
X15885000Y-20575000D01*
X15885000Y-21675000D01*
G37*
X15485000Y-21675000D02*
X15285000Y-21675000D01*
X15285000Y-20575000D01*
X15485000Y-20575000D01*
X15485000Y-21675000D01*
G36*
X15485000Y-21675000D02*
G01*
X15285000Y-21675000D01*
X15285000Y-20575000D01*
X15485000Y-20575000D01*
X15485000Y-21675000D01*
G37*
X15085000Y-21675000D02*
X14885000Y-21675000D01*
X14885000Y-20575000D01*
X15085000Y-20575000D01*
X15085000Y-21675000D01*
G36*
X15085000Y-21675000D02*
G01*
X14885000Y-21675000D01*
X14885000Y-20575000D01*
X15085000Y-20575000D01*
X15085000Y-21675000D01*
G37*
X14285000Y-21675000D02*
X14085000Y-21675000D01*
X14085000Y-20575000D01*
X14285000Y-20575000D01*
X14285000Y-21675000D01*
G36*
X14285000Y-21675000D02*
G01*
X14085000Y-21675000D01*
X14085000Y-20575000D01*
X14285000Y-20575000D01*
X14285000Y-21675000D01*
G37*
X13885000Y-21675000D02*
X13685000Y-21675000D01*
X13685000Y-20575000D01*
X13885000Y-20575000D01*
X13885000Y-21675000D01*
G36*
X13885000Y-21675000D02*
G01*
X13685000Y-21675000D01*
X13685000Y-20575000D01*
X13885000Y-20575000D01*
X13885000Y-21675000D01*
G37*
X13485000Y-21675000D02*
X13285000Y-21675000D01*
X13285000Y-20575000D01*
X13485000Y-20575000D01*
X13485000Y-21675000D01*
G36*
X13485000Y-21675000D02*
G01*
X13285000Y-21675000D01*
X13285000Y-20575000D01*
X13485000Y-20575000D01*
X13485000Y-21675000D01*
G37*
X13085000Y-21675000D02*
X12885000Y-21675000D01*
X12885000Y-20575000D01*
X13085000Y-20575000D01*
X13085000Y-21675000D01*
G36*
X13085000Y-21675000D02*
G01*
X12885000Y-21675000D01*
X12885000Y-20575000D01*
X13085000Y-20575000D01*
X13085000Y-21675000D01*
G37*
X12685000Y-21675000D02*
X12485000Y-21675000D01*
X12485000Y-20575000D01*
X12685000Y-20575000D01*
X12685000Y-21675000D01*
G36*
X12685000Y-21675000D02*
G01*
X12485000Y-21675000D01*
X12485000Y-20575000D01*
X12685000Y-20575000D01*
X12685000Y-21675000D01*
G37*
X12285000Y-21675000D02*
X12085000Y-21675000D01*
X12085000Y-20575000D01*
X12285000Y-20575000D01*
X12285000Y-21675000D01*
G36*
X12285000Y-21675000D02*
G01*
X12085000Y-21675000D01*
X12085000Y-20575000D01*
X12285000Y-20575000D01*
X12285000Y-21675000D01*
G37*
X58285000Y-30135000D02*
X58085000Y-30135000D01*
X58085000Y-29035000D01*
X58285000Y-29035000D01*
X58285000Y-30135000D01*
G36*
X58285000Y-30135000D02*
G01*
X58085000Y-30135000D01*
X58085000Y-29035000D01*
X58285000Y-29035000D01*
X58285000Y-30135000D01*
G37*
X57885000Y-30135000D02*
X57685000Y-30135000D01*
X57685000Y-29035000D01*
X57885000Y-29035000D01*
X57885000Y-30135000D01*
G36*
X57885000Y-30135000D02*
G01*
X57685000Y-30135000D01*
X57685000Y-29035000D01*
X57885000Y-29035000D01*
X57885000Y-30135000D01*
G37*
X57485000Y-30135000D02*
X57285000Y-30135000D01*
X57285000Y-29035000D01*
X57485000Y-29035000D01*
X57485000Y-30135000D01*
G36*
X57485000Y-30135000D02*
G01*
X57285000Y-30135000D01*
X57285000Y-29035000D01*
X57485000Y-29035000D01*
X57485000Y-30135000D01*
G37*
X57085000Y-30135000D02*
X56885000Y-30135000D01*
X56885000Y-29035000D01*
X57085000Y-29035000D01*
X57085000Y-30135000D01*
G36*
X57085000Y-30135000D02*
G01*
X56885000Y-30135000D01*
X56885000Y-29035000D01*
X57085000Y-29035000D01*
X57085000Y-30135000D01*
G37*
X56685000Y-30135000D02*
X56485000Y-30135000D01*
X56485000Y-29035000D01*
X56685000Y-29035000D01*
X56685000Y-30135000D01*
G36*
X56685000Y-30135000D02*
G01*
X56485000Y-30135000D01*
X56485000Y-29035000D01*
X56685000Y-29035000D01*
X56685000Y-30135000D01*
G37*
X56285000Y-30135000D02*
X56085000Y-30135000D01*
X56085000Y-29035000D01*
X56285000Y-29035000D01*
X56285000Y-30135000D01*
G36*
X56285000Y-30135000D02*
G01*
X56085000Y-30135000D01*
X56085000Y-29035000D01*
X56285000Y-29035000D01*
X56285000Y-30135000D01*
G37*
X55885000Y-30135000D02*
X55685000Y-30135000D01*
X55685000Y-29035000D01*
X55885000Y-29035000D01*
X55885000Y-30135000D01*
G36*
X55885000Y-30135000D02*
G01*
X55685000Y-30135000D01*
X55685000Y-29035000D01*
X55885000Y-29035000D01*
X55885000Y-30135000D01*
G37*
X55085000Y-30135000D02*
X54885000Y-30135000D01*
X54885000Y-29035000D01*
X55085000Y-29035000D01*
X55085000Y-30135000D01*
G36*
X55085000Y-30135000D02*
G01*
X54885000Y-30135000D01*
X54885000Y-29035000D01*
X55085000Y-29035000D01*
X55085000Y-30135000D01*
G37*
X54685000Y-30135000D02*
X54485000Y-30135000D01*
X54485000Y-29035000D01*
X54685000Y-29035000D01*
X54685000Y-30135000D01*
G36*
X54685000Y-30135000D02*
G01*
X54485000Y-30135000D01*
X54485000Y-29035000D01*
X54685000Y-29035000D01*
X54685000Y-30135000D01*
G37*
X54285000Y-30135000D02*
X54085000Y-30135000D01*
X54085000Y-29035000D01*
X54285000Y-29035000D01*
X54285000Y-30135000D01*
G36*
X54285000Y-30135000D02*
G01*
X54085000Y-30135000D01*
X54085000Y-29035000D01*
X54285000Y-29035000D01*
X54285000Y-30135000D01*
G37*
X53885000Y-30135000D02*
X53685000Y-30135000D01*
X53685000Y-29035000D01*
X53885000Y-29035000D01*
X53885000Y-30135000D01*
G36*
X53885000Y-30135000D02*
G01*
X53685000Y-30135000D01*
X53685000Y-29035000D01*
X53885000Y-29035000D01*
X53885000Y-30135000D01*
G37*
X53485000Y-30135000D02*
X53285000Y-30135000D01*
X53285000Y-29035000D01*
X53485000Y-29035000D01*
X53485000Y-30135000D01*
G36*
X53485000Y-30135000D02*
G01*
X53285000Y-30135000D01*
X53285000Y-29035000D01*
X53485000Y-29035000D01*
X53485000Y-30135000D01*
G37*
X53085000Y-30135000D02*
X52885000Y-30135000D01*
X52885000Y-29035000D01*
X53085000Y-29035000D01*
X53085000Y-30135000D01*
G36*
X53085000Y-30135000D02*
G01*
X52885000Y-30135000D01*
X52885000Y-29035000D01*
X53085000Y-29035000D01*
X53085000Y-30135000D01*
G37*
X55485000Y-30135000D02*
X55285000Y-30135000D01*
X55285000Y-29035000D01*
X55485000Y-29035000D01*
X55485000Y-30135000D01*
G36*
X55485000Y-30135000D02*
G01*
X55285000Y-30135000D01*
X55285000Y-29035000D01*
X55485000Y-29035000D01*
X55485000Y-30135000D01*
G37*
X59685000Y-30635000D02*
X58585000Y-30635000D01*
X58585000Y-30435000D01*
X59685000Y-30435000D01*
X59685000Y-30635000D01*
G36*
X59685000Y-30635000D02*
G01*
X58585000Y-30635000D01*
X58585000Y-30435000D01*
X59685000Y-30435000D01*
X59685000Y-30635000D01*
G37*
X52585000Y-30635000D02*
X51485000Y-30635000D01*
X51485000Y-30435000D01*
X52585000Y-30435000D01*
X52585000Y-30635000D01*
G36*
X52585000Y-30635000D02*
G01*
X51485000Y-30635000D01*
X51485000Y-30435000D01*
X52585000Y-30435000D01*
X52585000Y-30635000D01*
G37*
X59685000Y-31035000D02*
X58585000Y-31035000D01*
X58585000Y-30835000D01*
X59685000Y-30835000D01*
X59685000Y-31035000D01*
G36*
X59685000Y-31035000D02*
G01*
X58585000Y-31035000D01*
X58585000Y-30835000D01*
X59685000Y-30835000D01*
X59685000Y-31035000D01*
G37*
X52585000Y-31035000D02*
X51485000Y-31035000D01*
X51485000Y-30835000D01*
X52585000Y-30835000D01*
X52585000Y-31035000D01*
G36*
X52585000Y-31035000D02*
G01*
X51485000Y-31035000D01*
X51485000Y-30835000D01*
X52585000Y-30835000D01*
X52585000Y-31035000D01*
G37*
X52585000Y-31435000D02*
X51485000Y-31435000D01*
X51485000Y-31235000D01*
X52585000Y-31235000D01*
X52585000Y-31435000D01*
G36*
X52585000Y-31435000D02*
G01*
X51485000Y-31435000D01*
X51485000Y-31235000D01*
X52585000Y-31235000D01*
X52585000Y-31435000D01*
G37*
X59685000Y-31435000D02*
X58585000Y-31435000D01*
X58585000Y-31235000D01*
X59685000Y-31235000D01*
X59685000Y-31435000D01*
G36*
X59685000Y-31435000D02*
G01*
X58585000Y-31435000D01*
X58585000Y-31235000D01*
X59685000Y-31235000D01*
X59685000Y-31435000D01*
G37*
X52585000Y-31835000D02*
X51485000Y-31835000D01*
X51485000Y-31635000D01*
X52585000Y-31635000D01*
X52585000Y-31835000D01*
G36*
X52585000Y-31835000D02*
G01*
X51485000Y-31835000D01*
X51485000Y-31635000D01*
X52585000Y-31635000D01*
X52585000Y-31835000D01*
G37*
X59685000Y-31835000D02*
X58585000Y-31835000D01*
X58585000Y-31635000D01*
X59685000Y-31635000D01*
X59685000Y-31835000D01*
G36*
X59685000Y-31835000D02*
G01*
X58585000Y-31835000D01*
X58585000Y-31635000D01*
X59685000Y-31635000D01*
X59685000Y-31835000D01*
G37*
X56825000Y-34375000D02*
X54345000Y-34375000D01*
X54345000Y-31895000D01*
X56825000Y-31895000D01*
X56825000Y-34375000D01*
G36*
X56825000Y-34375000D02*
G01*
X54345000Y-34375000D01*
X54345000Y-31895000D01*
X56825000Y-31895000D01*
X56825000Y-34375000D01*
G37*
X59685000Y-32235000D02*
X58585000Y-32235000D01*
X58585000Y-32035000D01*
X59685000Y-32035000D01*
X59685000Y-32235000D01*
G36*
X59685000Y-32235000D02*
G01*
X58585000Y-32235000D01*
X58585000Y-32035000D01*
X59685000Y-32035000D01*
X59685000Y-32235000D01*
G37*
X52585000Y-32235000D02*
X51485000Y-32235000D01*
X51485000Y-32035000D01*
X52585000Y-32035000D01*
X52585000Y-32235000D01*
G36*
X52585000Y-32235000D02*
G01*
X51485000Y-32235000D01*
X51485000Y-32035000D01*
X52585000Y-32035000D01*
X52585000Y-32235000D01*
G37*
X52585000Y-32635000D02*
X51485000Y-32635000D01*
X51485000Y-32435000D01*
X52585000Y-32435000D01*
X52585000Y-32635000D01*
G36*
X52585000Y-32635000D02*
G01*
X51485000Y-32635000D01*
X51485000Y-32435000D01*
X52585000Y-32435000D01*
X52585000Y-32635000D01*
G37*
X59685000Y-32635000D02*
X58585000Y-32635000D01*
X58585000Y-32435000D01*
X59685000Y-32435000D01*
X59685000Y-32635000D01*
G36*
X59685000Y-32635000D02*
G01*
X58585000Y-32635000D01*
X58585000Y-32435000D01*
X59685000Y-32435000D01*
X59685000Y-32635000D01*
G37*
X52585000Y-33035000D02*
X51485000Y-33035000D01*
X51485000Y-32835000D01*
X52585000Y-32835000D01*
X52585000Y-33035000D01*
G36*
X52585000Y-33035000D02*
G01*
X51485000Y-33035000D01*
X51485000Y-32835000D01*
X52585000Y-32835000D01*
X52585000Y-33035000D01*
G37*
X59685000Y-33035000D02*
X58585000Y-33035000D01*
X58585000Y-32835000D01*
X59685000Y-32835000D01*
X59685000Y-33035000D01*
G36*
X59685000Y-33035000D02*
G01*
X58585000Y-33035000D01*
X58585000Y-32835000D01*
X59685000Y-32835000D01*
X59685000Y-33035000D01*
G37*
X59685000Y-33435000D02*
X58585000Y-33435000D01*
X58585000Y-33235000D01*
X59685000Y-33235000D01*
X59685000Y-33435000D01*
G36*
X59685000Y-33435000D02*
G01*
X58585000Y-33435000D01*
X58585000Y-33235000D01*
X59685000Y-33235000D01*
X59685000Y-33435000D01*
G37*
X52585000Y-33435000D02*
X51485000Y-33435000D01*
X51485000Y-33235000D01*
X52585000Y-33235000D01*
X52585000Y-33435000D01*
G36*
X52585000Y-33435000D02*
G01*
X51485000Y-33435000D01*
X51485000Y-33235000D01*
X52585000Y-33235000D01*
X52585000Y-33435000D01*
G37*
X59685000Y-33835000D02*
X58585000Y-33835000D01*
X58585000Y-33635000D01*
X59685000Y-33635000D01*
X59685000Y-33835000D01*
G36*
X59685000Y-33835000D02*
G01*
X58585000Y-33835000D01*
X58585000Y-33635000D01*
X59685000Y-33635000D01*
X59685000Y-33835000D01*
G37*
X52585000Y-33835000D02*
X51485000Y-33835000D01*
X51485000Y-33635000D01*
X52585000Y-33635000D01*
X52585000Y-33835000D01*
G36*
X52585000Y-33835000D02*
G01*
X51485000Y-33835000D01*
X51485000Y-33635000D01*
X52585000Y-33635000D01*
X52585000Y-33835000D01*
G37*
X52585000Y-34235000D02*
X51485000Y-34235000D01*
X51485000Y-34035000D01*
X52585000Y-34035000D01*
X52585000Y-34235000D01*
G36*
X52585000Y-34235000D02*
G01*
X51485000Y-34235000D01*
X51485000Y-34035000D01*
X52585000Y-34035000D01*
X52585000Y-34235000D01*
G37*
X59685000Y-34235000D02*
X58585000Y-34235000D01*
X58585000Y-34035000D01*
X59685000Y-34035000D01*
X59685000Y-34235000D01*
G36*
X59685000Y-34235000D02*
G01*
X58585000Y-34235000D01*
X58585000Y-34035000D01*
X59685000Y-34035000D01*
X59685000Y-34235000D01*
G37*
X52585000Y-34635000D02*
X51485000Y-34635000D01*
X51485000Y-34435000D01*
X52585000Y-34435000D01*
X52585000Y-34635000D01*
G36*
X52585000Y-34635000D02*
G01*
X51485000Y-34635000D01*
X51485000Y-34435000D01*
X52585000Y-34435000D01*
X52585000Y-34635000D01*
G37*
X59685000Y-34635000D02*
X58585000Y-34635000D01*
X58585000Y-34435000D01*
X59685000Y-34435000D01*
X59685000Y-34635000D01*
G36*
X59685000Y-34635000D02*
G01*
X58585000Y-34635000D01*
X58585000Y-34435000D01*
X59685000Y-34435000D01*
X59685000Y-34635000D01*
G37*
X52585000Y-35035000D02*
X51485000Y-35035000D01*
X51485000Y-34835000D01*
X52585000Y-34835000D01*
X52585000Y-35035000D01*
G36*
X52585000Y-35035000D02*
G01*
X51485000Y-35035000D01*
X51485000Y-34835000D01*
X52585000Y-34835000D01*
X52585000Y-35035000D01*
G37*
X59685000Y-35035000D02*
X58585000Y-35035000D01*
X58585000Y-34835000D01*
X59685000Y-34835000D01*
X59685000Y-35035000D01*
G36*
X59685000Y-35035000D02*
G01*
X58585000Y-35035000D01*
X58585000Y-34835000D01*
X59685000Y-34835000D01*
X59685000Y-35035000D01*
G37*
X59685000Y-35435000D02*
X58585000Y-35435000D01*
X58585000Y-35235000D01*
X59685000Y-35235000D01*
X59685000Y-35435000D01*
G36*
X59685000Y-35435000D02*
G01*
X58585000Y-35435000D01*
X58585000Y-35235000D01*
X59685000Y-35235000D01*
X59685000Y-35435000D01*
G37*
X52585000Y-35435000D02*
X51485000Y-35435000D01*
X51485000Y-35235000D01*
X52585000Y-35235000D01*
X52585000Y-35435000D01*
G36*
X52585000Y-35435000D02*
G01*
X51485000Y-35435000D01*
X51485000Y-35235000D01*
X52585000Y-35235000D01*
X52585000Y-35435000D01*
G37*
X59685000Y-35835000D02*
X58585000Y-35835000D01*
X58585000Y-35635000D01*
X59685000Y-35635000D01*
X59685000Y-35835000D01*
G36*
X59685000Y-35835000D02*
G01*
X58585000Y-35835000D01*
X58585000Y-35635000D01*
X59685000Y-35635000D01*
X59685000Y-35835000D01*
G37*
X52585000Y-35835000D02*
X51485000Y-35835000D01*
X51485000Y-35635000D01*
X52585000Y-35635000D01*
X52585000Y-35835000D01*
G36*
X52585000Y-35835000D02*
G01*
X51485000Y-35835000D01*
X51485000Y-35635000D01*
X52585000Y-35635000D01*
X52585000Y-35835000D01*
G37*
X55885000Y-37235000D02*
X55685000Y-37235000D01*
X55685000Y-36135000D01*
X55885000Y-36135000D01*
X55885000Y-37235000D01*
G36*
X55885000Y-37235000D02*
G01*
X55685000Y-37235000D01*
X55685000Y-36135000D01*
X55885000Y-36135000D01*
X55885000Y-37235000D01*
G37*
X53085000Y-37235000D02*
X52885000Y-37235000D01*
X52885000Y-36135000D01*
X53085000Y-36135000D01*
X53085000Y-37235000D01*
G36*
X53085000Y-37235000D02*
G01*
X52885000Y-37235000D01*
X52885000Y-36135000D01*
X53085000Y-36135000D01*
X53085000Y-37235000D01*
G37*
X58285000Y-37235000D02*
X58085000Y-37235000D01*
X58085000Y-36135000D01*
X58285000Y-36135000D01*
X58285000Y-37235000D01*
G36*
X58285000Y-37235000D02*
G01*
X58085000Y-37235000D01*
X58085000Y-36135000D01*
X58285000Y-36135000D01*
X58285000Y-37235000D01*
G37*
X57885000Y-37235000D02*
X57685000Y-37235000D01*
X57685000Y-36135000D01*
X57885000Y-36135000D01*
X57885000Y-37235000D01*
G36*
X57885000Y-37235000D02*
G01*
X57685000Y-37235000D01*
X57685000Y-36135000D01*
X57885000Y-36135000D01*
X57885000Y-37235000D01*
G37*
X57485000Y-37235000D02*
X57285000Y-37235000D01*
X57285000Y-36135000D01*
X57485000Y-36135000D01*
X57485000Y-37235000D01*
G36*
X57485000Y-37235000D02*
G01*
X57285000Y-37235000D01*
X57285000Y-36135000D01*
X57485000Y-36135000D01*
X57485000Y-37235000D01*
G37*
X57085000Y-37235000D02*
X56885000Y-37235000D01*
X56885000Y-36135000D01*
X57085000Y-36135000D01*
X57085000Y-37235000D01*
G36*
X57085000Y-37235000D02*
G01*
X56885000Y-37235000D01*
X56885000Y-36135000D01*
X57085000Y-36135000D01*
X57085000Y-37235000D01*
G37*
X56685000Y-37235000D02*
X56485000Y-37235000D01*
X56485000Y-36135000D01*
X56685000Y-36135000D01*
X56685000Y-37235000D01*
G36*
X56685000Y-37235000D02*
G01*
X56485000Y-37235000D01*
X56485000Y-36135000D01*
X56685000Y-36135000D01*
X56685000Y-37235000D01*
G37*
X56285000Y-37235000D02*
X56085000Y-37235000D01*
X56085000Y-36135000D01*
X56285000Y-36135000D01*
X56285000Y-37235000D01*
G36*
X56285000Y-37235000D02*
G01*
X56085000Y-37235000D01*
X56085000Y-36135000D01*
X56285000Y-36135000D01*
X56285000Y-37235000D01*
G37*
X55485000Y-37235000D02*
X55285000Y-37235000D01*
X55285000Y-36135000D01*
X55485000Y-36135000D01*
X55485000Y-37235000D01*
G36*
X55485000Y-37235000D02*
G01*
X55285000Y-37235000D01*
X55285000Y-36135000D01*
X55485000Y-36135000D01*
X55485000Y-37235000D01*
G37*
X55085000Y-37235000D02*
X54885000Y-37235000D01*
X54885000Y-36135000D01*
X55085000Y-36135000D01*
X55085000Y-37235000D01*
G36*
X55085000Y-37235000D02*
G01*
X54885000Y-37235000D01*
X54885000Y-36135000D01*
X55085000Y-36135000D01*
X55085000Y-37235000D01*
G37*
X54685000Y-37235000D02*
X54485000Y-37235000D01*
X54485000Y-36135000D01*
X54685000Y-36135000D01*
X54685000Y-37235000D01*
G36*
X54685000Y-37235000D02*
G01*
X54485000Y-37235000D01*
X54485000Y-36135000D01*
X54685000Y-36135000D01*
X54685000Y-37235000D01*
G37*
X54285000Y-37235000D02*
X54085000Y-37235000D01*
X54085000Y-36135000D01*
X54285000Y-36135000D01*
X54285000Y-37235000D01*
G36*
X54285000Y-37235000D02*
G01*
X54085000Y-37235000D01*
X54085000Y-36135000D01*
X54285000Y-36135000D01*
X54285000Y-37235000D01*
G37*
X53885000Y-37235000D02*
X53685000Y-37235000D01*
X53685000Y-36135000D01*
X53885000Y-36135000D01*
X53885000Y-37235000D01*
G36*
X53885000Y-37235000D02*
G01*
X53685000Y-37235000D01*
X53685000Y-36135000D01*
X53885000Y-36135000D01*
X53885000Y-37235000D01*
G37*
X53485000Y-37235000D02*
X53285000Y-37235000D01*
X53285000Y-36135000D01*
X53485000Y-36135000D01*
X53485000Y-37235000D01*
G36*
X53485000Y-37235000D02*
G01*
X53285000Y-37235000D01*
X53285000Y-36135000D01*
X53485000Y-36135000D01*
X53485000Y-37235000D01*
G37*
X37685000Y-45695000D02*
X37485000Y-45695000D01*
X37485000Y-44595000D01*
X37685000Y-44595000D01*
X37685000Y-45695000D01*
G36*
X37685000Y-45695000D02*
G01*
X37485000Y-45695000D01*
X37485000Y-44595000D01*
X37685000Y-44595000D01*
X37685000Y-45695000D01*
G37*
X37285000Y-45695000D02*
X37085000Y-45695000D01*
X37085000Y-44595000D01*
X37285000Y-44595000D01*
X37285000Y-45695000D01*
G36*
X37285000Y-45695000D02*
G01*
X37085000Y-45695000D01*
X37085000Y-44595000D01*
X37285000Y-44595000D01*
X37285000Y-45695000D01*
G37*
X36885000Y-45695000D02*
X36685000Y-45695000D01*
X36685000Y-44595000D01*
X36885000Y-44595000D01*
X36885000Y-45695000D01*
G36*
X36885000Y-45695000D02*
G01*
X36685000Y-45695000D01*
X36685000Y-44595000D01*
X36885000Y-44595000D01*
X36885000Y-45695000D01*
G37*
X36485000Y-45695000D02*
X36285000Y-45695000D01*
X36285000Y-44595000D01*
X36485000Y-44595000D01*
X36485000Y-45695000D01*
G36*
X36485000Y-45695000D02*
G01*
X36285000Y-45695000D01*
X36285000Y-44595000D01*
X36485000Y-44595000D01*
X36485000Y-45695000D01*
G37*
X36085000Y-45695000D02*
X35885000Y-45695000D01*
X35885000Y-44595000D01*
X36085000Y-44595000D01*
X36085000Y-45695000D01*
G36*
X36085000Y-45695000D02*
G01*
X35885000Y-45695000D01*
X35885000Y-44595000D01*
X36085000Y-44595000D01*
X36085000Y-45695000D01*
G37*
X35685000Y-45695000D02*
X35485000Y-45695000D01*
X35485000Y-44595000D01*
X35685000Y-44595000D01*
X35685000Y-45695000D01*
G36*
X35685000Y-45695000D02*
G01*
X35485000Y-45695000D01*
X35485000Y-44595000D01*
X35685000Y-44595000D01*
X35685000Y-45695000D01*
G37*
X35285000Y-45695000D02*
X35085000Y-45695000D01*
X35085000Y-44595000D01*
X35285000Y-44595000D01*
X35285000Y-45695000D01*
G36*
X35285000Y-45695000D02*
G01*
X35085000Y-45695000D01*
X35085000Y-44595000D01*
X35285000Y-44595000D01*
X35285000Y-45695000D01*
G37*
X34485000Y-45695000D02*
X34285000Y-45695000D01*
X34285000Y-44595000D01*
X34485000Y-44595000D01*
X34485000Y-45695000D01*
G36*
X34485000Y-45695000D02*
G01*
X34285000Y-45695000D01*
X34285000Y-44595000D01*
X34485000Y-44595000D01*
X34485000Y-45695000D01*
G37*
X34085000Y-45695000D02*
X33885000Y-45695000D01*
X33885000Y-44595000D01*
X34085000Y-44595000D01*
X34085000Y-45695000D01*
G36*
X34085000Y-45695000D02*
G01*
X33885000Y-45695000D01*
X33885000Y-44595000D01*
X34085000Y-44595000D01*
X34085000Y-45695000D01*
G37*
X33685000Y-45695000D02*
X33485000Y-45695000D01*
X33485000Y-44595000D01*
X33685000Y-44595000D01*
X33685000Y-45695000D01*
G36*
X33685000Y-45695000D02*
G01*
X33485000Y-45695000D01*
X33485000Y-44595000D01*
X33685000Y-44595000D01*
X33685000Y-45695000D01*
G37*
X33285000Y-45695000D02*
X33085000Y-45695000D01*
X33085000Y-44595000D01*
X33285000Y-44595000D01*
X33285000Y-45695000D01*
G36*
X33285000Y-45695000D02*
G01*
X33085000Y-45695000D01*
X33085000Y-44595000D01*
X33285000Y-44595000D01*
X33285000Y-45695000D01*
G37*
X32885000Y-45695000D02*
X32685000Y-45695000D01*
X32685000Y-44595000D01*
X32885000Y-44595000D01*
X32885000Y-45695000D01*
G36*
X32885000Y-45695000D02*
G01*
X32685000Y-45695000D01*
X32685000Y-44595000D01*
X32885000Y-44595000D01*
X32885000Y-45695000D01*
G37*
X32485000Y-45695000D02*
X32285000Y-45695000D01*
X32285000Y-44595000D01*
X32485000Y-44595000D01*
X32485000Y-45695000D01*
G36*
X32485000Y-45695000D02*
G01*
X32285000Y-45695000D01*
X32285000Y-44595000D01*
X32485000Y-44595000D01*
X32485000Y-45695000D01*
G37*
X34885000Y-45695000D02*
X34685000Y-45695000D01*
X34685000Y-44595000D01*
X34885000Y-44595000D01*
X34885000Y-45695000D01*
G36*
X34885000Y-45695000D02*
G01*
X34685000Y-45695000D01*
X34685000Y-44595000D01*
X34885000Y-44595000D01*
X34885000Y-45695000D01*
G37*
X39085000Y-46195000D02*
X37985000Y-46195000D01*
X37985000Y-45995000D01*
X39085000Y-45995000D01*
X39085000Y-46195000D01*
G36*
X39085000Y-46195000D02*
G01*
X37985000Y-46195000D01*
X37985000Y-45995000D01*
X39085000Y-45995000D01*
X39085000Y-46195000D01*
G37*
X31985000Y-46195000D02*
X30885000Y-46195000D01*
X30885000Y-45995000D01*
X31985000Y-45995000D01*
X31985000Y-46195000D01*
G36*
X31985000Y-46195000D02*
G01*
X30885000Y-46195000D01*
X30885000Y-45995000D01*
X31985000Y-45995000D01*
X31985000Y-46195000D01*
G37*
X39085000Y-46595000D02*
X37985000Y-46595000D01*
X37985000Y-46395000D01*
X39085000Y-46395000D01*
X39085000Y-46595000D01*
G36*
X39085000Y-46595000D02*
G01*
X37985000Y-46595000D01*
X37985000Y-46395000D01*
X39085000Y-46395000D01*
X39085000Y-46595000D01*
G37*
X31985000Y-46595000D02*
X30885000Y-46595000D01*
X30885000Y-46395000D01*
X31985000Y-46395000D01*
X31985000Y-46595000D01*
G36*
X31985000Y-46595000D02*
G01*
X30885000Y-46595000D01*
X30885000Y-46395000D01*
X31985000Y-46395000D01*
X31985000Y-46595000D01*
G37*
X31985000Y-46995000D02*
X30885000Y-46995000D01*
X30885000Y-46795000D01*
X31985000Y-46795000D01*
X31985000Y-46995000D01*
G36*
X31985000Y-46995000D02*
G01*
X30885000Y-46995000D01*
X30885000Y-46795000D01*
X31985000Y-46795000D01*
X31985000Y-46995000D01*
G37*
X39085000Y-46995000D02*
X37985000Y-46995000D01*
X37985000Y-46795000D01*
X39085000Y-46795000D01*
X39085000Y-46995000D01*
G36*
X39085000Y-46995000D02*
G01*
X37985000Y-46995000D01*
X37985000Y-46795000D01*
X39085000Y-46795000D01*
X39085000Y-46995000D01*
G37*
X31985000Y-47395000D02*
X30885000Y-47395000D01*
X30885000Y-47195000D01*
X31985000Y-47195000D01*
X31985000Y-47395000D01*
G36*
X31985000Y-47395000D02*
G01*
X30885000Y-47395000D01*
X30885000Y-47195000D01*
X31985000Y-47195000D01*
X31985000Y-47395000D01*
G37*
X39085000Y-47395000D02*
X37985000Y-47395000D01*
X37985000Y-47195000D01*
X39085000Y-47195000D01*
X39085000Y-47395000D01*
G36*
X39085000Y-47395000D02*
G01*
X37985000Y-47395000D01*
X37985000Y-47195000D01*
X39085000Y-47195000D01*
X39085000Y-47395000D01*
G37*
X36225000Y-49935000D02*
X33745000Y-49935000D01*
X33745000Y-47455000D01*
X36225000Y-47455000D01*
X36225000Y-49935000D01*
G36*
X36225000Y-49935000D02*
G01*
X33745000Y-49935000D01*
X33745000Y-47455000D01*
X36225000Y-47455000D01*
X36225000Y-49935000D01*
G37*
X39085000Y-47795000D02*
X37985000Y-47795000D01*
X37985000Y-47595000D01*
X39085000Y-47595000D01*
X39085000Y-47795000D01*
G36*
X39085000Y-47795000D02*
G01*
X37985000Y-47795000D01*
X37985000Y-47595000D01*
X39085000Y-47595000D01*
X39085000Y-47795000D01*
G37*
X31985000Y-47795000D02*
X30885000Y-47795000D01*
X30885000Y-47595000D01*
X31985000Y-47595000D01*
X31985000Y-47795000D01*
G36*
X31985000Y-47795000D02*
G01*
X30885000Y-47795000D01*
X30885000Y-47595000D01*
X31985000Y-47595000D01*
X31985000Y-47795000D01*
G37*
X31985000Y-48195000D02*
X30885000Y-48195000D01*
X30885000Y-47995000D01*
X31985000Y-47995000D01*
X31985000Y-48195000D01*
G36*
X31985000Y-48195000D02*
G01*
X30885000Y-48195000D01*
X30885000Y-47995000D01*
X31985000Y-47995000D01*
X31985000Y-48195000D01*
G37*
X39085000Y-48195000D02*
X37985000Y-48195000D01*
X37985000Y-47995000D01*
X39085000Y-47995000D01*
X39085000Y-48195000D01*
G36*
X39085000Y-48195000D02*
G01*
X37985000Y-48195000D01*
X37985000Y-47995000D01*
X39085000Y-47995000D01*
X39085000Y-48195000D01*
G37*
X31985000Y-48595000D02*
X30885000Y-48595000D01*
X30885000Y-48395000D01*
X31985000Y-48395000D01*
X31985000Y-48595000D01*
G36*
X31985000Y-48595000D02*
G01*
X30885000Y-48595000D01*
X30885000Y-48395000D01*
X31985000Y-48395000D01*
X31985000Y-48595000D01*
G37*
X39085000Y-48595000D02*
X37985000Y-48595000D01*
X37985000Y-48395000D01*
X39085000Y-48395000D01*
X39085000Y-48595000D01*
G36*
X39085000Y-48595000D02*
G01*
X37985000Y-48595000D01*
X37985000Y-48395000D01*
X39085000Y-48395000D01*
X39085000Y-48595000D01*
G37*
X39085000Y-48995000D02*
X37985000Y-48995000D01*
X37985000Y-48795000D01*
X39085000Y-48795000D01*
X39085000Y-48995000D01*
G36*
X39085000Y-48995000D02*
G01*
X37985000Y-48995000D01*
X37985000Y-48795000D01*
X39085000Y-48795000D01*
X39085000Y-48995000D01*
G37*
X31985000Y-48995000D02*
X30885000Y-48995000D01*
X30885000Y-48795000D01*
X31985000Y-48795000D01*
X31985000Y-48995000D01*
G36*
X31985000Y-48995000D02*
G01*
X30885000Y-48995000D01*
X30885000Y-48795000D01*
X31985000Y-48795000D01*
X31985000Y-48995000D01*
G37*
X39085000Y-49395000D02*
X37985000Y-49395000D01*
X37985000Y-49195000D01*
X39085000Y-49195000D01*
X39085000Y-49395000D01*
G36*
X39085000Y-49395000D02*
G01*
X37985000Y-49395000D01*
X37985000Y-49195000D01*
X39085000Y-49195000D01*
X39085000Y-49395000D01*
G37*
X31985000Y-49395000D02*
X30885000Y-49395000D01*
X30885000Y-49195000D01*
X31985000Y-49195000D01*
X31985000Y-49395000D01*
G36*
X31985000Y-49395000D02*
G01*
X30885000Y-49395000D01*
X30885000Y-49195000D01*
X31985000Y-49195000D01*
X31985000Y-49395000D01*
G37*
X31985000Y-49795000D02*
X30885000Y-49795000D01*
X30885000Y-49595000D01*
X31985000Y-49595000D01*
X31985000Y-49795000D01*
G36*
X31985000Y-49795000D02*
G01*
X30885000Y-49795000D01*
X30885000Y-49595000D01*
X31985000Y-49595000D01*
X31985000Y-49795000D01*
G37*
X39085000Y-49795000D02*
X37985000Y-49795000D01*
X37985000Y-49595000D01*
X39085000Y-49595000D01*
X39085000Y-49795000D01*
G36*
X39085000Y-49795000D02*
G01*
X37985000Y-49795000D01*
X37985000Y-49595000D01*
X39085000Y-49595000D01*
X39085000Y-49795000D01*
G37*
X31985000Y-50195000D02*
X30885000Y-50195000D01*
X30885000Y-49995000D01*
X31985000Y-49995000D01*
X31985000Y-50195000D01*
G36*
X31985000Y-50195000D02*
G01*
X30885000Y-50195000D01*
X30885000Y-49995000D01*
X31985000Y-49995000D01*
X31985000Y-50195000D01*
G37*
X39085000Y-50195000D02*
X37985000Y-50195000D01*
X37985000Y-49995000D01*
X39085000Y-49995000D01*
X39085000Y-50195000D01*
G36*
X39085000Y-50195000D02*
G01*
X37985000Y-50195000D01*
X37985000Y-49995000D01*
X39085000Y-49995000D01*
X39085000Y-50195000D01*
G37*
X31985000Y-50595000D02*
X30885000Y-50595000D01*
X30885000Y-50395000D01*
X31985000Y-50395000D01*
X31985000Y-50595000D01*
G36*
X31985000Y-50595000D02*
G01*
X30885000Y-50595000D01*
X30885000Y-50395000D01*
X31985000Y-50395000D01*
X31985000Y-50595000D01*
G37*
X39085000Y-50595000D02*
X37985000Y-50595000D01*
X37985000Y-50395000D01*
X39085000Y-50395000D01*
X39085000Y-50595000D01*
G36*
X39085000Y-50595000D02*
G01*
X37985000Y-50595000D01*
X37985000Y-50395000D01*
X39085000Y-50395000D01*
X39085000Y-50595000D01*
G37*
X39085000Y-50995000D02*
X37985000Y-50995000D01*
X37985000Y-50795000D01*
X39085000Y-50795000D01*
X39085000Y-50995000D01*
G36*
X39085000Y-50995000D02*
G01*
X37985000Y-50995000D01*
X37985000Y-50795000D01*
X39085000Y-50795000D01*
X39085000Y-50995000D01*
G37*
X31985000Y-50995000D02*
X30885000Y-50995000D01*
X30885000Y-50795000D01*
X31985000Y-50795000D01*
X31985000Y-50995000D01*
G36*
X31985000Y-50995000D02*
G01*
X30885000Y-50995000D01*
X30885000Y-50795000D01*
X31985000Y-50795000D01*
X31985000Y-50995000D01*
G37*
X39085000Y-51395000D02*
X37985000Y-51395000D01*
X37985000Y-51195000D01*
X39085000Y-51195000D01*
X39085000Y-51395000D01*
G36*
X39085000Y-51395000D02*
G01*
X37985000Y-51395000D01*
X37985000Y-51195000D01*
X39085000Y-51195000D01*
X39085000Y-51395000D01*
G37*
X31985000Y-51395000D02*
X30885000Y-51395000D01*
X30885000Y-51195000D01*
X31985000Y-51195000D01*
X31985000Y-51395000D01*
G36*
X31985000Y-51395000D02*
G01*
X30885000Y-51395000D01*
X30885000Y-51195000D01*
X31985000Y-51195000D01*
X31985000Y-51395000D01*
G37*
X35285000Y-52795000D02*
X35085000Y-52795000D01*
X35085000Y-51695000D01*
X35285000Y-51695000D01*
X35285000Y-52795000D01*
G36*
X35285000Y-52795000D02*
G01*
X35085000Y-52795000D01*
X35085000Y-51695000D01*
X35285000Y-51695000D01*
X35285000Y-52795000D01*
G37*
X32485000Y-52795000D02*
X32285000Y-52795000D01*
X32285000Y-51695000D01*
X32485000Y-51695000D01*
X32485000Y-52795000D01*
G36*
X32485000Y-52795000D02*
G01*
X32285000Y-52795000D01*
X32285000Y-51695000D01*
X32485000Y-51695000D01*
X32485000Y-52795000D01*
G37*
X37685000Y-52795000D02*
X37485000Y-52795000D01*
X37485000Y-51695000D01*
X37685000Y-51695000D01*
X37685000Y-52795000D01*
G36*
X37685000Y-52795000D02*
G01*
X37485000Y-52795000D01*
X37485000Y-51695000D01*
X37685000Y-51695000D01*
X37685000Y-52795000D01*
G37*
X37285000Y-52795000D02*
X37085000Y-52795000D01*
X37085000Y-51695000D01*
X37285000Y-51695000D01*
X37285000Y-52795000D01*
G36*
X37285000Y-52795000D02*
G01*
X37085000Y-52795000D01*
X37085000Y-51695000D01*
X37285000Y-51695000D01*
X37285000Y-52795000D01*
G37*
X36885000Y-52795000D02*
X36685000Y-52795000D01*
X36685000Y-51695000D01*
X36885000Y-51695000D01*
X36885000Y-52795000D01*
G36*
X36885000Y-52795000D02*
G01*
X36685000Y-52795000D01*
X36685000Y-51695000D01*
X36885000Y-51695000D01*
X36885000Y-52795000D01*
G37*
X36485000Y-52795000D02*
X36285000Y-52795000D01*
X36285000Y-51695000D01*
X36485000Y-51695000D01*
X36485000Y-52795000D01*
G36*
X36485000Y-52795000D02*
G01*
X36285000Y-52795000D01*
X36285000Y-51695000D01*
X36485000Y-51695000D01*
X36485000Y-52795000D01*
G37*
X36085000Y-52795000D02*
X35885000Y-52795000D01*
X35885000Y-51695000D01*
X36085000Y-51695000D01*
X36085000Y-52795000D01*
G36*
X36085000Y-52795000D02*
G01*
X35885000Y-52795000D01*
X35885000Y-51695000D01*
X36085000Y-51695000D01*
X36085000Y-52795000D01*
G37*
X35685000Y-52795000D02*
X35485000Y-52795000D01*
X35485000Y-51695000D01*
X35685000Y-51695000D01*
X35685000Y-52795000D01*
G36*
X35685000Y-52795000D02*
G01*
X35485000Y-52795000D01*
X35485000Y-51695000D01*
X35685000Y-51695000D01*
X35685000Y-52795000D01*
G37*
X34885000Y-52795000D02*
X34685000Y-52795000D01*
X34685000Y-51695000D01*
X34885000Y-51695000D01*
X34885000Y-52795000D01*
G36*
X34885000Y-52795000D02*
G01*
X34685000Y-52795000D01*
X34685000Y-51695000D01*
X34885000Y-51695000D01*
X34885000Y-52795000D01*
G37*
X34485000Y-52795000D02*
X34285000Y-52795000D01*
X34285000Y-51695000D01*
X34485000Y-51695000D01*
X34485000Y-52795000D01*
G36*
X34485000Y-52795000D02*
G01*
X34285000Y-52795000D01*
X34285000Y-51695000D01*
X34485000Y-51695000D01*
X34485000Y-52795000D01*
G37*
X34085000Y-52795000D02*
X33885000Y-52795000D01*
X33885000Y-51695000D01*
X34085000Y-51695000D01*
X34085000Y-52795000D01*
G36*
X34085000Y-52795000D02*
G01*
X33885000Y-52795000D01*
X33885000Y-51695000D01*
X34085000Y-51695000D01*
X34085000Y-52795000D01*
G37*
X33685000Y-52795000D02*
X33485000Y-52795000D01*
X33485000Y-51695000D01*
X33685000Y-51695000D01*
X33685000Y-52795000D01*
G36*
X33685000Y-52795000D02*
G01*
X33485000Y-52795000D01*
X33485000Y-51695000D01*
X33685000Y-51695000D01*
X33685000Y-52795000D01*
G37*
X33285000Y-52795000D02*
X33085000Y-52795000D01*
X33085000Y-51695000D01*
X33285000Y-51695000D01*
X33285000Y-52795000D01*
G36*
X33285000Y-52795000D02*
G01*
X33085000Y-52795000D01*
X33085000Y-51695000D01*
X33285000Y-51695000D01*
X33285000Y-52795000D01*
G37*
X32885000Y-52795000D02*
X32685000Y-52795000D01*
X32685000Y-51695000D01*
X32885000Y-51695000D01*
X32885000Y-52795000D01*
G36*
X32885000Y-52795000D02*
G01*
X32685000Y-52795000D01*
X32685000Y-51695000D01*
X32885000Y-51695000D01*
X32885000Y-52795000D01*
G37*
X37685000Y-14575000D02*
X37485000Y-14575000D01*
X37485000Y-13475000D01*
X37685000Y-13475000D01*
X37685000Y-14575000D01*
G36*
X37685000Y-14575000D02*
G01*
X37485000Y-14575000D01*
X37485000Y-13475000D01*
X37685000Y-13475000D01*
X37685000Y-14575000D01*
G37*
X37285000Y-14575000D02*
X37085000Y-14575000D01*
X37085000Y-13475000D01*
X37285000Y-13475000D01*
X37285000Y-14575000D01*
G36*
X37285000Y-14575000D02*
G01*
X37085000Y-14575000D01*
X37085000Y-13475000D01*
X37285000Y-13475000D01*
X37285000Y-14575000D01*
G37*
X36885000Y-14575000D02*
X36685000Y-14575000D01*
X36685000Y-13475000D01*
X36885000Y-13475000D01*
X36885000Y-14575000D01*
G36*
X36885000Y-14575000D02*
G01*
X36685000Y-14575000D01*
X36685000Y-13475000D01*
X36885000Y-13475000D01*
X36885000Y-14575000D01*
G37*
X36485000Y-14575000D02*
X36285000Y-14575000D01*
X36285000Y-13475000D01*
X36485000Y-13475000D01*
X36485000Y-14575000D01*
G36*
X36485000Y-14575000D02*
G01*
X36285000Y-14575000D01*
X36285000Y-13475000D01*
X36485000Y-13475000D01*
X36485000Y-14575000D01*
G37*
X36085000Y-14575000D02*
X35885000Y-14575000D01*
X35885000Y-13475000D01*
X36085000Y-13475000D01*
X36085000Y-14575000D01*
G36*
X36085000Y-14575000D02*
G01*
X35885000Y-14575000D01*
X35885000Y-13475000D01*
X36085000Y-13475000D01*
X36085000Y-14575000D01*
G37*
X35685000Y-14575000D02*
X35485000Y-14575000D01*
X35485000Y-13475000D01*
X35685000Y-13475000D01*
X35685000Y-14575000D01*
G36*
X35685000Y-14575000D02*
G01*
X35485000Y-14575000D01*
X35485000Y-13475000D01*
X35685000Y-13475000D01*
X35685000Y-14575000D01*
G37*
X35285000Y-14575000D02*
X35085000Y-14575000D01*
X35085000Y-13475000D01*
X35285000Y-13475000D01*
X35285000Y-14575000D01*
G36*
X35285000Y-14575000D02*
G01*
X35085000Y-14575000D01*
X35085000Y-13475000D01*
X35285000Y-13475000D01*
X35285000Y-14575000D01*
G37*
X34485000Y-14575000D02*
X34285000Y-14575000D01*
X34285000Y-13475000D01*
X34485000Y-13475000D01*
X34485000Y-14575000D01*
G36*
X34485000Y-14575000D02*
G01*
X34285000Y-14575000D01*
X34285000Y-13475000D01*
X34485000Y-13475000D01*
X34485000Y-14575000D01*
G37*
X34085000Y-14575000D02*
X33885000Y-14575000D01*
X33885000Y-13475000D01*
X34085000Y-13475000D01*
X34085000Y-14575000D01*
G36*
X34085000Y-14575000D02*
G01*
X33885000Y-14575000D01*
X33885000Y-13475000D01*
X34085000Y-13475000D01*
X34085000Y-14575000D01*
G37*
X33685000Y-14575000D02*
X33485000Y-14575000D01*
X33485000Y-13475000D01*
X33685000Y-13475000D01*
X33685000Y-14575000D01*
G36*
X33685000Y-14575000D02*
G01*
X33485000Y-14575000D01*
X33485000Y-13475000D01*
X33685000Y-13475000D01*
X33685000Y-14575000D01*
G37*
X33285000Y-14575000D02*
X33085000Y-14575000D01*
X33085000Y-13475000D01*
X33285000Y-13475000D01*
X33285000Y-14575000D01*
G36*
X33285000Y-14575000D02*
G01*
X33085000Y-14575000D01*
X33085000Y-13475000D01*
X33285000Y-13475000D01*
X33285000Y-14575000D01*
G37*
X32885000Y-14575000D02*
X32685000Y-14575000D01*
X32685000Y-13475000D01*
X32885000Y-13475000D01*
X32885000Y-14575000D01*
G36*
X32885000Y-14575000D02*
G01*
X32685000Y-14575000D01*
X32685000Y-13475000D01*
X32885000Y-13475000D01*
X32885000Y-14575000D01*
G37*
X32485000Y-14575000D02*
X32285000Y-14575000D01*
X32285000Y-13475000D01*
X32485000Y-13475000D01*
X32485000Y-14575000D01*
G36*
X32485000Y-14575000D02*
G01*
X32285000Y-14575000D01*
X32285000Y-13475000D01*
X32485000Y-13475000D01*
X32485000Y-14575000D01*
G37*
X34885000Y-14575000D02*
X34685000Y-14575000D01*
X34685000Y-13475000D01*
X34885000Y-13475000D01*
X34885000Y-14575000D01*
G36*
X34885000Y-14575000D02*
G01*
X34685000Y-14575000D01*
X34685000Y-13475000D01*
X34885000Y-13475000D01*
X34885000Y-14575000D01*
G37*
X39085000Y-15075000D02*
X37985000Y-15075000D01*
X37985000Y-14875000D01*
X39085000Y-14875000D01*
X39085000Y-15075000D01*
G36*
X39085000Y-15075000D02*
G01*
X37985000Y-15075000D01*
X37985000Y-14875000D01*
X39085000Y-14875000D01*
X39085000Y-15075000D01*
G37*
X31985000Y-15075000D02*
X30885000Y-15075000D01*
X30885000Y-14875000D01*
X31985000Y-14875000D01*
X31985000Y-15075000D01*
G36*
X31985000Y-15075000D02*
G01*
X30885000Y-15075000D01*
X30885000Y-14875000D01*
X31985000Y-14875000D01*
X31985000Y-15075000D01*
G37*
X39085000Y-15475000D02*
X37985000Y-15475000D01*
X37985000Y-15275000D01*
X39085000Y-15275000D01*
X39085000Y-15475000D01*
G36*
X39085000Y-15475000D02*
G01*
X37985000Y-15475000D01*
X37985000Y-15275000D01*
X39085000Y-15275000D01*
X39085000Y-15475000D01*
G37*
X31985000Y-15475000D02*
X30885000Y-15475000D01*
X30885000Y-15275000D01*
X31985000Y-15275000D01*
X31985000Y-15475000D01*
G36*
X31985000Y-15475000D02*
G01*
X30885000Y-15475000D01*
X30885000Y-15275000D01*
X31985000Y-15275000D01*
X31985000Y-15475000D01*
G37*
X31985000Y-15875000D02*
X30885000Y-15875000D01*
X30885000Y-15675000D01*
X31985000Y-15675000D01*
X31985000Y-15875000D01*
G36*
X31985000Y-15875000D02*
G01*
X30885000Y-15875000D01*
X30885000Y-15675000D01*
X31985000Y-15675000D01*
X31985000Y-15875000D01*
G37*
X39085000Y-15875000D02*
X37985000Y-15875000D01*
X37985000Y-15675000D01*
X39085000Y-15675000D01*
X39085000Y-15875000D01*
G36*
X39085000Y-15875000D02*
G01*
X37985000Y-15875000D01*
X37985000Y-15675000D01*
X39085000Y-15675000D01*
X39085000Y-15875000D01*
G37*
X31985000Y-16275000D02*
X30885000Y-16275000D01*
X30885000Y-16075000D01*
X31985000Y-16075000D01*
X31985000Y-16275000D01*
G36*
X31985000Y-16275000D02*
G01*
X30885000Y-16275000D01*
X30885000Y-16075000D01*
X31985000Y-16075000D01*
X31985000Y-16275000D01*
G37*
X39085000Y-16275000D02*
X37985000Y-16275000D01*
X37985000Y-16075000D01*
X39085000Y-16075000D01*
X39085000Y-16275000D01*
G36*
X39085000Y-16275000D02*
G01*
X37985000Y-16275000D01*
X37985000Y-16075000D01*
X39085000Y-16075000D01*
X39085000Y-16275000D01*
G37*
X36225000Y-18815000D02*
X33745000Y-18815000D01*
X33745000Y-16335000D01*
X36225000Y-16335000D01*
X36225000Y-18815000D01*
G36*
X36225000Y-18815000D02*
G01*
X33745000Y-18815000D01*
X33745000Y-16335000D01*
X36225000Y-16335000D01*
X36225000Y-18815000D01*
G37*
X39085000Y-16675000D02*
X37985000Y-16675000D01*
X37985000Y-16475000D01*
X39085000Y-16475000D01*
X39085000Y-16675000D01*
G36*
X39085000Y-16675000D02*
G01*
X37985000Y-16675000D01*
X37985000Y-16475000D01*
X39085000Y-16475000D01*
X39085000Y-16675000D01*
G37*
X31985000Y-16675000D02*
X30885000Y-16675000D01*
X30885000Y-16475000D01*
X31985000Y-16475000D01*
X31985000Y-16675000D01*
G36*
X31985000Y-16675000D02*
G01*
X30885000Y-16675000D01*
X30885000Y-16475000D01*
X31985000Y-16475000D01*
X31985000Y-16675000D01*
G37*
X31985000Y-17075000D02*
X30885000Y-17075000D01*
X30885000Y-16875000D01*
X31985000Y-16875000D01*
X31985000Y-17075000D01*
G36*
X31985000Y-17075000D02*
G01*
X30885000Y-17075000D01*
X30885000Y-16875000D01*
X31985000Y-16875000D01*
X31985000Y-17075000D01*
G37*
X39085000Y-17075000D02*
X37985000Y-17075000D01*
X37985000Y-16875000D01*
X39085000Y-16875000D01*
X39085000Y-17075000D01*
G36*
X39085000Y-17075000D02*
G01*
X37985000Y-17075000D01*
X37985000Y-16875000D01*
X39085000Y-16875000D01*
X39085000Y-17075000D01*
G37*
X31985000Y-17475000D02*
X30885000Y-17475000D01*
X30885000Y-17275000D01*
X31985000Y-17275000D01*
X31985000Y-17475000D01*
G36*
X31985000Y-17475000D02*
G01*
X30885000Y-17475000D01*
X30885000Y-17275000D01*
X31985000Y-17275000D01*
X31985000Y-17475000D01*
G37*
X39085000Y-17475000D02*
X37985000Y-17475000D01*
X37985000Y-17275000D01*
X39085000Y-17275000D01*
X39085000Y-17475000D01*
G36*
X39085000Y-17475000D02*
G01*
X37985000Y-17475000D01*
X37985000Y-17275000D01*
X39085000Y-17275000D01*
X39085000Y-17475000D01*
G37*
X39085000Y-17875000D02*
X37985000Y-17875000D01*
X37985000Y-17675000D01*
X39085000Y-17675000D01*
X39085000Y-17875000D01*
G36*
X39085000Y-17875000D02*
G01*
X37985000Y-17875000D01*
X37985000Y-17675000D01*
X39085000Y-17675000D01*
X39085000Y-17875000D01*
G37*
X31985000Y-17875000D02*
X30885000Y-17875000D01*
X30885000Y-17675000D01*
X31985000Y-17675000D01*
X31985000Y-17875000D01*
G36*
X31985000Y-17875000D02*
G01*
X30885000Y-17875000D01*
X30885000Y-17675000D01*
X31985000Y-17675000D01*
X31985000Y-17875000D01*
G37*
X39085000Y-18275000D02*
X37985000Y-18275000D01*
X37985000Y-18075000D01*
X39085000Y-18075000D01*
X39085000Y-18275000D01*
G36*
X39085000Y-18275000D02*
G01*
X37985000Y-18275000D01*
X37985000Y-18075000D01*
X39085000Y-18075000D01*
X39085000Y-18275000D01*
G37*
X31985000Y-18275000D02*
X30885000Y-18275000D01*
X30885000Y-18075000D01*
X31985000Y-18075000D01*
X31985000Y-18275000D01*
G36*
X31985000Y-18275000D02*
G01*
X30885000Y-18275000D01*
X30885000Y-18075000D01*
X31985000Y-18075000D01*
X31985000Y-18275000D01*
G37*
X31985000Y-18675000D02*
X30885000Y-18675000D01*
X30885000Y-18475000D01*
X31985000Y-18475000D01*
X31985000Y-18675000D01*
G36*
X31985000Y-18675000D02*
G01*
X30885000Y-18675000D01*
X30885000Y-18475000D01*
X31985000Y-18475000D01*
X31985000Y-18675000D01*
G37*
X39085000Y-18675000D02*
X37985000Y-18675000D01*
X37985000Y-18475000D01*
X39085000Y-18475000D01*
X39085000Y-18675000D01*
G36*
X39085000Y-18675000D02*
G01*
X37985000Y-18675000D01*
X37985000Y-18475000D01*
X39085000Y-18475000D01*
X39085000Y-18675000D01*
G37*
X31985000Y-19075000D02*
X30885000Y-19075000D01*
X30885000Y-18875000D01*
X31985000Y-18875000D01*
X31985000Y-19075000D01*
G36*
X31985000Y-19075000D02*
G01*
X30885000Y-19075000D01*
X30885000Y-18875000D01*
X31985000Y-18875000D01*
X31985000Y-19075000D01*
G37*
X39085000Y-19075000D02*
X37985000Y-19075000D01*
X37985000Y-18875000D01*
X39085000Y-18875000D01*
X39085000Y-19075000D01*
G36*
X39085000Y-19075000D02*
G01*
X37985000Y-19075000D01*
X37985000Y-18875000D01*
X39085000Y-18875000D01*
X39085000Y-19075000D01*
G37*
X31985000Y-19475000D02*
X30885000Y-19475000D01*
X30885000Y-19275000D01*
X31985000Y-19275000D01*
X31985000Y-19475000D01*
G36*
X31985000Y-19475000D02*
G01*
X30885000Y-19475000D01*
X30885000Y-19275000D01*
X31985000Y-19275000D01*
X31985000Y-19475000D01*
G37*
X39085000Y-19475000D02*
X37985000Y-19475000D01*
X37985000Y-19275000D01*
X39085000Y-19275000D01*
X39085000Y-19475000D01*
G36*
X39085000Y-19475000D02*
G01*
X37985000Y-19475000D01*
X37985000Y-19275000D01*
X39085000Y-19275000D01*
X39085000Y-19475000D01*
G37*
X39085000Y-19875000D02*
X37985000Y-19875000D01*
X37985000Y-19675000D01*
X39085000Y-19675000D01*
X39085000Y-19875000D01*
G36*
X39085000Y-19875000D02*
G01*
X37985000Y-19875000D01*
X37985000Y-19675000D01*
X39085000Y-19675000D01*
X39085000Y-19875000D01*
G37*
X31985000Y-19875000D02*
X30885000Y-19875000D01*
X30885000Y-19675000D01*
X31985000Y-19675000D01*
X31985000Y-19875000D01*
G36*
X31985000Y-19875000D02*
G01*
X30885000Y-19875000D01*
X30885000Y-19675000D01*
X31985000Y-19675000D01*
X31985000Y-19875000D01*
G37*
X39085000Y-20275000D02*
X37985000Y-20275000D01*
X37985000Y-20075000D01*
X39085000Y-20075000D01*
X39085000Y-20275000D01*
G36*
X39085000Y-20275000D02*
G01*
X37985000Y-20275000D01*
X37985000Y-20075000D01*
X39085000Y-20075000D01*
X39085000Y-20275000D01*
G37*
X31985000Y-20275000D02*
X30885000Y-20275000D01*
X30885000Y-20075000D01*
X31985000Y-20075000D01*
X31985000Y-20275000D01*
G36*
X31985000Y-20275000D02*
G01*
X30885000Y-20275000D01*
X30885000Y-20075000D01*
X31985000Y-20075000D01*
X31985000Y-20275000D01*
G37*
X35285000Y-21675000D02*
X35085000Y-21675000D01*
X35085000Y-20575000D01*
X35285000Y-20575000D01*
X35285000Y-21675000D01*
G36*
X35285000Y-21675000D02*
G01*
X35085000Y-21675000D01*
X35085000Y-20575000D01*
X35285000Y-20575000D01*
X35285000Y-21675000D01*
G37*
X32485000Y-21675000D02*
X32285000Y-21675000D01*
X32285000Y-20575000D01*
X32485000Y-20575000D01*
X32485000Y-21675000D01*
G36*
X32485000Y-21675000D02*
G01*
X32285000Y-21675000D01*
X32285000Y-20575000D01*
X32485000Y-20575000D01*
X32485000Y-21675000D01*
G37*
X37685000Y-21675000D02*
X37485000Y-21675000D01*
X37485000Y-20575000D01*
X37685000Y-20575000D01*
X37685000Y-21675000D01*
G36*
X37685000Y-21675000D02*
G01*
X37485000Y-21675000D01*
X37485000Y-20575000D01*
X37685000Y-20575000D01*
X37685000Y-21675000D01*
G37*
X37285000Y-21675000D02*
X37085000Y-21675000D01*
X37085000Y-20575000D01*
X37285000Y-20575000D01*
X37285000Y-21675000D01*
G36*
X37285000Y-21675000D02*
G01*
X37085000Y-21675000D01*
X37085000Y-20575000D01*
X37285000Y-20575000D01*
X37285000Y-21675000D01*
G37*
X36885000Y-21675000D02*
X36685000Y-21675000D01*
X36685000Y-20575000D01*
X36885000Y-20575000D01*
X36885000Y-21675000D01*
G36*
X36885000Y-21675000D02*
G01*
X36685000Y-21675000D01*
X36685000Y-20575000D01*
X36885000Y-20575000D01*
X36885000Y-21675000D01*
G37*
X36485000Y-21675000D02*
X36285000Y-21675000D01*
X36285000Y-20575000D01*
X36485000Y-20575000D01*
X36485000Y-21675000D01*
G36*
X36485000Y-21675000D02*
G01*
X36285000Y-21675000D01*
X36285000Y-20575000D01*
X36485000Y-20575000D01*
X36485000Y-21675000D01*
G37*
X36085000Y-21675000D02*
X35885000Y-21675000D01*
X35885000Y-20575000D01*
X36085000Y-20575000D01*
X36085000Y-21675000D01*
G36*
X36085000Y-21675000D02*
G01*
X35885000Y-21675000D01*
X35885000Y-20575000D01*
X36085000Y-20575000D01*
X36085000Y-21675000D01*
G37*
X35685000Y-21675000D02*
X35485000Y-21675000D01*
X35485000Y-20575000D01*
X35685000Y-20575000D01*
X35685000Y-21675000D01*
G36*
X35685000Y-21675000D02*
G01*
X35485000Y-21675000D01*
X35485000Y-20575000D01*
X35685000Y-20575000D01*
X35685000Y-21675000D01*
G37*
X34885000Y-21675000D02*
X34685000Y-21675000D01*
X34685000Y-20575000D01*
X34885000Y-20575000D01*
X34885000Y-21675000D01*
G36*
X34885000Y-21675000D02*
G01*
X34685000Y-21675000D01*
X34685000Y-20575000D01*
X34885000Y-20575000D01*
X34885000Y-21675000D01*
G37*
X34485000Y-21675000D02*
X34285000Y-21675000D01*
X34285000Y-20575000D01*
X34485000Y-20575000D01*
X34485000Y-21675000D01*
G36*
X34485000Y-21675000D02*
G01*
X34285000Y-21675000D01*
X34285000Y-20575000D01*
X34485000Y-20575000D01*
X34485000Y-21675000D01*
G37*
X34085000Y-21675000D02*
X33885000Y-21675000D01*
X33885000Y-20575000D01*
X34085000Y-20575000D01*
X34085000Y-21675000D01*
G36*
X34085000Y-21675000D02*
G01*
X33885000Y-21675000D01*
X33885000Y-20575000D01*
X34085000Y-20575000D01*
X34085000Y-21675000D01*
G37*
X33685000Y-21675000D02*
X33485000Y-21675000D01*
X33485000Y-20575000D01*
X33685000Y-20575000D01*
X33685000Y-21675000D01*
G36*
X33685000Y-21675000D02*
G01*
X33485000Y-21675000D01*
X33485000Y-20575000D01*
X33685000Y-20575000D01*
X33685000Y-21675000D01*
G37*
X33285000Y-21675000D02*
X33085000Y-21675000D01*
X33085000Y-20575000D01*
X33285000Y-20575000D01*
X33285000Y-21675000D01*
G36*
X33285000Y-21675000D02*
G01*
X33085000Y-21675000D01*
X33085000Y-20575000D01*
X33285000Y-20575000D01*
X33285000Y-21675000D01*
G37*
X32885000Y-21675000D02*
X32685000Y-21675000D01*
X32685000Y-20575000D01*
X32885000Y-20575000D01*
X32885000Y-21675000D01*
G36*
X32885000Y-21675000D02*
G01*
X32685000Y-21675000D01*
X32685000Y-20575000D01*
X32885000Y-20575000D01*
X32885000Y-21675000D01*
G37*
X58285000Y-45695000D02*
X58085000Y-45695000D01*
X58085000Y-44595000D01*
X58285000Y-44595000D01*
X58285000Y-45695000D01*
G36*
X58285000Y-45695000D02*
G01*
X58085000Y-45695000D01*
X58085000Y-44595000D01*
X58285000Y-44595000D01*
X58285000Y-45695000D01*
G37*
X57885000Y-45695000D02*
X57685000Y-45695000D01*
X57685000Y-44595000D01*
X57885000Y-44595000D01*
X57885000Y-45695000D01*
G36*
X57885000Y-45695000D02*
G01*
X57685000Y-45695000D01*
X57685000Y-44595000D01*
X57885000Y-44595000D01*
X57885000Y-45695000D01*
G37*
X57485000Y-45695000D02*
X57285000Y-45695000D01*
X57285000Y-44595000D01*
X57485000Y-44595000D01*
X57485000Y-45695000D01*
G36*
X57485000Y-45695000D02*
G01*
X57285000Y-45695000D01*
X57285000Y-44595000D01*
X57485000Y-44595000D01*
X57485000Y-45695000D01*
G37*
X57085000Y-45695000D02*
X56885000Y-45695000D01*
X56885000Y-44595000D01*
X57085000Y-44595000D01*
X57085000Y-45695000D01*
G36*
X57085000Y-45695000D02*
G01*
X56885000Y-45695000D01*
X56885000Y-44595000D01*
X57085000Y-44595000D01*
X57085000Y-45695000D01*
G37*
X56685000Y-45695000D02*
X56485000Y-45695000D01*
X56485000Y-44595000D01*
X56685000Y-44595000D01*
X56685000Y-45695000D01*
G36*
X56685000Y-45695000D02*
G01*
X56485000Y-45695000D01*
X56485000Y-44595000D01*
X56685000Y-44595000D01*
X56685000Y-45695000D01*
G37*
X56285000Y-45695000D02*
X56085000Y-45695000D01*
X56085000Y-44595000D01*
X56285000Y-44595000D01*
X56285000Y-45695000D01*
G36*
X56285000Y-45695000D02*
G01*
X56085000Y-45695000D01*
X56085000Y-44595000D01*
X56285000Y-44595000D01*
X56285000Y-45695000D01*
G37*
X55885000Y-45695000D02*
X55685000Y-45695000D01*
X55685000Y-44595000D01*
X55885000Y-44595000D01*
X55885000Y-45695000D01*
G36*
X55885000Y-45695000D02*
G01*
X55685000Y-45695000D01*
X55685000Y-44595000D01*
X55885000Y-44595000D01*
X55885000Y-45695000D01*
G37*
X55085000Y-45695000D02*
X54885000Y-45695000D01*
X54885000Y-44595000D01*
X55085000Y-44595000D01*
X55085000Y-45695000D01*
G36*
X55085000Y-45695000D02*
G01*
X54885000Y-45695000D01*
X54885000Y-44595000D01*
X55085000Y-44595000D01*
X55085000Y-45695000D01*
G37*
X54685000Y-45695000D02*
X54485000Y-45695000D01*
X54485000Y-44595000D01*
X54685000Y-44595000D01*
X54685000Y-45695000D01*
G36*
X54685000Y-45695000D02*
G01*
X54485000Y-45695000D01*
X54485000Y-44595000D01*
X54685000Y-44595000D01*
X54685000Y-45695000D01*
G37*
X54285000Y-45695000D02*
X54085000Y-45695000D01*
X54085000Y-44595000D01*
X54285000Y-44595000D01*
X54285000Y-45695000D01*
G36*
X54285000Y-45695000D02*
G01*
X54085000Y-45695000D01*
X54085000Y-44595000D01*
X54285000Y-44595000D01*
X54285000Y-45695000D01*
G37*
X53885000Y-45695000D02*
X53685000Y-45695000D01*
X53685000Y-44595000D01*
X53885000Y-44595000D01*
X53885000Y-45695000D01*
G36*
X53885000Y-45695000D02*
G01*
X53685000Y-45695000D01*
X53685000Y-44595000D01*
X53885000Y-44595000D01*
X53885000Y-45695000D01*
G37*
X53485000Y-45695000D02*
X53285000Y-45695000D01*
X53285000Y-44595000D01*
X53485000Y-44595000D01*
X53485000Y-45695000D01*
G36*
X53485000Y-45695000D02*
G01*
X53285000Y-45695000D01*
X53285000Y-44595000D01*
X53485000Y-44595000D01*
X53485000Y-45695000D01*
G37*
X53085000Y-45695000D02*
X52885000Y-45695000D01*
X52885000Y-44595000D01*
X53085000Y-44595000D01*
X53085000Y-45695000D01*
G36*
X53085000Y-45695000D02*
G01*
X52885000Y-45695000D01*
X52885000Y-44595000D01*
X53085000Y-44595000D01*
X53085000Y-45695000D01*
G37*
X55485000Y-45695000D02*
X55285000Y-45695000D01*
X55285000Y-44595000D01*
X55485000Y-44595000D01*
X55485000Y-45695000D01*
G36*
X55485000Y-45695000D02*
G01*
X55285000Y-45695000D01*
X55285000Y-44595000D01*
X55485000Y-44595000D01*
X55485000Y-45695000D01*
G37*
X59685000Y-46195000D02*
X58585000Y-46195000D01*
X58585000Y-45995000D01*
X59685000Y-45995000D01*
X59685000Y-46195000D01*
G36*
X59685000Y-46195000D02*
G01*
X58585000Y-46195000D01*
X58585000Y-45995000D01*
X59685000Y-45995000D01*
X59685000Y-46195000D01*
G37*
X52585000Y-46195000D02*
X51485000Y-46195000D01*
X51485000Y-45995000D01*
X52585000Y-45995000D01*
X52585000Y-46195000D01*
G36*
X52585000Y-46195000D02*
G01*
X51485000Y-46195000D01*
X51485000Y-45995000D01*
X52585000Y-45995000D01*
X52585000Y-46195000D01*
G37*
X59685000Y-46595000D02*
X58585000Y-46595000D01*
X58585000Y-46395000D01*
X59685000Y-46395000D01*
X59685000Y-46595000D01*
G36*
X59685000Y-46595000D02*
G01*
X58585000Y-46595000D01*
X58585000Y-46395000D01*
X59685000Y-46395000D01*
X59685000Y-46595000D01*
G37*
X52585000Y-46595000D02*
X51485000Y-46595000D01*
X51485000Y-46395000D01*
X52585000Y-46395000D01*
X52585000Y-46595000D01*
G36*
X52585000Y-46595000D02*
G01*
X51485000Y-46595000D01*
X51485000Y-46395000D01*
X52585000Y-46395000D01*
X52585000Y-46595000D01*
G37*
X52585000Y-46995000D02*
X51485000Y-46995000D01*
X51485000Y-46795000D01*
X52585000Y-46795000D01*
X52585000Y-46995000D01*
G36*
X52585000Y-46995000D02*
G01*
X51485000Y-46995000D01*
X51485000Y-46795000D01*
X52585000Y-46795000D01*
X52585000Y-46995000D01*
G37*
X59685000Y-46995000D02*
X58585000Y-46995000D01*
X58585000Y-46795000D01*
X59685000Y-46795000D01*
X59685000Y-46995000D01*
G36*
X59685000Y-46995000D02*
G01*
X58585000Y-46995000D01*
X58585000Y-46795000D01*
X59685000Y-46795000D01*
X59685000Y-46995000D01*
G37*
X52585000Y-47395000D02*
X51485000Y-47395000D01*
X51485000Y-47195000D01*
X52585000Y-47195000D01*
X52585000Y-47395000D01*
G36*
X52585000Y-47395000D02*
G01*
X51485000Y-47395000D01*
X51485000Y-47195000D01*
X52585000Y-47195000D01*
X52585000Y-47395000D01*
G37*
X59685000Y-47395000D02*
X58585000Y-47395000D01*
X58585000Y-47195000D01*
X59685000Y-47195000D01*
X59685000Y-47395000D01*
G36*
X59685000Y-47395000D02*
G01*
X58585000Y-47395000D01*
X58585000Y-47195000D01*
X59685000Y-47195000D01*
X59685000Y-47395000D01*
G37*
X56825000Y-49935000D02*
X54345000Y-49935000D01*
X54345000Y-47455000D01*
X56825000Y-47455000D01*
X56825000Y-49935000D01*
G36*
X56825000Y-49935000D02*
G01*
X54345000Y-49935000D01*
X54345000Y-47455000D01*
X56825000Y-47455000D01*
X56825000Y-49935000D01*
G37*
X59685000Y-47795000D02*
X58585000Y-47795000D01*
X58585000Y-47595000D01*
X59685000Y-47595000D01*
X59685000Y-47795000D01*
G36*
X59685000Y-47795000D02*
G01*
X58585000Y-47795000D01*
X58585000Y-47595000D01*
X59685000Y-47595000D01*
X59685000Y-47795000D01*
G37*
X52585000Y-47795000D02*
X51485000Y-47795000D01*
X51485000Y-47595000D01*
X52585000Y-47595000D01*
X52585000Y-47795000D01*
G36*
X52585000Y-47795000D02*
G01*
X51485000Y-47795000D01*
X51485000Y-47595000D01*
X52585000Y-47595000D01*
X52585000Y-47795000D01*
G37*
X52585000Y-48195000D02*
X51485000Y-48195000D01*
X51485000Y-47995000D01*
X52585000Y-47995000D01*
X52585000Y-48195000D01*
G36*
X52585000Y-48195000D02*
G01*
X51485000Y-48195000D01*
X51485000Y-47995000D01*
X52585000Y-47995000D01*
X52585000Y-48195000D01*
G37*
X59685000Y-48195000D02*
X58585000Y-48195000D01*
X58585000Y-47995000D01*
X59685000Y-47995000D01*
X59685000Y-48195000D01*
G36*
X59685000Y-48195000D02*
G01*
X58585000Y-48195000D01*
X58585000Y-47995000D01*
X59685000Y-47995000D01*
X59685000Y-48195000D01*
G37*
X52585000Y-48595000D02*
X51485000Y-48595000D01*
X51485000Y-48395000D01*
X52585000Y-48395000D01*
X52585000Y-48595000D01*
G36*
X52585000Y-48595000D02*
G01*
X51485000Y-48595000D01*
X51485000Y-48395000D01*
X52585000Y-48395000D01*
X52585000Y-48595000D01*
G37*
X59685000Y-48595000D02*
X58585000Y-48595000D01*
X58585000Y-48395000D01*
X59685000Y-48395000D01*
X59685000Y-48595000D01*
G36*
X59685000Y-48595000D02*
G01*
X58585000Y-48595000D01*
X58585000Y-48395000D01*
X59685000Y-48395000D01*
X59685000Y-48595000D01*
G37*
X59685000Y-48995000D02*
X58585000Y-48995000D01*
X58585000Y-48795000D01*
X59685000Y-48795000D01*
X59685000Y-48995000D01*
G36*
X59685000Y-48995000D02*
G01*
X58585000Y-48995000D01*
X58585000Y-48795000D01*
X59685000Y-48795000D01*
X59685000Y-48995000D01*
G37*
X52585000Y-48995000D02*
X51485000Y-48995000D01*
X51485000Y-48795000D01*
X52585000Y-48795000D01*
X52585000Y-48995000D01*
G36*
X52585000Y-48995000D02*
G01*
X51485000Y-48995000D01*
X51485000Y-48795000D01*
X52585000Y-48795000D01*
X52585000Y-48995000D01*
G37*
X59685000Y-49395000D02*
X58585000Y-49395000D01*
X58585000Y-49195000D01*
X59685000Y-49195000D01*
X59685000Y-49395000D01*
G36*
X59685000Y-49395000D02*
G01*
X58585000Y-49395000D01*
X58585000Y-49195000D01*
X59685000Y-49195000D01*
X59685000Y-49395000D01*
G37*
X52585000Y-49395000D02*
X51485000Y-49395000D01*
X51485000Y-49195000D01*
X52585000Y-49195000D01*
X52585000Y-49395000D01*
G36*
X52585000Y-49395000D02*
G01*
X51485000Y-49395000D01*
X51485000Y-49195000D01*
X52585000Y-49195000D01*
X52585000Y-49395000D01*
G37*
X52585000Y-49795000D02*
X51485000Y-49795000D01*
X51485000Y-49595000D01*
X52585000Y-49595000D01*
X52585000Y-49795000D01*
G36*
X52585000Y-49795000D02*
G01*
X51485000Y-49795000D01*
X51485000Y-49595000D01*
X52585000Y-49595000D01*
X52585000Y-49795000D01*
G37*
X59685000Y-49795000D02*
X58585000Y-49795000D01*
X58585000Y-49595000D01*
X59685000Y-49595000D01*
X59685000Y-49795000D01*
G36*
X59685000Y-49795000D02*
G01*
X58585000Y-49795000D01*
X58585000Y-49595000D01*
X59685000Y-49595000D01*
X59685000Y-49795000D01*
G37*
X52585000Y-50195000D02*
X51485000Y-50195000D01*
X51485000Y-49995000D01*
X52585000Y-49995000D01*
X52585000Y-50195000D01*
G36*
X52585000Y-50195000D02*
G01*
X51485000Y-50195000D01*
X51485000Y-49995000D01*
X52585000Y-49995000D01*
X52585000Y-50195000D01*
G37*
X59685000Y-50195000D02*
X58585000Y-50195000D01*
X58585000Y-49995000D01*
X59685000Y-49995000D01*
X59685000Y-50195000D01*
G36*
X59685000Y-50195000D02*
G01*
X58585000Y-50195000D01*
X58585000Y-49995000D01*
X59685000Y-49995000D01*
X59685000Y-50195000D01*
G37*
X52585000Y-50595000D02*
X51485000Y-50595000D01*
X51485000Y-50395000D01*
X52585000Y-50395000D01*
X52585000Y-50595000D01*
G36*
X52585000Y-50595000D02*
G01*
X51485000Y-50595000D01*
X51485000Y-50395000D01*
X52585000Y-50395000D01*
X52585000Y-50595000D01*
G37*
X59685000Y-50595000D02*
X58585000Y-50595000D01*
X58585000Y-50395000D01*
X59685000Y-50395000D01*
X59685000Y-50595000D01*
G36*
X59685000Y-50595000D02*
G01*
X58585000Y-50595000D01*
X58585000Y-50395000D01*
X59685000Y-50395000D01*
X59685000Y-50595000D01*
G37*
X59685000Y-50995000D02*
X58585000Y-50995000D01*
X58585000Y-50795000D01*
X59685000Y-50795000D01*
X59685000Y-50995000D01*
G36*
X59685000Y-50995000D02*
G01*
X58585000Y-50995000D01*
X58585000Y-50795000D01*
X59685000Y-50795000D01*
X59685000Y-50995000D01*
G37*
X52585000Y-50995000D02*
X51485000Y-50995000D01*
X51485000Y-50795000D01*
X52585000Y-50795000D01*
X52585000Y-50995000D01*
G36*
X52585000Y-50995000D02*
G01*
X51485000Y-50995000D01*
X51485000Y-50795000D01*
X52585000Y-50795000D01*
X52585000Y-50995000D01*
G37*
X59685000Y-51395000D02*
X58585000Y-51395000D01*
X58585000Y-51195000D01*
X59685000Y-51195000D01*
X59685000Y-51395000D01*
G36*
X59685000Y-51395000D02*
G01*
X58585000Y-51395000D01*
X58585000Y-51195000D01*
X59685000Y-51195000D01*
X59685000Y-51395000D01*
G37*
X52585000Y-51395000D02*
X51485000Y-51395000D01*
X51485000Y-51195000D01*
X52585000Y-51195000D01*
X52585000Y-51395000D01*
G36*
X52585000Y-51395000D02*
G01*
X51485000Y-51395000D01*
X51485000Y-51195000D01*
X52585000Y-51195000D01*
X52585000Y-51395000D01*
G37*
X55885000Y-52795000D02*
X55685000Y-52795000D01*
X55685000Y-51695000D01*
X55885000Y-51695000D01*
X55885000Y-52795000D01*
G36*
X55885000Y-52795000D02*
G01*
X55685000Y-52795000D01*
X55685000Y-51695000D01*
X55885000Y-51695000D01*
X55885000Y-52795000D01*
G37*
X53085000Y-52795000D02*
X52885000Y-52795000D01*
X52885000Y-51695000D01*
X53085000Y-51695000D01*
X53085000Y-52795000D01*
G36*
X53085000Y-52795000D02*
G01*
X52885000Y-52795000D01*
X52885000Y-51695000D01*
X53085000Y-51695000D01*
X53085000Y-52795000D01*
G37*
X58285000Y-52795000D02*
X58085000Y-52795000D01*
X58085000Y-51695000D01*
X58285000Y-51695000D01*
X58285000Y-52795000D01*
G36*
X58285000Y-52795000D02*
G01*
X58085000Y-52795000D01*
X58085000Y-51695000D01*
X58285000Y-51695000D01*
X58285000Y-52795000D01*
G37*
X57885000Y-52795000D02*
X57685000Y-52795000D01*
X57685000Y-51695000D01*
X57885000Y-51695000D01*
X57885000Y-52795000D01*
G36*
X57885000Y-52795000D02*
G01*
X57685000Y-52795000D01*
X57685000Y-51695000D01*
X57885000Y-51695000D01*
X57885000Y-52795000D01*
G37*
X57485000Y-52795000D02*
X57285000Y-52795000D01*
X57285000Y-51695000D01*
X57485000Y-51695000D01*
X57485000Y-52795000D01*
G36*
X57485000Y-52795000D02*
G01*
X57285000Y-52795000D01*
X57285000Y-51695000D01*
X57485000Y-51695000D01*
X57485000Y-52795000D01*
G37*
X57085000Y-52795000D02*
X56885000Y-52795000D01*
X56885000Y-51695000D01*
X57085000Y-51695000D01*
X57085000Y-52795000D01*
G36*
X57085000Y-52795000D02*
G01*
X56885000Y-52795000D01*
X56885000Y-51695000D01*
X57085000Y-51695000D01*
X57085000Y-52795000D01*
G37*
X56685000Y-52795000D02*
X56485000Y-52795000D01*
X56485000Y-51695000D01*
X56685000Y-51695000D01*
X56685000Y-52795000D01*
G36*
X56685000Y-52795000D02*
G01*
X56485000Y-52795000D01*
X56485000Y-51695000D01*
X56685000Y-51695000D01*
X56685000Y-52795000D01*
G37*
X56285000Y-52795000D02*
X56085000Y-52795000D01*
X56085000Y-51695000D01*
X56285000Y-51695000D01*
X56285000Y-52795000D01*
G36*
X56285000Y-52795000D02*
G01*
X56085000Y-52795000D01*
X56085000Y-51695000D01*
X56285000Y-51695000D01*
X56285000Y-52795000D01*
G37*
X55485000Y-52795000D02*
X55285000Y-52795000D01*
X55285000Y-51695000D01*
X55485000Y-51695000D01*
X55485000Y-52795000D01*
G36*
X55485000Y-52795000D02*
G01*
X55285000Y-52795000D01*
X55285000Y-51695000D01*
X55485000Y-51695000D01*
X55485000Y-52795000D01*
G37*
X55085000Y-52795000D02*
X54885000Y-52795000D01*
X54885000Y-51695000D01*
X55085000Y-51695000D01*
X55085000Y-52795000D01*
G36*
X55085000Y-52795000D02*
G01*
X54885000Y-52795000D01*
X54885000Y-51695000D01*
X55085000Y-51695000D01*
X55085000Y-52795000D01*
G37*
X54685000Y-52795000D02*
X54485000Y-52795000D01*
X54485000Y-51695000D01*
X54685000Y-51695000D01*
X54685000Y-52795000D01*
G36*
X54685000Y-52795000D02*
G01*
X54485000Y-52795000D01*
X54485000Y-51695000D01*
X54685000Y-51695000D01*
X54685000Y-52795000D01*
G37*
X54285000Y-52795000D02*
X54085000Y-52795000D01*
X54085000Y-51695000D01*
X54285000Y-51695000D01*
X54285000Y-52795000D01*
G36*
X54285000Y-52795000D02*
G01*
X54085000Y-52795000D01*
X54085000Y-51695000D01*
X54285000Y-51695000D01*
X54285000Y-52795000D01*
G37*
X53885000Y-52795000D02*
X53685000Y-52795000D01*
X53685000Y-51695000D01*
X53885000Y-51695000D01*
X53885000Y-52795000D01*
G36*
X53885000Y-52795000D02*
G01*
X53685000Y-52795000D01*
X53685000Y-51695000D01*
X53885000Y-51695000D01*
X53885000Y-52795000D01*
G37*
X53485000Y-52795000D02*
X53285000Y-52795000D01*
X53285000Y-51695000D01*
X53485000Y-51695000D01*
X53485000Y-52795000D01*
G36*
X53485000Y-52795000D02*
G01*
X53285000Y-52795000D01*
X53285000Y-51695000D01*
X53485000Y-51695000D01*
X53485000Y-52795000D01*
G37*
X58285000Y-14575000D02*
X58085000Y-14575000D01*
X58085000Y-13475000D01*
X58285000Y-13475000D01*
X58285000Y-14575000D01*
G36*
X58285000Y-14575000D02*
G01*
X58085000Y-14575000D01*
X58085000Y-13475000D01*
X58285000Y-13475000D01*
X58285000Y-14575000D01*
G37*
X57885000Y-14575000D02*
X57685000Y-14575000D01*
X57685000Y-13475000D01*
X57885000Y-13475000D01*
X57885000Y-14575000D01*
G36*
X57885000Y-14575000D02*
G01*
X57685000Y-14575000D01*
X57685000Y-13475000D01*
X57885000Y-13475000D01*
X57885000Y-14575000D01*
G37*
X57485000Y-14575000D02*
X57285000Y-14575000D01*
X57285000Y-13475000D01*
X57485000Y-13475000D01*
X57485000Y-14575000D01*
G36*
X57485000Y-14575000D02*
G01*
X57285000Y-14575000D01*
X57285000Y-13475000D01*
X57485000Y-13475000D01*
X57485000Y-14575000D01*
G37*
X57085000Y-14575000D02*
X56885000Y-14575000D01*
X56885000Y-13475000D01*
X57085000Y-13475000D01*
X57085000Y-14575000D01*
G36*
X57085000Y-14575000D02*
G01*
X56885000Y-14575000D01*
X56885000Y-13475000D01*
X57085000Y-13475000D01*
X57085000Y-14575000D01*
G37*
X56685000Y-14575000D02*
X56485000Y-14575000D01*
X56485000Y-13475000D01*
X56685000Y-13475000D01*
X56685000Y-14575000D01*
G36*
X56685000Y-14575000D02*
G01*
X56485000Y-14575000D01*
X56485000Y-13475000D01*
X56685000Y-13475000D01*
X56685000Y-14575000D01*
G37*
X56285000Y-14575000D02*
X56085000Y-14575000D01*
X56085000Y-13475000D01*
X56285000Y-13475000D01*
X56285000Y-14575000D01*
G36*
X56285000Y-14575000D02*
G01*
X56085000Y-14575000D01*
X56085000Y-13475000D01*
X56285000Y-13475000D01*
X56285000Y-14575000D01*
G37*
X55885000Y-14575000D02*
X55685000Y-14575000D01*
X55685000Y-13475000D01*
X55885000Y-13475000D01*
X55885000Y-14575000D01*
G36*
X55885000Y-14575000D02*
G01*
X55685000Y-14575000D01*
X55685000Y-13475000D01*
X55885000Y-13475000D01*
X55885000Y-14575000D01*
G37*
X55085000Y-14575000D02*
X54885000Y-14575000D01*
X54885000Y-13475000D01*
X55085000Y-13475000D01*
X55085000Y-14575000D01*
G36*
X55085000Y-14575000D02*
G01*
X54885000Y-14575000D01*
X54885000Y-13475000D01*
X55085000Y-13475000D01*
X55085000Y-14575000D01*
G37*
X54685000Y-14575000D02*
X54485000Y-14575000D01*
X54485000Y-13475000D01*
X54685000Y-13475000D01*
X54685000Y-14575000D01*
G36*
X54685000Y-14575000D02*
G01*
X54485000Y-14575000D01*
X54485000Y-13475000D01*
X54685000Y-13475000D01*
X54685000Y-14575000D01*
G37*
X54285000Y-14575000D02*
X54085000Y-14575000D01*
X54085000Y-13475000D01*
X54285000Y-13475000D01*
X54285000Y-14575000D01*
G36*
X54285000Y-14575000D02*
G01*
X54085000Y-14575000D01*
X54085000Y-13475000D01*
X54285000Y-13475000D01*
X54285000Y-14575000D01*
G37*
X53885000Y-14575000D02*
X53685000Y-14575000D01*
X53685000Y-13475000D01*
X53885000Y-13475000D01*
X53885000Y-14575000D01*
G36*
X53885000Y-14575000D02*
G01*
X53685000Y-14575000D01*
X53685000Y-13475000D01*
X53885000Y-13475000D01*
X53885000Y-14575000D01*
G37*
X53485000Y-14575000D02*
X53285000Y-14575000D01*
X53285000Y-13475000D01*
X53485000Y-13475000D01*
X53485000Y-14575000D01*
G36*
X53485000Y-14575000D02*
G01*
X53285000Y-14575000D01*
X53285000Y-13475000D01*
X53485000Y-13475000D01*
X53485000Y-14575000D01*
G37*
X53085000Y-14575000D02*
X52885000Y-14575000D01*
X52885000Y-13475000D01*
X53085000Y-13475000D01*
X53085000Y-14575000D01*
G36*
X53085000Y-14575000D02*
G01*
X52885000Y-14575000D01*
X52885000Y-13475000D01*
X53085000Y-13475000D01*
X53085000Y-14575000D01*
G37*
X55485000Y-14575000D02*
X55285000Y-14575000D01*
X55285000Y-13475000D01*
X55485000Y-13475000D01*
X55485000Y-14575000D01*
G36*
X55485000Y-14575000D02*
G01*
X55285000Y-14575000D01*
X55285000Y-13475000D01*
X55485000Y-13475000D01*
X55485000Y-14575000D01*
G37*
X59685000Y-15075000D02*
X58585000Y-15075000D01*
X58585000Y-14875000D01*
X59685000Y-14875000D01*
X59685000Y-15075000D01*
G36*
X59685000Y-15075000D02*
G01*
X58585000Y-15075000D01*
X58585000Y-14875000D01*
X59685000Y-14875000D01*
X59685000Y-15075000D01*
G37*
X52585000Y-15075000D02*
X51485000Y-15075000D01*
X51485000Y-14875000D01*
X52585000Y-14875000D01*
X52585000Y-15075000D01*
G36*
X52585000Y-15075000D02*
G01*
X51485000Y-15075000D01*
X51485000Y-14875000D01*
X52585000Y-14875000D01*
X52585000Y-15075000D01*
G37*
X59685000Y-15475000D02*
X58585000Y-15475000D01*
X58585000Y-15275000D01*
X59685000Y-15275000D01*
X59685000Y-15475000D01*
G36*
X59685000Y-15475000D02*
G01*
X58585000Y-15475000D01*
X58585000Y-15275000D01*
X59685000Y-15275000D01*
X59685000Y-15475000D01*
G37*
X52585000Y-15475000D02*
X51485000Y-15475000D01*
X51485000Y-15275000D01*
X52585000Y-15275000D01*
X52585000Y-15475000D01*
G36*
X52585000Y-15475000D02*
G01*
X51485000Y-15475000D01*
X51485000Y-15275000D01*
X52585000Y-15275000D01*
X52585000Y-15475000D01*
G37*
X52585000Y-15875000D02*
X51485000Y-15875000D01*
X51485000Y-15675000D01*
X52585000Y-15675000D01*
X52585000Y-15875000D01*
G36*
X52585000Y-15875000D02*
G01*
X51485000Y-15875000D01*
X51485000Y-15675000D01*
X52585000Y-15675000D01*
X52585000Y-15875000D01*
G37*
X59685000Y-15875000D02*
X58585000Y-15875000D01*
X58585000Y-15675000D01*
X59685000Y-15675000D01*
X59685000Y-15875000D01*
G36*
X59685000Y-15875000D02*
G01*
X58585000Y-15875000D01*
X58585000Y-15675000D01*
X59685000Y-15675000D01*
X59685000Y-15875000D01*
G37*
X52585000Y-16275000D02*
X51485000Y-16275000D01*
X51485000Y-16075000D01*
X52585000Y-16075000D01*
X52585000Y-16275000D01*
G36*
X52585000Y-16275000D02*
G01*
X51485000Y-16275000D01*
X51485000Y-16075000D01*
X52585000Y-16075000D01*
X52585000Y-16275000D01*
G37*
X59685000Y-16275000D02*
X58585000Y-16275000D01*
X58585000Y-16075000D01*
X59685000Y-16075000D01*
X59685000Y-16275000D01*
G36*
X59685000Y-16275000D02*
G01*
X58585000Y-16275000D01*
X58585000Y-16075000D01*
X59685000Y-16075000D01*
X59685000Y-16275000D01*
G37*
X56825000Y-18815000D02*
X54345000Y-18815000D01*
X54345000Y-16335000D01*
X56825000Y-16335000D01*
X56825000Y-18815000D01*
G36*
X56825000Y-18815000D02*
G01*
X54345000Y-18815000D01*
X54345000Y-16335000D01*
X56825000Y-16335000D01*
X56825000Y-18815000D01*
G37*
X59685000Y-16675000D02*
X58585000Y-16675000D01*
X58585000Y-16475000D01*
X59685000Y-16475000D01*
X59685000Y-16675000D01*
G36*
X59685000Y-16675000D02*
G01*
X58585000Y-16675000D01*
X58585000Y-16475000D01*
X59685000Y-16475000D01*
X59685000Y-16675000D01*
G37*
X52585000Y-16675000D02*
X51485000Y-16675000D01*
X51485000Y-16475000D01*
X52585000Y-16475000D01*
X52585000Y-16675000D01*
G36*
X52585000Y-16675000D02*
G01*
X51485000Y-16675000D01*
X51485000Y-16475000D01*
X52585000Y-16475000D01*
X52585000Y-16675000D01*
G37*
X52585000Y-17075000D02*
X51485000Y-17075000D01*
X51485000Y-16875000D01*
X52585000Y-16875000D01*
X52585000Y-17075000D01*
G36*
X52585000Y-17075000D02*
G01*
X51485000Y-17075000D01*
X51485000Y-16875000D01*
X52585000Y-16875000D01*
X52585000Y-17075000D01*
G37*
X59685000Y-17075000D02*
X58585000Y-17075000D01*
X58585000Y-16875000D01*
X59685000Y-16875000D01*
X59685000Y-17075000D01*
G36*
X59685000Y-17075000D02*
G01*
X58585000Y-17075000D01*
X58585000Y-16875000D01*
X59685000Y-16875000D01*
X59685000Y-17075000D01*
G37*
X52585000Y-17475000D02*
X51485000Y-17475000D01*
X51485000Y-17275000D01*
X52585000Y-17275000D01*
X52585000Y-17475000D01*
G36*
X52585000Y-17475000D02*
G01*
X51485000Y-17475000D01*
X51485000Y-17275000D01*
X52585000Y-17275000D01*
X52585000Y-17475000D01*
G37*
X59685000Y-17475000D02*
X58585000Y-17475000D01*
X58585000Y-17275000D01*
X59685000Y-17275000D01*
X59685000Y-17475000D01*
G36*
X59685000Y-17475000D02*
G01*
X58585000Y-17475000D01*
X58585000Y-17275000D01*
X59685000Y-17275000D01*
X59685000Y-17475000D01*
G37*
X59685000Y-17875000D02*
X58585000Y-17875000D01*
X58585000Y-17675000D01*
X59685000Y-17675000D01*
X59685000Y-17875000D01*
G36*
X59685000Y-17875000D02*
G01*
X58585000Y-17875000D01*
X58585000Y-17675000D01*
X59685000Y-17675000D01*
X59685000Y-17875000D01*
G37*
X52585000Y-17875000D02*
X51485000Y-17875000D01*
X51485000Y-17675000D01*
X52585000Y-17675000D01*
X52585000Y-17875000D01*
G36*
X52585000Y-17875000D02*
G01*
X51485000Y-17875000D01*
X51485000Y-17675000D01*
X52585000Y-17675000D01*
X52585000Y-17875000D01*
G37*
X59685000Y-18275000D02*
X58585000Y-18275000D01*
X58585000Y-18075000D01*
X59685000Y-18075000D01*
X59685000Y-18275000D01*
G36*
X59685000Y-18275000D02*
G01*
X58585000Y-18275000D01*
X58585000Y-18075000D01*
X59685000Y-18075000D01*
X59685000Y-18275000D01*
G37*
X52585000Y-18275000D02*
X51485000Y-18275000D01*
X51485000Y-18075000D01*
X52585000Y-18075000D01*
X52585000Y-18275000D01*
G36*
X52585000Y-18275000D02*
G01*
X51485000Y-18275000D01*
X51485000Y-18075000D01*
X52585000Y-18075000D01*
X52585000Y-18275000D01*
G37*
X52585000Y-18675000D02*
X51485000Y-18675000D01*
X51485000Y-18475000D01*
X52585000Y-18475000D01*
X52585000Y-18675000D01*
G36*
X52585000Y-18675000D02*
G01*
X51485000Y-18675000D01*
X51485000Y-18475000D01*
X52585000Y-18475000D01*
X52585000Y-18675000D01*
G37*
X59685000Y-18675000D02*
X58585000Y-18675000D01*
X58585000Y-18475000D01*
X59685000Y-18475000D01*
X59685000Y-18675000D01*
G36*
X59685000Y-18675000D02*
G01*
X58585000Y-18675000D01*
X58585000Y-18475000D01*
X59685000Y-18475000D01*
X59685000Y-18675000D01*
G37*
X52585000Y-19075000D02*
X51485000Y-19075000D01*
X51485000Y-18875000D01*
X52585000Y-18875000D01*
X52585000Y-19075000D01*
G36*
X52585000Y-19075000D02*
G01*
X51485000Y-19075000D01*
X51485000Y-18875000D01*
X52585000Y-18875000D01*
X52585000Y-19075000D01*
G37*
X59685000Y-19075000D02*
X58585000Y-19075000D01*
X58585000Y-18875000D01*
X59685000Y-18875000D01*
X59685000Y-19075000D01*
G36*
X59685000Y-19075000D02*
G01*
X58585000Y-19075000D01*
X58585000Y-18875000D01*
X59685000Y-18875000D01*
X59685000Y-19075000D01*
G37*
X52585000Y-19475000D02*
X51485000Y-19475000D01*
X51485000Y-19275000D01*
X52585000Y-19275000D01*
X52585000Y-19475000D01*
G36*
X52585000Y-19475000D02*
G01*
X51485000Y-19475000D01*
X51485000Y-19275000D01*
X52585000Y-19275000D01*
X52585000Y-19475000D01*
G37*
X59685000Y-19475000D02*
X58585000Y-19475000D01*
X58585000Y-19275000D01*
X59685000Y-19275000D01*
X59685000Y-19475000D01*
G36*
X59685000Y-19475000D02*
G01*
X58585000Y-19475000D01*
X58585000Y-19275000D01*
X59685000Y-19275000D01*
X59685000Y-19475000D01*
G37*
X59685000Y-19875000D02*
X58585000Y-19875000D01*
X58585000Y-19675000D01*
X59685000Y-19675000D01*
X59685000Y-19875000D01*
G36*
X59685000Y-19875000D02*
G01*
X58585000Y-19875000D01*
X58585000Y-19675000D01*
X59685000Y-19675000D01*
X59685000Y-19875000D01*
G37*
X52585000Y-19875000D02*
X51485000Y-19875000D01*
X51485000Y-19675000D01*
X52585000Y-19675000D01*
X52585000Y-19875000D01*
G36*
X52585000Y-19875000D02*
G01*
X51485000Y-19875000D01*
X51485000Y-19675000D01*
X52585000Y-19675000D01*
X52585000Y-19875000D01*
G37*
X59685000Y-20275000D02*
X58585000Y-20275000D01*
X58585000Y-20075000D01*
X59685000Y-20075000D01*
X59685000Y-20275000D01*
G36*
X59685000Y-20275000D02*
G01*
X58585000Y-20275000D01*
X58585000Y-20075000D01*
X59685000Y-20075000D01*
X59685000Y-20275000D01*
G37*
X52585000Y-20275000D02*
X51485000Y-20275000D01*
X51485000Y-20075000D01*
X52585000Y-20075000D01*
X52585000Y-20275000D01*
G36*
X52585000Y-20275000D02*
G01*
X51485000Y-20275000D01*
X51485000Y-20075000D01*
X52585000Y-20075000D01*
X52585000Y-20275000D01*
G37*
X55885000Y-21675000D02*
X55685000Y-21675000D01*
X55685000Y-20575000D01*
X55885000Y-20575000D01*
X55885000Y-21675000D01*
G36*
X55885000Y-21675000D02*
G01*
X55685000Y-21675000D01*
X55685000Y-20575000D01*
X55885000Y-20575000D01*
X55885000Y-21675000D01*
G37*
X53085000Y-21675000D02*
X52885000Y-21675000D01*
X52885000Y-20575000D01*
X53085000Y-20575000D01*
X53085000Y-21675000D01*
G36*
X53085000Y-21675000D02*
G01*
X52885000Y-21675000D01*
X52885000Y-20575000D01*
X53085000Y-20575000D01*
X53085000Y-21675000D01*
G37*
X58285000Y-21675000D02*
X58085000Y-21675000D01*
X58085000Y-20575000D01*
X58285000Y-20575000D01*
X58285000Y-21675000D01*
G36*
X58285000Y-21675000D02*
G01*
X58085000Y-21675000D01*
X58085000Y-20575000D01*
X58285000Y-20575000D01*
X58285000Y-21675000D01*
G37*
X57885000Y-21675000D02*
X57685000Y-21675000D01*
X57685000Y-20575000D01*
X57885000Y-20575000D01*
X57885000Y-21675000D01*
G36*
X57885000Y-21675000D02*
G01*
X57685000Y-21675000D01*
X57685000Y-20575000D01*
X57885000Y-20575000D01*
X57885000Y-21675000D01*
G37*
X57485000Y-21675000D02*
X57285000Y-21675000D01*
X57285000Y-20575000D01*
X57485000Y-20575000D01*
X57485000Y-21675000D01*
G36*
X57485000Y-21675000D02*
G01*
X57285000Y-21675000D01*
X57285000Y-20575000D01*
X57485000Y-20575000D01*
X57485000Y-21675000D01*
G37*
X57085000Y-21675000D02*
X56885000Y-21675000D01*
X56885000Y-20575000D01*
X57085000Y-20575000D01*
X57085000Y-21675000D01*
G36*
X57085000Y-21675000D02*
G01*
X56885000Y-21675000D01*
X56885000Y-20575000D01*
X57085000Y-20575000D01*
X57085000Y-21675000D01*
G37*
X56685000Y-21675000D02*
X56485000Y-21675000D01*
X56485000Y-20575000D01*
X56685000Y-20575000D01*
X56685000Y-21675000D01*
G36*
X56685000Y-21675000D02*
G01*
X56485000Y-21675000D01*
X56485000Y-20575000D01*
X56685000Y-20575000D01*
X56685000Y-21675000D01*
G37*
X56285000Y-21675000D02*
X56085000Y-21675000D01*
X56085000Y-20575000D01*
X56285000Y-20575000D01*
X56285000Y-21675000D01*
G36*
X56285000Y-21675000D02*
G01*
X56085000Y-21675000D01*
X56085000Y-20575000D01*
X56285000Y-20575000D01*
X56285000Y-21675000D01*
G37*
X55485000Y-21675000D02*
X55285000Y-21675000D01*
X55285000Y-20575000D01*
X55485000Y-20575000D01*
X55485000Y-21675000D01*
G36*
X55485000Y-21675000D02*
G01*
X55285000Y-21675000D01*
X55285000Y-20575000D01*
X55485000Y-20575000D01*
X55485000Y-21675000D01*
G37*
X55085000Y-21675000D02*
X54885000Y-21675000D01*
X54885000Y-20575000D01*
X55085000Y-20575000D01*
X55085000Y-21675000D01*
G36*
X55085000Y-21675000D02*
G01*
X54885000Y-21675000D01*
X54885000Y-20575000D01*
X55085000Y-20575000D01*
X55085000Y-21675000D01*
G37*
X54685000Y-21675000D02*
X54485000Y-21675000D01*
X54485000Y-20575000D01*
X54685000Y-20575000D01*
X54685000Y-21675000D01*
G36*
X54685000Y-21675000D02*
G01*
X54485000Y-21675000D01*
X54485000Y-20575000D01*
X54685000Y-20575000D01*
X54685000Y-21675000D01*
G37*
X54285000Y-21675000D02*
X54085000Y-21675000D01*
X54085000Y-20575000D01*
X54285000Y-20575000D01*
X54285000Y-21675000D01*
G36*
X54285000Y-21675000D02*
G01*
X54085000Y-21675000D01*
X54085000Y-20575000D01*
X54285000Y-20575000D01*
X54285000Y-21675000D01*
G37*
X53885000Y-21675000D02*
X53685000Y-21675000D01*
X53685000Y-20575000D01*
X53885000Y-20575000D01*
X53885000Y-21675000D01*
G36*
X53885000Y-21675000D02*
G01*
X53685000Y-21675000D01*
X53685000Y-20575000D01*
X53885000Y-20575000D01*
X53885000Y-21675000D01*
G37*
X53485000Y-21675000D02*
X53285000Y-21675000D01*
X53285000Y-20575000D01*
X53485000Y-20575000D01*
X53485000Y-21675000D01*
G36*
X53485000Y-21675000D02*
G01*
X53285000Y-21675000D01*
X53285000Y-20575000D01*
X53485000Y-20575000D01*
X53485000Y-21675000D01*
G37*
X17085000Y-30135000D02*
X16885000Y-30135000D01*
X16885000Y-29035000D01*
X17085000Y-29035000D01*
X17085000Y-30135000D01*
G36*
X17085000Y-30135000D02*
G01*
X16885000Y-30135000D01*
X16885000Y-29035000D01*
X17085000Y-29035000D01*
X17085000Y-30135000D01*
G37*
X16685000Y-30135000D02*
X16485000Y-30135000D01*
X16485000Y-29035000D01*
X16685000Y-29035000D01*
X16685000Y-30135000D01*
G36*
X16685000Y-30135000D02*
G01*
X16485000Y-30135000D01*
X16485000Y-29035000D01*
X16685000Y-29035000D01*
X16685000Y-30135000D01*
G37*
X16285000Y-30135000D02*
X16085000Y-30135000D01*
X16085000Y-29035000D01*
X16285000Y-29035000D01*
X16285000Y-30135000D01*
G36*
X16285000Y-30135000D02*
G01*
X16085000Y-30135000D01*
X16085000Y-29035000D01*
X16285000Y-29035000D01*
X16285000Y-30135000D01*
G37*
X15885000Y-30135000D02*
X15685000Y-30135000D01*
X15685000Y-29035000D01*
X15885000Y-29035000D01*
X15885000Y-30135000D01*
G36*
X15885000Y-30135000D02*
G01*
X15685000Y-30135000D01*
X15685000Y-29035000D01*
X15885000Y-29035000D01*
X15885000Y-30135000D01*
G37*
X15485000Y-30135000D02*
X15285000Y-30135000D01*
X15285000Y-29035000D01*
X15485000Y-29035000D01*
X15485000Y-30135000D01*
G36*
X15485000Y-30135000D02*
G01*
X15285000Y-30135000D01*
X15285000Y-29035000D01*
X15485000Y-29035000D01*
X15485000Y-30135000D01*
G37*
X15085000Y-30135000D02*
X14885000Y-30135000D01*
X14885000Y-29035000D01*
X15085000Y-29035000D01*
X15085000Y-30135000D01*
G36*
X15085000Y-30135000D02*
G01*
X14885000Y-30135000D01*
X14885000Y-29035000D01*
X15085000Y-29035000D01*
X15085000Y-30135000D01*
G37*
X14685000Y-30135000D02*
X14485000Y-30135000D01*
X14485000Y-29035000D01*
X14685000Y-29035000D01*
X14685000Y-30135000D01*
G36*
X14685000Y-30135000D02*
G01*
X14485000Y-30135000D01*
X14485000Y-29035000D01*
X14685000Y-29035000D01*
X14685000Y-30135000D01*
G37*
X13885000Y-30135000D02*
X13685000Y-30135000D01*
X13685000Y-29035000D01*
X13885000Y-29035000D01*
X13885000Y-30135000D01*
G36*
X13885000Y-30135000D02*
G01*
X13685000Y-30135000D01*
X13685000Y-29035000D01*
X13885000Y-29035000D01*
X13885000Y-30135000D01*
G37*
X13485000Y-30135000D02*
X13285000Y-30135000D01*
X13285000Y-29035000D01*
X13485000Y-29035000D01*
X13485000Y-30135000D01*
G36*
X13485000Y-30135000D02*
G01*
X13285000Y-30135000D01*
X13285000Y-29035000D01*
X13485000Y-29035000D01*
X13485000Y-30135000D01*
G37*
X13085000Y-30135000D02*
X12885000Y-30135000D01*
X12885000Y-29035000D01*
X13085000Y-29035000D01*
X13085000Y-30135000D01*
G36*
X13085000Y-30135000D02*
G01*
X12885000Y-30135000D01*
X12885000Y-29035000D01*
X13085000Y-29035000D01*
X13085000Y-30135000D01*
G37*
X12685000Y-30135000D02*
X12485000Y-30135000D01*
X12485000Y-29035000D01*
X12685000Y-29035000D01*
X12685000Y-30135000D01*
G36*
X12685000Y-30135000D02*
G01*
X12485000Y-30135000D01*
X12485000Y-29035000D01*
X12685000Y-29035000D01*
X12685000Y-30135000D01*
G37*
X12285000Y-30135000D02*
X12085000Y-30135000D01*
X12085000Y-29035000D01*
X12285000Y-29035000D01*
X12285000Y-30135000D01*
G36*
X12285000Y-30135000D02*
G01*
X12085000Y-30135000D01*
X12085000Y-29035000D01*
X12285000Y-29035000D01*
X12285000Y-30135000D01*
G37*
X11885000Y-30135000D02*
X11685000Y-30135000D01*
X11685000Y-29035000D01*
X11885000Y-29035000D01*
X11885000Y-30135000D01*
G36*
X11885000Y-30135000D02*
G01*
X11685000Y-30135000D01*
X11685000Y-29035000D01*
X11885000Y-29035000D01*
X11885000Y-30135000D01*
G37*
X14285000Y-30135000D02*
X14085000Y-30135000D01*
X14085000Y-29035000D01*
X14285000Y-29035000D01*
X14285000Y-30135000D01*
G36*
X14285000Y-30135000D02*
G01*
X14085000Y-30135000D01*
X14085000Y-29035000D01*
X14285000Y-29035000D01*
X14285000Y-30135000D01*
G37*
X18485000Y-30635000D02*
X17385000Y-30635000D01*
X17385000Y-30435000D01*
X18485000Y-30435000D01*
X18485000Y-30635000D01*
G36*
X18485000Y-30635000D02*
G01*
X17385000Y-30635000D01*
X17385000Y-30435000D01*
X18485000Y-30435000D01*
X18485000Y-30635000D01*
G37*
X11385000Y-30635000D02*
X10285000Y-30635000D01*
X10285000Y-30435000D01*
X11385000Y-30435000D01*
X11385000Y-30635000D01*
G36*
X11385000Y-30635000D02*
G01*
X10285000Y-30635000D01*
X10285000Y-30435000D01*
X11385000Y-30435000D01*
X11385000Y-30635000D01*
G37*
X18485000Y-31035000D02*
X17385000Y-31035000D01*
X17385000Y-30835000D01*
X18485000Y-30835000D01*
X18485000Y-31035000D01*
G36*
X18485000Y-31035000D02*
G01*
X17385000Y-31035000D01*
X17385000Y-30835000D01*
X18485000Y-30835000D01*
X18485000Y-31035000D01*
G37*
X11385000Y-31035000D02*
X10285000Y-31035000D01*
X10285000Y-30835000D01*
X11385000Y-30835000D01*
X11385000Y-31035000D01*
G36*
X11385000Y-31035000D02*
G01*
X10285000Y-31035000D01*
X10285000Y-30835000D01*
X11385000Y-30835000D01*
X11385000Y-31035000D01*
G37*
X11385000Y-31435000D02*
X10285000Y-31435000D01*
X10285000Y-31235000D01*
X11385000Y-31235000D01*
X11385000Y-31435000D01*
G36*
X11385000Y-31435000D02*
G01*
X10285000Y-31435000D01*
X10285000Y-31235000D01*
X11385000Y-31235000D01*
X11385000Y-31435000D01*
G37*
X18485000Y-31435000D02*
X17385000Y-31435000D01*
X17385000Y-31235000D01*
X18485000Y-31235000D01*
X18485000Y-31435000D01*
G36*
X18485000Y-31435000D02*
G01*
X17385000Y-31435000D01*
X17385000Y-31235000D01*
X18485000Y-31235000D01*
X18485000Y-31435000D01*
G37*
X11385000Y-31835000D02*
X10285000Y-31835000D01*
X10285000Y-31635000D01*
X11385000Y-31635000D01*
X11385000Y-31835000D01*
G36*
X11385000Y-31835000D02*
G01*
X10285000Y-31835000D01*
X10285000Y-31635000D01*
X11385000Y-31635000D01*
X11385000Y-31835000D01*
G37*
X18485000Y-31835000D02*
X17385000Y-31835000D01*
X17385000Y-31635000D01*
X18485000Y-31635000D01*
X18485000Y-31835000D01*
G36*
X18485000Y-31835000D02*
G01*
X17385000Y-31835000D01*
X17385000Y-31635000D01*
X18485000Y-31635000D01*
X18485000Y-31835000D01*
G37*
X15625000Y-34375000D02*
X13145000Y-34375000D01*
X13145000Y-31895000D01*
X15625000Y-31895000D01*
X15625000Y-34375000D01*
G36*
X15625000Y-34375000D02*
G01*
X13145000Y-34375000D01*
X13145000Y-31895000D01*
X15625000Y-31895000D01*
X15625000Y-34375000D01*
G37*
X18485000Y-32235000D02*
X17385000Y-32235000D01*
X17385000Y-32035000D01*
X18485000Y-32035000D01*
X18485000Y-32235000D01*
G36*
X18485000Y-32235000D02*
G01*
X17385000Y-32235000D01*
X17385000Y-32035000D01*
X18485000Y-32035000D01*
X18485000Y-32235000D01*
G37*
X11385000Y-32235000D02*
X10285000Y-32235000D01*
X10285000Y-32035000D01*
X11385000Y-32035000D01*
X11385000Y-32235000D01*
G36*
X11385000Y-32235000D02*
G01*
X10285000Y-32235000D01*
X10285000Y-32035000D01*
X11385000Y-32035000D01*
X11385000Y-32235000D01*
G37*
X11385000Y-32635000D02*
X10285000Y-32635000D01*
X10285000Y-32435000D01*
X11385000Y-32435000D01*
X11385000Y-32635000D01*
G36*
X11385000Y-32635000D02*
G01*
X10285000Y-32635000D01*
X10285000Y-32435000D01*
X11385000Y-32435000D01*
X11385000Y-32635000D01*
G37*
X18485000Y-32635000D02*
X17385000Y-32635000D01*
X17385000Y-32435000D01*
X18485000Y-32435000D01*
X18485000Y-32635000D01*
G36*
X18485000Y-32635000D02*
G01*
X17385000Y-32635000D01*
X17385000Y-32435000D01*
X18485000Y-32435000D01*
X18485000Y-32635000D01*
G37*
X11385000Y-33035000D02*
X10285000Y-33035000D01*
X10285000Y-32835000D01*
X11385000Y-32835000D01*
X11385000Y-33035000D01*
G36*
X11385000Y-33035000D02*
G01*
X10285000Y-33035000D01*
X10285000Y-32835000D01*
X11385000Y-32835000D01*
X11385000Y-33035000D01*
G37*
X18485000Y-33035000D02*
X17385000Y-33035000D01*
X17385000Y-32835000D01*
X18485000Y-32835000D01*
X18485000Y-33035000D01*
G36*
X18485000Y-33035000D02*
G01*
X17385000Y-33035000D01*
X17385000Y-32835000D01*
X18485000Y-32835000D01*
X18485000Y-33035000D01*
G37*
X18485000Y-33435000D02*
X17385000Y-33435000D01*
X17385000Y-33235000D01*
X18485000Y-33235000D01*
X18485000Y-33435000D01*
G36*
X18485000Y-33435000D02*
G01*
X17385000Y-33435000D01*
X17385000Y-33235000D01*
X18485000Y-33235000D01*
X18485000Y-33435000D01*
G37*
X11385000Y-33435000D02*
X10285000Y-33435000D01*
X10285000Y-33235000D01*
X11385000Y-33235000D01*
X11385000Y-33435000D01*
G36*
X11385000Y-33435000D02*
G01*
X10285000Y-33435000D01*
X10285000Y-33235000D01*
X11385000Y-33235000D01*
X11385000Y-33435000D01*
G37*
X18485000Y-33835000D02*
X17385000Y-33835000D01*
X17385000Y-33635000D01*
X18485000Y-33635000D01*
X18485000Y-33835000D01*
G36*
X18485000Y-33835000D02*
G01*
X17385000Y-33835000D01*
X17385000Y-33635000D01*
X18485000Y-33635000D01*
X18485000Y-33835000D01*
G37*
X11385000Y-33835000D02*
X10285000Y-33835000D01*
X10285000Y-33635000D01*
X11385000Y-33635000D01*
X11385000Y-33835000D01*
G36*
X11385000Y-33835000D02*
G01*
X10285000Y-33835000D01*
X10285000Y-33635000D01*
X11385000Y-33635000D01*
X11385000Y-33835000D01*
G37*
X11385000Y-34235000D02*
X10285000Y-34235000D01*
X10285000Y-34035000D01*
X11385000Y-34035000D01*
X11385000Y-34235000D01*
G36*
X11385000Y-34235000D02*
G01*
X10285000Y-34235000D01*
X10285000Y-34035000D01*
X11385000Y-34035000D01*
X11385000Y-34235000D01*
G37*
X18485000Y-34235000D02*
X17385000Y-34235000D01*
X17385000Y-34035000D01*
X18485000Y-34035000D01*
X18485000Y-34235000D01*
G36*
X18485000Y-34235000D02*
G01*
X17385000Y-34235000D01*
X17385000Y-34035000D01*
X18485000Y-34035000D01*
X18485000Y-34235000D01*
G37*
X11385000Y-34635000D02*
X10285000Y-34635000D01*
X10285000Y-34435000D01*
X11385000Y-34435000D01*
X11385000Y-34635000D01*
G36*
X11385000Y-34635000D02*
G01*
X10285000Y-34635000D01*
X10285000Y-34435000D01*
X11385000Y-34435000D01*
X11385000Y-34635000D01*
G37*
X18485000Y-34635000D02*
X17385000Y-34635000D01*
X17385000Y-34435000D01*
X18485000Y-34435000D01*
X18485000Y-34635000D01*
G36*
X18485000Y-34635000D02*
G01*
X17385000Y-34635000D01*
X17385000Y-34435000D01*
X18485000Y-34435000D01*
X18485000Y-34635000D01*
G37*
X11385000Y-35035000D02*
X10285000Y-35035000D01*
X10285000Y-34835000D01*
X11385000Y-34835000D01*
X11385000Y-35035000D01*
G36*
X11385000Y-35035000D02*
G01*
X10285000Y-35035000D01*
X10285000Y-34835000D01*
X11385000Y-34835000D01*
X11385000Y-35035000D01*
G37*
X18485000Y-35035000D02*
X17385000Y-35035000D01*
X17385000Y-34835000D01*
X18485000Y-34835000D01*
X18485000Y-35035000D01*
G36*
X18485000Y-35035000D02*
G01*
X17385000Y-35035000D01*
X17385000Y-34835000D01*
X18485000Y-34835000D01*
X18485000Y-35035000D01*
G37*
X18485000Y-35435000D02*
X17385000Y-35435000D01*
X17385000Y-35235000D01*
X18485000Y-35235000D01*
X18485000Y-35435000D01*
G36*
X18485000Y-35435000D02*
G01*
X17385000Y-35435000D01*
X17385000Y-35235000D01*
X18485000Y-35235000D01*
X18485000Y-35435000D01*
G37*
X11385000Y-35435000D02*
X10285000Y-35435000D01*
X10285000Y-35235000D01*
X11385000Y-35235000D01*
X11385000Y-35435000D01*
G36*
X11385000Y-35435000D02*
G01*
X10285000Y-35435000D01*
X10285000Y-35235000D01*
X11385000Y-35235000D01*
X11385000Y-35435000D01*
G37*
X18485000Y-35835000D02*
X17385000Y-35835000D01*
X17385000Y-35635000D01*
X18485000Y-35635000D01*
X18485000Y-35835000D01*
G36*
X18485000Y-35835000D02*
G01*
X17385000Y-35835000D01*
X17385000Y-35635000D01*
X18485000Y-35635000D01*
X18485000Y-35835000D01*
G37*
X11385000Y-35835000D02*
X10285000Y-35835000D01*
X10285000Y-35635000D01*
X11385000Y-35635000D01*
X11385000Y-35835000D01*
G36*
X11385000Y-35835000D02*
G01*
X10285000Y-35835000D01*
X10285000Y-35635000D01*
X11385000Y-35635000D01*
X11385000Y-35835000D01*
G37*
X14685000Y-37235000D02*
X14485000Y-37235000D01*
X14485000Y-36135000D01*
X14685000Y-36135000D01*
X14685000Y-37235000D01*
G36*
X14685000Y-37235000D02*
G01*
X14485000Y-37235000D01*
X14485000Y-36135000D01*
X14685000Y-36135000D01*
X14685000Y-37235000D01*
G37*
X11885000Y-37235000D02*
X11685000Y-37235000D01*
X11685000Y-36135000D01*
X11885000Y-36135000D01*
X11885000Y-37235000D01*
G36*
X11885000Y-37235000D02*
G01*
X11685000Y-37235000D01*
X11685000Y-36135000D01*
X11885000Y-36135000D01*
X11885000Y-37235000D01*
G37*
X17085000Y-37235000D02*
X16885000Y-37235000D01*
X16885000Y-36135000D01*
X17085000Y-36135000D01*
X17085000Y-37235000D01*
G36*
X17085000Y-37235000D02*
G01*
X16885000Y-37235000D01*
X16885000Y-36135000D01*
X17085000Y-36135000D01*
X17085000Y-37235000D01*
G37*
X16685000Y-37235000D02*
X16485000Y-37235000D01*
X16485000Y-36135000D01*
X16685000Y-36135000D01*
X16685000Y-37235000D01*
G36*
X16685000Y-37235000D02*
G01*
X16485000Y-37235000D01*
X16485000Y-36135000D01*
X16685000Y-36135000D01*
X16685000Y-37235000D01*
G37*
X16285000Y-37235000D02*
X16085000Y-37235000D01*
X16085000Y-36135000D01*
X16285000Y-36135000D01*
X16285000Y-37235000D01*
G36*
X16285000Y-37235000D02*
G01*
X16085000Y-37235000D01*
X16085000Y-36135000D01*
X16285000Y-36135000D01*
X16285000Y-37235000D01*
G37*
X15885000Y-37235000D02*
X15685000Y-37235000D01*
X15685000Y-36135000D01*
X15885000Y-36135000D01*
X15885000Y-37235000D01*
G36*
X15885000Y-37235000D02*
G01*
X15685000Y-37235000D01*
X15685000Y-36135000D01*
X15885000Y-36135000D01*
X15885000Y-37235000D01*
G37*
X15485000Y-37235000D02*
X15285000Y-37235000D01*
X15285000Y-36135000D01*
X15485000Y-36135000D01*
X15485000Y-37235000D01*
G36*
X15485000Y-37235000D02*
G01*
X15285000Y-37235000D01*
X15285000Y-36135000D01*
X15485000Y-36135000D01*
X15485000Y-37235000D01*
G37*
X15085000Y-37235000D02*
X14885000Y-37235000D01*
X14885000Y-36135000D01*
X15085000Y-36135000D01*
X15085000Y-37235000D01*
G36*
X15085000Y-37235000D02*
G01*
X14885000Y-37235000D01*
X14885000Y-36135000D01*
X15085000Y-36135000D01*
X15085000Y-37235000D01*
G37*
X14285000Y-37235000D02*
X14085000Y-37235000D01*
X14085000Y-36135000D01*
X14285000Y-36135000D01*
X14285000Y-37235000D01*
G36*
X14285000Y-37235000D02*
G01*
X14085000Y-37235000D01*
X14085000Y-36135000D01*
X14285000Y-36135000D01*
X14285000Y-37235000D01*
G37*
X13885000Y-37235000D02*
X13685000Y-37235000D01*
X13685000Y-36135000D01*
X13885000Y-36135000D01*
X13885000Y-37235000D01*
G36*
X13885000Y-37235000D02*
G01*
X13685000Y-37235000D01*
X13685000Y-36135000D01*
X13885000Y-36135000D01*
X13885000Y-37235000D01*
G37*
X13485000Y-37235000D02*
X13285000Y-37235000D01*
X13285000Y-36135000D01*
X13485000Y-36135000D01*
X13485000Y-37235000D01*
G36*
X13485000Y-37235000D02*
G01*
X13285000Y-37235000D01*
X13285000Y-36135000D01*
X13485000Y-36135000D01*
X13485000Y-37235000D01*
G37*
X13085000Y-37235000D02*
X12885000Y-37235000D01*
X12885000Y-36135000D01*
X13085000Y-36135000D01*
X13085000Y-37235000D01*
G36*
X13085000Y-37235000D02*
G01*
X12885000Y-37235000D01*
X12885000Y-36135000D01*
X13085000Y-36135000D01*
X13085000Y-37235000D01*
G37*
X12685000Y-37235000D02*
X12485000Y-37235000D01*
X12485000Y-36135000D01*
X12685000Y-36135000D01*
X12685000Y-37235000D01*
G36*
X12685000Y-37235000D02*
G01*
X12485000Y-37235000D01*
X12485000Y-36135000D01*
X12685000Y-36135000D01*
X12685000Y-37235000D01*
G37*
X12285000Y-37235000D02*
X12085000Y-37235000D01*
X12085000Y-36135000D01*
X12285000Y-36135000D01*
X12285000Y-37235000D01*
G36*
X12285000Y-37235000D02*
G01*
X12085000Y-37235000D01*
X12085000Y-36135000D01*
X12285000Y-36135000D01*
X12285000Y-37235000D01*
G37*
X17085000Y-45695000D02*
X16885000Y-45695000D01*
X16885000Y-44595000D01*
X17085000Y-44595000D01*
X17085000Y-45695000D01*
G36*
X17085000Y-45695000D02*
G01*
X16885000Y-45695000D01*
X16885000Y-44595000D01*
X17085000Y-44595000D01*
X17085000Y-45695000D01*
G37*
X16685000Y-45695000D02*
X16485000Y-45695000D01*
X16485000Y-44595000D01*
X16685000Y-44595000D01*
X16685000Y-45695000D01*
G36*
X16685000Y-45695000D02*
G01*
X16485000Y-45695000D01*
X16485000Y-44595000D01*
X16685000Y-44595000D01*
X16685000Y-45695000D01*
G37*
X16285000Y-45695000D02*
X16085000Y-45695000D01*
X16085000Y-44595000D01*
X16285000Y-44595000D01*
X16285000Y-45695000D01*
G36*
X16285000Y-45695000D02*
G01*
X16085000Y-45695000D01*
X16085000Y-44595000D01*
X16285000Y-44595000D01*
X16285000Y-45695000D01*
G37*
X15885000Y-45695000D02*
X15685000Y-45695000D01*
X15685000Y-44595000D01*
X15885000Y-44595000D01*
X15885000Y-45695000D01*
G36*
X15885000Y-45695000D02*
G01*
X15685000Y-45695000D01*
X15685000Y-44595000D01*
X15885000Y-44595000D01*
X15885000Y-45695000D01*
G37*
X15485000Y-45695000D02*
X15285000Y-45695000D01*
X15285000Y-44595000D01*
X15485000Y-44595000D01*
X15485000Y-45695000D01*
G36*
X15485000Y-45695000D02*
G01*
X15285000Y-45695000D01*
X15285000Y-44595000D01*
X15485000Y-44595000D01*
X15485000Y-45695000D01*
G37*
X15085000Y-45695000D02*
X14885000Y-45695000D01*
X14885000Y-44595000D01*
X15085000Y-44595000D01*
X15085000Y-45695000D01*
G36*
X15085000Y-45695000D02*
G01*
X14885000Y-45695000D01*
X14885000Y-44595000D01*
X15085000Y-44595000D01*
X15085000Y-45695000D01*
G37*
X14685000Y-45695000D02*
X14485000Y-45695000D01*
X14485000Y-44595000D01*
X14685000Y-44595000D01*
X14685000Y-45695000D01*
G36*
X14685000Y-45695000D02*
G01*
X14485000Y-45695000D01*
X14485000Y-44595000D01*
X14685000Y-44595000D01*
X14685000Y-45695000D01*
G37*
X13885000Y-45695000D02*
X13685000Y-45695000D01*
X13685000Y-44595000D01*
X13885000Y-44595000D01*
X13885000Y-45695000D01*
G36*
X13885000Y-45695000D02*
G01*
X13685000Y-45695000D01*
X13685000Y-44595000D01*
X13885000Y-44595000D01*
X13885000Y-45695000D01*
G37*
X13485000Y-45695000D02*
X13285000Y-45695000D01*
X13285000Y-44595000D01*
X13485000Y-44595000D01*
X13485000Y-45695000D01*
G36*
X13485000Y-45695000D02*
G01*
X13285000Y-45695000D01*
X13285000Y-44595000D01*
X13485000Y-44595000D01*
X13485000Y-45695000D01*
G37*
X13085000Y-45695000D02*
X12885000Y-45695000D01*
X12885000Y-44595000D01*
X13085000Y-44595000D01*
X13085000Y-45695000D01*
G36*
X13085000Y-45695000D02*
G01*
X12885000Y-45695000D01*
X12885000Y-44595000D01*
X13085000Y-44595000D01*
X13085000Y-45695000D01*
G37*
X12685000Y-45695000D02*
X12485000Y-45695000D01*
X12485000Y-44595000D01*
X12685000Y-44595000D01*
X12685000Y-45695000D01*
G36*
X12685000Y-45695000D02*
G01*
X12485000Y-45695000D01*
X12485000Y-44595000D01*
X12685000Y-44595000D01*
X12685000Y-45695000D01*
G37*
X12285000Y-45695000D02*
X12085000Y-45695000D01*
X12085000Y-44595000D01*
X12285000Y-44595000D01*
X12285000Y-45695000D01*
G36*
X12285000Y-45695000D02*
G01*
X12085000Y-45695000D01*
X12085000Y-44595000D01*
X12285000Y-44595000D01*
X12285000Y-45695000D01*
G37*
X11885000Y-45695000D02*
X11685000Y-45695000D01*
X11685000Y-44595000D01*
X11885000Y-44595000D01*
X11885000Y-45695000D01*
G36*
X11885000Y-45695000D02*
G01*
X11685000Y-45695000D01*
X11685000Y-44595000D01*
X11885000Y-44595000D01*
X11885000Y-45695000D01*
G37*
X14285000Y-45695000D02*
X14085000Y-45695000D01*
X14085000Y-44595000D01*
X14285000Y-44595000D01*
X14285000Y-45695000D01*
G36*
X14285000Y-45695000D02*
G01*
X14085000Y-45695000D01*
X14085000Y-44595000D01*
X14285000Y-44595000D01*
X14285000Y-45695000D01*
G37*
X18485000Y-46195000D02*
X17385000Y-46195000D01*
X17385000Y-45995000D01*
X18485000Y-45995000D01*
X18485000Y-46195000D01*
G36*
X18485000Y-46195000D02*
G01*
X17385000Y-46195000D01*
X17385000Y-45995000D01*
X18485000Y-45995000D01*
X18485000Y-46195000D01*
G37*
X11385000Y-46195000D02*
X10285000Y-46195000D01*
X10285000Y-45995000D01*
X11385000Y-45995000D01*
X11385000Y-46195000D01*
G36*
X11385000Y-46195000D02*
G01*
X10285000Y-46195000D01*
X10285000Y-45995000D01*
X11385000Y-45995000D01*
X11385000Y-46195000D01*
G37*
X18485000Y-46595000D02*
X17385000Y-46595000D01*
X17385000Y-46395000D01*
X18485000Y-46395000D01*
X18485000Y-46595000D01*
G36*
X18485000Y-46595000D02*
G01*
X17385000Y-46595000D01*
X17385000Y-46395000D01*
X18485000Y-46395000D01*
X18485000Y-46595000D01*
G37*
X11385000Y-46595000D02*
X10285000Y-46595000D01*
X10285000Y-46395000D01*
X11385000Y-46395000D01*
X11385000Y-46595000D01*
G36*
X11385000Y-46595000D02*
G01*
X10285000Y-46595000D01*
X10285000Y-46395000D01*
X11385000Y-46395000D01*
X11385000Y-46595000D01*
G37*
X11385000Y-46995000D02*
X10285000Y-46995000D01*
X10285000Y-46795000D01*
X11385000Y-46795000D01*
X11385000Y-46995000D01*
G36*
X11385000Y-46995000D02*
G01*
X10285000Y-46995000D01*
X10285000Y-46795000D01*
X11385000Y-46795000D01*
X11385000Y-46995000D01*
G37*
X18485000Y-46995000D02*
X17385000Y-46995000D01*
X17385000Y-46795000D01*
X18485000Y-46795000D01*
X18485000Y-46995000D01*
G36*
X18485000Y-46995000D02*
G01*
X17385000Y-46995000D01*
X17385000Y-46795000D01*
X18485000Y-46795000D01*
X18485000Y-46995000D01*
G37*
X11385000Y-47395000D02*
X10285000Y-47395000D01*
X10285000Y-47195000D01*
X11385000Y-47195000D01*
X11385000Y-47395000D01*
G36*
X11385000Y-47395000D02*
G01*
X10285000Y-47395000D01*
X10285000Y-47195000D01*
X11385000Y-47195000D01*
X11385000Y-47395000D01*
G37*
X18485000Y-47395000D02*
X17385000Y-47395000D01*
X17385000Y-47195000D01*
X18485000Y-47195000D01*
X18485000Y-47395000D01*
G36*
X18485000Y-47395000D02*
G01*
X17385000Y-47395000D01*
X17385000Y-47195000D01*
X18485000Y-47195000D01*
X18485000Y-47395000D01*
G37*
X15625000Y-49935000D02*
X13145000Y-49935000D01*
X13145000Y-47455000D01*
X15625000Y-47455000D01*
X15625000Y-49935000D01*
G36*
X15625000Y-49935000D02*
G01*
X13145000Y-49935000D01*
X13145000Y-47455000D01*
X15625000Y-47455000D01*
X15625000Y-49935000D01*
G37*
X18485000Y-47795000D02*
X17385000Y-47795000D01*
X17385000Y-47595000D01*
X18485000Y-47595000D01*
X18485000Y-47795000D01*
G36*
X18485000Y-47795000D02*
G01*
X17385000Y-47795000D01*
X17385000Y-47595000D01*
X18485000Y-47595000D01*
X18485000Y-47795000D01*
G37*
X11385000Y-47795000D02*
X10285000Y-47795000D01*
X10285000Y-47595000D01*
X11385000Y-47595000D01*
X11385000Y-47795000D01*
G36*
X11385000Y-47795000D02*
G01*
X10285000Y-47795000D01*
X10285000Y-47595000D01*
X11385000Y-47595000D01*
X11385000Y-47795000D01*
G37*
X11385000Y-48195000D02*
X10285000Y-48195000D01*
X10285000Y-47995000D01*
X11385000Y-47995000D01*
X11385000Y-48195000D01*
G36*
X11385000Y-48195000D02*
G01*
X10285000Y-48195000D01*
X10285000Y-47995000D01*
X11385000Y-47995000D01*
X11385000Y-48195000D01*
G37*
X18485000Y-48195000D02*
X17385000Y-48195000D01*
X17385000Y-47995000D01*
X18485000Y-47995000D01*
X18485000Y-48195000D01*
G36*
X18485000Y-48195000D02*
G01*
X17385000Y-48195000D01*
X17385000Y-47995000D01*
X18485000Y-47995000D01*
X18485000Y-48195000D01*
G37*
X11385000Y-48595000D02*
X10285000Y-48595000D01*
X10285000Y-48395000D01*
X11385000Y-48395000D01*
X11385000Y-48595000D01*
G36*
X11385000Y-48595000D02*
G01*
X10285000Y-48595000D01*
X10285000Y-48395000D01*
X11385000Y-48395000D01*
X11385000Y-48595000D01*
G37*
X18485000Y-48595000D02*
X17385000Y-48595000D01*
X17385000Y-48395000D01*
X18485000Y-48395000D01*
X18485000Y-48595000D01*
G36*
X18485000Y-48595000D02*
G01*
X17385000Y-48595000D01*
X17385000Y-48395000D01*
X18485000Y-48395000D01*
X18485000Y-48595000D01*
G37*
X18485000Y-48995000D02*
X17385000Y-48995000D01*
X17385000Y-48795000D01*
X18485000Y-48795000D01*
X18485000Y-48995000D01*
G36*
X18485000Y-48995000D02*
G01*
X17385000Y-48995000D01*
X17385000Y-48795000D01*
X18485000Y-48795000D01*
X18485000Y-48995000D01*
G37*
X11385000Y-48995000D02*
X10285000Y-48995000D01*
X10285000Y-48795000D01*
X11385000Y-48795000D01*
X11385000Y-48995000D01*
G36*
X11385000Y-48995000D02*
G01*
X10285000Y-48995000D01*
X10285000Y-48795000D01*
X11385000Y-48795000D01*
X11385000Y-48995000D01*
G37*
X18485000Y-49395000D02*
X17385000Y-49395000D01*
X17385000Y-49195000D01*
X18485000Y-49195000D01*
X18485000Y-49395000D01*
G36*
X18485000Y-49395000D02*
G01*
X17385000Y-49395000D01*
X17385000Y-49195000D01*
X18485000Y-49195000D01*
X18485000Y-49395000D01*
G37*
X11385000Y-49395000D02*
X10285000Y-49395000D01*
X10285000Y-49195000D01*
X11385000Y-49195000D01*
X11385000Y-49395000D01*
G36*
X11385000Y-49395000D02*
G01*
X10285000Y-49395000D01*
X10285000Y-49195000D01*
X11385000Y-49195000D01*
X11385000Y-49395000D01*
G37*
X11385000Y-49795000D02*
X10285000Y-49795000D01*
X10285000Y-49595000D01*
X11385000Y-49595000D01*
X11385000Y-49795000D01*
G36*
X11385000Y-49795000D02*
G01*
X10285000Y-49795000D01*
X10285000Y-49595000D01*
X11385000Y-49595000D01*
X11385000Y-49795000D01*
G37*
X18485000Y-49795000D02*
X17385000Y-49795000D01*
X17385000Y-49595000D01*
X18485000Y-49595000D01*
X18485000Y-49795000D01*
G36*
X18485000Y-49795000D02*
G01*
X17385000Y-49795000D01*
X17385000Y-49595000D01*
X18485000Y-49595000D01*
X18485000Y-49795000D01*
G37*
X11385000Y-50195000D02*
X10285000Y-50195000D01*
X10285000Y-49995000D01*
X11385000Y-49995000D01*
X11385000Y-50195000D01*
G36*
X11385000Y-50195000D02*
G01*
X10285000Y-50195000D01*
X10285000Y-49995000D01*
X11385000Y-49995000D01*
X11385000Y-50195000D01*
G37*
X18485000Y-50195000D02*
X17385000Y-50195000D01*
X17385000Y-49995000D01*
X18485000Y-49995000D01*
X18485000Y-50195000D01*
G36*
X18485000Y-50195000D02*
G01*
X17385000Y-50195000D01*
X17385000Y-49995000D01*
X18485000Y-49995000D01*
X18485000Y-50195000D01*
G37*
X11385000Y-50595000D02*
X10285000Y-50595000D01*
X10285000Y-50395000D01*
X11385000Y-50395000D01*
X11385000Y-50595000D01*
G36*
X11385000Y-50595000D02*
G01*
X10285000Y-50595000D01*
X10285000Y-50395000D01*
X11385000Y-50395000D01*
X11385000Y-50595000D01*
G37*
X18485000Y-50595000D02*
X17385000Y-50595000D01*
X17385000Y-50395000D01*
X18485000Y-50395000D01*
X18485000Y-50595000D01*
G36*
X18485000Y-50595000D02*
G01*
X17385000Y-50595000D01*
X17385000Y-50395000D01*
X18485000Y-50395000D01*
X18485000Y-50595000D01*
G37*
X18485000Y-50995000D02*
X17385000Y-50995000D01*
X17385000Y-50795000D01*
X18485000Y-50795000D01*
X18485000Y-50995000D01*
G36*
X18485000Y-50995000D02*
G01*
X17385000Y-50995000D01*
X17385000Y-50795000D01*
X18485000Y-50795000D01*
X18485000Y-50995000D01*
G37*
X11385000Y-50995000D02*
X10285000Y-50995000D01*
X10285000Y-50795000D01*
X11385000Y-50795000D01*
X11385000Y-50995000D01*
G36*
X11385000Y-50995000D02*
G01*
X10285000Y-50995000D01*
X10285000Y-50795000D01*
X11385000Y-50795000D01*
X11385000Y-50995000D01*
G37*
X18485000Y-51395000D02*
X17385000Y-51395000D01*
X17385000Y-51195000D01*
X18485000Y-51195000D01*
X18485000Y-51395000D01*
G36*
X18485000Y-51395000D02*
G01*
X17385000Y-51395000D01*
X17385000Y-51195000D01*
X18485000Y-51195000D01*
X18485000Y-51395000D01*
G37*
X11385000Y-51395000D02*
X10285000Y-51395000D01*
X10285000Y-51195000D01*
X11385000Y-51195000D01*
X11385000Y-51395000D01*
G36*
X11385000Y-51395000D02*
G01*
X10285000Y-51395000D01*
X10285000Y-51195000D01*
X11385000Y-51195000D01*
X11385000Y-51395000D01*
G37*
X14685000Y-52795000D02*
X14485000Y-52795000D01*
X14485000Y-51695000D01*
X14685000Y-51695000D01*
X14685000Y-52795000D01*
G36*
X14685000Y-52795000D02*
G01*
X14485000Y-52795000D01*
X14485000Y-51695000D01*
X14685000Y-51695000D01*
X14685000Y-52795000D01*
G37*
X11885000Y-52795000D02*
X11685000Y-52795000D01*
X11685000Y-51695000D01*
X11885000Y-51695000D01*
X11885000Y-52795000D01*
G36*
X11885000Y-52795000D02*
G01*
X11685000Y-52795000D01*
X11685000Y-51695000D01*
X11885000Y-51695000D01*
X11885000Y-52795000D01*
G37*
X17085000Y-52795000D02*
X16885000Y-52795000D01*
X16885000Y-51695000D01*
X17085000Y-51695000D01*
X17085000Y-52795000D01*
G36*
X17085000Y-52795000D02*
G01*
X16885000Y-52795000D01*
X16885000Y-51695000D01*
X17085000Y-51695000D01*
X17085000Y-52795000D01*
G37*
X16685000Y-52795000D02*
X16485000Y-52795000D01*
X16485000Y-51695000D01*
X16685000Y-51695000D01*
X16685000Y-52795000D01*
G36*
X16685000Y-52795000D02*
G01*
X16485000Y-52795000D01*
X16485000Y-51695000D01*
X16685000Y-51695000D01*
X16685000Y-52795000D01*
G37*
X16285000Y-52795000D02*
X16085000Y-52795000D01*
X16085000Y-51695000D01*
X16285000Y-51695000D01*
X16285000Y-52795000D01*
G36*
X16285000Y-52795000D02*
G01*
X16085000Y-52795000D01*
X16085000Y-51695000D01*
X16285000Y-51695000D01*
X16285000Y-52795000D01*
G37*
X15885000Y-52795000D02*
X15685000Y-52795000D01*
X15685000Y-51695000D01*
X15885000Y-51695000D01*
X15885000Y-52795000D01*
G36*
X15885000Y-52795000D02*
G01*
X15685000Y-52795000D01*
X15685000Y-51695000D01*
X15885000Y-51695000D01*
X15885000Y-52795000D01*
G37*
X15485000Y-52795000D02*
X15285000Y-52795000D01*
X15285000Y-51695000D01*
X15485000Y-51695000D01*
X15485000Y-52795000D01*
G36*
X15485000Y-52795000D02*
G01*
X15285000Y-52795000D01*
X15285000Y-51695000D01*
X15485000Y-51695000D01*
X15485000Y-52795000D01*
G37*
X15085000Y-52795000D02*
X14885000Y-52795000D01*
X14885000Y-51695000D01*
X15085000Y-51695000D01*
X15085000Y-52795000D01*
G36*
X15085000Y-52795000D02*
G01*
X14885000Y-52795000D01*
X14885000Y-51695000D01*
X15085000Y-51695000D01*
X15085000Y-52795000D01*
G37*
X14285000Y-52795000D02*
X14085000Y-52795000D01*
X14085000Y-51695000D01*
X14285000Y-51695000D01*
X14285000Y-52795000D01*
G36*
X14285000Y-52795000D02*
G01*
X14085000Y-52795000D01*
X14085000Y-51695000D01*
X14285000Y-51695000D01*
X14285000Y-52795000D01*
G37*
X13885000Y-52795000D02*
X13685000Y-52795000D01*
X13685000Y-51695000D01*
X13885000Y-51695000D01*
X13885000Y-52795000D01*
G36*
X13885000Y-52795000D02*
G01*
X13685000Y-52795000D01*
X13685000Y-51695000D01*
X13885000Y-51695000D01*
X13885000Y-52795000D01*
G37*
X13485000Y-52795000D02*
X13285000Y-52795000D01*
X13285000Y-51695000D01*
X13485000Y-51695000D01*
X13485000Y-52795000D01*
G36*
X13485000Y-52795000D02*
G01*
X13285000Y-52795000D01*
X13285000Y-51695000D01*
X13485000Y-51695000D01*
X13485000Y-52795000D01*
G37*
X13085000Y-52795000D02*
X12885000Y-52795000D01*
X12885000Y-51695000D01*
X13085000Y-51695000D01*
X13085000Y-52795000D01*
G36*
X13085000Y-52795000D02*
G01*
X12885000Y-52795000D01*
X12885000Y-51695000D01*
X13085000Y-51695000D01*
X13085000Y-52795000D01*
G37*
X12685000Y-52795000D02*
X12485000Y-52795000D01*
X12485000Y-51695000D01*
X12685000Y-51695000D01*
X12685000Y-52795000D01*
G36*
X12685000Y-52795000D02*
G01*
X12485000Y-52795000D01*
X12485000Y-51695000D01*
X12685000Y-51695000D01*
X12685000Y-52795000D01*
G37*
X12285000Y-52795000D02*
X12085000Y-52795000D01*
X12085000Y-51695000D01*
X12285000Y-51695000D01*
X12285000Y-52795000D01*
G36*
X12285000Y-52795000D02*
G01*
X12085000Y-52795000D01*
X12085000Y-51695000D01*
X12285000Y-51695000D01*
X12285000Y-52795000D01*
G37*
G04 #@! TD*
D11*
G04 #@! TO.C,U1*
X37585000Y-29585000D03*
X37185000Y-29585000D03*
X36785000Y-29585000D03*
X36385000Y-29585000D03*
X35985000Y-29585000D03*
X35585000Y-29585000D03*
X35185000Y-29585000D03*
X34785000Y-29585000D03*
X34385000Y-29585000D03*
X33985000Y-29585000D03*
X33585000Y-29585000D03*
X33185000Y-29585000D03*
X32785000Y-29585000D03*
X32385000Y-29585000D03*
D12*
X31435000Y-30535000D03*
X31435000Y-30935000D03*
X31435000Y-31335000D03*
X31435000Y-31735000D03*
X31435000Y-32135000D03*
X31435000Y-32535000D03*
X31435000Y-32935000D03*
X31435000Y-33335000D03*
X31435000Y-33735000D03*
X31435000Y-34135000D03*
X31435000Y-34535000D03*
X31435000Y-34935000D03*
X31435000Y-35335000D03*
X31435000Y-35735000D03*
D11*
X32385000Y-36685000D03*
X32785000Y-36685000D03*
X33185000Y-36685000D03*
X33585000Y-36685000D03*
X33985000Y-36685000D03*
X34385000Y-36685000D03*
X34785000Y-36685000D03*
X35185000Y-36685000D03*
X35585000Y-36685000D03*
X35985000Y-36685000D03*
X36385000Y-36685000D03*
X36785000Y-36685000D03*
X37185000Y-36685000D03*
X37585000Y-36685000D03*
D12*
X38535000Y-35735000D03*
X38535000Y-35335000D03*
X38535000Y-34935000D03*
X38535000Y-34535000D03*
X38535000Y-34135000D03*
X38535000Y-33735000D03*
X38535000Y-33335000D03*
X38535000Y-32935000D03*
X38535000Y-32535000D03*
X38535000Y-32135000D03*
X38535000Y-31735000D03*
X38535000Y-31335000D03*
X38535000Y-30935000D03*
X38535000Y-30535000D03*
D13*
X34985000Y-33135000D03*
G04 #@! TD*
D14*
G04 #@! TO.C,R11*
X18010000Y-54050000D03*
X18010000Y-55070000D03*
G04 #@! TD*
D15*
G04 #@! TO.C,SW1*
X26990000Y-39080000D03*
X30190000Y-39080000D03*
G04 #@! TD*
D16*
G04 #@! TO.C,R7*
X43740000Y-24820000D03*
X42720000Y-24820000D03*
G04 #@! TD*
D17*
G04 #@! TO.C,REF\u002A\u002A*
X2500000Y-2500000D03*
G04 #@! TD*
D11*
G04 #@! TO.C,U1*
X16985000Y-14025000D03*
X16585000Y-14025000D03*
X16185000Y-14025000D03*
X15785000Y-14025000D03*
X15385000Y-14025000D03*
X14985000Y-14025000D03*
X14585000Y-14025000D03*
X14185000Y-14025000D03*
X13785000Y-14025000D03*
X13385000Y-14025000D03*
X12985000Y-14025000D03*
X12585000Y-14025000D03*
X12185000Y-14025000D03*
X11785000Y-14025000D03*
D12*
X10835000Y-14975000D03*
X10835000Y-15375000D03*
X10835000Y-15775000D03*
X10835000Y-16175000D03*
X10835000Y-16575000D03*
X10835000Y-16975000D03*
X10835000Y-17375000D03*
X10835000Y-17775000D03*
X10835000Y-18175000D03*
X10835000Y-18575000D03*
X10835000Y-18975000D03*
X10835000Y-19375000D03*
X10835000Y-19775000D03*
X10835000Y-20175000D03*
D11*
X11785000Y-21125000D03*
X12185000Y-21125000D03*
X12585000Y-21125000D03*
X12985000Y-21125000D03*
X13385000Y-21125000D03*
X13785000Y-21125000D03*
X14185000Y-21125000D03*
X14585000Y-21125000D03*
X14985000Y-21125000D03*
X15385000Y-21125000D03*
X15785000Y-21125000D03*
X16185000Y-21125000D03*
X16585000Y-21125000D03*
X16985000Y-21125000D03*
D12*
X17935000Y-20175000D03*
X17935000Y-19775000D03*
X17935000Y-19375000D03*
X17935000Y-18975000D03*
X17935000Y-18575000D03*
X17935000Y-18175000D03*
X17935000Y-17775000D03*
X17935000Y-17375000D03*
X17935000Y-16975000D03*
X17935000Y-16575000D03*
X17935000Y-16175000D03*
X17935000Y-15775000D03*
X17935000Y-15375000D03*
X17935000Y-14975000D03*
D13*
X14385000Y-17575000D03*
G04 #@! TD*
D18*
G04 #@! TO.C,C8*
X19130000Y-55100000D03*
X20090000Y-55100000D03*
G04 #@! TD*
G04 #@! TO.C,C12*
X34900000Y-12685000D03*
X35860000Y-12685000D03*
G04 #@! TD*
D19*
G04 #@! TO.C,R2*
X30310000Y-21930000D03*
X30310000Y-20910000D03*
G04 #@! TD*
D18*
G04 #@! TO.C,C9*
X39725000Y-38455000D03*
X40685000Y-38455000D03*
G04 #@! TD*
D20*
G04 #@! TO.C,R12*
X31720000Y-12700000D03*
X32740000Y-12700000D03*
G04 #@! TD*
D14*
G04 #@! TO.C,R10*
X37330000Y-54050000D03*
X37330000Y-55070000D03*
G04 #@! TD*
D18*
G04 #@! TO.C,C12*
X14300000Y-12685000D03*
X15260000Y-12685000D03*
G04 #@! TD*
D11*
G04 #@! TO.C,U1*
X58185000Y-29585000D03*
X57785000Y-29585000D03*
X57385000Y-29585000D03*
X56985000Y-29585000D03*
X56585000Y-29585000D03*
X56185000Y-29585000D03*
X55785000Y-29585000D03*
X55385000Y-29585000D03*
X54985000Y-29585000D03*
X54585000Y-29585000D03*
X54185000Y-29585000D03*
X53785000Y-29585000D03*
X53385000Y-29585000D03*
X52985000Y-29585000D03*
D12*
X52035000Y-30535000D03*
X52035000Y-30935000D03*
X52035000Y-31335000D03*
X52035000Y-31735000D03*
X52035000Y-32135000D03*
X52035000Y-32535000D03*
X52035000Y-32935000D03*
X52035000Y-33335000D03*
X52035000Y-33735000D03*
X52035000Y-34135000D03*
X52035000Y-34535000D03*
X52035000Y-34935000D03*
X52035000Y-35335000D03*
X52035000Y-35735000D03*
D11*
X52985000Y-36685000D03*
X53385000Y-36685000D03*
X53785000Y-36685000D03*
X54185000Y-36685000D03*
X54585000Y-36685000D03*
X54985000Y-36685000D03*
X55385000Y-36685000D03*
X55785000Y-36685000D03*
X56185000Y-36685000D03*
X56585000Y-36685000D03*
X56985000Y-36685000D03*
X57385000Y-36685000D03*
X57785000Y-36685000D03*
X58185000Y-36685000D03*
D12*
X59135000Y-35735000D03*
X59135000Y-35335000D03*
X59135000Y-34935000D03*
X59135000Y-34535000D03*
X59135000Y-34135000D03*
X59135000Y-33735000D03*
X59135000Y-33335000D03*
X59135000Y-32935000D03*
X59135000Y-32535000D03*
X59135000Y-32135000D03*
X59135000Y-31735000D03*
X59135000Y-31335000D03*
X59135000Y-30935000D03*
X59135000Y-30535000D03*
D13*
X55585000Y-33135000D03*
G04 #@! TD*
D16*
G04 #@! TO.C,R7*
X43740000Y-55940000D03*
X42720000Y-55940000D03*
G04 #@! TD*
D18*
G04 #@! TO.C,C5*
X19125000Y-20760000D03*
X20085000Y-20760000D03*
G04 #@! TD*
D21*
G04 #@! TO.C,X1*
X28952000Y-49473000D03*
X28952000Y-47273000D03*
X27202000Y-47273000D03*
X27202000Y-49473000D03*
G04 #@! TD*
D14*
G04 #@! TO.C,R3*
X13925000Y-53450000D03*
X13925000Y-54470000D03*
G04 #@! TD*
D19*
G04 #@! TO.C,R2*
X50910000Y-53050000D03*
X50910000Y-52030000D03*
G04 #@! TD*
D18*
G04 #@! TO.C,C10*
X61900000Y-50180000D03*
X62860000Y-50180000D03*
G04 #@! TD*
D22*
G04 #@! TO.C,U2*
X21855000Y-13555500D03*
X21355000Y-13555500D03*
X20855000Y-13555500D03*
X20355000Y-13555500D03*
X20355000Y-16569500D03*
X20855000Y-16569500D03*
X21355000Y-16569500D03*
X21855000Y-16569500D03*
D23*
X21105000Y-15062500D03*
G04 #@! TD*
D24*
G04 #@! TO.C,U5*
X26870000Y-56465000D03*
X27720000Y-56465000D03*
X26870000Y-57315000D03*
X27720000Y-57315000D03*
G04 #@! TD*
G04 #@! TO.C,U5*
X6270000Y-56465000D03*
X7120000Y-56465000D03*
X6270000Y-57315000D03*
X7120000Y-57315000D03*
G04 #@! TD*
D25*
G04 #@! TO.C,C14*
X43580000Y-47720000D03*
X43580000Y-48680000D03*
G04 #@! TD*
G04 #@! TO.C,C14*
X64180000Y-32160000D03*
X64180000Y-33120000D03*
G04 #@! TD*
D18*
G04 #@! TO.C,C11*
X38400000Y-12680000D03*
X39360000Y-12680000D03*
G04 #@! TD*
D16*
G04 #@! TO.C,R7*
X64340000Y-24820000D03*
X63320000Y-24820000D03*
G04 #@! TD*
D14*
G04 #@! TO.C,R5*
X43580000Y-43740000D03*
X43580000Y-44760000D03*
G04 #@! TD*
D21*
G04 #@! TO.C,X1*
X8352000Y-49473000D03*
X8352000Y-47273000D03*
X6602000Y-47273000D03*
X6602000Y-49473000D03*
G04 #@! TD*
D14*
G04 #@! TO.C,R10*
X57930000Y-22930000D03*
X57930000Y-23950000D03*
G04 #@! TD*
D11*
G04 #@! TO.C,U1*
X37585000Y-45145000D03*
X37185000Y-45145000D03*
X36785000Y-45145000D03*
X36385000Y-45145000D03*
X35985000Y-45145000D03*
X35585000Y-45145000D03*
X35185000Y-45145000D03*
X34785000Y-45145000D03*
X34385000Y-45145000D03*
X33985000Y-45145000D03*
X33585000Y-45145000D03*
X33185000Y-45145000D03*
X32785000Y-45145000D03*
X32385000Y-45145000D03*
D12*
X31435000Y-46095000D03*
X31435000Y-46495000D03*
X31435000Y-46895000D03*
X31435000Y-47295000D03*
X31435000Y-47695000D03*
X31435000Y-48095000D03*
X31435000Y-48495000D03*
X31435000Y-48895000D03*
X31435000Y-49295000D03*
X31435000Y-49695000D03*
X31435000Y-50095000D03*
X31435000Y-50495000D03*
X31435000Y-50895000D03*
X31435000Y-51295000D03*
D11*
X32385000Y-52245000D03*
X32785000Y-52245000D03*
X33185000Y-52245000D03*
X33585000Y-52245000D03*
X33985000Y-52245000D03*
X34385000Y-52245000D03*
X34785000Y-52245000D03*
X35185000Y-52245000D03*
X35585000Y-52245000D03*
X35985000Y-52245000D03*
X36385000Y-52245000D03*
X36785000Y-52245000D03*
X37185000Y-52245000D03*
X37585000Y-52245000D03*
D12*
X38535000Y-51295000D03*
X38535000Y-50895000D03*
X38535000Y-50495000D03*
X38535000Y-50095000D03*
X38535000Y-49695000D03*
X38535000Y-49295000D03*
X38535000Y-48895000D03*
X38535000Y-48495000D03*
X38535000Y-48095000D03*
X38535000Y-47695000D03*
X38535000Y-47295000D03*
X38535000Y-46895000D03*
X38535000Y-46495000D03*
X38535000Y-46095000D03*
D13*
X34985000Y-48695000D03*
G04 #@! TD*
D14*
G04 #@! TO.C,R11*
X38610000Y-22930000D03*
X38610000Y-23950000D03*
G04 #@! TD*
D25*
G04 #@! TO.C,C14*
X22980000Y-16600000D03*
X22980000Y-17560000D03*
G04 #@! TD*
D18*
G04 #@! TO.C,C5*
X19125000Y-36320000D03*
X20085000Y-36320000D03*
G04 #@! TD*
G04 #@! TO.C,C5*
X39725000Y-51880000D03*
X40685000Y-51880000D03*
G04 #@! TD*
D14*
G04 #@! TO.C,R3*
X34525000Y-37890000D03*
X34525000Y-38910000D03*
G04 #@! TD*
D19*
G04 #@! TO.C,R6*
X64180000Y-46745000D03*
X64180000Y-45725000D03*
G04 #@! TD*
D18*
G04 #@! TO.C,C12*
X34900000Y-43805000D03*
X35860000Y-43805000D03*
G04 #@! TD*
D25*
G04 #@! TO.C,C13*
X28020000Y-51965000D03*
X28020000Y-52925000D03*
G04 #@! TD*
D14*
G04 #@! TO.C,R10*
X37330000Y-22930000D03*
X37330000Y-23950000D03*
G04 #@! TD*
D26*
G04 #@! TO.C,C6*
X20085000Y-37387500D03*
X19125000Y-37387500D03*
G04 #@! TD*
D19*
G04 #@! TO.C,R6*
X22980000Y-46745000D03*
X22980000Y-45725000D03*
G04 #@! TD*
D18*
G04 #@! TO.C,C9*
X19125000Y-22895000D03*
X20085000Y-22895000D03*
G04 #@! TD*
D24*
G04 #@! TO.C,U5*
X26870000Y-25345000D03*
X27720000Y-25345000D03*
X26870000Y-26195000D03*
X27720000Y-26195000D03*
G04 #@! TD*
D18*
G04 #@! TO.C,C8*
X39730000Y-23980000D03*
X40690000Y-23980000D03*
G04 #@! TD*
D15*
G04 #@! TO.C,SW1*
X47590000Y-39080000D03*
X50790000Y-39080000D03*
G04 #@! TD*
D19*
G04 #@! TO.C,R2*
X9710000Y-37490000D03*
X9710000Y-36470000D03*
G04 #@! TD*
D18*
G04 #@! TO.C,C10*
X20700000Y-34620000D03*
X21660000Y-34620000D03*
G04 #@! TD*
G04 #@! TO.C,C2*
X61900000Y-18000000D03*
X62860000Y-18000000D03*
G04 #@! TD*
D20*
G04 #@! TO.C,R12*
X31720000Y-43820000D03*
X32740000Y-43820000D03*
G04 #@! TD*
D18*
G04 #@! TO.C,C5*
X60325000Y-20760000D03*
X61285000Y-20760000D03*
G04 #@! TD*
D19*
G04 #@! TO.C,R2*
X9710000Y-53050000D03*
X9710000Y-52030000D03*
G04 #@! TD*
D18*
G04 #@! TO.C,C1*
X27610000Y-35350000D03*
X28570000Y-35350000D03*
G04 #@! TD*
D25*
G04 #@! TO.C,C4*
X49750000Y-36400000D03*
X49750000Y-37360000D03*
G04 #@! TD*
D15*
G04 #@! TO.C,SW1*
X6390000Y-54640000D03*
X9590000Y-54640000D03*
G04 #@! TD*
D14*
G04 #@! TO.C,R3*
X13925000Y-22330000D03*
X13925000Y-23350000D03*
G04 #@! TD*
D11*
G04 #@! TO.C,U1*
X37585000Y-14025000D03*
X37185000Y-14025000D03*
X36785000Y-14025000D03*
X36385000Y-14025000D03*
X35985000Y-14025000D03*
X35585000Y-14025000D03*
X35185000Y-14025000D03*
X34785000Y-14025000D03*
X34385000Y-14025000D03*
X33985000Y-14025000D03*
X33585000Y-14025000D03*
X33185000Y-14025000D03*
X32785000Y-14025000D03*
X32385000Y-14025000D03*
D12*
X31435000Y-14975000D03*
X31435000Y-15375000D03*
X31435000Y-15775000D03*
X31435000Y-16175000D03*
X31435000Y-16575000D03*
X31435000Y-16975000D03*
X31435000Y-17375000D03*
X31435000Y-17775000D03*
X31435000Y-18175000D03*
X31435000Y-18575000D03*
X31435000Y-18975000D03*
X31435000Y-19375000D03*
X31435000Y-19775000D03*
X31435000Y-20175000D03*
D11*
X32385000Y-21125000D03*
X32785000Y-21125000D03*
X33185000Y-21125000D03*
X33585000Y-21125000D03*
X33985000Y-21125000D03*
X34385000Y-21125000D03*
X34785000Y-21125000D03*
X35185000Y-21125000D03*
X35585000Y-21125000D03*
X35985000Y-21125000D03*
X36385000Y-21125000D03*
X36785000Y-21125000D03*
X37185000Y-21125000D03*
X37585000Y-21125000D03*
D12*
X38535000Y-20175000D03*
X38535000Y-19775000D03*
X38535000Y-19375000D03*
X38535000Y-18975000D03*
X38535000Y-18575000D03*
X38535000Y-18175000D03*
X38535000Y-17775000D03*
X38535000Y-17375000D03*
X38535000Y-16975000D03*
X38535000Y-16575000D03*
X38535000Y-16175000D03*
X38535000Y-15775000D03*
X38535000Y-15375000D03*
X38535000Y-14975000D03*
D13*
X34985000Y-17575000D03*
G04 #@! TD*
D19*
G04 #@! TO.C,R6*
X22980000Y-15625000D03*
X22980000Y-14605000D03*
G04 #@! TD*
D11*
G04 #@! TO.C,U1*
X58185000Y-45145000D03*
X57785000Y-45145000D03*
X57385000Y-45145000D03*
X56985000Y-45145000D03*
X56585000Y-45145000D03*
X56185000Y-45145000D03*
X55785000Y-45145000D03*
X55385000Y-45145000D03*
X54985000Y-45145000D03*
X54585000Y-45145000D03*
X54185000Y-45145000D03*
X53785000Y-45145000D03*
X53385000Y-45145000D03*
X52985000Y-45145000D03*
D12*
X52035000Y-46095000D03*
X52035000Y-46495000D03*
X52035000Y-46895000D03*
X52035000Y-47295000D03*
X52035000Y-47695000D03*
X52035000Y-48095000D03*
X52035000Y-48495000D03*
X52035000Y-48895000D03*
X52035000Y-49295000D03*
X52035000Y-49695000D03*
X52035000Y-50095000D03*
X52035000Y-50495000D03*
X52035000Y-50895000D03*
X52035000Y-51295000D03*
D11*
X52985000Y-52245000D03*
X53385000Y-52245000D03*
X53785000Y-52245000D03*
X54185000Y-52245000D03*
X54585000Y-52245000D03*
X54985000Y-52245000D03*
X55385000Y-52245000D03*
X55785000Y-52245000D03*
X56185000Y-52245000D03*
X56585000Y-52245000D03*
X56985000Y-52245000D03*
X57385000Y-52245000D03*
X57785000Y-52245000D03*
X58185000Y-52245000D03*
D12*
X59135000Y-51295000D03*
X59135000Y-50895000D03*
X59135000Y-50495000D03*
X59135000Y-50095000D03*
X59135000Y-49695000D03*
X59135000Y-49295000D03*
X59135000Y-48895000D03*
X59135000Y-48495000D03*
X59135000Y-48095000D03*
X59135000Y-47695000D03*
X59135000Y-47295000D03*
X59135000Y-46895000D03*
X59135000Y-46495000D03*
X59135000Y-46095000D03*
D13*
X55585000Y-48695000D03*
G04 #@! TD*
D22*
G04 #@! TO.C,U2*
X63055000Y-44675500D03*
X62555000Y-44675500D03*
X62055000Y-44675500D03*
X61555000Y-44675500D03*
X61555000Y-47689500D03*
X62055000Y-47689500D03*
X62555000Y-47689500D03*
X63055000Y-47689500D03*
D23*
X62305000Y-46182500D03*
G04 #@! TD*
D21*
G04 #@! TO.C,X1*
X49552000Y-33913000D03*
X49552000Y-31713000D03*
X47802000Y-31713000D03*
X47802000Y-33913000D03*
G04 #@! TD*
D14*
G04 #@! TO.C,R3*
X34525000Y-22330000D03*
X34525000Y-23350000D03*
G04 #@! TD*
D18*
G04 #@! TO.C,C12*
X14300000Y-43805000D03*
X15260000Y-43805000D03*
G04 #@! TD*
D21*
G04 #@! TO.C,X1*
X28952000Y-33913000D03*
X28952000Y-31713000D03*
X27202000Y-31713000D03*
X27202000Y-33913000D03*
G04 #@! TD*
D26*
G04 #@! TO.C,C7*
X54110000Y-53450000D03*
X53150000Y-53450000D03*
G04 #@! TD*
D24*
G04 #@! TO.C,U5*
X47470000Y-25345000D03*
X48320000Y-25345000D03*
X47470000Y-26195000D03*
X48320000Y-26195000D03*
G04 #@! TD*
D18*
G04 #@! TO.C,C12*
X55500000Y-43805000D03*
X56460000Y-43805000D03*
G04 #@! TD*
G04 #@! TO.C,C1*
X7010000Y-50910000D03*
X7970000Y-50910000D03*
G04 #@! TD*
G04 #@! TO.C,C2*
X61900000Y-33560000D03*
X62860000Y-33560000D03*
G04 #@! TD*
D25*
G04 #@! TO.C,C14*
X64180000Y-16600000D03*
X64180000Y-17560000D03*
G04 #@! TD*
D14*
G04 #@! TO.C,R9*
X15450000Y-22930000D03*
X15450000Y-23950000D03*
G04 #@! TD*
G04 #@! TO.C,R11*
X18010000Y-22930000D03*
X18010000Y-23950000D03*
G04 #@! TD*
G04 #@! TO.C,R5*
X22980000Y-43740000D03*
X22980000Y-44760000D03*
G04 #@! TD*
D22*
G04 #@! TO.C,U2*
X63055000Y-29115500D03*
X62555000Y-29115500D03*
X62055000Y-29115500D03*
X61555000Y-29115500D03*
X61555000Y-32129500D03*
X62055000Y-32129500D03*
X62555000Y-32129500D03*
X63055000Y-32129500D03*
D23*
X62305000Y-30622500D03*
G04 #@! TD*
D19*
G04 #@! TO.C,R6*
X43580000Y-31185000D03*
X43580000Y-30165000D03*
G04 #@! TD*
D21*
G04 #@! TO.C,X1*
X49552000Y-49473000D03*
X49552000Y-47273000D03*
X47802000Y-47273000D03*
X47802000Y-49473000D03*
G04 #@! TD*
D18*
G04 #@! TO.C,C8*
X60330000Y-55100000D03*
X61290000Y-55100000D03*
G04 #@! TD*
G04 #@! TO.C,C5*
X39725000Y-20760000D03*
X40685000Y-20760000D03*
G04 #@! TD*
G04 #@! TO.C,C8*
X60330000Y-23980000D03*
X61290000Y-23980000D03*
G04 #@! TD*
D19*
G04 #@! TO.C,R1*
X50880000Y-18670000D03*
X50880000Y-17650000D03*
G04 #@! TD*
D18*
G04 #@! TO.C,C8*
X19130000Y-23980000D03*
X20090000Y-23980000D03*
G04 #@! TD*
D16*
G04 #@! TO.C,R7*
X64340000Y-55940000D03*
X63320000Y-55940000D03*
G04 #@! TD*
D18*
G04 #@! TO.C,C3*
X7030000Y-30280000D03*
X7990000Y-30280000D03*
G04 #@! TD*
G04 #@! TO.C,C9*
X19125000Y-54015000D03*
X20085000Y-54015000D03*
G04 #@! TD*
D14*
G04 #@! TO.C,R10*
X16730000Y-54050000D03*
X16730000Y-55070000D03*
G04 #@! TD*
G04 #@! TO.C,R11*
X38610000Y-38490000D03*
X38610000Y-39510000D03*
G04 #@! TD*
D25*
G04 #@! TO.C,C13*
X28020000Y-20845000D03*
X28020000Y-21805000D03*
G04 #@! TD*
D16*
G04 #@! TO.C,R7*
X23140000Y-40380000D03*
X22120000Y-40380000D03*
G04 #@! TD*
D18*
G04 #@! TO.C,C1*
X48210000Y-50910000D03*
X49170000Y-50910000D03*
G04 #@! TD*
G04 #@! TO.C,C2*
X61900000Y-49120000D03*
X62860000Y-49120000D03*
G04 #@! TD*
D15*
G04 #@! TO.C,SW1*
X6390000Y-39080000D03*
X9590000Y-39080000D03*
G04 #@! TD*
D26*
G04 #@! TO.C,C6*
X61285000Y-52947500D03*
X60325000Y-52947500D03*
G04 #@! TD*
G04 #@! TO.C,C7*
X12910000Y-37890000D03*
X11950000Y-37890000D03*
G04 #@! TD*
D14*
G04 #@! TO.C,R11*
X59210000Y-38490000D03*
X59210000Y-39510000D03*
G04 #@! TD*
D26*
G04 #@! TO.C,C7*
X33510000Y-22330000D03*
X32550000Y-22330000D03*
G04 #@! TD*
D17*
G04 #@! TO.C,REF\u002A\u002A*
X69700000Y-2500000D03*
G04 #@! TD*
D22*
G04 #@! TO.C,U2*
X63055000Y-13555500D03*
X62555000Y-13555500D03*
X62055000Y-13555500D03*
X61555000Y-13555500D03*
X61555000Y-16569500D03*
X62055000Y-16569500D03*
X62555000Y-16569500D03*
X63055000Y-16569500D03*
D23*
X62305000Y-15062500D03*
G04 #@! TD*
D18*
G04 #@! TO.C,C1*
X48210000Y-19790000D03*
X49170000Y-19790000D03*
G04 #@! TD*
G04 #@! TO.C,C12*
X34900000Y-28245000D03*
X35860000Y-28245000D03*
G04 #@! TD*
D16*
G04 #@! TO.C,R4*
X23140000Y-37880000D03*
X22120000Y-37880000D03*
G04 #@! TD*
D14*
G04 #@! TO.C,R5*
X43580000Y-12620000D03*
X43580000Y-13640000D03*
G04 #@! TD*
D18*
G04 #@! TO.C,C9*
X60325000Y-54015000D03*
X61285000Y-54015000D03*
G04 #@! TD*
D25*
G04 #@! TO.C,C14*
X64180000Y-47720000D03*
X64180000Y-48680000D03*
G04 #@! TD*
D15*
G04 #@! TO.C,SW1*
X26990000Y-23520000D03*
X30190000Y-23520000D03*
G04 #@! TD*
D18*
G04 #@! TO.C,C3*
X7030000Y-14720000D03*
X7990000Y-14720000D03*
G04 #@! TD*
D25*
G04 #@! TO.C,C13*
X48620000Y-20845000D03*
X48620000Y-21805000D03*
G04 #@! TD*
D18*
G04 #@! TO.C,C10*
X41300000Y-19060000D03*
X42260000Y-19060000D03*
G04 #@! TD*
G04 #@! TO.C,C2*
X20700000Y-18000000D03*
X21660000Y-18000000D03*
G04 #@! TD*
G04 #@! TO.C,C1*
X7010000Y-19790000D03*
X7970000Y-19790000D03*
G04 #@! TD*
G04 #@! TO.C,C8*
X39730000Y-39540000D03*
X40690000Y-39540000D03*
G04 #@! TD*
D14*
G04 #@! TO.C,R11*
X59210000Y-22930000D03*
X59210000Y-23950000D03*
G04 #@! TD*
D16*
G04 #@! TO.C,R7*
X43740000Y-40380000D03*
X42720000Y-40380000D03*
G04 #@! TD*
D18*
G04 #@! TO.C,C12*
X55500000Y-12685000D03*
X56460000Y-12685000D03*
G04 #@! TD*
D25*
G04 #@! TO.C,C13*
X7420000Y-36405000D03*
X7420000Y-37365000D03*
G04 #@! TD*
G04 #@! TO.C,C4*
X8550000Y-20840000D03*
X8550000Y-21800000D03*
G04 #@! TD*
D15*
G04 #@! TO.C,SW1*
X47590000Y-54640000D03*
X50790000Y-54640000D03*
G04 #@! TD*
D14*
G04 #@! TO.C,R5*
X22980000Y-28180000D03*
X22980000Y-29200000D03*
G04 #@! TD*
D19*
G04 #@! TO.C,R2*
X50910000Y-21930000D03*
X50910000Y-20910000D03*
G04 #@! TD*
D18*
G04 #@! TO.C,C10*
X20700000Y-19060000D03*
X21660000Y-19060000D03*
G04 #@! TD*
D14*
G04 #@! TO.C,R9*
X36050000Y-38490000D03*
X36050000Y-39510000D03*
G04 #@! TD*
G04 #@! TO.C,R3*
X55125000Y-37890000D03*
X55125000Y-38910000D03*
G04 #@! TD*
G04 #@! TO.C,R9*
X56650000Y-22930000D03*
X56650000Y-23950000D03*
G04 #@! TD*
D19*
G04 #@! TO.C,R2*
X30310000Y-53050000D03*
X30310000Y-52030000D03*
G04 #@! TD*
D20*
G04 #@! TO.C,R12*
X52320000Y-12700000D03*
X53340000Y-12700000D03*
G04 #@! TD*
D25*
G04 #@! TO.C,C14*
X43580000Y-32160000D03*
X43580000Y-33120000D03*
G04 #@! TD*
D15*
G04 #@! TO.C,SW1*
X47590000Y-23520000D03*
X50790000Y-23520000D03*
G04 #@! TD*
D18*
G04 #@! TO.C,C11*
X17800000Y-28240000D03*
X18760000Y-28240000D03*
G04 #@! TD*
G04 #@! TO.C,C10*
X41300000Y-50180000D03*
X42260000Y-50180000D03*
G04 #@! TD*
D25*
G04 #@! TO.C,C14*
X22980000Y-32160000D03*
X22980000Y-33120000D03*
G04 #@! TD*
D14*
G04 #@! TO.C,R5*
X64180000Y-43740000D03*
X64180000Y-44760000D03*
G04 #@! TD*
D18*
G04 #@! TO.C,C1*
X27610000Y-50910000D03*
X28570000Y-50910000D03*
G04 #@! TD*
D19*
G04 #@! TO.C,R1*
X9680000Y-34230000D03*
X9680000Y-33210000D03*
G04 #@! TD*
D18*
G04 #@! TO.C,C3*
X27630000Y-30280000D03*
X28590000Y-30280000D03*
G04 #@! TD*
D19*
G04 #@! TO.C,R1*
X50880000Y-49790000D03*
X50880000Y-48770000D03*
G04 #@! TD*
G04 #@! TO.C,R1*
X50880000Y-34230000D03*
X50880000Y-33210000D03*
G04 #@! TD*
D11*
G04 #@! TO.C,U1*
X58185000Y-14025000D03*
X57785000Y-14025000D03*
X57385000Y-14025000D03*
X56985000Y-14025000D03*
X56585000Y-14025000D03*
X56185000Y-14025000D03*
X55785000Y-14025000D03*
X55385000Y-14025000D03*
X54985000Y-14025000D03*
X54585000Y-14025000D03*
X54185000Y-14025000D03*
X53785000Y-14025000D03*
X53385000Y-14025000D03*
X52985000Y-14025000D03*
D12*
X52035000Y-14975000D03*
X52035000Y-15375000D03*
X52035000Y-15775000D03*
X52035000Y-16175000D03*
X52035000Y-16575000D03*
X52035000Y-16975000D03*
X52035000Y-17375000D03*
X52035000Y-17775000D03*
X52035000Y-18175000D03*
X52035000Y-18575000D03*
X52035000Y-18975000D03*
X52035000Y-19375000D03*
X52035000Y-19775000D03*
X52035000Y-20175000D03*
D11*
X52985000Y-21125000D03*
X53385000Y-21125000D03*
X53785000Y-21125000D03*
X54185000Y-21125000D03*
X54585000Y-21125000D03*
X54985000Y-21125000D03*
X55385000Y-21125000D03*
X55785000Y-21125000D03*
X56185000Y-21125000D03*
X56585000Y-21125000D03*
X56985000Y-21125000D03*
X57385000Y-21125000D03*
X57785000Y-21125000D03*
X58185000Y-21125000D03*
D12*
X59135000Y-20175000D03*
X59135000Y-19775000D03*
X59135000Y-19375000D03*
X59135000Y-18975000D03*
X59135000Y-18575000D03*
X59135000Y-18175000D03*
X59135000Y-17775000D03*
X59135000Y-17375000D03*
X59135000Y-16975000D03*
X59135000Y-16575000D03*
X59135000Y-16175000D03*
X59135000Y-15775000D03*
X59135000Y-15375000D03*
X59135000Y-14975000D03*
D13*
X55585000Y-17575000D03*
G04 #@! TD*
D18*
G04 #@! TO.C,C10*
X20700000Y-50180000D03*
X21660000Y-50180000D03*
G04 #@! TD*
D16*
G04 #@! TO.C,R4*
X23140000Y-22320000D03*
X22120000Y-22320000D03*
G04 #@! TD*
D14*
G04 #@! TO.C,R11*
X18010000Y-38490000D03*
X18010000Y-39510000D03*
G04 #@! TD*
D26*
G04 #@! TO.C,C7*
X12910000Y-53450000D03*
X11950000Y-53450000D03*
G04 #@! TD*
D18*
G04 #@! TO.C,C3*
X7030000Y-45840000D03*
X7990000Y-45840000D03*
G04 #@! TD*
D19*
G04 #@! TO.C,R1*
X30280000Y-18670000D03*
X30280000Y-17650000D03*
G04 #@! TD*
D24*
G04 #@! TO.C,U5*
X6270000Y-40905000D03*
X7120000Y-40905000D03*
X6270000Y-41755000D03*
X7120000Y-41755000D03*
G04 #@! TD*
D19*
G04 #@! TO.C,R1*
X9680000Y-18670000D03*
X9680000Y-17650000D03*
G04 #@! TD*
D18*
G04 #@! TO.C,C1*
X7010000Y-35350000D03*
X7970000Y-35350000D03*
G04 #@! TD*
D19*
G04 #@! TO.C,R1*
X30280000Y-49790000D03*
X30280000Y-48770000D03*
G04 #@! TD*
D18*
G04 #@! TO.C,C3*
X48230000Y-14720000D03*
X49190000Y-14720000D03*
G04 #@! TD*
D25*
G04 #@! TO.C,C13*
X7420000Y-51965000D03*
X7420000Y-52925000D03*
G04 #@! TD*
D18*
G04 #@! TO.C,C11*
X59000000Y-12680000D03*
X59960000Y-12680000D03*
G04 #@! TD*
D14*
G04 #@! TO.C,R3*
X55125000Y-53450000D03*
X55125000Y-54470000D03*
G04 #@! TD*
D18*
G04 #@! TO.C,C8*
X39730000Y-55100000D03*
X40690000Y-55100000D03*
G04 #@! TD*
D15*
G04 #@! TO.C,SW1*
X26990000Y-54640000D03*
X30190000Y-54640000D03*
G04 #@! TD*
D16*
G04 #@! TO.C,R4*
X43740000Y-53440000D03*
X42720000Y-53440000D03*
G04 #@! TD*
D25*
G04 #@! TO.C,C13*
X7420000Y-20845000D03*
X7420000Y-21805000D03*
G04 #@! TD*
D18*
G04 #@! TO.C,C3*
X48230000Y-30280000D03*
X49190000Y-30280000D03*
G04 #@! TD*
D26*
G04 #@! TO.C,C6*
X20085000Y-52947500D03*
X19125000Y-52947500D03*
G04 #@! TD*
D25*
G04 #@! TO.C,C4*
X8550000Y-36400000D03*
X8550000Y-37360000D03*
G04 #@! TD*
D20*
G04 #@! TO.C,R12*
X11120000Y-12700000D03*
X12140000Y-12700000D03*
G04 #@! TD*
D22*
G04 #@! TO.C,U2*
X42455000Y-44675500D03*
X41955000Y-44675500D03*
X41455000Y-44675500D03*
X40955000Y-44675500D03*
X40955000Y-47689500D03*
X41455000Y-47689500D03*
X41955000Y-47689500D03*
X42455000Y-47689500D03*
D23*
X41705000Y-46182500D03*
G04 #@! TD*
D24*
G04 #@! TO.C,U5*
X47470000Y-56465000D03*
X48320000Y-56465000D03*
X47470000Y-57315000D03*
X48320000Y-57315000D03*
G04 #@! TD*
D25*
G04 #@! TO.C,C4*
X49750000Y-51960000D03*
X49750000Y-52920000D03*
G04 #@! TD*
D18*
G04 #@! TO.C,C1*
X48210000Y-35350000D03*
X49170000Y-35350000D03*
G04 #@! TD*
D22*
G04 #@! TO.C,U2*
X42455000Y-13555500D03*
X41955000Y-13555500D03*
X41455000Y-13555500D03*
X40955000Y-13555500D03*
X40955000Y-16569500D03*
X41455000Y-16569500D03*
X41955000Y-16569500D03*
X42455000Y-16569500D03*
D23*
X41705000Y-15062500D03*
G04 #@! TD*
D21*
G04 #@! TO.C,X1*
X28952000Y-18353000D03*
X28952000Y-16153000D03*
X27202000Y-16153000D03*
X27202000Y-18353000D03*
G04 #@! TD*
D16*
G04 #@! TO.C,R7*
X23140000Y-24820000D03*
X22120000Y-24820000D03*
G04 #@! TD*
D18*
G04 #@! TO.C,C9*
X39725000Y-54015000D03*
X40685000Y-54015000D03*
G04 #@! TD*
D19*
G04 #@! TO.C,R2*
X30310000Y-37490000D03*
X30310000Y-36470000D03*
G04 #@! TD*
D20*
G04 #@! TO.C,R12*
X52320000Y-43820000D03*
X53340000Y-43820000D03*
G04 #@! TD*
D18*
G04 #@! TO.C,C1*
X27610000Y-19790000D03*
X28570000Y-19790000D03*
G04 #@! TD*
D16*
G04 #@! TO.C,R4*
X64340000Y-53440000D03*
X63320000Y-53440000D03*
G04 #@! TD*
D22*
G04 #@! TO.C,U2*
X42455000Y-29115500D03*
X41955000Y-29115500D03*
X41455000Y-29115500D03*
X40955000Y-29115500D03*
X40955000Y-32129500D03*
X41455000Y-32129500D03*
X41955000Y-32129500D03*
X42455000Y-32129500D03*
D23*
X41705000Y-30622500D03*
G04 #@! TD*
D18*
G04 #@! TO.C,C8*
X19130000Y-39540000D03*
X20090000Y-39540000D03*
G04 #@! TD*
D14*
G04 #@! TO.C,R10*
X16730000Y-22930000D03*
X16730000Y-23950000D03*
G04 #@! TD*
G04 #@! TO.C,R11*
X38610000Y-54050000D03*
X38610000Y-55070000D03*
G04 #@! TD*
D19*
G04 #@! TO.C,R1*
X9680000Y-49790000D03*
X9680000Y-48770000D03*
G04 #@! TD*
D18*
G04 #@! TO.C,C8*
X60330000Y-39540000D03*
X61290000Y-39540000D03*
G04 #@! TD*
G04 #@! TO.C,C11*
X17800000Y-43800000D03*
X18760000Y-43800000D03*
G04 #@! TD*
G04 #@! TO.C,C11*
X38400000Y-28240000D03*
X39360000Y-28240000D03*
G04 #@! TD*
D25*
G04 #@! TO.C,C13*
X48620000Y-36405000D03*
X48620000Y-37365000D03*
G04 #@! TD*
G04 #@! TO.C,C4*
X49750000Y-20840000D03*
X49750000Y-21800000D03*
G04 #@! TD*
D26*
G04 #@! TO.C,C6*
X61285000Y-37387500D03*
X60325000Y-37387500D03*
G04 #@! TD*
D16*
G04 #@! TO.C,R7*
X23140000Y-55940000D03*
X22120000Y-55940000D03*
G04 #@! TD*
D26*
G04 #@! TO.C,C6*
X61285000Y-21827500D03*
X60325000Y-21827500D03*
G04 #@! TD*
G04 #@! TO.C,C6*
X20085000Y-21827500D03*
X19125000Y-21827500D03*
G04 #@! TD*
D19*
G04 #@! TO.C,R6*
X64180000Y-31185000D03*
X64180000Y-30165000D03*
G04 #@! TD*
D26*
G04 #@! TO.C,C7*
X54110000Y-37890000D03*
X53150000Y-37890000D03*
G04 #@! TD*
D16*
G04 #@! TO.C,R7*
X64340000Y-40380000D03*
X63320000Y-40380000D03*
G04 #@! TD*
D21*
G04 #@! TO.C,X1*
X8352000Y-18353000D03*
X8352000Y-16153000D03*
X6602000Y-16153000D03*
X6602000Y-18353000D03*
G04 #@! TD*
D14*
G04 #@! TO.C,R5*
X64180000Y-28180000D03*
X64180000Y-29200000D03*
G04 #@! TD*
D18*
G04 #@! TO.C,C3*
X27630000Y-14720000D03*
X28590000Y-14720000D03*
G04 #@! TD*
D26*
G04 #@! TO.C,C7*
X33510000Y-53450000D03*
X32550000Y-53450000D03*
G04 #@! TD*
D18*
G04 #@! TO.C,C12*
X14300000Y-28245000D03*
X15260000Y-28245000D03*
G04 #@! TD*
D14*
G04 #@! TO.C,R9*
X15450000Y-38490000D03*
X15450000Y-39510000D03*
G04 #@! TD*
D16*
G04 #@! TO.C,R4*
X43740000Y-37880000D03*
X42720000Y-37880000D03*
G04 #@! TD*
D25*
G04 #@! TO.C,C13*
X28020000Y-36405000D03*
X28020000Y-37365000D03*
G04 #@! TD*
D22*
G04 #@! TO.C,U2*
X21855000Y-44675500D03*
X21355000Y-44675500D03*
X20855000Y-44675500D03*
X20355000Y-44675500D03*
X20355000Y-47689500D03*
X20855000Y-47689500D03*
X21355000Y-47689500D03*
X21855000Y-47689500D03*
D23*
X21105000Y-46182500D03*
G04 #@! TD*
D19*
G04 #@! TO.C,R6*
X22980000Y-31185000D03*
X22980000Y-30165000D03*
G04 #@! TD*
D20*
G04 #@! TO.C,R12*
X31720000Y-28260000D03*
X32740000Y-28260000D03*
G04 #@! TD*
D14*
G04 #@! TO.C,R3*
X34525000Y-53450000D03*
X34525000Y-54470000D03*
G04 #@! TD*
D18*
G04 #@! TO.C,C3*
X27630000Y-45840000D03*
X28590000Y-45840000D03*
G04 #@! TD*
D14*
G04 #@! TO.C,R9*
X56650000Y-54050000D03*
X56650000Y-55070000D03*
G04 #@! TD*
G04 #@! TO.C,R10*
X37330000Y-38490000D03*
X37330000Y-39510000D03*
G04 #@! TD*
D18*
G04 #@! TO.C,C10*
X41300000Y-34620000D03*
X42260000Y-34620000D03*
G04 #@! TD*
D14*
G04 #@! TO.C,R11*
X59210000Y-54050000D03*
X59210000Y-55070000D03*
G04 #@! TD*
D26*
G04 #@! TO.C,C6*
X40685000Y-52947500D03*
X39725000Y-52947500D03*
G04 #@! TD*
D14*
G04 #@! TO.C,R10*
X16730000Y-38490000D03*
X16730000Y-39510000D03*
G04 #@! TD*
D18*
G04 #@! TO.C,C2*
X41300000Y-18000000D03*
X42260000Y-18000000D03*
G04 #@! TD*
G04 #@! TO.C,C11*
X59000000Y-28240000D03*
X59960000Y-28240000D03*
G04 #@! TD*
G04 #@! TO.C,C2*
X20700000Y-33560000D03*
X21660000Y-33560000D03*
G04 #@! TD*
D14*
G04 #@! TO.C,R3*
X13925000Y-37890000D03*
X13925000Y-38910000D03*
G04 #@! TD*
D21*
G04 #@! TO.C,X1*
X8352000Y-33913000D03*
X8352000Y-31713000D03*
X6602000Y-31713000D03*
X6602000Y-33913000D03*
G04 #@! TD*
D18*
G04 #@! TO.C,C2*
X41300000Y-33560000D03*
X42260000Y-33560000D03*
G04 #@! TD*
D26*
G04 #@! TO.C,C7*
X12910000Y-22330000D03*
X11950000Y-22330000D03*
G04 #@! TD*
D18*
G04 #@! TO.C,C12*
X55500000Y-28245000D03*
X56460000Y-28245000D03*
G04 #@! TD*
D14*
G04 #@! TO.C,R5*
X64180000Y-12620000D03*
X64180000Y-13640000D03*
G04 #@! TD*
D18*
G04 #@! TO.C,C5*
X60325000Y-51880000D03*
X61285000Y-51880000D03*
G04 #@! TD*
D26*
G04 #@! TO.C,C7*
X54110000Y-22330000D03*
X53150000Y-22330000D03*
G04 #@! TD*
D25*
G04 #@! TO.C,C14*
X43580000Y-16600000D03*
X43580000Y-17560000D03*
G04 #@! TD*
D18*
G04 #@! TO.C,C9*
X60325000Y-22895000D03*
X61285000Y-22895000D03*
G04 #@! TD*
G04 #@! TO.C,C2*
X20700000Y-49120000D03*
X21660000Y-49120000D03*
G04 #@! TD*
D14*
G04 #@! TO.C,R9*
X36050000Y-54050000D03*
X36050000Y-55070000D03*
G04 #@! TD*
D18*
G04 #@! TO.C,C9*
X60325000Y-38455000D03*
X61285000Y-38455000D03*
G04 #@! TD*
D14*
G04 #@! TO.C,R5*
X22980000Y-12620000D03*
X22980000Y-13640000D03*
G04 #@! TD*
D25*
G04 #@! TO.C,C4*
X29150000Y-36400000D03*
X29150000Y-37360000D03*
G04 #@! TD*
D14*
G04 #@! TO.C,R9*
X15450000Y-54050000D03*
X15450000Y-55070000D03*
G04 #@! TD*
D20*
G04 #@! TO.C,R12*
X11120000Y-28260000D03*
X12140000Y-28260000D03*
G04 #@! TD*
D24*
G04 #@! TO.C,U5*
X47470000Y-40905000D03*
X48320000Y-40905000D03*
X47470000Y-41755000D03*
X48320000Y-41755000D03*
G04 #@! TD*
D22*
G04 #@! TO.C,U2*
X21855000Y-29115500D03*
X21355000Y-29115500D03*
X20855000Y-29115500D03*
X20355000Y-29115500D03*
X20355000Y-32129500D03*
X20855000Y-32129500D03*
X21355000Y-32129500D03*
X21855000Y-32129500D03*
D23*
X21105000Y-30622500D03*
G04 #@! TD*
D18*
G04 #@! TO.C,C11*
X59000000Y-43800000D03*
X59960000Y-43800000D03*
G04 #@! TD*
D25*
G04 #@! TO.C,C4*
X29150000Y-20840000D03*
X29150000Y-21800000D03*
G04 #@! TD*
D16*
G04 #@! TO.C,R4*
X64340000Y-37880000D03*
X63320000Y-37880000D03*
G04 #@! TD*
D14*
G04 #@! TO.C,R10*
X57930000Y-38490000D03*
X57930000Y-39510000D03*
G04 #@! TD*
D18*
G04 #@! TO.C,C10*
X61900000Y-19060000D03*
X62860000Y-19060000D03*
G04 #@! TD*
D19*
G04 #@! TO.C,R2*
X9710000Y-21930000D03*
X9710000Y-20910000D03*
G04 #@! TD*
D18*
G04 #@! TO.C,C11*
X38400000Y-43800000D03*
X39360000Y-43800000D03*
G04 #@! TD*
D20*
G04 #@! TO.C,R12*
X52320000Y-28260000D03*
X53340000Y-28260000D03*
G04 #@! TD*
D18*
G04 #@! TO.C,C5*
X60325000Y-36320000D03*
X61285000Y-36320000D03*
G04 #@! TD*
D26*
G04 #@! TO.C,C7*
X33510000Y-37890000D03*
X32550000Y-37890000D03*
G04 #@! TD*
D17*
G04 #@! TO.C,REF\u002A\u002A*
X2500000Y-67500000D03*
G04 #@! TD*
D26*
G04 #@! TO.C,C6*
X40685000Y-37387500D03*
X39725000Y-37387500D03*
G04 #@! TD*
D14*
G04 #@! TO.C,R3*
X55125000Y-22330000D03*
X55125000Y-23350000D03*
G04 #@! TD*
D19*
G04 #@! TO.C,R6*
X43580000Y-15625000D03*
X43580000Y-14605000D03*
G04 #@! TD*
D18*
G04 #@! TO.C,C2*
X41300000Y-49120000D03*
X42260000Y-49120000D03*
G04 #@! TD*
D16*
G04 #@! TO.C,R4*
X23140000Y-53440000D03*
X22120000Y-53440000D03*
G04 #@! TD*
D19*
G04 #@! TO.C,R2*
X50910000Y-37490000D03*
X50910000Y-36470000D03*
G04 #@! TD*
D18*
G04 #@! TO.C,C9*
X19125000Y-38455000D03*
X20085000Y-38455000D03*
G04 #@! TD*
D25*
G04 #@! TO.C,C4*
X29150000Y-51960000D03*
X29150000Y-52920000D03*
G04 #@! TD*
D18*
G04 #@! TO.C,C11*
X17800000Y-12680000D03*
X18760000Y-12680000D03*
G04 #@! TD*
D21*
G04 #@! TO.C,X1*
X49552000Y-18353000D03*
X49552000Y-16153000D03*
X47802000Y-16153000D03*
X47802000Y-18353000D03*
G04 #@! TD*
D19*
G04 #@! TO.C,R1*
X30280000Y-34230000D03*
X30280000Y-33210000D03*
G04 #@! TD*
D18*
G04 #@! TO.C,C5*
X19125000Y-51880000D03*
X20085000Y-51880000D03*
G04 #@! TD*
G04 #@! TO.C,C9*
X39725000Y-22895000D03*
X40685000Y-22895000D03*
G04 #@! TD*
D15*
G04 #@! TO.C,SW1*
X6390000Y-23520000D03*
X9590000Y-23520000D03*
G04 #@! TD*
D25*
G04 #@! TO.C,C14*
X22980000Y-47720000D03*
X22980000Y-48680000D03*
G04 #@! TD*
D18*
G04 #@! TO.C,C3*
X48230000Y-45840000D03*
X49190000Y-45840000D03*
G04 #@! TD*
D25*
G04 #@! TO.C,C4*
X8550000Y-51960000D03*
X8550000Y-52920000D03*
G04 #@! TD*
G04 #@! TO.C,C13*
X48620000Y-51965000D03*
X48620000Y-52925000D03*
G04 #@! TD*
D24*
G04 #@! TO.C,U5*
X6270000Y-25345000D03*
X7120000Y-25345000D03*
X6270000Y-26195000D03*
X7120000Y-26195000D03*
G04 #@! TD*
D11*
G04 #@! TO.C,U1*
X16985000Y-29585000D03*
X16585000Y-29585000D03*
X16185000Y-29585000D03*
X15785000Y-29585000D03*
X15385000Y-29585000D03*
X14985000Y-29585000D03*
X14585000Y-29585000D03*
X14185000Y-29585000D03*
X13785000Y-29585000D03*
X13385000Y-29585000D03*
X12985000Y-29585000D03*
X12585000Y-29585000D03*
X12185000Y-29585000D03*
X11785000Y-29585000D03*
D12*
X10835000Y-30535000D03*
X10835000Y-30935000D03*
X10835000Y-31335000D03*
X10835000Y-31735000D03*
X10835000Y-32135000D03*
X10835000Y-32535000D03*
X10835000Y-32935000D03*
X10835000Y-33335000D03*
X10835000Y-33735000D03*
X10835000Y-34135000D03*
X10835000Y-34535000D03*
X10835000Y-34935000D03*
X10835000Y-35335000D03*
X10835000Y-35735000D03*
D11*
X11785000Y-36685000D03*
X12185000Y-36685000D03*
X12585000Y-36685000D03*
X12985000Y-36685000D03*
X13385000Y-36685000D03*
X13785000Y-36685000D03*
X14185000Y-36685000D03*
X14585000Y-36685000D03*
X14985000Y-36685000D03*
X15385000Y-36685000D03*
X15785000Y-36685000D03*
X16185000Y-36685000D03*
X16585000Y-36685000D03*
X16985000Y-36685000D03*
D12*
X17935000Y-35735000D03*
X17935000Y-35335000D03*
X17935000Y-34935000D03*
X17935000Y-34535000D03*
X17935000Y-34135000D03*
X17935000Y-33735000D03*
X17935000Y-33335000D03*
X17935000Y-32935000D03*
X17935000Y-32535000D03*
X17935000Y-32135000D03*
X17935000Y-31735000D03*
X17935000Y-31335000D03*
X17935000Y-30935000D03*
X17935000Y-30535000D03*
D13*
X14385000Y-33135000D03*
G04 #@! TD*
D19*
G04 #@! TO.C,R6*
X43580000Y-46745000D03*
X43580000Y-45725000D03*
G04 #@! TD*
D18*
G04 #@! TO.C,C10*
X61900000Y-34620000D03*
X62860000Y-34620000D03*
G04 #@! TD*
D24*
G04 #@! TO.C,U5*
X26870000Y-40905000D03*
X27720000Y-40905000D03*
X26870000Y-41755000D03*
X27720000Y-41755000D03*
G04 #@! TD*
D26*
G04 #@! TO.C,C6*
X40685000Y-21827500D03*
X39725000Y-21827500D03*
G04 #@! TD*
D18*
G04 #@! TO.C,C5*
X39725000Y-36320000D03*
X40685000Y-36320000D03*
G04 #@! TD*
D14*
G04 #@! TO.C,R5*
X43580000Y-28180000D03*
X43580000Y-29200000D03*
G04 #@! TD*
D19*
G04 #@! TO.C,R6*
X64180000Y-15625000D03*
X64180000Y-14605000D03*
G04 #@! TD*
D14*
G04 #@! TO.C,R9*
X56650000Y-38490000D03*
X56650000Y-39510000D03*
G04 #@! TD*
D16*
G04 #@! TO.C,R4*
X43740000Y-22320000D03*
X42720000Y-22320000D03*
G04 #@! TD*
D20*
G04 #@! TO.C,R12*
X11120000Y-43820000D03*
X12140000Y-43820000D03*
G04 #@! TD*
D11*
G04 #@! TO.C,U1*
X16985000Y-45145000D03*
X16585000Y-45145000D03*
X16185000Y-45145000D03*
X15785000Y-45145000D03*
X15385000Y-45145000D03*
X14985000Y-45145000D03*
X14585000Y-45145000D03*
X14185000Y-45145000D03*
X13785000Y-45145000D03*
X13385000Y-45145000D03*
X12985000Y-45145000D03*
X12585000Y-45145000D03*
X12185000Y-45145000D03*
X11785000Y-45145000D03*
D12*
X10835000Y-46095000D03*
X10835000Y-46495000D03*
X10835000Y-46895000D03*
X10835000Y-47295000D03*
X10835000Y-47695000D03*
X10835000Y-48095000D03*
X10835000Y-48495000D03*
X10835000Y-48895000D03*
X10835000Y-49295000D03*
X10835000Y-49695000D03*
X10835000Y-50095000D03*
X10835000Y-50495000D03*
X10835000Y-50895000D03*
X10835000Y-51295000D03*
D11*
X11785000Y-52245000D03*
X12185000Y-52245000D03*
X12585000Y-52245000D03*
X12985000Y-52245000D03*
X13385000Y-52245000D03*
X13785000Y-52245000D03*
X14185000Y-52245000D03*
X14585000Y-52245000D03*
X14985000Y-52245000D03*
X15385000Y-52245000D03*
X15785000Y-52245000D03*
X16185000Y-52245000D03*
X16585000Y-52245000D03*
X16985000Y-52245000D03*
D12*
X17935000Y-51295000D03*
X17935000Y-50895000D03*
X17935000Y-50495000D03*
X17935000Y-50095000D03*
X17935000Y-49695000D03*
X17935000Y-49295000D03*
X17935000Y-48895000D03*
X17935000Y-48495000D03*
X17935000Y-48095000D03*
X17935000Y-47695000D03*
X17935000Y-47295000D03*
X17935000Y-46895000D03*
X17935000Y-46495000D03*
X17935000Y-46095000D03*
D13*
X14385000Y-48695000D03*
G04 #@! TD*
D14*
G04 #@! TO.C,R9*
X36050000Y-22930000D03*
X36050000Y-23950000D03*
G04 #@! TD*
G04 #@! TO.C,R10*
X57930000Y-54050000D03*
X57930000Y-55070000D03*
G04 #@! TD*
D16*
G04 #@! TO.C,R4*
X64340000Y-22320000D03*
X63320000Y-22320000D03*
G04 #@! TD*
M02*
