M48
; DRILL file {KiCad 7.0.2-6a45011f42~172~ubuntu22.04.1} date Tue Jul  4 14:06:36 2023
; FORMAT={-:-/ absolute / metric / decimal}
; #@! TF.CreationDate,2023-07-04T14:06:36+08:00
; #@! TF.GenerationSoftware,Kicad,Pcbnew,7.0.2-6a45011f42~172~ubuntu22.04.1
; #@! TF.FileFunction,MixedPlating,1,4
FMAT,2
METRIC
; #@! TA.AperFunction,Plated,PTH,ViaDrill
T1C0.200
; #@! TA.AperFunction,Plated,PTH,ComponentDrill
T2C0.200
; #@! TA.AperFunction,Plated,PTH,ComponentDrill
T3C0.500
; #@! TA.AperFunction,Plated,PTH,ComponentDrill
T4C0.650
; #@! TA.AperFunction,NonPlated,NPTH,ComponentDrill
T5C1.152
%
G90
G05
T1
X6.36Y-21.0
X6.36Y-36.56
X6.36Y-52.12
X7.97Y-23.53
X7.97Y-39.09
X7.97Y-54.65
X9.47Y-19.93
X9.47Y-35.49
X9.47Y-51.05
X10.66Y-22.29
X10.66Y-37.85
X10.66Y-53.41
X10.78Y-20.9
X10.78Y-36.46
X10.78Y-52.02
X10.9Y-14.08
X10.9Y-29.64
X10.9Y-45.2
X11.96Y-19.92
X11.96Y-35.48
X11.96Y-51.04
X12.02Y-17.6
X12.02Y-33.16
X12.02Y-48.72
X12.03Y-18.655
X12.03Y-34.215
X12.03Y-49.775
X12.24Y-15.87
X12.24Y-31.43
X12.24Y-46.99
X12.91Y-23.25
X12.91Y-38.81
X12.91Y-54.37
X13.18Y-15.19
X13.18Y-30.75
X13.18Y-46.31
X13.37Y-12.87
X13.37Y-28.43
X13.37Y-43.99
X15.49Y-15.41
X15.49Y-30.97
X15.49Y-46.53
X15.93Y-19.86
X15.93Y-35.42
X15.93Y-50.98
X16.57Y-15.38
X16.57Y-30.94
X16.57Y-46.5
X16.82Y-19.375
X16.82Y-34.935
X16.82Y-50.495
X17.8Y-13.72
X17.8Y-29.28
X17.8Y-44.84
X17.935Y-20.96
X17.935Y-36.52
X17.935Y-52.08
X19.79Y-18.63
X19.79Y-34.19
X19.79Y-49.75
X20.96Y-22.34
X20.96Y-37.9
X20.96Y-53.46
X21.12Y-14.42
X21.12Y-29.98
X21.12Y-45.54
X21.22Y-24.74
X21.22Y-40.3
X21.22Y-55.86
X21.99Y-15.74
X21.99Y-31.3
X21.99Y-46.86
X22.05Y-12.53
X22.05Y-28.09
X22.05Y-43.65
X26.96Y-21.0
X26.96Y-36.56
X26.96Y-52.12
X28.57Y-23.53
X28.57Y-39.09
X28.57Y-54.65
X30.07Y-19.93
X30.07Y-35.49
X30.07Y-51.05
X31.26Y-22.29
X31.26Y-37.85
X31.26Y-53.41
X31.38Y-20.9
X31.38Y-36.46
X31.38Y-52.02
X31.5Y-14.08
X31.5Y-29.64
X31.5Y-45.2
X32.56Y-19.92
X32.56Y-35.48
X32.56Y-51.04
X32.62Y-17.6
X32.62Y-33.16
X32.62Y-48.72
X32.63Y-18.655
X32.63Y-34.215
X32.63Y-49.775
X32.84Y-15.87
X32.84Y-31.43
X32.84Y-46.99
X33.51Y-23.25
X33.51Y-38.81
X33.51Y-54.37
X33.78Y-15.19
X33.78Y-30.75
X33.78Y-46.31
X33.97Y-12.87
X33.97Y-28.43
X33.97Y-43.99
X36.09Y-15.41
X36.09Y-30.97
X36.09Y-46.53
X36.53Y-19.86
X36.53Y-35.42
X36.53Y-50.98
X37.17Y-15.38
X37.17Y-30.94
X37.17Y-46.5
X37.42Y-19.375
X37.42Y-34.935
X37.42Y-50.495
X38.4Y-13.72
X38.4Y-29.28
X38.4Y-44.84
X38.535Y-20.96
X38.535Y-36.52
X38.535Y-52.08
X40.39Y-18.63
X40.39Y-34.19
X40.39Y-49.75
X41.56Y-22.34
X41.56Y-37.9
X41.56Y-53.46
X41.72Y-14.42
X41.72Y-29.98
X41.72Y-45.54
X41.82Y-24.74
X41.82Y-40.3
X41.82Y-55.86
X42.59Y-15.74
X42.59Y-31.3
X42.59Y-46.86
X42.65Y-12.53
X42.65Y-28.09
X42.65Y-43.65
X47.56Y-21.0
X47.56Y-36.56
X47.56Y-52.12
X49.17Y-23.53
X49.17Y-39.09
X49.17Y-54.65
X50.67Y-19.93
X50.67Y-35.49
X50.67Y-51.05
X51.86Y-22.29
X51.86Y-37.85
X51.86Y-53.41
X51.98Y-20.9
X51.98Y-36.46
X51.98Y-52.02
X52.1Y-14.08
X52.1Y-29.64
X52.1Y-45.2
X53.16Y-19.92
X53.16Y-35.48
X53.16Y-51.04
X53.22Y-17.6
X53.22Y-33.16
X53.22Y-48.72
X53.23Y-18.655
X53.23Y-34.215
X53.23Y-49.775
X53.44Y-15.87
X53.44Y-31.43
X53.44Y-46.99
X54.11Y-23.25
X54.11Y-38.81
X54.11Y-54.37
X54.38Y-15.19
X54.38Y-30.75
X54.38Y-46.31
X54.57Y-12.87
X54.57Y-28.43
X54.57Y-43.99
X56.69Y-15.41
X56.69Y-30.97
X56.69Y-46.53
X57.13Y-19.86
X57.13Y-35.42
X57.13Y-50.98
X57.77Y-15.38
X57.77Y-30.94
X57.77Y-46.5
X58.02Y-19.375
X58.02Y-34.935
X58.02Y-50.495
X59.0Y-13.72
X59.0Y-29.28
X59.0Y-44.84
X59.135Y-20.96
X59.135Y-36.52
X59.135Y-52.08
X60.99Y-18.63
X60.99Y-34.19
X60.99Y-49.75
X62.16Y-22.34
X62.16Y-37.9
X62.16Y-53.46
X62.32Y-14.42
X62.32Y-29.98
X62.32Y-45.54
X62.42Y-24.74
X62.42Y-40.3
X62.42Y-55.86
X63.19Y-15.74
X63.19Y-31.3
X63.19Y-46.86
X63.25Y-12.53
X63.25Y-28.09
X63.25Y-43.65
T2
X24.58Y-12.81
X24.58Y-14.135
X24.58Y-15.46
X24.58Y-28.37
X24.58Y-29.695
X24.58Y-31.02
X24.58Y-43.93
X24.58Y-45.255
X24.58Y-46.58
X45.18Y-12.81
X45.18Y-14.135
X45.18Y-15.46
X45.18Y-28.37
X45.18Y-29.695
X45.18Y-31.02
X45.18Y-43.93
X45.18Y-45.255
X45.18Y-46.58
X65.78Y-12.81
X65.78Y-14.135
X65.78Y-15.46
X65.78Y-28.37
X65.78Y-29.695
X65.78Y-31.02
X65.78Y-43.93
X65.78Y-45.255
X65.78Y-46.58
T3
X6.61Y-12.98
X6.61Y-28.54
X6.61Y-44.1
X8.887Y-25.81
X8.887Y-41.37
X8.887Y-56.93
X10.52Y-25.81
X10.52Y-41.37
X10.52Y-56.93
X12.143Y-25.81
X12.143Y-41.37
X12.143Y-56.93
X13.77Y-25.81
X13.77Y-41.37
X13.77Y-56.93
X15.397Y-25.81
X15.397Y-41.37
X15.397Y-56.93
X17.025Y-25.81
X17.025Y-41.37
X17.025Y-56.93
X18.652Y-25.81
X18.652Y-41.37
X18.652Y-56.93
X20.28Y-25.81
X20.28Y-41.37
X20.28Y-56.93
X27.21Y-12.98
X27.21Y-28.54
X27.21Y-44.1
X29.487Y-25.81
X29.487Y-41.37
X29.487Y-56.93
X31.12Y-25.81
X31.12Y-41.37
X31.12Y-56.93
X32.742Y-25.81
X32.742Y-41.37
X32.742Y-56.93
X34.37Y-25.81
X34.37Y-41.37
X34.37Y-56.93
X35.997Y-25.81
X35.997Y-41.37
X35.997Y-56.93
X37.625Y-25.81
X37.625Y-41.37
X37.625Y-56.93
X39.252Y-25.81
X39.252Y-41.37
X39.252Y-56.93
X40.88Y-25.81
X40.88Y-41.37
X40.88Y-56.93
X47.81Y-12.98
X47.81Y-28.54
X47.81Y-44.1
X50.087Y-25.81
X50.087Y-41.37
X50.087Y-56.93
X51.72Y-25.81
X51.72Y-41.37
X51.72Y-56.93
X53.343Y-25.81
X53.343Y-41.37
X53.343Y-56.93
X54.97Y-25.81
X54.97Y-41.37
X54.97Y-56.93
X56.597Y-25.81
X56.597Y-41.37
X56.597Y-56.93
X58.225Y-25.81
X58.225Y-41.37
X58.225Y-56.93
X59.852Y-25.81
X59.852Y-41.37
X59.852Y-56.93
X61.48Y-25.81
X61.48Y-41.37
X61.48Y-56.93
T4
X24.45Y-17.2
X24.45Y-18.47
X24.45Y-19.74
X24.45Y-21.01
X24.45Y-22.28
X24.45Y-23.55
X24.45Y-32.76
X24.45Y-34.03
X24.45Y-35.3
X24.45Y-36.57
X24.45Y-37.84
X24.45Y-39.11
X24.45Y-48.32
X24.45Y-49.59
X24.45Y-50.86
X24.45Y-52.13
X24.45Y-53.4
X24.45Y-54.67
X45.05Y-17.2
X45.05Y-18.47
X45.05Y-19.74
X45.05Y-21.01
X45.05Y-22.28
X45.05Y-23.55
X45.05Y-32.76
X45.05Y-34.03
X45.05Y-35.3
X45.05Y-36.57
X45.05Y-37.84
X45.05Y-39.11
X45.05Y-48.32
X45.05Y-49.59
X45.05Y-50.86
X45.05Y-52.13
X45.05Y-53.4
X45.05Y-54.67
X65.65Y-17.2
X65.65Y-18.47
X65.65Y-19.74
X65.65Y-21.01
X65.65Y-22.28
X65.65Y-23.55
X65.65Y-32.76
X65.65Y-34.03
X65.65Y-35.3
X65.65Y-36.57
X65.65Y-37.84
X65.65Y-39.11
X65.65Y-48.32
X65.65Y-49.59
X65.65Y-50.86
X65.65Y-52.13
X65.65Y-53.4
X65.65Y-54.67
T5
X2.5Y-2.5
X2.5Y-67.5
X69.7Y-2.5
T0
M30
