G04 #@! TF.GenerationSoftware,KiCad,Pcbnew,7.0.2-6a45011f42~172~ubuntu22.04.1*
G04 #@! TF.CreationDate,2023-07-04T14:06:36+08:00*
G04 #@! TF.ProjectId,panel_3_3,70616e65-6c5f-4335-9f33-2e6b69636164,rev?*
G04 #@! TF.SameCoordinates,Original*
G04 #@! TF.FileFunction,Legend,Top*
G04 #@! TF.FilePolarity,Positive*
%FSLAX46Y46*%
G04 Gerber Fmt 4.6, Leading zero omitted, Abs format (unit mm)*
G04 Created by KiCad (PCBNEW 7.0.2-6a45011f42~172~ubuntu22.04.1) date 2023-07-04 14:06:36*
%MOMM*%
%LPD*%
G01*
G04 APERTURE LIST*
%ADD10C,0.150000*%
%ADD11C,0.254000*%
%ADD12C,0.120000*%
%ADD13C,0.152000*%
%ADD14C,0.200000*%
%ADD15C,0.100000*%
G04 APERTURE END LIST*
D10*
X63944285Y-20142619D02*
X63468095Y-20142619D01*
X63468095Y-20142619D02*
X63468095Y-19142619D01*
X64134762Y-19142619D02*
X64468095Y-20142619D01*
X64468095Y-20142619D02*
X64801428Y-19142619D01*
X22789523Y-26427619D02*
X22456190Y-25951428D01*
X22218095Y-26427619D02*
X22218095Y-25427619D01*
X22218095Y-25427619D02*
X22599047Y-25427619D01*
X22599047Y-25427619D02*
X22694285Y-25475238D01*
X22694285Y-25475238D02*
X22741904Y-25522857D01*
X22741904Y-25522857D02*
X22789523Y-25618095D01*
X22789523Y-25618095D02*
X22789523Y-25760952D01*
X22789523Y-25760952D02*
X22741904Y-25856190D01*
X22741904Y-25856190D02*
X22694285Y-25903809D01*
X22694285Y-25903809D02*
X22599047Y-25951428D01*
X22599047Y-25951428D02*
X22218095Y-25951428D01*
X23741904Y-25475238D02*
X23646666Y-25427619D01*
X23646666Y-25427619D02*
X23503809Y-25427619D01*
X23503809Y-25427619D02*
X23360952Y-25475238D01*
X23360952Y-25475238D02*
X23265714Y-25570476D01*
X23265714Y-25570476D02*
X23218095Y-25665714D01*
X23218095Y-25665714D02*
X23170476Y-25856190D01*
X23170476Y-25856190D02*
X23170476Y-25999047D01*
X23170476Y-25999047D02*
X23218095Y-26189523D01*
X23218095Y-26189523D02*
X23265714Y-26284761D01*
X23265714Y-26284761D02*
X23360952Y-26380000D01*
X23360952Y-26380000D02*
X23503809Y-26427619D01*
X23503809Y-26427619D02*
X23599047Y-26427619D01*
X23599047Y-26427619D02*
X23741904Y-26380000D01*
X23741904Y-26380000D02*
X23789523Y-26332380D01*
X23789523Y-26332380D02*
X23789523Y-25999047D01*
X23789523Y-25999047D02*
X23599047Y-25999047D01*
X24551428Y-25903809D02*
X24694285Y-25951428D01*
X24694285Y-25951428D02*
X24741904Y-25999047D01*
X24741904Y-25999047D02*
X24789523Y-26094285D01*
X24789523Y-26094285D02*
X24789523Y-26237142D01*
X24789523Y-26237142D02*
X24741904Y-26332380D01*
X24741904Y-26332380D02*
X24694285Y-26380000D01*
X24694285Y-26380000D02*
X24599047Y-26427619D01*
X24599047Y-26427619D02*
X24218095Y-26427619D01*
X24218095Y-26427619D02*
X24218095Y-25427619D01*
X24218095Y-25427619D02*
X24551428Y-25427619D01*
X24551428Y-25427619D02*
X24646666Y-25475238D01*
X24646666Y-25475238D02*
X24694285Y-25522857D01*
X24694285Y-25522857D02*
X24741904Y-25618095D01*
X24741904Y-25618095D02*
X24741904Y-25713333D01*
X24741904Y-25713333D02*
X24694285Y-25808571D01*
X24694285Y-25808571D02*
X24646666Y-25856190D01*
X24646666Y-25856190D02*
X24551428Y-25903809D01*
X24551428Y-25903809D02*
X24218095Y-25903809D01*
X43344285Y-51262619D02*
X42868095Y-51262619D01*
X42868095Y-51262619D02*
X42868095Y-50262619D01*
X43534762Y-50262619D02*
X43868095Y-51262619D01*
X43868095Y-51262619D02*
X44201428Y-50262619D01*
X43344285Y-20142619D02*
X42868095Y-20142619D01*
X42868095Y-20142619D02*
X42868095Y-19142619D01*
X43534762Y-19142619D02*
X43868095Y-20142619D01*
X43868095Y-20142619D02*
X44201428Y-19142619D01*
X63989523Y-57547619D02*
X63656190Y-57071428D01*
X63418095Y-57547619D02*
X63418095Y-56547619D01*
X63418095Y-56547619D02*
X63799047Y-56547619D01*
X63799047Y-56547619D02*
X63894285Y-56595238D01*
X63894285Y-56595238D02*
X63941904Y-56642857D01*
X63941904Y-56642857D02*
X63989523Y-56738095D01*
X63989523Y-56738095D02*
X63989523Y-56880952D01*
X63989523Y-56880952D02*
X63941904Y-56976190D01*
X63941904Y-56976190D02*
X63894285Y-57023809D01*
X63894285Y-57023809D02*
X63799047Y-57071428D01*
X63799047Y-57071428D02*
X63418095Y-57071428D01*
X64941904Y-56595238D02*
X64846666Y-56547619D01*
X64846666Y-56547619D02*
X64703809Y-56547619D01*
X64703809Y-56547619D02*
X64560952Y-56595238D01*
X64560952Y-56595238D02*
X64465714Y-56690476D01*
X64465714Y-56690476D02*
X64418095Y-56785714D01*
X64418095Y-56785714D02*
X64370476Y-56976190D01*
X64370476Y-56976190D02*
X64370476Y-57119047D01*
X64370476Y-57119047D02*
X64418095Y-57309523D01*
X64418095Y-57309523D02*
X64465714Y-57404761D01*
X64465714Y-57404761D02*
X64560952Y-57500000D01*
X64560952Y-57500000D02*
X64703809Y-57547619D01*
X64703809Y-57547619D02*
X64799047Y-57547619D01*
X64799047Y-57547619D02*
X64941904Y-57500000D01*
X64941904Y-57500000D02*
X64989523Y-57452380D01*
X64989523Y-57452380D02*
X64989523Y-57119047D01*
X64989523Y-57119047D02*
X64799047Y-57119047D01*
X65751428Y-57023809D02*
X65894285Y-57071428D01*
X65894285Y-57071428D02*
X65941904Y-57119047D01*
X65941904Y-57119047D02*
X65989523Y-57214285D01*
X65989523Y-57214285D02*
X65989523Y-57357142D01*
X65989523Y-57357142D02*
X65941904Y-57452380D01*
X65941904Y-57452380D02*
X65894285Y-57500000D01*
X65894285Y-57500000D02*
X65799047Y-57547619D01*
X65799047Y-57547619D02*
X65418095Y-57547619D01*
X65418095Y-57547619D02*
X65418095Y-56547619D01*
X65418095Y-56547619D02*
X65751428Y-56547619D01*
X65751428Y-56547619D02*
X65846666Y-56595238D01*
X65846666Y-56595238D02*
X65894285Y-56642857D01*
X65894285Y-56642857D02*
X65941904Y-56738095D01*
X65941904Y-56738095D02*
X65941904Y-56833333D01*
X65941904Y-56833333D02*
X65894285Y-56928571D01*
X65894285Y-56928571D02*
X65846666Y-56976190D01*
X65846666Y-56976190D02*
X65751428Y-57023809D01*
X65751428Y-57023809D02*
X65418095Y-57023809D01*
X43344285Y-35702619D02*
X42868095Y-35702619D01*
X42868095Y-35702619D02*
X42868095Y-34702619D01*
X43534762Y-34702619D02*
X43868095Y-35702619D01*
X43868095Y-35702619D02*
X44201428Y-34702619D01*
X63944285Y-35702619D02*
X63468095Y-35702619D01*
X63468095Y-35702619D02*
X63468095Y-34702619D01*
X64134762Y-34702619D02*
X64468095Y-35702619D01*
X64468095Y-35702619D02*
X64801428Y-34702619D01*
X22744285Y-35702619D02*
X22268095Y-35702619D01*
X22268095Y-35702619D02*
X22268095Y-34702619D01*
X22934762Y-34702619D02*
X23268095Y-35702619D01*
X23268095Y-35702619D02*
X23601428Y-34702619D01*
X22744285Y-20142619D02*
X22268095Y-20142619D01*
X22268095Y-20142619D02*
X22268095Y-19142619D01*
X22934762Y-19142619D02*
X23268095Y-20142619D01*
X23268095Y-20142619D02*
X23601428Y-19142619D01*
X22789523Y-57547619D02*
X22456190Y-57071428D01*
X22218095Y-57547619D02*
X22218095Y-56547619D01*
X22218095Y-56547619D02*
X22599047Y-56547619D01*
X22599047Y-56547619D02*
X22694285Y-56595238D01*
X22694285Y-56595238D02*
X22741904Y-56642857D01*
X22741904Y-56642857D02*
X22789523Y-56738095D01*
X22789523Y-56738095D02*
X22789523Y-56880952D01*
X22789523Y-56880952D02*
X22741904Y-56976190D01*
X22741904Y-56976190D02*
X22694285Y-57023809D01*
X22694285Y-57023809D02*
X22599047Y-57071428D01*
X22599047Y-57071428D02*
X22218095Y-57071428D01*
X23741904Y-56595238D02*
X23646666Y-56547619D01*
X23646666Y-56547619D02*
X23503809Y-56547619D01*
X23503809Y-56547619D02*
X23360952Y-56595238D01*
X23360952Y-56595238D02*
X23265714Y-56690476D01*
X23265714Y-56690476D02*
X23218095Y-56785714D01*
X23218095Y-56785714D02*
X23170476Y-56976190D01*
X23170476Y-56976190D02*
X23170476Y-57119047D01*
X23170476Y-57119047D02*
X23218095Y-57309523D01*
X23218095Y-57309523D02*
X23265714Y-57404761D01*
X23265714Y-57404761D02*
X23360952Y-57500000D01*
X23360952Y-57500000D02*
X23503809Y-57547619D01*
X23503809Y-57547619D02*
X23599047Y-57547619D01*
X23599047Y-57547619D02*
X23741904Y-57500000D01*
X23741904Y-57500000D02*
X23789523Y-57452380D01*
X23789523Y-57452380D02*
X23789523Y-57119047D01*
X23789523Y-57119047D02*
X23599047Y-57119047D01*
X24551428Y-57023809D02*
X24694285Y-57071428D01*
X24694285Y-57071428D02*
X24741904Y-57119047D01*
X24741904Y-57119047D02*
X24789523Y-57214285D01*
X24789523Y-57214285D02*
X24789523Y-57357142D01*
X24789523Y-57357142D02*
X24741904Y-57452380D01*
X24741904Y-57452380D02*
X24694285Y-57500000D01*
X24694285Y-57500000D02*
X24599047Y-57547619D01*
X24599047Y-57547619D02*
X24218095Y-57547619D01*
X24218095Y-57547619D02*
X24218095Y-56547619D01*
X24218095Y-56547619D02*
X24551428Y-56547619D01*
X24551428Y-56547619D02*
X24646666Y-56595238D01*
X24646666Y-56595238D02*
X24694285Y-56642857D01*
X24694285Y-56642857D02*
X24741904Y-56738095D01*
X24741904Y-56738095D02*
X24741904Y-56833333D01*
X24741904Y-56833333D02*
X24694285Y-56928571D01*
X24694285Y-56928571D02*
X24646666Y-56976190D01*
X24646666Y-56976190D02*
X24551428Y-57023809D01*
X24551428Y-57023809D02*
X24218095Y-57023809D01*
X63989523Y-26427619D02*
X63656190Y-25951428D01*
X63418095Y-26427619D02*
X63418095Y-25427619D01*
X63418095Y-25427619D02*
X63799047Y-25427619D01*
X63799047Y-25427619D02*
X63894285Y-25475238D01*
X63894285Y-25475238D02*
X63941904Y-25522857D01*
X63941904Y-25522857D02*
X63989523Y-25618095D01*
X63989523Y-25618095D02*
X63989523Y-25760952D01*
X63989523Y-25760952D02*
X63941904Y-25856190D01*
X63941904Y-25856190D02*
X63894285Y-25903809D01*
X63894285Y-25903809D02*
X63799047Y-25951428D01*
X63799047Y-25951428D02*
X63418095Y-25951428D01*
X64941904Y-25475238D02*
X64846666Y-25427619D01*
X64846666Y-25427619D02*
X64703809Y-25427619D01*
X64703809Y-25427619D02*
X64560952Y-25475238D01*
X64560952Y-25475238D02*
X64465714Y-25570476D01*
X64465714Y-25570476D02*
X64418095Y-25665714D01*
X64418095Y-25665714D02*
X64370476Y-25856190D01*
X64370476Y-25856190D02*
X64370476Y-25999047D01*
X64370476Y-25999047D02*
X64418095Y-26189523D01*
X64418095Y-26189523D02*
X64465714Y-26284761D01*
X64465714Y-26284761D02*
X64560952Y-26380000D01*
X64560952Y-26380000D02*
X64703809Y-26427619D01*
X64703809Y-26427619D02*
X64799047Y-26427619D01*
X64799047Y-26427619D02*
X64941904Y-26380000D01*
X64941904Y-26380000D02*
X64989523Y-26332380D01*
X64989523Y-26332380D02*
X64989523Y-25999047D01*
X64989523Y-25999047D02*
X64799047Y-25999047D01*
X65751428Y-25903809D02*
X65894285Y-25951428D01*
X65894285Y-25951428D02*
X65941904Y-25999047D01*
X65941904Y-25999047D02*
X65989523Y-26094285D01*
X65989523Y-26094285D02*
X65989523Y-26237142D01*
X65989523Y-26237142D02*
X65941904Y-26332380D01*
X65941904Y-26332380D02*
X65894285Y-26380000D01*
X65894285Y-26380000D02*
X65799047Y-26427619D01*
X65799047Y-26427619D02*
X65418095Y-26427619D01*
X65418095Y-26427619D02*
X65418095Y-25427619D01*
X65418095Y-25427619D02*
X65751428Y-25427619D01*
X65751428Y-25427619D02*
X65846666Y-25475238D01*
X65846666Y-25475238D02*
X65894285Y-25522857D01*
X65894285Y-25522857D02*
X65941904Y-25618095D01*
X65941904Y-25618095D02*
X65941904Y-25713333D01*
X65941904Y-25713333D02*
X65894285Y-25808571D01*
X65894285Y-25808571D02*
X65846666Y-25856190D01*
X65846666Y-25856190D02*
X65751428Y-25903809D01*
X65751428Y-25903809D02*
X65418095Y-25903809D01*
X43389523Y-26427619D02*
X43056190Y-25951428D01*
X42818095Y-26427619D02*
X42818095Y-25427619D01*
X42818095Y-25427619D02*
X43199047Y-25427619D01*
X43199047Y-25427619D02*
X43294285Y-25475238D01*
X43294285Y-25475238D02*
X43341904Y-25522857D01*
X43341904Y-25522857D02*
X43389523Y-25618095D01*
X43389523Y-25618095D02*
X43389523Y-25760952D01*
X43389523Y-25760952D02*
X43341904Y-25856190D01*
X43341904Y-25856190D02*
X43294285Y-25903809D01*
X43294285Y-25903809D02*
X43199047Y-25951428D01*
X43199047Y-25951428D02*
X42818095Y-25951428D01*
X44341904Y-25475238D02*
X44246666Y-25427619D01*
X44246666Y-25427619D02*
X44103809Y-25427619D01*
X44103809Y-25427619D02*
X43960952Y-25475238D01*
X43960952Y-25475238D02*
X43865714Y-25570476D01*
X43865714Y-25570476D02*
X43818095Y-25665714D01*
X43818095Y-25665714D02*
X43770476Y-25856190D01*
X43770476Y-25856190D02*
X43770476Y-25999047D01*
X43770476Y-25999047D02*
X43818095Y-26189523D01*
X43818095Y-26189523D02*
X43865714Y-26284761D01*
X43865714Y-26284761D02*
X43960952Y-26380000D01*
X43960952Y-26380000D02*
X44103809Y-26427619D01*
X44103809Y-26427619D02*
X44199047Y-26427619D01*
X44199047Y-26427619D02*
X44341904Y-26380000D01*
X44341904Y-26380000D02*
X44389523Y-26332380D01*
X44389523Y-26332380D02*
X44389523Y-25999047D01*
X44389523Y-25999047D02*
X44199047Y-25999047D01*
X45151428Y-25903809D02*
X45294285Y-25951428D01*
X45294285Y-25951428D02*
X45341904Y-25999047D01*
X45341904Y-25999047D02*
X45389523Y-26094285D01*
X45389523Y-26094285D02*
X45389523Y-26237142D01*
X45389523Y-26237142D02*
X45341904Y-26332380D01*
X45341904Y-26332380D02*
X45294285Y-26380000D01*
X45294285Y-26380000D02*
X45199047Y-26427619D01*
X45199047Y-26427619D02*
X44818095Y-26427619D01*
X44818095Y-26427619D02*
X44818095Y-25427619D01*
X44818095Y-25427619D02*
X45151428Y-25427619D01*
X45151428Y-25427619D02*
X45246666Y-25475238D01*
X45246666Y-25475238D02*
X45294285Y-25522857D01*
X45294285Y-25522857D02*
X45341904Y-25618095D01*
X45341904Y-25618095D02*
X45341904Y-25713333D01*
X45341904Y-25713333D02*
X45294285Y-25808571D01*
X45294285Y-25808571D02*
X45246666Y-25856190D01*
X45246666Y-25856190D02*
X45151428Y-25903809D01*
X45151428Y-25903809D02*
X44818095Y-25903809D01*
X63989523Y-41987619D02*
X63656190Y-41511428D01*
X63418095Y-41987619D02*
X63418095Y-40987619D01*
X63418095Y-40987619D02*
X63799047Y-40987619D01*
X63799047Y-40987619D02*
X63894285Y-41035238D01*
X63894285Y-41035238D02*
X63941904Y-41082857D01*
X63941904Y-41082857D02*
X63989523Y-41178095D01*
X63989523Y-41178095D02*
X63989523Y-41320952D01*
X63989523Y-41320952D02*
X63941904Y-41416190D01*
X63941904Y-41416190D02*
X63894285Y-41463809D01*
X63894285Y-41463809D02*
X63799047Y-41511428D01*
X63799047Y-41511428D02*
X63418095Y-41511428D01*
X64941904Y-41035238D02*
X64846666Y-40987619D01*
X64846666Y-40987619D02*
X64703809Y-40987619D01*
X64703809Y-40987619D02*
X64560952Y-41035238D01*
X64560952Y-41035238D02*
X64465714Y-41130476D01*
X64465714Y-41130476D02*
X64418095Y-41225714D01*
X64418095Y-41225714D02*
X64370476Y-41416190D01*
X64370476Y-41416190D02*
X64370476Y-41559047D01*
X64370476Y-41559047D02*
X64418095Y-41749523D01*
X64418095Y-41749523D02*
X64465714Y-41844761D01*
X64465714Y-41844761D02*
X64560952Y-41940000D01*
X64560952Y-41940000D02*
X64703809Y-41987619D01*
X64703809Y-41987619D02*
X64799047Y-41987619D01*
X64799047Y-41987619D02*
X64941904Y-41940000D01*
X64941904Y-41940000D02*
X64989523Y-41892380D01*
X64989523Y-41892380D02*
X64989523Y-41559047D01*
X64989523Y-41559047D02*
X64799047Y-41559047D01*
X65751428Y-41463809D02*
X65894285Y-41511428D01*
X65894285Y-41511428D02*
X65941904Y-41559047D01*
X65941904Y-41559047D02*
X65989523Y-41654285D01*
X65989523Y-41654285D02*
X65989523Y-41797142D01*
X65989523Y-41797142D02*
X65941904Y-41892380D01*
X65941904Y-41892380D02*
X65894285Y-41940000D01*
X65894285Y-41940000D02*
X65799047Y-41987619D01*
X65799047Y-41987619D02*
X65418095Y-41987619D01*
X65418095Y-41987619D02*
X65418095Y-40987619D01*
X65418095Y-40987619D02*
X65751428Y-40987619D01*
X65751428Y-40987619D02*
X65846666Y-41035238D01*
X65846666Y-41035238D02*
X65894285Y-41082857D01*
X65894285Y-41082857D02*
X65941904Y-41178095D01*
X65941904Y-41178095D02*
X65941904Y-41273333D01*
X65941904Y-41273333D02*
X65894285Y-41368571D01*
X65894285Y-41368571D02*
X65846666Y-41416190D01*
X65846666Y-41416190D02*
X65751428Y-41463809D01*
X65751428Y-41463809D02*
X65418095Y-41463809D01*
X63944285Y-51262619D02*
X63468095Y-51262619D01*
X63468095Y-51262619D02*
X63468095Y-50262619D01*
X64134762Y-50262619D02*
X64468095Y-51262619D01*
X64468095Y-51262619D02*
X64801428Y-50262619D01*
X43389523Y-41987619D02*
X43056190Y-41511428D01*
X42818095Y-41987619D02*
X42818095Y-40987619D01*
X42818095Y-40987619D02*
X43199047Y-40987619D01*
X43199047Y-40987619D02*
X43294285Y-41035238D01*
X43294285Y-41035238D02*
X43341904Y-41082857D01*
X43341904Y-41082857D02*
X43389523Y-41178095D01*
X43389523Y-41178095D02*
X43389523Y-41320952D01*
X43389523Y-41320952D02*
X43341904Y-41416190D01*
X43341904Y-41416190D02*
X43294285Y-41463809D01*
X43294285Y-41463809D02*
X43199047Y-41511428D01*
X43199047Y-41511428D02*
X42818095Y-41511428D01*
X44341904Y-41035238D02*
X44246666Y-40987619D01*
X44246666Y-40987619D02*
X44103809Y-40987619D01*
X44103809Y-40987619D02*
X43960952Y-41035238D01*
X43960952Y-41035238D02*
X43865714Y-41130476D01*
X43865714Y-41130476D02*
X43818095Y-41225714D01*
X43818095Y-41225714D02*
X43770476Y-41416190D01*
X43770476Y-41416190D02*
X43770476Y-41559047D01*
X43770476Y-41559047D02*
X43818095Y-41749523D01*
X43818095Y-41749523D02*
X43865714Y-41844761D01*
X43865714Y-41844761D02*
X43960952Y-41940000D01*
X43960952Y-41940000D02*
X44103809Y-41987619D01*
X44103809Y-41987619D02*
X44199047Y-41987619D01*
X44199047Y-41987619D02*
X44341904Y-41940000D01*
X44341904Y-41940000D02*
X44389523Y-41892380D01*
X44389523Y-41892380D02*
X44389523Y-41559047D01*
X44389523Y-41559047D02*
X44199047Y-41559047D01*
X45151428Y-41463809D02*
X45294285Y-41511428D01*
X45294285Y-41511428D02*
X45341904Y-41559047D01*
X45341904Y-41559047D02*
X45389523Y-41654285D01*
X45389523Y-41654285D02*
X45389523Y-41797142D01*
X45389523Y-41797142D02*
X45341904Y-41892380D01*
X45341904Y-41892380D02*
X45294285Y-41940000D01*
X45294285Y-41940000D02*
X45199047Y-41987619D01*
X45199047Y-41987619D02*
X44818095Y-41987619D01*
X44818095Y-41987619D02*
X44818095Y-40987619D01*
X44818095Y-40987619D02*
X45151428Y-40987619D01*
X45151428Y-40987619D02*
X45246666Y-41035238D01*
X45246666Y-41035238D02*
X45294285Y-41082857D01*
X45294285Y-41082857D02*
X45341904Y-41178095D01*
X45341904Y-41178095D02*
X45341904Y-41273333D01*
X45341904Y-41273333D02*
X45294285Y-41368571D01*
X45294285Y-41368571D02*
X45246666Y-41416190D01*
X45246666Y-41416190D02*
X45151428Y-41463809D01*
X45151428Y-41463809D02*
X44818095Y-41463809D01*
X22789523Y-41987619D02*
X22456190Y-41511428D01*
X22218095Y-41987619D02*
X22218095Y-40987619D01*
X22218095Y-40987619D02*
X22599047Y-40987619D01*
X22599047Y-40987619D02*
X22694285Y-41035238D01*
X22694285Y-41035238D02*
X22741904Y-41082857D01*
X22741904Y-41082857D02*
X22789523Y-41178095D01*
X22789523Y-41178095D02*
X22789523Y-41320952D01*
X22789523Y-41320952D02*
X22741904Y-41416190D01*
X22741904Y-41416190D02*
X22694285Y-41463809D01*
X22694285Y-41463809D02*
X22599047Y-41511428D01*
X22599047Y-41511428D02*
X22218095Y-41511428D01*
X23741904Y-41035238D02*
X23646666Y-40987619D01*
X23646666Y-40987619D02*
X23503809Y-40987619D01*
X23503809Y-40987619D02*
X23360952Y-41035238D01*
X23360952Y-41035238D02*
X23265714Y-41130476D01*
X23265714Y-41130476D02*
X23218095Y-41225714D01*
X23218095Y-41225714D02*
X23170476Y-41416190D01*
X23170476Y-41416190D02*
X23170476Y-41559047D01*
X23170476Y-41559047D02*
X23218095Y-41749523D01*
X23218095Y-41749523D02*
X23265714Y-41844761D01*
X23265714Y-41844761D02*
X23360952Y-41940000D01*
X23360952Y-41940000D02*
X23503809Y-41987619D01*
X23503809Y-41987619D02*
X23599047Y-41987619D01*
X23599047Y-41987619D02*
X23741904Y-41940000D01*
X23741904Y-41940000D02*
X23789523Y-41892380D01*
X23789523Y-41892380D02*
X23789523Y-41559047D01*
X23789523Y-41559047D02*
X23599047Y-41559047D01*
X24551428Y-41463809D02*
X24694285Y-41511428D01*
X24694285Y-41511428D02*
X24741904Y-41559047D01*
X24741904Y-41559047D02*
X24789523Y-41654285D01*
X24789523Y-41654285D02*
X24789523Y-41797142D01*
X24789523Y-41797142D02*
X24741904Y-41892380D01*
X24741904Y-41892380D02*
X24694285Y-41940000D01*
X24694285Y-41940000D02*
X24599047Y-41987619D01*
X24599047Y-41987619D02*
X24218095Y-41987619D01*
X24218095Y-41987619D02*
X24218095Y-40987619D01*
X24218095Y-40987619D02*
X24551428Y-40987619D01*
X24551428Y-40987619D02*
X24646666Y-41035238D01*
X24646666Y-41035238D02*
X24694285Y-41082857D01*
X24694285Y-41082857D02*
X24741904Y-41178095D01*
X24741904Y-41178095D02*
X24741904Y-41273333D01*
X24741904Y-41273333D02*
X24694285Y-41368571D01*
X24694285Y-41368571D02*
X24646666Y-41416190D01*
X24646666Y-41416190D02*
X24551428Y-41463809D01*
X24551428Y-41463809D02*
X24218095Y-41463809D01*
X22744285Y-51262619D02*
X22268095Y-51262619D01*
X22268095Y-51262619D02*
X22268095Y-50262619D01*
X22934762Y-50262619D02*
X23268095Y-51262619D01*
X23268095Y-51262619D02*
X23601428Y-50262619D01*
X43389523Y-57547619D02*
X43056190Y-57071428D01*
X42818095Y-57547619D02*
X42818095Y-56547619D01*
X42818095Y-56547619D02*
X43199047Y-56547619D01*
X43199047Y-56547619D02*
X43294285Y-56595238D01*
X43294285Y-56595238D02*
X43341904Y-56642857D01*
X43341904Y-56642857D02*
X43389523Y-56738095D01*
X43389523Y-56738095D02*
X43389523Y-56880952D01*
X43389523Y-56880952D02*
X43341904Y-56976190D01*
X43341904Y-56976190D02*
X43294285Y-57023809D01*
X43294285Y-57023809D02*
X43199047Y-57071428D01*
X43199047Y-57071428D02*
X42818095Y-57071428D01*
X44341904Y-56595238D02*
X44246666Y-56547619D01*
X44246666Y-56547619D02*
X44103809Y-56547619D01*
X44103809Y-56547619D02*
X43960952Y-56595238D01*
X43960952Y-56595238D02*
X43865714Y-56690476D01*
X43865714Y-56690476D02*
X43818095Y-56785714D01*
X43818095Y-56785714D02*
X43770476Y-56976190D01*
X43770476Y-56976190D02*
X43770476Y-57119047D01*
X43770476Y-57119047D02*
X43818095Y-57309523D01*
X43818095Y-57309523D02*
X43865714Y-57404761D01*
X43865714Y-57404761D02*
X43960952Y-57500000D01*
X43960952Y-57500000D02*
X44103809Y-57547619D01*
X44103809Y-57547619D02*
X44199047Y-57547619D01*
X44199047Y-57547619D02*
X44341904Y-57500000D01*
X44341904Y-57500000D02*
X44389523Y-57452380D01*
X44389523Y-57452380D02*
X44389523Y-57119047D01*
X44389523Y-57119047D02*
X44199047Y-57119047D01*
X45151428Y-57023809D02*
X45294285Y-57071428D01*
X45294285Y-57071428D02*
X45341904Y-57119047D01*
X45341904Y-57119047D02*
X45389523Y-57214285D01*
X45389523Y-57214285D02*
X45389523Y-57357142D01*
X45389523Y-57357142D02*
X45341904Y-57452380D01*
X45341904Y-57452380D02*
X45294285Y-57500000D01*
X45294285Y-57500000D02*
X45199047Y-57547619D01*
X45199047Y-57547619D02*
X44818095Y-57547619D01*
X44818095Y-57547619D02*
X44818095Y-56547619D01*
X44818095Y-56547619D02*
X45151428Y-56547619D01*
X45151428Y-56547619D02*
X45246666Y-56595238D01*
X45246666Y-56595238D02*
X45294285Y-56642857D01*
X45294285Y-56642857D02*
X45341904Y-56738095D01*
X45341904Y-56738095D02*
X45341904Y-56833333D01*
X45341904Y-56833333D02*
X45294285Y-56928571D01*
X45294285Y-56928571D02*
X45246666Y-56976190D01*
X45246666Y-56976190D02*
X45151428Y-57023809D01*
X45151428Y-57023809D02*
X44818095Y-57023809D01*
D11*
G04 #@! TO.C,U1*
X38485000Y-29635000D02*
X38485000Y-30204000D01*
X37916000Y-29635000D02*
X38485000Y-29635000D01*
X37916000Y-29635000D02*
X38485000Y-30204000D01*
X31485000Y-29635000D02*
X32054000Y-29635000D01*
X31485000Y-29735000D02*
X31485000Y-29635000D01*
X38485000Y-29894000D02*
X38388000Y-29894000D01*
X38388000Y-29894000D02*
X38129000Y-29635000D01*
X31485000Y-30204000D02*
X31485000Y-29735000D01*
X38485000Y-36066000D02*
X38485000Y-36635000D01*
X38485000Y-36635000D02*
X37916000Y-36635000D01*
X32054000Y-36635000D02*
X31485000Y-36635000D01*
X31485000Y-36635000D02*
X31485000Y-36066000D01*
X38812000Y-29135000D02*
G75*
G03*
X38812000Y-29135000I-127000J0D01*
G01*
D12*
G04 #@! TO.C,R11*
X18390000Y-54406359D02*
X18390000Y-54713641D01*
X17630000Y-54406359D02*
X17630000Y-54713641D01*
D11*
G04 #@! TO.C,SW1*
X27066000Y-38064000D02*
X30114000Y-38064000D01*
X27066000Y-40096000D02*
X30114000Y-40096000D01*
X29098491Y-39334252D02*
G75*
G03*
X28991999Y-39481999I-508491J254252D01*
G01*
D12*
G04 #@! TO.C,R7*
X43383641Y-25200000D02*
X43076359Y-25200000D01*
X43383641Y-24440000D02*
X43076359Y-24440000D01*
D11*
G04 #@! TO.C,U1*
X17885000Y-14075000D02*
X17885000Y-14644000D01*
X17316000Y-14075000D02*
X17885000Y-14075000D01*
X17316000Y-14075000D02*
X17885000Y-14644000D01*
X10885000Y-14075000D02*
X11454000Y-14075000D01*
X10885000Y-14175000D02*
X10885000Y-14075000D01*
X17885000Y-14334000D02*
X17788000Y-14334000D01*
X17788000Y-14334000D02*
X17529000Y-14075000D01*
X10885000Y-14644000D02*
X10885000Y-14175000D01*
X17885000Y-20506000D02*
X17885000Y-21075000D01*
X17885000Y-21075000D02*
X17316000Y-21075000D01*
X11454000Y-21075000D02*
X10885000Y-21075000D01*
X10885000Y-21075000D02*
X10885000Y-20506000D01*
X18212000Y-13575000D02*
G75*
G03*
X18212000Y-13575000I-127000J0D01*
G01*
D12*
G04 #@! TO.C,C8*
X19502164Y-54740000D02*
X19717836Y-54740000D01*
X19502164Y-55460000D02*
X19717836Y-55460000D01*
G04 #@! TO.C,C12*
X35272164Y-12325000D02*
X35487836Y-12325000D01*
X35272164Y-13045000D02*
X35487836Y-13045000D01*
G04 #@! TO.C,JP2*
X41445000Y-51565000D02*
X43795000Y-51565000D01*
X43795000Y-51565000D02*
X43795000Y-52815000D01*
X43795000Y-52815000D02*
X41445000Y-52815000D01*
X41445000Y-52815000D02*
X41445000Y-51565000D01*
G04 #@! TO.C,R2*
X29930000Y-21573641D02*
X29930000Y-21266359D01*
X30690000Y-21573641D02*
X30690000Y-21266359D01*
G04 #@! TO.C,C9*
X40097164Y-38095000D02*
X40312836Y-38095000D01*
X40097164Y-38815000D02*
X40312836Y-38815000D01*
G04 #@! TO.C,R12*
X32076359Y-12320000D02*
X32383641Y-12320000D01*
X32076359Y-13080000D02*
X32383641Y-13080000D01*
G04 #@! TO.C,JP3*
X41425000Y-38505000D02*
X43775000Y-38505000D01*
X43775000Y-38505000D02*
X43775000Y-39755000D01*
X43775000Y-39755000D02*
X41425000Y-39755000D01*
X41425000Y-39755000D02*
X41425000Y-38505000D01*
G04 #@! TO.C,R10*
X37710000Y-54406359D02*
X37710000Y-54713641D01*
X36950000Y-54406359D02*
X36950000Y-54713641D01*
G04 #@! TO.C,C12*
X14672164Y-12325000D02*
X14887836Y-12325000D01*
X14672164Y-13045000D02*
X14887836Y-13045000D01*
G04 #@! TO.C,JP3*
X41425000Y-22945000D02*
X43775000Y-22945000D01*
X43775000Y-22945000D02*
X43775000Y-24195000D01*
X43775000Y-24195000D02*
X41425000Y-24195000D01*
X41425000Y-24195000D02*
X41425000Y-22945000D01*
D11*
G04 #@! TO.C,U1*
X59085000Y-29635000D02*
X59085000Y-30204000D01*
X58516000Y-29635000D02*
X59085000Y-29635000D01*
X58516000Y-29635000D02*
X59085000Y-30204000D01*
X52085000Y-29635000D02*
X52654000Y-29635000D01*
X52085000Y-29735000D02*
X52085000Y-29635000D01*
X59085000Y-29894000D02*
X58988000Y-29894000D01*
X58988000Y-29894000D02*
X58729000Y-29635000D01*
X52085000Y-30204000D02*
X52085000Y-29735000D01*
X59085000Y-36066000D02*
X59085000Y-36635000D01*
X59085000Y-36635000D02*
X58516000Y-36635000D01*
X52654000Y-36635000D02*
X52085000Y-36635000D01*
X52085000Y-36635000D02*
X52085000Y-36066000D01*
X59412000Y-29135000D02*
G75*
G03*
X59412000Y-29135000I-127000J0D01*
G01*
D12*
G04 #@! TO.C,R7*
X43383641Y-56320000D02*
X43076359Y-56320000D01*
X43383641Y-55560000D02*
X43076359Y-55560000D01*
G04 #@! TO.C,C5*
X19497164Y-20400000D02*
X19712836Y-20400000D01*
X19497164Y-21120000D02*
X19712836Y-21120000D01*
D13*
G04 #@! TO.C,X1*
X29474000Y-50659000D02*
X29982000Y-50659000D01*
X29982000Y-50659000D02*
X29982000Y-50151000D01*
X26426000Y-50402000D02*
X26426000Y-46341000D01*
X29756000Y-50402000D02*
X26426000Y-50402000D01*
X26426000Y-46341000D02*
X28077000Y-46341000D01*
X28077000Y-46341000D02*
X29728000Y-46341000D01*
X29728000Y-46341000D02*
X29756000Y-50402000D01*
X29728000Y-46341000D02*
X29728000Y-46341000D01*
D12*
G04 #@! TO.C,R3*
X14305000Y-53806359D02*
X14305000Y-54113641D01*
X13545000Y-53806359D02*
X13545000Y-54113641D01*
G04 #@! TO.C,R2*
X50530000Y-52693641D02*
X50530000Y-52386359D01*
X51290000Y-52693641D02*
X51290000Y-52386359D01*
G04 #@! TO.C,C10*
X62272164Y-49820000D02*
X62487836Y-49820000D01*
X62272164Y-50540000D02*
X62487836Y-50540000D01*
D13*
G04 #@! TO.C,U2*
X22181000Y-16638500D02*
X22181000Y-13486500D01*
X20029000Y-13486500D02*
X20029000Y-16638500D01*
D14*
X21967000Y-13030500D02*
G75*
G03*
X21967000Y-13030500I-100000J0D01*
G01*
D15*
G04 #@! TO.C,U5*
X26445000Y-56040000D02*
X26445000Y-57740000D01*
X26445000Y-57740000D02*
X28145000Y-57740000D01*
X28145000Y-56040000D02*
X26445000Y-56040000D01*
X28145000Y-57740000D02*
X28145000Y-56040000D01*
X26345000Y-56190000D02*
G75*
G03*
X26345000Y-56190000I-50000J0D01*
G01*
D12*
X27345000Y-57390000D02*
X27195000Y-57290000D01*
X27345000Y-57190000D01*
X27345000Y-57390000D01*
G36*
X27345000Y-57390000D02*
G01*
X27195000Y-57290000D01*
X27345000Y-57190000D01*
X27345000Y-57390000D01*
G37*
X28570000Y-56465000D02*
X28120000Y-56465000D01*
X28120000Y-56365000D01*
X28570000Y-56365000D01*
X28570000Y-56465000D01*
G36*
X28570000Y-56465000D02*
G01*
X28120000Y-56465000D01*
X28120000Y-56365000D01*
X28570000Y-56365000D01*
X28570000Y-56465000D01*
G37*
X28395000Y-56640000D02*
X28295000Y-56640000D01*
X28295000Y-56190000D01*
X28395000Y-56190000D01*
X28395000Y-56640000D01*
G36*
X28395000Y-56640000D02*
G01*
X28295000Y-56640000D01*
X28295000Y-56190000D01*
X28395000Y-56190000D01*
X28395000Y-56640000D01*
G37*
X26965000Y-57020000D02*
X26955000Y-57020000D01*
X26795000Y-57020000D01*
X26795000Y-56890000D01*
X26965000Y-56890000D01*
X26965000Y-57020000D01*
G36*
X26965000Y-57020000D02*
G01*
X26955000Y-57020000D01*
X26795000Y-57020000D01*
X26795000Y-56890000D01*
X26965000Y-56890000D01*
X26965000Y-57020000D01*
G37*
D15*
X5845000Y-56040000D02*
X5845000Y-57740000D01*
X5845000Y-57740000D02*
X7545000Y-57740000D01*
X7545000Y-56040000D02*
X5845000Y-56040000D01*
X7545000Y-57740000D02*
X7545000Y-56040000D01*
X5745000Y-56190000D02*
G75*
G03*
X5745000Y-56190000I-50000J0D01*
G01*
D12*
X6745000Y-57390000D02*
X6595000Y-57290000D01*
X6745000Y-57190000D01*
X6745000Y-57390000D01*
G36*
X6745000Y-57390000D02*
G01*
X6595000Y-57290000D01*
X6745000Y-57190000D01*
X6745000Y-57390000D01*
G37*
X7970000Y-56465000D02*
X7520000Y-56465000D01*
X7520000Y-56365000D01*
X7970000Y-56365000D01*
X7970000Y-56465000D01*
G36*
X7970000Y-56465000D02*
G01*
X7520000Y-56465000D01*
X7520000Y-56365000D01*
X7970000Y-56365000D01*
X7970000Y-56465000D01*
G37*
X7795000Y-56640000D02*
X7695000Y-56640000D01*
X7695000Y-56190000D01*
X7795000Y-56190000D01*
X7795000Y-56640000D01*
G36*
X7795000Y-56640000D02*
G01*
X7695000Y-56640000D01*
X7695000Y-56190000D01*
X7795000Y-56190000D01*
X7795000Y-56640000D01*
G37*
X6365000Y-57020000D02*
X6355000Y-57020000D01*
X6195000Y-57020000D01*
X6195000Y-56890000D01*
X6365000Y-56890000D01*
X6365000Y-57020000D01*
G36*
X6365000Y-57020000D02*
G01*
X6355000Y-57020000D01*
X6195000Y-57020000D01*
X6195000Y-56890000D01*
X6365000Y-56890000D01*
X6365000Y-57020000D01*
G37*
G04 #@! TO.C,JP1*
X28610000Y-43725000D02*
X30960000Y-43725000D01*
X30960000Y-43725000D02*
X30960000Y-44975000D01*
X30960000Y-44975000D02*
X28610000Y-44975000D01*
X28610000Y-44975000D02*
X28610000Y-43725000D01*
G04 #@! TO.C,C14*
X43940000Y-48092164D02*
X43940000Y-48307836D01*
X43220000Y-48092164D02*
X43220000Y-48307836D01*
X64540000Y-32532164D02*
X64540000Y-32747836D01*
X63820000Y-32532164D02*
X63820000Y-32747836D01*
G04 #@! TO.C,C11*
X38772164Y-12320000D02*
X38987836Y-12320000D01*
X38772164Y-13040000D02*
X38987836Y-13040000D01*
G04 #@! TO.C,R7*
X63983641Y-25200000D02*
X63676359Y-25200000D01*
X63983641Y-24440000D02*
X63676359Y-24440000D01*
G04 #@! TO.C,R5*
X43960000Y-44096359D02*
X43960000Y-44403641D01*
X43200000Y-44096359D02*
X43200000Y-44403641D01*
D13*
G04 #@! TO.C,X1*
X8874000Y-50659000D02*
X9382000Y-50659000D01*
X9382000Y-50659000D02*
X9382000Y-50151000D01*
X5826000Y-50402000D02*
X5826000Y-46341000D01*
X9156000Y-50402000D02*
X5826000Y-50402000D01*
X5826000Y-46341000D02*
X7477000Y-46341000D01*
X7477000Y-46341000D02*
X9128000Y-46341000D01*
X9128000Y-46341000D02*
X9156000Y-50402000D01*
X9128000Y-46341000D02*
X9128000Y-46341000D01*
D12*
G04 #@! TO.C,R10*
X58310000Y-23286359D02*
X58310000Y-23593641D01*
X57550000Y-23286359D02*
X57550000Y-23593641D01*
D11*
G04 #@! TO.C,U1*
X38485000Y-45195000D02*
X38485000Y-45764000D01*
X37916000Y-45195000D02*
X38485000Y-45195000D01*
X37916000Y-45195000D02*
X38485000Y-45764000D01*
X31485000Y-45195000D02*
X32054000Y-45195000D01*
X31485000Y-45295000D02*
X31485000Y-45195000D01*
X38485000Y-45454000D02*
X38388000Y-45454000D01*
X38388000Y-45454000D02*
X38129000Y-45195000D01*
X31485000Y-45764000D02*
X31485000Y-45295000D01*
X38485000Y-51626000D02*
X38485000Y-52195000D01*
X38485000Y-52195000D02*
X37916000Y-52195000D01*
X32054000Y-52195000D02*
X31485000Y-52195000D01*
X31485000Y-52195000D02*
X31485000Y-51626000D01*
X38812000Y-44695000D02*
G75*
G03*
X38812000Y-44695000I-127000J0D01*
G01*
D12*
G04 #@! TO.C,R11*
X38990000Y-23286359D02*
X38990000Y-23593641D01*
X38230000Y-23286359D02*
X38230000Y-23593641D01*
G04 #@! TO.C,JP3*
X62025000Y-54065000D02*
X64375000Y-54065000D01*
X64375000Y-54065000D02*
X64375000Y-55315000D01*
X64375000Y-55315000D02*
X62025000Y-55315000D01*
X62025000Y-55315000D02*
X62025000Y-54065000D01*
G04 #@! TO.C,C14*
X23340000Y-16972164D02*
X23340000Y-17187836D01*
X22620000Y-16972164D02*
X22620000Y-17187836D01*
G04 #@! TO.C,C5*
X19497164Y-35960000D02*
X19712836Y-35960000D01*
X19497164Y-36680000D02*
X19712836Y-36680000D01*
X40097164Y-51520000D02*
X40312836Y-51520000D01*
X40097164Y-52240000D02*
X40312836Y-52240000D01*
G04 #@! TO.C,R3*
X34905000Y-38246359D02*
X34905000Y-38553641D01*
X34145000Y-38246359D02*
X34145000Y-38553641D01*
G04 #@! TO.C,R6*
X63800000Y-46388641D02*
X63800000Y-46081359D01*
X64560000Y-46388641D02*
X64560000Y-46081359D01*
G04 #@! TO.C,C12*
X35272164Y-43445000D02*
X35487836Y-43445000D01*
X35272164Y-44165000D02*
X35487836Y-44165000D01*
G04 #@! TO.C,C13*
X28380000Y-52337164D02*
X28380000Y-52552836D01*
X27660000Y-52337164D02*
X27660000Y-52552836D01*
G04 #@! TO.C,R10*
X37710000Y-23286359D02*
X37710000Y-23593641D01*
X36950000Y-23286359D02*
X36950000Y-23593641D01*
G04 #@! TO.C,C6*
X19712836Y-37747500D02*
X19497164Y-37747500D01*
X19712836Y-37027500D02*
X19497164Y-37027500D01*
G04 #@! TO.C,R6*
X22600000Y-46388641D02*
X22600000Y-46081359D01*
X23360000Y-46388641D02*
X23360000Y-46081359D01*
G04 #@! TO.C,C9*
X19497164Y-22535000D02*
X19712836Y-22535000D01*
X19497164Y-23255000D02*
X19712836Y-23255000D01*
D15*
G04 #@! TO.C,U5*
X26445000Y-24920000D02*
X26445000Y-26620000D01*
X26445000Y-26620000D02*
X28145000Y-26620000D01*
X28145000Y-24920000D02*
X26445000Y-24920000D01*
X28145000Y-26620000D02*
X28145000Y-24920000D01*
X26345000Y-25070000D02*
G75*
G03*
X26345000Y-25070000I-50000J0D01*
G01*
D12*
X27345000Y-26270000D02*
X27195000Y-26170000D01*
X27345000Y-26070000D01*
X27345000Y-26270000D01*
G36*
X27345000Y-26270000D02*
G01*
X27195000Y-26170000D01*
X27345000Y-26070000D01*
X27345000Y-26270000D01*
G37*
X28570000Y-25345000D02*
X28120000Y-25345000D01*
X28120000Y-25245000D01*
X28570000Y-25245000D01*
X28570000Y-25345000D01*
G36*
X28570000Y-25345000D02*
G01*
X28120000Y-25345000D01*
X28120000Y-25245000D01*
X28570000Y-25245000D01*
X28570000Y-25345000D01*
G37*
X28395000Y-25520000D02*
X28295000Y-25520000D01*
X28295000Y-25070000D01*
X28395000Y-25070000D01*
X28395000Y-25520000D01*
G36*
X28395000Y-25520000D02*
G01*
X28295000Y-25520000D01*
X28295000Y-25070000D01*
X28395000Y-25070000D01*
X28395000Y-25520000D01*
G37*
X26965000Y-25900000D02*
X26955000Y-25900000D01*
X26795000Y-25900000D01*
X26795000Y-25770000D01*
X26965000Y-25770000D01*
X26965000Y-25900000D01*
G36*
X26965000Y-25900000D02*
G01*
X26955000Y-25900000D01*
X26795000Y-25900000D01*
X26795000Y-25770000D01*
X26965000Y-25770000D01*
X26965000Y-25900000D01*
G37*
G04 #@! TO.C,C8*
X40102164Y-23620000D02*
X40317836Y-23620000D01*
X40102164Y-24340000D02*
X40317836Y-24340000D01*
D11*
G04 #@! TO.C,SW1*
X47666000Y-38064000D02*
X50714000Y-38064000D01*
X47666000Y-40096000D02*
X50714000Y-40096000D01*
X49698491Y-39334252D02*
G75*
G03*
X49591999Y-39481999I-508491J254252D01*
G01*
D12*
G04 #@! TO.C,R2*
X9330000Y-37133641D02*
X9330000Y-36826359D01*
X10090000Y-37133641D02*
X10090000Y-36826359D01*
G04 #@! TO.C,C10*
X21072164Y-34260000D02*
X21287836Y-34260000D01*
X21072164Y-34980000D02*
X21287836Y-34980000D01*
G04 #@! TO.C,C2*
X62272164Y-17640000D02*
X62487836Y-17640000D01*
X62272164Y-18360000D02*
X62487836Y-18360000D01*
G04 #@! TO.C,R12*
X32076359Y-43440000D02*
X32383641Y-43440000D01*
X32076359Y-44200000D02*
X32383641Y-44200000D01*
G04 #@! TO.C,C5*
X60697164Y-20400000D02*
X60912836Y-20400000D01*
X60697164Y-21120000D02*
X60912836Y-21120000D01*
G04 #@! TO.C,R2*
X9330000Y-52693641D02*
X9330000Y-52386359D01*
X10090000Y-52693641D02*
X10090000Y-52386359D01*
G04 #@! TO.C,JP3*
X20825000Y-54065000D02*
X23175000Y-54065000D01*
X23175000Y-54065000D02*
X23175000Y-55315000D01*
X23175000Y-55315000D02*
X20825000Y-55315000D01*
X20825000Y-55315000D02*
X20825000Y-54065000D01*
G04 #@! TO.C,C1*
X27982164Y-34990000D02*
X28197836Y-34990000D01*
X27982164Y-35710000D02*
X28197836Y-35710000D01*
G04 #@! TO.C,C4*
X50110000Y-36772164D02*
X50110000Y-36987836D01*
X49390000Y-36772164D02*
X49390000Y-36987836D01*
G04 #@! TO.C,JP2*
X62045000Y-36005000D02*
X64395000Y-36005000D01*
X64395000Y-36005000D02*
X64395000Y-37255000D01*
X64395000Y-37255000D02*
X62045000Y-37255000D01*
X62045000Y-37255000D02*
X62045000Y-36005000D01*
D11*
G04 #@! TO.C,SW1*
X6466000Y-53624000D02*
X9514000Y-53624000D01*
X6466000Y-55656000D02*
X9514000Y-55656000D01*
X8498491Y-54894252D02*
G75*
G03*
X8391999Y-55041999I-508491J254252D01*
G01*
D12*
G04 #@! TO.C,R3*
X14305000Y-22686359D02*
X14305000Y-22993641D01*
X13545000Y-22686359D02*
X13545000Y-22993641D01*
D11*
G04 #@! TO.C,U1*
X38485000Y-14075000D02*
X38485000Y-14644000D01*
X37916000Y-14075000D02*
X38485000Y-14075000D01*
X37916000Y-14075000D02*
X38485000Y-14644000D01*
X31485000Y-14075000D02*
X32054000Y-14075000D01*
X31485000Y-14175000D02*
X31485000Y-14075000D01*
X38485000Y-14334000D02*
X38388000Y-14334000D01*
X38388000Y-14334000D02*
X38129000Y-14075000D01*
X31485000Y-14644000D02*
X31485000Y-14175000D01*
X38485000Y-20506000D02*
X38485000Y-21075000D01*
X38485000Y-21075000D02*
X37916000Y-21075000D01*
X32054000Y-21075000D02*
X31485000Y-21075000D01*
X31485000Y-21075000D02*
X31485000Y-20506000D01*
X38812000Y-13575000D02*
G75*
G03*
X38812000Y-13575000I-127000J0D01*
G01*
D12*
G04 #@! TO.C,R6*
X22600000Y-15268641D02*
X22600000Y-14961359D01*
X23360000Y-15268641D02*
X23360000Y-14961359D01*
D11*
G04 #@! TO.C,U1*
X59085000Y-45195000D02*
X59085000Y-45764000D01*
X58516000Y-45195000D02*
X59085000Y-45195000D01*
X58516000Y-45195000D02*
X59085000Y-45764000D01*
X52085000Y-45195000D02*
X52654000Y-45195000D01*
X52085000Y-45295000D02*
X52085000Y-45195000D01*
X59085000Y-45454000D02*
X58988000Y-45454000D01*
X58988000Y-45454000D02*
X58729000Y-45195000D01*
X52085000Y-45764000D02*
X52085000Y-45295000D01*
X59085000Y-51626000D02*
X59085000Y-52195000D01*
X59085000Y-52195000D02*
X58516000Y-52195000D01*
X52654000Y-52195000D02*
X52085000Y-52195000D01*
X52085000Y-52195000D02*
X52085000Y-51626000D01*
X59412000Y-44695000D02*
G75*
G03*
X59412000Y-44695000I-127000J0D01*
G01*
D13*
G04 #@! TO.C,U2*
X63381000Y-47758500D02*
X63381000Y-44606500D01*
X61229000Y-44606500D02*
X61229000Y-47758500D01*
D14*
X63167000Y-44150500D02*
G75*
G03*
X63167000Y-44150500I-100000J0D01*
G01*
D13*
G04 #@! TO.C,X1*
X50074000Y-35099000D02*
X50582000Y-35099000D01*
X50582000Y-35099000D02*
X50582000Y-34591000D01*
X47026000Y-34842000D02*
X47026000Y-30781000D01*
X50356000Y-34842000D02*
X47026000Y-34842000D01*
X47026000Y-30781000D02*
X48677000Y-30781000D01*
X48677000Y-30781000D02*
X50328000Y-30781000D01*
X50328000Y-30781000D02*
X50356000Y-34842000D01*
X50328000Y-30781000D02*
X50328000Y-30781000D01*
D12*
G04 #@! TO.C,R3*
X34905000Y-22686359D02*
X34905000Y-22993641D01*
X34145000Y-22686359D02*
X34145000Y-22993641D01*
G04 #@! TO.C,C12*
X14672164Y-43445000D02*
X14887836Y-43445000D01*
X14672164Y-44165000D02*
X14887836Y-44165000D01*
D13*
G04 #@! TO.C,X1*
X29474000Y-35099000D02*
X29982000Y-35099000D01*
X29982000Y-35099000D02*
X29982000Y-34591000D01*
X26426000Y-34842000D02*
X26426000Y-30781000D01*
X29756000Y-34842000D02*
X26426000Y-34842000D01*
X26426000Y-30781000D02*
X28077000Y-30781000D01*
X28077000Y-30781000D02*
X29728000Y-30781000D01*
X29728000Y-30781000D02*
X29756000Y-34842000D01*
X29728000Y-30781000D02*
X29728000Y-30781000D01*
D12*
G04 #@! TO.C,C7*
X53737836Y-53810000D02*
X53522164Y-53810000D01*
X53737836Y-53090000D02*
X53522164Y-53090000D01*
D15*
G04 #@! TO.C,U5*
X47045000Y-24920000D02*
X47045000Y-26620000D01*
X47045000Y-26620000D02*
X48745000Y-26620000D01*
X48745000Y-24920000D02*
X47045000Y-24920000D01*
X48745000Y-26620000D02*
X48745000Y-24920000D01*
X46945000Y-25070000D02*
G75*
G03*
X46945000Y-25070000I-50000J0D01*
G01*
D12*
X47945000Y-26270000D02*
X47795000Y-26170000D01*
X47945000Y-26070000D01*
X47945000Y-26270000D01*
G36*
X47945000Y-26270000D02*
G01*
X47795000Y-26170000D01*
X47945000Y-26070000D01*
X47945000Y-26270000D01*
G37*
X49170000Y-25345000D02*
X48720000Y-25345000D01*
X48720000Y-25245000D01*
X49170000Y-25245000D01*
X49170000Y-25345000D01*
G36*
X49170000Y-25345000D02*
G01*
X48720000Y-25345000D01*
X48720000Y-25245000D01*
X49170000Y-25245000D01*
X49170000Y-25345000D01*
G37*
X48995000Y-25520000D02*
X48895000Y-25520000D01*
X48895000Y-25070000D01*
X48995000Y-25070000D01*
X48995000Y-25520000D01*
G36*
X48995000Y-25520000D02*
G01*
X48895000Y-25520000D01*
X48895000Y-25070000D01*
X48995000Y-25070000D01*
X48995000Y-25520000D01*
G37*
X47565000Y-25900000D02*
X47555000Y-25900000D01*
X47395000Y-25900000D01*
X47395000Y-25770000D01*
X47565000Y-25770000D01*
X47565000Y-25900000D01*
G36*
X47565000Y-25900000D02*
G01*
X47555000Y-25900000D01*
X47395000Y-25900000D01*
X47395000Y-25770000D01*
X47565000Y-25770000D01*
X47565000Y-25900000D01*
G37*
G04 #@! TO.C,C12*
X55872164Y-43445000D02*
X56087836Y-43445000D01*
X55872164Y-44165000D02*
X56087836Y-44165000D01*
G04 #@! TO.C,C1*
X7382164Y-50550000D02*
X7597836Y-50550000D01*
X7382164Y-51270000D02*
X7597836Y-51270000D01*
G04 #@! TO.C,C2*
X62272164Y-33200000D02*
X62487836Y-33200000D01*
X62272164Y-33920000D02*
X62487836Y-33920000D01*
G04 #@! TO.C,C14*
X64540000Y-16972164D02*
X64540000Y-17187836D01*
X63820000Y-16972164D02*
X63820000Y-17187836D01*
G04 #@! TO.C,R9*
X15830000Y-23286359D02*
X15830000Y-23593641D01*
X15070000Y-23286359D02*
X15070000Y-23593641D01*
G04 #@! TO.C,R11*
X18390000Y-23286359D02*
X18390000Y-23593641D01*
X17630000Y-23286359D02*
X17630000Y-23593641D01*
G04 #@! TO.C,R5*
X23360000Y-44096359D02*
X23360000Y-44403641D01*
X22600000Y-44096359D02*
X22600000Y-44403641D01*
D13*
G04 #@! TO.C,U2*
X63381000Y-32198500D02*
X63381000Y-29046500D01*
X61229000Y-29046500D02*
X61229000Y-32198500D01*
D14*
X63167000Y-28590500D02*
G75*
G03*
X63167000Y-28590500I-100000J0D01*
G01*
D12*
G04 #@! TO.C,R6*
X43200000Y-30828641D02*
X43200000Y-30521359D01*
X43960000Y-30828641D02*
X43960000Y-30521359D01*
D13*
G04 #@! TO.C,X1*
X50074000Y-50659000D02*
X50582000Y-50659000D01*
X50582000Y-50659000D02*
X50582000Y-50151000D01*
X47026000Y-50402000D02*
X47026000Y-46341000D01*
X50356000Y-50402000D02*
X47026000Y-50402000D01*
X47026000Y-46341000D02*
X48677000Y-46341000D01*
X48677000Y-46341000D02*
X50328000Y-46341000D01*
X50328000Y-46341000D02*
X50356000Y-50402000D01*
X50328000Y-46341000D02*
X50328000Y-46341000D01*
D12*
G04 #@! TO.C,C8*
X60702164Y-54740000D02*
X60917836Y-54740000D01*
X60702164Y-55460000D02*
X60917836Y-55460000D01*
G04 #@! TO.C,C5*
X40097164Y-20400000D02*
X40312836Y-20400000D01*
X40097164Y-21120000D02*
X40312836Y-21120000D01*
G04 #@! TO.C,C8*
X60702164Y-23620000D02*
X60917836Y-23620000D01*
X60702164Y-24340000D02*
X60917836Y-24340000D01*
G04 #@! TO.C,R1*
X50500000Y-18313641D02*
X50500000Y-18006359D01*
X51260000Y-18313641D02*
X51260000Y-18006359D01*
G04 #@! TO.C,C8*
X19502164Y-23620000D02*
X19717836Y-23620000D01*
X19502164Y-24340000D02*
X19717836Y-24340000D01*
G04 #@! TO.C,R7*
X63983641Y-56320000D02*
X63676359Y-56320000D01*
X63983641Y-55560000D02*
X63676359Y-55560000D01*
G04 #@! TO.C,C3*
X7402164Y-29920000D02*
X7617836Y-29920000D01*
X7402164Y-30640000D02*
X7617836Y-30640000D01*
G04 #@! TO.C,C9*
X19497164Y-53655000D02*
X19712836Y-53655000D01*
X19497164Y-54375000D02*
X19712836Y-54375000D01*
G04 #@! TO.C,R10*
X17110000Y-54406359D02*
X17110000Y-54713641D01*
X16350000Y-54406359D02*
X16350000Y-54713641D01*
G04 #@! TO.C,R11*
X38990000Y-38846359D02*
X38990000Y-39153641D01*
X38230000Y-38846359D02*
X38230000Y-39153641D01*
G04 #@! TO.C,JP2*
X41445000Y-20445000D02*
X43795000Y-20445000D01*
X43795000Y-20445000D02*
X43795000Y-21695000D01*
X43795000Y-21695000D02*
X41445000Y-21695000D01*
X41445000Y-21695000D02*
X41445000Y-20445000D01*
G04 #@! TO.C,C13*
X28380000Y-21217164D02*
X28380000Y-21432836D01*
X27660000Y-21217164D02*
X27660000Y-21432836D01*
G04 #@! TO.C,R7*
X22783641Y-40760000D02*
X22476359Y-40760000D01*
X22783641Y-40000000D02*
X22476359Y-40000000D01*
G04 #@! TO.C,JP2*
X62045000Y-20445000D02*
X64395000Y-20445000D01*
X64395000Y-20445000D02*
X64395000Y-21695000D01*
X64395000Y-21695000D02*
X62045000Y-21695000D01*
X62045000Y-21695000D02*
X62045000Y-20445000D01*
G04 #@! TO.C,C1*
X48582164Y-50550000D02*
X48797836Y-50550000D01*
X48582164Y-51270000D02*
X48797836Y-51270000D01*
G04 #@! TO.C,C2*
X62272164Y-48760000D02*
X62487836Y-48760000D01*
X62272164Y-49480000D02*
X62487836Y-49480000D01*
D11*
G04 #@! TO.C,SW1*
X6466000Y-38064000D02*
X9514000Y-38064000D01*
X6466000Y-40096000D02*
X9514000Y-40096000D01*
X8498491Y-39334252D02*
G75*
G03*
X8391999Y-39481999I-508491J254252D01*
G01*
D12*
G04 #@! TO.C,C6*
X60912836Y-53307500D02*
X60697164Y-53307500D01*
X60912836Y-52587500D02*
X60697164Y-52587500D01*
G04 #@! TO.C,C7*
X12537836Y-38250000D02*
X12322164Y-38250000D01*
X12537836Y-37530000D02*
X12322164Y-37530000D01*
G04 #@! TO.C,R11*
X59590000Y-38846359D02*
X59590000Y-39153641D01*
X58830000Y-38846359D02*
X58830000Y-39153641D01*
G04 #@! TO.C,JP1*
X8010000Y-12605000D02*
X10360000Y-12605000D01*
X10360000Y-12605000D02*
X10360000Y-13855000D01*
X10360000Y-13855000D02*
X8010000Y-13855000D01*
X8010000Y-13855000D02*
X8010000Y-12605000D01*
G04 #@! TO.C,C7*
X33137836Y-22690000D02*
X32922164Y-22690000D01*
X33137836Y-21970000D02*
X32922164Y-21970000D01*
D13*
G04 #@! TO.C,U2*
X63381000Y-16638500D02*
X63381000Y-13486500D01*
X61229000Y-13486500D02*
X61229000Y-16638500D01*
D14*
X63167000Y-13030500D02*
G75*
G03*
X63167000Y-13030500I-100000J0D01*
G01*
D12*
G04 #@! TO.C,JP2*
X41445000Y-36005000D02*
X43795000Y-36005000D01*
X43795000Y-36005000D02*
X43795000Y-37255000D01*
X43795000Y-37255000D02*
X41445000Y-37255000D01*
X41445000Y-37255000D02*
X41445000Y-36005000D01*
G04 #@! TO.C,C1*
X48582164Y-19430000D02*
X48797836Y-19430000D01*
X48582164Y-20150000D02*
X48797836Y-20150000D01*
G04 #@! TO.C,C12*
X35272164Y-27885000D02*
X35487836Y-27885000D01*
X35272164Y-28605000D02*
X35487836Y-28605000D01*
G04 #@! TO.C,R4*
X22783641Y-38260000D02*
X22476359Y-38260000D01*
X22783641Y-37500000D02*
X22476359Y-37500000D01*
G04 #@! TO.C,R5*
X43960000Y-12976359D02*
X43960000Y-13283641D01*
X43200000Y-12976359D02*
X43200000Y-13283641D01*
G04 #@! TO.C,C9*
X60697164Y-53655000D02*
X60912836Y-53655000D01*
X60697164Y-54375000D02*
X60912836Y-54375000D01*
G04 #@! TO.C,C14*
X64540000Y-48092164D02*
X64540000Y-48307836D01*
X63820000Y-48092164D02*
X63820000Y-48307836D01*
D11*
G04 #@! TO.C,SW1*
X27066000Y-22504000D02*
X30114000Y-22504000D01*
X27066000Y-24536000D02*
X30114000Y-24536000D01*
X29098491Y-23774252D02*
G75*
G03*
X28991999Y-23921999I-508491J254252D01*
G01*
D12*
G04 #@! TO.C,C3*
X7402164Y-14360000D02*
X7617836Y-14360000D01*
X7402164Y-15080000D02*
X7617836Y-15080000D01*
G04 #@! TO.C,C13*
X48980000Y-21217164D02*
X48980000Y-21432836D01*
X48260000Y-21217164D02*
X48260000Y-21432836D01*
G04 #@! TO.C,C10*
X41672164Y-18700000D02*
X41887836Y-18700000D01*
X41672164Y-19420000D02*
X41887836Y-19420000D01*
G04 #@! TO.C,C2*
X21072164Y-17640000D02*
X21287836Y-17640000D01*
X21072164Y-18360000D02*
X21287836Y-18360000D01*
G04 #@! TO.C,C1*
X7382164Y-19430000D02*
X7597836Y-19430000D01*
X7382164Y-20150000D02*
X7597836Y-20150000D01*
G04 #@! TO.C,C8*
X40102164Y-39180000D02*
X40317836Y-39180000D01*
X40102164Y-39900000D02*
X40317836Y-39900000D01*
G04 #@! TO.C,R11*
X59590000Y-23286359D02*
X59590000Y-23593641D01*
X58830000Y-23286359D02*
X58830000Y-23593641D01*
G04 #@! TO.C,R7*
X43383641Y-40760000D02*
X43076359Y-40760000D01*
X43383641Y-40000000D02*
X43076359Y-40000000D01*
G04 #@! TO.C,C12*
X55872164Y-12325000D02*
X56087836Y-12325000D01*
X55872164Y-13045000D02*
X56087836Y-13045000D01*
G04 #@! TO.C,C13*
X7780000Y-36777164D02*
X7780000Y-36992836D01*
X7060000Y-36777164D02*
X7060000Y-36992836D01*
G04 #@! TO.C,C4*
X8910000Y-21212164D02*
X8910000Y-21427836D01*
X8190000Y-21212164D02*
X8190000Y-21427836D01*
D11*
G04 #@! TO.C,SW1*
X47666000Y-53624000D02*
X50714000Y-53624000D01*
X47666000Y-55656000D02*
X50714000Y-55656000D01*
X49698491Y-54894252D02*
G75*
G03*
X49591999Y-55041999I-508491J254252D01*
G01*
D12*
G04 #@! TO.C,R5*
X23360000Y-28536359D02*
X23360000Y-28843641D01*
X22600000Y-28536359D02*
X22600000Y-28843641D01*
G04 #@! TO.C,R2*
X50530000Y-21573641D02*
X50530000Y-21266359D01*
X51290000Y-21573641D02*
X51290000Y-21266359D01*
G04 #@! TO.C,JP2*
X20845000Y-20445000D02*
X23195000Y-20445000D01*
X23195000Y-20445000D02*
X23195000Y-21695000D01*
X23195000Y-21695000D02*
X20845000Y-21695000D01*
X20845000Y-21695000D02*
X20845000Y-20445000D01*
G04 #@! TO.C,JP1*
X8010000Y-43725000D02*
X10360000Y-43725000D01*
X10360000Y-43725000D02*
X10360000Y-44975000D01*
X10360000Y-44975000D02*
X8010000Y-44975000D01*
X8010000Y-44975000D02*
X8010000Y-43725000D01*
G04 #@! TO.C,JP3*
X20825000Y-38505000D02*
X23175000Y-38505000D01*
X23175000Y-38505000D02*
X23175000Y-39755000D01*
X23175000Y-39755000D02*
X20825000Y-39755000D01*
X20825000Y-39755000D02*
X20825000Y-38505000D01*
G04 #@! TO.C,C10*
X21072164Y-18700000D02*
X21287836Y-18700000D01*
X21072164Y-19420000D02*
X21287836Y-19420000D01*
G04 #@! TO.C,R9*
X36430000Y-38846359D02*
X36430000Y-39153641D01*
X35670000Y-38846359D02*
X35670000Y-39153641D01*
G04 #@! TO.C,R3*
X55505000Y-38246359D02*
X55505000Y-38553641D01*
X54745000Y-38246359D02*
X54745000Y-38553641D01*
G04 #@! TO.C,R9*
X57030000Y-23286359D02*
X57030000Y-23593641D01*
X56270000Y-23286359D02*
X56270000Y-23593641D01*
G04 #@! TO.C,R2*
X29930000Y-52693641D02*
X29930000Y-52386359D01*
X30690000Y-52693641D02*
X30690000Y-52386359D01*
G04 #@! TO.C,R12*
X52676359Y-12320000D02*
X52983641Y-12320000D01*
X52676359Y-13080000D02*
X52983641Y-13080000D01*
G04 #@! TO.C,C14*
X43940000Y-32532164D02*
X43940000Y-32747836D01*
X43220000Y-32532164D02*
X43220000Y-32747836D01*
D11*
G04 #@! TO.C,SW1*
X47666000Y-22504000D02*
X50714000Y-22504000D01*
X47666000Y-24536000D02*
X50714000Y-24536000D01*
X49698491Y-23774252D02*
G75*
G03*
X49591999Y-23921999I-508491J254252D01*
G01*
D12*
G04 #@! TO.C,C11*
X18172164Y-27880000D02*
X18387836Y-27880000D01*
X18172164Y-28600000D02*
X18387836Y-28600000D01*
G04 #@! TO.C,C10*
X41672164Y-49820000D02*
X41887836Y-49820000D01*
X41672164Y-50540000D02*
X41887836Y-50540000D01*
G04 #@! TO.C,C14*
X23340000Y-32532164D02*
X23340000Y-32747836D01*
X22620000Y-32532164D02*
X22620000Y-32747836D01*
G04 #@! TO.C,R5*
X64560000Y-44096359D02*
X64560000Y-44403641D01*
X63800000Y-44096359D02*
X63800000Y-44403641D01*
G04 #@! TO.C,C1*
X27982164Y-50550000D02*
X28197836Y-50550000D01*
X27982164Y-51270000D02*
X28197836Y-51270000D01*
G04 #@! TO.C,R1*
X9300000Y-33873641D02*
X9300000Y-33566359D01*
X10060000Y-33873641D02*
X10060000Y-33566359D01*
G04 #@! TO.C,JP2*
X62045000Y-51565000D02*
X64395000Y-51565000D01*
X64395000Y-51565000D02*
X64395000Y-52815000D01*
X64395000Y-52815000D02*
X62045000Y-52815000D01*
X62045000Y-52815000D02*
X62045000Y-51565000D01*
G04 #@! TO.C,C3*
X28002164Y-29920000D02*
X28217836Y-29920000D01*
X28002164Y-30640000D02*
X28217836Y-30640000D01*
G04 #@! TO.C,R1*
X50500000Y-49433641D02*
X50500000Y-49126359D01*
X51260000Y-49433641D02*
X51260000Y-49126359D01*
X50500000Y-33873641D02*
X50500000Y-33566359D01*
X51260000Y-33873641D02*
X51260000Y-33566359D01*
D11*
G04 #@! TO.C,U1*
X59085000Y-14075000D02*
X59085000Y-14644000D01*
X58516000Y-14075000D02*
X59085000Y-14075000D01*
X58516000Y-14075000D02*
X59085000Y-14644000D01*
X52085000Y-14075000D02*
X52654000Y-14075000D01*
X52085000Y-14175000D02*
X52085000Y-14075000D01*
X59085000Y-14334000D02*
X58988000Y-14334000D01*
X58988000Y-14334000D02*
X58729000Y-14075000D01*
X52085000Y-14644000D02*
X52085000Y-14175000D01*
X59085000Y-20506000D02*
X59085000Y-21075000D01*
X59085000Y-21075000D02*
X58516000Y-21075000D01*
X52654000Y-21075000D02*
X52085000Y-21075000D01*
X52085000Y-21075000D02*
X52085000Y-20506000D01*
X59412000Y-13575000D02*
G75*
G03*
X59412000Y-13575000I-127000J0D01*
G01*
D12*
G04 #@! TO.C,C10*
X21072164Y-49820000D02*
X21287836Y-49820000D01*
X21072164Y-50540000D02*
X21287836Y-50540000D01*
G04 #@! TO.C,R4*
X22783641Y-22700000D02*
X22476359Y-22700000D01*
X22783641Y-21940000D02*
X22476359Y-21940000D01*
G04 #@! TO.C,JP1*
X49210000Y-43725000D02*
X51560000Y-43725000D01*
X51560000Y-43725000D02*
X51560000Y-44975000D01*
X51560000Y-44975000D02*
X49210000Y-44975000D01*
X49210000Y-44975000D02*
X49210000Y-43725000D01*
G04 #@! TO.C,R11*
X18390000Y-38846359D02*
X18390000Y-39153641D01*
X17630000Y-38846359D02*
X17630000Y-39153641D01*
G04 #@! TO.C,C7*
X12537836Y-53810000D02*
X12322164Y-53810000D01*
X12537836Y-53090000D02*
X12322164Y-53090000D01*
G04 #@! TO.C,C3*
X7402164Y-45480000D02*
X7617836Y-45480000D01*
X7402164Y-46200000D02*
X7617836Y-46200000D01*
G04 #@! TO.C,R1*
X29900000Y-18313641D02*
X29900000Y-18006359D01*
X30660000Y-18313641D02*
X30660000Y-18006359D01*
G04 #@! TO.C,JP2*
X20845000Y-36005000D02*
X23195000Y-36005000D01*
X23195000Y-36005000D02*
X23195000Y-37255000D01*
X23195000Y-37255000D02*
X20845000Y-37255000D01*
X20845000Y-37255000D02*
X20845000Y-36005000D01*
D15*
G04 #@! TO.C,U5*
X5845000Y-40480000D02*
X5845000Y-42180000D01*
X5845000Y-42180000D02*
X7545000Y-42180000D01*
X7545000Y-40480000D02*
X5845000Y-40480000D01*
X7545000Y-42180000D02*
X7545000Y-40480000D01*
X5745000Y-40630000D02*
G75*
G03*
X5745000Y-40630000I-50000J0D01*
G01*
D12*
X6745000Y-41830000D02*
X6595000Y-41730000D01*
X6745000Y-41630000D01*
X6745000Y-41830000D01*
G36*
X6745000Y-41830000D02*
G01*
X6595000Y-41730000D01*
X6745000Y-41630000D01*
X6745000Y-41830000D01*
G37*
X7970000Y-40905000D02*
X7520000Y-40905000D01*
X7520000Y-40805000D01*
X7970000Y-40805000D01*
X7970000Y-40905000D01*
G36*
X7970000Y-40905000D02*
G01*
X7520000Y-40905000D01*
X7520000Y-40805000D01*
X7970000Y-40805000D01*
X7970000Y-40905000D01*
G37*
X7795000Y-41080000D02*
X7695000Y-41080000D01*
X7695000Y-40630000D01*
X7795000Y-40630000D01*
X7795000Y-41080000D01*
G36*
X7795000Y-41080000D02*
G01*
X7695000Y-41080000D01*
X7695000Y-40630000D01*
X7795000Y-40630000D01*
X7795000Y-41080000D01*
G37*
X6365000Y-41460000D02*
X6355000Y-41460000D01*
X6195000Y-41460000D01*
X6195000Y-41330000D01*
X6365000Y-41330000D01*
X6365000Y-41460000D01*
G36*
X6365000Y-41460000D02*
G01*
X6355000Y-41460000D01*
X6195000Y-41460000D01*
X6195000Y-41330000D01*
X6365000Y-41330000D01*
X6365000Y-41460000D01*
G37*
G04 #@! TO.C,JP1*
X49210000Y-12605000D02*
X51560000Y-12605000D01*
X51560000Y-12605000D02*
X51560000Y-13855000D01*
X51560000Y-13855000D02*
X49210000Y-13855000D01*
X49210000Y-13855000D02*
X49210000Y-12605000D01*
G04 #@! TO.C,R1*
X9300000Y-18313641D02*
X9300000Y-18006359D01*
X10060000Y-18313641D02*
X10060000Y-18006359D01*
G04 #@! TO.C,C1*
X7382164Y-34990000D02*
X7597836Y-34990000D01*
X7382164Y-35710000D02*
X7597836Y-35710000D01*
G04 #@! TO.C,R1*
X29900000Y-49433641D02*
X29900000Y-49126359D01*
X30660000Y-49433641D02*
X30660000Y-49126359D01*
G04 #@! TO.C,C3*
X48602164Y-14360000D02*
X48817836Y-14360000D01*
X48602164Y-15080000D02*
X48817836Y-15080000D01*
G04 #@! TO.C,C13*
X7780000Y-52337164D02*
X7780000Y-52552836D01*
X7060000Y-52337164D02*
X7060000Y-52552836D01*
G04 #@! TO.C,C11*
X59372164Y-12320000D02*
X59587836Y-12320000D01*
X59372164Y-13040000D02*
X59587836Y-13040000D01*
G04 #@! TO.C,R3*
X55505000Y-53806359D02*
X55505000Y-54113641D01*
X54745000Y-53806359D02*
X54745000Y-54113641D01*
G04 #@! TO.C,C8*
X40102164Y-54740000D02*
X40317836Y-54740000D01*
X40102164Y-55460000D02*
X40317836Y-55460000D01*
D11*
G04 #@! TO.C,SW1*
X27066000Y-53624000D02*
X30114000Y-53624000D01*
X27066000Y-55656000D02*
X30114000Y-55656000D01*
X29098491Y-54894252D02*
G75*
G03*
X28991999Y-55041999I-508491J254252D01*
G01*
D12*
G04 #@! TO.C,R4*
X43383641Y-53820000D02*
X43076359Y-53820000D01*
X43383641Y-53060000D02*
X43076359Y-53060000D01*
G04 #@! TO.C,JP2*
X20845000Y-51565000D02*
X23195000Y-51565000D01*
X23195000Y-51565000D02*
X23195000Y-52815000D01*
X23195000Y-52815000D02*
X20845000Y-52815000D01*
X20845000Y-52815000D02*
X20845000Y-51565000D01*
G04 #@! TO.C,JP3*
X41425000Y-54065000D02*
X43775000Y-54065000D01*
X43775000Y-54065000D02*
X43775000Y-55315000D01*
X43775000Y-55315000D02*
X41425000Y-55315000D01*
X41425000Y-55315000D02*
X41425000Y-54065000D01*
G04 #@! TO.C,C13*
X7780000Y-21217164D02*
X7780000Y-21432836D01*
X7060000Y-21217164D02*
X7060000Y-21432836D01*
G04 #@! TO.C,C3*
X48602164Y-29920000D02*
X48817836Y-29920000D01*
X48602164Y-30640000D02*
X48817836Y-30640000D01*
G04 #@! TO.C,C6*
X19712836Y-53307500D02*
X19497164Y-53307500D01*
X19712836Y-52587500D02*
X19497164Y-52587500D01*
G04 #@! TO.C,C4*
X8910000Y-36772164D02*
X8910000Y-36987836D01*
X8190000Y-36772164D02*
X8190000Y-36987836D01*
G04 #@! TO.C,R12*
X11476359Y-12320000D02*
X11783641Y-12320000D01*
X11476359Y-13080000D02*
X11783641Y-13080000D01*
D13*
G04 #@! TO.C,U2*
X42781000Y-47758500D02*
X42781000Y-44606500D01*
X40629000Y-44606500D02*
X40629000Y-47758500D01*
D14*
X42567000Y-44150500D02*
G75*
G03*
X42567000Y-44150500I-100000J0D01*
G01*
D12*
G04 #@! TO.C,JP3*
X62025000Y-22945000D02*
X64375000Y-22945000D01*
X64375000Y-22945000D02*
X64375000Y-24195000D01*
X64375000Y-24195000D02*
X62025000Y-24195000D01*
X62025000Y-24195000D02*
X62025000Y-22945000D01*
D15*
G04 #@! TO.C,U5*
X47045000Y-56040000D02*
X47045000Y-57740000D01*
X47045000Y-57740000D02*
X48745000Y-57740000D01*
X48745000Y-56040000D02*
X47045000Y-56040000D01*
X48745000Y-57740000D02*
X48745000Y-56040000D01*
X46945000Y-56190000D02*
G75*
G03*
X46945000Y-56190000I-50000J0D01*
G01*
D12*
X47945000Y-57390000D02*
X47795000Y-57290000D01*
X47945000Y-57190000D01*
X47945000Y-57390000D01*
G36*
X47945000Y-57390000D02*
G01*
X47795000Y-57290000D01*
X47945000Y-57190000D01*
X47945000Y-57390000D01*
G37*
X49170000Y-56465000D02*
X48720000Y-56465000D01*
X48720000Y-56365000D01*
X49170000Y-56365000D01*
X49170000Y-56465000D01*
G36*
X49170000Y-56465000D02*
G01*
X48720000Y-56465000D01*
X48720000Y-56365000D01*
X49170000Y-56365000D01*
X49170000Y-56465000D01*
G37*
X48995000Y-56640000D02*
X48895000Y-56640000D01*
X48895000Y-56190000D01*
X48995000Y-56190000D01*
X48995000Y-56640000D01*
G36*
X48995000Y-56640000D02*
G01*
X48895000Y-56640000D01*
X48895000Y-56190000D01*
X48995000Y-56190000D01*
X48995000Y-56640000D01*
G37*
X47565000Y-57020000D02*
X47555000Y-57020000D01*
X47395000Y-57020000D01*
X47395000Y-56890000D01*
X47565000Y-56890000D01*
X47565000Y-57020000D01*
G36*
X47565000Y-57020000D02*
G01*
X47555000Y-57020000D01*
X47395000Y-57020000D01*
X47395000Y-56890000D01*
X47565000Y-56890000D01*
X47565000Y-57020000D01*
G37*
G04 #@! TO.C,C4*
X50110000Y-52332164D02*
X50110000Y-52547836D01*
X49390000Y-52332164D02*
X49390000Y-52547836D01*
G04 #@! TO.C,C1*
X48582164Y-34990000D02*
X48797836Y-34990000D01*
X48582164Y-35710000D02*
X48797836Y-35710000D01*
D13*
G04 #@! TO.C,U2*
X42781000Y-16638500D02*
X42781000Y-13486500D01*
X40629000Y-13486500D02*
X40629000Y-16638500D01*
D14*
X42567000Y-13030500D02*
G75*
G03*
X42567000Y-13030500I-100000J0D01*
G01*
D13*
G04 #@! TO.C,X1*
X29474000Y-19539000D02*
X29982000Y-19539000D01*
X29982000Y-19539000D02*
X29982000Y-19031000D01*
X26426000Y-19282000D02*
X26426000Y-15221000D01*
X29756000Y-19282000D02*
X26426000Y-19282000D01*
X26426000Y-15221000D02*
X28077000Y-15221000D01*
X28077000Y-15221000D02*
X29728000Y-15221000D01*
X29728000Y-15221000D02*
X29756000Y-19282000D01*
X29728000Y-15221000D02*
X29728000Y-15221000D01*
D12*
G04 #@! TO.C,R7*
X22783641Y-25200000D02*
X22476359Y-25200000D01*
X22783641Y-24440000D02*
X22476359Y-24440000D01*
G04 #@! TO.C,C9*
X40097164Y-53655000D02*
X40312836Y-53655000D01*
X40097164Y-54375000D02*
X40312836Y-54375000D01*
G04 #@! TO.C,R2*
X29930000Y-37133641D02*
X29930000Y-36826359D01*
X30690000Y-37133641D02*
X30690000Y-36826359D01*
G04 #@! TO.C,R12*
X52676359Y-43440000D02*
X52983641Y-43440000D01*
X52676359Y-44200000D02*
X52983641Y-44200000D01*
G04 #@! TO.C,C1*
X27982164Y-19430000D02*
X28197836Y-19430000D01*
X27982164Y-20150000D02*
X28197836Y-20150000D01*
G04 #@! TO.C,R4*
X63983641Y-53820000D02*
X63676359Y-53820000D01*
X63983641Y-53060000D02*
X63676359Y-53060000D01*
D13*
G04 #@! TO.C,U2*
X42781000Y-32198500D02*
X42781000Y-29046500D01*
X40629000Y-29046500D02*
X40629000Y-32198500D01*
D14*
X42567000Y-28590500D02*
G75*
G03*
X42567000Y-28590500I-100000J0D01*
G01*
D12*
G04 #@! TO.C,C8*
X19502164Y-39180000D02*
X19717836Y-39180000D01*
X19502164Y-39900000D02*
X19717836Y-39900000D01*
G04 #@! TO.C,R10*
X17110000Y-23286359D02*
X17110000Y-23593641D01*
X16350000Y-23286359D02*
X16350000Y-23593641D01*
G04 #@! TO.C,R11*
X38990000Y-54406359D02*
X38990000Y-54713641D01*
X38230000Y-54406359D02*
X38230000Y-54713641D01*
G04 #@! TO.C,R1*
X9300000Y-49433641D02*
X9300000Y-49126359D01*
X10060000Y-49433641D02*
X10060000Y-49126359D01*
G04 #@! TO.C,C8*
X60702164Y-39180000D02*
X60917836Y-39180000D01*
X60702164Y-39900000D02*
X60917836Y-39900000D01*
G04 #@! TO.C,C11*
X18172164Y-43440000D02*
X18387836Y-43440000D01*
X18172164Y-44160000D02*
X18387836Y-44160000D01*
X38772164Y-27880000D02*
X38987836Y-27880000D01*
X38772164Y-28600000D02*
X38987836Y-28600000D01*
G04 #@! TO.C,C13*
X48980000Y-36777164D02*
X48980000Y-36992836D01*
X48260000Y-36777164D02*
X48260000Y-36992836D01*
G04 #@! TO.C,C4*
X50110000Y-21212164D02*
X50110000Y-21427836D01*
X49390000Y-21212164D02*
X49390000Y-21427836D01*
G04 #@! TO.C,C6*
X60912836Y-37747500D02*
X60697164Y-37747500D01*
X60912836Y-37027500D02*
X60697164Y-37027500D01*
G04 #@! TO.C,R7*
X22783641Y-56320000D02*
X22476359Y-56320000D01*
X22783641Y-55560000D02*
X22476359Y-55560000D01*
G04 #@! TO.C,C6*
X60912836Y-22187500D02*
X60697164Y-22187500D01*
X60912836Y-21467500D02*
X60697164Y-21467500D01*
G04 #@! TO.C,JP1*
X8010000Y-28165000D02*
X10360000Y-28165000D01*
X10360000Y-28165000D02*
X10360000Y-29415000D01*
X10360000Y-29415000D02*
X8010000Y-29415000D01*
X8010000Y-29415000D02*
X8010000Y-28165000D01*
G04 #@! TO.C,C6*
X19712836Y-22187500D02*
X19497164Y-22187500D01*
X19712836Y-21467500D02*
X19497164Y-21467500D01*
G04 #@! TO.C,R6*
X63800000Y-30828641D02*
X63800000Y-30521359D01*
X64560000Y-30828641D02*
X64560000Y-30521359D01*
G04 #@! TO.C,C7*
X53737836Y-38250000D02*
X53522164Y-38250000D01*
X53737836Y-37530000D02*
X53522164Y-37530000D01*
G04 #@! TO.C,R7*
X63983641Y-40760000D02*
X63676359Y-40760000D01*
X63983641Y-40000000D02*
X63676359Y-40000000D01*
D13*
G04 #@! TO.C,X1*
X8874000Y-19539000D02*
X9382000Y-19539000D01*
X9382000Y-19539000D02*
X9382000Y-19031000D01*
X5826000Y-19282000D02*
X5826000Y-15221000D01*
X9156000Y-19282000D02*
X5826000Y-19282000D01*
X5826000Y-15221000D02*
X7477000Y-15221000D01*
X7477000Y-15221000D02*
X9128000Y-15221000D01*
X9128000Y-15221000D02*
X9156000Y-19282000D01*
X9128000Y-15221000D02*
X9128000Y-15221000D01*
D12*
G04 #@! TO.C,R5*
X64560000Y-28536359D02*
X64560000Y-28843641D01*
X63800000Y-28536359D02*
X63800000Y-28843641D01*
G04 #@! TO.C,C3*
X28002164Y-14360000D02*
X28217836Y-14360000D01*
X28002164Y-15080000D02*
X28217836Y-15080000D01*
G04 #@! TO.C,C7*
X33137836Y-53810000D02*
X32922164Y-53810000D01*
X33137836Y-53090000D02*
X32922164Y-53090000D01*
G04 #@! TO.C,C12*
X14672164Y-27885000D02*
X14887836Y-27885000D01*
X14672164Y-28605000D02*
X14887836Y-28605000D01*
G04 #@! TO.C,R9*
X15830000Y-38846359D02*
X15830000Y-39153641D01*
X15070000Y-38846359D02*
X15070000Y-39153641D01*
G04 #@! TO.C,R4*
X43383641Y-38260000D02*
X43076359Y-38260000D01*
X43383641Y-37500000D02*
X43076359Y-37500000D01*
G04 #@! TO.C,C13*
X28380000Y-36777164D02*
X28380000Y-36992836D01*
X27660000Y-36777164D02*
X27660000Y-36992836D01*
D13*
G04 #@! TO.C,U2*
X22181000Y-47758500D02*
X22181000Y-44606500D01*
X20029000Y-44606500D02*
X20029000Y-47758500D01*
D14*
X21967000Y-44150500D02*
G75*
G03*
X21967000Y-44150500I-100000J0D01*
G01*
D12*
G04 #@! TO.C,R6*
X22600000Y-30828641D02*
X22600000Y-30521359D01*
X23360000Y-30828641D02*
X23360000Y-30521359D01*
G04 #@! TO.C,R12*
X32076359Y-27880000D02*
X32383641Y-27880000D01*
X32076359Y-28640000D02*
X32383641Y-28640000D01*
G04 #@! TO.C,R3*
X34905000Y-53806359D02*
X34905000Y-54113641D01*
X34145000Y-53806359D02*
X34145000Y-54113641D01*
G04 #@! TO.C,C3*
X28002164Y-45480000D02*
X28217836Y-45480000D01*
X28002164Y-46200000D02*
X28217836Y-46200000D01*
G04 #@! TO.C,R9*
X57030000Y-54406359D02*
X57030000Y-54713641D01*
X56270000Y-54406359D02*
X56270000Y-54713641D01*
G04 #@! TO.C,R10*
X37710000Y-38846359D02*
X37710000Y-39153641D01*
X36950000Y-38846359D02*
X36950000Y-39153641D01*
G04 #@! TO.C,C10*
X41672164Y-34260000D02*
X41887836Y-34260000D01*
X41672164Y-34980000D02*
X41887836Y-34980000D01*
G04 #@! TO.C,R11*
X59590000Y-54406359D02*
X59590000Y-54713641D01*
X58830000Y-54406359D02*
X58830000Y-54713641D01*
G04 #@! TO.C,C6*
X40312836Y-53307500D02*
X40097164Y-53307500D01*
X40312836Y-52587500D02*
X40097164Y-52587500D01*
G04 #@! TO.C,R10*
X17110000Y-38846359D02*
X17110000Y-39153641D01*
X16350000Y-38846359D02*
X16350000Y-39153641D01*
G04 #@! TO.C,C2*
X41672164Y-17640000D02*
X41887836Y-17640000D01*
X41672164Y-18360000D02*
X41887836Y-18360000D01*
G04 #@! TO.C,C11*
X59372164Y-27880000D02*
X59587836Y-27880000D01*
X59372164Y-28600000D02*
X59587836Y-28600000D01*
G04 #@! TO.C,C2*
X21072164Y-33200000D02*
X21287836Y-33200000D01*
X21072164Y-33920000D02*
X21287836Y-33920000D01*
G04 #@! TO.C,R3*
X14305000Y-38246359D02*
X14305000Y-38553641D01*
X13545000Y-38246359D02*
X13545000Y-38553641D01*
D13*
G04 #@! TO.C,X1*
X8874000Y-35099000D02*
X9382000Y-35099000D01*
X9382000Y-35099000D02*
X9382000Y-34591000D01*
X5826000Y-34842000D02*
X5826000Y-30781000D01*
X9156000Y-34842000D02*
X5826000Y-34842000D01*
X5826000Y-30781000D02*
X7477000Y-30781000D01*
X7477000Y-30781000D02*
X9128000Y-30781000D01*
X9128000Y-30781000D02*
X9156000Y-34842000D01*
X9128000Y-30781000D02*
X9128000Y-30781000D01*
D12*
G04 #@! TO.C,C2*
X41672164Y-33200000D02*
X41887836Y-33200000D01*
X41672164Y-33920000D02*
X41887836Y-33920000D01*
G04 #@! TO.C,C7*
X12537836Y-22690000D02*
X12322164Y-22690000D01*
X12537836Y-21970000D02*
X12322164Y-21970000D01*
G04 #@! TO.C,C12*
X55872164Y-27885000D02*
X56087836Y-27885000D01*
X55872164Y-28605000D02*
X56087836Y-28605000D01*
G04 #@! TO.C,R5*
X64560000Y-12976359D02*
X64560000Y-13283641D01*
X63800000Y-12976359D02*
X63800000Y-13283641D01*
G04 #@! TO.C,C5*
X60697164Y-51520000D02*
X60912836Y-51520000D01*
X60697164Y-52240000D02*
X60912836Y-52240000D01*
G04 #@! TO.C,C7*
X53737836Y-22690000D02*
X53522164Y-22690000D01*
X53737836Y-21970000D02*
X53522164Y-21970000D01*
G04 #@! TO.C,C14*
X43940000Y-16972164D02*
X43940000Y-17187836D01*
X43220000Y-16972164D02*
X43220000Y-17187836D01*
G04 #@! TO.C,C9*
X60697164Y-22535000D02*
X60912836Y-22535000D01*
X60697164Y-23255000D02*
X60912836Y-23255000D01*
G04 #@! TO.C,C2*
X21072164Y-48760000D02*
X21287836Y-48760000D01*
X21072164Y-49480000D02*
X21287836Y-49480000D01*
G04 #@! TO.C,R9*
X36430000Y-54406359D02*
X36430000Y-54713641D01*
X35670000Y-54406359D02*
X35670000Y-54713641D01*
G04 #@! TO.C,C9*
X60697164Y-38095000D02*
X60912836Y-38095000D01*
X60697164Y-38815000D02*
X60912836Y-38815000D01*
G04 #@! TO.C,R5*
X23360000Y-12976359D02*
X23360000Y-13283641D01*
X22600000Y-12976359D02*
X22600000Y-13283641D01*
G04 #@! TO.C,C4*
X29510000Y-36772164D02*
X29510000Y-36987836D01*
X28790000Y-36772164D02*
X28790000Y-36987836D01*
G04 #@! TO.C,R9*
X15830000Y-54406359D02*
X15830000Y-54713641D01*
X15070000Y-54406359D02*
X15070000Y-54713641D01*
G04 #@! TO.C,R12*
X11476359Y-27880000D02*
X11783641Y-27880000D01*
X11476359Y-28640000D02*
X11783641Y-28640000D01*
D15*
G04 #@! TO.C,U5*
X47045000Y-40480000D02*
X47045000Y-42180000D01*
X47045000Y-42180000D02*
X48745000Y-42180000D01*
X48745000Y-40480000D02*
X47045000Y-40480000D01*
X48745000Y-42180000D02*
X48745000Y-40480000D01*
X46945000Y-40630000D02*
G75*
G03*
X46945000Y-40630000I-50000J0D01*
G01*
D12*
X47945000Y-41830000D02*
X47795000Y-41730000D01*
X47945000Y-41630000D01*
X47945000Y-41830000D01*
G36*
X47945000Y-41830000D02*
G01*
X47795000Y-41730000D01*
X47945000Y-41630000D01*
X47945000Y-41830000D01*
G37*
X49170000Y-40905000D02*
X48720000Y-40905000D01*
X48720000Y-40805000D01*
X49170000Y-40805000D01*
X49170000Y-40905000D01*
G36*
X49170000Y-40905000D02*
G01*
X48720000Y-40905000D01*
X48720000Y-40805000D01*
X49170000Y-40805000D01*
X49170000Y-40905000D01*
G37*
X48995000Y-41080000D02*
X48895000Y-41080000D01*
X48895000Y-40630000D01*
X48995000Y-40630000D01*
X48995000Y-41080000D01*
G36*
X48995000Y-41080000D02*
G01*
X48895000Y-41080000D01*
X48895000Y-40630000D01*
X48995000Y-40630000D01*
X48995000Y-41080000D01*
G37*
X47565000Y-41460000D02*
X47555000Y-41460000D01*
X47395000Y-41460000D01*
X47395000Y-41330000D01*
X47565000Y-41330000D01*
X47565000Y-41460000D01*
G36*
X47565000Y-41460000D02*
G01*
X47555000Y-41460000D01*
X47395000Y-41460000D01*
X47395000Y-41330000D01*
X47565000Y-41330000D01*
X47565000Y-41460000D01*
G37*
D13*
G04 #@! TO.C,U2*
X22181000Y-32198500D02*
X22181000Y-29046500D01*
X20029000Y-29046500D02*
X20029000Y-32198500D01*
D14*
X21967000Y-28590500D02*
G75*
G03*
X21967000Y-28590500I-100000J0D01*
G01*
D12*
G04 #@! TO.C,C11*
X59372164Y-43440000D02*
X59587836Y-43440000D01*
X59372164Y-44160000D02*
X59587836Y-44160000D01*
G04 #@! TO.C,C4*
X29510000Y-21212164D02*
X29510000Y-21427836D01*
X28790000Y-21212164D02*
X28790000Y-21427836D01*
G04 #@! TO.C,R4*
X63983641Y-38260000D02*
X63676359Y-38260000D01*
X63983641Y-37500000D02*
X63676359Y-37500000D01*
G04 #@! TO.C,R10*
X58310000Y-38846359D02*
X58310000Y-39153641D01*
X57550000Y-38846359D02*
X57550000Y-39153641D01*
G04 #@! TO.C,C10*
X62272164Y-18700000D02*
X62487836Y-18700000D01*
X62272164Y-19420000D02*
X62487836Y-19420000D01*
G04 #@! TO.C,R2*
X9330000Y-21573641D02*
X9330000Y-21266359D01*
X10090000Y-21573641D02*
X10090000Y-21266359D01*
G04 #@! TO.C,C11*
X38772164Y-43440000D02*
X38987836Y-43440000D01*
X38772164Y-44160000D02*
X38987836Y-44160000D01*
G04 #@! TO.C,R12*
X52676359Y-27880000D02*
X52983641Y-27880000D01*
X52676359Y-28640000D02*
X52983641Y-28640000D01*
G04 #@! TO.C,C5*
X60697164Y-35960000D02*
X60912836Y-35960000D01*
X60697164Y-36680000D02*
X60912836Y-36680000D01*
G04 #@! TO.C,C7*
X33137836Y-38250000D02*
X32922164Y-38250000D01*
X33137836Y-37530000D02*
X32922164Y-37530000D01*
G04 #@! TO.C,C6*
X40312836Y-37747500D02*
X40097164Y-37747500D01*
X40312836Y-37027500D02*
X40097164Y-37027500D01*
G04 #@! TO.C,R3*
X55505000Y-22686359D02*
X55505000Y-22993641D01*
X54745000Y-22686359D02*
X54745000Y-22993641D01*
G04 #@! TO.C,R6*
X43200000Y-15268641D02*
X43200000Y-14961359D01*
X43960000Y-15268641D02*
X43960000Y-14961359D01*
G04 #@! TO.C,JP3*
X20825000Y-22945000D02*
X23175000Y-22945000D01*
X23175000Y-22945000D02*
X23175000Y-24195000D01*
X23175000Y-24195000D02*
X20825000Y-24195000D01*
X20825000Y-24195000D02*
X20825000Y-22945000D01*
G04 #@! TO.C,C2*
X41672164Y-48760000D02*
X41887836Y-48760000D01*
X41672164Y-49480000D02*
X41887836Y-49480000D01*
G04 #@! TO.C,R4*
X22783641Y-53820000D02*
X22476359Y-53820000D01*
X22783641Y-53060000D02*
X22476359Y-53060000D01*
G04 #@! TO.C,R2*
X50530000Y-37133641D02*
X50530000Y-36826359D01*
X51290000Y-37133641D02*
X51290000Y-36826359D01*
G04 #@! TO.C,C9*
X19497164Y-38095000D02*
X19712836Y-38095000D01*
X19497164Y-38815000D02*
X19712836Y-38815000D01*
G04 #@! TO.C,C4*
X29510000Y-52332164D02*
X29510000Y-52547836D01*
X28790000Y-52332164D02*
X28790000Y-52547836D01*
G04 #@! TO.C,C11*
X18172164Y-12320000D02*
X18387836Y-12320000D01*
X18172164Y-13040000D02*
X18387836Y-13040000D01*
D13*
G04 #@! TO.C,X1*
X50074000Y-19539000D02*
X50582000Y-19539000D01*
X50582000Y-19539000D02*
X50582000Y-19031000D01*
X47026000Y-19282000D02*
X47026000Y-15221000D01*
X50356000Y-19282000D02*
X47026000Y-19282000D01*
X47026000Y-15221000D02*
X48677000Y-15221000D01*
X48677000Y-15221000D02*
X50328000Y-15221000D01*
X50328000Y-15221000D02*
X50356000Y-19282000D01*
X50328000Y-15221000D02*
X50328000Y-15221000D01*
D12*
G04 #@! TO.C,R1*
X29900000Y-33873641D02*
X29900000Y-33566359D01*
X30660000Y-33873641D02*
X30660000Y-33566359D01*
G04 #@! TO.C,C5*
X19497164Y-51520000D02*
X19712836Y-51520000D01*
X19497164Y-52240000D02*
X19712836Y-52240000D01*
G04 #@! TO.C,C9*
X40097164Y-22535000D02*
X40312836Y-22535000D01*
X40097164Y-23255000D02*
X40312836Y-23255000D01*
D11*
G04 #@! TO.C,SW1*
X6466000Y-22504000D02*
X9514000Y-22504000D01*
X6466000Y-24536000D02*
X9514000Y-24536000D01*
X8498491Y-23774252D02*
G75*
G03*
X8391999Y-23921999I-508491J254252D01*
G01*
D12*
G04 #@! TO.C,C14*
X23340000Y-48092164D02*
X23340000Y-48307836D01*
X22620000Y-48092164D02*
X22620000Y-48307836D01*
G04 #@! TO.C,C3*
X48602164Y-45480000D02*
X48817836Y-45480000D01*
X48602164Y-46200000D02*
X48817836Y-46200000D01*
G04 #@! TO.C,C4*
X8910000Y-52332164D02*
X8910000Y-52547836D01*
X8190000Y-52332164D02*
X8190000Y-52547836D01*
G04 #@! TO.C,C13*
X48980000Y-52337164D02*
X48980000Y-52552836D01*
X48260000Y-52337164D02*
X48260000Y-52552836D01*
G04 #@! TO.C,JP1*
X49210000Y-28165000D02*
X51560000Y-28165000D01*
X51560000Y-28165000D02*
X51560000Y-29415000D01*
X51560000Y-29415000D02*
X49210000Y-29415000D01*
X49210000Y-29415000D02*
X49210000Y-28165000D01*
D15*
G04 #@! TO.C,U5*
X5845000Y-24920000D02*
X5845000Y-26620000D01*
X5845000Y-26620000D02*
X7545000Y-26620000D01*
X7545000Y-24920000D02*
X5845000Y-24920000D01*
X7545000Y-26620000D02*
X7545000Y-24920000D01*
X5745000Y-25070000D02*
G75*
G03*
X5745000Y-25070000I-50000J0D01*
G01*
D12*
X6745000Y-26270000D02*
X6595000Y-26170000D01*
X6745000Y-26070000D01*
X6745000Y-26270000D01*
G36*
X6745000Y-26270000D02*
G01*
X6595000Y-26170000D01*
X6745000Y-26070000D01*
X6745000Y-26270000D01*
G37*
X7970000Y-25345000D02*
X7520000Y-25345000D01*
X7520000Y-25245000D01*
X7970000Y-25245000D01*
X7970000Y-25345000D01*
G36*
X7970000Y-25345000D02*
G01*
X7520000Y-25345000D01*
X7520000Y-25245000D01*
X7970000Y-25245000D01*
X7970000Y-25345000D01*
G37*
X7795000Y-25520000D02*
X7695000Y-25520000D01*
X7695000Y-25070000D01*
X7795000Y-25070000D01*
X7795000Y-25520000D01*
G36*
X7795000Y-25520000D02*
G01*
X7695000Y-25520000D01*
X7695000Y-25070000D01*
X7795000Y-25070000D01*
X7795000Y-25520000D01*
G37*
X6365000Y-25900000D02*
X6355000Y-25900000D01*
X6195000Y-25900000D01*
X6195000Y-25770000D01*
X6365000Y-25770000D01*
X6365000Y-25900000D01*
G36*
X6365000Y-25900000D02*
G01*
X6355000Y-25900000D01*
X6195000Y-25900000D01*
X6195000Y-25770000D01*
X6365000Y-25770000D01*
X6365000Y-25900000D01*
G37*
G04 #@! TO.C,JP1*
X28610000Y-12605000D02*
X30960000Y-12605000D01*
X30960000Y-12605000D02*
X30960000Y-13855000D01*
X30960000Y-13855000D02*
X28610000Y-13855000D01*
X28610000Y-13855000D02*
X28610000Y-12605000D01*
D11*
G04 #@! TO.C,U1*
X17885000Y-29635000D02*
X17885000Y-30204000D01*
X17316000Y-29635000D02*
X17885000Y-29635000D01*
X17316000Y-29635000D02*
X17885000Y-30204000D01*
X10885000Y-29635000D02*
X11454000Y-29635000D01*
X10885000Y-29735000D02*
X10885000Y-29635000D01*
X17885000Y-29894000D02*
X17788000Y-29894000D01*
X17788000Y-29894000D02*
X17529000Y-29635000D01*
X10885000Y-30204000D02*
X10885000Y-29735000D01*
X17885000Y-36066000D02*
X17885000Y-36635000D01*
X17885000Y-36635000D02*
X17316000Y-36635000D01*
X11454000Y-36635000D02*
X10885000Y-36635000D01*
X10885000Y-36635000D02*
X10885000Y-36066000D01*
X18212000Y-29135000D02*
G75*
G03*
X18212000Y-29135000I-127000J0D01*
G01*
D12*
G04 #@! TO.C,R6*
X43200000Y-46388641D02*
X43200000Y-46081359D01*
X43960000Y-46388641D02*
X43960000Y-46081359D01*
G04 #@! TO.C,JP3*
X62025000Y-38505000D02*
X64375000Y-38505000D01*
X64375000Y-38505000D02*
X64375000Y-39755000D01*
X64375000Y-39755000D02*
X62025000Y-39755000D01*
X62025000Y-39755000D02*
X62025000Y-38505000D01*
G04 #@! TO.C,C10*
X62272164Y-34260000D02*
X62487836Y-34260000D01*
X62272164Y-34980000D02*
X62487836Y-34980000D01*
D15*
G04 #@! TO.C,U5*
X26445000Y-40480000D02*
X26445000Y-42180000D01*
X26445000Y-42180000D02*
X28145000Y-42180000D01*
X28145000Y-40480000D02*
X26445000Y-40480000D01*
X28145000Y-42180000D02*
X28145000Y-40480000D01*
X26345000Y-40630000D02*
G75*
G03*
X26345000Y-40630000I-50000J0D01*
G01*
D12*
X27345000Y-41830000D02*
X27195000Y-41730000D01*
X27345000Y-41630000D01*
X27345000Y-41830000D01*
G36*
X27345000Y-41830000D02*
G01*
X27195000Y-41730000D01*
X27345000Y-41630000D01*
X27345000Y-41830000D01*
G37*
X28570000Y-40905000D02*
X28120000Y-40905000D01*
X28120000Y-40805000D01*
X28570000Y-40805000D01*
X28570000Y-40905000D01*
G36*
X28570000Y-40905000D02*
G01*
X28120000Y-40905000D01*
X28120000Y-40805000D01*
X28570000Y-40805000D01*
X28570000Y-40905000D01*
G37*
X28395000Y-41080000D02*
X28295000Y-41080000D01*
X28295000Y-40630000D01*
X28395000Y-40630000D01*
X28395000Y-41080000D01*
G36*
X28395000Y-41080000D02*
G01*
X28295000Y-41080000D01*
X28295000Y-40630000D01*
X28395000Y-40630000D01*
X28395000Y-41080000D01*
G37*
X26965000Y-41460000D02*
X26955000Y-41460000D01*
X26795000Y-41460000D01*
X26795000Y-41330000D01*
X26965000Y-41330000D01*
X26965000Y-41460000D01*
G36*
X26965000Y-41460000D02*
G01*
X26955000Y-41460000D01*
X26795000Y-41460000D01*
X26795000Y-41330000D01*
X26965000Y-41330000D01*
X26965000Y-41460000D01*
G37*
G04 #@! TO.C,C6*
X40312836Y-22187500D02*
X40097164Y-22187500D01*
X40312836Y-21467500D02*
X40097164Y-21467500D01*
G04 #@! TO.C,C5*
X40097164Y-35960000D02*
X40312836Y-35960000D01*
X40097164Y-36680000D02*
X40312836Y-36680000D01*
G04 #@! TO.C,R5*
X43960000Y-28536359D02*
X43960000Y-28843641D01*
X43200000Y-28536359D02*
X43200000Y-28843641D01*
G04 #@! TO.C,R6*
X63800000Y-15268641D02*
X63800000Y-14961359D01*
X64560000Y-15268641D02*
X64560000Y-14961359D01*
G04 #@! TO.C,R9*
X57030000Y-38846359D02*
X57030000Y-39153641D01*
X56270000Y-38846359D02*
X56270000Y-39153641D01*
G04 #@! TO.C,R4*
X43383641Y-22700000D02*
X43076359Y-22700000D01*
X43383641Y-21940000D02*
X43076359Y-21940000D01*
G04 #@! TO.C,R12*
X11476359Y-43440000D02*
X11783641Y-43440000D01*
X11476359Y-44200000D02*
X11783641Y-44200000D01*
D11*
G04 #@! TO.C,U1*
X17885000Y-45195000D02*
X17885000Y-45764000D01*
X17316000Y-45195000D02*
X17885000Y-45195000D01*
X17316000Y-45195000D02*
X17885000Y-45764000D01*
X10885000Y-45195000D02*
X11454000Y-45195000D01*
X10885000Y-45295000D02*
X10885000Y-45195000D01*
X17885000Y-45454000D02*
X17788000Y-45454000D01*
X17788000Y-45454000D02*
X17529000Y-45195000D01*
X10885000Y-45764000D02*
X10885000Y-45295000D01*
X17885000Y-51626000D02*
X17885000Y-52195000D01*
X17885000Y-52195000D02*
X17316000Y-52195000D01*
X11454000Y-52195000D02*
X10885000Y-52195000D01*
X10885000Y-52195000D02*
X10885000Y-51626000D01*
X18212000Y-44695000D02*
G75*
G03*
X18212000Y-44695000I-127000J0D01*
G01*
D12*
G04 #@! TO.C,R9*
X36430000Y-23286359D02*
X36430000Y-23593641D01*
X35670000Y-23286359D02*
X35670000Y-23593641D01*
G04 #@! TO.C,R10*
X58310000Y-54406359D02*
X58310000Y-54713641D01*
X57550000Y-54406359D02*
X57550000Y-54713641D01*
G04 #@! TO.C,JP1*
X28610000Y-28165000D02*
X30960000Y-28165000D01*
X30960000Y-28165000D02*
X30960000Y-29415000D01*
X30960000Y-29415000D02*
X28610000Y-29415000D01*
X28610000Y-29415000D02*
X28610000Y-28165000D01*
G04 #@! TO.C,R4*
X63983641Y-22700000D02*
X63676359Y-22700000D01*
X63983641Y-21940000D02*
X63676359Y-21940000D01*
G04 #@! TD*
M02*
