%TF.GenerationSoftware,KiCad,Pcbnew,7.0.2-6a45011f42~172~ubuntu22.04.1*%
%TF.CreationDate,2023-05-21T17:06:01+08:00*%
%TF.ProjectId,fly2040,666c7932-3034-4302-9e6b-696361645f70,rev?*%
%TF.SameCoordinates,PX40c8790PY2f87f80*%
%TF.FileFunction,Copper,L4,Bot*%
%TF.FilePolarity,Positive*%
%FSLAX46Y46*%
G04 Gerber Fmt 4.6, Leading zero omitted, Abs format (unit mm)*
G04 Created by KiCad (PCBNEW 7.0.2-6a45011f42~172~ubuntu22.04.1) date 2023-05-21 17:06:01*
%MOMM*%
%LPD*%
G01*
G04 APERTURE LIST*
G04 Aperture macros list*
%AMRoundRect*
0 Rectangle with rounded corners*
0 $1 Rounding radius*
0 $2 $3 $4 $5 $6 $7 $8 $9 X,Y pos of 4 corners*
0 Add a 4 corners polygon primitive as box body*
4,1,4,$2,$3,$4,$5,$6,$7,$8,$9,$2,$3,0*
0 Add four circle primitives for the rounded corners*
1,1,$1+$1,$2,$3*
1,1,$1+$1,$4,$5*
1,1,$1+$1,$6,$7*
1,1,$1+$1,$8,$9*
0 Add four rect primitives between the rounded corners*
20,1,$1+$1,$2,$3,$4,$5,0*
20,1,$1+$1,$4,$5,$6,$7,0*
20,1,$1+$1,$6,$7,$8,$9,0*
20,1,$1+$1,$8,$9,$2,$3,0*%
G04 Aperture macros list end*
%TA.AperFunction,ComponentPad*%
%ADD10R,1.300000X2.000000*%
%TD*%
%TA.AperFunction,ComponentPad*%
%ADD11RoundRect,0.100000X-0.550000X0.900000X-0.550000X-0.900000X0.550000X-0.900000X0.550000X0.900000X0*%
%TD*%
%TA.AperFunction,ComponentPad*%
%ADD12O,1.000000X1.000000*%
%TD*%
%TA.AperFunction,ComponentPad*%
%ADD13RoundRect,0.100000X0.550000X-0.900000X0.550000X0.900000X-0.550000X0.900000X-0.550000X-0.900000X0*%
%TD*%
%TA.AperFunction,ComponentPad*%
%ADD14R,2.000000X1.300000*%
%TD*%
%TA.AperFunction,ComponentPad*%
%ADD15RoundRect,0.100000X-0.900000X-0.550000X0.900000X-0.550000X0.900000X0.550000X-0.900000X0.550000X0*%
%TD*%
%TA.AperFunction,ViaPad*%
%ADD16C,0.450000*%
%TD*%
%TA.AperFunction,Conductor*%
%ADD17C,0.100000*%
%TD*%
%TA.AperFunction,Conductor*%
%ADD18C,0.200000*%
%TD*%
%TA.AperFunction,Conductor*%
%ADD19C,0.357600*%
%TD*%
G04 APERTURE END LIST*
D10*
%TO.P,J10,1,Pin_1*%
%TO.N,NS_8*%
X14310000Y-1165000D03*
D11*
%TO.P,J10,2,Pin_2*%
%TO.N,NS_9*%
X12760000Y-1165000D03*
%TD*%
D10*
%TO.P,J9,1,Pin_1*%
%TO.N,NS_10*%
X11145001Y-1165000D03*
D11*
%TO.P,J9,2,Pin_2*%
%TO.N,NS_11*%
X9595001Y-1165000D03*
%TD*%
D12*
%TO.P,J8,1,Pin_1*%
%TO.N,RST*%
X24659248Y-843121D03*
%TO.P,J8,2,Pin_2*%
%TO.N,BOOT*%
X24659248Y-2113121D03*
%TO.P,J8,3,Pin_3*%
%TO.N,D+*%
X24659248Y-3383121D03*
%TO.P,J8,4,Pin_4*%
%TO.N,D-*%
X24659248Y-4653121D03*
%TO.P,J8,5,Pin_5*%
%TO.N,+3V3*%
X24659248Y-5923121D03*
%TO.P,J8,6,Pin_6*%
%TO.N,GND*%
X24659248Y-7193121D03*
%TD*%
D10*
%TO.P,J7,1,Pin_1*%
%TO.N,DBG_CLK*%
X8215000Y-13355000D03*
D13*
%TO.P,J7,2,Pin_2*%
%TO.N,DBG_DAT*%
X9765000Y-13355000D03*
%TD*%
D11*
%TO.P,J6,2,Pin_2*%
%TO.N,NS_SCL*%
X6450000Y-1165000D03*
D10*
%TO.P,J6,1,Pin_1*%
%TO.N,NS_SDA*%
X8000000Y-1165000D03*
%TD*%
D14*
%TO.P,J5,1,Pin_1*%
%TO.N,D+*%
X24820000Y-9300000D03*
D15*
%TO.P,J5,2,Pin_2*%
%TO.N,D-*%
X24820000Y-10850000D03*
%TD*%
D10*
%TO.P,J4,1,Pin_1*%
%TO.N,NS_CMD*%
X15975000Y-16895000D03*
D13*
%TO.P,J4,2,Pin_2*%
%TO.N,NS_D0*%
X17525000Y-16895000D03*
%TD*%
D10*
%TO.P,J3,1,Pin_1*%
%TO.N,NS_RST*%
X12815000Y-16895000D03*
D13*
%TO.P,J3,2,Pin_2*%
%TO.N,NS_CLK*%
X14365000Y-16895000D03*
%TD*%
D15*
%TO.P,J2,2,Pin_2*%
%TO.N,NS_CPU*%
X4090000Y-3065000D03*
D14*
%TO.P,J2,1,Pin_1*%
%TO.N,NS_14*%
X4090000Y-1515000D03*
%TD*%
D10*
%TO.P,J1,1,Pin_1*%
%TO.N,+3V3*%
X16330000Y-1170000D03*
D13*
%TO.P,J1,2,Pin_2*%
%TO.N,GND*%
X17880000Y-1170000D03*
%TD*%
D16*
%TO.N,GND*%
X16540000Y-9910000D03*
X12155000Y-5555000D03*
X7265000Y-17460000D03*
X21100000Y-4610000D03*
%TO.N,+1V1*%
X20085000Y-11350000D03*
%TO.N,+3V3*%
X11055000Y-14970000D03*
%TO.N,+5V*%
X4075000Y-13260000D03*
X19045000Y-13910000D03*
%TO.N,+3V3*%
X16965000Y-2990000D03*
X13790000Y-2875000D03*
%TO.N,+1V1*%
X19795000Y-8265000D03*
%TO.N,+3V3*%
X20110000Y-9175000D03*
%TO.N,+1V1*%
X8865000Y-9620000D03*
%TO.N,+3V3*%
X8565000Y-8730000D03*
%TO.N,GND*%
X7585000Y-11915000D03*
X6680000Y-5030000D03*
X3730000Y-5010000D03*
X3720000Y-10160000D03*
X6640000Y-10130000D03*
%TO.N,RST*%
X10350000Y-11730000D03*
%TO.N,+3V3*%
X13365000Y-12755000D03*
X18985000Y-16865000D03*
X18915000Y-10980000D03*
%TD*%
D17*
%TO.N,D-*%
X24659248Y-4653121D02*
X23670000Y-5642369D01*
X23670000Y-5642369D02*
X23670000Y-10100000D01*
X23670000Y-10100000D02*
X24420000Y-10850000D01*
D18*
%TO.N,RST*%
X24659248Y-843121D02*
X21236879Y-843121D01*
X21236879Y-843121D02*
X10350000Y-11730000D01*
D17*
%TO.N,D+*%
X25409248Y-8710752D02*
X25409248Y-4133121D01*
X25409248Y-4133121D02*
X24659248Y-3383121D01*
D19*
%TO.N,+5V*%
X4075000Y-13260000D02*
X5365000Y-13260000D01*
X7900000Y-15795000D02*
X11395000Y-15795000D01*
X5365000Y-13260000D02*
X7900000Y-15795000D01*
X11395000Y-15795000D02*
X12855000Y-14335000D01*
X18620000Y-14335000D02*
X19045000Y-13910000D01*
X12855000Y-14335000D02*
X18620000Y-14335000D01*
%TD*%
%TA.AperFunction,Conductor*%
%TO.N,GND*%
G36*
X5649845Y-85502D02*
G01*
X5696338Y-139158D01*
X5706442Y-209432D01*
X5705308Y-216049D01*
X5703396Y-225668D01*
X5699500Y-245254D01*
X5699500Y-2084746D01*
X5711133Y-2143231D01*
X5755447Y-2209552D01*
X5779836Y-2225848D01*
X5821769Y-2253867D01*
X5880252Y-2265500D01*
X5880253Y-2265500D01*
X7019747Y-2265500D01*
X7019748Y-2265500D01*
X7078231Y-2253867D01*
X7120164Y-2225847D01*
X7187916Y-2204632D01*
X7256383Y-2223414D01*
X7260167Y-2225847D01*
X7310785Y-2259669D01*
X7320512Y-2261603D01*
X7340101Y-2265500D01*
X8659898Y-2265499D01*
X8689213Y-2259669D01*
X8722457Y-2237457D01*
X8722458Y-2237454D01*
X8731029Y-2231728D01*
X8774757Y-2195182D01*
X8845199Y-2186332D01*
X8895051Y-2205945D01*
X8900448Y-2209551D01*
X8900449Y-2209552D01*
X8966770Y-2253867D01*
X9025253Y-2265500D01*
X9025254Y-2265500D01*
X10164748Y-2265500D01*
X10164749Y-2265500D01*
X10223232Y-2253867D01*
X10265165Y-2225847D01*
X10332917Y-2204632D01*
X10401384Y-2223414D01*
X10405168Y-2225847D01*
X10455786Y-2259669D01*
X10465513Y-2261603D01*
X10485102Y-2265500D01*
X11804899Y-2265499D01*
X11834214Y-2259669D01*
X11867458Y-2237457D01*
X11871457Y-2231471D01*
X11925929Y-2185944D01*
X11996372Y-2177094D01*
X12046224Y-2196707D01*
X12065448Y-2209552D01*
X12131769Y-2253867D01*
X12190252Y-2265500D01*
X12190253Y-2265500D01*
X13329747Y-2265500D01*
X13329748Y-2265500D01*
X13388231Y-2253867D01*
X13430164Y-2225847D01*
X13497916Y-2204632D01*
X13566383Y-2223414D01*
X13570167Y-2225847D01*
X13641626Y-2273594D01*
X13639226Y-2277185D01*
X13659229Y-2287614D01*
X13694446Y-2349260D01*
X13690743Y-2420160D01*
X13649298Y-2477804D01*
X13629067Y-2490672D01*
X13542730Y-2534663D01*
X13449662Y-2627731D01*
X13389910Y-2744999D01*
X13369320Y-2874999D01*
X13389910Y-3005000D01*
X13449662Y-3122268D01*
X13542731Y-3215337D01*
X13659999Y-3275089D01*
X13660001Y-3275089D01*
X13660003Y-3275090D01*
X13790000Y-3295679D01*
X13919997Y-3275090D01*
X13919998Y-3275089D01*
X13920000Y-3275089D01*
X14037268Y-3215337D01*
X14130337Y-3122268D01*
X14190089Y-3005000D01*
X14190089Y-3004998D01*
X14190090Y-3004997D01*
X14192465Y-2990000D01*
X16544320Y-2990000D01*
X16564910Y-3120000D01*
X16624662Y-3237268D01*
X16717731Y-3330337D01*
X16834999Y-3390089D01*
X16835001Y-3390089D01*
X16835003Y-3390090D01*
X16965000Y-3410679D01*
X17094997Y-3390090D01*
X17094998Y-3390089D01*
X17095000Y-3390089D01*
X17212268Y-3330337D01*
X17305337Y-3237268D01*
X17365089Y-3120000D01*
X17365089Y-3119998D01*
X17365090Y-3119997D01*
X17385679Y-2990000D01*
X17365090Y-2860003D01*
X17365089Y-2860001D01*
X17365089Y-2859999D01*
X17305337Y-2742731D01*
X17212268Y-2649662D01*
X17095000Y-2589910D01*
X16965000Y-2569320D01*
X16834999Y-2589910D01*
X16717731Y-2649662D01*
X16624662Y-2742731D01*
X16564910Y-2859999D01*
X16544320Y-2990000D01*
X14192465Y-2990000D01*
X14210679Y-2875000D01*
X14190090Y-2745003D01*
X14190089Y-2745001D01*
X14190089Y-2744999D01*
X14130337Y-2627731D01*
X14037269Y-2534663D01*
X13976629Y-2503765D01*
X13925014Y-2455017D01*
X13907949Y-2386102D01*
X13930850Y-2318900D01*
X13986448Y-2274748D01*
X14033829Y-2265499D01*
X14969898Y-2265499D01*
X14999213Y-2259669D01*
X15032457Y-2237457D01*
X15054669Y-2204213D01*
X15060500Y-2174899D01*
X15060499Y-191499D01*
X15080501Y-123379D01*
X15134157Y-76886D01*
X15186499Y-65500D01*
X15453500Y-65500D01*
X15521621Y-85502D01*
X15568114Y-139158D01*
X15579500Y-191500D01*
X15579500Y-2179897D01*
X15582844Y-2196707D01*
X15585331Y-2209213D01*
X15607543Y-2242457D01*
X15640787Y-2264669D01*
X15670101Y-2270500D01*
X16989898Y-2270499D01*
X17019213Y-2264669D01*
X17052457Y-2242457D01*
X17074669Y-2209213D01*
X17080500Y-2179899D01*
X17080499Y-191499D01*
X17100501Y-123379D01*
X17154157Y-76886D01*
X17206499Y-65500D01*
X24163481Y-65500D01*
X24231602Y-85502D01*
X24278095Y-139158D01*
X24288199Y-209432D01*
X24258705Y-274012D01*
X24247035Y-285812D01*
X24138607Y-381871D01*
X24043348Y-519875D01*
X24023429Y-572401D01*
X23980571Y-629002D01*
X23913916Y-653447D01*
X23905617Y-653721D01*
X21290465Y-653721D01*
X21264857Y-649370D01*
X21233272Y-652929D01*
X21219166Y-653721D01*
X21215534Y-653721D01*
X21211983Y-654531D01*
X21198077Y-656893D01*
X21166493Y-660453D01*
X21157484Y-664184D01*
X21132631Y-684003D01*
X21121118Y-692172D01*
X21118040Y-694105D01*
X21115469Y-696677D01*
X21104948Y-706079D01*
X21080094Y-725900D01*
X21065060Y-747086D01*
X10527327Y-11284819D01*
X10465015Y-11318845D01*
X10418522Y-11320173D01*
X10350000Y-11309320D01*
X10219999Y-11329910D01*
X10102731Y-11389662D01*
X10009662Y-11482731D01*
X9949910Y-11599999D01*
X9929320Y-11730000D01*
X9949910Y-11860000D01*
X10009662Y-11977268D01*
X10071799Y-12039405D01*
X10105825Y-12101717D01*
X10100760Y-12172532D01*
X10058213Y-12229368D01*
X9991693Y-12254179D01*
X9982704Y-12254500D01*
X9195252Y-12254500D01*
X9166010Y-12260316D01*
X9136768Y-12266133D01*
X9094834Y-12294153D01*
X9027081Y-12315367D01*
X8958614Y-12296584D01*
X8954832Y-12294153D01*
X8937457Y-12282543D01*
X8904213Y-12260331D01*
X8904212Y-12260330D01*
X8874899Y-12254500D01*
X7555102Y-12254500D01*
X7525787Y-12260331D01*
X7492543Y-12282543D01*
X7470330Y-12315787D01*
X7464500Y-12345100D01*
X7464500Y-14364897D01*
X7469171Y-14388381D01*
X7470331Y-14394213D01*
X7492543Y-14427457D01*
X7525787Y-14449669D01*
X7555101Y-14455500D01*
X8874898Y-14455499D01*
X8904213Y-14449669D01*
X8937457Y-14427457D01*
X8937458Y-14427454D01*
X8954831Y-14415847D01*
X9022584Y-14394632D01*
X9091051Y-14413415D01*
X9094829Y-14415843D01*
X9136769Y-14443867D01*
X9195252Y-14455500D01*
X9195253Y-14455500D01*
X10334747Y-14455500D01*
X10334748Y-14455500D01*
X10393231Y-14443867D01*
X10459552Y-14399552D01*
X10503867Y-14333231D01*
X10515500Y-14274748D01*
X10515500Y-12754999D01*
X12944320Y-12754999D01*
X12964910Y-12885000D01*
X13024662Y-13002268D01*
X13117731Y-13095337D01*
X13234999Y-13155089D01*
X13235001Y-13155089D01*
X13235003Y-13155090D01*
X13365000Y-13175679D01*
X13494997Y-13155090D01*
X13494998Y-13155089D01*
X13495000Y-13155089D01*
X13612268Y-13095337D01*
X13705337Y-13002268D01*
X13765089Y-12885000D01*
X13765089Y-12884998D01*
X13765090Y-12884997D01*
X13785679Y-12755000D01*
X13765090Y-12625003D01*
X13765089Y-12625001D01*
X13765089Y-12624999D01*
X13705337Y-12507731D01*
X13612268Y-12414662D01*
X13495000Y-12354910D01*
X13365000Y-12334320D01*
X13234999Y-12354910D01*
X13117731Y-12414662D01*
X13024662Y-12507731D01*
X12964910Y-12624999D01*
X12944320Y-12754999D01*
X10515500Y-12754999D01*
X10515500Y-12435252D01*
X10503867Y-12376769D01*
X10475503Y-12334320D01*
X10453617Y-12301565D01*
X10432402Y-12233812D01*
X10451185Y-12165345D01*
X10501176Y-12119298D01*
X10597269Y-12070336D01*
X10690336Y-11977269D01*
X10690337Y-11977268D01*
X10750089Y-11860000D01*
X10750089Y-11859998D01*
X10750090Y-11859997D01*
X10770679Y-11730000D01*
X10759826Y-11661475D01*
X10768926Y-11591065D01*
X10795177Y-11552673D01*
X11367851Y-10979999D01*
X18494320Y-10979999D01*
X18514910Y-11110000D01*
X18574662Y-11227268D01*
X18667731Y-11320337D01*
X18784999Y-11380089D01*
X18785001Y-11380089D01*
X18785003Y-11380090D01*
X18915000Y-11400679D01*
X19044997Y-11380090D01*
X19044998Y-11380089D01*
X19045000Y-11380089D01*
X19104054Y-11349999D01*
X19664320Y-11349999D01*
X19684910Y-11480000D01*
X19744662Y-11597268D01*
X19837731Y-11690337D01*
X19954999Y-11750089D01*
X19955001Y-11750089D01*
X19955003Y-11750090D01*
X20085000Y-11770679D01*
X20214997Y-11750090D01*
X20214998Y-11750089D01*
X20215000Y-11750089D01*
X20332268Y-11690337D01*
X20425337Y-11597268D01*
X20485089Y-11480000D01*
X20485089Y-11479998D01*
X20485090Y-11479997D01*
X20505679Y-11350000D01*
X20485090Y-11220003D01*
X20485089Y-11220001D01*
X20485089Y-11219999D01*
X20425337Y-11102731D01*
X20332268Y-11009662D01*
X20215000Y-10949910D01*
X20085000Y-10929320D01*
X19954999Y-10949910D01*
X19837731Y-11009662D01*
X19744662Y-11102731D01*
X19684910Y-11219999D01*
X19664320Y-11349999D01*
X19104054Y-11349999D01*
X19162268Y-11320337D01*
X19255337Y-11227268D01*
X19315089Y-11110000D01*
X19315089Y-11109998D01*
X19315090Y-11109997D01*
X19335679Y-10980000D01*
X19315090Y-10850003D01*
X19315089Y-10850001D01*
X19315089Y-10849999D01*
X19255337Y-10732731D01*
X19162268Y-10639662D01*
X19045000Y-10579910D01*
X18915000Y-10559320D01*
X18784999Y-10579910D01*
X18667731Y-10639662D01*
X18574662Y-10732731D01*
X18514910Y-10849999D01*
X18494320Y-10979999D01*
X11367851Y-10979999D01*
X14082850Y-8265000D01*
X19374320Y-8265000D01*
X19394910Y-8395000D01*
X19454662Y-8512268D01*
X19547731Y-8605337D01*
X19665000Y-8665089D01*
X19665001Y-8665089D01*
X19665003Y-8665090D01*
X19737840Y-8676625D01*
X19801992Y-8707036D01*
X19839519Y-8767304D01*
X19838506Y-8838294D01*
X19807225Y-8890169D01*
X19769662Y-8927732D01*
X19709910Y-9044999D01*
X19689320Y-9175000D01*
X19709910Y-9305000D01*
X19769662Y-9422268D01*
X19862731Y-9515337D01*
X19979999Y-9575089D01*
X19980001Y-9575089D01*
X19980003Y-9575090D01*
X20110000Y-9595679D01*
X20239997Y-9575090D01*
X20239998Y-9575089D01*
X20240000Y-9575089D01*
X20357268Y-9515337D01*
X20450337Y-9422268D01*
X20510089Y-9305000D01*
X20510089Y-9304998D01*
X20510090Y-9304997D01*
X20530679Y-9175000D01*
X20510090Y-9045003D01*
X20510089Y-9045001D01*
X20510089Y-9044999D01*
X20450337Y-8927731D01*
X20357268Y-8834662D01*
X20239999Y-8774910D01*
X20167160Y-8763374D01*
X20103007Y-8732962D01*
X20065479Y-8672694D01*
X20066493Y-8601704D01*
X20097773Y-8549831D01*
X20135336Y-8512269D01*
X20180567Y-8423500D01*
X20195089Y-8395000D01*
X20195089Y-8394998D01*
X20195090Y-8394997D01*
X20215679Y-8265000D01*
X20195090Y-8135003D01*
X20195089Y-8135001D01*
X20195089Y-8134999D01*
X20135337Y-8017731D01*
X20042268Y-7924662D01*
X19925000Y-7864910D01*
X19795000Y-7844320D01*
X19664999Y-7864910D01*
X19547731Y-7924662D01*
X19454662Y-8017731D01*
X19394910Y-8134999D01*
X19374320Y-8265000D01*
X14082850Y-8265000D01*
X21278425Y-1069426D01*
X21340738Y-1035400D01*
X21367521Y-1032521D01*
X23905617Y-1032521D01*
X23973738Y-1052523D01*
X24020231Y-1106179D01*
X24023429Y-1113841D01*
X24043348Y-1166366D01*
X24043349Y-1166368D01*
X24043350Y-1166369D01*
X24138606Y-1304370D01*
X24228274Y-1383809D01*
X24265999Y-1443953D01*
X24265219Y-1514945D01*
X24228274Y-1572433D01*
X24138607Y-1651871D01*
X24043348Y-1789875D01*
X23983888Y-1946660D01*
X23963677Y-2113121D01*
X23983888Y-2279581D01*
X24043348Y-2436366D01*
X24043349Y-2436368D01*
X24043350Y-2436369D01*
X24138606Y-2574370D01*
X24198838Y-2627731D01*
X24228274Y-2653809D01*
X24265999Y-2713953D01*
X24265219Y-2784945D01*
X24228274Y-2842433D01*
X24138607Y-2921871D01*
X24043348Y-3059875D01*
X23983888Y-3216660D01*
X23963677Y-3383121D01*
X23983888Y-3549581D01*
X24043348Y-3706366D01*
X24043349Y-3706368D01*
X24043350Y-3706369D01*
X24138606Y-3844370D01*
X24228274Y-3923809D01*
X24265999Y-3983953D01*
X24265219Y-4054945D01*
X24228274Y-4112433D01*
X24138607Y-4191871D01*
X24043348Y-4329875D01*
X23983888Y-4486660D01*
X23963677Y-4653121D01*
X23983888Y-4819582D01*
X24040723Y-4969445D01*
X24046177Y-5040231D01*
X24012494Y-5102729D01*
X24012007Y-5103219D01*
X23558456Y-5556771D01*
X23558455Y-5556772D01*
X23558454Y-5556774D01*
X23558452Y-5556776D01*
X23551735Y-5563493D01*
X23545017Y-5570211D01*
X23544392Y-5572547D01*
X23531807Y-5602928D01*
X23530601Y-5605016D01*
X23530600Y-5624016D01*
X23530600Y-10137352D01*
X23531807Y-10139442D01*
X23544392Y-10169824D01*
X23545017Y-10172157D01*
X23558452Y-10185593D01*
X23682595Y-10309736D01*
X23716621Y-10372048D01*
X23719500Y-10398831D01*
X23719500Y-11419746D01*
X23731133Y-11478231D01*
X23775447Y-11544552D01*
X23787597Y-11552670D01*
X23841769Y-11588867D01*
X23900252Y-11600500D01*
X23900253Y-11600500D01*
X25739749Y-11600500D01*
X25755996Y-11597268D01*
X25773917Y-11593703D01*
X25844630Y-11600029D01*
X25900698Y-11643582D01*
X25924319Y-11710534D01*
X25924500Y-11717281D01*
X25924500Y-17888500D01*
X25904498Y-17956621D01*
X25850842Y-18003114D01*
X25798500Y-18014500D01*
X18389298Y-18014500D01*
X18321177Y-17994498D01*
X18274684Y-17940842D01*
X18264580Y-17870568D01*
X18265719Y-17863918D01*
X18275500Y-17814746D01*
X18275500Y-16865000D01*
X18564320Y-16865000D01*
X18584910Y-16995000D01*
X18644662Y-17112268D01*
X18737731Y-17205337D01*
X18854999Y-17265089D01*
X18855001Y-17265089D01*
X18855003Y-17265090D01*
X18945770Y-17279465D01*
X18984999Y-17285679D01*
X18984999Y-17285678D01*
X18985000Y-17285679D01*
X19114997Y-17265090D01*
X19114998Y-17265089D01*
X19115000Y-17265089D01*
X19232268Y-17205337D01*
X19325337Y-17112268D01*
X19385089Y-16995000D01*
X19385089Y-16994998D01*
X19385090Y-16994997D01*
X19405679Y-16865000D01*
X19385090Y-16735003D01*
X19385089Y-16735001D01*
X19385089Y-16734999D01*
X19325337Y-16617731D01*
X19232268Y-16524662D01*
X19115000Y-16464910D01*
X18985000Y-16444320D01*
X18854999Y-16464910D01*
X18737731Y-16524662D01*
X18644662Y-16617731D01*
X18584910Y-16734999D01*
X18564320Y-16865000D01*
X18275500Y-16865000D01*
X18275500Y-15975253D01*
X18273653Y-15965969D01*
X18263867Y-15916769D01*
X18249162Y-15894761D01*
X18219552Y-15850447D01*
X18153231Y-15806133D01*
X18124057Y-15800330D01*
X18094748Y-15794500D01*
X16955252Y-15794500D01*
X16926010Y-15800316D01*
X16896768Y-15806133D01*
X16854834Y-15834153D01*
X16787081Y-15855367D01*
X16718614Y-15836584D01*
X16714832Y-15834153D01*
X16697457Y-15822543D01*
X16664213Y-15800331D01*
X16664212Y-15800330D01*
X16634899Y-15794500D01*
X15315102Y-15794500D01*
X15285786Y-15800330D01*
X15285787Y-15800331D01*
X15261838Y-15816333D01*
X15252542Y-15822544D01*
X15250086Y-15826220D01*
X15195609Y-15871748D01*
X15125166Y-15880596D01*
X15075319Y-15860983D01*
X14993231Y-15806133D01*
X14964057Y-15800330D01*
X14934748Y-15794500D01*
X13795252Y-15794500D01*
X13766010Y-15800316D01*
X13736768Y-15806133D01*
X13694834Y-15834153D01*
X13627081Y-15855367D01*
X13558614Y-15836584D01*
X13554832Y-15834153D01*
X13537457Y-15822543D01*
X13504213Y-15800331D01*
X13504212Y-15800330D01*
X13474899Y-15794500D01*
X12155102Y-15794500D01*
X12125785Y-15800331D01*
X12114125Y-15808122D01*
X12087897Y-15816333D01*
X12083943Y-15834511D01*
X12078122Y-15844125D01*
X12070330Y-15855785D01*
X12064500Y-15885100D01*
X12064501Y-17888500D01*
X12044499Y-17956621D01*
X11990843Y-18003114D01*
X11938501Y-18014500D01*
X3101500Y-18014500D01*
X3033379Y-17994498D01*
X2986886Y-17940842D01*
X2975500Y-17888500D01*
X2975500Y-13259999D01*
X3654320Y-13259999D01*
X3674910Y-13390000D01*
X3734662Y-13507268D01*
X3827731Y-13600337D01*
X3944999Y-13660089D01*
X3945001Y-13660089D01*
X3945003Y-13660090D01*
X4075000Y-13680679D01*
X4204997Y-13660090D01*
X4204998Y-13660089D01*
X4205000Y-13660089D01*
X4322266Y-13600338D01*
X4322266Y-13600337D01*
X4322269Y-13600336D01*
X4357501Y-13565103D01*
X4419811Y-13531080D01*
X4446595Y-13528200D01*
X5201717Y-13528200D01*
X5269838Y-13548202D01*
X5290812Y-13565105D01*
X7682900Y-15957192D01*
X7698569Y-15976283D01*
X7706639Y-15988361D01*
X7723723Y-15999776D01*
X7730905Y-16004576D01*
X7795353Y-16047639D01*
X7820312Y-16052603D01*
X7873586Y-16063200D01*
X7873588Y-16063200D01*
X7885750Y-16065619D01*
X7885764Y-16065621D01*
X7900000Y-16068453D01*
X7914237Y-16065621D01*
X7938818Y-16063200D01*
X11356177Y-16063200D01*
X11380757Y-16065621D01*
X11395000Y-16068454D01*
X11499647Y-16047639D01*
X11565969Y-16003324D01*
X11565970Y-16003322D01*
X11583825Y-15991392D01*
X11583833Y-15991386D01*
X11588361Y-15988361D01*
X11596428Y-15976286D01*
X11612093Y-15957198D01*
X11884262Y-15685029D01*
X11931470Y-15659251D01*
X11947446Y-15622552D01*
X11955009Y-15614282D01*
X12929189Y-14640102D01*
X12991499Y-14606079D01*
X13018282Y-14603200D01*
X18581177Y-14603200D01*
X18605757Y-14605621D01*
X18620000Y-14608454D01*
X18724647Y-14587639D01*
X18790969Y-14543324D01*
X18790970Y-14543322D01*
X18808825Y-14531392D01*
X18808833Y-14531386D01*
X18813361Y-14528361D01*
X18821428Y-14516286D01*
X18837093Y-14497198D01*
X18966876Y-14367415D01*
X19029186Y-14333391D01*
X19036259Y-14332063D01*
X19044998Y-14330678D01*
X19045000Y-14330679D01*
X19174997Y-14310090D01*
X19174999Y-14310089D01*
X19292268Y-14250337D01*
X19385337Y-14157268D01*
X19445089Y-14040000D01*
X19445089Y-14039998D01*
X19445090Y-14039997D01*
X19465679Y-13910000D01*
X19445090Y-13780003D01*
X19445089Y-13780001D01*
X19445089Y-13779999D01*
X19385337Y-13662731D01*
X19292268Y-13569662D01*
X19175000Y-13509910D01*
X19045000Y-13489320D01*
X18914999Y-13509910D01*
X18797731Y-13569662D01*
X18704662Y-13662731D01*
X18644910Y-13779999D01*
X18622937Y-13918737D01*
X18592525Y-13982890D01*
X18587586Y-13988119D01*
X18545814Y-14029893D01*
X18483502Y-14063920D01*
X18456716Y-14066800D01*
X12893823Y-14066800D01*
X12869243Y-14064379D01*
X12865518Y-14063638D01*
X12855000Y-14061546D01*
X12854999Y-14061546D01*
X12750354Y-14082360D01*
X12695592Y-14118951D01*
X12695586Y-14118955D01*
X12684032Y-14126676D01*
X12684030Y-14126677D01*
X12680748Y-14128869D01*
X12680748Y-14128870D01*
X12661638Y-14141639D01*
X12653569Y-14153716D01*
X12637902Y-14172804D01*
X11681191Y-15129515D01*
X11618879Y-15163541D01*
X11548064Y-15158476D01*
X11491228Y-15115929D01*
X11466417Y-15049409D01*
X11467646Y-15020715D01*
X11475679Y-14970000D01*
X11455090Y-14840003D01*
X11455089Y-14840001D01*
X11455089Y-14839999D01*
X11395337Y-14722731D01*
X11302268Y-14629662D01*
X11185000Y-14569910D01*
X11054999Y-14549320D01*
X10924999Y-14569910D01*
X10807731Y-14629662D01*
X10714662Y-14722731D01*
X10654910Y-14839999D01*
X10634320Y-14970000D01*
X10654910Y-15100000D01*
X10714662Y-15217268D01*
X10809099Y-15311705D01*
X10843125Y-15374017D01*
X10838060Y-15444832D01*
X10795513Y-15501668D01*
X10728993Y-15526479D01*
X10720004Y-15526800D01*
X8063282Y-15526800D01*
X7995161Y-15506798D01*
X7974187Y-15489895D01*
X5582098Y-13097806D01*
X5566425Y-13078708D01*
X5558361Y-13066638D01*
X5546290Y-13058573D01*
X5546283Y-13058567D01*
X5469647Y-13007360D01*
X5365000Y-12986546D01*
X5350757Y-12989379D01*
X5326177Y-12991800D01*
X4446595Y-12991800D01*
X4378474Y-12971798D01*
X4357504Y-12954899D01*
X4322269Y-12919664D01*
X4322268Y-12919663D01*
X4322266Y-12919661D01*
X4205000Y-12859910D01*
X4074999Y-12839320D01*
X3944999Y-12859910D01*
X3827731Y-12919662D01*
X3734662Y-13012731D01*
X3674910Y-13129999D01*
X3654320Y-13259999D01*
X2975500Y-13259999D01*
X2975500Y-8729999D01*
X8144320Y-8729999D01*
X8164910Y-8860000D01*
X8224662Y-8977268D01*
X8317731Y-9070337D01*
X8434999Y-9130089D01*
X8435001Y-9130089D01*
X8435003Y-9130090D01*
X8477625Y-9136840D01*
X8541777Y-9167252D01*
X8579304Y-9227520D01*
X8578291Y-9298509D01*
X8547011Y-9350383D01*
X8524662Y-9372732D01*
X8464910Y-9489999D01*
X8444320Y-9620000D01*
X8464910Y-9750000D01*
X8524662Y-9867268D01*
X8617731Y-9960337D01*
X8734999Y-10020089D01*
X8735001Y-10020089D01*
X8735003Y-10020090D01*
X8865000Y-10040679D01*
X8994997Y-10020090D01*
X8994998Y-10020089D01*
X8995000Y-10020089D01*
X9112268Y-9960337D01*
X9205337Y-9867268D01*
X9265089Y-9750000D01*
X9265089Y-9749998D01*
X9265090Y-9749997D01*
X9285679Y-9620000D01*
X9265090Y-9490003D01*
X9265089Y-9490001D01*
X9265089Y-9489999D01*
X9205337Y-9372731D01*
X9112268Y-9279662D01*
X8994999Y-9219910D01*
X8952374Y-9213159D01*
X8888221Y-9182746D01*
X8850694Y-9122478D01*
X8851708Y-9051488D01*
X8882989Y-8999615D01*
X8905336Y-8977269D01*
X8930577Y-8927732D01*
X8965089Y-8860000D01*
X8965089Y-8859998D01*
X8965090Y-8859997D01*
X8985679Y-8730000D01*
X8965090Y-8600003D01*
X8965089Y-8600001D01*
X8965089Y-8599999D01*
X8905337Y-8482731D01*
X8812268Y-8389662D01*
X8695000Y-8329910D01*
X8565000Y-8309320D01*
X8434999Y-8329910D01*
X8317731Y-8389662D01*
X8224662Y-8482731D01*
X8164910Y-8599999D01*
X8144320Y-8729999D01*
X2975500Y-8729999D01*
X2975500Y-3930292D01*
X2995502Y-3862171D01*
X3049158Y-3815678D01*
X3119432Y-3805574D01*
X3126038Y-3806705D01*
X3170252Y-3815500D01*
X3170255Y-3815500D01*
X5009747Y-3815500D01*
X5009748Y-3815500D01*
X5068231Y-3803867D01*
X5134552Y-3759552D01*
X5178867Y-3693231D01*
X5190500Y-3634748D01*
X5190500Y-2495252D01*
X5178867Y-2436769D01*
X5150846Y-2394834D01*
X5129632Y-2327083D01*
X5148415Y-2258616D01*
X5150847Y-2254831D01*
X5162454Y-2237458D01*
X5162457Y-2237457D01*
X5184669Y-2204213D01*
X5190500Y-2174899D01*
X5190499Y-855102D01*
X5184669Y-825787D01*
X5162457Y-792543D01*
X5129213Y-770331D01*
X5129212Y-770330D01*
X5099900Y-764500D01*
X3101500Y-764500D01*
X3033379Y-744498D01*
X2986886Y-690842D01*
X2975500Y-638500D01*
X2975500Y-191500D01*
X2995502Y-123379D01*
X3049158Y-76886D01*
X3101500Y-65500D01*
X5581724Y-65500D01*
X5649845Y-85502D01*
G37*
%TD.AperFunction*%
%TA.AperFunction,Conductor*%
G36*
X24017912Y-6216558D02*
G01*
X24039096Y-6240205D01*
X24043349Y-6246366D01*
X24043350Y-6246369D01*
X24138606Y-6384370D01*
X24205680Y-6443792D01*
X24264117Y-6495564D01*
X24264119Y-6495565D01*
X24412595Y-6573491D01*
X24575406Y-6613621D01*
X24575408Y-6613621D01*
X24743088Y-6613621D01*
X24743090Y-6613621D01*
X24905901Y-6573491D01*
X25054377Y-6495565D01*
X25060292Y-6490324D01*
X25124546Y-6460122D01*
X25194927Y-6469453D01*
X25249090Y-6515353D01*
X25269840Y-6583249D01*
X25269848Y-6584635D01*
X25269848Y-8423500D01*
X25249846Y-8491621D01*
X25196190Y-8538114D01*
X25143848Y-8549500D01*
X23935400Y-8549500D01*
X23867279Y-8529498D01*
X23820786Y-8475842D01*
X23809400Y-8423500D01*
X23809400Y-6311782D01*
X23829402Y-6243661D01*
X23883058Y-6197168D01*
X23953332Y-6187064D01*
X24017912Y-6216558D01*
G37*
%TD.AperFunction*%
%TD*%
M02*
