%TF.GenerationSoftware,KiCad,Pcbnew,7.0.2-6a45011f42~172~ubuntu22.04.1*%
%TF.CreationDate,2023-05-22T20:19:48+08:00*%
%TF.ProjectId,fly2040,666c7932-3034-4302-9e6b-696361645f70,rev?*%
%TF.SameCoordinates,PX4323800PY2f1c8c0*%
%TF.FileFunction,Legend,Top*%
%TF.FilePolarity,Positive*%
%FSLAX46Y46*%
G04 Gerber Fmt 4.6, Leading zero omitted, Abs format (unit mm)*
G04 Created by KiCad (PCBNEW 7.0.2-6a45011f42~172~ubuntu22.04.1) date 2023-05-22 20:19:48*
%MOMM*%
%LPD*%
G01*
G04 APERTURE LIST*
G04 Aperture macros list*
%AMRoundRect*
0 Rectangle with rounded corners*
0 $1 Rounding radius*
0 $2 $3 $4 $5 $6 $7 $8 $9 X,Y pos of 4 corners*
0 Add a 4 corners polygon primitive as box body*
4,1,4,$2,$3,$4,$5,$6,$7,$8,$9,$2,$3,0*
0 Add four circle primitives for the rounded corners*
1,1,$1+$1,$2,$3*
1,1,$1+$1,$4,$5*
1,1,$1+$1,$6,$7*
1,1,$1+$1,$8,$9*
0 Add four rect primitives between the rounded corners*
20,1,$1+$1,$2,$3,$4,$5,0*
20,1,$1+$1,$4,$5,$6,$7,0*
20,1,$1+$1,$6,$7,$8,$9,0*
20,1,$1+$1,$8,$9,$2,$3,0*%
G04 Aperture macros list end*
%ADD10C,0.120000*%
%ADD11C,0.254000*%
%ADD12C,0.152000*%
%ADD13C,0.200000*%
%ADD14C,0.140000*%
%ADD15C,0.300000*%
%ADD16R,1.300000X2.000000*%
%ADD17RoundRect,0.100000X-0.550000X0.900000X-0.550000X-0.900000X0.550000X-0.900000X0.550000X0.900000X0*%
%ADD18RoundRect,0.135000X-0.185000X0.135000X-0.185000X-0.135000X0.185000X-0.135000X0.185000X0.135000X0*%
%ADD19RoundRect,0.140000X-0.140000X-0.170000X0.140000X-0.170000X0.140000X0.170000X-0.140000X0.170000X0*%
%ADD20R,0.200000X1.100000*%
%ADD21R,1.100000X0.200000*%
%ADD22R,3.100000X3.100000*%
%ADD23R,0.280000X0.600000*%
%ADD24R,1.700000X0.300000*%
%ADD25O,1.000000X1.000000*%
%ADD26RoundRect,0.100000X0.550000X-0.900000X0.550000X0.900000X-0.550000X0.900000X-0.550000X-0.900000X0*%
%ADD27RoundRect,0.135000X0.185000X-0.135000X0.185000X0.135000X-0.185000X0.135000X-0.185000X-0.135000X0*%
%ADD28RoundRect,0.135000X-0.135000X-0.185000X0.135000X-0.185000X0.135000X0.185000X-0.135000X0.185000X0*%
%ADD29RoundRect,0.140000X-0.170000X0.140000X-0.170000X-0.140000X0.170000X-0.140000X0.170000X0.140000X0*%
%ADD30R,2.000000X1.300000*%
%ADD31RoundRect,0.100000X-0.900000X-0.550000X0.900000X-0.550000X0.900000X0.550000X-0.900000X0.550000X0*%
%ADD32R,1.145000X0.400000*%
%ADD33RoundRect,0.140000X0.170000X-0.140000X0.170000X0.140000X-0.170000X0.140000X-0.170000X-0.140000X0*%
%ADD34R,0.200000X0.550000*%
%ADD35R,1.000000X1.720000*%
%ADD36O,0.364000X1.222000*%
%ADD37R,1.000000X1.524000*%
%ADD38R,1.200000X1.400000*%
%ADD39R,1.100000X0.700000*%
G04 APERTURE END LIST*
D10*
%TO.C,R4*%
X21035000Y-11396359D02*
X21035000Y-11703641D01*
X20275000Y-11396359D02*
X20275000Y-11703641D01*
%TO.C,C3*%
X2642164Y-5115000D02*
X2857836Y-5115000D01*
X2642164Y-5835000D02*
X2857836Y-5835000D01*
%TO.C,R9*%
X13088000Y-14641359D02*
X13088000Y-14948641D01*
X12328000Y-14641359D02*
X12328000Y-14948641D01*
%TO.C,C17*%
X17907164Y-15335000D02*
X18122836Y-15335000D01*
X17907164Y-16055000D02*
X18122836Y-16055000D01*
D11*
%TO.C,U1*%
X15395000Y-4705000D02*
X15395000Y-5274000D01*
X14826000Y-4705000D02*
X15395000Y-4705000D01*
X14826000Y-4705000D02*
X15395000Y-5274000D01*
X8395000Y-4705000D02*
X8964000Y-4705000D01*
X8395000Y-4805000D02*
X8395000Y-4705000D01*
X15395000Y-4964000D02*
X15298000Y-4964000D01*
X15298000Y-4964000D02*
X15039000Y-4705000D01*
X8395000Y-5274000D02*
X8395000Y-4805000D01*
X15395000Y-11136000D02*
X15395000Y-11705000D01*
X15395000Y-11705000D02*
X14826000Y-11705000D01*
X8964000Y-11705000D02*
X8395000Y-11705000D01*
X8395000Y-11705000D02*
X8395000Y-11136000D01*
X15722000Y-4205000D02*
G75*
G03*
X15722000Y-4205000I-127000J0D01*
G01*
D12*
%TO.C,U2*%
X19691000Y-7268500D02*
X19691000Y-4116500D01*
X17539000Y-4116500D02*
X17539000Y-7268500D01*
D13*
X19477000Y-3660500D02*
G75*
G03*
X19477000Y-3660500I-100000J0D01*
G01*
D10*
%TO.C,C16*%
X17907164Y-14285000D02*
X18122836Y-14285000D01*
X17907164Y-15005000D02*
X18122836Y-15005000D01*
%TO.C,C12*%
X12502164Y-2955000D02*
X12717836Y-2955000D01*
X12502164Y-3675000D02*
X12717836Y-3675000D01*
%TO.C,C5*%
X19027164Y-11720000D02*
X19242836Y-11720000D01*
X19027164Y-12440000D02*
X19242836Y-12440000D01*
%TO.C,R2*%
X7525000Y-13323641D02*
X7525000Y-13016359D01*
X8285000Y-13323641D02*
X8285000Y-13016359D01*
%TO.C,R12*%
X1396359Y-815000D02*
X1703641Y-815000D01*
X1396359Y-1575000D02*
X1703641Y-1575000D01*
%TO.C,C7*%
X10930000Y-14682164D02*
X10930000Y-14897836D01*
X10210000Y-14682164D02*
X10210000Y-14897836D01*
%TO.C,C14*%
X21025000Y-7447164D02*
X21025000Y-7662836D01*
X20305000Y-7447164D02*
X20305000Y-7662836D01*
%TO.C,C2*%
X19022164Y-8345000D02*
X19237836Y-8345000D01*
X19022164Y-9065000D02*
X19237836Y-9065000D01*
%TO.C,C18*%
X17907164Y-16385000D02*
X18122836Y-16385000D01*
X17907164Y-17105000D02*
X18122836Y-17105000D01*
D12*
%TO.C,LED1*%
X3810000Y-18350000D02*
X3556000Y-18350000D01*
X3810000Y-18230000D02*
X3810000Y-18350000D01*
X3810000Y-17430000D02*
X3810000Y-17470000D01*
X3810000Y-16630000D02*
X3810000Y-16670000D01*
X3810000Y-15810000D02*
X3810000Y-15870000D01*
X3556000Y-18350000D02*
X1270000Y-18350000D01*
X1270000Y-18350000D02*
X1270000Y-18230000D01*
X1270000Y-17470000D02*
X1270000Y-17430000D01*
X1270000Y-16670000D02*
X1270000Y-16630000D01*
X1270000Y-15870000D02*
X1270000Y-15810000D01*
X1270000Y-15810000D02*
X3810000Y-15810000D01*
D14*
X4290000Y-17890000D02*
G75*
G03*
X4290000Y-17890000I-70000J0D01*
G01*
D10*
X2625000Y-16385000D02*
X2355000Y-16255000D01*
X2625000Y-16135000D01*
X2625000Y-16385000D01*
G36*
X2625000Y-16385000D02*
G01*
X2355000Y-16255000D01*
X2625000Y-16135000D01*
X2625000Y-16385000D01*
G37*
%TO.C,R8*%
X12027000Y-14641359D02*
X12027000Y-14948641D01*
X11267000Y-14641359D02*
X11267000Y-14948641D01*
%TO.C,C4*%
X6530000Y-10952164D02*
X6530000Y-11167836D01*
X5810000Y-10952164D02*
X5810000Y-11167836D01*
%TO.C,R11*%
X15210000Y-14641359D02*
X15210000Y-14948641D01*
X14450000Y-14641359D02*
X14450000Y-14948641D01*
%TO.C,C11*%
X15682164Y-2950000D02*
X15897836Y-2950000D01*
X15682164Y-3670000D02*
X15897836Y-3670000D01*
%TO.C,C8*%
X16685000Y-14687164D02*
X16685000Y-14902836D01*
X15965000Y-14687164D02*
X15965000Y-14902836D01*
%TO.C,R3*%
X20275000Y-9683642D02*
X20275000Y-9376360D01*
X21035000Y-9683642D02*
X21035000Y-9376360D01*
%TO.C,R7*%
X4455000Y-16143641D02*
X4455000Y-15836359D01*
X5215000Y-16143641D02*
X5215000Y-15836359D01*
%TO.C,C15*%
X19250000Y-17332836D02*
X19250000Y-17117164D01*
X19970000Y-17332836D02*
X19970000Y-17117164D01*
D12*
%TO.C,L1*%
X22863000Y-18241000D02*
X20577000Y-18241000D01*
X20577000Y-16209000D02*
X22863000Y-16209000D01*
%TO.C,U3*%
X1044000Y-13324000D02*
X4096000Y-13324000D01*
X1044000Y-14066000D02*
X1044000Y-13324000D01*
X4096000Y-13324000D02*
X4096000Y-14066000D01*
X4096000Y-14066000D02*
X1044000Y-14066000D01*
D15*
X1111000Y-14906000D02*
G75*
G03*
X1111000Y-14906000I-150000J0D01*
G01*
D11*
%TO.C,SW1*%
X20019000Y-2686000D02*
X16971000Y-2686000D01*
X20019000Y-654000D02*
X16971000Y-654000D01*
X17986509Y-1415748D02*
G75*
G03*
X18093001Y-1268001I508491J-254252D01*
G01*
D10*
%TO.C,C9*%
X16060000Y-12707164D02*
X16060000Y-12922836D01*
X15340000Y-12707164D02*
X15340000Y-12922836D01*
%TO.C,R1*%
X4730000Y-9228641D02*
X4730000Y-8921359D01*
X5490000Y-9228641D02*
X5490000Y-8921359D01*
D12*
%TO.C,X1*%
X4152000Y-10306000D02*
X4660000Y-10306000D01*
X4660000Y-10306000D02*
X4660000Y-9798000D01*
X1104000Y-10049000D02*
X1104000Y-5988000D01*
X4434000Y-10049000D02*
X1104000Y-10049000D01*
X1104000Y-5988000D02*
X2755000Y-5988000D01*
X2755000Y-5988000D02*
X4406000Y-5988000D01*
X4406000Y-5988000D02*
X4434000Y-10049000D01*
X4406000Y-5988000D02*
X4406000Y-5988000D01*
D11*
%TO.C,U4*%
X20249000Y-14736000D02*
X20249000Y-13852000D01*
X20409000Y-12694000D02*
X22009000Y-12694000D01*
X20449000Y-15912000D02*
X21989000Y-15912000D01*
X22735000Y-15892000D02*
G75*
G03*
X22735000Y-15892000I-64000J0D01*
G01*
D10*
%TO.C,C13*%
X5475000Y-10947164D02*
X5475000Y-11162836D01*
X4755000Y-10947164D02*
X4755000Y-11162836D01*
%TO.C,R5*%
X21045000Y-3451359D02*
X21045000Y-3758641D01*
X20285000Y-3451359D02*
X20285000Y-3758641D01*
%TO.C,C10*%
X19022164Y-9440000D02*
X19237836Y-9440000D01*
X19022164Y-10160000D02*
X19237836Y-10160000D01*
%TO.C,C6*%
X16385000Y-12922836D02*
X16385000Y-12707164D01*
X17105000Y-12922836D02*
X17105000Y-12707164D01*
%TO.C,R10*%
X14149000Y-14641359D02*
X14149000Y-14948641D01*
X13389000Y-14641359D02*
X13389000Y-14948641D01*
%TO.C,R6*%
X20285000Y-5743641D02*
X20285000Y-5436359D01*
X21045000Y-5743641D02*
X21045000Y-5436359D01*
%TO.C,C1*%
X2657164Y-10195000D02*
X2872836Y-10195000D01*
X2657164Y-10915000D02*
X2872836Y-10915000D01*
%TD*%
%LPC*%
D16*
%TO.C,J9*%
X8675001Y-1605000D03*
D17*
X7125001Y-1605000D03*
%TD*%
D18*
%TO.C,R4*%
X20655000Y-11040000D03*
X20655000Y-12060000D03*
%TD*%
D19*
%TO.C,C3*%
X2270000Y-5475000D03*
X3230000Y-5475000D03*
%TD*%
D18*
%TO.C,R9*%
X12708000Y-14285000D03*
X12708000Y-15305000D03*
%TD*%
D19*
%TO.C,C17*%
X17535000Y-15695000D03*
X18495000Y-15695000D03*
%TD*%
D20*
%TO.C,U1*%
X14495000Y-4655000D03*
X14095000Y-4655000D03*
X13695000Y-4655000D03*
X13295000Y-4655000D03*
X12895000Y-4655000D03*
X12495000Y-4655000D03*
X12095000Y-4655000D03*
X11695000Y-4655000D03*
X11295000Y-4655000D03*
X10895000Y-4655000D03*
X10495000Y-4655000D03*
X10095000Y-4655000D03*
X9695000Y-4655000D03*
X9295000Y-4655000D03*
D21*
X8345000Y-5605000D03*
X8345000Y-6005000D03*
X8345000Y-6405000D03*
X8345000Y-6805000D03*
X8345000Y-7205000D03*
X8345000Y-7605000D03*
X8345000Y-8005000D03*
X8345000Y-8405000D03*
X8345000Y-8805000D03*
X8345000Y-9205000D03*
X8345000Y-9605000D03*
X8345000Y-10005000D03*
X8345000Y-10405000D03*
X8345000Y-10805000D03*
D20*
X9295000Y-11755000D03*
X9695000Y-11755000D03*
X10095000Y-11755000D03*
X10495000Y-11755000D03*
X10895000Y-11755000D03*
X11295000Y-11755000D03*
X11695000Y-11755000D03*
X12095000Y-11755000D03*
X12495000Y-11755000D03*
X12895000Y-11755000D03*
X13295000Y-11755000D03*
X13695000Y-11755000D03*
X14095000Y-11755000D03*
X14495000Y-11755000D03*
D21*
X15445000Y-10805000D03*
X15445000Y-10405000D03*
X15445000Y-10005000D03*
X15445000Y-9605000D03*
X15445000Y-9205000D03*
X15445000Y-8805000D03*
X15445000Y-8405000D03*
X15445000Y-8005000D03*
X15445000Y-7605000D03*
X15445000Y-7205000D03*
X15445000Y-6805000D03*
X15445000Y-6405000D03*
X15445000Y-6005000D03*
X15445000Y-5605000D03*
D22*
X11895000Y-8205000D03*
%TD*%
D23*
%TO.C,U2*%
X19365000Y-4185500D03*
X18865000Y-4185500D03*
X18365000Y-4185500D03*
X17865000Y-4185500D03*
X17865000Y-7199500D03*
X18365000Y-7199500D03*
X18865000Y-7199500D03*
X19365000Y-7199500D03*
D24*
X18615000Y-5692500D03*
%TD*%
D19*
%TO.C,C16*%
X17535000Y-14645000D03*
X18495000Y-14645000D03*
%TD*%
D16*
%TO.C,J10*%
X11840000Y-1605000D03*
D17*
X10290000Y-1605000D03*
%TD*%
D25*
%TO.C,J8*%
X22189248Y-1283121D03*
X22189248Y-2553121D03*
X22189248Y-3823121D03*
X22189248Y-5093121D03*
X22189248Y-6363121D03*
X22189248Y-7633121D03*
%TD*%
D16*
%TO.C,J1*%
X13860000Y-1610000D03*
D26*
X15410000Y-1610000D03*
%TD*%
D19*
%TO.C,C12*%
X12130000Y-3315000D03*
X13090000Y-3315000D03*
%TD*%
%TO.C,C5*%
X18655000Y-12080000D03*
X19615000Y-12080000D03*
%TD*%
D27*
%TO.C,R2*%
X7905000Y-13680000D03*
X7905000Y-12660000D03*
%TD*%
D16*
%TO.C,J4*%
X14415000Y-17340000D03*
D26*
X15965000Y-17340000D03*
%TD*%
D28*
%TO.C,R12*%
X1040000Y-1195000D03*
X2060000Y-1195000D03*
%TD*%
D29*
%TO.C,C7*%
X10570000Y-14310000D03*
X10570000Y-15270000D03*
%TD*%
%TO.C,C14*%
X20665000Y-7075000D03*
X20665000Y-8035000D03*
%TD*%
D19*
%TO.C,C2*%
X18650000Y-8705000D03*
X19610000Y-8705000D03*
%TD*%
D30*
%TO.C,J2*%
X1615000Y-2600000D03*
D31*
X1615000Y-4150000D03*
%TD*%
D19*
%TO.C,C18*%
X17535000Y-16745000D03*
X18495000Y-16745000D03*
%TD*%
D16*
%TO.C,J7*%
X5035000Y-13795000D03*
D26*
X6585000Y-13795000D03*
%TD*%
D16*
%TO.C,J6*%
X5530000Y-1605000D03*
D17*
X3980000Y-1605000D03*
%TD*%
D32*
%TO.C,LED1*%
X3388000Y-17850000D03*
X3388000Y-17050000D03*
X3388000Y-16250000D03*
X1692000Y-16250000D03*
X1692000Y-17050000D03*
X1692000Y-17850000D03*
%TD*%
D16*
%TO.C,J11*%
X8065000Y-17340000D03*
D26*
X9615000Y-17340000D03*
%TD*%
D18*
%TO.C,R8*%
X11647000Y-14285000D03*
X11647000Y-15305000D03*
%TD*%
D29*
%TO.C,C4*%
X6170000Y-10580000D03*
X6170000Y-11540000D03*
%TD*%
D18*
%TO.C,R11*%
X14830000Y-14285000D03*
X14830000Y-15305000D03*
%TD*%
D19*
%TO.C,C11*%
X15310000Y-3310000D03*
X16270000Y-3310000D03*
%TD*%
D29*
%TO.C,C8*%
X16325000Y-14315000D03*
X16325000Y-15275000D03*
%TD*%
D27*
%TO.C,R3*%
X20655000Y-10040001D03*
X20655000Y-9020001D03*
%TD*%
%TO.C,R7*%
X4835000Y-16500000D03*
X4835000Y-15480000D03*
%TD*%
D33*
%TO.C,C15*%
X19610000Y-17705000D03*
X19610000Y-16745000D03*
%TD*%
D30*
%TO.C,J5*%
X22350000Y-9740000D03*
D31*
X22350000Y-11290000D03*
%TD*%
D16*
%TO.C,J3*%
X11255000Y-17340000D03*
D26*
X12805000Y-17340000D03*
%TD*%
D34*
%TO.C,J12*%
X10500000Y-12870000D03*
X10900000Y-12870000D03*
X11300000Y-12870000D03*
X11700000Y-12870000D03*
X12100000Y-12870000D03*
X12500000Y-12870000D03*
%TD*%
D35*
%TO.C,L1*%
X20892000Y-17225000D03*
X22548000Y-17225000D03*
%TD*%
D36*
%TO.C,U3*%
X1595000Y-14906000D03*
X2245000Y-14906000D03*
X2895000Y-14906000D03*
X3545000Y-14906000D03*
X3545000Y-12484000D03*
X2895000Y-12484000D03*
X2245000Y-12484000D03*
X1595000Y-12484000D03*
%TD*%
D37*
%TO.C,SW1*%
X20095000Y-1670000D03*
X16895000Y-1670000D03*
%TD*%
D29*
%TO.C,C9*%
X15700000Y-12335000D03*
X15700000Y-13295000D03*
%TD*%
D27*
%TO.C,R1*%
X5110000Y-9585000D03*
X5110000Y-8565000D03*
%TD*%
D38*
%TO.C,X1*%
X3630000Y-9120000D03*
X3630000Y-6920000D03*
X1880000Y-6920000D03*
X1880000Y-9120000D03*
%TD*%
D39*
%TO.C,U4*%
X22509000Y-15254000D03*
X22509000Y-14304000D03*
X22509000Y-13352000D03*
X19921000Y-13352000D03*
X19921000Y-15252000D03*
%TD*%
D29*
%TO.C,C13*%
X5115000Y-10575000D03*
X5115000Y-11535000D03*
%TD*%
D18*
%TO.C,R5*%
X20665000Y-3095000D03*
X20665000Y-4115000D03*
%TD*%
D19*
%TO.C,C10*%
X18650000Y-9800000D03*
X19610000Y-9800000D03*
%TD*%
D33*
%TO.C,C6*%
X16745000Y-13295000D03*
X16745000Y-12335000D03*
%TD*%
D18*
%TO.C,R10*%
X13769000Y-14285000D03*
X13769000Y-15305000D03*
%TD*%
D27*
%TO.C,R6*%
X20665000Y-6100000D03*
X20665000Y-5080000D03*
%TD*%
D19*
%TO.C,C1*%
X2285000Y-10555000D03*
X3245000Y-10555000D03*
%TD*%
%LPD*%
M02*
