M48
; DRILL file {KiCad 7.0.2-6a45011f42~172~ubuntu22.04.1} date Sun 21 May 2023 17:06:01
; FORMAT={-:-/ absolute / inch / decimal}
; #@! TF.CreationDate,2023-05-21T17:06:01+08:00
; #@! TF.GenerationSoftware,Kicad,Pcbnew,7.0.2-6a45011f42~172~ubuntu22.04.1
; #@! TF.FileFunction,Plated,1,4,PTH
FMAT,2
INCH
; #@! TA.AperFunction,Plated,PTH,ViaDrill
T1C0.0079
; #@! TA.AperFunction,Plated,PTH,ComponentDrill
T2C0.0197
; #@! TA.AperFunction,Plated,PTH,ComponentDrill
T3C0.0256
%
G90
G05
T1
X0.1465Y-0.4
X0.1469Y-0.1972
X0.1604Y-0.522
X0.2614Y-0.3988
X0.263Y-0.198
X0.286Y-0.6874
X0.2986Y-0.4691
X0.3372Y-0.3437
X0.349Y-0.3787
X0.4075Y-0.4618
X0.4352Y-0.5894
X0.4785Y-0.2187
X0.5262Y-0.5022
X0.5429Y-0.1132
X0.6512Y-0.3902
X0.6679Y-0.1177
X0.7447Y-0.4323
X0.7474Y-0.664
X0.7498Y-0.5476
X0.7793Y-0.3254
X0.7907Y-0.4469
X0.7917Y-0.3612
X0.8307Y-0.1815
T2
X0.161Y-0.0596
X0.161Y-0.1207
X0.2539Y-0.0459
X0.315Y-0.0459
X0.3234Y-0.5258
X0.3778Y-0.0459
X0.3844Y-0.5258
X0.4388Y-0.0459
X0.5024Y-0.0459
X0.5045Y-0.6652
X0.5634Y-0.0459
X0.5656Y-0.6652
X0.6289Y-0.6652
X0.6429Y-0.0461
X0.69Y-0.6652
X0.7039Y-0.0461
X0.9772Y-0.3661
X0.9772Y-0.4272
T3
X0.9708Y-0.0332
X0.9708Y-0.0832
X0.9708Y-0.1332
X0.9708Y-0.1832
X0.9708Y-0.2332
X0.9708Y-0.2832
T0
M30
