%TF.GenerationSoftware,KiCad,Pcbnew,7.0.2-6a45011f42~172~ubuntu22.04.1*%
%TF.CreationDate,2023-06-02T20:05:51+08:00*%
%TF.ProjectId,fly2040,666c7932-3034-4302-9e6b-696361645f70,rev?*%
%TF.SameCoordinates,PX4323800PY2f1c8c0*%
%TF.FileFunction,Paste,Top*%
%TF.FilePolarity,Positive*%
%FSLAX46Y46*%
G04 Gerber Fmt 4.6, Leading zero omitted, Abs format (unit mm)*
G04 Created by KiCad (PCBNEW 7.0.2-6a45011f42~172~ubuntu22.04.1) date 2023-06-02 20:05:51*
%MOMM*%
%LPD*%
G01*
G04 APERTURE LIST*
G04 Aperture macros list*
%AMRoundRect*
0 Rectangle with rounded corners*
0 $1 Rounding radius*
0 $2 $3 $4 $5 $6 $7 $8 $9 X,Y pos of 4 corners*
0 Add a 4 corners polygon primitive as box body*
4,1,4,$2,$3,$4,$5,$6,$7,$8,$9,$2,$3,0*
0 Add four circle primitives for the rounded corners*
1,1,$1+$1,$2,$3*
1,1,$1+$1,$4,$5*
1,1,$1+$1,$6,$7*
1,1,$1+$1,$8,$9*
0 Add four rect primitives between the rounded corners*
20,1,$1+$1,$2,$3,$4,$5,0*
20,1,$1+$1,$4,$5,$6,$7,0*
20,1,$1+$1,$6,$7,$8,$9,0*
20,1,$1+$1,$8,$9,$2,$3,0*%
G04 Aperture macros list end*
%ADD10C,0.120000*%
%ADD11RoundRect,0.135000X0.135000X0.185000X-0.135000X0.185000X-0.135000X-0.185000X0.135000X-0.185000X0*%
%ADD12RoundRect,0.135000X-0.135000X-0.185000X0.135000X-0.185000X0.135000X0.185000X-0.135000X0.185000X0*%
%ADD13RoundRect,0.135000X-0.185000X0.135000X-0.185000X-0.135000X0.185000X-0.135000X0.185000X0.135000X0*%
%ADD14RoundRect,0.135000X0.185000X-0.135000X0.185000X0.135000X-0.185000X0.135000X-0.185000X-0.135000X0*%
%ADD15RoundRect,0.140000X-0.170000X0.140000X-0.170000X-0.140000X0.170000X-0.140000X0.170000X0.140000X0*%
%ADD16RoundRect,0.140000X-0.140000X-0.170000X0.140000X-0.170000X0.140000X0.170000X-0.140000X0.170000X0*%
%ADD17RoundRect,0.140000X0.170000X-0.140000X0.170000X0.140000X-0.170000X0.140000X-0.170000X-0.140000X0*%
%ADD18RoundRect,0.140000X0.140000X0.170000X-0.140000X0.170000X-0.140000X-0.170000X0.140000X-0.170000X0*%
%ADD19R,0.200000X1.100000*%
%ADD20R,1.100000X0.200000*%
%ADD21R,3.100000X3.100000*%
%ADD22R,0.280000X0.600000*%
%ADD23R,1.700000X0.300000*%
%ADD24R,0.532000X1.045000*%
%ADD25R,0.280000X0.800000*%
%ADD26R,0.800000X0.280000*%
%ADD27R,2.050000X2.050000*%
%ADD28R,1.000000X1.524000*%
%ADD29R,1.200000X1.400000*%
%ADD30R,0.450000X0.450000*%
%ADD31R,0.750000X0.200000*%
%ADD32R,0.665000X0.200000*%
%ADD33R,0.200000X0.665000*%
%ADD34R,1.040000X0.455000*%
G04 APERTURE END LIST*
%TO.C,U1*%
D10*
X14595000Y-5205000D02*
X14395000Y-5205000D01*
X14395000Y-4105000D01*
X14595000Y-4105000D01*
X14595000Y-5205000D01*
G36*
X14595000Y-5205000D02*
G01*
X14395000Y-5205000D01*
X14395000Y-4105000D01*
X14595000Y-4105000D01*
X14595000Y-5205000D01*
G37*
X14195000Y-5205000D02*
X13995000Y-5205000D01*
X13995000Y-4105000D01*
X14195000Y-4105000D01*
X14195000Y-5205000D01*
G36*
X14195000Y-5205000D02*
G01*
X13995000Y-5205000D01*
X13995000Y-4105000D01*
X14195000Y-4105000D01*
X14195000Y-5205000D01*
G37*
X13795000Y-5205000D02*
X13595000Y-5205000D01*
X13595000Y-4105000D01*
X13795000Y-4105000D01*
X13795000Y-5205000D01*
G36*
X13795000Y-5205000D02*
G01*
X13595000Y-5205000D01*
X13595000Y-4105000D01*
X13795000Y-4105000D01*
X13795000Y-5205000D01*
G37*
X13395000Y-5205000D02*
X13195000Y-5205000D01*
X13195000Y-4105000D01*
X13395000Y-4105000D01*
X13395000Y-5205000D01*
G36*
X13395000Y-5205000D02*
G01*
X13195000Y-5205000D01*
X13195000Y-4105000D01*
X13395000Y-4105000D01*
X13395000Y-5205000D01*
G37*
X12995000Y-5205000D02*
X12795000Y-5205000D01*
X12795000Y-4105000D01*
X12995000Y-4105000D01*
X12995000Y-5205000D01*
G36*
X12995000Y-5205000D02*
G01*
X12795000Y-5205000D01*
X12795000Y-4105000D01*
X12995000Y-4105000D01*
X12995000Y-5205000D01*
G37*
X12595000Y-5205000D02*
X12395000Y-5205000D01*
X12395000Y-4105000D01*
X12595000Y-4105000D01*
X12595000Y-5205000D01*
G36*
X12595000Y-5205000D02*
G01*
X12395000Y-5205000D01*
X12395000Y-4105000D01*
X12595000Y-4105000D01*
X12595000Y-5205000D01*
G37*
X12195000Y-5205000D02*
X11995000Y-5205000D01*
X11995000Y-4105000D01*
X12195000Y-4105000D01*
X12195000Y-5205000D01*
G36*
X12195000Y-5205000D02*
G01*
X11995000Y-5205000D01*
X11995000Y-4105000D01*
X12195000Y-4105000D01*
X12195000Y-5205000D01*
G37*
X11395000Y-5205000D02*
X11195000Y-5205000D01*
X11195000Y-4105000D01*
X11395000Y-4105000D01*
X11395000Y-5205000D01*
G36*
X11395000Y-5205000D02*
G01*
X11195000Y-5205000D01*
X11195000Y-4105000D01*
X11395000Y-4105000D01*
X11395000Y-5205000D01*
G37*
X10995000Y-5205000D02*
X10795000Y-5205000D01*
X10795000Y-4105000D01*
X10995000Y-4105000D01*
X10995000Y-5205000D01*
G36*
X10995000Y-5205000D02*
G01*
X10795000Y-5205000D01*
X10795000Y-4105000D01*
X10995000Y-4105000D01*
X10995000Y-5205000D01*
G37*
X10595000Y-5205000D02*
X10395000Y-5205000D01*
X10395000Y-4105000D01*
X10595000Y-4105000D01*
X10595000Y-5205000D01*
G36*
X10595000Y-5205000D02*
G01*
X10395000Y-5205000D01*
X10395000Y-4105000D01*
X10595000Y-4105000D01*
X10595000Y-5205000D01*
G37*
X10195000Y-5205000D02*
X9995000Y-5205000D01*
X9995000Y-4105000D01*
X10195000Y-4105000D01*
X10195000Y-5205000D01*
G36*
X10195000Y-5205000D02*
G01*
X9995000Y-5205000D01*
X9995000Y-4105000D01*
X10195000Y-4105000D01*
X10195000Y-5205000D01*
G37*
X9795000Y-5205000D02*
X9595000Y-5205000D01*
X9595000Y-4105000D01*
X9795000Y-4105000D01*
X9795000Y-5205000D01*
G36*
X9795000Y-5205000D02*
G01*
X9595000Y-5205000D01*
X9595000Y-4105000D01*
X9795000Y-4105000D01*
X9795000Y-5205000D01*
G37*
X9395000Y-5205000D02*
X9195000Y-5205000D01*
X9195000Y-4105000D01*
X9395000Y-4105000D01*
X9395000Y-5205000D01*
G36*
X9395000Y-5205000D02*
G01*
X9195000Y-5205000D01*
X9195000Y-4105000D01*
X9395000Y-4105000D01*
X9395000Y-5205000D01*
G37*
X11795000Y-5205000D02*
X11595000Y-5205000D01*
X11595000Y-4105000D01*
X11795000Y-4105000D01*
X11795000Y-5205000D01*
G36*
X11795000Y-5205000D02*
G01*
X11595000Y-5205000D01*
X11595000Y-4105000D01*
X11795000Y-4105000D01*
X11795000Y-5205000D01*
G37*
X15995000Y-5705000D02*
X14895000Y-5705000D01*
X14895000Y-5505000D01*
X15995000Y-5505000D01*
X15995000Y-5705000D01*
G36*
X15995000Y-5705000D02*
G01*
X14895000Y-5705000D01*
X14895000Y-5505000D01*
X15995000Y-5505000D01*
X15995000Y-5705000D01*
G37*
X8895000Y-5705000D02*
X7795000Y-5705000D01*
X7795000Y-5505000D01*
X8895000Y-5505000D01*
X8895000Y-5705000D01*
G36*
X8895000Y-5705000D02*
G01*
X7795000Y-5705000D01*
X7795000Y-5505000D01*
X8895000Y-5505000D01*
X8895000Y-5705000D01*
G37*
X15995000Y-6105000D02*
X14895000Y-6105000D01*
X14895000Y-5905000D01*
X15995000Y-5905000D01*
X15995000Y-6105000D01*
G36*
X15995000Y-6105000D02*
G01*
X14895000Y-6105000D01*
X14895000Y-5905000D01*
X15995000Y-5905000D01*
X15995000Y-6105000D01*
G37*
X8895000Y-6105000D02*
X7795000Y-6105000D01*
X7795000Y-5905000D01*
X8895000Y-5905000D01*
X8895000Y-6105000D01*
G36*
X8895000Y-6105000D02*
G01*
X7795000Y-6105000D01*
X7795000Y-5905000D01*
X8895000Y-5905000D01*
X8895000Y-6105000D01*
G37*
X8895000Y-6505000D02*
X7795000Y-6505000D01*
X7795000Y-6305000D01*
X8895000Y-6305000D01*
X8895000Y-6505000D01*
G36*
X8895000Y-6505000D02*
G01*
X7795000Y-6505000D01*
X7795000Y-6305000D01*
X8895000Y-6305000D01*
X8895000Y-6505000D01*
G37*
X15995000Y-6505000D02*
X14895000Y-6505000D01*
X14895000Y-6305000D01*
X15995000Y-6305000D01*
X15995000Y-6505000D01*
G36*
X15995000Y-6505000D02*
G01*
X14895000Y-6505000D01*
X14895000Y-6305000D01*
X15995000Y-6305000D01*
X15995000Y-6505000D01*
G37*
X8895000Y-6905000D02*
X7795000Y-6905000D01*
X7795000Y-6705000D01*
X8895000Y-6705000D01*
X8895000Y-6905000D01*
G36*
X8895000Y-6905000D02*
G01*
X7795000Y-6905000D01*
X7795000Y-6705000D01*
X8895000Y-6705000D01*
X8895000Y-6905000D01*
G37*
X15995000Y-6905000D02*
X14895000Y-6905000D01*
X14895000Y-6705000D01*
X15995000Y-6705000D01*
X15995000Y-6905000D01*
G36*
X15995000Y-6905000D02*
G01*
X14895000Y-6905000D01*
X14895000Y-6705000D01*
X15995000Y-6705000D01*
X15995000Y-6905000D01*
G37*
X13135000Y-9445000D02*
X10655000Y-9445000D01*
X10655000Y-6965000D01*
X13135000Y-6965000D01*
X13135000Y-9445000D01*
G36*
X13135000Y-9445000D02*
G01*
X10655000Y-9445000D01*
X10655000Y-6965000D01*
X13135000Y-6965000D01*
X13135000Y-9445000D01*
G37*
X15995000Y-7305000D02*
X14895000Y-7305000D01*
X14895000Y-7105000D01*
X15995000Y-7105000D01*
X15995000Y-7305000D01*
G36*
X15995000Y-7305000D02*
G01*
X14895000Y-7305000D01*
X14895000Y-7105000D01*
X15995000Y-7105000D01*
X15995000Y-7305000D01*
G37*
X8895000Y-7305000D02*
X7795000Y-7305000D01*
X7795000Y-7105000D01*
X8895000Y-7105000D01*
X8895000Y-7305000D01*
G36*
X8895000Y-7305000D02*
G01*
X7795000Y-7305000D01*
X7795000Y-7105000D01*
X8895000Y-7105000D01*
X8895000Y-7305000D01*
G37*
X8895000Y-7705000D02*
X7795000Y-7705000D01*
X7795000Y-7505000D01*
X8895000Y-7505000D01*
X8895000Y-7705000D01*
G36*
X8895000Y-7705000D02*
G01*
X7795000Y-7705000D01*
X7795000Y-7505000D01*
X8895000Y-7505000D01*
X8895000Y-7705000D01*
G37*
X15995000Y-7705000D02*
X14895000Y-7705000D01*
X14895000Y-7505000D01*
X15995000Y-7505000D01*
X15995000Y-7705000D01*
G36*
X15995000Y-7705000D02*
G01*
X14895000Y-7705000D01*
X14895000Y-7505000D01*
X15995000Y-7505000D01*
X15995000Y-7705000D01*
G37*
X8895000Y-8105000D02*
X7795000Y-8105000D01*
X7795000Y-7905000D01*
X8895000Y-7905000D01*
X8895000Y-8105000D01*
G36*
X8895000Y-8105000D02*
G01*
X7795000Y-8105000D01*
X7795000Y-7905000D01*
X8895000Y-7905000D01*
X8895000Y-8105000D01*
G37*
X15995000Y-8105000D02*
X14895000Y-8105000D01*
X14895000Y-7905000D01*
X15995000Y-7905000D01*
X15995000Y-8105000D01*
G36*
X15995000Y-8105000D02*
G01*
X14895000Y-8105000D01*
X14895000Y-7905000D01*
X15995000Y-7905000D01*
X15995000Y-8105000D01*
G37*
X15995000Y-8505000D02*
X14895000Y-8505000D01*
X14895000Y-8305000D01*
X15995000Y-8305000D01*
X15995000Y-8505000D01*
G36*
X15995000Y-8505000D02*
G01*
X14895000Y-8505000D01*
X14895000Y-8305000D01*
X15995000Y-8305000D01*
X15995000Y-8505000D01*
G37*
X8895000Y-8505000D02*
X7795000Y-8505000D01*
X7795000Y-8305000D01*
X8895000Y-8305000D01*
X8895000Y-8505000D01*
G36*
X8895000Y-8505000D02*
G01*
X7795000Y-8505000D01*
X7795000Y-8305000D01*
X8895000Y-8305000D01*
X8895000Y-8505000D01*
G37*
X15995000Y-8905000D02*
X14895000Y-8905000D01*
X14895000Y-8705000D01*
X15995000Y-8705000D01*
X15995000Y-8905000D01*
G36*
X15995000Y-8905000D02*
G01*
X14895000Y-8905000D01*
X14895000Y-8705000D01*
X15995000Y-8705000D01*
X15995000Y-8905000D01*
G37*
X8895000Y-8905000D02*
X7795000Y-8905000D01*
X7795000Y-8705000D01*
X8895000Y-8705000D01*
X8895000Y-8905000D01*
G36*
X8895000Y-8905000D02*
G01*
X7795000Y-8905000D01*
X7795000Y-8705000D01*
X8895000Y-8705000D01*
X8895000Y-8905000D01*
G37*
X8895000Y-9305000D02*
X7795000Y-9305000D01*
X7795000Y-9105000D01*
X8895000Y-9105000D01*
X8895000Y-9305000D01*
G36*
X8895000Y-9305000D02*
G01*
X7795000Y-9305000D01*
X7795000Y-9105000D01*
X8895000Y-9105000D01*
X8895000Y-9305000D01*
G37*
X15995000Y-9305000D02*
X14895000Y-9305000D01*
X14895000Y-9105000D01*
X15995000Y-9105000D01*
X15995000Y-9305000D01*
G36*
X15995000Y-9305000D02*
G01*
X14895000Y-9305000D01*
X14895000Y-9105000D01*
X15995000Y-9105000D01*
X15995000Y-9305000D01*
G37*
X8895000Y-9705000D02*
X7795000Y-9705000D01*
X7795000Y-9505000D01*
X8895000Y-9505000D01*
X8895000Y-9705000D01*
G36*
X8895000Y-9705000D02*
G01*
X7795000Y-9705000D01*
X7795000Y-9505000D01*
X8895000Y-9505000D01*
X8895000Y-9705000D01*
G37*
X15995000Y-9705000D02*
X14895000Y-9705000D01*
X14895000Y-9505000D01*
X15995000Y-9505000D01*
X15995000Y-9705000D01*
G36*
X15995000Y-9705000D02*
G01*
X14895000Y-9705000D01*
X14895000Y-9505000D01*
X15995000Y-9505000D01*
X15995000Y-9705000D01*
G37*
X8895000Y-10105000D02*
X7795000Y-10105000D01*
X7795000Y-9905000D01*
X8895000Y-9905000D01*
X8895000Y-10105000D01*
G36*
X8895000Y-10105000D02*
G01*
X7795000Y-10105000D01*
X7795000Y-9905000D01*
X8895000Y-9905000D01*
X8895000Y-10105000D01*
G37*
X15995000Y-10105000D02*
X14895000Y-10105000D01*
X14895000Y-9905000D01*
X15995000Y-9905000D01*
X15995000Y-10105000D01*
G36*
X15995000Y-10105000D02*
G01*
X14895000Y-10105000D01*
X14895000Y-9905000D01*
X15995000Y-9905000D01*
X15995000Y-10105000D01*
G37*
X15995000Y-10505000D02*
X14895000Y-10505000D01*
X14895000Y-10305000D01*
X15995000Y-10305000D01*
X15995000Y-10505000D01*
G36*
X15995000Y-10505000D02*
G01*
X14895000Y-10505000D01*
X14895000Y-10305000D01*
X15995000Y-10305000D01*
X15995000Y-10505000D01*
G37*
X8895000Y-10505000D02*
X7795000Y-10505000D01*
X7795000Y-10305000D01*
X8895000Y-10305000D01*
X8895000Y-10505000D01*
G36*
X8895000Y-10505000D02*
G01*
X7795000Y-10505000D01*
X7795000Y-10305000D01*
X8895000Y-10305000D01*
X8895000Y-10505000D01*
G37*
X15995000Y-10905000D02*
X14895000Y-10905000D01*
X14895000Y-10705000D01*
X15995000Y-10705000D01*
X15995000Y-10905000D01*
G36*
X15995000Y-10905000D02*
G01*
X14895000Y-10905000D01*
X14895000Y-10705000D01*
X15995000Y-10705000D01*
X15995000Y-10905000D01*
G37*
X8895000Y-10905000D02*
X7795000Y-10905000D01*
X7795000Y-10705000D01*
X8895000Y-10705000D01*
X8895000Y-10905000D01*
G36*
X8895000Y-10905000D02*
G01*
X7795000Y-10905000D01*
X7795000Y-10705000D01*
X8895000Y-10705000D01*
X8895000Y-10905000D01*
G37*
X12195000Y-12305000D02*
X11995000Y-12305000D01*
X11995000Y-11205000D01*
X12195000Y-11205000D01*
X12195000Y-12305000D01*
G36*
X12195000Y-12305000D02*
G01*
X11995000Y-12305000D01*
X11995000Y-11205000D01*
X12195000Y-11205000D01*
X12195000Y-12305000D01*
G37*
X9395000Y-12305000D02*
X9195000Y-12305000D01*
X9195000Y-11205000D01*
X9395000Y-11205000D01*
X9395000Y-12305000D01*
G36*
X9395000Y-12305000D02*
G01*
X9195000Y-12305000D01*
X9195000Y-11205000D01*
X9395000Y-11205000D01*
X9395000Y-12305000D01*
G37*
X14595000Y-12305000D02*
X14395000Y-12305000D01*
X14395000Y-11205000D01*
X14595000Y-11205000D01*
X14595000Y-12305000D01*
G36*
X14595000Y-12305000D02*
G01*
X14395000Y-12305000D01*
X14395000Y-11205000D01*
X14595000Y-11205000D01*
X14595000Y-12305000D01*
G37*
X14195000Y-12305000D02*
X13995000Y-12305000D01*
X13995000Y-11205000D01*
X14195000Y-11205000D01*
X14195000Y-12305000D01*
G36*
X14195000Y-12305000D02*
G01*
X13995000Y-12305000D01*
X13995000Y-11205000D01*
X14195000Y-11205000D01*
X14195000Y-12305000D01*
G37*
X13795000Y-12305000D02*
X13595000Y-12305000D01*
X13595000Y-11205000D01*
X13795000Y-11205000D01*
X13795000Y-12305000D01*
G36*
X13795000Y-12305000D02*
G01*
X13595000Y-12305000D01*
X13595000Y-11205000D01*
X13795000Y-11205000D01*
X13795000Y-12305000D01*
G37*
X13395000Y-12305000D02*
X13195000Y-12305000D01*
X13195000Y-11205000D01*
X13395000Y-11205000D01*
X13395000Y-12305000D01*
G36*
X13395000Y-12305000D02*
G01*
X13195000Y-12305000D01*
X13195000Y-11205000D01*
X13395000Y-11205000D01*
X13395000Y-12305000D01*
G37*
X12995000Y-12305000D02*
X12795000Y-12305000D01*
X12795000Y-11205000D01*
X12995000Y-11205000D01*
X12995000Y-12305000D01*
G36*
X12995000Y-12305000D02*
G01*
X12795000Y-12305000D01*
X12795000Y-11205000D01*
X12995000Y-11205000D01*
X12995000Y-12305000D01*
G37*
X12595000Y-12305000D02*
X12395000Y-12305000D01*
X12395000Y-11205000D01*
X12595000Y-11205000D01*
X12595000Y-12305000D01*
G36*
X12595000Y-12305000D02*
G01*
X12395000Y-12305000D01*
X12395000Y-11205000D01*
X12595000Y-11205000D01*
X12595000Y-12305000D01*
G37*
X11795000Y-12305000D02*
X11595000Y-12305000D01*
X11595000Y-11205000D01*
X11795000Y-11205000D01*
X11795000Y-12305000D01*
G36*
X11795000Y-12305000D02*
G01*
X11595000Y-12305000D01*
X11595000Y-11205000D01*
X11795000Y-11205000D01*
X11795000Y-12305000D01*
G37*
X11395000Y-12305000D02*
X11195000Y-12305000D01*
X11195000Y-11205000D01*
X11395000Y-11205000D01*
X11395000Y-12305000D01*
G36*
X11395000Y-12305000D02*
G01*
X11195000Y-12305000D01*
X11195000Y-11205000D01*
X11395000Y-11205000D01*
X11395000Y-12305000D01*
G37*
X10995000Y-12305000D02*
X10795000Y-12305000D01*
X10795000Y-11205000D01*
X10995000Y-11205000D01*
X10995000Y-12305000D01*
G36*
X10995000Y-12305000D02*
G01*
X10795000Y-12305000D01*
X10795000Y-11205000D01*
X10995000Y-11205000D01*
X10995000Y-12305000D01*
G37*
X10595000Y-12305000D02*
X10395000Y-12305000D01*
X10395000Y-11205000D01*
X10595000Y-11205000D01*
X10595000Y-12305000D01*
G36*
X10595000Y-12305000D02*
G01*
X10395000Y-12305000D01*
X10395000Y-11205000D01*
X10595000Y-11205000D01*
X10595000Y-12305000D01*
G37*
X10195000Y-12305000D02*
X9995000Y-12305000D01*
X9995000Y-11205000D01*
X10195000Y-11205000D01*
X10195000Y-12305000D01*
G36*
X10195000Y-12305000D02*
G01*
X9995000Y-12305000D01*
X9995000Y-11205000D01*
X10195000Y-11205000D01*
X10195000Y-12305000D01*
G37*
X9795000Y-12305000D02*
X9595000Y-12305000D01*
X9595000Y-11205000D01*
X9795000Y-11205000D01*
X9795000Y-12305000D01*
G36*
X9795000Y-12305000D02*
G01*
X9595000Y-12305000D01*
X9595000Y-11205000D01*
X9795000Y-11205000D01*
X9795000Y-12305000D01*
G37*
%TO.C,U6*%
X7170000Y-14050000D02*
X6890000Y-14050000D01*
X6890000Y-13250000D01*
X7170000Y-13250000D01*
X7170000Y-14050000D01*
G36*
X7170000Y-14050000D02*
G01*
X6890000Y-14050000D01*
X6890000Y-13250000D01*
X7170000Y-13250000D01*
X7170000Y-14050000D01*
G37*
X5670000Y-14050000D02*
X5390000Y-14050000D01*
X5390000Y-13250000D01*
X5670000Y-13250000D01*
X5670000Y-14050000D01*
G36*
X5670000Y-14050000D02*
G01*
X5390000Y-14050000D01*
X5390000Y-13250000D01*
X5670000Y-13250000D01*
X5670000Y-14050000D01*
G37*
X8430000Y-14540000D02*
X7630000Y-14540000D01*
X7630000Y-14260000D01*
X8430000Y-14260000D01*
X8430000Y-14540000D01*
G36*
X8430000Y-14540000D02*
G01*
X7630000Y-14540000D01*
X7630000Y-14260000D01*
X8430000Y-14260000D01*
X8430000Y-14540000D01*
G37*
X4930000Y-14542000D02*
X4130000Y-14542000D01*
X4130000Y-14262000D01*
X4930000Y-14262000D01*
X4930000Y-14542000D01*
G36*
X4930000Y-14542000D02*
G01*
X4130000Y-14542000D01*
X4130000Y-14262000D01*
X4930000Y-14262000D01*
X4930000Y-14542000D01*
G37*
X8430000Y-15040000D02*
X7630000Y-15040000D01*
X7630000Y-14760000D01*
X8430000Y-14760000D01*
X8430000Y-15040000D01*
G36*
X8430000Y-15040000D02*
G01*
X7630000Y-15040000D01*
X7630000Y-14760000D01*
X8430000Y-14760000D01*
X8430000Y-15040000D01*
G37*
X4930000Y-15042000D02*
X4130000Y-15042000D01*
X4130000Y-14762000D01*
X4930000Y-14762000D01*
X4930000Y-15042000D01*
G36*
X4930000Y-15042000D02*
G01*
X4130000Y-15042000D01*
X4130000Y-14762000D01*
X4930000Y-14762000D01*
X4930000Y-15042000D01*
G37*
X8430000Y-15540000D02*
X7630000Y-15540000D01*
X7630000Y-15260000D01*
X8430000Y-15260000D01*
X8430000Y-15540000D01*
G36*
X8430000Y-15540000D02*
G01*
X7630000Y-15540000D01*
X7630000Y-15260000D01*
X8430000Y-15260000D01*
X8430000Y-15540000D01*
G37*
X4930000Y-15542000D02*
X4130000Y-15542000D01*
X4130000Y-15262000D01*
X4930000Y-15262000D01*
X4930000Y-15542000D01*
G36*
X4930000Y-15542000D02*
G01*
X4130000Y-15542000D01*
X4130000Y-15262000D01*
X4930000Y-15262000D01*
X4930000Y-15542000D01*
G37*
X8430000Y-16040000D02*
X7630000Y-16040000D01*
X7630000Y-15760000D01*
X8430000Y-15760000D01*
X8430000Y-16040000D01*
G36*
X8430000Y-16040000D02*
G01*
X7630000Y-16040000D01*
X7630000Y-15760000D01*
X8430000Y-15760000D01*
X8430000Y-16040000D01*
G37*
X4930000Y-16042000D02*
X4130000Y-16042000D01*
X4130000Y-15762000D01*
X4930000Y-15762000D01*
X4930000Y-16042000D01*
G36*
X4930000Y-16042000D02*
G01*
X4130000Y-16042000D01*
X4130000Y-15762000D01*
X4930000Y-15762000D01*
X4930000Y-16042000D01*
G37*
X7100000Y-16220000D02*
X5460000Y-16220000D01*
X5460000Y-14580000D01*
X7100000Y-14580000D01*
X7100000Y-16220000D01*
G36*
X7100000Y-16220000D02*
G01*
X5460000Y-16220000D01*
X5460000Y-14580000D01*
X7100000Y-14580000D01*
X7100000Y-16220000D01*
G37*
X8430000Y-16540000D02*
X7630000Y-16540000D01*
X7630000Y-16260000D01*
X8430000Y-16260000D01*
X8430000Y-16540000D01*
G36*
X8430000Y-16540000D02*
G01*
X7630000Y-16540000D01*
X7630000Y-16260000D01*
X8430000Y-16260000D01*
X8430000Y-16540000D01*
G37*
X4930000Y-16542000D02*
X4130000Y-16542000D01*
X4130000Y-16262000D01*
X4930000Y-16262000D01*
X4930000Y-16542000D01*
G36*
X4930000Y-16542000D02*
G01*
X4130000Y-16542000D01*
X4130000Y-16262000D01*
X4930000Y-16262000D01*
X4930000Y-16542000D01*
G37*
X7170000Y-17550000D02*
X6890000Y-17550000D01*
X6890000Y-16750000D01*
X7170000Y-16750000D01*
X7170000Y-17550000D01*
G36*
X7170000Y-17550000D02*
G01*
X6890000Y-17550000D01*
X6890000Y-16750000D01*
X7170000Y-16750000D01*
X7170000Y-17550000D01*
G37*
X5670000Y-17550000D02*
X5390000Y-17550000D01*
X5390000Y-16750000D01*
X5670000Y-16750000D01*
X5670000Y-17550000D01*
G36*
X5670000Y-17550000D02*
G01*
X5390000Y-17550000D01*
X5390000Y-16750000D01*
X5670000Y-16750000D01*
X5670000Y-17550000D01*
G37*
%TD*%
D11*
%TO.C,R16*%
X16580000Y-17935000D03*
X15560000Y-17935000D03*
%TD*%
%TO.C,R15*%
X14575000Y-17945000D03*
X13555000Y-17945000D03*
%TD*%
D12*
%TO.C,R14*%
X21980001Y-14680000D03*
X23000001Y-14680000D03*
%TD*%
D13*
%TO.C,R13*%
X19440000Y-14135000D03*
X19440000Y-15155000D03*
%TD*%
%TO.C,R12*%
X1270000Y-3445000D03*
X1270000Y-4465000D03*
%TD*%
D11*
%TO.C,R9*%
X2010000Y-11625000D03*
X990000Y-11625000D03*
%TD*%
D14*
%TO.C,R8*%
X19250000Y-11755000D03*
X19250000Y-10735000D03*
%TD*%
D12*
%TO.C,R7*%
X20060001Y-13100000D03*
X21080001Y-13100000D03*
%TD*%
D14*
%TO.C,R6*%
X20785000Y-6100000D03*
X20785000Y-5080000D03*
%TD*%
D13*
%TO.C,R5*%
X20785000Y-3095000D03*
X20785000Y-4115000D03*
%TD*%
%TO.C,R4*%
X17240000Y-15105000D03*
X17240000Y-16125000D03*
%TD*%
%TO.C,R3*%
X18285000Y-15110000D03*
X18285000Y-16130000D03*
%TD*%
D14*
%TO.C,R2*%
X7510000Y-12575000D03*
X7510000Y-11555000D03*
%TD*%
%TO.C,R1*%
X5110000Y-9300000D03*
X5110000Y-8280000D03*
%TD*%
D15*
%TO.C,C14*%
X20785000Y-7075000D03*
X20785000Y-8035000D03*
%TD*%
%TO.C,C13*%
X6130000Y-9610000D03*
X6130000Y-10570000D03*
%TD*%
D16*
%TO.C,C12*%
X12545000Y-3315000D03*
X13505000Y-3315000D03*
%TD*%
%TO.C,C11*%
X15310000Y-3310000D03*
X16270000Y-3310000D03*
%TD*%
%TO.C,C10*%
X18335000Y-9695000D03*
X19295000Y-9695000D03*
%TD*%
%TO.C,C9*%
X15460000Y-13640000D03*
X16420000Y-13640000D03*
%TD*%
D17*
%TO.C,C8*%
X20505000Y-15130000D03*
X20505000Y-14170000D03*
%TD*%
D15*
%TO.C,C7*%
X11160000Y-13035000D03*
X11160000Y-13995000D03*
%TD*%
D18*
%TO.C,C6*%
X16420000Y-12572500D03*
X15460000Y-12572500D03*
%TD*%
D16*
%TO.C,C5*%
X16085000Y-11545000D03*
X17045000Y-11545000D03*
%TD*%
D15*
%TO.C,C4*%
X7135000Y-9010000D03*
X7135000Y-9970000D03*
%TD*%
D16*
%TO.C,C3*%
X2270000Y-5475000D03*
X3230000Y-5475000D03*
%TD*%
%TO.C,C2*%
X18335000Y-8630000D03*
X19295000Y-8630000D03*
%TD*%
%TO.C,C1*%
X2285000Y-10555000D03*
X3245000Y-10555000D03*
%TD*%
D19*
%TO.C,U1*%
X14495000Y-4655000D03*
X14095000Y-4655000D03*
X13695000Y-4655000D03*
X13295000Y-4655000D03*
X12895000Y-4655000D03*
X12495000Y-4655000D03*
X12095000Y-4655000D03*
X11695000Y-4655000D03*
X11295000Y-4655000D03*
X10895000Y-4655000D03*
X10495000Y-4655000D03*
X10095000Y-4655000D03*
X9695000Y-4655000D03*
X9295000Y-4655000D03*
D20*
X8345000Y-5605000D03*
X8345000Y-6005000D03*
X8345000Y-6405000D03*
X8345000Y-6805000D03*
X8345000Y-7205000D03*
X8345000Y-7605000D03*
X8345000Y-8005000D03*
X8345000Y-8405000D03*
X8345000Y-8805000D03*
X8345000Y-9205000D03*
X8345000Y-9605000D03*
X8345000Y-10005000D03*
X8345000Y-10405000D03*
X8345000Y-10805000D03*
D19*
X9295000Y-11755000D03*
X9695000Y-11755000D03*
X10095000Y-11755000D03*
X10495000Y-11755000D03*
X10895000Y-11755000D03*
X11295000Y-11755000D03*
X11695000Y-11755000D03*
X12095000Y-11755000D03*
X12495000Y-11755000D03*
X12895000Y-11755000D03*
X13295000Y-11755000D03*
X13695000Y-11755000D03*
X14095000Y-11755000D03*
X14495000Y-11755000D03*
D20*
X15445000Y-10805000D03*
X15445000Y-10405000D03*
X15445000Y-10005000D03*
X15445000Y-9605000D03*
X15445000Y-9205000D03*
X15445000Y-8805000D03*
X15445000Y-8405000D03*
X15445000Y-8005000D03*
X15445000Y-7605000D03*
X15445000Y-7205000D03*
X15445000Y-6805000D03*
X15445000Y-6405000D03*
X15445000Y-6005000D03*
X15445000Y-5605000D03*
D21*
X11895000Y-8205000D03*
%TD*%
D22*
%TO.C,U2*%
X19365000Y-4185500D03*
X18865000Y-4185500D03*
X18365000Y-4185500D03*
X17865000Y-4185500D03*
X17865000Y-7199500D03*
X18365000Y-7199500D03*
X18865000Y-7199500D03*
X19365000Y-7199500D03*
D23*
X18615000Y-5692500D03*
%TD*%
D24*
%TO.C,U4*%
X22414500Y-9172250D03*
X21464500Y-9172250D03*
X20514500Y-9172250D03*
X20514500Y-11468250D03*
X22414500Y-11468250D03*
%TD*%
D25*
%TO.C,U6*%
X5530000Y-13650000D03*
D26*
X4530000Y-14402000D03*
X4530000Y-14902000D03*
X4530000Y-15402000D03*
X4530000Y-15902000D03*
X4530000Y-16402000D03*
D25*
X5530000Y-17150000D03*
X7030000Y-17150000D03*
D26*
X8030000Y-16400000D03*
X8030000Y-15900000D03*
X8030000Y-15400000D03*
X8030000Y-14900000D03*
X8030000Y-14400000D03*
D25*
X7030000Y-13650000D03*
D27*
X6280000Y-15400000D03*
%TD*%
D24*
%TO.C,U3*%
X10505000Y-17743000D03*
X11455000Y-17743000D03*
X12405000Y-17743000D03*
X12405000Y-15447000D03*
X10505000Y-15447000D03*
%TD*%
D28*
%TO.C,SW1*%
X20095000Y-1670000D03*
X16895000Y-1670000D03*
%TD*%
D29*
%TO.C,X1*%
X3630000Y-9120000D03*
X3630000Y-6920000D03*
X1880000Y-6920000D03*
X1880000Y-9120000D03*
%TD*%
D30*
%TO.C,U7*%
X3782500Y-11545000D03*
X4632500Y-11545000D03*
X3782500Y-12395000D03*
X4632500Y-12395000D03*
%TD*%
D31*
%TO.C,U5*%
X19330000Y-16735000D03*
D32*
X19287000Y-17135000D03*
D33*
X19495000Y-17767000D03*
X19895000Y-17767000D03*
X20295000Y-17767000D03*
D32*
X20503000Y-17135000D03*
X20503000Y-16735000D03*
D33*
X20295000Y-16103000D03*
X19895000Y-16103000D03*
X19495000Y-16103000D03*
%TD*%
D34*
%TO.C,U8*%
X13870000Y-14840000D03*
X13870000Y-15790000D03*
X13870000Y-16740000D03*
X16060000Y-16740000D03*
X16060000Y-14840000D03*
%TD*%
M02*
