%TF.GenerationSoftware,KiCad,Pcbnew,7.0.2-6a45011f42~172~ubuntu22.04.1*%
%TF.CreationDate,2023-06-02T20:05:51+08:00*%
%TF.ProjectId,fly2040,666c7932-3034-4302-9e6b-696361645f70,rev?*%
%TF.SameCoordinates,PX4323800PY2f1c8c0*%
%TF.FileFunction,Copper,L2,Inr*%
%TF.FilePolarity,Positive*%
%FSLAX46Y46*%
G04 Gerber Fmt 4.6, Leading zero omitted, Abs format (unit mm)*
G04 Created by KiCad (PCBNEW 7.0.2-6a45011f42~172~ubuntu22.04.1) date 2023-06-02 20:05:51*
%MOMM*%
%LPD*%
G01*
G04 APERTURE LIST*
G04 Aperture macros list*
%AMRoundRect*
0 Rectangle with rounded corners*
0 $1 Rounding radius*
0 $2 $3 $4 $5 $6 $7 $8 $9 X,Y pos of 4 corners*
0 Add a 4 corners polygon primitive as box body*
4,1,4,$2,$3,$4,$5,$6,$7,$8,$9,$2,$3,0*
0 Add four circle primitives for the rounded corners*
1,1,$1+$1,$2,$3*
1,1,$1+$1,$4,$5*
1,1,$1+$1,$6,$7*
1,1,$1+$1,$8,$9*
0 Add four rect primitives between the rounded corners*
20,1,$1+$1,$2,$3,$4,$5,0*
20,1,$1+$1,$4,$5,$6,$7,0*
20,1,$1+$1,$6,$7,$8,$9,0*
20,1,$1+$1,$8,$9,$2,$3,0*%
G04 Aperture macros list end*
%TA.AperFunction,ComponentPad*%
%ADD10RoundRect,0.100000X-0.550000X0.850000X-0.550000X-0.850000X0.550000X-0.850000X0.550000X0.850000X0*%
%TD*%
%TA.AperFunction,ComponentPad*%
%ADD11O,1.000000X1.000000*%
%TD*%
%TA.AperFunction,ComponentPad*%
%ADD12RoundRect,0.100000X-0.850000X-0.550000X0.850000X-0.550000X0.850000X0.550000X-0.850000X0.550000X0*%
%TD*%
%TA.AperFunction,ViaPad*%
%ADD13C,0.450000*%
%TD*%
%TA.AperFunction,Conductor*%
%ADD14C,0.100000*%
%TD*%
%TA.AperFunction,Conductor*%
%ADD15C,0.357600*%
%TD*%
G04 APERTURE END LIST*
D10*
%TO.N,NS_10*%
%TO.C,J9*%
X9140001Y-1585000D03*
%TO.N,NS_11*%
X7640001Y-1585000D03*
%TD*%
%TO.N,NS_8*%
%TO.C,J10*%
X12305000Y-1585000D03*
%TO.N,NS_9*%
X10805000Y-1585000D03*
%TD*%
D11*
%TO.N,RST*%
%TO.C,J8*%
X22189248Y-1283121D03*
%TO.N,BOOT*%
X22189248Y-2553121D03*
%TO.N,D+*%
X22189248Y-3823121D03*
%TO.N,D-*%
X22189248Y-5093121D03*
%TO.N,+5V*%
X22189248Y-6363121D03*
%TO.N,GND*%
X22189248Y-7633121D03*
%TD*%
D10*
%TO.N,+3V3*%
%TO.C,J1*%
X15495000Y-1585000D03*
%TO.N,GND*%
X13995000Y-1585000D03*
%TD*%
D12*
%TO.N,NS_CMD_OUT*%
%TO.C,J4*%
X1645000Y-16124999D03*
%TO.N,NS_D0_OUT*%
X1645000Y-17624999D03*
%TD*%
D10*
%TO.N,NS_14*%
%TO.C,J2*%
X2820000Y-1585000D03*
%TO.N,NS_CPU*%
X1320000Y-1585000D03*
%TD*%
%TO.N,NS_SDA*%
%TO.C,J6*%
X5995000Y-1585000D03*
%TO.N,NS_SCL*%
X4495000Y-1585000D03*
%TD*%
D12*
%TO.N,D+_CXN*%
%TO.C,J5*%
X22335000Y-16130000D03*
%TO.N,D-_CXN*%
X22335000Y-17630000D03*
%TD*%
%TO.N,NS_RST_OUT*%
%TO.C,J3*%
X1645000Y-12965000D03*
%TO.N,NS_CLK_OUT*%
X1645000Y-14465000D03*
%TD*%
D13*
%TO.N,MMC_SEL_INV*%
X9010000Y-14185000D03*
%TO.N,NS_CMD*%
X8800000Y-17500000D03*
%TO.N,GND*%
X1260000Y-5450000D03*
X13915000Y-7245000D03*
X9680000Y-7320000D03*
X18630000Y-5050000D03*
X1250000Y-10600000D03*
X4170000Y-10570000D03*
X2260000Y-4580000D03*
X5130000Y-10135000D03*
%TO.N,+3V3*%
X19860000Y-6375000D03*
X10210000Y-12880000D03*
X15310000Y-4350000D03*
X5540000Y-11400000D03*
X14065000Y-10240000D03*
X22414500Y-12545000D03*
X11645000Y-3590000D03*
X6165000Y-8595000D03*
X22420000Y-13745000D03*
X17312500Y-9022500D03*
X10505000Y-16625000D03*
%TO.N,RST*%
X9620000Y-10165000D03*
%TO.N,+1V1*%
X9630000Y-9195000D03*
X14330000Y-8370000D03*
%TO.N,D-*%
X17325000Y-17040000D03*
%TO.N,D+*%
X18340000Y-17035000D03*
%TO.N,NS_2*%
X13225000Y-5735000D03*
%TO.N,NS_3*%
X12515000Y-5975000D03*
%TO.N,NS_4*%
X11829553Y-6199553D03*
%TO.N,NS_5*%
X11010000Y-6160000D03*
%TO.N,NS_6*%
X10250000Y-6175000D03*
%TO.N,NS_7*%
X9605000Y-5710000D03*
%TO.N,BOARD_DET*%
X19140000Y-12725000D03*
X13160000Y-10375000D03*
%TO.N,NS_RST*%
X4370000Y-13300000D03*
X12155000Y-13060000D03*
%TO.N,NS_CLK*%
X12910000Y-13870000D03*
X3508378Y-15741622D03*
%TO.N,NS_CMD*%
X14010000Y-13925000D03*
%TO.N,NS_D0*%
X9620000Y-15015000D03*
X14400000Y-13095000D03*
%TO.N,PAD_22*%
X10560000Y-10370000D03*
%TO.N,PAD_23*%
X11410000Y-10370000D03*
%TO.N,PAD_24*%
X12230000Y-10370000D03*
%TO.N,USB_SEL*%
X8500000Y-11815000D03*
X18612500Y-13387500D03*
%TO.N,Net-(JP1-B)*%
X3370000Y-4405000D03*
%TO.N,NS_14*%
X9475000Y-6535000D03*
%TO.N,NS_0*%
X14275000Y-5805000D03*
%TO.N,NS_1*%
X13845000Y-6365000D03*
%TO.N,MMC_SEL*%
X8685000Y-12650000D03*
X12460000Y-16600000D03*
%TO.N,MMC_SEL_INV*%
X3195000Y-14590000D03*
X14970000Y-16740000D03*
X5530000Y-12630000D03*
X8955000Y-16375000D03*
%TO.N,Net-(JP2-B)*%
X2890000Y-11625000D03*
%TD*%
D14*
%TO.N,MMC_SEL*%
X8685000Y-12650000D02*
X8685000Y-12825000D01*
X8685000Y-12825000D02*
X12460000Y-16600000D01*
D15*
%TO.N,+1V1*%
X9630000Y-9195000D02*
X10120000Y-8705000D01*
X13995000Y-8705000D02*
X14330000Y-8370000D01*
X10120000Y-8705000D02*
X13995000Y-8705000D01*
%TD*%
%TA.AperFunction,Conductor*%
%TO.N,GND*%
G36*
X23902187Y-50002D02*
G01*
X23948680Y-103658D01*
X23960066Y-155933D01*
X23969933Y-18843933D01*
X23949967Y-18912065D01*
X23896336Y-18958586D01*
X23843933Y-18970000D01*
X156000Y-18970000D01*
X87879Y-18949998D01*
X41386Y-18896342D01*
X30000Y-18844000D01*
X30000Y-18194747D01*
X594500Y-18194747D01*
X595495Y-18199748D01*
X606133Y-18253230D01*
X650447Y-18319551D01*
X657932Y-18324552D01*
X716769Y-18363866D01*
X775252Y-18375499D01*
X775253Y-18375499D01*
X2514747Y-18375499D01*
X2514748Y-18375499D01*
X2573231Y-18363866D01*
X2639552Y-18319551D01*
X2683867Y-18253230D01*
X2694506Y-18199746D01*
X21284500Y-18199746D01*
X21296133Y-18258231D01*
X21340447Y-18324552D01*
X21384761Y-18354162D01*
X21406769Y-18368867D01*
X21465252Y-18380500D01*
X21465253Y-18380500D01*
X23204747Y-18380500D01*
X23204748Y-18380500D01*
X23263231Y-18368867D01*
X23329552Y-18324552D01*
X23373867Y-18258231D01*
X23385500Y-18199748D01*
X23385500Y-17060252D01*
X23373867Y-17001769D01*
X23339275Y-16950000D01*
X23318061Y-16882249D01*
X23336844Y-16813782D01*
X23339231Y-16810066D01*
X23373867Y-16758231D01*
X23385500Y-16699748D01*
X23385500Y-15560252D01*
X23373867Y-15501769D01*
X23355328Y-15474024D01*
X23329552Y-15435447D01*
X23263231Y-15391133D01*
X23238089Y-15386132D01*
X23204748Y-15379500D01*
X21465252Y-15379500D01*
X21436010Y-15385316D01*
X21406768Y-15391133D01*
X21340447Y-15435447D01*
X21296133Y-15501768D01*
X21296132Y-15501769D01*
X21296133Y-15501769D01*
X21284500Y-15560252D01*
X21284500Y-16699748D01*
X21296133Y-16758231D01*
X21330724Y-16809999D01*
X21351938Y-16877749D01*
X21333156Y-16946216D01*
X21330723Y-16950000D01*
X21296133Y-17001766D01*
X21284500Y-17060253D01*
X21284500Y-18199746D01*
X2694506Y-18199746D01*
X2695500Y-18194747D01*
X2695500Y-17499999D01*
X8269965Y-17499999D01*
X8288025Y-17637183D01*
X8340974Y-17765016D01*
X8340976Y-17765018D01*
X8425209Y-17874791D01*
X8514263Y-17943125D01*
X8534983Y-17959025D01*
X8662816Y-18011974D01*
X8678775Y-18014075D01*
X8800000Y-18030035D01*
X8937183Y-18011974D01*
X9065018Y-17959024D01*
X9174791Y-17874791D01*
X9259024Y-17765018D01*
X9311974Y-17637183D01*
X9330035Y-17500000D01*
X9311974Y-17362817D01*
X9259024Y-17234983D01*
X9174791Y-17125209D01*
X9117339Y-17081124D01*
X9075473Y-17023786D01*
X9071252Y-16952915D01*
X9106017Y-16891013D01*
X9145828Y-16864754D01*
X9151668Y-16862334D01*
X9220018Y-16834024D01*
X9329791Y-16749791D01*
X9414024Y-16640018D01*
X9420245Y-16624999D01*
X9974965Y-16624999D01*
X9993025Y-16762183D01*
X10045974Y-16890016D01*
X10051960Y-16897817D01*
X10130209Y-16999791D01*
X10219263Y-17068125D01*
X10239983Y-17084025D01*
X10367816Y-17136974D01*
X10383775Y-17139075D01*
X10505000Y-17155035D01*
X10642183Y-17136974D01*
X10695741Y-17114790D01*
X10770016Y-17084025D01*
X10770016Y-17084024D01*
X10770018Y-17084024D01*
X10879791Y-16999791D01*
X10964024Y-16890018D01*
X10964233Y-16889515D01*
X11016974Y-16762183D01*
X11018940Y-16747252D01*
X11035035Y-16625000D01*
X11016974Y-16487817D01*
X10964024Y-16359983D01*
X10879791Y-16250209D01*
X10811455Y-16197772D01*
X10770016Y-16165974D01*
X10642183Y-16113025D01*
X10520958Y-16097066D01*
X10505000Y-16094965D01*
X10504999Y-16094965D01*
X10367817Y-16113025D01*
X10239983Y-16165975D01*
X10130209Y-16250209D01*
X10045975Y-16359983D01*
X9993025Y-16487817D01*
X9974965Y-16624999D01*
X9420245Y-16624999D01*
X9466974Y-16512183D01*
X9485035Y-16375000D01*
X9466974Y-16237817D01*
X9414024Y-16109983D01*
X9329791Y-16000209D01*
X9261455Y-15947772D01*
X9220016Y-15915974D01*
X9092183Y-15863025D01*
X8970958Y-15847066D01*
X8955000Y-15844965D01*
X8954999Y-15844965D01*
X8817817Y-15863025D01*
X8689983Y-15915975D01*
X8580209Y-16000209D01*
X8495975Y-16109983D01*
X8443025Y-16237817D01*
X8424965Y-16374999D01*
X8443025Y-16512183D01*
X8495974Y-16640016D01*
X8495976Y-16640018D01*
X8580209Y-16749791D01*
X8637659Y-16793875D01*
X8679526Y-16851212D01*
X8683747Y-16922083D01*
X8648982Y-16983986D01*
X8609173Y-17010245D01*
X8534982Y-17040976D01*
X8425209Y-17125209D01*
X8340975Y-17234983D01*
X8288025Y-17362817D01*
X8269965Y-17499999D01*
X2695500Y-17499999D01*
X2695500Y-17055251D01*
X2683867Y-16996768D01*
X2649276Y-16945000D01*
X2628061Y-16877249D01*
X2646843Y-16808782D01*
X2649264Y-16805015D01*
X2683867Y-16753230D01*
X2695500Y-16694747D01*
X2695500Y-15555251D01*
X2683867Y-15496768D01*
X2639552Y-15430447D01*
X2593631Y-15399763D01*
X2548105Y-15345286D01*
X2539258Y-15274843D01*
X2569899Y-15210799D01*
X2593629Y-15190236D01*
X2639552Y-15159552D01*
X2683867Y-15093231D01*
X2684556Y-15089763D01*
X2717463Y-15026855D01*
X2779158Y-14991723D01*
X2850053Y-14995523D01*
X2884838Y-15014383D01*
X2929982Y-15049024D01*
X2993899Y-15075498D01*
X3057816Y-15101974D01*
X3091704Y-15106435D01*
X3115521Y-15109571D01*
X3180448Y-15138293D01*
X3219540Y-15197559D01*
X3220385Y-15268550D01*
X3182715Y-15328729D01*
X3175780Y-15334455D01*
X3133587Y-15366831D01*
X3049353Y-15476605D01*
X2996403Y-15604439D01*
X2978343Y-15741621D01*
X2996403Y-15878805D01*
X3049352Y-16006638D01*
X3049354Y-16006640D01*
X3133587Y-16116413D01*
X3198177Y-16165975D01*
X3243361Y-16200647D01*
X3371194Y-16253596D01*
X3389255Y-16255973D01*
X3508378Y-16271657D01*
X3645561Y-16253596D01*
X3773396Y-16200646D01*
X3883169Y-16116413D01*
X3967402Y-16006640D01*
X4020352Y-15878805D01*
X4038413Y-15741622D01*
X4020352Y-15604439D01*
X3967402Y-15476605D01*
X3883169Y-15366831D01*
X3814833Y-15314394D01*
X3773394Y-15282596D01*
X3645561Y-15229647D01*
X3587855Y-15222050D01*
X3522928Y-15193327D01*
X3483837Y-15134061D01*
X3482993Y-15063069D01*
X3520664Y-15002891D01*
X3527572Y-14997186D01*
X3569791Y-14964791D01*
X3654024Y-14855018D01*
X3706974Y-14727183D01*
X3725035Y-14590000D01*
X3706974Y-14452817D01*
X3654024Y-14324983D01*
X3569791Y-14215209D01*
X3500602Y-14162118D01*
X3460016Y-14130974D01*
X3332183Y-14078025D01*
X3210958Y-14062066D01*
X3195000Y-14059965D01*
X3194999Y-14059965D01*
X3057817Y-14078025D01*
X2929980Y-14130976D01*
X2898204Y-14155360D01*
X2831984Y-14180961D01*
X2762435Y-14166696D01*
X2711639Y-14117095D01*
X2695500Y-14055398D01*
X2695500Y-13895253D01*
X2690477Y-13870000D01*
X2683867Y-13836769D01*
X2649276Y-13785001D01*
X2628061Y-13717250D01*
X2646843Y-13648783D01*
X2649264Y-13645016D01*
X2683867Y-13593231D01*
X2695500Y-13534748D01*
X2695500Y-13299999D01*
X3839965Y-13299999D01*
X3858025Y-13437183D01*
X3910974Y-13565016D01*
X3932625Y-13593231D01*
X3995209Y-13674791D01*
X4070829Y-13732817D01*
X4104983Y-13759025D01*
X4232816Y-13811974D01*
X4248775Y-13814075D01*
X4370000Y-13830035D01*
X4507183Y-13811974D01*
X4572298Y-13785003D01*
X4635016Y-13759025D01*
X4635016Y-13759024D01*
X4635018Y-13759024D01*
X4744791Y-13674791D01*
X4829024Y-13565018D01*
X4881974Y-13437183D01*
X4900035Y-13300000D01*
X4881974Y-13162817D01*
X4829024Y-13034983D01*
X4744791Y-12925209D01*
X4651811Y-12853862D01*
X4635016Y-12840974D01*
X4507183Y-12788025D01*
X4385958Y-12772066D01*
X4370000Y-12769965D01*
X4369999Y-12769965D01*
X4232817Y-12788025D01*
X4104983Y-12840975D01*
X3995209Y-12925209D01*
X3910975Y-13034983D01*
X3858025Y-13162817D01*
X3839965Y-13299999D01*
X2695500Y-13299999D01*
X2695500Y-12629999D01*
X4999965Y-12629999D01*
X5018025Y-12767183D01*
X5070974Y-12895016D01*
X5070976Y-12895018D01*
X5155209Y-13004791D01*
X5227158Y-13060000D01*
X5264983Y-13089025D01*
X5392816Y-13141974D01*
X5408775Y-13144075D01*
X5530000Y-13160035D01*
X5667183Y-13141974D01*
X5714239Y-13122483D01*
X5795016Y-13089025D01*
X5795016Y-13089024D01*
X5795018Y-13089024D01*
X5904791Y-13004791D01*
X5989024Y-12895018D01*
X6002625Y-12862183D01*
X6041974Y-12767183D01*
X6046788Y-12730615D01*
X6060035Y-12630000D01*
X6041974Y-12492817D01*
X5989024Y-12364983D01*
X5904791Y-12255209D01*
X5795018Y-12170976D01*
X5793166Y-12170209D01*
X5704493Y-12133480D01*
X5649212Y-12088933D01*
X5626790Y-12021570D01*
X5644348Y-11952778D01*
X5696309Y-11904399D01*
X5704493Y-11900662D01*
X5730195Y-11890016D01*
X5805018Y-11859024D01*
X5862392Y-11814999D01*
X7969965Y-11814999D01*
X7988025Y-11952183D01*
X8040974Y-12080016D01*
X8056282Y-12099965D01*
X8125209Y-12189791D01*
X8186321Y-12236685D01*
X8228188Y-12294022D01*
X8232409Y-12364893D01*
X8226025Y-12384864D01*
X8173025Y-12512817D01*
X8154965Y-12649999D01*
X8173025Y-12787183D01*
X8225974Y-12915016D01*
X8233796Y-12925209D01*
X8310209Y-13024791D01*
X8399263Y-13093125D01*
X8419983Y-13109025D01*
X8547816Y-13161974D01*
X8565877Y-13164351D01*
X8685000Y-13180035D01*
X8762921Y-13169776D01*
X8833069Y-13180715D01*
X8868462Y-13205603D01*
X9102028Y-13439169D01*
X9136054Y-13501481D01*
X9130989Y-13572296D01*
X9088442Y-13629132D01*
X9026377Y-13652281D01*
X9026446Y-13652800D01*
X9024190Y-13653096D01*
X9021922Y-13653943D01*
X9018530Y-13653842D01*
X8872817Y-13673025D01*
X8744983Y-13725975D01*
X8635209Y-13810209D01*
X8550975Y-13919983D01*
X8498025Y-14047817D01*
X8479965Y-14184999D01*
X8498025Y-14322183D01*
X8550974Y-14450016D01*
X8577792Y-14484965D01*
X8635209Y-14559791D01*
X8724141Y-14628032D01*
X8744983Y-14644025D01*
X8872816Y-14696974D01*
X8903147Y-14700967D01*
X9004095Y-14714257D01*
X9069021Y-14742979D01*
X9108113Y-14802245D01*
X9108814Y-14861188D01*
X9110191Y-14861370D01*
X9108930Y-14870942D01*
X9108958Y-14873236D01*
X9108426Y-14874771D01*
X9089965Y-15014999D01*
X9108025Y-15152183D01*
X9160974Y-15280016D01*
X9187937Y-15315154D01*
X9245209Y-15389791D01*
X9304710Y-15435448D01*
X9354983Y-15474025D01*
X9482816Y-15526974D01*
X9500876Y-15529351D01*
X9620000Y-15545035D01*
X9757183Y-15526974D01*
X9757182Y-15526973D01*
X9885016Y-15474025D01*
X9885016Y-15474024D01*
X9885018Y-15474024D01*
X9994791Y-15389791D01*
X10079024Y-15280018D01*
X10131974Y-15152183D01*
X10150035Y-15015000D01*
X10131974Y-14877817D01*
X10085386Y-14765344D01*
X10077798Y-14694755D01*
X10109577Y-14631268D01*
X10170636Y-14595041D01*
X10241587Y-14597575D01*
X10290891Y-14628032D01*
X11940526Y-16277667D01*
X11974552Y-16339979D01*
X11969487Y-16410794D01*
X11967840Y-16414979D01*
X11948025Y-16462815D01*
X11929965Y-16599999D01*
X11948025Y-16737183D01*
X12000974Y-16865016D01*
X12019773Y-16889515D01*
X12085209Y-16974791D01*
X12170190Y-17040000D01*
X12194983Y-17059025D01*
X12322816Y-17111974D01*
X12338775Y-17114075D01*
X12460000Y-17130035D01*
X12597183Y-17111974D01*
X12664662Y-17084024D01*
X12725016Y-17059025D01*
X12725016Y-17059024D01*
X12725018Y-17059024D01*
X12834791Y-16974791D01*
X12919024Y-16865018D01*
X12919134Y-16864754D01*
X12970808Y-16739999D01*
X14439965Y-16739999D01*
X14458025Y-16877183D01*
X14510974Y-17005016D01*
X14533982Y-17035000D01*
X14595209Y-17114791D01*
X14670003Y-17172183D01*
X14704983Y-17199025D01*
X14832816Y-17251974D01*
X14848775Y-17254075D01*
X14970000Y-17270035D01*
X15107183Y-17251974D01*
X15235018Y-17199024D01*
X15344791Y-17114791D01*
X15402181Y-17040000D01*
X16794965Y-17040000D01*
X16796973Y-17055251D01*
X16813025Y-17177183D01*
X16865974Y-17305016D01*
X16897772Y-17346455D01*
X16950209Y-17414791D01*
X17039263Y-17483125D01*
X17059983Y-17499025D01*
X17187816Y-17551974D01*
X17205877Y-17554351D01*
X17325000Y-17570035D01*
X17462183Y-17551974D01*
X17587662Y-17500000D01*
X17590016Y-17499025D01*
X17590016Y-17499024D01*
X17590018Y-17499024D01*
X17699791Y-17414791D01*
X17734456Y-17369614D01*
X17791794Y-17327748D01*
X17862665Y-17323526D01*
X17924568Y-17358290D01*
X17934377Y-17369610D01*
X17965209Y-17409791D01*
X18054263Y-17478125D01*
X18074983Y-17494025D01*
X18202816Y-17546974D01*
X18220876Y-17549351D01*
X18340000Y-17565035D01*
X18477183Y-17546974D01*
X18477183Y-17546973D01*
X18605016Y-17494025D01*
X18605016Y-17494024D01*
X18605018Y-17494024D01*
X18714791Y-17409791D01*
X18799024Y-17300018D01*
X18851974Y-17172183D01*
X18870035Y-17035000D01*
X18851974Y-16897817D01*
X18799024Y-16769983D01*
X18714791Y-16660209D01*
X18636325Y-16599999D01*
X18605016Y-16575974D01*
X18477183Y-16523025D01*
X18355958Y-16507066D01*
X18340000Y-16504965D01*
X18339999Y-16504965D01*
X18202817Y-16523025D01*
X18074983Y-16575975D01*
X17965208Y-16660210D01*
X17930542Y-16705386D01*
X17873203Y-16747252D01*
X17802332Y-16751472D01*
X17740430Y-16716707D01*
X17730619Y-16705385D01*
X17699791Y-16665209D01*
X17631455Y-16612772D01*
X17590016Y-16580974D01*
X17462183Y-16528025D01*
X17340958Y-16512066D01*
X17325000Y-16509965D01*
X17324999Y-16509965D01*
X17187817Y-16528025D01*
X17059983Y-16580975D01*
X16950209Y-16665209D01*
X16865975Y-16774983D01*
X16813025Y-16902817D01*
X16795623Y-17034999D01*
X16794965Y-17040000D01*
X15402181Y-17040000D01*
X15429024Y-17005018D01*
X15431190Y-16999790D01*
X15481974Y-16877183D01*
X15483069Y-16868867D01*
X15500035Y-16740000D01*
X15481974Y-16602817D01*
X15429024Y-16474983D01*
X15344791Y-16365209D01*
X15276455Y-16312772D01*
X15235016Y-16280974D01*
X15107183Y-16228025D01*
X14985958Y-16212066D01*
X14970000Y-16209965D01*
X14969999Y-16209965D01*
X14832817Y-16228025D01*
X14704983Y-16280975D01*
X14595209Y-16365209D01*
X14510975Y-16474983D01*
X14458025Y-16602817D01*
X14439965Y-16739999D01*
X12970808Y-16739999D01*
X12971974Y-16737183D01*
X12976160Y-16705385D01*
X12990035Y-16600000D01*
X12971974Y-16462817D01*
X12919024Y-16334983D01*
X12834791Y-16225209D01*
X12757596Y-16165974D01*
X12725016Y-16140974D01*
X12597183Y-16088025D01*
X12475958Y-16072066D01*
X12460000Y-16069965D01*
X12459999Y-16069965D01*
X12322815Y-16088025D01*
X12274979Y-16107840D01*
X12204389Y-16115429D01*
X12140903Y-16083649D01*
X12137667Y-16080526D01*
X9147539Y-13090398D01*
X9113513Y-13028086D01*
X9118578Y-12957271D01*
X9136674Y-12924596D01*
X9144024Y-12915018D01*
X9158529Y-12879999D01*
X9679965Y-12879999D01*
X9698025Y-13017183D01*
X9750974Y-13145016D01*
X9763987Y-13161974D01*
X9835209Y-13254791D01*
X9924263Y-13323125D01*
X9944983Y-13339025D01*
X10072816Y-13391974D01*
X10088775Y-13394075D01*
X10210000Y-13410035D01*
X10347183Y-13391974D01*
X10371531Y-13381889D01*
X10475016Y-13339025D01*
X10475016Y-13339024D01*
X10475018Y-13339024D01*
X10584791Y-13254791D01*
X10669024Y-13145018D01*
X10704239Y-13059999D01*
X11624965Y-13059999D01*
X11643025Y-13197183D01*
X11695974Y-13325016D01*
X11721304Y-13358026D01*
X11780209Y-13434791D01*
X11839104Y-13479983D01*
X11889983Y-13519025D01*
X12017816Y-13571974D01*
X12035877Y-13574351D01*
X12155000Y-13590035D01*
X12258639Y-13576390D01*
X12328788Y-13587329D01*
X12381887Y-13634457D01*
X12401077Y-13702811D01*
X12400008Y-13717758D01*
X12379965Y-13869999D01*
X12398025Y-14007183D01*
X12450974Y-14135016D01*
X12450976Y-14135018D01*
X12535209Y-14244791D01*
X12624263Y-14313125D01*
X12644983Y-14329025D01*
X12772816Y-14381974D01*
X12788388Y-14384024D01*
X12910000Y-14400035D01*
X13047183Y-14381974D01*
X13047183Y-14381973D01*
X13175016Y-14329025D01*
X13175016Y-14329024D01*
X13175018Y-14329024D01*
X13284791Y-14244791D01*
X13339541Y-14173439D01*
X13396875Y-14131576D01*
X13467746Y-14127354D01*
X13529649Y-14162118D01*
X13539877Y-14177623D01*
X13540877Y-14176857D01*
X13550975Y-14190017D01*
X13550976Y-14190018D01*
X13635209Y-14299791D01*
X13724263Y-14368125D01*
X13744983Y-14384025D01*
X13872816Y-14436974D01*
X13890876Y-14439351D01*
X14010000Y-14455035D01*
X14147183Y-14436974D01*
X14181642Y-14422701D01*
X14275016Y-14384025D01*
X14275016Y-14384024D01*
X14275018Y-14384024D01*
X14384791Y-14299791D01*
X14469024Y-14190018D01*
X14471103Y-14185000D01*
X14521974Y-14062183D01*
X14523865Y-14047817D01*
X14540035Y-13925000D01*
X14521974Y-13787817D01*
X14521974Y-13787815D01*
X14508482Y-13755242D01*
X14500893Y-13684652D01*
X14532673Y-13621166D01*
X14576670Y-13590617D01*
X14665018Y-13554024D01*
X14774791Y-13469791D01*
X14837936Y-13387500D01*
X18082465Y-13387500D01*
X18083054Y-13391974D01*
X18100525Y-13524683D01*
X18153474Y-13652516D01*
X18170566Y-13674790D01*
X18237709Y-13762291D01*
X18325992Y-13830034D01*
X18347483Y-13846525D01*
X18475316Y-13899474D01*
X18491275Y-13901575D01*
X18612500Y-13917535D01*
X18749683Y-13899474D01*
X18820841Y-13870000D01*
X18877516Y-13846525D01*
X18877516Y-13846524D01*
X18877518Y-13846524D01*
X18987291Y-13762291D01*
X19071524Y-13652518D01*
X19090040Y-13607817D01*
X19124474Y-13524683D01*
X19135994Y-13437183D01*
X19142535Y-13387500D01*
X19141795Y-13381884D01*
X19152733Y-13311740D01*
X19199860Y-13258640D01*
X19250270Y-13240517D01*
X19277183Y-13236974D01*
X19405018Y-13184024D01*
X19514791Y-13099791D01*
X19599024Y-12990018D01*
X19624516Y-12928475D01*
X19651974Y-12862183D01*
X19652595Y-12857465D01*
X19670035Y-12725000D01*
X19651974Y-12587817D01*
X19634238Y-12544999D01*
X21884465Y-12544999D01*
X21902525Y-12682183D01*
X21955474Y-12810016D01*
X21955476Y-12810018D01*
X22039709Y-12919791D01*
X22089265Y-12957817D01*
X22149483Y-13004025D01*
X22211542Y-13029730D01*
X22266823Y-13074277D01*
X22289245Y-13141641D01*
X22271687Y-13210432D01*
X22219726Y-13258811D01*
X22211543Y-13262548D01*
X22154983Y-13285975D01*
X22045209Y-13370209D01*
X21960975Y-13479983D01*
X21908025Y-13607817D01*
X21889965Y-13744999D01*
X21908025Y-13882183D01*
X21960974Y-14010016D01*
X21960976Y-14010018D01*
X22045209Y-14119791D01*
X22130190Y-14185000D01*
X22154983Y-14204025D01*
X22282816Y-14256974D01*
X22298775Y-14259075D01*
X22420000Y-14275035D01*
X22557183Y-14256974D01*
X22685018Y-14204024D01*
X22794791Y-14119791D01*
X22879024Y-14010018D01*
X22931974Y-13882183D01*
X22950035Y-13745000D01*
X22931974Y-13607817D01*
X22879024Y-13479983D01*
X22794791Y-13370209D01*
X22685018Y-13285976D01*
X22685017Y-13285975D01*
X22622956Y-13260269D01*
X22567675Y-13215721D01*
X22545254Y-13148357D01*
X22562812Y-13079566D01*
X22614774Y-13031188D01*
X22622933Y-13027461D01*
X22679518Y-13004024D01*
X22789291Y-12919791D01*
X22873524Y-12810018D01*
X22882983Y-12787183D01*
X22926474Y-12682183D01*
X22932557Y-12635976D01*
X22944535Y-12545000D01*
X22926474Y-12407817D01*
X22873524Y-12279983D01*
X22789291Y-12170209D01*
X22683372Y-12088933D01*
X22679516Y-12085974D01*
X22551683Y-12033025D01*
X22430458Y-12017066D01*
X22414500Y-12014965D01*
X22414499Y-12014965D01*
X22277317Y-12033025D01*
X22149483Y-12085975D01*
X22039709Y-12170209D01*
X21955475Y-12279983D01*
X21902525Y-12407817D01*
X21884465Y-12544999D01*
X19634238Y-12544999D01*
X19599024Y-12459983D01*
X19514791Y-12350209D01*
X19417051Y-12275209D01*
X19405016Y-12265974D01*
X19277183Y-12213025D01*
X19155958Y-12197066D01*
X19140000Y-12194965D01*
X19139999Y-12194965D01*
X19002817Y-12213025D01*
X18874983Y-12265975D01*
X18765209Y-12350209D01*
X18680975Y-12459983D01*
X18628025Y-12587817D01*
X18609965Y-12725000D01*
X18610704Y-12730615D01*
X18599764Y-12800764D01*
X18552635Y-12853862D01*
X18502231Y-12871982D01*
X18475316Y-12875525D01*
X18347483Y-12928475D01*
X18237709Y-13012709D01*
X18153475Y-13122483D01*
X18100525Y-13250317D01*
X18086345Y-13358026D01*
X18082465Y-13387500D01*
X14837936Y-13387500D01*
X14859024Y-13360018D01*
X14867720Y-13339025D01*
X14911974Y-13232183D01*
X14914241Y-13214965D01*
X14930035Y-13095000D01*
X14911974Y-12957817D01*
X14859024Y-12829983D01*
X14774791Y-12720209D01*
X14706455Y-12667772D01*
X14665016Y-12635974D01*
X14537183Y-12583025D01*
X14415958Y-12567066D01*
X14400000Y-12564965D01*
X14399999Y-12564965D01*
X14262817Y-12583025D01*
X14134983Y-12635975D01*
X14025209Y-12720209D01*
X13940975Y-12829983D01*
X13888025Y-12957817D01*
X13870571Y-13090398D01*
X13869965Y-13095000D01*
X13872703Y-13115798D01*
X13888025Y-13232181D01*
X13888026Y-13232183D01*
X13900603Y-13262548D01*
X13901518Y-13264755D01*
X13909107Y-13335345D01*
X13877328Y-13398832D01*
X13833328Y-13429382D01*
X13744982Y-13465976D01*
X13635209Y-13550209D01*
X13580461Y-13621557D01*
X13523122Y-13663424D01*
X13452251Y-13667645D01*
X13390349Y-13632880D01*
X13380122Y-13617377D01*
X13379123Y-13618144D01*
X13357553Y-13590034D01*
X13284791Y-13495209D01*
X13177690Y-13413026D01*
X13175016Y-13410974D01*
X13047183Y-13358025D01*
X12925958Y-13342066D01*
X12910000Y-13339965D01*
X12909999Y-13339965D01*
X12806359Y-13353609D01*
X12736210Y-13342669D01*
X12683112Y-13295541D01*
X12663922Y-13227187D01*
X12664991Y-13212240D01*
X12666972Y-13197185D01*
X12666974Y-13197183D01*
X12685035Y-13060000D01*
X12666974Y-12922817D01*
X12614024Y-12794983D01*
X12529791Y-12685209D01*
X12438272Y-12614983D01*
X12420016Y-12600974D01*
X12292183Y-12548025D01*
X12170958Y-12532066D01*
X12155000Y-12529965D01*
X12154999Y-12529965D01*
X12017817Y-12548025D01*
X11889983Y-12600975D01*
X11780209Y-12685209D01*
X11695975Y-12794983D01*
X11643025Y-12922817D01*
X11624965Y-13059999D01*
X10704239Y-13059999D01*
X10721974Y-13017183D01*
X10740035Y-12880000D01*
X10721974Y-12742817D01*
X10669024Y-12614983D01*
X10584791Y-12505209D01*
X10516455Y-12452772D01*
X10475016Y-12420974D01*
X10347183Y-12368025D01*
X10225958Y-12352066D01*
X10210000Y-12349965D01*
X10209999Y-12349965D01*
X10072817Y-12368025D01*
X9944983Y-12420975D01*
X9835209Y-12505209D01*
X9750975Y-12614983D01*
X9698025Y-12742817D01*
X9679965Y-12879999D01*
X9158529Y-12879999D01*
X9174694Y-12840974D01*
X9196974Y-12787183D01*
X9202815Y-12742817D01*
X9215035Y-12650000D01*
X9196974Y-12512817D01*
X9144024Y-12384983D01*
X9059791Y-12275209D01*
X8998678Y-12228314D01*
X8956812Y-12170978D01*
X8952591Y-12100107D01*
X8958975Y-12080137D01*
X9011974Y-11952183D01*
X9014890Y-11930035D01*
X9030035Y-11815000D01*
X9011974Y-11677817D01*
X8959024Y-11549983D01*
X8874791Y-11440209D01*
X8770240Y-11359983D01*
X8765016Y-11355974D01*
X8637183Y-11303025D01*
X8515958Y-11287066D01*
X8500000Y-11284965D01*
X8499999Y-11284965D01*
X8362817Y-11303025D01*
X8234983Y-11355975D01*
X8125209Y-11440209D01*
X8040975Y-11549983D01*
X7988025Y-11677817D01*
X7969965Y-11814999D01*
X5862392Y-11814999D01*
X5914791Y-11774791D01*
X5999024Y-11665018D01*
X6051974Y-11537183D01*
X6070035Y-11400000D01*
X6051974Y-11262817D01*
X5999024Y-11134983D01*
X5914791Y-11025209D01*
X5846455Y-10972772D01*
X5805016Y-10940974D01*
X5677183Y-10888025D01*
X5555958Y-10872066D01*
X5540000Y-10869965D01*
X5539999Y-10869965D01*
X5402817Y-10888025D01*
X5274983Y-10940975D01*
X5165209Y-11025209D01*
X5080975Y-11134983D01*
X5028025Y-11262817D01*
X5009965Y-11399999D01*
X5028025Y-11537183D01*
X5080974Y-11665016D01*
X5080976Y-11665018D01*
X5165209Y-11774791D01*
X5274982Y-11859024D01*
X5349805Y-11890016D01*
X5365505Y-11896519D01*
X5420786Y-11941066D01*
X5443208Y-12008429D01*
X5425651Y-12077221D01*
X5373689Y-12125600D01*
X5365507Y-12129337D01*
X5264982Y-12170976D01*
X5155209Y-12255209D01*
X5070975Y-12364983D01*
X5018025Y-12492817D01*
X4999965Y-12629999D01*
X2695500Y-12629999D01*
X2695500Y-12395252D01*
X2683867Y-12336769D01*
X2683865Y-12336766D01*
X2682503Y-12329918D01*
X2664123Y-12271223D01*
X2682904Y-12202755D01*
X2735720Y-12155311D01*
X2805802Y-12143952D01*
X2806463Y-12144036D01*
X2890000Y-12155035D01*
X3027183Y-12136974D01*
X3054643Y-12125600D01*
X3155016Y-12084025D01*
X3155016Y-12084024D01*
X3155018Y-12084024D01*
X3264791Y-11999791D01*
X3349024Y-11890018D01*
X3401974Y-11762183D01*
X3420035Y-11625000D01*
X3401974Y-11487817D01*
X3349024Y-11359983D01*
X3264791Y-11250209D01*
X3196455Y-11197772D01*
X3155016Y-11165974D01*
X3027183Y-11113025D01*
X2905958Y-11097066D01*
X2890000Y-11094965D01*
X2889999Y-11094965D01*
X2752817Y-11113025D01*
X2624983Y-11165975D01*
X2515209Y-11250209D01*
X2430975Y-11359983D01*
X2378025Y-11487817D01*
X2359965Y-11624999D01*
X2378025Y-11762183D01*
X2430974Y-11890016D01*
X2461683Y-11930035D01*
X2515209Y-11999791D01*
X2515210Y-11999792D01*
X2524421Y-12011795D01*
X2550022Y-12078015D01*
X2535758Y-12147564D01*
X2486157Y-12198360D01*
X2424459Y-12214500D01*
X775252Y-12214500D01*
X746010Y-12220316D01*
X716768Y-12226133D01*
X650447Y-12270447D01*
X606133Y-12336768D01*
X606132Y-12336769D01*
X606133Y-12336769D01*
X594500Y-12395252D01*
X594500Y-13534748D01*
X600521Y-13565016D01*
X606133Y-13593231D01*
X640723Y-13644998D01*
X661938Y-13712751D01*
X643155Y-13781218D01*
X640723Y-13785002D01*
X606133Y-13836768D01*
X604192Y-13846525D01*
X594500Y-13895252D01*
X594500Y-15034748D01*
X605444Y-15089765D01*
X606133Y-15093231D01*
X650447Y-15159552D01*
X696366Y-15190234D01*
X741894Y-15244711D01*
X750741Y-15315154D01*
X720100Y-15379198D01*
X696367Y-15399763D01*
X650448Y-15430445D01*
X606133Y-15496767D01*
X606132Y-15496768D01*
X606133Y-15496768D01*
X594500Y-15555251D01*
X594500Y-16694747D01*
X598868Y-16716707D01*
X606133Y-16753230D01*
X640723Y-16804997D01*
X661938Y-16872750D01*
X643155Y-16941217D01*
X640723Y-16945001D01*
X606133Y-16996767D01*
X606132Y-16996768D01*
X606133Y-16996768D01*
X594500Y-17055251D01*
X594500Y-18194747D01*
X30000Y-18194747D01*
X30000Y-10164999D01*
X9089965Y-10164999D01*
X9108025Y-10302183D01*
X9160974Y-10430016D01*
X9160976Y-10430018D01*
X9245209Y-10539791D01*
X9309555Y-10589166D01*
X9354983Y-10624025D01*
X9482816Y-10676974D01*
X9500876Y-10679351D01*
X9620000Y-10695035D01*
X9757183Y-10676974D01*
X9885018Y-10624024D01*
X9915669Y-10600503D01*
X9981889Y-10574902D01*
X10051438Y-10589166D01*
X10092337Y-10623760D01*
X10110826Y-10647855D01*
X10185209Y-10744791D01*
X10274263Y-10813125D01*
X10294983Y-10829025D01*
X10422816Y-10881974D01*
X10438775Y-10884075D01*
X10560000Y-10900035D01*
X10697183Y-10881974D01*
X10726176Y-10869965D01*
X10825016Y-10829025D01*
X10825016Y-10829024D01*
X10825018Y-10829024D01*
X10908296Y-10765121D01*
X10974515Y-10739521D01*
X11044064Y-10753785D01*
X11061701Y-10765119D01*
X11113817Y-10805109D01*
X11144983Y-10829025D01*
X11272816Y-10881974D01*
X11288775Y-10884075D01*
X11410000Y-10900035D01*
X11547183Y-10881974D01*
X11576176Y-10869965D01*
X11675016Y-10829025D01*
X11675016Y-10829024D01*
X11675018Y-10829024D01*
X11743296Y-10776631D01*
X11809515Y-10751031D01*
X11879064Y-10765295D01*
X11896701Y-10776629D01*
X11942042Y-10811421D01*
X11964983Y-10829025D01*
X12092816Y-10881974D01*
X12108775Y-10884075D01*
X12230000Y-10900035D01*
X12367183Y-10881974D01*
X12396176Y-10869965D01*
X12495019Y-10829024D01*
X12578070Y-10765295D01*
X12604791Y-10744791D01*
X12604792Y-10744789D01*
X12615969Y-10736213D01*
X12682188Y-10710611D01*
X12751737Y-10724875D01*
X12770949Y-10741126D01*
X12772050Y-10739693D01*
X12785208Y-10749789D01*
X12785209Y-10749791D01*
X12860574Y-10807621D01*
X12894983Y-10834025D01*
X13022816Y-10886974D01*
X13038775Y-10889075D01*
X13160000Y-10905035D01*
X13297183Y-10886974D01*
X13425018Y-10834024D01*
X13534791Y-10749791D01*
X13580885Y-10689720D01*
X13638220Y-10647855D01*
X13709091Y-10643633D01*
X13757550Y-10666464D01*
X13799983Y-10699025D01*
X13927816Y-10751974D01*
X13943775Y-10754075D01*
X14065000Y-10770035D01*
X14202183Y-10751974D01*
X14330018Y-10699024D01*
X14439791Y-10614791D01*
X14524024Y-10505018D01*
X14555090Y-10430018D01*
X14576974Y-10377183D01*
X14586848Y-10302183D01*
X14595035Y-10240000D01*
X14576974Y-10102817D01*
X14524024Y-9974983D01*
X14439791Y-9865209D01*
X14342051Y-9790209D01*
X14330016Y-9780974D01*
X14202183Y-9728025D01*
X14080958Y-9712066D01*
X14065000Y-9709965D01*
X14064999Y-9709965D01*
X13927817Y-9728025D01*
X13799983Y-9780975D01*
X13690209Y-9865209D01*
X13644116Y-9925278D01*
X13586777Y-9967145D01*
X13515906Y-9971366D01*
X13467449Y-9948535D01*
X13425016Y-9915974D01*
X13297183Y-9863025D01*
X13175958Y-9847066D01*
X13160000Y-9844965D01*
X13159999Y-9844965D01*
X13022817Y-9863025D01*
X12894980Y-9915976D01*
X12774029Y-10008787D01*
X12707809Y-10034388D01*
X12638260Y-10020123D01*
X12619050Y-10003873D01*
X12617950Y-10005307D01*
X12604791Y-9995210D01*
X12604791Y-9995209D01*
X12525672Y-9934498D01*
X12495016Y-9910974D01*
X12367183Y-9858025D01*
X12245958Y-9842066D01*
X12230000Y-9839965D01*
X12229999Y-9839965D01*
X12092817Y-9858025D01*
X11964981Y-9910976D01*
X11896704Y-9963368D01*
X11830484Y-9988969D01*
X11760935Y-9974705D01*
X11743298Y-9963370D01*
X11705672Y-9934498D01*
X11675016Y-9910974D01*
X11547183Y-9858025D01*
X11425958Y-9842066D01*
X11410000Y-9839965D01*
X11409999Y-9839965D01*
X11272817Y-9858025D01*
X11144981Y-9910976D01*
X11061704Y-9974878D01*
X10995484Y-10000479D01*
X10925935Y-9986215D01*
X10908298Y-9974880D01*
X10855672Y-9934498D01*
X10825016Y-9910974D01*
X10697183Y-9858025D01*
X10575958Y-9842066D01*
X10560000Y-9839965D01*
X10559999Y-9839965D01*
X10422817Y-9858025D01*
X10294981Y-9910976D01*
X10264327Y-9934498D01*
X10198107Y-9960098D01*
X10128558Y-9945833D01*
X10087662Y-9911240D01*
X10077333Y-9897780D01*
X9994791Y-9790209D01*
X9986435Y-9783797D01*
X9944569Y-9726458D01*
X9940349Y-9655587D01*
X9975114Y-9593685D01*
X9986428Y-9583881D01*
X10004791Y-9569791D01*
X10089024Y-9460018D01*
X10141974Y-9332183D01*
X10160035Y-9195000D01*
X10150607Y-9123396D01*
X10161546Y-9053251D01*
X10183172Y-9022499D01*
X16782465Y-9022499D01*
X16800525Y-9159683D01*
X16853474Y-9287516D01*
X16853476Y-9287518D01*
X16937709Y-9397291D01*
X17019453Y-9460016D01*
X17047483Y-9481525D01*
X17175316Y-9534474D01*
X17191275Y-9536575D01*
X17312500Y-9552535D01*
X17449683Y-9534474D01*
X17577518Y-9481524D01*
X17687291Y-9397291D01*
X17771524Y-9287518D01*
X17809846Y-9195000D01*
X17824474Y-9159683D01*
X17824474Y-9159682D01*
X17842535Y-9022500D01*
X17824474Y-8885317D01*
X17771524Y-8757483D01*
X17687291Y-8647709D01*
X17618599Y-8594999D01*
X17577516Y-8563474D01*
X17449683Y-8510525D01*
X17321326Y-8493627D01*
X17312500Y-8492465D01*
X17312499Y-8492465D01*
X17175317Y-8510525D01*
X17047483Y-8563475D01*
X16937709Y-8647709D01*
X16853475Y-8757483D01*
X16800525Y-8885317D01*
X16782465Y-9022499D01*
X10183172Y-9022499D01*
X10186441Y-9017850D01*
X10194198Y-9010093D01*
X10256516Y-8976076D01*
X10283283Y-8973200D01*
X13956177Y-8973200D01*
X13980757Y-8975621D01*
X13995000Y-8978454D01*
X14099647Y-8957639D01*
X14165969Y-8913324D01*
X14165970Y-8913321D01*
X14170152Y-8910528D01*
X14237905Y-8889313D01*
X14256598Y-8890370D01*
X14330000Y-8900035D01*
X14467183Y-8881974D01*
X14467183Y-8881973D01*
X14595016Y-8829025D01*
X14595016Y-8829024D01*
X14595018Y-8829024D01*
X14704791Y-8744791D01*
X14789024Y-8635018D01*
X14841974Y-8507183D01*
X14860035Y-8370000D01*
X14841974Y-8232817D01*
X14789024Y-8104983D01*
X14704791Y-7995209D01*
X14636455Y-7942772D01*
X14595016Y-7910974D01*
X14537428Y-7887121D01*
X21430564Y-7887121D01*
X21463911Y-7982423D01*
X21559826Y-8135071D01*
X21687298Y-8262543D01*
X21839942Y-8358456D01*
X21935248Y-8391803D01*
X21935248Y-7887121D01*
X21430564Y-7887121D01*
X14537428Y-7887121D01*
X14467183Y-7858025D01*
X14345958Y-7842066D01*
X14330000Y-7839965D01*
X14329999Y-7839965D01*
X14192817Y-7858025D01*
X14064983Y-7910975D01*
X13955209Y-7995209D01*
X13870975Y-8104983D01*
X13818025Y-8232817D01*
X13805594Y-8327246D01*
X13776872Y-8392173D01*
X13717607Y-8431265D01*
X13680672Y-8436800D01*
X10158823Y-8436800D01*
X10134243Y-8434379D01*
X10130518Y-8433638D01*
X10120000Y-8431546D01*
X10119999Y-8431546D01*
X10015354Y-8452360D01*
X9960592Y-8488951D01*
X9960586Y-8488955D01*
X9954064Y-8493313D01*
X9949031Y-8496675D01*
X9949032Y-8496675D01*
X9949039Y-8496670D01*
X9949032Y-8496676D01*
X9949030Y-8496677D01*
X9945748Y-8498869D01*
X9945748Y-8498870D01*
X9926638Y-8511639D01*
X9918569Y-8523716D01*
X9902902Y-8542804D01*
X9807142Y-8638564D01*
X9744830Y-8672590D01*
X9701602Y-8674391D01*
X9630000Y-8664965D01*
X9492817Y-8683025D01*
X9364983Y-8735975D01*
X9255209Y-8820209D01*
X9170975Y-8929983D01*
X9118025Y-9057817D01*
X9099965Y-9194999D01*
X9118025Y-9332183D01*
X9170974Y-9460016D01*
X9170976Y-9460018D01*
X9255208Y-9569790D01*
X9255211Y-9569793D01*
X9263563Y-9576202D01*
X9305430Y-9633540D01*
X9309651Y-9704411D01*
X9274886Y-9766314D01*
X9263564Y-9776124D01*
X9245210Y-9790207D01*
X9160975Y-9899983D01*
X9108025Y-10027817D01*
X9089965Y-10164999D01*
X30000Y-10164999D01*
X30000Y-8594999D01*
X5634965Y-8594999D01*
X5653025Y-8732183D01*
X5705974Y-8860016D01*
X5723426Y-8882759D01*
X5790209Y-8969791D01*
X5858900Y-9022500D01*
X5899983Y-9054025D01*
X6027816Y-9106974D01*
X6043775Y-9109075D01*
X6165000Y-9125035D01*
X6302183Y-9106974D01*
X6302183Y-9106973D01*
X6430016Y-9054025D01*
X6430016Y-9054024D01*
X6430018Y-9054024D01*
X6539791Y-8969791D01*
X6624024Y-8860018D01*
X6636862Y-8829025D01*
X6676974Y-8732183D01*
X6676973Y-8732182D01*
X6695035Y-8595000D01*
X6676974Y-8457817D01*
X6624024Y-8329983D01*
X6539791Y-8220209D01*
X6471455Y-8167772D01*
X6430016Y-8135974D01*
X6302183Y-8083025D01*
X6180958Y-8067066D01*
X6165000Y-8064965D01*
X6164999Y-8064965D01*
X6027817Y-8083025D01*
X5899983Y-8135975D01*
X5790209Y-8220209D01*
X5705975Y-8329983D01*
X5653025Y-8457817D01*
X5634965Y-8594999D01*
X30000Y-8594999D01*
X30000Y-6534999D01*
X8944965Y-6534999D01*
X8963025Y-6672183D01*
X9015974Y-6800016D01*
X9015976Y-6800018D01*
X9100209Y-6909791D01*
X9189263Y-6978125D01*
X9209983Y-6994025D01*
X9337816Y-7046974D01*
X9353775Y-7049075D01*
X9475000Y-7065035D01*
X9612183Y-7046974D01*
X9622970Y-7042506D01*
X9740016Y-6994025D01*
X9740016Y-6994024D01*
X9740018Y-6994024D01*
X9849791Y-6909791D01*
X9934024Y-6800018D01*
X9951955Y-6756726D01*
X9996503Y-6701445D01*
X10063866Y-6679023D01*
X10096359Y-6684885D01*
X10096370Y-6684809D01*
X10136059Y-6690034D01*
X10250000Y-6705035D01*
X10387183Y-6686974D01*
X10406379Y-6679023D01*
X10515019Y-6634024D01*
X10563069Y-6597153D01*
X10629289Y-6571551D01*
X10698838Y-6585815D01*
X10716477Y-6597151D01*
X10744982Y-6619024D01*
X10781196Y-6634024D01*
X10872816Y-6671974D01*
X10874404Y-6672183D01*
X11010000Y-6690035D01*
X11147183Y-6671974D01*
X11275016Y-6619025D01*
X11275016Y-6619024D01*
X11275018Y-6619024D01*
X11317299Y-6586579D01*
X11383519Y-6560979D01*
X11453068Y-6575243D01*
X11470703Y-6586576D01*
X11512991Y-6619025D01*
X11564536Y-6658578D01*
X11692369Y-6711527D01*
X11708328Y-6713628D01*
X11829553Y-6729588D01*
X11966736Y-6711527D01*
X12094571Y-6658577D01*
X12204344Y-6574344D01*
X12238198Y-6530224D01*
X12295536Y-6488358D01*
X12366407Y-6484136D01*
X12373512Y-6486407D01*
X12377816Y-6486973D01*
X12377817Y-6486974D01*
X12515000Y-6505035D01*
X12652183Y-6486974D01*
X12706270Y-6464571D01*
X12780016Y-6434025D01*
X12780016Y-6434024D01*
X12780018Y-6434024D01*
X12889791Y-6349791D01*
X12938562Y-6286232D01*
X12995899Y-6244366D01*
X13066770Y-6240144D01*
X13086738Y-6246527D01*
X13087817Y-6246974D01*
X13207305Y-6262705D01*
X13272229Y-6291426D01*
X13311321Y-6350691D01*
X13315778Y-6371179D01*
X13333025Y-6502183D01*
X13385974Y-6630016D01*
X13393649Y-6640018D01*
X13470209Y-6739791D01*
X13548695Y-6800016D01*
X13579983Y-6824025D01*
X13707816Y-6876974D01*
X13723775Y-6879075D01*
X13845000Y-6895035D01*
X13982183Y-6876974D01*
X14085873Y-6834025D01*
X14110016Y-6824025D01*
X14110016Y-6824024D01*
X14110018Y-6824024D01*
X14219791Y-6739791D01*
X14304024Y-6630018D01*
X14308578Y-6619025D01*
X14356974Y-6502183D01*
X14365947Y-6434025D01*
X14370084Y-6402601D01*
X14382295Y-6374999D01*
X19329965Y-6374999D01*
X19348025Y-6512183D01*
X19400974Y-6640016D01*
X19400976Y-6640018D01*
X19485209Y-6749791D01*
X19574263Y-6818125D01*
X19594983Y-6834025D01*
X19722816Y-6886974D01*
X19740876Y-6889351D01*
X19860000Y-6905035D01*
X19997183Y-6886974D01*
X20125018Y-6834024D01*
X20234791Y-6749791D01*
X20319024Y-6640018D01*
X20327720Y-6619025D01*
X20371974Y-6512183D01*
X20372915Y-6505034D01*
X20390035Y-6375000D01*
X20388471Y-6363121D01*
X21383683Y-6363121D01*
X21403880Y-6542378D01*
X21463458Y-6712642D01*
X21559432Y-6865384D01*
X21603427Y-6909379D01*
X21637453Y-6971691D01*
X21632388Y-7042506D01*
X21603428Y-7087569D01*
X21559824Y-7131173D01*
X21463911Y-7283818D01*
X21430563Y-7379120D01*
X21430564Y-7379121D01*
X21979189Y-7379121D01*
X21977119Y-7380316D01*
X21903447Y-7468114D01*
X21864248Y-7575815D01*
X21864248Y-7690427D01*
X21903447Y-7798128D01*
X21977119Y-7885926D01*
X22076377Y-7943233D01*
X22160812Y-7958121D01*
X22217684Y-7958121D01*
X22302119Y-7943233D01*
X22399307Y-7887121D01*
X22443248Y-7887121D01*
X22443248Y-8391803D01*
X22538553Y-8358456D01*
X22691197Y-8262543D01*
X22818669Y-8135071D01*
X22914584Y-7982423D01*
X22947932Y-7887121D01*
X22443248Y-7887121D01*
X22399307Y-7887121D01*
X22401377Y-7885926D01*
X22475049Y-7798128D01*
X22514248Y-7690427D01*
X22514248Y-7575815D01*
X22475049Y-7468114D01*
X22401377Y-7380316D01*
X22399307Y-7379121D01*
X22947932Y-7379121D01*
X22947932Y-7379120D01*
X22914584Y-7283818D01*
X22818669Y-7131170D01*
X22775068Y-7087569D01*
X22741042Y-7025257D01*
X22746107Y-6954442D01*
X22775066Y-6909380D01*
X22819064Y-6865383D01*
X22915037Y-6712643D01*
X22974616Y-6542376D01*
X22994813Y-6363121D01*
X22974616Y-6183866D01*
X22915037Y-6013599D01*
X22915037Y-6013598D01*
X22819063Y-5860857D01*
X22775422Y-5817216D01*
X22741396Y-5754904D01*
X22746461Y-5684089D01*
X22775422Y-5639026D01*
X22819063Y-5595384D01*
X22819064Y-5595383D01*
X22915037Y-5442643D01*
X22974616Y-5272376D01*
X22994813Y-5093121D01*
X22974616Y-4913866D01*
X22915037Y-4743599D01*
X22819064Y-4590859D01*
X22819063Y-4590857D01*
X22775422Y-4547216D01*
X22741396Y-4484904D01*
X22746461Y-4414089D01*
X22775422Y-4369026D01*
X22819063Y-4325384D01*
X22855235Y-4267817D01*
X22915037Y-4172643D01*
X22974616Y-4002376D01*
X22994813Y-3823121D01*
X22974616Y-3643866D01*
X22955767Y-3590000D01*
X22915037Y-3473599D01*
X22819063Y-3320857D01*
X22775422Y-3277216D01*
X22741396Y-3214904D01*
X22746461Y-3144089D01*
X22775422Y-3099026D01*
X22819063Y-3055384D01*
X22819064Y-3055383D01*
X22915037Y-2902643D01*
X22974616Y-2732376D01*
X22994813Y-2553121D01*
X22974616Y-2373866D01*
X22915037Y-2203599D01*
X22819064Y-2050859D01*
X22819063Y-2050857D01*
X22775422Y-2007216D01*
X22741396Y-1944904D01*
X22746461Y-1874089D01*
X22775422Y-1829026D01*
X22819063Y-1785384D01*
X22819064Y-1785383D01*
X22915037Y-1632643D01*
X22974616Y-1462376D01*
X22994813Y-1283121D01*
X22974616Y-1103866D01*
X22915037Y-933599D01*
X22819064Y-780859D01*
X22819063Y-780857D01*
X22691511Y-653305D01*
X22538769Y-557331D01*
X22368505Y-497753D01*
X22248999Y-484288D01*
X22189248Y-477556D01*
X22189247Y-477556D01*
X22009990Y-497753D01*
X21839726Y-557331D01*
X21686984Y-653305D01*
X21559432Y-780857D01*
X21463458Y-933599D01*
X21403880Y-1103863D01*
X21383683Y-1283121D01*
X21403880Y-1462378D01*
X21463458Y-1632642D01*
X21559432Y-1785384D01*
X21603073Y-1829025D01*
X21637099Y-1891337D01*
X21632034Y-1962152D01*
X21603075Y-2007214D01*
X21559431Y-2050858D01*
X21463458Y-2203599D01*
X21403880Y-2373863D01*
X21383683Y-2553121D01*
X21403880Y-2732378D01*
X21463458Y-2902642D01*
X21559431Y-3055382D01*
X21603074Y-3099026D01*
X21637099Y-3161339D01*
X21632033Y-3232155D01*
X21603074Y-3277216D01*
X21559431Y-3320859D01*
X21463458Y-3473599D01*
X21403880Y-3643863D01*
X21383683Y-3823121D01*
X21403880Y-4002378D01*
X21463458Y-4172642D01*
X21559430Y-4325381D01*
X21559431Y-4325382D01*
X21559432Y-4325383D01*
X21603075Y-4369026D01*
X21637099Y-4431336D01*
X21632035Y-4502151D01*
X21603075Y-4547215D01*
X21559431Y-4590859D01*
X21463458Y-4743599D01*
X21403880Y-4913863D01*
X21383683Y-5093121D01*
X21403880Y-5272378D01*
X21463458Y-5442642D01*
X21559432Y-5595384D01*
X21603074Y-5639026D01*
X21637100Y-5701338D01*
X21632035Y-5772153D01*
X21603074Y-5817216D01*
X21559432Y-5860857D01*
X21463458Y-6013599D01*
X21403880Y-6183863D01*
X21383683Y-6363121D01*
X20388471Y-6363121D01*
X20371974Y-6237817D01*
X20319024Y-6109983D01*
X20234791Y-6000209D01*
X20159171Y-5942183D01*
X20125016Y-5915974D01*
X19997183Y-5863025D01*
X19875958Y-5847066D01*
X19860000Y-5844965D01*
X19859999Y-5844965D01*
X19722817Y-5863025D01*
X19594983Y-5915975D01*
X19485209Y-6000209D01*
X19400975Y-6109983D01*
X19348025Y-6237817D01*
X19329965Y-6374999D01*
X14382295Y-6374999D01*
X14398806Y-6337676D01*
X14446789Y-6302640D01*
X14473862Y-6291426D01*
X14540018Y-6264024D01*
X14649791Y-6179791D01*
X14734024Y-6070018D01*
X14748226Y-6035732D01*
X14786974Y-5942183D01*
X14790424Y-5915975D01*
X14805035Y-5805000D01*
X14786974Y-5667817D01*
X14734024Y-5539983D01*
X14649791Y-5430209D01*
X14558567Y-5360209D01*
X14540016Y-5345974D01*
X14412183Y-5293025D01*
X14282671Y-5275975D01*
X14275000Y-5274965D01*
X14274999Y-5274965D01*
X14137817Y-5293025D01*
X14009983Y-5345975D01*
X13920928Y-5414310D01*
X13908605Y-5423767D01*
X13900208Y-5430210D01*
X13876817Y-5460693D01*
X13819478Y-5502559D01*
X13748607Y-5506780D01*
X13686705Y-5472014D01*
X13676894Y-5460691D01*
X13599792Y-5360210D01*
X13490016Y-5275974D01*
X13362183Y-5223025D01*
X13240958Y-5207066D01*
X13225000Y-5204965D01*
X13224999Y-5204965D01*
X13087817Y-5223025D01*
X12959983Y-5275975D01*
X12850209Y-5360209D01*
X12801439Y-5423767D01*
X12744101Y-5465634D01*
X12673230Y-5469855D01*
X12653265Y-5463473D01*
X12652186Y-5463026D01*
X12549295Y-5449480D01*
X12515000Y-5444965D01*
X12514999Y-5444965D01*
X12377817Y-5463025D01*
X12249983Y-5515975D01*
X12140206Y-5600211D01*
X12106353Y-5644329D01*
X12049015Y-5686196D01*
X11978144Y-5690417D01*
X11971038Y-5688145D01*
X11865591Y-5674262D01*
X11829553Y-5669518D01*
X11829552Y-5669518D01*
X11692370Y-5687578D01*
X11564533Y-5740529D01*
X11522252Y-5772973D01*
X11456031Y-5798573D01*
X11386483Y-5784308D01*
X11368844Y-5772972D01*
X11275016Y-5700974D01*
X11147183Y-5648025D01*
X11025958Y-5632066D01*
X11010000Y-5629965D01*
X11009999Y-5629965D01*
X10872817Y-5648025D01*
X10744983Y-5700975D01*
X10696930Y-5737848D01*
X10630709Y-5763448D01*
X10561160Y-5749183D01*
X10543522Y-5737847D01*
X10515019Y-5715976D01*
X10387183Y-5663025D01*
X10273242Y-5648025D01*
X10250000Y-5644965D01*
X10249999Y-5644965D01*
X10249998Y-5644965D01*
X10248047Y-5645222D01*
X10177899Y-5634282D01*
X10124800Y-5587154D01*
X10115193Y-5568517D01*
X10064025Y-5444984D01*
X10047744Y-5423767D01*
X9979791Y-5335209D01*
X9897907Y-5272376D01*
X9870016Y-5250974D01*
X9742183Y-5198025D01*
X9620958Y-5182066D01*
X9605000Y-5179965D01*
X9604999Y-5179965D01*
X9467817Y-5198025D01*
X9339983Y-5250975D01*
X9230209Y-5335209D01*
X9145975Y-5444983D01*
X9093025Y-5572817D01*
X9074965Y-5709999D01*
X9093025Y-5847183D01*
X9152324Y-5990345D01*
X9150152Y-5991244D01*
X9167352Y-6035732D01*
X9153088Y-6105281D01*
X9118493Y-6146179D01*
X9100210Y-6160207D01*
X9015975Y-6269983D01*
X8963025Y-6397817D01*
X8944965Y-6534999D01*
X30000Y-6534999D01*
X30000Y-4404999D01*
X2839965Y-4404999D01*
X2858025Y-4542183D01*
X2910974Y-4670016D01*
X2910976Y-4670018D01*
X2995209Y-4779791D01*
X3084263Y-4848125D01*
X3104983Y-4864025D01*
X3232816Y-4916974D01*
X3250876Y-4919351D01*
X3370000Y-4935035D01*
X3507183Y-4916974D01*
X3514694Y-4913863D01*
X3635016Y-4864025D01*
X3635016Y-4864024D01*
X3635018Y-4864024D01*
X3744791Y-4779791D01*
X3829024Y-4670018D01*
X3881974Y-4542183D01*
X3900035Y-4405000D01*
X3892794Y-4349999D01*
X14779965Y-4349999D01*
X14798025Y-4487183D01*
X14850974Y-4615016D01*
X14850976Y-4615018D01*
X14935209Y-4724791D01*
X15024263Y-4793125D01*
X15044983Y-4809025D01*
X15172816Y-4861974D01*
X15188388Y-4864024D01*
X15310000Y-4880035D01*
X15447183Y-4861974D01*
X15575018Y-4809024D01*
X15684791Y-4724791D01*
X15769024Y-4615018D01*
X15821974Y-4487183D01*
X15840035Y-4350000D01*
X15821974Y-4212817D01*
X15769024Y-4084983D01*
X15684791Y-3975209D01*
X15577690Y-3893026D01*
X15575016Y-3890974D01*
X15447183Y-3838025D01*
X15325958Y-3822066D01*
X15310000Y-3819965D01*
X15309999Y-3819965D01*
X15172817Y-3838025D01*
X15044983Y-3890975D01*
X14935209Y-3975209D01*
X14850975Y-4084983D01*
X14798025Y-4212817D01*
X14779965Y-4349999D01*
X3892794Y-4349999D01*
X3881974Y-4267817D01*
X3829024Y-4139983D01*
X3744791Y-4030209D01*
X3659537Y-3964790D01*
X3635016Y-3945974D01*
X3507183Y-3893025D01*
X3385958Y-3877066D01*
X3370000Y-3874965D01*
X3369999Y-3874965D01*
X3232817Y-3893025D01*
X3104983Y-3945975D01*
X2995209Y-4030209D01*
X2910975Y-4139983D01*
X2858025Y-4267817D01*
X2839965Y-4404999D01*
X30000Y-4404999D01*
X30000Y-3589999D01*
X11114965Y-3589999D01*
X11133025Y-3727183D01*
X11185974Y-3855016D01*
X11185976Y-3855018D01*
X11270209Y-3964791D01*
X11319193Y-4002378D01*
X11379983Y-4049025D01*
X11507816Y-4101974D01*
X11525877Y-4104351D01*
X11645000Y-4120035D01*
X11782183Y-4101974D01*
X11910018Y-4049024D01*
X12019791Y-3964791D01*
X12104024Y-3855018D01*
X12156974Y-3727183D01*
X12175035Y-3590000D01*
X12156974Y-3452817D01*
X12104024Y-3324983D01*
X12019791Y-3215209D01*
X11927107Y-3144089D01*
X11910016Y-3130974D01*
X11782183Y-3078025D01*
X11660958Y-3062066D01*
X11645000Y-3059965D01*
X11644999Y-3059965D01*
X11507817Y-3078025D01*
X11379983Y-3130975D01*
X11270209Y-3215209D01*
X11185975Y-3324983D01*
X11133025Y-3452817D01*
X11114965Y-3589999D01*
X30000Y-3589999D01*
X30000Y-2454746D01*
X569500Y-2454746D01*
X581133Y-2513231D01*
X625447Y-2579552D01*
X640002Y-2589277D01*
X691769Y-2623867D01*
X750252Y-2635500D01*
X750253Y-2635500D01*
X1889747Y-2635500D01*
X1889748Y-2635500D01*
X1948231Y-2623867D01*
X1999998Y-2589276D01*
X2067750Y-2568061D01*
X2136217Y-2586843D01*
X2139983Y-2589264D01*
X2191769Y-2623867D01*
X2250252Y-2635500D01*
X2250253Y-2635500D01*
X3389747Y-2635500D01*
X3389748Y-2635500D01*
X3448231Y-2623867D01*
X3514552Y-2579552D01*
X3552736Y-2522405D01*
X3607212Y-2476879D01*
X3677655Y-2468031D01*
X3741699Y-2498672D01*
X3762261Y-2522403D01*
X3800448Y-2579552D01*
X3866769Y-2623867D01*
X3925252Y-2635500D01*
X3925253Y-2635500D01*
X5064747Y-2635500D01*
X5064748Y-2635500D01*
X5123231Y-2623867D01*
X5174998Y-2589276D01*
X5242750Y-2568061D01*
X5311217Y-2586843D01*
X5314983Y-2589264D01*
X5366769Y-2623867D01*
X5425252Y-2635500D01*
X5425253Y-2635500D01*
X6564747Y-2635500D01*
X6564748Y-2635500D01*
X6623231Y-2623867D01*
X6689552Y-2579552D01*
X6712737Y-2544853D01*
X6767210Y-2499328D01*
X6837653Y-2490479D01*
X6901698Y-2521119D01*
X6922264Y-2544854D01*
X6925688Y-2549978D01*
X6945448Y-2579552D01*
X6960003Y-2589277D01*
X7011770Y-2623867D01*
X7070253Y-2635500D01*
X7070254Y-2635500D01*
X8209748Y-2635500D01*
X8209749Y-2635500D01*
X8268232Y-2623867D01*
X8319999Y-2589276D01*
X8387751Y-2568061D01*
X8456218Y-2586843D01*
X8459984Y-2589264D01*
X8511770Y-2623867D01*
X8570253Y-2635500D01*
X8570254Y-2635500D01*
X9709748Y-2635500D01*
X9709749Y-2635500D01*
X9768232Y-2623867D01*
X9834553Y-2579552D01*
X9867736Y-2529889D01*
X9922211Y-2484364D01*
X9992654Y-2475515D01*
X10056698Y-2506156D01*
X10077265Y-2529891D01*
X10110447Y-2579552D01*
X10125002Y-2589277D01*
X10176769Y-2623867D01*
X10235252Y-2635500D01*
X10235253Y-2635500D01*
X11374747Y-2635500D01*
X11374748Y-2635500D01*
X11433231Y-2623867D01*
X11484998Y-2589276D01*
X11552750Y-2568061D01*
X11621217Y-2586843D01*
X11624983Y-2589264D01*
X11676769Y-2623867D01*
X11735252Y-2635500D01*
X11735253Y-2635500D01*
X12874747Y-2635500D01*
X12874748Y-2635500D01*
X12933231Y-2623867D01*
X12934003Y-2623350D01*
X13001752Y-2602135D01*
X13070220Y-2620916D01*
X13116271Y-2670911D01*
X13117358Y-2673045D01*
X13206952Y-2762639D01*
X13319852Y-2820164D01*
X13413519Y-2834999D01*
X13741000Y-2834999D01*
X13741000Y-1589514D01*
X13759505Y-1682545D01*
X13814760Y-1765240D01*
X13897455Y-1820495D01*
X13970376Y-1835000D01*
X14019624Y-1835000D01*
X14092545Y-1820495D01*
X14175240Y-1765240D01*
X14230495Y-1682545D01*
X14249000Y-1589514D01*
X14249000Y-2834999D01*
X14576480Y-2834999D01*
X14670147Y-2820164D01*
X14783047Y-2762639D01*
X14873282Y-2672405D01*
X14935594Y-2638379D01*
X14962377Y-2635500D01*
X16064747Y-2635500D01*
X16064748Y-2635500D01*
X16123231Y-2623867D01*
X16189552Y-2579552D01*
X16233867Y-2513231D01*
X16245500Y-2454748D01*
X16245500Y-715252D01*
X16233867Y-656769D01*
X16212735Y-625143D01*
X16189552Y-590447D01*
X16123231Y-546133D01*
X16123231Y-546132D01*
X16064748Y-534500D01*
X14962377Y-534500D01*
X14894256Y-514498D01*
X14873282Y-497595D01*
X14783047Y-407360D01*
X14670147Y-349835D01*
X14576480Y-335000D01*
X14249000Y-335000D01*
X14249000Y-1580485D01*
X14230495Y-1487455D01*
X14175240Y-1404760D01*
X14092545Y-1349505D01*
X14019624Y-1335000D01*
X13970376Y-1335000D01*
X13897455Y-1349505D01*
X13814760Y-1404760D01*
X13759505Y-1487455D01*
X13741000Y-1580485D01*
X13741000Y-335000D01*
X13413519Y-335000D01*
X13319852Y-349835D01*
X13206952Y-407360D01*
X13117357Y-496955D01*
X13116270Y-499090D01*
X13067520Y-550704D01*
X12998605Y-567768D01*
X12934003Y-546649D01*
X12933231Y-546133D01*
X12933231Y-546132D01*
X12874748Y-534500D01*
X11735252Y-534500D01*
X11706010Y-540316D01*
X11676768Y-546133D01*
X11625002Y-580723D01*
X11557249Y-601938D01*
X11488782Y-583155D01*
X11484998Y-580723D01*
X11433231Y-546133D01*
X11433231Y-546132D01*
X11374748Y-534500D01*
X10235252Y-534500D01*
X10206010Y-540316D01*
X10176768Y-546133D01*
X10110446Y-590448D01*
X10077264Y-640109D01*
X10022787Y-685636D01*
X9952344Y-694483D01*
X9888300Y-663842D01*
X9867735Y-640108D01*
X9834553Y-590447D01*
X9768232Y-546133D01*
X9768231Y-546132D01*
X9709749Y-534500D01*
X8570253Y-534500D01*
X8541011Y-540316D01*
X8511769Y-546133D01*
X8460003Y-580723D01*
X8392250Y-601938D01*
X8323783Y-583155D01*
X8319999Y-580723D01*
X8268232Y-546133D01*
X8268231Y-546132D01*
X8209749Y-534500D01*
X7070253Y-534500D01*
X7041011Y-540316D01*
X7011769Y-546133D01*
X6945449Y-590447D01*
X6922265Y-625145D01*
X6867787Y-670672D01*
X6797344Y-679519D01*
X6733300Y-648878D01*
X6712735Y-625143D01*
X6689553Y-590448D01*
X6623231Y-546133D01*
X6623231Y-546132D01*
X6564748Y-534500D01*
X5425252Y-534500D01*
X5396010Y-540316D01*
X5366768Y-546133D01*
X5315002Y-580723D01*
X5247249Y-601938D01*
X5178782Y-583155D01*
X5174998Y-580723D01*
X5123231Y-546133D01*
X5123231Y-546132D01*
X5064748Y-534500D01*
X3925252Y-534500D01*
X3896010Y-540316D01*
X3866768Y-546133D01*
X3800447Y-590447D01*
X3762265Y-647592D01*
X3707788Y-693120D01*
X3637345Y-701967D01*
X3573301Y-671326D01*
X3552735Y-647592D01*
X3514552Y-590447D01*
X3448231Y-546133D01*
X3448230Y-546132D01*
X3389748Y-534500D01*
X2250252Y-534500D01*
X2221010Y-540316D01*
X2191768Y-546133D01*
X2140002Y-580723D01*
X2072249Y-601938D01*
X2003782Y-583155D01*
X1999998Y-580723D01*
X1948231Y-546133D01*
X1948230Y-546132D01*
X1889748Y-534500D01*
X750252Y-534500D01*
X721010Y-540316D01*
X691768Y-546133D01*
X625447Y-590447D01*
X581133Y-656768D01*
X569500Y-715253D01*
X569500Y-2454746D01*
X30000Y-2454746D01*
X30000Y-156000D01*
X50002Y-87879D01*
X103658Y-41386D01*
X156000Y-30000D01*
X23834066Y-30000D01*
X23902187Y-50002D01*
G37*
%TD.AperFunction*%
%TD*%
M02*
