%TF.GenerationSoftware,KiCad,Pcbnew,7.0.2-6a45011f42~172~ubuntu22.04.1*%
%TF.CreationDate,2023-06-02T20:05:51+08:00*%
%TF.ProjectId,fly2040,666c7932-3034-4302-9e6b-696361645f70,rev?*%
%TF.SameCoordinates,PX4323800PY2f1c8c0*%
%TF.FileFunction,Legend,Top*%
%TF.FilePolarity,Positive*%
%FSLAX46Y46*%
G04 Gerber Fmt 4.6, Leading zero omitted, Abs format (unit mm)*
G04 Created by KiCad (PCBNEW 7.0.2-6a45011f42~172~ubuntu22.04.1) date 2023-06-02 20:05:51*
%MOMM*%
%LPD*%
G01*
G04 APERTURE LIST*
G04 Aperture macros list*
%AMRoundRect*
0 Rectangle with rounded corners*
0 $1 Rounding radius*
0 $2 $3 $4 $5 $6 $7 $8 $9 X,Y pos of 4 corners*
0 Add a 4 corners polygon primitive as box body*
4,1,4,$2,$3,$4,$5,$6,$7,$8,$9,$2,$3,0*
0 Add four circle primitives for the rounded corners*
1,1,$1+$1,$2,$3*
1,1,$1+$1,$4,$5*
1,1,$1+$1,$6,$7*
1,1,$1+$1,$8,$9*
0 Add four rect primitives between the rounded corners*
20,1,$1+$1,$2,$3,$4,$5,0*
20,1,$1+$1,$4,$5,$6,$7,0*
20,1,$1+$1,$6,$7,$8,$9,0*
20,1,$1+$1,$8,$9,$2,$3,0*%
G04 Aperture macros list end*
%ADD10C,0.120000*%
%ADD11C,0.254000*%
%ADD12C,0.152000*%
%ADD13C,0.200000*%
%ADD14C,0.300000*%
%ADD15C,0.100000*%
%ADD16C,0.150000*%
%ADD17RoundRect,0.135000X0.135000X0.185000X-0.135000X0.185000X-0.135000X-0.185000X0.135000X-0.185000X0*%
%ADD18RoundRect,0.135000X-0.135000X-0.185000X0.135000X-0.185000X0.135000X0.185000X-0.135000X0.185000X0*%
%ADD19RoundRect,0.135000X-0.185000X0.135000X-0.185000X-0.135000X0.185000X-0.135000X0.185000X0.135000X0*%
%ADD20RoundRect,0.135000X0.185000X-0.135000X0.185000X0.135000X-0.185000X0.135000X-0.185000X-0.135000X0*%
%ADD21RoundRect,0.140000X-0.170000X0.140000X-0.170000X-0.140000X0.170000X-0.140000X0.170000X0.140000X0*%
%ADD22RoundRect,0.140000X-0.140000X-0.170000X0.140000X-0.170000X0.140000X0.170000X-0.140000X0.170000X0*%
%ADD23RoundRect,0.140000X0.170000X-0.140000X0.170000X0.140000X-0.170000X0.140000X-0.170000X-0.140000X0*%
%ADD24RoundRect,0.140000X0.140000X0.170000X-0.140000X0.170000X-0.140000X-0.170000X0.140000X-0.170000X0*%
%ADD25RoundRect,0.100000X-0.550000X0.850000X-0.550000X-0.850000X0.550000X-0.850000X0.550000X0.850000X0*%
%ADD26R,0.200000X1.100000*%
%ADD27R,1.100000X0.200000*%
%ADD28R,3.100000X3.100000*%
%ADD29R,0.280000X0.600000*%
%ADD30R,1.700000X0.300000*%
%ADD31O,1.000000X1.000000*%
%ADD32RoundRect,0.100000X-0.850000X-0.550000X0.850000X-0.550000X0.850000X0.550000X-0.850000X0.550000X0*%
%ADD33R,0.532000X1.045000*%
%ADD34R,0.280000X0.800000*%
%ADD35R,0.800000X0.280000*%
%ADD36R,2.050000X2.050000*%
%ADD37R,1.000000X1.524000*%
%ADD38R,1.200000X1.400000*%
%ADD39R,0.450000X0.450000*%
%ADD40R,0.750000X0.200000*%
%ADD41R,0.665000X0.200000*%
%ADD42R,0.200000X0.665000*%
%ADD43R,1.040000X0.455000*%
G04 APERTURE END LIST*
D10*
%TO.C,R16*%
X16223641Y-18315000D02*
X15916359Y-18315000D01*
X16223641Y-17555000D02*
X15916359Y-17555000D01*
%TO.C,R15*%
X14218641Y-18325000D02*
X13911359Y-18325000D01*
X14218641Y-17565000D02*
X13911359Y-17565000D01*
%TO.C,R14*%
X22336360Y-14300000D02*
X22643642Y-14300000D01*
X22336360Y-15060000D02*
X22643642Y-15060000D01*
%TO.C,R13*%
X19820000Y-14491359D02*
X19820000Y-14798641D01*
X19060000Y-14491359D02*
X19060000Y-14798641D01*
%TO.C,R12*%
X1650000Y-3801359D02*
X1650000Y-4108641D01*
X890000Y-3801359D02*
X890000Y-4108641D01*
%TO.C,R9*%
X1653641Y-12005000D02*
X1346359Y-12005000D01*
X1653641Y-11245000D02*
X1346359Y-11245000D01*
%TO.C,R8*%
X18870000Y-11398641D02*
X18870000Y-11091359D01*
X19630000Y-11398641D02*
X19630000Y-11091359D01*
%TO.C,R7*%
X20416360Y-12720000D02*
X20723642Y-12720000D01*
X20416360Y-13480000D02*
X20723642Y-13480000D01*
%TO.C,R6*%
X20405000Y-5743641D02*
X20405000Y-5436359D01*
X21165000Y-5743641D02*
X21165000Y-5436359D01*
%TO.C,R5*%
X21165000Y-3451359D02*
X21165000Y-3758641D01*
X20405000Y-3451359D02*
X20405000Y-3758641D01*
%TO.C,R4*%
X17620000Y-15461359D02*
X17620000Y-15768641D01*
X16860000Y-15461359D02*
X16860000Y-15768641D01*
%TO.C,R3*%
X18665000Y-15466359D02*
X18665000Y-15773641D01*
X17905000Y-15466359D02*
X17905000Y-15773641D01*
%TO.C,R2*%
X7130000Y-12218641D02*
X7130000Y-11911359D01*
X7890000Y-12218641D02*
X7890000Y-11911359D01*
%TO.C,R1*%
X4730000Y-8943641D02*
X4730000Y-8636359D01*
X5490000Y-8943641D02*
X5490000Y-8636359D01*
%TO.C,C14*%
X20425000Y-7447164D02*
X20425000Y-7662836D01*
X21145000Y-7447164D02*
X21145000Y-7662836D01*
%TO.C,C13*%
X5770000Y-9982164D02*
X5770000Y-10197836D01*
X6490000Y-9982164D02*
X6490000Y-10197836D01*
%TO.C,C12*%
X12917164Y-3675000D02*
X13132836Y-3675000D01*
X12917164Y-2955000D02*
X13132836Y-2955000D01*
%TO.C,C11*%
X15682164Y-3670000D02*
X15897836Y-3670000D01*
X15682164Y-2950000D02*
X15897836Y-2950000D01*
%TO.C,C10*%
X18707164Y-10055000D02*
X18922836Y-10055000D01*
X18707164Y-9335000D02*
X18922836Y-9335000D01*
%TO.C,C9*%
X15832164Y-14000000D02*
X16047836Y-14000000D01*
X15832164Y-13280000D02*
X16047836Y-13280000D01*
%TO.C,C8*%
X20865000Y-14757836D02*
X20865000Y-14542164D01*
X20145000Y-14757836D02*
X20145000Y-14542164D01*
%TO.C,C7*%
X10800000Y-13407164D02*
X10800000Y-13622836D01*
X11520000Y-13407164D02*
X11520000Y-13622836D01*
%TO.C,C6*%
X16047836Y-12212500D02*
X15832164Y-12212500D01*
X16047836Y-12932500D02*
X15832164Y-12932500D01*
%TO.C,C5*%
X16457164Y-11905000D02*
X16672836Y-11905000D01*
X16457164Y-11185000D02*
X16672836Y-11185000D01*
%TO.C,C4*%
X6775000Y-9382164D02*
X6775000Y-9597836D01*
X7495000Y-9382164D02*
X7495000Y-9597836D01*
%TO.C,C3*%
X2642164Y-5835000D02*
X2857836Y-5835000D01*
X2642164Y-5115000D02*
X2857836Y-5115000D01*
%TO.C,C2*%
X18707164Y-8990000D02*
X18922836Y-8990000D01*
X18707164Y-8270000D02*
X18922836Y-8270000D01*
%TO.C,C1*%
X2657164Y-10915000D02*
X2872836Y-10915000D01*
X2657164Y-10195000D02*
X2872836Y-10195000D01*
D11*
%TO.C,U1*%
X15395000Y-4705000D02*
X15395000Y-5274000D01*
X14826000Y-4705000D02*
X15395000Y-4705000D01*
X14826000Y-4705000D02*
X15395000Y-5274000D01*
X8395000Y-4705000D02*
X8964000Y-4705000D01*
X8395000Y-4805000D02*
X8395000Y-4705000D01*
X15395000Y-4964000D02*
X15298000Y-4964000D01*
X15298000Y-4964000D02*
X15039000Y-4705000D01*
X8395000Y-5274000D02*
X8395000Y-4805000D01*
X15395000Y-11136000D02*
X15395000Y-11705000D01*
X15395000Y-11705000D02*
X14826000Y-11705000D01*
X8964000Y-11705000D02*
X8395000Y-11705000D01*
X8395000Y-11705000D02*
X8395000Y-11136000D01*
X15722000Y-4205000D02*
G75*
G03*
X15722000Y-4205000I-127000J0D01*
G01*
D12*
%TO.C,U2*%
X19691000Y-7268500D02*
X19691000Y-4116500D01*
X17539000Y-4116500D02*
X17539000Y-7268500D01*
D13*
X19477000Y-3660500D02*
G75*
G03*
X19477000Y-3660500I-100000J0D01*
G01*
D12*
%TO.C,U4*%
X23015500Y-9419250D02*
X23015500Y-11221250D01*
X21009500Y-11221250D02*
X21919500Y-11221250D01*
X19913500Y-9419250D02*
X19913500Y-11221250D01*
D14*
X23282500Y-9020250D02*
G75*
G03*
X23282500Y-9020250I-150000J0D01*
G01*
D11*
%TO.C,U6*%
X8030000Y-13650000D02*
X7401000Y-13650000D01*
X6659000Y-13650000D02*
X5903000Y-13650000D01*
X5161000Y-13650000D02*
X4530000Y-13650000D01*
X4530000Y-13650000D02*
X4530000Y-13650000D01*
X4530000Y-13650000D02*
X4530000Y-14030000D01*
X8030000Y-14029000D02*
X8030000Y-13650000D01*
X4530000Y-16773000D02*
X4530000Y-17150000D01*
X8030000Y-17150000D02*
X8030000Y-16771000D01*
X7401000Y-17150000D02*
X8030000Y-17150000D01*
X5901000Y-17150000D02*
X6659000Y-17150000D01*
X4530000Y-17150000D02*
X5159000Y-17150000D01*
X4530000Y-17150000D02*
X4530000Y-17150000D01*
X5080000Y-13300000D02*
G75*
G03*
X5080000Y-13300000I-100000J0D01*
G01*
D12*
%TO.C,U3*%
X9904000Y-17496000D02*
X9904000Y-15694000D01*
X11910000Y-15694000D02*
X11000000Y-15694000D01*
X13006000Y-17496000D02*
X13006000Y-15694000D01*
D14*
X9937000Y-17895000D02*
G75*
G03*
X9937000Y-17895000I-150000J0D01*
G01*
D11*
%TO.C,SW1*%
X20019000Y-2686000D02*
X16971000Y-2686000D01*
X20019000Y-654000D02*
X16971000Y-654000D01*
X17986509Y-1415748D02*
G75*
G03*
X18093001Y-1268001I508491J-254252D01*
G01*
D12*
%TO.C,X1*%
X4152000Y-10306000D02*
X4660000Y-10306000D01*
X4660000Y-10306000D02*
X4660000Y-9798000D01*
X1104000Y-10049000D02*
X1104000Y-5988000D01*
X4434000Y-10049000D02*
X1104000Y-10049000D01*
X1104000Y-5988000D02*
X2755000Y-5988000D01*
X2755000Y-5988000D02*
X4406000Y-5988000D01*
X4406000Y-5988000D02*
X4434000Y-10049000D01*
X4406000Y-5988000D02*
X4406000Y-5988000D01*
D15*
%TO.C,U7*%
X3357500Y-11120000D02*
X3357500Y-12820000D01*
X3357500Y-12820000D02*
X5057500Y-12820000D01*
X5057500Y-11120000D02*
X3357500Y-11120000D01*
X5057500Y-12820000D02*
X5057500Y-11120000D01*
X3257500Y-11270000D02*
G75*
G03*
X3257500Y-11270000I-50000J0D01*
G01*
D10*
X4257500Y-12470000D02*
X4107500Y-12370000D01*
X4257500Y-12270000D01*
X4257500Y-12470000D01*
G36*
X4257500Y-12470000D02*
G01*
X4107500Y-12370000D01*
X4257500Y-12270000D01*
X4257500Y-12470000D01*
G37*
X5482500Y-11545000D02*
X5032500Y-11545000D01*
X5032500Y-11445000D01*
X5482500Y-11445000D01*
X5482500Y-11545000D01*
G36*
X5482500Y-11545000D02*
G01*
X5032500Y-11545000D01*
X5032500Y-11445000D01*
X5482500Y-11445000D01*
X5482500Y-11545000D01*
G37*
X5307500Y-11720000D02*
X5207500Y-11720000D01*
X5207500Y-11270000D01*
X5307500Y-11270000D01*
X5307500Y-11720000D01*
G36*
X5307500Y-11720000D02*
G01*
X5207500Y-11720000D01*
X5207500Y-11270000D01*
X5307500Y-11270000D01*
X5307500Y-11720000D01*
G37*
X3877500Y-12100000D02*
X3867500Y-12100000D01*
X3707500Y-12100000D01*
X3707500Y-11970000D01*
X3877500Y-11970000D01*
X3877500Y-12100000D01*
G36*
X3877500Y-12100000D02*
G01*
X3867500Y-12100000D01*
X3707500Y-12100000D01*
X3707500Y-11970000D01*
X3877500Y-11970000D01*
X3877500Y-12100000D01*
G37*
D15*
%TO.C,U5*%
X20675000Y-15945000D02*
X20675000Y-16481000D01*
X20549000Y-15945000D02*
X20675000Y-15945000D01*
X19105000Y-15945000D02*
X19241000Y-15945000D01*
X19105000Y-16481000D02*
X19105000Y-15945000D01*
X20685000Y-17335000D02*
X20685000Y-17865000D01*
X20685000Y-17865000D02*
X20549000Y-17865000D01*
X19241000Y-17865000D02*
X19135000Y-17865000D01*
X19135000Y-17865000D02*
X19105000Y-17865000D01*
X19105000Y-17865000D02*
X19105000Y-17389000D01*
D16*
X18830000Y-16375000D02*
G75*
G03*
X18830000Y-16375000I-75000J0D01*
G01*
D12*
%TO.C,U8*%
X14139000Y-14264000D02*
X15791000Y-14264000D01*
X15791000Y-16284000D02*
X15791000Y-15296000D01*
X14139000Y-17316000D02*
X15791000Y-17316000D01*
D14*
X13868000Y-14160000D02*
G75*
G03*
X13868000Y-14160000I-150000J0D01*
G01*
%TD*%
%LPC*%
D17*
%TO.C,R16*%
X16580000Y-17935000D03*
X15560000Y-17935000D03*
%TD*%
%TO.C,R15*%
X14575000Y-17945000D03*
X13555000Y-17945000D03*
%TD*%
D18*
%TO.C,R14*%
X21980001Y-14680000D03*
X23000001Y-14680000D03*
%TD*%
D19*
%TO.C,R13*%
X19440000Y-14135000D03*
X19440000Y-15155000D03*
%TD*%
%TO.C,R12*%
X1270000Y-3445000D03*
X1270000Y-4465000D03*
%TD*%
D17*
%TO.C,R9*%
X2010000Y-11625000D03*
X990000Y-11625000D03*
%TD*%
D20*
%TO.C,R8*%
X19250000Y-11755000D03*
X19250000Y-10735000D03*
%TD*%
D18*
%TO.C,R7*%
X20060001Y-13100000D03*
X21080001Y-13100000D03*
%TD*%
D20*
%TO.C,R6*%
X20785000Y-6100000D03*
X20785000Y-5080000D03*
%TD*%
D19*
%TO.C,R5*%
X20785000Y-3095000D03*
X20785000Y-4115000D03*
%TD*%
%TO.C,R4*%
X17240000Y-15105000D03*
X17240000Y-16125000D03*
%TD*%
%TO.C,R3*%
X18285000Y-15110000D03*
X18285000Y-16130000D03*
%TD*%
D20*
%TO.C,R2*%
X7510000Y-12575000D03*
X7510000Y-11555000D03*
%TD*%
%TO.C,R1*%
X5110000Y-9300000D03*
X5110000Y-8280000D03*
%TD*%
D21*
%TO.C,C14*%
X20785000Y-7075000D03*
X20785000Y-8035000D03*
%TD*%
%TO.C,C13*%
X6130000Y-9610000D03*
X6130000Y-10570000D03*
%TD*%
D22*
%TO.C,C12*%
X12545000Y-3315000D03*
X13505000Y-3315000D03*
%TD*%
%TO.C,C11*%
X15310000Y-3310000D03*
X16270000Y-3310000D03*
%TD*%
%TO.C,C10*%
X18335000Y-9695000D03*
X19295000Y-9695000D03*
%TD*%
%TO.C,C9*%
X15460000Y-13640000D03*
X16420000Y-13640000D03*
%TD*%
D23*
%TO.C,C8*%
X20505000Y-15130000D03*
X20505000Y-14170000D03*
%TD*%
D21*
%TO.C,C7*%
X11160000Y-13035000D03*
X11160000Y-13995000D03*
%TD*%
D24*
%TO.C,C6*%
X16420000Y-12572500D03*
X15460000Y-12572500D03*
%TD*%
D22*
%TO.C,C5*%
X16085000Y-11545000D03*
X17045000Y-11545000D03*
%TD*%
D21*
%TO.C,C4*%
X7135000Y-9010000D03*
X7135000Y-9970000D03*
%TD*%
D22*
%TO.C,C3*%
X2270000Y-5475000D03*
X3230000Y-5475000D03*
%TD*%
%TO.C,C2*%
X18335000Y-8630000D03*
X19295000Y-8630000D03*
%TD*%
%TO.C,C1*%
X2285000Y-10555000D03*
X3245000Y-10555000D03*
%TD*%
D25*
%TO.C,J9*%
X9140001Y-1585000D03*
X7640001Y-1585000D03*
%TD*%
D26*
%TO.C,U1*%
X14495000Y-4655000D03*
X14095000Y-4655000D03*
X13695000Y-4655000D03*
X13295000Y-4655000D03*
X12895000Y-4655000D03*
X12495000Y-4655000D03*
X12095000Y-4655000D03*
X11695000Y-4655000D03*
X11295000Y-4655000D03*
X10895000Y-4655000D03*
X10495000Y-4655000D03*
X10095000Y-4655000D03*
X9695000Y-4655000D03*
X9295000Y-4655000D03*
D27*
X8345000Y-5605000D03*
X8345000Y-6005000D03*
X8345000Y-6405000D03*
X8345000Y-6805000D03*
X8345000Y-7205000D03*
X8345000Y-7605000D03*
X8345000Y-8005000D03*
X8345000Y-8405000D03*
X8345000Y-8805000D03*
X8345000Y-9205000D03*
X8345000Y-9605000D03*
X8345000Y-10005000D03*
X8345000Y-10405000D03*
X8345000Y-10805000D03*
D26*
X9295000Y-11755000D03*
X9695000Y-11755000D03*
X10095000Y-11755000D03*
X10495000Y-11755000D03*
X10895000Y-11755000D03*
X11295000Y-11755000D03*
X11695000Y-11755000D03*
X12095000Y-11755000D03*
X12495000Y-11755000D03*
X12895000Y-11755000D03*
X13295000Y-11755000D03*
X13695000Y-11755000D03*
X14095000Y-11755000D03*
X14495000Y-11755000D03*
D27*
X15445000Y-10805000D03*
X15445000Y-10405000D03*
X15445000Y-10005000D03*
X15445000Y-9605000D03*
X15445000Y-9205000D03*
X15445000Y-8805000D03*
X15445000Y-8405000D03*
X15445000Y-8005000D03*
X15445000Y-7605000D03*
X15445000Y-7205000D03*
X15445000Y-6805000D03*
X15445000Y-6405000D03*
X15445000Y-6005000D03*
X15445000Y-5605000D03*
D28*
X11895000Y-8205000D03*
%TD*%
D29*
%TO.C,U2*%
X19365000Y-4185500D03*
X18865000Y-4185500D03*
X18365000Y-4185500D03*
X17865000Y-4185500D03*
X17865000Y-7199500D03*
X18365000Y-7199500D03*
X18865000Y-7199500D03*
X19365000Y-7199500D03*
D30*
X18615000Y-5692500D03*
%TD*%
D25*
%TO.C,J10*%
X12305000Y-1585000D03*
X10805000Y-1585000D03*
%TD*%
D31*
%TO.C,J8*%
X22189248Y-1283121D03*
X22189248Y-2553121D03*
X22189248Y-3823121D03*
X22189248Y-5093121D03*
X22189248Y-6363121D03*
X22189248Y-7633121D03*
%TD*%
D25*
%TO.C,J1*%
X15495000Y-1585000D03*
X13995000Y-1585000D03*
%TD*%
D32*
%TO.C,J4*%
X1645000Y-16124999D03*
X1645000Y-17624999D03*
%TD*%
D33*
%TO.C,U4*%
X22414500Y-9172250D03*
X21464500Y-9172250D03*
X20514500Y-9172250D03*
X20514500Y-11468250D03*
X22414500Y-11468250D03*
%TD*%
D25*
%TO.C,J2*%
X2820000Y-1585000D03*
X1320000Y-1585000D03*
%TD*%
%TO.C,J6*%
X5995000Y-1585000D03*
X4495000Y-1585000D03*
%TD*%
D34*
%TO.C,U6*%
X5530000Y-13650000D03*
D35*
X4530000Y-14402000D03*
X4530000Y-14902000D03*
X4530000Y-15402000D03*
X4530000Y-15902000D03*
X4530000Y-16402000D03*
D34*
X5530000Y-17150000D03*
X7030000Y-17150000D03*
D35*
X8030000Y-16400000D03*
X8030000Y-15900000D03*
X8030000Y-15400000D03*
X8030000Y-14900000D03*
X8030000Y-14400000D03*
D34*
X7030000Y-13650000D03*
D36*
X6280000Y-15400000D03*
%TD*%
D32*
%TO.C,J5*%
X22335000Y-16130000D03*
X22335000Y-17630000D03*
%TD*%
%TO.C,J3*%
X1645000Y-12965000D03*
X1645000Y-14465000D03*
%TD*%
D33*
%TO.C,U3*%
X10505000Y-17743000D03*
X11455000Y-17743000D03*
X12405000Y-17743000D03*
X12405000Y-15447000D03*
X10505000Y-15447000D03*
%TD*%
D37*
%TO.C,SW1*%
X20095000Y-1670000D03*
X16895000Y-1670000D03*
%TD*%
D38*
%TO.C,X1*%
X3630000Y-9120000D03*
X3630000Y-6920000D03*
X1880000Y-6920000D03*
X1880000Y-9120000D03*
%TD*%
D39*
%TO.C,U7*%
X3782500Y-11545000D03*
X4632500Y-11545000D03*
X3782500Y-12395000D03*
X4632500Y-12395000D03*
%TD*%
D40*
%TO.C,U5*%
X19330000Y-16735000D03*
D41*
X19287000Y-17135000D03*
D42*
X19495000Y-17767000D03*
X19895000Y-17767000D03*
X20295000Y-17767000D03*
D41*
X20503000Y-17135000D03*
X20503000Y-16735000D03*
D42*
X20295000Y-16103000D03*
X19895000Y-16103000D03*
X19495000Y-16103000D03*
%TD*%
D43*
%TO.C,U8*%
X13870000Y-14840000D03*
X13870000Y-15790000D03*
X13870000Y-16740000D03*
X16060000Y-16740000D03*
X16060000Y-14840000D03*
%TD*%
%LPD*%
M02*
