%TF.GenerationSoftware,KiCad,Pcbnew,7.0.2-6a45011f42~172~ubuntu22.04.1*%
%TF.CreationDate,2023-05-22T20:19:49+08:00*%
%TF.ProjectId,fly2040,666c7932-3034-4302-9e6b-696361645f70,rev?*%
%TF.SameCoordinates,PX4323800PY2f1c8c0*%
%TF.FileFunction,Legend,Bot*%
%TF.FilePolarity,Positive*%
%FSLAX46Y46*%
G04 Gerber Fmt 4.6, Leading zero omitted, Abs format (unit mm)*
G04 Created by KiCad (PCBNEW 7.0.2-6a45011f42~172~ubuntu22.04.1) date 2023-05-22 20:19:49*
%MOMM*%
%LPD*%
G01*
G04 APERTURE LIST*
G04 Aperture macros list*
%AMRoundRect*
0 Rectangle with rounded corners*
0 $1 Rounding radius*
0 $2 $3 $4 $5 $6 $7 $8 $9 X,Y pos of 4 corners*
0 Add a 4 corners polygon primitive as box body*
4,1,4,$2,$3,$4,$5,$6,$7,$8,$9,$2,$3,0*
0 Add four circle primitives for the rounded corners*
1,1,$1+$1,$2,$3*
1,1,$1+$1,$4,$5*
1,1,$1+$1,$6,$7*
1,1,$1+$1,$8,$9*
0 Add four rect primitives between the rounded corners*
20,1,$1+$1,$2,$3,$4,$5,0*
20,1,$1+$1,$4,$5,$6,$7,0*
20,1,$1+$1,$6,$7,$8,$9,0*
20,1,$1+$1,$8,$9,$2,$3,0*%
G04 Aperture macros list end*
%ADD10C,0.150000*%
%ADD11R,1.300000X2.000000*%
%ADD12RoundRect,0.100000X-0.550000X0.900000X-0.550000X-0.900000X0.550000X-0.900000X0.550000X0.900000X0*%
%ADD13O,1.000000X1.000000*%
%ADD14RoundRect,0.100000X0.550000X-0.900000X0.550000X0.900000X-0.550000X0.900000X-0.550000X-0.900000X0*%
%ADD15R,2.000000X1.300000*%
%ADD16RoundRect,0.100000X-0.900000X-0.550000X0.900000X-0.550000X0.900000X0.550000X-0.900000X0.550000X0*%
G04 APERTURE END LIST*
D10*
X9267619Y-3526904D02*
X9267619Y-2955476D01*
X9267619Y-3241190D02*
X8267619Y-3241190D01*
X8267619Y-3241190D02*
X8410476Y-3145952D01*
X8410476Y-3145952D02*
X8505714Y-3050714D01*
X8505714Y-3050714D02*
X8553333Y-2955476D01*
X8267619Y-4145952D02*
X8267619Y-4241190D01*
X8267619Y-4241190D02*
X8315238Y-4336428D01*
X8315238Y-4336428D02*
X8362857Y-4384047D01*
X8362857Y-4384047D02*
X8458095Y-4431666D01*
X8458095Y-4431666D02*
X8648571Y-4479285D01*
X8648571Y-4479285D02*
X8886666Y-4479285D01*
X8886666Y-4479285D02*
X9077142Y-4431666D01*
X9077142Y-4431666D02*
X9172380Y-4384047D01*
X9172380Y-4384047D02*
X9220000Y-4336428D01*
X9220000Y-4336428D02*
X9267619Y-4241190D01*
X9267619Y-4241190D02*
X9267619Y-4145952D01*
X9267619Y-4145952D02*
X9220000Y-4050714D01*
X9220000Y-4050714D02*
X9172380Y-4003095D01*
X9172380Y-4003095D02*
X9077142Y-3955476D01*
X9077142Y-3955476D02*
X8886666Y-3907857D01*
X8886666Y-3907857D02*
X8648571Y-3907857D01*
X8648571Y-3907857D02*
X8458095Y-3955476D01*
X8458095Y-3955476D02*
X8362857Y-4003095D01*
X8362857Y-4003095D02*
X8315238Y-4050714D01*
X8315238Y-4050714D02*
X8267619Y-4145952D01*
X8537619Y-15106904D02*
X8537619Y-14535476D01*
X8537619Y-14821190D02*
X7537619Y-14821190D01*
X7537619Y-14821190D02*
X7680476Y-14725952D01*
X7680476Y-14725952D02*
X7775714Y-14630714D01*
X7775714Y-14630714D02*
X7823333Y-14535476D01*
X8537619Y-15583095D02*
X8537619Y-15773571D01*
X8537619Y-15773571D02*
X8490000Y-15868809D01*
X8490000Y-15868809D02*
X8442380Y-15916428D01*
X8442380Y-15916428D02*
X8299523Y-16011666D01*
X8299523Y-16011666D02*
X8109047Y-16059285D01*
X8109047Y-16059285D02*
X7728095Y-16059285D01*
X7728095Y-16059285D02*
X7632857Y-16011666D01*
X7632857Y-16011666D02*
X7585238Y-15964047D01*
X7585238Y-15964047D02*
X7537619Y-15868809D01*
X7537619Y-15868809D02*
X7537619Y-15678333D01*
X7537619Y-15678333D02*
X7585238Y-15583095D01*
X7585238Y-15583095D02*
X7632857Y-15535476D01*
X7632857Y-15535476D02*
X7728095Y-15487857D01*
X7728095Y-15487857D02*
X7966190Y-15487857D01*
X7966190Y-15487857D02*
X8061428Y-15535476D01*
X8061428Y-15535476D02*
X8109047Y-15583095D01*
X8109047Y-15583095D02*
X8156666Y-15678333D01*
X8156666Y-15678333D02*
X8156666Y-15868809D01*
X8156666Y-15868809D02*
X8109047Y-15964047D01*
X8109047Y-15964047D02*
X8061428Y-16011666D01*
X8061428Y-16011666D02*
X7966190Y-16059285D01*
X2582380Y-5834523D02*
X2630000Y-5786904D01*
X2630000Y-5786904D02*
X2677619Y-5644047D01*
X2677619Y-5644047D02*
X2677619Y-5548809D01*
X2677619Y-5548809D02*
X2630000Y-5405952D01*
X2630000Y-5405952D02*
X2534761Y-5310714D01*
X2534761Y-5310714D02*
X2439523Y-5263095D01*
X2439523Y-5263095D02*
X2249047Y-5215476D01*
X2249047Y-5215476D02*
X2106190Y-5215476D01*
X2106190Y-5215476D02*
X1915714Y-5263095D01*
X1915714Y-5263095D02*
X1820476Y-5310714D01*
X1820476Y-5310714D02*
X1725238Y-5405952D01*
X1725238Y-5405952D02*
X1677619Y-5548809D01*
X1677619Y-5548809D02*
X1677619Y-5644047D01*
X1677619Y-5644047D02*
X1725238Y-5786904D01*
X1725238Y-5786904D02*
X1772857Y-5834523D01*
X2677619Y-6263095D02*
X1677619Y-6263095D01*
X1677619Y-6263095D02*
X1677619Y-6644047D01*
X1677619Y-6644047D02*
X1725238Y-6739285D01*
X1725238Y-6739285D02*
X1772857Y-6786904D01*
X1772857Y-6786904D02*
X1868095Y-6834523D01*
X1868095Y-6834523D02*
X2010952Y-6834523D01*
X2010952Y-6834523D02*
X2106190Y-6786904D01*
X2106190Y-6786904D02*
X2153809Y-6739285D01*
X2153809Y-6739285D02*
X2201428Y-6644047D01*
X2201428Y-6644047D02*
X2201428Y-6263095D01*
X1677619Y-7263095D02*
X2487142Y-7263095D01*
X2487142Y-7263095D02*
X2582380Y-7310714D01*
X2582380Y-7310714D02*
X2630000Y-7358333D01*
X2630000Y-7358333D02*
X2677619Y-7453571D01*
X2677619Y-7453571D02*
X2677619Y-7644047D01*
X2677619Y-7644047D02*
X2630000Y-7739285D01*
X2630000Y-7739285D02*
X2582380Y-7786904D01*
X2582380Y-7786904D02*
X2487142Y-7834523D01*
X2487142Y-7834523D02*
X1677619Y-7834523D01*
X14995238Y-3536904D02*
X14947619Y-3441666D01*
X14947619Y-3441666D02*
X14947619Y-3298809D01*
X14947619Y-3298809D02*
X14995238Y-3155952D01*
X14995238Y-3155952D02*
X15090476Y-3060714D01*
X15090476Y-3060714D02*
X15185714Y-3013095D01*
X15185714Y-3013095D02*
X15376190Y-2965476D01*
X15376190Y-2965476D02*
X15519047Y-2965476D01*
X15519047Y-2965476D02*
X15709523Y-3013095D01*
X15709523Y-3013095D02*
X15804761Y-3060714D01*
X15804761Y-3060714D02*
X15900000Y-3155952D01*
X15900000Y-3155952D02*
X15947619Y-3298809D01*
X15947619Y-3298809D02*
X15947619Y-3394047D01*
X15947619Y-3394047D02*
X15900000Y-3536904D01*
X15900000Y-3536904D02*
X15852380Y-3584523D01*
X15852380Y-3584523D02*
X15519047Y-3584523D01*
X15519047Y-3584523D02*
X15519047Y-3394047D01*
X15947619Y-4013095D02*
X14947619Y-4013095D01*
X14947619Y-4013095D02*
X15947619Y-4584523D01*
X15947619Y-4584523D02*
X14947619Y-4584523D01*
X15947619Y-5060714D02*
X14947619Y-5060714D01*
X14947619Y-5060714D02*
X14947619Y-5298809D01*
X14947619Y-5298809D02*
X14995238Y-5441666D01*
X14995238Y-5441666D02*
X15090476Y-5536904D01*
X15090476Y-5536904D02*
X15185714Y-5584523D01*
X15185714Y-5584523D02*
X15376190Y-5632142D01*
X15376190Y-5632142D02*
X15519047Y-5632142D01*
X15519047Y-5632142D02*
X15709523Y-5584523D01*
X15709523Y-5584523D02*
X15804761Y-5536904D01*
X15804761Y-5536904D02*
X15900000Y-5441666D01*
X15900000Y-5441666D02*
X15947619Y-5298809D01*
X15947619Y-5298809D02*
X15947619Y-5060714D01*
X20991904Y-11747619D02*
X20991904Y-10747619D01*
X20991904Y-10747619D02*
X20753809Y-10747619D01*
X20753809Y-10747619D02*
X20610952Y-10795238D01*
X20610952Y-10795238D02*
X20515714Y-10890476D01*
X20515714Y-10890476D02*
X20468095Y-10985714D01*
X20468095Y-10985714D02*
X20420476Y-11176190D01*
X20420476Y-11176190D02*
X20420476Y-11319047D01*
X20420476Y-11319047D02*
X20468095Y-11509523D01*
X20468095Y-11509523D02*
X20515714Y-11604761D01*
X20515714Y-11604761D02*
X20610952Y-11700000D01*
X20610952Y-11700000D02*
X20753809Y-11747619D01*
X20753809Y-11747619D02*
X20991904Y-11747619D01*
X19991904Y-11366666D02*
X19230000Y-11366666D01*
X4505000Y-2970476D02*
X4552619Y-3113333D01*
X4552619Y-3113333D02*
X4552619Y-3351428D01*
X4552619Y-3351428D02*
X4505000Y-3446666D01*
X4505000Y-3446666D02*
X4457380Y-3494285D01*
X4457380Y-3494285D02*
X4362142Y-3541904D01*
X4362142Y-3541904D02*
X4266904Y-3541904D01*
X4266904Y-3541904D02*
X4171666Y-3494285D01*
X4171666Y-3494285D02*
X4124047Y-3446666D01*
X4124047Y-3446666D02*
X4076428Y-3351428D01*
X4076428Y-3351428D02*
X4028809Y-3160952D01*
X4028809Y-3160952D02*
X3981190Y-3065714D01*
X3981190Y-3065714D02*
X3933571Y-3018095D01*
X3933571Y-3018095D02*
X3838333Y-2970476D01*
X3838333Y-2970476D02*
X3743095Y-2970476D01*
X3743095Y-2970476D02*
X3647857Y-3018095D01*
X3647857Y-3018095D02*
X3600238Y-3065714D01*
X3600238Y-3065714D02*
X3552619Y-3160952D01*
X3552619Y-3160952D02*
X3552619Y-3399047D01*
X3552619Y-3399047D02*
X3600238Y-3541904D01*
X4457380Y-4541904D02*
X4505000Y-4494285D01*
X4505000Y-4494285D02*
X4552619Y-4351428D01*
X4552619Y-4351428D02*
X4552619Y-4256190D01*
X4552619Y-4256190D02*
X4505000Y-4113333D01*
X4505000Y-4113333D02*
X4409761Y-4018095D01*
X4409761Y-4018095D02*
X4314523Y-3970476D01*
X4314523Y-3970476D02*
X4124047Y-3922857D01*
X4124047Y-3922857D02*
X3981190Y-3922857D01*
X3981190Y-3922857D02*
X3790714Y-3970476D01*
X3790714Y-3970476D02*
X3695476Y-4018095D01*
X3695476Y-4018095D02*
X3600238Y-4113333D01*
X3600238Y-4113333D02*
X3552619Y-4256190D01*
X3552619Y-4256190D02*
X3552619Y-4351428D01*
X3552619Y-4351428D02*
X3600238Y-4494285D01*
X3600238Y-4494285D02*
X3647857Y-4541904D01*
X4552619Y-5446666D02*
X4552619Y-4970476D01*
X4552619Y-4970476D02*
X3552619Y-4970476D01*
X20966904Y-10252619D02*
X20966904Y-9252619D01*
X20966904Y-9252619D02*
X20728809Y-9252619D01*
X20728809Y-9252619D02*
X20585952Y-9300238D01*
X20585952Y-9300238D02*
X20490714Y-9395476D01*
X20490714Y-9395476D02*
X20443095Y-9490714D01*
X20443095Y-9490714D02*
X20395476Y-9681190D01*
X20395476Y-9681190D02*
X20395476Y-9824047D01*
X20395476Y-9824047D02*
X20443095Y-10014523D01*
X20443095Y-10014523D02*
X20490714Y-10109761D01*
X20490714Y-10109761D02*
X20585952Y-10205000D01*
X20585952Y-10205000D02*
X20728809Y-10252619D01*
X20728809Y-10252619D02*
X20966904Y-10252619D01*
X19966904Y-9871666D02*
X19205000Y-9871666D01*
X19585952Y-10252619D02*
X19585952Y-9490714D01*
X7602619Y-10488095D02*
X6602619Y-10488095D01*
X6602619Y-10488095D02*
X6602619Y-10726190D01*
X6602619Y-10726190D02*
X6650238Y-10869047D01*
X6650238Y-10869047D02*
X6745476Y-10964285D01*
X6745476Y-10964285D02*
X6840714Y-11011904D01*
X6840714Y-11011904D02*
X7031190Y-11059523D01*
X7031190Y-11059523D02*
X7174047Y-11059523D01*
X7174047Y-11059523D02*
X7364523Y-11011904D01*
X7364523Y-11011904D02*
X7459761Y-10964285D01*
X7459761Y-10964285D02*
X7555000Y-10869047D01*
X7555000Y-10869047D02*
X7602619Y-10726190D01*
X7602619Y-10726190D02*
X7602619Y-10488095D01*
X7602619Y-11488095D02*
X6602619Y-11488095D01*
X6602619Y-11488095D02*
X6602619Y-11726190D01*
X6602619Y-11726190D02*
X6650238Y-11869047D01*
X6650238Y-11869047D02*
X6745476Y-11964285D01*
X6745476Y-11964285D02*
X6840714Y-12011904D01*
X6840714Y-12011904D02*
X7031190Y-12059523D01*
X7031190Y-12059523D02*
X7174047Y-12059523D01*
X7174047Y-12059523D02*
X7364523Y-12011904D01*
X7364523Y-12011904D02*
X7459761Y-11964285D01*
X7459761Y-11964285D02*
X7555000Y-11869047D01*
X7555000Y-11869047D02*
X7602619Y-11726190D01*
X7602619Y-11726190D02*
X7602619Y-11488095D01*
X14757380Y-13929523D02*
X14805000Y-13881904D01*
X14805000Y-13881904D02*
X14852619Y-13739047D01*
X14852619Y-13739047D02*
X14852619Y-13643809D01*
X14852619Y-13643809D02*
X14805000Y-13500952D01*
X14805000Y-13500952D02*
X14709761Y-13405714D01*
X14709761Y-13405714D02*
X14614523Y-13358095D01*
X14614523Y-13358095D02*
X14424047Y-13310476D01*
X14424047Y-13310476D02*
X14281190Y-13310476D01*
X14281190Y-13310476D02*
X14090714Y-13358095D01*
X14090714Y-13358095D02*
X13995476Y-13405714D01*
X13995476Y-13405714D02*
X13900238Y-13500952D01*
X13900238Y-13500952D02*
X13852619Y-13643809D01*
X13852619Y-13643809D02*
X13852619Y-13739047D01*
X13852619Y-13739047D02*
X13900238Y-13881904D01*
X13900238Y-13881904D02*
X13947857Y-13929523D01*
X14852619Y-14358095D02*
X13852619Y-14358095D01*
X13852619Y-14358095D02*
X14566904Y-14691428D01*
X14566904Y-14691428D02*
X13852619Y-15024761D01*
X13852619Y-15024761D02*
X14852619Y-15024761D01*
X14852619Y-15500952D02*
X13852619Y-15500952D01*
X13852619Y-15500952D02*
X13852619Y-15739047D01*
X13852619Y-15739047D02*
X13900238Y-15881904D01*
X13900238Y-15881904D02*
X13995476Y-15977142D01*
X13995476Y-15977142D02*
X14090714Y-16024761D01*
X14090714Y-16024761D02*
X14281190Y-16072380D01*
X14281190Y-16072380D02*
X14424047Y-16072380D01*
X14424047Y-16072380D02*
X14614523Y-16024761D01*
X14614523Y-16024761D02*
X14709761Y-15977142D01*
X14709761Y-15977142D02*
X14805000Y-15881904D01*
X14805000Y-15881904D02*
X14852619Y-15739047D01*
X14852619Y-15739047D02*
X14852619Y-15500952D01*
X16437619Y-14548095D02*
X15437619Y-14548095D01*
X15437619Y-14548095D02*
X15437619Y-14786190D01*
X15437619Y-14786190D02*
X15485238Y-14929047D01*
X15485238Y-14929047D02*
X15580476Y-15024285D01*
X15580476Y-15024285D02*
X15675714Y-15071904D01*
X15675714Y-15071904D02*
X15866190Y-15119523D01*
X15866190Y-15119523D02*
X16009047Y-15119523D01*
X16009047Y-15119523D02*
X16199523Y-15071904D01*
X16199523Y-15071904D02*
X16294761Y-15024285D01*
X16294761Y-15024285D02*
X16390000Y-14929047D01*
X16390000Y-14929047D02*
X16437619Y-14786190D01*
X16437619Y-14786190D02*
X16437619Y-14548095D01*
X15437619Y-15738571D02*
X15437619Y-15833809D01*
X15437619Y-15833809D02*
X15485238Y-15929047D01*
X15485238Y-15929047D02*
X15532857Y-15976666D01*
X15532857Y-15976666D02*
X15628095Y-16024285D01*
X15628095Y-16024285D02*
X15818571Y-16071904D01*
X15818571Y-16071904D02*
X16056666Y-16071904D01*
X16056666Y-16071904D02*
X16247142Y-16024285D01*
X16247142Y-16024285D02*
X16342380Y-15976666D01*
X16342380Y-15976666D02*
X16390000Y-15929047D01*
X16390000Y-15929047D02*
X16437619Y-15833809D01*
X16437619Y-15833809D02*
X16437619Y-15738571D01*
X16437619Y-15738571D02*
X16390000Y-15643333D01*
X16390000Y-15643333D02*
X16342380Y-15595714D01*
X16342380Y-15595714D02*
X16247142Y-15548095D01*
X16247142Y-15548095D02*
X16056666Y-15500476D01*
X16056666Y-15500476D02*
X15818571Y-15500476D01*
X15818571Y-15500476D02*
X15628095Y-15548095D01*
X15628095Y-15548095D02*
X15532857Y-15595714D01*
X15532857Y-15595714D02*
X15485238Y-15643333D01*
X15485238Y-15643333D02*
X15437619Y-15738571D01*
X9172857Y-14520476D02*
X9125238Y-14568095D01*
X9125238Y-14568095D02*
X9077619Y-14663333D01*
X9077619Y-14663333D02*
X9077619Y-14901428D01*
X9077619Y-14901428D02*
X9125238Y-14996666D01*
X9125238Y-14996666D02*
X9172857Y-15044285D01*
X9172857Y-15044285D02*
X9268095Y-15091904D01*
X9268095Y-15091904D02*
X9363333Y-15091904D01*
X9363333Y-15091904D02*
X9506190Y-15044285D01*
X9506190Y-15044285D02*
X10077619Y-14472857D01*
X10077619Y-14472857D02*
X10077619Y-15091904D01*
X9077619Y-15710952D02*
X9077619Y-15806190D01*
X9077619Y-15806190D02*
X9125238Y-15901428D01*
X9125238Y-15901428D02*
X9172857Y-15949047D01*
X9172857Y-15949047D02*
X9268095Y-15996666D01*
X9268095Y-15996666D02*
X9458571Y-16044285D01*
X9458571Y-16044285D02*
X9696666Y-16044285D01*
X9696666Y-16044285D02*
X9887142Y-15996666D01*
X9887142Y-15996666D02*
X9982380Y-15949047D01*
X9982380Y-15949047D02*
X10030000Y-15901428D01*
X10030000Y-15901428D02*
X10077619Y-15806190D01*
X10077619Y-15806190D02*
X10077619Y-15710952D01*
X10077619Y-15710952D02*
X10030000Y-15615714D01*
X10030000Y-15615714D02*
X9982380Y-15568095D01*
X9982380Y-15568095D02*
X9887142Y-15520476D01*
X9887142Y-15520476D02*
X9696666Y-15472857D01*
X9696666Y-15472857D02*
X9458571Y-15472857D01*
X9458571Y-15472857D02*
X9268095Y-15520476D01*
X9268095Y-15520476D02*
X9172857Y-15568095D01*
X9172857Y-15568095D02*
X9125238Y-15615714D01*
X9125238Y-15615714D02*
X9077619Y-15710952D01*
X12136190Y-3175952D02*
X12088571Y-3080714D01*
X12088571Y-3080714D02*
X12040952Y-3033095D01*
X12040952Y-3033095D02*
X11945714Y-2985476D01*
X11945714Y-2985476D02*
X11898095Y-2985476D01*
X11898095Y-2985476D02*
X11802857Y-3033095D01*
X11802857Y-3033095D02*
X11755238Y-3080714D01*
X11755238Y-3080714D02*
X11707619Y-3175952D01*
X11707619Y-3175952D02*
X11707619Y-3366428D01*
X11707619Y-3366428D02*
X11755238Y-3461666D01*
X11755238Y-3461666D02*
X11802857Y-3509285D01*
X11802857Y-3509285D02*
X11898095Y-3556904D01*
X11898095Y-3556904D02*
X11945714Y-3556904D01*
X11945714Y-3556904D02*
X12040952Y-3509285D01*
X12040952Y-3509285D02*
X12088571Y-3461666D01*
X12088571Y-3461666D02*
X12136190Y-3366428D01*
X12136190Y-3366428D02*
X12136190Y-3175952D01*
X12136190Y-3175952D02*
X12183809Y-3080714D01*
X12183809Y-3080714D02*
X12231428Y-3033095D01*
X12231428Y-3033095D02*
X12326666Y-2985476D01*
X12326666Y-2985476D02*
X12517142Y-2985476D01*
X12517142Y-2985476D02*
X12612380Y-3033095D01*
X12612380Y-3033095D02*
X12660000Y-3080714D01*
X12660000Y-3080714D02*
X12707619Y-3175952D01*
X12707619Y-3175952D02*
X12707619Y-3366428D01*
X12707619Y-3366428D02*
X12660000Y-3461666D01*
X12660000Y-3461666D02*
X12612380Y-3509285D01*
X12612380Y-3509285D02*
X12517142Y-3556904D01*
X12517142Y-3556904D02*
X12326666Y-3556904D01*
X12326666Y-3556904D02*
X12231428Y-3509285D01*
X12231428Y-3509285D02*
X12183809Y-3461666D01*
X12183809Y-3461666D02*
X12136190Y-3366428D01*
X7642619Y-3516904D02*
X7642619Y-2945476D01*
X7642619Y-3231190D02*
X6642619Y-3231190D01*
X6642619Y-3231190D02*
X6785476Y-3135952D01*
X6785476Y-3135952D02*
X6880714Y-3040714D01*
X6880714Y-3040714D02*
X6928333Y-2945476D01*
X7642619Y-4469285D02*
X7642619Y-3897857D01*
X7642619Y-4183571D02*
X6642619Y-4183571D01*
X6642619Y-4183571D02*
X6785476Y-4088333D01*
X6785476Y-4088333D02*
X6880714Y-3993095D01*
X6880714Y-3993095D02*
X6928333Y-3897857D01*
X10782619Y-3060714D02*
X10782619Y-3251190D01*
X10782619Y-3251190D02*
X10735000Y-3346428D01*
X10735000Y-3346428D02*
X10687380Y-3394047D01*
X10687380Y-3394047D02*
X10544523Y-3489285D01*
X10544523Y-3489285D02*
X10354047Y-3536904D01*
X10354047Y-3536904D02*
X9973095Y-3536904D01*
X9973095Y-3536904D02*
X9877857Y-3489285D01*
X9877857Y-3489285D02*
X9830238Y-3441666D01*
X9830238Y-3441666D02*
X9782619Y-3346428D01*
X9782619Y-3346428D02*
X9782619Y-3155952D01*
X9782619Y-3155952D02*
X9830238Y-3060714D01*
X9830238Y-3060714D02*
X9877857Y-3013095D01*
X9877857Y-3013095D02*
X9973095Y-2965476D01*
X9973095Y-2965476D02*
X10211190Y-2965476D01*
X10211190Y-2965476D02*
X10306428Y-3013095D01*
X10306428Y-3013095D02*
X10354047Y-3060714D01*
X10354047Y-3060714D02*
X10401666Y-3155952D01*
X10401666Y-3155952D02*
X10401666Y-3346428D01*
X10401666Y-3346428D02*
X10354047Y-3441666D01*
X10354047Y-3441666D02*
X10306428Y-3489285D01*
X10306428Y-3489285D02*
X10211190Y-3536904D01*
X13152619Y-2992857D02*
X13152619Y-3611904D01*
X13152619Y-3611904D02*
X13533571Y-3278571D01*
X13533571Y-3278571D02*
X13533571Y-3421428D01*
X13533571Y-3421428D02*
X13581190Y-3516666D01*
X13581190Y-3516666D02*
X13628809Y-3564285D01*
X13628809Y-3564285D02*
X13724047Y-3611904D01*
X13724047Y-3611904D02*
X13962142Y-3611904D01*
X13962142Y-3611904D02*
X14057380Y-3564285D01*
X14057380Y-3564285D02*
X14105000Y-3516666D01*
X14105000Y-3516666D02*
X14152619Y-3421428D01*
X14152619Y-3421428D02*
X14152619Y-3135714D01*
X14152619Y-3135714D02*
X14105000Y-3040476D01*
X14105000Y-3040476D02*
X14057380Y-2992857D01*
X14057380Y-4040476D02*
X14105000Y-4088095D01*
X14105000Y-4088095D02*
X14152619Y-4040476D01*
X14152619Y-4040476D02*
X14105000Y-3992857D01*
X14105000Y-3992857D02*
X14057380Y-4040476D01*
X14057380Y-4040476D02*
X14152619Y-4040476D01*
X13152619Y-4421428D02*
X13152619Y-5040475D01*
X13152619Y-5040475D02*
X13533571Y-4707142D01*
X13533571Y-4707142D02*
X13533571Y-4849999D01*
X13533571Y-4849999D02*
X13581190Y-4945237D01*
X13581190Y-4945237D02*
X13628809Y-4992856D01*
X13628809Y-4992856D02*
X13724047Y-5040475D01*
X13724047Y-5040475D02*
X13962142Y-5040475D01*
X13962142Y-5040475D02*
X14057380Y-4992856D01*
X14057380Y-4992856D02*
X14105000Y-4945237D01*
X14105000Y-4945237D02*
X14152619Y-4849999D01*
X14152619Y-4849999D02*
X14152619Y-4564285D01*
X14152619Y-4564285D02*
X14105000Y-4469047D01*
X14105000Y-4469047D02*
X14057380Y-4421428D01*
X13152619Y-5326190D02*
X14152619Y-5659523D01*
X14152619Y-5659523D02*
X13152619Y-5992856D01*
X6197619Y-10453095D02*
X5197619Y-10453095D01*
X5197619Y-10453095D02*
X5197619Y-10691190D01*
X5197619Y-10691190D02*
X5245238Y-10834047D01*
X5245238Y-10834047D02*
X5340476Y-10929285D01*
X5340476Y-10929285D02*
X5435714Y-10976904D01*
X5435714Y-10976904D02*
X5626190Y-11024523D01*
X5626190Y-11024523D02*
X5769047Y-11024523D01*
X5769047Y-11024523D02*
X5959523Y-10976904D01*
X5959523Y-10976904D02*
X6054761Y-10929285D01*
X6054761Y-10929285D02*
X6150000Y-10834047D01*
X6150000Y-10834047D02*
X6197619Y-10691190D01*
X6197619Y-10691190D02*
X6197619Y-10453095D01*
X6102380Y-12024523D02*
X6150000Y-11976904D01*
X6150000Y-11976904D02*
X6197619Y-11834047D01*
X6197619Y-11834047D02*
X6197619Y-11738809D01*
X6197619Y-11738809D02*
X6150000Y-11595952D01*
X6150000Y-11595952D02*
X6054761Y-11500714D01*
X6054761Y-11500714D02*
X5959523Y-11453095D01*
X5959523Y-11453095D02*
X5769047Y-11405476D01*
X5769047Y-11405476D02*
X5626190Y-11405476D01*
X5626190Y-11405476D02*
X5435714Y-11453095D01*
X5435714Y-11453095D02*
X5340476Y-11500714D01*
X5340476Y-11500714D02*
X5245238Y-11595952D01*
X5245238Y-11595952D02*
X5197619Y-11738809D01*
X5197619Y-11738809D02*
X5197619Y-11834047D01*
X5197619Y-11834047D02*
X5245238Y-11976904D01*
X5245238Y-11976904D02*
X5292857Y-12024523D01*
X13147380Y-14219523D02*
X13195000Y-14171904D01*
X13195000Y-14171904D02*
X13242619Y-14029047D01*
X13242619Y-14029047D02*
X13242619Y-13933809D01*
X13242619Y-13933809D02*
X13195000Y-13790952D01*
X13195000Y-13790952D02*
X13099761Y-13695714D01*
X13099761Y-13695714D02*
X13004523Y-13648095D01*
X13004523Y-13648095D02*
X12814047Y-13600476D01*
X12814047Y-13600476D02*
X12671190Y-13600476D01*
X12671190Y-13600476D02*
X12480714Y-13648095D01*
X12480714Y-13648095D02*
X12385476Y-13695714D01*
X12385476Y-13695714D02*
X12290238Y-13790952D01*
X12290238Y-13790952D02*
X12242619Y-13933809D01*
X12242619Y-13933809D02*
X12242619Y-14029047D01*
X12242619Y-14029047D02*
X12290238Y-14171904D01*
X12290238Y-14171904D02*
X12337857Y-14219523D01*
X13242619Y-15124285D02*
X13242619Y-14648095D01*
X13242619Y-14648095D02*
X12242619Y-14648095D01*
X13242619Y-15457619D02*
X12242619Y-15457619D01*
X13242619Y-16029047D02*
X12671190Y-15600476D01*
X12242619Y-16029047D02*
X12814047Y-15457619D01*
X6055000Y-2970476D02*
X6102619Y-3113333D01*
X6102619Y-3113333D02*
X6102619Y-3351428D01*
X6102619Y-3351428D02*
X6055000Y-3446666D01*
X6055000Y-3446666D02*
X6007380Y-3494285D01*
X6007380Y-3494285D02*
X5912142Y-3541904D01*
X5912142Y-3541904D02*
X5816904Y-3541904D01*
X5816904Y-3541904D02*
X5721666Y-3494285D01*
X5721666Y-3494285D02*
X5674047Y-3446666D01*
X5674047Y-3446666D02*
X5626428Y-3351428D01*
X5626428Y-3351428D02*
X5578809Y-3160952D01*
X5578809Y-3160952D02*
X5531190Y-3065714D01*
X5531190Y-3065714D02*
X5483571Y-3018095D01*
X5483571Y-3018095D02*
X5388333Y-2970476D01*
X5388333Y-2970476D02*
X5293095Y-2970476D01*
X5293095Y-2970476D02*
X5197857Y-3018095D01*
X5197857Y-3018095D02*
X5150238Y-3065714D01*
X5150238Y-3065714D02*
X5102619Y-3160952D01*
X5102619Y-3160952D02*
X5102619Y-3399047D01*
X5102619Y-3399047D02*
X5150238Y-3541904D01*
X6102619Y-3970476D02*
X5102619Y-3970476D01*
X5102619Y-3970476D02*
X5102619Y-4208571D01*
X5102619Y-4208571D02*
X5150238Y-4351428D01*
X5150238Y-4351428D02*
X5245476Y-4446666D01*
X5245476Y-4446666D02*
X5340714Y-4494285D01*
X5340714Y-4494285D02*
X5531190Y-4541904D01*
X5531190Y-4541904D02*
X5674047Y-4541904D01*
X5674047Y-4541904D02*
X5864523Y-4494285D01*
X5864523Y-4494285D02*
X5959761Y-4446666D01*
X5959761Y-4446666D02*
X6055000Y-4351428D01*
X6055000Y-4351428D02*
X6102619Y-4208571D01*
X6102619Y-4208571D02*
X6102619Y-3970476D01*
X5816904Y-4922857D02*
X5816904Y-5399047D01*
X6102619Y-4827619D02*
X5102619Y-5160952D01*
X5102619Y-5160952D02*
X6102619Y-5494285D01*
X11757619Y-14174523D02*
X11281428Y-13841190D01*
X11757619Y-13603095D02*
X10757619Y-13603095D01*
X10757619Y-13603095D02*
X10757619Y-13984047D01*
X10757619Y-13984047D02*
X10805238Y-14079285D01*
X10805238Y-14079285D02*
X10852857Y-14126904D01*
X10852857Y-14126904D02*
X10948095Y-14174523D01*
X10948095Y-14174523D02*
X11090952Y-14174523D01*
X11090952Y-14174523D02*
X11186190Y-14126904D01*
X11186190Y-14126904D02*
X11233809Y-14079285D01*
X11233809Y-14079285D02*
X11281428Y-13984047D01*
X11281428Y-13984047D02*
X11281428Y-13603095D01*
X11710000Y-14555476D02*
X11757619Y-14698333D01*
X11757619Y-14698333D02*
X11757619Y-14936428D01*
X11757619Y-14936428D02*
X11710000Y-15031666D01*
X11710000Y-15031666D02*
X11662380Y-15079285D01*
X11662380Y-15079285D02*
X11567142Y-15126904D01*
X11567142Y-15126904D02*
X11471904Y-15126904D01*
X11471904Y-15126904D02*
X11376666Y-15079285D01*
X11376666Y-15079285D02*
X11329047Y-15031666D01*
X11329047Y-15031666D02*
X11281428Y-14936428D01*
X11281428Y-14936428D02*
X11233809Y-14745952D01*
X11233809Y-14745952D02*
X11186190Y-14650714D01*
X11186190Y-14650714D02*
X11138571Y-14603095D01*
X11138571Y-14603095D02*
X11043333Y-14555476D01*
X11043333Y-14555476D02*
X10948095Y-14555476D01*
X10948095Y-14555476D02*
X10852857Y-14603095D01*
X10852857Y-14603095D02*
X10805238Y-14650714D01*
X10805238Y-14650714D02*
X10757619Y-14745952D01*
X10757619Y-14745952D02*
X10757619Y-14984047D01*
X10757619Y-14984047D02*
X10805238Y-15126904D01*
X10757619Y-15412619D02*
X10757619Y-15984047D01*
X11757619Y-15698333D02*
X10757619Y-15698333D01*
%LPC*%
D11*
%TO.C,J9*%
X8675001Y-1605000D03*
D12*
X7125001Y-1605000D03*
%TD*%
D11*
%TO.C,J10*%
X11840000Y-1605000D03*
D12*
X10290000Y-1605000D03*
%TD*%
D13*
%TO.C,J8*%
X22189248Y-1283121D03*
X22189248Y-2553121D03*
X22189248Y-3823121D03*
X22189248Y-5093121D03*
X22189248Y-6363121D03*
X22189248Y-7633121D03*
%TD*%
D11*
%TO.C,J1*%
X13860000Y-1610000D03*
D14*
X15410000Y-1610000D03*
%TD*%
D11*
%TO.C,J4*%
X14415000Y-17340000D03*
D14*
X15965000Y-17340000D03*
%TD*%
D15*
%TO.C,J2*%
X1615000Y-2600000D03*
D16*
X1615000Y-4150000D03*
%TD*%
D11*
%TO.C,J7*%
X5035000Y-13795000D03*
D14*
X6585000Y-13795000D03*
%TD*%
D11*
%TO.C,J6*%
X5530000Y-1605000D03*
D12*
X3980000Y-1605000D03*
%TD*%
D11*
%TO.C,J11*%
X8065000Y-17340000D03*
D14*
X9615000Y-17340000D03*
%TD*%
D15*
%TO.C,J5*%
X22350000Y-9740000D03*
D16*
X22350000Y-11290000D03*
%TD*%
D11*
%TO.C,J3*%
X11255000Y-17340000D03*
D14*
X12805000Y-17340000D03*
%TD*%
%LPD*%
M02*
