%TF.GenerationSoftware,KiCad,Pcbnew,7.0.2-6a45011f42~172~ubuntu22.04.1*%
%TF.CreationDate,2023-06-02T20:05:51+08:00*%
%TF.ProjectId,fly2040,666c7932-3034-4302-9e6b-696361645f70,rev?*%
%TF.SameCoordinates,PX4323800PY2f1c8c0*%
%TF.FileFunction,Copper,L4,Bot*%
%TF.FilePolarity,Positive*%
%FSLAX46Y46*%
G04 Gerber Fmt 4.6, Leading zero omitted, Abs format (unit mm)*
G04 Created by KiCad (PCBNEW 7.0.2-6a45011f42~172~ubuntu22.04.1) date 2023-06-02 20:05:51*
%MOMM*%
%LPD*%
G01*
G04 APERTURE LIST*
G04 Aperture macros list*
%AMRoundRect*
0 Rectangle with rounded corners*
0 $1 Rounding radius*
0 $2 $3 $4 $5 $6 $7 $8 $9 X,Y pos of 4 corners*
0 Add a 4 corners polygon primitive as box body*
4,1,4,$2,$3,$4,$5,$6,$7,$8,$9,$2,$3,0*
0 Add four circle primitives for the rounded corners*
1,1,$1+$1,$2,$3*
1,1,$1+$1,$4,$5*
1,1,$1+$1,$6,$7*
1,1,$1+$1,$8,$9*
0 Add four rect primitives between the rounded corners*
20,1,$1+$1,$2,$3,$4,$5,0*
20,1,$1+$1,$4,$5,$6,$7,0*
20,1,$1+$1,$6,$7,$8,$9,0*
20,1,$1+$1,$8,$9,$2,$3,0*%
%AMFreePoly0*
4,1,6,1.000000,0.000000,0.500000,-0.750000,-0.500000,-0.750000,-0.500000,0.750000,0.500000,0.750000,1.000000,0.000000,1.000000,0.000000,$1*%
%AMFreePoly1*
4,1,6,0.500000,-0.750000,-0.650000,-0.750000,-0.150000,0.000000,-0.650000,0.750000,0.500000,0.750000,0.500000,-0.750000,0.500000,-0.750000,$1*%
G04 Aperture macros list end*
%TA.AperFunction,ComponentPad*%
%ADD10RoundRect,0.100000X-0.550000X0.850000X-0.550000X-0.850000X0.550000X-0.850000X0.550000X0.850000X0*%
%TD*%
%TA.AperFunction,ComponentPad*%
%ADD11O,1.000000X1.000000*%
%TD*%
%TA.AperFunction,ComponentPad*%
%ADD12RoundRect,0.100000X-0.850000X-0.550000X0.850000X-0.550000X0.850000X0.550000X-0.850000X0.550000X0*%
%TD*%
%TA.AperFunction,SMDPad,CuDef*%
%ADD13R,0.500000X0.800000*%
%TD*%
%TA.AperFunction,SMDPad,CuDef*%
%ADD14FreePoly0,90.000000*%
%TD*%
%TA.AperFunction,SMDPad,CuDef*%
%ADD15FreePoly1,90.000000*%
%TD*%
%TA.AperFunction,SMDPad,CuDef*%
%ADD16FreePoly0,180.000000*%
%TD*%
%TA.AperFunction,SMDPad,CuDef*%
%ADD17FreePoly1,180.000000*%
%TD*%
%TA.AperFunction,ViaPad*%
%ADD18C,0.450000*%
%TD*%
%TA.AperFunction,Conductor*%
%ADD19C,0.200000*%
%TD*%
%TA.AperFunction,Conductor*%
%ADD20C,0.100000*%
%TD*%
G04 APERTURE END LIST*
D10*
%TO.P,J9,1,Pin_1*%
%TO.N,NS_10*%
X9140001Y-1585000D03*
%TO.P,J9,2,Pin_2*%
%TO.N,NS_11*%
X7640001Y-1585000D03*
%TD*%
%TO.P,J10,1,Pin_1*%
%TO.N,NS_8*%
X12305000Y-1585000D03*
%TO.P,J10,2,Pin_2*%
%TO.N,NS_9*%
X10805000Y-1585000D03*
%TD*%
D11*
%TO.P,J8,1,Pin_1*%
%TO.N,RST*%
X22189248Y-1283121D03*
%TO.P,J8,2,Pin_2*%
%TO.N,BOOT*%
X22189248Y-2553121D03*
%TO.P,J8,3,Pin_3*%
%TO.N,D+*%
X22189248Y-3823121D03*
%TO.P,J8,4,Pin_4*%
%TO.N,D-*%
X22189248Y-5093121D03*
%TO.P,J8,5,Pin_5*%
%TO.N,+5V*%
X22189248Y-6363121D03*
%TO.P,J8,6,Pin_6*%
%TO.N,GND*%
X22189248Y-7633121D03*
%TD*%
D10*
%TO.P,J1,1,Pin_1*%
%TO.N,+3V3*%
X15495000Y-1585000D03*
%TO.P,J1,2,Pin_2*%
%TO.N,GND*%
X13995000Y-1585000D03*
%TD*%
D12*
%TO.P,J4,1,Pin_1*%
%TO.N,NS_CMD_OUT*%
X1645000Y-16124999D03*
%TO.P,J4,2,Pin_2*%
%TO.N,NS_D0_OUT*%
X1645000Y-17624999D03*
%TD*%
D10*
%TO.P,J2,1,Pin_1*%
%TO.N,NS_14*%
X2820000Y-1585000D03*
%TO.P,J2,2,Pin_2*%
%TO.N,NS_CPU*%
X1320000Y-1585000D03*
%TD*%
%TO.P,J6,1,Pin_1*%
%TO.N,NS_SDA*%
X5995000Y-1585000D03*
%TO.P,J6,2,Pin_2*%
%TO.N,NS_SCL*%
X4495000Y-1585000D03*
%TD*%
D12*
%TO.P,J5,1,Pin_1*%
%TO.N,D+_CXN*%
X22335000Y-16130000D03*
%TO.P,J5,2,Pin_2*%
%TO.N,D-_CXN*%
X22335000Y-17630000D03*
%TD*%
%TO.P,J3,1,Pin_1*%
%TO.N,NS_RST_OUT*%
X1645000Y-12965000D03*
%TO.P,J3,2,Pin_2*%
%TO.N,NS_CLK_OUT*%
X1645000Y-14465000D03*
%TD*%
D13*
%TO.P,J12,1,Pin_1*%
%TO.N,NS_2*%
X13565000Y-8130000D03*
%TO.P,J12,2,Pin_2*%
%TO.N,NS_3*%
X12565000Y-8130000D03*
%TO.P,J12,3,Pin_3*%
%TO.N,NS_4*%
X11565000Y-8130000D03*
%TO.P,J12,4,Pin_4*%
%TO.N,NS_5*%
X10565000Y-8130000D03*
%TO.P,J12,5,Pin_5*%
%TO.N,NS_6*%
X9565000Y-8130000D03*
%TO.P,J12,6,Pin_6*%
%TO.N,NS_7*%
X8565000Y-8130000D03*
%TD*%
D14*
%TO.P,JP2,1,A*%
%TO.N,NS_RST_OUT*%
X6980000Y-12785000D03*
D15*
%TO.P,JP2,2,B*%
%TO.N,Net-(JP2-B)*%
X6980000Y-11335000D03*
%TD*%
D13*
%TO.P,J11,1,Pin_1*%
%TO.N,NS_0*%
X15580000Y-9310000D03*
%TO.P,J11,2,Pin_2*%
%TO.N,NS_1*%
X14580000Y-9310000D03*
%TO.P,J11,3,Pin_3*%
%TO.N,GND*%
X13580000Y-9310000D03*
%TO.P,J11,4,Pin_4*%
%TO.N,PAD_24*%
X12580000Y-9310000D03*
%TO.P,J11,5,Pin_5*%
%TO.N,PAD_23*%
X11580000Y-9310000D03*
%TO.P,J11,6,Pin_6*%
%TO.N,PAD_22*%
X10580000Y-9310000D03*
%TD*%
D16*
%TO.P,JP1,1,A*%
%TO.N,NS_CPU*%
X6729999Y-6905000D03*
D17*
%TO.P,JP1,2,B*%
%TO.N,Net-(JP1-B)*%
X5279999Y-6905000D03*
%TD*%
D18*
%TO.N,MMC_SEL_INV*%
X9010000Y-14185000D03*
%TO.N,NS_CMD*%
X8800000Y-17500000D03*
%TO.N,GND*%
X1260000Y-5450000D03*
X13915000Y-7245000D03*
X9680000Y-7320000D03*
X18630000Y-5050000D03*
X1250000Y-10600000D03*
X4170000Y-10570000D03*
X2260000Y-4580000D03*
X5130000Y-10135000D03*
%TO.N,+3V3*%
X19860000Y-6375000D03*
X10210000Y-12880000D03*
X15310000Y-4350000D03*
X5540000Y-11400000D03*
X14065000Y-10240000D03*
X22414500Y-12545000D03*
X11645000Y-3590000D03*
X6165000Y-8595000D03*
X22420000Y-13745000D03*
X17312500Y-9022500D03*
X10505000Y-16625000D03*
%TO.N,RST*%
X9620000Y-10165000D03*
%TO.N,+1V1*%
X9630000Y-9195000D03*
X14330000Y-8370000D03*
%TO.N,D-*%
X17325000Y-17040000D03*
%TO.N,D+*%
X18340000Y-17035000D03*
%TO.N,NS_2*%
X13225000Y-5735000D03*
%TO.N,NS_3*%
X12515000Y-5975000D03*
%TO.N,NS_4*%
X11829553Y-6199553D03*
%TO.N,NS_5*%
X11010000Y-6160000D03*
%TO.N,NS_6*%
X10250000Y-6175000D03*
%TO.N,NS_7*%
X9605000Y-5710000D03*
%TO.N,BOARD_DET*%
X19140000Y-12725000D03*
X13160000Y-10375000D03*
%TO.N,NS_RST*%
X4370000Y-13300000D03*
X12155000Y-13060000D03*
%TO.N,NS_CLK*%
X12910000Y-13870000D03*
X3508378Y-15741622D03*
%TO.N,NS_CMD*%
X14010000Y-13925000D03*
%TO.N,NS_D0*%
X9620000Y-15015000D03*
X14400000Y-13095000D03*
%TO.N,PAD_22*%
X10560000Y-10370000D03*
%TO.N,PAD_23*%
X11410000Y-10370000D03*
%TO.N,PAD_24*%
X12230000Y-10370000D03*
%TO.N,USB_SEL*%
X8500000Y-11815000D03*
X18612500Y-13387500D03*
%TO.N,Net-(JP1-B)*%
X3370000Y-4405000D03*
%TO.N,NS_14*%
X9475000Y-6535000D03*
%TO.N,NS_0*%
X14275000Y-5805000D03*
%TO.N,NS_1*%
X13845000Y-6365000D03*
%TO.N,MMC_SEL*%
X8685000Y-12650000D03*
X12460000Y-16600000D03*
%TO.N,MMC_SEL_INV*%
X3195000Y-14590000D03*
X14970000Y-16740000D03*
X5530000Y-12630000D03*
X8955000Y-16375000D03*
%TO.N,Net-(JP2-B)*%
X2890000Y-11625000D03*
%TD*%
D19*
%TO.N,NS_RST*%
X12155000Y-13060000D02*
X11665000Y-13550000D01*
X11665000Y-13550000D02*
X4620000Y-13550000D01*
X4620000Y-13550000D02*
X4370000Y-13300000D01*
D20*
%TO.N,MMC_SEL_INV*%
X9010000Y-14185000D02*
X3600000Y-14185000D01*
X3600000Y-14185000D02*
X3195000Y-14590000D01*
D19*
%TO.N,NS_D0*%
X9620000Y-15015000D02*
X10995000Y-15015000D01*
X10995000Y-15015000D02*
X12915000Y-13095000D01*
X12915000Y-13095000D02*
X14400000Y-13095000D01*
%TO.N,NS_CLK*%
X12910000Y-13870000D02*
X11140000Y-15640000D01*
X11140000Y-15640000D02*
X3610000Y-15640000D01*
X3610000Y-15640000D02*
X3508378Y-15741622D01*
D20*
%TO.N,MMC_SEL_INV*%
X2955000Y-16070000D02*
X2955000Y-14835000D01*
X2955000Y-14835000D02*
X3195000Y-14595000D01*
X3195000Y-16310000D02*
X2955000Y-16070000D01*
X8175000Y-17895000D02*
X8510000Y-18230000D01*
X8175000Y-17155000D02*
X8175000Y-17895000D01*
X8955000Y-16375000D02*
X8890000Y-16310000D01*
X13480000Y-18230000D02*
X14970000Y-16740000D01*
X8510000Y-18230000D02*
X13480000Y-18230000D01*
X8955000Y-16375000D02*
X8175000Y-17155000D01*
X8890000Y-16310000D02*
X3195000Y-16310000D01*
X3195000Y-14595000D02*
X3195000Y-14590000D01*
D19*
%TO.N,NS_CMD*%
X11965000Y-15985000D02*
X14010000Y-13940000D01*
X8800000Y-17500000D02*
X10315000Y-15985000D01*
X10315000Y-15985000D02*
X11965000Y-15985000D01*
X14010000Y-13940000D02*
X14010000Y-13925000D01*
D20*
%TO.N,NS_5*%
X11010000Y-6160000D02*
X11010000Y-7685000D01*
X11010000Y-7685000D02*
X10565000Y-8130000D01*
D19*
%TO.N,RST*%
X8627200Y-10165000D02*
X7895000Y-9432800D01*
X7895000Y-9432800D02*
X7895000Y-4620000D01*
X20497369Y-2975000D02*
X22189248Y-1283121D01*
X9540000Y-2975000D02*
X20497369Y-2975000D01*
X7895000Y-4620000D02*
X9540000Y-2975000D01*
X9620000Y-10165000D02*
X8627200Y-10165000D01*
D20*
%TO.N,D-*%
X21439248Y-11640752D02*
X21439248Y-5843121D01*
X21439248Y-5843121D02*
X22189248Y-5093121D01*
X17325000Y-15755000D02*
X21439248Y-11640752D01*
X17325000Y-17040000D02*
X17325000Y-15755000D01*
%TO.N,D+*%
X18340000Y-15700000D02*
X22939248Y-11100752D01*
X22939248Y-4573121D02*
X22189248Y-3823121D01*
X22939248Y-11100752D02*
X22939248Y-4573121D01*
X18340000Y-17035000D02*
X18340000Y-15700000D01*
D19*
%TO.N,NS_RST_OUT*%
X6610000Y-12785000D02*
X6980000Y-12785000D01*
X3783900Y-12386100D02*
X4175000Y-11995000D01*
X2223900Y-12386100D02*
X3783900Y-12386100D01*
X1645000Y-12965000D02*
X2223900Y-12386100D01*
X5820000Y-11995000D02*
X6610000Y-12785000D01*
X4175000Y-11995000D02*
X5820000Y-11995000D01*
D20*
%TO.N,NS_2*%
X13225000Y-7790000D02*
X13565000Y-8130000D01*
X13225000Y-5735000D02*
X13225000Y-7790000D01*
%TO.N,NS_3*%
X12515000Y-8080000D02*
X12565000Y-8130000D01*
X12565000Y-8130000D02*
X12505000Y-8130000D01*
X12515000Y-5975000D02*
X12515000Y-8080000D01*
%TO.N,NS_4*%
X11829553Y-6199553D02*
X11829553Y-7865447D01*
X11829553Y-7865447D02*
X11565000Y-8130000D01*
%TO.N,NS_6*%
X10250000Y-7445000D02*
X9565000Y-8130000D01*
X10250000Y-6175000D02*
X10250000Y-7445000D01*
%TO.N,NS_7*%
X8565000Y-6750000D02*
X8565000Y-8130000D01*
X9605000Y-5710000D02*
X8565000Y-6750000D01*
%TO.N,BOARD_DET*%
X19140000Y-12725000D02*
X17210000Y-10795000D01*
X13580000Y-10795000D02*
X13160000Y-10375000D01*
X17210000Y-10795000D02*
X13580000Y-10795000D01*
D19*
%TO.N,NS_CPU*%
X2450000Y-3290000D02*
X1320000Y-2160000D01*
X6729999Y-6459999D02*
X3560000Y-3290000D01*
X1320000Y-2160000D02*
X1320000Y-1585000D01*
X3560000Y-3290000D02*
X2450000Y-3290000D01*
X6729999Y-6905000D02*
X6729999Y-6459999D01*
D20*
%TO.N,PAD_22*%
X10560000Y-9330000D02*
X10580000Y-9310000D01*
X10560000Y-10370000D02*
X10560000Y-9330000D01*
%TO.N,PAD_23*%
X11410000Y-10370000D02*
X11580000Y-10200000D01*
X11580000Y-10200000D02*
X11580000Y-9310000D01*
%TO.N,PAD_24*%
X12230000Y-9660000D02*
X12580000Y-9310000D01*
X12230000Y-10370000D02*
X12230000Y-9660000D01*
%TO.N,USB_SEL*%
X17040000Y-11815000D02*
X8500000Y-11815000D01*
X18612500Y-13387500D02*
X17040000Y-11815000D01*
D19*
%TO.N,Net-(JP1-B)*%
X3370000Y-4405000D02*
X5279999Y-6314999D01*
X5279999Y-6314999D02*
X5279999Y-6905000D01*
D20*
%TO.N,NS_0*%
X14275000Y-5805000D02*
X15580000Y-7110000D01*
X15580000Y-7110000D02*
X15580000Y-9310000D01*
%TO.N,NS_1*%
X14915000Y-7430000D02*
X14915000Y-8975000D01*
X14395000Y-6915000D02*
X14400000Y-6915000D01*
X14400000Y-6915000D02*
X14915000Y-7430000D01*
X14915000Y-8975000D02*
X14580000Y-9310000D01*
X13845000Y-6365000D02*
X14395000Y-6915000D01*
%TO.N,MMC_SEL_INV*%
X5525000Y-12625000D02*
X4205000Y-12625000D01*
X3195000Y-13635000D02*
X3195000Y-14590000D01*
X5530000Y-12630000D02*
X5525000Y-12625000D01*
X4205000Y-12625000D02*
X3195000Y-13635000D01*
D19*
%TO.N,Net-(JP2-B)*%
X4745000Y-10770000D02*
X6415000Y-10770000D01*
X6415000Y-10770000D02*
X6980000Y-11335000D01*
X3890000Y-11625000D02*
X4745000Y-10770000D01*
X2890000Y-11625000D02*
X3890000Y-11625000D01*
%TD*%
%TA.AperFunction,Conductor*%
%TO.N,GND*%
G36*
X14700912Y-525002D02*
G01*
X14747405Y-578658D01*
X14757509Y-648932D01*
X14756370Y-655583D01*
X14756134Y-656766D01*
X14756133Y-656769D01*
X14744500Y-715252D01*
X14744500Y-715254D01*
X14744500Y-2454746D01*
X14756133Y-2513231D01*
X14807160Y-2589598D01*
X14828375Y-2657351D01*
X14809592Y-2725818D01*
X14756775Y-2773261D01*
X14702395Y-2785600D01*
X13097605Y-2785600D01*
X13029484Y-2765598D01*
X12982991Y-2711942D01*
X12972887Y-2641668D01*
X12992840Y-2589598D01*
X13017213Y-2553121D01*
X13043867Y-2513231D01*
X13055500Y-2454748D01*
X13055500Y-715252D01*
X13043867Y-656769D01*
X13043865Y-656766D01*
X13043630Y-655583D01*
X13049958Y-584869D01*
X13093511Y-528801D01*
X13160464Y-505181D01*
X13167209Y-505000D01*
X14632791Y-505000D01*
X14700912Y-525002D01*
G37*
%TD.AperFunction*%
%TA.AperFunction,Conductor*%
G36*
X23397121Y-525002D02*
G01*
X23443614Y-578658D01*
X23455000Y-631000D01*
X23455000Y-15283539D01*
X23434998Y-15351660D01*
X23381342Y-15398153D01*
X23311068Y-15408257D01*
X23269780Y-15392436D01*
X23263231Y-15391133D01*
X23204748Y-15379500D01*
X21465252Y-15379500D01*
X21436010Y-15385316D01*
X21406768Y-15391133D01*
X21340447Y-15435447D01*
X21296133Y-15501768D01*
X21296132Y-15501769D01*
X21296133Y-15501769D01*
X21284500Y-15560252D01*
X21284500Y-16699748D01*
X21296133Y-16758231D01*
X21330724Y-16809999D01*
X21351938Y-16877749D01*
X21333156Y-16946216D01*
X21330723Y-16950000D01*
X21296133Y-17001766D01*
X21284500Y-17060253D01*
X21284500Y-18199746D01*
X21296133Y-18258231D01*
X21296645Y-18258997D01*
X21317861Y-18326750D01*
X21299079Y-18395217D01*
X21246262Y-18442661D01*
X21191881Y-18455000D01*
X13756332Y-18455000D01*
X13688211Y-18434998D01*
X13641718Y-18381342D01*
X13631614Y-18311068D01*
X13661108Y-18246488D01*
X13667236Y-18239905D01*
X13853446Y-18053695D01*
X14788443Y-17118696D01*
X14850752Y-17084674D01*
X14897242Y-17083345D01*
X14970000Y-17094869D01*
X15079661Y-17077500D01*
X15178587Y-17027095D01*
X15257095Y-16948587D01*
X15307500Y-16849661D01*
X15324869Y-16740000D01*
X15307500Y-16630339D01*
X15257095Y-16531413D01*
X15257094Y-16531412D01*
X15257093Y-16531410D01*
X15178589Y-16452906D01*
X15079661Y-16402500D01*
X14970000Y-16385130D01*
X14860338Y-16402500D01*
X14761410Y-16452906D01*
X14682906Y-16531410D01*
X14632500Y-16630338D01*
X14615977Y-16734661D01*
X14615131Y-16740000D01*
X14617301Y-16753699D01*
X14626654Y-16812751D01*
X14617555Y-16883162D01*
X14591300Y-16921557D01*
X13459162Y-18053696D01*
X13396852Y-18087720D01*
X13370069Y-18090600D01*
X8912635Y-18090600D01*
X8844514Y-18070598D01*
X8798021Y-18016942D01*
X8787917Y-17946668D01*
X8817411Y-17882088D01*
X8877137Y-17843704D01*
X8892924Y-17840151D01*
X8893841Y-17840005D01*
X8909661Y-17837500D01*
X9008587Y-17787095D01*
X9087095Y-17708587D01*
X9137500Y-17609661D01*
X9154869Y-17500000D01*
X9153013Y-17488288D01*
X9162113Y-17417877D01*
X9188363Y-17379487D01*
X9946933Y-16620918D01*
X10009242Y-16586895D01*
X10080058Y-16591960D01*
X10136893Y-16634507D01*
X10160473Y-16690304D01*
X10167498Y-16734658D01*
X10217906Y-16833589D01*
X10296410Y-16912093D01*
X10296412Y-16912094D01*
X10296413Y-16912095D01*
X10395339Y-16962500D01*
X10505000Y-16979869D01*
X10614661Y-16962500D01*
X10713587Y-16912095D01*
X10792095Y-16833587D01*
X10842500Y-16734661D01*
X10859869Y-16625000D01*
X10855909Y-16600000D01*
X12105130Y-16600000D01*
X12122500Y-16709661D01*
X12172906Y-16808589D01*
X12251410Y-16887093D01*
X12251412Y-16887094D01*
X12251413Y-16887095D01*
X12350339Y-16937500D01*
X12442629Y-16952117D01*
X12459999Y-16954869D01*
X12459999Y-16954868D01*
X12460000Y-16954869D01*
X12569661Y-16937500D01*
X12668587Y-16887095D01*
X12747095Y-16808587D01*
X12797500Y-16709661D01*
X12814869Y-16600000D01*
X12797500Y-16490339D01*
X12747095Y-16391413D01*
X12747094Y-16391412D01*
X12747093Y-16391410D01*
X12668589Y-16312906D01*
X12569661Y-16262500D01*
X12459999Y-16245130D01*
X12350336Y-16262500D01*
X12268724Y-16304083D01*
X12237097Y-16310022D01*
X12229667Y-16331976D01*
X12215628Y-16348689D01*
X12172905Y-16391412D01*
X12122500Y-16490338D01*
X12105130Y-16600000D01*
X10855909Y-16600000D01*
X10842500Y-16515339D01*
X10792095Y-16416413D01*
X10792094Y-16416412D01*
X10792093Y-16416410D01*
X10765178Y-16389495D01*
X10731152Y-16327183D01*
X10736217Y-16256368D01*
X10778764Y-16199532D01*
X10845284Y-16174721D01*
X10854273Y-16174400D01*
X11911414Y-16174400D01*
X11937021Y-16178750D01*
X11943247Y-16178048D01*
X11943249Y-16178049D01*
X11968606Y-16175192D01*
X11982713Y-16174400D01*
X11986339Y-16174400D01*
X11986341Y-16174400D01*
X11989884Y-16173591D01*
X12003796Y-16171227D01*
X12029164Y-16168369D01*
X12029166Y-16168367D01*
X12035401Y-16167665D01*
X12044383Y-16163945D01*
X12047967Y-16161087D01*
X12102461Y-16138836D01*
X12105983Y-16132803D01*
X12104407Y-16132044D01*
X12112391Y-16115462D01*
X12136819Y-16081031D01*
X13902433Y-14315417D01*
X13964743Y-14281393D01*
X14008218Y-14280151D01*
X14009999Y-14279868D01*
X14010000Y-14279869D01*
X14119661Y-14262500D01*
X14218587Y-14212095D01*
X14297095Y-14133587D01*
X14347500Y-14034661D01*
X14364869Y-13925000D01*
X14347500Y-13815339D01*
X14297095Y-13716413D01*
X14297094Y-13716412D01*
X14297093Y-13716410D01*
X14235232Y-13654549D01*
X14201206Y-13592237D01*
X14206271Y-13521422D01*
X14248818Y-13464586D01*
X14315338Y-13439775D01*
X14344035Y-13441004D01*
X14400000Y-13449869D01*
X14509661Y-13432500D01*
X14608587Y-13382095D01*
X14687095Y-13303587D01*
X14737500Y-13204661D01*
X14754869Y-13095000D01*
X14737500Y-12985339D01*
X14687095Y-12886413D01*
X14687094Y-12886412D01*
X14687093Y-12886410D01*
X14608589Y-12807906D01*
X14509661Y-12757500D01*
X14400000Y-12740130D01*
X14290338Y-12757500D01*
X14191410Y-12807906D01*
X14130622Y-12868695D01*
X14068310Y-12902721D01*
X14041527Y-12905600D01*
X12968588Y-12905600D01*
X12942980Y-12901249D01*
X12911393Y-12904808D01*
X12897286Y-12905600D01*
X12893655Y-12905600D01*
X12890104Y-12906410D01*
X12876198Y-12908772D01*
X12844614Y-12912332D01*
X12835605Y-12916063D01*
X12810752Y-12935882D01*
X12799239Y-12944051D01*
X12796161Y-12945984D01*
X12793590Y-12948556D01*
X12783069Y-12957958D01*
X12758215Y-12977779D01*
X12743181Y-12998965D01*
X12708283Y-13033863D01*
X12645971Y-13067889D01*
X12575156Y-13062824D01*
X12518320Y-13020277D01*
X12494739Y-12964477D01*
X12494426Y-12962500D01*
X12492500Y-12950339D01*
X12442095Y-12851413D01*
X12442094Y-12851412D01*
X12442093Y-12851410D01*
X12363589Y-12772906D01*
X12264661Y-12722500D01*
X12155000Y-12705130D01*
X12045338Y-12722500D01*
X11946410Y-12772906D01*
X11867906Y-12851410D01*
X11817500Y-12950338D01*
X11800130Y-13060001D01*
X11801985Y-13071710D01*
X11792885Y-13142121D01*
X11766632Y-13180514D01*
X11623453Y-13323695D01*
X11561141Y-13357720D01*
X11534357Y-13360600D01*
X10529273Y-13360600D01*
X10461152Y-13340598D01*
X10414659Y-13286942D01*
X10404555Y-13216668D01*
X10434049Y-13152088D01*
X10440178Y-13145505D01*
X10497093Y-13088589D01*
X10497095Y-13088587D01*
X10547500Y-12989661D01*
X10564869Y-12880000D01*
X10547500Y-12770339D01*
X10497095Y-12671413D01*
X10497094Y-12671412D01*
X10497093Y-12671410D01*
X10418589Y-12592906D01*
X10319661Y-12542500D01*
X10210000Y-12525130D01*
X10100338Y-12542500D01*
X10001410Y-12592906D01*
X9922906Y-12671410D01*
X9872500Y-12770338D01*
X9855130Y-12880000D01*
X9872500Y-12989661D01*
X9922906Y-13088589D01*
X9979822Y-13145505D01*
X10013848Y-13207817D01*
X10008783Y-13278632D01*
X9966236Y-13335468D01*
X9899716Y-13360279D01*
X9890727Y-13360600D01*
X7958469Y-13360600D01*
X7890348Y-13340598D01*
X7843855Y-13286942D01*
X7832469Y-13234600D01*
X7832469Y-12288114D01*
X7832469Y-12285000D01*
X7830479Y-12264904D01*
X7822223Y-12245031D01*
X7815141Y-12227983D01*
X7812444Y-12225292D01*
X7778354Y-12163016D01*
X7783344Y-12092195D01*
X7796680Y-12066102D01*
X7802455Y-12057457D01*
X7802457Y-12057457D01*
X7824669Y-12024213D01*
X7832469Y-11985000D01*
X7832469Y-10835000D01*
X7824669Y-10795787D01*
X7802457Y-10762543D01*
X7769213Y-10740331D01*
X7769212Y-10740330D01*
X7730000Y-10732531D01*
X6697573Y-10732531D01*
X6629452Y-10712529D01*
X6608478Y-10695626D01*
X6586820Y-10673968D01*
X6571787Y-10652781D01*
X6555360Y-10639681D01*
X6546929Y-10632958D01*
X6536403Y-10623551D01*
X6533836Y-10620984D01*
X6530762Y-10619052D01*
X6519242Y-10610878D01*
X6494394Y-10591062D01*
X6485388Y-10587332D01*
X6453801Y-10583772D01*
X6439887Y-10581409D01*
X6436341Y-10580600D01*
X6432713Y-10580600D01*
X6418607Y-10579808D01*
X6387021Y-10576249D01*
X6361414Y-10580600D01*
X4798592Y-10580600D01*
X4772980Y-10576248D01*
X4741388Y-10579808D01*
X4727280Y-10580600D01*
X4723659Y-10580600D01*
X4720114Y-10581409D01*
X4706195Y-10583773D01*
X4674612Y-10587332D01*
X4665605Y-10591063D01*
X4640753Y-10610881D01*
X4629240Y-10619050D01*
X4626162Y-10620983D01*
X4623590Y-10623556D01*
X4613069Y-10632958D01*
X4588215Y-10652779D01*
X4573183Y-10673963D01*
X3848453Y-11398695D01*
X3786140Y-11432720D01*
X3759357Y-11435600D01*
X3248473Y-11435600D01*
X3180352Y-11415598D01*
X3159378Y-11398695D01*
X3098589Y-11337906D01*
X2999661Y-11287500D01*
X2890000Y-11270130D01*
X2780338Y-11287500D01*
X2681410Y-11337906D01*
X2602906Y-11416410D01*
X2552500Y-11515338D01*
X2535130Y-11625000D01*
X2552500Y-11734661D01*
X2602906Y-11833589D01*
X2681410Y-11912093D01*
X2681412Y-11912094D01*
X2681413Y-11912095D01*
X2764442Y-11954400D01*
X2772357Y-11958433D01*
X2823972Y-12007181D01*
X2841038Y-12076096D01*
X2818137Y-12143298D01*
X2762540Y-12187450D01*
X2715154Y-12196700D01*
X2277488Y-12196700D01*
X2251880Y-12192349D01*
X2220293Y-12195908D01*
X2206186Y-12196700D01*
X2202555Y-12196700D01*
X2199004Y-12197510D01*
X2185098Y-12199872D01*
X2136455Y-12205354D01*
X2104708Y-12214500D01*
X775252Y-12214500D01*
X760631Y-12217408D01*
X716766Y-12226133D01*
X704238Y-12234505D01*
X636485Y-12255719D01*
X568018Y-12236935D01*
X520576Y-12184117D01*
X508238Y-12129774D01*
X508209Y-12024212D01*
X507254Y-8595000D01*
X5810130Y-8595000D01*
X5827500Y-8704661D01*
X5877906Y-8803589D01*
X5956410Y-8882093D01*
X5956412Y-8882094D01*
X5956413Y-8882095D01*
X6055339Y-8932500D01*
X6165000Y-8949869D01*
X6274661Y-8932500D01*
X6373587Y-8882095D01*
X6452095Y-8803587D01*
X6502500Y-8704661D01*
X6519869Y-8595000D01*
X6502500Y-8485339D01*
X6452095Y-8386413D01*
X6452094Y-8386412D01*
X6452093Y-8386410D01*
X6373589Y-8307906D01*
X6274661Y-8257500D01*
X6164999Y-8240130D01*
X6055338Y-8257500D01*
X5956410Y-8307906D01*
X5877906Y-8386410D01*
X5827500Y-8485338D01*
X5810130Y-8595000D01*
X507254Y-8595000D01*
X505621Y-2735250D01*
X525604Y-2667125D01*
X579247Y-2620617D01*
X649518Y-2610494D01*
X676504Y-2620830D01*
X691767Y-2623866D01*
X691769Y-2623867D01*
X750252Y-2635500D01*
X1475458Y-2635500D01*
X1543579Y-2655502D01*
X1564553Y-2672405D01*
X2278180Y-3386032D01*
X2293215Y-3407220D01*
X2318068Y-3427040D01*
X2328598Y-3436450D01*
X2331164Y-3439016D01*
X2334239Y-3440948D01*
X2345754Y-3449119D01*
X2370612Y-3468942D01*
X2379603Y-3472666D01*
X2385834Y-3473368D01*
X2385836Y-3473369D01*
X2411196Y-3476226D01*
X2425117Y-3478591D01*
X2428659Y-3479400D01*
X2432286Y-3479400D01*
X2446393Y-3480192D01*
X2471751Y-3483049D01*
X2471752Y-3483048D01*
X2477980Y-3483750D01*
X2503588Y-3479400D01*
X3429358Y-3479400D01*
X3497479Y-3499402D01*
X3518453Y-3516305D01*
X5839584Y-5837436D01*
X5873610Y-5899748D01*
X5868545Y-5970563D01*
X5825998Y-6027399D01*
X5759478Y-6052210D01*
X5750489Y-6052531D01*
X5337573Y-6052531D01*
X5269452Y-6032529D01*
X5248478Y-6015626D01*
X3758368Y-4525516D01*
X3724342Y-4463204D01*
X3723015Y-4416709D01*
X3724869Y-4405002D01*
X3721906Y-4386295D01*
X3707500Y-4295339D01*
X3657095Y-4196413D01*
X3657094Y-4196412D01*
X3657093Y-4196410D01*
X3578589Y-4117906D01*
X3479661Y-4067500D01*
X3370000Y-4050130D01*
X3260338Y-4067500D01*
X3161410Y-4117906D01*
X3082906Y-4196410D01*
X3032500Y-4295338D01*
X3015130Y-4405000D01*
X3032500Y-4514661D01*
X3082906Y-4613589D01*
X3161410Y-4692093D01*
X3161412Y-4692094D01*
X3161413Y-4692095D01*
X3260339Y-4742500D01*
X3370000Y-4759869D01*
X3370001Y-4759868D01*
X3370002Y-4759869D01*
X3381709Y-4758015D01*
X3452120Y-4767113D01*
X3490516Y-4793368D01*
X4663322Y-5966174D01*
X4697348Y-6028486D01*
X4692283Y-6099301D01*
X4686272Y-6111046D01*
X4677530Y-6154999D01*
X4677530Y-7655000D01*
X4685329Y-7694212D01*
X4685330Y-7694213D01*
X4707542Y-7727457D01*
X4740786Y-7749669D01*
X4779999Y-7757469D01*
X5926923Y-7757469D01*
X5929999Y-7757469D01*
X5949885Y-7755521D01*
X5986839Y-7740259D01*
X5989864Y-7737239D01*
X6052208Y-7703279D01*
X6123019Y-7708416D01*
X6148868Y-7721661D01*
X6157541Y-7727456D01*
X6157542Y-7727457D01*
X6190786Y-7749669D01*
X6229999Y-7757469D01*
X7229999Y-7757469D01*
X7269212Y-7749669D01*
X7302456Y-7727457D01*
X7324668Y-7694213D01*
X7332468Y-7655000D01*
X7332468Y-6155000D01*
X7327920Y-6132138D01*
X7324668Y-6115787D01*
X7317205Y-6104618D01*
X7302456Y-6082543D01*
X7269212Y-6060331D01*
X7269211Y-6060330D01*
X7229999Y-6052531D01*
X6642573Y-6052531D01*
X6574452Y-6032529D01*
X6553478Y-6015626D01*
X3731820Y-3193968D01*
X3716787Y-3172781D01*
X3697831Y-3157665D01*
X3691931Y-3152959D01*
X3681403Y-3143551D01*
X3678836Y-3140984D01*
X3675762Y-3139052D01*
X3664242Y-3130878D01*
X3639394Y-3111062D01*
X3630388Y-3107332D01*
X3598801Y-3103772D01*
X3584887Y-3101409D01*
X3581341Y-3100600D01*
X3577713Y-3100600D01*
X3563607Y-3099808D01*
X3532021Y-3096249D01*
X3506414Y-3100600D01*
X2580642Y-3100600D01*
X2512521Y-3080598D01*
X2491547Y-3063695D01*
X2278447Y-2850595D01*
X2244421Y-2788283D01*
X2249486Y-2717468D01*
X2292033Y-2660632D01*
X2358553Y-2635821D01*
X2367542Y-2635500D01*
X3389747Y-2635500D01*
X3389748Y-2635500D01*
X3448231Y-2623867D01*
X3514552Y-2579552D01*
X3552736Y-2522405D01*
X3607212Y-2476879D01*
X3677655Y-2468031D01*
X3741699Y-2498672D01*
X3762261Y-2522403D01*
X3800448Y-2579552D01*
X3866769Y-2623867D01*
X3925252Y-2635500D01*
X3925253Y-2635500D01*
X5064747Y-2635500D01*
X5064748Y-2635500D01*
X5123231Y-2623867D01*
X5174998Y-2589276D01*
X5242750Y-2568061D01*
X5311217Y-2586843D01*
X5314983Y-2589264D01*
X5366769Y-2623867D01*
X5425252Y-2635500D01*
X5425253Y-2635500D01*
X6564747Y-2635500D01*
X6564748Y-2635500D01*
X6623231Y-2623867D01*
X6689552Y-2579552D01*
X6712737Y-2544853D01*
X6767210Y-2499328D01*
X6837653Y-2490479D01*
X6901698Y-2521119D01*
X6922264Y-2544854D01*
X6925688Y-2549978D01*
X6945448Y-2579552D01*
X6989763Y-2609162D01*
X7011770Y-2623867D01*
X7070253Y-2635500D01*
X7070254Y-2635500D01*
X8209748Y-2635500D01*
X8209749Y-2635500D01*
X8268232Y-2623867D01*
X8319999Y-2589276D01*
X8387751Y-2568061D01*
X8456218Y-2586843D01*
X8459984Y-2589264D01*
X8511770Y-2623867D01*
X8570253Y-2635500D01*
X8570254Y-2635500D01*
X9301858Y-2635500D01*
X9369979Y-2655502D01*
X9416472Y-2709158D01*
X9426576Y-2779432D01*
X9397082Y-2844012D01*
X9384227Y-2856353D01*
X9368181Y-2878965D01*
X7798965Y-4448181D01*
X7777779Y-4463215D01*
X7757958Y-4488069D01*
X7748556Y-4498590D01*
X7745984Y-4501161D01*
X7744051Y-4504239D01*
X7735882Y-4515752D01*
X7716063Y-4540605D01*
X7712332Y-4549614D01*
X7708772Y-4581198D01*
X7706410Y-4595104D01*
X7705600Y-4598655D01*
X7705600Y-4602286D01*
X7704808Y-4616393D01*
X7701249Y-4647980D01*
X7705600Y-4673588D01*
X7705600Y-9379212D01*
X7701249Y-9404820D01*
X7704808Y-9436405D01*
X7705600Y-9450513D01*
X7705600Y-9454140D01*
X7706409Y-9457687D01*
X7708772Y-9471601D01*
X7712332Y-9503188D01*
X7716062Y-9512194D01*
X7735878Y-9537042D01*
X7744052Y-9548562D01*
X7745984Y-9551636D01*
X7748551Y-9554203D01*
X7757963Y-9564735D01*
X7777781Y-9589587D01*
X7798968Y-9604620D01*
X8455380Y-10261032D01*
X8470415Y-10282220D01*
X8495268Y-10302040D01*
X8505798Y-10311450D01*
X8508364Y-10314016D01*
X8511439Y-10315948D01*
X8522954Y-10324119D01*
X8547812Y-10343942D01*
X8556803Y-10347666D01*
X8563034Y-10348368D01*
X8563036Y-10348369D01*
X8588396Y-10351226D01*
X8602317Y-10353591D01*
X8605859Y-10354400D01*
X8609486Y-10354400D01*
X8623593Y-10355192D01*
X8648951Y-10358049D01*
X8648952Y-10358048D01*
X8655180Y-10358750D01*
X8680788Y-10354400D01*
X9261527Y-10354400D01*
X9329648Y-10374402D01*
X9350622Y-10391305D01*
X9411410Y-10452093D01*
X9411412Y-10452094D01*
X9411413Y-10452095D01*
X9510339Y-10502500D01*
X9620000Y-10519869D01*
X9729661Y-10502500D01*
X9828587Y-10452095D01*
X9907095Y-10373587D01*
X9957500Y-10274661D01*
X9974869Y-10165000D01*
X9974300Y-10161410D01*
X9969379Y-10130338D01*
X9957500Y-10055339D01*
X9907095Y-9956413D01*
X9907094Y-9956412D01*
X9907093Y-9956410D01*
X9828589Y-9877906D01*
X9729661Y-9827500D01*
X9620000Y-9810130D01*
X9510338Y-9827500D01*
X9411410Y-9877906D01*
X9350622Y-9938695D01*
X9288310Y-9972721D01*
X9261527Y-9975600D01*
X8757842Y-9975600D01*
X8689721Y-9955598D01*
X8668747Y-9938695D01*
X8121305Y-9391253D01*
X8087279Y-9328941D01*
X8084400Y-9302158D01*
X8084400Y-8732518D01*
X8104402Y-8664397D01*
X8158058Y-8617904D01*
X8228332Y-8607800D01*
X8268652Y-8623250D01*
X8275787Y-8624669D01*
X8305101Y-8630500D01*
X8824898Y-8630499D01*
X8854213Y-8624669D01*
X8887457Y-8602457D01*
X8909669Y-8569213D01*
X8915500Y-8539899D01*
X8915499Y-7720102D01*
X8909669Y-7690787D01*
X8887457Y-7657543D01*
X8859197Y-7638661D01*
X8854212Y-7635330D01*
X8812728Y-7627079D01*
X8813248Y-7624463D01*
X8762279Y-7609498D01*
X8715786Y-7555842D01*
X8704400Y-7503500D01*
X8704400Y-6859930D01*
X8724402Y-6791809D01*
X8741299Y-6770840D01*
X8925723Y-6586416D01*
X8988031Y-6552394D01*
X9058847Y-6557458D01*
X9115683Y-6600005D01*
X9127289Y-6627466D01*
X9128440Y-6626880D01*
X9187906Y-6743589D01*
X9266410Y-6822093D01*
X9266412Y-6822094D01*
X9266413Y-6822095D01*
X9365339Y-6872500D01*
X9475000Y-6889869D01*
X9584661Y-6872500D01*
X9683587Y-6822095D01*
X9762095Y-6743587D01*
X9812500Y-6644661D01*
X9829869Y-6535000D01*
X9829868Y-6534997D01*
X9830076Y-6533688D01*
X9860488Y-6469535D01*
X9920756Y-6432007D01*
X9991746Y-6433021D01*
X10032037Y-6457318D01*
X10041801Y-6462293D01*
X10093417Y-6511041D01*
X10110599Y-6574560D01*
X10110599Y-7335068D01*
X10090597Y-7403189D01*
X10073694Y-7424163D01*
X9905262Y-7592595D01*
X9842950Y-7626621D01*
X9816167Y-7629500D01*
X9305102Y-7629500D01*
X9275787Y-7635331D01*
X9242543Y-7657543D01*
X9220330Y-7690787D01*
X9214500Y-7720100D01*
X9214500Y-8539897D01*
X9219171Y-8563381D01*
X9220331Y-8569213D01*
X9242543Y-8602457D01*
X9275787Y-8624669D01*
X9305101Y-8630500D01*
X9441024Y-8630499D01*
X9509143Y-8650501D01*
X9555636Y-8704156D01*
X9565741Y-8774430D01*
X9536248Y-8839011D01*
X9498227Y-8868765D01*
X9421412Y-8907904D01*
X9342906Y-8986410D01*
X9292500Y-9085338D01*
X9275130Y-9195000D01*
X9292500Y-9304661D01*
X9342906Y-9403589D01*
X9421410Y-9482093D01*
X9421412Y-9482094D01*
X9421413Y-9482095D01*
X9520339Y-9532500D01*
X9630000Y-9549869D01*
X9739661Y-9532500D01*
X9838587Y-9482095D01*
X9917095Y-9403587D01*
X9967500Y-9304661D01*
X9979051Y-9231728D01*
X9996293Y-9195357D01*
X9982604Y-9174056D01*
X9979051Y-9158269D01*
X9978793Y-9156641D01*
X9967500Y-9085339D01*
X9917095Y-8986413D01*
X9917094Y-8986412D01*
X9917093Y-8986410D01*
X9838589Y-8907906D01*
X9761772Y-8868766D01*
X9710157Y-8820018D01*
X9693091Y-8751103D01*
X9715992Y-8683901D01*
X9771589Y-8639749D01*
X9818974Y-8630499D01*
X9824898Y-8630499D01*
X9854213Y-8624669D01*
X9887457Y-8602457D01*
X9909669Y-8569213D01*
X9915500Y-8539899D01*
X9915499Y-8028830D01*
X9935501Y-7960710D01*
X9952404Y-7939736D01*
X9999405Y-7892735D01*
X10061717Y-7858709D01*
X10132532Y-7863774D01*
X10189368Y-7906321D01*
X10214179Y-7972841D01*
X10214500Y-7981830D01*
X10214500Y-8539897D01*
X10219171Y-8563381D01*
X10220331Y-8569213D01*
X10242543Y-8602457D01*
X10265662Y-8617904D01*
X10269166Y-8620245D01*
X10314694Y-8674722D01*
X10323543Y-8745165D01*
X10292902Y-8809209D01*
X10269167Y-8829776D01*
X10257543Y-8837542D01*
X10235330Y-8870787D01*
X10229500Y-8900100D01*
X10229500Y-9138558D01*
X10212055Y-9197967D01*
X10228461Y-9235291D01*
X10229500Y-9251440D01*
X10229500Y-9719897D01*
X10233519Y-9740103D01*
X10235331Y-9749213D01*
X10257543Y-9782457D01*
X10282419Y-9799078D01*
X10290785Y-9804668D01*
X10290787Y-9804669D01*
X10319182Y-9810317D01*
X10382089Y-9843221D01*
X10417222Y-9904915D01*
X10420600Y-9933895D01*
X10420600Y-9970439D01*
X10400598Y-10038560D01*
X10351805Y-10082705D01*
X10351411Y-10082905D01*
X10272906Y-10161410D01*
X10222500Y-10260338D01*
X10205130Y-10370000D01*
X10222500Y-10479661D01*
X10272906Y-10578589D01*
X10351410Y-10657093D01*
X10351412Y-10657094D01*
X10351413Y-10657095D01*
X10450339Y-10707500D01*
X10560000Y-10724869D01*
X10669661Y-10707500D01*
X10768587Y-10657095D01*
X10847095Y-10578587D01*
X10872733Y-10528268D01*
X10921481Y-10476654D01*
X10990396Y-10459588D01*
X11057598Y-10482489D01*
X11097267Y-10528269D01*
X11122906Y-10578589D01*
X11201410Y-10657093D01*
X11201412Y-10657094D01*
X11201413Y-10657095D01*
X11300339Y-10707500D01*
X11392629Y-10722117D01*
X11409999Y-10724869D01*
X11409999Y-10724868D01*
X11410000Y-10724869D01*
X11519661Y-10707500D01*
X11618587Y-10657095D01*
X11697095Y-10578587D01*
X11707732Y-10557709D01*
X11756481Y-10506093D01*
X11825396Y-10489027D01*
X11892597Y-10511927D01*
X11932267Y-10557709D01*
X11942905Y-10578588D01*
X12021410Y-10657093D01*
X12021412Y-10657094D01*
X12021413Y-10657095D01*
X12120339Y-10707500D01*
X12230000Y-10724869D01*
X12339661Y-10707500D01*
X12438587Y-10657095D01*
X12517095Y-10578587D01*
X12567500Y-10479661D01*
X12570155Y-10462897D01*
X12600568Y-10398745D01*
X12642701Y-10372509D01*
X12598999Y-10343531D01*
X12570946Y-10282100D01*
X12567500Y-10260339D01*
X12517095Y-10161413D01*
X12517094Y-10161412D01*
X12517093Y-10161410D01*
X12438588Y-10082905D01*
X12438195Y-10082705D01*
X12386581Y-10033956D01*
X12369400Y-9970439D01*
X12369400Y-9936499D01*
X12389402Y-9868378D01*
X12443058Y-9821885D01*
X12495400Y-9810499D01*
X12839898Y-9810499D01*
X12869213Y-9804669D01*
X12902457Y-9782457D01*
X12924669Y-9749213D01*
X12930500Y-9719899D01*
X12930499Y-8900102D01*
X12924669Y-8870787D01*
X12902457Y-8837543D01*
X12875833Y-8819754D01*
X12830305Y-8765277D01*
X12821456Y-8694834D01*
X12852097Y-8630790D01*
X12875828Y-8610226D01*
X12887457Y-8602457D01*
X12909669Y-8569213D01*
X12915500Y-8539899D01*
X12915499Y-7981828D01*
X12935501Y-7913709D01*
X12989157Y-7867216D01*
X13059430Y-7857112D01*
X13124011Y-7886605D01*
X13130594Y-7892735D01*
X13177595Y-7939736D01*
X13211621Y-8002048D01*
X13214500Y-8028831D01*
X13214500Y-8539897D01*
X13219171Y-8563381D01*
X13220331Y-8569213D01*
X13242543Y-8602457D01*
X13275787Y-8624669D01*
X13305101Y-8630500D01*
X13824898Y-8630499D01*
X13854213Y-8624669D01*
X13887457Y-8602457D01*
X13887458Y-8602455D01*
X13908297Y-8588532D01*
X13910612Y-8591997D01*
X13928379Y-8577128D01*
X13998816Y-8568230D01*
X14062882Y-8598826D01*
X14067844Y-8603527D01*
X14121410Y-8657093D01*
X14121412Y-8657094D01*
X14121413Y-8657095D01*
X14173236Y-8683500D01*
X14186578Y-8690298D01*
X14238193Y-8739046D01*
X14255259Y-8807961D01*
X14236274Y-8866044D01*
X14229500Y-8900100D01*
X14229500Y-9719901D01*
X14233518Y-9740103D01*
X14227186Y-9810817D01*
X14183629Y-9866881D01*
X14116675Y-9890497D01*
X14090229Y-9889126D01*
X14065001Y-9885130D01*
X13955338Y-9902500D01*
X13856410Y-9952906D01*
X13777906Y-10031410D01*
X13727498Y-10130341D01*
X13717309Y-10194670D01*
X13686896Y-10258822D01*
X13626627Y-10296348D01*
X13555638Y-10295333D01*
X13496467Y-10256100D01*
X13480594Y-10232159D01*
X13447094Y-10166411D01*
X13368589Y-10087906D01*
X13269661Y-10037500D01*
X13160000Y-10020130D01*
X13050338Y-10037500D01*
X12951410Y-10087906D01*
X12872906Y-10166410D01*
X12822498Y-10265341D01*
X12819843Y-10282105D01*
X12789429Y-10346257D01*
X12747295Y-10372489D01*
X12790997Y-10401465D01*
X12819053Y-10462898D01*
X12822500Y-10484661D01*
X12872906Y-10583589D01*
X12951410Y-10662093D01*
X12951412Y-10662094D01*
X12951413Y-10662095D01*
X13050339Y-10712500D01*
X13160000Y-10729869D01*
X13160001Y-10729868D01*
X13160002Y-10729869D01*
X13214558Y-10721227D01*
X13232751Y-10718346D01*
X13303162Y-10727444D01*
X13341555Y-10753696D01*
X13494405Y-10906546D01*
X13507839Y-10919980D01*
X13507840Y-10919980D01*
X13507842Y-10919982D01*
X13510170Y-10920605D01*
X13540559Y-10933193D01*
X13542648Y-10934399D01*
X13542649Y-10934399D01*
X13542651Y-10934400D01*
X13561650Y-10934400D01*
X13617352Y-10934400D01*
X17100069Y-10934400D01*
X17168190Y-10954402D01*
X17189164Y-10971305D01*
X18761300Y-12543441D01*
X18795326Y-12605753D01*
X18796654Y-12652247D01*
X18785130Y-12724999D01*
X18802500Y-12834665D01*
X18816637Y-12862410D01*
X18829741Y-12932186D01*
X18803040Y-12997971D01*
X18745012Y-13038876D01*
X18684659Y-13044060D01*
X18612499Y-13032630D01*
X18539747Y-13044154D01*
X18469336Y-13035054D01*
X18430941Y-13008800D01*
X17116777Y-11694635D01*
X17116768Y-11694627D01*
X17112159Y-11690018D01*
X17112160Y-11690018D01*
X17110770Y-11689646D01*
X17109825Y-11689392D01*
X17079441Y-11676807D01*
X17077352Y-11675601D01*
X17058352Y-11675600D01*
X17058350Y-11675600D01*
X8899560Y-11675600D01*
X8831439Y-11655598D01*
X8787292Y-11606800D01*
X8787093Y-11606410D01*
X8708589Y-11527906D01*
X8609661Y-11477500D01*
X8500000Y-11460130D01*
X8390338Y-11477500D01*
X8291410Y-11527906D01*
X8212906Y-11606410D01*
X8162500Y-11705338D01*
X8145130Y-11815000D01*
X8162500Y-11924661D01*
X8212906Y-12023589D01*
X8291410Y-12102093D01*
X8291412Y-12102094D01*
X8291413Y-12102095D01*
X8390339Y-12152500D01*
X8402035Y-12154352D01*
X8466187Y-12184763D01*
X8503715Y-12245031D01*
X8502703Y-12316020D01*
X8471421Y-12367896D01*
X8397905Y-12441412D01*
X8347500Y-12540338D01*
X8330130Y-12649999D01*
X8347500Y-12759661D01*
X8397906Y-12858589D01*
X8476410Y-12937093D01*
X8476412Y-12937094D01*
X8476413Y-12937095D01*
X8575339Y-12987500D01*
X8685000Y-13004869D01*
X8794661Y-12987500D01*
X8893587Y-12937095D01*
X8972095Y-12858587D01*
X9022500Y-12759661D01*
X9039869Y-12650000D01*
X9022500Y-12540339D01*
X8972095Y-12441413D01*
X8972094Y-12441412D01*
X8972093Y-12441410D01*
X8893589Y-12362906D01*
X8794661Y-12312500D01*
X8782962Y-12310647D01*
X8718809Y-12280234D01*
X8681283Y-12219965D01*
X8682297Y-12148976D01*
X8713577Y-12097104D01*
X8787095Y-12023587D01*
X8787292Y-12023199D01*
X8836039Y-11971584D01*
X8899560Y-11954400D01*
X16930069Y-11954400D01*
X16998190Y-11974402D01*
X17019164Y-11991305D01*
X18233800Y-13205941D01*
X18267826Y-13268253D01*
X18269154Y-13314747D01*
X18257630Y-13387499D01*
X18275000Y-13497161D01*
X18325406Y-13596089D01*
X18403910Y-13674593D01*
X18403912Y-13674594D01*
X18403913Y-13674595D01*
X18502839Y-13725000D01*
X18612500Y-13742369D01*
X18722161Y-13725000D01*
X18821087Y-13674595D01*
X18899595Y-13596087D01*
X18950000Y-13497161D01*
X18967369Y-13387500D01*
X18950000Y-13277839D01*
X18949999Y-13277837D01*
X18949999Y-13277836D01*
X18935862Y-13250090D01*
X18922758Y-13180314D01*
X18949458Y-13114529D01*
X19007486Y-13073623D01*
X19067837Y-13068439D01*
X19140000Y-13079869D01*
X19249661Y-13062500D01*
X19348587Y-13012095D01*
X19427095Y-12933587D01*
X19477500Y-12834661D01*
X19494869Y-12725000D01*
X19477500Y-12615339D01*
X19427095Y-12516413D01*
X19427094Y-12516412D01*
X19427093Y-12516410D01*
X19348589Y-12437906D01*
X19249661Y-12387500D01*
X19139999Y-12370130D01*
X19067247Y-12381654D01*
X18996836Y-12372554D01*
X18958441Y-12346300D01*
X17286777Y-10674635D01*
X17286768Y-10674627D01*
X17282159Y-10670018D01*
X17282160Y-10670018D01*
X17280770Y-10669646D01*
X17279825Y-10669392D01*
X17249441Y-10656807D01*
X17247352Y-10655601D01*
X17228352Y-10655600D01*
X17228350Y-10655600D01*
X14449273Y-10655600D01*
X14381152Y-10635598D01*
X14334659Y-10581942D01*
X14324555Y-10511668D01*
X14344826Y-10467280D01*
X14343035Y-10466368D01*
X14352095Y-10448587D01*
X14402500Y-10349661D01*
X14419869Y-10240000D01*
X14402500Y-10130339D01*
X14352095Y-10031413D01*
X14352094Y-10031412D01*
X14352093Y-10031410D01*
X14346277Y-10025594D01*
X14312251Y-9963282D01*
X14317316Y-9892467D01*
X14359863Y-9835631D01*
X14426383Y-9810820D01*
X14435350Y-9810499D01*
X14839898Y-9810499D01*
X14869213Y-9804669D01*
X14902457Y-9782457D01*
X14924669Y-9749213D01*
X14930500Y-9719899D01*
X14930499Y-9208831D01*
X14950501Y-9140711D01*
X14967404Y-9119737D01*
X15014405Y-9072736D01*
X15076717Y-9038710D01*
X15147532Y-9043775D01*
X15204368Y-9086322D01*
X15229179Y-9152842D01*
X15229500Y-9161831D01*
X15229500Y-9719897D01*
X15233519Y-9740103D01*
X15235331Y-9749213D01*
X15257543Y-9782457D01*
X15290787Y-9804669D01*
X15320101Y-9810500D01*
X15839898Y-9810499D01*
X15869213Y-9804669D01*
X15902457Y-9782457D01*
X15924669Y-9749213D01*
X15930500Y-9719899D01*
X15930499Y-9022500D01*
X16957630Y-9022500D01*
X16975000Y-9132161D01*
X17025406Y-9231089D01*
X17103910Y-9309593D01*
X17103912Y-9309594D01*
X17103913Y-9309595D01*
X17202839Y-9360000D01*
X17312500Y-9377369D01*
X17422161Y-9360000D01*
X17521087Y-9309595D01*
X17599595Y-9231087D01*
X17650000Y-9132161D01*
X17667369Y-9022500D01*
X17650000Y-8912839D01*
X17599595Y-8813913D01*
X17599594Y-8813912D01*
X17599593Y-8813910D01*
X17521089Y-8735406D01*
X17422161Y-8685000D01*
X17312500Y-8667630D01*
X17202838Y-8685000D01*
X17103910Y-8735406D01*
X17025406Y-8813910D01*
X16975000Y-8912838D01*
X16957630Y-9022500D01*
X15930499Y-9022500D01*
X15930499Y-8900102D01*
X15924669Y-8870787D01*
X15902457Y-8837543D01*
X15869213Y-8815331D01*
X15869212Y-8815330D01*
X15827728Y-8807079D01*
X15828248Y-8804463D01*
X15777279Y-8789498D01*
X15730786Y-8735842D01*
X15719400Y-8683500D01*
X15719400Y-7076143D01*
X15719399Y-7076135D01*
X15719399Y-7072649D01*
X15719399Y-7072648D01*
X15718193Y-7070559D01*
X15705606Y-7040173D01*
X15704982Y-7037842D01*
X15691547Y-7024406D01*
X15691546Y-7024405D01*
X15042141Y-6375000D01*
X19505130Y-6375000D01*
X19522500Y-6484661D01*
X19572906Y-6583589D01*
X19651410Y-6662093D01*
X19651412Y-6662094D01*
X19651413Y-6662095D01*
X19750339Y-6712500D01*
X19860000Y-6729869D01*
X19969661Y-6712500D01*
X20068587Y-6662095D01*
X20147095Y-6583587D01*
X20197500Y-6484661D01*
X20214869Y-6375000D01*
X20197500Y-6265339D01*
X20147095Y-6166413D01*
X20147094Y-6166412D01*
X20147093Y-6166410D01*
X20068589Y-6087906D01*
X19969661Y-6037500D01*
X19860000Y-6020130D01*
X19750338Y-6037500D01*
X19651410Y-6087906D01*
X19572906Y-6166410D01*
X19522500Y-6265338D01*
X19505130Y-6375000D01*
X15042141Y-6375000D01*
X14653699Y-5986558D01*
X14619673Y-5924246D01*
X14618346Y-5877751D01*
X14629869Y-5805002D01*
X14629660Y-5803680D01*
X14612500Y-5695339D01*
X14562095Y-5596413D01*
X14562094Y-5596412D01*
X14562093Y-5596410D01*
X14483589Y-5517906D01*
X14384661Y-5467500D01*
X14275000Y-5450130D01*
X14165338Y-5467500D01*
X14066410Y-5517906D01*
X13987906Y-5596410D01*
X13937500Y-5695338D01*
X13920130Y-5805000D01*
X13930276Y-5869053D01*
X13921176Y-5939464D01*
X13875454Y-5993778D01*
X13825539Y-6013213D01*
X13735336Y-6027500D01*
X13721587Y-6034506D01*
X13651810Y-6047610D01*
X13586026Y-6020909D01*
X13545120Y-5962881D01*
X13542080Y-5891950D01*
X13552119Y-5865035D01*
X13560006Y-5849555D01*
X13562500Y-5844661D01*
X13579869Y-5735000D01*
X13562500Y-5625339D01*
X13512095Y-5526413D01*
X13512094Y-5526412D01*
X13512093Y-5526410D01*
X13433589Y-5447906D01*
X13334661Y-5397500D01*
X13225000Y-5380130D01*
X13115338Y-5397500D01*
X13016410Y-5447906D01*
X12937904Y-5526412D01*
X12885609Y-5629047D01*
X12836861Y-5680662D01*
X12767946Y-5697727D01*
X12716141Y-5684110D01*
X12624663Y-5637500D01*
X12515000Y-5620130D01*
X12405338Y-5637500D01*
X12306410Y-5687906D01*
X12227904Y-5766412D01*
X12186918Y-5846852D01*
X12138170Y-5898467D01*
X12069255Y-5915532D01*
X12017450Y-5901915D01*
X11939216Y-5862053D01*
X11829553Y-5844683D01*
X11719891Y-5862053D01*
X11620963Y-5912459D01*
X11542457Y-5990965D01*
X11542119Y-5991630D01*
X11493370Y-6043245D01*
X11424455Y-6060310D01*
X11357254Y-6037408D01*
X11317586Y-5991629D01*
X11297093Y-5951410D01*
X11218589Y-5872906D01*
X11119661Y-5822500D01*
X11010000Y-5805130D01*
X10900338Y-5822500D01*
X10801410Y-5872906D01*
X10711595Y-5962722D01*
X10649283Y-5996748D01*
X10578468Y-5991683D01*
X10533405Y-5962722D01*
X10458589Y-5887906D01*
X10359661Y-5837500D01*
X10250000Y-5820130D01*
X10120628Y-5840622D01*
X10120615Y-5840541D01*
X10072614Y-5849555D01*
X10006831Y-5822852D01*
X9965926Y-5764823D01*
X9962818Y-5728620D01*
X9959869Y-5709999D01*
X9942500Y-5600339D01*
X9892095Y-5501413D01*
X9892094Y-5501412D01*
X9892093Y-5501410D01*
X9813589Y-5422906D01*
X9714661Y-5372500D01*
X9604999Y-5355130D01*
X9495338Y-5372500D01*
X9396410Y-5422906D01*
X9317906Y-5501410D01*
X9267500Y-5600338D01*
X9253631Y-5687905D01*
X9250131Y-5710000D01*
X9259066Y-5766413D01*
X9261654Y-5782749D01*
X9252555Y-5853161D01*
X9226301Y-5891556D01*
X8453456Y-6664402D01*
X8453455Y-6664403D01*
X8453454Y-6664405D01*
X8453452Y-6664407D01*
X8446735Y-6671124D01*
X8440017Y-6677842D01*
X8439392Y-6680178D01*
X8426807Y-6710559D01*
X8425601Y-6712647D01*
X8425600Y-6731647D01*
X8425600Y-7503500D01*
X8405598Y-7571621D01*
X8351942Y-7618114D01*
X8316999Y-7625717D01*
X8317271Y-7627081D01*
X8261445Y-7638183D01*
X8212646Y-7653462D01*
X8144180Y-7634677D01*
X8096738Y-7581859D01*
X8084400Y-7527482D01*
X8084400Y-4750642D01*
X8104402Y-4682521D01*
X8121305Y-4661547D01*
X8432853Y-4349999D01*
X14955130Y-4349999D01*
X14972500Y-4459661D01*
X15022906Y-4558589D01*
X15101410Y-4637093D01*
X15101412Y-4637094D01*
X15101413Y-4637095D01*
X15200339Y-4687500D01*
X15310000Y-4704869D01*
X15419661Y-4687500D01*
X15518587Y-4637095D01*
X15597095Y-4558587D01*
X15647500Y-4459661D01*
X15664869Y-4350000D01*
X15647500Y-4240339D01*
X15597095Y-4141413D01*
X15597094Y-4141412D01*
X15597093Y-4141410D01*
X15518589Y-4062906D01*
X15419661Y-4012500D01*
X15310000Y-3995130D01*
X15200338Y-4012500D01*
X15101410Y-4062906D01*
X15022906Y-4141410D01*
X14972500Y-4240338D01*
X14955130Y-4349999D01*
X8432853Y-4349999D01*
X9581547Y-3201305D01*
X9643859Y-3167279D01*
X9670642Y-3164400D01*
X11270727Y-3164400D01*
X11338848Y-3184402D01*
X11385341Y-3238058D01*
X11395445Y-3308332D01*
X11365951Y-3372912D01*
X11359822Y-3379495D01*
X11357906Y-3381410D01*
X11307500Y-3480338D01*
X11290130Y-3589999D01*
X11307500Y-3699661D01*
X11357906Y-3798589D01*
X11436410Y-3877093D01*
X11436412Y-3877094D01*
X11436413Y-3877095D01*
X11535339Y-3927500D01*
X11627630Y-3942117D01*
X11644999Y-3944869D01*
X11644999Y-3944868D01*
X11645000Y-3944869D01*
X11754661Y-3927500D01*
X11853587Y-3877095D01*
X11932095Y-3798587D01*
X11982500Y-3699661D01*
X11999869Y-3590000D01*
X11982500Y-3480339D01*
X11932095Y-3381413D01*
X11932094Y-3381412D01*
X11932093Y-3381410D01*
X11930178Y-3379495D01*
X11896152Y-3317183D01*
X11901217Y-3246368D01*
X11943764Y-3189532D01*
X12010284Y-3164721D01*
X12019273Y-3164400D01*
X20443783Y-3164400D01*
X20469390Y-3168750D01*
X20475616Y-3168048D01*
X20475618Y-3168049D01*
X20500975Y-3165192D01*
X20515082Y-3164400D01*
X20518708Y-3164400D01*
X20518710Y-3164400D01*
X20522253Y-3163591D01*
X20536165Y-3161227D01*
X20561533Y-3158369D01*
X20561535Y-3158367D01*
X20567770Y-3157665D01*
X20576755Y-3153944D01*
X20601606Y-3134125D01*
X20613139Y-3125942D01*
X20616205Y-3124016D01*
X20618770Y-3121450D01*
X20629302Y-3112038D01*
X20649256Y-3096126D01*
X20649257Y-3096123D01*
X20654157Y-3092216D01*
X20669188Y-3071031D01*
X21381211Y-2359008D01*
X21443521Y-2324984D01*
X21514336Y-2330049D01*
X21571172Y-2372596D01*
X21595983Y-2439116D01*
X21595226Y-2464551D01*
X21583566Y-2553120D01*
X21604203Y-2709882D01*
X21664712Y-2855963D01*
X21760965Y-2981403D01*
X21899567Y-3087756D01*
X21896662Y-3091541D01*
X21927358Y-3116295D01*
X21949756Y-3183666D01*
X21932175Y-3252452D01*
X21897016Y-3285162D01*
X21899567Y-3288486D01*
X21760965Y-3394838D01*
X21664712Y-3520278D01*
X21604203Y-3666359D01*
X21583566Y-3823120D01*
X21604203Y-3979882D01*
X21664712Y-4125963D01*
X21760965Y-4251403D01*
X21899567Y-4357756D01*
X21896662Y-4361541D01*
X21927358Y-4386295D01*
X21949756Y-4453666D01*
X21932175Y-4522452D01*
X21897016Y-4555162D01*
X21899567Y-4558486D01*
X21760965Y-4664838D01*
X21664712Y-4790278D01*
X21604203Y-4936359D01*
X21583566Y-5093121D01*
X21604203Y-5249881D01*
X21604204Y-5249883D01*
X21639685Y-5335542D01*
X21647274Y-5406130D01*
X21615495Y-5469617D01*
X21612372Y-5472854D01*
X21327704Y-5757523D01*
X21327703Y-5757524D01*
X21327702Y-5757526D01*
X21327700Y-5757528D01*
X21320983Y-5764245D01*
X21314265Y-5770963D01*
X21313640Y-5773299D01*
X21301055Y-5803680D01*
X21299849Y-5805768D01*
X21299848Y-5824768D01*
X21299848Y-11530820D01*
X21279846Y-11598941D01*
X21262943Y-11619915D01*
X17213454Y-15669405D01*
X17213452Y-15669407D01*
X17200018Y-15682842D01*
X17199392Y-15685178D01*
X17186807Y-15715559D01*
X17185601Y-15717647D01*
X17185600Y-15736647D01*
X17185600Y-16640439D01*
X17165598Y-16708560D01*
X17116805Y-16752705D01*
X17116411Y-16752905D01*
X17037906Y-16831410D01*
X16987500Y-16930338D01*
X16970130Y-17040000D01*
X16987500Y-17149661D01*
X17037906Y-17248589D01*
X17116410Y-17327093D01*
X17116412Y-17327094D01*
X17116413Y-17327095D01*
X17215339Y-17377500D01*
X17307630Y-17392117D01*
X17324999Y-17394869D01*
X17324999Y-17394868D01*
X17325000Y-17394869D01*
X17434661Y-17377500D01*
X17533587Y-17327095D01*
X17612095Y-17248587D01*
X17662500Y-17149661D01*
X17679869Y-17040000D01*
X17662500Y-16930339D01*
X17612095Y-16831413D01*
X17612094Y-16831412D01*
X17612093Y-16831410D01*
X17533588Y-16752905D01*
X17533195Y-16752705D01*
X17481581Y-16703956D01*
X17464400Y-16640439D01*
X17464400Y-15864931D01*
X17484402Y-15796810D01*
X17501305Y-15775836D01*
X19512610Y-13764532D01*
X21550794Y-11726348D01*
X21550794Y-11726347D01*
X21564225Y-11712917D01*
X21564228Y-11712911D01*
X21564230Y-11712910D01*
X21564852Y-11710585D01*
X21577445Y-11680185D01*
X21578647Y-11678104D01*
X21578647Y-11673777D01*
X21578648Y-11673768D01*
X21578648Y-6907007D01*
X21598650Y-6838886D01*
X21652306Y-6792393D01*
X21722580Y-6782289D01*
X21781348Y-6807043D01*
X21886407Y-6887657D01*
X22032486Y-6948165D01*
X22189248Y-6968803D01*
X22346010Y-6948165D01*
X22492089Y-6887657D01*
X22597146Y-6807043D01*
X22663363Y-6781444D01*
X22732912Y-6795708D01*
X22783709Y-6845309D01*
X22799848Y-6907007D01*
X22799847Y-10990821D01*
X22779845Y-11058942D01*
X22762942Y-11079916D01*
X18228454Y-15614405D01*
X18228452Y-15614407D01*
X18215018Y-15627842D01*
X18214392Y-15630178D01*
X18201807Y-15660559D01*
X18200601Y-15662647D01*
X18200600Y-15681647D01*
X18200600Y-16635439D01*
X18180598Y-16703560D01*
X18131805Y-16747705D01*
X18131411Y-16747905D01*
X18052906Y-16826410D01*
X18002500Y-16925338D01*
X17985130Y-17035000D01*
X18002500Y-17144661D01*
X18052906Y-17243589D01*
X18131410Y-17322093D01*
X18131412Y-17322094D01*
X18131413Y-17322095D01*
X18230339Y-17372500D01*
X18340000Y-17389869D01*
X18449661Y-17372500D01*
X18548587Y-17322095D01*
X18627095Y-17243587D01*
X18677500Y-17144661D01*
X18694869Y-17035000D01*
X18677500Y-16925339D01*
X18627095Y-16826413D01*
X18627094Y-16826412D01*
X18627093Y-16826410D01*
X18548588Y-16747905D01*
X18548195Y-16747705D01*
X18496581Y-16698956D01*
X18479400Y-16635439D01*
X18479400Y-15809931D01*
X18499402Y-15741810D01*
X18516305Y-15720836D01*
X20492141Y-13745000D01*
X22065130Y-13745000D01*
X22082500Y-13854661D01*
X22132906Y-13953589D01*
X22211410Y-14032093D01*
X22211412Y-14032094D01*
X22211413Y-14032095D01*
X22310339Y-14082500D01*
X22402630Y-14097117D01*
X22419999Y-14099869D01*
X22419999Y-14099868D01*
X22420000Y-14099869D01*
X22529661Y-14082500D01*
X22628587Y-14032095D01*
X22707095Y-13953587D01*
X22757500Y-13854661D01*
X22774869Y-13745000D01*
X22757500Y-13635339D01*
X22707095Y-13536413D01*
X22707094Y-13536412D01*
X22707093Y-13536410D01*
X22628589Y-13457906D01*
X22529661Y-13407500D01*
X22419999Y-13390130D01*
X22310338Y-13407500D01*
X22211410Y-13457906D01*
X22132906Y-13536410D01*
X22082500Y-13635338D01*
X22065130Y-13745000D01*
X20492141Y-13745000D01*
X21854582Y-12382559D01*
X21916894Y-12348533D01*
X21987709Y-12353598D01*
X22044545Y-12396145D01*
X22069356Y-12462665D01*
X22068126Y-12491365D01*
X22059630Y-12544999D01*
X22077000Y-12654661D01*
X22127406Y-12753589D01*
X22205910Y-12832093D01*
X22205912Y-12832094D01*
X22205913Y-12832095D01*
X22304839Y-12882500D01*
X22397129Y-12897117D01*
X22414499Y-12899869D01*
X22414499Y-12899868D01*
X22414500Y-12899869D01*
X22524161Y-12882500D01*
X22623087Y-12832095D01*
X22701595Y-12753587D01*
X22752000Y-12654661D01*
X22769369Y-12545000D01*
X22767803Y-12535116D01*
X22759961Y-12485601D01*
X22752000Y-12435339D01*
X22701595Y-12336413D01*
X22701594Y-12336412D01*
X22701593Y-12336410D01*
X22623089Y-12257906D01*
X22524161Y-12207500D01*
X22414499Y-12190130D01*
X22360865Y-12198626D01*
X22290454Y-12189526D01*
X22236140Y-12143805D01*
X22215167Y-12075976D01*
X22234194Y-12007577D01*
X22252055Y-11985085D01*
X23050794Y-11186347D01*
X23050794Y-11186346D01*
X23061168Y-11175973D01*
X23061170Y-11175975D01*
X23061176Y-11175962D01*
X23064230Y-11172910D01*
X23064853Y-11170581D01*
X23077442Y-11140190D01*
X23078647Y-11138104D01*
X23078647Y-11133777D01*
X23078648Y-11133768D01*
X23078648Y-4539264D01*
X23078647Y-4539256D01*
X23078647Y-4535770D01*
X23078647Y-4535769D01*
X23077441Y-4533680D01*
X23064854Y-4503294D01*
X23064230Y-4500963D01*
X23050795Y-4487527D01*
X23050794Y-4487526D01*
X22766124Y-4202855D01*
X22732098Y-4140544D01*
X22737163Y-4069729D01*
X22738794Y-4065581D01*
X22774292Y-3979883D01*
X22794930Y-3823121D01*
X22774292Y-3666359D01*
X22713784Y-3520280D01*
X22713783Y-3520279D01*
X22713783Y-3520278D01*
X22617530Y-3394838D01*
X22478929Y-3288486D01*
X22481834Y-3284699D01*
X22451163Y-3259984D01*
X22428740Y-3192622D01*
X22446297Y-3123830D01*
X22481475Y-3091075D01*
X22478929Y-3087756D01*
X22617530Y-2981403D01*
X22713783Y-2855963D01*
X22713782Y-2855963D01*
X22713784Y-2855962D01*
X22774292Y-2709883D01*
X22794930Y-2553121D01*
X22774292Y-2396359D01*
X22713784Y-2250280D01*
X22713783Y-2250279D01*
X22713783Y-2250278D01*
X22617530Y-2124838D01*
X22478929Y-2018486D01*
X22481834Y-2014699D01*
X22451163Y-1989984D01*
X22428740Y-1922622D01*
X22446297Y-1853830D01*
X22481475Y-1821075D01*
X22478929Y-1817756D01*
X22617530Y-1711403D01*
X22693148Y-1612855D01*
X22713784Y-1585962D01*
X22774292Y-1439883D01*
X22794930Y-1283121D01*
X22774292Y-1126359D01*
X22713784Y-980280D01*
X22713783Y-980279D01*
X22713783Y-980278D01*
X22617530Y-854838D01*
X22492091Y-758585D01*
X22465108Y-747409D01*
X22409827Y-702861D01*
X22387406Y-635498D01*
X22404964Y-566706D01*
X22456926Y-518328D01*
X22513326Y-505000D01*
X23329000Y-505000D01*
X23397121Y-525002D01*
G37*
%TD.AperFunction*%
%TA.AperFunction,Conductor*%
G36*
X13572912Y-6589049D02*
G01*
X13579495Y-6595178D01*
X13636410Y-6652093D01*
X13636412Y-6652094D01*
X13636413Y-6652095D01*
X13735339Y-6702500D01*
X13845000Y-6719869D01*
X13845000Y-6719868D01*
X13845001Y-6719869D01*
X13864839Y-6716726D01*
X13917750Y-6708346D01*
X13988161Y-6717444D01*
X14026554Y-6743696D01*
X14187857Y-6904999D01*
X14323862Y-7041004D01*
X14323866Y-7041007D01*
X14324911Y-7042052D01*
X14346401Y-7058542D01*
X14738695Y-7450836D01*
X14772721Y-7513148D01*
X14775600Y-7539931D01*
X14775600Y-8015727D01*
X14755598Y-8083848D01*
X14701942Y-8130341D01*
X14631668Y-8140445D01*
X14567088Y-8110951D01*
X14560505Y-8104822D01*
X14538589Y-8082906D01*
X14439661Y-8032500D01*
X14330000Y-8015130D01*
X14220338Y-8032500D01*
X14103632Y-8091965D01*
X14102228Y-8089211D01*
X14068270Y-8107750D01*
X13997455Y-8102678D01*
X13940623Y-8060126D01*
X13915819Y-7993603D01*
X13915499Y-7984627D01*
X13915499Y-7720102D01*
X13913175Y-7708416D01*
X13909669Y-7690787D01*
X13887457Y-7657543D01*
X13859197Y-7638661D01*
X13854212Y-7635330D01*
X13824900Y-7629500D01*
X13824899Y-7629500D01*
X13490400Y-7629500D01*
X13422279Y-7609498D01*
X13375786Y-7555842D01*
X13364400Y-7503500D01*
X13364400Y-6684273D01*
X13384402Y-6616152D01*
X13438058Y-6569659D01*
X13508332Y-6559555D01*
X13572912Y-6589049D01*
G37*
%TD.AperFunction*%
%TD*%
M02*
