M48
; DRILL file {KiCad 7.0.2-6a45011f42~172~ubuntu22.04.1} date Mon 22 May 2023 20:19:49
; FORMAT={-:-/ absolute / inch / decimal}
; #@! TF.CreationDate,2023-05-22T20:19:49+08:00
; #@! TF.GenerationSoftware,Kicad,Pcbnew,7.0.2-6a45011f42~172~ubuntu22.04.1
; #@! TF.FileFunction,Plated,1,4,PTH
FMAT,2
INCH
; #@! TA.AperFunction,Plated,PTH,ViaDrill
T1C0.0079
; #@! TA.AperFunction,Plated,PTH,ComponentDrill
T2C0.0197
; #@! TA.AperFunction,Plated,PTH,ComponentDrill
T3C0.0256
%
G90
G05
T1
X0.0492Y-0.4173
X0.0496Y-0.2146
X0.0632Y-0.5394
X0.1134Y-0.0488
X0.1642Y-0.4161
X0.1657Y-0.2154
X0.1888Y-0.7047
X0.2014Y-0.4864
X0.2427Y-0.3384
X0.2579Y-0.3681
X0.3039Y-0.4567
X0.3112Y-0.5778
X0.3813Y-0.236
X0.3965Y-0.5299
X0.4457Y-0.1305
X0.5539Y-0.4075
X0.5707Y-0.135
X0.5825Y-0.5089
X0.6474Y-0.4496
X0.6821Y-0.3427
X0.6923Y-0.697
X0.6935Y-0.4642
X0.6945Y-0.3785
X0.7197Y-0.532
X0.7335Y-0.1988
X0.835Y-0.5628
T2
X0.0636Y-0.1024
X0.0636Y-0.1634
X0.1567Y-0.0632
X0.1982Y-0.5431
X0.2177Y-0.0632
X0.2593Y-0.5431
X0.2805Y-0.0632
X0.3175Y-0.6827
X0.3415Y-0.0632
X0.3785Y-0.6827
X0.4051Y-0.0632
X0.4431Y-0.6827
X0.4661Y-0.0632
X0.5041Y-0.6827
X0.5457Y-0.0634
X0.5675Y-0.6827
X0.6067Y-0.0634
X0.6285Y-0.6827
X0.8799Y-0.3835
X0.8799Y-0.4445
T3
X0.8736Y-0.0505
X0.8736Y-0.1005
X0.8736Y-0.1505
X0.8736Y-0.2005
X0.8736Y-0.2505
X0.8736Y-0.3005
T0
M30
