%TF.GenerationSoftware,KiCad,Pcbnew,7.0.2-6a45011f42~172~ubuntu22.04.1*%
%TF.CreationDate,2023-06-02T20:05:51+08:00*%
%TF.ProjectId,fly2040,666c7932-3034-4302-9e6b-696361645f70,rev?*%
%TF.SameCoordinates,PX4323800PY2f1c8c0*%
%TF.FileFunction,Copper,L1,Top*%
%TF.FilePolarity,Positive*%
%FSLAX46Y46*%
G04 Gerber Fmt 4.6, Leading zero omitted, Abs format (unit mm)*
G04 Created by KiCad (PCBNEW 7.0.2-6a45011f42~172~ubuntu22.04.1) date 2023-06-02 20:05:51*
%MOMM*%
%LPD*%
G01*
G04 APERTURE LIST*
G04 Aperture macros list*
%AMRoundRect*
0 Rectangle with rounded corners*
0 $1 Rounding radius*
0 $2 $3 $4 $5 $6 $7 $8 $9 X,Y pos of 4 corners*
0 Add a 4 corners polygon primitive as box body*
4,1,4,$2,$3,$4,$5,$6,$7,$8,$9,$2,$3,0*
0 Add four circle primitives for the rounded corners*
1,1,$1+$1,$2,$3*
1,1,$1+$1,$4,$5*
1,1,$1+$1,$6,$7*
1,1,$1+$1,$8,$9*
0 Add four rect primitives between the rounded corners*
20,1,$1+$1,$2,$3,$4,$5,0*
20,1,$1+$1,$4,$5,$6,$7,0*
20,1,$1+$1,$6,$7,$8,$9,0*
20,1,$1+$1,$8,$9,$2,$3,0*%
G04 Aperture macros list end*
%TA.AperFunction,SMDPad,CuDef*%
%ADD10RoundRect,0.135000X0.135000X0.185000X-0.135000X0.185000X-0.135000X-0.185000X0.135000X-0.185000X0*%
%TD*%
%TA.AperFunction,SMDPad,CuDef*%
%ADD11RoundRect,0.135000X-0.135000X-0.185000X0.135000X-0.185000X0.135000X0.185000X-0.135000X0.185000X0*%
%TD*%
%TA.AperFunction,SMDPad,CuDef*%
%ADD12RoundRect,0.135000X-0.185000X0.135000X-0.185000X-0.135000X0.185000X-0.135000X0.185000X0.135000X0*%
%TD*%
%TA.AperFunction,SMDPad,CuDef*%
%ADD13RoundRect,0.135000X0.185000X-0.135000X0.185000X0.135000X-0.185000X0.135000X-0.185000X-0.135000X0*%
%TD*%
%TA.AperFunction,SMDPad,CuDef*%
%ADD14RoundRect,0.140000X-0.170000X0.140000X-0.170000X-0.140000X0.170000X-0.140000X0.170000X0.140000X0*%
%TD*%
%TA.AperFunction,SMDPad,CuDef*%
%ADD15RoundRect,0.140000X-0.140000X-0.170000X0.140000X-0.170000X0.140000X0.170000X-0.140000X0.170000X0*%
%TD*%
%TA.AperFunction,SMDPad,CuDef*%
%ADD16RoundRect,0.140000X0.170000X-0.140000X0.170000X0.140000X-0.170000X0.140000X-0.170000X-0.140000X0*%
%TD*%
%TA.AperFunction,SMDPad,CuDef*%
%ADD17RoundRect,0.140000X0.140000X0.170000X-0.140000X0.170000X-0.140000X-0.170000X0.140000X-0.170000X0*%
%TD*%
%TA.AperFunction,ComponentPad*%
%ADD18RoundRect,0.100000X-0.550000X0.850000X-0.550000X-0.850000X0.550000X-0.850000X0.550000X0.850000X0*%
%TD*%
%TA.AperFunction,SMDPad,CuDef*%
%ADD19R,0.200000X1.100000*%
%TD*%
%TA.AperFunction,SMDPad,CuDef*%
%ADD20R,1.100000X0.200000*%
%TD*%
%TA.AperFunction,SMDPad,CuDef*%
%ADD21R,3.100000X3.100000*%
%TD*%
%TA.AperFunction,SMDPad,CuDef*%
%ADD22R,0.280000X0.600000*%
%TD*%
%TA.AperFunction,SMDPad,CuDef*%
%ADD23R,1.700000X0.300000*%
%TD*%
%TA.AperFunction,ComponentPad*%
%ADD24O,1.000000X1.000000*%
%TD*%
%TA.AperFunction,ComponentPad*%
%ADD25RoundRect,0.100000X-0.850000X-0.550000X0.850000X-0.550000X0.850000X0.550000X-0.850000X0.550000X0*%
%TD*%
%TA.AperFunction,SMDPad,CuDef*%
%ADD26R,0.532000X1.045000*%
%TD*%
%TA.AperFunction,SMDPad,CuDef*%
%ADD27R,0.280000X0.800000*%
%TD*%
%TA.AperFunction,SMDPad,CuDef*%
%ADD28R,0.800000X0.280000*%
%TD*%
%TA.AperFunction,SMDPad,CuDef*%
%ADD29R,2.050000X2.050000*%
%TD*%
%TA.AperFunction,SMDPad,CuDef*%
%ADD30R,1.000000X1.524000*%
%TD*%
%TA.AperFunction,SMDPad,CuDef*%
%ADD31R,1.200000X1.400000*%
%TD*%
%TA.AperFunction,SMDPad,CuDef*%
%ADD32R,0.450000X0.450000*%
%TD*%
%TA.AperFunction,SMDPad,CuDef*%
%ADD33R,0.750000X0.200000*%
%TD*%
%TA.AperFunction,SMDPad,CuDef*%
%ADD34R,0.665000X0.200000*%
%TD*%
%TA.AperFunction,SMDPad,CuDef*%
%ADD35R,0.200000X0.665000*%
%TD*%
%TA.AperFunction,SMDPad,CuDef*%
%ADD36R,1.040000X0.455000*%
%TD*%
%TA.AperFunction,ViaPad*%
%ADD37C,0.450000*%
%TD*%
%TA.AperFunction,Conductor*%
%ADD38C,0.100000*%
%TD*%
%TA.AperFunction,Conductor*%
%ADD39C,0.300000*%
%TD*%
%TA.AperFunction,Conductor*%
%ADD40C,0.200000*%
%TD*%
%TA.AperFunction,Conductor*%
%ADD41C,0.357600*%
%TD*%
%TA.AperFunction,Conductor*%
%ADD42C,0.500000*%
%TD*%
G04 APERTURE END LIST*
D10*
%TO.P,R16,1*%
%TO.N,Net-(U8-Y)*%
X16580000Y-17935000D03*
%TO.P,R16,2*%
%TO.N,MMC_SEL_INV*%
X15560000Y-17935000D03*
%TD*%
%TO.P,R15,1*%
%TO.N,GND*%
X14575000Y-17945000D03*
%TO.P,R15,2*%
%TO.N,MMC_SEL*%
X13555000Y-17945000D03*
%TD*%
D11*
%TO.P,R14,1*%
%TO.N,Net-(U5-OE#)*%
X21980001Y-14680000D03*
%TO.P,R14,2*%
%TO.N,GND*%
X23000001Y-14680000D03*
%TD*%
D12*
%TO.P,R13,1*%
%TO.N,GND*%
X19440000Y-14135000D03*
%TO.P,R13,2*%
%TO.N,USB_SEL*%
X19440000Y-15155000D03*
%TD*%
%TO.P,R12,1*%
%TO.N,Net-(JP1-B)*%
X1270000Y-3445000D03*
%TO.P,R12,2*%
%TO.N,GND*%
X1270000Y-4465000D03*
%TD*%
D10*
%TO.P,R9,1*%
%TO.N,Net-(JP2-B)*%
X2010000Y-11625000D03*
%TO.P,R9,2*%
%TO.N,GND*%
X990000Y-11625000D03*
%TD*%
D13*
%TO.P,R8,1*%
%TO.N,+5V*%
X19250000Y-11755000D03*
%TO.P,R8,2*%
%TO.N,Net-(U4-EN)*%
X19250000Y-10735000D03*
%TD*%
D11*
%TO.P,R7,1*%
%TO.N,BOARD_DET*%
X20060001Y-13100000D03*
%TO.P,R7,2*%
%TO.N,GND*%
X21080001Y-13100000D03*
%TD*%
D13*
%TO.P,R6,1*%
%TO.N,+3V3*%
X20785000Y-6100000D03*
%TO.P,R6,2*%
%TO.N,QSPI_CS*%
X20785000Y-5080000D03*
%TD*%
D12*
%TO.P,R5,1*%
%TO.N,BOOT*%
X20785000Y-3095000D03*
%TO.P,R5,2*%
%TO.N,QSPI_CS*%
X20785000Y-4115000D03*
%TD*%
%TO.P,R4,1*%
%TO.N,Net-(U1-USB_DM)*%
X17240000Y-15105000D03*
%TO.P,R4,2*%
%TO.N,D-*%
X17240000Y-16125000D03*
%TD*%
%TO.P,R3,1*%
%TO.N,Net-(U1-USB_DP)*%
X18285000Y-15110000D03*
%TO.P,R3,2*%
%TO.N,D+*%
X18285000Y-16130000D03*
%TD*%
D13*
%TO.P,R2,1*%
%TO.N,+3V3*%
X7510000Y-12575000D03*
%TO.P,R2,2*%
%TO.N,RST*%
X7510000Y-11555000D03*
%TD*%
%TO.P,R1,1*%
%TO.N,Net-(X1-OSC1)*%
X5110000Y-9300000D03*
%TO.P,R1,2*%
%TO.N,XOUT*%
X5110000Y-8280000D03*
%TD*%
D14*
%TO.P,C14,1*%
%TO.N,+3V3*%
X20785000Y-7075000D03*
%TO.P,C14,2*%
%TO.N,GND*%
X20785000Y-8035000D03*
%TD*%
%TO.P,C13,1*%
%TO.N,+3V3*%
X6130000Y-9610000D03*
%TO.P,C13,2*%
%TO.N,GND*%
X6130000Y-10570000D03*
%TD*%
D15*
%TO.P,C12,1*%
%TO.N,+3V3*%
X12545000Y-3315000D03*
%TO.P,C12,2*%
%TO.N,GND*%
X13505000Y-3315000D03*
%TD*%
%TO.P,C11,1*%
%TO.N,+3V3*%
X15310000Y-3310000D03*
%TO.P,C11,2*%
%TO.N,GND*%
X16270000Y-3310000D03*
%TD*%
%TO.P,C10,1*%
%TO.N,+3V3*%
X18335000Y-9695000D03*
%TO.P,C10,2*%
%TO.N,GND*%
X19295000Y-9695000D03*
%TD*%
%TO.P,C9,1*%
%TO.N,+3V3*%
X15460000Y-13640000D03*
%TO.P,C9,2*%
%TO.N,GND*%
X16420000Y-13640000D03*
%TD*%
D16*
%TO.P,C8,1*%
%TO.N,+3V3*%
X20505000Y-15130000D03*
%TO.P,C8,2*%
%TO.N,GND*%
X20505000Y-14170000D03*
%TD*%
D14*
%TO.P,C7,1*%
%TO.N,+3V3*%
X11160000Y-13035000D03*
%TO.P,C7,2*%
%TO.N,GND*%
X11160000Y-13995000D03*
%TD*%
D17*
%TO.P,C6,1*%
%TO.N,GND*%
X16420000Y-12572500D03*
%TO.P,C6,2*%
%TO.N,+3V3*%
X15460000Y-12572500D03*
%TD*%
D15*
%TO.P,C5,1*%
%TO.N,+1V1*%
X16085000Y-11545000D03*
%TO.P,C5,2*%
%TO.N,GND*%
X17045000Y-11545000D03*
%TD*%
D14*
%TO.P,C4,1*%
%TO.N,+1V1*%
X7135000Y-9010000D03*
%TO.P,C4,2*%
%TO.N,GND*%
X7135000Y-9970000D03*
%TD*%
D15*
%TO.P,C3,1*%
%TO.N,XIN*%
X2270000Y-5475000D03*
%TO.P,C3,2*%
%TO.N,GND*%
X3230000Y-5475000D03*
%TD*%
%TO.P,C2,1*%
%TO.N,+1V1*%
X18335000Y-8630000D03*
%TO.P,C2,2*%
%TO.N,GND*%
X19295000Y-8630000D03*
%TD*%
%TO.P,C1,1*%
%TO.N,GND*%
X2285000Y-10555000D03*
%TO.P,C1,2*%
%TO.N,Net-(X1-OSC1)*%
X3245000Y-10555000D03*
%TD*%
D18*
%TO.P,J9,1,Pin_1*%
%TO.N,NS_10*%
X9140001Y-1585000D03*
%TO.P,J9,2,Pin_2*%
%TO.N,NS_11*%
X7640001Y-1585000D03*
%TD*%
D19*
%TO.P,U1,1,IOVDD*%
%TO.N,+3V3*%
X14495000Y-4655000D03*
%TO.P,U1,2,GPIO0*%
%TO.N,NS_0*%
X14095000Y-4655000D03*
%TO.P,U1,3,GPIO1*%
%TO.N,NS_1*%
X13695000Y-4655000D03*
%TO.P,U1,4,GPIO2*%
%TO.N,NS_2*%
X13295000Y-4655000D03*
%TO.P,U1,5,GPIO3*%
%TO.N,NS_3*%
X12895000Y-4655000D03*
%TO.P,U1,6,GPIO4*%
%TO.N,NS_4*%
X12495000Y-4655000D03*
%TO.P,U1,7,GPIO5*%
%TO.N,NS_5*%
X12095000Y-4655000D03*
%TO.P,U1,8,GPIO6*%
%TO.N,NS_6*%
X11695000Y-4655000D03*
%TO.P,U1,9,GPIO7*%
%TO.N,NS_7*%
X11295000Y-4655000D03*
%TO.P,U1,10,IOVDD*%
%TO.N,+3V3*%
X10895000Y-4655000D03*
%TO.P,U1,11,GPIO8*%
%TO.N,NS_8*%
X10495000Y-4655000D03*
%TO.P,U1,12,GPIO9*%
%TO.N,NS_9*%
X10095000Y-4655000D03*
%TO.P,U1,13,GPIO10*%
%TO.N,NS_10*%
X9695000Y-4655000D03*
%TO.P,U1,14,GPIO11*%
%TO.N,NS_11*%
X9295000Y-4655000D03*
D20*
%TO.P,U1,15,GPIO12*%
%TO.N,NS_SDA*%
X8345000Y-5605000D03*
%TO.P,U1,16,GPIO13*%
%TO.N,NS_SCL*%
X8345000Y-6005000D03*
%TO.P,U1,17,GPIO14*%
%TO.N,NS_14*%
X8345000Y-6405000D03*
%TO.P,U1,18,GPIO15*%
%TO.N,NS_CPU*%
X8345000Y-6805000D03*
%TO.P,U1,19,TESTEN*%
%TO.N,GND*%
X8345000Y-7205000D03*
%TO.P,U1,20,XIN*%
%TO.N,XIN*%
X8345000Y-7605000D03*
%TO.P,U1,21,XOUT*%
%TO.N,XOUT*%
X8345000Y-8005000D03*
%TO.P,U1,22,IOVDD*%
%TO.N,+3V3*%
X8345000Y-8405000D03*
%TO.P,U1,23,DVDD*%
%TO.N,+1V1*%
X8345000Y-8805000D03*
%TO.P,U1,24,SWCLK*%
%TO.N,DBG_CLK*%
X8345000Y-9205000D03*
%TO.P,U1,25,SWD*%
%TO.N,DBG_DAT*%
X8345000Y-9605000D03*
%TO.P,U1,26,RUN*%
%TO.N,RST*%
X8345000Y-10005000D03*
%TO.P,U1,27,GPIO16*%
%TO.N,LED_DATA*%
X8345000Y-10405000D03*
%TO.P,U1,28,GPIO17*%
%TO.N,PAD_17*%
X8345000Y-10805000D03*
D19*
%TO.P,U1,29,GPIO18*%
%TO.N,USB_SEL*%
X9295000Y-11755000D03*
%TO.P,U1,30,GPIO19*%
%TO.N,MMC_SEL*%
X9695000Y-11755000D03*
%TO.P,U1,31,GPIO20*%
%TO.N,PAD_20*%
X10095000Y-11755000D03*
%TO.P,U1,32,GPIO21*%
%TO.N,PAD_21*%
X10495000Y-11755000D03*
%TO.P,U1,33,IOVDD*%
%TO.N,+3V3*%
X10895000Y-11755000D03*
%TO.P,U1,34,GPIO22*%
%TO.N,PAD_22*%
X11295000Y-11755000D03*
%TO.P,U1,35,GPIO23*%
%TO.N,PAD_23*%
X11695000Y-11755000D03*
%TO.P,U1,36,GPIO24*%
%TO.N,PAD_24*%
X12095000Y-11755000D03*
%TO.P,U1,37,GPIO25*%
%TO.N,BOARD_DET*%
X12495000Y-11755000D03*
%TO.P,U1,38,GPIO26_ADC0*%
%TO.N,NS_RST*%
X12895000Y-11755000D03*
%TO.P,U1,39,GPIO27_ADC1*%
%TO.N,NS_CLK*%
X13295000Y-11755000D03*
%TO.P,U1,40,GPIO28_ADC2*%
%TO.N,NS_CMD*%
X13695000Y-11755000D03*
%TO.P,U1,41,GPIO29_ADC3*%
%TO.N,NS_D0*%
X14095000Y-11755000D03*
%TO.P,U1,42,IOVDD*%
%TO.N,+3V3*%
X14495000Y-11755000D03*
D20*
%TO.P,U1,43,ADC_AVDD*%
X15445000Y-10805000D03*
%TO.P,U1,44,VREG_IN*%
X15445000Y-10405000D03*
%TO.P,U1,45,VREG_VOUT*%
%TO.N,+1V1*%
X15445000Y-10005000D03*
%TO.P,U1,46,USB_DM*%
%TO.N,Net-(U1-USB_DM)*%
X15445000Y-9605000D03*
%TO.P,U1,47,USB_DP*%
%TO.N,Net-(U1-USB_DP)*%
X15445000Y-9205000D03*
%TO.P,U1,48,USB_VDD*%
%TO.N,+3V3*%
X15445000Y-8805000D03*
%TO.P,U1,49,IOVDD*%
X15445000Y-8405000D03*
%TO.P,U1,50,DVDD*%
%TO.N,+1V1*%
X15445000Y-8005000D03*
%TO.P,U1,51,QSPI_SD3*%
%TO.N,QSPI_SD3*%
X15445000Y-7605000D03*
%TO.P,U1,52,QSPI_SCLK*%
%TO.N,QSPI_SCK*%
X15445000Y-7205000D03*
%TO.P,U1,53,QSPI_SD0*%
%TO.N,QSPI_SD0*%
X15445000Y-6805000D03*
%TO.P,U1,54,QSPI_SD2*%
%TO.N,QSPI_SD2*%
X15445000Y-6405000D03*
%TO.P,U1,55,QSPI_SD1*%
%TO.N,QSPI_SD1*%
X15445000Y-6005000D03*
%TO.P,U1,56,QSPI_SS*%
%TO.N,QSPI_CS*%
X15445000Y-5605000D03*
D21*
%TO.P,U1,57,GND*%
%TO.N,GND*%
X11895000Y-8205000D03*
%TD*%
D22*
%TO.P,U2,1,CS#*%
%TO.N,QSPI_CS*%
X19365000Y-4185500D03*
%TO.P,U2,2,DO(IO1)*%
%TO.N,QSPI_SD1*%
X18865000Y-4185500D03*
%TO.P,U2,3,WP#(IO2)*%
%TO.N,QSPI_SD2*%
X18365000Y-4185500D03*
%TO.P,U2,4,GND*%
%TO.N,GND*%
X17865000Y-4185500D03*
%TO.P,U2,5,DI(IO0)*%
%TO.N,QSPI_SD0*%
X17865000Y-7199500D03*
%TO.P,U2,6,CLK*%
%TO.N,QSPI_SCK*%
X18365000Y-7199500D03*
%TO.P,U2,7,HOLD#orRESET#(IO3)*%
%TO.N,QSPI_SD3*%
X18865000Y-7199500D03*
%TO.P,U2,8,VCC*%
%TO.N,+3V3*%
X19365000Y-7199500D03*
D23*
%TO.P,U2,9,EP*%
%TO.N,GND*%
X18615000Y-5692500D03*
%TD*%
D18*
%TO.P,J10,1,Pin_1*%
%TO.N,NS_8*%
X12305000Y-1585000D03*
%TO.P,J10,2,Pin_2*%
%TO.N,NS_9*%
X10805000Y-1585000D03*
%TD*%
D24*
%TO.P,J8,1,Pin_1*%
%TO.N,RST*%
X22189248Y-1283121D03*
%TO.P,J8,2,Pin_2*%
%TO.N,BOOT*%
X22189248Y-2553121D03*
%TO.P,J8,3,Pin_3*%
%TO.N,D+*%
X22189248Y-3823121D03*
%TO.P,J8,4,Pin_4*%
%TO.N,D-*%
X22189248Y-5093121D03*
%TO.P,J8,5,Pin_5*%
%TO.N,+5V*%
X22189248Y-6363121D03*
%TO.P,J8,6,Pin_6*%
%TO.N,GND*%
X22189248Y-7633121D03*
%TD*%
D18*
%TO.P,J1,1,Pin_1*%
%TO.N,+3V3*%
X15495000Y-1585000D03*
%TO.P,J1,2,Pin_2*%
%TO.N,GND*%
X13995000Y-1585000D03*
%TD*%
D25*
%TO.P,J4,1,Pin_1*%
%TO.N,NS_CMD_OUT*%
X1645000Y-16124999D03*
%TO.P,J4,2,Pin_2*%
%TO.N,NS_D0_OUT*%
X1645000Y-17624999D03*
%TD*%
D26*
%TO.P,U4,1,VIN*%
%TO.N,+5V*%
X22414500Y-9172250D03*
%TO.P,U4,2,GND*%
%TO.N,GND*%
X21464500Y-9172250D03*
%TO.P,U4,3,EN*%
%TO.N,Net-(U4-EN)*%
X20514500Y-9172250D03*
%TO.P,U4,4,NC*%
%TO.N,unconnected-(U4-NC-Pad4)*%
X20514500Y-11468250D03*
%TO.P,U4,5,VOUT*%
%TO.N,+3V3*%
X22414500Y-11468250D03*
%TD*%
D18*
%TO.P,J2,1,Pin_1*%
%TO.N,NS_14*%
X2820000Y-1585000D03*
%TO.P,J2,2,Pin_2*%
%TO.N,NS_CPU*%
X1320000Y-1585000D03*
%TD*%
%TO.P,J6,1,Pin_1*%
%TO.N,NS_SDA*%
X5995000Y-1585000D03*
%TO.P,J6,2,Pin_2*%
%TO.N,NS_SCL*%
X4495000Y-1585000D03*
%TD*%
D27*
%TO.P,U6,1,1OE#*%
%TO.N,MMC_SEL_INV*%
X5530000Y-13650000D03*
D28*
%TO.P,U6,2,1A*%
%TO.N,NS_RST*%
X4530000Y-14402000D03*
%TO.P,U6,3,1B*%
%TO.N,NS_RST_OUT*%
X4530000Y-14902000D03*
%TO.P,U6,4,2OE#*%
%TO.N,MMC_SEL_INV*%
X4530000Y-15402000D03*
%TO.P,U6,5,2A*%
%TO.N,NS_CLK*%
X4530000Y-15902000D03*
%TO.P,U6,6,2B*%
%TO.N,NS_CLK_OUT*%
X4530000Y-16402000D03*
D27*
%TO.P,U6,7,GND*%
%TO.N,GND*%
X5530000Y-17150000D03*
%TO.P,U6,8,3B*%
%TO.N,NS_CMD_OUT*%
X7030000Y-17150000D03*
D28*
%TO.P,U6,9,3A*%
%TO.N,NS_CMD*%
X8030000Y-16400000D03*
%TO.P,U6,10,3OE#*%
%TO.N,MMC_SEL_INV*%
X8030000Y-15900000D03*
%TO.P,U6,11,4B*%
%TO.N,NS_D0_OUT*%
X8030000Y-15400000D03*
%TO.P,U6,12,4A*%
%TO.N,NS_D0*%
X8030000Y-14900000D03*
%TO.P,U6,13,4OE#*%
%TO.N,MMC_SEL_INV*%
X8030000Y-14400000D03*
D27*
%TO.P,U6,14,VCC*%
%TO.N,+2V5*%
X7030000Y-13650000D03*
D29*
%TO.P,U6,15,PAD*%
%TO.N,GND*%
X6280000Y-15400000D03*
%TD*%
D25*
%TO.P,J5,1,Pin_1*%
%TO.N,D+_CXN*%
X22335000Y-16130000D03*
%TO.P,J5,2,Pin_2*%
%TO.N,D-_CXN*%
X22335000Y-17630000D03*
%TD*%
%TO.P,J3,1,Pin_1*%
%TO.N,NS_RST_OUT*%
X1645000Y-12965000D03*
%TO.P,J3,2,Pin_2*%
%TO.N,NS_CLK_OUT*%
X1645000Y-14465000D03*
%TD*%
D26*
%TO.P,U3,1,VIN*%
%TO.N,+3V3*%
X10505000Y-17743000D03*
%TO.P,U3,2,GND*%
%TO.N,GND*%
X11455000Y-17743000D03*
%TO.P,U3,3,EN*%
%TO.N,MMC_SEL*%
X12405000Y-17743000D03*
%TO.P,U3,4,SNS/NC*%
%TO.N,unconnected-(U3-SNS{slash}NC-Pad4)*%
X12405000Y-15447000D03*
%TO.P,U3,5,VOUT*%
%TO.N,+2V5*%
X10505000Y-15447000D03*
%TD*%
D30*
%TO.P,SW1,1,1*%
%TO.N,BOOT*%
X20095000Y-1670000D03*
%TO.P,SW1,2,2*%
%TO.N,GND*%
X16895000Y-1670000D03*
%TD*%
D31*
%TO.P,X1,1,OSC1*%
%TO.N,Net-(X1-OSC1)*%
X3630000Y-9120000D03*
%TO.P,X1,2,2*%
%TO.N,GND*%
X3630000Y-6920000D03*
%TO.P,X1,3,OSC2*%
%TO.N,XIN*%
X1880000Y-6920000D03*
%TO.P,X1,4,4*%
%TO.N,GND*%
X1880000Y-9120000D03*
%TD*%
D32*
%TO.P,U7,1,DOUT*%
%TO.N,unconnected-(U7-DOUT-Pad1)*%
X3782500Y-11545000D03*
%TO.P,U7,2,VDD*%
%TO.N,+3V3*%
X4632500Y-11545000D03*
%TO.P,U7,3,GND*%
%TO.N,GND*%
X3782500Y-12395000D03*
%TO.P,U7,4,DIN*%
%TO.N,LED_DATA*%
X4632500Y-12395000D03*
%TD*%
D33*
%TO.P,U5,1,D+*%
%TO.N,D+*%
X19330000Y-16735000D03*
D34*
%TO.P,U5,2,D-*%
%TO.N,D-*%
X19287000Y-17135000D03*
D35*
%TO.P,U5,3,GND*%
%TO.N,GND*%
X19495000Y-17767000D03*
%TO.P,U5,4,HSD1-*%
%TO.N,unconnected-(U5-HSD1--Pad4)*%
X19895000Y-17767000D03*
%TO.P,U5,5,HSD1+*%
%TO.N,unconnected-(U5-HSD1+-Pad5)*%
X20295000Y-17767000D03*
D34*
%TO.P,U5,6,HSD2-*%
%TO.N,D-_CXN*%
X20503000Y-17135000D03*
%TO.P,U5,7,HSD2+*%
%TO.N,D+_CXN*%
X20503000Y-16735000D03*
D35*
%TO.P,U5,8,OE#*%
%TO.N,Net-(U5-OE#)*%
X20295000Y-16103000D03*
%TO.P,U5,9,V+*%
%TO.N,+3V3*%
X19895000Y-16103000D03*
%TO.P,U5,10,S*%
%TO.N,USB_SEL*%
X19495000Y-16103000D03*
%TD*%
D36*
%TO.P,U8,1,NC*%
%TO.N,unconnected-(U8-NC-Pad1)*%
X13870000Y-14840000D03*
%TO.P,U8,2,A*%
%TO.N,MMC_SEL*%
X13870000Y-15790000D03*
%TO.P,U8,3,GND*%
%TO.N,GND*%
X13870000Y-16740000D03*
%TO.P,U8,4,Y*%
%TO.N,Net-(U8-Y)*%
X16060000Y-16740000D03*
%TO.P,U8,5,VCC*%
%TO.N,+3V3*%
X16060000Y-14840000D03*
%TD*%
D37*
%TO.N,MMC_SEL_INV*%
X9010000Y-14185000D03*
%TO.N,NS_CMD*%
X8800000Y-17500000D03*
%TO.N,GND*%
X1260000Y-5450000D03*
X13915000Y-7245000D03*
X9680000Y-7320000D03*
X18630000Y-5050000D03*
X1250000Y-10600000D03*
X4170000Y-10570000D03*
X2260000Y-4580000D03*
X5130000Y-10135000D03*
%TO.N,+3V3*%
X19860000Y-6375000D03*
X10210000Y-12880000D03*
X15310000Y-4350000D03*
X5540000Y-11400000D03*
X14065000Y-10240000D03*
X22414500Y-12545000D03*
X11645000Y-3590000D03*
X6165000Y-8595000D03*
X22420000Y-13745000D03*
X17312500Y-9022500D03*
X10505000Y-16625000D03*
%TO.N,RST*%
X9620000Y-10165000D03*
%TO.N,+1V1*%
X9630000Y-9195000D03*
X14330000Y-8370000D03*
%TO.N,D-*%
X17325000Y-17040000D03*
%TO.N,D+*%
X18340000Y-17035000D03*
%TO.N,NS_2*%
X13225000Y-5735000D03*
%TO.N,NS_3*%
X12515000Y-5975000D03*
%TO.N,NS_4*%
X11829553Y-6199553D03*
%TO.N,NS_5*%
X11010000Y-6160000D03*
%TO.N,NS_6*%
X10250000Y-6175000D03*
%TO.N,NS_7*%
X9605000Y-5710000D03*
%TO.N,BOARD_DET*%
X19140000Y-12725000D03*
X13160000Y-10375000D03*
%TO.N,NS_RST*%
X4370000Y-13300000D03*
X12155000Y-13060000D03*
%TO.N,NS_CLK*%
X12910000Y-13870000D03*
X3508378Y-15741622D03*
%TO.N,NS_CMD*%
X14010000Y-13925000D03*
%TO.N,NS_D0*%
X9620000Y-15015000D03*
X14400000Y-13095000D03*
%TO.N,PAD_22*%
X10560000Y-10370000D03*
%TO.N,PAD_23*%
X11410000Y-10370000D03*
%TO.N,PAD_24*%
X12230000Y-10370000D03*
%TO.N,USB_SEL*%
X8500000Y-11815000D03*
X18612500Y-13387500D03*
%TO.N,Net-(JP1-B)*%
X3370000Y-4405000D03*
%TO.N,NS_14*%
X9475000Y-6535000D03*
%TO.N,NS_0*%
X14275000Y-5805000D03*
%TO.N,NS_1*%
X13845000Y-6365000D03*
%TO.N,MMC_SEL*%
X8685000Y-12650000D03*
X12460000Y-16600000D03*
%TO.N,MMC_SEL_INV*%
X3195000Y-14590000D03*
X14970000Y-16740000D03*
X5530000Y-12630000D03*
X8955000Y-16375000D03*
%TO.N,Net-(JP2-B)*%
X2890000Y-11625000D03*
%TD*%
D38*
%TO.N,+3V3*%
X7520000Y-12575000D02*
X7805000Y-12575000D01*
X7805000Y-12575000D02*
X8425000Y-13195000D01*
X8425000Y-13195000D02*
X9895000Y-13195000D01*
X9895000Y-13195000D02*
X10210000Y-12880000D01*
D39*
%TO.N,+2V5*%
X10505000Y-15447000D02*
X10505000Y-14270000D01*
X10505000Y-14270000D02*
X9725000Y-13490000D01*
X7190000Y-13490000D02*
X7030000Y-13650000D01*
X9725000Y-13490000D02*
X7190000Y-13490000D01*
D40*
%TO.N,+3V3*%
X10210000Y-12880000D02*
X10365000Y-13035000D01*
X10365000Y-13035000D02*
X11160000Y-13035000D01*
D38*
%TO.N,MMC_SEL_INV*%
X8795000Y-14400000D02*
X9010000Y-14185000D01*
X8030000Y-14400000D02*
X8795000Y-14400000D01*
D40*
%TO.N,NS_D0*%
X9620000Y-15015000D02*
X9505000Y-14900000D01*
X9505000Y-14900000D02*
X8030000Y-14900000D01*
D38*
%TO.N,MMC_SEL*%
X8685000Y-12650000D02*
X9327800Y-12650000D01*
X9327800Y-12650000D02*
X9695000Y-12282800D01*
X9695000Y-12282800D02*
X9695000Y-11755000D01*
D40*
%TO.N,NS_D0_OUT*%
X8030000Y-15400000D02*
X8388566Y-15400000D01*
X9220000Y-15730000D02*
X9585000Y-16095000D01*
X9585000Y-16095000D02*
X9585000Y-17890000D01*
X8388566Y-15400000D02*
X8718566Y-15730000D01*
X8718566Y-15730000D02*
X9220000Y-15730000D01*
X2225001Y-18205000D02*
X1645000Y-17624999D01*
X9585000Y-17890000D02*
X9270000Y-18205000D01*
X9270000Y-18205000D02*
X2225001Y-18205000D01*
%TO.N,MMC_SEL_INV*%
X8480000Y-15900000D02*
X8030000Y-15900000D01*
X8955000Y-16375000D02*
X8480000Y-15900000D01*
%TO.N,NS_CMD*%
X8800000Y-17500000D02*
X8800000Y-17170000D01*
X8800000Y-17170000D02*
X8030000Y-16400000D01*
D41*
%TO.N,+3V3*%
X10505000Y-17743000D02*
X10505000Y-16625000D01*
D38*
%TO.N,D+*%
X18285000Y-16130000D02*
X18340000Y-16185000D01*
X18340000Y-16185000D02*
X18340000Y-17035000D01*
%TO.N,D-*%
X17240000Y-16125000D02*
X17325000Y-16210000D01*
X17325000Y-16210000D02*
X17325000Y-17040000D01*
%TO.N,Net-(U1-USB_DP)*%
X15445000Y-9205000D02*
X16730000Y-9205000D01*
X16730000Y-9205000D02*
X18030000Y-10505000D01*
X18030000Y-10505000D02*
X18030000Y-14855000D01*
X18030000Y-14855000D02*
X18285000Y-15110000D01*
%TO.N,Net-(U1-USB_DM)*%
X15445000Y-9605000D02*
X16700000Y-9605000D01*
X16700000Y-9605000D02*
X17655000Y-10560000D01*
X17655000Y-10560000D02*
X17655000Y-14690000D01*
X17655000Y-14690000D02*
X17240000Y-15105000D01*
%TO.N,D-*%
X17325000Y-17040000D02*
X17895000Y-17610000D01*
X18812000Y-17610000D02*
X19287000Y-17135000D01*
X17895000Y-17610000D02*
X18812000Y-17610000D01*
%TO.N,GND*%
X3630000Y-5875000D02*
X3630000Y-6920000D01*
X3230000Y-5475000D02*
X3630000Y-5875000D01*
X2285000Y-10555000D02*
X1880000Y-10150000D01*
X1880000Y-10150000D02*
X1880000Y-9120000D01*
D40*
%TO.N,+3V3*%
X17985000Y-9695000D02*
X18335000Y-9695000D01*
X17312500Y-9022500D02*
X17130000Y-8840000D01*
X15310000Y-4350000D02*
X15310000Y-3310000D01*
D41*
X15460000Y-14240000D02*
X16060000Y-14840000D01*
D40*
X19570000Y-6390000D02*
X19365000Y-6595000D01*
X10895000Y-4125000D02*
X10895000Y-4655000D01*
X11645000Y-3590000D02*
X11430000Y-3590000D01*
X14065000Y-10240000D02*
X14630000Y-10805000D01*
D42*
X22420000Y-12550500D02*
X22420000Y-13745000D01*
D40*
X21890000Y-13745000D02*
X22420000Y-13745000D01*
X16530000Y-8840000D02*
X16095000Y-8405000D01*
X19895000Y-16103000D02*
X19895000Y-15740000D01*
X19365000Y-6595000D02*
X19365000Y-7199500D01*
D41*
X20785000Y-6100000D02*
X20785000Y-7075000D01*
D40*
X6170000Y-8600000D02*
X6170000Y-9570000D01*
X15310000Y-4350000D02*
X15005000Y-4655000D01*
D42*
X22414500Y-12545000D02*
X22414500Y-11468250D01*
D40*
X5540000Y-11400000D02*
X5395000Y-11545000D01*
D42*
X22414500Y-12545000D02*
X22420000Y-12550500D01*
D40*
X10895000Y-12770000D02*
X10895000Y-11755000D01*
X6165000Y-8595000D02*
X6355000Y-8405000D01*
X19860000Y-6375000D02*
X20560000Y-7075000D01*
X17130000Y-8840000D02*
X16530000Y-8840000D01*
X14630000Y-10805000D02*
X15445000Y-10805000D01*
X20560000Y-7075000D02*
X20785000Y-7075000D01*
X17312500Y-9022500D02*
X17985000Y-9695000D01*
X19895000Y-15740000D02*
X20505000Y-15130000D01*
X6165000Y-8595000D02*
X6170000Y-8600000D01*
X11645000Y-3590000D02*
X11920000Y-3315000D01*
X15445000Y-8405000D02*
X15445000Y-8805000D01*
X11160000Y-13035000D02*
X10895000Y-12770000D01*
X5395000Y-11545000D02*
X4632500Y-11545000D01*
X11430000Y-3590000D02*
X10895000Y-4125000D01*
X20505000Y-15130000D02*
X21890000Y-13745000D01*
X6355000Y-8405000D02*
X8345000Y-8405000D01*
X6170000Y-9570000D02*
X6130000Y-9610000D01*
X16095000Y-8405000D02*
X15445000Y-8405000D01*
X19845000Y-6390000D02*
X19570000Y-6390000D01*
X15005000Y-4655000D02*
X14495000Y-4655000D01*
X11920000Y-3315000D02*
X12545000Y-3315000D01*
D41*
X15460000Y-13640000D02*
X15460000Y-14240000D01*
D40*
X19860000Y-6375000D02*
X19845000Y-6390000D01*
%TO.N,BOOT*%
X20785000Y-3095000D02*
X20785000Y-2360000D01*
X22189248Y-2553121D02*
X21326879Y-2553121D01*
X20785000Y-2360000D02*
X20095000Y-1670000D01*
X21326879Y-2553121D02*
X20785000Y-3095000D01*
D38*
%TO.N,RST*%
X9620000Y-10165000D02*
X9460000Y-10005000D01*
X7795000Y-11270000D02*
X7510000Y-11555000D01*
X9620000Y-10490000D02*
X8840000Y-11270000D01*
X8840000Y-11270000D02*
X7795000Y-11270000D01*
X9460000Y-10005000D02*
X8345000Y-10005000D01*
X9620000Y-10165000D02*
X9620000Y-10490000D01*
D40*
%TO.N,+1V1*%
X16750000Y-8385000D02*
X18090000Y-8385000D01*
X14817200Y-10005000D02*
X14330000Y-9517800D01*
X9240000Y-8805000D02*
X8345000Y-8805000D01*
X16072800Y-10005000D02*
X15445000Y-10005000D01*
X14695000Y-8005000D02*
X15445000Y-8005000D01*
X15445000Y-10005000D02*
X14817200Y-10005000D01*
X18090000Y-8385000D02*
X18335000Y-8630000D01*
X16325000Y-11305000D02*
X16325000Y-10257200D01*
X9630000Y-9195000D02*
X9240000Y-8805000D01*
X8345000Y-8805000D02*
X7340000Y-8805000D01*
X16325000Y-10257200D02*
X16072800Y-10005000D01*
X16085000Y-11545000D02*
X16325000Y-11305000D01*
X14330000Y-9517800D02*
X14330000Y-8370000D01*
X14330000Y-8370000D02*
X14695000Y-8005000D01*
X15445000Y-8005000D02*
X16370000Y-8005000D01*
X7340000Y-8805000D02*
X7135000Y-9010000D01*
X16370000Y-8005000D02*
X16750000Y-8385000D01*
D38*
%TO.N,D+*%
X18640000Y-16735000D02*
X19330000Y-16735000D01*
X18340000Y-17035000D02*
X18640000Y-16735000D01*
%TO.N,XIN*%
X8345000Y-7605000D02*
X4875000Y-7605000D01*
X1880000Y-6920000D02*
X1880000Y-5865000D01*
X4875000Y-7605000D02*
X4455000Y-8025000D01*
X2880000Y-8025000D02*
X1880000Y-7025000D01*
X4455000Y-8025000D02*
X2880000Y-8025000D01*
X1880000Y-5865000D02*
X2270000Y-5475000D01*
%TO.N,Net-(X1-OSC1)*%
X3630000Y-9120000D02*
X3630000Y-10170000D01*
X4930000Y-9120000D02*
X3630000Y-9120000D01*
X3630000Y-10170000D02*
X3245000Y-10555000D01*
X5110000Y-9300000D02*
X4930000Y-9120000D01*
D40*
%TO.N,NS_RST_OUT*%
X2605000Y-12965000D02*
X1645000Y-12965000D01*
X4112200Y-14902000D02*
X3840000Y-14629800D01*
X3840000Y-14200000D02*
X2605000Y-12965000D01*
X3840000Y-14629800D02*
X3840000Y-14200000D01*
X4530000Y-14902000D02*
X4112200Y-14902000D01*
%TO.N,NS_CLK_OUT*%
X2035001Y-14465000D02*
X1645000Y-14465000D01*
X2925000Y-15354999D02*
X2035001Y-14465000D01*
X3267000Y-16402000D02*
X2925000Y-16060000D01*
X2925000Y-16060000D02*
X2925000Y-15354999D01*
X4530000Y-16402000D02*
X3267000Y-16402000D01*
%TO.N,NS_CMD_OUT*%
X6441100Y-17738900D02*
X3723900Y-17738900D01*
X7030000Y-17150000D02*
X6441100Y-17738900D01*
X2109999Y-16124999D02*
X1645000Y-16124999D01*
X3723900Y-17738900D02*
X2109999Y-16124999D01*
D38*
%TO.N,XOUT*%
X5385000Y-8005000D02*
X5110000Y-8280000D01*
X8345000Y-8005000D02*
X5385000Y-8005000D01*
%TO.N,QSPI_CS*%
X19365000Y-3850000D02*
X19365000Y-4185500D01*
X16860000Y-4780000D02*
X16860000Y-3450000D01*
X19365000Y-4185500D02*
X20785000Y-4185500D01*
X18540000Y-3025000D02*
X19365000Y-3850000D01*
X20785000Y-4185500D02*
X20785000Y-5080000D01*
X15445000Y-5605000D02*
X16035000Y-5605000D01*
X16035000Y-5605000D02*
X16860000Y-4780000D01*
X17285000Y-3025000D02*
X18540000Y-3025000D01*
X16860000Y-3450000D02*
X17285000Y-3025000D01*
%TO.N,NS_2*%
X13295000Y-5665000D02*
X13295000Y-4655000D01*
X13225000Y-5735000D02*
X13295000Y-5665000D01*
%TO.N,NS_3*%
X12515000Y-5975000D02*
X12515000Y-5700000D01*
X12515000Y-5700000D02*
X12895000Y-5320000D01*
X12895000Y-5320000D02*
X12895000Y-4655000D01*
%TO.N,NS_4*%
X12495000Y-5282800D02*
X12495000Y-4655000D01*
X11829553Y-5937074D02*
X12470001Y-5296626D01*
X11829553Y-6199553D02*
X11829553Y-5937074D01*
X12481174Y-5296626D02*
X12495000Y-5282800D01*
X12470001Y-5296626D02*
X12481174Y-5296626D01*
%TO.N,NS_5*%
X12095000Y-5205000D02*
X12095000Y-4655000D01*
X11010000Y-6160000D02*
X11140000Y-6160000D01*
X11140000Y-6160000D02*
X12095000Y-5205000D01*
%TO.N,NS_6*%
X10810000Y-5615000D02*
X11334495Y-5615000D01*
X10250000Y-6175000D02*
X10810000Y-5615000D01*
X11695000Y-5254495D02*
X11695000Y-4655000D01*
X11334495Y-5615000D02*
X11695000Y-5254495D01*
%TO.N,NS_7*%
X9920000Y-5395000D02*
X11085000Y-5395000D01*
X9605000Y-5710000D02*
X9920000Y-5395000D01*
X11085000Y-5395000D02*
X11295000Y-5185000D01*
X11295000Y-5185000D02*
X11295000Y-4655000D01*
%TO.N,BOARD_DET*%
X12495000Y-11755000D02*
X12495000Y-11040000D01*
X19685001Y-12725000D02*
X20060001Y-13100000D01*
X12495000Y-11040000D02*
X13160000Y-10375000D01*
X19140000Y-12725000D02*
X19685001Y-12725000D01*
%TO.N,LED_DATA*%
X6955000Y-11267200D02*
X6955000Y-11760000D01*
X5002500Y-12025000D02*
X4632500Y-12395000D01*
X7817200Y-10405000D02*
X6955000Y-11267200D01*
X6690000Y-12025000D02*
X5002500Y-12025000D01*
X6955000Y-11760000D02*
X6690000Y-12025000D01*
X8345000Y-10405000D02*
X7817200Y-10405000D01*
%TO.N,QSPI_SD3*%
X18365122Y-8029500D02*
X18865000Y-7529622D01*
X16979500Y-8029500D02*
X18365122Y-8029500D01*
X18865000Y-7529622D02*
X18865000Y-7199500D01*
X15445000Y-7605000D02*
X16555000Y-7605000D01*
X16555000Y-7605000D02*
X16979500Y-8029500D01*
%TO.N,QSPI_SCK*%
X18365000Y-7619500D02*
X18365000Y-7199500D01*
X17194500Y-7739500D02*
X18245000Y-7739500D01*
X18245000Y-7739500D02*
X18365000Y-7619500D01*
X15445000Y-7205000D02*
X16660000Y-7205000D01*
X16660000Y-7205000D02*
X17194500Y-7739500D01*
%TO.N,QSPI_SD0*%
X16720000Y-6805000D02*
X17114500Y-7199500D01*
X15445000Y-6805000D02*
X16720000Y-6805000D01*
X17114500Y-7199500D02*
X17865000Y-7199500D01*
%TO.N,QSPI_SD2*%
X15445000Y-6405000D02*
X16315000Y-6405000D01*
X17525500Y-3605000D02*
X18070000Y-3605000D01*
X18070000Y-3605000D02*
X18365000Y-3900000D01*
X17425000Y-3705500D02*
X17525500Y-3605000D01*
X17425000Y-5295000D02*
X17425000Y-3705500D01*
X16315000Y-6405000D02*
X17425000Y-5295000D01*
X18365000Y-3900000D02*
X18365000Y-4185500D01*
%TO.N,QSPI_SD1*%
X17405378Y-3315000D02*
X18414500Y-3315000D01*
X18414500Y-3315000D02*
X18865000Y-3765500D01*
X15445000Y-6005000D02*
X16304878Y-6005000D01*
X17135000Y-3585378D02*
X17405378Y-3315000D01*
X18865000Y-3765500D02*
X18865000Y-4185500D01*
X16304878Y-6005000D02*
X17135000Y-5174878D01*
X17135000Y-5174878D02*
X17135000Y-3585378D01*
D40*
%TO.N,NS_RST*%
X12155000Y-13060000D02*
X12895000Y-12320000D01*
X4370000Y-13300000D02*
X4370000Y-14242000D01*
X4370000Y-14242000D02*
X4530000Y-14402000D01*
X12895000Y-12320000D02*
X12895000Y-11755000D01*
%TO.N,NS_CLK*%
X12910000Y-13870000D02*
X13295000Y-13485000D01*
X3508378Y-15741622D02*
X3668756Y-15902000D01*
X13295000Y-13485000D02*
X13295000Y-11755000D01*
X3668756Y-15902000D02*
X4530000Y-15902000D01*
%TO.N,NS_CMD*%
X13695000Y-13610000D02*
X13695000Y-11755000D01*
X14010000Y-13925000D02*
X13695000Y-13610000D01*
%TO.N,NS_D0*%
X14400000Y-13095000D02*
X14095000Y-12790000D01*
X14095000Y-12790000D02*
X14095000Y-11755000D01*
%TO.N,NS_CPU*%
X8345000Y-6805000D02*
X7200000Y-6805000D01*
X1320000Y-2160000D02*
X1320000Y-1585000D01*
X6705000Y-5650000D02*
X6115000Y-5060000D01*
X6115000Y-5060000D02*
X5205000Y-5060000D01*
X3410000Y-3265000D02*
X2425000Y-3265000D01*
X6705000Y-6310000D02*
X6705000Y-5650000D01*
X5205000Y-5060000D02*
X3410000Y-3265000D01*
X7200000Y-6805000D02*
X6705000Y-6310000D01*
X2425000Y-3265000D02*
X1320000Y-2160000D01*
%TO.N,NS_SDA*%
X8330000Y-5605000D02*
X8330000Y-4965000D01*
X8330000Y-4965000D02*
X5995000Y-2630000D01*
X5995000Y-2630000D02*
X5995000Y-1585000D01*
%TO.N,NS_SCL*%
X7470000Y-5365000D02*
X4495000Y-2390000D01*
X7470000Y-5757800D02*
X7470000Y-5365000D01*
X7717200Y-6005000D02*
X7470000Y-5757800D01*
X4495000Y-2390000D02*
X4495000Y-1585000D01*
X8345000Y-6005000D02*
X7717200Y-6005000D01*
%TO.N,NS_10*%
X9140001Y-2980001D02*
X9140001Y-1585000D01*
X9695000Y-3535000D02*
X9140001Y-2980001D01*
X9695000Y-4655000D02*
X9695000Y-3535000D01*
%TO.N,NS_11*%
X9295000Y-3895000D02*
X7640001Y-2240001D01*
X9295000Y-4655000D02*
X9295000Y-3895000D01*
X7640001Y-2240001D02*
X7640001Y-1585000D01*
%TO.N,NS_8*%
X12305000Y-2005000D02*
X12305000Y-1585000D01*
X10495000Y-3815000D02*
X12305000Y-2005000D01*
X10495000Y-4655000D02*
X10495000Y-3815000D01*
%TO.N,NS_9*%
X10095000Y-4655000D02*
X10095000Y-3545000D01*
X10095000Y-3545000D02*
X10805000Y-2835000D01*
X10805000Y-2835000D02*
X10805000Y-1585000D01*
%TO.N,PAD_22*%
X10560000Y-10370000D02*
X10560000Y-10480000D01*
X10560000Y-10480000D02*
X11295000Y-11215000D01*
X11295000Y-11215000D02*
X11295000Y-11755000D01*
%TO.N,PAD_23*%
X11695000Y-10900000D02*
X11695000Y-11755000D01*
X11410000Y-10615000D02*
X11695000Y-10900000D01*
X11410000Y-10370000D02*
X11410000Y-10615000D01*
%TO.N,PAD_24*%
X12230000Y-10370000D02*
X12230000Y-10925000D01*
X12095000Y-11060000D02*
X12095000Y-11755000D01*
X12230000Y-10925000D02*
X12095000Y-11060000D01*
D38*
%TO.N,D+_CXN*%
X20665000Y-16735000D02*
X21270000Y-16130000D01*
X20503000Y-16735000D02*
X20665000Y-16735000D01*
X21270000Y-16130000D02*
X22335000Y-16130000D01*
%TO.N,D-_CXN*%
X21240000Y-17630000D02*
X22335000Y-17630000D01*
X20503000Y-17135000D02*
X20745000Y-17135000D01*
X20745000Y-17135000D02*
X21240000Y-17630000D01*
%TO.N,USB_SEL*%
X9295000Y-11755000D02*
X8560000Y-11755000D01*
X18561100Y-13438900D02*
X18561100Y-14276100D01*
X8560000Y-11755000D02*
X8500000Y-11815000D01*
X19495000Y-15210000D02*
X19495000Y-16103000D01*
X18612500Y-13387500D02*
X18561100Y-13438900D01*
X18561100Y-14276100D02*
X19495000Y-15210000D01*
%TO.N,Net-(U5-OE#)*%
X20295000Y-16103000D02*
X20381999Y-16103000D01*
X20381999Y-16103000D02*
X21804999Y-14680000D01*
X21804999Y-14680000D02*
X21980000Y-14680000D01*
D40*
%TO.N,Net-(JP1-B)*%
X3370000Y-4400000D02*
X3370000Y-4405000D01*
X1795000Y-3970000D02*
X1270000Y-3445000D01*
X3255000Y-4400000D02*
X2825000Y-3970000D01*
X2825000Y-3970000D02*
X1795000Y-3970000D01*
X3370000Y-4405000D02*
X3255000Y-4400000D01*
%TO.N,NS_14*%
X9345000Y-6405000D02*
X8345000Y-6405000D01*
X9475000Y-6535000D02*
X9345000Y-6405000D01*
%TO.N,NS_0*%
X14095000Y-5625000D02*
X14095000Y-4655000D01*
X14275000Y-5805000D02*
X14095000Y-5625000D01*
D38*
%TO.N,NS_1*%
X13845000Y-6365000D02*
X13845000Y-6117463D01*
X13845000Y-6117463D02*
X13705000Y-5977463D01*
X13705000Y-4665000D02*
X13695000Y-4655000D01*
X13705000Y-5977463D02*
X13705000Y-4665000D01*
D40*
%TO.N,+5V*%
X21470000Y-11745000D02*
X21470000Y-10555000D01*
X21470000Y-10555000D02*
X22414500Y-9610500D01*
D42*
X22414500Y-9172250D02*
X23170000Y-8416750D01*
X22523121Y-6363121D02*
X22189248Y-6363121D01*
D40*
X20935000Y-12280000D02*
X21470000Y-11745000D01*
X19775000Y-12280000D02*
X20935000Y-12280000D01*
D42*
X23170000Y-7010000D02*
X22523121Y-6363121D01*
D40*
X22414500Y-9610500D02*
X22414500Y-9172250D01*
X19250000Y-11755000D02*
X19775000Y-12280000D01*
D42*
X23170000Y-8416750D02*
X23170000Y-7010000D01*
D40*
%TO.N,Net-(U4-EN)*%
X20514500Y-9470500D02*
X19250000Y-10735000D01*
X20514500Y-9172250D02*
X20514500Y-9470500D01*
D38*
%TO.N,MMC_SEL*%
X12460000Y-16590000D02*
X13260000Y-15790000D01*
X12405000Y-17743000D02*
X13353000Y-17743000D01*
X13353000Y-17743000D02*
X13555000Y-17945000D01*
X13260000Y-15790000D02*
X13870000Y-15790000D01*
X12405000Y-16655000D02*
X12405000Y-17743000D01*
X12460000Y-16600000D02*
X12460000Y-16590000D01*
X12460000Y-16600000D02*
X12405000Y-16655000D01*
%TO.N,Net-(U8-Y)*%
X16245000Y-16740000D02*
X16580000Y-17075000D01*
X16060000Y-16740000D02*
X16245000Y-16740000D01*
X16580000Y-17075000D02*
X16580000Y-17935000D01*
%TO.N,MMC_SEL_INV*%
X15560000Y-17935000D02*
X14970000Y-17345000D01*
D40*
X4007000Y-15402000D02*
X3195000Y-14590000D01*
D38*
X5530000Y-12630000D02*
X5530000Y-13650000D01*
D40*
X4530000Y-15402000D02*
X4007000Y-15402000D01*
D38*
X14970000Y-17345000D02*
X14970000Y-16740000D01*
D40*
%TO.N,Net-(JP2-B)*%
X2010000Y-11625000D02*
X2890000Y-11625000D01*
%TD*%
%TA.AperFunction,Conductor*%
%TO.N,GND*%
G36*
X23955648Y-44352D02*
G01*
X23970000Y-79000D01*
X23970000Y-18921000D01*
X23955648Y-18955648D01*
X23921000Y-18970000D01*
X79000Y-18970000D01*
X44352Y-18955648D01*
X30000Y-18921000D01*
X30000Y-18194749D01*
X594500Y-18194749D01*
X606132Y-18253228D01*
X606132Y-18253229D01*
X606133Y-18253230D01*
X609475Y-18258231D01*
X650447Y-18319551D01*
X677994Y-18337957D01*
X716769Y-18363866D01*
X731389Y-18366774D01*
X775249Y-18375499D01*
X775252Y-18375499D01*
X2117880Y-18375499D01*
X2129354Y-18379515D01*
X2129805Y-18377543D01*
X2140709Y-18380031D01*
X2140710Y-18380032D01*
X2143365Y-18380637D01*
X2158532Y-18386921D01*
X2160836Y-18388369D01*
X2166256Y-18388979D01*
X2190493Y-18391710D01*
X2195904Y-18392630D01*
X2203659Y-18394400D01*
X2203660Y-18394400D01*
X2211613Y-18394400D01*
X2217098Y-18394707D01*
X2246752Y-18398049D01*
X2249322Y-18397149D01*
X2265505Y-18394400D01*
X9229494Y-18394400D01*
X9245676Y-18397149D01*
X9246423Y-18397410D01*
X9248249Y-18398049D01*
X9277902Y-18394707D01*
X9283388Y-18394400D01*
X9291339Y-18394400D01*
X9291341Y-18394400D01*
X9299101Y-18392628D01*
X9304505Y-18391710D01*
X9334164Y-18388369D01*
X9336464Y-18386923D01*
X9351637Y-18380637D01*
X9354291Y-18380032D01*
X9377631Y-18361417D01*
X9382099Y-18358248D01*
X9388836Y-18354016D01*
X9392062Y-18350788D01*
X9394461Y-18348391D01*
X9398549Y-18344736D01*
X9421887Y-18326126D01*
X9423068Y-18323672D01*
X9432565Y-18310285D01*
X9467453Y-18275397D01*
X10138500Y-18275397D01*
X10144330Y-18304713D01*
X10157001Y-18323676D01*
X10166543Y-18337957D01*
X10199787Y-18360169D01*
X10229101Y-18366000D01*
X10780898Y-18365999D01*
X10810213Y-18360169D01*
X10843457Y-18337957D01*
X10865669Y-18304713D01*
X10871500Y-18275399D01*
X10871500Y-18275397D01*
X12038500Y-18275397D01*
X12044330Y-18304713D01*
X12057001Y-18323676D01*
X12066543Y-18337957D01*
X12099787Y-18360169D01*
X12129101Y-18366000D01*
X12680898Y-18365999D01*
X12710213Y-18360169D01*
X12743457Y-18337957D01*
X12765669Y-18304713D01*
X12771500Y-18275399D01*
X12771500Y-17931399D01*
X12785852Y-17896752D01*
X12820500Y-17882400D01*
X13135500Y-17882400D01*
X13170148Y-17896752D01*
X13184500Y-17931400D01*
X13184500Y-18153197D01*
X13198163Y-18221887D01*
X13198164Y-18221888D01*
X13250214Y-18299786D01*
X13307341Y-18337957D01*
X13328112Y-18351836D01*
X13396802Y-18365500D01*
X13396804Y-18365500D01*
X13713198Y-18365500D01*
X13763468Y-18355500D01*
X13781888Y-18351836D01*
X13859786Y-18299786D01*
X13911836Y-18221888D01*
X13925500Y-18153196D01*
X13925500Y-17736804D01*
X13925137Y-17734981D01*
X13911836Y-17668112D01*
X13905154Y-17658112D01*
X13859786Y-17590214D01*
X13806486Y-17554600D01*
X13781887Y-17538163D01*
X13713198Y-17524500D01*
X13713196Y-17524500D01*
X13396804Y-17524500D01*
X13396802Y-17524500D01*
X13328112Y-17538163D01*
X13242540Y-17595342D01*
X13215317Y-17603600D01*
X12820499Y-17603600D01*
X12785851Y-17589248D01*
X12771499Y-17554600D01*
X12771499Y-17210602D01*
X12765669Y-17181286D01*
X12743457Y-17148043D01*
X12738395Y-17144661D01*
X12710213Y-17125831D01*
X12710212Y-17125830D01*
X12710211Y-17125830D01*
X12680901Y-17120000D01*
X12680899Y-17120000D01*
X12593400Y-17120000D01*
X12558752Y-17105648D01*
X12544400Y-17071000D01*
X12544400Y-16980398D01*
X12558752Y-16945750D01*
X12571155Y-16936739D01*
X12653859Y-16894599D01*
X12668587Y-16887095D01*
X12747095Y-16808587D01*
X12782042Y-16740000D01*
X14615131Y-16740000D01*
X14632499Y-16849662D01*
X14680853Y-16944560D01*
X14682905Y-16948587D01*
X14761413Y-17027095D01*
X14803846Y-17048715D01*
X14828201Y-17077230D01*
X14830600Y-17092373D01*
X14830600Y-17371299D01*
X14830601Y-17371304D01*
X14830601Y-17382354D01*
X14836874Y-17393218D01*
X14841769Y-17405035D01*
X14845016Y-17417155D01*
X14845019Y-17417160D01*
X14858446Y-17430588D01*
X14858452Y-17430593D01*
X14858454Y-17430595D01*
X15175148Y-17747289D01*
X15189500Y-17781936D01*
X15189500Y-18143197D01*
X15203163Y-18211887D01*
X15203164Y-18211888D01*
X15255214Y-18289786D01*
X15327305Y-18337956D01*
X15333112Y-18341836D01*
X15401802Y-18355500D01*
X15401804Y-18355500D01*
X15718198Y-18355500D01*
X15772359Y-18344726D01*
X15786888Y-18341836D01*
X15864786Y-18289786D01*
X15916836Y-18211888D01*
X15930500Y-18143196D01*
X15930500Y-17726804D01*
X15929454Y-17721547D01*
X15916836Y-17658112D01*
X15911749Y-17650499D01*
X15864786Y-17580214D01*
X15801854Y-17538164D01*
X15786887Y-17528163D01*
X15718198Y-17514500D01*
X15718196Y-17514500D01*
X15401804Y-17514500D01*
X15401803Y-17514500D01*
X15373136Y-17520201D01*
X15336354Y-17512883D01*
X15328931Y-17506790D01*
X15123752Y-17301611D01*
X15109400Y-17266963D01*
X15109400Y-17092373D01*
X15123752Y-17057725D01*
X15136149Y-17048717D01*
X15178587Y-17027095D01*
X15228285Y-16977397D01*
X15439500Y-16977397D01*
X15445330Y-17006713D01*
X15458949Y-17027095D01*
X15467543Y-17039957D01*
X15500787Y-17062169D01*
X15530101Y-17068000D01*
X16355562Y-17067999D01*
X16390208Y-17082349D01*
X16426248Y-17118389D01*
X16440600Y-17153035D01*
X16440600Y-17470548D01*
X16426248Y-17505196D01*
X16401160Y-17518606D01*
X16353112Y-17528163D01*
X16275214Y-17580214D01*
X16223163Y-17658112D01*
X16209500Y-17726802D01*
X16209500Y-18143197D01*
X16223163Y-18211887D01*
X16223164Y-18211888D01*
X16275214Y-18289786D01*
X16347305Y-18337956D01*
X16353112Y-18341836D01*
X16421802Y-18355500D01*
X16421804Y-18355500D01*
X16738198Y-18355500D01*
X16792359Y-18344726D01*
X16806888Y-18341836D01*
X16884786Y-18289786D01*
X16936836Y-18211888D01*
X16950500Y-18143196D01*
X16950500Y-17726804D01*
X16949454Y-17721547D01*
X16936836Y-17658112D01*
X16931749Y-17650499D01*
X16884786Y-17580214D01*
X16821854Y-17538164D01*
X16806887Y-17528163D01*
X16758840Y-17518606D01*
X16727658Y-17497771D01*
X16719400Y-17470548D01*
X16719400Y-17050622D01*
X16719399Y-17050614D01*
X16719399Y-17037648D01*
X16719398Y-17037646D01*
X16713125Y-17026782D01*
X16708230Y-17014965D01*
X16704982Y-17002842D01*
X16704981Y-17002841D01*
X16704981Y-17002840D01*
X16694850Y-16992709D01*
X16680499Y-16958064D01*
X16680499Y-16502602D01*
X16674669Y-16473287D01*
X16674669Y-16473286D01*
X16652457Y-16440043D01*
X16644589Y-16434786D01*
X16619213Y-16417831D01*
X16619212Y-16417830D01*
X16619211Y-16417830D01*
X16589900Y-16412000D01*
X15530102Y-16412000D01*
X15500786Y-16417830D01*
X15467543Y-16440042D01*
X15445330Y-16473288D01*
X15439500Y-16502599D01*
X15439500Y-16977397D01*
X15228285Y-16977397D01*
X15257095Y-16948587D01*
X15294991Y-16874211D01*
X15307500Y-16849662D01*
X15312269Y-16819550D01*
X15324869Y-16740000D01*
X15309426Y-16642499D01*
X15307500Y-16630337D01*
X15269239Y-16555247D01*
X15257095Y-16531413D01*
X15178587Y-16452905D01*
X15163854Y-16445398D01*
X15079662Y-16402499D01*
X14970000Y-16385131D01*
X14860337Y-16402499D01*
X14761412Y-16452905D01*
X14682905Y-16531412D01*
X14632499Y-16630337D01*
X14615131Y-16740000D01*
X12782042Y-16740000D01*
X12797500Y-16709662D01*
X12801782Y-16682624D01*
X12814869Y-16600000D01*
X12798360Y-16495768D01*
X12796286Y-16482673D01*
X12798913Y-16482256D01*
X12796982Y-16457708D01*
X12808934Y-16438205D01*
X13187115Y-16060024D01*
X13221762Y-16045673D01*
X13256410Y-16060025D01*
X13262504Y-16067450D01*
X13272280Y-16082080D01*
X13277543Y-16089957D01*
X13310787Y-16112169D01*
X13340101Y-16118000D01*
X14399898Y-16117999D01*
X14429213Y-16112169D01*
X14462457Y-16089957D01*
X14484669Y-16056713D01*
X14490500Y-16027399D01*
X14490499Y-15552602D01*
X14487735Y-15538705D01*
X14484669Y-15523286D01*
X14462457Y-15490043D01*
X14440691Y-15475500D01*
X14429213Y-15467831D01*
X14429212Y-15467830D01*
X14429211Y-15467830D01*
X14399900Y-15462000D01*
X13340102Y-15462000D01*
X13310786Y-15467830D01*
X13277543Y-15490042D01*
X13255330Y-15523288D01*
X13249500Y-15552599D01*
X13249500Y-15606808D01*
X13235148Y-15641456D01*
X13224996Y-15649245D01*
X13211776Y-15656876D01*
X13199967Y-15661768D01*
X13187842Y-15665017D01*
X13187839Y-15665019D01*
X13168786Y-15684070D01*
X13168782Y-15684076D01*
X12855147Y-15997710D01*
X12820499Y-16012062D01*
X12785851Y-15997710D01*
X12771499Y-15963064D01*
X12771499Y-15077397D01*
X13249500Y-15077397D01*
X13255330Y-15106713D01*
X13275346Y-15136669D01*
X13277543Y-15139957D01*
X13310787Y-15162169D01*
X13340101Y-15168000D01*
X14399898Y-15167999D01*
X14429213Y-15162169D01*
X14462457Y-15139957D01*
X14484669Y-15106713D01*
X14490500Y-15077399D01*
X14490499Y-14602602D01*
X14484669Y-14573287D01*
X14484669Y-14573286D01*
X14462457Y-14540043D01*
X14440685Y-14525496D01*
X14429213Y-14517831D01*
X14429212Y-14517830D01*
X14429211Y-14517830D01*
X14399900Y-14512000D01*
X13340102Y-14512000D01*
X13310786Y-14517830D01*
X13277543Y-14540042D01*
X13255330Y-14573288D01*
X13249500Y-14602599D01*
X13249500Y-15077397D01*
X12771499Y-15077397D01*
X12771499Y-14914602D01*
X12765669Y-14885287D01*
X12765669Y-14885286D01*
X12743457Y-14852043D01*
X12740720Y-14850214D01*
X12710213Y-14829831D01*
X12710212Y-14829830D01*
X12710211Y-14829830D01*
X12680900Y-14824000D01*
X12129102Y-14824000D01*
X12099786Y-14829830D01*
X12066543Y-14852042D01*
X12044330Y-14885288D01*
X12038500Y-14914599D01*
X12038500Y-15979397D01*
X12044330Y-16008713D01*
X12061620Y-16034589D01*
X12066543Y-16041957D01*
X12099787Y-16064169D01*
X12129101Y-16070000D01*
X12664563Y-16069999D01*
X12699211Y-16084351D01*
X12713563Y-16118999D01*
X12699211Y-16153647D01*
X12605182Y-16247675D01*
X12570534Y-16262027D01*
X12562869Y-16261424D01*
X12460000Y-16245131D01*
X12350337Y-16262499D01*
X12251412Y-16312905D01*
X12172905Y-16391412D01*
X12122499Y-16490337D01*
X12105131Y-16600000D01*
X12122499Y-16709662D01*
X12172905Y-16808587D01*
X12251248Y-16886930D01*
X12265600Y-16921578D01*
X12265600Y-17071000D01*
X12251248Y-17105648D01*
X12216601Y-17120000D01*
X12129102Y-17120000D01*
X12099786Y-17125830D01*
X12066543Y-17148042D01*
X12044330Y-17181288D01*
X12038500Y-17210599D01*
X12038500Y-18275397D01*
X10871500Y-18275397D01*
X10871499Y-17210602D01*
X10865669Y-17181287D01*
X10865669Y-17181286D01*
X10843457Y-17148043D01*
X10838395Y-17144661D01*
X10810213Y-17125831D01*
X10810211Y-17125830D01*
X10802109Y-17120417D01*
X10802635Y-17119629D01*
X10781456Y-17105475D01*
X10773200Y-17078255D01*
X10773200Y-16872778D01*
X10787552Y-16838130D01*
X10792095Y-16833587D01*
X10833040Y-16753228D01*
X10842500Y-16734662D01*
X10846281Y-16710787D01*
X10859869Y-16625000D01*
X10845921Y-16536940D01*
X10842500Y-16515337D01*
X10808143Y-16447909D01*
X10792095Y-16416413D01*
X10713587Y-16337905D01*
X10713586Y-16337905D01*
X10614662Y-16287499D01*
X10505000Y-16270131D01*
X10395337Y-16287499D01*
X10296412Y-16337905D01*
X10217905Y-16416412D01*
X10167499Y-16515337D01*
X10150131Y-16625000D01*
X10167499Y-16734662D01*
X10217905Y-16833587D01*
X10222448Y-16838130D01*
X10236800Y-16872778D01*
X10236800Y-17078254D01*
X10222448Y-17112902D01*
X10205882Y-17121757D01*
X10166543Y-17148042D01*
X10144330Y-17181288D01*
X10138500Y-17210599D01*
X10138500Y-18275397D01*
X9467453Y-18275397D01*
X9690285Y-18052565D01*
X9703672Y-18043068D01*
X9706126Y-18041887D01*
X9724736Y-18018549D01*
X9728391Y-18014461D01*
X9730788Y-18012062D01*
X9734016Y-18008836D01*
X9738248Y-18002099D01*
X9741417Y-17997631D01*
X9760032Y-17974291D01*
X9760637Y-17971637D01*
X9766923Y-17956465D01*
X9767404Y-17955700D01*
X9768369Y-17954164D01*
X9771710Y-17924505D01*
X9772628Y-17919101D01*
X9774400Y-17911341D01*
X9774400Y-17903387D01*
X9774708Y-17897901D01*
X9778049Y-17868249D01*
X9777149Y-17865676D01*
X9774400Y-17849494D01*
X9774400Y-16135504D01*
X9777150Y-16119319D01*
X9778049Y-16116751D01*
X9774708Y-16087097D01*
X9774400Y-16081611D01*
X9774400Y-16073657D01*
X9772630Y-16065903D01*
X9771710Y-16060492D01*
X9768369Y-16030836D01*
X9768369Y-16030835D01*
X9766921Y-16028531D01*
X9760638Y-16013366D01*
X9760032Y-16010709D01*
X9741424Y-15987375D01*
X9738247Y-15982897D01*
X9734015Y-15976163D01*
X9728396Y-15970544D01*
X9724735Y-15966447D01*
X9706126Y-15943113D01*
X9703666Y-15941928D01*
X9690282Y-15932430D01*
X9382568Y-15624716D01*
X9373070Y-15611331D01*
X9371887Y-15608874D01*
X9361418Y-15600525D01*
X9348551Y-15590263D01*
X9344455Y-15586602D01*
X9338835Y-15580982D01*
X9332100Y-15576750D01*
X9327620Y-15573572D01*
X9321206Y-15568457D01*
X9304291Y-15554968D01*
X9301632Y-15554361D01*
X9286473Y-15548081D01*
X9284164Y-15546631D01*
X9268895Y-15544910D01*
X9254502Y-15543288D01*
X9249093Y-15542368D01*
X9241341Y-15540600D01*
X9233388Y-15540600D01*
X9227902Y-15540292D01*
X9223997Y-15539852D01*
X9198249Y-15536951D01*
X9198248Y-15536951D01*
X9195676Y-15537851D01*
X9179494Y-15540600D01*
X8817314Y-15540600D01*
X8782666Y-15526248D01*
X8551135Y-15294717D01*
X8541635Y-15281329D01*
X8535600Y-15268797D01*
X8538788Y-15267261D01*
X8531888Y-15254744D01*
X8531440Y-15254834D01*
X8531159Y-15253423D01*
X8530801Y-15252773D01*
X8530712Y-15251173D01*
X8524669Y-15220786D01*
X8497042Y-15179439D01*
X8498873Y-15178214D01*
X8486409Y-15159563D01*
X8493723Y-15122780D01*
X8499258Y-15117244D01*
X8503312Y-15111178D01*
X8534494Y-15090342D01*
X8544054Y-15089400D01*
X9235065Y-15089400D01*
X9269713Y-15103752D01*
X9277282Y-15118609D01*
X9278976Y-15117746D01*
X9322857Y-15203867D01*
X9332905Y-15223587D01*
X9411413Y-15302095D01*
X9433200Y-15313196D01*
X9510337Y-15352500D01*
X9536718Y-15356678D01*
X9620000Y-15369869D01*
X9714667Y-15354874D01*
X9729662Y-15352500D01*
X9766643Y-15333657D01*
X9828587Y-15302095D01*
X9907095Y-15223587D01*
X9949464Y-15140433D01*
X9957500Y-15124662D01*
X9963491Y-15086836D01*
X9974869Y-15015000D01*
X9957500Y-14905339D01*
X9957500Y-14905337D01*
X9919026Y-14829830D01*
X9907095Y-14806413D01*
X9828587Y-14727905D01*
X9823176Y-14725148D01*
X9729662Y-14677499D01*
X9620000Y-14660131D01*
X9510337Y-14677499D01*
X9469946Y-14698081D01*
X9455857Y-14705259D01*
X9433613Y-14710600D01*
X8544054Y-14710600D01*
X8509406Y-14696248D01*
X8503312Y-14688822D01*
X8497042Y-14679438D01*
X8498873Y-14678214D01*
X8486409Y-14659563D01*
X8493723Y-14622780D01*
X8499255Y-14617247D01*
X8502454Y-14612458D01*
X8502457Y-14612457D01*
X8524669Y-14579213D01*
X8524743Y-14578840D01*
X8545576Y-14547659D01*
X8572801Y-14539400D01*
X8819378Y-14539400D01*
X8819386Y-14539399D01*
X8832352Y-14539399D01*
X8843215Y-14533126D01*
X8855034Y-14528230D01*
X8867158Y-14524982D01*
X8867158Y-14524981D01*
X8873391Y-14523312D01*
X8873976Y-14525496D01*
X8894812Y-14521624D01*
X8900337Y-14522499D01*
X8900339Y-14522500D01*
X9010000Y-14539869D01*
X9104667Y-14524874D01*
X9119662Y-14522500D01*
X9168436Y-14497648D01*
X9218587Y-14472095D01*
X9297095Y-14393587D01*
X9337926Y-14313452D01*
X9347500Y-14294662D01*
X9354241Y-14252101D01*
X9364869Y-14185000D01*
X9349858Y-14090227D01*
X9347500Y-14075337D01*
X9298750Y-13979662D01*
X9297095Y-13976413D01*
X9218587Y-13897905D01*
X9207426Y-13892218D01*
X9119662Y-13847499D01*
X9010000Y-13830131D01*
X8900337Y-13847499D01*
X8801412Y-13897905D01*
X8722905Y-13976412D01*
X8672499Y-14075337D01*
X8655131Y-14185000D01*
X8658130Y-14203935D01*
X8649375Y-14240402D01*
X8617398Y-14259997D01*
X8609733Y-14260600D01*
X8572802Y-14260600D01*
X8538154Y-14246248D01*
X8524743Y-14221158D01*
X8524669Y-14220786D01*
X8502457Y-14187543D01*
X8498651Y-14185000D01*
X8469213Y-14165331D01*
X8469212Y-14165330D01*
X8469211Y-14165330D01*
X8439900Y-14159500D01*
X7620102Y-14159500D01*
X7590786Y-14165330D01*
X7557543Y-14187542D01*
X7535330Y-14220788D01*
X7529500Y-14250099D01*
X7529500Y-14549897D01*
X7535330Y-14579213D01*
X7562958Y-14620561D01*
X7561125Y-14621785D01*
X7573589Y-14640433D01*
X7566278Y-14677216D01*
X7560745Y-14682751D01*
X7557543Y-14687542D01*
X7557543Y-14687543D01*
X7556207Y-14689543D01*
X7535330Y-14720788D01*
X7529500Y-14750099D01*
X7529500Y-15049897D01*
X7535330Y-15079213D01*
X7562958Y-15120561D01*
X7561125Y-15121785D01*
X7573589Y-15140433D01*
X7566278Y-15177216D01*
X7560745Y-15182751D01*
X7535330Y-15220788D01*
X7529500Y-15250099D01*
X7529500Y-15549897D01*
X7535330Y-15579213D01*
X7562958Y-15620561D01*
X7561125Y-15621785D01*
X7573589Y-15640433D01*
X7566278Y-15677216D01*
X7560745Y-15682751D01*
X7535330Y-15720788D01*
X7529500Y-15750099D01*
X7529500Y-16049897D01*
X7535330Y-16079213D01*
X7562958Y-16120561D01*
X7561125Y-16121785D01*
X7573589Y-16140433D01*
X7566278Y-16177216D01*
X7560745Y-16182751D01*
X7535330Y-16220788D01*
X7529500Y-16250099D01*
X7529500Y-16549897D01*
X7535330Y-16579213D01*
X7555913Y-16610018D01*
X7557543Y-16612457D01*
X7590787Y-16634669D01*
X7620101Y-16640500D01*
X7982351Y-16640499D01*
X8016999Y-16654851D01*
X8548584Y-17186437D01*
X8562936Y-17221085D01*
X8548585Y-17255733D01*
X8512904Y-17291414D01*
X8462499Y-17390337D01*
X8445131Y-17500000D01*
X8462499Y-17609662D01*
X8512904Y-17708586D01*
X8512905Y-17708587D01*
X8591413Y-17787095D01*
X8599570Y-17791251D01*
X8690337Y-17837500D01*
X8716718Y-17841678D01*
X8800000Y-17854869D01*
X8894667Y-17839874D01*
X8909662Y-17837500D01*
X8947147Y-17818400D01*
X9008587Y-17787095D01*
X9087095Y-17708587D01*
X9130980Y-17622457D01*
X9137500Y-17609662D01*
X9142164Y-17580214D01*
X9154869Y-17500000D01*
X9138284Y-17395287D01*
X9137500Y-17390337D01*
X9090626Y-17298343D01*
X9087095Y-17291413D01*
X9008587Y-17212905D01*
X9005886Y-17210204D01*
X8991842Y-17181041D01*
X8989708Y-17162096D01*
X8989400Y-17156611D01*
X8989400Y-17148657D01*
X8987630Y-17140903D01*
X8986710Y-17135492D01*
X8983369Y-17105836D01*
X8983369Y-17105835D01*
X8981921Y-17103531D01*
X8975638Y-17088366D01*
X8975032Y-17085709D01*
X8956424Y-17062375D01*
X8953247Y-17057897D01*
X8949015Y-17051163D01*
X8943396Y-17045544D01*
X8939735Y-17041447D01*
X8921126Y-17018113D01*
X8918666Y-17016928D01*
X8905282Y-17007430D01*
X8534036Y-16636184D01*
X8519684Y-16601536D01*
X8523512Y-16588921D01*
X8522768Y-16588773D01*
X8530102Y-16551899D01*
X8530500Y-16549899D01*
X8530499Y-16518012D01*
X8544850Y-16483367D01*
X8579498Y-16469014D01*
X8614146Y-16483365D01*
X8623158Y-16495768D01*
X8664565Y-16577032D01*
X8667905Y-16583587D01*
X8746413Y-16662095D01*
X8776730Y-16677542D01*
X8845337Y-16712500D01*
X8871718Y-16716678D01*
X8955000Y-16729869D01*
X9049667Y-16714874D01*
X9064662Y-16712500D01*
X9098053Y-16695486D01*
X9163587Y-16662095D01*
X9242095Y-16583587D01*
X9292500Y-16484661D01*
X9298202Y-16448655D01*
X9317799Y-16416678D01*
X9354265Y-16407923D01*
X9386242Y-16427519D01*
X9395600Y-16456320D01*
X9395600Y-17791251D01*
X9381248Y-17825899D01*
X9205900Y-18001248D01*
X9171252Y-18015600D01*
X6526812Y-18015600D01*
X6492164Y-18001248D01*
X6477812Y-17966600D01*
X6492164Y-17931952D01*
X6500737Y-17925114D01*
X6505263Y-17922269D01*
X6505264Y-17922269D01*
X6507566Y-17920821D01*
X6522737Y-17914537D01*
X6525391Y-17913932D01*
X6548731Y-17895317D01*
X6553199Y-17892148D01*
X6559936Y-17887916D01*
X6563162Y-17884688D01*
X6565561Y-17882291D01*
X6569651Y-17878635D01*
X6592987Y-17860026D01*
X6594168Y-17857572D01*
X6603665Y-17844185D01*
X6793815Y-17654035D01*
X6828462Y-17639684D01*
X6841079Y-17643511D01*
X6841227Y-17642768D01*
X6864916Y-17647479D01*
X6880101Y-17650500D01*
X7179898Y-17650499D01*
X7209213Y-17644669D01*
X7242457Y-17622457D01*
X7264669Y-17589213D01*
X7270500Y-17559899D01*
X7270499Y-16740102D01*
X7264669Y-16710787D01*
X7264669Y-16710786D01*
X7242457Y-16677543D01*
X7219335Y-16662094D01*
X7209213Y-16655331D01*
X7209212Y-16655330D01*
X7209211Y-16655330D01*
X7179900Y-16649500D01*
X6880102Y-16649500D01*
X6850786Y-16655330D01*
X6817543Y-16677542D01*
X6795330Y-16710788D01*
X6789500Y-16740099D01*
X6789500Y-17102351D01*
X6775148Y-17136999D01*
X6377000Y-17535148D01*
X6342352Y-17549500D01*
X3822648Y-17549500D01*
X3788000Y-17535148D01*
X2709852Y-16457000D01*
X2695500Y-16422352D01*
X2695500Y-16216648D01*
X2709852Y-16182000D01*
X2744500Y-16167648D01*
X2779148Y-16182000D01*
X2779155Y-16182007D01*
X2781609Y-16184462D01*
X2785263Y-16188551D01*
X2791107Y-16195878D01*
X2803874Y-16211887D01*
X2806331Y-16213070D01*
X2819716Y-16222568D01*
X3104430Y-16507282D01*
X3113928Y-16520666D01*
X3115113Y-16523126D01*
X3138447Y-16541735D01*
X3142544Y-16545396D01*
X3148164Y-16551016D01*
X3149571Y-16551900D01*
X3154897Y-16555247D01*
X3159375Y-16558424D01*
X3182709Y-16577032D01*
X3185366Y-16577638D01*
X3200531Y-16583921D01*
X3202835Y-16585369D01*
X3208255Y-16585979D01*
X3232492Y-16588710D01*
X3237903Y-16589630D01*
X3245658Y-16591400D01*
X3245659Y-16591400D01*
X3253612Y-16591400D01*
X3259097Y-16591707D01*
X3288751Y-16595049D01*
X3291321Y-16594149D01*
X3307504Y-16591400D01*
X4015946Y-16591400D01*
X4050594Y-16605752D01*
X4056688Y-16613178D01*
X4057541Y-16614455D01*
X4057542Y-16614455D01*
X4057543Y-16614457D01*
X4090787Y-16636669D01*
X4120101Y-16642500D01*
X4939898Y-16642499D01*
X4969213Y-16636669D01*
X5002457Y-16614457D01*
X5024669Y-16581213D01*
X5030500Y-16551899D01*
X5030499Y-16252102D01*
X5024669Y-16222787D01*
X5024669Y-16222786D01*
X5005266Y-16193747D01*
X5002457Y-16189543D01*
X5002456Y-16189542D01*
X4997042Y-16181439D01*
X4998873Y-16180214D01*
X4986409Y-16161563D01*
X4993723Y-16124780D01*
X4999255Y-16119247D01*
X5002454Y-16114458D01*
X5002457Y-16114457D01*
X5024669Y-16081213D01*
X5030500Y-16051899D01*
X5030499Y-15752102D01*
X5026360Y-15731288D01*
X5024669Y-15722786D01*
X5005743Y-15694461D01*
X5002457Y-15689543D01*
X5002456Y-15689542D01*
X4997042Y-15681439D01*
X4998873Y-15680214D01*
X4986409Y-15661563D01*
X4993723Y-15624780D01*
X4999255Y-15619247D01*
X5002454Y-15614458D01*
X5002457Y-15614457D01*
X5024669Y-15581213D01*
X5030500Y-15551899D01*
X5030499Y-15252102D01*
X5027329Y-15236162D01*
X5024669Y-15222786D01*
X4997042Y-15181439D01*
X4998873Y-15180214D01*
X4986409Y-15161563D01*
X4993723Y-15124780D01*
X4999255Y-15119247D01*
X5002454Y-15114458D01*
X5002457Y-15114457D01*
X5024669Y-15081213D01*
X5030500Y-15051899D01*
X5030499Y-14752102D01*
X5027127Y-14735148D01*
X5024669Y-14722786D01*
X4997042Y-14681439D01*
X4998873Y-14680214D01*
X4986409Y-14661563D01*
X4993723Y-14624780D01*
X4999255Y-14619247D01*
X5002454Y-14614458D01*
X5002457Y-14614457D01*
X5024669Y-14581213D01*
X5030500Y-14551899D01*
X5030499Y-14252102D01*
X5026643Y-14232711D01*
X5024669Y-14222786D01*
X5002457Y-14189543D01*
X4986167Y-14178659D01*
X4969213Y-14167331D01*
X4969212Y-14167330D01*
X4969211Y-14167330D01*
X4939901Y-14161500D01*
X4939899Y-14161500D01*
X4608400Y-14161500D01*
X4573752Y-14147148D01*
X4559400Y-14112500D01*
X4559400Y-13626578D01*
X4573752Y-13591930D01*
X4613731Y-13551951D01*
X4657095Y-13508587D01*
X4701774Y-13420899D01*
X4707500Y-13409662D01*
X4715874Y-13356788D01*
X4724869Y-13300000D01*
X4711660Y-13216605D01*
X4707500Y-13190337D01*
X4665138Y-13107198D01*
X4657095Y-13091413D01*
X4578587Y-13012905D01*
X4566213Y-13006600D01*
X4479662Y-12962499D01*
X4370000Y-12945131D01*
X4260337Y-12962499D01*
X4161412Y-13012905D01*
X4082905Y-13091412D01*
X4032499Y-13190337D01*
X4015131Y-13300000D01*
X4032499Y-13409662D01*
X4082905Y-13508587D01*
X4166248Y-13591930D01*
X4180600Y-13626578D01*
X4180600Y-14112500D01*
X4166248Y-14147148D01*
X4131603Y-14161500D01*
X4120102Y-14161500D01*
X4081226Y-14169232D01*
X4080551Y-14165842D01*
X4061462Y-14169619D01*
X4030302Y-14148751D01*
X4028661Y-14144258D01*
X4021921Y-14133532D01*
X4015637Y-14118362D01*
X4015032Y-14115709D01*
X4009372Y-14108611D01*
X3996426Y-14092377D01*
X3993251Y-14087903D01*
X3989017Y-14081165D01*
X3983396Y-14075544D01*
X3979735Y-14071447D01*
X3961126Y-14048113D01*
X3958666Y-14046928D01*
X3945282Y-14037430D01*
X2767568Y-12859716D01*
X2758070Y-12846331D01*
X2756887Y-12843874D01*
X2745336Y-12834662D01*
X2733551Y-12825263D01*
X2729455Y-12821602D01*
X2723837Y-12815984D01*
X2718428Y-12812585D01*
X2696728Y-12781998D01*
X2695500Y-12771097D01*
X2695500Y-12395249D01*
X2685348Y-12344213D01*
X2683867Y-12336769D01*
X2661709Y-12303608D01*
X2639552Y-12270447D01*
X2589923Y-12237286D01*
X2573231Y-12226133D01*
X2573230Y-12226132D01*
X2573229Y-12226132D01*
X2514751Y-12214500D01*
X2514748Y-12214500D01*
X775252Y-12214500D01*
X775249Y-12214500D01*
X716770Y-12226132D01*
X650447Y-12270447D01*
X606132Y-12336770D01*
X594500Y-12395249D01*
X594500Y-13534750D01*
X606132Y-13593229D01*
X606132Y-13593230D01*
X606133Y-13593231D01*
X613219Y-13603836D01*
X646817Y-13654119D01*
X650448Y-13659552D01*
X672315Y-13674163D01*
X672457Y-13674258D01*
X693292Y-13705441D01*
X685975Y-13742224D01*
X672457Y-13755742D01*
X650447Y-13770448D01*
X606132Y-13836770D01*
X594500Y-13895249D01*
X594500Y-15034750D01*
X606132Y-15093229D01*
X650447Y-15159552D01*
X681370Y-15180214D01*
X716769Y-15203867D01*
X731389Y-15206775D01*
X775249Y-15215500D01*
X2497353Y-15215500D01*
X2532001Y-15229852D01*
X2602628Y-15300479D01*
X2616980Y-15335127D01*
X2602628Y-15369775D01*
X2567980Y-15384127D01*
X2558421Y-15383186D01*
X2547667Y-15381047D01*
X2514748Y-15374499D01*
X775252Y-15374499D01*
X775249Y-15374499D01*
X716770Y-15386131D01*
X650447Y-15430446D01*
X606132Y-15496769D01*
X594500Y-15555248D01*
X594500Y-16694749D01*
X606132Y-16753228D01*
X606132Y-16753229D01*
X606133Y-16753230D01*
X650448Y-16819551D01*
X671454Y-16833587D01*
X672457Y-16834257D01*
X693292Y-16865440D01*
X685975Y-16902223D01*
X672457Y-16915741D01*
X650447Y-16930447D01*
X606132Y-16996769D01*
X594500Y-17055248D01*
X594500Y-18194749D01*
X30000Y-18194749D01*
X30000Y-11833197D01*
X1639500Y-11833197D01*
X1653163Y-11901887D01*
X1657750Y-11908752D01*
X1705214Y-11979786D01*
X1770767Y-12023587D01*
X1783112Y-12031836D01*
X1851802Y-12045500D01*
X1851804Y-12045500D01*
X2168198Y-12045500D01*
X2213990Y-12036390D01*
X2236888Y-12031836D01*
X2314786Y-11979786D01*
X2366836Y-11901888D01*
X2373080Y-11870499D01*
X2376394Y-11853840D01*
X2397229Y-11822658D01*
X2424452Y-11814400D01*
X2563422Y-11814400D01*
X2598070Y-11828752D01*
X2602905Y-11833587D01*
X2681413Y-11912095D01*
X2707722Y-11925500D01*
X2780337Y-11962500D01*
X2806718Y-11966678D01*
X2890000Y-11979869D01*
X2984667Y-11964874D01*
X2999662Y-11962500D01*
X3040786Y-11941546D01*
X3098587Y-11912095D01*
X3177095Y-11833587D01*
X3204451Y-11779897D01*
X3457000Y-11779897D01*
X3462830Y-11809213D01*
X3485042Y-11842456D01*
X3485043Y-11842457D01*
X3518287Y-11864669D01*
X3547601Y-11870500D01*
X4017398Y-11870499D01*
X4046713Y-11864669D01*
X4079957Y-11842457D01*
X4102169Y-11809213D01*
X4108000Y-11779899D01*
X4107999Y-11310102D01*
X4105252Y-11296287D01*
X4102169Y-11280786D01*
X4079957Y-11247543D01*
X4053472Y-11229847D01*
X4046713Y-11225331D01*
X4046712Y-11225330D01*
X4046711Y-11225330D01*
X4017400Y-11219500D01*
X3547602Y-11219500D01*
X3518286Y-11225330D01*
X3485043Y-11247542D01*
X3462830Y-11280788D01*
X3457000Y-11310099D01*
X3457000Y-11779897D01*
X3204451Y-11779897D01*
X3217204Y-11754868D01*
X3227500Y-11734662D01*
X3232144Y-11705339D01*
X3244869Y-11625000D01*
X3227500Y-11515339D01*
X3227500Y-11515337D01*
X3186871Y-11435600D01*
X3177095Y-11416413D01*
X3098587Y-11337905D01*
X3084908Y-11330935D01*
X2999662Y-11287499D01*
X2890000Y-11270131D01*
X2780337Y-11287499D01*
X2681412Y-11337905D01*
X2598070Y-11421248D01*
X2563422Y-11435600D01*
X2424452Y-11435600D01*
X2389804Y-11421248D01*
X2376394Y-11396160D01*
X2366836Y-11348112D01*
X2366836Y-11348111D01*
X2314786Y-11270214D01*
X2238889Y-11219501D01*
X2236887Y-11218163D01*
X2168198Y-11204500D01*
X2168196Y-11204500D01*
X1851804Y-11204500D01*
X1851802Y-11204500D01*
X1783112Y-11218163D01*
X1705214Y-11270214D01*
X1653163Y-11348112D01*
X1639500Y-11416802D01*
X1639500Y-11833197D01*
X30000Y-11833197D01*
X30000Y-10748690D01*
X2864500Y-10748690D01*
X2878453Y-10818837D01*
X2878453Y-10818838D01*
X2878454Y-10818839D01*
X2931609Y-10898391D01*
X3011161Y-10951546D01*
X3028698Y-10955034D01*
X3081309Y-10965500D01*
X3081312Y-10965500D01*
X3408691Y-10965500D01*
X3450778Y-10957127D01*
X3478839Y-10951546D01*
X3558391Y-10898391D01*
X3611546Y-10818839D01*
X3620158Y-10775546D01*
X3625500Y-10748690D01*
X3625500Y-10391937D01*
X3639852Y-10357289D01*
X3686879Y-10310262D01*
X3741546Y-10255595D01*
X3741546Y-10255593D01*
X3745578Y-10251562D01*
X3745579Y-10251559D01*
X3754982Y-10242158D01*
X3758230Y-10230034D01*
X3763127Y-10218214D01*
X3765237Y-10214560D01*
X3769399Y-10207352D01*
X3769399Y-10194059D01*
X3769400Y-10194050D01*
X3769400Y-9969499D01*
X3783752Y-9934851D01*
X3818400Y-9920499D01*
X4239898Y-9920499D01*
X4269213Y-9914669D01*
X4269212Y-9914668D01*
X4302457Y-9892457D01*
X4324669Y-9859213D01*
X4330500Y-9829899D01*
X4330500Y-9308400D01*
X4344852Y-9273752D01*
X4379500Y-9259400D01*
X4640500Y-9259400D01*
X4675148Y-9273752D01*
X4689500Y-9308400D01*
X4689500Y-9458197D01*
X4703163Y-9526887D01*
X4711351Y-9539141D01*
X4755214Y-9604786D01*
X4817420Y-9646351D01*
X4833112Y-9656836D01*
X4901802Y-9670500D01*
X4901804Y-9670500D01*
X5318198Y-9670500D01*
X5363990Y-9661390D01*
X5386888Y-9656836D01*
X5464786Y-9604786D01*
X5516836Y-9526888D01*
X5530500Y-9458196D01*
X5530500Y-9141804D01*
X5529519Y-9136873D01*
X5516836Y-9073112D01*
X5511942Y-9065788D01*
X5464786Y-8995214D01*
X5386888Y-8943164D01*
X5386887Y-8943163D01*
X5318198Y-8929500D01*
X5318196Y-8929500D01*
X4901804Y-8929500D01*
X4901802Y-8929500D01*
X4833112Y-8943163D01*
X4789444Y-8972342D01*
X4762221Y-8980600D01*
X4379499Y-8980600D01*
X4344851Y-8966248D01*
X4330499Y-8931600D01*
X4330499Y-8410102D01*
X4324669Y-8380786D01*
X4302457Y-8347543D01*
X4302456Y-8347542D01*
X4269213Y-8325331D01*
X4269212Y-8325330D01*
X4269211Y-8325330D01*
X4239900Y-8319500D01*
X3020102Y-8319500D01*
X2990786Y-8325330D01*
X2957543Y-8347542D01*
X2935330Y-8380788D01*
X2929500Y-8410099D01*
X2929500Y-9829897D01*
X2935330Y-9859213D01*
X2955026Y-9888690D01*
X2957543Y-9892457D01*
X2990787Y-9914669D01*
X3020101Y-9920500D01*
X3441600Y-9920499D01*
X3476248Y-9934851D01*
X3490600Y-9969499D01*
X3490600Y-10091962D01*
X3476248Y-10126610D01*
X3472062Y-10130796D01*
X3468635Y-10134223D01*
X3433986Y-10148572D01*
X3424431Y-10147631D01*
X3408688Y-10144500D01*
X3081312Y-10144500D01*
X3081309Y-10144500D01*
X3011162Y-10158453D01*
X2931609Y-10211609D01*
X2878453Y-10291162D01*
X2864500Y-10361309D01*
X2864500Y-10748690D01*
X30000Y-10748690D01*
X30000Y-7629897D01*
X1179500Y-7629897D01*
X1185330Y-7659213D01*
X1207009Y-7691658D01*
X1207543Y-7692457D01*
X1240787Y-7714669D01*
X1270101Y-7720500D01*
X2358061Y-7720499D01*
X2392709Y-7734851D01*
X2800024Y-8142166D01*
X2800029Y-8142169D01*
X2807842Y-8149982D01*
X2811121Y-8150860D01*
X2819962Y-8153230D01*
X2831781Y-8158125D01*
X2837476Y-8161413D01*
X2842648Y-8164399D01*
X2853695Y-8164399D01*
X2853701Y-8164400D01*
X2861650Y-8164400D01*
X4479378Y-8164400D01*
X4479386Y-8164399D01*
X4492352Y-8164399D01*
X4503215Y-8158126D01*
X4515031Y-8153230D01*
X4527158Y-8149982D01*
X4534973Y-8142167D01*
X4534976Y-8142165D01*
X4608593Y-8068548D01*
X4643241Y-8054196D01*
X4677889Y-8068548D01*
X4692241Y-8103196D01*
X4691300Y-8112754D01*
X4689500Y-8121804D01*
X4689500Y-8438197D01*
X4703163Y-8506887D01*
X4703164Y-8506888D01*
X4755214Y-8584786D01*
X4826099Y-8632150D01*
X4833112Y-8636836D01*
X4901802Y-8650500D01*
X4901804Y-8650500D01*
X5318198Y-8650500D01*
X5371741Y-8639849D01*
X5386888Y-8636836D01*
X5464786Y-8584786D01*
X5516836Y-8506888D01*
X5530500Y-8438196D01*
X5530500Y-8193400D01*
X5544852Y-8158752D01*
X5579500Y-8144400D01*
X6146817Y-8144400D01*
X6162804Y-8151022D01*
X6183184Y-8144400D01*
X6237974Y-8144400D01*
X6272622Y-8158752D01*
X6286974Y-8193400D01*
X6272622Y-8228048D01*
X6268522Y-8231712D01*
X6259443Y-8238951D01*
X6223405Y-8249330D01*
X6221231Y-8249036D01*
X6175520Y-8241797D01*
X6165968Y-8235944D01*
X6154482Y-8241797D01*
X6055337Y-8257500D01*
X5956412Y-8307905D01*
X5877905Y-8386412D01*
X5827499Y-8485337D01*
X5810131Y-8595000D01*
X5827499Y-8704662D01*
X5877905Y-8803587D01*
X5961901Y-8887583D01*
X5960686Y-8888797D01*
X5978199Y-8909295D01*
X5980600Y-8924445D01*
X5980600Y-9180500D01*
X5966248Y-9215148D01*
X5940499Y-9225813D01*
X5941045Y-9228558D01*
X5866162Y-9243453D01*
X5786609Y-9296609D01*
X5733453Y-9376162D01*
X5719500Y-9446309D01*
X5719500Y-9773690D01*
X5733453Y-9843837D01*
X5733453Y-9843838D01*
X5733454Y-9843839D01*
X5786609Y-9923391D01*
X5866161Y-9976546D01*
X5883698Y-9980034D01*
X5936309Y-9990500D01*
X5936312Y-9990500D01*
X6323691Y-9990500D01*
X6365778Y-9982127D01*
X6393839Y-9976546D01*
X6473391Y-9923391D01*
X6526546Y-9843839D01*
X6539687Y-9777776D01*
X6540500Y-9773690D01*
X6540500Y-9446309D01*
X6526637Y-9376617D01*
X6526546Y-9376161D01*
X6473391Y-9296609D01*
X6393839Y-9243454D01*
X6385735Y-9238039D01*
X6386819Y-9236416D01*
X6367656Y-9223610D01*
X6359400Y-9196390D01*
X6359400Y-8916578D01*
X6373752Y-8881930D01*
X6409373Y-8846309D01*
X6452095Y-8803587D01*
X6502500Y-8704661D01*
X6513417Y-8635734D01*
X6533013Y-8603758D01*
X6561814Y-8594400D01*
X6783044Y-8594400D01*
X6817692Y-8608752D01*
X6832044Y-8643400D01*
X6817692Y-8678048D01*
X6810267Y-8684142D01*
X6791609Y-8696608D01*
X6738453Y-8776162D01*
X6724500Y-8846309D01*
X6724500Y-9173690D01*
X6738453Y-9243837D01*
X6738453Y-9243838D01*
X6738454Y-9243839D01*
X6791609Y-9323391D01*
X6871161Y-9376546D01*
X6888698Y-9380034D01*
X6941309Y-9390500D01*
X6941312Y-9390500D01*
X7328691Y-9390500D01*
X7371661Y-9381952D01*
X7398839Y-9376546D01*
X7478391Y-9323391D01*
X7531546Y-9243839D01*
X7541261Y-9194998D01*
X7545500Y-9173690D01*
X7545500Y-9043400D01*
X7559852Y-9008752D01*
X7594500Y-8994400D01*
X7656358Y-8994400D01*
X7691006Y-9008752D01*
X7705358Y-9043400D01*
X7701510Y-9056085D01*
X7702232Y-9056229D01*
X7694500Y-9095099D01*
X7694500Y-9314897D01*
X7700330Y-9344213D01*
X7715004Y-9366174D01*
X7720651Y-9374626D01*
X7722757Y-9377777D01*
X7730073Y-9414560D01*
X7722758Y-9432222D01*
X7722543Y-9432542D01*
X7722543Y-9432543D01*
X7715004Y-9443826D01*
X7700330Y-9465788D01*
X7694500Y-9495099D01*
X7694500Y-9714897D01*
X7700330Y-9744213D01*
X7722757Y-9777777D01*
X7730073Y-9814560D01*
X7722758Y-9832222D01*
X7722543Y-9832542D01*
X7722543Y-9832543D01*
X7715006Y-9843824D01*
X7700330Y-9865788D01*
X7694500Y-9895099D01*
X7694500Y-10114897D01*
X7700330Y-10144213D01*
X7722757Y-10177777D01*
X7730073Y-10214560D01*
X7722758Y-10232222D01*
X7722543Y-10232542D01*
X7722543Y-10232543D01*
X7713178Y-10246559D01*
X7700330Y-10265788D01*
X7694500Y-10295099D01*
X7694500Y-10310262D01*
X7680148Y-10344910D01*
X6843454Y-11181605D01*
X6830020Y-11195039D01*
X6830016Y-11195046D01*
X6826768Y-11207166D01*
X6821876Y-11218977D01*
X6815600Y-11229847D01*
X6815600Y-11681962D01*
X6801248Y-11716610D01*
X6646611Y-11871248D01*
X6611963Y-11885600D01*
X4992801Y-11885600D01*
X4958153Y-11871248D01*
X4943801Y-11836600D01*
X4952059Y-11809378D01*
X4952088Y-11809333D01*
X4952169Y-11809213D01*
X4954690Y-11796538D01*
X4958942Y-11775165D01*
X4961223Y-11775618D01*
X4972352Y-11748752D01*
X5007000Y-11734400D01*
X5354494Y-11734400D01*
X5370676Y-11737149D01*
X5371423Y-11737410D01*
X5373249Y-11738049D01*
X5402902Y-11734707D01*
X5408388Y-11734400D01*
X5412490Y-11734400D01*
X5422587Y-11736824D01*
X5422673Y-11736286D01*
X5437852Y-11738690D01*
X5540000Y-11754869D01*
X5642148Y-11738690D01*
X5649662Y-11737500D01*
X5690660Y-11716610D01*
X5748587Y-11687095D01*
X5827095Y-11608587D01*
X5868099Y-11528112D01*
X5877500Y-11509662D01*
X5886711Y-11451505D01*
X5894869Y-11400000D01*
X5877500Y-11290339D01*
X5877500Y-11290337D01*
X5838295Y-11213394D01*
X5827095Y-11191413D01*
X5748587Y-11112905D01*
X5733516Y-11105226D01*
X5649662Y-11062499D01*
X5540000Y-11045131D01*
X5430337Y-11062499D01*
X5331412Y-11112905D01*
X5252905Y-11191412D01*
X5202500Y-11290337D01*
X5198710Y-11314266D01*
X5179114Y-11346242D01*
X5150313Y-11355600D01*
X5006999Y-11355600D01*
X4972351Y-11341248D01*
X4961221Y-11314380D01*
X4958940Y-11314834D01*
X4952169Y-11280786D01*
X4929957Y-11247543D01*
X4903472Y-11229847D01*
X4896713Y-11225331D01*
X4896712Y-11225330D01*
X4896711Y-11225330D01*
X4867400Y-11219500D01*
X4397602Y-11219500D01*
X4368286Y-11225330D01*
X4335043Y-11247542D01*
X4312830Y-11280788D01*
X4307000Y-11310099D01*
X4307000Y-11779897D01*
X4312830Y-11809213D01*
X4335042Y-11842456D01*
X4335043Y-11842457D01*
X4368287Y-11864669D01*
X4397601Y-11870500D01*
X4841563Y-11870499D01*
X4876211Y-11884851D01*
X4890563Y-11919499D01*
X4876211Y-11954147D01*
X4775210Y-12055148D01*
X4740562Y-12069500D01*
X4397602Y-12069500D01*
X4368286Y-12075330D01*
X4335043Y-12097542D01*
X4312830Y-12130788D01*
X4307000Y-12160099D01*
X4307000Y-12629897D01*
X4312830Y-12659213D01*
X4333609Y-12690311D01*
X4335043Y-12692457D01*
X4368287Y-12714669D01*
X4397601Y-12720500D01*
X4867398Y-12720499D01*
X4896713Y-12714669D01*
X4929957Y-12692457D01*
X4952169Y-12659213D01*
X4957980Y-12630000D01*
X5175131Y-12630000D01*
X5192499Y-12739662D01*
X5229176Y-12811642D01*
X5242905Y-12838587D01*
X5321413Y-12917095D01*
X5363846Y-12938715D01*
X5388201Y-12967230D01*
X5390600Y-12982373D01*
X5390600Y-13107198D01*
X5376248Y-13141846D01*
X5351158Y-13155257D01*
X5350786Y-13155330D01*
X5317543Y-13177542D01*
X5295330Y-13210788D01*
X5289500Y-13240099D01*
X5289500Y-14059897D01*
X5295330Y-14089213D01*
X5310890Y-14112500D01*
X5317543Y-14122457D01*
X5350787Y-14144669D01*
X5380101Y-14150500D01*
X5679898Y-14150499D01*
X5709213Y-14144669D01*
X5742457Y-14122457D01*
X5764669Y-14089213D01*
X5770500Y-14059899D01*
X5770499Y-13240102D01*
X5766499Y-13219990D01*
X5764669Y-13210786D01*
X5742457Y-13177543D01*
X5742456Y-13177542D01*
X5709213Y-13155331D01*
X5709210Y-13155330D01*
X5708838Y-13155256D01*
X5677656Y-13134419D01*
X5669400Y-13107198D01*
X5669400Y-12982373D01*
X5683752Y-12947725D01*
X5696149Y-12938717D01*
X5738587Y-12917095D01*
X5817095Y-12838587D01*
X5861199Y-12752028D01*
X5867500Y-12739662D01*
X5873881Y-12699373D01*
X5884869Y-12630000D01*
X5870668Y-12540339D01*
X5867500Y-12520337D01*
X5828421Y-12443641D01*
X5817095Y-12421413D01*
X5738587Y-12342905D01*
X5738586Y-12342905D01*
X5639662Y-12292499D01*
X5530000Y-12275131D01*
X5420337Y-12292499D01*
X5321412Y-12342905D01*
X5242905Y-12421412D01*
X5192499Y-12520337D01*
X5175131Y-12630000D01*
X4957980Y-12630000D01*
X4958000Y-12629899D01*
X4957999Y-12286936D01*
X4972351Y-12252289D01*
X5045889Y-12178752D01*
X5080537Y-12164400D01*
X6714378Y-12164400D01*
X6714386Y-12164399D01*
X6727352Y-12164399D01*
X6738215Y-12158126D01*
X6750031Y-12153230D01*
X6762158Y-12149982D01*
X6769973Y-12142167D01*
X6769976Y-12142165D01*
X7070580Y-11841561D01*
X7070582Y-11841563D01*
X7070592Y-11841546D01*
X7071809Y-11840329D01*
X7106463Y-11825993D01*
X7141106Y-11840359D01*
X7147185Y-11847770D01*
X7155214Y-11859786D01*
X7233112Y-11911836D01*
X7301802Y-11925500D01*
X7301804Y-11925500D01*
X7718198Y-11925500D01*
X7763990Y-11916390D01*
X7786888Y-11911836D01*
X7864786Y-11859786D01*
X7916836Y-11781888D01*
X7928500Y-11723249D01*
X7930500Y-11713197D01*
X7930500Y-11458400D01*
X7944852Y-11423752D01*
X7979500Y-11409400D01*
X8319892Y-11409400D01*
X8354540Y-11423752D01*
X8368892Y-11458400D01*
X8354540Y-11493048D01*
X8342138Y-11502059D01*
X8291412Y-11527905D01*
X8212905Y-11606412D01*
X8162499Y-11705337D01*
X8145131Y-11815000D01*
X8162499Y-11924662D01*
X8212905Y-12023587D01*
X8291413Y-12102095D01*
X8310531Y-12111836D01*
X8390337Y-12152500D01*
X8416718Y-12156678D01*
X8500000Y-12169869D01*
X8594667Y-12154874D01*
X8609662Y-12152500D01*
X8652275Y-12130787D01*
X8708587Y-12102095D01*
X8787095Y-12023587D01*
X8821787Y-11955500D01*
X8839288Y-11921154D01*
X8867805Y-11896798D01*
X8882947Y-11894400D01*
X9045501Y-11894400D01*
X9080149Y-11908752D01*
X9094501Y-11943400D01*
X9094501Y-12314897D01*
X9100330Y-12344213D01*
X9117510Y-12369925D01*
X9122543Y-12377457D01*
X9155787Y-12399669D01*
X9185101Y-12405500D01*
X9256863Y-12405499D01*
X9291511Y-12419850D01*
X9305863Y-12454498D01*
X9291514Y-12489144D01*
X9284412Y-12496246D01*
X9249766Y-12510600D01*
X9037374Y-12510600D01*
X9002726Y-12496248D01*
X8993716Y-12483848D01*
X8972095Y-12441413D01*
X8893587Y-12362905D01*
X8794662Y-12312499D01*
X8685000Y-12295131D01*
X8575337Y-12312499D01*
X8476412Y-12362905D01*
X8397905Y-12441412D01*
X8347499Y-12540337D01*
X8330131Y-12650000D01*
X8347500Y-12759662D01*
X8373985Y-12811642D01*
X8376928Y-12849030D01*
X8352572Y-12877547D01*
X8315184Y-12880490D01*
X8295678Y-12868536D01*
X7944852Y-12517709D01*
X7930500Y-12483061D01*
X7930500Y-12416802D01*
X7916836Y-12348112D01*
X7909257Y-12336769D01*
X7864786Y-12270214D01*
X7812735Y-12235434D01*
X7786887Y-12218163D01*
X7718198Y-12204500D01*
X7718196Y-12204500D01*
X7301804Y-12204500D01*
X7301802Y-12204500D01*
X7233112Y-12218163D01*
X7155214Y-12270214D01*
X7103163Y-12348112D01*
X7089500Y-12416802D01*
X7089500Y-12733197D01*
X7103163Y-12801887D01*
X7116453Y-12821777D01*
X7155214Y-12879786D01*
X7225337Y-12926641D01*
X7233112Y-12931836D01*
X7301802Y-12945500D01*
X7301804Y-12945500D01*
X7718198Y-12945500D01*
X7778085Y-12933587D01*
X7786888Y-12931836D01*
X7860040Y-12882956D01*
X7896821Y-12875640D01*
X7921910Y-12889051D01*
X8199810Y-13166952D01*
X8214162Y-13201600D01*
X8199810Y-13236248D01*
X8165162Y-13250600D01*
X7312802Y-13250600D01*
X7278154Y-13236248D01*
X7264743Y-13211158D01*
X7264669Y-13210786D01*
X7242457Y-13177543D01*
X7226606Y-13166952D01*
X7209213Y-13155331D01*
X7209212Y-13155330D01*
X7209211Y-13155330D01*
X7179900Y-13149500D01*
X6880102Y-13149500D01*
X6850786Y-13155330D01*
X6817543Y-13177542D01*
X6795330Y-13210788D01*
X6789500Y-13240099D01*
X6789500Y-13634248D01*
X6788897Y-13641912D01*
X6785587Y-13662808D01*
X6787831Y-13671180D01*
X6789500Y-13683861D01*
X6789500Y-14059897D01*
X6795330Y-14089213D01*
X6810890Y-14112500D01*
X6817543Y-14122457D01*
X6850787Y-14144669D01*
X6880101Y-14150500D01*
X7179898Y-14150499D01*
X7209213Y-14144669D01*
X7242457Y-14122457D01*
X7264669Y-14089213D01*
X7270500Y-14059899D01*
X7270499Y-13778399D01*
X7284851Y-13743752D01*
X7319499Y-13729400D01*
X9605541Y-13729400D01*
X9640189Y-13743752D01*
X10251248Y-14354810D01*
X10265600Y-14389458D01*
X10265600Y-14776527D01*
X10251248Y-14811175D01*
X10226158Y-14824586D01*
X10199786Y-14829830D01*
X10166543Y-14852042D01*
X10144330Y-14885288D01*
X10138500Y-14914599D01*
X10138500Y-15979397D01*
X10144330Y-16008713D01*
X10161620Y-16034589D01*
X10166543Y-16041957D01*
X10199787Y-16064169D01*
X10229101Y-16070000D01*
X10780898Y-16069999D01*
X10810213Y-16064169D01*
X10843457Y-16041957D01*
X10865669Y-16008713D01*
X10871500Y-15979399D01*
X10871499Y-14914602D01*
X10865669Y-14885287D01*
X10865669Y-14885286D01*
X10843457Y-14852043D01*
X10840720Y-14850214D01*
X10810213Y-14829831D01*
X10810212Y-14829830D01*
X10810211Y-14829830D01*
X10783839Y-14824584D01*
X10752657Y-14803748D01*
X10744400Y-14776526D01*
X10744400Y-14277555D01*
X10744467Y-14274991D01*
X10744608Y-14272297D01*
X10746735Y-14231713D01*
X10736629Y-14205388D01*
X10734448Y-14198022D01*
X10732220Y-14187542D01*
X10728588Y-14170452D01*
X10720993Y-14159998D01*
X10714892Y-14148759D01*
X10710263Y-14136701D01*
X10690329Y-14116767D01*
X10685335Y-14110920D01*
X10683657Y-14108611D01*
X10668768Y-14088117D01*
X10657577Y-14081656D01*
X10647433Y-14073871D01*
X9964999Y-13391436D01*
X9950647Y-13356788D01*
X9964999Y-13322140D01*
X9967156Y-13319982D01*
X9967158Y-13319982D01*
X9980593Y-13306547D01*
X9980595Y-13306546D01*
X10056184Y-13230956D01*
X10090830Y-13216605D01*
X10098496Y-13217208D01*
X10100338Y-13217499D01*
X10100339Y-13217500D01*
X10210000Y-13234869D01*
X10302076Y-13220284D01*
X10315224Y-13219990D01*
X10330495Y-13221710D01*
X10335899Y-13222629D01*
X10343659Y-13224400D01*
X10351612Y-13224400D01*
X10357097Y-13224707D01*
X10386751Y-13228049D01*
X10389321Y-13227149D01*
X10405504Y-13224400D01*
X10714401Y-13224400D01*
X10749049Y-13238752D01*
X10762459Y-13263840D01*
X10763453Y-13268837D01*
X10763453Y-13268838D01*
X10763454Y-13268839D01*
X10816609Y-13348391D01*
X10896161Y-13401546D01*
X10908679Y-13404036D01*
X10966309Y-13415500D01*
X10966312Y-13415500D01*
X11353691Y-13415500D01*
X11398692Y-13406548D01*
X11423839Y-13401546D01*
X11503391Y-13348391D01*
X11556546Y-13268839D01*
X11568093Y-13210788D01*
X11570500Y-13198690D01*
X11570500Y-12871309D01*
X11560034Y-12818698D01*
X11556546Y-12801161D01*
X11503391Y-12721609D01*
X11423839Y-12668454D01*
X11423838Y-12668453D01*
X11423837Y-12668453D01*
X11353691Y-12654500D01*
X11353688Y-12654500D01*
X11133400Y-12654500D01*
X11098752Y-12640148D01*
X11084400Y-12605500D01*
X11084400Y-12443641D01*
X11098752Y-12408993D01*
X11133400Y-12394641D01*
X11146085Y-12398490D01*
X11146229Y-12397768D01*
X11155787Y-12399669D01*
X11185101Y-12405500D01*
X11404898Y-12405499D01*
X11434213Y-12399669D01*
X11467457Y-12377457D01*
X11467458Y-12377454D01*
X11467777Y-12377242D01*
X11504559Y-12369925D01*
X11522223Y-12377242D01*
X11522541Y-12377454D01*
X11522543Y-12377457D01*
X11555787Y-12399669D01*
X11585101Y-12405500D01*
X11804898Y-12405499D01*
X11834213Y-12399669D01*
X11867457Y-12377457D01*
X11867458Y-12377454D01*
X11867777Y-12377242D01*
X11904559Y-12369925D01*
X11922223Y-12377242D01*
X11922541Y-12377454D01*
X11922543Y-12377457D01*
X11955787Y-12399669D01*
X11985101Y-12405500D01*
X12204898Y-12405499D01*
X12234213Y-12399669D01*
X12267457Y-12377457D01*
X12267458Y-12377454D01*
X12267777Y-12377242D01*
X12304559Y-12369925D01*
X12322223Y-12377242D01*
X12322541Y-12377454D01*
X12322543Y-12377457D01*
X12355787Y-12399669D01*
X12385101Y-12405500D01*
X12423351Y-12405499D01*
X12457998Y-12419850D01*
X12472351Y-12454498D01*
X12458000Y-12489146D01*
X12247773Y-12699373D01*
X12213125Y-12713725D01*
X12205461Y-12713122D01*
X12155000Y-12705130D01*
X12045337Y-12722499D01*
X11946412Y-12772905D01*
X11867905Y-12851412D01*
X11817499Y-12950337D01*
X11800131Y-13060000D01*
X11817499Y-13169662D01*
X11858740Y-13250600D01*
X11867905Y-13268587D01*
X11946413Y-13347095D01*
X11965437Y-13356788D01*
X12045337Y-13397500D01*
X12070884Y-13401546D01*
X12155000Y-13414869D01*
X12249667Y-13399874D01*
X12264662Y-13397500D01*
X12298053Y-13380486D01*
X12363587Y-13347095D01*
X12442095Y-13268587D01*
X12487786Y-13178913D01*
X12492500Y-13169662D01*
X12495693Y-13149500D01*
X12509869Y-13060000D01*
X12501876Y-13009537D01*
X12510631Y-12973072D01*
X12515621Y-12967230D01*
X13000285Y-12482565D01*
X13013672Y-12473068D01*
X13016126Y-12471887D01*
X13018289Y-12469173D01*
X13051111Y-12451031D01*
X13087149Y-12461412D01*
X13105292Y-12494234D01*
X13105600Y-12499723D01*
X13105600Y-13386251D01*
X13091248Y-13420899D01*
X13002773Y-13509373D01*
X12968125Y-13523725D01*
X12960461Y-13523122D01*
X12910000Y-13515130D01*
X12800337Y-13532499D01*
X12701412Y-13582905D01*
X12622905Y-13661412D01*
X12572499Y-13760337D01*
X12555131Y-13870000D01*
X12572499Y-13979662D01*
X12622827Y-14078433D01*
X12622905Y-14078587D01*
X12701413Y-14157095D01*
X12725993Y-14169619D01*
X12800337Y-14207500D01*
X12826718Y-14211678D01*
X12910000Y-14224869D01*
X13011725Y-14208757D01*
X13019662Y-14207500D01*
X13063820Y-14185000D01*
X13118587Y-14157095D01*
X13197095Y-14078587D01*
X13230486Y-14013053D01*
X13247500Y-13979662D01*
X13252197Y-13950003D01*
X13264869Y-13870000D01*
X13256876Y-13819537D01*
X13265631Y-13783072D01*
X13270619Y-13777231D01*
X13400285Y-13647565D01*
X13413672Y-13638068D01*
X13416126Y-13636887D01*
X13422370Y-13629056D01*
X13455192Y-13610915D01*
X13491230Y-13621296D01*
X13509371Y-13654118D01*
X13511631Y-13674164D01*
X13511902Y-13674595D01*
X13513081Y-13676471D01*
X13519361Y-13691632D01*
X13519968Y-13694291D01*
X13527605Y-13703867D01*
X13538572Y-13717620D01*
X13541750Y-13722100D01*
X13545982Y-13728835D01*
X13551602Y-13734455D01*
X13555263Y-13738551D01*
X13566881Y-13753118D01*
X13573874Y-13761887D01*
X13576331Y-13763070D01*
X13589716Y-13772568D01*
X13649373Y-13832225D01*
X13663725Y-13866873D01*
X13663122Y-13874537D01*
X13655130Y-13924998D01*
X13672499Y-14034662D01*
X13717234Y-14122457D01*
X13722905Y-14133587D01*
X13801413Y-14212095D01*
X13826482Y-14224868D01*
X13900337Y-14262500D01*
X13926718Y-14266678D01*
X14010000Y-14279869D01*
X14104667Y-14264874D01*
X14119662Y-14262500D01*
X14163822Y-14239999D01*
X14218587Y-14212095D01*
X14297095Y-14133587D01*
X14341250Y-14046928D01*
X14347500Y-14034662D01*
X14350838Y-14013586D01*
X14364869Y-13925000D01*
X14347500Y-13815339D01*
X14347500Y-13815337D01*
X14303712Y-13729400D01*
X14297095Y-13716413D01*
X14218587Y-13637905D01*
X14211410Y-13634248D01*
X14119662Y-13587499D01*
X14009998Y-13570130D01*
X13959538Y-13578122D01*
X13923072Y-13569366D01*
X13917225Y-13564372D01*
X13898751Y-13545897D01*
X13884400Y-13511250D01*
X13884400Y-12969723D01*
X13898752Y-12935075D01*
X13933400Y-12920723D01*
X13968048Y-12935075D01*
X13971706Y-12939169D01*
X13973874Y-12941887D01*
X13976331Y-12943070D01*
X13989716Y-12952568D01*
X14039373Y-13002225D01*
X14053725Y-13036873D01*
X14053122Y-13044537D01*
X14045130Y-13094998D01*
X14062499Y-13204662D01*
X14111077Y-13300000D01*
X14112905Y-13303587D01*
X14191413Y-13382095D01*
X14209746Y-13391436D01*
X14290337Y-13432500D01*
X14316718Y-13436678D01*
X14400000Y-13449869D01*
X14494667Y-13434874D01*
X14509662Y-13432500D01*
X14554485Y-13409661D01*
X14608587Y-13382095D01*
X14675885Y-13314796D01*
X14710532Y-13300445D01*
X14745180Y-13314797D01*
X14754958Y-13328773D01*
X15032792Y-13925937D01*
X15034586Y-13929605D01*
X15038971Y-13938149D01*
X15038975Y-13938155D01*
X15038978Y-13938160D01*
X15059215Y-13965548D01*
X15059217Y-13965550D01*
X15059218Y-13965551D01*
X15109269Y-14014303D01*
X15161814Y-14042104D01*
X15161816Y-14042104D01*
X15165715Y-14044167D01*
X15189629Y-14073056D01*
X15191800Y-14087479D01*
X15191800Y-14208757D01*
X15190859Y-14218316D01*
X15188195Y-14231712D01*
X15186546Y-14240000D01*
X15191340Y-14264100D01*
X15207361Y-14344648D01*
X15254353Y-14414977D01*
X15254361Y-14414986D01*
X15266638Y-14433360D01*
X15285016Y-14445640D01*
X15292441Y-14451734D01*
X15425148Y-14584441D01*
X15439500Y-14619089D01*
X15439500Y-15077397D01*
X15445330Y-15106713D01*
X15465346Y-15136669D01*
X15467543Y-15139957D01*
X15500787Y-15162169D01*
X15530101Y-15168000D01*
X16589898Y-15167999D01*
X16619213Y-15162169D01*
X16652457Y-15139957D01*
X16674669Y-15106713D01*
X16680500Y-15077399D01*
X16680499Y-14602602D01*
X16674669Y-14573287D01*
X16674669Y-14573286D01*
X16652457Y-14540043D01*
X16630685Y-14525496D01*
X16619213Y-14517831D01*
X16619212Y-14517830D01*
X16619211Y-14517830D01*
X16589901Y-14512000D01*
X16589899Y-14512000D01*
X16131588Y-14512000D01*
X16096940Y-14497648D01*
X15742552Y-14143259D01*
X15728200Y-14108611D01*
X15728200Y-14039777D01*
X15742552Y-14005129D01*
X15749978Y-13999035D01*
X15773390Y-13983392D01*
X15773391Y-13983391D01*
X15792078Y-13955422D01*
X15800613Y-13945718D01*
X15804503Y-13942328D01*
X15836488Y-13892218D01*
X15855964Y-13825118D01*
X15860145Y-13795383D01*
X15855539Y-12308069D01*
X15856244Y-12299635D01*
X15860447Y-12275131D01*
X15905533Y-12012290D01*
X15906747Y-12002465D01*
X15906791Y-12001889D01*
X15906875Y-12000791D01*
X15923808Y-11967328D01*
X15955734Y-11955500D01*
X16248691Y-11955500D01*
X16290778Y-11947127D01*
X16318839Y-11941546D01*
X16398391Y-11888391D01*
X16451546Y-11808839D01*
X16458522Y-11773763D01*
X16465500Y-11738690D01*
X16465500Y-11451505D01*
X16473008Y-11425439D01*
X16474013Y-11423838D01*
X16474016Y-11423836D01*
X16478253Y-11417090D01*
X16481417Y-11412631D01*
X16500032Y-11389291D01*
X16500637Y-11386637D01*
X16506923Y-11371465D01*
X16506981Y-11371371D01*
X16508369Y-11369164D01*
X16511710Y-11339505D01*
X16512628Y-11334101D01*
X16514400Y-11326341D01*
X16514400Y-11318387D01*
X16514708Y-11312901D01*
X16515023Y-11310102D01*
X16518049Y-11283249D01*
X16517148Y-11280676D01*
X16514399Y-11264493D01*
X16514399Y-10297709D01*
X16517151Y-10281520D01*
X16517196Y-10281391D01*
X16518050Y-10278952D01*
X16514708Y-10249291D01*
X16514400Y-10243805D01*
X16514400Y-10235858D01*
X16512631Y-10228111D01*
X16511710Y-10222699D01*
X16508369Y-10193037D01*
X16506921Y-10190732D01*
X16500637Y-10175562D01*
X16500032Y-10172909D01*
X16490872Y-10161422D01*
X16481426Y-10149577D01*
X16478251Y-10145103D01*
X16474017Y-10138365D01*
X16468396Y-10132744D01*
X16464735Y-10128647D01*
X16446126Y-10105313D01*
X16443666Y-10104128D01*
X16430282Y-10094630D01*
X16235368Y-9899716D01*
X16225870Y-9886331D01*
X16224687Y-9883874D01*
X16215918Y-9876881D01*
X16201351Y-9865263D01*
X16197255Y-9861602D01*
X16191635Y-9855982D01*
X16184900Y-9851750D01*
X16180421Y-9848572D01*
X16159276Y-9831710D01*
X16141134Y-9798887D01*
X16151516Y-9762850D01*
X16184339Y-9744708D01*
X16189826Y-9744400D01*
X16621963Y-9744400D01*
X16656611Y-9758752D01*
X17501248Y-10603389D01*
X17515600Y-10638036D01*
X17515600Y-14611962D01*
X17501248Y-14646610D01*
X17427711Y-14720148D01*
X17393063Y-14734500D01*
X17031802Y-14734500D01*
X16963112Y-14748163D01*
X16885214Y-14800214D01*
X16833163Y-14878112D01*
X16819500Y-14946802D01*
X16819500Y-15263197D01*
X16833163Y-15331887D01*
X16850434Y-15357735D01*
X16885214Y-15409786D01*
X16960044Y-15459786D01*
X16963112Y-15461836D01*
X17031802Y-15475500D01*
X17031804Y-15475500D01*
X17448198Y-15475500D01*
X17493990Y-15466390D01*
X17516888Y-15461836D01*
X17594786Y-15409786D01*
X17646836Y-15331888D01*
X17658620Y-15272648D01*
X17660500Y-15263197D01*
X17660500Y-14946802D01*
X17654798Y-14918140D01*
X17662113Y-14881358D01*
X17668208Y-14873932D01*
X17704790Y-14837350D01*
X17766546Y-14775595D01*
X17766546Y-14775593D01*
X17770578Y-14771562D01*
X17770579Y-14771559D01*
X17779982Y-14762158D01*
X17783230Y-14750034D01*
X17788127Y-14738214D01*
X17789898Y-14735148D01*
X17794399Y-14727352D01*
X17797626Y-14721764D01*
X17798527Y-14722284D01*
X17817100Y-14698081D01*
X17854282Y-14693186D01*
X17884035Y-14716016D01*
X17890600Y-14740516D01*
X17890600Y-14849636D01*
X17882342Y-14876859D01*
X17878163Y-14883112D01*
X17864500Y-14951802D01*
X17864500Y-15268197D01*
X17878163Y-15336887D01*
X17895434Y-15362735D01*
X17930214Y-15414786D01*
X18000876Y-15462001D01*
X18008112Y-15466836D01*
X18076802Y-15480500D01*
X18076804Y-15480500D01*
X18493198Y-15480500D01*
X18538990Y-15471390D01*
X18561888Y-15466836D01*
X18639786Y-15414786D01*
X18691836Y-15336888D01*
X18704473Y-15273358D01*
X18705500Y-15268197D01*
X18705500Y-14951802D01*
X18691836Y-14883112D01*
X18688495Y-14878112D01*
X18639786Y-14805214D01*
X18577287Y-14763453D01*
X18561887Y-14753163D01*
X18493198Y-14739500D01*
X18493196Y-14739500D01*
X18218400Y-14739500D01*
X18183752Y-14725148D01*
X18169400Y-14690500D01*
X18169400Y-13453036D01*
X18183752Y-13418388D01*
X18218400Y-13404036D01*
X18253048Y-13418388D01*
X18266797Y-13445371D01*
X18275000Y-13497162D01*
X18325405Y-13596087D01*
X18407348Y-13678030D01*
X18421700Y-13712678D01*
X18421700Y-14302399D01*
X18421701Y-14302404D01*
X18421701Y-14313454D01*
X18427974Y-14324318D01*
X18432869Y-14336135D01*
X18436116Y-14348255D01*
X18436119Y-14348260D01*
X18449546Y-14361688D01*
X18449554Y-14361695D01*
X19011790Y-14923931D01*
X19026142Y-14958579D01*
X19025201Y-14968136D01*
X19019500Y-14996803D01*
X19019500Y-15313197D01*
X19033163Y-15381887D01*
X19039341Y-15391133D01*
X19085214Y-15459786D01*
X19154571Y-15506129D01*
X19163112Y-15511836D01*
X19231802Y-15525500D01*
X19231804Y-15525500D01*
X19306600Y-15525500D01*
X19341248Y-15539852D01*
X19355600Y-15574500D01*
X19355600Y-15649763D01*
X19341248Y-15684411D01*
X19333824Y-15690504D01*
X19322544Y-15698040D01*
X19300330Y-15731288D01*
X19294500Y-15760599D01*
X19294500Y-16445398D01*
X19300575Y-16475943D01*
X19293257Y-16512725D01*
X19262073Y-16533559D01*
X19252516Y-16534500D01*
X18945102Y-16534500D01*
X18915786Y-16540330D01*
X18882542Y-16562543D01*
X18875006Y-16573823D01*
X18843823Y-16594658D01*
X18834264Y-16595600D01*
X18615622Y-16595600D01*
X18615614Y-16595601D01*
X18602647Y-16595601D01*
X18591776Y-16601876D01*
X18579967Y-16606768D01*
X18567842Y-16610017D01*
X18563045Y-16614814D01*
X18528395Y-16629162D01*
X18493748Y-16614807D01*
X18479400Y-16580162D01*
X18479400Y-16543457D01*
X18493752Y-16508809D01*
X18518838Y-16495399D01*
X18561888Y-16486836D01*
X18639786Y-16434786D01*
X18691836Y-16356888D01*
X18700585Y-16312905D01*
X18705500Y-16288197D01*
X18705500Y-15971802D01*
X18691836Y-15903112D01*
X18688495Y-15898112D01*
X18639786Y-15825214D01*
X18561888Y-15773164D01*
X18561887Y-15773163D01*
X18493198Y-15759500D01*
X18493196Y-15759500D01*
X18076804Y-15759500D01*
X18076802Y-15759500D01*
X18008112Y-15773163D01*
X17930214Y-15825214D01*
X17878163Y-15903112D01*
X17864500Y-15971802D01*
X17864500Y-16288197D01*
X17878163Y-16356887D01*
X17878164Y-16356888D01*
X17930214Y-16434786D01*
X17973005Y-16463378D01*
X18008112Y-16486836D01*
X18076802Y-16500500D01*
X18076804Y-16500500D01*
X18151600Y-16500500D01*
X18186248Y-16514852D01*
X18200600Y-16549500D01*
X18200600Y-16682624D01*
X18186248Y-16717272D01*
X18173846Y-16726283D01*
X18131412Y-16747904D01*
X18052905Y-16826412D01*
X18002499Y-16925337D01*
X17985131Y-17035000D01*
X18002499Y-17144662D01*
X18052905Y-17243587D01*
X18131413Y-17322095D01*
X18230339Y-17372500D01*
X18234345Y-17373134D01*
X18234777Y-17373203D01*
X18266753Y-17392799D01*
X18275508Y-17429266D01*
X18255912Y-17461242D01*
X18227111Y-17470600D01*
X17973037Y-17470600D01*
X17938389Y-17456248D01*
X17675957Y-17193816D01*
X17661605Y-17159168D01*
X17662208Y-17151502D01*
X17662500Y-17149661D01*
X17679869Y-17040000D01*
X17664941Y-16945750D01*
X17662500Y-16930337D01*
X17613544Y-16834257D01*
X17612095Y-16831413D01*
X17589269Y-16808587D01*
X17533587Y-16752904D01*
X17491154Y-16731283D01*
X17466798Y-16702765D01*
X17464400Y-16687624D01*
X17464400Y-16532489D01*
X17478752Y-16497841D01*
X17503839Y-16484431D01*
X17516888Y-16481836D01*
X17594786Y-16429786D01*
X17646836Y-16351888D01*
X17659505Y-16288197D01*
X17660500Y-16283197D01*
X17660500Y-15966802D01*
X17646836Y-15898112D01*
X17594786Y-15820214D01*
X17516888Y-15768164D01*
X17516887Y-15768163D01*
X17448198Y-15754500D01*
X17448196Y-15754500D01*
X17031804Y-15754500D01*
X17031802Y-15754500D01*
X16963112Y-15768163D01*
X16885214Y-15820214D01*
X16833163Y-15898112D01*
X16819500Y-15966802D01*
X16819500Y-16283197D01*
X16833163Y-16351887D01*
X16833164Y-16351888D01*
X16885214Y-16429786D01*
X16935488Y-16463378D01*
X16963112Y-16481836D01*
X17031802Y-16495500D01*
X17031804Y-16495500D01*
X17136600Y-16495500D01*
X17171248Y-16509852D01*
X17185600Y-16544500D01*
X17185599Y-16687624D01*
X17171247Y-16722272D01*
X17158846Y-16731283D01*
X17116411Y-16752905D01*
X17037905Y-16831412D01*
X16987499Y-16930337D01*
X16970131Y-17040000D01*
X16987499Y-17149662D01*
X17019724Y-17212905D01*
X17037905Y-17248587D01*
X17116413Y-17327095D01*
X17141409Y-17339831D01*
X17215337Y-17377500D01*
X17245325Y-17382249D01*
X17325000Y-17394869D01*
X17434661Y-17377500D01*
X17434662Y-17377499D01*
X17436502Y-17377208D01*
X17472969Y-17385963D01*
X17478816Y-17390957D01*
X17815024Y-17727166D01*
X17815029Y-17727169D01*
X17822842Y-17734982D01*
X17826121Y-17735860D01*
X17834962Y-17738230D01*
X17846781Y-17743125D01*
X17857646Y-17749398D01*
X17857648Y-17749399D01*
X17868695Y-17749399D01*
X17868701Y-17749400D01*
X17876650Y-17749400D01*
X18836378Y-17749400D01*
X18836386Y-17749399D01*
X18849352Y-17749399D01*
X18860215Y-17743126D01*
X18872031Y-17738230D01*
X18884158Y-17734982D01*
X18891973Y-17727167D01*
X18891976Y-17727165D01*
X19269290Y-17349851D01*
X19303938Y-17335499D01*
X19629397Y-17335499D01*
X19629398Y-17335499D01*
X19643712Y-17332652D01*
X19680494Y-17339970D01*
X19701329Y-17371153D01*
X19701329Y-17390270D01*
X19700331Y-17395286D01*
X19700331Y-17395287D01*
X19695000Y-17422090D01*
X19694500Y-17424603D01*
X19694500Y-18109397D01*
X19700330Y-18138713D01*
X19710008Y-18153197D01*
X19722543Y-18171957D01*
X19755787Y-18194169D01*
X19785101Y-18200000D01*
X20004898Y-18199999D01*
X20034213Y-18194169D01*
X20067457Y-18171957D01*
X20067458Y-18171954D01*
X20067777Y-18171742D01*
X20104559Y-18164425D01*
X20122223Y-18171742D01*
X20122541Y-18171954D01*
X20122543Y-18171957D01*
X20155787Y-18194169D01*
X20185101Y-18200000D01*
X20404898Y-18199999D01*
X20434213Y-18194169D01*
X20467457Y-18171957D01*
X20489669Y-18138713D01*
X20495500Y-18109399D01*
X20495499Y-17424602D01*
X20495499Y-17424601D01*
X20489425Y-17394056D01*
X20496744Y-17357274D01*
X20527927Y-17336440D01*
X20537484Y-17335499D01*
X20728062Y-17335499D01*
X20762710Y-17349851D01*
X21160024Y-17747166D01*
X21160029Y-17747169D01*
X21167842Y-17754982D01*
X21171121Y-17755860D01*
X21179962Y-17758230D01*
X21191782Y-17763125D01*
X21202648Y-17769399D01*
X21213695Y-17769399D01*
X21213701Y-17769400D01*
X21221650Y-17769400D01*
X21235500Y-17769400D01*
X21270148Y-17783752D01*
X21284500Y-17818400D01*
X21284500Y-18199750D01*
X21296132Y-18258229D01*
X21340447Y-18324552D01*
X21366315Y-18341836D01*
X21406769Y-18368867D01*
X21421389Y-18371775D01*
X21465249Y-18380500D01*
X21465252Y-18380500D01*
X23204751Y-18380500D01*
X23239837Y-18373520D01*
X23263231Y-18368867D01*
X23329552Y-18324552D01*
X23373867Y-18258231D01*
X23383085Y-18211888D01*
X23385500Y-18199750D01*
X23385500Y-17060249D01*
X23373867Y-17001770D01*
X23373867Y-17001769D01*
X23329552Y-16935448D01*
X23307542Y-16920741D01*
X23286707Y-16889559D01*
X23294024Y-16852777D01*
X23307543Y-16839258D01*
X23309231Y-16838130D01*
X23329552Y-16824552D01*
X23373867Y-16758231D01*
X23382933Y-16712652D01*
X23385500Y-16699750D01*
X23385500Y-15560249D01*
X23373867Y-15501770D01*
X23373867Y-15501769D01*
X23350525Y-15466836D01*
X23329552Y-15435447D01*
X23269777Y-15395507D01*
X23263231Y-15391133D01*
X23263230Y-15391132D01*
X23263229Y-15391132D01*
X23204751Y-15379500D01*
X23204748Y-15379500D01*
X21465252Y-15379500D01*
X21441991Y-15384127D01*
X21420688Y-15388364D01*
X21383905Y-15381047D01*
X21363070Y-15349864D01*
X21370387Y-15313081D01*
X21376476Y-15305662D01*
X21630078Y-15052060D01*
X21664725Y-15037709D01*
X21691948Y-15045967D01*
X21753113Y-15086836D01*
X21821803Y-15100500D01*
X21821805Y-15100500D01*
X22138199Y-15100500D01*
X22183991Y-15091390D01*
X22206889Y-15086836D01*
X22284787Y-15034786D01*
X22336837Y-14956888D01*
X22347091Y-14905337D01*
X22350501Y-14888197D01*
X22350501Y-14471802D01*
X22336837Y-14403112D01*
X22333360Y-14397908D01*
X22284787Y-14325214D01*
X22216924Y-14279869D01*
X22206888Y-14273163D01*
X22138199Y-14259500D01*
X22138197Y-14259500D01*
X21821805Y-14259500D01*
X21798844Y-14264067D01*
X21757468Y-14272297D01*
X21720686Y-14264980D01*
X21699850Y-14233797D01*
X21707167Y-14197015D01*
X21713252Y-14189599D01*
X21954100Y-13948752D01*
X21988749Y-13934400D01*
X22093422Y-13934400D01*
X22128070Y-13948752D01*
X22132905Y-13953587D01*
X22211413Y-14032095D01*
X22221884Y-14037430D01*
X22310337Y-14082500D01*
X22336718Y-14086678D01*
X22420000Y-14099869D01*
X22514667Y-14084874D01*
X22529662Y-14082500D01*
X22574022Y-14059897D01*
X22628587Y-14032095D01*
X22707095Y-13953587D01*
X22747373Y-13874537D01*
X22757500Y-13854662D01*
X22763728Y-13815337D01*
X22774869Y-13745000D01*
X22760003Y-13651141D01*
X22759400Y-13643476D01*
X22759400Y-12611798D01*
X22760003Y-12604133D01*
X22761781Y-12592905D01*
X22769369Y-12545000D01*
X22754503Y-12451141D01*
X22753900Y-12443476D01*
X22753900Y-12076658D01*
X22762157Y-12049436D01*
X22775169Y-12029963D01*
X22781000Y-12000649D01*
X22780999Y-10935852D01*
X22779630Y-10928967D01*
X22775169Y-10906536D01*
X22752957Y-10873293D01*
X22734407Y-10860899D01*
X22719713Y-10851081D01*
X22719712Y-10851080D01*
X22719711Y-10851080D01*
X22690400Y-10845250D01*
X22138602Y-10845250D01*
X22109286Y-10851080D01*
X22076043Y-10873292D01*
X22053830Y-10906538D01*
X22048000Y-10935849D01*
X22048000Y-12000647D01*
X22053830Y-12029963D01*
X22066842Y-12049436D01*
X22075100Y-12076659D01*
X22075100Y-12443476D01*
X22074497Y-12451141D01*
X22059631Y-12545000D01*
X22078214Y-12662327D01*
X22077930Y-12662371D01*
X22080600Y-12673491D01*
X22080600Y-13506600D01*
X22066248Y-13541248D01*
X22031600Y-13555600D01*
X21930506Y-13555600D01*
X21914324Y-13552851D01*
X21911751Y-13551951D01*
X21882099Y-13555292D01*
X21876613Y-13555600D01*
X21868656Y-13555600D01*
X21860899Y-13557370D01*
X21855486Y-13558290D01*
X21825836Y-13561630D01*
X21823527Y-13563082D01*
X21808370Y-13569360D01*
X21805709Y-13569968D01*
X21782379Y-13588571D01*
X21777908Y-13591744D01*
X21771164Y-13595981D01*
X21765530Y-13601615D01*
X21761440Y-13605269D01*
X21738112Y-13623873D01*
X21736929Y-13626331D01*
X21727432Y-13639713D01*
X20632000Y-14735148D01*
X20597352Y-14749500D01*
X20311309Y-14749500D01*
X20241162Y-14763453D01*
X20161609Y-14816609D01*
X20108453Y-14896162D01*
X20094500Y-14966309D01*
X20094500Y-15252351D01*
X20080148Y-15286999D01*
X19919885Y-15447262D01*
X19885237Y-15461614D01*
X19850589Y-15447262D01*
X19836237Y-15412614D01*
X19844496Y-15385390D01*
X19845340Y-15384127D01*
X19846836Y-15381888D01*
X19855787Y-15336888D01*
X19860500Y-15313197D01*
X19860500Y-14996802D01*
X19846836Y-14928112D01*
X19837807Y-14914599D01*
X19794786Y-14850214D01*
X19736360Y-14811175D01*
X19716887Y-14798163D01*
X19648198Y-14784500D01*
X19648196Y-14784500D01*
X19286937Y-14784500D01*
X19252289Y-14770148D01*
X18714852Y-14232711D01*
X18700500Y-14198063D01*
X18700500Y-13766064D01*
X18714852Y-13731416D01*
X18727255Y-13722405D01*
X18787650Y-13691632D01*
X18821087Y-13674595D01*
X18899595Y-13596087D01*
X18940844Y-13515131D01*
X18950000Y-13497162D01*
X18955371Y-13463249D01*
X18967369Y-13387500D01*
X18950000Y-13277839D01*
X18950000Y-13277837D01*
X18912714Y-13204661D01*
X18899595Y-13178913D01*
X18821087Y-13100405D01*
X18810475Y-13094998D01*
X18722162Y-13049999D01*
X18612500Y-13032631D01*
X18502837Y-13049999D01*
X18403912Y-13100405D01*
X18325405Y-13178912D01*
X18274999Y-13277837D01*
X18266797Y-13329628D01*
X18247201Y-13361605D01*
X18210735Y-13370360D01*
X18178758Y-13350764D01*
X18169400Y-13321963D01*
X18169400Y-12725000D01*
X18785131Y-12725000D01*
X18802499Y-12834662D01*
X18849366Y-12926641D01*
X18852905Y-12933587D01*
X18931413Y-13012095D01*
X18962564Y-13027967D01*
X19030337Y-13062500D01*
X19056718Y-13066678D01*
X19140000Y-13079869D01*
X19234667Y-13064874D01*
X19249662Y-13062500D01*
X19284916Y-13044537D01*
X19348587Y-13012095D01*
X19427095Y-12933587D01*
X19448715Y-12891153D01*
X19477232Y-12866798D01*
X19492374Y-12864400D01*
X19606964Y-12864400D01*
X19641612Y-12878752D01*
X19675149Y-12912289D01*
X19689501Y-12946937D01*
X19689501Y-13308197D01*
X19703164Y-13376887D01*
X19719641Y-13401546D01*
X19755215Y-13454786D01*
X19818635Y-13497162D01*
X19833113Y-13506836D01*
X19901803Y-13520500D01*
X19901805Y-13520500D01*
X20218199Y-13520500D01*
X20264699Y-13511250D01*
X20286889Y-13506836D01*
X20364787Y-13454786D01*
X20416837Y-13376888D01*
X20426238Y-13329628D01*
X20430501Y-13308197D01*
X20430501Y-12891802D01*
X20416837Y-12823112D01*
X20404244Y-12804265D01*
X20364787Y-12745214D01*
X20304797Y-12705130D01*
X20286888Y-12693163D01*
X20218199Y-12679500D01*
X20218197Y-12679500D01*
X19901805Y-12679500D01*
X19901804Y-12679500D01*
X19873137Y-12685201D01*
X19836355Y-12677883D01*
X19828932Y-12671790D01*
X19767165Y-12610023D01*
X19767164Y-12610023D01*
X19757160Y-12600019D01*
X19757159Y-12600018D01*
X19745033Y-12596768D01*
X19733220Y-12591875D01*
X19722352Y-12585600D01*
X19703353Y-12585600D01*
X19703351Y-12585600D01*
X19492374Y-12585600D01*
X19457726Y-12571248D01*
X19448716Y-12558848D01*
X19427095Y-12516413D01*
X19348587Y-12437905D01*
X19345680Y-12436424D01*
X19249662Y-12387499D01*
X19140000Y-12370131D01*
X19030337Y-12387499D01*
X18931412Y-12437905D01*
X18852905Y-12516412D01*
X18802499Y-12615337D01*
X18785131Y-12725000D01*
X18169400Y-12725000D01*
X18169400Y-11913197D01*
X18829500Y-11913197D01*
X18843163Y-11981887D01*
X18843164Y-11981888D01*
X18895214Y-12059786D01*
X18958532Y-12102094D01*
X18973112Y-12111836D01*
X19041802Y-12125500D01*
X19041804Y-12125500D01*
X19332352Y-12125500D01*
X19367000Y-12139852D01*
X19612430Y-12385282D01*
X19621928Y-12398666D01*
X19623113Y-12401126D01*
X19646447Y-12419735D01*
X19650544Y-12423396D01*
X19656164Y-12429016D01*
X19657369Y-12429773D01*
X19662897Y-12433247D01*
X19667375Y-12436424D01*
X19690709Y-12455032D01*
X19693366Y-12455638D01*
X19708531Y-12461921D01*
X19710835Y-12463369D01*
X19716255Y-12463979D01*
X19740492Y-12466710D01*
X19745903Y-12467630D01*
X19753658Y-12469400D01*
X19753659Y-12469400D01*
X19761612Y-12469400D01*
X19767097Y-12469707D01*
X19796751Y-12473049D01*
X19799321Y-12472149D01*
X19815504Y-12469400D01*
X20894494Y-12469400D01*
X20910676Y-12472149D01*
X20911423Y-12472410D01*
X20913249Y-12473049D01*
X20942902Y-12469707D01*
X20948388Y-12469400D01*
X20956339Y-12469400D01*
X20956341Y-12469400D01*
X20964101Y-12467628D01*
X20969505Y-12466710D01*
X20999164Y-12463369D01*
X21001464Y-12461923D01*
X21016637Y-12455637D01*
X21019291Y-12455032D01*
X21042631Y-12436417D01*
X21047099Y-12433248D01*
X21053836Y-12429016D01*
X21057062Y-12425788D01*
X21059461Y-12423391D01*
X21063551Y-12419735D01*
X21086887Y-12401126D01*
X21088068Y-12398672D01*
X21097565Y-12385285D01*
X21575285Y-11907565D01*
X21588672Y-11898068D01*
X21591126Y-11896887D01*
X21609736Y-11873549D01*
X21613391Y-11869461D01*
X21615788Y-11867062D01*
X21619016Y-11863836D01*
X21623248Y-11857099D01*
X21626417Y-11852631D01*
X21645032Y-11829291D01*
X21645637Y-11826637D01*
X21651923Y-11811465D01*
X21651981Y-11811371D01*
X21653369Y-11809164D01*
X21656710Y-11779505D01*
X21657628Y-11774101D01*
X21659400Y-11766341D01*
X21659400Y-11758387D01*
X21659708Y-11752901D01*
X21663049Y-11723249D01*
X21662149Y-11720676D01*
X21659400Y-11704494D01*
X21659400Y-10653747D01*
X21673751Y-10619100D01*
X22483250Y-9809600D01*
X22517898Y-9795249D01*
X22690398Y-9795249D01*
X22719713Y-9789419D01*
X22737137Y-9777777D01*
X22752957Y-9767207D01*
X22775169Y-9733963D01*
X22781000Y-9704649D01*
X22780999Y-9306029D01*
X22795350Y-9271383D01*
X23398005Y-8668727D01*
X23401132Y-8665861D01*
X23434006Y-8638278D01*
X23455456Y-8601124D01*
X23457746Y-8597531D01*
X23459518Y-8595000D01*
X23482346Y-8562400D01*
X23484600Y-8553984D01*
X23489493Y-8542170D01*
X23493852Y-8534622D01*
X23501301Y-8492372D01*
X23502226Y-8488201D01*
X23502994Y-8485337D01*
X23513324Y-8446787D01*
X23509586Y-8404058D01*
X23509400Y-8399788D01*
X23509400Y-7026960D01*
X23509586Y-7022690D01*
X23512296Y-6991709D01*
X23513324Y-6979963D01*
X23513323Y-6979962D01*
X23513324Y-6979961D01*
X23502226Y-6938546D01*
X23501300Y-6934372D01*
X23499846Y-6926126D01*
X23493852Y-6892128D01*
X23489496Y-6884583D01*
X23484600Y-6872763D01*
X23482346Y-6864350D01*
X23462336Y-6835772D01*
X23457736Y-6829203D01*
X23455443Y-6825602D01*
X23452262Y-6820093D01*
X23434006Y-6788472D01*
X23401151Y-6760903D01*
X23398000Y-6758015D01*
X22775104Y-6135119D01*
X22772216Y-6131968D01*
X22757893Y-6114899D01*
X22744649Y-6099115D01*
X22744648Y-6099114D01*
X22741674Y-6097397D01*
X22739628Y-6096216D01*
X22718858Y-6072531D01*
X22714934Y-6063058D01*
X22713784Y-6060280D01*
X22713783Y-6060279D01*
X22713783Y-6060278D01*
X22617530Y-5934838D01*
X22504178Y-5847861D01*
X22492089Y-5838585D01*
X22346010Y-5778077D01*
X22335566Y-5776702D01*
X22303088Y-5757950D01*
X22293381Y-5721725D01*
X22312133Y-5689247D01*
X22335566Y-5679540D01*
X22335856Y-5679501D01*
X22346010Y-5678165D01*
X22492089Y-5617657D01*
X22617530Y-5521403D01*
X22713784Y-5395962D01*
X22774292Y-5249883D01*
X22794930Y-5093121D01*
X22774292Y-4936359D01*
X22713784Y-4790280D01*
X22662284Y-4723164D01*
X22617530Y-4664838D01*
X22514783Y-4585999D01*
X22492089Y-4568585D01*
X22346010Y-4508077D01*
X22335566Y-4506702D01*
X22303088Y-4487950D01*
X22293381Y-4451725D01*
X22312133Y-4419247D01*
X22335566Y-4409540D01*
X22335856Y-4409501D01*
X22346010Y-4408165D01*
X22492089Y-4347657D01*
X22617530Y-4251403D01*
X22713784Y-4125962D01*
X22774292Y-3979883D01*
X22794930Y-3823121D01*
X22774292Y-3666359D01*
X22713784Y-3520280D01*
X22674245Y-3468752D01*
X22617530Y-3394838D01*
X22492090Y-3298586D01*
X22492089Y-3298585D01*
X22346010Y-3238077D01*
X22335566Y-3236702D01*
X22303088Y-3217950D01*
X22293381Y-3181725D01*
X22312133Y-3149247D01*
X22335566Y-3139540D01*
X22335856Y-3139501D01*
X22346010Y-3138165D01*
X22492089Y-3077657D01*
X22617530Y-2981403D01*
X22713784Y-2855962D01*
X22774292Y-2709883D01*
X22794930Y-2553121D01*
X22774292Y-2396359D01*
X22713784Y-2250280D01*
X22673231Y-2197430D01*
X22617530Y-2124838D01*
X22492090Y-2028586D01*
X22492089Y-2028585D01*
X22346010Y-1968077D01*
X22335566Y-1966702D01*
X22303088Y-1947950D01*
X22293381Y-1911725D01*
X22312133Y-1879247D01*
X22335566Y-1869540D01*
X22335856Y-1869501D01*
X22346010Y-1868165D01*
X22492089Y-1807657D01*
X22617530Y-1711403D01*
X22713784Y-1585962D01*
X22774292Y-1439883D01*
X22794930Y-1283121D01*
X22774292Y-1126359D01*
X22713784Y-980280D01*
X22650726Y-898101D01*
X22617530Y-854838D01*
X22492090Y-758586D01*
X22492089Y-758585D01*
X22346010Y-698077D01*
X22189248Y-677439D01*
X22032485Y-698077D01*
X21886405Y-758586D01*
X21760965Y-854838D01*
X21664713Y-980278D01*
X21664712Y-980279D01*
X21664712Y-980280D01*
X21604204Y-1126359D01*
X21583566Y-1283121D01*
X21604204Y-1439883D01*
X21664712Y-1585962D01*
X21664713Y-1585963D01*
X21760965Y-1711403D01*
X21839049Y-1771318D01*
X21886407Y-1807657D01*
X21994328Y-1852359D01*
X22032485Y-1868165D01*
X22042929Y-1869540D01*
X22075407Y-1888292D01*
X22085114Y-1924517D01*
X22066362Y-1956995D01*
X22042929Y-1966702D01*
X22032485Y-1968076D01*
X21886405Y-2028586D01*
X21760965Y-2124838D01*
X21664713Y-2250278D01*
X21630252Y-2333473D01*
X21603733Y-2359991D01*
X21584982Y-2363721D01*
X21367387Y-2363721D01*
X21351203Y-2360971D01*
X21348631Y-2360071D01*
X21318972Y-2363413D01*
X21313486Y-2363721D01*
X21305537Y-2363721D01*
X21297783Y-2365490D01*
X21292373Y-2366409D01*
X21262715Y-2369751D01*
X21260405Y-2371203D01*
X21245247Y-2377481D01*
X21242588Y-2378087D01*
X21219250Y-2396698D01*
X21214774Y-2399874D01*
X21208044Y-2404103D01*
X21202414Y-2409732D01*
X21198324Y-2413386D01*
X21174991Y-2431994D01*
X21173807Y-2434454D01*
X21164310Y-2447836D01*
X21058048Y-2554099D01*
X21023400Y-2568451D01*
X20988752Y-2554099D01*
X20974400Y-2519451D01*
X20974400Y-2400504D01*
X20977150Y-2384319D01*
X20978049Y-2381751D01*
X20974708Y-2352097D01*
X20974400Y-2346611D01*
X20974400Y-2338657D01*
X20972630Y-2330903D01*
X20971710Y-2325492D01*
X20968369Y-2295836D01*
X20968369Y-2295835D01*
X20966921Y-2293531D01*
X20960638Y-2278366D01*
X20960032Y-2275709D01*
X20941424Y-2252375D01*
X20938247Y-2247897D01*
X20934015Y-2241163D01*
X20928396Y-2235544D01*
X20924735Y-2231447D01*
X20906126Y-2208113D01*
X20903666Y-2206928D01*
X20890282Y-2197430D01*
X20709851Y-2016999D01*
X20695499Y-1982351D01*
X20695499Y-898102D01*
X20689669Y-868786D01*
X20667457Y-835543D01*
X20667456Y-835542D01*
X20634213Y-813331D01*
X20634212Y-813330D01*
X20634211Y-813330D01*
X20604900Y-807500D01*
X19585102Y-807500D01*
X19555786Y-813330D01*
X19522543Y-835542D01*
X19500330Y-868788D01*
X19494500Y-898099D01*
X19494500Y-2441897D01*
X19500330Y-2471213D01*
X19522542Y-2504456D01*
X19522543Y-2504457D01*
X19555787Y-2526669D01*
X19585101Y-2532500D01*
X20546600Y-2532499D01*
X20581248Y-2546851D01*
X20595600Y-2581499D01*
X20595600Y-2680548D01*
X20581248Y-2715196D01*
X20556160Y-2728606D01*
X20508112Y-2738163D01*
X20430214Y-2790214D01*
X20378163Y-2868112D01*
X20364500Y-2936802D01*
X20364500Y-3253197D01*
X20378163Y-3321887D01*
X20378164Y-3321888D01*
X20430214Y-3399786D01*
X20490445Y-3440031D01*
X20508112Y-3451836D01*
X20576802Y-3465500D01*
X20576804Y-3465500D01*
X20993198Y-3465500D01*
X21038990Y-3456390D01*
X21061888Y-3451836D01*
X21139786Y-3399786D01*
X21191836Y-3321888D01*
X21205500Y-3253196D01*
X21205500Y-2962648D01*
X21219852Y-2928000D01*
X21390979Y-2756873D01*
X21425627Y-2742521D01*
X21584982Y-2742521D01*
X21619630Y-2756873D01*
X21630252Y-2772769D01*
X21664712Y-2855962D01*
X21664713Y-2855963D01*
X21760965Y-2981403D01*
X21839049Y-3041318D01*
X21886407Y-3077657D01*
X21982215Y-3117342D01*
X22032485Y-3138165D01*
X22042929Y-3139540D01*
X22075407Y-3158292D01*
X22085114Y-3194517D01*
X22066362Y-3226995D01*
X22042929Y-3236702D01*
X22032485Y-3238076D01*
X21886405Y-3298586D01*
X21760965Y-3394838D01*
X21664713Y-3520278D01*
X21664712Y-3520279D01*
X21664712Y-3520280D01*
X21662923Y-3524599D01*
X21604204Y-3666358D01*
X21588851Y-3782981D01*
X21583566Y-3823121D01*
X21604204Y-3979883D01*
X21664712Y-4125962D01*
X21664713Y-4125963D01*
X21760965Y-4251403D01*
X21839049Y-4311318D01*
X21886407Y-4347657D01*
X21994328Y-4392359D01*
X22032485Y-4408165D01*
X22042929Y-4409540D01*
X22075407Y-4428292D01*
X22085114Y-4464517D01*
X22066362Y-4496995D01*
X22042929Y-4506702D01*
X22032485Y-4508076D01*
X21886405Y-4568586D01*
X21760965Y-4664838D01*
X21664713Y-4790278D01*
X21664712Y-4790279D01*
X21664712Y-4790280D01*
X21656664Y-4809710D01*
X21604204Y-4936358D01*
X21595100Y-5005508D01*
X21583566Y-5093121D01*
X21604204Y-5249883D01*
X21664712Y-5395962D01*
X21675523Y-5410051D01*
X21760965Y-5521403D01*
X21832744Y-5576480D01*
X21886407Y-5617657D01*
X21975692Y-5654640D01*
X22032485Y-5678165D01*
X22042929Y-5679540D01*
X22075407Y-5698292D01*
X22085114Y-5734517D01*
X22066362Y-5766995D01*
X22042929Y-5776702D01*
X22032485Y-5778076D01*
X21912811Y-5827648D01*
X21886869Y-5838394D01*
X21886405Y-5838586D01*
X21760965Y-5934838D01*
X21664713Y-6060278D01*
X21664712Y-6060279D01*
X21664712Y-6060280D01*
X21655959Y-6081412D01*
X21604204Y-6206358D01*
X21593762Y-6285676D01*
X21583566Y-6363121D01*
X21604204Y-6519883D01*
X21664712Y-6665962D01*
X21675498Y-6680018D01*
X21760965Y-6791403D01*
X21810233Y-6829207D01*
X21886407Y-6887657D01*
X22032486Y-6948165D01*
X22189248Y-6968803D01*
X22346010Y-6948165D01*
X22492089Y-6887657D01*
X22500763Y-6881000D01*
X22536987Y-6871293D01*
X22565241Y-6885226D01*
X22816248Y-7136233D01*
X22830600Y-7170881D01*
X22830600Y-8255868D01*
X22816248Y-8290516D01*
X22571866Y-8534898D01*
X22537218Y-8549250D01*
X22138602Y-8549250D01*
X22109286Y-8555080D01*
X22076043Y-8577292D01*
X22053830Y-8610538D01*
X22048000Y-8639849D01*
X22048000Y-9688850D01*
X22033648Y-9723498D01*
X21364715Y-10392431D01*
X21351333Y-10401928D01*
X21348873Y-10403112D01*
X21330265Y-10426445D01*
X21326611Y-10430535D01*
X21320984Y-10436163D01*
X21316750Y-10442901D01*
X21313576Y-10447373D01*
X21306074Y-10456782D01*
X21294966Y-10470711D01*
X21294360Y-10473368D01*
X21288083Y-10488525D01*
X21286631Y-10490835D01*
X21283288Y-10520493D01*
X21282370Y-10525897D01*
X21280600Y-10533658D01*
X21280600Y-10541611D01*
X21280292Y-10547097D01*
X21277082Y-10575592D01*
X21276951Y-10576751D01*
X21277593Y-10578587D01*
X21277850Y-10579319D01*
X21280600Y-10595504D01*
X21280599Y-11646252D01*
X21266247Y-11680900D01*
X20964647Y-11982500D01*
X20929999Y-11996852D01*
X20895351Y-11982500D01*
X20880999Y-11947854D01*
X20880999Y-10935852D01*
X20879630Y-10928967D01*
X20875169Y-10906536D01*
X20852957Y-10873293D01*
X20834407Y-10860899D01*
X20819713Y-10851081D01*
X20819712Y-10851080D01*
X20819711Y-10851080D01*
X20790400Y-10845250D01*
X20238602Y-10845250D01*
X20209286Y-10851080D01*
X20176043Y-10873292D01*
X20153830Y-10906538D01*
X20148000Y-10935849D01*
X20148000Y-12000648D01*
X20154244Y-12032043D01*
X20146925Y-12068825D01*
X20115742Y-12089659D01*
X20106185Y-12090600D01*
X19873748Y-12090600D01*
X19839100Y-12076248D01*
X19684852Y-11922000D01*
X19670500Y-11887352D01*
X19670500Y-11596802D01*
X19656836Y-11528112D01*
X19639428Y-11502059D01*
X19604786Y-11450214D01*
X19529485Y-11399899D01*
X19526887Y-11398163D01*
X19458198Y-11384500D01*
X19458196Y-11384500D01*
X19041804Y-11384500D01*
X19041802Y-11384500D01*
X18973112Y-11398163D01*
X18895214Y-11450214D01*
X18843163Y-11528112D01*
X18829500Y-11596802D01*
X18829500Y-11913197D01*
X18169400Y-11913197D01*
X18169400Y-10893197D01*
X18829500Y-10893197D01*
X18843163Y-10961887D01*
X18843164Y-10961888D01*
X18895214Y-11039786D01*
X18957913Y-11081680D01*
X18973112Y-11091836D01*
X19041802Y-11105500D01*
X19041804Y-11105500D01*
X19458198Y-11105500D01*
X19505130Y-11096164D01*
X19526888Y-11091836D01*
X19604786Y-11039786D01*
X19656836Y-10961888D01*
X19667533Y-10908112D01*
X19670500Y-10893197D01*
X19670500Y-10602647D01*
X19684851Y-10568000D01*
X20443250Y-9809600D01*
X20477898Y-9795249D01*
X20790398Y-9795249D01*
X20819713Y-9789419D01*
X20837137Y-9777777D01*
X20852957Y-9767207D01*
X20875169Y-9733963D01*
X20881000Y-9704649D01*
X20880999Y-8639852D01*
X20877375Y-8621631D01*
X20875169Y-8610536D01*
X20852957Y-8577293D01*
X20831999Y-8563290D01*
X20819713Y-8555081D01*
X20819712Y-8555080D01*
X20819711Y-8555080D01*
X20790400Y-8549250D01*
X20238602Y-8549250D01*
X20209286Y-8555080D01*
X20176043Y-8577292D01*
X20153830Y-8610538D01*
X20148000Y-8639849D01*
X20148000Y-9548851D01*
X20133648Y-9583499D01*
X19367000Y-10350148D01*
X19332352Y-10364500D01*
X19041802Y-10364500D01*
X18973112Y-10378163D01*
X18895214Y-10430214D01*
X18843163Y-10508112D01*
X18829500Y-10576802D01*
X18829500Y-10893197D01*
X18169400Y-10893197D01*
X18169400Y-10480622D01*
X18169399Y-10480614D01*
X18169399Y-10467648D01*
X18169398Y-10467646D01*
X18163125Y-10456782D01*
X18158230Y-10444965D01*
X18154982Y-10432842D01*
X18154981Y-10432841D01*
X18154981Y-10432840D01*
X18141551Y-10419409D01*
X18141546Y-10419405D01*
X17166063Y-9443922D01*
X17151711Y-9409274D01*
X17166063Y-9374626D01*
X17200711Y-9360274D01*
X17208376Y-9360877D01*
X17312500Y-9377369D01*
X17362961Y-9369376D01*
X17399426Y-9378131D01*
X17405273Y-9383125D01*
X17822430Y-9800282D01*
X17831928Y-9813666D01*
X17833113Y-9816126D01*
X17856447Y-9834735D01*
X17860544Y-9838396D01*
X17866165Y-9844017D01*
X17872903Y-9848251D01*
X17877377Y-9851426D01*
X17895387Y-9865788D01*
X17900709Y-9870032D01*
X17903362Y-9870637D01*
X17918532Y-9876921D01*
X17930308Y-9884321D01*
X17929975Y-9884849D01*
X17950406Y-9896138D01*
X17960158Y-9917135D01*
X17968453Y-9958837D01*
X17968453Y-9958838D01*
X17968454Y-9958839D01*
X18021609Y-10038391D01*
X18101161Y-10091546D01*
X18116665Y-10094630D01*
X18171309Y-10105500D01*
X18171312Y-10105500D01*
X18498691Y-10105500D01*
X18540778Y-10097127D01*
X18568839Y-10091546D01*
X18648391Y-10038391D01*
X18701546Y-9958839D01*
X18709172Y-9920499D01*
X18715500Y-9888690D01*
X18715500Y-9501309D01*
X18704065Y-9443826D01*
X18701546Y-9431161D01*
X18648391Y-9351609D01*
X18568839Y-9298454D01*
X18568838Y-9298453D01*
X18568837Y-9298453D01*
X18498691Y-9284500D01*
X18498688Y-9284500D01*
X18171312Y-9284500D01*
X18171309Y-9284500D01*
X18101162Y-9298453D01*
X18021608Y-9351609D01*
X18009858Y-9369194D01*
X17978674Y-9390028D01*
X17941892Y-9382710D01*
X17934469Y-9376617D01*
X17673125Y-9115273D01*
X17658773Y-9080625D01*
X17659375Y-9072969D01*
X17667369Y-9022500D01*
X17650592Y-8916578D01*
X17650000Y-8912837D01*
X17610020Y-8834373D01*
X17599595Y-8813913D01*
X17521087Y-8735405D01*
X17422162Y-8684999D01*
X17338803Y-8671797D01*
X17306826Y-8652201D01*
X17298071Y-8615735D01*
X17317667Y-8583758D01*
X17346468Y-8574400D01*
X17905500Y-8574400D01*
X17940148Y-8588752D01*
X17954500Y-8623400D01*
X17954500Y-8823690D01*
X17968453Y-8893837D01*
X17968453Y-8893838D01*
X17968454Y-8893839D01*
X18021609Y-8973391D01*
X18101161Y-9026546D01*
X18115509Y-9029400D01*
X18171309Y-9040500D01*
X18171312Y-9040500D01*
X18498691Y-9040500D01*
X18540778Y-9032127D01*
X18568839Y-9026546D01*
X18648391Y-8973391D01*
X18701546Y-8893839D01*
X18711000Y-8846312D01*
X18715500Y-8823690D01*
X18715500Y-8436309D01*
X18705034Y-8383698D01*
X18701546Y-8366161D01*
X18648391Y-8286609D01*
X18568839Y-8233454D01*
X18568838Y-8233453D01*
X18568837Y-8233453D01*
X18498691Y-8219500D01*
X18498688Y-8219500D01*
X18490560Y-8219500D01*
X18455912Y-8205148D01*
X18441560Y-8170500D01*
X18455912Y-8135852D01*
X18977412Y-7614351D01*
X19012060Y-7599999D01*
X19014898Y-7599999D01*
X19044213Y-7594169D01*
X19085561Y-7566542D01*
X19086785Y-7568374D01*
X19105426Y-7555911D01*
X19142210Y-7563217D01*
X19147746Y-7568751D01*
X19152541Y-7571955D01*
X19152543Y-7571957D01*
X19185787Y-7594169D01*
X19215101Y-7600000D01*
X19514898Y-7599999D01*
X19544213Y-7594169D01*
X19577457Y-7571957D01*
X19599669Y-7538713D01*
X19605500Y-7509399D01*
X19605499Y-6889602D01*
X19604501Y-6884583D01*
X19599669Y-6860286D01*
X19577455Y-6827040D01*
X19576175Y-6826185D01*
X19555341Y-6795002D01*
X19554400Y-6785445D01*
X19554400Y-6693747D01*
X19568751Y-6659100D01*
X19573938Y-6653913D01*
X19608585Y-6639562D01*
X19643231Y-6653913D01*
X19648417Y-6659099D01*
X19651413Y-6662095D01*
X19750337Y-6712500D01*
X19780325Y-6717249D01*
X19860000Y-6729869D01*
X19910461Y-6721876D01*
X19946926Y-6730631D01*
X19952773Y-6735625D01*
X20360148Y-7143000D01*
X20374500Y-7177648D01*
X20374500Y-7238690D01*
X20388453Y-7308837D01*
X20388453Y-7308838D01*
X20388454Y-7308839D01*
X20441609Y-7388391D01*
X20521161Y-7441546D01*
X20538698Y-7445034D01*
X20591309Y-7455500D01*
X20591312Y-7455500D01*
X20978691Y-7455500D01*
X21020778Y-7447127D01*
X21048839Y-7441546D01*
X21128391Y-7388391D01*
X21181546Y-7308839D01*
X21195500Y-7238688D01*
X21195500Y-6911312D01*
X21195500Y-6911309D01*
X21181546Y-6841162D01*
X21181546Y-6841161D01*
X21128391Y-6761609D01*
X21127334Y-6760903D01*
X21074977Y-6725918D01*
X21054141Y-6694735D01*
X21053200Y-6685176D01*
X21053200Y-6488832D01*
X21067552Y-6454184D01*
X21074977Y-6448090D01*
X21076468Y-6447094D01*
X21139786Y-6404786D01*
X21191836Y-6326888D01*
X21200225Y-6284713D01*
X21205500Y-6258197D01*
X21205500Y-5941802D01*
X21191836Y-5873112D01*
X21186942Y-5865788D01*
X21139786Y-5795214D01*
X21061888Y-5743164D01*
X21061887Y-5743163D01*
X20993198Y-5729500D01*
X20993196Y-5729500D01*
X20576804Y-5729500D01*
X20576802Y-5729500D01*
X20508112Y-5743163D01*
X20430214Y-5795214D01*
X20378163Y-5873112D01*
X20364500Y-5941802D01*
X20364500Y-6258197D01*
X20378163Y-6326887D01*
X20389933Y-6344502D01*
X20430214Y-6404786D01*
X20493532Y-6447094D01*
X20495023Y-6448090D01*
X20515858Y-6479273D01*
X20516800Y-6488832D01*
X20516800Y-6645652D01*
X20502448Y-6680300D01*
X20467800Y-6694652D01*
X20433152Y-6680300D01*
X20220625Y-6467773D01*
X20206273Y-6433125D01*
X20206875Y-6425469D01*
X20214869Y-6375000D01*
X20199733Y-6279436D01*
X20197500Y-6265337D01*
X20158282Y-6188369D01*
X20147095Y-6166413D01*
X20068587Y-6087905D01*
X20046180Y-6076488D01*
X19969662Y-6037499D01*
X19860000Y-6020131D01*
X19750337Y-6037499D01*
X19651412Y-6087905D01*
X19572903Y-6166414D01*
X19567219Y-6177570D01*
X19538701Y-6201925D01*
X19529048Y-6204015D01*
X19505837Y-6206630D01*
X19503527Y-6208082D01*
X19488370Y-6214360D01*
X19485709Y-6214968D01*
X19462379Y-6233571D01*
X19457908Y-6236744D01*
X19451164Y-6240981D01*
X19445530Y-6246615D01*
X19441440Y-6250269D01*
X19418112Y-6268873D01*
X19416929Y-6271331D01*
X19407432Y-6284713D01*
X19259715Y-6432431D01*
X19246333Y-6441928D01*
X19243873Y-6443112D01*
X19225266Y-6466444D01*
X19221612Y-6470534D01*
X19215984Y-6476163D01*
X19211750Y-6482901D01*
X19208576Y-6487373D01*
X19200975Y-6496905D01*
X19189966Y-6510711D01*
X19189360Y-6513368D01*
X19183083Y-6528525D01*
X19181631Y-6530835D01*
X19178288Y-6560493D01*
X19177370Y-6565897D01*
X19175600Y-6573658D01*
X19175600Y-6581611D01*
X19175292Y-6587097D01*
X19171951Y-6616751D01*
X19172831Y-6619267D01*
X19172850Y-6619319D01*
X19175600Y-6635504D01*
X19175600Y-6785445D01*
X19161248Y-6820093D01*
X19153825Y-6826185D01*
X19144441Y-6832456D01*
X19143216Y-6830624D01*
X19124556Y-6843091D01*
X19087774Y-6835772D01*
X19082244Y-6830242D01*
X19077457Y-6827043D01*
X19044213Y-6804831D01*
X19044212Y-6804830D01*
X19044211Y-6804830D01*
X19014900Y-6799000D01*
X18715102Y-6799000D01*
X18685786Y-6804830D01*
X18644439Y-6832458D01*
X18643214Y-6830625D01*
X18624556Y-6843091D01*
X18587774Y-6835772D01*
X18582244Y-6830242D01*
X18577457Y-6827043D01*
X18544213Y-6804831D01*
X18544212Y-6804830D01*
X18544211Y-6804830D01*
X18514900Y-6799000D01*
X18215102Y-6799000D01*
X18185786Y-6804830D01*
X18144439Y-6832458D01*
X18143214Y-6830625D01*
X18124556Y-6843091D01*
X18087774Y-6835772D01*
X18082244Y-6830242D01*
X18077457Y-6827043D01*
X18044213Y-6804831D01*
X18044212Y-6804830D01*
X18044211Y-6804830D01*
X18014900Y-6799000D01*
X17715102Y-6799000D01*
X17685786Y-6804830D01*
X17652543Y-6827042D01*
X17630330Y-6860288D01*
X17624500Y-6889599D01*
X17624500Y-7011100D01*
X17610148Y-7045748D01*
X17575500Y-7060100D01*
X17192537Y-7060100D01*
X17157889Y-7045748D01*
X16802164Y-6690023D01*
X16802163Y-6690023D01*
X16792159Y-6680019D01*
X16792158Y-6680018D01*
X16780032Y-6676768D01*
X16768219Y-6671875D01*
X16757351Y-6665600D01*
X16738352Y-6665600D01*
X16738350Y-6665600D01*
X16115736Y-6665600D01*
X16081088Y-6651248D01*
X16074996Y-6643826D01*
X16073546Y-6641656D01*
X16067457Y-6632543D01*
X16067454Y-6632541D01*
X16067244Y-6632226D01*
X16059925Y-6595444D01*
X16067244Y-6577774D01*
X16067454Y-6577458D01*
X16067457Y-6577457D01*
X16074995Y-6566174D01*
X16106180Y-6545341D01*
X16115736Y-6544400D01*
X16339378Y-6544400D01*
X16339386Y-6544399D01*
X16352352Y-6544399D01*
X16363215Y-6538126D01*
X16375031Y-6533230D01*
X16387158Y-6529982D01*
X16394973Y-6522167D01*
X16394976Y-6522165D01*
X16966577Y-5950564D01*
X17536546Y-5380595D01*
X17536546Y-5380593D01*
X17540578Y-5376562D01*
X17540579Y-5376559D01*
X17549982Y-5367158D01*
X17553230Y-5355034D01*
X17558127Y-5343214D01*
X17564399Y-5332352D01*
X17564399Y-5319059D01*
X17564400Y-5319050D01*
X17564400Y-3793400D01*
X17578752Y-3758752D01*
X17613400Y-3744400D01*
X17991963Y-3744400D01*
X18026611Y-3758752D01*
X18110148Y-3842289D01*
X18124500Y-3876937D01*
X18124500Y-4495397D01*
X18130330Y-4524713D01*
X18146703Y-4549217D01*
X18152543Y-4557957D01*
X18185787Y-4580169D01*
X18215101Y-4586000D01*
X18514898Y-4585999D01*
X18544213Y-4580169D01*
X18577457Y-4557957D01*
X18577457Y-4557956D01*
X18585561Y-4552542D01*
X18586785Y-4554374D01*
X18605426Y-4541911D01*
X18642210Y-4549217D01*
X18647746Y-4554751D01*
X18652541Y-4557955D01*
X18652543Y-4557957D01*
X18685787Y-4580169D01*
X18715101Y-4586000D01*
X19014898Y-4585999D01*
X19044213Y-4580169D01*
X19077457Y-4557957D01*
X19077457Y-4557956D01*
X19085561Y-4552542D01*
X19086785Y-4554374D01*
X19105426Y-4541911D01*
X19142210Y-4549217D01*
X19147746Y-4554751D01*
X19152541Y-4557955D01*
X19152543Y-4557957D01*
X19185787Y-4580169D01*
X19215101Y-4586000D01*
X19514898Y-4585999D01*
X19544213Y-4580169D01*
X19577457Y-4557957D01*
X19599669Y-4524713D01*
X19605500Y-4495399D01*
X19605500Y-4373899D01*
X19619852Y-4339252D01*
X19654500Y-4324900D01*
X20340622Y-4324900D01*
X20375270Y-4339252D01*
X20381363Y-4346676D01*
X20430214Y-4419786D01*
X20498779Y-4465600D01*
X20508112Y-4471836D01*
X20576802Y-4485500D01*
X20576804Y-4485500D01*
X20596600Y-4485500D01*
X20631248Y-4499852D01*
X20645600Y-4534500D01*
X20645600Y-4660500D01*
X20631248Y-4695148D01*
X20596600Y-4709500D01*
X20576802Y-4709500D01*
X20508112Y-4723163D01*
X20430214Y-4775214D01*
X20378163Y-4853112D01*
X20364500Y-4921802D01*
X20364500Y-5238197D01*
X20378163Y-5306887D01*
X20390757Y-5325735D01*
X20430214Y-5384786D01*
X20501686Y-5432542D01*
X20508112Y-5436836D01*
X20576802Y-5450500D01*
X20576804Y-5450500D01*
X20993198Y-5450500D01*
X21038990Y-5441390D01*
X21061888Y-5436836D01*
X21139786Y-5384786D01*
X21191836Y-5306888D01*
X21199189Y-5269925D01*
X21205500Y-5238197D01*
X21205500Y-4921802D01*
X21191836Y-4853112D01*
X21187193Y-4846163D01*
X21139786Y-4775214D01*
X21061888Y-4723164D01*
X21061887Y-4723163D01*
X20993198Y-4709500D01*
X20993196Y-4709500D01*
X20973400Y-4709500D01*
X20938752Y-4695148D01*
X20924400Y-4660500D01*
X20924400Y-4534500D01*
X20938752Y-4499852D01*
X20973400Y-4485500D01*
X20993198Y-4485500D01*
X21038990Y-4476390D01*
X21061888Y-4471836D01*
X21139786Y-4419786D01*
X21191836Y-4341888D01*
X21205500Y-4273196D01*
X21205500Y-3956804D01*
X21204297Y-3950758D01*
X21191836Y-3888112D01*
X21189332Y-3884364D01*
X21139786Y-3810214D01*
X21073987Y-3766248D01*
X21061887Y-3758163D01*
X20993198Y-3744500D01*
X20993196Y-3744500D01*
X20576804Y-3744500D01*
X20576802Y-3744500D01*
X20508112Y-3758163D01*
X20430214Y-3810214D01*
X20378163Y-3888112D01*
X20364500Y-3956802D01*
X20364500Y-3997100D01*
X20350148Y-4031748D01*
X20315500Y-4046100D01*
X19654499Y-4046100D01*
X19619851Y-4031748D01*
X19605499Y-3997100D01*
X19605499Y-3875602D01*
X19599669Y-3846286D01*
X19577457Y-3813043D01*
X19555821Y-3798587D01*
X19544213Y-3790831D01*
X19544212Y-3790830D01*
X19544211Y-3790830D01*
X19510165Y-3784058D01*
X19510545Y-3782144D01*
X19482790Y-3770648D01*
X19476551Y-3764409D01*
X19476546Y-3764405D01*
X18622164Y-2910023D01*
X18622163Y-2910023D01*
X18612159Y-2900019D01*
X18612158Y-2900018D01*
X18600032Y-2896768D01*
X18588219Y-2891875D01*
X18577351Y-2885600D01*
X18558352Y-2885600D01*
X18558350Y-2885600D01*
X17266650Y-2885600D01*
X17260622Y-2885600D01*
X17260614Y-2885601D01*
X17247647Y-2885601D01*
X17236776Y-2891876D01*
X17224967Y-2896768D01*
X17212842Y-2900017D01*
X17212839Y-2900019D01*
X17193787Y-2919069D01*
X17193781Y-2919077D01*
X16748454Y-3364405D01*
X16735020Y-3377839D01*
X16735016Y-3377846D01*
X16731768Y-3389966D01*
X16726876Y-3401777D01*
X16720600Y-3412647D01*
X16720600Y-4701962D01*
X16706248Y-4736610D01*
X16051326Y-5391531D01*
X16016678Y-5405883D01*
X16007123Y-5404942D01*
X16004899Y-5404500D01*
X16004896Y-5404500D01*
X14885102Y-5404500D01*
X14855786Y-5410330D01*
X14822543Y-5432542D01*
X14800330Y-5465788D01*
X14794500Y-5495099D01*
X14794500Y-5714897D01*
X14800330Y-5744213D01*
X14822757Y-5777777D01*
X14830073Y-5814560D01*
X14822758Y-5832222D01*
X14822543Y-5832542D01*
X14822543Y-5832543D01*
X14812308Y-5847861D01*
X14800330Y-5865788D01*
X14794500Y-5895099D01*
X14794500Y-6114897D01*
X14800330Y-6144213D01*
X14822757Y-6177777D01*
X14830073Y-6214560D01*
X14822758Y-6232222D01*
X14822543Y-6232542D01*
X14822543Y-6232543D01*
X14813619Y-6245900D01*
X14800330Y-6265788D01*
X14794500Y-6295099D01*
X14794500Y-6514897D01*
X14800330Y-6544213D01*
X14822757Y-6577777D01*
X14830073Y-6614560D01*
X14822758Y-6632222D01*
X14822543Y-6632542D01*
X14822543Y-6632543D01*
X14814446Y-6644662D01*
X14800330Y-6665788D01*
X14794500Y-6695099D01*
X14794500Y-6914897D01*
X14800330Y-6944213D01*
X14822757Y-6977777D01*
X14830073Y-7014560D01*
X14822758Y-7032222D01*
X14822543Y-7032542D01*
X14822543Y-7032543D01*
X14815004Y-7043826D01*
X14800330Y-7065788D01*
X14794500Y-7095099D01*
X14794500Y-7314897D01*
X14800330Y-7344213D01*
X14822757Y-7377777D01*
X14830073Y-7414560D01*
X14822758Y-7432222D01*
X14822543Y-7432542D01*
X14822543Y-7432543D01*
X14816528Y-7441546D01*
X14800330Y-7465788D01*
X14794500Y-7495099D01*
X14794500Y-7714897D01*
X14802232Y-7753774D01*
X14800049Y-7754207D01*
X14804415Y-7776162D01*
X14783578Y-7807344D01*
X14756357Y-7815600D01*
X14735506Y-7815600D01*
X14719324Y-7812851D01*
X14716751Y-7811951D01*
X14693604Y-7814559D01*
X14687098Y-7815292D01*
X14681612Y-7815600D01*
X14673659Y-7815600D01*
X14665897Y-7817370D01*
X14660493Y-7818288D01*
X14630835Y-7821631D01*
X14628525Y-7823083D01*
X14613368Y-7829360D01*
X14610711Y-7829966D01*
X14587377Y-7848574D01*
X14582901Y-7851750D01*
X14576163Y-7855984D01*
X14570535Y-7861611D01*
X14566445Y-7865265D01*
X14543112Y-7883873D01*
X14541928Y-7886333D01*
X14532431Y-7899715D01*
X14422773Y-8009373D01*
X14388125Y-8023725D01*
X14380461Y-8023122D01*
X14330000Y-8015130D01*
X14220337Y-8032499D01*
X14121412Y-8082905D01*
X14042905Y-8161412D01*
X13992499Y-8260337D01*
X13975131Y-8370000D01*
X13992499Y-8479662D01*
X14030928Y-8555081D01*
X14042905Y-8578587D01*
X14121413Y-8657095D01*
X14121414Y-8657095D01*
X14126248Y-8661929D01*
X14140600Y-8696577D01*
X14140600Y-9477294D01*
X14137851Y-9493476D01*
X14136951Y-9496048D01*
X14140292Y-9525701D01*
X14140600Y-9531187D01*
X14140600Y-9539140D01*
X14142368Y-9546889D01*
X14143288Y-9552302D01*
X14146631Y-9581964D01*
X14148081Y-9584271D01*
X14154361Y-9599432D01*
X14154968Y-9602091D01*
X14172308Y-9623835D01*
X14173572Y-9625420D01*
X14176750Y-9629900D01*
X14180982Y-9636635D01*
X14186602Y-9642255D01*
X14190263Y-9646351D01*
X14201881Y-9660918D01*
X14208874Y-9669687D01*
X14211331Y-9670870D01*
X14224716Y-9680368D01*
X14654630Y-10110282D01*
X14664128Y-10123666D01*
X14665313Y-10126126D01*
X14688647Y-10144735D01*
X14692746Y-10148398D01*
X14698361Y-10154014D01*
X14698363Y-10154015D01*
X14698364Y-10154016D01*
X14705096Y-10158245D01*
X14709573Y-10161422D01*
X14732907Y-10180031D01*
X14732908Y-10180031D01*
X14732909Y-10180032D01*
X14735562Y-10180637D01*
X14750732Y-10186921D01*
X14751905Y-10187657D01*
X14753037Y-10188369D01*
X14765164Y-10189735D01*
X14797989Y-10207875D01*
X14808372Y-10243911D01*
X14800424Y-10265647D01*
X14794919Y-10273887D01*
X14793394Y-10272868D01*
X14788789Y-10281391D01*
X14779997Y-10290170D01*
X14761981Y-10314202D01*
X14667875Y-10486252D01*
X14638657Y-10509763D01*
X14601372Y-10505727D01*
X14590238Y-10497386D01*
X14425625Y-10332773D01*
X14411273Y-10298125D01*
X14411875Y-10290469D01*
X14419869Y-10240000D01*
X14405207Y-10147427D01*
X14402500Y-10130337D01*
X14355196Y-10037499D01*
X14352095Y-10031413D01*
X14273587Y-9952905D01*
X14174662Y-9902499D01*
X14065000Y-9885131D01*
X13955337Y-9902499D01*
X13856412Y-9952905D01*
X13777905Y-10031412D01*
X13727499Y-10130337D01*
X13710131Y-10240000D01*
X13727499Y-10349662D01*
X13771575Y-10436163D01*
X13777905Y-10448587D01*
X13856413Y-10527095D01*
X13884971Y-10541646D01*
X13955337Y-10577500D01*
X13985325Y-10582249D01*
X14065000Y-10594869D01*
X14115461Y-10586876D01*
X14151926Y-10595631D01*
X14157773Y-10600625D01*
X14421123Y-10863975D01*
X14435475Y-10898623D01*
X14429465Y-10922137D01*
X14327515Y-11108530D01*
X14298297Y-11132041D01*
X14261011Y-11128006D01*
X14257309Y-11125762D01*
X14234213Y-11110331D01*
X14234212Y-11110330D01*
X14234211Y-11110330D01*
X14204900Y-11104500D01*
X13985102Y-11104500D01*
X13955784Y-11110331D01*
X13922221Y-11132757D01*
X13885439Y-11140073D01*
X13867777Y-11132757D01*
X13866705Y-11132041D01*
X13843069Y-11116248D01*
X13834212Y-11110330D01*
X13804900Y-11104500D01*
X13585102Y-11104500D01*
X13555784Y-11110331D01*
X13522221Y-11132757D01*
X13485439Y-11140073D01*
X13467777Y-11132757D01*
X13466705Y-11132041D01*
X13443069Y-11116248D01*
X13434212Y-11110330D01*
X13404900Y-11104500D01*
X13185102Y-11104500D01*
X13155784Y-11110331D01*
X13122221Y-11132757D01*
X13085439Y-11140073D01*
X13067777Y-11132757D01*
X13066705Y-11132041D01*
X13043069Y-11116248D01*
X13034212Y-11110330D01*
X13004900Y-11104500D01*
X12785100Y-11104500D01*
X12746966Y-11112084D01*
X12710185Y-11104765D01*
X12689351Y-11073581D01*
X12696670Y-11036800D01*
X12702757Y-11029382D01*
X13006183Y-10725956D01*
X13040830Y-10711605D01*
X13048495Y-10712208D01*
X13050339Y-10712500D01*
X13160000Y-10729869D01*
X13254667Y-10714874D01*
X13269662Y-10712500D01*
X13303807Y-10695102D01*
X13368587Y-10662095D01*
X13447095Y-10583587D01*
X13485551Y-10508112D01*
X13497500Y-10484662D01*
X13502801Y-10451194D01*
X13514869Y-10375000D01*
X13500063Y-10281520D01*
X13497500Y-10265337D01*
X13461177Y-10194050D01*
X13447095Y-10166413D01*
X13368587Y-10087905D01*
X13358774Y-10082905D01*
X13269662Y-10037499D01*
X13160000Y-10020131D01*
X13050337Y-10037499D01*
X12951412Y-10087905D01*
X12872905Y-10166412D01*
X12822499Y-10265337D01*
X12805131Y-10375000D01*
X12822791Y-10486502D01*
X12814036Y-10522969D01*
X12809042Y-10528815D01*
X12503048Y-10834809D01*
X12468400Y-10849161D01*
X12433752Y-10834809D01*
X12419400Y-10800161D01*
X12419400Y-10696578D01*
X12433752Y-10661930D01*
X12463460Y-10632222D01*
X12517095Y-10578587D01*
X12563941Y-10486646D01*
X12567500Y-10479662D01*
X12574389Y-10436164D01*
X12584869Y-10370000D01*
X12569769Y-10274662D01*
X12567500Y-10260337D01*
X12530092Y-10186921D01*
X12517095Y-10161413D01*
X12438587Y-10082905D01*
X12438586Y-10082905D01*
X12339662Y-10032499D01*
X12230000Y-10015131D01*
X12120337Y-10032499D01*
X12021412Y-10082905D01*
X11942905Y-10161412D01*
X11892499Y-10260337D01*
X11875131Y-10370000D01*
X11892499Y-10479662D01*
X11942905Y-10578587D01*
X12026248Y-10661930D01*
X12040600Y-10696578D01*
X12040600Y-10826251D01*
X12026248Y-10860899D01*
X12006872Y-10880275D01*
X11989715Y-10897432D01*
X11976333Y-10906928D01*
X11973873Y-10908112D01*
X11971708Y-10910828D01*
X11938883Y-10928967D01*
X11902847Y-10918583D01*
X11884708Y-10885758D01*
X11884400Y-10880275D01*
X11884400Y-10878660D01*
X11883175Y-10873293D01*
X11882627Y-10870897D01*
X11881708Y-10865481D01*
X11878369Y-10835837D01*
X11877657Y-10834705D01*
X11876921Y-10833532D01*
X11870637Y-10818362D01*
X11870032Y-10815709D01*
X11870031Y-10815708D01*
X11870031Y-10815707D01*
X11851422Y-10792373D01*
X11848245Y-10787896D01*
X11844016Y-10781164D01*
X11844015Y-10781163D01*
X11844014Y-10781161D01*
X11838398Y-10775546D01*
X11834735Y-10771447D01*
X11816126Y-10748113D01*
X11813666Y-10746928D01*
X11800282Y-10737430D01*
X11703482Y-10640630D01*
X11689130Y-10605982D01*
X11694471Y-10583736D01*
X11697649Y-10577500D01*
X11726695Y-10520493D01*
X11747500Y-10479662D01*
X11754389Y-10436164D01*
X11764869Y-10370000D01*
X11749769Y-10274662D01*
X11747500Y-10260337D01*
X11710092Y-10186921D01*
X11697095Y-10161413D01*
X11618587Y-10082905D01*
X11618586Y-10082905D01*
X11519662Y-10032499D01*
X11410000Y-10015131D01*
X11300337Y-10032499D01*
X11201412Y-10082905D01*
X11122905Y-10161412D01*
X11072499Y-10260337D01*
X11055131Y-10370000D01*
X11072499Y-10479662D01*
X11122329Y-10577457D01*
X11122905Y-10578587D01*
X11201413Y-10657095D01*
X11206059Y-10659462D01*
X11225306Y-10677056D01*
X11228082Y-10681475D01*
X11234361Y-10696632D01*
X11234968Y-10699291D01*
X11244788Y-10711605D01*
X11253572Y-10722620D01*
X11256750Y-10727100D01*
X11260982Y-10733835D01*
X11266602Y-10739455D01*
X11270263Y-10743551D01*
X11274362Y-10748690D01*
X11288874Y-10766887D01*
X11291331Y-10768070D01*
X11304716Y-10777568D01*
X11491248Y-10964100D01*
X11505600Y-10998748D01*
X11505600Y-11035276D01*
X11491248Y-11069924D01*
X11456600Y-11084276D01*
X11421952Y-11069924D01*
X11418291Y-11065828D01*
X11416125Y-11063112D01*
X11413666Y-11061928D01*
X11400282Y-11052430D01*
X10899050Y-10551198D01*
X10884698Y-10516550D01*
X10890039Y-10494303D01*
X10893331Y-10487842D01*
X10897500Y-10479661D01*
X10914869Y-10370000D01*
X10899769Y-10274662D01*
X10897500Y-10260337D01*
X10860092Y-10186921D01*
X10847095Y-10161413D01*
X10768587Y-10082905D01*
X10669662Y-10032499D01*
X10560000Y-10015131D01*
X10450337Y-10032499D01*
X10351412Y-10082905D01*
X10272905Y-10161412D01*
X10222499Y-10260337D01*
X10205131Y-10370000D01*
X10222499Y-10479662D01*
X10272329Y-10577457D01*
X10272905Y-10578587D01*
X10351413Y-10657095D01*
X10450339Y-10707500D01*
X10516967Y-10718052D01*
X10543949Y-10731801D01*
X10833000Y-11020852D01*
X10847352Y-11055500D01*
X10833000Y-11090148D01*
X10798355Y-11104500D01*
X10785103Y-11104500D01*
X10755784Y-11110331D01*
X10722221Y-11132757D01*
X10685439Y-11140073D01*
X10667777Y-11132757D01*
X10666705Y-11132041D01*
X10643069Y-11116248D01*
X10634212Y-11110330D01*
X10604900Y-11104500D01*
X10385102Y-11104500D01*
X10355784Y-11110331D01*
X10322221Y-11132757D01*
X10285439Y-11140073D01*
X10267777Y-11132757D01*
X10266705Y-11132041D01*
X10243069Y-11116248D01*
X10234212Y-11110330D01*
X10204900Y-11104500D01*
X9985102Y-11104500D01*
X9955784Y-11110331D01*
X9922221Y-11132757D01*
X9885439Y-11140073D01*
X9867777Y-11132757D01*
X9866705Y-11132041D01*
X9843069Y-11116248D01*
X9834212Y-11110330D01*
X9804900Y-11104500D01*
X9585102Y-11104500D01*
X9555784Y-11110331D01*
X9522221Y-11132757D01*
X9485439Y-11140073D01*
X9467777Y-11132757D01*
X9466705Y-11132041D01*
X9443069Y-11116248D01*
X9434212Y-11110330D01*
X9404901Y-11104500D01*
X9404899Y-11104500D01*
X9320936Y-11104500D01*
X9286288Y-11090148D01*
X9271936Y-11055500D01*
X9286288Y-11020852D01*
X9464006Y-10843134D01*
X9731546Y-10575595D01*
X9731546Y-10575593D01*
X9735578Y-10571562D01*
X9735579Y-10571559D01*
X9744982Y-10562158D01*
X9748230Y-10550034D01*
X9753127Y-10538214D01*
X9755757Y-10533659D01*
X9759399Y-10527352D01*
X9759399Y-10517374D01*
X9773751Y-10482726D01*
X9786147Y-10473718D01*
X9828587Y-10452095D01*
X9907095Y-10373587D01*
X9947085Y-10295102D01*
X9957500Y-10274662D01*
X9965732Y-10222688D01*
X9974869Y-10165000D01*
X9957500Y-10055339D01*
X9957500Y-10055337D01*
X9917353Y-9976546D01*
X9907095Y-9956413D01*
X9828587Y-9877905D01*
X9826656Y-9876921D01*
X9729662Y-9827499D01*
X9620000Y-9810131D01*
X9510337Y-9827499D01*
X9463381Y-9851426D01*
X9446044Y-9860259D01*
X9423800Y-9865600D01*
X9015736Y-9865600D01*
X8981088Y-9851248D01*
X8974995Y-9843824D01*
X8967243Y-9832223D01*
X8959925Y-9795441D01*
X8967242Y-9777776D01*
X8967453Y-9777459D01*
X8967457Y-9777457D01*
X8989669Y-9744213D01*
X8995500Y-9714899D01*
X8995499Y-9495102D01*
X8992499Y-9480018D01*
X8989669Y-9465786D01*
X8974996Y-9443826D01*
X8967457Y-9432543D01*
X8967456Y-9432542D01*
X8967242Y-9432222D01*
X8959926Y-9395440D01*
X8967242Y-9377776D01*
X8967453Y-9377459D01*
X8967457Y-9377457D01*
X8989669Y-9344213D01*
X8995500Y-9314899D01*
X8995499Y-9095102D01*
X8995171Y-9093452D01*
X8987768Y-9056226D01*
X8989950Y-9055792D01*
X8985585Y-9033838D01*
X9006422Y-9002656D01*
X9033643Y-8994400D01*
X9141252Y-8994400D01*
X9175900Y-9008752D01*
X9269373Y-9102225D01*
X9283725Y-9136873D01*
X9283122Y-9144537D01*
X9275130Y-9194998D01*
X9292499Y-9304662D01*
X9332479Y-9383125D01*
X9342905Y-9403587D01*
X9421413Y-9482095D01*
X9453554Y-9498472D01*
X9520337Y-9532500D01*
X9546718Y-9536678D01*
X9630000Y-9549869D01*
X9724667Y-9534874D01*
X9739662Y-9532500D01*
X9773053Y-9515486D01*
X9838587Y-9482095D01*
X9917095Y-9403587D01*
X9965595Y-9308400D01*
X9967500Y-9304662D01*
X9970693Y-9284500D01*
X9984869Y-9195000D01*
X9969445Y-9097619D01*
X9967500Y-9085337D01*
X9931677Y-9015032D01*
X9917095Y-8986413D01*
X9838587Y-8907905D01*
X9838586Y-8907905D01*
X9739662Y-8857499D01*
X9629998Y-8840130D01*
X9579537Y-8848122D01*
X9543071Y-8839366D01*
X9537225Y-8834373D01*
X9402568Y-8699716D01*
X9393070Y-8686331D01*
X9391887Y-8683874D01*
X9383118Y-8676881D01*
X9368551Y-8665263D01*
X9364455Y-8661602D01*
X9358835Y-8655982D01*
X9352100Y-8651750D01*
X9347620Y-8648572D01*
X9336684Y-8639851D01*
X9324291Y-8629968D01*
X9321632Y-8629361D01*
X9306473Y-8623081D01*
X9304164Y-8621631D01*
X9288895Y-8619910D01*
X9274502Y-8618288D01*
X9269093Y-8617368D01*
X9261341Y-8615600D01*
X9253388Y-8615600D01*
X9247902Y-8615292D01*
X9241405Y-8614560D01*
X9218249Y-8611951D01*
X9218248Y-8611951D01*
X9215676Y-8612851D01*
X9199494Y-8615600D01*
X9033642Y-8615600D01*
X8998994Y-8601248D01*
X8984642Y-8566600D01*
X8988489Y-8553914D01*
X8987768Y-8553771D01*
X8990077Y-8542162D01*
X8995500Y-8514899D01*
X8995499Y-8295102D01*
X8989669Y-8265787D01*
X8989669Y-8265786D01*
X8972527Y-8240131D01*
X8967457Y-8232543D01*
X8967456Y-8232542D01*
X8967242Y-8232222D01*
X8959926Y-8195440D01*
X8967242Y-8177776D01*
X8967453Y-8177459D01*
X8967457Y-8177457D01*
X8989669Y-8144213D01*
X8995500Y-8114899D01*
X8995499Y-7895102D01*
X8990755Y-7871248D01*
X8989669Y-7865786D01*
X8969777Y-7836016D01*
X8967457Y-7832543D01*
X8967456Y-7832542D01*
X8967242Y-7832222D01*
X8959926Y-7795440D01*
X8967242Y-7777776D01*
X8967453Y-7777459D01*
X8967457Y-7777457D01*
X8989669Y-7744213D01*
X8995500Y-7714899D01*
X8995499Y-7495102D01*
X8989669Y-7465787D01*
X8989669Y-7465786D01*
X8967457Y-7432543D01*
X8940542Y-7414560D01*
X8934213Y-7410331D01*
X8934212Y-7410330D01*
X8934211Y-7410330D01*
X8904900Y-7404500D01*
X7785102Y-7404500D01*
X7755786Y-7410330D01*
X7722542Y-7432543D01*
X7715006Y-7443823D01*
X7683823Y-7464658D01*
X7674264Y-7465600D01*
X4850622Y-7465600D01*
X4850614Y-7465601D01*
X4837647Y-7465601D01*
X4826776Y-7471876D01*
X4814967Y-7476768D01*
X4802842Y-7480017D01*
X4802839Y-7480019D01*
X4783787Y-7499069D01*
X4783782Y-7499077D01*
X4411611Y-7871248D01*
X4376963Y-7885600D01*
X2958037Y-7885600D01*
X2923389Y-7871248D01*
X2594851Y-7542709D01*
X2580499Y-7508061D01*
X2580499Y-6210102D01*
X2574669Y-6180786D01*
X2552457Y-6147543D01*
X2544909Y-6142500D01*
X2519213Y-6125331D01*
X2519212Y-6125330D01*
X2519211Y-6125330D01*
X2489901Y-6119500D01*
X2489899Y-6119500D01*
X2068400Y-6119500D01*
X2033752Y-6105148D01*
X2019400Y-6070500D01*
X2019400Y-5943037D01*
X2033752Y-5908389D01*
X2046362Y-5895779D01*
X2081010Y-5881427D01*
X2090570Y-5882369D01*
X2106310Y-5885500D01*
X2106312Y-5885500D01*
X2433691Y-5885500D01*
X2478255Y-5876635D01*
X2503839Y-5871546D01*
X2583391Y-5818391D01*
X2636546Y-5738839D01*
X2645199Y-5695337D01*
X2650500Y-5668690D01*
X2650500Y-5281309D01*
X2637290Y-5214900D01*
X2636546Y-5211161D01*
X2583391Y-5131609D01*
X2503839Y-5078454D01*
X2503838Y-5078453D01*
X2503837Y-5078453D01*
X2433691Y-5064500D01*
X2433688Y-5064500D01*
X2106312Y-5064500D01*
X2106309Y-5064500D01*
X2036162Y-5078453D01*
X1956609Y-5131609D01*
X1903453Y-5211162D01*
X1889500Y-5281309D01*
X1889500Y-5638063D01*
X1875148Y-5672711D01*
X1755020Y-5792839D01*
X1755016Y-5792846D01*
X1751768Y-5804966D01*
X1746876Y-5816777D01*
X1740600Y-5827647D01*
X1740600Y-6070500D01*
X1726248Y-6105148D01*
X1691600Y-6119500D01*
X1270102Y-6119500D01*
X1240786Y-6125330D01*
X1207543Y-6147542D01*
X1185330Y-6180788D01*
X1179500Y-6210099D01*
X1179500Y-7629897D01*
X30000Y-7629897D01*
X30000Y-3603197D01*
X849500Y-3603197D01*
X863163Y-3671887D01*
X863164Y-3671888D01*
X915214Y-3749786D01*
X988250Y-3798587D01*
X993112Y-3801836D01*
X1061802Y-3815500D01*
X1061804Y-3815500D01*
X1352352Y-3815500D01*
X1387000Y-3829852D01*
X1632430Y-4075282D01*
X1641928Y-4088666D01*
X1643113Y-4091126D01*
X1666447Y-4109735D01*
X1670544Y-4113396D01*
X1676164Y-4119016D01*
X1679408Y-4121054D01*
X1682897Y-4123247D01*
X1687375Y-4126424D01*
X1710709Y-4145032D01*
X1713366Y-4145638D01*
X1728531Y-4151921D01*
X1730835Y-4153369D01*
X1736255Y-4153979D01*
X1760492Y-4156710D01*
X1765903Y-4157630D01*
X1773658Y-4159400D01*
X1773659Y-4159400D01*
X1781612Y-4159400D01*
X1787097Y-4159707D01*
X1816751Y-4163049D01*
X1819321Y-4162149D01*
X1835504Y-4159400D01*
X2726252Y-4159400D01*
X2760900Y-4173752D01*
X3008197Y-4421050D01*
X3021946Y-4448032D01*
X3032500Y-4514662D01*
X3054560Y-4557957D01*
X3082905Y-4613587D01*
X3161413Y-4692095D01*
X3186482Y-4704868D01*
X3260337Y-4742500D01*
X3286718Y-4746678D01*
X3370000Y-4759869D01*
X3464667Y-4744874D01*
X3479662Y-4742500D01*
X3519386Y-4722259D01*
X3578587Y-4692095D01*
X3657095Y-4613587D01*
X3697392Y-4534500D01*
X3707500Y-4514662D01*
X3714283Y-4471836D01*
X3724869Y-4405000D01*
X3707500Y-4295339D01*
X3707500Y-4295337D01*
X3657094Y-4196412D01*
X3578587Y-4117905D01*
X3479662Y-4067499D01*
X3370000Y-4050131D01*
X3260336Y-4067500D01*
X3245692Y-4074961D01*
X3208305Y-4077902D01*
X3188801Y-4065949D01*
X3096304Y-3973452D01*
X2987568Y-3864715D01*
X2978070Y-3851330D01*
X2977800Y-3850771D01*
X2976887Y-3848874D01*
X2968630Y-3842289D01*
X2953552Y-3830264D01*
X2949453Y-3826601D01*
X2943834Y-3820981D01*
X2937100Y-3816750D01*
X2932620Y-3813572D01*
X2917903Y-3801836D01*
X2909291Y-3794968D01*
X2906632Y-3794361D01*
X2891473Y-3788081D01*
X2889164Y-3786631D01*
X2873895Y-3784910D01*
X2859502Y-3783288D01*
X2854093Y-3782368D01*
X2846341Y-3780600D01*
X2838388Y-3780600D01*
X2832902Y-3780292D01*
X2803249Y-3776951D01*
X2803248Y-3776951D01*
X2800676Y-3777851D01*
X2784494Y-3780600D01*
X1893748Y-3780600D01*
X1859100Y-3766248D01*
X1704852Y-3612000D01*
X1690500Y-3577352D01*
X1690500Y-3286802D01*
X1676836Y-3218112D01*
X1667040Y-3203452D01*
X1624786Y-3140214D01*
X1549298Y-3089774D01*
X1546887Y-3088163D01*
X1478198Y-3074500D01*
X1478196Y-3074500D01*
X1061804Y-3074500D01*
X1061802Y-3074500D01*
X993112Y-3088163D01*
X915214Y-3140214D01*
X863163Y-3218112D01*
X849500Y-3286802D01*
X849500Y-3603197D01*
X30000Y-3603197D01*
X30000Y-2454750D01*
X569500Y-2454750D01*
X581132Y-2513229D01*
X625447Y-2579552D01*
X658608Y-2601709D01*
X691769Y-2623867D01*
X706389Y-2626775D01*
X750249Y-2635500D01*
X750252Y-2635500D01*
X1507352Y-2635500D01*
X1542000Y-2649852D01*
X2262430Y-3370282D01*
X2271928Y-3383666D01*
X2273113Y-3386126D01*
X2296447Y-3404735D01*
X2300544Y-3408396D01*
X2306164Y-3414016D01*
X2309408Y-3416054D01*
X2312897Y-3418247D01*
X2317375Y-3421424D01*
X2319222Y-3422897D01*
X2340709Y-3440032D01*
X2343366Y-3440638D01*
X2358531Y-3446921D01*
X2360835Y-3448369D01*
X2362451Y-3448551D01*
X2390492Y-3451710D01*
X2395903Y-3452630D01*
X2403658Y-3454400D01*
X2403659Y-3454400D01*
X2411612Y-3454400D01*
X2417097Y-3454707D01*
X2446751Y-3458049D01*
X2448782Y-3457338D01*
X2449324Y-3457149D01*
X2465506Y-3454400D01*
X3311252Y-3454400D01*
X3345900Y-3468752D01*
X5042430Y-5165282D01*
X5051928Y-5178666D01*
X5053113Y-5181126D01*
X5076447Y-5199735D01*
X5080544Y-5203396D01*
X5086164Y-5209016D01*
X5089408Y-5211054D01*
X5092897Y-5213247D01*
X5097375Y-5216424D01*
X5120709Y-5235032D01*
X5123366Y-5235638D01*
X5138531Y-5241921D01*
X5140835Y-5243369D01*
X5146255Y-5243979D01*
X5170492Y-5246710D01*
X5175903Y-5247630D01*
X5183658Y-5249400D01*
X5183659Y-5249400D01*
X5191612Y-5249400D01*
X5197097Y-5249707D01*
X5226751Y-5253049D01*
X5229321Y-5252149D01*
X5245504Y-5249400D01*
X6016252Y-5249400D01*
X6050900Y-5263752D01*
X6501248Y-5714100D01*
X6515600Y-5748748D01*
X6515600Y-6269494D01*
X6512851Y-6285676D01*
X6511951Y-6288248D01*
X6515292Y-6317901D01*
X6515600Y-6323387D01*
X6515600Y-6331340D01*
X6517368Y-6339089D01*
X6518288Y-6344502D01*
X6521631Y-6374164D01*
X6523081Y-6376471D01*
X6529361Y-6391632D01*
X6529968Y-6394291D01*
X6541012Y-6408140D01*
X6548572Y-6417620D01*
X6551750Y-6422100D01*
X6555982Y-6428835D01*
X6561602Y-6434455D01*
X6565263Y-6438551D01*
X6572871Y-6448090D01*
X6583874Y-6461887D01*
X6586331Y-6463070D01*
X6599716Y-6472568D01*
X7037430Y-6910282D01*
X7046928Y-6923666D01*
X7048113Y-6926126D01*
X7071447Y-6944735D01*
X7075544Y-6948396D01*
X7081165Y-6954017D01*
X7087903Y-6958251D01*
X7092377Y-6961426D01*
X7115622Y-6979963D01*
X7115709Y-6980032D01*
X7118362Y-6980637D01*
X7133532Y-6986921D01*
X7134705Y-6987657D01*
X7135837Y-6988369D01*
X7165499Y-6991710D01*
X7170907Y-6992630D01*
X7174456Y-6993440D01*
X7178658Y-6994400D01*
X7178659Y-6994400D01*
X7186607Y-6994400D01*
X7192093Y-6994708D01*
X7221752Y-6998050D01*
X7224324Y-6997149D01*
X7240508Y-6994400D01*
X7733038Y-6994400D01*
X7746110Y-6998365D01*
X7746229Y-6997768D01*
X7755787Y-6999669D01*
X7785101Y-7005500D01*
X8904898Y-7005499D01*
X8934213Y-6999669D01*
X8967457Y-6977457D01*
X8989669Y-6944213D01*
X8995500Y-6914899D01*
X8995499Y-6695102D01*
X8992555Y-6680300D01*
X8987768Y-6656226D01*
X8989950Y-6655792D01*
X8985585Y-6633838D01*
X9006422Y-6602656D01*
X9033643Y-6594400D01*
X9087689Y-6594400D01*
X9122337Y-6608752D01*
X9136086Y-6635734D01*
X9137500Y-6644662D01*
X9163014Y-6694735D01*
X9187905Y-6743587D01*
X9266413Y-6822095D01*
X9286748Y-6832456D01*
X9365337Y-6872500D01*
X9391718Y-6876678D01*
X9475000Y-6889869D01*
X9583001Y-6872763D01*
X9584662Y-6872500D01*
X9619321Y-6854840D01*
X9683587Y-6822095D01*
X9762095Y-6743587D01*
X9801647Y-6665962D01*
X9812500Y-6644662D01*
X9816522Y-6619267D01*
X9829869Y-6535000D01*
X9816425Y-6450119D01*
X9812500Y-6425337D01*
X9769923Y-6341777D01*
X9762095Y-6326413D01*
X9683587Y-6247905D01*
X9679652Y-6245900D01*
X9584662Y-6197499D01*
X9475000Y-6180131D01*
X9365337Y-6197500D01*
X9347598Y-6206538D01*
X9329152Y-6209885D01*
X9320677Y-6212851D01*
X9304494Y-6215600D01*
X9033642Y-6215600D01*
X8998994Y-6201248D01*
X8984642Y-6166600D01*
X8988489Y-6153914D01*
X8987768Y-6153771D01*
X8990010Y-6142500D01*
X8995500Y-6114899D01*
X8995499Y-5895102D01*
X8993453Y-5884813D01*
X8989669Y-5865786D01*
X8974994Y-5843824D01*
X8967457Y-5832543D01*
X8967456Y-5832542D01*
X8967242Y-5832222D01*
X8959926Y-5795440D01*
X8967242Y-5777776D01*
X8967453Y-5777459D01*
X8967457Y-5777457D01*
X8989669Y-5744213D01*
X8995500Y-5714899D01*
X8995499Y-5495102D01*
X8989669Y-5465787D01*
X8989669Y-5465786D01*
X8967457Y-5432543D01*
X8951082Y-5421602D01*
X8934213Y-5410331D01*
X8934212Y-5410330D01*
X8934211Y-5410330D01*
X8904901Y-5404500D01*
X8904899Y-5404500D01*
X8568400Y-5404500D01*
X8533752Y-5390148D01*
X8519400Y-5355500D01*
X8519400Y-5005508D01*
X8522150Y-4989323D01*
X8523050Y-4986752D01*
X8519708Y-4957091D01*
X8519400Y-4951605D01*
X8519400Y-4943658D01*
X8517631Y-4935911D01*
X8516710Y-4930499D01*
X8513369Y-4900837D01*
X8511921Y-4898532D01*
X8505637Y-4883362D01*
X8505032Y-4880709D01*
X8505030Y-4880706D01*
X8486426Y-4857377D01*
X8483251Y-4852903D01*
X8479017Y-4846165D01*
X8473396Y-4840544D01*
X8469735Y-4836447D01*
X8451126Y-4813113D01*
X8448666Y-4811928D01*
X8435282Y-4802430D01*
X6352000Y-2719148D01*
X6337648Y-2684500D01*
X6352000Y-2649852D01*
X6386648Y-2635500D01*
X6564751Y-2635500D01*
X6599837Y-2628520D01*
X6623231Y-2623867D01*
X6689552Y-2579552D01*
X6733867Y-2513231D01*
X6745500Y-2454750D01*
X6889501Y-2454750D01*
X6901133Y-2513229D01*
X6945448Y-2579552D01*
X6978609Y-2601709D01*
X7011770Y-2623867D01*
X7026390Y-2626775D01*
X7070250Y-2635500D01*
X7070253Y-2635500D01*
X7747352Y-2635500D01*
X7782000Y-2649852D01*
X9091248Y-3959100D01*
X9105600Y-3993748D01*
X9105600Y-4043037D01*
X9101635Y-4056110D01*
X9102232Y-4056229D01*
X9094500Y-4095099D01*
X9094500Y-5214897D01*
X9100330Y-5244213D01*
X9122399Y-5277242D01*
X9122543Y-5277457D01*
X9155787Y-5299669D01*
X9185101Y-5305500D01*
X9404898Y-5305499D01*
X9421508Y-5302195D01*
X9458288Y-5309512D01*
X9479124Y-5340695D01*
X9471807Y-5377477D01*
X9453311Y-5393913D01*
X9396412Y-5422905D01*
X9317905Y-5501412D01*
X9267499Y-5600337D01*
X9250131Y-5710000D01*
X9267499Y-5819662D01*
X9312031Y-5907059D01*
X9317905Y-5918587D01*
X9396413Y-5997095D01*
X9428554Y-6013472D01*
X9495337Y-6047500D01*
X9513263Y-6050339D01*
X9605000Y-6064869D01*
X9701289Y-6049618D01*
X9714662Y-6047500D01*
X9764523Y-6022094D01*
X9813587Y-5997095D01*
X9867391Y-5943290D01*
X9902037Y-5928940D01*
X9915300Y-5934433D01*
X9903962Y-5907059D01*
X9909302Y-5884815D01*
X9942500Y-5819661D01*
X9959869Y-5710000D01*
X9942500Y-5600339D01*
X9942499Y-5600337D01*
X9942208Y-5598498D01*
X9950963Y-5562031D01*
X9955955Y-5556184D01*
X9963391Y-5548749D01*
X9998038Y-5534400D01*
X10575163Y-5534400D01*
X10609811Y-5548752D01*
X10624163Y-5583400D01*
X10609811Y-5618048D01*
X10403815Y-5824042D01*
X10369167Y-5838394D01*
X10361502Y-5837791D01*
X10250000Y-5820131D01*
X10140337Y-5837499D01*
X10041414Y-5887904D01*
X9987610Y-5941708D01*
X9952962Y-5956059D01*
X9939697Y-5950564D01*
X9951037Y-5977940D01*
X9945696Y-6000185D01*
X9912500Y-6065336D01*
X9895131Y-6175000D01*
X9912499Y-6284662D01*
X9955262Y-6368587D01*
X9962905Y-6383587D01*
X10041413Y-6462095D01*
X10069023Y-6476163D01*
X10140337Y-6512500D01*
X10165884Y-6516546D01*
X10250000Y-6529869D01*
X10354181Y-6513368D01*
X10359662Y-6512500D01*
X10406112Y-6488832D01*
X10458587Y-6462095D01*
X10537095Y-6383587D01*
X10585672Y-6288249D01*
X10590162Y-6279437D01*
X10618679Y-6255080D01*
X10656066Y-6258023D01*
X10677480Y-6279436D01*
X10701416Y-6326412D01*
X10722905Y-6368587D01*
X10801413Y-6447095D01*
X10830440Y-6461885D01*
X10900337Y-6497500D01*
X10926718Y-6501678D01*
X11010000Y-6514869D01*
X11104667Y-6499874D01*
X11119662Y-6497500D01*
X11155434Y-6479273D01*
X11218587Y-6447095D01*
X11297095Y-6368587D01*
X11347500Y-6269661D01*
X11364869Y-6160000D01*
X11364868Y-6159999D01*
X11366083Y-6152334D01*
X11366964Y-6152473D01*
X11373732Y-6124262D01*
X11378725Y-6118414D01*
X11401376Y-6095763D01*
X11436023Y-6081412D01*
X11470671Y-6095764D01*
X11485023Y-6130412D01*
X11484420Y-6138077D01*
X11474683Y-6199552D01*
X11492052Y-6309215D01*
X11540749Y-6404785D01*
X11542458Y-6408140D01*
X11620966Y-6486648D01*
X11653107Y-6503025D01*
X11719890Y-6537053D01*
X11746271Y-6541231D01*
X11829553Y-6554422D01*
X11924220Y-6539427D01*
X11939215Y-6537053D01*
X11972912Y-6519883D01*
X12038140Y-6486648D01*
X12116648Y-6408140D01*
X12167053Y-6309214D01*
X12177506Y-6243215D01*
X12197101Y-6211239D01*
X12233568Y-6202484D01*
X12260550Y-6216233D01*
X12306413Y-6262095D01*
X12324540Y-6271331D01*
X12405337Y-6312500D01*
X12431718Y-6316678D01*
X12515000Y-6329869D01*
X12609667Y-6314874D01*
X12624662Y-6312500D01*
X12658813Y-6295099D01*
X12723587Y-6262095D01*
X12802095Y-6183587D01*
X12852500Y-6084661D01*
X12868422Y-5984130D01*
X12888017Y-5952155D01*
X12924484Y-5943400D01*
X12951466Y-5957149D01*
X13016413Y-6022095D01*
X13046643Y-6037498D01*
X13115337Y-6072500D01*
X13140518Y-6076488D01*
X13225000Y-6089869D01*
X13319667Y-6074874D01*
X13334662Y-6072500D01*
X13368053Y-6055486D01*
X13433587Y-6022095D01*
X13481953Y-5973729D01*
X13516601Y-5959377D01*
X13551249Y-5973729D01*
X13565601Y-6008377D01*
X13565601Y-6014817D01*
X13571874Y-6025681D01*
X13576769Y-6037498D01*
X13580016Y-6049618D01*
X13580019Y-6049623D01*
X13587711Y-6057316D01*
X13602060Y-6091965D01*
X13587709Y-6126609D01*
X13557904Y-6156414D01*
X13507499Y-6255337D01*
X13490131Y-6365000D01*
X13507499Y-6474662D01*
X13543513Y-6545341D01*
X13557905Y-6573587D01*
X13636413Y-6652095D01*
X13662918Y-6665600D01*
X13735337Y-6702500D01*
X13761718Y-6706678D01*
X13845000Y-6719869D01*
X13939667Y-6704874D01*
X13954662Y-6702500D01*
X13998231Y-6680300D01*
X14053587Y-6652095D01*
X14132095Y-6573587D01*
X14176021Y-6487377D01*
X14182500Y-6474662D01*
X14186387Y-6450119D01*
X14199869Y-6365000D01*
X14184769Y-6269662D01*
X14182500Y-6255337D01*
X14165125Y-6221238D01*
X14162182Y-6183850D01*
X14186538Y-6155333D01*
X14216448Y-6150595D01*
X14275000Y-6159869D01*
X14372665Y-6144400D01*
X14384662Y-6142500D01*
X14429801Y-6119500D01*
X14483587Y-6092095D01*
X14562095Y-6013587D01*
X14602219Y-5934839D01*
X14612500Y-5914662D01*
X14617119Y-5885500D01*
X14629869Y-5805000D01*
X14612500Y-5695339D01*
X14612500Y-5695337D01*
X14573207Y-5618222D01*
X14562095Y-5596413D01*
X14483587Y-5517905D01*
X14469291Y-5510621D01*
X14384662Y-5467500D01*
X14325734Y-5458166D01*
X14293758Y-5438570D01*
X14284400Y-5409769D01*
X14284400Y-5343641D01*
X14298752Y-5308993D01*
X14333400Y-5294641D01*
X14346085Y-5298490D01*
X14346229Y-5297768D01*
X14355787Y-5299669D01*
X14385101Y-5305500D01*
X14604898Y-5305499D01*
X14634213Y-5299669D01*
X14667457Y-5277457D01*
X14689669Y-5244213D01*
X14695500Y-5214899D01*
X14695500Y-4893400D01*
X14709852Y-4858752D01*
X14744500Y-4844400D01*
X14964494Y-4844400D01*
X14980676Y-4847149D01*
X14981423Y-4847410D01*
X14983249Y-4848049D01*
X15012902Y-4844707D01*
X15018388Y-4844400D01*
X15026339Y-4844400D01*
X15026341Y-4844400D01*
X15034101Y-4842628D01*
X15039505Y-4841710D01*
X15069164Y-4838369D01*
X15071464Y-4836923D01*
X15086637Y-4830637D01*
X15089291Y-4830032D01*
X15112631Y-4811417D01*
X15117099Y-4808248D01*
X15123836Y-4804016D01*
X15127062Y-4800788D01*
X15129461Y-4798391D01*
X15133549Y-4794736D01*
X15156887Y-4776126D01*
X15158068Y-4773672D01*
X15167565Y-4760285D01*
X15217226Y-4710624D01*
X15251873Y-4696273D01*
X15259530Y-4696875D01*
X15310000Y-4704869D01*
X15404667Y-4689874D01*
X15419662Y-4687500D01*
X15464138Y-4664838D01*
X15518587Y-4637095D01*
X15597095Y-4558587D01*
X15633086Y-4487950D01*
X15647500Y-4459662D01*
X15651832Y-4432309D01*
X15664869Y-4350000D01*
X15651678Y-4266718D01*
X15647500Y-4240337D01*
X15608119Y-4163049D01*
X15597095Y-4141413D01*
X15518587Y-4062905D01*
X15513752Y-4058070D01*
X15499400Y-4023422D01*
X15499400Y-3755598D01*
X15513752Y-3720950D01*
X15538840Y-3707540D01*
X15543839Y-3706546D01*
X15623391Y-3653391D01*
X15676546Y-3573839D01*
X15684398Y-3534364D01*
X15690500Y-3503690D01*
X15690500Y-3116309D01*
X15677541Y-3051162D01*
X15676546Y-3046161D01*
X15623391Y-2966609D01*
X15543839Y-2913454D01*
X15543838Y-2913453D01*
X15543837Y-2913453D01*
X15473691Y-2899500D01*
X15473688Y-2899500D01*
X15146312Y-2899500D01*
X15146309Y-2899500D01*
X15076162Y-2913453D01*
X14996609Y-2966609D01*
X14943453Y-3046162D01*
X14929500Y-3116309D01*
X14929500Y-3503690D01*
X14943453Y-3573837D01*
X14943453Y-3573838D01*
X14943454Y-3573839D01*
X14996609Y-3653391D01*
X15047133Y-3687150D01*
X15076159Y-3706545D01*
X15076161Y-3706546D01*
X15081158Y-3707540D01*
X15112341Y-3728373D01*
X15120600Y-3755598D01*
X15120600Y-4023421D01*
X15106248Y-4058069D01*
X15022905Y-4141412D01*
X14972499Y-4240337D01*
X14955130Y-4350000D01*
X14963122Y-4400459D01*
X14954366Y-4436926D01*
X14949377Y-4442768D01*
X14940903Y-4451244D01*
X14906257Y-4465600D01*
X14744499Y-4465600D01*
X14709851Y-4451248D01*
X14695499Y-4416600D01*
X14695499Y-4095102D01*
X14689669Y-4065786D01*
X14667457Y-4032543D01*
X14641539Y-4015226D01*
X14634213Y-4010331D01*
X14634212Y-4010330D01*
X14634211Y-4010330D01*
X14604900Y-4004500D01*
X14385102Y-4004500D01*
X14355784Y-4010331D01*
X14322221Y-4032757D01*
X14285439Y-4040073D01*
X14267777Y-4032757D01*
X14234212Y-4010330D01*
X14204900Y-4004500D01*
X13985102Y-4004500D01*
X13955784Y-4010331D01*
X13922221Y-4032757D01*
X13885439Y-4040073D01*
X13867777Y-4032757D01*
X13834212Y-4010330D01*
X13804900Y-4004500D01*
X13585102Y-4004500D01*
X13555784Y-4010331D01*
X13522221Y-4032757D01*
X13485439Y-4040073D01*
X13467777Y-4032757D01*
X13434212Y-4010330D01*
X13404900Y-4004500D01*
X13185102Y-4004500D01*
X13155784Y-4010331D01*
X13122221Y-4032757D01*
X13085439Y-4040073D01*
X13067777Y-4032757D01*
X13034212Y-4010330D01*
X13004900Y-4004500D01*
X12785102Y-4004500D01*
X12755784Y-4010331D01*
X12722221Y-4032757D01*
X12685439Y-4040073D01*
X12667777Y-4032757D01*
X12634212Y-4010330D01*
X12604900Y-4004500D01*
X12385102Y-4004500D01*
X12355784Y-4010331D01*
X12322221Y-4032757D01*
X12285439Y-4040073D01*
X12267777Y-4032757D01*
X12234212Y-4010330D01*
X12204900Y-4004500D01*
X11985102Y-4004500D01*
X11955784Y-4010331D01*
X11922221Y-4032757D01*
X11885439Y-4040073D01*
X11867777Y-4032757D01*
X11834212Y-4010330D01*
X11800165Y-4003558D01*
X11800560Y-4001567D01*
X11772992Y-3990148D01*
X11758640Y-3955500D01*
X11772992Y-3920852D01*
X11785394Y-3911841D01*
X11794180Y-3907364D01*
X11853587Y-3877095D01*
X11932095Y-3798587D01*
X11967985Y-3728148D01*
X11982500Y-3699662D01*
X11987491Y-3668148D01*
X11999869Y-3590000D01*
X11995286Y-3561064D01*
X12004041Y-3524599D01*
X12036018Y-3505003D01*
X12043683Y-3504400D01*
X12123434Y-3504400D01*
X12158082Y-3518752D01*
X12171492Y-3543839D01*
X12174919Y-3561065D01*
X12178454Y-3578840D01*
X12200611Y-3612000D01*
X12231609Y-3658391D01*
X12311161Y-3711546D01*
X12328698Y-3715034D01*
X12381309Y-3725500D01*
X12381312Y-3725500D01*
X12708691Y-3725500D01*
X12759539Y-3715385D01*
X12778839Y-3711546D01*
X12858391Y-3658391D01*
X12911546Y-3578839D01*
X12923498Y-3518752D01*
X12925500Y-3508690D01*
X12925500Y-3121309D01*
X12911546Y-3051162D01*
X12911546Y-3051161D01*
X12858391Y-2971609D01*
X12778839Y-2918454D01*
X12778838Y-2918453D01*
X12778837Y-2918453D01*
X12708691Y-2904500D01*
X12708688Y-2904500D01*
X12381312Y-2904500D01*
X12381309Y-2904500D01*
X12311162Y-2918453D01*
X12231609Y-2971609D01*
X12178454Y-3051159D01*
X12176371Y-3061633D01*
X12171492Y-3086160D01*
X12150657Y-3117342D01*
X12123434Y-3125600D01*
X11960508Y-3125600D01*
X11944324Y-3122850D01*
X11941752Y-3121950D01*
X11912093Y-3125292D01*
X11906607Y-3125600D01*
X11898658Y-3125600D01*
X11890904Y-3127369D01*
X11885494Y-3128288D01*
X11855836Y-3131630D01*
X11853526Y-3133082D01*
X11838368Y-3139360D01*
X11835709Y-3139966D01*
X11812371Y-3158577D01*
X11807895Y-3161753D01*
X11801165Y-3165982D01*
X11795535Y-3171611D01*
X11791445Y-3175265D01*
X11768112Y-3193873D01*
X11766928Y-3196333D01*
X11757431Y-3209715D01*
X11737773Y-3229373D01*
X11703125Y-3243725D01*
X11695461Y-3243122D01*
X11645000Y-3235130D01*
X11535337Y-3252499D01*
X11436412Y-3302905D01*
X11357905Y-3381411D01*
X11342268Y-3412100D01*
X11329162Y-3428161D01*
X11322375Y-3433574D01*
X11317896Y-3436753D01*
X11311163Y-3440984D01*
X11305535Y-3446611D01*
X11301445Y-3450265D01*
X11278112Y-3468873D01*
X11276928Y-3471333D01*
X11267431Y-3484715D01*
X10789715Y-3962431D01*
X10776333Y-3971928D01*
X10773873Y-3973112D01*
X10771708Y-3975828D01*
X10738883Y-3993967D01*
X10702847Y-3983583D01*
X10684708Y-3950758D01*
X10684400Y-3945275D01*
X10684400Y-3913747D01*
X10698751Y-3879100D01*
X11928000Y-2649852D01*
X11962648Y-2635500D01*
X12874751Y-2635500D01*
X12909837Y-2628520D01*
X12933231Y-2623867D01*
X12999552Y-2579552D01*
X13043867Y-2513231D01*
X13055500Y-2454750D01*
X14744500Y-2454750D01*
X14756132Y-2513229D01*
X14800447Y-2579552D01*
X14833608Y-2601709D01*
X14866769Y-2623867D01*
X14881389Y-2626775D01*
X14925249Y-2635500D01*
X14925252Y-2635500D01*
X16064751Y-2635500D01*
X16099837Y-2628520D01*
X16123231Y-2623867D01*
X16189552Y-2579552D01*
X16233867Y-2513231D01*
X16245500Y-2454748D01*
X16245500Y-715252D01*
X16245500Y-715251D01*
X16245500Y-715249D01*
X16233867Y-656770D01*
X16233867Y-656769D01*
X16204258Y-612457D01*
X16189552Y-590447D01*
X16139923Y-557286D01*
X16123231Y-546133D01*
X16123230Y-546132D01*
X16123229Y-546132D01*
X16064751Y-534500D01*
X16064748Y-534500D01*
X14925252Y-534500D01*
X14925249Y-534500D01*
X14866770Y-546132D01*
X14800447Y-590447D01*
X14756132Y-656770D01*
X14744500Y-715249D01*
X14744500Y-2454750D01*
X13055500Y-2454750D01*
X13055500Y-2454748D01*
X13055500Y-715252D01*
X13055500Y-715251D01*
X13055500Y-715249D01*
X13043867Y-656770D01*
X13043867Y-656769D01*
X13014258Y-612457D01*
X12999552Y-590447D01*
X12949923Y-557286D01*
X12933231Y-546133D01*
X12933230Y-546132D01*
X12933229Y-546132D01*
X12874751Y-534500D01*
X12874748Y-534500D01*
X11735252Y-534500D01*
X11735249Y-534500D01*
X11676770Y-546132D01*
X11610448Y-590447D01*
X11595742Y-612457D01*
X11564559Y-633292D01*
X11527776Y-625975D01*
X11514258Y-612457D01*
X11499551Y-590447D01*
X11466616Y-568441D01*
X11433231Y-546133D01*
X11433230Y-546132D01*
X11433229Y-546132D01*
X11374751Y-534500D01*
X11374748Y-534500D01*
X10235252Y-534500D01*
X10235249Y-534500D01*
X10176770Y-546132D01*
X10110447Y-590447D01*
X10066132Y-656770D01*
X10054500Y-715249D01*
X10054500Y-2454750D01*
X10066132Y-2513229D01*
X10110447Y-2579552D01*
X10143608Y-2601709D01*
X10176769Y-2623867D01*
X10191389Y-2626775D01*
X10235249Y-2635500D01*
X10235252Y-2635500D01*
X10566600Y-2635500D01*
X10601248Y-2649852D01*
X10615600Y-2684500D01*
X10615600Y-2736251D01*
X10601248Y-2770899D01*
X9989715Y-3382431D01*
X9976333Y-3391928D01*
X9973873Y-3393112D01*
X9955265Y-3416445D01*
X9951611Y-3420535D01*
X9945984Y-3426163D01*
X9941750Y-3432901D01*
X9938572Y-3437379D01*
X9937296Y-3438979D01*
X9904472Y-3457119D01*
X9868435Y-3446736D01*
X9860677Y-3438977D01*
X9851425Y-3427375D01*
X9848247Y-3422897D01*
X9845325Y-3418247D01*
X9844016Y-3416164D01*
X9838396Y-3410544D01*
X9834735Y-3406447D01*
X9816126Y-3383113D01*
X9813666Y-3381928D01*
X9800282Y-3372430D01*
X9343753Y-2915901D01*
X9329401Y-2881253D01*
X9329401Y-2684500D01*
X9343753Y-2649852D01*
X9378401Y-2635500D01*
X9709752Y-2635500D01*
X9744838Y-2628520D01*
X9768232Y-2623867D01*
X9834553Y-2579552D01*
X9878868Y-2513231D01*
X9890501Y-2454748D01*
X9890501Y-715252D01*
X9890501Y-715251D01*
X9890501Y-715249D01*
X9878868Y-656770D01*
X9878868Y-656769D01*
X9849259Y-612457D01*
X9834553Y-590447D01*
X9784924Y-557286D01*
X9768232Y-546133D01*
X9768231Y-546132D01*
X9768230Y-546132D01*
X9709752Y-534500D01*
X9709749Y-534500D01*
X8570253Y-534500D01*
X8570250Y-534500D01*
X8511771Y-546132D01*
X8445449Y-590447D01*
X8430743Y-612457D01*
X8399560Y-633292D01*
X8362777Y-625975D01*
X8349259Y-612457D01*
X8334552Y-590447D01*
X8301617Y-568441D01*
X8268232Y-546133D01*
X8268231Y-546132D01*
X8268230Y-546132D01*
X8209752Y-534500D01*
X8209749Y-534500D01*
X7070253Y-534500D01*
X7070250Y-534500D01*
X7011771Y-546132D01*
X6945448Y-590447D01*
X6901133Y-656770D01*
X6889501Y-715249D01*
X6889501Y-2454750D01*
X6745500Y-2454750D01*
X6745500Y-2454748D01*
X6745500Y-715252D01*
X6745500Y-715251D01*
X6745500Y-715249D01*
X6733867Y-656770D01*
X6733867Y-656769D01*
X6704258Y-612457D01*
X6689552Y-590447D01*
X6639923Y-557286D01*
X6623231Y-546133D01*
X6623230Y-546132D01*
X6623229Y-546132D01*
X6564751Y-534500D01*
X6564748Y-534500D01*
X5425252Y-534500D01*
X5425249Y-534500D01*
X5366770Y-546132D01*
X5300448Y-590447D01*
X5285742Y-612457D01*
X5254559Y-633292D01*
X5217776Y-625975D01*
X5204258Y-612457D01*
X5189551Y-590447D01*
X5156616Y-568441D01*
X5123231Y-546133D01*
X5123230Y-546132D01*
X5123229Y-546132D01*
X5064751Y-534500D01*
X5064748Y-534500D01*
X3925252Y-534500D01*
X3925249Y-534500D01*
X3866770Y-546132D01*
X3800447Y-590447D01*
X3756132Y-656770D01*
X3744500Y-715249D01*
X3744500Y-2454750D01*
X3756132Y-2513229D01*
X3800447Y-2579552D01*
X3833608Y-2601709D01*
X3866769Y-2623867D01*
X3881389Y-2626775D01*
X3925249Y-2635500D01*
X3925252Y-2635500D01*
X4452352Y-2635500D01*
X4487000Y-2649852D01*
X7266248Y-5429100D01*
X7280600Y-5463748D01*
X7280600Y-5717294D01*
X7277851Y-5733476D01*
X7276951Y-5736048D01*
X7280292Y-5765701D01*
X7280600Y-5771187D01*
X7280600Y-5779140D01*
X7282368Y-5786889D01*
X7283288Y-5792302D01*
X7286631Y-5821964D01*
X7286968Y-5822500D01*
X7288081Y-5824271D01*
X7294361Y-5839432D01*
X7294968Y-5842091D01*
X7312308Y-5863835D01*
X7313572Y-5865420D01*
X7316750Y-5869900D01*
X7320982Y-5876635D01*
X7326602Y-5882255D01*
X7330263Y-5886351D01*
X7341881Y-5900918D01*
X7348874Y-5909687D01*
X7351331Y-5910870D01*
X7364716Y-5920368D01*
X7554630Y-6110282D01*
X7564128Y-6123666D01*
X7565313Y-6126126D01*
X7588647Y-6144735D01*
X7592744Y-6148396D01*
X7598365Y-6154017D01*
X7605103Y-6158251D01*
X7609577Y-6161426D01*
X7630081Y-6177777D01*
X7632909Y-6180032D01*
X7635562Y-6180637D01*
X7650732Y-6186921D01*
X7651905Y-6187657D01*
X7653037Y-6188369D01*
X7665164Y-6189735D01*
X7697989Y-6207875D01*
X7708372Y-6243911D01*
X7700425Y-6265646D01*
X7700330Y-6265787D01*
X7694500Y-6295099D01*
X7694500Y-6514897D01*
X7702232Y-6553774D01*
X7700049Y-6554207D01*
X7704415Y-6576162D01*
X7683578Y-6607344D01*
X7656357Y-6615600D01*
X7298748Y-6615600D01*
X7264100Y-6601248D01*
X6908752Y-6245900D01*
X6894400Y-6211252D01*
X6894400Y-5690504D01*
X6897150Y-5674319D01*
X6898049Y-5671751D01*
X6894708Y-5642097D01*
X6894400Y-5636611D01*
X6894400Y-5628657D01*
X6892630Y-5620903D01*
X6891710Y-5615492D01*
X6888369Y-5585836D01*
X6888369Y-5585835D01*
X6886921Y-5583531D01*
X6880638Y-5568366D01*
X6880032Y-5565709D01*
X6861424Y-5542375D01*
X6858247Y-5537897D01*
X6854015Y-5531163D01*
X6848396Y-5525544D01*
X6844735Y-5521447D01*
X6826126Y-5498113D01*
X6823666Y-5496928D01*
X6810282Y-5487430D01*
X6277568Y-4954716D01*
X6268070Y-4941331D01*
X6266887Y-4938874D01*
X6258118Y-4931881D01*
X6243551Y-4920263D01*
X6239455Y-4916602D01*
X6233835Y-4910982D01*
X6227100Y-4906750D01*
X6222620Y-4903572D01*
X6216300Y-4898532D01*
X6199291Y-4884968D01*
X6196632Y-4884361D01*
X6181473Y-4878081D01*
X6179164Y-4876631D01*
X6163895Y-4874910D01*
X6149502Y-4873288D01*
X6144093Y-4872368D01*
X6136341Y-4870600D01*
X6128388Y-4870600D01*
X6122902Y-4870292D01*
X6093249Y-4866951D01*
X6093248Y-4866951D01*
X6090676Y-4867851D01*
X6074494Y-4870600D01*
X5303748Y-4870600D01*
X5269100Y-4856248D01*
X3572568Y-3159716D01*
X3563070Y-3146331D01*
X3561887Y-3143874D01*
X3552869Y-3136682D01*
X3538551Y-3125263D01*
X3534455Y-3121602D01*
X3528835Y-3115982D01*
X3522100Y-3111750D01*
X3517620Y-3108572D01*
X3514901Y-3106404D01*
X3494291Y-3089968D01*
X3491632Y-3089361D01*
X3476473Y-3083081D01*
X3474164Y-3081631D01*
X3458895Y-3079910D01*
X3444502Y-3078288D01*
X3439093Y-3077368D01*
X3431341Y-3075600D01*
X3423388Y-3075600D01*
X3417902Y-3075292D01*
X3388249Y-3071951D01*
X3388248Y-3071951D01*
X3385676Y-3072851D01*
X3369494Y-3075600D01*
X2523748Y-3075600D01*
X2489100Y-3061248D01*
X2121492Y-2693640D01*
X2107140Y-2658992D01*
X2121492Y-2624344D01*
X2156140Y-2609992D01*
X2183361Y-2618249D01*
X2191769Y-2623867D01*
X2191771Y-2623868D01*
X2250249Y-2635500D01*
X2250252Y-2635500D01*
X3389751Y-2635500D01*
X3424837Y-2628520D01*
X3448231Y-2623867D01*
X3514552Y-2579552D01*
X3558867Y-2513231D01*
X3570500Y-2454748D01*
X3570500Y-715252D01*
X3570500Y-715251D01*
X3570500Y-715249D01*
X3558867Y-656770D01*
X3558867Y-656769D01*
X3529258Y-612457D01*
X3514552Y-590447D01*
X3464923Y-557286D01*
X3448231Y-546133D01*
X3448230Y-546132D01*
X3448229Y-546132D01*
X3389751Y-534500D01*
X3389748Y-534500D01*
X2250252Y-534500D01*
X2250249Y-534500D01*
X2191770Y-546132D01*
X2125448Y-590447D01*
X2110742Y-612457D01*
X2079559Y-633292D01*
X2042776Y-625975D01*
X2029258Y-612457D01*
X2014551Y-590447D01*
X1981616Y-568441D01*
X1948231Y-546133D01*
X1948230Y-546132D01*
X1948229Y-546132D01*
X1889751Y-534500D01*
X1889748Y-534500D01*
X750252Y-534500D01*
X750249Y-534500D01*
X691770Y-546132D01*
X625447Y-590447D01*
X581132Y-656770D01*
X569500Y-715249D01*
X569500Y-2454750D01*
X30000Y-2454750D01*
X30000Y-79000D01*
X44352Y-44352D01*
X79000Y-30000D01*
X23921000Y-30000D01*
X23955648Y-44352D01*
G37*
%TD.AperFunction*%
%TD*%
%TA.AperFunction,Conductor*%
%TO.N,+3V3*%
G36*
X15869554Y-10304432D02*
G01*
X15936503Y-10324420D01*
X15982018Y-10377430D01*
X15992976Y-10430431D01*
X15985154Y-10915451D01*
X15983385Y-10934416D01*
X15964456Y-11044764D01*
X15933720Y-11107510D01*
X15873941Y-11143679D01*
X15866433Y-11145416D01*
X15851161Y-11148453D01*
X15771608Y-11201608D01*
X15718454Y-11281161D01*
X15704500Y-11351311D01*
X15704500Y-11738688D01*
X15718454Y-11808840D01*
X15782439Y-11904601D01*
X15803317Y-11971278D01*
X15801552Y-11994454D01*
X15749999Y-12295001D01*
X15754646Y-13795710D01*
X15735170Y-13862810D01*
X15682507Y-13908728D01*
X15641118Y-13919651D01*
X15251344Y-13952682D01*
X15182882Y-13938729D01*
X15132831Y-13889977D01*
X15128446Y-13881433D01*
X14758231Y-13085711D01*
X14748185Y-13052800D01*
X14737500Y-12985339D01*
X14687095Y-12886412D01*
X14662223Y-12861541D01*
X14637476Y-12826166D01*
X14406573Y-12329873D01*
X14395000Y-12277566D01*
X14395000Y-11236695D01*
X14410210Y-11177191D01*
X14448323Y-11107510D01*
X14854542Y-10364826D01*
X14903980Y-10315459D01*
X14963889Y-10300334D01*
X15869554Y-10304432D01*
G37*
%TD.AperFunction*%
%TD*%
M02*
