%TF.GenerationSoftware,KiCad,Pcbnew,7.0.2-6a45011f42~172~ubuntu22.04.1*%
%TF.CreationDate,2023-05-22T20:19:49+08:00*%
%TF.ProjectId,fly2040,666c7932-3034-4302-9e6b-696361645f70,rev?*%
%TF.SameCoordinates,PX4323800PY2f1c8c0*%
%TF.FileFunction,Copper,L4,Bot*%
%TF.FilePolarity,Positive*%
%FSLAX46Y46*%
G04 Gerber Fmt 4.6, Leading zero omitted, Abs format (unit mm)*
G04 Created by KiCad (PCBNEW 7.0.2-6a45011f42~172~ubuntu22.04.1) date 2023-05-22 20:19:49*
%MOMM*%
%LPD*%
G01*
G04 APERTURE LIST*
G04 Aperture macros list*
%AMRoundRect*
0 Rectangle with rounded corners*
0 $1 Rounding radius*
0 $2 $3 $4 $5 $6 $7 $8 $9 X,Y pos of 4 corners*
0 Add a 4 corners polygon primitive as box body*
4,1,4,$2,$3,$4,$5,$6,$7,$8,$9,$2,$3,0*
0 Add four circle primitives for the rounded corners*
1,1,$1+$1,$2,$3*
1,1,$1+$1,$4,$5*
1,1,$1+$1,$6,$7*
1,1,$1+$1,$8,$9*
0 Add four rect primitives between the rounded corners*
20,1,$1+$1,$2,$3,$4,$5,0*
20,1,$1+$1,$4,$5,$6,$7,0*
20,1,$1+$1,$6,$7,$8,$9,0*
20,1,$1+$1,$8,$9,$2,$3,0*%
G04 Aperture macros list end*
%TA.AperFunction,ComponentPad*%
%ADD10R,1.300000X2.000000*%
%TD*%
%TA.AperFunction,ComponentPad*%
%ADD11RoundRect,0.100000X-0.550000X0.900000X-0.550000X-0.900000X0.550000X-0.900000X0.550000X0.900000X0*%
%TD*%
%TA.AperFunction,ComponentPad*%
%ADD12O,1.000000X1.000000*%
%TD*%
%TA.AperFunction,ComponentPad*%
%ADD13RoundRect,0.100000X0.550000X-0.900000X0.550000X0.900000X-0.550000X0.900000X-0.550000X-0.900000X0*%
%TD*%
%TA.AperFunction,ComponentPad*%
%ADD14R,2.000000X1.300000*%
%TD*%
%TA.AperFunction,ComponentPad*%
%ADD15RoundRect,0.100000X-0.900000X-0.550000X0.900000X-0.550000X0.900000X0.550000X-0.900000X0.550000X0*%
%TD*%
%TA.AperFunction,ViaPad*%
%ADD16C,0.450000*%
%TD*%
%TA.AperFunction,Conductor*%
%ADD17C,0.200000*%
%TD*%
%TA.AperFunction,Conductor*%
%ADD18C,0.100000*%
%TD*%
%TA.AperFunction,Conductor*%
%ADD19C,0.357600*%
%TD*%
G04 APERTURE END LIST*
D10*
%TO.P,J9,1,Pin_1*%
%TO.N,NS_10*%
X8675001Y-1605000D03*
D11*
%TO.P,J9,2,Pin_2*%
%TO.N,NS_11*%
X7125001Y-1605000D03*
%TD*%
D10*
%TO.P,J10,1,Pin_1*%
%TO.N,NS_8*%
X11840000Y-1605000D03*
D11*
%TO.P,J10,2,Pin_2*%
%TO.N,NS_9*%
X10290000Y-1605000D03*
%TD*%
D12*
%TO.P,J8,1,Pin_1*%
%TO.N,RST*%
X22189248Y-1283121D03*
%TO.P,J8,2,Pin_2*%
%TO.N,BOOT*%
X22189248Y-2553121D03*
%TO.P,J8,3,Pin_3*%
%TO.N,D+*%
X22189248Y-3823121D03*
%TO.P,J8,4,Pin_4*%
%TO.N,D-*%
X22189248Y-5093121D03*
%TO.P,J8,5,Pin_5*%
%TO.N,+3V3*%
X22189248Y-6363121D03*
%TO.P,J8,6,Pin_6*%
%TO.N,GND*%
X22189248Y-7633121D03*
%TD*%
D10*
%TO.P,J1,1,Pin_1*%
%TO.N,+3V3*%
X13860000Y-1610000D03*
D13*
%TO.P,J1,2,Pin_2*%
%TO.N,GND*%
X15410000Y-1610000D03*
%TD*%
D10*
%TO.P,J4,1,Pin_1*%
%TO.N,NS_CMD*%
X14415000Y-17340000D03*
D13*
%TO.P,J4,2,Pin_2*%
%TO.N,NS_D0*%
X15965000Y-17340000D03*
%TD*%
D14*
%TO.P,J2,1,Pin_1*%
%TO.N,NS_CPU_PD*%
X1615000Y-2600000D03*
D15*
%TO.P,J2,2,Pin_2*%
%TO.N,NS_CPU*%
X1615000Y-4150000D03*
%TD*%
D10*
%TO.P,J7,1,Pin_1*%
%TO.N,DBG_CLK*%
X5035000Y-13795000D03*
D13*
%TO.P,J7,2,Pin_2*%
%TO.N,DBG_DAT*%
X6585000Y-13795000D03*
%TD*%
D10*
%TO.P,J6,1,Pin_1*%
%TO.N,NS_SDA*%
X5530000Y-1605000D03*
D11*
%TO.P,J6,2,Pin_2*%
%TO.N,NS_SCL*%
X3980000Y-1605000D03*
%TD*%
D10*
%TO.P,J11,1,Pin_1*%
%TO.N,NS_19*%
X8065000Y-17340000D03*
D13*
%TO.P,J11,2,Pin_2*%
%TO.N,NS_20*%
X9615000Y-17340000D03*
%TD*%
D14*
%TO.P,J5,1,Pin_1*%
%TO.N,D+*%
X22350000Y-9740000D03*
D15*
%TO.P,J5,2,Pin_2*%
%TO.N,D-*%
X22350000Y-11290000D03*
%TD*%
D10*
%TO.P,J3,1,Pin_1*%
%TO.N,NS_RST*%
X11255000Y-17340000D03*
D13*
%TO.P,J3,2,Pin_2*%
%TO.N,NS_CLK*%
X12805000Y-17340000D03*
%TD*%
D16*
%TO.N,GND*%
X1260000Y-5450000D03*
X14070000Y-10350000D03*
X9685000Y-5995000D03*
X18630000Y-5050000D03*
X1250000Y-10600000D03*
X2880000Y-1240000D03*
X4170000Y-10570000D03*
X21210000Y-14295000D03*
X4795000Y-17900000D03*
X4210000Y-5470000D03*
X5115000Y-12355000D03*
%TO.N,+3V3*%
X14495000Y-3430000D03*
X11320000Y-3315000D03*
X14795000Y-12925000D03*
X6165000Y-8595000D03*
X7905000Y-14675000D03*
X17640000Y-9615000D03*
X16445000Y-11420000D03*
X17585000Y-17705000D03*
X10070000Y-13460000D03*
%TO.N,RST*%
X7720000Y-11600000D03*
%TO.N,+1V1*%
X6550000Y-9350000D03*
X17325000Y-8705000D03*
X17615000Y-11790000D03*
%TO.N,+5V*%
X18281000Y-13514000D03*
X1605000Y-13700000D03*
%TD*%
D17*
%TO.N,RST*%
X18766879Y-1283121D02*
X22189248Y-1283121D01*
X7720000Y-11600000D02*
X8450000Y-11600000D01*
X8450000Y-11600000D02*
X18766879Y-1283121D01*
D18*
%TO.N,D-*%
X22189248Y-5093121D02*
X21200000Y-6082369D01*
X21200000Y-10540000D02*
X21950000Y-11290000D01*
X21200000Y-6082369D02*
X21200000Y-10540000D01*
%TO.N,D+*%
X22939248Y-4573121D02*
X22189248Y-3823121D01*
X22939248Y-9150752D02*
X22939248Y-4573121D01*
D19*
%TO.N,+5V*%
X17020000Y-14775000D02*
X10385000Y-14775000D01*
X10385000Y-14775000D02*
X9755000Y-15405000D01*
X4600000Y-15405000D02*
X2895000Y-13700000D01*
X2895000Y-13700000D02*
X1605000Y-13700000D01*
X18281000Y-13514000D02*
X17020000Y-14775000D01*
X9755000Y-15405000D02*
X4600000Y-15405000D01*
%TD*%
%TA.AperFunction,Conductor*%
%TO.N,GND*%
G36*
X3179944Y-525002D02*
G01*
X3226437Y-578658D01*
X3236541Y-648932D01*
X3235402Y-655582D01*
X3229500Y-685252D01*
X3229500Y-2524746D01*
X3241133Y-2583231D01*
X3285447Y-2649552D01*
X3309836Y-2665848D01*
X3351769Y-2693867D01*
X3410252Y-2705500D01*
X3410253Y-2705500D01*
X4549747Y-2705500D01*
X4549748Y-2705500D01*
X4608231Y-2693867D01*
X4650164Y-2665847D01*
X4717916Y-2644632D01*
X4786383Y-2663414D01*
X4790167Y-2665847D01*
X4840785Y-2699669D01*
X4850512Y-2701603D01*
X4870101Y-2705500D01*
X6189898Y-2705499D01*
X6219213Y-2699669D01*
X6252457Y-2677457D01*
X6252458Y-2677454D01*
X6261029Y-2671728D01*
X6304757Y-2635182D01*
X6375199Y-2626332D01*
X6425051Y-2645945D01*
X6430448Y-2649551D01*
X6430449Y-2649552D01*
X6496770Y-2693867D01*
X6555253Y-2705500D01*
X6555254Y-2705500D01*
X7694748Y-2705500D01*
X7694749Y-2705500D01*
X7753232Y-2693867D01*
X7795165Y-2665847D01*
X7862917Y-2644632D01*
X7931384Y-2663414D01*
X7935168Y-2665847D01*
X7985786Y-2699669D01*
X7995513Y-2701603D01*
X8015102Y-2705500D01*
X9334899Y-2705499D01*
X9364214Y-2699669D01*
X9397458Y-2677457D01*
X9401457Y-2671471D01*
X9455929Y-2625944D01*
X9526372Y-2617094D01*
X9576224Y-2636707D01*
X9595448Y-2649552D01*
X9661769Y-2693867D01*
X9720252Y-2705500D01*
X9720253Y-2705500D01*
X10859747Y-2705500D01*
X10859748Y-2705500D01*
X10918231Y-2693867D01*
X10960164Y-2665847D01*
X11027916Y-2644632D01*
X11096383Y-2663414D01*
X11100167Y-2665847D01*
X11150785Y-2699669D01*
X11160512Y-2701603D01*
X11180101Y-2705500D01*
X12499898Y-2705499D01*
X12529213Y-2699669D01*
X12562457Y-2677457D01*
X12584669Y-2644213D01*
X12590500Y-2614899D01*
X12590499Y-630999D01*
X12610501Y-562879D01*
X12664157Y-516386D01*
X12716499Y-505000D01*
X12983500Y-505000D01*
X13051621Y-525002D01*
X13098114Y-578658D01*
X13109500Y-631000D01*
X13109500Y-2619897D01*
X13112844Y-2636707D01*
X13115331Y-2649213D01*
X13137543Y-2682457D01*
X13170787Y-2704669D01*
X13200101Y-2710500D01*
X14519898Y-2710499D01*
X14549213Y-2704669D01*
X14582457Y-2682457D01*
X14604669Y-2649213D01*
X14610500Y-2619899D01*
X14610499Y-630999D01*
X14630501Y-562879D01*
X14684157Y-516386D01*
X14736499Y-505000D01*
X21865170Y-505000D01*
X21933291Y-525002D01*
X21979784Y-578658D01*
X21989888Y-648932D01*
X21960394Y-713512D01*
X21913388Y-747409D01*
X21886404Y-758585D01*
X21760965Y-854838D01*
X21664713Y-980277D01*
X21649941Y-1015940D01*
X21605392Y-1071220D01*
X21538029Y-1093641D01*
X21533532Y-1093721D01*
X18820467Y-1093721D01*
X18794859Y-1089370D01*
X18763272Y-1092929D01*
X18749165Y-1093721D01*
X18745534Y-1093721D01*
X18741983Y-1094531D01*
X18728077Y-1096893D01*
X18696493Y-1100453D01*
X18687484Y-1104184D01*
X18662631Y-1124003D01*
X18651118Y-1132172D01*
X18648040Y-1134105D01*
X18645469Y-1136677D01*
X18634948Y-1146079D01*
X18610094Y-1165900D01*
X18595060Y-1187086D01*
X8408453Y-11373695D01*
X8346141Y-11407721D01*
X8319358Y-11410600D01*
X8078473Y-11410600D01*
X8010352Y-11390598D01*
X7989378Y-11373695D01*
X7928589Y-11312906D01*
X7829661Y-11262500D01*
X7720000Y-11245130D01*
X7610338Y-11262500D01*
X7511410Y-11312906D01*
X7432906Y-11391410D01*
X7382500Y-11490338D01*
X7365130Y-11600000D01*
X7382500Y-11709661D01*
X7432906Y-11808589D01*
X7511410Y-11887093D01*
X7511412Y-11887094D01*
X7511413Y-11887095D01*
X7610339Y-11937500D01*
X7702629Y-11952117D01*
X7719999Y-11954869D01*
X7719999Y-11954868D01*
X7720000Y-11954869D01*
X7829661Y-11937500D01*
X7928587Y-11887095D01*
X7955936Y-11859746D01*
X7989378Y-11826305D01*
X8051690Y-11792279D01*
X8078473Y-11789400D01*
X8396414Y-11789400D01*
X8422021Y-11793750D01*
X8428247Y-11793048D01*
X8428249Y-11793049D01*
X8453606Y-11790192D01*
X8457044Y-11789999D01*
X17260130Y-11789999D01*
X17277500Y-11899661D01*
X17327906Y-11998589D01*
X17406410Y-12077093D01*
X17406412Y-12077094D01*
X17406413Y-12077095D01*
X17505339Y-12127500D01*
X17597629Y-12142117D01*
X17614999Y-12144869D01*
X17614999Y-12144868D01*
X17615000Y-12144869D01*
X17724661Y-12127500D01*
X17823587Y-12077095D01*
X17902095Y-11998587D01*
X17952500Y-11899661D01*
X17969869Y-11790000D01*
X17952500Y-11680339D01*
X17902095Y-11581413D01*
X17902094Y-11581412D01*
X17902093Y-11581410D01*
X17823589Y-11502906D01*
X17724661Y-11452500D01*
X17614999Y-11435130D01*
X17505338Y-11452500D01*
X17406410Y-11502906D01*
X17327906Y-11581410D01*
X17277500Y-11680338D01*
X17260130Y-11789999D01*
X8457044Y-11789999D01*
X8467713Y-11789400D01*
X8471339Y-11789400D01*
X8471341Y-11789400D01*
X8474884Y-11788591D01*
X8488796Y-11786227D01*
X8514164Y-11783369D01*
X8514166Y-11783367D01*
X8520401Y-11782665D01*
X8529386Y-11778944D01*
X8554237Y-11759125D01*
X8565770Y-11750942D01*
X8568836Y-11749016D01*
X8571401Y-11746450D01*
X8581933Y-11737038D01*
X8601887Y-11721126D01*
X8601888Y-11721123D01*
X8606788Y-11717216D01*
X8621819Y-11696031D01*
X8897851Y-11419999D01*
X16090130Y-11419999D01*
X16107500Y-11529661D01*
X16157906Y-11628589D01*
X16236410Y-11707093D01*
X16236412Y-11707094D01*
X16236413Y-11707095D01*
X16335339Y-11757500D01*
X16445000Y-11774869D01*
X16554661Y-11757500D01*
X16653587Y-11707095D01*
X16732095Y-11628587D01*
X16782500Y-11529661D01*
X16799869Y-11420000D01*
X16782500Y-11310339D01*
X16732095Y-11211413D01*
X16732094Y-11211412D01*
X16732093Y-11211410D01*
X16653589Y-11132906D01*
X16554661Y-11082500D01*
X16445000Y-11065130D01*
X16335338Y-11082500D01*
X16236410Y-11132906D01*
X16157906Y-11211410D01*
X16107500Y-11310338D01*
X16090130Y-11419999D01*
X8897851Y-11419999D01*
X10702851Y-9614999D01*
X17285130Y-9614999D01*
X17302500Y-9724661D01*
X17352906Y-9823589D01*
X17431410Y-9902093D01*
X17431412Y-9902094D01*
X17431413Y-9902095D01*
X17530339Y-9952500D01*
X17640000Y-9969869D01*
X17749661Y-9952500D01*
X17848587Y-9902095D01*
X17927095Y-9823587D01*
X17977500Y-9724661D01*
X17994869Y-9615000D01*
X17977500Y-9505339D01*
X17927095Y-9406413D01*
X17927094Y-9406412D01*
X17927093Y-9406410D01*
X17848589Y-9327906D01*
X17749661Y-9277500D01*
X17640000Y-9260130D01*
X17530338Y-9277500D01*
X17431410Y-9327906D01*
X17352906Y-9406410D01*
X17302500Y-9505338D01*
X17285130Y-9614999D01*
X10702851Y-9614999D01*
X11612850Y-8705000D01*
X16970130Y-8705000D01*
X16987500Y-8814661D01*
X17037906Y-8913589D01*
X17116410Y-8992093D01*
X17116412Y-8992094D01*
X17116413Y-8992095D01*
X17215339Y-9042500D01*
X17325000Y-9059869D01*
X17434661Y-9042500D01*
X17533587Y-8992095D01*
X17612095Y-8913587D01*
X17662500Y-8814661D01*
X17679869Y-8705000D01*
X17662500Y-8595339D01*
X17612095Y-8496413D01*
X17612094Y-8496412D01*
X17612093Y-8496410D01*
X17533589Y-8417906D01*
X17434661Y-8367500D01*
X17325000Y-8350130D01*
X17215338Y-8367500D01*
X17116410Y-8417906D01*
X17037906Y-8496410D01*
X16987500Y-8595338D01*
X16970130Y-8705000D01*
X11612850Y-8705000D01*
X18808425Y-1509426D01*
X18870738Y-1475400D01*
X18897521Y-1472521D01*
X21533532Y-1472521D01*
X21601653Y-1492523D01*
X21648146Y-1546179D01*
X21649941Y-1550302D01*
X21664713Y-1585964D01*
X21760965Y-1711403D01*
X21899567Y-1817756D01*
X21896662Y-1821541D01*
X21927358Y-1846295D01*
X21949756Y-1913666D01*
X21932175Y-1982452D01*
X21897016Y-2015162D01*
X21899567Y-2018486D01*
X21760965Y-2124838D01*
X21664712Y-2250278D01*
X21604203Y-2396359D01*
X21583566Y-2553120D01*
X21604203Y-2709882D01*
X21664712Y-2855963D01*
X21760965Y-2981403D01*
X21899567Y-3087756D01*
X21896662Y-3091541D01*
X21927358Y-3116295D01*
X21949756Y-3183666D01*
X21932175Y-3252452D01*
X21897016Y-3285162D01*
X21899567Y-3288486D01*
X21760965Y-3394838D01*
X21664712Y-3520278D01*
X21604203Y-3666359D01*
X21583566Y-3823120D01*
X21604203Y-3979882D01*
X21664712Y-4125963D01*
X21760965Y-4251403D01*
X21899567Y-4357756D01*
X21896662Y-4361541D01*
X21927358Y-4386295D01*
X21949756Y-4453666D01*
X21932175Y-4522452D01*
X21897016Y-4555162D01*
X21899567Y-4558486D01*
X21760965Y-4664838D01*
X21664712Y-4790278D01*
X21604203Y-4936359D01*
X21583566Y-5093121D01*
X21604203Y-5249881D01*
X21604204Y-5249883D01*
X21639685Y-5335542D01*
X21647274Y-5406130D01*
X21615495Y-5469617D01*
X21612372Y-5472854D01*
X21088456Y-5996771D01*
X21088455Y-5996772D01*
X21088454Y-5996774D01*
X21088452Y-5996776D01*
X21081735Y-6003493D01*
X21075017Y-6010211D01*
X21074392Y-6012547D01*
X21061807Y-6042928D01*
X21060601Y-6045016D01*
X21060600Y-6064016D01*
X21060600Y-10577352D01*
X21061807Y-10579442D01*
X21074392Y-10609824D01*
X21075017Y-10612157D01*
X21088452Y-10625593D01*
X21212595Y-10749736D01*
X21246621Y-10812048D01*
X21249500Y-10838831D01*
X21249500Y-11859746D01*
X21261133Y-11918231D01*
X21305447Y-11984552D01*
X21349762Y-12014162D01*
X21371769Y-12028867D01*
X21430252Y-12040500D01*
X21430253Y-12040500D01*
X23269745Y-12040500D01*
X23269748Y-12040500D01*
X23304420Y-12033603D01*
X23375131Y-12039931D01*
X23431199Y-12083484D01*
X23454819Y-12150437D01*
X23455000Y-12157182D01*
X23455000Y-18329000D01*
X23434998Y-18397121D01*
X23381342Y-18443614D01*
X23329000Y-18455000D01*
X16830193Y-18455000D01*
X16762072Y-18434998D01*
X16715579Y-18381342D01*
X16705475Y-18311068D01*
X16706610Y-18304438D01*
X16715500Y-18259748D01*
X16715500Y-17704999D01*
X17230130Y-17704999D01*
X17247500Y-17814661D01*
X17297906Y-17913589D01*
X17376410Y-17992093D01*
X17376412Y-17992094D01*
X17376413Y-17992095D01*
X17475339Y-18042500D01*
X17585000Y-18059869D01*
X17694661Y-18042500D01*
X17793587Y-17992095D01*
X17872095Y-17913587D01*
X17922500Y-17814661D01*
X17939869Y-17705000D01*
X17922500Y-17595339D01*
X17872095Y-17496413D01*
X17872094Y-17496412D01*
X17872093Y-17496410D01*
X17793589Y-17417906D01*
X17694661Y-17367500D01*
X17585000Y-17350130D01*
X17475338Y-17367500D01*
X17376410Y-17417906D01*
X17297906Y-17496410D01*
X17247500Y-17595338D01*
X17230130Y-17704999D01*
X16715500Y-17704999D01*
X16715500Y-16420252D01*
X16703867Y-16361769D01*
X16687381Y-16337096D01*
X16659552Y-16295447D01*
X16593231Y-16251133D01*
X16564057Y-16245330D01*
X16534748Y-16239500D01*
X15395252Y-16239500D01*
X15366010Y-16245316D01*
X15336768Y-16251133D01*
X15294834Y-16279153D01*
X15227081Y-16300367D01*
X15158614Y-16281584D01*
X15154832Y-16279153D01*
X15137457Y-16267543D01*
X15104213Y-16245331D01*
X15104212Y-16245330D01*
X15074899Y-16239500D01*
X13755102Y-16239500D01*
X13725787Y-16245331D01*
X13692542Y-16267544D01*
X13690086Y-16271220D01*
X13635609Y-16316748D01*
X13565166Y-16325596D01*
X13515319Y-16305983D01*
X13433231Y-16251133D01*
X13404057Y-16245330D01*
X13374748Y-16239500D01*
X12235252Y-16239500D01*
X12206010Y-16245316D01*
X12176768Y-16251133D01*
X12134834Y-16279153D01*
X12067081Y-16300367D01*
X11998614Y-16281584D01*
X11994832Y-16279153D01*
X11977457Y-16267543D01*
X11944213Y-16245331D01*
X11944212Y-16245330D01*
X11914899Y-16239500D01*
X10595102Y-16239500D01*
X10565787Y-16245331D01*
X10532542Y-16267544D01*
X10516490Y-16291568D01*
X10462014Y-16337096D01*
X10391570Y-16345944D01*
X10327526Y-16315303D01*
X10311380Y-16296669D01*
X10243231Y-16251133D01*
X10214057Y-16245330D01*
X10184748Y-16239500D01*
X9045252Y-16239500D01*
X9016010Y-16245316D01*
X8986768Y-16251133D01*
X8944834Y-16279153D01*
X8877081Y-16300367D01*
X8808614Y-16281584D01*
X8804832Y-16279153D01*
X8787457Y-16267543D01*
X8754213Y-16245331D01*
X8754212Y-16245330D01*
X8724899Y-16239500D01*
X7405102Y-16239500D01*
X7375787Y-16245331D01*
X7342543Y-16267543D01*
X7320330Y-16300787D01*
X7314500Y-16330100D01*
X7314501Y-18329000D01*
X7294499Y-18397121D01*
X7240843Y-18443614D01*
X7188501Y-18455000D01*
X635965Y-18455000D01*
X567844Y-18434998D01*
X521351Y-18381342D01*
X509965Y-18329035D01*
X509417Y-16361768D01*
X508675Y-13699999D01*
X1250130Y-13699999D01*
X1267500Y-13809661D01*
X1317906Y-13908589D01*
X1396410Y-13987093D01*
X1396412Y-13987094D01*
X1396413Y-13987095D01*
X1495339Y-14037500D01*
X1605000Y-14054869D01*
X1714661Y-14037500D01*
X1813587Y-13987095D01*
X1813587Y-13987094D01*
X1823718Y-13981933D01*
X1880921Y-13968200D01*
X2731717Y-13968200D01*
X2799838Y-13988202D01*
X2820812Y-14005105D01*
X4382900Y-15567192D01*
X4398567Y-15586280D01*
X4406639Y-15598361D01*
X4429030Y-15613322D01*
X4429031Y-15613323D01*
X4495353Y-15657639D01*
X4600000Y-15678454D01*
X4614242Y-15675621D01*
X4638823Y-15673200D01*
X9716177Y-15673200D01*
X9740757Y-15675621D01*
X9755000Y-15678454D01*
X9859647Y-15657639D01*
X9925969Y-15613324D01*
X9925970Y-15613322D01*
X9943825Y-15601392D01*
X9943833Y-15601386D01*
X9948361Y-15598361D01*
X9956428Y-15586286D01*
X9972088Y-15567203D01*
X10459189Y-15080102D01*
X10521499Y-15046079D01*
X10548282Y-15043200D01*
X16981177Y-15043200D01*
X17005757Y-15045621D01*
X17020000Y-15048454D01*
X17124647Y-15027639D01*
X17190969Y-14983324D01*
X17190970Y-14983322D01*
X17208825Y-14971392D01*
X17208833Y-14971386D01*
X17213361Y-14968361D01*
X17221428Y-14956286D01*
X17237093Y-14937198D01*
X18281071Y-13893219D01*
X18343381Y-13859196D01*
X18350428Y-13857872D01*
X18390661Y-13851500D01*
X18489587Y-13801095D01*
X18568095Y-13722587D01*
X18618500Y-13623661D01*
X18635869Y-13514000D01*
X18618500Y-13404339D01*
X18568095Y-13305413D01*
X18568094Y-13305412D01*
X18568093Y-13305410D01*
X18489589Y-13226906D01*
X18390661Y-13176500D01*
X18281000Y-13159130D01*
X18171338Y-13176500D01*
X18072410Y-13226906D01*
X17993906Y-13305410D01*
X17943498Y-13404341D01*
X17937130Y-13444547D01*
X17906717Y-13508699D01*
X17901777Y-13513928D01*
X16945810Y-14469896D01*
X16883500Y-14503920D01*
X16856717Y-14506800D01*
X10423823Y-14506800D01*
X10399243Y-14504379D01*
X10395518Y-14503638D01*
X10385000Y-14501546D01*
X10384999Y-14501546D01*
X10280354Y-14522360D01*
X10225592Y-14558951D01*
X10225586Y-14558955D01*
X10219064Y-14563313D01*
X10214037Y-14566671D01*
X10214033Y-14566673D01*
X10214032Y-14566675D01*
X10214035Y-14566672D01*
X10214033Y-14566673D01*
X10214032Y-14566675D01*
X10214032Y-14566676D01*
X10214030Y-14566677D01*
X10210748Y-14568869D01*
X10210748Y-14568870D01*
X10191638Y-14581639D01*
X10183569Y-14593716D01*
X10167903Y-14612804D01*
X9680810Y-15099896D01*
X9618500Y-15133920D01*
X9591717Y-15136800D01*
X8243073Y-15136800D01*
X8174952Y-15116798D01*
X8128459Y-15063142D01*
X8118355Y-14992868D01*
X8147849Y-14928288D01*
X8153978Y-14921705D01*
X8192093Y-14883589D01*
X8192093Y-14883588D01*
X8192095Y-14883587D01*
X8242500Y-14784661D01*
X8259869Y-14675000D01*
X8242500Y-14565339D01*
X8192095Y-14466413D01*
X8192094Y-14466412D01*
X8192093Y-14466410D01*
X8113589Y-14387906D01*
X8014661Y-14337500D01*
X7905000Y-14320130D01*
X7795338Y-14337500D01*
X7696410Y-14387906D01*
X7617906Y-14466410D01*
X7573767Y-14553039D01*
X7525019Y-14604654D01*
X7456104Y-14621720D01*
X7388902Y-14598819D01*
X7344750Y-14543222D01*
X7335500Y-14495836D01*
X7335500Y-13459999D01*
X9715130Y-13459999D01*
X9732500Y-13569661D01*
X9782906Y-13668589D01*
X9861410Y-13747093D01*
X9861412Y-13747094D01*
X9861413Y-13747095D01*
X9960339Y-13797500D01*
X10052630Y-13812117D01*
X10069999Y-13814869D01*
X10069999Y-13814868D01*
X10070000Y-13814869D01*
X10179661Y-13797500D01*
X10278587Y-13747095D01*
X10357095Y-13668587D01*
X10407500Y-13569661D01*
X10424869Y-13460000D01*
X10407500Y-13350339D01*
X10357095Y-13251413D01*
X10357094Y-13251412D01*
X10357093Y-13251410D01*
X10278589Y-13172906D01*
X10179661Y-13122500D01*
X10069999Y-13105130D01*
X9960338Y-13122500D01*
X9861410Y-13172906D01*
X9782906Y-13251410D01*
X9732500Y-13350338D01*
X9715130Y-13459999D01*
X7335500Y-13459999D01*
X7335500Y-12925000D01*
X14440130Y-12925000D01*
X14457500Y-13034661D01*
X14507906Y-13133589D01*
X14586410Y-13212093D01*
X14586412Y-13212094D01*
X14586413Y-13212095D01*
X14685339Y-13262500D01*
X14795000Y-13279869D01*
X14904661Y-13262500D01*
X15003587Y-13212095D01*
X15082095Y-13133587D01*
X15132500Y-13034661D01*
X15149869Y-12925000D01*
X15132500Y-12815339D01*
X15082095Y-12716413D01*
X15082094Y-12716412D01*
X15082093Y-12716410D01*
X15003589Y-12637906D01*
X14904661Y-12587500D01*
X14795000Y-12570130D01*
X14685338Y-12587500D01*
X14586410Y-12637906D01*
X14507906Y-12716410D01*
X14457500Y-12815338D01*
X14440130Y-12925000D01*
X7335500Y-12925000D01*
X7335500Y-12875253D01*
X7335500Y-12875252D01*
X7323867Y-12816769D01*
X7309162Y-12794761D01*
X7279552Y-12750447D01*
X7213231Y-12706133D01*
X7184057Y-12700330D01*
X7154748Y-12694500D01*
X6015252Y-12694500D01*
X5986010Y-12700316D01*
X5956768Y-12706133D01*
X5914834Y-12734153D01*
X5847081Y-12755367D01*
X5778614Y-12736584D01*
X5774832Y-12734153D01*
X5757457Y-12722543D01*
X5724213Y-12700331D01*
X5724212Y-12700330D01*
X5694899Y-12694500D01*
X4375102Y-12694500D01*
X4345787Y-12700331D01*
X4312543Y-12722543D01*
X4290330Y-12755787D01*
X4284500Y-12785100D01*
X4284500Y-14406017D01*
X4264498Y-14474138D01*
X4210842Y-14520631D01*
X4140568Y-14530735D01*
X4075988Y-14501241D01*
X4069405Y-14495112D01*
X3112098Y-13537805D01*
X3096428Y-13518712D01*
X3088361Y-13506639D01*
X3088360Y-13506638D01*
X3076290Y-13498573D01*
X3076283Y-13498567D01*
X2999647Y-13447360D01*
X2895000Y-13426546D01*
X2880757Y-13429379D01*
X2856177Y-13431800D01*
X1880921Y-13431800D01*
X1823718Y-13418067D01*
X1714661Y-13362500D01*
X1605000Y-13345130D01*
X1495338Y-13362500D01*
X1396410Y-13412906D01*
X1317906Y-13491410D01*
X1267500Y-13590338D01*
X1250130Y-13699999D01*
X508675Y-13699999D01*
X507253Y-8595000D01*
X5810130Y-8595000D01*
X5827500Y-8704661D01*
X5877906Y-8803589D01*
X5956410Y-8882093D01*
X5956412Y-8882094D01*
X5956413Y-8882095D01*
X6055339Y-8932500D01*
X6165000Y-8949869D01*
X6165001Y-8949868D01*
X6174613Y-8951391D01*
X6238766Y-8981803D01*
X6276293Y-9042072D01*
X6275279Y-9113061D01*
X6267169Y-9133042D01*
X6212500Y-9240336D01*
X6195130Y-9350000D01*
X6212500Y-9459661D01*
X6262906Y-9558589D01*
X6341410Y-9637093D01*
X6341412Y-9637094D01*
X6341413Y-9637095D01*
X6440339Y-9687500D01*
X6550000Y-9704869D01*
X6659661Y-9687500D01*
X6758587Y-9637095D01*
X6837095Y-9558587D01*
X6887500Y-9459661D01*
X6904869Y-9350000D01*
X6887500Y-9240339D01*
X6837095Y-9141413D01*
X6837094Y-9141412D01*
X6837093Y-9141410D01*
X6758589Y-9062906D01*
X6659661Y-9012500D01*
X6540386Y-8993608D01*
X6476233Y-8963195D01*
X6438706Y-8902927D01*
X6439720Y-8831937D01*
X6447830Y-8811956D01*
X6452093Y-8803588D01*
X6452095Y-8803587D01*
X6502500Y-8704661D01*
X6519869Y-8595000D01*
X6502500Y-8485339D01*
X6452095Y-8386413D01*
X6452094Y-8386412D01*
X6452093Y-8386410D01*
X6373589Y-8307906D01*
X6274661Y-8257500D01*
X6164999Y-8240130D01*
X6055338Y-8257500D01*
X5956410Y-8307906D01*
X5877906Y-8386410D01*
X5827500Y-8485338D01*
X5810130Y-8595000D01*
X507253Y-8595000D01*
X506256Y-5016469D01*
X526239Y-4948346D01*
X579882Y-4901838D01*
X650153Y-4891715D01*
X656797Y-4892850D01*
X695252Y-4900500D01*
X695255Y-4900500D01*
X2534747Y-4900500D01*
X2534748Y-4900500D01*
X2593231Y-4888867D01*
X2659552Y-4844552D01*
X2703867Y-4778231D01*
X2715500Y-4719748D01*
X2715500Y-3580252D01*
X2703867Y-3521769D01*
X2675846Y-3479834D01*
X2654632Y-3412083D01*
X2673415Y-3343616D01*
X2675847Y-3339831D01*
X2687454Y-3322458D01*
X2687457Y-3322457D01*
X2692439Y-3315000D01*
X10965130Y-3315000D01*
X10982500Y-3424661D01*
X11032906Y-3523589D01*
X11111410Y-3602093D01*
X11111412Y-3602094D01*
X11111413Y-3602095D01*
X11210339Y-3652500D01*
X11320000Y-3669869D01*
X11429661Y-3652500D01*
X11528587Y-3602095D01*
X11607095Y-3523587D01*
X11654780Y-3430000D01*
X14140130Y-3430000D01*
X14157500Y-3539661D01*
X14207906Y-3638589D01*
X14286410Y-3717093D01*
X14286412Y-3717094D01*
X14286413Y-3717095D01*
X14385339Y-3767500D01*
X14495000Y-3784869D01*
X14604661Y-3767500D01*
X14703587Y-3717095D01*
X14782095Y-3638587D01*
X14832500Y-3539661D01*
X14849869Y-3430000D01*
X14832500Y-3320339D01*
X14782095Y-3221413D01*
X14782094Y-3221412D01*
X14782093Y-3221410D01*
X14703589Y-3142906D01*
X14604661Y-3092500D01*
X14495000Y-3075130D01*
X14385338Y-3092500D01*
X14286410Y-3142906D01*
X14207906Y-3221410D01*
X14157500Y-3320338D01*
X14140130Y-3430000D01*
X11654780Y-3430000D01*
X11657500Y-3424661D01*
X11674869Y-3315000D01*
X11657500Y-3205339D01*
X11607095Y-3106413D01*
X11607094Y-3106412D01*
X11607093Y-3106410D01*
X11528589Y-3027906D01*
X11429661Y-2977500D01*
X11320000Y-2960130D01*
X11210338Y-2977500D01*
X11111410Y-3027906D01*
X11032906Y-3106410D01*
X10982500Y-3205338D01*
X10965130Y-3315000D01*
X2692439Y-3315000D01*
X2709669Y-3289213D01*
X2715500Y-3259899D01*
X2715499Y-1940102D01*
X2709669Y-1910787D01*
X2687457Y-1877543D01*
X2654213Y-1855331D01*
X2654212Y-1855330D01*
X2624900Y-1849500D01*
X631339Y-1849500D01*
X563218Y-1829498D01*
X516725Y-1775842D01*
X505339Y-1723535D01*
X505279Y-1509426D01*
X505035Y-631034D01*
X525018Y-562909D01*
X578661Y-516401D01*
X631035Y-505000D01*
X3111823Y-505000D01*
X3179944Y-525002D01*
G37*
%TD.AperFunction*%
%TA.AperFunction,Conductor*%
G36*
X21547912Y-6335660D02*
G01*
X21586296Y-6395386D01*
X21590322Y-6414438D01*
X21604203Y-6519882D01*
X21664712Y-6665963D01*
X21760965Y-6791403D01*
X21886405Y-6887656D01*
X21886406Y-6887656D01*
X21886407Y-6887657D01*
X22032486Y-6948165D01*
X22189248Y-6968803D01*
X22346010Y-6948165D01*
X22492089Y-6887657D01*
X22597146Y-6807043D01*
X22663363Y-6781444D01*
X22732912Y-6795708D01*
X22783709Y-6845309D01*
X22799848Y-6907007D01*
X22799848Y-8863500D01*
X22779846Y-8931621D01*
X22726190Y-8978114D01*
X22673848Y-8989500D01*
X21465400Y-8989500D01*
X21397279Y-8969498D01*
X21350786Y-8915842D01*
X21339400Y-8863500D01*
X21339400Y-6430884D01*
X21359402Y-6362763D01*
X21413058Y-6316270D01*
X21483332Y-6306166D01*
X21547912Y-6335660D01*
G37*
%TD.AperFunction*%
%TD*%
M02*
