%TF.GenerationSoftware,KiCad,Pcbnew,7.0.2-6a45011f42~172~ubuntu22.04.1*%
%TF.CreationDate,2023-05-22T20:19:48+08:00*%
%TF.ProjectId,fly2040,666c7932-3034-4302-9e6b-696361645f70,rev?*%
%TF.SameCoordinates,PX4323800PY2f1c8c0*%
%TF.FileFunction,Copper,L1,Top*%
%TF.FilePolarity,Positive*%
%FSLAX46Y46*%
G04 Gerber Fmt 4.6, Leading zero omitted, Abs format (unit mm)*
G04 Created by KiCad (PCBNEW 7.0.2-6a45011f42~172~ubuntu22.04.1) date 2023-05-22 20:19:48*
%MOMM*%
%LPD*%
G01*
G04 APERTURE LIST*
G04 Aperture macros list*
%AMRoundRect*
0 Rectangle with rounded corners*
0 $1 Rounding radius*
0 $2 $3 $4 $5 $6 $7 $8 $9 X,Y pos of 4 corners*
0 Add a 4 corners polygon primitive as box body*
4,1,4,$2,$3,$4,$5,$6,$7,$8,$9,$2,$3,0*
0 Add four circle primitives for the rounded corners*
1,1,$1+$1,$2,$3*
1,1,$1+$1,$4,$5*
1,1,$1+$1,$6,$7*
1,1,$1+$1,$8,$9*
0 Add four rect primitives between the rounded corners*
20,1,$1+$1,$2,$3,$4,$5,0*
20,1,$1+$1,$4,$5,$6,$7,0*
20,1,$1+$1,$6,$7,$8,$9,0*
20,1,$1+$1,$8,$9,$2,$3,0*%
G04 Aperture macros list end*
%TA.AperFunction,ComponentPad*%
%ADD10R,1.300000X2.000000*%
%TD*%
%TA.AperFunction,ComponentPad*%
%ADD11RoundRect,0.100000X-0.550000X0.900000X-0.550000X-0.900000X0.550000X-0.900000X0.550000X0.900000X0*%
%TD*%
%TA.AperFunction,SMDPad,CuDef*%
%ADD12RoundRect,0.135000X-0.185000X0.135000X-0.185000X-0.135000X0.185000X-0.135000X0.185000X0.135000X0*%
%TD*%
%TA.AperFunction,SMDPad,CuDef*%
%ADD13RoundRect,0.140000X-0.140000X-0.170000X0.140000X-0.170000X0.140000X0.170000X-0.140000X0.170000X0*%
%TD*%
%TA.AperFunction,SMDPad,CuDef*%
%ADD14R,0.200000X1.100000*%
%TD*%
%TA.AperFunction,SMDPad,CuDef*%
%ADD15R,1.100000X0.200000*%
%TD*%
%TA.AperFunction,SMDPad,CuDef*%
%ADD16R,3.100000X3.100000*%
%TD*%
%TA.AperFunction,SMDPad,CuDef*%
%ADD17R,0.280000X0.600000*%
%TD*%
%TA.AperFunction,SMDPad,CuDef*%
%ADD18R,1.700000X0.300000*%
%TD*%
%TA.AperFunction,ComponentPad*%
%ADD19O,1.000000X1.000000*%
%TD*%
%TA.AperFunction,ComponentPad*%
%ADD20RoundRect,0.100000X0.550000X-0.900000X0.550000X0.900000X-0.550000X0.900000X-0.550000X-0.900000X0*%
%TD*%
%TA.AperFunction,SMDPad,CuDef*%
%ADD21RoundRect,0.135000X0.185000X-0.135000X0.185000X0.135000X-0.185000X0.135000X-0.185000X-0.135000X0*%
%TD*%
%TA.AperFunction,SMDPad,CuDef*%
%ADD22RoundRect,0.135000X-0.135000X-0.185000X0.135000X-0.185000X0.135000X0.185000X-0.135000X0.185000X0*%
%TD*%
%TA.AperFunction,SMDPad,CuDef*%
%ADD23RoundRect,0.140000X-0.170000X0.140000X-0.170000X-0.140000X0.170000X-0.140000X0.170000X0.140000X0*%
%TD*%
%TA.AperFunction,ComponentPad*%
%ADD24R,2.000000X1.300000*%
%TD*%
%TA.AperFunction,ComponentPad*%
%ADD25RoundRect,0.100000X-0.900000X-0.550000X0.900000X-0.550000X0.900000X0.550000X-0.900000X0.550000X0*%
%TD*%
%TA.AperFunction,SMDPad,CuDef*%
%ADD26R,1.145000X0.400000*%
%TD*%
%TA.AperFunction,SMDPad,CuDef*%
%ADD27RoundRect,0.140000X0.170000X-0.140000X0.170000X0.140000X-0.170000X0.140000X-0.170000X-0.140000X0*%
%TD*%
%TA.AperFunction,SMDPad,CuDef*%
%ADD28R,0.200000X0.550000*%
%TD*%
%TA.AperFunction,SMDPad,CuDef*%
%ADD29R,1.000000X1.720000*%
%TD*%
%TA.AperFunction,SMDPad,CuDef*%
%ADD30O,0.364000X1.222000*%
%TD*%
%TA.AperFunction,SMDPad,CuDef*%
%ADD31R,1.000000X1.524000*%
%TD*%
%TA.AperFunction,SMDPad,CuDef*%
%ADD32R,1.200000X1.400000*%
%TD*%
%TA.AperFunction,SMDPad,CuDef*%
%ADD33R,1.100000X0.700000*%
%TD*%
%TA.AperFunction,ViaPad*%
%ADD34C,0.450000*%
%TD*%
%TA.AperFunction,Conductor*%
%ADD35C,0.100000*%
%TD*%
%TA.AperFunction,Conductor*%
%ADD36C,0.200000*%
%TD*%
%TA.AperFunction,Conductor*%
%ADD37C,0.357600*%
%TD*%
%TA.AperFunction,Conductor*%
%ADD38C,0.500000*%
%TD*%
G04 APERTURE END LIST*
D10*
%TO.P,J9,1,Pin_1*%
%TO.N,NS_10*%
X8675001Y-1605000D03*
D11*
%TO.P,J9,2,Pin_2*%
%TO.N,NS_11*%
X7125001Y-1605000D03*
%TD*%
D12*
%TO.P,R4,1*%
%TO.N,Net-(U1-USB_DM)*%
X20655000Y-11040000D03*
%TO.P,R4,2*%
%TO.N,D-*%
X20655000Y-12060000D03*
%TD*%
D13*
%TO.P,C3,1*%
%TO.N,XIN*%
X2270000Y-5475000D03*
%TO.P,C3,2*%
%TO.N,GND*%
X3230000Y-5475000D03*
%TD*%
D12*
%TO.P,R9,1*%
%TO.N,Net-(U1-GPIO27_ADC1)*%
X12708000Y-14285000D03*
%TO.P,R9,2*%
%TO.N,NS_CLK*%
X12708000Y-15305000D03*
%TD*%
D13*
%TO.P,C17,1*%
%TO.N,+5V*%
X17535000Y-15695000D03*
%TO.P,C17,2*%
%TO.N,GND*%
X18495000Y-15695000D03*
%TD*%
D14*
%TO.P,U1,1,IOVDD*%
%TO.N,+3V3*%
X14495000Y-4655000D03*
%TO.P,U1,2,GPIO0*%
%TO.N,unconnected-(U1-GPIO0-Pad2)*%
X14095000Y-4655000D03*
%TO.P,U1,3,GPIO1*%
%TO.N,unconnected-(U1-GPIO1-Pad3)*%
X13695000Y-4655000D03*
%TO.P,U1,4,GPIO2*%
%TO.N,unconnected-(U1-GPIO2-Pad4)*%
X13295000Y-4655000D03*
%TO.P,U1,5,GPIO3*%
%TO.N,unconnected-(U1-GPIO3-Pad5)*%
X12895000Y-4655000D03*
%TO.P,U1,6,GPIO4*%
%TO.N,unconnected-(U1-GPIO4-Pad6)*%
X12495000Y-4655000D03*
%TO.P,U1,7,GPIO5*%
%TO.N,unconnected-(U1-GPIO5-Pad7)*%
X12095000Y-4655000D03*
%TO.P,U1,8,GPIO6*%
%TO.N,unconnected-(U1-GPIO6-Pad8)*%
X11695000Y-4655000D03*
%TO.P,U1,9,GPIO7*%
%TO.N,unconnected-(U1-GPIO7-Pad9)*%
X11295000Y-4655000D03*
%TO.P,U1,10,IOVDD*%
%TO.N,+3V3*%
X10895000Y-4655000D03*
%TO.P,U1,11,GPIO8*%
%TO.N,NS_8*%
X10495000Y-4655000D03*
%TO.P,U1,12,GPIO9*%
%TO.N,NS_9*%
X10095000Y-4655000D03*
%TO.P,U1,13,GPIO10*%
%TO.N,NS_10*%
X9695000Y-4655000D03*
%TO.P,U1,14,GPIO11*%
%TO.N,NS_11*%
X9295000Y-4655000D03*
D15*
%TO.P,U1,15,GPIO12*%
%TO.N,NS_SDA*%
X8345000Y-5605000D03*
%TO.P,U1,16,GPIO13*%
%TO.N,NS_SCL*%
X8345000Y-6005000D03*
%TO.P,U1,17,GPIO14*%
%TO.N,NS_CPU_PD*%
X8345000Y-6405000D03*
%TO.P,U1,18,GPIO15*%
%TO.N,NS_CPU*%
X8345000Y-6805000D03*
%TO.P,U1,19,TESTEN*%
%TO.N,GND*%
X8345000Y-7205000D03*
%TO.P,U1,20,XIN*%
%TO.N,XIN*%
X8345000Y-7605000D03*
%TO.P,U1,21,XOUT*%
%TO.N,XOUT*%
X8345000Y-8005000D03*
%TO.P,U1,22,IOVDD*%
%TO.N,+3V3*%
X8345000Y-8405000D03*
%TO.P,U1,23,DVDD*%
%TO.N,+1V1*%
X8345000Y-8805000D03*
%TO.P,U1,24,SWCLK*%
%TO.N,DBG_CLK*%
X8345000Y-9205000D03*
%TO.P,U1,25,SWD*%
%TO.N,DBG_DAT*%
X8345000Y-9605000D03*
%TO.P,U1,26,RUN*%
%TO.N,RST*%
X8345000Y-10005000D03*
%TO.P,U1,27,GPIO16*%
%TO.N,unconnected-(U1-GPIO16-Pad27)*%
X8345000Y-10405000D03*
%TO.P,U1,28,GPIO17*%
%TO.N,unconnected-(U1-GPIO17-Pad28)*%
X8345000Y-10805000D03*
D14*
%TO.P,U1,29,GPIO18*%
%TO.N,LED_EN*%
X9295000Y-11755000D03*
%TO.P,U1,30,GPIO19*%
%TO.N,NS_19*%
X9695000Y-11755000D03*
%TO.P,U1,31,GPIO20*%
%TO.N,NS_20*%
X10095000Y-11755000D03*
%TO.P,U1,32,GPIO21*%
%TO.N,PAD_21*%
X10495000Y-11755000D03*
%TO.P,U1,33,IOVDD*%
%TO.N,+3V3*%
X10895000Y-11755000D03*
%TO.P,U1,34,GPIO22*%
%TO.N,PAD_22*%
X11295000Y-11755000D03*
%TO.P,U1,35,GPIO23*%
%TO.N,PAD_23*%
X11695000Y-11755000D03*
%TO.P,U1,36,GPIO24*%
%TO.N,PAD_24*%
X12095000Y-11755000D03*
%TO.P,U1,37,GPIO25*%
%TO.N,PAD_25*%
X12495000Y-11755000D03*
%TO.P,U1,38,GPIO26_ADC0*%
%TO.N,Net-(U1-GPIO26_ADC0)*%
X12895000Y-11755000D03*
%TO.P,U1,39,GPIO27_ADC1*%
%TO.N,Net-(U1-GPIO27_ADC1)*%
X13295000Y-11755000D03*
%TO.P,U1,40,GPIO28_ADC2*%
%TO.N,Net-(U1-GPIO28_ADC2)*%
X13695000Y-11755000D03*
%TO.P,U1,41,GPIO29_ADC3*%
%TO.N,Net-(U1-GPIO29_ADC3)*%
X14095000Y-11755000D03*
%TO.P,U1,42,IOVDD*%
%TO.N,+3V3*%
X14495000Y-11755000D03*
D15*
%TO.P,U1,43,ADC_AVDD*%
X15445000Y-10805000D03*
%TO.P,U1,44,VREG_IN*%
X15445000Y-10405000D03*
%TO.P,U1,45,VREG_VOUT*%
%TO.N,+1V1*%
X15445000Y-10005000D03*
%TO.P,U1,46,USB_DM*%
%TO.N,Net-(U1-USB_DM)*%
X15445000Y-9605000D03*
%TO.P,U1,47,USB_DP*%
%TO.N,Net-(U1-USB_DP)*%
X15445000Y-9205000D03*
%TO.P,U1,48,USB_VDD*%
%TO.N,+3V3*%
X15445000Y-8805000D03*
%TO.P,U1,49,IOVDD*%
X15445000Y-8405000D03*
%TO.P,U1,50,DVDD*%
%TO.N,+1V1*%
X15445000Y-8005000D03*
%TO.P,U1,51,QSPI_SD3*%
%TO.N,QSPI_SD3*%
X15445000Y-7605000D03*
%TO.P,U1,52,QSPI_SCLK*%
%TO.N,QSPI_SCK*%
X15445000Y-7205000D03*
%TO.P,U1,53,QSPI_SD0*%
%TO.N,QSPI_SD0*%
X15445000Y-6805000D03*
%TO.P,U1,54,QSPI_SD2*%
%TO.N,QSPI_SD2*%
X15445000Y-6405000D03*
%TO.P,U1,55,QSPI_SD1*%
%TO.N,QSPI_SD1*%
X15445000Y-6005000D03*
%TO.P,U1,56,QSPI_SS*%
%TO.N,QSPI_CS*%
X15445000Y-5605000D03*
D16*
%TO.P,U1,57,GND*%
%TO.N,GND*%
X11895000Y-8205000D03*
%TD*%
D17*
%TO.P,U2,1,CS#*%
%TO.N,QSPI_CS*%
X19365000Y-4185500D03*
%TO.P,U2,2,DO(IO1)*%
%TO.N,QSPI_SD1*%
X18865000Y-4185500D03*
%TO.P,U2,3,WP#(IO2)*%
%TO.N,QSPI_SD2*%
X18365000Y-4185500D03*
%TO.P,U2,4,GND*%
%TO.N,GND*%
X17865000Y-4185500D03*
%TO.P,U2,5,DI(IO0)*%
%TO.N,QSPI_SD0*%
X17865000Y-7199500D03*
%TO.P,U2,6,CLK*%
%TO.N,QSPI_SCK*%
X18365000Y-7199500D03*
%TO.P,U2,7,HOLD#orRESET#(IO3)*%
%TO.N,QSPI_SD3*%
X18865000Y-7199500D03*
%TO.P,U2,8,VCC*%
%TO.N,+3V3*%
X19365000Y-7199500D03*
D18*
%TO.P,U2,9,EP*%
%TO.N,GND*%
X18615000Y-5692500D03*
%TD*%
D13*
%TO.P,C16,1*%
%TO.N,+5V*%
X17535000Y-14645000D03*
%TO.P,C16,2*%
%TO.N,GND*%
X18495000Y-14645000D03*
%TD*%
D10*
%TO.P,J10,1,Pin_1*%
%TO.N,NS_8*%
X11840000Y-1605000D03*
D11*
%TO.P,J10,2,Pin_2*%
%TO.N,NS_9*%
X10290000Y-1605000D03*
%TD*%
D19*
%TO.P,J8,1,Pin_1*%
%TO.N,RST*%
X22189248Y-1283121D03*
%TO.P,J8,2,Pin_2*%
%TO.N,BOOT*%
X22189248Y-2553121D03*
%TO.P,J8,3,Pin_3*%
%TO.N,D+*%
X22189248Y-3823121D03*
%TO.P,J8,4,Pin_4*%
%TO.N,D-*%
X22189248Y-5093121D03*
%TO.P,J8,5,Pin_5*%
%TO.N,+3V3*%
X22189248Y-6363121D03*
%TO.P,J8,6,Pin_6*%
%TO.N,GND*%
X22189248Y-7633121D03*
%TD*%
D10*
%TO.P,J1,1,Pin_1*%
%TO.N,+3V3*%
X13860000Y-1610000D03*
D20*
%TO.P,J1,2,Pin_2*%
%TO.N,GND*%
X15410000Y-1610000D03*
%TD*%
D13*
%TO.P,C12,1*%
%TO.N,+3V3*%
X12130000Y-3315000D03*
%TO.P,C12,2*%
%TO.N,GND*%
X13090000Y-3315000D03*
%TD*%
%TO.P,C5,1*%
%TO.N,+1V1*%
X18655000Y-12080000D03*
%TO.P,C5,2*%
%TO.N,GND*%
X19615000Y-12080000D03*
%TD*%
D21*
%TO.P,R2,1*%
%TO.N,+3V3*%
X7905000Y-13680000D03*
%TO.P,R2,2*%
%TO.N,RST*%
X7905000Y-12660000D03*
%TD*%
D10*
%TO.P,J4,1,Pin_1*%
%TO.N,NS_CMD*%
X14415000Y-17340000D03*
D20*
%TO.P,J4,2,Pin_2*%
%TO.N,NS_D0*%
X15965000Y-17340000D03*
%TD*%
D22*
%TO.P,R12,1*%
%TO.N,NS_CPU_PD*%
X1040000Y-1195000D03*
%TO.P,R12,2*%
%TO.N,GND*%
X2060000Y-1195000D03*
%TD*%
D23*
%TO.P,C7,1*%
%TO.N,+3V3*%
X10570000Y-14310000D03*
%TO.P,C7,2*%
%TO.N,GND*%
X10570000Y-15270000D03*
%TD*%
%TO.P,C14,1*%
%TO.N,+3V3*%
X20665000Y-7075000D03*
%TO.P,C14,2*%
%TO.N,GND*%
X20665000Y-8035000D03*
%TD*%
D13*
%TO.P,C2,1*%
%TO.N,+1V1*%
X18650000Y-8705000D03*
%TO.P,C2,2*%
%TO.N,GND*%
X19610000Y-8705000D03*
%TD*%
D24*
%TO.P,J2,1,Pin_1*%
%TO.N,NS_CPU_PD*%
X1615000Y-2600000D03*
D25*
%TO.P,J2,2,Pin_2*%
%TO.N,NS_CPU*%
X1615000Y-4150000D03*
%TD*%
D13*
%TO.P,C18,1*%
%TO.N,+5V*%
X17535000Y-16745000D03*
%TO.P,C18,2*%
%TO.N,GND*%
X18495000Y-16745000D03*
%TD*%
D10*
%TO.P,J7,1,Pin_1*%
%TO.N,DBG_CLK*%
X5035000Y-13795000D03*
D20*
%TO.P,J7,2,Pin_2*%
%TO.N,DBG_DAT*%
X6585000Y-13795000D03*
%TD*%
D10*
%TO.P,J6,1,Pin_1*%
%TO.N,NS_SDA*%
X5530000Y-1605000D03*
D11*
%TO.P,J6,2,Pin_2*%
%TO.N,NS_SCL*%
X3980000Y-1605000D03*
%TD*%
D26*
%TO.P,LED1,1,SDO*%
%TO.N,unconnected-(LED1-SDO-Pad1)*%
X3388000Y-17850000D03*
%TO.P,LED1,2,GND*%
%TO.N,GND*%
X3388000Y-17050000D03*
%TO.P,LED1,3,SDI*%
%TO.N,LED_DATA_5V*%
X3388000Y-16250000D03*
%TO.P,LED1,4,CKL*%
%TO.N,LED_CLK_5V*%
X1692000Y-16250000D03*
%TO.P,LED1,5,VDD*%
%TO.N,+5V*%
X1692000Y-17050000D03*
%TO.P,LED1,6,CKO*%
%TO.N,unconnected-(LED1-CKO-Pad6)*%
X1692000Y-17850000D03*
%TD*%
D10*
%TO.P,J11,1,Pin_1*%
%TO.N,NS_19*%
X8065000Y-17340000D03*
D20*
%TO.P,J11,2,Pin_2*%
%TO.N,NS_20*%
X9615000Y-17340000D03*
%TD*%
D12*
%TO.P,R8,1*%
%TO.N,Net-(U1-GPIO26_ADC0)*%
X11647000Y-14285000D03*
%TO.P,R8,2*%
%TO.N,NS_RST*%
X11647000Y-15305000D03*
%TD*%
D23*
%TO.P,C4,1*%
%TO.N,+1V1*%
X6170000Y-10580000D03*
%TO.P,C4,2*%
%TO.N,GND*%
X6170000Y-11540000D03*
%TD*%
D12*
%TO.P,R11,1*%
%TO.N,Net-(U1-GPIO29_ADC3)*%
X14830000Y-14285000D03*
%TO.P,R11,2*%
%TO.N,NS_D0*%
X14830000Y-15305000D03*
%TD*%
D13*
%TO.P,C11,1*%
%TO.N,+3V3*%
X15310000Y-3310000D03*
%TO.P,C11,2*%
%TO.N,GND*%
X16270000Y-3310000D03*
%TD*%
D23*
%TO.P,C8,1*%
%TO.N,+3V3*%
X16325000Y-14315000D03*
%TO.P,C8,2*%
%TO.N,GND*%
X16325000Y-15275000D03*
%TD*%
D21*
%TO.P,R3,1*%
%TO.N,Net-(U1-USB_DP)*%
X20655000Y-10040001D03*
%TO.P,R3,2*%
%TO.N,D+*%
X20655000Y-9020001D03*
%TD*%
%TO.P,R7,1*%
%TO.N,GND*%
X4835000Y-16500000D03*
%TO.P,R7,2*%
%TO.N,LED_EN*%
X4835000Y-15480000D03*
%TD*%
D27*
%TO.P,C15,1*%
%TO.N,+3V3*%
X19610000Y-17705000D03*
%TO.P,C15,2*%
%TO.N,GND*%
X19610000Y-16745000D03*
%TD*%
D24*
%TO.P,J5,1,Pin_1*%
%TO.N,D+*%
X22350000Y-9740000D03*
D25*
%TO.P,J5,2,Pin_2*%
%TO.N,D-*%
X22350000Y-11290000D03*
%TD*%
D10*
%TO.P,J3,1,Pin_1*%
%TO.N,NS_RST*%
X11255000Y-17340000D03*
D20*
%TO.P,J3,2,Pin_2*%
%TO.N,NS_CLK*%
X12805000Y-17340000D03*
%TD*%
D28*
%TO.P,J12,1,Pin_1*%
%TO.N,PAD_21*%
X10500000Y-12870000D03*
%TO.P,J12,2,Pin_2*%
%TO.N,+3V3*%
X10900000Y-12870000D03*
%TO.P,J12,3,Pin_3*%
%TO.N,PAD_22*%
X11300000Y-12870000D03*
%TO.P,J12,4,Pin_4*%
%TO.N,PAD_23*%
X11700000Y-12870000D03*
%TO.P,J12,5,Pin_5*%
%TO.N,PAD_24*%
X12100000Y-12870000D03*
%TO.P,J12,6,Pin_6*%
%TO.N,PAD_25*%
X12500000Y-12870000D03*
%TD*%
D29*
%TO.P,L1,1,1*%
%TO.N,+3V3*%
X20892000Y-17225000D03*
%TO.P,L1,2,2*%
%TO.N,Net-(U4-SW)*%
X22548000Y-17225000D03*
%TD*%
D30*
%TO.P,U3,1,VCCB*%
%TO.N,+5V*%
X1595000Y-14906000D03*
%TO.P,U3,2,B1*%
%TO.N,LED_CLK_5V*%
X2245000Y-14906000D03*
%TO.P,U3,3,B2*%
%TO.N,LED_DATA_5V*%
X2895000Y-14906000D03*
%TO.P,U3,4,OE*%
%TO.N,LED_EN*%
X3545000Y-14906000D03*
%TO.P,U3,5,GND*%
%TO.N,GND*%
X3545000Y-12484000D03*
%TO.P,U3,6,A2*%
%TO.N,LED_DATA*%
X2895000Y-12484000D03*
%TO.P,U3,7,A1*%
%TO.N,LED_CLK*%
X2245000Y-12484000D03*
%TO.P,U3,8,VCCA*%
%TO.N,+3V3*%
X1595000Y-12484000D03*
%TD*%
D31*
%TO.P,SW1,1,1*%
%TO.N,BOOT*%
X20095000Y-1670000D03*
%TO.P,SW1,2,2*%
%TO.N,GND*%
X16895000Y-1670000D03*
%TD*%
D23*
%TO.P,C9,1*%
%TO.N,+3V3*%
X15700000Y-12335000D03*
%TO.P,C9,2*%
%TO.N,GND*%
X15700000Y-13295000D03*
%TD*%
D21*
%TO.P,R1,1*%
%TO.N,Net-(X1-OSC1)*%
X5110000Y-9585000D03*
%TO.P,R1,2*%
%TO.N,XOUT*%
X5110000Y-8565000D03*
%TD*%
D32*
%TO.P,X1,1,OSC1*%
%TO.N,Net-(X1-OSC1)*%
X3630000Y-9120000D03*
%TO.P,X1,2,2*%
%TO.N,GND*%
X3630000Y-6920000D03*
%TO.P,X1,3,OSC2*%
%TO.N,XIN*%
X1880000Y-6920000D03*
%TO.P,X1,4,4*%
%TO.N,GND*%
X1880000Y-9120000D03*
%TD*%
D33*
%TO.P,U4,1,SW*%
%TO.N,Net-(U4-SW)*%
X22509000Y-15254000D03*
%TO.P,U4,2,GND*%
%TO.N,GND*%
X22509000Y-14304000D03*
%TO.P,U4,3,NC*%
%TO.N,unconnected-(U4-NC-Pad3)*%
X22509000Y-13352000D03*
%TO.P,U4,4,VOUT*%
%TO.N,+5V*%
X19921000Y-13352000D03*
%TO.P,U4,5,NC*%
%TO.N,unconnected-(U4-NC-Pad5)*%
X19921000Y-15252000D03*
%TD*%
D23*
%TO.P,C13,1*%
%TO.N,+3V3*%
X5115000Y-10575000D03*
%TO.P,C13,2*%
%TO.N,GND*%
X5115000Y-11535000D03*
%TD*%
D12*
%TO.P,R5,1*%
%TO.N,BOOT*%
X20665000Y-3095000D03*
%TO.P,R5,2*%
%TO.N,QSPI_CS*%
X20665000Y-4115000D03*
%TD*%
D13*
%TO.P,C10,1*%
%TO.N,+3V3*%
X18650000Y-9800000D03*
%TO.P,C10,2*%
%TO.N,GND*%
X19610000Y-9800000D03*
%TD*%
D27*
%TO.P,C6,1*%
%TO.N,GND*%
X16745000Y-13295000D03*
%TO.P,C6,2*%
%TO.N,+3V3*%
X16745000Y-12335000D03*
%TD*%
D12*
%TO.P,R10,1*%
%TO.N,Net-(U1-GPIO28_ADC2)*%
X13769000Y-14285000D03*
%TO.P,R10,2*%
%TO.N,NS_CMD*%
X13769000Y-15305000D03*
%TD*%
D21*
%TO.P,R6,1*%
%TO.N,+3V3*%
X20665000Y-6100000D03*
%TO.P,R6,2*%
%TO.N,QSPI_CS*%
X20665000Y-5080000D03*
%TD*%
D13*
%TO.P,C1,1*%
%TO.N,GND*%
X2285000Y-10555000D03*
%TO.P,C1,2*%
%TO.N,Net-(X1-OSC1)*%
X3245000Y-10555000D03*
%TD*%
D34*
%TO.N,GND*%
X1260000Y-5450000D03*
X14070000Y-10350000D03*
X9685000Y-5995000D03*
X18630000Y-5050000D03*
X1250000Y-10600000D03*
X2880000Y-1240000D03*
X4170000Y-10570000D03*
X21210000Y-14295000D03*
X4795000Y-17900000D03*
X4210000Y-5470000D03*
X5115000Y-12355000D03*
%TO.N,+3V3*%
X14495000Y-3430000D03*
X11320000Y-3315000D03*
X14795000Y-12925000D03*
X6165000Y-8595000D03*
X7905000Y-14675000D03*
X17640000Y-9615000D03*
X16445000Y-11420000D03*
X17585000Y-17705000D03*
X10070000Y-13460000D03*
%TO.N,RST*%
X7720000Y-11600000D03*
%TO.N,+1V1*%
X6550000Y-9350000D03*
X17325000Y-8705000D03*
X17615000Y-11790000D03*
%TO.N,+5V*%
X18281000Y-13514000D03*
X1605000Y-13700000D03*
%TD*%
D35*
%TO.N,GND*%
X3630000Y-5875000D02*
X3630000Y-6920000D01*
X3230000Y-5475000D02*
X3630000Y-5875000D01*
X2285000Y-10555000D02*
X1880000Y-10150000D01*
X1880000Y-10150000D02*
X1880000Y-9120000D01*
D36*
%TO.N,+3V3*%
X14780000Y-12330000D02*
X14495000Y-12045000D01*
X10895000Y-3740000D02*
X10895000Y-4655000D01*
X16455000Y-11410000D02*
X16445000Y-11420000D01*
X10070000Y-13460000D02*
X10570000Y-13960000D01*
X1730000Y-11240000D02*
X4375000Y-11240000D01*
X6165000Y-8595000D02*
X5805000Y-8955000D01*
X16740000Y-12330000D02*
X15380000Y-12330000D01*
X16620000Y-14315000D02*
X16325000Y-14315000D01*
D37*
X17585000Y-17705000D02*
X19610000Y-17705000D01*
D36*
X14615000Y-3310000D02*
X15310000Y-3310000D01*
X1595000Y-11375000D02*
X1730000Y-11240000D01*
X15380000Y-12330000D02*
X14780000Y-12330000D01*
X16740000Y-11715000D02*
X16740000Y-12330000D01*
D37*
X19610000Y-17705000D02*
X20412000Y-17705000D01*
D36*
X14795000Y-12925000D02*
X14495000Y-12625000D01*
X15445000Y-10405000D02*
X16040000Y-10405000D01*
D37*
X20665000Y-7075000D02*
X21376879Y-6363121D01*
D36*
X14495000Y-3430000D02*
X14615000Y-3310000D01*
X6165000Y-8595000D02*
X6355000Y-8405000D01*
X17263431Y-9615000D02*
X16053431Y-8405000D01*
X16040000Y-10405000D02*
X16455000Y-10820000D01*
X16445000Y-11420000D02*
X16740000Y-11715000D01*
X5805000Y-8955000D02*
X5805000Y-9865000D01*
X15445000Y-12080000D02*
X15700000Y-12335000D01*
X5805000Y-9865000D02*
X5115000Y-10555000D01*
X17585000Y-17705000D02*
X16950000Y-17070000D01*
X16950000Y-14645000D02*
X16620000Y-14315000D01*
X1595000Y-12484000D02*
X1595000Y-11375000D01*
X15445000Y-8405000D02*
X15445000Y-8805000D01*
X14495000Y-3430000D02*
X14495000Y-4655000D01*
D35*
X7905000Y-14675000D02*
X7905000Y-13680000D01*
D36*
X17640000Y-9615000D02*
X17825000Y-9800000D01*
X20540500Y-7199500D02*
X19365000Y-7199500D01*
X10570000Y-13960000D02*
X10570000Y-14310000D01*
D37*
X20412000Y-17705000D02*
X20892000Y-17225000D01*
D36*
X6355000Y-8405000D02*
X8345000Y-8405000D01*
D37*
X20665000Y-6100000D02*
X20665000Y-7075000D01*
D36*
X11320000Y-3315000D02*
X10895000Y-3740000D01*
X15445000Y-10805000D02*
X15445000Y-12080000D01*
X10895000Y-13245000D02*
X10895000Y-11755000D01*
X17825000Y-9800000D02*
X18650000Y-9800000D01*
X16950000Y-17070000D02*
X16950000Y-14645000D01*
X16053431Y-8405000D02*
X15445000Y-8405000D01*
X4375000Y-11240000D02*
X5040000Y-10575000D01*
X17640000Y-9615000D02*
X17263431Y-9615000D01*
X16455000Y-10820000D02*
X16455000Y-11410000D01*
X11320000Y-3315000D02*
X12130000Y-3315000D01*
X10680000Y-13460000D02*
X10895000Y-13245000D01*
X14495000Y-12625000D02*
X14495000Y-11755000D01*
X10070000Y-13460000D02*
X10680000Y-13460000D01*
D37*
X21376879Y-6363121D02*
X22189248Y-6363121D01*
D36*
%TO.N,BOOT*%
X22189248Y-2553121D02*
X21206879Y-2553121D01*
X21206879Y-2553121D02*
X20665000Y-3095000D01*
X20665000Y-3095000D02*
X20665000Y-2240000D01*
X20665000Y-2240000D02*
X20095000Y-1670000D01*
D35*
%TO.N,RST*%
X7905000Y-11785000D02*
X7905000Y-12660000D01*
X7555000Y-11435000D02*
X7555000Y-10065000D01*
X7555000Y-10065000D02*
X7615000Y-10005000D01*
X7720000Y-11600000D02*
X7555000Y-11435000D01*
X7615000Y-10005000D02*
X8345000Y-10005000D01*
X7720000Y-11600000D02*
X7905000Y-11785000D01*
D36*
%TO.N,+1V1*%
X6170000Y-9730000D02*
X6170000Y-10580000D01*
X17095000Y-11275000D02*
X17610000Y-11790000D01*
X17610000Y-11790000D02*
X17615000Y-11790000D01*
X7095000Y-8805000D02*
X8345000Y-8805000D01*
X16905000Y-8705000D02*
X16205000Y-8005000D01*
X6550000Y-9350000D02*
X6170000Y-9730000D01*
X6550000Y-9350000D02*
X7095000Y-8805000D01*
X17325000Y-8705000D02*
X16905000Y-8705000D01*
X17615000Y-11795000D02*
X17900000Y-12080000D01*
X17900000Y-12080000D02*
X18655000Y-12080000D01*
X17325000Y-8705000D02*
X18650000Y-8705000D01*
X17615000Y-11790000D02*
X17615000Y-11795000D01*
X15445000Y-10005000D02*
X16191543Y-10005000D01*
X16205000Y-8005000D02*
X15445000Y-8005000D01*
X16191543Y-10005000D02*
X17095000Y-10908457D01*
X17095000Y-10908457D02*
X17095000Y-11275000D01*
D35*
%TO.N,D-*%
X20655000Y-12060000D02*
X21580000Y-12060000D01*
X21580000Y-12060000D02*
X22350000Y-11290000D01*
%TO.N,D+*%
X21630001Y-9020001D02*
X22350000Y-9740000D01*
X20655000Y-9020001D02*
X21630001Y-9020001D01*
%TO.N,XIN*%
X8345000Y-7605000D02*
X4875000Y-7605000D01*
X1880000Y-6920000D02*
X1880000Y-5865000D01*
X4875000Y-7605000D02*
X4455000Y-8025000D01*
X2880000Y-8025000D02*
X1880000Y-7025000D01*
X4455000Y-8025000D02*
X2880000Y-8025000D01*
X1880000Y-5865000D02*
X2270000Y-5475000D01*
%TO.N,Net-(X1-OSC1)*%
X4645000Y-9120000D02*
X3630000Y-9120000D01*
X3630000Y-9120000D02*
X3630000Y-10170000D01*
X3630000Y-10170000D02*
X3245000Y-10555000D01*
X5110000Y-9585000D02*
X4645000Y-9120000D01*
D37*
%TO.N,+5V*%
X17535000Y-14645000D02*
X17535000Y-15695000D01*
X17535000Y-15695000D02*
X17535000Y-16745000D01*
X18281000Y-13514000D02*
X17535000Y-14260000D01*
X1605000Y-14896000D02*
X1595000Y-14906000D01*
D36*
X919500Y-15581500D02*
X919500Y-16650000D01*
D37*
X1605000Y-13700000D02*
X1605000Y-14896000D01*
D36*
X919500Y-16650000D02*
X1319500Y-17050000D01*
D37*
X17535000Y-14260000D02*
X17535000Y-14645000D01*
X19926000Y-13514000D02*
X18281000Y-13514000D01*
D36*
X1595000Y-14906000D02*
X919500Y-15581500D01*
D38*
%TO.N,Net-(U4-SW)*%
X22514000Y-15416000D02*
X22514000Y-17191000D01*
D35*
%TO.N,LED_DATA_5V*%
X2895000Y-14966000D02*
X2895000Y-15757000D01*
X2895000Y-15757000D02*
X3388000Y-16250000D01*
%TO.N,LED_CLK_5V*%
X2245000Y-15697000D02*
X1692000Y-16250000D01*
X2245000Y-14966000D02*
X2245000Y-15697000D01*
%TO.N,XOUT*%
X5670000Y-8005000D02*
X5110000Y-8565000D01*
X8345000Y-8005000D02*
X5670000Y-8005000D01*
%TO.N,Net-(U1-USB_DP)*%
X15445000Y-9205000D02*
X16372599Y-9205000D01*
X20345001Y-10350000D02*
X20655000Y-10040001D01*
X16372599Y-9205000D02*
X17517599Y-10350000D01*
X17517599Y-10350000D02*
X20345001Y-10350000D01*
%TO.N,Net-(U1-USB_DM)*%
X15445000Y-9605000D02*
X16355832Y-9605000D01*
X16355832Y-9605000D02*
X17790832Y-11040000D01*
X17790832Y-11040000D02*
X20655000Y-11040000D01*
%TO.N,QSPI_CS*%
X19365000Y-3850000D02*
X19365000Y-4185500D01*
X16860000Y-4780000D02*
X16860000Y-3450000D01*
X18540000Y-3025000D02*
X19365000Y-3850000D01*
X15445000Y-5605000D02*
X16035000Y-5605000D01*
X16035000Y-5605000D02*
X16860000Y-4780000D01*
X19365000Y-4185500D02*
X20665000Y-4185500D01*
X17285000Y-3025000D02*
X18540000Y-3025000D01*
X20665000Y-4185500D02*
X20665000Y-5080000D01*
X16860000Y-3450000D02*
X17285000Y-3025000D01*
%TO.N,LED_EN*%
X8575000Y-12475000D02*
X8575000Y-14840000D01*
X9295000Y-11755000D02*
X8575000Y-12475000D01*
X7935000Y-15480000D02*
X4119000Y-15480000D01*
X4119000Y-15480000D02*
X3545000Y-14906000D01*
X8575000Y-14840000D02*
X7935000Y-15480000D01*
%TO.N,QSPI_SD3*%
X18365122Y-8029500D02*
X18865000Y-7529622D01*
X16979500Y-8029500D02*
X18365122Y-8029500D01*
X18865000Y-7529622D02*
X18865000Y-7199500D01*
X15445000Y-7605000D02*
X16555000Y-7605000D01*
X16555000Y-7605000D02*
X16979500Y-8029500D01*
%TO.N,QSPI_SCK*%
X18365000Y-7619500D02*
X18365000Y-7199500D01*
X17194500Y-7739500D02*
X18245000Y-7739500D01*
X18245000Y-7739500D02*
X18365000Y-7619500D01*
X15445000Y-7205000D02*
X16660000Y-7205000D01*
X16660000Y-7205000D02*
X17194500Y-7739500D01*
%TO.N,QSPI_SD0*%
X16720000Y-6805000D02*
X17114500Y-7199500D01*
X15445000Y-6805000D02*
X16720000Y-6805000D01*
X17114500Y-7199500D02*
X17865000Y-7199500D01*
%TO.N,QSPI_SD2*%
X15445000Y-6405000D02*
X16315000Y-6405000D01*
X17525500Y-3605000D02*
X18070000Y-3605000D01*
X18070000Y-3605000D02*
X18365000Y-3900000D01*
X17425000Y-3705500D02*
X17525500Y-3605000D01*
X17425000Y-5295000D02*
X17425000Y-3705500D01*
X16315000Y-6405000D02*
X17425000Y-5295000D01*
X18365000Y-3900000D02*
X18365000Y-4185500D01*
%TO.N,QSPI_SD1*%
X17405378Y-3315000D02*
X18414500Y-3315000D01*
X18414500Y-3315000D02*
X18865000Y-3765500D01*
X15445000Y-6005000D02*
X16304878Y-6005000D01*
X17135000Y-3585378D02*
X17405378Y-3315000D01*
X18865000Y-3765500D02*
X18865000Y-4185500D01*
X16304878Y-6005000D02*
X17135000Y-5174878D01*
X17135000Y-5174878D02*
X17135000Y-3585378D01*
D36*
%TO.N,NS_RST*%
X11255000Y-15697000D02*
X11255000Y-17340000D01*
X11647000Y-15305000D02*
X11255000Y-15697000D01*
%TO.N,NS_CLK*%
X12708000Y-17243000D02*
X12805000Y-17340000D01*
X12708000Y-15305000D02*
X12708000Y-17243000D01*
%TO.N,NS_CMD*%
X14415000Y-15951000D02*
X14415000Y-17340000D01*
X13769000Y-15305000D02*
X14415000Y-15951000D01*
%TO.N,NS_D0*%
X14830000Y-15305000D02*
X15965000Y-16440000D01*
X15965000Y-16440000D02*
X15965000Y-17340000D01*
D35*
%TO.N,DBG_CLK*%
X6410000Y-12415000D02*
X6065000Y-12415000D01*
X6065000Y-12415000D02*
X5035000Y-13445000D01*
X7594756Y-9205000D02*
X6765000Y-10034756D01*
X5035000Y-13445000D02*
X5035000Y-13795000D01*
X8345000Y-9205000D02*
X7594756Y-9205000D01*
X6765000Y-10034756D02*
X6765000Y-12060000D01*
X6765000Y-12060000D02*
X6410000Y-12415000D01*
%TO.N,DBG_DAT*%
X7604878Y-9605000D02*
X7060000Y-10149878D01*
X8345000Y-9605000D02*
X7604878Y-9605000D01*
X7060000Y-10149878D02*
X7060000Y-13320000D01*
X7060000Y-13320000D02*
X6585000Y-13795000D01*
D36*
%TO.N,Net-(U1-GPIO26_ADC0)*%
X12895000Y-13145000D02*
X11755000Y-14285000D01*
X11755000Y-14285000D02*
X11647000Y-14285000D01*
X12895000Y-11755000D02*
X12895000Y-13145000D01*
%TO.N,Net-(U1-GPIO27_ADC1)*%
X13295000Y-11755000D02*
X13295000Y-13698000D01*
X13295000Y-13698000D02*
X12708000Y-14285000D01*
%TO.N,Net-(U1-GPIO28_ADC2)*%
X13695000Y-14211000D02*
X13769000Y-14285000D01*
X13695000Y-11755000D02*
X13695000Y-14211000D01*
%TO.N,Net-(U1-GPIO29_ADC3)*%
X14095000Y-13550000D02*
X14830000Y-14285000D01*
X14095000Y-11755000D02*
X14095000Y-13550000D01*
%TO.N,NS_CPU*%
X8345000Y-6805000D02*
X6395000Y-6805000D01*
X3740000Y-4150000D02*
X1615000Y-4150000D01*
X6395000Y-6805000D02*
X3740000Y-4150000D01*
%TO.N,NS_SDA*%
X5530000Y-2805000D02*
X5530000Y-1605000D01*
X8330000Y-5605000D02*
X5530000Y-2805000D01*
%TO.N,NS_SCL*%
X8345000Y-6005000D02*
X7615000Y-6005000D01*
X7615000Y-6005000D02*
X3980000Y-2370000D01*
%TO.N,NS_CPU_PD*%
X1040000Y-1195000D02*
X1040000Y-2025000D01*
X6815000Y-6405000D02*
X3565000Y-3155000D01*
X8345000Y-6405000D02*
X6815000Y-6405000D01*
X2170000Y-3155000D02*
X1615000Y-2600000D01*
X1040000Y-2025000D02*
X1615000Y-2600000D01*
X3565000Y-3155000D02*
X2170000Y-3155000D01*
%TO.N,NS_10*%
X8675001Y-2585001D02*
X8675001Y-1605000D01*
X9695000Y-4655000D02*
X9695000Y-3605000D01*
X9695000Y-3605000D02*
X8675001Y-2585001D01*
%TO.N,NS_11*%
X9295000Y-4185000D02*
X7125001Y-2015001D01*
X9295000Y-4655000D02*
X9295000Y-4185000D01*
%TO.N,NS_8*%
X10495000Y-4655000D02*
X10495000Y-3380000D01*
X11840000Y-2035000D02*
X11840000Y-1605000D01*
X10495000Y-3380000D02*
X11840000Y-2035000D01*
%TO.N,NS_9*%
X10095000Y-4655000D02*
X10095000Y-1800000D01*
X10095000Y-1800000D02*
X10290000Y-1605000D01*
%TO.N,NS_19*%
X9695000Y-11755000D02*
X9695000Y-12440000D01*
X8065000Y-16350000D02*
X8065000Y-17340000D01*
X9050000Y-15365000D02*
X8065000Y-16350000D01*
X9050000Y-13085000D02*
X9050000Y-15365000D01*
X9695000Y-12440000D02*
X9050000Y-13085000D01*
%TO.N,NS_20*%
X9470000Y-13225000D02*
X9470000Y-17195000D01*
X10095000Y-12600000D02*
X9470000Y-13225000D01*
X9470000Y-17195000D02*
X9615000Y-17340000D01*
X10095000Y-11755000D02*
X10095000Y-12600000D01*
%TO.N,PAD_21*%
X10495000Y-11755000D02*
X10495000Y-12795000D01*
%TO.N,PAD_22*%
X11295000Y-11755000D02*
X11295000Y-12795000D01*
%TO.N,PAD_23*%
X11695000Y-11755000D02*
X11695000Y-12795000D01*
%TO.N,PAD_24*%
X12095000Y-11755000D02*
X12095000Y-12795000D01*
%TO.N,PAD_25*%
X12495000Y-11755000D02*
X12495000Y-12795000D01*
%TD*%
%TA.AperFunction,Conductor*%
%TO.N,GND*%
G36*
X4601611Y-9273752D02*
G01*
X4681790Y-9353931D01*
X4696142Y-9388579D01*
X4695201Y-9398136D01*
X4689500Y-9426803D01*
X4689500Y-9743197D01*
X4703163Y-9811887D01*
X4704949Y-9814560D01*
X4755214Y-9889786D01*
X4801181Y-9920500D01*
X4833112Y-9941836D01*
X4901802Y-9955500D01*
X4901804Y-9955500D01*
X5318191Y-9955500D01*
X5318196Y-9955500D01*
X5320113Y-9955118D01*
X5322032Y-9955500D01*
X5323022Y-9955500D01*
X5323022Y-9955696D01*
X5356894Y-9962431D01*
X5377733Y-9993612D01*
X5370420Y-10030395D01*
X5364323Y-10037824D01*
X5222000Y-10180148D01*
X5187352Y-10194500D01*
X4921309Y-10194500D01*
X4851162Y-10208453D01*
X4771609Y-10261609D01*
X4718453Y-10341162D01*
X4704500Y-10411309D01*
X4704500Y-10622352D01*
X4690148Y-10657000D01*
X4310900Y-11036248D01*
X4276252Y-11050600D01*
X3478367Y-11050600D01*
X3443719Y-11036248D01*
X3429367Y-11001600D01*
X3443719Y-10966952D01*
X3468807Y-10953542D01*
X3475971Y-10952116D01*
X3478839Y-10951546D01*
X3558391Y-10898391D01*
X3611546Y-10818839D01*
X3625500Y-10748688D01*
X3625500Y-10391937D01*
X3639852Y-10357289D01*
X3689483Y-10307658D01*
X3741546Y-10255595D01*
X3741546Y-10255593D01*
X3745578Y-10251562D01*
X3745579Y-10251559D01*
X3754982Y-10242158D01*
X3758230Y-10230034D01*
X3763127Y-10218214D01*
X3763262Y-10217981D01*
X3769399Y-10207352D01*
X3769399Y-10194059D01*
X3769400Y-10194050D01*
X3769400Y-9969499D01*
X3783752Y-9934851D01*
X3818400Y-9920499D01*
X4239898Y-9920499D01*
X4269213Y-9914669D01*
X4288032Y-9902095D01*
X4302457Y-9892457D01*
X4324669Y-9859213D01*
X4330500Y-9829899D01*
X4330500Y-9308400D01*
X4344852Y-9273752D01*
X4379500Y-9259400D01*
X4566963Y-9259400D01*
X4601611Y-9273752D01*
G37*
%TD.AperFunction*%
%TA.AperFunction,Conductor*%
G36*
X23955648Y-44352D02*
G01*
X23970000Y-79000D01*
X23970000Y-18921000D01*
X23955648Y-18955648D01*
X23921000Y-18970000D01*
X79000Y-18970000D01*
X44352Y-18955648D01*
X30000Y-18921000D01*
X30000Y-18059897D01*
X1019000Y-18059897D01*
X1024830Y-18089213D01*
X1047042Y-18122456D01*
X1047043Y-18122457D01*
X1080287Y-18144669D01*
X1109601Y-18150500D01*
X2274398Y-18150499D01*
X2303713Y-18144669D01*
X2336957Y-18122457D01*
X2359169Y-18089213D01*
X2365000Y-18059899D01*
X2365000Y-18059897D01*
X2715000Y-18059897D01*
X2720830Y-18089213D01*
X2743042Y-18122456D01*
X2743043Y-18122457D01*
X2776287Y-18144669D01*
X2805601Y-18150500D01*
X3970398Y-18150499D01*
X3999713Y-18144669D01*
X4032957Y-18122457D01*
X4055169Y-18089213D01*
X4061000Y-18059899D01*
X4060999Y-17640102D01*
X4055169Y-17610787D01*
X4055169Y-17610786D01*
X4032957Y-17577543D01*
X4032956Y-17577542D01*
X3999713Y-17555331D01*
X3999712Y-17555330D01*
X3999711Y-17555330D01*
X3970400Y-17549500D01*
X2805602Y-17549500D01*
X2776286Y-17555330D01*
X2743043Y-17577542D01*
X2720830Y-17610788D01*
X2715000Y-17640099D01*
X2715000Y-18059897D01*
X2365000Y-18059897D01*
X2364999Y-17640102D01*
X2359169Y-17610787D01*
X2359169Y-17610786D01*
X2336957Y-17577543D01*
X2336956Y-17577542D01*
X2303713Y-17555331D01*
X2303712Y-17555330D01*
X2303711Y-17555330D01*
X2274400Y-17549500D01*
X1109602Y-17549500D01*
X1080286Y-17555330D01*
X1047043Y-17577542D01*
X1024830Y-17610788D01*
X1019000Y-17640099D01*
X1019000Y-18059897D01*
X30000Y-18059897D01*
X30000Y-16628248D01*
X726451Y-16628248D01*
X729792Y-16657901D01*
X730100Y-16663387D01*
X730100Y-16671340D01*
X731868Y-16679089D01*
X732788Y-16684502D01*
X736131Y-16714164D01*
X737581Y-16716471D01*
X743861Y-16731632D01*
X744468Y-16734291D01*
X756597Y-16749500D01*
X763072Y-16757620D01*
X766250Y-16762100D01*
X770482Y-16768835D01*
X776102Y-16774455D01*
X779763Y-16778551D01*
X791381Y-16793118D01*
X798374Y-16801887D01*
X800831Y-16803070D01*
X814216Y-16812568D01*
X1004648Y-17003000D01*
X1019000Y-17037648D01*
X1019000Y-17259897D01*
X1024830Y-17289213D01*
X1047042Y-17322456D01*
X1047043Y-17322457D01*
X1080287Y-17344669D01*
X1109601Y-17350500D01*
X2274398Y-17350499D01*
X2303713Y-17344669D01*
X2336957Y-17322457D01*
X2359169Y-17289213D01*
X2365000Y-17259899D01*
X2364999Y-16840102D01*
X2359169Y-16810787D01*
X2359169Y-16810786D01*
X2336957Y-16777543D01*
X2332335Y-16774455D01*
X2303713Y-16755331D01*
X2303712Y-16755330D01*
X2303711Y-16755330D01*
X2274401Y-16749500D01*
X2274399Y-16749500D01*
X1307148Y-16749500D01*
X1272500Y-16735148D01*
X1171500Y-16634147D01*
X1157148Y-16599499D01*
X1171500Y-16564851D01*
X1206145Y-16550499D01*
X2274398Y-16550499D01*
X2303713Y-16544669D01*
X2336957Y-16522457D01*
X2359169Y-16489213D01*
X2365000Y-16459899D01*
X2364999Y-16040102D01*
X2359169Y-16010787D01*
X2359169Y-16010786D01*
X2336957Y-15977543D01*
X2329780Y-15972748D01*
X2303713Y-15955331D01*
X2303710Y-15955330D01*
X2293611Y-15953321D01*
X2262429Y-15932485D01*
X2255114Y-15895702D01*
X2268521Y-15870619D01*
X2356546Y-15782595D01*
X2356546Y-15782593D01*
X2360580Y-15778560D01*
X2360581Y-15778558D01*
X2369982Y-15769158D01*
X2373230Y-15757034D01*
X2378127Y-15745214D01*
X2384399Y-15734352D01*
X2384399Y-15721059D01*
X2384400Y-15721050D01*
X2384400Y-15611511D01*
X2398752Y-15576863D01*
X2411561Y-15567647D01*
X2418193Y-15564345D01*
X2489346Y-15486293D01*
X2525980Y-15391728D01*
X2551879Y-15364606D01*
X2589372Y-15363740D01*
X2616496Y-15389639D01*
X2619837Y-15400427D01*
X2627013Y-15438817D01*
X2682614Y-15528615D01*
X2736128Y-15569028D01*
X2755129Y-15601362D01*
X2755599Y-15608131D01*
X2755599Y-15783299D01*
X2755601Y-15783304D01*
X2755601Y-15794354D01*
X2761874Y-15805218D01*
X2766769Y-15817035D01*
X2770016Y-15829155D01*
X2770019Y-15829160D01*
X2783446Y-15842588D01*
X2783454Y-15842595D01*
X2811474Y-15870615D01*
X2825826Y-15905263D01*
X2811474Y-15939911D01*
X2786385Y-15953321D01*
X2776288Y-15955329D01*
X2743043Y-15977542D01*
X2720830Y-16010788D01*
X2715000Y-16040099D01*
X2715000Y-16459897D01*
X2720830Y-16489213D01*
X2743042Y-16522456D01*
X2743043Y-16522457D01*
X2776287Y-16544669D01*
X2805601Y-16550500D01*
X3970398Y-16550499D01*
X3999713Y-16544669D01*
X4032957Y-16522457D01*
X4055169Y-16489213D01*
X4061000Y-16459899D01*
X4060999Y-16040102D01*
X4055169Y-16010787D01*
X4055169Y-16010786D01*
X4032957Y-15977543D01*
X4004960Y-15958837D01*
X3999713Y-15955331D01*
X3999712Y-15955330D01*
X3999711Y-15955330D01*
X3970401Y-15949500D01*
X3970399Y-15949500D01*
X3304937Y-15949500D01*
X3270289Y-15935148D01*
X3048752Y-15713611D01*
X3034400Y-15678963D01*
X3034400Y-15611511D01*
X3048752Y-15576863D01*
X3061561Y-15567647D01*
X3068193Y-15564345D01*
X3139346Y-15486293D01*
X3175980Y-15391728D01*
X3201879Y-15364606D01*
X3239372Y-15363740D01*
X3266496Y-15389639D01*
X3269837Y-15400427D01*
X3277013Y-15438817D01*
X3332614Y-15528615D01*
X3416896Y-15592263D01*
X3416897Y-15592263D01*
X3416898Y-15592264D01*
X3518483Y-15621167D01*
X3623649Y-15611422D01*
X3718193Y-15564345D01*
X3789346Y-15486293D01*
X3800940Y-15456365D01*
X3826837Y-15429242D01*
X3864330Y-15428376D01*
X3881278Y-15439419D01*
X4039024Y-15597166D01*
X4039029Y-15597169D01*
X4046842Y-15604982D01*
X4049966Y-15605819D01*
X4058962Y-15608230D01*
X4070781Y-15613125D01*
X4080889Y-15618961D01*
X4081648Y-15619399D01*
X4092695Y-15619399D01*
X4092701Y-15619400D01*
X4100650Y-15619400D01*
X4156352Y-15619400D01*
X4370548Y-15619400D01*
X4405196Y-15633752D01*
X4418606Y-15658840D01*
X4428163Y-15706887D01*
X4443058Y-15729179D01*
X4480214Y-15784786D01*
X4551120Y-15832164D01*
X4558112Y-15836836D01*
X4626802Y-15850500D01*
X4626804Y-15850500D01*
X5043198Y-15850500D01*
X5089818Y-15841226D01*
X5111888Y-15836836D01*
X5189786Y-15784786D01*
X5241836Y-15706888D01*
X5246466Y-15683611D01*
X5251394Y-15658840D01*
X5272229Y-15627658D01*
X5299452Y-15619400D01*
X7959378Y-15619400D01*
X7959386Y-15619399D01*
X7972352Y-15619399D01*
X7983215Y-15613126D01*
X7995031Y-15608230D01*
X8007158Y-15604982D01*
X8014973Y-15597167D01*
X8014976Y-15597165D01*
X8345890Y-15266251D01*
X8686546Y-14925595D01*
X8686546Y-14925593D01*
X8690578Y-14921562D01*
X8690579Y-14921559D01*
X8699982Y-14912158D01*
X8703230Y-14900034D01*
X8708127Y-14888214D01*
X8710637Y-14883867D01*
X8714399Y-14877352D01*
X8714399Y-14864059D01*
X8714400Y-14864050D01*
X8714400Y-12553036D01*
X8728751Y-12518389D01*
X9010854Y-12236286D01*
X9045500Y-12221935D01*
X9080148Y-12236287D01*
X9094500Y-12270934D01*
X9094500Y-12314897D01*
X9100330Y-12344213D01*
X9122542Y-12377456D01*
X9122543Y-12377457D01*
X9155787Y-12399669D01*
X9185101Y-12405500D01*
X9343352Y-12405499D01*
X9378000Y-12419851D01*
X9392352Y-12454499D01*
X9378000Y-12489147D01*
X8944715Y-12922431D01*
X8931333Y-12931928D01*
X8928873Y-12933112D01*
X8910265Y-12956445D01*
X8906611Y-12960535D01*
X8900984Y-12966163D01*
X8896750Y-12972901D01*
X8893576Y-12977373D01*
X8885975Y-12986905D01*
X8874966Y-13000711D01*
X8874360Y-13003368D01*
X8868083Y-13018525D01*
X8866631Y-13020835D01*
X8863288Y-13050493D01*
X8862370Y-13055897D01*
X8860600Y-13063658D01*
X8860600Y-13071611D01*
X8860292Y-13077097D01*
X8856951Y-13106750D01*
X8857850Y-13109319D01*
X8860600Y-13125504D01*
X8860600Y-15266251D01*
X8846248Y-15300899D01*
X7959715Y-16187431D01*
X7946333Y-16196928D01*
X7943874Y-16198112D01*
X7925578Y-16221053D01*
X7892754Y-16239192D01*
X7887270Y-16239500D01*
X7405102Y-16239500D01*
X7375786Y-16245330D01*
X7342543Y-16267542D01*
X7320330Y-16300788D01*
X7314500Y-16330099D01*
X7314500Y-18349897D01*
X7320330Y-18379213D01*
X7342542Y-18412456D01*
X7342543Y-18412457D01*
X7375787Y-18434669D01*
X7405101Y-18440500D01*
X8724898Y-18440499D01*
X8754213Y-18434669D01*
X8787457Y-18412457D01*
X8809669Y-18379213D01*
X8811185Y-18371590D01*
X8832019Y-18340409D01*
X8868802Y-18333092D01*
X8899984Y-18353926D01*
X8920448Y-18384552D01*
X8986769Y-18428867D01*
X9001389Y-18431775D01*
X9045249Y-18440500D01*
X9045252Y-18440500D01*
X10184751Y-18440500D01*
X10219837Y-18433520D01*
X10243231Y-18428867D01*
X10309552Y-18384552D01*
X10332708Y-18349897D01*
X10504500Y-18349897D01*
X10510330Y-18379213D01*
X10532542Y-18412456D01*
X10532543Y-18412457D01*
X10565787Y-18434669D01*
X10595101Y-18440500D01*
X11914898Y-18440499D01*
X11944213Y-18434669D01*
X11977457Y-18412457D01*
X11999669Y-18379213D01*
X12001185Y-18371590D01*
X12022019Y-18340409D01*
X12058802Y-18333092D01*
X12089984Y-18353926D01*
X12110448Y-18384552D01*
X12176769Y-18428867D01*
X12191389Y-18431775D01*
X12235249Y-18440500D01*
X12235252Y-18440500D01*
X13374751Y-18440500D01*
X13409837Y-18433520D01*
X13433231Y-18428867D01*
X13499552Y-18384552D01*
X13543867Y-18318231D01*
X13555500Y-18259748D01*
X13555500Y-16420252D01*
X13555500Y-16420249D01*
X13543867Y-16361770D01*
X13543867Y-16361769D01*
X13515819Y-16319793D01*
X13499552Y-16295447D01*
X13449923Y-16262286D01*
X13433231Y-16251133D01*
X13433230Y-16251132D01*
X13433229Y-16251132D01*
X13374751Y-16239500D01*
X13374748Y-16239500D01*
X12946400Y-16239500D01*
X12911752Y-16225148D01*
X12897400Y-16190500D01*
X12897400Y-15719451D01*
X12911752Y-15684803D01*
X12936836Y-15671394D01*
X12984888Y-15661836D01*
X13062786Y-15609786D01*
X13114836Y-15531888D01*
X13126197Y-15474773D01*
X13128500Y-15463197D01*
X13348500Y-15463197D01*
X13362163Y-15531887D01*
X13362164Y-15531888D01*
X13414214Y-15609786D01*
X13487628Y-15658840D01*
X13492112Y-15661836D01*
X13560802Y-15675500D01*
X13560804Y-15675500D01*
X13851352Y-15675500D01*
X13886000Y-15689852D01*
X14211248Y-16015100D01*
X14225600Y-16049748D01*
X14225600Y-16190500D01*
X14211248Y-16225148D01*
X14176600Y-16239500D01*
X13755102Y-16239500D01*
X13725786Y-16245330D01*
X13692543Y-16267542D01*
X13670330Y-16300788D01*
X13664500Y-16330099D01*
X13664500Y-18349897D01*
X13670330Y-18379213D01*
X13692542Y-18412456D01*
X13692543Y-18412457D01*
X13725787Y-18434669D01*
X13755101Y-18440500D01*
X15074898Y-18440499D01*
X15104213Y-18434669D01*
X15137457Y-18412457D01*
X15159669Y-18379213D01*
X15161185Y-18371590D01*
X15182019Y-18340409D01*
X15218802Y-18333092D01*
X15249984Y-18353926D01*
X15270448Y-18384552D01*
X15336769Y-18428867D01*
X15351389Y-18431775D01*
X15395249Y-18440500D01*
X15395252Y-18440500D01*
X16534751Y-18440500D01*
X16569837Y-18433520D01*
X16593231Y-18428867D01*
X16659552Y-18384552D01*
X16703867Y-18318231D01*
X16715500Y-18259748D01*
X16715500Y-17221648D01*
X16729852Y-17187000D01*
X16764500Y-17172648D01*
X16799148Y-17187000D01*
X16799151Y-17187002D01*
X16800982Y-17188833D01*
X16800984Y-17188836D01*
X16806605Y-17194457D01*
X16810263Y-17198551D01*
X16815008Y-17204500D01*
X16828874Y-17221887D01*
X16831331Y-17223070D01*
X16844716Y-17232568D01*
X17224373Y-17612225D01*
X17238725Y-17646873D01*
X17238122Y-17654537D01*
X17230130Y-17704998D01*
X17247499Y-17814662D01*
X17297904Y-17913586D01*
X17297905Y-17913587D01*
X17376413Y-17992095D01*
X17408554Y-18008472D01*
X17475337Y-18042500D01*
X17501718Y-18046678D01*
X17585000Y-18059869D01*
X17679667Y-18044874D01*
X17694662Y-18042500D01*
X17734502Y-18022200D01*
X17793587Y-17992095D01*
X17798130Y-17987552D01*
X17832778Y-17973200D01*
X19210222Y-17973200D01*
X19244870Y-17987552D01*
X19250964Y-17994977D01*
X19266609Y-18018391D01*
X19346161Y-18071546D01*
X19363698Y-18075034D01*
X19416309Y-18085500D01*
X19416312Y-18085500D01*
X19803691Y-18085500D01*
X19845778Y-18077127D01*
X19873839Y-18071546D01*
X19953391Y-18018391D01*
X19969035Y-17994977D01*
X20000219Y-17974141D01*
X20009778Y-17973200D01*
X20242501Y-17973200D01*
X20277149Y-17987552D01*
X20291501Y-18022200D01*
X20291501Y-18094898D01*
X20292467Y-18099760D01*
X20297330Y-18124213D01*
X20319542Y-18157456D01*
X20319543Y-18157457D01*
X20352787Y-18179669D01*
X20382101Y-18185500D01*
X21401898Y-18185499D01*
X21431213Y-18179669D01*
X21464457Y-18157457D01*
X21486669Y-18124213D01*
X21492500Y-18094899D01*
X21492499Y-16355102D01*
X21486669Y-16325787D01*
X21486669Y-16325786D01*
X21464457Y-16292543D01*
X21464456Y-16292542D01*
X21431213Y-16270331D01*
X21431212Y-16270330D01*
X21431211Y-16270330D01*
X21401900Y-16264500D01*
X20382102Y-16264500D01*
X20352786Y-16270330D01*
X20319543Y-16292542D01*
X20297330Y-16325788D01*
X20291500Y-16355099D01*
X20291501Y-17387800D01*
X20277149Y-17422448D01*
X20242501Y-17436800D01*
X20009778Y-17436800D01*
X19975130Y-17422448D01*
X19969036Y-17415023D01*
X19953391Y-17391609D01*
X19891867Y-17350500D01*
X19873839Y-17338454D01*
X19873838Y-17338453D01*
X19873837Y-17338453D01*
X19803691Y-17324500D01*
X19803688Y-17324500D01*
X19416312Y-17324500D01*
X19416309Y-17324500D01*
X19346162Y-17338453D01*
X19266608Y-17391609D01*
X19250964Y-17415023D01*
X19219781Y-17435859D01*
X19210222Y-17436800D01*
X17832778Y-17436800D01*
X17798130Y-17422448D01*
X17793587Y-17417905D01*
X17694662Y-17367499D01*
X17584998Y-17350130D01*
X17534537Y-17358122D01*
X17498071Y-17349366D01*
X17492225Y-17344373D01*
X17387000Y-17239148D01*
X17372648Y-17204500D01*
X17387000Y-17169852D01*
X17421648Y-17155500D01*
X17698691Y-17155500D01*
X17740778Y-17147127D01*
X17768839Y-17141546D01*
X17848391Y-17088391D01*
X17901546Y-17008839D01*
X17915500Y-16938688D01*
X17915500Y-16551312D01*
X17915500Y-16551311D01*
X17915500Y-16551309D01*
X17901546Y-16481162D01*
X17901546Y-16481161D01*
X17848391Y-16401609D01*
X17834143Y-16392089D01*
X17824977Y-16385964D01*
X17804141Y-16354781D01*
X17803200Y-16345222D01*
X17803200Y-16094777D01*
X17817552Y-16060129D01*
X17824978Y-16054035D01*
X17831820Y-16049462D01*
X17848391Y-16038391D01*
X17901546Y-15958839D01*
X17912203Y-15905263D01*
X17915500Y-15888690D01*
X17915500Y-15611897D01*
X19270500Y-15611897D01*
X19276330Y-15641213D01*
X19296495Y-15671392D01*
X19298543Y-15674457D01*
X19331787Y-15696669D01*
X19361101Y-15702500D01*
X20480898Y-15702499D01*
X20510213Y-15696669D01*
X20543457Y-15674457D01*
X20565669Y-15641213D01*
X20571103Y-15613897D01*
X21858500Y-15613897D01*
X21864330Y-15643213D01*
X21886542Y-15676456D01*
X21886543Y-15676457D01*
X21919787Y-15698669D01*
X21949101Y-15704500D01*
X22125600Y-15704499D01*
X22160248Y-15718851D01*
X22174600Y-15753499D01*
X22174600Y-16215500D01*
X22160248Y-16250148D01*
X22125601Y-16264500D01*
X22038102Y-16264500D01*
X22008786Y-16270330D01*
X21975543Y-16292542D01*
X21953330Y-16325788D01*
X21947500Y-16355099D01*
X21947500Y-18094897D01*
X21953330Y-18124213D01*
X21975542Y-18157456D01*
X21975543Y-18157457D01*
X22008787Y-18179669D01*
X22038101Y-18185500D01*
X23057898Y-18185499D01*
X23087213Y-18179669D01*
X23120457Y-18157457D01*
X23142669Y-18124213D01*
X23148500Y-18094899D01*
X23148499Y-16355102D01*
X23142669Y-16325787D01*
X23142669Y-16325786D01*
X23120457Y-16292543D01*
X23120456Y-16292542D01*
X23087213Y-16270331D01*
X23087212Y-16270330D01*
X23087211Y-16270330D01*
X23057901Y-16264500D01*
X23057899Y-16264500D01*
X22902400Y-16264500D01*
X22867752Y-16250148D01*
X22853400Y-16215500D01*
X22853400Y-15753499D01*
X22867752Y-15718851D01*
X22902400Y-15704499D01*
X23068898Y-15704499D01*
X23098213Y-15698669D01*
X23112539Y-15689097D01*
X23131457Y-15676457D01*
X23153669Y-15643213D01*
X23159500Y-15613899D01*
X23159499Y-14894102D01*
X23153669Y-14864787D01*
X23153669Y-14864786D01*
X23131457Y-14831543D01*
X23124047Y-14826592D01*
X23098213Y-14809331D01*
X23098212Y-14809330D01*
X23098211Y-14809330D01*
X23068900Y-14803500D01*
X21949102Y-14803500D01*
X21919786Y-14809330D01*
X21886543Y-14831542D01*
X21864330Y-14864788D01*
X21858500Y-14894099D01*
X21858500Y-15613897D01*
X20571103Y-15613897D01*
X20571500Y-15611899D01*
X20571499Y-14892102D01*
X20565669Y-14862787D01*
X20565669Y-14862786D01*
X20543457Y-14829543D01*
X20513206Y-14809331D01*
X20510213Y-14807331D01*
X20510212Y-14807330D01*
X20510211Y-14807330D01*
X20480900Y-14801500D01*
X19361102Y-14801500D01*
X19331786Y-14807330D01*
X19298543Y-14829542D01*
X19276330Y-14862788D01*
X19270500Y-14892099D01*
X19270500Y-15611897D01*
X17915500Y-15611897D01*
X17915500Y-15501309D01*
X17903069Y-15438817D01*
X17901546Y-15431161D01*
X17848391Y-15351609D01*
X17834143Y-15342089D01*
X17824977Y-15335964D01*
X17804141Y-15304781D01*
X17803200Y-15295222D01*
X17803200Y-15044777D01*
X17817552Y-15010129D01*
X17824978Y-15004035D01*
X17831820Y-14999462D01*
X17848391Y-14988391D01*
X17901546Y-14908839D01*
X17908522Y-14873763D01*
X17915500Y-14838690D01*
X17915500Y-14451309D01*
X17901546Y-14381161D01*
X17880462Y-14349606D01*
X17873146Y-14312823D01*
X17886554Y-14287737D01*
X18298762Y-13875528D01*
X18325741Y-13861781D01*
X18390661Y-13851500D01*
X18489587Y-13801095D01*
X18494130Y-13796552D01*
X18528778Y-13782200D01*
X19295269Y-13782200D01*
X19322489Y-13790457D01*
X19331787Y-13796669D01*
X19331789Y-13796670D01*
X19349342Y-13800161D01*
X19361101Y-13802500D01*
X20480898Y-13802499D01*
X20510213Y-13796669D01*
X20543457Y-13774457D01*
X20565669Y-13741213D01*
X20571500Y-13711899D01*
X20571500Y-13711897D01*
X21858500Y-13711897D01*
X21864330Y-13741213D01*
X21878329Y-13762164D01*
X21886543Y-13774457D01*
X21919787Y-13796669D01*
X21949101Y-13802500D01*
X23068898Y-13802499D01*
X23098213Y-13796669D01*
X23131457Y-13774457D01*
X23153669Y-13741213D01*
X23159500Y-13711899D01*
X23159499Y-12992102D01*
X23156143Y-12975226D01*
X23153669Y-12962786D01*
X23131457Y-12929543D01*
X23120813Y-12922431D01*
X23098213Y-12907331D01*
X23098212Y-12907330D01*
X23098211Y-12907330D01*
X23068900Y-12901500D01*
X21949102Y-12901500D01*
X21919786Y-12907330D01*
X21886543Y-12929542D01*
X21864330Y-12962788D01*
X21858500Y-12992099D01*
X21858500Y-13711897D01*
X20571500Y-13711897D01*
X20571499Y-12992102D01*
X20568143Y-12975226D01*
X20565669Y-12962786D01*
X20543457Y-12929543D01*
X20532813Y-12922431D01*
X20510213Y-12907331D01*
X20510212Y-12907330D01*
X20510211Y-12907330D01*
X20480900Y-12901500D01*
X19361102Y-12901500D01*
X19331786Y-12907330D01*
X19298543Y-12929542D01*
X19276330Y-12962788D01*
X19270500Y-12992099D01*
X19270500Y-13196800D01*
X19256148Y-13231448D01*
X19221500Y-13245800D01*
X18528778Y-13245800D01*
X18494130Y-13231448D01*
X18489587Y-13226905D01*
X18390662Y-13176499D01*
X18281000Y-13159131D01*
X18171337Y-13176499D01*
X18072412Y-13226905D01*
X17993905Y-13305412D01*
X17943500Y-13404337D01*
X17933217Y-13469256D01*
X17919468Y-13496238D01*
X17367440Y-14048265D01*
X17360017Y-14054358D01*
X17341638Y-14066638D01*
X17326680Y-14089026D01*
X17326676Y-14089031D01*
X17282360Y-14155354D01*
X17262081Y-14257304D01*
X17241247Y-14288486D01*
X17221609Y-14301607D01*
X17168453Y-14381162D01*
X17154500Y-14451309D01*
X17154500Y-14457627D01*
X17140148Y-14492275D01*
X17105500Y-14506627D01*
X17081762Y-14496794D01*
X17081199Y-14497965D01*
X17068666Y-14491928D01*
X17055282Y-14482430D01*
X16782568Y-14209716D01*
X16773070Y-14196331D01*
X16771887Y-14193874D01*
X16752712Y-14178582D01*
X16735206Y-14149832D01*
X16721546Y-14081162D01*
X16721546Y-14081161D01*
X16668391Y-14001609D01*
X16588839Y-13948454D01*
X16588838Y-13948453D01*
X16588837Y-13948453D01*
X16518691Y-13934500D01*
X16518688Y-13934500D01*
X16131312Y-13934500D01*
X16131309Y-13934500D01*
X16061162Y-13948453D01*
X15981609Y-14001609D01*
X15928453Y-14081162D01*
X15914500Y-14151309D01*
X15914500Y-14478690D01*
X15928453Y-14548837D01*
X15928453Y-14548838D01*
X15928454Y-14548839D01*
X15981609Y-14628391D01*
X16061161Y-14681546D01*
X16078698Y-14685034D01*
X16131309Y-14695500D01*
X16131312Y-14695500D01*
X16518691Y-14695500D01*
X16560778Y-14687127D01*
X16588839Y-14681546D01*
X16633246Y-14651873D01*
X16670027Y-14644557D01*
X16695114Y-14657966D01*
X16746248Y-14709099D01*
X16760600Y-14743747D01*
X16760600Y-16285145D01*
X16746248Y-16319793D01*
X16711600Y-16334145D01*
X16676952Y-16319793D01*
X16670858Y-16312369D01*
X16668210Y-16308406D01*
X16659552Y-16295448D01*
X16593231Y-16251133D01*
X16593230Y-16251132D01*
X16593229Y-16251132D01*
X16534751Y-16239500D01*
X16534748Y-16239500D01*
X16052648Y-16239500D01*
X16018000Y-16225148D01*
X15264852Y-15471999D01*
X15250500Y-15437351D01*
X15250500Y-15146802D01*
X15236836Y-15078112D01*
X15208174Y-15035217D01*
X15184786Y-15000214D01*
X15106888Y-14948164D01*
X15106887Y-14948163D01*
X15038198Y-14934500D01*
X15038196Y-14934500D01*
X14621804Y-14934500D01*
X14621802Y-14934500D01*
X14553112Y-14948163D01*
X14475214Y-15000214D01*
X14423163Y-15078112D01*
X14409500Y-15146802D01*
X14409500Y-15463197D01*
X14423163Y-15531887D01*
X14467793Y-15598680D01*
X14470524Y-15612414D01*
X14486318Y-15617205D01*
X14548628Y-15658840D01*
X14553112Y-15661836D01*
X14621802Y-15675500D01*
X14621804Y-15675500D01*
X14912352Y-15675500D01*
X14947000Y-15689852D01*
X15415003Y-16157855D01*
X15429355Y-16192503D01*
X15415003Y-16227151D01*
X15389915Y-16240561D01*
X15336769Y-16251132D01*
X15270447Y-16295448D01*
X15249984Y-16326072D01*
X15218801Y-16346907D01*
X15182019Y-16339589D01*
X15161184Y-16308406D01*
X15161184Y-16308404D01*
X15159669Y-16300786D01*
X15137457Y-16267543D01*
X15132903Y-16264500D01*
X15104213Y-16245331D01*
X15104212Y-16245330D01*
X15104211Y-16245330D01*
X15074901Y-16239500D01*
X15074899Y-16239500D01*
X14653399Y-16239500D01*
X14618751Y-16225148D01*
X14604399Y-16190500D01*
X14604399Y-16155852D01*
X14604399Y-15991498D01*
X14607148Y-15975324D01*
X14608049Y-15972751D01*
X14604708Y-15943097D01*
X14604400Y-15937611D01*
X14604400Y-15929657D01*
X14602630Y-15921903D01*
X14601710Y-15916492D01*
X14598369Y-15886836D01*
X14598369Y-15886835D01*
X14596921Y-15884531D01*
X14590638Y-15869366D01*
X14590032Y-15866709D01*
X14571424Y-15843375D01*
X14568247Y-15838897D01*
X14564015Y-15832163D01*
X14558396Y-15826544D01*
X14554735Y-15822447D01*
X14536126Y-15799113D01*
X14533666Y-15797928D01*
X14520282Y-15788430D01*
X14424448Y-15692596D01*
X14416511Y-15673437D01*
X14392403Y-15660551D01*
X14203852Y-15471999D01*
X14189500Y-15437351D01*
X14189500Y-15146802D01*
X14175836Y-15078112D01*
X14147174Y-15035217D01*
X14123786Y-15000214D01*
X14045888Y-14948164D01*
X14045887Y-14948163D01*
X13977198Y-14934500D01*
X13977196Y-14934500D01*
X13560804Y-14934500D01*
X13560802Y-14934500D01*
X13492112Y-14948163D01*
X13414214Y-15000214D01*
X13362163Y-15078112D01*
X13348500Y-15146802D01*
X13348500Y-15463197D01*
X13128500Y-15463197D01*
X13128500Y-15146802D01*
X13114836Y-15078112D01*
X13086174Y-15035217D01*
X13062786Y-15000214D01*
X12984888Y-14948164D01*
X12984887Y-14948163D01*
X12916198Y-14934500D01*
X12916196Y-14934500D01*
X12499804Y-14934500D01*
X12499802Y-14934500D01*
X12431112Y-14948163D01*
X12353214Y-15000214D01*
X12301163Y-15078112D01*
X12287500Y-15146802D01*
X12287500Y-15463197D01*
X12301163Y-15531887D01*
X12301164Y-15531888D01*
X12353214Y-15609786D01*
X12397322Y-15639258D01*
X12431110Y-15661835D01*
X12431112Y-15661836D01*
X12479161Y-15671393D01*
X12510342Y-15692228D01*
X12518600Y-15719451D01*
X12518600Y-16190500D01*
X12504248Y-16225148D01*
X12469600Y-16239500D01*
X12235249Y-16239500D01*
X12176770Y-16251132D01*
X12110447Y-16295448D01*
X12089984Y-16326072D01*
X12058801Y-16346907D01*
X12022019Y-16339589D01*
X12001184Y-16308406D01*
X12001184Y-16308404D01*
X11999669Y-16300786D01*
X11977457Y-16267543D01*
X11972903Y-16264500D01*
X11944213Y-16245331D01*
X11944212Y-16245330D01*
X11944211Y-16245330D01*
X11914901Y-16239500D01*
X11914899Y-16239500D01*
X11493400Y-16239500D01*
X11458752Y-16225148D01*
X11444400Y-16190500D01*
X11444400Y-15795747D01*
X11458752Y-15761099D01*
X11530000Y-15689852D01*
X11564648Y-15675500D01*
X11855198Y-15675500D01*
X11906866Y-15665222D01*
X11923888Y-15661836D01*
X12001786Y-15609786D01*
X12053836Y-15531888D01*
X12065197Y-15474773D01*
X12067500Y-15463197D01*
X12067500Y-15146802D01*
X12053836Y-15078112D01*
X12025174Y-15035217D01*
X12001786Y-15000214D01*
X11923888Y-14948164D01*
X11923887Y-14948163D01*
X11855198Y-14934500D01*
X11855196Y-14934500D01*
X11438804Y-14934500D01*
X11438802Y-14934500D01*
X11370112Y-14948163D01*
X11292214Y-15000214D01*
X11240163Y-15078112D01*
X11226500Y-15146802D01*
X11226500Y-15437350D01*
X11212148Y-15471998D01*
X11149715Y-15534431D01*
X11136333Y-15543928D01*
X11133873Y-15545112D01*
X11115265Y-15568445D01*
X11111611Y-15572535D01*
X11105984Y-15578163D01*
X11101750Y-15584901D01*
X11098576Y-15589373D01*
X11096272Y-15592264D01*
X11079966Y-15612711D01*
X11079360Y-15615368D01*
X11073083Y-15630525D01*
X11071631Y-15632835D01*
X11068288Y-15662493D01*
X11067370Y-15667897D01*
X11065600Y-15675658D01*
X11065600Y-15683611D01*
X11065292Y-15689097D01*
X11063288Y-15706888D01*
X11061951Y-15718751D01*
X11062755Y-15721050D01*
X11062850Y-15721319D01*
X11065600Y-15737504D01*
X11065600Y-16190500D01*
X11051248Y-16225148D01*
X11016600Y-16239500D01*
X10595102Y-16239500D01*
X10565786Y-16245330D01*
X10532543Y-16267542D01*
X10510330Y-16300788D01*
X10504500Y-16330099D01*
X10504500Y-18349897D01*
X10332708Y-18349897D01*
X10353867Y-18318231D01*
X10365500Y-18259748D01*
X10365500Y-16420252D01*
X10365500Y-16420249D01*
X10353867Y-16361770D01*
X10353867Y-16361769D01*
X10325819Y-16319793D01*
X10309552Y-16295447D01*
X10259923Y-16262286D01*
X10243231Y-16251133D01*
X10243230Y-16251132D01*
X10243229Y-16251132D01*
X10184751Y-16239500D01*
X10184748Y-16239500D01*
X9708400Y-16239500D01*
X9673752Y-16225148D01*
X9659400Y-16190500D01*
X9659400Y-13630294D01*
X9673752Y-13595646D01*
X9708400Y-13581294D01*
X9743048Y-13595646D01*
X9752059Y-13608048D01*
X9782905Y-13668587D01*
X9861413Y-13747095D01*
X9890988Y-13762164D01*
X9960337Y-13797500D01*
X9983030Y-13801094D01*
X10070000Y-13814869D01*
X10120460Y-13806876D01*
X10156925Y-13815631D01*
X10162772Y-13820625D01*
X10251617Y-13909470D01*
X10265969Y-13944118D01*
X10251617Y-13978766D01*
X10244192Y-13984860D01*
X10226609Y-13996608D01*
X10173453Y-14076162D01*
X10159500Y-14146309D01*
X10159500Y-14473690D01*
X10173453Y-14543837D01*
X10173453Y-14543838D01*
X10173454Y-14543839D01*
X10226609Y-14623391D01*
X10306161Y-14676546D01*
X10323698Y-14680034D01*
X10376309Y-14690500D01*
X10376312Y-14690500D01*
X10763691Y-14690500D01*
X10808702Y-14681546D01*
X10833839Y-14676546D01*
X10913391Y-14623391D01*
X10966546Y-14543839D01*
X10979505Y-14478690D01*
X10980500Y-14473690D01*
X10980500Y-14146309D01*
X10967541Y-14081162D01*
X10966546Y-14076161D01*
X10913391Y-13996609D01*
X10833839Y-13943454D01*
X10833838Y-13943453D01*
X10833837Y-13943453D01*
X10792135Y-13935158D01*
X10760952Y-13914323D01*
X10755336Y-13898968D01*
X10751921Y-13893532D01*
X10745637Y-13878362D01*
X10745032Y-13875709D01*
X10745031Y-13875708D01*
X10745031Y-13875707D01*
X10726430Y-13852383D01*
X10723249Y-13847900D01*
X10722794Y-13847176D01*
X10719017Y-13841164D01*
X10713394Y-13835541D01*
X10709731Y-13831442D01*
X10691126Y-13808113D01*
X10688668Y-13806929D01*
X10675284Y-13797431D01*
X10614159Y-13736306D01*
X10599807Y-13701658D01*
X10614159Y-13667010D01*
X10648807Y-13652658D01*
X10653954Y-13653532D01*
X10658247Y-13653048D01*
X10658249Y-13653049D01*
X10687902Y-13649707D01*
X10693388Y-13649400D01*
X10701339Y-13649400D01*
X10701341Y-13649400D01*
X10709101Y-13647628D01*
X10714505Y-13646710D01*
X10744164Y-13643369D01*
X10746464Y-13641923D01*
X10761637Y-13635637D01*
X10764291Y-13635032D01*
X10787631Y-13616417D01*
X10792099Y-13613248D01*
X10798836Y-13609016D01*
X10802062Y-13605788D01*
X10804461Y-13603391D01*
X10808549Y-13599736D01*
X10831887Y-13581126D01*
X10833068Y-13578672D01*
X10842565Y-13565285D01*
X11000285Y-13407565D01*
X11013672Y-13398068D01*
X11016126Y-13396887D01*
X11034736Y-13373549D01*
X11038391Y-13369461D01*
X11040788Y-13367062D01*
X11044016Y-13363836D01*
X11048248Y-13357099D01*
X11051417Y-13352631D01*
X11070032Y-13329291D01*
X11070637Y-13326637D01*
X11076923Y-13311465D01*
X11076981Y-13311371D01*
X11078369Y-13309164D01*
X11081710Y-13279505D01*
X11082626Y-13274109D01*
X11083957Y-13268278D01*
X11105658Y-13237695D01*
X11142631Y-13231412D01*
X11158947Y-13238439D01*
X11160787Y-13239669D01*
X11190101Y-13245500D01*
X11409898Y-13245499D01*
X11439213Y-13239669D01*
X11472457Y-13217457D01*
X11472458Y-13217454D01*
X11472777Y-13217242D01*
X11509559Y-13209925D01*
X11527223Y-13217242D01*
X11527541Y-13217454D01*
X11527543Y-13217457D01*
X11560787Y-13239669D01*
X11590101Y-13245500D01*
X11809898Y-13245499D01*
X11839213Y-13239669D01*
X11872457Y-13217457D01*
X11872458Y-13217454D01*
X11872777Y-13217242D01*
X11909559Y-13209925D01*
X11927223Y-13217242D01*
X11927541Y-13217454D01*
X11927543Y-13217457D01*
X11960787Y-13239669D01*
X11990101Y-13245500D01*
X12209898Y-13245499D01*
X12239213Y-13239669D01*
X12272457Y-13217457D01*
X12272458Y-13217454D01*
X12272777Y-13217242D01*
X12309559Y-13209925D01*
X12327223Y-13217242D01*
X12327541Y-13217454D01*
X12327543Y-13217457D01*
X12360787Y-13239669D01*
X12390101Y-13245500D01*
X12408351Y-13245499D01*
X12442998Y-13259849D01*
X12457351Y-13294497D01*
X12443001Y-13329146D01*
X12442999Y-13329147D01*
X11871999Y-13900148D01*
X11837351Y-13914500D01*
X11438802Y-13914500D01*
X11370112Y-13928163D01*
X11292214Y-13980214D01*
X11240163Y-14058112D01*
X11226500Y-14126802D01*
X11226500Y-14443197D01*
X11240163Y-14511887D01*
X11240164Y-14511888D01*
X11292214Y-14589786D01*
X11370112Y-14641836D01*
X11438802Y-14655500D01*
X11438804Y-14655500D01*
X11855198Y-14655500D01*
X11910209Y-14644557D01*
X11923888Y-14641836D01*
X12001786Y-14589786D01*
X12053836Y-14511888D01*
X12062882Y-14466412D01*
X12067500Y-14443197D01*
X12067500Y-14260647D01*
X12081851Y-14226000D01*
X12203853Y-14103998D01*
X12238500Y-14089647D01*
X12273148Y-14103999D01*
X12287500Y-14138647D01*
X12287500Y-14443197D01*
X12301163Y-14511887D01*
X12301164Y-14511888D01*
X12353214Y-14589786D01*
X12431112Y-14641836D01*
X12499802Y-14655500D01*
X12499804Y-14655500D01*
X12916198Y-14655500D01*
X12971209Y-14644557D01*
X12984888Y-14641836D01*
X13062786Y-14589786D01*
X13114836Y-14511888D01*
X13123882Y-14466412D01*
X13128500Y-14443197D01*
X13128500Y-14152647D01*
X13142852Y-14117999D01*
X13224015Y-14036836D01*
X13331406Y-13929444D01*
X13350559Y-13921510D01*
X13363443Y-13897407D01*
X13400285Y-13860565D01*
X13413672Y-13851068D01*
X13416126Y-13849887D01*
X13418289Y-13847174D01*
X13451107Y-13829032D01*
X13487146Y-13839410D01*
X13505290Y-13872231D01*
X13505599Y-13877723D01*
X13505599Y-13892960D01*
X13491247Y-13927608D01*
X13483822Y-13933702D01*
X13425316Y-13972795D01*
X13411584Y-13975526D01*
X13406795Y-13991316D01*
X13362163Y-14058112D01*
X13348500Y-14126802D01*
X13348500Y-14443197D01*
X13362163Y-14511887D01*
X13362164Y-14511888D01*
X13414214Y-14589786D01*
X13492112Y-14641836D01*
X13560802Y-14655500D01*
X13560804Y-14655500D01*
X13977198Y-14655500D01*
X14032209Y-14644557D01*
X14045888Y-14641836D01*
X14123786Y-14589786D01*
X14175836Y-14511888D01*
X14184882Y-14466412D01*
X14189500Y-14443197D01*
X14189500Y-14126802D01*
X14175836Y-14058112D01*
X14131206Y-13991319D01*
X14128473Y-13977583D01*
X14112680Y-13972793D01*
X14045887Y-13928163D01*
X13977198Y-13914500D01*
X13977196Y-13914500D01*
X13933400Y-13914500D01*
X13898752Y-13900148D01*
X13884400Y-13865500D01*
X13884400Y-13729723D01*
X13898752Y-13695075D01*
X13933400Y-13680723D01*
X13968048Y-13695075D01*
X13971706Y-13699169D01*
X13973874Y-13701887D01*
X13976331Y-13703070D01*
X13989716Y-13712568D01*
X14174551Y-13897403D01*
X14182486Y-13916560D01*
X14206596Y-13929448D01*
X14395148Y-14118000D01*
X14409500Y-14152648D01*
X14409500Y-14443197D01*
X14423163Y-14511887D01*
X14423164Y-14511888D01*
X14475214Y-14589786D01*
X14553112Y-14641836D01*
X14621802Y-14655500D01*
X14621804Y-14655500D01*
X15038198Y-14655500D01*
X15093209Y-14644557D01*
X15106888Y-14641836D01*
X15184786Y-14589786D01*
X15236836Y-14511888D01*
X15245882Y-14466412D01*
X15250500Y-14443197D01*
X15250500Y-14126802D01*
X15236836Y-14058112D01*
X15230256Y-14048265D01*
X15184786Y-13980214D01*
X15129770Y-13943453D01*
X15106887Y-13928163D01*
X15038198Y-13914500D01*
X15038196Y-13914500D01*
X14747648Y-13914500D01*
X14713000Y-13900148D01*
X14298752Y-13485899D01*
X14284400Y-13451251D01*
X14284400Y-12804723D01*
X14298752Y-12770075D01*
X14333400Y-12755723D01*
X14368048Y-12770075D01*
X14371706Y-12774169D01*
X14373874Y-12776887D01*
X14376331Y-12778070D01*
X14389716Y-12787568D01*
X14434373Y-12832225D01*
X14448725Y-12866873D01*
X14448122Y-12874537D01*
X14440130Y-12924998D01*
X14457499Y-13034662D01*
X14507905Y-13133587D01*
X14586413Y-13212095D01*
X14618554Y-13228472D01*
X14685337Y-13262500D01*
X14711718Y-13266678D01*
X14795000Y-13279869D01*
X14896226Y-13263836D01*
X14904662Y-13262500D01*
X14946190Y-13241340D01*
X15003587Y-13212095D01*
X15082095Y-13133587D01*
X15123043Y-13053222D01*
X15132500Y-13034662D01*
X15137877Y-13000711D01*
X15149869Y-12925000D01*
X15132727Y-12816770D01*
X15132500Y-12815337D01*
X15085218Y-12722543D01*
X15082095Y-12716413D01*
X15003587Y-12637905D01*
X14991560Y-12631777D01*
X14952862Y-12612059D01*
X14928506Y-12583542D01*
X14931449Y-12546154D01*
X14959966Y-12521798D01*
X14975108Y-12519400D01*
X15253407Y-12519400D01*
X15288055Y-12533752D01*
X15301464Y-12558838D01*
X15302969Y-12566403D01*
X15303454Y-12568840D01*
X15322057Y-12596681D01*
X15356609Y-12648391D01*
X15436161Y-12701546D01*
X15453698Y-12705034D01*
X15506309Y-12715500D01*
X15506312Y-12715500D01*
X15893691Y-12715500D01*
X15935778Y-12707127D01*
X15963839Y-12701546D01*
X16043391Y-12648391D01*
X16096546Y-12568839D01*
X16098535Y-12558839D01*
X16119369Y-12527658D01*
X16146593Y-12519400D01*
X16298407Y-12519400D01*
X16333055Y-12533752D01*
X16346464Y-12558838D01*
X16347969Y-12566403D01*
X16348454Y-12568840D01*
X16367057Y-12596681D01*
X16401609Y-12648391D01*
X16481161Y-12701546D01*
X16498698Y-12705034D01*
X16551309Y-12715500D01*
X16551312Y-12715500D01*
X16938691Y-12715500D01*
X16980778Y-12707127D01*
X17008839Y-12701546D01*
X17088391Y-12648391D01*
X17141546Y-12568839D01*
X17148841Y-12532165D01*
X17155500Y-12498690D01*
X17155500Y-12171309D01*
X17141546Y-12101162D01*
X17141546Y-12101161D01*
X17088391Y-12021609D01*
X17029055Y-11981962D01*
X17008838Y-11968453D01*
X16968840Y-11960497D01*
X16937658Y-11939662D01*
X16929400Y-11912439D01*
X16929400Y-11755504D01*
X16932150Y-11739319D01*
X16933049Y-11736751D01*
X16929708Y-11707094D01*
X16929400Y-11701611D01*
X16929400Y-11693657D01*
X16927630Y-11685903D01*
X16926710Y-11680492D01*
X16923369Y-11650836D01*
X16923369Y-11650835D01*
X16921921Y-11648531D01*
X16915638Y-11633366D01*
X16915032Y-11630709D01*
X16896424Y-11607375D01*
X16893247Y-11602897D01*
X16889015Y-11596163D01*
X16883396Y-11590544D01*
X16879735Y-11586447D01*
X16861126Y-11563113D01*
X16858666Y-11561928D01*
X16845282Y-11552430D01*
X16805625Y-11512773D01*
X16791273Y-11478125D01*
X16791875Y-11470469D01*
X16799869Y-11420000D01*
X16787065Y-11339163D01*
X16782500Y-11310337D01*
X16738056Y-11223112D01*
X16732095Y-11211413D01*
X16658752Y-11138070D01*
X16644400Y-11103422D01*
X16644400Y-10860508D01*
X16647150Y-10844325D01*
X16651428Y-10832099D01*
X16676417Y-10804135D01*
X16713861Y-10802032D01*
X16732326Y-10813634D01*
X16891248Y-10972556D01*
X16905600Y-11007204D01*
X16905600Y-11234494D01*
X16902851Y-11250676D01*
X16901951Y-11253249D01*
X16903488Y-11266887D01*
X16905292Y-11282901D01*
X16905600Y-11288387D01*
X16905600Y-11296341D01*
X16906772Y-11301480D01*
X16907368Y-11304089D01*
X16908288Y-11309502D01*
X16911631Y-11339164D01*
X16913081Y-11341471D01*
X16919361Y-11356632D01*
X16919968Y-11359291D01*
X16936264Y-11379726D01*
X16938572Y-11382620D01*
X16941750Y-11387100D01*
X16945982Y-11393835D01*
X16951602Y-11399455D01*
X16955263Y-11403551D01*
X16966380Y-11417490D01*
X16973874Y-11426887D01*
X16976331Y-11428070D01*
X16989716Y-11437568D01*
X17253690Y-11701542D01*
X17268042Y-11736190D01*
X17267439Y-11743855D01*
X17260130Y-11789999D01*
X17277499Y-11899662D01*
X17319434Y-11981962D01*
X17327905Y-11998587D01*
X17406413Y-12077095D01*
X17424112Y-12086113D01*
X17505337Y-12127500D01*
X17568854Y-12137560D01*
X17615000Y-12144869D01*
X17615000Y-12144868D01*
X17615001Y-12144869D01*
X17631315Y-12142284D01*
X17661141Y-12137560D01*
X17697608Y-12146313D01*
X17703456Y-12151308D01*
X17737430Y-12185282D01*
X17746928Y-12198666D01*
X17748113Y-12201126D01*
X17771447Y-12219735D01*
X17775546Y-12223398D01*
X17781161Y-12229014D01*
X17781163Y-12229015D01*
X17781164Y-12229016D01*
X17787896Y-12233245D01*
X17792373Y-12236422D01*
X17815707Y-12255031D01*
X17815708Y-12255031D01*
X17815709Y-12255032D01*
X17818362Y-12255637D01*
X17833532Y-12261921D01*
X17834705Y-12262657D01*
X17835837Y-12263369D01*
X17865485Y-12266708D01*
X17870897Y-12267627D01*
X17878659Y-12269400D01*
X17886613Y-12269400D01*
X17892098Y-12269707D01*
X17921751Y-12273049D01*
X17923782Y-12272338D01*
X17924324Y-12272149D01*
X17940506Y-12269400D01*
X18233434Y-12269400D01*
X18268082Y-12283752D01*
X18281492Y-12308839D01*
X18283197Y-12317409D01*
X18288454Y-12343840D01*
X18302450Y-12364786D01*
X18341609Y-12423391D01*
X18421161Y-12476546D01*
X18438698Y-12480034D01*
X18491309Y-12490500D01*
X18491312Y-12490500D01*
X18818691Y-12490500D01*
X18860778Y-12482127D01*
X18888839Y-12476546D01*
X18968391Y-12423391D01*
X19021546Y-12343839D01*
X19032355Y-12289500D01*
X19035500Y-12273690D01*
X19035500Y-12218197D01*
X20234500Y-12218197D01*
X20248163Y-12286887D01*
X20250255Y-12290018D01*
X20300214Y-12364786D01*
X20357169Y-12402842D01*
X20378112Y-12416836D01*
X20446802Y-12430500D01*
X20446804Y-12430500D01*
X20863198Y-12430500D01*
X20916731Y-12419851D01*
X20931888Y-12416836D01*
X21009786Y-12364786D01*
X21061836Y-12286888D01*
X21068173Y-12255031D01*
X21071394Y-12238840D01*
X21092229Y-12207658D01*
X21119452Y-12199400D01*
X21604378Y-12199400D01*
X21604386Y-12199399D01*
X21617352Y-12199399D01*
X21628215Y-12193126D01*
X21640031Y-12188230D01*
X21652158Y-12184982D01*
X21659973Y-12177167D01*
X21659976Y-12177165D01*
X21782289Y-12054852D01*
X21816937Y-12040500D01*
X23269751Y-12040500D01*
X23304837Y-12033520D01*
X23328231Y-12028867D01*
X23394552Y-11984552D01*
X23438867Y-11918231D01*
X23449540Y-11864574D01*
X23450500Y-11859750D01*
X23450500Y-10720249D01*
X23438867Y-10661770D01*
X23438867Y-10661769D01*
X23394552Y-10595448D01*
X23363926Y-10574984D01*
X23343092Y-10543802D01*
X23350409Y-10507019D01*
X23381590Y-10486184D01*
X23389213Y-10484669D01*
X23422457Y-10462457D01*
X23444669Y-10429213D01*
X23450500Y-10399899D01*
X23450499Y-9080102D01*
X23444669Y-9050787D01*
X23444669Y-9050786D01*
X23422457Y-9017543D01*
X23408851Y-9008452D01*
X23389213Y-8995331D01*
X23389212Y-8995330D01*
X23389211Y-8995330D01*
X23359901Y-8989500D01*
X23359899Y-8989500D01*
X21816937Y-8989500D01*
X21782289Y-8975148D01*
X21712165Y-8905024D01*
X21712164Y-8905024D01*
X21702160Y-8895020D01*
X21702159Y-8895019D01*
X21690033Y-8891769D01*
X21678220Y-8886876D01*
X21667352Y-8880601D01*
X21648353Y-8880601D01*
X21648351Y-8880601D01*
X21119452Y-8880601D01*
X21084804Y-8866249D01*
X21071394Y-8841161D01*
X21061836Y-8793113D01*
X21015119Y-8723197D01*
X21009786Y-8715215D01*
X20954162Y-8678048D01*
X20931887Y-8663164D01*
X20863198Y-8649501D01*
X20863196Y-8649501D01*
X20446804Y-8649501D01*
X20446802Y-8649501D01*
X20378112Y-8663164D01*
X20300214Y-8715215D01*
X20248163Y-8793113D01*
X20234500Y-8861803D01*
X20234500Y-9178198D01*
X20248163Y-9246888D01*
X20257012Y-9260131D01*
X20300214Y-9324787D01*
X20378112Y-9376837D01*
X20446802Y-9390501D01*
X20446804Y-9390501D01*
X20863198Y-9390501D01*
X20927177Y-9377774D01*
X20931888Y-9376837D01*
X21009786Y-9324787D01*
X21061836Y-9246889D01*
X21071393Y-9198841D01*
X21092229Y-9167659D01*
X21119452Y-9159401D01*
X21200500Y-9159401D01*
X21235148Y-9173753D01*
X21249500Y-9208401D01*
X21249500Y-10399897D01*
X21255330Y-10429213D01*
X21276934Y-10461546D01*
X21277543Y-10462457D01*
X21310787Y-10484669D01*
X21318408Y-10486185D01*
X21349590Y-10507020D01*
X21356907Y-10543802D01*
X21336072Y-10574984D01*
X21305448Y-10595447D01*
X21261132Y-10661770D01*
X21249500Y-10720249D01*
X21249499Y-10720251D01*
X21249500Y-10720252D01*
X21249500Y-11859748D01*
X21249825Y-11861384D01*
X21249956Y-11862038D01*
X21249500Y-11864331D01*
X21249500Y-11864574D01*
X21249452Y-11864574D01*
X21242642Y-11898820D01*
X21211460Y-11919658D01*
X21201898Y-11920600D01*
X21119452Y-11920600D01*
X21084804Y-11906248D01*
X21071394Y-11881160D01*
X21061836Y-11833112D01*
X21056048Y-11824450D01*
X21009786Y-11755214D01*
X20941613Y-11709662D01*
X20931887Y-11703163D01*
X20863198Y-11689500D01*
X20863196Y-11689500D01*
X20446804Y-11689500D01*
X20446802Y-11689500D01*
X20378112Y-11703163D01*
X20300214Y-11755214D01*
X20248163Y-11833112D01*
X20234500Y-11901802D01*
X20234500Y-12218197D01*
X19035500Y-12218197D01*
X19035500Y-11886309D01*
X19021546Y-11816162D01*
X19021546Y-11816161D01*
X18968391Y-11736609D01*
X18888839Y-11683454D01*
X18888838Y-11683453D01*
X18888837Y-11683453D01*
X18818691Y-11669500D01*
X18818688Y-11669500D01*
X18491312Y-11669500D01*
X18491309Y-11669500D01*
X18421162Y-11683453D01*
X18341609Y-11736609D01*
X18288454Y-11816159D01*
X18286419Y-11826393D01*
X18281492Y-11851160D01*
X18260657Y-11882342D01*
X18233434Y-11890600D01*
X18011307Y-11890600D01*
X17976659Y-11876248D01*
X17962307Y-11841600D01*
X17962910Y-11833934D01*
X17963040Y-11833112D01*
X17969869Y-11790000D01*
X17954610Y-11693659D01*
X17952500Y-11680337D01*
X17914228Y-11605226D01*
X17902095Y-11581413D01*
X17823587Y-11502905D01*
X17798921Y-11490337D01*
X17724662Y-11452499D01*
X17614999Y-11435130D01*
X17560222Y-11443806D01*
X17523755Y-11435050D01*
X17517909Y-11430057D01*
X17298752Y-11210899D01*
X17284400Y-11176251D01*
X17284400Y-10948961D01*
X17287150Y-10932776D01*
X17288049Y-10930208D01*
X17284708Y-10900554D01*
X17284400Y-10895068D01*
X17284400Y-10887114D01*
X17282630Y-10879360D01*
X17281710Y-10873949D01*
X17278859Y-10848641D01*
X17289242Y-10812605D01*
X17322066Y-10794465D01*
X17358103Y-10804848D01*
X17362199Y-10808509D01*
X17710853Y-11157164D01*
X17710862Y-11157170D01*
X17718674Y-11164982D01*
X17730793Y-11168229D01*
X17742609Y-11173123D01*
X17753479Y-11179399D01*
X17766446Y-11179399D01*
X17766454Y-11179400D01*
X17772482Y-11179400D01*
X20190548Y-11179400D01*
X20225196Y-11193752D01*
X20238606Y-11218840D01*
X20248163Y-11266887D01*
X20260690Y-11285635D01*
X20300214Y-11344786D01*
X20369996Y-11391413D01*
X20378112Y-11396836D01*
X20446802Y-11410500D01*
X20446804Y-11410500D01*
X20863198Y-11410500D01*
X20908990Y-11401390D01*
X20931888Y-11396836D01*
X21009786Y-11344786D01*
X21061836Y-11266888D01*
X21071497Y-11218319D01*
X21075500Y-11198197D01*
X21075500Y-10881802D01*
X21061836Y-10813112D01*
X21058981Y-10808839D01*
X21009786Y-10735214D01*
X20957735Y-10700434D01*
X20931887Y-10683163D01*
X20863198Y-10669500D01*
X20863196Y-10669500D01*
X20446804Y-10669500D01*
X20446802Y-10669500D01*
X20378112Y-10683163D01*
X20300214Y-10735214D01*
X20248163Y-10813112D01*
X20238606Y-10861160D01*
X20217771Y-10892342D01*
X20190548Y-10900600D01*
X17868870Y-10900600D01*
X17834222Y-10886248D01*
X17521022Y-10573048D01*
X17506670Y-10538400D01*
X17521022Y-10503752D01*
X17555670Y-10489400D01*
X20369379Y-10489400D01*
X20369387Y-10489399D01*
X20382353Y-10489399D01*
X20393216Y-10483126D01*
X20405032Y-10478230D01*
X20417159Y-10474982D01*
X20430594Y-10461547D01*
X20430596Y-10461546D01*
X20467289Y-10424852D01*
X20501936Y-10410501D01*
X20863198Y-10410501D01*
X20908990Y-10401391D01*
X20931888Y-10396837D01*
X21009786Y-10344787D01*
X21061836Y-10266889D01*
X21068732Y-10232222D01*
X21075500Y-10198198D01*
X21075500Y-9881803D01*
X21061836Y-9813113D01*
X21056014Y-9804400D01*
X21009786Y-9735215D01*
X20952408Y-9696876D01*
X20931887Y-9683164D01*
X20863198Y-9669501D01*
X20863196Y-9669501D01*
X20446804Y-9669501D01*
X20446802Y-9669501D01*
X20378112Y-9683164D01*
X20300214Y-9735215D01*
X20248163Y-9813113D01*
X20234500Y-9881803D01*
X20234500Y-10161600D01*
X20220148Y-10196248D01*
X20185500Y-10210600D01*
X19010156Y-10210600D01*
X18975508Y-10196248D01*
X18961156Y-10161600D01*
X18969414Y-10134377D01*
X18982428Y-10114900D01*
X19016546Y-10063839D01*
X19024932Y-10021681D01*
X19030500Y-9993690D01*
X19030500Y-9606309D01*
X19016546Y-9536162D01*
X19016546Y-9536161D01*
X18963391Y-9456609D01*
X18883839Y-9403454D01*
X18883838Y-9403453D01*
X18883837Y-9403453D01*
X18813691Y-9389500D01*
X18813688Y-9389500D01*
X18486312Y-9389500D01*
X18486309Y-9389500D01*
X18416162Y-9403453D01*
X18336609Y-9456609D01*
X18283454Y-9536159D01*
X18280633Y-9550338D01*
X18276492Y-9571160D01*
X18255657Y-9602342D01*
X18228434Y-9610600D01*
X18036022Y-9610600D01*
X18001374Y-9596248D01*
X17987625Y-9569265D01*
X17982382Y-9536162D01*
X17977500Y-9505339D01*
X17927095Y-9406413D01*
X17848587Y-9327905D01*
X17842466Y-9324786D01*
X17749662Y-9277499D01*
X17640000Y-9260131D01*
X17530337Y-9277499D01*
X17431414Y-9327904D01*
X17372448Y-9386870D01*
X17337800Y-9401221D01*
X17303152Y-9386869D01*
X16898614Y-8982331D01*
X16884262Y-8947683D01*
X16898614Y-8913035D01*
X16917081Y-8901432D01*
X16929323Y-8897149D01*
X16945504Y-8894400D01*
X16998422Y-8894400D01*
X17033070Y-8908752D01*
X17037905Y-8913587D01*
X17116413Y-8992095D01*
X17141739Y-9004999D01*
X17215337Y-9042500D01*
X17241718Y-9046678D01*
X17325000Y-9059869D01*
X17428979Y-9043400D01*
X17434662Y-9042500D01*
X17483642Y-9017543D01*
X17533587Y-8992095D01*
X17612095Y-8913587D01*
X17612095Y-8913586D01*
X17616930Y-8908752D01*
X17651578Y-8894400D01*
X18228434Y-8894400D01*
X18263082Y-8908752D01*
X18276492Y-8933839D01*
X18279681Y-8949869D01*
X18283454Y-8968840D01*
X18298993Y-8992095D01*
X18336609Y-9048391D01*
X18416161Y-9101546D01*
X18433698Y-9105034D01*
X18486309Y-9115500D01*
X18486312Y-9115500D01*
X18813691Y-9115500D01*
X18855778Y-9107127D01*
X18883839Y-9101546D01*
X18963391Y-9048391D01*
X19016546Y-8968839D01*
X19027275Y-8914900D01*
X19030500Y-8898690D01*
X19030500Y-8511309D01*
X19016546Y-8441162D01*
X19016546Y-8441161D01*
X18963391Y-8361609D01*
X18883839Y-8308454D01*
X18883838Y-8308453D01*
X18883837Y-8308453D01*
X18813691Y-8294500D01*
X18813688Y-8294500D01*
X18486312Y-8294500D01*
X18486309Y-8294500D01*
X18416162Y-8308453D01*
X18336609Y-8361609D01*
X18283454Y-8441159D01*
X18280633Y-8455338D01*
X18276492Y-8476160D01*
X18255657Y-8507342D01*
X18228434Y-8515600D01*
X17651578Y-8515600D01*
X17616930Y-8501248D01*
X17533587Y-8417905D01*
X17434662Y-8367499D01*
X17325000Y-8350131D01*
X17215337Y-8367499D01*
X17116412Y-8417905D01*
X17035733Y-8498584D01*
X17001085Y-8512936D01*
X16966437Y-8498584D01*
X16367568Y-7899716D01*
X16358070Y-7886331D01*
X16356887Y-7883874D01*
X16345885Y-7875100D01*
X16333551Y-7865263D01*
X16329455Y-7861602D01*
X16323835Y-7855982D01*
X16317100Y-7851750D01*
X16312621Y-7848572D01*
X16291476Y-7831710D01*
X16273334Y-7798887D01*
X16283716Y-7762850D01*
X16316539Y-7744708D01*
X16322026Y-7744400D01*
X16476963Y-7744400D01*
X16511611Y-7758752D01*
X16899524Y-8146666D01*
X16899529Y-8146669D01*
X16907342Y-8154482D01*
X16910621Y-8155360D01*
X16919462Y-8157730D01*
X16931281Y-8162625D01*
X16942146Y-8168898D01*
X16942148Y-8168899D01*
X16953195Y-8168899D01*
X16953201Y-8168900D01*
X16961150Y-8168900D01*
X18389500Y-8168900D01*
X18389508Y-8168899D01*
X18402474Y-8168899D01*
X18413337Y-8162626D01*
X18425153Y-8157730D01*
X18437280Y-8154482D01*
X18445095Y-8146667D01*
X18445098Y-8146665D01*
X18977412Y-7614351D01*
X19012060Y-7599999D01*
X19014898Y-7599999D01*
X19044213Y-7594169D01*
X19085561Y-7566542D01*
X19086785Y-7568374D01*
X19105426Y-7555911D01*
X19142210Y-7563217D01*
X19147746Y-7568751D01*
X19152541Y-7571955D01*
X19152543Y-7571957D01*
X19185787Y-7594169D01*
X19215101Y-7600000D01*
X19514898Y-7599999D01*
X19544213Y-7594169D01*
X19577457Y-7571957D01*
X19599669Y-7538713D01*
X19605500Y-7509399D01*
X19605500Y-7437899D01*
X19619852Y-7403252D01*
X19654500Y-7388900D01*
X20307507Y-7388900D01*
X20334729Y-7397157D01*
X20401161Y-7441546D01*
X20418698Y-7445034D01*
X20471309Y-7455500D01*
X20471312Y-7455500D01*
X20858691Y-7455500D01*
X20900778Y-7447127D01*
X20928839Y-7441546D01*
X21008391Y-7388391D01*
X21061546Y-7308839D01*
X21075500Y-7238688D01*
X21075500Y-7064088D01*
X21089852Y-7029440D01*
X21473619Y-6645673D01*
X21508267Y-6631321D01*
X21617623Y-6631321D01*
X21652271Y-6645673D01*
X21662891Y-6661566D01*
X21664712Y-6665962D01*
X21675498Y-6680018D01*
X21760965Y-6791403D01*
X21807413Y-6827043D01*
X21886407Y-6887657D01*
X22032486Y-6948165D01*
X22189248Y-6968803D01*
X22346010Y-6948165D01*
X22492089Y-6887657D01*
X22617530Y-6791403D01*
X22713784Y-6665962D01*
X22774292Y-6519883D01*
X22794930Y-6363121D01*
X22774292Y-6206359D01*
X22713784Y-6060280D01*
X22623821Y-5943037D01*
X22617530Y-5934838D01*
X22508592Y-5851248D01*
X22492089Y-5838585D01*
X22346010Y-5778077D01*
X22335566Y-5776702D01*
X22303088Y-5757950D01*
X22293381Y-5721725D01*
X22312133Y-5689247D01*
X22335566Y-5679540D01*
X22335856Y-5679501D01*
X22346010Y-5678165D01*
X22492089Y-5617657D01*
X22617530Y-5521403D01*
X22713784Y-5395962D01*
X22774292Y-5249883D01*
X22794930Y-5093121D01*
X22774292Y-4936359D01*
X22713784Y-4790280D01*
X22662284Y-4723164D01*
X22617530Y-4664838D01*
X22514783Y-4585999D01*
X22492089Y-4568585D01*
X22346010Y-4508077D01*
X22335566Y-4506702D01*
X22303088Y-4487950D01*
X22293381Y-4451725D01*
X22312133Y-4419247D01*
X22335566Y-4409540D01*
X22335856Y-4409501D01*
X22346010Y-4408165D01*
X22492089Y-4347657D01*
X22617530Y-4251403D01*
X22713784Y-4125962D01*
X22774292Y-3979883D01*
X22794930Y-3823121D01*
X22774292Y-3666359D01*
X22713784Y-3520280D01*
X22674245Y-3468752D01*
X22617530Y-3394838D01*
X22514571Y-3315836D01*
X22492089Y-3298585D01*
X22346010Y-3238077D01*
X22335566Y-3236702D01*
X22303088Y-3217950D01*
X22293381Y-3181725D01*
X22312133Y-3149247D01*
X22335566Y-3139540D01*
X22335856Y-3139501D01*
X22346010Y-3138165D01*
X22492089Y-3077657D01*
X22617530Y-2981403D01*
X22713784Y-2855962D01*
X22774292Y-2709883D01*
X22794930Y-2553121D01*
X22774292Y-2396359D01*
X22713784Y-2250280D01*
X22656662Y-2175837D01*
X22617530Y-2124838D01*
X22492090Y-2028586D01*
X22492089Y-2028585D01*
X22346010Y-1968077D01*
X22335566Y-1966702D01*
X22303088Y-1947950D01*
X22293381Y-1911725D01*
X22312133Y-1879247D01*
X22335566Y-1869540D01*
X22335856Y-1869501D01*
X22346010Y-1868165D01*
X22492089Y-1807657D01*
X22617530Y-1711403D01*
X22713784Y-1585962D01*
X22774292Y-1439883D01*
X22794930Y-1283121D01*
X22774292Y-1126359D01*
X22713784Y-980280D01*
X22650726Y-898101D01*
X22617530Y-854838D01*
X22492090Y-758586D01*
X22492089Y-758585D01*
X22346010Y-698077D01*
X22189248Y-677439D01*
X22032485Y-698077D01*
X21886405Y-758586D01*
X21760965Y-854838D01*
X21664713Y-980278D01*
X21664712Y-980279D01*
X21664712Y-980280D01*
X21604204Y-1126359D01*
X21583566Y-1283121D01*
X21604204Y-1439883D01*
X21664712Y-1585962D01*
X21664713Y-1585963D01*
X21760965Y-1711403D01*
X21839049Y-1771318D01*
X21886407Y-1807657D01*
X21987425Y-1849500D01*
X22032485Y-1868165D01*
X22042929Y-1869540D01*
X22075407Y-1888292D01*
X22085114Y-1924517D01*
X22066362Y-1956995D01*
X22042929Y-1966702D01*
X22032485Y-1968076D01*
X21886405Y-2028586D01*
X21760965Y-2124838D01*
X21664713Y-2250278D01*
X21630252Y-2333473D01*
X21603733Y-2359991D01*
X21584982Y-2363721D01*
X21247387Y-2363721D01*
X21231203Y-2360971D01*
X21228631Y-2360071D01*
X21198972Y-2363413D01*
X21193486Y-2363721D01*
X21185537Y-2363721D01*
X21177783Y-2365490D01*
X21172373Y-2366409D01*
X21142715Y-2369751D01*
X21140405Y-2371203D01*
X21125247Y-2377481D01*
X21122588Y-2378087D01*
X21099250Y-2396698D01*
X21094774Y-2399874D01*
X21088044Y-2404103D01*
X21082414Y-2409732D01*
X21078324Y-2413386D01*
X21054991Y-2431994D01*
X21053807Y-2434454D01*
X21044310Y-2447836D01*
X20938048Y-2554099D01*
X20903400Y-2568451D01*
X20868752Y-2554099D01*
X20854400Y-2519451D01*
X20854400Y-2280508D01*
X20857150Y-2264323D01*
X20858050Y-2261752D01*
X20854708Y-2232091D01*
X20854400Y-2226605D01*
X20854400Y-2218658D01*
X20852631Y-2210911D01*
X20851710Y-2205499D01*
X20848369Y-2175837D01*
X20846921Y-2173532D01*
X20840637Y-2158362D01*
X20840032Y-2155709D01*
X20821426Y-2132377D01*
X20818251Y-2127903D01*
X20814017Y-2121165D01*
X20808396Y-2115544D01*
X20804735Y-2111447D01*
X20786126Y-2088113D01*
X20783666Y-2086928D01*
X20770282Y-2077430D01*
X20709851Y-2016999D01*
X20695499Y-1982351D01*
X20695499Y-898102D01*
X20689669Y-868786D01*
X20667457Y-835543D01*
X20667456Y-835542D01*
X20634213Y-813331D01*
X20634212Y-813330D01*
X20634211Y-813330D01*
X20604900Y-807500D01*
X19585102Y-807500D01*
X19555786Y-813330D01*
X19522543Y-835542D01*
X19500330Y-868788D01*
X19494500Y-898099D01*
X19494500Y-2441897D01*
X19500330Y-2471213D01*
X19517994Y-2497649D01*
X19522543Y-2504457D01*
X19555787Y-2526669D01*
X19585101Y-2532500D01*
X20426600Y-2532499D01*
X20461248Y-2546851D01*
X20475600Y-2581499D01*
X20475600Y-2680548D01*
X20461248Y-2715196D01*
X20436160Y-2728606D01*
X20388112Y-2738163D01*
X20310214Y-2790214D01*
X20258163Y-2868112D01*
X20244500Y-2936802D01*
X20244500Y-3253197D01*
X20258163Y-3321887D01*
X20258544Y-3322457D01*
X20310214Y-3399786D01*
X20362893Y-3434985D01*
X20388112Y-3451836D01*
X20456802Y-3465500D01*
X20456804Y-3465500D01*
X20873198Y-3465500D01*
X20921819Y-3455828D01*
X20941888Y-3451836D01*
X21019786Y-3399786D01*
X21071836Y-3321888D01*
X21078668Y-3287542D01*
X21085500Y-3253197D01*
X21085500Y-2962648D01*
X21099852Y-2928000D01*
X21270979Y-2756873D01*
X21305627Y-2742521D01*
X21584982Y-2742521D01*
X21619630Y-2756873D01*
X21630252Y-2772769D01*
X21664712Y-2855962D01*
X21682021Y-2878519D01*
X21760965Y-2981403D01*
X21800322Y-3011602D01*
X21886407Y-3077657D01*
X21991792Y-3121309D01*
X22032485Y-3138165D01*
X22042929Y-3139540D01*
X22075407Y-3158292D01*
X22085114Y-3194517D01*
X22066362Y-3226995D01*
X22042929Y-3236702D01*
X22032485Y-3238076D01*
X21886405Y-3298586D01*
X21760965Y-3394838D01*
X21664713Y-3520278D01*
X21664712Y-3520279D01*
X21664712Y-3520280D01*
X21655945Y-3541445D01*
X21604204Y-3666358D01*
X21590273Y-3772179D01*
X21583566Y-3823121D01*
X21604204Y-3979883D01*
X21664712Y-4125962D01*
X21664713Y-4125963D01*
X21760965Y-4251403D01*
X21839049Y-4311318D01*
X21886407Y-4347657D01*
X21984769Y-4388400D01*
X22032485Y-4408165D01*
X22042929Y-4409540D01*
X22075407Y-4428292D01*
X22085114Y-4464517D01*
X22066362Y-4496995D01*
X22042929Y-4506702D01*
X22032485Y-4508076D01*
X21886405Y-4568586D01*
X21760965Y-4664838D01*
X21664713Y-4790278D01*
X21608831Y-4925189D01*
X21604204Y-4936359D01*
X21583566Y-5093121D01*
X21604204Y-5249883D01*
X21664712Y-5395962D01*
X21675523Y-5410051D01*
X21760965Y-5521403D01*
X21839049Y-5581318D01*
X21886407Y-5617657D01*
X21984670Y-5658359D01*
X22032485Y-5678165D01*
X22042929Y-5679540D01*
X22075407Y-5698292D01*
X22085114Y-5734517D01*
X22066362Y-5766995D01*
X22042929Y-5776702D01*
X22032485Y-5778076D01*
X21886405Y-5838586D01*
X21760965Y-5934838D01*
X21664713Y-6060278D01*
X21664712Y-6060279D01*
X21664712Y-6060280D01*
X21662891Y-6064674D01*
X21636374Y-6091191D01*
X21617623Y-6094921D01*
X21408121Y-6094921D01*
X21398562Y-6093980D01*
X21376879Y-6089667D01*
X21272231Y-6110482D01*
X21205911Y-6154797D01*
X21205865Y-6154827D01*
X21183517Y-6169760D01*
X21175241Y-6182146D01*
X21144058Y-6202981D01*
X21107276Y-6195663D01*
X21086441Y-6164480D01*
X21085500Y-6154922D01*
X21085500Y-5941802D01*
X21071836Y-5873112D01*
X21066942Y-5865788D01*
X21019786Y-5795214D01*
X20941888Y-5743164D01*
X20941887Y-5743163D01*
X20873198Y-5729500D01*
X20873196Y-5729500D01*
X20456804Y-5729500D01*
X20456802Y-5729500D01*
X20388112Y-5743163D01*
X20310214Y-5795214D01*
X20258163Y-5873112D01*
X20244500Y-5941802D01*
X20244500Y-6258197D01*
X20258163Y-6326887D01*
X20258164Y-6326888D01*
X20310214Y-6404786D01*
X20375023Y-6448090D01*
X20395858Y-6479273D01*
X20396800Y-6488832D01*
X20396800Y-6685176D01*
X20382448Y-6719824D01*
X20375023Y-6725918D01*
X20321609Y-6761608D01*
X20268453Y-6841162D01*
X20254500Y-6911309D01*
X20254500Y-6961100D01*
X20240148Y-6995748D01*
X20205500Y-7010100D01*
X19654499Y-7010100D01*
X19619851Y-6995748D01*
X19605499Y-6961100D01*
X19605499Y-6889602D01*
X19599669Y-6860286D01*
X19577457Y-6827043D01*
X19577456Y-6827042D01*
X19544213Y-6804831D01*
X19544212Y-6804830D01*
X19544211Y-6804830D01*
X19514900Y-6799000D01*
X19215102Y-6799000D01*
X19185786Y-6804830D01*
X19144439Y-6832458D01*
X19143214Y-6830625D01*
X19124556Y-6843091D01*
X19087774Y-6835772D01*
X19082244Y-6830242D01*
X19077457Y-6827043D01*
X19044213Y-6804831D01*
X19044212Y-6804830D01*
X19044211Y-6804830D01*
X19014900Y-6799000D01*
X18715102Y-6799000D01*
X18685786Y-6804830D01*
X18644439Y-6832458D01*
X18643214Y-6830625D01*
X18624556Y-6843091D01*
X18587774Y-6835772D01*
X18582244Y-6830242D01*
X18577457Y-6827043D01*
X18544213Y-6804831D01*
X18544212Y-6804830D01*
X18544211Y-6804830D01*
X18514900Y-6799000D01*
X18215102Y-6799000D01*
X18185786Y-6804830D01*
X18144439Y-6832458D01*
X18143214Y-6830625D01*
X18124556Y-6843091D01*
X18087774Y-6835772D01*
X18082244Y-6830242D01*
X18077457Y-6827043D01*
X18044213Y-6804831D01*
X18044212Y-6804830D01*
X18044211Y-6804830D01*
X18014900Y-6799000D01*
X17715102Y-6799000D01*
X17685786Y-6804830D01*
X17652543Y-6827042D01*
X17630330Y-6860288D01*
X17624500Y-6889599D01*
X17624500Y-7011100D01*
X17610148Y-7045748D01*
X17575500Y-7060100D01*
X17192537Y-7060100D01*
X17157889Y-7045748D01*
X16802164Y-6690023D01*
X16802163Y-6690023D01*
X16792159Y-6680019D01*
X16792158Y-6680018D01*
X16780032Y-6676768D01*
X16768219Y-6671875D01*
X16757351Y-6665600D01*
X16738352Y-6665600D01*
X16738350Y-6665600D01*
X16115736Y-6665600D01*
X16081088Y-6651248D01*
X16074996Y-6643826D01*
X16073546Y-6641656D01*
X16067457Y-6632543D01*
X16067454Y-6632541D01*
X16067244Y-6632226D01*
X16059925Y-6595444D01*
X16067244Y-6577774D01*
X16067454Y-6577458D01*
X16067457Y-6577457D01*
X16074995Y-6566174D01*
X16106180Y-6545341D01*
X16115736Y-6544400D01*
X16339378Y-6544400D01*
X16339386Y-6544399D01*
X16352352Y-6544399D01*
X16363215Y-6538126D01*
X16375031Y-6533230D01*
X16387158Y-6529982D01*
X16394973Y-6522167D01*
X16394976Y-6522165D01*
X16856863Y-6060278D01*
X17536546Y-5380595D01*
X17536546Y-5380593D01*
X17540578Y-5376562D01*
X17540579Y-5376559D01*
X17549982Y-5367158D01*
X17553230Y-5355034D01*
X17558127Y-5343214D01*
X17564399Y-5332352D01*
X17564399Y-5319059D01*
X17564400Y-5319050D01*
X17564400Y-3793400D01*
X17578752Y-3758752D01*
X17613400Y-3744400D01*
X17991963Y-3744400D01*
X18026611Y-3758752D01*
X18110148Y-3842289D01*
X18124500Y-3876937D01*
X18124500Y-4495397D01*
X18130330Y-4524713D01*
X18146703Y-4549217D01*
X18152543Y-4557957D01*
X18185787Y-4580169D01*
X18215101Y-4586000D01*
X18514898Y-4585999D01*
X18544213Y-4580169D01*
X18577457Y-4557957D01*
X18577457Y-4557956D01*
X18585561Y-4552542D01*
X18586785Y-4554374D01*
X18605426Y-4541911D01*
X18642210Y-4549217D01*
X18647746Y-4554751D01*
X18652541Y-4557955D01*
X18652543Y-4557957D01*
X18685787Y-4580169D01*
X18715101Y-4586000D01*
X19014898Y-4585999D01*
X19044213Y-4580169D01*
X19077457Y-4557957D01*
X19077457Y-4557956D01*
X19085561Y-4552542D01*
X19086785Y-4554374D01*
X19105426Y-4541911D01*
X19142210Y-4549217D01*
X19147746Y-4554751D01*
X19152541Y-4557955D01*
X19152543Y-4557957D01*
X19185787Y-4580169D01*
X19215101Y-4586000D01*
X19514898Y-4585999D01*
X19544213Y-4580169D01*
X19577457Y-4557957D01*
X19599669Y-4524713D01*
X19605500Y-4495399D01*
X19605500Y-4373899D01*
X19619852Y-4339252D01*
X19654500Y-4324900D01*
X20220622Y-4324900D01*
X20255270Y-4339252D01*
X20261363Y-4346676D01*
X20310214Y-4419786D01*
X20388112Y-4471836D01*
X20456802Y-4485500D01*
X20456804Y-4485500D01*
X20476600Y-4485500D01*
X20511248Y-4499852D01*
X20525600Y-4534500D01*
X20525600Y-4660500D01*
X20511248Y-4695148D01*
X20476600Y-4709500D01*
X20456802Y-4709500D01*
X20388112Y-4723163D01*
X20310214Y-4775214D01*
X20258163Y-4853112D01*
X20244500Y-4921802D01*
X20244500Y-5238197D01*
X20258163Y-5306887D01*
X20258164Y-5306888D01*
X20310214Y-5384786D01*
X20348445Y-5410331D01*
X20388112Y-5436836D01*
X20456802Y-5450500D01*
X20456804Y-5450500D01*
X20873198Y-5450500D01*
X20918990Y-5441390D01*
X20941888Y-5436836D01*
X21019786Y-5384786D01*
X21071836Y-5306888D01*
X21085500Y-5238196D01*
X21085500Y-4921804D01*
X21083318Y-4910837D01*
X21071836Y-4853112D01*
X21052338Y-4823932D01*
X21019786Y-4775214D01*
X20941888Y-4723164D01*
X20941887Y-4723163D01*
X20873198Y-4709500D01*
X20873196Y-4709500D01*
X20853400Y-4709500D01*
X20818752Y-4695148D01*
X20804400Y-4660500D01*
X20804400Y-4534500D01*
X20818752Y-4499852D01*
X20853400Y-4485500D01*
X20873198Y-4485500D01*
X20918990Y-4476390D01*
X20941888Y-4471836D01*
X21019786Y-4419786D01*
X21071836Y-4341888D01*
X21085500Y-4273196D01*
X21085500Y-3956804D01*
X21083400Y-3946248D01*
X21071836Y-3888112D01*
X21043889Y-3846287D01*
X21019786Y-3810214D01*
X20960572Y-3770648D01*
X20941887Y-3758163D01*
X20873198Y-3744500D01*
X20873196Y-3744500D01*
X20456804Y-3744500D01*
X20456802Y-3744500D01*
X20388112Y-3758163D01*
X20310214Y-3810214D01*
X20258163Y-3888112D01*
X20244500Y-3956802D01*
X20244500Y-3997100D01*
X20230148Y-4031748D01*
X20195500Y-4046100D01*
X19654499Y-4046100D01*
X19619851Y-4031748D01*
X19605499Y-3997100D01*
X19605499Y-3875602D01*
X19599669Y-3846286D01*
X19577457Y-3813043D01*
X19564071Y-3804099D01*
X19544213Y-3790831D01*
X19544212Y-3790830D01*
X19544211Y-3790830D01*
X19510165Y-3784058D01*
X19510545Y-3782144D01*
X19482790Y-3770648D01*
X19476551Y-3764409D01*
X19476546Y-3764405D01*
X18622164Y-2910023D01*
X18622163Y-2910023D01*
X18612159Y-2900019D01*
X18612158Y-2900018D01*
X18600032Y-2896768D01*
X18588219Y-2891875D01*
X18577351Y-2885600D01*
X18558352Y-2885600D01*
X18558350Y-2885600D01*
X17266650Y-2885600D01*
X17260622Y-2885600D01*
X17260614Y-2885601D01*
X17247647Y-2885601D01*
X17236776Y-2891876D01*
X17224967Y-2896768D01*
X17212842Y-2900017D01*
X17212839Y-2900019D01*
X17193787Y-2919069D01*
X17193781Y-2919077D01*
X16748454Y-3364405D01*
X16735020Y-3377839D01*
X16735016Y-3377846D01*
X16731768Y-3389966D01*
X16726876Y-3401777D01*
X16720600Y-3412647D01*
X16720600Y-4701962D01*
X16706248Y-4736610D01*
X16051326Y-5391531D01*
X16016678Y-5405883D01*
X16007123Y-5404942D01*
X16004899Y-5404500D01*
X16004896Y-5404500D01*
X14885102Y-5404500D01*
X14855786Y-5410330D01*
X14822543Y-5432542D01*
X14800330Y-5465788D01*
X14794500Y-5495099D01*
X14794500Y-5714897D01*
X14800330Y-5744213D01*
X14822757Y-5777777D01*
X14830073Y-5814560D01*
X14822758Y-5832222D01*
X14822543Y-5832542D01*
X14822543Y-5832543D01*
X14810045Y-5851248D01*
X14800330Y-5865788D01*
X14794500Y-5895099D01*
X14794500Y-6114897D01*
X14800330Y-6144213D01*
X14822757Y-6177777D01*
X14830073Y-6214560D01*
X14822758Y-6232222D01*
X14822543Y-6232542D01*
X14822543Y-6232543D01*
X14815004Y-6243826D01*
X14800330Y-6265788D01*
X14794500Y-6295099D01*
X14794500Y-6514897D01*
X14800330Y-6544213D01*
X14822757Y-6577777D01*
X14830073Y-6614560D01*
X14822758Y-6632222D01*
X14822543Y-6632542D01*
X14822543Y-6632543D01*
X14815004Y-6643826D01*
X14800330Y-6665788D01*
X14794500Y-6695099D01*
X14794500Y-6914897D01*
X14800330Y-6944213D01*
X14822757Y-6977777D01*
X14830073Y-7014560D01*
X14822758Y-7032222D01*
X14822543Y-7032542D01*
X14822543Y-7032543D01*
X14815027Y-7043792D01*
X14800330Y-7065788D01*
X14794500Y-7095099D01*
X14794500Y-7314897D01*
X14800330Y-7344213D01*
X14822757Y-7377777D01*
X14830073Y-7414560D01*
X14822758Y-7432222D01*
X14822543Y-7432542D01*
X14822543Y-7432543D01*
X14818964Y-7437900D01*
X14800330Y-7465788D01*
X14794500Y-7495099D01*
X14794500Y-7714897D01*
X14800330Y-7744213D01*
X14822757Y-7777777D01*
X14830073Y-7814560D01*
X14822758Y-7832222D01*
X14822543Y-7832542D01*
X14822543Y-7832543D01*
X14815006Y-7843823D01*
X14800330Y-7865788D01*
X14794500Y-7895099D01*
X14794500Y-8114897D01*
X14800330Y-8144213D01*
X14822757Y-8177777D01*
X14830073Y-8214560D01*
X14822758Y-8232222D01*
X14822543Y-8232542D01*
X14822543Y-8232543D01*
X14817473Y-8240131D01*
X14800330Y-8265788D01*
X14794500Y-8295099D01*
X14794500Y-8514897D01*
X14800330Y-8544213D01*
X14822757Y-8577777D01*
X14830073Y-8614560D01*
X14822758Y-8632222D01*
X14822543Y-8632542D01*
X14822543Y-8632543D01*
X14815289Y-8643400D01*
X14800330Y-8665788D01*
X14794500Y-8695099D01*
X14794500Y-8914897D01*
X14800330Y-8944213D01*
X14822757Y-8977777D01*
X14830073Y-9014560D01*
X14822758Y-9032222D01*
X14822543Y-9032542D01*
X14822543Y-9032543D01*
X14821936Y-9033452D01*
X14800330Y-9065788D01*
X14794500Y-9095099D01*
X14794500Y-9314897D01*
X14800330Y-9344213D01*
X14822757Y-9377777D01*
X14830073Y-9414560D01*
X14822758Y-9432222D01*
X14822543Y-9432542D01*
X14822543Y-9432543D01*
X14819614Y-9436927D01*
X14800330Y-9465788D01*
X14794500Y-9495099D01*
X14794500Y-9714897D01*
X14800330Y-9744213D01*
X14822757Y-9777777D01*
X14830073Y-9814560D01*
X14822758Y-9832222D01*
X14822543Y-9832542D01*
X14822543Y-9832543D01*
X14810686Y-9850289D01*
X14800330Y-9865788D01*
X14794500Y-9895099D01*
X14794500Y-10114897D01*
X14800330Y-10144213D01*
X14822757Y-10177777D01*
X14830073Y-10214560D01*
X14822758Y-10232222D01*
X14822543Y-10232542D01*
X14822543Y-10232543D01*
X14816119Y-10242158D01*
X14800330Y-10265788D01*
X14794500Y-10295099D01*
X14794500Y-10514897D01*
X14800330Y-10544213D01*
X14822757Y-10577777D01*
X14830073Y-10614560D01*
X14822758Y-10632222D01*
X14822543Y-10632542D01*
X14822543Y-10632543D01*
X14809029Y-10652767D01*
X14800330Y-10665788D01*
X14794500Y-10695099D01*
X14794500Y-10914897D01*
X14800330Y-10944213D01*
X14819268Y-10972556D01*
X14822543Y-10977457D01*
X14855787Y-10999669D01*
X14885101Y-11005500D01*
X15206600Y-11005499D01*
X15241248Y-11019851D01*
X15255600Y-11054499D01*
X15255600Y-12039494D01*
X15252851Y-12055676D01*
X15251951Y-12058247D01*
X15251951Y-12058248D01*
X15251951Y-12058249D01*
X15255090Y-12086114D01*
X15244709Y-12122151D01*
X15211886Y-12140292D01*
X15206399Y-12140600D01*
X14878748Y-12140600D01*
X14844100Y-12126248D01*
X14709850Y-11991998D01*
X14695499Y-11957352D01*
X14695499Y-11195102D01*
X14690487Y-11169899D01*
X14689669Y-11165786D01*
X14667457Y-11132543D01*
X14646999Y-11118874D01*
X14634213Y-11110331D01*
X14634212Y-11110330D01*
X14634211Y-11110330D01*
X14604900Y-11104500D01*
X14385102Y-11104500D01*
X14355784Y-11110331D01*
X14322221Y-11132757D01*
X14285439Y-11140073D01*
X14267777Y-11132757D01*
X14267455Y-11132542D01*
X14255483Y-11124542D01*
X14234212Y-11110330D01*
X14204900Y-11104500D01*
X13985102Y-11104500D01*
X13955784Y-11110331D01*
X13922221Y-11132757D01*
X13885439Y-11140073D01*
X13867777Y-11132757D01*
X13867455Y-11132542D01*
X13855483Y-11124542D01*
X13834212Y-11110330D01*
X13804900Y-11104500D01*
X13585102Y-11104500D01*
X13555784Y-11110331D01*
X13522221Y-11132757D01*
X13485439Y-11140073D01*
X13467777Y-11132757D01*
X13467455Y-11132542D01*
X13455483Y-11124542D01*
X13434212Y-11110330D01*
X13404900Y-11104500D01*
X13185102Y-11104500D01*
X13155784Y-11110331D01*
X13122221Y-11132757D01*
X13085439Y-11140073D01*
X13067777Y-11132757D01*
X13067455Y-11132542D01*
X13055483Y-11124542D01*
X13034212Y-11110330D01*
X13004900Y-11104500D01*
X12785102Y-11104500D01*
X12755784Y-11110331D01*
X12722221Y-11132757D01*
X12685439Y-11140073D01*
X12667777Y-11132757D01*
X12667455Y-11132542D01*
X12655483Y-11124542D01*
X12634212Y-11110330D01*
X12604900Y-11104500D01*
X12385102Y-11104500D01*
X12355784Y-11110331D01*
X12322221Y-11132757D01*
X12285439Y-11140073D01*
X12267777Y-11132757D01*
X12267455Y-11132542D01*
X12255483Y-11124542D01*
X12234212Y-11110330D01*
X12204900Y-11104500D01*
X11985102Y-11104500D01*
X11955784Y-11110331D01*
X11922221Y-11132757D01*
X11885439Y-11140073D01*
X11867777Y-11132757D01*
X11867455Y-11132542D01*
X11855483Y-11124542D01*
X11834212Y-11110330D01*
X11804900Y-11104500D01*
X11585102Y-11104500D01*
X11555784Y-11110331D01*
X11522221Y-11132757D01*
X11485439Y-11140073D01*
X11467777Y-11132757D01*
X11467455Y-11132542D01*
X11455483Y-11124542D01*
X11434212Y-11110330D01*
X11404900Y-11104500D01*
X11185102Y-11104500D01*
X11155784Y-11110331D01*
X11122221Y-11132757D01*
X11085439Y-11140073D01*
X11067777Y-11132757D01*
X11067455Y-11132542D01*
X11055483Y-11124542D01*
X11034212Y-11110330D01*
X11004900Y-11104500D01*
X10785102Y-11104500D01*
X10755784Y-11110331D01*
X10722221Y-11132757D01*
X10685439Y-11140073D01*
X10667777Y-11132757D01*
X10667455Y-11132542D01*
X10655483Y-11124542D01*
X10634212Y-11110330D01*
X10604900Y-11104500D01*
X10385102Y-11104500D01*
X10355784Y-11110331D01*
X10322221Y-11132757D01*
X10285439Y-11140073D01*
X10267777Y-11132757D01*
X10267455Y-11132542D01*
X10255483Y-11124542D01*
X10234212Y-11110330D01*
X10204900Y-11104500D01*
X9985102Y-11104500D01*
X9955784Y-11110331D01*
X9922221Y-11132757D01*
X9885439Y-11140073D01*
X9867777Y-11132757D01*
X9867455Y-11132542D01*
X9855483Y-11124542D01*
X9834212Y-11110330D01*
X9804900Y-11104500D01*
X9585102Y-11104500D01*
X9555784Y-11110331D01*
X9522221Y-11132757D01*
X9485439Y-11140073D01*
X9467777Y-11132757D01*
X9467455Y-11132542D01*
X9455483Y-11124542D01*
X9434212Y-11110330D01*
X9404900Y-11104500D01*
X9185102Y-11104500D01*
X9155786Y-11110330D01*
X9122543Y-11132542D01*
X9100330Y-11165788D01*
X9094500Y-11195099D01*
X9094500Y-11738062D01*
X9080148Y-11772710D01*
X8463454Y-12389405D01*
X8450020Y-12402839D01*
X8450016Y-12402846D01*
X8446768Y-12414966D01*
X8441876Y-12426777D01*
X8435600Y-12437647D01*
X8435600Y-14761963D01*
X8421248Y-14796611D01*
X7891611Y-15326248D01*
X7856963Y-15340600D01*
X5299452Y-15340600D01*
X5264804Y-15326248D01*
X5251394Y-15301160D01*
X5241836Y-15253112D01*
X5241836Y-15253111D01*
X5189786Y-15175214D01*
X5111888Y-15123164D01*
X5111887Y-15123163D01*
X5043198Y-15109500D01*
X5043196Y-15109500D01*
X4626804Y-15109500D01*
X4626802Y-15109500D01*
X4558112Y-15123163D01*
X4480214Y-15175214D01*
X4428163Y-15253112D01*
X4418606Y-15301160D01*
X4397771Y-15332342D01*
X4370548Y-15340600D01*
X4197037Y-15340600D01*
X4162389Y-15326248D01*
X3841852Y-15005711D01*
X3827500Y-14971063D01*
X3827500Y-14450826D01*
X3822521Y-14424191D01*
X3812986Y-14373182D01*
X3757386Y-14283385D01*
X3757385Y-14283384D01*
X3673103Y-14219736D01*
X3637885Y-14209716D01*
X3571517Y-14190833D01*
X3571515Y-14190833D01*
X3466350Y-14200577D01*
X3371807Y-14247654D01*
X3300653Y-14325708D01*
X3264019Y-14420269D01*
X3238119Y-14447393D01*
X3200627Y-14448259D01*
X3173503Y-14422359D01*
X3170162Y-14411571D01*
X3162986Y-14373182D01*
X3133591Y-14325708D01*
X3107386Y-14283385D01*
X3107385Y-14283384D01*
X3023103Y-14219736D01*
X2987885Y-14209716D01*
X2921517Y-14190833D01*
X2921515Y-14190833D01*
X2816350Y-14200577D01*
X2721807Y-14247654D01*
X2650653Y-14325708D01*
X2614019Y-14420269D01*
X2588119Y-14447393D01*
X2550627Y-14448259D01*
X2523503Y-14422359D01*
X2520162Y-14411571D01*
X2512986Y-14373182D01*
X2483591Y-14325708D01*
X2457386Y-14283385D01*
X2457385Y-14283384D01*
X2373103Y-14219736D01*
X2337885Y-14209716D01*
X2271517Y-14190833D01*
X2271515Y-14190833D01*
X2166350Y-14200577D01*
X2071807Y-14247654D01*
X2000653Y-14325708D01*
X1967891Y-14410276D01*
X1941992Y-14437400D01*
X1904499Y-14438266D01*
X1877375Y-14412367D01*
X1873200Y-14392575D01*
X1873200Y-13947778D01*
X1887552Y-13913130D01*
X1887555Y-13913127D01*
X1892095Y-13908587D01*
X1936914Y-13820625D01*
X1942500Y-13809662D01*
X1944874Y-13794667D01*
X1959869Y-13700000D01*
X1942500Y-13590339D01*
X1942500Y-13590337D01*
X1892094Y-13491412D01*
X1813587Y-13412905D01*
X1714662Y-13362499D01*
X1605000Y-13345131D01*
X1495337Y-13362499D01*
X1396412Y-13412905D01*
X1317905Y-13491412D01*
X1267499Y-13590337D01*
X1250131Y-13700000D01*
X1267499Y-13809662D01*
X1317039Y-13906888D01*
X1317905Y-13908587D01*
X1322448Y-13913130D01*
X1336800Y-13947775D01*
X1336800Y-14352307D01*
X1333491Y-14370008D01*
X1312500Y-14424191D01*
X1312500Y-14900351D01*
X1298148Y-14934999D01*
X814215Y-15418931D01*
X800833Y-15428428D01*
X798373Y-15429612D01*
X779765Y-15452945D01*
X776111Y-15457035D01*
X770484Y-15462663D01*
X766250Y-15469401D01*
X763074Y-15473877D01*
X744466Y-15497211D01*
X743860Y-15499868D01*
X737583Y-15515025D01*
X736131Y-15517335D01*
X732788Y-15546993D01*
X731870Y-15552397D01*
X730100Y-15560158D01*
X730100Y-15568111D01*
X729792Y-15573597D01*
X727137Y-15597166D01*
X726451Y-15603251D01*
X727056Y-15604981D01*
X727350Y-15605819D01*
X730100Y-15622004D01*
X730100Y-16609494D01*
X727351Y-16625676D01*
X726451Y-16628248D01*
X30000Y-16628248D01*
X30000Y-7629897D01*
X1179500Y-7629897D01*
X1185330Y-7659213D01*
X1207009Y-7691658D01*
X1207543Y-7692457D01*
X1240787Y-7714669D01*
X1270101Y-7720500D01*
X2358061Y-7720499D01*
X2392709Y-7734851D01*
X2800024Y-8142166D01*
X2800029Y-8142169D01*
X2807842Y-8149982D01*
X2811121Y-8150860D01*
X2819962Y-8153230D01*
X2831781Y-8158125D01*
X2832867Y-8158752D01*
X2842648Y-8164399D01*
X2853695Y-8164399D01*
X2853701Y-8164400D01*
X2861650Y-8164400D01*
X4479378Y-8164400D01*
X4479386Y-8164399D01*
X4492352Y-8164399D01*
X4503215Y-8158126D01*
X4515031Y-8153230D01*
X4527158Y-8149982D01*
X4534973Y-8142167D01*
X4534976Y-8142165D01*
X4918389Y-7758752D01*
X4953037Y-7744400D01*
X7674264Y-7744400D01*
X7708912Y-7758752D01*
X7715006Y-7766177D01*
X7722757Y-7777777D01*
X7730074Y-7814559D01*
X7722757Y-7832223D01*
X7715006Y-7843823D01*
X7683823Y-7864659D01*
X7674264Y-7865600D01*
X5645622Y-7865600D01*
X5645614Y-7865601D01*
X5632647Y-7865601D01*
X5621776Y-7871876D01*
X5609967Y-7876768D01*
X5597842Y-7880017D01*
X5597839Y-7880019D01*
X5578787Y-7899069D01*
X5578781Y-7899077D01*
X5297711Y-8180148D01*
X5263063Y-8194500D01*
X4901802Y-8194500D01*
X4833112Y-8208163D01*
X4755214Y-8260214D01*
X4703163Y-8338112D01*
X4689500Y-8406802D01*
X4689500Y-8723197D01*
X4703163Y-8791887D01*
X4710664Y-8803113D01*
X4755214Y-8869786D01*
X4820767Y-8913587D01*
X4833112Y-8921836D01*
X4901802Y-8935500D01*
X4901804Y-8935500D01*
X5318198Y-8935500D01*
X5379920Y-8923222D01*
X5386888Y-8921836D01*
X5464786Y-8869786D01*
X5516836Y-8791888D01*
X5530500Y-8723196D01*
X5530500Y-8406804D01*
X5525324Y-8380786D01*
X5524798Y-8378139D01*
X5532114Y-8341357D01*
X5538203Y-8333937D01*
X5713388Y-8158752D01*
X5748037Y-8144400D01*
X6146817Y-8144400D01*
X6162804Y-8151022D01*
X6183184Y-8144400D01*
X6237974Y-8144400D01*
X6272622Y-8158752D01*
X6286974Y-8193400D01*
X6272622Y-8228048D01*
X6268522Y-8231712D01*
X6259443Y-8238951D01*
X6223405Y-8249330D01*
X6221231Y-8249036D01*
X6175520Y-8241797D01*
X6165968Y-8235944D01*
X6154482Y-8241797D01*
X6055337Y-8257500D01*
X5956412Y-8307905D01*
X5877905Y-8386412D01*
X5827499Y-8485337D01*
X5810130Y-8595000D01*
X5818122Y-8645461D01*
X5809366Y-8681927D01*
X5804373Y-8687773D01*
X5699715Y-8792431D01*
X5686333Y-8801928D01*
X5683873Y-8803112D01*
X5665265Y-8826445D01*
X5661611Y-8830535D01*
X5655984Y-8836163D01*
X5651750Y-8842901D01*
X5648574Y-8847377D01*
X5629966Y-8870711D01*
X5629360Y-8873368D01*
X5623083Y-8888525D01*
X5621631Y-8890835D01*
X5618288Y-8920493D01*
X5617370Y-8925897D01*
X5615600Y-8933658D01*
X5615600Y-8941611D01*
X5615292Y-8947097D01*
X5611951Y-8976750D01*
X5612850Y-8979319D01*
X5615600Y-8995504D01*
X5615600Y-9357126D01*
X5601248Y-9391774D01*
X5566600Y-9406126D01*
X5531952Y-9391774D01*
X5518542Y-9366686D01*
X5516836Y-9358112D01*
X5511416Y-9350000D01*
X5464786Y-9280214D01*
X5386888Y-9228164D01*
X5386887Y-9228163D01*
X5318198Y-9214500D01*
X5318196Y-9214500D01*
X4956937Y-9214500D01*
X4922289Y-9200148D01*
X4727164Y-9005023D01*
X4727163Y-9005023D01*
X4717159Y-8995019D01*
X4717158Y-8995018D01*
X4705032Y-8991768D01*
X4693219Y-8986875D01*
X4682351Y-8980600D01*
X4663352Y-8980600D01*
X4663350Y-8980600D01*
X4379499Y-8980600D01*
X4344851Y-8966248D01*
X4330499Y-8931600D01*
X4330499Y-8410102D01*
X4324669Y-8380786D01*
X4302457Y-8347543D01*
X4302456Y-8347542D01*
X4269213Y-8325331D01*
X4269212Y-8325330D01*
X4269211Y-8325330D01*
X4239900Y-8319500D01*
X3020102Y-8319500D01*
X2990786Y-8325330D01*
X2957543Y-8347542D01*
X2935330Y-8380788D01*
X2929500Y-8410099D01*
X2929500Y-9829897D01*
X2935330Y-9859213D01*
X2957542Y-9892456D01*
X2957543Y-9892457D01*
X2990787Y-9914669D01*
X3020101Y-9920500D01*
X3441600Y-9920499D01*
X3476248Y-9934851D01*
X3490600Y-9969499D01*
X3490600Y-10091962D01*
X3476248Y-10126610D01*
X3471333Y-10131525D01*
X3468635Y-10134223D01*
X3433986Y-10148572D01*
X3424431Y-10147631D01*
X3408688Y-10144500D01*
X3081312Y-10144500D01*
X3081309Y-10144500D01*
X3011162Y-10158453D01*
X2931609Y-10211609D01*
X2878453Y-10291162D01*
X2864500Y-10361309D01*
X2864500Y-10748690D01*
X2878453Y-10818837D01*
X2878453Y-10818838D01*
X2878454Y-10818839D01*
X2931609Y-10898391D01*
X3003678Y-10946546D01*
X3011161Y-10951546D01*
X3021193Y-10953542D01*
X3052375Y-10974377D01*
X3059691Y-11011160D01*
X3038856Y-11042342D01*
X3011633Y-11050600D01*
X1770506Y-11050600D01*
X1754324Y-11047851D01*
X1751751Y-11046951D01*
X1722099Y-11050292D01*
X1716613Y-11050600D01*
X1708656Y-11050600D01*
X1700899Y-11052370D01*
X1695486Y-11053290D01*
X1665836Y-11056630D01*
X1663527Y-11058082D01*
X1648370Y-11064360D01*
X1645709Y-11064968D01*
X1622379Y-11083571D01*
X1617908Y-11086744D01*
X1611164Y-11090981D01*
X1605530Y-11096615D01*
X1601440Y-11100269D01*
X1578112Y-11118873D01*
X1576929Y-11121331D01*
X1567432Y-11134713D01*
X1489715Y-11212431D01*
X1476333Y-11221928D01*
X1473873Y-11223112D01*
X1455266Y-11246444D01*
X1451612Y-11250534D01*
X1445984Y-11256163D01*
X1441750Y-11262901D01*
X1438574Y-11267377D01*
X1419966Y-11290711D01*
X1419360Y-11293368D01*
X1413083Y-11308525D01*
X1411631Y-11310835D01*
X1408288Y-11340493D01*
X1407370Y-11345897D01*
X1405600Y-11353658D01*
X1405600Y-11361611D01*
X1405292Y-11367097D01*
X1401951Y-11396750D01*
X1402850Y-11399319D01*
X1405600Y-11415504D01*
X1405600Y-11824450D01*
X1392812Y-11857461D01*
X1350653Y-11903707D01*
X1313210Y-12000359D01*
X1312500Y-12002192D01*
X1312500Y-12939175D01*
X1327014Y-13016818D01*
X1377649Y-13098596D01*
X1382614Y-13106615D01*
X1466896Y-13170263D01*
X1466897Y-13170263D01*
X1466898Y-13170264D01*
X1568483Y-13199167D01*
X1673649Y-13189422D01*
X1768193Y-13142345D01*
X1839346Y-13064293D01*
X1875980Y-12969728D01*
X1901879Y-12942606D01*
X1939372Y-12941740D01*
X1966496Y-12967639D01*
X1969837Y-12978427D01*
X1977013Y-13016817D01*
X2032614Y-13106615D01*
X2116896Y-13170263D01*
X2116897Y-13170263D01*
X2116898Y-13170264D01*
X2218483Y-13199167D01*
X2323649Y-13189422D01*
X2418193Y-13142345D01*
X2489346Y-13064293D01*
X2525980Y-12969728D01*
X2551879Y-12942606D01*
X2589372Y-12941740D01*
X2616496Y-12967639D01*
X2619837Y-12978427D01*
X2627013Y-13016817D01*
X2682614Y-13106615D01*
X2766896Y-13170263D01*
X2766897Y-13170263D01*
X2766898Y-13170264D01*
X2868483Y-13199167D01*
X2973649Y-13189422D01*
X3068193Y-13142345D01*
X3139346Y-13064293D01*
X3177500Y-12965808D01*
X3177500Y-12028825D01*
X3162986Y-11951182D01*
X3107386Y-11861385D01*
X3105221Y-11859750D01*
X3023103Y-11797736D01*
X2989240Y-11788101D01*
X2921517Y-11768833D01*
X2921515Y-11768833D01*
X2816350Y-11778577D01*
X2721807Y-11825654D01*
X2650653Y-11903708D01*
X2614019Y-11998269D01*
X2588119Y-12025393D01*
X2550627Y-12026259D01*
X2523503Y-12000359D01*
X2520162Y-11989571D01*
X2516214Y-11968453D01*
X2512986Y-11951182D01*
X2457386Y-11861385D01*
X2455221Y-11859750D01*
X2373103Y-11797736D01*
X2339240Y-11788101D01*
X2271517Y-11768833D01*
X2271515Y-11768833D01*
X2166350Y-11778577D01*
X2071807Y-11825654D01*
X2000653Y-11903708D01*
X1964019Y-11998269D01*
X1938119Y-12025393D01*
X1900627Y-12026259D01*
X1873503Y-12000359D01*
X1870162Y-11989571D01*
X1866214Y-11968453D01*
X1862986Y-11951182D01*
X1807386Y-11861385D01*
X1805218Y-11859748D01*
X1803868Y-11858728D01*
X1784869Y-11826393D01*
X1784400Y-11819627D01*
X1784400Y-11478400D01*
X1798752Y-11443752D01*
X1833400Y-11429400D01*
X4334494Y-11429400D01*
X4350676Y-11432149D01*
X4351423Y-11432410D01*
X4353249Y-11433049D01*
X4382902Y-11429707D01*
X4388388Y-11429400D01*
X4396339Y-11429400D01*
X4396341Y-11429400D01*
X4404101Y-11427628D01*
X4409505Y-11426710D01*
X4439164Y-11423369D01*
X4441464Y-11421923D01*
X4456637Y-11415637D01*
X4459291Y-11415032D01*
X4482631Y-11396417D01*
X4487099Y-11393248D01*
X4493836Y-11389016D01*
X4497062Y-11385788D01*
X4499461Y-11383391D01*
X4503549Y-11379736D01*
X4526887Y-11361126D01*
X4528068Y-11358672D01*
X4537565Y-11345285D01*
X4912999Y-10969852D01*
X4947648Y-10955500D01*
X5308691Y-10955500D01*
X5353702Y-10946546D01*
X5378839Y-10941546D01*
X5458391Y-10888391D01*
X5511546Y-10808839D01*
X5522897Y-10751775D01*
X5525500Y-10738690D01*
X5525500Y-10432646D01*
X5539851Y-10397999D01*
X5896952Y-10040898D01*
X5931600Y-10026547D01*
X5966248Y-10040899D01*
X5980600Y-10075547D01*
X5980600Y-10158433D01*
X5966248Y-10193081D01*
X5941160Y-10206491D01*
X5906162Y-10213453D01*
X5826609Y-10266609D01*
X5773453Y-10346162D01*
X5759500Y-10416309D01*
X5759500Y-10743690D01*
X5773453Y-10813837D01*
X5773453Y-10813838D01*
X5773454Y-10813839D01*
X5826609Y-10893391D01*
X5906161Y-10946546D01*
X5918302Y-10948961D01*
X5976309Y-10960500D01*
X5976312Y-10960500D01*
X6363691Y-10960500D01*
X6408702Y-10951546D01*
X6433839Y-10946546D01*
X6513391Y-10893391D01*
X6535858Y-10859765D01*
X6567040Y-10838931D01*
X6603823Y-10846247D01*
X6624658Y-10877429D01*
X6625600Y-10886989D01*
X6625600Y-11981962D01*
X6611248Y-12016610D01*
X6366611Y-12261248D01*
X6331963Y-12275600D01*
X6040622Y-12275600D01*
X6040614Y-12275601D01*
X6027647Y-12275601D01*
X6016776Y-12281876D01*
X6004967Y-12286768D01*
X5992842Y-12290017D01*
X5992839Y-12290019D01*
X5973786Y-12309070D01*
X5973782Y-12309076D01*
X5602710Y-12680148D01*
X5568062Y-12694500D01*
X4375102Y-12694500D01*
X4345786Y-12700330D01*
X4312543Y-12722542D01*
X4290330Y-12755788D01*
X4284500Y-12785099D01*
X4284500Y-14804897D01*
X4290330Y-14834213D01*
X4312542Y-14867456D01*
X4312543Y-14867457D01*
X4345787Y-14889669D01*
X4375101Y-14895500D01*
X5694898Y-14895499D01*
X5724213Y-14889669D01*
X5757457Y-14867457D01*
X5779669Y-14834213D01*
X5781185Y-14826590D01*
X5802019Y-14795409D01*
X5838802Y-14788092D01*
X5869984Y-14808926D01*
X5890448Y-14839552D01*
X5956769Y-14883867D01*
X5971389Y-14886775D01*
X6015249Y-14895500D01*
X6015252Y-14895500D01*
X7154751Y-14895500D01*
X7191377Y-14888214D01*
X7213231Y-14883867D01*
X7279552Y-14839552D01*
X7323867Y-14773231D01*
X7335500Y-14714748D01*
X7335500Y-13838197D01*
X7484500Y-13838197D01*
X7498163Y-13906887D01*
X7512009Y-13927608D01*
X7550214Y-13984786D01*
X7628112Y-14036836D01*
X7696802Y-14050500D01*
X7696804Y-14050500D01*
X7716600Y-14050500D01*
X7751248Y-14064852D01*
X7765600Y-14099500D01*
X7765600Y-14322624D01*
X7751248Y-14357272D01*
X7738846Y-14366283D01*
X7696412Y-14387904D01*
X7617905Y-14466412D01*
X7567499Y-14565337D01*
X7550131Y-14675000D01*
X7567499Y-14784662D01*
X7595468Y-14839552D01*
X7617905Y-14883587D01*
X7696413Y-14962095D01*
X7714014Y-14971063D01*
X7795337Y-15012500D01*
X7821718Y-15016678D01*
X7905000Y-15029869D01*
X7999667Y-15014874D01*
X8014662Y-15012500D01*
X8057868Y-14990485D01*
X8113587Y-14962095D01*
X8192095Y-14883587D01*
X8232189Y-14804898D01*
X8242500Y-14784662D01*
X8248980Y-14743747D01*
X8259869Y-14675000D01*
X8242500Y-14565339D01*
X8242500Y-14565337D01*
X8198349Y-14478688D01*
X8192095Y-14466413D01*
X8153504Y-14427822D01*
X8113587Y-14387904D01*
X8071154Y-14366283D01*
X8046798Y-14337765D01*
X8044400Y-14322624D01*
X8044400Y-14099500D01*
X8058752Y-14064852D01*
X8093400Y-14050500D01*
X8113198Y-14050500D01*
X8158990Y-14041390D01*
X8181888Y-14036836D01*
X8259786Y-13984786D01*
X8311836Y-13906888D01*
X8323106Y-13850230D01*
X8325500Y-13838197D01*
X8325500Y-13521802D01*
X8311836Y-13453112D01*
X8311836Y-13453111D01*
X8259786Y-13375214D01*
X8187092Y-13326641D01*
X8181887Y-13323163D01*
X8113198Y-13309500D01*
X8113196Y-13309500D01*
X7696804Y-13309500D01*
X7696802Y-13309500D01*
X7628112Y-13323163D01*
X7550214Y-13375214D01*
X7498163Y-13453112D01*
X7484500Y-13521802D01*
X7484500Y-13838197D01*
X7335500Y-13838197D01*
X7335500Y-12875252D01*
X7335500Y-12875251D01*
X7335500Y-12875249D01*
X7323867Y-12816770D01*
X7323867Y-12816769D01*
X7279552Y-12750448D01*
X7279551Y-12750447D01*
X7221177Y-12711442D01*
X7200341Y-12680259D01*
X7199400Y-12670700D01*
X7199400Y-10227915D01*
X7213752Y-10193267D01*
X7331952Y-10075067D01*
X7366600Y-10060715D01*
X7401248Y-10075067D01*
X7415600Y-10109715D01*
X7415600Y-11413613D01*
X7410259Y-11435859D01*
X7382499Y-11490337D01*
X7365131Y-11600000D01*
X7382499Y-11709662D01*
X7425193Y-11793452D01*
X7432905Y-11808587D01*
X7511413Y-11887095D01*
X7610339Y-11937500D01*
X7720000Y-11954869D01*
X7720001Y-11954868D01*
X7724265Y-11955544D01*
X7756242Y-11975139D01*
X7765600Y-12003941D01*
X7765600Y-12240500D01*
X7751248Y-12275148D01*
X7716600Y-12289500D01*
X7696802Y-12289500D01*
X7628112Y-12303163D01*
X7550214Y-12355214D01*
X7498163Y-12433112D01*
X7484500Y-12501802D01*
X7484500Y-12818197D01*
X7498163Y-12886887D01*
X7498164Y-12886888D01*
X7550214Y-12964786D01*
X7607956Y-13003368D01*
X7628112Y-13016836D01*
X7696802Y-13030500D01*
X7696804Y-13030500D01*
X8113198Y-13030500D01*
X8161784Y-13020835D01*
X8181888Y-13016836D01*
X8259786Y-12964786D01*
X8311836Y-12886888D01*
X8322248Y-12834543D01*
X8325500Y-12818197D01*
X8325500Y-12501802D01*
X8311836Y-12433112D01*
X8307603Y-12426777D01*
X8259786Y-12355214D01*
X8190727Y-12309070D01*
X8181887Y-12303163D01*
X8113198Y-12289500D01*
X8113196Y-12289500D01*
X8093400Y-12289500D01*
X8058752Y-12275148D01*
X8044400Y-12240500D01*
X8044400Y-11760622D01*
X8044399Y-11760614D01*
X8044399Y-11747136D01*
X8049741Y-11724889D01*
X8057499Y-11709662D01*
X8057500Y-11709661D01*
X8074869Y-11600000D01*
X8057500Y-11490339D01*
X8057500Y-11490337D01*
X8023377Y-11423369D01*
X8007095Y-11391413D01*
X7928587Y-11312905D01*
X7911285Y-11304089D01*
X7829662Y-11262499D01*
X7735735Y-11247623D01*
X7703758Y-11228027D01*
X7694400Y-11199226D01*
X7694400Y-11047164D01*
X7708752Y-11012516D01*
X7743400Y-10998164D01*
X7752961Y-10999106D01*
X7755785Y-10999667D01*
X7755787Y-10999669D01*
X7785101Y-11005500D01*
X8904898Y-11005499D01*
X8934213Y-10999669D01*
X8967457Y-10977457D01*
X8989669Y-10944213D01*
X8995500Y-10914899D01*
X8995499Y-10695102D01*
X8995498Y-10695099D01*
X8989669Y-10665786D01*
X8974209Y-10642648D01*
X8967457Y-10632543D01*
X8967456Y-10632542D01*
X8967242Y-10632222D01*
X8959926Y-10595440D01*
X8967242Y-10577776D01*
X8967453Y-10577459D01*
X8967457Y-10577457D01*
X8989669Y-10544213D01*
X8995500Y-10514899D01*
X8995499Y-10295102D01*
X8993266Y-10283874D01*
X8989669Y-10265786D01*
X8973881Y-10242158D01*
X8967457Y-10232543D01*
X8967456Y-10232542D01*
X8967242Y-10232222D01*
X8959926Y-10195440D01*
X8967242Y-10177776D01*
X8967453Y-10177459D01*
X8967457Y-10177457D01*
X8989669Y-10144213D01*
X8995500Y-10114899D01*
X8995499Y-9895102D01*
X8989669Y-9865787D01*
X8989669Y-9865786D01*
X8977095Y-9846969D01*
X8967457Y-9832543D01*
X8967456Y-9832542D01*
X8967242Y-9832222D01*
X8959926Y-9795440D01*
X8967242Y-9777776D01*
X8967453Y-9777459D01*
X8967457Y-9777457D01*
X8989669Y-9744213D01*
X8995500Y-9714899D01*
X8995499Y-9495102D01*
X8989669Y-9465787D01*
X8989669Y-9465786D01*
X8970386Y-9436927D01*
X8967457Y-9432543D01*
X8967456Y-9432542D01*
X8967242Y-9432222D01*
X8959926Y-9395440D01*
X8967242Y-9377776D01*
X8967453Y-9377459D01*
X8967457Y-9377457D01*
X8989669Y-9344213D01*
X8995500Y-9314899D01*
X8995499Y-9095102D01*
X8992108Y-9078051D01*
X8989669Y-9065786D01*
X8968064Y-9033452D01*
X8967457Y-9032543D01*
X8967456Y-9032542D01*
X8967242Y-9032222D01*
X8959926Y-8995440D01*
X8967242Y-8977776D01*
X8967453Y-8977459D01*
X8967457Y-8977457D01*
X8989669Y-8944213D01*
X8995500Y-8914899D01*
X8995499Y-8695102D01*
X8992879Y-8681927D01*
X8989669Y-8665786D01*
X8974711Y-8643400D01*
X8967457Y-8632543D01*
X8967456Y-8632542D01*
X8967242Y-8632222D01*
X8959926Y-8595440D01*
X8967242Y-8577776D01*
X8967453Y-8577459D01*
X8967457Y-8577457D01*
X8989669Y-8544213D01*
X8995500Y-8514899D01*
X8995499Y-8295102D01*
X8989669Y-8265787D01*
X8989669Y-8265786D01*
X8972527Y-8240131D01*
X8967457Y-8232543D01*
X8967456Y-8232542D01*
X8967242Y-8232222D01*
X8959926Y-8195440D01*
X8967242Y-8177776D01*
X8967453Y-8177459D01*
X8967457Y-8177457D01*
X8989669Y-8144213D01*
X8995500Y-8114899D01*
X8995499Y-7895102D01*
X8990755Y-7871248D01*
X8989669Y-7865786D01*
X8974994Y-7843823D01*
X8967457Y-7832543D01*
X8967456Y-7832542D01*
X8967242Y-7832222D01*
X8959926Y-7795440D01*
X8967242Y-7777776D01*
X8967453Y-7777459D01*
X8967457Y-7777457D01*
X8989669Y-7744213D01*
X8995500Y-7714899D01*
X8995499Y-7495102D01*
X8989669Y-7465787D01*
X8989669Y-7465786D01*
X8967457Y-7432543D01*
X8940542Y-7414560D01*
X8934213Y-7410331D01*
X8934212Y-7410330D01*
X8934211Y-7410330D01*
X8904900Y-7404500D01*
X7785102Y-7404500D01*
X7755786Y-7410330D01*
X7722542Y-7432543D01*
X7715006Y-7443823D01*
X7683823Y-7464658D01*
X7674264Y-7465600D01*
X4850622Y-7465600D01*
X4850614Y-7465601D01*
X4837647Y-7465601D01*
X4826776Y-7471876D01*
X4814967Y-7476768D01*
X4802842Y-7480017D01*
X4802839Y-7480019D01*
X4783787Y-7499069D01*
X4783782Y-7499077D01*
X4411611Y-7871248D01*
X4376963Y-7885600D01*
X2958037Y-7885600D01*
X2923389Y-7871248D01*
X2594851Y-7542709D01*
X2580499Y-7508061D01*
X2580499Y-6210102D01*
X2574669Y-6180786D01*
X2552457Y-6147543D01*
X2523643Y-6128291D01*
X2519213Y-6125331D01*
X2519212Y-6125330D01*
X2519211Y-6125330D01*
X2489901Y-6119500D01*
X2489899Y-6119500D01*
X2068400Y-6119500D01*
X2033752Y-6105148D01*
X2019400Y-6070500D01*
X2019400Y-5943037D01*
X2033752Y-5908389D01*
X2046362Y-5895779D01*
X2081010Y-5881427D01*
X2090570Y-5882369D01*
X2106310Y-5885500D01*
X2106312Y-5885500D01*
X2433691Y-5885500D01*
X2475778Y-5877127D01*
X2503839Y-5871546D01*
X2583391Y-5818391D01*
X2636546Y-5738839D01*
X2646411Y-5689247D01*
X2650500Y-5668690D01*
X2650500Y-5281309D01*
X2637290Y-5214900D01*
X2636546Y-5211161D01*
X2583391Y-5131609D01*
X2503839Y-5078454D01*
X2503838Y-5078453D01*
X2503837Y-5078453D01*
X2433691Y-5064500D01*
X2433688Y-5064500D01*
X2106312Y-5064500D01*
X2106309Y-5064500D01*
X2036162Y-5078453D01*
X1956609Y-5131609D01*
X1903453Y-5211162D01*
X1889500Y-5281309D01*
X1889500Y-5638063D01*
X1875148Y-5672711D01*
X1755020Y-5792839D01*
X1755016Y-5792846D01*
X1751768Y-5804966D01*
X1746876Y-5816777D01*
X1740600Y-5827647D01*
X1740600Y-6070500D01*
X1726248Y-6105148D01*
X1691600Y-6119500D01*
X1270102Y-6119500D01*
X1240786Y-6125330D01*
X1207543Y-6147542D01*
X1185330Y-6180788D01*
X1179500Y-6210099D01*
X1179500Y-7629897D01*
X30000Y-7629897D01*
X30000Y-4719750D01*
X514500Y-4719750D01*
X526132Y-4778229D01*
X570447Y-4844552D01*
X601936Y-4865592D01*
X636769Y-4888867D01*
X651389Y-4891775D01*
X695249Y-4900500D01*
X695252Y-4900500D01*
X2534751Y-4900500D01*
X2569837Y-4893520D01*
X2593231Y-4888867D01*
X2659552Y-4844552D01*
X2703867Y-4778231D01*
X2715500Y-4719748D01*
X2715500Y-4388400D01*
X2729852Y-4353752D01*
X2764500Y-4339400D01*
X3641252Y-4339400D01*
X3675900Y-4353752D01*
X6232430Y-6910282D01*
X6241928Y-6923666D01*
X6243113Y-6926126D01*
X6266447Y-6944735D01*
X6270544Y-6948396D01*
X6276164Y-6954016D01*
X6279408Y-6956054D01*
X6282897Y-6958247D01*
X6287375Y-6961424D01*
X6310709Y-6980032D01*
X6313366Y-6980638D01*
X6328531Y-6986921D01*
X6330835Y-6988369D01*
X6336255Y-6988979D01*
X6360492Y-6991710D01*
X6365903Y-6992630D01*
X6373658Y-6994400D01*
X6373659Y-6994400D01*
X6381612Y-6994400D01*
X6387097Y-6994707D01*
X6416751Y-6998049D01*
X6419321Y-6997149D01*
X6435504Y-6994400D01*
X7733038Y-6994400D01*
X7746110Y-6998365D01*
X7746229Y-6997768D01*
X7755787Y-6999669D01*
X7785101Y-7005500D01*
X8904898Y-7005499D01*
X8934213Y-6999669D01*
X8967457Y-6977457D01*
X8989669Y-6944213D01*
X8995500Y-6914899D01*
X8995499Y-6695102D01*
X8989669Y-6665787D01*
X8989669Y-6665786D01*
X8974996Y-6643826D01*
X8967457Y-6632543D01*
X8967456Y-6632542D01*
X8967242Y-6632222D01*
X8959926Y-6595440D01*
X8967242Y-6577776D01*
X8967453Y-6577459D01*
X8967457Y-6577457D01*
X8989669Y-6544213D01*
X8995500Y-6514899D01*
X8995499Y-6295102D01*
X8989669Y-6265787D01*
X8989669Y-6265786D01*
X8974996Y-6243826D01*
X8967457Y-6232543D01*
X8967456Y-6232542D01*
X8967242Y-6232222D01*
X8959926Y-6195440D01*
X8967242Y-6177776D01*
X8967453Y-6177459D01*
X8967457Y-6177457D01*
X8989669Y-6144213D01*
X8995500Y-6114899D01*
X8995499Y-5895102D01*
X8992779Y-5881427D01*
X8989669Y-5865786D01*
X8974994Y-5843824D01*
X8967457Y-5832543D01*
X8967456Y-5832542D01*
X8967242Y-5832222D01*
X8959926Y-5795440D01*
X8967242Y-5777776D01*
X8967453Y-5777459D01*
X8967457Y-5777457D01*
X8989669Y-5744213D01*
X8995500Y-5714899D01*
X8995499Y-5495102D01*
X8989669Y-5465787D01*
X8989669Y-5465786D01*
X8967457Y-5432543D01*
X8967456Y-5432542D01*
X8934213Y-5410331D01*
X8934212Y-5410330D01*
X8934211Y-5410330D01*
X8904901Y-5404500D01*
X8904899Y-5404500D01*
X8417648Y-5404500D01*
X8383000Y-5390148D01*
X5781999Y-2789147D01*
X5767647Y-2754499D01*
X5781999Y-2719851D01*
X5816647Y-2705499D01*
X6189898Y-2705499D01*
X6219213Y-2699669D01*
X6226057Y-2695096D01*
X6252457Y-2677457D01*
X6274669Y-2644213D01*
X6280500Y-2614899D01*
X6280499Y-2549676D01*
X6294850Y-2515030D01*
X6329498Y-2500678D01*
X6364147Y-2515029D01*
X6377557Y-2540118D01*
X6386133Y-2583229D01*
X6430448Y-2649552D01*
X6463609Y-2671709D01*
X6496770Y-2693867D01*
X6502949Y-2695096D01*
X6555250Y-2705500D01*
X6555253Y-2705500D01*
X7527352Y-2705500D01*
X7562000Y-2719852D01*
X9080148Y-4238000D01*
X9094500Y-4272648D01*
X9094500Y-5214897D01*
X9100330Y-5244213D01*
X9117510Y-5269925D01*
X9122543Y-5277457D01*
X9155787Y-5299669D01*
X9185101Y-5305500D01*
X9404898Y-5305499D01*
X9434213Y-5299669D01*
X9467457Y-5277457D01*
X9467458Y-5277454D01*
X9467777Y-5277242D01*
X9504559Y-5269925D01*
X9522223Y-5277242D01*
X9522541Y-5277454D01*
X9522543Y-5277457D01*
X9555787Y-5299669D01*
X9585101Y-5305500D01*
X9804898Y-5305499D01*
X9834213Y-5299669D01*
X9867457Y-5277457D01*
X9867458Y-5277454D01*
X9867777Y-5277242D01*
X9904559Y-5269925D01*
X9922223Y-5277242D01*
X9922541Y-5277454D01*
X9922543Y-5277457D01*
X9955787Y-5299669D01*
X9985101Y-5305500D01*
X10204898Y-5305499D01*
X10234213Y-5299669D01*
X10267457Y-5277457D01*
X10267458Y-5277454D01*
X10267777Y-5277242D01*
X10304559Y-5269925D01*
X10322223Y-5277242D01*
X10322541Y-5277454D01*
X10322543Y-5277457D01*
X10355787Y-5299669D01*
X10385101Y-5305500D01*
X10604898Y-5305499D01*
X10634213Y-5299669D01*
X10667457Y-5277457D01*
X10667458Y-5277454D01*
X10667777Y-5277242D01*
X10704559Y-5269925D01*
X10722223Y-5277242D01*
X10722541Y-5277454D01*
X10722543Y-5277457D01*
X10755787Y-5299669D01*
X10785101Y-5305500D01*
X11004898Y-5305499D01*
X11034213Y-5299669D01*
X11067457Y-5277457D01*
X11067458Y-5277454D01*
X11067777Y-5277242D01*
X11104559Y-5269925D01*
X11122223Y-5277242D01*
X11122541Y-5277454D01*
X11122543Y-5277457D01*
X11155787Y-5299669D01*
X11185101Y-5305500D01*
X11404898Y-5305499D01*
X11434213Y-5299669D01*
X11467457Y-5277457D01*
X11467458Y-5277454D01*
X11467777Y-5277242D01*
X11504559Y-5269925D01*
X11522223Y-5277242D01*
X11522541Y-5277454D01*
X11522543Y-5277457D01*
X11555787Y-5299669D01*
X11585101Y-5305500D01*
X11804898Y-5305499D01*
X11834213Y-5299669D01*
X11867457Y-5277457D01*
X11867458Y-5277454D01*
X11867777Y-5277242D01*
X11904559Y-5269925D01*
X11922223Y-5277242D01*
X11922541Y-5277454D01*
X11922543Y-5277457D01*
X11955787Y-5299669D01*
X11985101Y-5305500D01*
X12204898Y-5305499D01*
X12234213Y-5299669D01*
X12267457Y-5277457D01*
X12267458Y-5277454D01*
X12267777Y-5277242D01*
X12304559Y-5269925D01*
X12322223Y-5277242D01*
X12322541Y-5277454D01*
X12322543Y-5277457D01*
X12355787Y-5299669D01*
X12385101Y-5305500D01*
X12604898Y-5305499D01*
X12634213Y-5299669D01*
X12667457Y-5277457D01*
X12667458Y-5277454D01*
X12667777Y-5277242D01*
X12704559Y-5269925D01*
X12722223Y-5277242D01*
X12722541Y-5277454D01*
X12722543Y-5277457D01*
X12755787Y-5299669D01*
X12785101Y-5305500D01*
X13004898Y-5305499D01*
X13034213Y-5299669D01*
X13067457Y-5277457D01*
X13067458Y-5277454D01*
X13067777Y-5277242D01*
X13104559Y-5269925D01*
X13122223Y-5277242D01*
X13122541Y-5277454D01*
X13122543Y-5277457D01*
X13155787Y-5299669D01*
X13185101Y-5305500D01*
X13404898Y-5305499D01*
X13434213Y-5299669D01*
X13467457Y-5277457D01*
X13467458Y-5277454D01*
X13467777Y-5277242D01*
X13504559Y-5269925D01*
X13522223Y-5277242D01*
X13522541Y-5277454D01*
X13522543Y-5277457D01*
X13555787Y-5299669D01*
X13585101Y-5305500D01*
X13804898Y-5305499D01*
X13834213Y-5299669D01*
X13867457Y-5277457D01*
X13867458Y-5277454D01*
X13867777Y-5277242D01*
X13904559Y-5269925D01*
X13922223Y-5277242D01*
X13922541Y-5277454D01*
X13922543Y-5277457D01*
X13955787Y-5299669D01*
X13985101Y-5305500D01*
X14204898Y-5305499D01*
X14234213Y-5299669D01*
X14267457Y-5277457D01*
X14267458Y-5277454D01*
X14267777Y-5277242D01*
X14304559Y-5269925D01*
X14322223Y-5277242D01*
X14322541Y-5277454D01*
X14322543Y-5277457D01*
X14355787Y-5299669D01*
X14385101Y-5305500D01*
X14604898Y-5305499D01*
X14634213Y-5299669D01*
X14667457Y-5277457D01*
X14689669Y-5244213D01*
X14695500Y-5214899D01*
X14695499Y-4095102D01*
X14689669Y-4065787D01*
X14687768Y-4056226D01*
X14688364Y-4056107D01*
X14684400Y-4043036D01*
X14684400Y-3756578D01*
X14698752Y-3721930D01*
X14737230Y-3683452D01*
X14782095Y-3638587D01*
X14821997Y-3560275D01*
X14836024Y-3532746D01*
X14836939Y-3533212D01*
X14851925Y-3508758D01*
X14880727Y-3499400D01*
X14888434Y-3499400D01*
X14923082Y-3513752D01*
X14936492Y-3538839D01*
X14937487Y-3543841D01*
X14943454Y-3573840D01*
X14957168Y-3594364D01*
X14996609Y-3653391D01*
X15076161Y-3706546D01*
X15084587Y-3708222D01*
X15146309Y-3720500D01*
X15146312Y-3720500D01*
X15473691Y-3720500D01*
X15518702Y-3711546D01*
X15543839Y-3706546D01*
X15623391Y-3653391D01*
X15676546Y-3573839D01*
X15684720Y-3532746D01*
X15690500Y-3503690D01*
X15690500Y-3116309D01*
X15677541Y-3051162D01*
X15676546Y-3046161D01*
X15623391Y-2966609D01*
X15543839Y-2913454D01*
X15543838Y-2913453D01*
X15543837Y-2913453D01*
X15473691Y-2899500D01*
X15473688Y-2899500D01*
X15146312Y-2899500D01*
X15146309Y-2899500D01*
X15076162Y-2913453D01*
X14996609Y-2966609D01*
X14943454Y-3046159D01*
X14942747Y-3049716D01*
X14936492Y-3081160D01*
X14915657Y-3112342D01*
X14888434Y-3120600D01*
X14671574Y-3120600D01*
X14649329Y-3115259D01*
X14642070Y-3111561D01*
X14604662Y-3092499D01*
X14495000Y-3075131D01*
X14385337Y-3092499D01*
X14286412Y-3142905D01*
X14207905Y-3221412D01*
X14157499Y-3320337D01*
X14140131Y-3430000D01*
X14157499Y-3539662D01*
X14207188Y-3637179D01*
X14207905Y-3638587D01*
X14286413Y-3717095D01*
X14286414Y-3717095D01*
X14291248Y-3721929D01*
X14305600Y-3756577D01*
X14305600Y-3966358D01*
X14291248Y-4001006D01*
X14256600Y-4015358D01*
X14243914Y-4011510D01*
X14243771Y-4012232D01*
X14204900Y-4004500D01*
X13985102Y-4004500D01*
X13955784Y-4010331D01*
X13922221Y-4032757D01*
X13885439Y-4040073D01*
X13867777Y-4032757D01*
X13865638Y-4031328D01*
X13841737Y-4015358D01*
X13834212Y-4010330D01*
X13804900Y-4004500D01*
X13585102Y-4004500D01*
X13555784Y-4010331D01*
X13522221Y-4032757D01*
X13485439Y-4040073D01*
X13467777Y-4032757D01*
X13465638Y-4031328D01*
X13441737Y-4015358D01*
X13434212Y-4010330D01*
X13404900Y-4004500D01*
X13185102Y-4004500D01*
X13155784Y-4010331D01*
X13122221Y-4032757D01*
X13085439Y-4040073D01*
X13067777Y-4032757D01*
X13065638Y-4031328D01*
X13041737Y-4015358D01*
X13034212Y-4010330D01*
X13004900Y-4004500D01*
X12785102Y-4004500D01*
X12755784Y-4010331D01*
X12722221Y-4032757D01*
X12685439Y-4040073D01*
X12667777Y-4032757D01*
X12665638Y-4031328D01*
X12641737Y-4015358D01*
X12634212Y-4010330D01*
X12604900Y-4004500D01*
X12385102Y-4004500D01*
X12355784Y-4010331D01*
X12322221Y-4032757D01*
X12285439Y-4040073D01*
X12267777Y-4032757D01*
X12265638Y-4031328D01*
X12241737Y-4015358D01*
X12234212Y-4010330D01*
X12204900Y-4004500D01*
X11985102Y-4004500D01*
X11955784Y-4010331D01*
X11922221Y-4032757D01*
X11885439Y-4040073D01*
X11867777Y-4032757D01*
X11865638Y-4031328D01*
X11841737Y-4015358D01*
X11834212Y-4010330D01*
X11804900Y-4004500D01*
X11585102Y-4004500D01*
X11555784Y-4010331D01*
X11522221Y-4032757D01*
X11485439Y-4040073D01*
X11467777Y-4032757D01*
X11465638Y-4031328D01*
X11441737Y-4015358D01*
X11434212Y-4010330D01*
X11404900Y-4004500D01*
X11185102Y-4004500D01*
X11146226Y-4012232D01*
X11145792Y-4010049D01*
X11123838Y-4014415D01*
X11092656Y-3993578D01*
X11084400Y-3966357D01*
X11084400Y-3838747D01*
X11098751Y-3804100D01*
X11227226Y-3675624D01*
X11261873Y-3661273D01*
X11269530Y-3661875D01*
X11320000Y-3669869D01*
X11424036Y-3653391D01*
X11429662Y-3652500D01*
X11473376Y-3630226D01*
X11528587Y-3602095D01*
X11607095Y-3523587D01*
X11607095Y-3523586D01*
X11611930Y-3518752D01*
X11646578Y-3504400D01*
X11708434Y-3504400D01*
X11743082Y-3518752D01*
X11756492Y-3543839D01*
X11760852Y-3565758D01*
X11763454Y-3578840D01*
X11778993Y-3602095D01*
X11816609Y-3658391D01*
X11896161Y-3711546D01*
X11913698Y-3715034D01*
X11966309Y-3725500D01*
X11966312Y-3725500D01*
X12293691Y-3725500D01*
X12335942Y-3717095D01*
X12363839Y-3711546D01*
X12443391Y-3658391D01*
X12496546Y-3578839D01*
X12505966Y-3531480D01*
X12510500Y-3508690D01*
X12510500Y-3121309D01*
X12496546Y-3051162D01*
X12496546Y-3051161D01*
X12443391Y-2971609D01*
X12363839Y-2918454D01*
X12363838Y-2918453D01*
X12363837Y-2918453D01*
X12293691Y-2904500D01*
X12293688Y-2904500D01*
X11966312Y-2904500D01*
X11966309Y-2904500D01*
X11896162Y-2918453D01*
X11816609Y-2971609D01*
X11763454Y-3051159D01*
X11760633Y-3065338D01*
X11756492Y-3086160D01*
X11735657Y-3117342D01*
X11708434Y-3125600D01*
X11646578Y-3125600D01*
X11611930Y-3111248D01*
X11528587Y-3027905D01*
X11429662Y-2977499D01*
X11319998Y-2960130D01*
X11305833Y-2962374D01*
X11269366Y-2953618D01*
X11249772Y-2921641D01*
X11258528Y-2885174D01*
X11263515Y-2879335D01*
X11422999Y-2719851D01*
X11457648Y-2705499D01*
X12499898Y-2705499D01*
X12529213Y-2699669D01*
X12536057Y-2695096D01*
X12562457Y-2677457D01*
X12584669Y-2644213D01*
X12589506Y-2619897D01*
X13109500Y-2619897D01*
X13115330Y-2649213D01*
X13136846Y-2681414D01*
X13137543Y-2682457D01*
X13170787Y-2704669D01*
X13200101Y-2710500D01*
X14519898Y-2710499D01*
X14549213Y-2704669D01*
X14582457Y-2682457D01*
X14604669Y-2649213D01*
X14610500Y-2619899D01*
X14610499Y-600102D01*
X14604669Y-570787D01*
X14604669Y-570786D01*
X14582457Y-537543D01*
X14550413Y-516133D01*
X14549213Y-515331D01*
X14549212Y-515330D01*
X14549211Y-515330D01*
X14519900Y-509500D01*
X13200102Y-509500D01*
X13170786Y-515330D01*
X13137543Y-537542D01*
X13115330Y-570788D01*
X13109500Y-600099D01*
X13109500Y-2619897D01*
X12589506Y-2619897D01*
X12590500Y-2614899D01*
X12590499Y-595102D01*
X12585664Y-570788D01*
X12584669Y-565786D01*
X12562457Y-532543D01*
X12562456Y-532542D01*
X12529213Y-510331D01*
X12529212Y-510330D01*
X12529211Y-510330D01*
X12499900Y-504500D01*
X11180102Y-504500D01*
X11150786Y-510330D01*
X11117543Y-532542D01*
X11095330Y-565789D01*
X11093814Y-573410D01*
X11072977Y-604591D01*
X11036194Y-611906D01*
X11005014Y-591071D01*
X10984552Y-560448D01*
X10942788Y-532542D01*
X10918231Y-516133D01*
X10918230Y-516132D01*
X10918229Y-516132D01*
X10859751Y-504500D01*
X10859748Y-504500D01*
X9720252Y-504500D01*
X9720249Y-504500D01*
X9661770Y-516132D01*
X9595447Y-560447D01*
X9551132Y-626770D01*
X9539500Y-685249D01*
X9539500Y-2524750D01*
X9551132Y-2583229D01*
X9595447Y-2649552D01*
X9628608Y-2671709D01*
X9661769Y-2693867D01*
X9667948Y-2695096D01*
X9720249Y-2705500D01*
X9720252Y-2705500D01*
X9856600Y-2705500D01*
X9891248Y-2719852D01*
X9905600Y-2754500D01*
X9905600Y-3425276D01*
X9891248Y-3459924D01*
X9856600Y-3474276D01*
X9821952Y-3459924D01*
X9818291Y-3455828D01*
X9816125Y-3453112D01*
X9813666Y-3451928D01*
X9800282Y-3442430D01*
X9146999Y-2789147D01*
X9132647Y-2754499D01*
X9146999Y-2719851D01*
X9181647Y-2705499D01*
X9334899Y-2705499D01*
X9364214Y-2699669D01*
X9371058Y-2695096D01*
X9397458Y-2677457D01*
X9419670Y-2644213D01*
X9425501Y-2614899D01*
X9425500Y-595102D01*
X9420665Y-570788D01*
X9419670Y-565786D01*
X9397458Y-532543D01*
X9397457Y-532542D01*
X9364214Y-510331D01*
X9364213Y-510330D01*
X9364212Y-510330D01*
X9334901Y-504500D01*
X8015103Y-504500D01*
X7985787Y-510330D01*
X7952544Y-532542D01*
X7930331Y-565789D01*
X7928815Y-573410D01*
X7907978Y-604591D01*
X7871195Y-611906D01*
X7840015Y-591071D01*
X7819553Y-560448D01*
X7777789Y-532542D01*
X7753232Y-516133D01*
X7753231Y-516132D01*
X7753230Y-516132D01*
X7694752Y-504500D01*
X7694749Y-504500D01*
X6555253Y-504500D01*
X6555250Y-504500D01*
X6496771Y-516132D01*
X6430448Y-560447D01*
X6386133Y-626769D01*
X6377557Y-669886D01*
X6356722Y-701068D01*
X6319939Y-708384D01*
X6288757Y-687549D01*
X6280499Y-660326D01*
X6280499Y-595102D01*
X6274669Y-565786D01*
X6252457Y-532543D01*
X6252456Y-532542D01*
X6219213Y-510331D01*
X6219212Y-510330D01*
X6219211Y-510330D01*
X6189900Y-504500D01*
X4870102Y-504500D01*
X4840786Y-510330D01*
X4807543Y-532542D01*
X4785330Y-565789D01*
X4783814Y-573410D01*
X4762977Y-604591D01*
X4726194Y-611906D01*
X4695014Y-591071D01*
X4674552Y-560448D01*
X4632788Y-532542D01*
X4608231Y-516133D01*
X4608230Y-516132D01*
X4608229Y-516132D01*
X4549751Y-504500D01*
X4549748Y-504500D01*
X3410252Y-504500D01*
X3410249Y-504500D01*
X3351770Y-516132D01*
X3285447Y-560447D01*
X3241132Y-626770D01*
X3229500Y-685249D01*
X3229500Y-2524750D01*
X3241132Y-2583229D01*
X3285447Y-2649552D01*
X3318608Y-2671709D01*
X3351769Y-2693867D01*
X3357948Y-2695096D01*
X3410249Y-2705500D01*
X3410252Y-2705500D01*
X4027352Y-2705500D01*
X4062000Y-2719852D01*
X7452430Y-6110282D01*
X7461928Y-6123666D01*
X7463112Y-6126125D01*
X7465828Y-6128291D01*
X7483968Y-6161115D01*
X7473585Y-6197152D01*
X7440761Y-6215292D01*
X7435276Y-6215600D01*
X6913748Y-6215600D01*
X6879100Y-6201248D01*
X3727568Y-3049716D01*
X3718070Y-3036331D01*
X3716887Y-3033874D01*
X3704798Y-3024233D01*
X3693551Y-3015263D01*
X3689455Y-3011602D01*
X3683835Y-3005982D01*
X3677100Y-3001750D01*
X3672620Y-2998572D01*
X3651090Y-2981403D01*
X3649291Y-2979968D01*
X3646632Y-2979361D01*
X3631473Y-2973081D01*
X3629164Y-2971631D01*
X3613895Y-2969910D01*
X3599502Y-2968288D01*
X3594093Y-2967368D01*
X3586341Y-2965600D01*
X3578388Y-2965600D01*
X3572902Y-2965292D01*
X3543249Y-2961951D01*
X3543248Y-2961951D01*
X3540676Y-2962851D01*
X3524494Y-2965600D01*
X2764500Y-2965600D01*
X2729852Y-2951248D01*
X2715500Y-2916600D01*
X2715499Y-1940102D01*
X2709669Y-1910786D01*
X2687457Y-1877543D01*
X2673420Y-1868164D01*
X2654213Y-1855331D01*
X2654212Y-1855330D01*
X2654211Y-1855330D01*
X2624901Y-1849500D01*
X2624899Y-1849500D01*
X1278400Y-1849500D01*
X1243752Y-1835148D01*
X1229400Y-1800500D01*
X1229400Y-1649505D01*
X1243752Y-1614857D01*
X1261981Y-1605113D01*
X1266884Y-1601836D01*
X1266888Y-1601836D01*
X1344786Y-1549786D01*
X1396836Y-1471888D01*
X1410500Y-1403196D01*
X1410500Y-986804D01*
X1409202Y-980280D01*
X1396836Y-918112D01*
X1344786Y-840214D01*
X1266888Y-788164D01*
X1266887Y-788163D01*
X1198198Y-774500D01*
X1198196Y-774500D01*
X881804Y-774500D01*
X881802Y-774500D01*
X813112Y-788163D01*
X735214Y-840214D01*
X683163Y-918112D01*
X669500Y-986802D01*
X669500Y-1403197D01*
X683163Y-1471887D01*
X683164Y-1471888D01*
X735214Y-1549786D01*
X813112Y-1601836D01*
X813113Y-1601836D01*
X821217Y-1607251D01*
X820793Y-1607884D01*
X842339Y-1622277D01*
X850600Y-1649505D01*
X850600Y-1800500D01*
X836248Y-1835148D01*
X801600Y-1849500D01*
X605102Y-1849500D01*
X575786Y-1855330D01*
X542543Y-1877542D01*
X520330Y-1910788D01*
X514500Y-1940099D01*
X514500Y-3259897D01*
X520330Y-3289213D01*
X542542Y-3322456D01*
X542543Y-3322457D01*
X575787Y-3344669D01*
X583408Y-3346185D01*
X614590Y-3367020D01*
X621907Y-3403802D01*
X601072Y-3434984D01*
X570448Y-3455447D01*
X526132Y-3521770D01*
X514500Y-3580249D01*
X514500Y-4719750D01*
X30000Y-4719750D01*
X30000Y-79000D01*
X44352Y-44352D01*
X79000Y-30000D01*
X23921000Y-30000D01*
X23955648Y-44352D01*
G37*
%TD.AperFunction*%
%TD*%
M02*
