%TF.GenerationSoftware,KiCad,Pcbnew,7.0.2-6a45011f42~172~ubuntu22.04.1*%
%TF.CreationDate,2023-05-22T20:19:49+08:00*%
%TF.ProjectId,fly2040,666c7932-3034-4302-9e6b-696361645f70,rev?*%
%TF.SameCoordinates,PX4323800PY2f1c8c0*%
%TF.FileFunction,Copper,L2,Inr*%
%TF.FilePolarity,Positive*%
%FSLAX46Y46*%
G04 Gerber Fmt 4.6, Leading zero omitted, Abs format (unit mm)*
G04 Created by KiCad (PCBNEW 7.0.2-6a45011f42~172~ubuntu22.04.1) date 2023-05-22 20:19:49*
%MOMM*%
%LPD*%
G01*
G04 APERTURE LIST*
G04 Aperture macros list*
%AMRoundRect*
0 Rectangle with rounded corners*
0 $1 Rounding radius*
0 $2 $3 $4 $5 $6 $7 $8 $9 X,Y pos of 4 corners*
0 Add a 4 corners polygon primitive as box body*
4,1,4,$2,$3,$4,$5,$6,$7,$8,$9,$2,$3,0*
0 Add four circle primitives for the rounded corners*
1,1,$1+$1,$2,$3*
1,1,$1+$1,$4,$5*
1,1,$1+$1,$6,$7*
1,1,$1+$1,$8,$9*
0 Add four rect primitives between the rounded corners*
20,1,$1+$1,$2,$3,$4,$5,0*
20,1,$1+$1,$4,$5,$6,$7,0*
20,1,$1+$1,$6,$7,$8,$9,0*
20,1,$1+$1,$8,$9,$2,$3,0*%
G04 Aperture macros list end*
%TA.AperFunction,ComponentPad*%
%ADD10R,1.300000X2.000000*%
%TD*%
%TA.AperFunction,ComponentPad*%
%ADD11RoundRect,0.100000X-0.550000X0.900000X-0.550000X-0.900000X0.550000X-0.900000X0.550000X0.900000X0*%
%TD*%
%TA.AperFunction,ComponentPad*%
%ADD12O,1.000000X1.000000*%
%TD*%
%TA.AperFunction,ComponentPad*%
%ADD13RoundRect,0.100000X0.550000X-0.900000X0.550000X0.900000X-0.550000X0.900000X-0.550000X-0.900000X0*%
%TD*%
%TA.AperFunction,ComponentPad*%
%ADD14R,2.000000X1.300000*%
%TD*%
%TA.AperFunction,ComponentPad*%
%ADD15RoundRect,0.100000X-0.900000X-0.550000X0.900000X-0.550000X0.900000X0.550000X-0.900000X0.550000X0*%
%TD*%
%TA.AperFunction,ViaPad*%
%ADD16C,0.450000*%
%TD*%
%TA.AperFunction,Conductor*%
%ADD17C,0.357600*%
%TD*%
G04 APERTURE END LIST*
D10*
%TO.N,NS_10*%
%TO.C,J9*%
X8675001Y-1605000D03*
D11*
%TO.N,NS_11*%
X7125001Y-1605000D03*
%TD*%
D10*
%TO.N,NS_8*%
%TO.C,J10*%
X11840000Y-1605000D03*
D11*
%TO.N,NS_9*%
X10290000Y-1605000D03*
%TD*%
D12*
%TO.N,RST*%
%TO.C,J8*%
X22189248Y-1283121D03*
%TO.N,BOOT*%
X22189248Y-2553121D03*
%TO.N,D+*%
X22189248Y-3823121D03*
%TO.N,D-*%
X22189248Y-5093121D03*
%TO.N,+3V3*%
X22189248Y-6363121D03*
%TO.N,GND*%
X22189248Y-7633121D03*
%TD*%
D10*
%TO.N,+3V3*%
%TO.C,J1*%
X13860000Y-1610000D03*
D13*
%TO.N,GND*%
X15410000Y-1610000D03*
%TD*%
D10*
%TO.N,NS_CMD*%
%TO.C,J4*%
X14415000Y-17340000D03*
D13*
%TO.N,NS_D0*%
X15965000Y-17340000D03*
%TD*%
D14*
%TO.N,NS_CPU_PD*%
%TO.C,J2*%
X1615000Y-2600000D03*
D15*
%TO.N,NS_CPU*%
X1615000Y-4150000D03*
%TD*%
D10*
%TO.N,DBG_CLK*%
%TO.C,J7*%
X5035000Y-13795000D03*
D13*
%TO.N,DBG_DAT*%
X6585000Y-13795000D03*
%TD*%
D10*
%TO.N,NS_SDA*%
%TO.C,J6*%
X5530000Y-1605000D03*
D11*
%TO.N,NS_SCL*%
X3980000Y-1605000D03*
%TD*%
D10*
%TO.N,NS_19*%
%TO.C,J11*%
X8065000Y-17340000D03*
D13*
%TO.N,NS_20*%
X9615000Y-17340000D03*
%TD*%
D14*
%TO.N,D+*%
%TO.C,J5*%
X22350000Y-9740000D03*
D15*
%TO.N,D-*%
X22350000Y-11290000D03*
%TD*%
D10*
%TO.N,NS_RST*%
%TO.C,J3*%
X11255000Y-17340000D03*
D13*
%TO.N,NS_CLK*%
X12805000Y-17340000D03*
%TD*%
D16*
%TO.N,GND*%
X1260000Y-5450000D03*
X14070000Y-10350000D03*
X9685000Y-5995000D03*
X18630000Y-5050000D03*
X1250000Y-10600000D03*
X2880000Y-1240000D03*
X4170000Y-10570000D03*
X21210000Y-14295000D03*
X4795000Y-17900000D03*
X4210000Y-5470000D03*
X5115000Y-12355000D03*
%TO.N,+3V3*%
X14495000Y-3430000D03*
X11320000Y-3315000D03*
X14795000Y-12925000D03*
X6165000Y-8595000D03*
X7905000Y-14675000D03*
X17640000Y-9615000D03*
X16445000Y-11420000D03*
X17585000Y-17705000D03*
X10070000Y-13460000D03*
%TO.N,RST*%
X7720000Y-11600000D03*
%TO.N,+1V1*%
X6550000Y-9350000D03*
X17325000Y-8705000D03*
X17615000Y-11790000D03*
%TO.N,+5V*%
X18281000Y-13514000D03*
X1605000Y-13700000D03*
%TD*%
D17*
%TO.N,+1V1*%
X16980000Y-9050000D02*
X16980000Y-10415000D01*
X17615000Y-11050000D02*
X17615000Y-11790000D01*
X17325000Y-8705000D02*
X16980000Y-9050000D01*
X7195000Y-8705000D02*
X17325000Y-8705000D01*
X16980000Y-10415000D02*
X17615000Y-11050000D01*
X6550000Y-9350000D02*
X7195000Y-8705000D01*
%TD*%
%TA.AperFunction,Conductor*%
%TO.N,GND*%
G36*
X23902187Y-50002D02*
G01*
X23948680Y-103658D01*
X23960066Y-155933D01*
X23969933Y-18843933D01*
X23949967Y-18912065D01*
X23896336Y-18958586D01*
X23843933Y-18970000D01*
X156000Y-18970000D01*
X87879Y-18949998D01*
X41386Y-18896342D01*
X30000Y-18844000D01*
X30000Y-18349897D01*
X7314500Y-18349897D01*
X7318814Y-18371583D01*
X7320331Y-18379213D01*
X7342543Y-18412457D01*
X7375787Y-18434669D01*
X7405101Y-18440500D01*
X8724898Y-18440499D01*
X8754213Y-18434669D01*
X8787457Y-18412457D01*
X8787458Y-18412454D01*
X8804831Y-18400847D01*
X8872584Y-18379632D01*
X8941051Y-18398415D01*
X8944829Y-18400843D01*
X8986769Y-18428867D01*
X9045252Y-18440500D01*
X9045253Y-18440500D01*
X10184747Y-18440500D01*
X10184748Y-18440500D01*
X10243231Y-18428867D01*
X10309552Y-18384552D01*
X10309552Y-18384551D01*
X10319773Y-18377722D01*
X10361435Y-18342904D01*
X10431878Y-18334055D01*
X10495923Y-18364695D01*
X10516489Y-18388430D01*
X10532543Y-18412457D01*
X10565787Y-18434669D01*
X10595101Y-18440500D01*
X11914898Y-18440499D01*
X11944213Y-18434669D01*
X11977457Y-18412457D01*
X11977458Y-18412454D01*
X11994831Y-18400847D01*
X12062584Y-18379632D01*
X12131051Y-18398415D01*
X12134829Y-18400843D01*
X12176769Y-18428867D01*
X12235252Y-18440500D01*
X12235253Y-18440500D01*
X13374747Y-18440500D01*
X13374748Y-18440500D01*
X13433231Y-18428867D01*
X13499552Y-18384552D01*
X13499553Y-18384549D01*
X13515318Y-18374016D01*
X13583071Y-18352801D01*
X13651538Y-18371583D01*
X13690084Y-18408777D01*
X13692543Y-18412457D01*
X13725787Y-18434669D01*
X13755101Y-18440500D01*
X15074898Y-18440499D01*
X15104213Y-18434669D01*
X15137457Y-18412457D01*
X15137458Y-18412454D01*
X15154831Y-18400847D01*
X15222584Y-18379632D01*
X15291051Y-18398415D01*
X15294829Y-18400843D01*
X15336769Y-18428867D01*
X15395252Y-18440500D01*
X15395253Y-18440500D01*
X16534747Y-18440500D01*
X16534748Y-18440500D01*
X16593231Y-18428867D01*
X16659552Y-18384552D01*
X16703867Y-18318231D01*
X16715500Y-18259748D01*
X16715500Y-17704999D01*
X17054965Y-17704999D01*
X17073025Y-17842183D01*
X17125974Y-17970016D01*
X17125976Y-17970018D01*
X17210209Y-18079791D01*
X17299263Y-18148125D01*
X17319983Y-18164025D01*
X17447816Y-18216974D01*
X17463775Y-18219075D01*
X17585000Y-18235035D01*
X17722183Y-18216974D01*
X17850018Y-18164024D01*
X17959791Y-18079791D01*
X18044024Y-17970018D01*
X18096974Y-17842183D01*
X18115035Y-17705000D01*
X18096974Y-17567817D01*
X18044024Y-17439983D01*
X17959791Y-17330209D01*
X17891455Y-17277772D01*
X17850016Y-17245974D01*
X17722183Y-17193025D01*
X17600958Y-17177066D01*
X17585000Y-17174965D01*
X17584999Y-17174965D01*
X17447817Y-17193025D01*
X17319983Y-17245975D01*
X17210209Y-17330209D01*
X17125975Y-17439983D01*
X17073025Y-17567817D01*
X17054965Y-17704999D01*
X16715500Y-17704999D01*
X16715500Y-16420252D01*
X16703867Y-16361769D01*
X16687381Y-16337096D01*
X16659552Y-16295447D01*
X16593231Y-16251133D01*
X16564057Y-16245330D01*
X16534748Y-16239500D01*
X15395252Y-16239500D01*
X15366010Y-16245316D01*
X15336768Y-16251133D01*
X15294834Y-16279153D01*
X15227081Y-16300367D01*
X15158614Y-16281584D01*
X15154832Y-16279153D01*
X15137457Y-16267543D01*
X15104213Y-16245331D01*
X15104212Y-16245330D01*
X15074899Y-16239500D01*
X13755102Y-16239500D01*
X13725787Y-16245331D01*
X13692542Y-16267544D01*
X13690086Y-16271220D01*
X13635609Y-16316748D01*
X13565166Y-16325596D01*
X13515319Y-16305983D01*
X13433231Y-16251133D01*
X13404057Y-16245330D01*
X13374748Y-16239500D01*
X12235252Y-16239500D01*
X12206010Y-16245316D01*
X12176768Y-16251133D01*
X12134834Y-16279153D01*
X12067081Y-16300367D01*
X11998614Y-16281584D01*
X11994832Y-16279153D01*
X11977457Y-16267543D01*
X11944213Y-16245331D01*
X11944212Y-16245330D01*
X11914899Y-16239500D01*
X10595102Y-16239500D01*
X10565787Y-16245331D01*
X10532542Y-16267544D01*
X10516490Y-16291568D01*
X10462014Y-16337096D01*
X10391570Y-16345944D01*
X10327526Y-16315303D01*
X10311380Y-16296669D01*
X10243231Y-16251133D01*
X10214057Y-16245330D01*
X10184748Y-16239500D01*
X9045252Y-16239500D01*
X9016010Y-16245316D01*
X8986768Y-16251133D01*
X8944834Y-16279153D01*
X8877081Y-16300367D01*
X8808614Y-16281584D01*
X8804832Y-16279153D01*
X8787457Y-16267543D01*
X8754213Y-16245331D01*
X8754212Y-16245330D01*
X8724899Y-16239500D01*
X7405102Y-16239500D01*
X7375787Y-16245331D01*
X7342543Y-16267543D01*
X7320330Y-16300787D01*
X7314500Y-16330100D01*
X7314500Y-18349897D01*
X30000Y-18349897D01*
X30000Y-14804897D01*
X4284500Y-14804897D01*
X4289171Y-14828381D01*
X4290331Y-14834213D01*
X4312543Y-14867457D01*
X4345787Y-14889669D01*
X4375101Y-14895500D01*
X5694898Y-14895499D01*
X5724213Y-14889669D01*
X5757457Y-14867457D01*
X5757458Y-14867454D01*
X5774831Y-14855847D01*
X5842584Y-14834632D01*
X5911051Y-14853415D01*
X5914829Y-14855843D01*
X5956769Y-14883867D01*
X6015252Y-14895500D01*
X6015253Y-14895500D01*
X7154747Y-14895500D01*
X7154748Y-14895500D01*
X7213231Y-14883867D01*
X7249649Y-14859532D01*
X7317400Y-14838317D01*
X7385868Y-14857099D01*
X7433311Y-14909916D01*
X7436060Y-14916079D01*
X7445975Y-14940017D01*
X7445976Y-14940018D01*
X7530209Y-15049791D01*
X7619263Y-15118125D01*
X7639983Y-15134025D01*
X7767816Y-15186974D01*
X7783775Y-15189075D01*
X7905000Y-15205035D01*
X8042183Y-15186974D01*
X8170018Y-15134024D01*
X8279791Y-15049791D01*
X8364024Y-14940018D01*
X8376493Y-14909916D01*
X8416974Y-14812183D01*
X8422102Y-14773231D01*
X8435035Y-14675000D01*
X8416974Y-14537817D01*
X8364024Y-14409983D01*
X8279791Y-14300209D01*
X8188340Y-14230035D01*
X8170016Y-14215974D01*
X8042183Y-14163025D01*
X7920958Y-14147066D01*
X7905000Y-14144965D01*
X7904999Y-14144965D01*
X7767817Y-14163025D01*
X7639980Y-14215976D01*
X7538204Y-14294073D01*
X7471984Y-14319674D01*
X7402435Y-14305409D01*
X7351639Y-14255808D01*
X7335500Y-14194111D01*
X7335500Y-13459999D01*
X9539965Y-13459999D01*
X9558025Y-13597183D01*
X9610974Y-13725016D01*
X9610976Y-13725018D01*
X9695209Y-13834791D01*
X9765581Y-13888790D01*
X9804983Y-13919025D01*
X9932816Y-13971974D01*
X9950876Y-13974351D01*
X10070000Y-13990035D01*
X10207183Y-13971974D01*
X10335018Y-13919024D01*
X10444791Y-13834791D01*
X10529024Y-13725018D01*
X10581974Y-13597183D01*
X10592926Y-13513999D01*
X17750965Y-13513999D01*
X17769025Y-13651183D01*
X17821974Y-13779016D01*
X17821976Y-13779018D01*
X17906209Y-13888791D01*
X17995263Y-13957125D01*
X18015983Y-13973025D01*
X18143816Y-14025974D01*
X18159775Y-14028075D01*
X18281000Y-14044035D01*
X18418183Y-14025974D01*
X18504949Y-13990035D01*
X18546016Y-13973025D01*
X18546016Y-13973024D01*
X18546018Y-13973024D01*
X18655791Y-13888791D01*
X18740024Y-13779018D01*
X18792974Y-13651183D01*
X18811035Y-13514000D01*
X18792974Y-13376817D01*
X18740024Y-13248983D01*
X18655791Y-13139209D01*
X18585418Y-13085209D01*
X18546016Y-13054974D01*
X18418183Y-13002025D01*
X18296958Y-12986066D01*
X18281000Y-12983965D01*
X18280999Y-12983965D01*
X18143817Y-13002025D01*
X18015983Y-13054975D01*
X17906209Y-13139209D01*
X17821975Y-13248983D01*
X17769025Y-13376817D01*
X17750965Y-13513999D01*
X10592926Y-13513999D01*
X10600035Y-13460000D01*
X10581974Y-13322817D01*
X10529024Y-13194983D01*
X10444791Y-13085209D01*
X10376455Y-13032772D01*
X10335016Y-13000974D01*
X10207183Y-12948025D01*
X10085958Y-12932066D01*
X10070000Y-12929965D01*
X10069999Y-12929965D01*
X9932817Y-12948025D01*
X9804983Y-13000975D01*
X9695209Y-13085209D01*
X9610975Y-13194983D01*
X9558025Y-13322817D01*
X9539965Y-13459999D01*
X7335500Y-13459999D01*
X7335500Y-12924999D01*
X14264965Y-12924999D01*
X14283025Y-13062183D01*
X14335974Y-13190016D01*
X14367772Y-13231455D01*
X14420209Y-13299791D01*
X14509263Y-13368125D01*
X14529983Y-13384025D01*
X14657816Y-13436974D01*
X14673775Y-13439075D01*
X14795000Y-13455035D01*
X14932183Y-13436974D01*
X15060018Y-13384024D01*
X15169791Y-13299791D01*
X15254024Y-13190018D01*
X15297437Y-13085209D01*
X15306974Y-13062183D01*
X15315032Y-13000975D01*
X15325035Y-12925000D01*
X15306974Y-12787817D01*
X15254024Y-12659983D01*
X15169791Y-12550209D01*
X15101455Y-12497772D01*
X15060016Y-12465974D01*
X14932183Y-12413025D01*
X14810958Y-12397066D01*
X14795000Y-12394965D01*
X14794999Y-12394965D01*
X14657817Y-12413025D01*
X14529983Y-12465975D01*
X14420209Y-12550209D01*
X14335975Y-12659983D01*
X14283025Y-12787817D01*
X14264965Y-12924999D01*
X7335500Y-12924999D01*
X7335500Y-12875253D01*
X7335500Y-12875252D01*
X7323867Y-12816769D01*
X7304522Y-12787817D01*
X7279552Y-12750447D01*
X7213231Y-12706133D01*
X7184057Y-12700330D01*
X7154748Y-12694500D01*
X6015252Y-12694500D01*
X5986010Y-12700316D01*
X5956768Y-12706133D01*
X5914834Y-12734153D01*
X5847081Y-12755367D01*
X5778614Y-12736584D01*
X5774832Y-12734153D01*
X5757457Y-12722543D01*
X5724213Y-12700331D01*
X5724212Y-12700330D01*
X5694899Y-12694500D01*
X4375102Y-12694500D01*
X4345787Y-12700331D01*
X4312543Y-12722543D01*
X4290330Y-12755787D01*
X4284500Y-12785100D01*
X4284500Y-14804897D01*
X30000Y-14804897D01*
X30000Y-13699999D01*
X1074965Y-13699999D01*
X1093025Y-13837183D01*
X1145974Y-13965016D01*
X1152119Y-13973024D01*
X1230209Y-14074791D01*
X1319263Y-14143125D01*
X1339983Y-14159025D01*
X1467816Y-14211974D01*
X1483775Y-14214075D01*
X1605000Y-14230035D01*
X1742183Y-14211974D01*
X1785309Y-14194111D01*
X1870016Y-14159025D01*
X1870016Y-14159024D01*
X1870018Y-14159024D01*
X1979791Y-14074791D01*
X2064024Y-13965018D01*
X2116974Y-13837183D01*
X2135035Y-13700000D01*
X2116974Y-13562817D01*
X2064024Y-13434983D01*
X1979791Y-13325209D01*
X1880453Y-13248983D01*
X1870016Y-13240974D01*
X1742183Y-13188025D01*
X1620958Y-13172066D01*
X1605000Y-13169965D01*
X1604999Y-13169965D01*
X1467817Y-13188025D01*
X1339983Y-13240975D01*
X1230209Y-13325209D01*
X1145975Y-13434983D01*
X1093025Y-13562817D01*
X1074965Y-13699999D01*
X30000Y-13699999D01*
X30000Y-11599999D01*
X7189965Y-11599999D01*
X7208025Y-11737183D01*
X7260974Y-11865016D01*
X7260976Y-11865018D01*
X7345209Y-11974791D01*
X7415680Y-12028866D01*
X7454983Y-12059025D01*
X7582816Y-12111974D01*
X7598775Y-12114075D01*
X7720000Y-12130035D01*
X7857183Y-12111974D01*
X7985018Y-12059024D01*
X8094791Y-11974791D01*
X8179024Y-11865018D01*
X8208113Y-11794791D01*
X8231974Y-11737183D01*
X8237612Y-11694359D01*
X8250035Y-11600000D01*
X8231974Y-11462817D01*
X8179024Y-11334983D01*
X8094791Y-11225209D01*
X8026455Y-11172772D01*
X7985016Y-11140974D01*
X7857183Y-11088025D01*
X7735958Y-11072066D01*
X7720000Y-11069965D01*
X7719999Y-11069965D01*
X7582817Y-11088025D01*
X7454983Y-11140975D01*
X7345209Y-11225209D01*
X7260975Y-11334983D01*
X7208025Y-11462817D01*
X7189965Y-11599999D01*
X30000Y-11599999D01*
X30000Y-8594999D01*
X5634965Y-8594999D01*
X5653025Y-8732183D01*
X5705974Y-8860016D01*
X5705976Y-8860018D01*
X5790209Y-8969791D01*
X5899982Y-9054024D01*
X5948845Y-9074263D01*
X5961386Y-9079458D01*
X6016667Y-9124005D01*
X6039089Y-9191368D01*
X6038091Y-9212313D01*
X6019965Y-9349999D01*
X6038025Y-9487183D01*
X6090974Y-9615016D01*
X6090976Y-9615018D01*
X6175209Y-9724791D01*
X6264263Y-9793125D01*
X6284983Y-9809025D01*
X6412816Y-9861974D01*
X6430877Y-9864351D01*
X6550000Y-9880035D01*
X6687183Y-9861974D01*
X6815018Y-9809024D01*
X6924791Y-9724791D01*
X7009024Y-9615018D01*
X7009032Y-9615000D01*
X7061974Y-9487183D01*
X7063207Y-9477817D01*
X7080035Y-9350000D01*
X7070607Y-9278396D01*
X7081546Y-9208251D01*
X7106431Y-9172859D01*
X7269187Y-9010104D01*
X7331501Y-8976079D01*
X7358283Y-8973200D01*
X16585800Y-8973200D01*
X16653921Y-8993202D01*
X16700414Y-9046858D01*
X16711800Y-9099200D01*
X16711800Y-10376176D01*
X16709379Y-10400756D01*
X16706545Y-10414999D01*
X16727360Y-10519647D01*
X16778567Y-10596283D01*
X16778573Y-10596290D01*
X16786638Y-10608360D01*
X16798709Y-10616426D01*
X16817802Y-10632095D01*
X17075672Y-10889965D01*
X17309895Y-11124187D01*
X17343920Y-11186500D01*
X17346800Y-11213283D01*
X17346800Y-11271282D01*
X17326798Y-11339403D01*
X17297505Y-11371243D01*
X17240209Y-11415208D01*
X17240209Y-11415209D01*
X17198509Y-11469553D01*
X17141170Y-11511420D01*
X17070299Y-11515641D01*
X17008397Y-11480876D01*
X16975116Y-11418163D01*
X16973625Y-11409294D01*
X16968615Y-11371243D01*
X16956974Y-11282817D01*
X16904024Y-11154983D01*
X16819791Y-11045209D01*
X16751455Y-10992772D01*
X16710016Y-10960974D01*
X16582183Y-10908025D01*
X16460958Y-10892066D01*
X16445000Y-10889965D01*
X16444999Y-10889965D01*
X16307817Y-10908025D01*
X16179983Y-10960975D01*
X16070209Y-11045209D01*
X15985975Y-11154983D01*
X15933025Y-11282817D01*
X15914965Y-11419999D01*
X15933025Y-11557183D01*
X15985974Y-11685016D01*
X15996383Y-11698581D01*
X16070209Y-11794791D01*
X16154859Y-11859746D01*
X16179983Y-11879025D01*
X16307816Y-11931974D01*
X16323775Y-11934075D01*
X16445000Y-11950035D01*
X16582183Y-11931974D01*
X16710018Y-11879024D01*
X16819791Y-11794791D01*
X16861491Y-11740447D01*
X16918828Y-11698581D01*
X16989699Y-11694359D01*
X17051601Y-11729123D01*
X17084883Y-11791836D01*
X17086374Y-11800705D01*
X17103025Y-11927183D01*
X17155974Y-12055016D01*
X17187772Y-12096455D01*
X17240209Y-12164791D01*
X17329263Y-12233125D01*
X17349983Y-12249025D01*
X17477816Y-12301974D01*
X17493775Y-12304075D01*
X17615000Y-12320035D01*
X17752183Y-12301974D01*
X17880018Y-12249024D01*
X17989791Y-12164791D01*
X18074024Y-12055018D01*
X18080038Y-12040500D01*
X18126974Y-11927183D01*
X18135158Y-11865018D01*
X18135852Y-11859748D01*
X21249500Y-11859748D01*
X21261132Y-11918230D01*
X21261133Y-11918231D01*
X21305447Y-11984552D01*
X21349762Y-12014162D01*
X21371769Y-12028867D01*
X21430252Y-12040500D01*
X21430253Y-12040500D01*
X23269747Y-12040500D01*
X23269748Y-12040500D01*
X23328231Y-12028867D01*
X23394552Y-11984552D01*
X23438867Y-11918231D01*
X23450500Y-11859748D01*
X23450500Y-10720252D01*
X23438867Y-10661769D01*
X23410846Y-10619834D01*
X23389632Y-10552083D01*
X23408415Y-10483616D01*
X23410847Y-10479831D01*
X23422454Y-10462458D01*
X23422457Y-10462457D01*
X23444669Y-10429213D01*
X23450500Y-10399899D01*
X23450499Y-9080102D01*
X23444669Y-9050787D01*
X23422457Y-9017543D01*
X23389213Y-8995331D01*
X23389212Y-8995330D01*
X23359899Y-8989500D01*
X21340102Y-8989500D01*
X21310787Y-8995331D01*
X21277543Y-9017543D01*
X21255330Y-9050787D01*
X21249500Y-9080100D01*
X21249500Y-10399897D01*
X21252504Y-10414999D01*
X21255331Y-10429213D01*
X21277543Y-10462457D01*
X21277544Y-10462457D01*
X21289153Y-10479832D01*
X21310367Y-10547585D01*
X21291583Y-10616052D01*
X21289153Y-10619834D01*
X21261133Y-10661768D01*
X21261132Y-10661769D01*
X21261133Y-10661769D01*
X21249500Y-10720252D01*
X21249500Y-11859748D01*
X18135852Y-11859748D01*
X18145035Y-11790000D01*
X18126974Y-11652817D01*
X18074024Y-11524983D01*
X18074023Y-11524980D01*
X17989793Y-11415210D01*
X17932495Y-11371243D01*
X17890628Y-11313904D01*
X17883200Y-11271281D01*
X17883200Y-11088823D01*
X17885621Y-11064243D01*
X17885778Y-11063452D01*
X17888454Y-11050000D01*
X17867639Y-10945353D01*
X17867639Y-10945352D01*
X17816432Y-10868717D01*
X17816427Y-10868711D01*
X17808361Y-10856639D01*
X17796283Y-10848569D01*
X17777194Y-10832902D01*
X17285104Y-10340811D01*
X17251079Y-10278499D01*
X17248200Y-10251716D01*
X17248200Y-10210081D01*
X17268202Y-10141960D01*
X17321858Y-10095467D01*
X17392132Y-10085363D01*
X17422417Y-10093672D01*
X17502816Y-10126974D01*
X17518775Y-10129075D01*
X17640000Y-10145035D01*
X17777183Y-10126974D01*
X17905018Y-10074024D01*
X18014791Y-9989791D01*
X18099024Y-9880018D01*
X18151974Y-9752183D01*
X18170035Y-9615000D01*
X18151974Y-9477817D01*
X18099024Y-9349983D01*
X18014791Y-9240209D01*
X17905018Y-9155976D01*
X17905017Y-9155975D01*
X17852406Y-9134183D01*
X17797125Y-9089634D01*
X17774704Y-9022271D01*
X17784215Y-8969556D01*
X17836974Y-8842183D01*
X17855035Y-8705000D01*
X17836974Y-8567817D01*
X17784024Y-8439983D01*
X17699791Y-8330209D01*
X17631455Y-8277772D01*
X17590016Y-8245974D01*
X17462183Y-8193025D01*
X17340958Y-8177066D01*
X17325000Y-8174965D01*
X17324999Y-8174965D01*
X17187817Y-8193025D01*
X17059983Y-8245975D01*
X16950209Y-8330209D01*
X16906244Y-8387505D01*
X16848906Y-8429372D01*
X16806282Y-8436800D01*
X7233823Y-8436800D01*
X7209243Y-8434379D01*
X7205518Y-8433638D01*
X7195000Y-8431546D01*
X7194999Y-8431546D01*
X7090354Y-8452360D01*
X7035592Y-8488951D01*
X7035586Y-8488955D01*
X7029064Y-8493313D01*
X7024037Y-8496671D01*
X7024033Y-8496673D01*
X7024032Y-8496675D01*
X7024035Y-8496672D01*
X7024033Y-8496673D01*
X7024032Y-8496675D01*
X7024032Y-8496676D01*
X7024030Y-8496677D01*
X7020748Y-8498869D01*
X7020748Y-8498870D01*
X7001638Y-8511639D01*
X6993569Y-8523716D01*
X6977902Y-8542804D01*
X6902537Y-8618169D01*
X6840225Y-8652195D01*
X6769410Y-8647130D01*
X6712574Y-8604583D01*
X6688520Y-8545522D01*
X6676974Y-8457817D01*
X6666092Y-8431546D01*
X6624024Y-8329983D01*
X6572275Y-8262543D01*
X6539791Y-8220209D01*
X6471455Y-8167772D01*
X6430016Y-8135974D01*
X6302183Y-8083025D01*
X6180958Y-8067066D01*
X6165000Y-8064965D01*
X6164999Y-8064965D01*
X6027817Y-8083025D01*
X5899983Y-8135975D01*
X5790209Y-8220209D01*
X5705975Y-8329983D01*
X5653025Y-8457817D01*
X5634965Y-8594999D01*
X30000Y-8594999D01*
X30000Y-7887121D01*
X21430564Y-7887121D01*
X21463911Y-7982423D01*
X21559826Y-8135071D01*
X21687298Y-8262543D01*
X21839942Y-8358456D01*
X21935248Y-8391803D01*
X21935248Y-7887121D01*
X21430564Y-7887121D01*
X30000Y-7887121D01*
X30000Y-6363121D01*
X21383683Y-6363121D01*
X21403880Y-6542378D01*
X21463458Y-6712642D01*
X21559432Y-6865384D01*
X21603427Y-6909379D01*
X21637453Y-6971691D01*
X21632388Y-7042506D01*
X21603428Y-7087569D01*
X21559824Y-7131173D01*
X21463911Y-7283818D01*
X21430563Y-7379120D01*
X21430564Y-7379121D01*
X21979189Y-7379121D01*
X21977119Y-7380316D01*
X21903447Y-7468114D01*
X21864248Y-7575815D01*
X21864248Y-7690427D01*
X21903447Y-7798128D01*
X21977119Y-7885926D01*
X22076377Y-7943233D01*
X22160812Y-7958121D01*
X22217684Y-7958121D01*
X22302119Y-7943233D01*
X22399307Y-7887121D01*
X22443248Y-7887121D01*
X22443248Y-8391803D01*
X22538553Y-8358456D01*
X22691197Y-8262543D01*
X22818669Y-8135071D01*
X22914584Y-7982423D01*
X22947932Y-7887121D01*
X22443248Y-7887121D01*
X22399307Y-7887121D01*
X22401377Y-7885926D01*
X22475049Y-7798128D01*
X22514248Y-7690427D01*
X22514248Y-7575815D01*
X22475049Y-7468114D01*
X22401377Y-7380316D01*
X22399307Y-7379121D01*
X22947932Y-7379121D01*
X22947932Y-7379120D01*
X22914584Y-7283818D01*
X22818669Y-7131170D01*
X22775068Y-7087569D01*
X22741042Y-7025257D01*
X22746107Y-6954442D01*
X22775066Y-6909380D01*
X22819064Y-6865383D01*
X22915037Y-6712643D01*
X22974616Y-6542376D01*
X22994813Y-6363121D01*
X22974616Y-6183866D01*
X22915037Y-6013599D01*
X22819064Y-5860859D01*
X22819063Y-5860857D01*
X22775422Y-5817216D01*
X22741396Y-5754904D01*
X22746461Y-5684089D01*
X22775422Y-5639026D01*
X22819063Y-5595384D01*
X22819064Y-5595383D01*
X22915037Y-5442643D01*
X22974616Y-5272376D01*
X22994813Y-5093121D01*
X22974616Y-4913866D01*
X22965868Y-4888867D01*
X22915037Y-4743599D01*
X22819063Y-4590857D01*
X22775422Y-4547216D01*
X22741396Y-4484904D01*
X22746461Y-4414089D01*
X22775422Y-4369026D01*
X22819063Y-4325384D01*
X22819065Y-4325381D01*
X22915037Y-4172643D01*
X22974616Y-4002376D01*
X22994813Y-3823121D01*
X22974616Y-3643866D01*
X22952356Y-3580252D01*
X22915037Y-3473599D01*
X22819063Y-3320857D01*
X22775422Y-3277216D01*
X22741396Y-3214904D01*
X22746461Y-3144089D01*
X22775422Y-3099026D01*
X22819063Y-3055384D01*
X22819064Y-3055383D01*
X22915037Y-2902643D01*
X22974616Y-2732376D01*
X22994813Y-2553121D01*
X22974616Y-2373866D01*
X22915037Y-2203599D01*
X22819064Y-2050859D01*
X22819063Y-2050857D01*
X22775422Y-2007216D01*
X22741396Y-1944904D01*
X22746461Y-1874089D01*
X22775422Y-1829026D01*
X22819063Y-1785384D01*
X22819064Y-1785383D01*
X22915037Y-1632643D01*
X22974616Y-1462376D01*
X22994813Y-1283121D01*
X22974616Y-1103866D01*
X22915037Y-933599D01*
X22819064Y-780859D01*
X22819063Y-780857D01*
X22691511Y-653305D01*
X22538769Y-557331D01*
X22368505Y-497753D01*
X22248999Y-484288D01*
X22189248Y-477556D01*
X22189247Y-477556D01*
X22009990Y-497753D01*
X21839726Y-557331D01*
X21686984Y-653305D01*
X21559432Y-780857D01*
X21463458Y-933599D01*
X21403880Y-1103863D01*
X21383683Y-1283121D01*
X21403880Y-1462378D01*
X21463458Y-1632642D01*
X21559432Y-1785384D01*
X21603073Y-1829025D01*
X21637099Y-1891337D01*
X21632034Y-1962152D01*
X21603075Y-2007214D01*
X21559431Y-2050858D01*
X21463458Y-2203599D01*
X21403880Y-2373863D01*
X21383683Y-2553121D01*
X21403880Y-2732378D01*
X21463458Y-2902642D01*
X21559431Y-3055382D01*
X21603074Y-3099026D01*
X21637099Y-3161339D01*
X21632033Y-3232155D01*
X21603074Y-3277216D01*
X21559431Y-3320859D01*
X21463458Y-3473599D01*
X21403880Y-3643863D01*
X21383683Y-3823121D01*
X21403880Y-4002378D01*
X21463458Y-4172642D01*
X21559430Y-4325381D01*
X21559431Y-4325382D01*
X21559432Y-4325383D01*
X21603075Y-4369026D01*
X21637099Y-4431336D01*
X21632035Y-4502151D01*
X21603075Y-4547215D01*
X21559431Y-4590859D01*
X21463458Y-4743599D01*
X21403880Y-4913863D01*
X21383683Y-5093121D01*
X21403880Y-5272378D01*
X21463458Y-5442642D01*
X21559432Y-5595384D01*
X21603074Y-5639026D01*
X21637100Y-5701338D01*
X21632035Y-5772153D01*
X21603074Y-5817216D01*
X21559432Y-5860857D01*
X21463458Y-6013599D01*
X21403880Y-6183863D01*
X21383683Y-6363121D01*
X30000Y-6363121D01*
X30000Y-4719746D01*
X514500Y-4719746D01*
X526133Y-4778231D01*
X570447Y-4844552D01*
X614761Y-4874162D01*
X636769Y-4888867D01*
X695252Y-4900500D01*
X695253Y-4900500D01*
X2534747Y-4900500D01*
X2534748Y-4900500D01*
X2593231Y-4888867D01*
X2659552Y-4844552D01*
X2703867Y-4778231D01*
X2715500Y-4719748D01*
X2715500Y-3580252D01*
X2703867Y-3521769D01*
X2675846Y-3479834D01*
X2654632Y-3412083D01*
X2673415Y-3343616D01*
X2675847Y-3339831D01*
X2687454Y-3322458D01*
X2687457Y-3322457D01*
X2709669Y-3289213D01*
X2715500Y-3259899D01*
X2715499Y-2524746D01*
X3229500Y-2524746D01*
X3241133Y-2583231D01*
X3285447Y-2649552D01*
X3309836Y-2665848D01*
X3351769Y-2693867D01*
X3410252Y-2705500D01*
X3410253Y-2705500D01*
X4549747Y-2705500D01*
X4549748Y-2705500D01*
X4608231Y-2693867D01*
X4650164Y-2665847D01*
X4717916Y-2644632D01*
X4786383Y-2663414D01*
X4790167Y-2665847D01*
X4840785Y-2699669D01*
X4850512Y-2701603D01*
X4870101Y-2705500D01*
X6189898Y-2705499D01*
X6219213Y-2699669D01*
X6252457Y-2677457D01*
X6252458Y-2677454D01*
X6261029Y-2671728D01*
X6304757Y-2635182D01*
X6375199Y-2626332D01*
X6425051Y-2645945D01*
X6430448Y-2649551D01*
X6430449Y-2649552D01*
X6496770Y-2693867D01*
X6555253Y-2705500D01*
X6555254Y-2705500D01*
X7694748Y-2705500D01*
X7694749Y-2705500D01*
X7753232Y-2693867D01*
X7795165Y-2665847D01*
X7862917Y-2644632D01*
X7931384Y-2663414D01*
X7935168Y-2665847D01*
X7985786Y-2699669D01*
X7995513Y-2701603D01*
X8015102Y-2705500D01*
X9334899Y-2705499D01*
X9364214Y-2699669D01*
X9397458Y-2677457D01*
X9401457Y-2671471D01*
X9455929Y-2625944D01*
X9526372Y-2617094D01*
X9576224Y-2636707D01*
X9595448Y-2649552D01*
X9661769Y-2693867D01*
X9720252Y-2705500D01*
X9720253Y-2705500D01*
X10872158Y-2705500D01*
X10872158Y-2707104D01*
X10928745Y-2712168D01*
X10984813Y-2755722D01*
X11008433Y-2822674D01*
X10992107Y-2891768D01*
X10959320Y-2929381D01*
X10945210Y-2940208D01*
X10860975Y-3049983D01*
X10808025Y-3177817D01*
X10789965Y-3314999D01*
X10808025Y-3452183D01*
X10860974Y-3580016D01*
X10861156Y-3580253D01*
X10945209Y-3689791D01*
X11034263Y-3758125D01*
X11054983Y-3774025D01*
X11182816Y-3826974D01*
X11198775Y-3829075D01*
X11320000Y-3845035D01*
X11457183Y-3826974D01*
X11585018Y-3774024D01*
X11694791Y-3689791D01*
X11779024Y-3580018D01*
X11803152Y-3521768D01*
X11831974Y-3452183D01*
X11831973Y-3452182D01*
X11850035Y-3315000D01*
X11831974Y-3177817D01*
X11779024Y-3049983D01*
X11694791Y-2940209D01*
X11683389Y-2931460D01*
X11641523Y-2874122D01*
X11637302Y-2803251D01*
X11672067Y-2741349D01*
X11734780Y-2708068D01*
X11760089Y-2705499D01*
X12499898Y-2705499D01*
X12529213Y-2699669D01*
X12562457Y-2677457D01*
X12584669Y-2644213D01*
X12589506Y-2619897D01*
X13109500Y-2619897D01*
X13112844Y-2636707D01*
X13115331Y-2649213D01*
X13137543Y-2682457D01*
X13170787Y-2704669D01*
X13200101Y-2710500D01*
X14225384Y-2710499D01*
X14293505Y-2730501D01*
X14339998Y-2784157D01*
X14350102Y-2854431D01*
X14320609Y-2919011D01*
X14273602Y-2952908D01*
X14229983Y-2970975D01*
X14120209Y-3055209D01*
X14035975Y-3164983D01*
X13983025Y-3292817D01*
X13964965Y-3429999D01*
X13983025Y-3567183D01*
X14035974Y-3695016D01*
X14035976Y-3695018D01*
X14120209Y-3804791D01*
X14209263Y-3873125D01*
X14229983Y-3889025D01*
X14357816Y-3941974D01*
X14373775Y-3944075D01*
X14495000Y-3960035D01*
X14632183Y-3941974D01*
X14760018Y-3889024D01*
X14869791Y-3804791D01*
X14954024Y-3695018D01*
X14956190Y-3689790D01*
X15006974Y-3567183D01*
X15012953Y-3521768D01*
X15025035Y-3430000D01*
X15006974Y-3292817D01*
X14954024Y-3164983D01*
X14913907Y-3112702D01*
X14888307Y-3046484D01*
X14902571Y-2976935D01*
X14952172Y-2926139D01*
X15013870Y-2909999D01*
X15156000Y-2909999D01*
X15156000Y-1864000D01*
X15664000Y-1864000D01*
X15664000Y-2909999D01*
X15991480Y-2909999D01*
X16085147Y-2895164D01*
X16198047Y-2837639D01*
X16287639Y-2748047D01*
X16345164Y-2635147D01*
X16360000Y-2541479D01*
X16360000Y-1864000D01*
X15664000Y-1864000D01*
X15156000Y-1864000D01*
X15156000Y-1614514D01*
X15174505Y-1707545D01*
X15229760Y-1790240D01*
X15312455Y-1845495D01*
X15385376Y-1860000D01*
X15434624Y-1860000D01*
X15507545Y-1845495D01*
X15590240Y-1790240D01*
X15645495Y-1707545D01*
X15664898Y-1610000D01*
X15645495Y-1512455D01*
X15590240Y-1429760D01*
X15507545Y-1374505D01*
X15434624Y-1360000D01*
X15385376Y-1360000D01*
X15312455Y-1374505D01*
X15229760Y-1429760D01*
X15174505Y-1512455D01*
X15156000Y-1605485D01*
X15156000Y-310000D01*
X15664000Y-310000D01*
X15664000Y-1356000D01*
X16359999Y-1356000D01*
X16359999Y-678520D01*
X16345164Y-584852D01*
X16287639Y-471952D01*
X16198047Y-382360D01*
X16085147Y-324835D01*
X15991480Y-310000D01*
X15664000Y-310000D01*
X15156000Y-310000D01*
X14828519Y-310000D01*
X14734852Y-324835D01*
X14621954Y-382359D01*
X14531717Y-472596D01*
X14469405Y-506621D01*
X14442622Y-509500D01*
X13200102Y-509500D01*
X13170787Y-515331D01*
X13137543Y-537543D01*
X13115330Y-570787D01*
X13109500Y-600100D01*
X13109500Y-2619897D01*
X12589506Y-2619897D01*
X12590500Y-2614899D01*
X12590499Y-595102D01*
X12584669Y-565787D01*
X12562457Y-532543D01*
X12537897Y-516133D01*
X12529212Y-510330D01*
X12499899Y-504500D01*
X11180102Y-504500D01*
X11150785Y-510331D01*
X11100166Y-544153D01*
X11032413Y-565367D01*
X10963946Y-546583D01*
X10960164Y-544152D01*
X10918231Y-516133D01*
X10889057Y-510330D01*
X10859748Y-504500D01*
X9720252Y-504500D01*
X9709589Y-506621D01*
X9661766Y-516133D01*
X9576223Y-573292D01*
X9508471Y-594507D01*
X9440004Y-575724D01*
X9401456Y-538527D01*
X9397458Y-532543D01*
X9372898Y-516133D01*
X9364213Y-510330D01*
X9334900Y-504500D01*
X8015103Y-504500D01*
X7985786Y-510331D01*
X7935167Y-544153D01*
X7867414Y-565367D01*
X7798947Y-546583D01*
X7795165Y-544152D01*
X7753232Y-516133D01*
X7724058Y-510330D01*
X7694749Y-504500D01*
X6555253Y-504500D01*
X6530116Y-509500D01*
X6496769Y-516133D01*
X6425051Y-564054D01*
X6357298Y-585269D01*
X6288831Y-566486D01*
X6256351Y-535145D01*
X6219212Y-510330D01*
X6189899Y-504500D01*
X4870102Y-504500D01*
X4840785Y-510331D01*
X4790166Y-544153D01*
X4722413Y-565367D01*
X4653946Y-546583D01*
X4650164Y-544152D01*
X4608231Y-516133D01*
X4579057Y-510330D01*
X4549748Y-504500D01*
X3410252Y-504500D01*
X3385115Y-509500D01*
X3351768Y-516133D01*
X3285447Y-560447D01*
X3241133Y-626768D01*
X3229500Y-685253D01*
X3229500Y-2524746D01*
X2715499Y-2524746D01*
X2715499Y-1940102D01*
X2709669Y-1910787D01*
X2687457Y-1877543D01*
X2654213Y-1855331D01*
X2654212Y-1855330D01*
X2624899Y-1849500D01*
X605102Y-1849500D01*
X575787Y-1855331D01*
X542543Y-1877543D01*
X520330Y-1910787D01*
X514500Y-1940100D01*
X514500Y-3259897D01*
X517945Y-3277216D01*
X520331Y-3289213D01*
X542543Y-3322457D01*
X542544Y-3322457D01*
X554153Y-3339832D01*
X575367Y-3407585D01*
X556583Y-3476052D01*
X554153Y-3479834D01*
X526133Y-3521768D01*
X514500Y-3580253D01*
X514500Y-4719746D01*
X30000Y-4719746D01*
X30000Y-156000D01*
X50002Y-87879D01*
X103658Y-41386D01*
X156000Y-30000D01*
X23834066Y-30000D01*
X23902187Y-50002D01*
G37*
%TD.AperFunction*%
%TD*%
M02*
