%TF.GenerationSoftware,KiCad,Pcbnew,7.0.2-6a45011f42~172~ubuntu22.04.1*%
%TF.CreationDate,2023-05-22T20:19:49+08:00*%
%TF.ProjectId,fly2040,666c7932-3034-4302-9e6b-696361645f70,rev?*%
%TF.SameCoordinates,PX4323800PY2f1c8c0*%
%TF.FileFunction,Copper,L3,Inr*%
%TF.FilePolarity,Positive*%
%FSLAX46Y46*%
G04 Gerber Fmt 4.6, Leading zero omitted, Abs format (unit mm)*
G04 Created by KiCad (PCBNEW 7.0.2-6a45011f42~172~ubuntu22.04.1) date 2023-05-22 20:19:49*
%MOMM*%
%LPD*%
G01*
G04 APERTURE LIST*
G04 Aperture macros list*
%AMRoundRect*
0 Rectangle with rounded corners*
0 $1 Rounding radius*
0 $2 $3 $4 $5 $6 $7 $8 $9 X,Y pos of 4 corners*
0 Add a 4 corners polygon primitive as box body*
4,1,4,$2,$3,$4,$5,$6,$7,$8,$9,$2,$3,0*
0 Add four circle primitives for the rounded corners*
1,1,$1+$1,$2,$3*
1,1,$1+$1,$4,$5*
1,1,$1+$1,$6,$7*
1,1,$1+$1,$8,$9*
0 Add four rect primitives between the rounded corners*
20,1,$1+$1,$2,$3,$4,$5,0*
20,1,$1+$1,$4,$5,$6,$7,0*
20,1,$1+$1,$6,$7,$8,$9,0*
20,1,$1+$1,$8,$9,$2,$3,0*%
G04 Aperture macros list end*
%TA.AperFunction,ComponentPad*%
%ADD10R,1.300000X2.000000*%
%TD*%
%TA.AperFunction,ComponentPad*%
%ADD11RoundRect,0.100000X-0.550000X0.900000X-0.550000X-0.900000X0.550000X-0.900000X0.550000X0.900000X0*%
%TD*%
%TA.AperFunction,ComponentPad*%
%ADD12O,1.000000X1.000000*%
%TD*%
%TA.AperFunction,ComponentPad*%
%ADD13RoundRect,0.100000X0.550000X-0.900000X0.550000X0.900000X-0.550000X0.900000X-0.550000X-0.900000X0*%
%TD*%
%TA.AperFunction,ComponentPad*%
%ADD14R,2.000000X1.300000*%
%TD*%
%TA.AperFunction,ComponentPad*%
%ADD15RoundRect,0.100000X-0.900000X-0.550000X0.900000X-0.550000X0.900000X0.550000X-0.900000X0.550000X0*%
%TD*%
%TA.AperFunction,ViaPad*%
%ADD16C,0.450000*%
%TD*%
G04 APERTURE END LIST*
D10*
%TO.N,NS_10*%
%TO.C,J9*%
X8675001Y-1605000D03*
D11*
%TO.N,NS_11*%
X7125001Y-1605000D03*
%TD*%
D10*
%TO.N,NS_8*%
%TO.C,J10*%
X11840000Y-1605000D03*
D11*
%TO.N,NS_9*%
X10290000Y-1605000D03*
%TD*%
D12*
%TO.N,RST*%
%TO.C,J8*%
X22189248Y-1283121D03*
%TO.N,BOOT*%
X22189248Y-2553121D03*
%TO.N,D+*%
X22189248Y-3823121D03*
%TO.N,D-*%
X22189248Y-5093121D03*
%TO.N,+3V3*%
X22189248Y-6363121D03*
%TO.N,GND*%
X22189248Y-7633121D03*
%TD*%
D10*
%TO.N,+3V3*%
%TO.C,J1*%
X13860000Y-1610000D03*
D13*
%TO.N,GND*%
X15410000Y-1610000D03*
%TD*%
D10*
%TO.N,NS_CMD*%
%TO.C,J4*%
X14415000Y-17340000D03*
D13*
%TO.N,NS_D0*%
X15965000Y-17340000D03*
%TD*%
D14*
%TO.N,NS_CPU_PD*%
%TO.C,J2*%
X1615000Y-2600000D03*
D15*
%TO.N,NS_CPU*%
X1615000Y-4150000D03*
%TD*%
D10*
%TO.N,DBG_CLK*%
%TO.C,J7*%
X5035000Y-13795000D03*
D13*
%TO.N,DBG_DAT*%
X6585000Y-13795000D03*
%TD*%
D10*
%TO.N,NS_SDA*%
%TO.C,J6*%
X5530000Y-1605000D03*
D11*
%TO.N,NS_SCL*%
X3980000Y-1605000D03*
%TD*%
D10*
%TO.N,NS_19*%
%TO.C,J11*%
X8065000Y-17340000D03*
D13*
%TO.N,NS_20*%
X9615000Y-17340000D03*
%TD*%
D14*
%TO.N,D+*%
%TO.C,J5*%
X22350000Y-9740000D03*
D15*
%TO.N,D-*%
X22350000Y-11290000D03*
%TD*%
D10*
%TO.N,NS_RST*%
%TO.C,J3*%
X11255000Y-17340000D03*
D13*
%TO.N,NS_CLK*%
X12805000Y-17340000D03*
%TD*%
D16*
%TO.N,GND*%
X1260000Y-5450000D03*
X14070000Y-10350000D03*
X9685000Y-5995000D03*
X18630000Y-5050000D03*
X1250000Y-10600000D03*
X2880000Y-1240000D03*
X4170000Y-10570000D03*
X21210000Y-14295000D03*
X4795000Y-17900000D03*
X4210000Y-5470000D03*
X5115000Y-12355000D03*
%TO.N,+3V3*%
X14495000Y-3430000D03*
X11320000Y-3315000D03*
X14795000Y-12925000D03*
X6165000Y-8595000D03*
X7905000Y-14675000D03*
X17640000Y-9615000D03*
X16445000Y-11420000D03*
X17585000Y-17705000D03*
X10070000Y-13460000D03*
%TO.N,RST*%
X7720000Y-11600000D03*
%TO.N,+1V1*%
X6550000Y-9350000D03*
X17325000Y-8705000D03*
X17615000Y-11790000D03*
%TO.N,+5V*%
X18281000Y-13514000D03*
X1605000Y-13700000D03*
%TD*%
%TA.AperFunction,Conductor*%
%TO.N,+3V3*%
G36*
X3265472Y-519352D02*
G01*
X3279824Y-554000D01*
X3271566Y-581223D01*
X3241132Y-626770D01*
X3229500Y-685249D01*
X3229500Y-975522D01*
X3215148Y-1010170D01*
X3180500Y-1024522D01*
X3145852Y-1010170D01*
X3088587Y-952905D01*
X2989662Y-902499D01*
X2880000Y-885131D01*
X2770337Y-902499D01*
X2671412Y-952905D01*
X2592905Y-1031412D01*
X2542499Y-1130337D01*
X2525131Y-1240000D01*
X2542499Y-1349662D01*
X2588470Y-1439883D01*
X2592905Y-1448587D01*
X2671413Y-1527095D01*
X2703554Y-1543472D01*
X2770337Y-1577500D01*
X2796718Y-1581678D01*
X2880000Y-1594869D01*
X2974667Y-1579874D01*
X2989662Y-1577500D01*
X3022636Y-1560698D01*
X3088587Y-1527095D01*
X3145854Y-1469827D01*
X3180500Y-1455477D01*
X3215148Y-1469828D01*
X3229500Y-1504477D01*
X3229500Y-2524750D01*
X3241132Y-2583229D01*
X3285447Y-2649552D01*
X3318608Y-2671709D01*
X3351769Y-2693867D01*
X3366389Y-2696775D01*
X3410249Y-2705500D01*
X3410252Y-2705500D01*
X4549751Y-2705500D01*
X4584837Y-2698520D01*
X4608231Y-2693867D01*
X4674552Y-2649552D01*
X4695015Y-2618927D01*
X4726196Y-2598093D01*
X4762979Y-2605409D01*
X4783814Y-2636591D01*
X4783815Y-2636592D01*
X4785330Y-2644213D01*
X4807542Y-2677456D01*
X4807543Y-2677457D01*
X4840787Y-2699669D01*
X4870101Y-2705500D01*
X6189898Y-2705499D01*
X6219213Y-2699669D01*
X6252457Y-2677457D01*
X6274669Y-2644213D01*
X6280500Y-2614899D01*
X6280499Y-2549676D01*
X6294850Y-2515030D01*
X6329498Y-2500678D01*
X6364147Y-2515029D01*
X6377557Y-2540118D01*
X6386133Y-2583229D01*
X6430448Y-2649552D01*
X6463609Y-2671709D01*
X6496770Y-2693867D01*
X6511390Y-2696775D01*
X6555250Y-2705500D01*
X6555253Y-2705500D01*
X7694752Y-2705500D01*
X7729838Y-2698520D01*
X7753232Y-2693867D01*
X7819553Y-2649552D01*
X7840016Y-2618927D01*
X7871197Y-2598093D01*
X7907980Y-2605409D01*
X7928815Y-2636591D01*
X7928816Y-2636592D01*
X7930331Y-2644213D01*
X7952543Y-2677456D01*
X7952544Y-2677457D01*
X7985788Y-2699669D01*
X8015102Y-2705500D01*
X9334899Y-2705499D01*
X9364214Y-2699669D01*
X9397458Y-2677457D01*
X9419670Y-2644213D01*
X9425501Y-2614899D01*
X9425500Y-595102D01*
X9419670Y-565787D01*
X9419227Y-563557D01*
X9426545Y-526775D01*
X9457729Y-505941D01*
X9467286Y-505000D01*
X9540824Y-505000D01*
X9575472Y-519352D01*
X9589824Y-554000D01*
X9581566Y-581223D01*
X9551132Y-626770D01*
X9539500Y-685249D01*
X9539500Y-2524750D01*
X9551132Y-2583229D01*
X9595447Y-2649552D01*
X9628608Y-2671709D01*
X9661769Y-2693867D01*
X9676389Y-2696775D01*
X9720249Y-2705500D01*
X9720252Y-2705500D01*
X10859751Y-2705500D01*
X10894837Y-2698520D01*
X10918231Y-2693867D01*
X10984552Y-2649552D01*
X11005015Y-2618927D01*
X11036196Y-2598093D01*
X11072979Y-2605409D01*
X11093814Y-2636591D01*
X11093815Y-2636592D01*
X11095330Y-2644213D01*
X11117542Y-2677456D01*
X11117543Y-2677457D01*
X11150787Y-2699669D01*
X11180101Y-2705500D01*
X12499898Y-2705499D01*
X12529213Y-2699669D01*
X12562457Y-2677457D01*
X12584669Y-2644213D01*
X12590500Y-2614899D01*
X12590499Y-595102D01*
X12584669Y-565787D01*
X12584226Y-563557D01*
X12591544Y-526775D01*
X12622728Y-505941D01*
X12632285Y-505000D01*
X14664165Y-505000D01*
X14698813Y-519352D01*
X14713165Y-554000D01*
X14704907Y-581223D01*
X14671132Y-631770D01*
X14659500Y-690249D01*
X14659500Y-2529750D01*
X14671132Y-2588229D01*
X14715447Y-2654552D01*
X14748608Y-2676709D01*
X14781769Y-2698867D01*
X14796389Y-2701775D01*
X14840249Y-2710500D01*
X14840252Y-2710500D01*
X15979751Y-2710500D01*
X16014837Y-2703520D01*
X16038231Y-2698867D01*
X16104552Y-2654552D01*
X16148867Y-2588231D01*
X16155851Y-2553120D01*
X16160500Y-2529750D01*
X16160500Y-690249D01*
X16148867Y-631770D01*
X16148867Y-631769D01*
X16125788Y-597229D01*
X16115093Y-581223D01*
X16107776Y-544441D01*
X16128612Y-513258D01*
X16155835Y-505000D01*
X23406000Y-505000D01*
X23440648Y-519352D01*
X23455000Y-554000D01*
X23455000Y-8948710D01*
X23440648Y-8983358D01*
X23406000Y-8997710D01*
X23396441Y-8996769D01*
X23389213Y-8995331D01*
X23359899Y-8989500D01*
X23359896Y-8989500D01*
X21340102Y-8989500D01*
X21310786Y-8995330D01*
X21277543Y-9017542D01*
X21255330Y-9050788D01*
X21249500Y-9080099D01*
X21249500Y-10399897D01*
X21255330Y-10429213D01*
X21277542Y-10462456D01*
X21277543Y-10462457D01*
X21310787Y-10484669D01*
X21318408Y-10486185D01*
X21349590Y-10507020D01*
X21356907Y-10543802D01*
X21336072Y-10574984D01*
X21305448Y-10595447D01*
X21261132Y-10661770D01*
X21249500Y-10720249D01*
X21249500Y-11859750D01*
X21261132Y-11918229D01*
X21305447Y-11984552D01*
X21328763Y-12000131D01*
X21371769Y-12028867D01*
X21386389Y-12031775D01*
X21430249Y-12040500D01*
X21430252Y-12040500D01*
X23269751Y-12040500D01*
X23328228Y-12028868D01*
X23328228Y-12028867D01*
X23328231Y-12028867D01*
X23378778Y-11995091D01*
X23415559Y-11987775D01*
X23446742Y-12008610D01*
X23455000Y-12035834D01*
X23455000Y-18406000D01*
X23440648Y-18440648D01*
X23406000Y-18455000D01*
X16704153Y-18455000D01*
X16669505Y-18440648D01*
X16655153Y-18406000D01*
X16663411Y-18378777D01*
X16668797Y-18370714D01*
X16703867Y-18318231D01*
X16715500Y-18259748D01*
X16715500Y-16420252D01*
X16715500Y-16420251D01*
X16715500Y-16420249D01*
X16703867Y-16361770D01*
X16703867Y-16361769D01*
X16680015Y-16326072D01*
X16659552Y-16295447D01*
X16609923Y-16262286D01*
X16593231Y-16251133D01*
X16593230Y-16251132D01*
X16593229Y-16251132D01*
X16534751Y-16239500D01*
X16534748Y-16239500D01*
X15395252Y-16239500D01*
X15395249Y-16239500D01*
X15336770Y-16251132D01*
X15270447Y-16295448D01*
X15249984Y-16326072D01*
X15218801Y-16346907D01*
X15182019Y-16339589D01*
X15161184Y-16308406D01*
X15161184Y-16308404D01*
X15159669Y-16300786D01*
X15137457Y-16267543D01*
X15137456Y-16267542D01*
X15104213Y-16245331D01*
X15104212Y-16245330D01*
X15104211Y-16245330D01*
X15074900Y-16239500D01*
X13755102Y-16239500D01*
X13725786Y-16245330D01*
X13692543Y-16267542D01*
X13670330Y-16300788D01*
X13664500Y-16330099D01*
X13664500Y-18349897D01*
X13672232Y-18388774D01*
X13672035Y-18388813D01*
X13677355Y-18415561D01*
X13656519Y-18446743D01*
X13629297Y-18455000D01*
X13544153Y-18455000D01*
X13509505Y-18440648D01*
X13495153Y-18406000D01*
X13503411Y-18378777D01*
X13508797Y-18370714D01*
X13543867Y-18318231D01*
X13555500Y-18259748D01*
X13555500Y-16420252D01*
X13555500Y-16420249D01*
X13543867Y-16361770D01*
X13543867Y-16361769D01*
X13520015Y-16326072D01*
X13499552Y-16295447D01*
X13449923Y-16262286D01*
X13433231Y-16251133D01*
X13433230Y-16251132D01*
X13433229Y-16251132D01*
X13374751Y-16239500D01*
X13374748Y-16239500D01*
X12235252Y-16239500D01*
X12235249Y-16239500D01*
X12176770Y-16251132D01*
X12110447Y-16295448D01*
X12089984Y-16326072D01*
X12058801Y-16346907D01*
X12022019Y-16339589D01*
X12001184Y-16308406D01*
X12001184Y-16308404D01*
X11999669Y-16300786D01*
X11977457Y-16267543D01*
X11977456Y-16267542D01*
X11944213Y-16245331D01*
X11944212Y-16245330D01*
X11944211Y-16245330D01*
X11914900Y-16239500D01*
X10595102Y-16239500D01*
X10565786Y-16245330D01*
X10532543Y-16267542D01*
X10510330Y-16300788D01*
X10504500Y-16330099D01*
X10504500Y-18349897D01*
X10512232Y-18388774D01*
X10512035Y-18388813D01*
X10517355Y-18415561D01*
X10496519Y-18446743D01*
X10469297Y-18455000D01*
X10354153Y-18455000D01*
X10319505Y-18440648D01*
X10305153Y-18406000D01*
X10313411Y-18378777D01*
X10318797Y-18370714D01*
X10353867Y-18318231D01*
X10365500Y-18259748D01*
X10365500Y-16420252D01*
X10365500Y-16420249D01*
X10353867Y-16361770D01*
X10353867Y-16361769D01*
X10330015Y-16326072D01*
X10309552Y-16295447D01*
X10259923Y-16262286D01*
X10243231Y-16251133D01*
X10243230Y-16251132D01*
X10243229Y-16251132D01*
X10184751Y-16239500D01*
X10184748Y-16239500D01*
X9045252Y-16239500D01*
X9045249Y-16239500D01*
X8986770Y-16251132D01*
X8920447Y-16295448D01*
X8899984Y-16326072D01*
X8868801Y-16346907D01*
X8832019Y-16339589D01*
X8811184Y-16308406D01*
X8811184Y-16308404D01*
X8809669Y-16300786D01*
X8787457Y-16267543D01*
X8787456Y-16267542D01*
X8754213Y-16245331D01*
X8754212Y-16245330D01*
X8754211Y-16245330D01*
X8724900Y-16239500D01*
X7405102Y-16239500D01*
X7375786Y-16245330D01*
X7342543Y-16267542D01*
X7320330Y-16300788D01*
X7314500Y-16330099D01*
X7314500Y-18349897D01*
X7322232Y-18388774D01*
X7322035Y-18388813D01*
X7327355Y-18415561D01*
X7306519Y-18446743D01*
X7279297Y-18455000D01*
X558986Y-18455000D01*
X524338Y-18440648D01*
X509986Y-18406014D01*
X509986Y-18406000D01*
X509845Y-17900000D01*
X4440131Y-17900000D01*
X4457499Y-18009662D01*
X4507904Y-18108587D01*
X4507905Y-18108587D01*
X4586413Y-18187095D01*
X4618554Y-18203472D01*
X4685337Y-18237500D01*
X4711718Y-18241678D01*
X4795000Y-18254869D01*
X4889667Y-18239874D01*
X4904662Y-18237500D01*
X4938053Y-18220486D01*
X5003587Y-18187095D01*
X5082095Y-18108587D01*
X5115486Y-18043053D01*
X5132500Y-18009662D01*
X5134874Y-17994667D01*
X5149869Y-17900000D01*
X5132500Y-17790339D01*
X5132500Y-17790337D01*
X5082094Y-17691412D01*
X5003587Y-17612905D01*
X4904662Y-17562499D01*
X4795000Y-17545131D01*
X4685337Y-17562499D01*
X4586412Y-17612905D01*
X4507905Y-17691412D01*
X4457499Y-17790337D01*
X4440131Y-17900000D01*
X509845Y-17900000D01*
X508983Y-14804897D01*
X4284500Y-14804897D01*
X4290330Y-14834213D01*
X4312542Y-14867456D01*
X4312543Y-14867457D01*
X4345787Y-14889669D01*
X4375101Y-14895500D01*
X5694898Y-14895499D01*
X5724213Y-14889669D01*
X5757457Y-14867457D01*
X5779669Y-14834213D01*
X5781185Y-14826590D01*
X5802019Y-14795409D01*
X5838802Y-14788092D01*
X5869984Y-14808926D01*
X5890448Y-14839552D01*
X5956769Y-14883867D01*
X5971389Y-14886775D01*
X6015249Y-14895500D01*
X6015252Y-14895500D01*
X7154751Y-14895500D01*
X7189837Y-14888520D01*
X7213231Y-14883867D01*
X7279552Y-14839552D01*
X7323867Y-14773231D01*
X7335500Y-14714748D01*
X7335500Y-14295000D01*
X20855131Y-14295000D01*
X20872499Y-14404662D01*
X20922905Y-14503586D01*
X20922905Y-14503587D01*
X21001413Y-14582095D01*
X21033554Y-14598472D01*
X21100337Y-14632500D01*
X21126718Y-14636678D01*
X21210000Y-14649869D01*
X21304667Y-14634874D01*
X21319662Y-14632500D01*
X21353053Y-14615486D01*
X21418587Y-14582095D01*
X21497095Y-14503587D01*
X21530486Y-14438053D01*
X21547500Y-14404662D01*
X21549874Y-14389667D01*
X21564869Y-14295000D01*
X21547500Y-14185339D01*
X21547500Y-14185337D01*
X21497094Y-14086412D01*
X21418587Y-14007905D01*
X21319662Y-13957499D01*
X21210000Y-13940131D01*
X21100337Y-13957499D01*
X21001412Y-14007905D01*
X20922905Y-14086412D01*
X20872499Y-14185337D01*
X20855131Y-14295000D01*
X7335500Y-14295000D01*
X7335500Y-13514000D01*
X17926131Y-13514000D01*
X17943499Y-13623662D01*
X17982396Y-13700000D01*
X17993905Y-13722587D01*
X18072413Y-13801095D01*
X18089225Y-13809661D01*
X18171337Y-13851500D01*
X18197718Y-13855678D01*
X18281000Y-13868869D01*
X18375667Y-13853874D01*
X18390662Y-13851500D01*
X18424053Y-13834486D01*
X18489587Y-13801095D01*
X18568095Y-13722587D01*
X18601486Y-13657053D01*
X18618500Y-13623662D01*
X18623778Y-13590337D01*
X18635869Y-13514000D01*
X18618500Y-13404339D01*
X18618500Y-13404337D01*
X18568094Y-13305412D01*
X18489587Y-13226905D01*
X18390662Y-13176499D01*
X18281000Y-13159131D01*
X18171337Y-13176499D01*
X18072412Y-13226905D01*
X17993905Y-13305412D01*
X17943499Y-13404337D01*
X17926131Y-13514000D01*
X7335500Y-13514000D01*
X7335500Y-12875252D01*
X7335500Y-12875251D01*
X7335500Y-12875249D01*
X7323867Y-12816770D01*
X7323867Y-12816769D01*
X7300015Y-12781072D01*
X7279552Y-12750447D01*
X7229923Y-12717286D01*
X7213231Y-12706133D01*
X7213230Y-12706132D01*
X7213229Y-12706132D01*
X7154751Y-12694500D01*
X7154748Y-12694500D01*
X6015252Y-12694500D01*
X6015249Y-12694500D01*
X5956770Y-12706132D01*
X5890447Y-12750448D01*
X5869984Y-12781072D01*
X5838801Y-12801907D01*
X5802019Y-12794589D01*
X5781184Y-12763406D01*
X5781184Y-12763404D01*
X5779669Y-12755786D01*
X5757457Y-12722543D01*
X5757456Y-12722542D01*
X5724213Y-12700331D01*
X5724212Y-12700330D01*
X5724211Y-12700330D01*
X5694901Y-12694500D01*
X5694899Y-12694500D01*
X5389478Y-12694500D01*
X5354830Y-12680148D01*
X5340478Y-12645500D01*
X5354830Y-12610852D01*
X5354830Y-12610851D01*
X5402095Y-12563587D01*
X5435486Y-12498053D01*
X5452500Y-12464662D01*
X5454874Y-12449667D01*
X5469869Y-12355000D01*
X5452500Y-12245339D01*
X5452500Y-12245337D01*
X5402094Y-12146412D01*
X5323587Y-12067905D01*
X5224662Y-12017499D01*
X5115000Y-12000131D01*
X5005337Y-12017499D01*
X4906412Y-12067905D01*
X4827905Y-12146412D01*
X4777499Y-12245337D01*
X4760131Y-12355000D01*
X4777499Y-12464662D01*
X4827905Y-12563587D01*
X4875170Y-12610852D01*
X4889522Y-12645500D01*
X4875170Y-12680148D01*
X4840522Y-12694500D01*
X4375102Y-12694500D01*
X4345786Y-12700330D01*
X4312543Y-12722542D01*
X4290330Y-12755788D01*
X4284500Y-12785099D01*
X4284500Y-14804897D01*
X508983Y-14804897D01*
X508675Y-13700000D01*
X1250131Y-13700000D01*
X1267499Y-13809662D01*
X1317904Y-13908587D01*
X1317905Y-13908587D01*
X1396413Y-13987095D01*
X1428554Y-14003472D01*
X1495337Y-14037500D01*
X1521718Y-14041678D01*
X1605000Y-14054869D01*
X1699667Y-14039874D01*
X1714662Y-14037500D01*
X1748053Y-14020486D01*
X1813587Y-13987095D01*
X1892095Y-13908587D01*
X1925486Y-13843053D01*
X1942500Y-13809662D01*
X1956291Y-13722587D01*
X1959869Y-13700000D01*
X1942500Y-13590339D01*
X1942500Y-13590337D01*
X1908472Y-13523554D01*
X1892095Y-13491413D01*
X1813587Y-13412905D01*
X1714662Y-13362499D01*
X1605000Y-13345131D01*
X1495337Y-13362499D01*
X1396412Y-13412905D01*
X1317905Y-13491412D01*
X1267499Y-13590337D01*
X1250131Y-13700000D01*
X508675Y-13700000D01*
X508090Y-11600000D01*
X7365131Y-11600000D01*
X7382499Y-11709662D01*
X7432904Y-11808586D01*
X7432905Y-11808587D01*
X7511413Y-11887095D01*
X7543554Y-11903472D01*
X7610337Y-11937500D01*
X7636718Y-11941678D01*
X7720000Y-11954869D01*
X7814667Y-11939874D01*
X7829662Y-11937500D01*
X7867483Y-11918229D01*
X7928587Y-11887095D01*
X8007095Y-11808587D01*
X8016565Y-11790000D01*
X17260131Y-11790000D01*
X17277499Y-11899662D01*
X17320754Y-11984552D01*
X17327905Y-11998587D01*
X17406413Y-12077095D01*
X17438554Y-12093472D01*
X17505337Y-12127500D01*
X17531718Y-12131678D01*
X17615000Y-12144869D01*
X17709667Y-12129874D01*
X17724662Y-12127500D01*
X17758053Y-12110486D01*
X17823587Y-12077095D01*
X17902095Y-11998587D01*
X17943039Y-11918229D01*
X17952500Y-11899662D01*
X17958821Y-11859750D01*
X17969869Y-11790000D01*
X17952500Y-11680339D01*
X17952500Y-11680337D01*
X17902094Y-11581412D01*
X17823587Y-11502905D01*
X17724662Y-11452499D01*
X17615000Y-11435131D01*
X17505337Y-11452499D01*
X17406412Y-11502905D01*
X17327905Y-11581412D01*
X17277499Y-11680337D01*
X17260131Y-11790000D01*
X8016565Y-11790000D01*
X8040486Y-11743053D01*
X8057500Y-11709662D01*
X8062144Y-11680339D01*
X8074869Y-11600000D01*
X8057500Y-11490339D01*
X8057500Y-11490337D01*
X8007094Y-11391412D01*
X7928587Y-11312905D01*
X7829662Y-11262499D01*
X7720000Y-11245131D01*
X7610337Y-11262499D01*
X7511412Y-11312905D01*
X7432905Y-11391412D01*
X7382499Y-11490337D01*
X7365131Y-11600000D01*
X508090Y-11600000D01*
X507812Y-10600000D01*
X895131Y-10600000D01*
X912499Y-10709662D01*
X947619Y-10778587D01*
X962905Y-10808587D01*
X1041413Y-10887095D01*
X1073554Y-10903472D01*
X1140337Y-10937500D01*
X1166718Y-10941678D01*
X1250000Y-10954869D01*
X1344667Y-10939874D01*
X1359662Y-10937500D01*
X1393053Y-10920486D01*
X1458587Y-10887095D01*
X1537095Y-10808587D01*
X1582104Y-10720252D01*
X1587500Y-10709662D01*
X1592251Y-10679662D01*
X1604869Y-10600000D01*
X1600117Y-10570000D01*
X3815131Y-10570000D01*
X3832499Y-10679662D01*
X3882905Y-10778586D01*
X3882905Y-10778587D01*
X3961413Y-10857095D01*
X3993554Y-10873472D01*
X4060337Y-10907500D01*
X4086718Y-10911678D01*
X4170000Y-10924869D01*
X4264667Y-10909874D01*
X4279662Y-10907500D01*
X4319710Y-10887094D01*
X4378587Y-10857095D01*
X4457095Y-10778587D01*
X4494656Y-10704869D01*
X4507500Y-10679662D01*
X4520838Y-10595447D01*
X4524869Y-10570000D01*
X4511353Y-10484668D01*
X4507500Y-10460337D01*
X4457094Y-10361412D01*
X4445682Y-10350000D01*
X13715131Y-10350000D01*
X13732499Y-10459662D01*
X13779107Y-10551133D01*
X13782905Y-10558587D01*
X13861413Y-10637095D01*
X13893554Y-10653472D01*
X13960337Y-10687500D01*
X13986718Y-10691678D01*
X14070000Y-10704869D01*
X14164667Y-10689874D01*
X14179662Y-10687500D01*
X14230161Y-10661769D01*
X14278587Y-10637095D01*
X14357095Y-10558587D01*
X14394758Y-10484669D01*
X14407500Y-10459662D01*
X14409874Y-10444667D01*
X14424869Y-10350000D01*
X14407500Y-10240339D01*
X14407500Y-10240337D01*
X14357094Y-10141412D01*
X14278587Y-10062905D01*
X14179662Y-10012499D01*
X14070000Y-9995131D01*
X13960337Y-10012499D01*
X13861412Y-10062905D01*
X13782905Y-10141412D01*
X13732499Y-10240337D01*
X13715131Y-10350000D01*
X4445682Y-10350000D01*
X4378587Y-10282905D01*
X4279662Y-10232499D01*
X4170000Y-10215131D01*
X4060337Y-10232499D01*
X3961412Y-10282905D01*
X3882905Y-10361412D01*
X3832499Y-10460337D01*
X3815131Y-10570000D01*
X1600117Y-10570000D01*
X1587526Y-10490500D01*
X1587500Y-10490337D01*
X1553472Y-10423554D01*
X1537095Y-10391413D01*
X1458587Y-10312905D01*
X1458586Y-10312905D01*
X1359662Y-10262499D01*
X1250000Y-10245131D01*
X1140337Y-10262499D01*
X1041412Y-10312905D01*
X962905Y-10391412D01*
X912499Y-10490337D01*
X895131Y-10600000D01*
X507812Y-10600000D01*
X507464Y-9350000D01*
X6195131Y-9350000D01*
X6212499Y-9459662D01*
X6262905Y-9558587D01*
X6341413Y-9637095D01*
X6373554Y-9653472D01*
X6440337Y-9687500D01*
X6466718Y-9691678D01*
X6550000Y-9704869D01*
X6644667Y-9689874D01*
X6659662Y-9687500D01*
X6693053Y-9670486D01*
X6758587Y-9637095D01*
X6837095Y-9558587D01*
X6870486Y-9493053D01*
X6887500Y-9459662D01*
X6889874Y-9444667D01*
X6904869Y-9350000D01*
X6887500Y-9240339D01*
X6887500Y-9240337D01*
X6837094Y-9141412D01*
X6758587Y-9062905D01*
X6659662Y-9012499D01*
X6550000Y-8995131D01*
X6440337Y-9012499D01*
X6341412Y-9062905D01*
X6262905Y-9141412D01*
X6212499Y-9240337D01*
X6195131Y-9350000D01*
X507464Y-9350000D01*
X507284Y-8705000D01*
X16970131Y-8705000D01*
X16987499Y-8814662D01*
X17037904Y-8913586D01*
X17037905Y-8913587D01*
X17116413Y-8992095D01*
X17148554Y-9008472D01*
X17215337Y-9042500D01*
X17241718Y-9046678D01*
X17325000Y-9059869D01*
X17419667Y-9044874D01*
X17434662Y-9042500D01*
X17483644Y-9017542D01*
X17533587Y-8992095D01*
X17612095Y-8913587D01*
X17645486Y-8848053D01*
X17662500Y-8814662D01*
X17664874Y-8799667D01*
X17679869Y-8705000D01*
X17662500Y-8595339D01*
X17662500Y-8595337D01*
X17612094Y-8496412D01*
X17533587Y-8417905D01*
X17434662Y-8367499D01*
X17325000Y-8350131D01*
X17215337Y-8367499D01*
X17116412Y-8417905D01*
X17037905Y-8496412D01*
X16987499Y-8595337D01*
X16970131Y-8705000D01*
X507284Y-8705000D01*
X506985Y-7633121D01*
X21583566Y-7633121D01*
X21604204Y-7789883D01*
X21664712Y-7935962D01*
X21664713Y-7935963D01*
X21760965Y-8061403D01*
X21839049Y-8121318D01*
X21886407Y-8157657D01*
X22032486Y-8218165D01*
X22189248Y-8238803D01*
X22346010Y-8218165D01*
X22492089Y-8157657D01*
X22617530Y-8061403D01*
X22713784Y-7935962D01*
X22774292Y-7789883D01*
X22794930Y-7633121D01*
X22774292Y-7476359D01*
X22713784Y-7330280D01*
X22677445Y-7282922D01*
X22617530Y-7204838D01*
X22492090Y-7108586D01*
X22492089Y-7108585D01*
X22346010Y-7048077D01*
X22189248Y-7027439D01*
X22032485Y-7048077D01*
X21886405Y-7108586D01*
X21760965Y-7204838D01*
X21664713Y-7330278D01*
X21664712Y-7330279D01*
X21664712Y-7330280D01*
X21604204Y-7476359D01*
X21583566Y-7633121D01*
X506985Y-7633121D01*
X506529Y-5995000D01*
X9330131Y-5995000D01*
X9347499Y-6104662D01*
X9397904Y-6203587D01*
X9397905Y-6203587D01*
X9476413Y-6282095D01*
X9508554Y-6298472D01*
X9575337Y-6332500D01*
X9601718Y-6336678D01*
X9685000Y-6349869D01*
X9779667Y-6334874D01*
X9794662Y-6332500D01*
X9828053Y-6315486D01*
X9893587Y-6282095D01*
X9972095Y-6203587D01*
X10005486Y-6138053D01*
X10022500Y-6104662D01*
X10024874Y-6089667D01*
X10039869Y-5995000D01*
X10022500Y-5885339D01*
X10022500Y-5885337D01*
X9981498Y-5804868D01*
X9972095Y-5786413D01*
X9893587Y-5707905D01*
X9893586Y-5707904D01*
X9794662Y-5657499D01*
X9685000Y-5640131D01*
X9575337Y-5657499D01*
X9476412Y-5707905D01*
X9397905Y-5786412D01*
X9347499Y-5885337D01*
X9330131Y-5995000D01*
X506529Y-5995000D01*
X506377Y-5450000D01*
X905131Y-5450000D01*
X922499Y-5559662D01*
X952049Y-5617655D01*
X972905Y-5658587D01*
X1051413Y-5737095D01*
X1083554Y-5753472D01*
X1150337Y-5787500D01*
X1176718Y-5791678D01*
X1260000Y-5804869D01*
X1354667Y-5789874D01*
X1369662Y-5787500D01*
X1403053Y-5770486D01*
X1468587Y-5737095D01*
X1547095Y-5658587D01*
X1587310Y-5579661D01*
X1597500Y-5559662D01*
X1599874Y-5544667D01*
X1611701Y-5470000D01*
X3855131Y-5470000D01*
X3872499Y-5579662D01*
X3922689Y-5678164D01*
X3922905Y-5678587D01*
X4001413Y-5757095D01*
X4033554Y-5773472D01*
X4100337Y-5807500D01*
X4126718Y-5811678D01*
X4210000Y-5824869D01*
X4304667Y-5809874D01*
X4319662Y-5807500D01*
X4361049Y-5786412D01*
X4418587Y-5757095D01*
X4497095Y-5678587D01*
X4530486Y-5613053D01*
X4547500Y-5579662D01*
X4556727Y-5521403D01*
X4564869Y-5470000D01*
X4547500Y-5360339D01*
X4547500Y-5360337D01*
X4497094Y-5261412D01*
X4418587Y-5182905D01*
X4319662Y-5132499D01*
X4210000Y-5115131D01*
X4100337Y-5132499D01*
X4001412Y-5182905D01*
X3922905Y-5261412D01*
X3872499Y-5360337D01*
X3855131Y-5470000D01*
X1611701Y-5470000D01*
X1614869Y-5450000D01*
X1600668Y-5360339D01*
X1597500Y-5340337D01*
X1557285Y-5261412D01*
X1547095Y-5241413D01*
X1468587Y-5162905D01*
X1462220Y-5159661D01*
X1369662Y-5112499D01*
X1260000Y-5095131D01*
X1150337Y-5112499D01*
X1051412Y-5162905D01*
X972905Y-5241412D01*
X922499Y-5340337D01*
X905131Y-5450000D01*
X506377Y-5450000D01*
X506266Y-5050000D01*
X18275131Y-5050000D01*
X18292499Y-5159662D01*
X18334154Y-5241412D01*
X18342905Y-5258587D01*
X18421413Y-5337095D01*
X18453554Y-5353472D01*
X18520337Y-5387500D01*
X18546718Y-5391678D01*
X18630000Y-5404869D01*
X18724667Y-5389874D01*
X18739662Y-5387500D01*
X18773053Y-5370486D01*
X18838587Y-5337095D01*
X18917095Y-5258587D01*
X18955657Y-5182905D01*
X18967500Y-5159662D01*
X18974553Y-5115131D01*
X18978039Y-5093121D01*
X21583566Y-5093121D01*
X21604204Y-5249883D01*
X21664712Y-5395962D01*
X21664713Y-5395963D01*
X21760965Y-5521403D01*
X21836891Y-5579662D01*
X21886407Y-5617657D01*
X22032486Y-5678165D01*
X22189248Y-5698803D01*
X22346010Y-5678165D01*
X22492089Y-5617657D01*
X22617530Y-5521403D01*
X22713784Y-5395962D01*
X22774292Y-5249883D01*
X22794930Y-5093121D01*
X22774292Y-4936359D01*
X22713784Y-4790280D01*
X22659663Y-4719748D01*
X22617530Y-4664838D01*
X22492090Y-4568586D01*
X22492089Y-4568585D01*
X22346010Y-4508077D01*
X22335566Y-4506702D01*
X22303088Y-4487950D01*
X22293381Y-4451725D01*
X22312133Y-4419247D01*
X22335566Y-4409540D01*
X22335856Y-4409501D01*
X22346010Y-4408165D01*
X22492089Y-4347657D01*
X22617530Y-4251403D01*
X22713784Y-4125962D01*
X22774292Y-3979883D01*
X22794930Y-3823121D01*
X22774292Y-3666359D01*
X22713784Y-3520280D01*
X22621107Y-3399500D01*
X22617530Y-3394838D01*
X22492090Y-3298586D01*
X22492089Y-3298585D01*
X22346010Y-3238077D01*
X22335566Y-3236702D01*
X22303088Y-3217950D01*
X22293381Y-3181725D01*
X22312133Y-3149247D01*
X22335566Y-3139540D01*
X22335856Y-3139501D01*
X22346010Y-3138165D01*
X22492089Y-3077657D01*
X22617530Y-2981403D01*
X22713784Y-2855962D01*
X22774292Y-2709883D01*
X22794930Y-2553121D01*
X22774292Y-2396359D01*
X22713784Y-2250280D01*
X22677445Y-2202922D01*
X22617530Y-2124838D01*
X22492090Y-2028586D01*
X22492089Y-2028585D01*
X22346010Y-1968077D01*
X22335566Y-1966702D01*
X22303088Y-1947950D01*
X22293381Y-1911725D01*
X22312133Y-1879247D01*
X22335566Y-1869540D01*
X22335856Y-1869501D01*
X22346010Y-1868165D01*
X22492089Y-1807657D01*
X22617530Y-1711403D01*
X22713784Y-1585962D01*
X22774292Y-1439883D01*
X22794930Y-1283121D01*
X22774292Y-1126359D01*
X22713784Y-980280D01*
X22677445Y-932922D01*
X22617530Y-854838D01*
X22492090Y-758586D01*
X22492089Y-758585D01*
X22346010Y-698077D01*
X22189248Y-677439D01*
X22032485Y-698077D01*
X21886405Y-758586D01*
X21760965Y-854838D01*
X21664713Y-980278D01*
X21664712Y-980279D01*
X21664712Y-980280D01*
X21604204Y-1126359D01*
X21583566Y-1283121D01*
X21604204Y-1439883D01*
X21664712Y-1585962D01*
X21664713Y-1585963D01*
X21760965Y-1711403D01*
X21839049Y-1771318D01*
X21886407Y-1807657D01*
X21987425Y-1849500D01*
X22032485Y-1868165D01*
X22042929Y-1869540D01*
X22075407Y-1888292D01*
X22085114Y-1924517D01*
X22066362Y-1956995D01*
X22042929Y-1966702D01*
X22032485Y-1968076D01*
X21886405Y-2028586D01*
X21760965Y-2124838D01*
X21664713Y-2250278D01*
X21664712Y-2250279D01*
X21664712Y-2250280D01*
X21604204Y-2396359D01*
X21583566Y-2553121D01*
X21604204Y-2709883D01*
X21664712Y-2855962D01*
X21664713Y-2855963D01*
X21760965Y-2981403D01*
X21839049Y-3041318D01*
X21886407Y-3077657D01*
X21994328Y-3122359D01*
X22032485Y-3138165D01*
X22042929Y-3139540D01*
X22075407Y-3158292D01*
X22085114Y-3194517D01*
X22066362Y-3226995D01*
X22042929Y-3236702D01*
X22032485Y-3238076D01*
X21886405Y-3298586D01*
X21760965Y-3394838D01*
X21664713Y-3520278D01*
X21664712Y-3520279D01*
X21664712Y-3520280D01*
X21604204Y-3666359D01*
X21583566Y-3823121D01*
X21604204Y-3979883D01*
X21664712Y-4125962D01*
X21664713Y-4125963D01*
X21760965Y-4251403D01*
X21839049Y-4311318D01*
X21886407Y-4347657D01*
X21994328Y-4392359D01*
X22032485Y-4408165D01*
X22042929Y-4409540D01*
X22075407Y-4428292D01*
X22085114Y-4464517D01*
X22066362Y-4496995D01*
X22042929Y-4506702D01*
X22032485Y-4508076D01*
X21886405Y-4568586D01*
X21760965Y-4664838D01*
X21664713Y-4790278D01*
X21664712Y-4790279D01*
X21664712Y-4790280D01*
X21604204Y-4936359D01*
X21583566Y-5093121D01*
X18978039Y-5093121D01*
X18984869Y-5050000D01*
X18967500Y-4940339D01*
X18967500Y-4940337D01*
X18925888Y-4858671D01*
X18917095Y-4841413D01*
X18838587Y-4762905D01*
X18838586Y-4762904D01*
X18739662Y-4712499D01*
X18630000Y-4695131D01*
X18520337Y-4712499D01*
X18421412Y-4762905D01*
X18342905Y-4841412D01*
X18292499Y-4940337D01*
X18275131Y-5050000D01*
X506266Y-5050000D01*
X506222Y-4893323D01*
X520564Y-4858671D01*
X555208Y-4844310D01*
X582444Y-4852567D01*
X636769Y-4888867D01*
X651389Y-4891775D01*
X695249Y-4900500D01*
X695252Y-4900500D01*
X2534751Y-4900500D01*
X2570829Y-4893323D01*
X2593231Y-4888867D01*
X2659552Y-4844552D01*
X2703867Y-4778231D01*
X2715500Y-4719748D01*
X2715500Y-3580252D01*
X2715500Y-3580249D01*
X2703867Y-3521770D01*
X2703867Y-3521769D01*
X2659552Y-3455448D01*
X2628926Y-3434984D01*
X2608092Y-3403802D01*
X2615409Y-3367019D01*
X2646590Y-3346184D01*
X2654213Y-3344669D01*
X2687457Y-3322457D01*
X2709669Y-3289213D01*
X2715500Y-3259899D01*
X2715499Y-1940102D01*
X2709669Y-1910787D01*
X2709669Y-1910786D01*
X2687457Y-1877543D01*
X2673420Y-1868164D01*
X2654213Y-1855331D01*
X2654212Y-1855330D01*
X2654211Y-1855330D01*
X2624900Y-1849500D01*
X605102Y-1849500D01*
X566226Y-1857232D01*
X565705Y-1854614D01*
X544792Y-1858769D01*
X513614Y-1837926D01*
X505363Y-1810729D01*
X505106Y-885131D01*
X505014Y-554014D01*
X519356Y-519361D01*
X554000Y-505000D01*
X3230824Y-505000D01*
X3265472Y-519352D01*
G37*
%TD.AperFunction*%
%TD*%
M02*
