%TF.GenerationSoftware,KiCad,Pcbnew,7.0.2-6a45011f42~172~ubuntu22.04.1*%
%TF.CreationDate,2023-05-21T17:06:01+08:00*%
%TF.ProjectId,fly2040,666c7932-3034-4302-9e6b-696361645f70,rev?*%
%TF.SameCoordinates,PX40c8790PY2f87f80*%
%TF.FileFunction,Copper,L1,Top*%
%TF.FilePolarity,Positive*%
%FSLAX46Y46*%
G04 Gerber Fmt 4.6, Leading zero omitted, Abs format (unit mm)*
G04 Created by KiCad (PCBNEW 7.0.2-6a45011f42~172~ubuntu22.04.1) date 2023-05-21 17:06:01*
%MOMM*%
%LPD*%
G01*
G04 APERTURE LIST*
G04 Aperture macros list*
%AMRoundRect*
0 Rectangle with rounded corners*
0 $1 Rounding radius*
0 $2 $3 $4 $5 $6 $7 $8 $9 X,Y pos of 4 corners*
0 Add a 4 corners polygon primitive as box body*
4,1,4,$2,$3,$4,$5,$6,$7,$8,$9,$2,$3,0*
0 Add four circle primitives for the rounded corners*
1,1,$1+$1,$2,$3*
1,1,$1+$1,$4,$5*
1,1,$1+$1,$6,$7*
1,1,$1+$1,$8,$9*
0 Add four rect primitives between the rounded corners*
20,1,$1+$1,$2,$3,$4,$5,0*
20,1,$1+$1,$4,$5,$6,$7,0*
20,1,$1+$1,$6,$7,$8,$9,0*
20,1,$1+$1,$8,$9,$2,$3,0*%
G04 Aperture macros list end*
%TA.AperFunction,SMDPad,CuDef*%
%ADD10RoundRect,0.135000X-0.185000X0.135000X-0.185000X-0.135000X0.185000X-0.135000X0.185000X0.135000X0*%
%TD*%
%TA.AperFunction,SMDPad,CuDef*%
%ADD11RoundRect,0.135000X0.185000X-0.135000X0.185000X0.135000X-0.185000X0.135000X-0.185000X-0.135000X0*%
%TD*%
%TA.AperFunction,ComponentPad*%
%ADD12R,1.300000X2.000000*%
%TD*%
%TA.AperFunction,ComponentPad*%
%ADD13RoundRect,0.100000X-0.550000X0.900000X-0.550000X-0.900000X0.550000X-0.900000X0.550000X0.900000X0*%
%TD*%
%TA.AperFunction,SMDPad,CuDef*%
%ADD14RoundRect,0.140000X-0.140000X-0.170000X0.140000X-0.170000X0.140000X0.170000X-0.140000X0.170000X0*%
%TD*%
%TA.AperFunction,SMDPad,CuDef*%
%ADD15RoundRect,0.140000X0.170000X-0.140000X0.170000X0.140000X-0.170000X0.140000X-0.170000X-0.140000X0*%
%TD*%
%TA.AperFunction,SMDPad,CuDef*%
%ADD16RoundRect,0.140000X-0.170000X0.140000X-0.170000X-0.140000X0.170000X-0.140000X0.170000X0.140000X0*%
%TD*%
%TA.AperFunction,SMDPad,CuDef*%
%ADD17R,1.200000X1.400000*%
%TD*%
%TA.AperFunction,SMDPad,CuDef*%
%ADD18R,1.100000X0.700000*%
%TD*%
%TA.AperFunction,SMDPad,CuDef*%
%ADD19O,0.364000X1.222000*%
%TD*%
%TA.AperFunction,SMDPad,CuDef*%
%ADD20R,0.280000X0.600000*%
%TD*%
%TA.AperFunction,SMDPad,CuDef*%
%ADD21R,1.700000X0.300000*%
%TD*%
%TA.AperFunction,SMDPad,CuDef*%
%ADD22R,0.200000X1.100000*%
%TD*%
%TA.AperFunction,SMDPad,CuDef*%
%ADD23R,1.100000X0.200000*%
%TD*%
%TA.AperFunction,SMDPad,CuDef*%
%ADD24R,3.100000X3.100000*%
%TD*%
%TA.AperFunction,SMDPad,CuDef*%
%ADD25R,1.000000X1.524000*%
%TD*%
%TA.AperFunction,SMDPad,CuDef*%
%ADD26R,1.145000X0.400000*%
%TD*%
%TA.AperFunction,SMDPad,CuDef*%
%ADD27R,1.000000X1.720000*%
%TD*%
%TA.AperFunction,ComponentPad*%
%ADD28O,1.000000X1.000000*%
%TD*%
%TA.AperFunction,ComponentPad*%
%ADD29RoundRect,0.100000X0.550000X-0.900000X0.550000X0.900000X-0.550000X0.900000X-0.550000X-0.900000X0*%
%TD*%
%TA.AperFunction,ComponentPad*%
%ADD30R,2.000000X1.300000*%
%TD*%
%TA.AperFunction,ComponentPad*%
%ADD31RoundRect,0.100000X-0.900000X-0.550000X0.900000X-0.550000X0.900000X0.550000X-0.900000X0.550000X0*%
%TD*%
%TA.AperFunction,ViaPad*%
%ADD32C,0.450000*%
%TD*%
%TA.AperFunction,Conductor*%
%ADD33C,0.200000*%
%TD*%
%TA.AperFunction,Conductor*%
%ADD34C,0.100000*%
%TD*%
%TA.AperFunction,Conductor*%
%ADD35C,0.357600*%
%TD*%
%TA.AperFunction,Conductor*%
%ADD36C,0.500000*%
%TD*%
G04 APERTURE END LIST*
D10*
%TO.P,R11,1*%
%TO.N,Net-(U1-GPIO29_ADC3)*%
X16782000Y-13845000D03*
%TO.P,R11,2*%
%TO.N,NS_D0*%
X16782000Y-14865000D03*
%TD*%
%TO.P,R10,1*%
%TO.N,Net-(U1-GPIO28_ADC2)*%
X15721000Y-13845000D03*
%TO.P,R10,2*%
%TO.N,NS_CMD*%
X15721000Y-14865000D03*
%TD*%
%TO.P,R9,1*%
%TO.N,Net-(U1-GPIO27_ADC1)*%
X14660000Y-13845000D03*
%TO.P,R9,2*%
%TO.N,NS_CLK*%
X14660000Y-14865000D03*
%TD*%
%TO.P,R8,1*%
%TO.N,Net-(U1-GPIO26_ADC0)*%
X13599000Y-13845000D03*
%TO.P,R8,2*%
%TO.N,NS_RST*%
X13599000Y-14865000D03*
%TD*%
D11*
%TO.P,R6,1*%
%TO.N,+3V3*%
X23135000Y-5660000D03*
%TO.P,R6,2*%
%TO.N,QSPI_CS*%
X23135000Y-4640000D03*
%TD*%
D10*
%TO.P,R5,1*%
%TO.N,BOOT*%
X23135000Y-2655000D03*
%TO.P,R5,2*%
%TO.N,QSPI_CS*%
X23135000Y-3675000D03*
%TD*%
%TO.P,R4,1*%
%TO.N,Net-(U1-USB_DM)*%
X23125000Y-10600000D03*
%TO.P,R4,2*%
%TO.N,D-*%
X23125000Y-11620000D03*
%TD*%
D11*
%TO.P,R3,1*%
%TO.N,Net-(U1-USB_DP)*%
X23125000Y-9600001D03*
%TO.P,R3,2*%
%TO.N,D+*%
X23125000Y-8580001D03*
%TD*%
%TO.P,R2,1*%
%TO.N,+3V3*%
X11050000Y-13875000D03*
%TO.P,R2,2*%
%TO.N,RST*%
X11050000Y-12855000D03*
%TD*%
%TO.P,R1,1*%
%TO.N,Net-(X1-OSC1)*%
X7580000Y-9145000D03*
%TO.P,R1,2*%
%TO.N,XOUT*%
X7580000Y-8125000D03*
%TD*%
D12*
%TO.P,J10,1,Pin_1*%
%TO.N,NS_8*%
X14310000Y-1165000D03*
D13*
%TO.P,J10,2,Pin_2*%
%TO.N,NS_9*%
X12760000Y-1165000D03*
%TD*%
D14*
%TO.P,C18,1*%
%TO.N,+5V*%
X20005000Y-16305000D03*
%TO.P,C18,2*%
%TO.N,GND*%
X20965000Y-16305000D03*
%TD*%
%TO.P,C17,1*%
%TO.N,+5V*%
X20005000Y-15255000D03*
%TO.P,C17,2*%
%TO.N,GND*%
X20965000Y-15255000D03*
%TD*%
%TO.P,C16,1*%
%TO.N,+5V*%
X20005000Y-14205000D03*
%TO.P,C16,2*%
%TO.N,GND*%
X20965000Y-14205000D03*
%TD*%
D15*
%TO.P,C15,1*%
%TO.N,+3V3*%
X22080000Y-17265000D03*
%TO.P,C15,2*%
%TO.N,GND*%
X22080000Y-16305000D03*
%TD*%
D16*
%TO.P,C14,1*%
%TO.N,+3V3*%
X23135000Y-6635000D03*
%TO.P,C14,2*%
%TO.N,GND*%
X23135000Y-7595000D03*
%TD*%
%TO.P,C13,1*%
%TO.N,+3V3*%
X7585000Y-10135000D03*
%TO.P,C13,2*%
%TO.N,GND*%
X7585000Y-11095000D03*
%TD*%
D14*
%TO.P,C12,1*%
%TO.N,+3V3*%
X14600000Y-2875000D03*
%TO.P,C12,2*%
%TO.N,GND*%
X15560000Y-2875000D03*
%TD*%
%TO.P,C11,1*%
%TO.N,+3V3*%
X17780000Y-2870000D03*
%TO.P,C11,2*%
%TO.N,GND*%
X18740000Y-2870000D03*
%TD*%
%TO.P,C10,1*%
%TO.N,+3V3*%
X21120000Y-9360000D03*
%TO.P,C10,2*%
%TO.N,GND*%
X22080000Y-9360000D03*
%TD*%
D16*
%TO.P,C9,1*%
%TO.N,+3V3*%
X17850000Y-11890000D03*
%TO.P,C9,2*%
%TO.N,GND*%
X17850000Y-12850000D03*
%TD*%
%TO.P,C8,1*%
%TO.N,+3V3*%
X17833000Y-13875000D03*
%TO.P,C8,2*%
%TO.N,GND*%
X17833000Y-14835000D03*
%TD*%
%TO.P,C7,1*%
%TO.N,+3V3*%
X12548000Y-13875000D03*
%TO.P,C7,2*%
%TO.N,GND*%
X12548000Y-14835000D03*
%TD*%
D15*
%TO.P,C6,1*%
%TO.N,GND*%
X18925000Y-12850000D03*
%TO.P,C6,2*%
%TO.N,+3V3*%
X18925000Y-11890000D03*
%TD*%
D14*
%TO.P,C5,1*%
%TO.N,+1V1*%
X21125000Y-11640000D03*
%TO.P,C5,2*%
%TO.N,GND*%
X22085000Y-11640000D03*
%TD*%
D16*
%TO.P,C4,1*%
%TO.N,+1V1*%
X8640000Y-10570000D03*
%TO.P,C4,2*%
%TO.N,GND*%
X8640000Y-11530000D03*
%TD*%
D14*
%TO.P,C3,1*%
%TO.N,XIN*%
X4740000Y-5035000D03*
%TO.P,C3,2*%
%TO.N,GND*%
X5700000Y-5035000D03*
%TD*%
%TO.P,C2,1*%
%TO.N,+1V1*%
X21120000Y-8265000D03*
%TO.P,C2,2*%
%TO.N,GND*%
X22080000Y-8265000D03*
%TD*%
%TO.P,C1,1*%
%TO.N,GND*%
X4755000Y-10115000D03*
%TO.P,C1,2*%
%TO.N,Net-(X1-OSC1)*%
X5715000Y-10115000D03*
%TD*%
D12*
%TO.P,J9,1,Pin_1*%
%TO.N,NS_10*%
X11145001Y-1165000D03*
D13*
%TO.P,J9,2,Pin_2*%
%TO.N,NS_11*%
X9595001Y-1165000D03*
%TD*%
D17*
%TO.P,X1,4,4*%
%TO.N,GND*%
X4350000Y-8680000D03*
%TO.P,X1,3,OSC2*%
%TO.N,XIN*%
X4350000Y-6480000D03*
%TO.P,X1,2,2*%
%TO.N,GND*%
X6100000Y-6480000D03*
%TO.P,X1,1,OSC1*%
%TO.N,Net-(X1-OSC1)*%
X6100000Y-8680000D03*
%TD*%
D18*
%TO.P,U4,1,SW*%
%TO.N,Net-(U4-SW)*%
X24979000Y-14814000D03*
%TO.P,U4,2,GND*%
%TO.N,GND*%
X24979000Y-13864000D03*
%TO.P,U4,3,NC*%
%TO.N,unconnected-(U4-NC-Pad3)*%
X24979000Y-12912000D03*
%TO.P,U4,4,VOUT*%
%TO.N,+5V*%
X22391000Y-12912000D03*
%TO.P,U4,5,NC*%
%TO.N,unconnected-(U4-NC-Pad5)*%
X22391000Y-14812000D03*
%TD*%
D19*
%TO.P,U3,1,VCCB*%
%TO.N,+5V*%
X4065000Y-14466000D03*
%TO.P,U3,2,B1*%
%TO.N,LED_CLK_5V*%
X4715000Y-14466000D03*
%TO.P,U3,3,B2*%
%TO.N,LED_DATA_5V*%
X5365000Y-14466000D03*
%TO.P,U3,4,OE*%
%TO.N,LED_EN*%
X6015000Y-14466000D03*
%TO.P,U3,8,VCCA*%
%TO.N,+3V3*%
X4065000Y-12044000D03*
%TO.P,U3,7,A1*%
%TO.N,LED_CLK*%
X4715000Y-12044000D03*
%TO.P,U3,6,A2*%
%TO.N,LED_DATA*%
X5365000Y-12044000D03*
%TO.P,U3,5,GND*%
%TO.N,GND*%
X6015000Y-12044000D03*
%TD*%
D20*
%TO.P,U2,1,CS#*%
%TO.N,QSPI_CS*%
X21835000Y-3745500D03*
%TO.P,U2,2,DO(IO1)*%
%TO.N,QSPI_SD1*%
X21335000Y-3745500D03*
%TO.P,U2,3,WP#(IO2)*%
%TO.N,QSPI_SD2*%
X20835000Y-3745500D03*
%TO.P,U2,4,GND*%
%TO.N,GND*%
X20335000Y-3745500D03*
%TO.P,U2,8,VCC*%
%TO.N,+3V3*%
X21835000Y-6759500D03*
%TO.P,U2,7,HOLD#orRESET#(IO3)*%
%TO.N,QSPI_SD3*%
X21335000Y-6759500D03*
%TO.P,U2,6,CLK*%
%TO.N,QSPI_SCK*%
X20835000Y-6759500D03*
%TO.P,U2,5,DI(IO0)*%
%TO.N,QSPI_SD0*%
X20335000Y-6759500D03*
D21*
%TO.P,U2,9,EP*%
%TO.N,GND*%
X21085000Y-5252500D03*
%TD*%
D22*
%TO.P,U1,1,IOVDD*%
%TO.N,+3V3*%
X16965000Y-4215000D03*
%TO.P,U1,2,GPIO0*%
%TO.N,unconnected-(U1-GPIO0-Pad2)*%
X16565000Y-4215000D03*
%TO.P,U1,3,GPIO1*%
%TO.N,unconnected-(U1-GPIO1-Pad3)*%
X16165000Y-4215000D03*
%TO.P,U1,4,GPIO2*%
%TO.N,unconnected-(U1-GPIO2-Pad4)*%
X15765000Y-4215000D03*
%TO.P,U1,5,GPIO3*%
%TO.N,unconnected-(U1-GPIO3-Pad5)*%
X15365000Y-4215000D03*
%TO.P,U1,6,GPIO4*%
%TO.N,unconnected-(U1-GPIO4-Pad6)*%
X14965000Y-4215000D03*
%TO.P,U1,7,GPIO5*%
%TO.N,unconnected-(U1-GPIO5-Pad7)*%
X14565000Y-4215000D03*
%TO.P,U1,8,GPIO6*%
%TO.N,unconnected-(U1-GPIO6-Pad8)*%
X14165000Y-4215000D03*
%TO.P,U1,9,GPIO7*%
%TO.N,unconnected-(U1-GPIO7-Pad9)*%
X13765000Y-4215000D03*
%TO.P,U1,10,IOVDD*%
%TO.N,+3V3*%
X13365000Y-4215000D03*
%TO.P,U1,11,GPIO8*%
%TO.N,NS_8*%
X12965000Y-4215000D03*
%TO.P,U1,12,GPIO9*%
%TO.N,NS_9*%
X12565000Y-4215000D03*
%TO.P,U1,13,GPIO10*%
%TO.N,NS_10*%
X12165000Y-4215000D03*
%TO.P,U1,14,GPIO11*%
%TO.N,NS_11*%
X11765000Y-4215000D03*
D23*
%TO.P,U1,15,GPIO12*%
%TO.N,NS_SDA*%
X10815000Y-5165000D03*
%TO.P,U1,16,GPIO13*%
%TO.N,NS_SCL*%
X10815000Y-5565000D03*
%TO.P,U1,17,GPIO14*%
%TO.N,NS_14*%
X10815000Y-5965000D03*
%TO.P,U1,18,GPIO15*%
%TO.N,NS_CPU*%
X10815000Y-6365000D03*
%TO.P,U1,19,TESTEN*%
%TO.N,GND*%
X10815000Y-6765000D03*
%TO.P,U1,20,XIN*%
%TO.N,XIN*%
X10815000Y-7165000D03*
%TO.P,U1,21,XOUT*%
%TO.N,XOUT*%
X10815000Y-7565000D03*
%TO.P,U1,22,IOVDD*%
%TO.N,+3V3*%
X10815000Y-7965000D03*
%TO.P,U1,23,DVDD*%
%TO.N,+1V1*%
X10815000Y-8365000D03*
%TO.P,U1,24,SWCLK*%
%TO.N,DBG_CLK*%
X10815000Y-8765000D03*
%TO.P,U1,25,SWD*%
%TO.N,DBG_DAT*%
X10815000Y-9165000D03*
%TO.P,U1,26,RUN*%
%TO.N,RST*%
X10815000Y-9565000D03*
%TO.P,U1,27,GPIO16*%
%TO.N,unconnected-(U1-GPIO16-Pad27)*%
X10815000Y-9965000D03*
%TO.P,U1,28,GPIO17*%
%TO.N,unconnected-(U1-GPIO17-Pad28)*%
X10815000Y-10365000D03*
D22*
%TO.P,U1,29,GPIO18*%
%TO.N,LED_EN*%
X11765000Y-11315000D03*
%TO.P,U1,30,GPIO19*%
%TO.N,unconnected-(U1-GPIO19-Pad30)*%
X12165000Y-11315000D03*
%TO.P,U1,31,GPIO20*%
%TO.N,unconnected-(U1-GPIO20-Pad31)*%
X12565000Y-11315000D03*
%TO.P,U1,32,GPIO21*%
%TO.N,unconnected-(U1-GPIO21-Pad32)*%
X12965000Y-11315000D03*
%TO.P,U1,33,IOVDD*%
%TO.N,+3V3*%
X13365000Y-11315000D03*
%TO.P,U1,34,GPIO22*%
%TO.N,unconnected-(U1-GPIO22-Pad34)*%
X13765000Y-11315000D03*
%TO.P,U1,35,GPIO23*%
%TO.N,unconnected-(U1-GPIO23-Pad35)*%
X14165000Y-11315000D03*
%TO.P,U1,36,GPIO24*%
%TO.N,unconnected-(U1-GPIO24-Pad36)*%
X14565000Y-11315000D03*
%TO.P,U1,37,GPIO25*%
%TO.N,unconnected-(U1-GPIO25-Pad37)*%
X14965000Y-11315000D03*
%TO.P,U1,38,GPIO26_ADC0*%
%TO.N,Net-(U1-GPIO26_ADC0)*%
X15365000Y-11315000D03*
%TO.P,U1,39,GPIO27_ADC1*%
%TO.N,Net-(U1-GPIO27_ADC1)*%
X15765000Y-11315000D03*
%TO.P,U1,40,GPIO28_ADC2*%
%TO.N,Net-(U1-GPIO28_ADC2)*%
X16165000Y-11315000D03*
%TO.P,U1,41,GPIO29_ADC3*%
%TO.N,Net-(U1-GPIO29_ADC3)*%
X16565000Y-11315000D03*
%TO.P,U1,42,IOVDD*%
%TO.N,+3V3*%
X16965000Y-11315000D03*
D23*
%TO.P,U1,43,ADC_AVDD*%
X17915000Y-10365000D03*
%TO.P,U1,44,VREG_IN*%
X17915000Y-9965000D03*
%TO.P,U1,45,VREG_VOUT*%
%TO.N,+1V1*%
X17915000Y-9565000D03*
%TO.P,U1,46,USB_DM*%
%TO.N,Net-(U1-USB_DM)*%
X17915000Y-9165000D03*
%TO.P,U1,47,USB_DP*%
%TO.N,Net-(U1-USB_DP)*%
X17915000Y-8765000D03*
%TO.P,U1,48,USB_VDD*%
%TO.N,+3V3*%
X17915000Y-8365000D03*
%TO.P,U1,49,IOVDD*%
X17915000Y-7965000D03*
%TO.P,U1,50,DVDD*%
%TO.N,+1V1*%
X17915000Y-7565000D03*
%TO.P,U1,51,QSPI_SD3*%
%TO.N,QSPI_SD3*%
X17915000Y-7165000D03*
%TO.P,U1,52,QSPI_SCLK*%
%TO.N,QSPI_SCK*%
X17915000Y-6765000D03*
%TO.P,U1,53,QSPI_SD0*%
%TO.N,QSPI_SD0*%
X17915000Y-6365000D03*
%TO.P,U1,54,QSPI_SD2*%
%TO.N,QSPI_SD2*%
X17915000Y-5965000D03*
%TO.P,U1,55,QSPI_SD1*%
%TO.N,QSPI_SD1*%
X17915000Y-5565000D03*
%TO.P,U1,56,QSPI_SS*%
%TO.N,QSPI_CS*%
X17915000Y-5165000D03*
D24*
%TO.P,U1,57,GND*%
%TO.N,GND*%
X14365000Y-7765000D03*
%TD*%
D25*
%TO.P,SW1,2,2*%
%TO.N,GND*%
X19365000Y-1230000D03*
%TO.P,SW1,1,1*%
%TO.N,BOOT*%
X22565000Y-1230000D03*
%TD*%
D11*
%TO.P,R7,1*%
%TO.N,GND*%
X7305000Y-16560000D03*
%TO.P,R7,2*%
%TO.N,LED_EN*%
X7305000Y-15540000D03*
%TD*%
D26*
%TO.P,LED1,1,SDO*%
%TO.N,unconnected-(LED1-SDO-Pad1)*%
X5858000Y-17410000D03*
%TO.P,LED1,6,CKO*%
%TO.N,unconnected-(LED1-CKO-Pad6)*%
X4162000Y-17410000D03*
%TO.P,LED1,2,GND*%
%TO.N,GND*%
X5858000Y-16610000D03*
%TO.P,LED1,5,VDD*%
%TO.N,+5V*%
X4162000Y-16610000D03*
%TO.P,LED1,3,SDI*%
%TO.N,LED_DATA_5V*%
X5858000Y-15810000D03*
%TO.P,LED1,4,CKL*%
%TO.N,LED_CLK_5V*%
X4162000Y-15810000D03*
%TD*%
D27*
%TO.P,L1,1,1*%
%TO.N,+3V3*%
X23362000Y-16785000D03*
%TO.P,L1,2,2*%
%TO.N,Net-(U4-SW)*%
X25018000Y-16785000D03*
%TD*%
D28*
%TO.P,J8,1,Pin_1*%
%TO.N,RST*%
X24659248Y-843121D03*
%TO.P,J8,2,Pin_2*%
%TO.N,BOOT*%
X24659248Y-2113121D03*
%TO.P,J8,3,Pin_3*%
%TO.N,D+*%
X24659248Y-3383121D03*
%TO.P,J8,4,Pin_4*%
%TO.N,D-*%
X24659248Y-4653121D03*
%TO.P,J8,5,Pin_5*%
%TO.N,+3V3*%
X24659248Y-5923121D03*
%TO.P,J8,6,Pin_6*%
%TO.N,GND*%
X24659248Y-7193121D03*
%TD*%
D12*
%TO.P,J7,1,Pin_1*%
%TO.N,DBG_CLK*%
X8215000Y-13355000D03*
D29*
%TO.P,J7,2,Pin_2*%
%TO.N,DBG_DAT*%
X9765000Y-13355000D03*
%TD*%
D13*
%TO.P,J6,2,Pin_2*%
%TO.N,NS_SCL*%
X6450000Y-1165000D03*
D12*
%TO.P,J6,1,Pin_1*%
%TO.N,NS_SDA*%
X8000000Y-1165000D03*
%TD*%
D30*
%TO.P,J5,1,Pin_1*%
%TO.N,D+*%
X24820000Y-9300000D03*
D31*
%TO.P,J5,2,Pin_2*%
%TO.N,D-*%
X24820000Y-10850000D03*
%TD*%
D12*
%TO.P,J4,1,Pin_1*%
%TO.N,NS_CMD*%
X15975000Y-16895000D03*
D29*
%TO.P,J4,2,Pin_2*%
%TO.N,NS_D0*%
X17525000Y-16895000D03*
%TD*%
D12*
%TO.P,J3,1,Pin_1*%
%TO.N,NS_RST*%
X12815000Y-16895000D03*
D29*
%TO.P,J3,2,Pin_2*%
%TO.N,NS_CLK*%
X14365000Y-16895000D03*
%TD*%
D31*
%TO.P,J2,2,Pin_2*%
%TO.N,NS_CPU*%
X4090000Y-3065000D03*
D30*
%TO.P,J2,1,Pin_1*%
%TO.N,NS_14*%
X4090000Y-1515000D03*
%TD*%
D12*
%TO.P,J1,1,Pin_1*%
%TO.N,+3V3*%
X16330000Y-1170000D03*
D29*
%TO.P,J1,2,Pin_2*%
%TO.N,GND*%
X17880000Y-1170000D03*
%TD*%
D32*
%TO.N,GND*%
X16540000Y-9910000D03*
X12155000Y-5555000D03*
X7265000Y-17460000D03*
X21100000Y-4610000D03*
%TO.N,+1V1*%
X20085000Y-11350000D03*
%TO.N,+3V3*%
X11055000Y-14970000D03*
%TO.N,+5V*%
X4075000Y-13260000D03*
X19045000Y-13910000D03*
%TO.N,+3V3*%
X16965000Y-2990000D03*
X13790000Y-2875000D03*
%TO.N,+1V1*%
X19795000Y-8265000D03*
%TO.N,+3V3*%
X20110000Y-9175000D03*
%TO.N,+1V1*%
X8865000Y-9620000D03*
%TO.N,+3V3*%
X8565000Y-8730000D03*
%TO.N,GND*%
X7585000Y-11915000D03*
X6680000Y-5030000D03*
X3730000Y-5010000D03*
X3720000Y-10160000D03*
X6640000Y-10130000D03*
%TO.N,RST*%
X10350000Y-11730000D03*
%TO.N,+3V3*%
X13365000Y-12755000D03*
X18985000Y-16865000D03*
X18915000Y-10980000D03*
%TD*%
D33*
%TO.N,+3V3*%
X16965000Y-2990000D02*
X17085000Y-2870000D01*
X17085000Y-2870000D02*
X17780000Y-2870000D01*
X16965000Y-2990000D02*
X16965000Y-4215000D01*
%TO.N,NS_8*%
X12965000Y-4215000D02*
X12965000Y-2940000D01*
X12965000Y-2940000D02*
X14310000Y-1595000D01*
X14310000Y-1595000D02*
X14310000Y-1165000D01*
%TO.N,NS_9*%
X12565000Y-4215000D02*
X12565000Y-1360000D01*
X12565000Y-1360000D02*
X12760000Y-1165000D01*
%TO.N,+3V3*%
X13790000Y-2875000D02*
X14600000Y-2875000D01*
X13790000Y-2875000D02*
X13365000Y-3300000D01*
X13365000Y-3300000D02*
X13365000Y-4215000D01*
D34*
%TO.N,QSPI_CS*%
X17915000Y-5165000D02*
X18505000Y-5165000D01*
X18505000Y-5165000D02*
X19330000Y-4340000D01*
X19330000Y-4340000D02*
X19330000Y-3010000D01*
X19330000Y-3010000D02*
X19755000Y-2585000D01*
X19755000Y-2585000D02*
X21010000Y-2585000D01*
X21010000Y-2585000D02*
X21835000Y-3410000D01*
X21835000Y-3410000D02*
X21835000Y-3745500D01*
D33*
%TO.N,BOOT*%
X23135000Y-2655000D02*
X23135000Y-1800000D01*
X23135000Y-1800000D02*
X22565000Y-1230000D01*
X24659248Y-2113121D02*
X23676879Y-2113121D01*
X23676879Y-2113121D02*
X23135000Y-2655000D01*
D34*
%TO.N,QSPI_CS*%
X21835000Y-3745500D02*
X23135000Y-3745500D01*
X23135000Y-3745500D02*
X23135000Y-4640000D01*
D35*
%TO.N,+3V3*%
X23135000Y-5660000D02*
X23135000Y-6635000D01*
X23135000Y-6635000D02*
X23846879Y-5923121D01*
D33*
X23010500Y-6759500D02*
X21835000Y-6759500D01*
D35*
X23846879Y-5923121D02*
X24659248Y-5923121D01*
%TO.N,+5V*%
X20005000Y-15255000D02*
X20005000Y-16305000D01*
X20005000Y-14205000D02*
X20005000Y-15255000D01*
X22396000Y-13074000D02*
X20751000Y-13074000D01*
X20751000Y-13074000D02*
X20005000Y-13820000D01*
X20005000Y-13820000D02*
X20005000Y-14205000D01*
X20005000Y-14205000D02*
X19340000Y-14205000D01*
X19340000Y-14205000D02*
X19045000Y-13910000D01*
D34*
%TO.N,LED_DATA_5V*%
X5365000Y-14526000D02*
X5365000Y-15317000D01*
X5365000Y-15317000D02*
X5858000Y-15810000D01*
%TO.N,LED_CLK_5V*%
X4715000Y-14526000D02*
X4715000Y-15257000D01*
X4715000Y-15257000D02*
X4162000Y-15810000D01*
%TO.N,LED_EN*%
X11765000Y-11315000D02*
X11765000Y-15050000D01*
X11765000Y-15050000D02*
X11275000Y-15540000D01*
X11275000Y-15540000D02*
X7089000Y-15540000D01*
X7089000Y-15540000D02*
X6015000Y-14466000D01*
D33*
%TO.N,+1V1*%
X20085000Y-11350000D02*
X20085000Y-11355000D01*
X20085000Y-11355000D02*
X20370000Y-11640000D01*
X20370000Y-11640000D02*
X21125000Y-11640000D01*
%TO.N,+5V*%
X4065000Y-14466000D02*
X3389500Y-15141500D01*
X3389500Y-15141500D02*
X3389500Y-16210000D01*
X3389500Y-16210000D02*
X3789500Y-16610000D01*
D35*
X4075000Y-13260000D02*
X4075000Y-14456000D01*
X4075000Y-14456000D02*
X4065000Y-14466000D01*
D33*
%TO.N,+1V1*%
X20080000Y-11350000D02*
X20085000Y-11350000D01*
X17915000Y-9565000D02*
X18661543Y-9565000D01*
X18661543Y-9565000D02*
X19565000Y-10468457D01*
X19565000Y-10468457D02*
X19565000Y-10835000D01*
X19565000Y-10835000D02*
X20080000Y-11350000D01*
%TO.N,NS_CPU*%
X10815000Y-6365000D02*
X8865000Y-6365000D01*
X8865000Y-6365000D02*
X5565000Y-3065000D01*
X5565000Y-3065000D02*
X4090000Y-3065000D01*
%TO.N,NS_14*%
X10815000Y-5965000D02*
X9285000Y-5965000D01*
X9285000Y-5965000D02*
X4835000Y-1515000D01*
%TO.N,NS_SDA*%
X10800000Y-5165000D02*
X8000000Y-2365000D01*
X8000000Y-2365000D02*
X8000000Y-1165000D01*
%TO.N,NS_11*%
X11765000Y-4215000D02*
X11765000Y-3745000D01*
X11765000Y-3745000D02*
X9595001Y-1575001D01*
%TO.N,NS_10*%
X12165000Y-4215000D02*
X12165000Y-3165000D01*
X12165000Y-3165000D02*
X11145001Y-2145001D01*
X11145001Y-2145001D02*
X11145001Y-1165000D01*
D34*
%TO.N,+3V3*%
X11050000Y-14965000D02*
X11055000Y-14970000D01*
X11050000Y-13875000D02*
X11050000Y-14965000D01*
D33*
X19385000Y-17265000D02*
X22080000Y-17265000D01*
X18985000Y-16865000D02*
X19385000Y-17265000D01*
X18985000Y-16865000D02*
X18985000Y-15068888D01*
X18985000Y-15068888D02*
X17833000Y-13916888D01*
X20110000Y-9175000D02*
X19733431Y-9175000D01*
X19733431Y-9175000D02*
X18523431Y-7965000D01*
X18523431Y-7965000D02*
X17915000Y-7965000D01*
X20295000Y-9360000D02*
X21120000Y-9360000D01*
X20110000Y-9175000D02*
X20295000Y-9360000D01*
%TO.N,+1V1*%
X19795000Y-8265000D02*
X21120000Y-8265000D01*
X19795000Y-8265000D02*
X19375000Y-8265000D01*
X19375000Y-8265000D02*
X18675000Y-7565000D01*
X18675000Y-7565000D02*
X17915000Y-7565000D01*
X8865000Y-9620000D02*
X9050000Y-9435000D01*
X9050000Y-9435000D02*
X9050000Y-9298924D01*
X9050000Y-9298924D02*
X9983924Y-8365000D01*
X9983924Y-8365000D02*
X10815000Y-8365000D01*
X8865000Y-9620000D02*
X8640000Y-9845000D01*
X8640000Y-9845000D02*
X8640000Y-10570000D01*
D34*
%TO.N,DBG_CLK*%
X10815000Y-8765000D02*
X10064756Y-8765000D01*
X9390000Y-11800000D02*
X8215000Y-12975000D01*
X10064756Y-8765000D02*
X9390000Y-9439756D01*
X9390000Y-9439756D02*
X9390000Y-11800000D01*
%TO.N,DBG_DAT*%
X10815000Y-9165000D02*
X10074878Y-9165000D01*
X10074878Y-9165000D02*
X9680000Y-9559878D01*
X9680000Y-9559878D02*
X9680000Y-13270000D01*
D33*
%TO.N,+3V3*%
X8565000Y-8730000D02*
X8565000Y-9135000D01*
X8565000Y-9135000D02*
X7585000Y-10115000D01*
X8565000Y-8730000D02*
X9330000Y-7965000D01*
X9330000Y-7965000D02*
X10815000Y-7965000D01*
X3791999Y-12104000D02*
X3791999Y-11208001D01*
X3791999Y-11208001D02*
X4200000Y-10800000D01*
X4200000Y-10800000D02*
X6845000Y-10800000D01*
X6845000Y-10800000D02*
X7510000Y-10135000D01*
D34*
%TO.N,RST*%
X10350000Y-11730000D02*
X11050000Y-12430000D01*
X11050000Y-12430000D02*
X11050000Y-12855000D01*
X10335000Y-11730000D02*
X10350000Y-11730000D01*
X10815000Y-9565000D02*
X10085000Y-9565000D01*
X10085000Y-9565000D02*
X10025000Y-9625000D01*
X10025000Y-9625000D02*
X10025000Y-11420000D01*
X10025000Y-11420000D02*
X10335000Y-11730000D01*
%TO.N,XIN*%
X10815000Y-7165000D02*
X7345000Y-7165000D01*
X7345000Y-7165000D02*
X6925000Y-7585000D01*
X6925000Y-7585000D02*
X5350000Y-7585000D01*
X5350000Y-7585000D02*
X4350000Y-6585000D01*
%TO.N,GND*%
X5700000Y-5035000D02*
X6100000Y-5435000D01*
X6100000Y-5435000D02*
X6100000Y-6480000D01*
%TO.N,XIN*%
X4350000Y-6480000D02*
X4350000Y-5425000D01*
X4350000Y-5425000D02*
X4740000Y-5035000D01*
%TO.N,GND*%
X4755000Y-10115000D02*
X4350000Y-9710000D01*
X4350000Y-9710000D02*
X4350000Y-8680000D01*
%TO.N,Net-(X1-OSC1)*%
X6100000Y-8680000D02*
X6100000Y-9730000D01*
X6100000Y-9730000D02*
X5715000Y-10115000D01*
X7580000Y-9145000D02*
X7115000Y-8680000D01*
X7115000Y-8680000D02*
X6100000Y-8680000D01*
%TO.N,XOUT*%
X10815000Y-7565000D02*
X8140000Y-7565000D01*
X8140000Y-7565000D02*
X7580000Y-8125000D01*
D33*
%TO.N,+3V3*%
X13365000Y-12755000D02*
X13365000Y-13058000D01*
X13365000Y-13058000D02*
X12548000Y-13875000D01*
X13365000Y-12755000D02*
X13365000Y-11315000D01*
X18925000Y-10990000D02*
X18925000Y-11890000D01*
X18915000Y-10980000D02*
X18925000Y-10990000D01*
X18925000Y-10970000D02*
X18915000Y-10980000D01*
X17850000Y-11890000D02*
X17250000Y-11890000D01*
X17250000Y-11890000D02*
X16965000Y-11605000D01*
X18925000Y-11890000D02*
X17850000Y-11890000D01*
X22080000Y-17265000D02*
X22882000Y-17265000D01*
X22882000Y-17265000D02*
X23362000Y-16785000D01*
D36*
%TO.N,Net-(U4-SW)*%
X24984000Y-14976000D02*
X24984000Y-16751000D01*
D33*
%TO.N,NS_RST*%
X13599000Y-14865000D02*
X12815000Y-15649000D01*
X12815000Y-15649000D02*
X12815000Y-16895000D01*
%TO.N,NS_CLK*%
X14660000Y-14865000D02*
X14660000Y-16600000D01*
%TO.N,NS_CMD*%
X15721000Y-14865000D02*
X15975000Y-15119000D01*
X15975000Y-15119000D02*
X15975000Y-16895000D01*
%TO.N,NS_D0*%
X16782000Y-14865000D02*
X17525000Y-15608000D01*
X17525000Y-15608000D02*
X17525000Y-16895000D01*
%TO.N,NS_SCL*%
X10815000Y-5565000D02*
X10085000Y-5565000D01*
X10085000Y-5565000D02*
X6450000Y-1930000D01*
D34*
%TO.N,QSPI_SD0*%
X17915000Y-6365000D02*
X19190000Y-6365000D01*
X19190000Y-6365000D02*
X19584500Y-6759500D01*
X19584500Y-6759500D02*
X20335000Y-6759500D01*
%TO.N,QSPI_SCK*%
X17915000Y-6765000D02*
X19130000Y-6765000D01*
X19130000Y-6765000D02*
X19664500Y-7299500D01*
X19664500Y-7299500D02*
X20715000Y-7299500D01*
X20715000Y-7299500D02*
X20835000Y-7179500D01*
X20835000Y-7179500D02*
X20835000Y-6759500D01*
%TO.N,QSPI_SD3*%
X17915000Y-7165000D02*
X19025000Y-7165000D01*
X19025000Y-7165000D02*
X19449500Y-7589500D01*
X19449500Y-7589500D02*
X20835122Y-7589500D01*
X20835122Y-7589500D02*
X21335000Y-7089622D01*
X21335000Y-7089622D02*
X21335000Y-6759500D01*
%TO.N,QSPI_SD1*%
X17915000Y-5565000D02*
X18774878Y-5565000D01*
X18774878Y-5565000D02*
X19605000Y-4734878D01*
X19605000Y-4734878D02*
X19605000Y-3145378D01*
X19875378Y-2875000D02*
X20884500Y-2875000D01*
X20884500Y-2875000D02*
X21335000Y-3325500D01*
X21335000Y-3325500D02*
X21335000Y-3745500D01*
X19605000Y-3145378D02*
X19875378Y-2875000D01*
%TO.N,QSPI_SD2*%
X17915000Y-5965000D02*
X18785000Y-5965000D01*
X18785000Y-5965000D02*
X19895000Y-4855000D01*
X20835000Y-3460000D02*
X20835000Y-3745500D01*
X19895000Y-4855000D02*
X19895000Y-3265500D01*
X19895000Y-3265500D02*
X19995500Y-3165000D01*
X19995500Y-3165000D02*
X20540000Y-3165000D01*
X20540000Y-3165000D02*
X20835000Y-3460000D01*
D33*
%TO.N,+3V3*%
X17915000Y-9965000D02*
X18510000Y-9965000D01*
X18510000Y-9965000D02*
X18925000Y-10380000D01*
X18925000Y-10380000D02*
X18925000Y-10970000D01*
D34*
%TO.N,D+*%
X23125000Y-8580001D02*
X24100001Y-8580001D01*
X24100001Y-8580001D02*
X24820000Y-9300000D01*
%TO.N,D-*%
X23125000Y-11620000D02*
X24050000Y-11620000D01*
X24050000Y-11620000D02*
X24820000Y-10850000D01*
%TO.N,Net-(U1-USB_DP)*%
X17915000Y-8765000D02*
X18842599Y-8765000D01*
X18842599Y-8765000D02*
X19987599Y-9910000D01*
X19987599Y-9910000D02*
X22815001Y-9910000D01*
X22815001Y-9910000D02*
X23125000Y-9600001D01*
%TO.N,Net-(U1-USB_DM)*%
X17915000Y-9165000D02*
X18825832Y-9165000D01*
X18825832Y-9165000D02*
X20260832Y-10600000D01*
X20260832Y-10600000D02*
X23125000Y-10600000D01*
D33*
%TO.N,+3V3*%
X17915000Y-7965000D02*
X17915000Y-8365000D01*
%TO.N,Net-(U1-GPIO26_ADC0)*%
X15365000Y-11315000D02*
X15365000Y-12079000D01*
X15365000Y-12079000D02*
X13599000Y-13845000D01*
%TO.N,Net-(U1-GPIO27_ADC1)*%
X15765000Y-11315000D02*
X15765000Y-12740000D01*
X15765000Y-12740000D02*
X14660000Y-13845000D01*
%TO.N,Net-(U1-GPIO28_ADC2)*%
X16165000Y-11315000D02*
X16165000Y-13401000D01*
X16165000Y-13401000D02*
X15721000Y-13845000D01*
%TO.N,Net-(U1-GPIO29_ADC3)*%
X16565000Y-11315000D02*
X16565000Y-13628000D01*
X16565000Y-13628000D02*
X16782000Y-13845000D01*
%TO.N,+3V3*%
X16965000Y-11315000D02*
X16965000Y-13007000D01*
X16965000Y-13007000D02*
X17833000Y-13875000D01*
X17915000Y-10365000D02*
X17915000Y-11825000D01*
%TD*%
%TA.AperFunction,Conductor*%
%TO.N,GND*%
G36*
X5500900Y-3268752D02*
G01*
X8702430Y-6470282D01*
X8711928Y-6483666D01*
X8713113Y-6486126D01*
X8736447Y-6504735D01*
X8740544Y-6508396D01*
X8746165Y-6514017D01*
X8752903Y-6518251D01*
X8757377Y-6521426D01*
X8779827Y-6539329D01*
X8780709Y-6540032D01*
X8783362Y-6540637D01*
X8798532Y-6546921D01*
X8799705Y-6547657D01*
X8800837Y-6548369D01*
X8830499Y-6551710D01*
X8835907Y-6552630D01*
X8839456Y-6553440D01*
X8843658Y-6554400D01*
X8843659Y-6554400D01*
X8851606Y-6554400D01*
X8857092Y-6554708D01*
X8886751Y-6558050D01*
X8889323Y-6557149D01*
X8905507Y-6554400D01*
X10069432Y-6554400D01*
X10104080Y-6568752D01*
X10110172Y-6576175D01*
X10127657Y-6602343D01*
X10190671Y-6644447D01*
X10199665Y-6646236D01*
X10246235Y-6655500D01*
X10246238Y-6655500D01*
X11383765Y-6655500D01*
X11417102Y-6648868D01*
X11439329Y-6644447D01*
X11502343Y-6602343D01*
X11544447Y-6539329D01*
X11550600Y-6508396D01*
X11555500Y-6483764D01*
X11555500Y-6246235D01*
X11542546Y-6181111D01*
X11543245Y-6180971D01*
X11538167Y-6155441D01*
X11544084Y-6141156D01*
X11555500Y-6083764D01*
X11555500Y-5846235D01*
X11542546Y-5781111D01*
X11543245Y-5780971D01*
X11538167Y-5755441D01*
X11544084Y-5741156D01*
X11555500Y-5683764D01*
X11555500Y-5446235D01*
X11542546Y-5381111D01*
X11543245Y-5380971D01*
X11538167Y-5355441D01*
X11544084Y-5341156D01*
X11555500Y-5283764D01*
X11555500Y-5046236D01*
X11547276Y-5004894D01*
X11554592Y-4968111D01*
X11585774Y-4947276D01*
X11604893Y-4947276D01*
X11621967Y-4950672D01*
X11646237Y-4955500D01*
X11646238Y-4955500D01*
X11883765Y-4955500D01*
X11948889Y-4942546D01*
X11949028Y-4943245D01*
X11974559Y-4938167D01*
X11988843Y-4944084D01*
X12046235Y-4955500D01*
X12046238Y-4955500D01*
X12283765Y-4955500D01*
X12348889Y-4942546D01*
X12349028Y-4943245D01*
X12374559Y-4938167D01*
X12388843Y-4944084D01*
X12446235Y-4955500D01*
X12446238Y-4955500D01*
X12683765Y-4955500D01*
X12748889Y-4942546D01*
X12749028Y-4943245D01*
X12774559Y-4938167D01*
X12788843Y-4944084D01*
X12846235Y-4955500D01*
X12846238Y-4955500D01*
X13083765Y-4955500D01*
X13148889Y-4942546D01*
X13149028Y-4943245D01*
X13174559Y-4938167D01*
X13188843Y-4944084D01*
X13246235Y-4955500D01*
X13246238Y-4955500D01*
X13483765Y-4955500D01*
X13548889Y-4942546D01*
X13549028Y-4943245D01*
X13574559Y-4938167D01*
X13588843Y-4944084D01*
X13646235Y-4955500D01*
X13646238Y-4955500D01*
X13883765Y-4955500D01*
X13948889Y-4942546D01*
X13949028Y-4943245D01*
X13974559Y-4938167D01*
X13988843Y-4944084D01*
X14046235Y-4955500D01*
X14046238Y-4955500D01*
X14283765Y-4955500D01*
X14348889Y-4942546D01*
X14349028Y-4943245D01*
X14374559Y-4938167D01*
X14388843Y-4944084D01*
X14446235Y-4955500D01*
X14446238Y-4955500D01*
X14683765Y-4955500D01*
X14748889Y-4942546D01*
X14749028Y-4943245D01*
X14774559Y-4938167D01*
X14788843Y-4944084D01*
X14846235Y-4955500D01*
X14846238Y-4955500D01*
X15083765Y-4955500D01*
X15148889Y-4942546D01*
X15149028Y-4943245D01*
X15174559Y-4938167D01*
X15188843Y-4944084D01*
X15246235Y-4955500D01*
X15246238Y-4955500D01*
X15483765Y-4955500D01*
X15548889Y-4942546D01*
X15549028Y-4943245D01*
X15574559Y-4938167D01*
X15588843Y-4944084D01*
X15646235Y-4955500D01*
X15646238Y-4955500D01*
X15883765Y-4955500D01*
X15948889Y-4942546D01*
X15949028Y-4943245D01*
X15974559Y-4938167D01*
X15988843Y-4944084D01*
X16046235Y-4955500D01*
X16046238Y-4955500D01*
X16283765Y-4955500D01*
X16348889Y-4942546D01*
X16349028Y-4943245D01*
X16374559Y-4938167D01*
X16388843Y-4944084D01*
X16446235Y-4955500D01*
X16446238Y-4955500D01*
X16683765Y-4955500D01*
X16748889Y-4942546D01*
X16749028Y-4943245D01*
X16774559Y-4938167D01*
X16788843Y-4944084D01*
X16846235Y-4955500D01*
X16846238Y-4955500D01*
X17083763Y-4955500D01*
X17099054Y-4952458D01*
X17125105Y-4947276D01*
X17161887Y-4954592D01*
X17182723Y-4985774D01*
X17182724Y-5004893D01*
X17174501Y-5046236D01*
X17174500Y-5046240D01*
X17174500Y-5283763D01*
X17187454Y-5348887D01*
X17186754Y-5349026D01*
X17191832Y-5374562D01*
X17185916Y-5388844D01*
X17174500Y-5446236D01*
X17174500Y-5683763D01*
X17187454Y-5748887D01*
X17186754Y-5749026D01*
X17191832Y-5774562D01*
X17185916Y-5788844D01*
X17174500Y-5846236D01*
X17174500Y-6083763D01*
X17187454Y-6148887D01*
X17186754Y-6149026D01*
X17191832Y-6174562D01*
X17185916Y-6188844D01*
X17174500Y-6246236D01*
X17174500Y-6483763D01*
X17187454Y-6548887D01*
X17186754Y-6549026D01*
X17191832Y-6574562D01*
X17185916Y-6588844D01*
X17174500Y-6646236D01*
X17174500Y-6883763D01*
X17187454Y-6948887D01*
X17186754Y-6949026D01*
X17191832Y-6974562D01*
X17185916Y-6988844D01*
X17174500Y-7046236D01*
X17174500Y-7283763D01*
X17187454Y-7348887D01*
X17186754Y-7349026D01*
X17191832Y-7374562D01*
X17185916Y-7388844D01*
X17174500Y-7446236D01*
X17174500Y-7683763D01*
X17187454Y-7748887D01*
X17186754Y-7749026D01*
X17191832Y-7774562D01*
X17185916Y-7788844D01*
X17174500Y-7846236D01*
X17174500Y-8083763D01*
X17187454Y-8148887D01*
X17186754Y-8149026D01*
X17191832Y-8174562D01*
X17185916Y-8188844D01*
X17174500Y-8246236D01*
X17174500Y-8483763D01*
X17187454Y-8548887D01*
X17186754Y-8549026D01*
X17191832Y-8574562D01*
X17185916Y-8588844D01*
X17174500Y-8646236D01*
X17174500Y-8883763D01*
X17187454Y-8948887D01*
X17186754Y-8949026D01*
X17191832Y-8974562D01*
X17185916Y-8988844D01*
X17174500Y-9046236D01*
X17174500Y-9283763D01*
X17187454Y-9348887D01*
X17186754Y-9349026D01*
X17191832Y-9374562D01*
X17185916Y-9388844D01*
X17174500Y-9446236D01*
X17174500Y-9683763D01*
X17187454Y-9748887D01*
X17186754Y-9749026D01*
X17191832Y-9774562D01*
X17185916Y-9788844D01*
X17174500Y-9846236D01*
X17174500Y-10083763D01*
X17187454Y-10148887D01*
X17186754Y-10149026D01*
X17191832Y-10174562D01*
X17185916Y-10188844D01*
X17174500Y-10246236D01*
X17174500Y-10246238D01*
X17174500Y-10483762D01*
X17182724Y-10525105D01*
X17182724Y-10525106D01*
X17175407Y-10561888D01*
X17144224Y-10582724D01*
X17125107Y-10582724D01*
X17083762Y-10574500D01*
X16846238Y-10574500D01*
X16846236Y-10574500D01*
X16781113Y-10587454D01*
X16780973Y-10586754D01*
X16755438Y-10591832D01*
X16741155Y-10585916D01*
X16683764Y-10574500D01*
X16683762Y-10574500D01*
X16446238Y-10574500D01*
X16446236Y-10574500D01*
X16381113Y-10587454D01*
X16380973Y-10586754D01*
X16355438Y-10591832D01*
X16341155Y-10585916D01*
X16283764Y-10574500D01*
X16283762Y-10574500D01*
X16046238Y-10574500D01*
X16046236Y-10574500D01*
X15981113Y-10587454D01*
X15980973Y-10586754D01*
X15955438Y-10591832D01*
X15941155Y-10585916D01*
X15883764Y-10574500D01*
X15883762Y-10574500D01*
X15646238Y-10574500D01*
X15646236Y-10574500D01*
X15581113Y-10587454D01*
X15580973Y-10586754D01*
X15555438Y-10591832D01*
X15541155Y-10585916D01*
X15483764Y-10574500D01*
X15483762Y-10574500D01*
X15246238Y-10574500D01*
X15246236Y-10574500D01*
X15181113Y-10587454D01*
X15180973Y-10586754D01*
X15155438Y-10591832D01*
X15141155Y-10585916D01*
X15083764Y-10574500D01*
X15083762Y-10574500D01*
X14846238Y-10574500D01*
X14846236Y-10574500D01*
X14781113Y-10587454D01*
X14780973Y-10586754D01*
X14755438Y-10591832D01*
X14741155Y-10585916D01*
X14683764Y-10574500D01*
X14683762Y-10574500D01*
X14446238Y-10574500D01*
X14446236Y-10574500D01*
X14381113Y-10587454D01*
X14380973Y-10586754D01*
X14355438Y-10591832D01*
X14341155Y-10585916D01*
X14283764Y-10574500D01*
X14283762Y-10574500D01*
X14046238Y-10574500D01*
X14046236Y-10574500D01*
X13981113Y-10587454D01*
X13980973Y-10586754D01*
X13955438Y-10591832D01*
X13941155Y-10585916D01*
X13883764Y-10574500D01*
X13883762Y-10574500D01*
X13646238Y-10574500D01*
X13646236Y-10574500D01*
X13581113Y-10587454D01*
X13580973Y-10586754D01*
X13555438Y-10591832D01*
X13541155Y-10585916D01*
X13483764Y-10574500D01*
X13483762Y-10574500D01*
X13246238Y-10574500D01*
X13246236Y-10574500D01*
X13181113Y-10587454D01*
X13180973Y-10586754D01*
X13155438Y-10591832D01*
X13141155Y-10585916D01*
X13083764Y-10574500D01*
X13083762Y-10574500D01*
X12846238Y-10574500D01*
X12846236Y-10574500D01*
X12781113Y-10587454D01*
X12780973Y-10586754D01*
X12755438Y-10591832D01*
X12741155Y-10585916D01*
X12683764Y-10574500D01*
X12683762Y-10574500D01*
X12446238Y-10574500D01*
X12446236Y-10574500D01*
X12381113Y-10587454D01*
X12380973Y-10586754D01*
X12355438Y-10591832D01*
X12341155Y-10585916D01*
X12283764Y-10574500D01*
X12283762Y-10574500D01*
X12046238Y-10574500D01*
X12046236Y-10574500D01*
X11981113Y-10587454D01*
X11980973Y-10586754D01*
X11955438Y-10591832D01*
X11941155Y-10585916D01*
X11883764Y-10574500D01*
X11883762Y-10574500D01*
X11646238Y-10574500D01*
X11604893Y-10582724D01*
X11568111Y-10575407D01*
X11547275Y-10544224D01*
X11547276Y-10525105D01*
X11550488Y-10508961D01*
X11555500Y-10483762D01*
X11555500Y-10246238D01*
X11555500Y-10246236D01*
X11555500Y-10246235D01*
X11542546Y-10181111D01*
X11543245Y-10180971D01*
X11538167Y-10155441D01*
X11544084Y-10141156D01*
X11555500Y-10083764D01*
X11555500Y-9846235D01*
X11542546Y-9781111D01*
X11543245Y-9780971D01*
X11538167Y-9755441D01*
X11544084Y-9741156D01*
X11555500Y-9683764D01*
X11555500Y-9446235D01*
X11542546Y-9381111D01*
X11543245Y-9380971D01*
X11538167Y-9355441D01*
X11544084Y-9341156D01*
X11555500Y-9283764D01*
X11555500Y-9046235D01*
X11542546Y-8981111D01*
X11543245Y-8980971D01*
X11538167Y-8955441D01*
X11544084Y-8941156D01*
X11555500Y-8883764D01*
X11555500Y-8646235D01*
X11542546Y-8581111D01*
X11543245Y-8580971D01*
X11538167Y-8555441D01*
X11544084Y-8541156D01*
X11555500Y-8483764D01*
X11555500Y-8246235D01*
X11542546Y-8181111D01*
X11543245Y-8180971D01*
X11538167Y-8155441D01*
X11544084Y-8141156D01*
X11555500Y-8083764D01*
X11555500Y-7846235D01*
X11542546Y-7781111D01*
X11543245Y-7780971D01*
X11538167Y-7755441D01*
X11544084Y-7741156D01*
X11555500Y-7683764D01*
X11555500Y-7446235D01*
X11542546Y-7381111D01*
X11543245Y-7380971D01*
X11538167Y-7355441D01*
X11544084Y-7341156D01*
X11555500Y-7283764D01*
X11555500Y-7046235D01*
X11544447Y-6990672D01*
X11544447Y-6990671D01*
X11502343Y-6927657D01*
X11439329Y-6885553D01*
X11439328Y-6885552D01*
X11439327Y-6885552D01*
X11383765Y-6874500D01*
X11383762Y-6874500D01*
X10246238Y-6874500D01*
X10246235Y-6874500D01*
X10190672Y-6885552D01*
X10127657Y-6927657D01*
X10080138Y-6998775D01*
X10078674Y-6997797D01*
X10065616Y-7017341D01*
X10038392Y-7025600D01*
X7320622Y-7025600D01*
X7320614Y-7025601D01*
X7307647Y-7025601D01*
X7296776Y-7031876D01*
X7284967Y-7036768D01*
X7272842Y-7040017D01*
X7272839Y-7040019D01*
X7253787Y-7059069D01*
X7253782Y-7059077D01*
X6881611Y-7431248D01*
X6846963Y-7445600D01*
X5428037Y-7445600D01*
X5393389Y-7431248D01*
X5154852Y-7192711D01*
X5140500Y-7158063D01*
X5140500Y-5761235D01*
X5131107Y-5714016D01*
X5129447Y-5705671D01*
X5087343Y-5642657D01*
X5024329Y-5600553D01*
X5024328Y-5600552D01*
X5023542Y-5600396D01*
X4992360Y-5579560D01*
X4985045Y-5542777D01*
X5005881Y-5511595D01*
X5012395Y-5507929D01*
X5060984Y-5485272D01*
X5072491Y-5479906D01*
X5154906Y-5397491D01*
X5204163Y-5291859D01*
X5210500Y-5243724D01*
X5210500Y-4826276D01*
X5204163Y-4778141D01*
X5154906Y-4672509D01*
X5154906Y-4672508D01*
X5072491Y-4590093D01*
X4966860Y-4540837D01*
X4920308Y-4534708D01*
X4920299Y-4534707D01*
X4918724Y-4534500D01*
X4561276Y-4534500D01*
X4559701Y-4534707D01*
X4559691Y-4534708D01*
X4513139Y-4540837D01*
X4407508Y-4590093D01*
X4325093Y-4672508D01*
X4275837Y-4778139D01*
X4269708Y-4824691D01*
X4269707Y-4824701D01*
X4269500Y-4826276D01*
X4269500Y-5243724D01*
X4269707Y-5245297D01*
X4269708Y-5245311D01*
X4273865Y-5276882D01*
X4264158Y-5313107D01*
X4259933Y-5317924D01*
X4238454Y-5339404D01*
X4238453Y-5339406D01*
X4225020Y-5352839D01*
X4225016Y-5352846D01*
X4221768Y-5364966D01*
X4216876Y-5376777D01*
X4210600Y-5387647D01*
X4210600Y-5540500D01*
X4196248Y-5575148D01*
X4161600Y-5589500D01*
X3731235Y-5589500D01*
X3675672Y-5600552D01*
X3612657Y-5642657D01*
X3570552Y-5705672D01*
X3559500Y-5761235D01*
X3559500Y-7198764D01*
X3570552Y-7254327D01*
X3570552Y-7254328D01*
X3570553Y-7254329D01*
X3612657Y-7317343D01*
X3675671Y-7359447D01*
X3689562Y-7362210D01*
X3731235Y-7370500D01*
X3731238Y-7370500D01*
X4918063Y-7370500D01*
X4952711Y-7384852D01*
X5270024Y-7702166D01*
X5270029Y-7702169D01*
X5277842Y-7709982D01*
X5281121Y-7710860D01*
X5289962Y-7713230D01*
X5301781Y-7718125D01*
X5302867Y-7718752D01*
X5312648Y-7724399D01*
X5323695Y-7724399D01*
X5323701Y-7724400D01*
X5378110Y-7724400D01*
X5412758Y-7738752D01*
X5427110Y-7773400D01*
X5412758Y-7808048D01*
X5405333Y-7814142D01*
X5362657Y-7842657D01*
X5320552Y-7905672D01*
X5309500Y-7961235D01*
X5309500Y-9398764D01*
X5320552Y-9454327D01*
X5320552Y-9454328D01*
X5320553Y-9454329D01*
X5362657Y-9517343D01*
X5425671Y-9559447D01*
X5433081Y-9564398D01*
X5453916Y-9595580D01*
X5446600Y-9632363D01*
X5426566Y-9649549D01*
X5382508Y-9670093D01*
X5300093Y-9752508D01*
X5250837Y-9858139D01*
X5244708Y-9904691D01*
X5244708Y-9904693D01*
X5244500Y-9906276D01*
X5244500Y-10323724D01*
X5244707Y-10325299D01*
X5244708Y-10325308D01*
X5250837Y-10371860D01*
X5300093Y-10477491D01*
X5349554Y-10526952D01*
X5363906Y-10561600D01*
X5349554Y-10596248D01*
X5314906Y-10610600D01*
X4240508Y-10610600D01*
X4224324Y-10607850D01*
X4221752Y-10606950D01*
X4192093Y-10610292D01*
X4186607Y-10610600D01*
X4178658Y-10610600D01*
X4170904Y-10612369D01*
X4165494Y-10613288D01*
X4135836Y-10616630D01*
X4133526Y-10618082D01*
X4118368Y-10624360D01*
X4115709Y-10624966D01*
X4092371Y-10643577D01*
X4087895Y-10646753D01*
X4081165Y-10650982D01*
X4075535Y-10656611D01*
X4071445Y-10660265D01*
X4048112Y-10678873D01*
X4046928Y-10681333D01*
X4037431Y-10694715D01*
X3686714Y-11045432D01*
X3673332Y-11054929D01*
X3670872Y-11056113D01*
X3652264Y-11079446D01*
X3648610Y-11083536D01*
X3642983Y-11089164D01*
X3638749Y-11095902D01*
X3635575Y-11100374D01*
X3627974Y-11109906D01*
X3616965Y-11123712D01*
X3616359Y-11126369D01*
X3610082Y-11141526D01*
X3608630Y-11143836D01*
X3605287Y-11173494D01*
X3604369Y-11178898D01*
X3602599Y-11186659D01*
X3602599Y-11194612D01*
X3602291Y-11200098D01*
X3598950Y-11229751D01*
X3599849Y-11232320D01*
X3602599Y-11248505D01*
X3602599Y-12125343D01*
X3616965Y-12188289D01*
X3677847Y-12264632D01*
X3676304Y-12265861D01*
X3689749Y-12280903D01*
X3692500Y-12297090D01*
X3692500Y-12503868D01*
X3698509Y-12539877D01*
X3707811Y-12595624D01*
X3754481Y-12681862D01*
X3766980Y-12704958D01*
X3858444Y-12789157D01*
X3884831Y-12800731D01*
X3910796Y-12827792D01*
X3910021Y-12865287D01*
X3887394Y-12889263D01*
X3827729Y-12919664D01*
X3734664Y-13012729D01*
X3674910Y-13130001D01*
X3654320Y-13260000D01*
X3674910Y-13389998D01*
X3716221Y-13471073D01*
X3734664Y-13507269D01*
X3792448Y-13565053D01*
X3806800Y-13599701D01*
X3806800Y-13745445D01*
X3796468Y-13775541D01*
X3732866Y-13857257D01*
X3692500Y-13974840D01*
X3692500Y-14550351D01*
X3678148Y-14584999D01*
X3284215Y-14978931D01*
X3270833Y-14988428D01*
X3268373Y-14989612D01*
X3249765Y-15012945D01*
X3246111Y-15017035D01*
X3240484Y-15022663D01*
X3236250Y-15029401D01*
X3233076Y-15033873D01*
X3230952Y-15036538D01*
X3214466Y-15057211D01*
X3213860Y-15059868D01*
X3207583Y-15075025D01*
X3206131Y-15077335D01*
X3202788Y-15106993D01*
X3201870Y-15112397D01*
X3200100Y-15120158D01*
X3200100Y-15128111D01*
X3199792Y-15133597D01*
X3196451Y-15163250D01*
X3197350Y-15165819D01*
X3200100Y-15182004D01*
X3200100Y-16169494D01*
X3197351Y-16185676D01*
X3196451Y-16188248D01*
X3199792Y-16217901D01*
X3200100Y-16223387D01*
X3200100Y-16231340D01*
X3201868Y-16239089D01*
X3202788Y-16244502D01*
X3206131Y-16274164D01*
X3207581Y-16276471D01*
X3213861Y-16291632D01*
X3214468Y-16294291D01*
X3231808Y-16316035D01*
X3233072Y-16317620D01*
X3236250Y-16322100D01*
X3240482Y-16328835D01*
X3246102Y-16334455D01*
X3249763Y-16338551D01*
X3261381Y-16353118D01*
X3268374Y-16361887D01*
X3270831Y-16363070D01*
X3284216Y-16372568D01*
X3384648Y-16473000D01*
X3399000Y-16507648D01*
X3399000Y-16828764D01*
X3410052Y-16884327D01*
X3452157Y-16947343D01*
X3484955Y-16969258D01*
X3505791Y-17000441D01*
X3498474Y-17037223D01*
X3484955Y-17050742D01*
X3452157Y-17072656D01*
X3410052Y-17135672D01*
X3399000Y-17191235D01*
X3399000Y-17628764D01*
X3410052Y-17684327D01*
X3410052Y-17684328D01*
X3410053Y-17684329D01*
X3452157Y-17747343D01*
X3515171Y-17789447D01*
X3529062Y-17792210D01*
X3570735Y-17800500D01*
X3570738Y-17800500D01*
X4753265Y-17800500D01*
X4786602Y-17793868D01*
X4808829Y-17789447D01*
X4871843Y-17747343D01*
X4913947Y-17684329D01*
X4925000Y-17628764D01*
X5095000Y-17628764D01*
X5106052Y-17684327D01*
X5106052Y-17684328D01*
X5106053Y-17684329D01*
X5148157Y-17747343D01*
X5211171Y-17789447D01*
X5225062Y-17792210D01*
X5266735Y-17800500D01*
X5266738Y-17800500D01*
X6449265Y-17800500D01*
X6482602Y-17793868D01*
X6504829Y-17789447D01*
X6567843Y-17747343D01*
X6609947Y-17684329D01*
X6621000Y-17628762D01*
X6621000Y-17191238D01*
X6621000Y-17191237D01*
X6621000Y-17191235D01*
X6609947Y-17135672D01*
X6609947Y-17135671D01*
X6567843Y-17072657D01*
X6504829Y-17030553D01*
X6504828Y-17030552D01*
X6504827Y-17030552D01*
X6449265Y-17019500D01*
X6449262Y-17019500D01*
X5266738Y-17019500D01*
X5266735Y-17019500D01*
X5211172Y-17030552D01*
X5148157Y-17072657D01*
X5106052Y-17135672D01*
X5095000Y-17191235D01*
X5095000Y-17628764D01*
X4925000Y-17628764D01*
X4925000Y-17628762D01*
X4925000Y-17191238D01*
X4925000Y-17191237D01*
X4925000Y-17191235D01*
X4913947Y-17135672D01*
X4913947Y-17135671D01*
X4871843Y-17072657D01*
X4839043Y-17050741D01*
X4818209Y-17019560D01*
X4825525Y-16982777D01*
X4839044Y-16969258D01*
X4871843Y-16947343D01*
X4913947Y-16884329D01*
X4925000Y-16828762D01*
X4925000Y-16391238D01*
X4925000Y-16391237D01*
X4925000Y-16391235D01*
X4914520Y-16338551D01*
X4913947Y-16335671D01*
X4871843Y-16272657D01*
X4839043Y-16250741D01*
X4818209Y-16219560D01*
X4825525Y-16182777D01*
X4839044Y-16169258D01*
X4871843Y-16147343D01*
X4913947Y-16084329D01*
X4925000Y-16028762D01*
X4925000Y-15591238D01*
X4925000Y-15591237D01*
X4925000Y-15591235D01*
X4914654Y-15539226D01*
X4913947Y-15535671D01*
X4871843Y-15472657D01*
X4816365Y-15435588D01*
X4795531Y-15404407D01*
X4802847Y-15367624D01*
X4808937Y-15360203D01*
X4826546Y-15342595D01*
X4826546Y-15342593D01*
X4830578Y-15338562D01*
X4830579Y-15338559D01*
X4839982Y-15329158D01*
X4843230Y-15317034D01*
X4848127Y-15305214D01*
X4850362Y-15301343D01*
X4854399Y-15294352D01*
X4854399Y-15281059D01*
X4854400Y-15281050D01*
X4854400Y-15275396D01*
X4855390Y-15273004D01*
X4855862Y-15269175D01*
X4855863Y-15269171D01*
X4856873Y-15269423D01*
X4868752Y-15240748D01*
X4876596Y-15234378D01*
X4937058Y-15194875D01*
X4970775Y-15172848D01*
X4970776Y-15172847D01*
X4999047Y-15136523D01*
X5031653Y-15117995D01*
X5067810Y-15127950D01*
X5070895Y-15130562D01*
X5158444Y-15211157D01*
X5196283Y-15227754D01*
X5222248Y-15254815D01*
X5225600Y-15272627D01*
X5225600Y-15343299D01*
X5225601Y-15343304D01*
X5225601Y-15354353D01*
X5230384Y-15362637D01*
X5235279Y-15399819D01*
X5215172Y-15427879D01*
X5148157Y-15472656D01*
X5106052Y-15535672D01*
X5095000Y-15591235D01*
X5095000Y-16028764D01*
X5106052Y-16084327D01*
X5106052Y-16084328D01*
X5106053Y-16084329D01*
X5148157Y-16147343D01*
X5211171Y-16189447D01*
X5225062Y-16192210D01*
X5266735Y-16200500D01*
X5266738Y-16200500D01*
X6449265Y-16200500D01*
X6482602Y-16193868D01*
X6504829Y-16189447D01*
X6567843Y-16147343D01*
X6609947Y-16084329D01*
X6621000Y-16028762D01*
X6621000Y-15591238D01*
X6621000Y-15591237D01*
X6621000Y-15591235D01*
X6610654Y-15539226D01*
X6609947Y-15535671D01*
X6567843Y-15472657D01*
X6504829Y-15430553D01*
X6504828Y-15430552D01*
X6504827Y-15430552D01*
X6449265Y-15419500D01*
X6449262Y-15419500D01*
X5684937Y-15419500D01*
X5650289Y-15405148D01*
X5540788Y-15295647D01*
X5526436Y-15260999D01*
X5540788Y-15226351D01*
X5548631Y-15219981D01*
X5608658Y-15180764D01*
X5620775Y-15172848D01*
X5620776Y-15172847D01*
X5649047Y-15136523D01*
X5681653Y-15117995D01*
X5717810Y-15127950D01*
X5720895Y-15130562D01*
X5808444Y-15211157D01*
X5922292Y-15261095D01*
X6046186Y-15271361D01*
X6166701Y-15240843D01*
X6270776Y-15172847D01*
X6347134Y-15074742D01*
X6347134Y-15074740D01*
X6347833Y-15073843D01*
X6380440Y-15055315D01*
X6416597Y-15065271D01*
X6421149Y-15069291D01*
X6780148Y-15428290D01*
X6794500Y-15462938D01*
X6794500Y-15711536D01*
X6794500Y-15711551D01*
X6794501Y-15713138D01*
X6794709Y-15714724D01*
X6794710Y-15714727D01*
X6800740Y-15760546D01*
X6849252Y-15864579D01*
X6930420Y-15945747D01*
X6993688Y-15975249D01*
X7034455Y-15994259D01*
X7081861Y-16000500D01*
X7528138Y-16000499D01*
X7569377Y-15995070D01*
X7575546Y-15994259D01*
X7679579Y-15945747D01*
X7760747Y-15864579D01*
X7780349Y-15822542D01*
X7809259Y-15760545D01*
X7814332Y-15722004D01*
X7833085Y-15689525D01*
X7862914Y-15679400D01*
X11299378Y-15679400D01*
X11299386Y-15679399D01*
X11312352Y-15679399D01*
X11323215Y-15673126D01*
X11335031Y-15668230D01*
X11347158Y-15664982D01*
X11354973Y-15657167D01*
X11354976Y-15657165D01*
X11613940Y-15398201D01*
X11876546Y-15135595D01*
X11876546Y-15135593D01*
X11880578Y-15131562D01*
X11880579Y-15131559D01*
X11889982Y-15122158D01*
X11893230Y-15110034D01*
X11898127Y-15098214D01*
X11898612Y-15097374D01*
X11904399Y-15087352D01*
X11904399Y-15074059D01*
X11904400Y-15074050D01*
X11904400Y-12091608D01*
X11918752Y-12056960D01*
X11931437Y-12050179D01*
X11931225Y-12049862D01*
X11937777Y-12045484D01*
X11941671Y-12044709D01*
X11943842Y-12043549D01*
X11948890Y-12042545D01*
X11949029Y-12043245D01*
X11974559Y-12038167D01*
X11988843Y-12044084D01*
X12046235Y-12055500D01*
X12046238Y-12055500D01*
X12283765Y-12055500D01*
X12348889Y-12042546D01*
X12349028Y-12043245D01*
X12374559Y-12038167D01*
X12388843Y-12044084D01*
X12446235Y-12055500D01*
X12446238Y-12055500D01*
X12683765Y-12055500D01*
X12748889Y-12042546D01*
X12749028Y-12043245D01*
X12774559Y-12038167D01*
X12788843Y-12044084D01*
X12846235Y-12055500D01*
X12846238Y-12055500D01*
X13083762Y-12055500D01*
X13117040Y-12048880D01*
X13153822Y-12056195D01*
X13174658Y-12087377D01*
X13175600Y-12096938D01*
X13175600Y-12355150D01*
X13161248Y-12389798D01*
X13148846Y-12398809D01*
X13117729Y-12414664D01*
X13024664Y-12507729D01*
X12964910Y-12625001D01*
X12944320Y-12755000D01*
X12964910Y-12884998D01*
X13024664Y-13002270D01*
X13054122Y-13031728D01*
X13068474Y-13066376D01*
X13054122Y-13101024D01*
X12765000Y-13390148D01*
X12730352Y-13404500D01*
X12339276Y-13404500D01*
X12337701Y-13404707D01*
X12337691Y-13404708D01*
X12291139Y-13410837D01*
X12185508Y-13460093D01*
X12103093Y-13542508D01*
X12053837Y-13648139D01*
X12047708Y-13694691D01*
X12047707Y-13694701D01*
X12047500Y-13696276D01*
X12047500Y-14053724D01*
X12047707Y-14055299D01*
X12047708Y-14055308D01*
X12053837Y-14101860D01*
X12103093Y-14207491D01*
X12185508Y-14289906D01*
X12260033Y-14324657D01*
X12291141Y-14339163D01*
X12339276Y-14345500D01*
X12340876Y-14345500D01*
X12755124Y-14345500D01*
X12756724Y-14345500D01*
X12804859Y-14339163D01*
X12910491Y-14289906D01*
X12992906Y-14207491D01*
X13032509Y-14122560D01*
X13060159Y-14097224D01*
X13097626Y-14098860D01*
X13121327Y-14122560D01*
X13143253Y-14169580D01*
X13224420Y-14250747D01*
X13275891Y-14274748D01*
X13328455Y-14299259D01*
X13375861Y-14305500D01*
X13822138Y-14305499D01*
X13863377Y-14300070D01*
X13869546Y-14299259D01*
X13973579Y-14250747D01*
X14054747Y-14169579D01*
X14065360Y-14146819D01*
X14085091Y-14104505D01*
X14112739Y-14079170D01*
X14150207Y-14080806D01*
X14173908Y-14104506D01*
X14204253Y-14169580D01*
X14285420Y-14250747D01*
X14336891Y-14274748D01*
X14389455Y-14299259D01*
X14436861Y-14305500D01*
X14883138Y-14305499D01*
X14924377Y-14300070D01*
X14930546Y-14299259D01*
X15034579Y-14250747D01*
X15115747Y-14169579D01*
X15126360Y-14146819D01*
X15146091Y-14104505D01*
X15173739Y-14079170D01*
X15211207Y-14080806D01*
X15234908Y-14104506D01*
X15265253Y-14169580D01*
X15346420Y-14250747D01*
X15397891Y-14274748D01*
X15450455Y-14299259D01*
X15497861Y-14305500D01*
X15944138Y-14305499D01*
X15985377Y-14300070D01*
X15991546Y-14299259D01*
X16095579Y-14250747D01*
X16176747Y-14169579D01*
X16187360Y-14146819D01*
X16207091Y-14104505D01*
X16234739Y-14079170D01*
X16272207Y-14080806D01*
X16295908Y-14104506D01*
X16326253Y-14169580D01*
X16407420Y-14250747D01*
X16458891Y-14274748D01*
X16511455Y-14299259D01*
X16558861Y-14305500D01*
X17005138Y-14305499D01*
X17046377Y-14300070D01*
X17052546Y-14299259D01*
X17156579Y-14250747D01*
X17237747Y-14169579D01*
X17248360Y-14146819D01*
X17259672Y-14122559D01*
X17287321Y-14097223D01*
X17324789Y-14098859D01*
X17348490Y-14122560D01*
X17388093Y-14207491D01*
X17470508Y-14289906D01*
X17545033Y-14324657D01*
X17576141Y-14339163D01*
X17624276Y-14345500D01*
X17973464Y-14345500D01*
X18008112Y-14359852D01*
X18781248Y-15132988D01*
X18795600Y-15167635D01*
X18795600Y-16465150D01*
X18781248Y-16499798D01*
X18768846Y-16508809D01*
X18737729Y-16524664D01*
X18644664Y-16617729D01*
X18584910Y-16735001D01*
X18564320Y-16865000D01*
X18584910Y-16994998D01*
X18644664Y-17112270D01*
X18737729Y-17205335D01*
X18737731Y-17205336D01*
X18855003Y-17265090D01*
X18985000Y-17285679D01*
X19092274Y-17268688D01*
X19128738Y-17277443D01*
X19134585Y-17282437D01*
X19222430Y-17370282D01*
X19231928Y-17383666D01*
X19233113Y-17386126D01*
X19256447Y-17404735D01*
X19260544Y-17408396D01*
X19266164Y-17414016D01*
X19269408Y-17416054D01*
X19272897Y-17418247D01*
X19277375Y-17421424D01*
X19300709Y-17440032D01*
X19303366Y-17440638D01*
X19318531Y-17446921D01*
X19320835Y-17448369D01*
X19326255Y-17448979D01*
X19350492Y-17451710D01*
X19355903Y-17452630D01*
X19363658Y-17454400D01*
X19363659Y-17454400D01*
X19371612Y-17454400D01*
X19377097Y-17454707D01*
X19406751Y-17458049D01*
X19409321Y-17457149D01*
X19425504Y-17454400D01*
X21537933Y-17454400D01*
X21572581Y-17468752D01*
X21580987Y-17485798D01*
X21582649Y-17485024D01*
X21635093Y-17597491D01*
X21717508Y-17679906D01*
X21802048Y-17719327D01*
X21823141Y-17729163D01*
X21871276Y-17735500D01*
X21872876Y-17735500D01*
X22287124Y-17735500D01*
X22288724Y-17735500D01*
X22336859Y-17729163D01*
X22442491Y-17679906D01*
X22524906Y-17597491D01*
X22524905Y-17597491D01*
X22577351Y-17485024D01*
X22579755Y-17486145D01*
X22592237Y-17464526D01*
X22622067Y-17454400D01*
X22622500Y-17454400D01*
X22657148Y-17468752D01*
X22671500Y-17503400D01*
X22671500Y-17663764D01*
X22682552Y-17719327D01*
X22682552Y-17719328D01*
X22682553Y-17719329D01*
X22724657Y-17782343D01*
X22787671Y-17824447D01*
X22801562Y-17827210D01*
X22843235Y-17835500D01*
X22843238Y-17835500D01*
X23880765Y-17835500D01*
X23914102Y-17828868D01*
X23936329Y-17824447D01*
X23999343Y-17782343D01*
X24041447Y-17719329D01*
X24052500Y-17663762D01*
X24052500Y-15906238D01*
X24052500Y-15906237D01*
X24052500Y-15906235D01*
X24041447Y-15850672D01*
X24041447Y-15850671D01*
X23999343Y-15787657D01*
X23936329Y-15745553D01*
X23936328Y-15745552D01*
X23936327Y-15745552D01*
X23880765Y-15734500D01*
X23880762Y-15734500D01*
X22843238Y-15734500D01*
X22843235Y-15734500D01*
X22787672Y-15745552D01*
X22724657Y-15787657D01*
X22682552Y-15850672D01*
X22671500Y-15906235D01*
X22671500Y-17026600D01*
X22657148Y-17061248D01*
X22622500Y-17075600D01*
X22622067Y-17075600D01*
X22587419Y-17061248D01*
X22579012Y-17044201D01*
X22577351Y-17044976D01*
X22524906Y-16932508D01*
X22442491Y-16850093D01*
X22336860Y-16800837D01*
X22290308Y-16794708D01*
X22290299Y-16794707D01*
X22288724Y-16794500D01*
X21871276Y-16794500D01*
X21869701Y-16794707D01*
X21869691Y-16794708D01*
X21823139Y-16800837D01*
X21717508Y-16850093D01*
X21635093Y-16932508D01*
X21582649Y-17044976D01*
X21580244Y-17043854D01*
X21567763Y-17065474D01*
X21537933Y-17075600D01*
X19483748Y-17075600D01*
X19449100Y-17061248D01*
X19402437Y-17014585D01*
X19388085Y-16979937D01*
X19388686Y-16972288D01*
X19405679Y-16865000D01*
X19385090Y-16735003D01*
X19325336Y-16617731D01*
X19325335Y-16617729D01*
X19232270Y-16524664D01*
X19201153Y-16508809D01*
X19176797Y-16480292D01*
X19174399Y-16465150D01*
X19174399Y-15798897D01*
X19174399Y-15109386D01*
X19177148Y-15093212D01*
X19178049Y-15090639D01*
X19174708Y-15060985D01*
X19174400Y-15055499D01*
X19174400Y-15047545D01*
X19172630Y-15039791D01*
X19171710Y-15034380D01*
X19168979Y-15010143D01*
X19168369Y-15004723D01*
X19166921Y-15002419D01*
X19160638Y-14987254D01*
X19160032Y-14984597D01*
X19141424Y-14961263D01*
X19138247Y-14956785D01*
X19134015Y-14950051D01*
X19128396Y-14944432D01*
X19124735Y-14940335D01*
X19106126Y-14917001D01*
X19103666Y-14915816D01*
X19090282Y-14906318D01*
X18338277Y-14154313D01*
X18323925Y-14119665D01*
X18326213Y-14109340D01*
X18326178Y-14109336D01*
X18327162Y-14101860D01*
X18327163Y-14101859D01*
X18333500Y-14053724D01*
X18333500Y-13910000D01*
X18624320Y-13910000D01*
X18644910Y-14039998D01*
X18704664Y-14157270D01*
X18797729Y-14250335D01*
X18845642Y-14274748D01*
X18915003Y-14310090D01*
X19045000Y-14330679D01*
X19056065Y-14328926D01*
X19092532Y-14337679D01*
X19098381Y-14342674D01*
X19128265Y-14372558D01*
X19134359Y-14379983D01*
X19137376Y-14384499D01*
X19146639Y-14398361D01*
X19165012Y-14410637D01*
X19165025Y-14410647D01*
X19169030Y-14413323D01*
X19169031Y-14413324D01*
X19190181Y-14427456D01*
X19235351Y-14457638D01*
X19235353Y-14457639D01*
X19340000Y-14478454D01*
X19361683Y-14474140D01*
X19371242Y-14473200D01*
X19514909Y-14473200D01*
X19549557Y-14487552D01*
X19559318Y-14501492D01*
X19590093Y-14567491D01*
X19672506Y-14649904D01*
X19672507Y-14649904D01*
X19672509Y-14649906D01*
X19708508Y-14666692D01*
X19733845Y-14694341D01*
X19736800Y-14711101D01*
X19736800Y-14748897D01*
X19722448Y-14783545D01*
X19708509Y-14793306D01*
X19672507Y-14810094D01*
X19590093Y-14892508D01*
X19540837Y-14998139D01*
X19534708Y-15044691D01*
X19534707Y-15044701D01*
X19534500Y-15046276D01*
X19534500Y-15463724D01*
X19534707Y-15465299D01*
X19534708Y-15465308D01*
X19540837Y-15511860D01*
X19590093Y-15617491D01*
X19672506Y-15699904D01*
X19672507Y-15699904D01*
X19672509Y-15699906D01*
X19708508Y-15716692D01*
X19733845Y-15744341D01*
X19736800Y-15761101D01*
X19736800Y-15798897D01*
X19722448Y-15833545D01*
X19708509Y-15843306D01*
X19672507Y-15860094D01*
X19590093Y-15942508D01*
X19540837Y-16048139D01*
X19534708Y-16094691D01*
X19534707Y-16094701D01*
X19534500Y-16096276D01*
X19534500Y-16513724D01*
X19534707Y-16515299D01*
X19534708Y-16515308D01*
X19540837Y-16561860D01*
X19590093Y-16667491D01*
X19672508Y-16749906D01*
X19764801Y-16792942D01*
X19778141Y-16799163D01*
X19826276Y-16805500D01*
X19827876Y-16805500D01*
X20182124Y-16805500D01*
X20183724Y-16805500D01*
X20231859Y-16799163D01*
X20337491Y-16749906D01*
X20419906Y-16667491D01*
X20469163Y-16561859D01*
X20475500Y-16513724D01*
X20475500Y-16096276D01*
X20469163Y-16048141D01*
X20446849Y-16000289D01*
X20419906Y-15942508D01*
X20337492Y-15860094D01*
X20301491Y-15843306D01*
X20276155Y-15815655D01*
X20273200Y-15798897D01*
X20273200Y-15761101D01*
X20287552Y-15726453D01*
X20301489Y-15716693D01*
X20337491Y-15699906D01*
X20419906Y-15617491D01*
X20469163Y-15511859D01*
X20475500Y-15463724D01*
X20475500Y-15180764D01*
X21650500Y-15180764D01*
X21661552Y-15236327D01*
X21661552Y-15236328D01*
X21661553Y-15236329D01*
X21703657Y-15299343D01*
X21766671Y-15341447D01*
X21774896Y-15343083D01*
X21822235Y-15352500D01*
X21822238Y-15352500D01*
X22959765Y-15352500D01*
X22993102Y-15345868D01*
X23015329Y-15341447D01*
X23078343Y-15299343D01*
X23120447Y-15236329D01*
X23128066Y-15198028D01*
X23131102Y-15182764D01*
X24238500Y-15182764D01*
X24249552Y-15238327D01*
X24249552Y-15238328D01*
X24249553Y-15238329D01*
X24291657Y-15301343D01*
X24354671Y-15343447D01*
X24368562Y-15346210D01*
X24410235Y-15354500D01*
X24410238Y-15354500D01*
X24595600Y-15354500D01*
X24630248Y-15368852D01*
X24644600Y-15403500D01*
X24644600Y-15685500D01*
X24630248Y-15720148D01*
X24595600Y-15734500D01*
X24499235Y-15734500D01*
X24443672Y-15745552D01*
X24380657Y-15787657D01*
X24338552Y-15850672D01*
X24327500Y-15906235D01*
X24327500Y-17663764D01*
X24338552Y-17719327D01*
X24338552Y-17719328D01*
X24338553Y-17719329D01*
X24380657Y-17782343D01*
X24443671Y-17824447D01*
X24457562Y-17827210D01*
X24499235Y-17835500D01*
X24499238Y-17835500D01*
X25536765Y-17835500D01*
X25570102Y-17828868D01*
X25592329Y-17824447D01*
X25655343Y-17782343D01*
X25697447Y-17719329D01*
X25708500Y-17663762D01*
X25708500Y-15906238D01*
X25708500Y-15906235D01*
X25697447Y-15850672D01*
X25697447Y-15850671D01*
X25655343Y-15787657D01*
X25592329Y-15745553D01*
X25592328Y-15745552D01*
X25592327Y-15745552D01*
X25536765Y-15734500D01*
X25536762Y-15734500D01*
X25372400Y-15734500D01*
X25337752Y-15720148D01*
X25323400Y-15685500D01*
X25323400Y-15403500D01*
X25337752Y-15368852D01*
X25372400Y-15354500D01*
X25547765Y-15354500D01*
X25581102Y-15347868D01*
X25603329Y-15343447D01*
X25666343Y-15301343D01*
X25708447Y-15238329D01*
X25715688Y-15201926D01*
X25719500Y-15182764D01*
X25719500Y-14445235D01*
X25710412Y-14399552D01*
X25708447Y-14389671D01*
X25666343Y-14326657D01*
X25603329Y-14284553D01*
X25603328Y-14284552D01*
X25603327Y-14284552D01*
X25547765Y-14273500D01*
X25547762Y-14273500D01*
X24410238Y-14273500D01*
X24410235Y-14273500D01*
X24354672Y-14284552D01*
X24291657Y-14326657D01*
X24249552Y-14389672D01*
X24238500Y-14445235D01*
X24238500Y-15182764D01*
X23131102Y-15182764D01*
X23131500Y-15180764D01*
X23131500Y-14443235D01*
X23120447Y-14387672D01*
X23120447Y-14387671D01*
X23078343Y-14324657D01*
X23015329Y-14282553D01*
X23015328Y-14282552D01*
X23015327Y-14282552D01*
X22959765Y-14271500D01*
X22959762Y-14271500D01*
X21822238Y-14271500D01*
X21822235Y-14271500D01*
X21766672Y-14282552D01*
X21703657Y-14324657D01*
X21661552Y-14387672D01*
X21650500Y-14443235D01*
X21650500Y-15180764D01*
X20475500Y-15180764D01*
X20475500Y-15046276D01*
X20469163Y-14998141D01*
X20451967Y-14961263D01*
X20419906Y-14892508D01*
X20337492Y-14810094D01*
X20301491Y-14793306D01*
X20276155Y-14765655D01*
X20273200Y-14748897D01*
X20273200Y-14711101D01*
X20287552Y-14676453D01*
X20301489Y-14666693D01*
X20337491Y-14649906D01*
X20419906Y-14567491D01*
X20469163Y-14461859D01*
X20475500Y-14413724D01*
X20475500Y-13996276D01*
X20469163Y-13948141D01*
X20426784Y-13857258D01*
X20416255Y-13834678D01*
X20419339Y-13833239D01*
X20411140Y-13813446D01*
X20425491Y-13778799D01*
X20847739Y-13356552D01*
X20882388Y-13342200D01*
X21639285Y-13342200D01*
X21673933Y-13356552D01*
X21680027Y-13363978D01*
X21684150Y-13370149D01*
X21703657Y-13399343D01*
X21766671Y-13441447D01*
X21780562Y-13444210D01*
X21822235Y-13452500D01*
X21822238Y-13452500D01*
X22959765Y-13452500D01*
X22993102Y-13445868D01*
X23015329Y-13441447D01*
X23078343Y-13399343D01*
X23120447Y-13336329D01*
X23131500Y-13280764D01*
X24238500Y-13280764D01*
X24249552Y-13336327D01*
X24249552Y-13336328D01*
X24249553Y-13336329D01*
X24291657Y-13399343D01*
X24354671Y-13441447D01*
X24368562Y-13444210D01*
X24410235Y-13452500D01*
X24410238Y-13452500D01*
X25547765Y-13452500D01*
X25581102Y-13445868D01*
X25603329Y-13441447D01*
X25666343Y-13399343D01*
X25708447Y-13336329D01*
X25719500Y-13280762D01*
X25719500Y-12543238D01*
X25719500Y-12543237D01*
X25719500Y-12543235D01*
X25708447Y-12487672D01*
X25708447Y-12487671D01*
X25666343Y-12424657D01*
X25603329Y-12382553D01*
X25603328Y-12382552D01*
X25603327Y-12382552D01*
X25547765Y-12371500D01*
X25547762Y-12371500D01*
X24410238Y-12371500D01*
X24410235Y-12371500D01*
X24354672Y-12382552D01*
X24291657Y-12424657D01*
X24249552Y-12487672D01*
X24238500Y-12543235D01*
X24238500Y-13280764D01*
X23131500Y-13280764D01*
X23131500Y-13280762D01*
X23131500Y-12543238D01*
X23131500Y-12543237D01*
X23131500Y-12543235D01*
X23120447Y-12487672D01*
X23120447Y-12487671D01*
X23078343Y-12424657D01*
X23015329Y-12382553D01*
X23015328Y-12382552D01*
X23015327Y-12382552D01*
X22959765Y-12371500D01*
X22959762Y-12371500D01*
X21822238Y-12371500D01*
X21822235Y-12371500D01*
X21766672Y-12382552D01*
X21703657Y-12424657D01*
X21661552Y-12487672D01*
X21650500Y-12543235D01*
X21650500Y-12756800D01*
X21636148Y-12791448D01*
X21601500Y-12805800D01*
X20782238Y-12805800D01*
X20772678Y-12804858D01*
X20751000Y-12800545D01*
X20729322Y-12804858D01*
X20729318Y-12804858D01*
X20724587Y-12805800D01*
X20724586Y-12805800D01*
X20672454Y-12816169D01*
X20646353Y-12821361D01*
X20557637Y-12880639D01*
X20545357Y-12899018D01*
X20539264Y-12906442D01*
X19837440Y-13608265D01*
X19830017Y-13614358D01*
X19811638Y-13626638D01*
X19805771Y-13635420D01*
X19797273Y-13648139D01*
X19796680Y-13649026D01*
X19796676Y-13649031D01*
X19752690Y-13714859D01*
X19732658Y-13732044D01*
X19672508Y-13760094D01*
X19590093Y-13842508D01*
X19559318Y-13908508D01*
X19531668Y-13933845D01*
X19514909Y-13936800D01*
X19511774Y-13936800D01*
X19477126Y-13922448D01*
X19463377Y-13895465D01*
X19457326Y-13857258D01*
X19445090Y-13780003D01*
X19385336Y-13662731D01*
X19385335Y-13662729D01*
X19292270Y-13569664D01*
X19174998Y-13509910D01*
X19045000Y-13489320D01*
X18915001Y-13509910D01*
X18797729Y-13569664D01*
X18704664Y-13662729D01*
X18644910Y-13780001D01*
X18624320Y-13910000D01*
X18333500Y-13910000D01*
X18333500Y-13696276D01*
X18327163Y-13648141D01*
X18295111Y-13579405D01*
X18277906Y-13542508D01*
X18195491Y-13460093D01*
X18089860Y-13410837D01*
X18043308Y-13404708D01*
X18043299Y-13404707D01*
X18041724Y-13404500D01*
X18040124Y-13404500D01*
X17650648Y-13404500D01*
X17616000Y-13390148D01*
X17168752Y-12942899D01*
X17154400Y-12908251D01*
X17154400Y-12124657D01*
X17168752Y-12090009D01*
X17203400Y-12075657D01*
X17208881Y-12075964D01*
X17215485Y-12076708D01*
X17220897Y-12077627D01*
X17228659Y-12079400D01*
X17236613Y-12079400D01*
X17242098Y-12079707D01*
X17271751Y-12083049D01*
X17273782Y-12082338D01*
X17274324Y-12082149D01*
X17290506Y-12079400D01*
X17307933Y-12079400D01*
X17342581Y-12093752D01*
X17350987Y-12110798D01*
X17352649Y-12110024D01*
X17405093Y-12222491D01*
X17487508Y-12304906D01*
X17539753Y-12329268D01*
X17593141Y-12354163D01*
X17641276Y-12360500D01*
X17642876Y-12360500D01*
X18057124Y-12360500D01*
X18058724Y-12360500D01*
X18106859Y-12354163D01*
X18212491Y-12304906D01*
X18294906Y-12222491D01*
X18318986Y-12170852D01*
X18343091Y-12119159D01*
X18370741Y-12093822D01*
X18408208Y-12095458D01*
X18431909Y-12119159D01*
X18480093Y-12222491D01*
X18562508Y-12304906D01*
X18614753Y-12329268D01*
X18668141Y-12354163D01*
X18716276Y-12360500D01*
X18717876Y-12360500D01*
X19132124Y-12360500D01*
X19133724Y-12360500D01*
X19181859Y-12354163D01*
X19287491Y-12304906D01*
X19369906Y-12222491D01*
X19419163Y-12116859D01*
X19425500Y-12068724D01*
X19425500Y-11711276D01*
X19419163Y-11663141D01*
X19402612Y-11627648D01*
X19369906Y-11557508D01*
X19287491Y-11475093D01*
X19181860Y-11425837D01*
X19158201Y-11422722D01*
X19125723Y-11403969D01*
X19116018Y-11367743D01*
X19134771Y-11335265D01*
X19142342Y-11330488D01*
X19162269Y-11320336D01*
X19255336Y-11227269D01*
X19315090Y-11109997D01*
X19335192Y-10983070D01*
X19354787Y-10951095D01*
X19391254Y-10942340D01*
X19418242Y-10956094D01*
X19421607Y-10959460D01*
X19425263Y-10963551D01*
X19436380Y-10977490D01*
X19443874Y-10986887D01*
X19446331Y-10988070D01*
X19459716Y-10997568D01*
X19666877Y-11204729D01*
X19681229Y-11239377D01*
X19680626Y-11247041D01*
X19664320Y-11349999D01*
X19684910Y-11479998D01*
X19744664Y-11597270D01*
X19837729Y-11690335D01*
X19837731Y-11690336D01*
X19955003Y-11750090D01*
X20048967Y-11764972D01*
X20084999Y-11770679D01*
X20084999Y-11770678D01*
X20085000Y-11770679D01*
X20184720Y-11754885D01*
X20221187Y-11763640D01*
X20222936Y-11764972D01*
X20241447Y-11779734D01*
X20245546Y-11783398D01*
X20251161Y-11789014D01*
X20251163Y-11789015D01*
X20251164Y-11789016D01*
X20257896Y-11793245D01*
X20262373Y-11796422D01*
X20285707Y-11815031D01*
X20285708Y-11815031D01*
X20285709Y-11815032D01*
X20288362Y-11815637D01*
X20303532Y-11821921D01*
X20304705Y-11822657D01*
X20305837Y-11823369D01*
X20335485Y-11826708D01*
X20340897Y-11827627D01*
X20348659Y-11829400D01*
X20356613Y-11829400D01*
X20362098Y-11829707D01*
X20391751Y-11833049D01*
X20393782Y-11832338D01*
X20394324Y-11832149D01*
X20410506Y-11829400D01*
X20608984Y-11829400D01*
X20643632Y-11843752D01*
X20657565Y-11872004D01*
X20660837Y-11896860D01*
X20710093Y-12002491D01*
X20792508Y-12084906D01*
X20877755Y-12124657D01*
X20898141Y-12134163D01*
X20946276Y-12140500D01*
X20947876Y-12140500D01*
X21302124Y-12140500D01*
X21303724Y-12140500D01*
X21351859Y-12134163D01*
X21457491Y-12084906D01*
X21539906Y-12002491D01*
X21589163Y-11896859D01*
X21595500Y-11848724D01*
X21595500Y-11431276D01*
X21589163Y-11383141D01*
X21571250Y-11344726D01*
X21539906Y-11277508D01*
X21457491Y-11195093D01*
X21351860Y-11145837D01*
X21305308Y-11139708D01*
X21305299Y-11139707D01*
X21303724Y-11139500D01*
X20946276Y-11139500D01*
X20944701Y-11139707D01*
X20944691Y-11139708D01*
X20898139Y-11145837D01*
X20792508Y-11195093D01*
X20710093Y-11277508D01*
X20660837Y-11383139D01*
X20657565Y-11407996D01*
X20638813Y-11440475D01*
X20608984Y-11450600D01*
X20547118Y-11450600D01*
X20512470Y-11436248D01*
X20498118Y-11401600D01*
X20498721Y-11393935D01*
X20505679Y-11350000D01*
X20502919Y-11332575D01*
X20485090Y-11220003D01*
X20425336Y-11102731D01*
X20425335Y-11102729D01*
X20332270Y-11009664D01*
X20214998Y-10949910D01*
X20084999Y-10929320D01*
X19973410Y-10946994D01*
X19936943Y-10938239D01*
X19931097Y-10933245D01*
X19768752Y-10770899D01*
X19754400Y-10736251D01*
X19754400Y-10508961D01*
X19757150Y-10492776D01*
X19758049Y-10490208D01*
X19754708Y-10460554D01*
X19754400Y-10455068D01*
X19754400Y-10447114D01*
X19752630Y-10439360D01*
X19751710Y-10433949D01*
X19748859Y-10408641D01*
X19759242Y-10372605D01*
X19792066Y-10354465D01*
X19828103Y-10364848D01*
X19832199Y-10368509D01*
X20180853Y-10717164D01*
X20180862Y-10717170D01*
X20188674Y-10724982D01*
X20200793Y-10728229D01*
X20212609Y-10733123D01*
X20223479Y-10739399D01*
X20236446Y-10739399D01*
X20236454Y-10739400D01*
X20242482Y-10739400D01*
X22567087Y-10739400D01*
X22601735Y-10753752D01*
X22615668Y-10782006D01*
X22620740Y-10820546D01*
X22669252Y-10924579D01*
X22750420Y-11005747D01*
X22824949Y-11040500D01*
X22854455Y-11054259D01*
X22901861Y-11060500D01*
X23348138Y-11060499D01*
X23390455Y-11054929D01*
X23395546Y-11054259D01*
X23499579Y-11005747D01*
X23580747Y-10924579D01*
X23592598Y-10899164D01*
X23626091Y-10827337D01*
X23653741Y-10802001D01*
X23691208Y-10803637D01*
X23716545Y-10831287D01*
X23719500Y-10848046D01*
X23719500Y-11371951D01*
X23705148Y-11406599D01*
X23670500Y-11420951D01*
X23635852Y-11406599D01*
X23626091Y-11392659D01*
X23580747Y-11295420D01*
X23499579Y-11214252D01*
X23395546Y-11165741D01*
X23349723Y-11159708D01*
X23349714Y-11159707D01*
X23348139Y-11159500D01*
X23346538Y-11159500D01*
X22903463Y-11159500D01*
X22903447Y-11159500D01*
X22901862Y-11159501D01*
X22900276Y-11159709D01*
X22900272Y-11159710D01*
X22854453Y-11165740D01*
X22750420Y-11214252D01*
X22669252Y-11295420D01*
X22620741Y-11399453D01*
X22614708Y-11445276D01*
X22614707Y-11445286D01*
X22614500Y-11446861D01*
X22614500Y-11448460D01*
X22614500Y-11448461D01*
X22614500Y-11791536D01*
X22614500Y-11791551D01*
X22614501Y-11793138D01*
X22614709Y-11794724D01*
X22614710Y-11794727D01*
X22620740Y-11840546D01*
X22669252Y-11944579D01*
X22750420Y-12025747D01*
X22817357Y-12056960D01*
X22854455Y-12074259D01*
X22901861Y-12080500D01*
X23348138Y-12080499D01*
X23389377Y-12075070D01*
X23395546Y-12074259D01*
X23499579Y-12025747D01*
X23580747Y-11944579D01*
X23602999Y-11896859D01*
X23629259Y-11840545D01*
X23634332Y-11802004D01*
X23653085Y-11769525D01*
X23682914Y-11759400D01*
X24074378Y-11759400D01*
X24074386Y-11759399D01*
X24087352Y-11759399D01*
X24098215Y-11753126D01*
X24110031Y-11748230D01*
X24122158Y-11744982D01*
X24129973Y-11737167D01*
X24129976Y-11737165D01*
X24252289Y-11614852D01*
X24286937Y-11600500D01*
X25739751Y-11600500D01*
X25798228Y-11588868D01*
X25798228Y-11588867D01*
X25798231Y-11588867D01*
X25848279Y-11555425D01*
X25885059Y-11548109D01*
X25916242Y-11568944D01*
X25924500Y-11596168D01*
X25924500Y-17965500D01*
X25910148Y-18000148D01*
X25875500Y-18014500D01*
X18261146Y-18014500D01*
X18226498Y-18000148D01*
X18212146Y-17965500D01*
X18220404Y-17938277D01*
X18223119Y-17934213D01*
X18263867Y-17873231D01*
X18275500Y-17814748D01*
X18275500Y-15975252D01*
X18275500Y-15975251D01*
X18275500Y-15975249D01*
X18263867Y-15916770D01*
X18263867Y-15916769D01*
X18240015Y-15881072D01*
X18219552Y-15850447D01*
X18167481Y-15815655D01*
X18153231Y-15806133D01*
X18153230Y-15806132D01*
X18153229Y-15806132D01*
X18094751Y-15794500D01*
X18094748Y-15794500D01*
X17763400Y-15794500D01*
X17728752Y-15780148D01*
X17714400Y-15745500D01*
X17714400Y-15648508D01*
X17717150Y-15632323D01*
X17718050Y-15629752D01*
X17714708Y-15600091D01*
X17714400Y-15594605D01*
X17714400Y-15586658D01*
X17712631Y-15578911D01*
X17711710Y-15573499D01*
X17708369Y-15543837D01*
X17706921Y-15541532D01*
X17700637Y-15526362D01*
X17700032Y-15523709D01*
X17700030Y-15523706D01*
X17681426Y-15500377D01*
X17678251Y-15495903D01*
X17674017Y-15489165D01*
X17668396Y-15483544D01*
X17664735Y-15479447D01*
X17646126Y-15456113D01*
X17643666Y-15454928D01*
X17630282Y-15445430D01*
X17301500Y-15116648D01*
X17287148Y-15082000D01*
X17287566Y-15075616D01*
X17292500Y-15038139D01*
X17292499Y-14691862D01*
X17287740Y-14655710D01*
X17286259Y-14644453D01*
X17237747Y-14540420D01*
X17156579Y-14459252D01*
X17052546Y-14410741D01*
X17006723Y-14404708D01*
X17006714Y-14404707D01*
X17005139Y-14404500D01*
X17003538Y-14404500D01*
X16560463Y-14404500D01*
X16560447Y-14404500D01*
X16558862Y-14404501D01*
X16557276Y-14404709D01*
X16557272Y-14404710D01*
X16511453Y-14410740D01*
X16407420Y-14459252D01*
X16326252Y-14540420D01*
X16295909Y-14605492D01*
X16268259Y-14630829D01*
X16230792Y-14629193D01*
X16207091Y-14605492D01*
X16176747Y-14540420D01*
X16095579Y-14459252D01*
X15991546Y-14410741D01*
X15945723Y-14404708D01*
X15945714Y-14404707D01*
X15944139Y-14404500D01*
X15942538Y-14404500D01*
X15499463Y-14404500D01*
X15499447Y-14404500D01*
X15497862Y-14404501D01*
X15496276Y-14404709D01*
X15496272Y-14404710D01*
X15450453Y-14410740D01*
X15346420Y-14459252D01*
X15265252Y-14540420D01*
X15234909Y-14605492D01*
X15207259Y-14630829D01*
X15169792Y-14629193D01*
X15146091Y-14605492D01*
X15115747Y-14540420D01*
X15034579Y-14459252D01*
X14930546Y-14410741D01*
X14884723Y-14404708D01*
X14884714Y-14404707D01*
X14883139Y-14404500D01*
X14881538Y-14404500D01*
X14438463Y-14404500D01*
X14438447Y-14404500D01*
X14436862Y-14404501D01*
X14435276Y-14404709D01*
X14435272Y-14404710D01*
X14389453Y-14410740D01*
X14285420Y-14459252D01*
X14204252Y-14540420D01*
X14173909Y-14605492D01*
X14146259Y-14630829D01*
X14108792Y-14629193D01*
X14085091Y-14605492D01*
X14054747Y-14540420D01*
X13973579Y-14459252D01*
X13869546Y-14410741D01*
X13823723Y-14404708D01*
X13823714Y-14404707D01*
X13822139Y-14404500D01*
X13820538Y-14404500D01*
X13377463Y-14404500D01*
X13377447Y-14404500D01*
X13375862Y-14404501D01*
X13374276Y-14404709D01*
X13374272Y-14404710D01*
X13328453Y-14410740D01*
X13224420Y-14459252D01*
X13143252Y-14540420D01*
X13094741Y-14644453D01*
X13088708Y-14690276D01*
X13088707Y-14690286D01*
X13088500Y-14691861D01*
X13088500Y-14693460D01*
X13088500Y-14693461D01*
X13088500Y-15036536D01*
X13088500Y-15036551D01*
X13088501Y-15038138D01*
X13088709Y-15039724D01*
X13088710Y-15039727D01*
X13093432Y-15075605D01*
X13083724Y-15111830D01*
X13079499Y-15116647D01*
X12709715Y-15486431D01*
X12696333Y-15495928D01*
X12693873Y-15497112D01*
X12675265Y-15520445D01*
X12671611Y-15524535D01*
X12665984Y-15530163D01*
X12661750Y-15536901D01*
X12658574Y-15541377D01*
X12639966Y-15564711D01*
X12639360Y-15567368D01*
X12633083Y-15582525D01*
X12631631Y-15584835D01*
X12628288Y-15614493D01*
X12627370Y-15619897D01*
X12625600Y-15627658D01*
X12625600Y-15635611D01*
X12625292Y-15641097D01*
X12621951Y-15670751D01*
X12622782Y-15673127D01*
X12622850Y-15673319D01*
X12625600Y-15689504D01*
X12625600Y-15745500D01*
X12611248Y-15780148D01*
X12576600Y-15794500D01*
X12155102Y-15794500D01*
X12125786Y-15800330D01*
X12092543Y-15822542D01*
X12070330Y-15855788D01*
X12064500Y-15885099D01*
X12064500Y-17904897D01*
X12070330Y-17934213D01*
X12073046Y-17938277D01*
X12080362Y-17975060D01*
X12059527Y-18006242D01*
X12032304Y-18014500D01*
X3024500Y-18014500D01*
X2989852Y-18000148D01*
X2975500Y-17965500D01*
X2975500Y-3804486D01*
X2989852Y-3769838D01*
X3024500Y-3755486D01*
X3051719Y-3763742D01*
X3111769Y-3803867D01*
X3111771Y-3803868D01*
X3170249Y-3815500D01*
X3170252Y-3815500D01*
X5009751Y-3815500D01*
X5044837Y-3808520D01*
X5068231Y-3803867D01*
X5134552Y-3759552D01*
X5178867Y-3693231D01*
X5184683Y-3663989D01*
X5190500Y-3634750D01*
X5190500Y-3303400D01*
X5204852Y-3268752D01*
X5239500Y-3254400D01*
X5466252Y-3254400D01*
X5500900Y-3268752D01*
G37*
%TD.AperFunction*%
%TA.AperFunction,Conductor*%
G36*
X7071611Y-8833752D02*
G01*
X7079011Y-8841152D01*
X7093363Y-8875800D01*
X7088773Y-8896507D01*
X7075741Y-8924454D01*
X7069708Y-8970276D01*
X7069707Y-8970286D01*
X7069500Y-8971861D01*
X7069500Y-8973460D01*
X7069500Y-8973461D01*
X7069500Y-9316536D01*
X7069500Y-9316551D01*
X7069501Y-9318138D01*
X7069709Y-9319724D01*
X7069710Y-9319727D01*
X7075740Y-9365546D01*
X7124252Y-9469579D01*
X7205420Y-9550747D01*
X7240539Y-9567123D01*
X7300312Y-9594995D01*
X7325649Y-9622645D01*
X7324013Y-9660112D01*
X7300312Y-9683813D01*
X7222508Y-9720093D01*
X7140093Y-9802508D01*
X7090837Y-9908139D01*
X7084708Y-9954691D01*
X7084708Y-9954693D01*
X7084500Y-9956276D01*
X7084500Y-9957876D01*
X7084500Y-10272352D01*
X7070148Y-10307000D01*
X6780900Y-10596248D01*
X6746252Y-10610600D01*
X6115094Y-10610600D01*
X6080446Y-10596248D01*
X6066094Y-10561600D01*
X6080446Y-10526952D01*
X6129906Y-10477491D01*
X6148937Y-10436679D01*
X6179163Y-10371859D01*
X6185500Y-10323724D01*
X6185500Y-9906276D01*
X6181134Y-9873116D01*
X6190840Y-9836892D01*
X6195064Y-9832076D01*
X6211546Y-9815595D01*
X6211546Y-9815593D01*
X6215578Y-9811562D01*
X6215579Y-9811559D01*
X6224982Y-9802158D01*
X6228230Y-9790034D01*
X6233127Y-9778214D01*
X6239399Y-9767352D01*
X6239399Y-9754059D01*
X6239400Y-9754050D01*
X6239400Y-9619500D01*
X6253752Y-9584852D01*
X6288400Y-9570500D01*
X6718765Y-9570500D01*
X6752686Y-9563752D01*
X6774329Y-9559447D01*
X6837343Y-9517343D01*
X6879447Y-9454329D01*
X6888207Y-9410289D01*
X6890500Y-9398764D01*
X6890500Y-8868400D01*
X6904852Y-8833752D01*
X6939500Y-8819400D01*
X7036963Y-8819400D01*
X7071611Y-8833752D01*
G37*
%TD.AperFunction*%
%TA.AperFunction,Conductor*%
G36*
X9236248Y-9905652D02*
G01*
X9250600Y-9940301D01*
X9250600Y-11721962D01*
X9236248Y-11756610D01*
X8752710Y-12240148D01*
X8718062Y-12254500D01*
X7555102Y-12254500D01*
X7525786Y-12260330D01*
X7492543Y-12282542D01*
X7470330Y-12315788D01*
X7464500Y-12345099D01*
X7464500Y-14364897D01*
X7470330Y-14394213D01*
X7492542Y-14427456D01*
X7492543Y-14427457D01*
X7525787Y-14449669D01*
X7555101Y-14455500D01*
X8874898Y-14455499D01*
X8904213Y-14449669D01*
X8937457Y-14427457D01*
X8959669Y-14394213D01*
X8961185Y-14386590D01*
X8982019Y-14355409D01*
X9018802Y-14348092D01*
X9049984Y-14368926D01*
X9070448Y-14399552D01*
X9136769Y-14443867D01*
X9151389Y-14446775D01*
X9195249Y-14455500D01*
X9195252Y-14455500D01*
X10334751Y-14455500D01*
X10369837Y-14448520D01*
X10393231Y-14443867D01*
X10459552Y-14399552D01*
X10503867Y-14333231D01*
X10509683Y-14303989D01*
X10515500Y-14274750D01*
X10515500Y-14239122D01*
X10529852Y-14204474D01*
X10564500Y-14190122D01*
X10599148Y-14204474D01*
X10675420Y-14280747D01*
X10738345Y-14310089D01*
X10779455Y-14329259D01*
X10826861Y-14335500D01*
X10861600Y-14335499D01*
X10896247Y-14349850D01*
X10910600Y-14384498D01*
X10910600Y-14547221D01*
X10896248Y-14581869D01*
X10883846Y-14590880D01*
X10807729Y-14629664D01*
X10714664Y-14722729D01*
X10654910Y-14840001D01*
X10634320Y-14970000D01*
X10654910Y-15099998D01*
X10714664Y-15217270D01*
X10813218Y-15315824D01*
X10811353Y-15317688D01*
X10827385Y-15336457D01*
X10824444Y-15373844D01*
X10795927Y-15398201D01*
X10780784Y-15400600D01*
X7862913Y-15400600D01*
X7828265Y-15386248D01*
X7814332Y-15357994D01*
X7809259Y-15319453D01*
X7760747Y-15215420D01*
X7679579Y-15134252D01*
X7575546Y-15085741D01*
X7529723Y-15079708D01*
X7529714Y-15079707D01*
X7528139Y-15079500D01*
X7526538Y-15079500D01*
X7083463Y-15079500D01*
X7083447Y-15079500D01*
X7081862Y-15079501D01*
X7080276Y-15079709D01*
X7080272Y-15079710D01*
X7034453Y-15085740D01*
X6927398Y-15135662D01*
X6889931Y-15137298D01*
X6872042Y-15125901D01*
X6638650Y-14892509D01*
X6401852Y-14655710D01*
X6387500Y-14621062D01*
X6387500Y-14006133D01*
X6385591Y-13994691D01*
X6372189Y-13914377D01*
X6313020Y-13805042D01*
X6221556Y-13720843D01*
X6107708Y-13670905D01*
X5983814Y-13660639D01*
X5863299Y-13691157D01*
X5863298Y-13691157D01*
X5863296Y-13691158D01*
X5759223Y-13759152D01*
X5730950Y-13795477D01*
X5698343Y-13814004D01*
X5662186Y-13804047D01*
X5659096Y-13801430D01*
X5658873Y-13801225D01*
X5571556Y-13720843D01*
X5457708Y-13670905D01*
X5333814Y-13660639D01*
X5213299Y-13691157D01*
X5213298Y-13691157D01*
X5213296Y-13691158D01*
X5109223Y-13759152D01*
X5080950Y-13795477D01*
X5048343Y-13814004D01*
X5012186Y-13804047D01*
X5009096Y-13801430D01*
X5008873Y-13801225D01*
X4921556Y-13720843D01*
X4807708Y-13670905D01*
X4683814Y-13660639D01*
X4563299Y-13691157D01*
X4563298Y-13691157D01*
X4563296Y-13691158D01*
X4459223Y-13759152D01*
X4430950Y-13795477D01*
X4398343Y-13814004D01*
X4362186Y-13804047D01*
X4358958Y-13801302D01*
X4358875Y-13801225D01*
X4343234Y-13767139D01*
X4343200Y-13765303D01*
X4343200Y-13599701D01*
X4357552Y-13565053D01*
X4415336Y-13507269D01*
X4475090Y-13389997D01*
X4495679Y-13260000D01*
X4475090Y-13130003D01*
X4471456Y-13122870D01*
X4415335Y-13012729D01*
X4322270Y-12919664D01*
X4251637Y-12883674D01*
X4227281Y-12855156D01*
X4230224Y-12817769D01*
X4247082Y-12798994D01*
X4320776Y-12750847D01*
X4320941Y-12750635D01*
X4349047Y-12714523D01*
X4381653Y-12695995D01*
X4417810Y-12705950D01*
X4420895Y-12708562D01*
X4508444Y-12789157D01*
X4622292Y-12839095D01*
X4746186Y-12849361D01*
X4866701Y-12818843D01*
X4954714Y-12761341D01*
X4970775Y-12750848D01*
X4970941Y-12750635D01*
X4999047Y-12714523D01*
X5031653Y-12695995D01*
X5067810Y-12705950D01*
X5070895Y-12708562D01*
X5158444Y-12789157D01*
X5272292Y-12839095D01*
X5396186Y-12849361D01*
X5516701Y-12818843D01*
X5620776Y-12750847D01*
X5697134Y-12652742D01*
X5737500Y-12535159D01*
X5737500Y-11584132D01*
X5722189Y-11492377D01*
X5722070Y-11492158D01*
X5663020Y-11383042D01*
X5571556Y-11298843D01*
X5457708Y-11248905D01*
X5333814Y-11238639D01*
X5213299Y-11269157D01*
X5213298Y-11269157D01*
X5213296Y-11269158D01*
X5109223Y-11337152D01*
X5080950Y-11373477D01*
X5048343Y-11392004D01*
X5012186Y-11382047D01*
X5009096Y-11379430D01*
X5002629Y-11373477D01*
X4921556Y-11298843D01*
X4807708Y-11248905D01*
X4683814Y-11238639D01*
X4563299Y-11269157D01*
X4563298Y-11269157D01*
X4563296Y-11269158D01*
X4459223Y-11337152D01*
X4430950Y-11373477D01*
X4398343Y-11392004D01*
X4362186Y-11382047D01*
X4359096Y-11379430D01*
X4352629Y-11373477D01*
X4271556Y-11298843D01*
X4157708Y-11248905D01*
X4134914Y-11247016D01*
X4101572Y-11229852D01*
X4090130Y-11194137D01*
X4104315Y-11163536D01*
X4157854Y-11109998D01*
X4264099Y-11003752D01*
X4298748Y-10989400D01*
X6804494Y-10989400D01*
X6820676Y-10992149D01*
X6821423Y-10992410D01*
X6823249Y-10993049D01*
X6852902Y-10989707D01*
X6858388Y-10989400D01*
X6866339Y-10989400D01*
X6866341Y-10989400D01*
X6874101Y-10987628D01*
X6879505Y-10986710D01*
X6909164Y-10983369D01*
X6911464Y-10981923D01*
X6926637Y-10975637D01*
X6929291Y-10975032D01*
X6952631Y-10956417D01*
X6957099Y-10953248D01*
X6963836Y-10949016D01*
X6967062Y-10945788D01*
X6969461Y-10943391D01*
X6973549Y-10939736D01*
X6996887Y-10921126D01*
X6998068Y-10918672D01*
X7007565Y-10905285D01*
X7298283Y-10614567D01*
X7332930Y-10600216D01*
X7339318Y-10600634D01*
X7376276Y-10605500D01*
X7377876Y-10605500D01*
X7792124Y-10605500D01*
X7793724Y-10605500D01*
X7841859Y-10599163D01*
X7947491Y-10549906D01*
X8029906Y-10467491D01*
X8046091Y-10432781D01*
X8073740Y-10407445D01*
X8111208Y-10409081D01*
X8136545Y-10436730D01*
X8139500Y-10453490D01*
X8139500Y-10748724D01*
X8139707Y-10750299D01*
X8139708Y-10750308D01*
X8145837Y-10796860D01*
X8195093Y-10902491D01*
X8277508Y-10984906D01*
X8369801Y-11027942D01*
X8383141Y-11034163D01*
X8431276Y-11040500D01*
X8432876Y-11040500D01*
X8847124Y-11040500D01*
X8848724Y-11040500D01*
X8896859Y-11034163D01*
X9002491Y-10984906D01*
X9084906Y-10902491D01*
X9134163Y-10796859D01*
X9140500Y-10748724D01*
X9140500Y-10391276D01*
X9134163Y-10343141D01*
X9117068Y-10306481D01*
X9084906Y-10237508D01*
X9002491Y-10155093D01*
X8929733Y-10121166D01*
X8904396Y-10093516D01*
X8906032Y-10056049D01*
X8933682Y-10030712D01*
X8942770Y-10028361D01*
X8985804Y-10021546D01*
X8994998Y-10020090D01*
X9034087Y-10000172D01*
X9112269Y-9960336D01*
X9166952Y-9905652D01*
X9201600Y-9891301D01*
X9236248Y-9905652D01*
G37*
%TD.AperFunction*%
%TA.AperFunction,Conductor*%
G36*
X15573259Y-79852D02*
G01*
X15587611Y-114500D01*
X15586669Y-124060D01*
X15579500Y-160099D01*
X15579500Y-2179897D01*
X15585330Y-2209213D01*
X15604202Y-2237457D01*
X15607543Y-2242457D01*
X15640787Y-2264669D01*
X15670101Y-2270500D01*
X16989898Y-2270499D01*
X17019213Y-2264669D01*
X17052457Y-2242457D01*
X17074669Y-2209213D01*
X17080500Y-2179899D01*
X17080499Y-160102D01*
X17074669Y-130787D01*
X17073331Y-124057D01*
X17080649Y-87275D01*
X17111833Y-66441D01*
X17121390Y-65500D01*
X24525319Y-65500D01*
X24559967Y-79852D01*
X24574319Y-114500D01*
X24559967Y-149148D01*
X24537046Y-162076D01*
X24412593Y-192751D01*
X24264120Y-270676D01*
X24138605Y-381872D01*
X24043351Y-519870D01*
X23983888Y-676659D01*
X23963677Y-843120D01*
X23983888Y-1009582D01*
X24031783Y-1135871D01*
X24043350Y-1166369D01*
X24138606Y-1304370D01*
X24264119Y-1415565D01*
X24290996Y-1429671D01*
X24300642Y-1434734D01*
X24324651Y-1463544D01*
X24321257Y-1500893D01*
X24300642Y-1521508D01*
X24264118Y-1540677D01*
X24138605Y-1651872D01*
X24043350Y-1789871D01*
X24004583Y-1892096D01*
X23978878Y-1919404D01*
X23958767Y-1923721D01*
X23717387Y-1923721D01*
X23701203Y-1920971D01*
X23698631Y-1920071D01*
X23668972Y-1923413D01*
X23663486Y-1923721D01*
X23655537Y-1923721D01*
X23647783Y-1925490D01*
X23642373Y-1926409D01*
X23612715Y-1929751D01*
X23610405Y-1931203D01*
X23595247Y-1937481D01*
X23592588Y-1938087D01*
X23569250Y-1956698D01*
X23564774Y-1959874D01*
X23558044Y-1964103D01*
X23552414Y-1969732D01*
X23548324Y-1973386D01*
X23524991Y-1991994D01*
X23523807Y-1994454D01*
X23514310Y-2007836D01*
X23408048Y-2114099D01*
X23373400Y-2128451D01*
X23338752Y-2114099D01*
X23324400Y-2079451D01*
X23324400Y-1840508D01*
X23327150Y-1824323D01*
X23328050Y-1821752D01*
X23324708Y-1792091D01*
X23324400Y-1786605D01*
X23324400Y-1778658D01*
X23322631Y-1770911D01*
X23321710Y-1765499D01*
X23318369Y-1735837D01*
X23316921Y-1733532D01*
X23310637Y-1718362D01*
X23310032Y-1715709D01*
X23291426Y-1692377D01*
X23288251Y-1687903D01*
X23284017Y-1681165D01*
X23278397Y-1675545D01*
X23274734Y-1671446D01*
X23266189Y-1660730D01*
X23255500Y-1630181D01*
X23255500Y-449235D01*
X23244447Y-393672D01*
X23244447Y-393671D01*
X23202343Y-330657D01*
X23139329Y-288553D01*
X23139328Y-288552D01*
X23139327Y-288552D01*
X23083765Y-277500D01*
X23083762Y-277500D01*
X22046238Y-277500D01*
X22046235Y-277500D01*
X21990672Y-288552D01*
X21927657Y-330657D01*
X21885552Y-393672D01*
X21874500Y-449235D01*
X21874500Y-2010764D01*
X21885552Y-2066327D01*
X21885552Y-2066328D01*
X21885553Y-2066329D01*
X21927657Y-2129343D01*
X21990671Y-2171447D01*
X22004562Y-2174210D01*
X22046235Y-2182500D01*
X22046238Y-2182500D01*
X22708877Y-2182500D01*
X22743525Y-2196852D01*
X22757877Y-2231500D01*
X22743525Y-2266148D01*
X22679252Y-2330420D01*
X22630741Y-2434453D01*
X22624708Y-2480276D01*
X22624707Y-2480286D01*
X22624500Y-2481861D01*
X22624500Y-2483460D01*
X22624500Y-2483461D01*
X22624500Y-2826536D01*
X22624500Y-2826551D01*
X22624501Y-2828138D01*
X22624710Y-2829723D01*
X22624710Y-2829727D01*
X22630740Y-2875546D01*
X22679252Y-2979579D01*
X22760420Y-3060747D01*
X22809695Y-3083724D01*
X22864455Y-3109259D01*
X22911861Y-3115500D01*
X23358138Y-3115499D01*
X23399377Y-3110070D01*
X23405546Y-3109259D01*
X23509579Y-3060747D01*
X23590747Y-2979579D01*
X23606252Y-2946328D01*
X23639259Y-2875545D01*
X23645500Y-2828139D01*
X23645499Y-2481862D01*
X23640567Y-2444392D01*
X23650274Y-2408168D01*
X23654484Y-2403366D01*
X23740980Y-2316871D01*
X23775627Y-2302521D01*
X23958767Y-2302521D01*
X23993415Y-2316873D01*
X24004581Y-2334144D01*
X24020317Y-2375635D01*
X24043350Y-2436370D01*
X24135120Y-2569320D01*
X24138606Y-2574370D01*
X24264119Y-2685565D01*
X24290996Y-2699671D01*
X24300642Y-2704734D01*
X24324651Y-2733544D01*
X24321257Y-2770893D01*
X24300642Y-2791508D01*
X24264118Y-2810677D01*
X24138605Y-2921872D01*
X24043351Y-3059870D01*
X23983888Y-3216659D01*
X23963677Y-3383121D01*
X23983888Y-3549582D01*
X24020544Y-3646235D01*
X24038367Y-3693231D01*
X24043351Y-3706371D01*
X24110649Y-3803868D01*
X24138606Y-3844370D01*
X24264119Y-3955565D01*
X24290996Y-3969671D01*
X24300642Y-3974734D01*
X24324651Y-4003544D01*
X24321257Y-4040893D01*
X24300642Y-4061508D01*
X24264118Y-4080677D01*
X24138605Y-4191872D01*
X24043351Y-4329870D01*
X23983888Y-4486659D01*
X23963677Y-4653121D01*
X23983888Y-4819582D01*
X24020090Y-4915037D01*
X24035435Y-4955500D01*
X24043351Y-4976371D01*
X24128888Y-5100291D01*
X24138606Y-5114370D01*
X24264119Y-5225565D01*
X24276258Y-5231936D01*
X24300642Y-5244734D01*
X24324651Y-5273544D01*
X24321257Y-5310893D01*
X24300642Y-5331508D01*
X24264118Y-5350677D01*
X24138605Y-5461872D01*
X24043350Y-5599871D01*
X24034467Y-5623296D01*
X24008762Y-5650604D01*
X23988651Y-5654921D01*
X23878121Y-5654921D01*
X23868562Y-5653980D01*
X23846879Y-5649667D01*
X23742230Y-5670482D01*
X23721722Y-5684186D01*
X23684939Y-5691502D01*
X23653757Y-5670667D01*
X23645499Y-5643444D01*
X23645499Y-5488463D01*
X23645499Y-5488461D01*
X23645499Y-5486862D01*
X23640152Y-5446236D01*
X23639259Y-5439453D01*
X23590747Y-5335420D01*
X23509579Y-5254252D01*
X23405546Y-5205741D01*
X23359723Y-5199708D01*
X23359714Y-5199707D01*
X23358139Y-5199500D01*
X23356538Y-5199500D01*
X22913463Y-5199500D01*
X22913447Y-5199500D01*
X22911862Y-5199501D01*
X22910276Y-5199709D01*
X22910272Y-5199710D01*
X22864453Y-5205740D01*
X22760420Y-5254252D01*
X22679252Y-5335420D01*
X22630741Y-5439453D01*
X22624708Y-5485276D01*
X22624707Y-5485286D01*
X22624500Y-5486861D01*
X22624500Y-5488460D01*
X22624500Y-5488461D01*
X22624500Y-5831536D01*
X22624500Y-5831551D01*
X22624501Y-5833138D01*
X22624709Y-5834724D01*
X22624710Y-5834727D01*
X22630740Y-5880546D01*
X22679252Y-5984579D01*
X22760420Y-6065747D01*
X22811535Y-6089582D01*
X22822937Y-6094899D01*
X22836727Y-6101329D01*
X22862064Y-6128979D01*
X22860428Y-6166446D01*
X22836728Y-6190147D01*
X22772507Y-6220094D01*
X22690093Y-6302508D01*
X22640837Y-6408139D01*
X22634708Y-6454691D01*
X22634707Y-6454701D01*
X22634500Y-6456276D01*
X22634500Y-6457876D01*
X22634500Y-6521100D01*
X22620148Y-6555748D01*
X22585500Y-6570100D01*
X22214500Y-6570100D01*
X22179852Y-6555748D01*
X22165500Y-6521100D01*
X22165500Y-6440735D01*
X22154447Y-6385172D01*
X22154447Y-6385171D01*
X22112343Y-6322157D01*
X22049329Y-6280053D01*
X22049328Y-6280052D01*
X22049327Y-6280052D01*
X21993765Y-6269000D01*
X21993762Y-6269000D01*
X21676238Y-6269000D01*
X21676235Y-6269000D01*
X21620672Y-6280052D01*
X21612222Y-6285698D01*
X21575439Y-6293013D01*
X21557778Y-6285698D01*
X21553799Y-6283040D01*
X21549329Y-6280053D01*
X21549328Y-6280052D01*
X21549327Y-6280052D01*
X21493765Y-6269000D01*
X21493762Y-6269000D01*
X21176238Y-6269000D01*
X21176235Y-6269000D01*
X21120672Y-6280052D01*
X21112222Y-6285698D01*
X21075439Y-6293013D01*
X21057778Y-6285698D01*
X21053799Y-6283040D01*
X21049329Y-6280053D01*
X21049328Y-6280052D01*
X21049327Y-6280052D01*
X20993765Y-6269000D01*
X20993762Y-6269000D01*
X20676238Y-6269000D01*
X20676235Y-6269000D01*
X20620672Y-6280052D01*
X20612222Y-6285698D01*
X20575439Y-6293013D01*
X20557778Y-6285698D01*
X20553799Y-6283040D01*
X20549329Y-6280053D01*
X20549328Y-6280052D01*
X20549327Y-6280052D01*
X20493765Y-6269000D01*
X20493762Y-6269000D01*
X20176238Y-6269000D01*
X20176235Y-6269000D01*
X20120672Y-6280052D01*
X20057657Y-6322157D01*
X20015552Y-6385172D01*
X20004500Y-6440735D01*
X20004500Y-6571100D01*
X19990148Y-6605748D01*
X19955500Y-6620100D01*
X19662537Y-6620100D01*
X19627889Y-6605748D01*
X19272164Y-6250023D01*
X19272163Y-6250023D01*
X19262159Y-6240019D01*
X19262158Y-6240018D01*
X19250032Y-6236768D01*
X19238219Y-6231875D01*
X19227351Y-6225600D01*
X19208352Y-6225600D01*
X19208350Y-6225600D01*
X18691608Y-6225600D01*
X18656960Y-6211248D01*
X18650179Y-6198562D01*
X18649862Y-6198775D01*
X18645484Y-6192223D01*
X18644709Y-6188328D01*
X18643549Y-6186158D01*
X18642545Y-6181110D01*
X18643245Y-6180970D01*
X18638167Y-6155441D01*
X18645484Y-6137777D01*
X18649862Y-6131225D01*
X18651325Y-6132202D01*
X18664384Y-6112659D01*
X18691608Y-6104400D01*
X18809378Y-6104400D01*
X18809386Y-6104399D01*
X18822352Y-6104399D01*
X18833215Y-6098126D01*
X18845031Y-6093230D01*
X18857158Y-6089982D01*
X18864973Y-6082167D01*
X18864976Y-6082165D01*
X19435546Y-5511595D01*
X20006546Y-4940595D01*
X20006546Y-4940593D01*
X20010578Y-4936562D01*
X20010579Y-4936559D01*
X20019982Y-4927158D01*
X20023230Y-4915034D01*
X20028127Y-4903214D01*
X20028630Y-4902343D01*
X20034399Y-4892352D01*
X20034399Y-4879059D01*
X20034400Y-4879050D01*
X20034400Y-3353400D01*
X20048752Y-3318752D01*
X20083400Y-3304400D01*
X20461963Y-3304400D01*
X20496611Y-3318752D01*
X20502587Y-3324728D01*
X20516939Y-3359376D01*
X20515998Y-3368935D01*
X20515553Y-3371170D01*
X20515553Y-3371171D01*
X20514734Y-3375291D01*
X20504500Y-3426740D01*
X20504500Y-4064264D01*
X20515552Y-4119827D01*
X20515552Y-4119828D01*
X20515553Y-4119829D01*
X20557657Y-4182843D01*
X20620671Y-4224947D01*
X20634562Y-4227710D01*
X20676235Y-4236000D01*
X20676238Y-4236000D01*
X20993765Y-4236000D01*
X21027102Y-4229368D01*
X21049329Y-4224947D01*
X21057777Y-4219301D01*
X21094559Y-4211985D01*
X21112222Y-4219301D01*
X21120671Y-4224947D01*
X21134562Y-4227710D01*
X21176235Y-4236000D01*
X21176238Y-4236000D01*
X21493765Y-4236000D01*
X21527102Y-4229368D01*
X21549329Y-4224947D01*
X21557777Y-4219301D01*
X21594559Y-4211985D01*
X21612222Y-4219301D01*
X21620671Y-4224947D01*
X21634562Y-4227710D01*
X21676235Y-4236000D01*
X21676238Y-4236000D01*
X21993765Y-4236000D01*
X22027102Y-4229368D01*
X22049329Y-4224947D01*
X22112343Y-4182843D01*
X22154447Y-4119829D01*
X22165500Y-4064262D01*
X22165500Y-3933900D01*
X22179852Y-3899252D01*
X22214500Y-3884900D01*
X22594561Y-3884900D01*
X22629209Y-3899252D01*
X22638970Y-3913192D01*
X22679252Y-3999579D01*
X22760420Y-4080747D01*
X22829781Y-4113090D01*
X22855118Y-4140740D01*
X22853482Y-4178207D01*
X22829782Y-4201908D01*
X22760419Y-4234253D01*
X22679252Y-4315420D01*
X22630741Y-4419453D01*
X22624708Y-4465276D01*
X22624707Y-4465286D01*
X22624500Y-4466861D01*
X22624500Y-4468460D01*
X22624500Y-4468461D01*
X22624500Y-4811536D01*
X22624500Y-4811551D01*
X22624501Y-4813138D01*
X22624710Y-4814723D01*
X22624710Y-4814727D01*
X22630740Y-4860546D01*
X22679252Y-4964579D01*
X22760420Y-5045747D01*
X22851318Y-5088133D01*
X22864455Y-5094259D01*
X22911861Y-5100500D01*
X23358138Y-5100499D01*
X23399377Y-5095070D01*
X23405546Y-5094259D01*
X23509579Y-5045747D01*
X23590747Y-4964579D01*
X23595404Y-4954592D01*
X23639259Y-4860545D01*
X23645500Y-4813139D01*
X23645499Y-4466862D01*
X23639259Y-4419455D01*
X23639259Y-4419453D01*
X23590747Y-4315420D01*
X23509579Y-4234252D01*
X23440218Y-4201909D01*
X23414881Y-4174259D01*
X23416517Y-4136792D01*
X23440218Y-4113091D01*
X23509579Y-4080747D01*
X23590747Y-3999579D01*
X23611271Y-3955565D01*
X23639259Y-3895545D01*
X23645500Y-3848139D01*
X23645499Y-3501862D01*
X23639259Y-3454455D01*
X23639259Y-3454453D01*
X23590747Y-3350420D01*
X23509579Y-3269252D01*
X23405546Y-3220741D01*
X23359723Y-3214708D01*
X23359714Y-3214707D01*
X23358139Y-3214500D01*
X23356538Y-3214500D01*
X22913463Y-3214500D01*
X22913447Y-3214500D01*
X22911862Y-3214501D01*
X22910276Y-3214709D01*
X22910272Y-3214710D01*
X22864453Y-3220740D01*
X22760420Y-3269252D01*
X22679252Y-3350420D01*
X22630741Y-3454453D01*
X22624708Y-3500276D01*
X22624707Y-3500286D01*
X22624500Y-3501861D01*
X22624500Y-3503461D01*
X22624500Y-3557100D01*
X22610148Y-3591748D01*
X22575500Y-3606100D01*
X22214500Y-3606100D01*
X22179852Y-3591748D01*
X22165500Y-3557100D01*
X22165500Y-3426735D01*
X22155308Y-3375500D01*
X22154447Y-3371171D01*
X22112343Y-3308157D01*
X22049329Y-3266053D01*
X22049328Y-3266052D01*
X22049327Y-3266052D01*
X21993765Y-3255000D01*
X21993762Y-3255000D01*
X21897437Y-3255000D01*
X21862789Y-3240648D01*
X21092164Y-2470023D01*
X21092163Y-2470023D01*
X21082159Y-2460019D01*
X21082158Y-2460018D01*
X21070032Y-2456768D01*
X21058219Y-2451875D01*
X21047351Y-2445600D01*
X21028352Y-2445600D01*
X21028350Y-2445600D01*
X19736650Y-2445600D01*
X19730622Y-2445600D01*
X19730614Y-2445601D01*
X19717647Y-2445601D01*
X19706776Y-2451876D01*
X19694967Y-2456768D01*
X19682842Y-2460017D01*
X19682839Y-2460019D01*
X19663787Y-2479069D01*
X19663781Y-2479077D01*
X19218454Y-2924405D01*
X19205020Y-2937839D01*
X19205016Y-2937846D01*
X19201768Y-2949966D01*
X19196876Y-2961777D01*
X19190600Y-2972647D01*
X19190600Y-4261962D01*
X19176248Y-4296610D01*
X18596523Y-4876334D01*
X18561875Y-4890686D01*
X18549019Y-4886787D01*
X18548887Y-4887454D01*
X18483764Y-4874500D01*
X18483762Y-4874500D01*
X17346238Y-4874500D01*
X17304893Y-4882724D01*
X17268111Y-4875407D01*
X17247275Y-4844224D01*
X17247276Y-4825105D01*
X17247359Y-4824691D01*
X17255500Y-4783762D01*
X17255500Y-3646238D01*
X17255500Y-3646235D01*
X17244447Y-3590672D01*
X17244447Y-3590671D01*
X17202343Y-3527657D01*
X17176177Y-3510173D01*
X17155341Y-3478990D01*
X17154400Y-3469431D01*
X17154400Y-3389849D01*
X17168752Y-3355201D01*
X17181155Y-3346190D01*
X17212267Y-3330337D01*
X17212266Y-3330337D01*
X17212269Y-3330336D01*
X17302957Y-3239647D01*
X17337602Y-3225297D01*
X17372251Y-3239648D01*
X17372251Y-3239649D01*
X17447508Y-3314906D01*
X17530060Y-3353400D01*
X17553141Y-3364163D01*
X17601276Y-3370500D01*
X17602876Y-3370500D01*
X17957124Y-3370500D01*
X17958724Y-3370500D01*
X18006859Y-3364163D01*
X18112491Y-3314906D01*
X18194906Y-3232491D01*
X18244163Y-3126859D01*
X18250500Y-3078724D01*
X18250500Y-2661276D01*
X18244163Y-2613141D01*
X18226083Y-2574369D01*
X18194906Y-2507508D01*
X18112491Y-2425093D01*
X18006860Y-2375837D01*
X17960308Y-2369708D01*
X17960299Y-2369707D01*
X17958724Y-2369500D01*
X17601276Y-2369500D01*
X17599701Y-2369707D01*
X17599691Y-2369708D01*
X17553139Y-2375837D01*
X17447508Y-2425093D01*
X17365093Y-2507508D01*
X17315837Y-2613139D01*
X17312565Y-2637996D01*
X17293813Y-2670475D01*
X17263984Y-2680600D01*
X17263501Y-2680600D01*
X17228853Y-2666248D01*
X17228852Y-2666247D01*
X17212269Y-2649663D01*
X17094998Y-2589910D01*
X16965000Y-2569320D01*
X16835001Y-2589910D01*
X16717729Y-2649664D01*
X16624664Y-2742729D01*
X16564910Y-2860001D01*
X16544320Y-2990000D01*
X16564910Y-3119998D01*
X16624664Y-3237270D01*
X16717730Y-3330336D01*
X16748845Y-3346190D01*
X16773202Y-3374707D01*
X16775600Y-3389849D01*
X16775600Y-3433061D01*
X16761248Y-3467709D01*
X16726600Y-3482061D01*
X16717041Y-3481119D01*
X16683765Y-3474500D01*
X16683762Y-3474500D01*
X16446238Y-3474500D01*
X16446236Y-3474500D01*
X16381113Y-3487454D01*
X16380973Y-3486754D01*
X16355438Y-3491832D01*
X16341155Y-3485916D01*
X16283764Y-3474500D01*
X16283762Y-3474500D01*
X16046238Y-3474500D01*
X16046236Y-3474500D01*
X15981113Y-3487454D01*
X15980973Y-3486754D01*
X15955438Y-3491832D01*
X15941155Y-3485916D01*
X15883764Y-3474500D01*
X15883762Y-3474500D01*
X15646238Y-3474500D01*
X15646236Y-3474500D01*
X15581113Y-3487454D01*
X15580973Y-3486754D01*
X15555438Y-3491832D01*
X15541155Y-3485916D01*
X15483764Y-3474500D01*
X15483762Y-3474500D01*
X15246238Y-3474500D01*
X15246236Y-3474500D01*
X15181113Y-3487454D01*
X15180973Y-3486754D01*
X15155438Y-3491832D01*
X15141155Y-3485916D01*
X15083764Y-3474500D01*
X15083762Y-3474500D01*
X14846238Y-3474500D01*
X14846236Y-3474500D01*
X14781113Y-3487454D01*
X14780973Y-3486754D01*
X14755438Y-3491832D01*
X14741155Y-3485916D01*
X14683764Y-3474500D01*
X14683762Y-3474500D01*
X14446238Y-3474500D01*
X14446236Y-3474500D01*
X14381113Y-3487454D01*
X14380973Y-3486754D01*
X14355438Y-3491832D01*
X14341155Y-3485916D01*
X14283764Y-3474500D01*
X14283762Y-3474500D01*
X14046238Y-3474500D01*
X14046236Y-3474500D01*
X13981113Y-3487454D01*
X13980973Y-3486754D01*
X13955438Y-3491832D01*
X13941155Y-3485916D01*
X13883764Y-3474500D01*
X13883762Y-3474500D01*
X13646238Y-3474500D01*
X13646235Y-3474500D01*
X13612959Y-3481119D01*
X13576177Y-3473803D01*
X13555342Y-3442620D01*
X13554400Y-3433061D01*
X13554400Y-3398747D01*
X13568751Y-3364100D01*
X13640415Y-3292436D01*
X13675061Y-3278085D01*
X13682714Y-3278687D01*
X13790000Y-3295679D01*
X13919997Y-3275090D01*
X14037269Y-3215336D01*
X14081555Y-3171049D01*
X14116203Y-3156698D01*
X14150851Y-3171049D01*
X14160612Y-3184990D01*
X14185093Y-3237491D01*
X14267508Y-3319906D01*
X14334409Y-3351102D01*
X14373141Y-3369163D01*
X14421276Y-3375500D01*
X14422876Y-3375500D01*
X14777124Y-3375500D01*
X14778724Y-3375500D01*
X14826859Y-3369163D01*
X14932491Y-3319906D01*
X15014906Y-3237491D01*
X15064163Y-3131859D01*
X15070500Y-3083724D01*
X15070500Y-2666276D01*
X15064163Y-2618141D01*
X15050439Y-2588710D01*
X15014906Y-2512508D01*
X14932491Y-2430093D01*
X14826860Y-2380837D01*
X14780308Y-2374708D01*
X14780299Y-2374707D01*
X14778724Y-2374500D01*
X14421276Y-2374500D01*
X14419701Y-2374707D01*
X14419691Y-2374708D01*
X14373139Y-2380837D01*
X14267508Y-2430093D01*
X14185093Y-2512508D01*
X14160612Y-2565009D01*
X14132962Y-2590346D01*
X14095495Y-2588710D01*
X14081555Y-2578949D01*
X14037270Y-2534664D01*
X13919998Y-2474909D01*
X13823286Y-2459592D01*
X13791309Y-2439996D01*
X13782554Y-2403530D01*
X13796301Y-2376549D01*
X13893000Y-2279850D01*
X13927648Y-2265499D01*
X14969898Y-2265499D01*
X14999213Y-2259669D01*
X15006057Y-2255096D01*
X15032457Y-2237457D01*
X15054669Y-2204213D01*
X15060500Y-2174899D01*
X15060499Y-155102D01*
X15054669Y-125787D01*
X15054668Y-125786D01*
X15054325Y-124058D01*
X15061643Y-87275D01*
X15092826Y-66441D01*
X15102384Y-65500D01*
X15538611Y-65500D01*
X15573259Y-79852D01*
G37*
%TD.AperFunction*%
%TA.AperFunction,Conductor*%
G36*
X25910148Y-79852D02*
G01*
X25924500Y-114500D01*
X25924500Y-8508610D01*
X25910148Y-8543258D01*
X25875500Y-8557610D01*
X25865941Y-8556669D01*
X25850403Y-8553578D01*
X25829899Y-8549500D01*
X25829897Y-8549500D01*
X24286937Y-8549500D01*
X24252289Y-8535148D01*
X24182165Y-8465024D01*
X24182164Y-8465024D01*
X24172160Y-8455020D01*
X24172159Y-8455019D01*
X24160033Y-8451769D01*
X24148220Y-8446876D01*
X24137352Y-8440601D01*
X24118353Y-8440601D01*
X24118351Y-8440601D01*
X23682913Y-8440601D01*
X23648265Y-8426249D01*
X23634332Y-8397995D01*
X23629259Y-8359454D01*
X23580747Y-8255421D01*
X23499579Y-8174253D01*
X23395546Y-8125742D01*
X23349723Y-8119709D01*
X23349714Y-8119708D01*
X23348139Y-8119501D01*
X23346538Y-8119501D01*
X22903463Y-8119501D01*
X22903447Y-8119501D01*
X22901862Y-8119502D01*
X22900276Y-8119710D01*
X22900272Y-8119711D01*
X22854453Y-8125741D01*
X22750420Y-8174253D01*
X22669252Y-8255421D01*
X22620741Y-8359454D01*
X22614708Y-8405277D01*
X22614707Y-8405287D01*
X22614500Y-8406862D01*
X22614500Y-8408461D01*
X22614500Y-8408462D01*
X22614500Y-8751537D01*
X22614500Y-8751552D01*
X22614501Y-8753139D01*
X22614709Y-8754725D01*
X22614710Y-8754728D01*
X22620740Y-8800547D01*
X22669252Y-8904580D01*
X22750420Y-8985748D01*
X22835884Y-9025600D01*
X22854455Y-9034260D01*
X22901861Y-9040501D01*
X23348138Y-9040500D01*
X23389377Y-9035071D01*
X23395546Y-9034260D01*
X23499579Y-8985748D01*
X23580747Y-8904580D01*
X23582460Y-8900907D01*
X23626091Y-8807338D01*
X23653741Y-8782002D01*
X23691208Y-8783638D01*
X23716545Y-8811288D01*
X23719500Y-8828047D01*
X23719500Y-9351953D01*
X23705148Y-9386601D01*
X23670500Y-9400953D01*
X23635852Y-9386601D01*
X23626091Y-9372661D01*
X23580747Y-9275421D01*
X23499579Y-9194253D01*
X23395546Y-9145742D01*
X23349723Y-9139709D01*
X23349714Y-9139708D01*
X23348139Y-9139501D01*
X23346538Y-9139501D01*
X22903463Y-9139501D01*
X22903447Y-9139501D01*
X22901862Y-9139502D01*
X22900276Y-9139710D01*
X22900272Y-9139711D01*
X22854453Y-9145741D01*
X22750420Y-9194253D01*
X22669252Y-9275421D01*
X22620741Y-9379454D01*
X22614708Y-9425277D01*
X22614707Y-9425287D01*
X22614500Y-9426862D01*
X22614500Y-9595679D01*
X22614501Y-9721600D01*
X22600149Y-9756248D01*
X22565501Y-9770600D01*
X21589387Y-9770600D01*
X21554739Y-9756248D01*
X21540387Y-9721600D01*
X21544978Y-9700892D01*
X21576933Y-9632363D01*
X21584163Y-9616859D01*
X21590500Y-9568724D01*
X21590500Y-9151276D01*
X21584163Y-9103141D01*
X21557628Y-9046236D01*
X21534906Y-8997508D01*
X21452491Y-8915093D01*
X21346860Y-8865837D01*
X21335066Y-8864284D01*
X21310730Y-8861080D01*
X21278252Y-8842329D01*
X21268546Y-8806104D01*
X21287298Y-8773625D01*
X21310730Y-8763919D01*
X21346859Y-8759163D01*
X21452491Y-8709906D01*
X21534906Y-8627491D01*
X21584163Y-8521859D01*
X21590500Y-8473724D01*
X21590500Y-8056276D01*
X21584163Y-8008141D01*
X21562292Y-7961238D01*
X21534906Y-7902508D01*
X21452491Y-7820093D01*
X21346860Y-7770837D01*
X21300308Y-7764708D01*
X21300299Y-7764707D01*
X21298724Y-7764500D01*
X20975560Y-7764500D01*
X20940912Y-7750148D01*
X20926560Y-7715500D01*
X20940912Y-7680852D01*
X21357411Y-7264352D01*
X21392059Y-7250000D01*
X21493765Y-7250000D01*
X21549326Y-7238948D01*
X21549326Y-7238947D01*
X21549329Y-7238947D01*
X21557776Y-7233302D01*
X21594556Y-7225985D01*
X21612221Y-7233302D01*
X21620670Y-7238947D01*
X21676235Y-7250000D01*
X21676238Y-7250000D01*
X21993765Y-7250000D01*
X22027102Y-7243368D01*
X22049329Y-7238947D01*
X22112343Y-7196843D01*
X22154447Y-7133829D01*
X22165500Y-7078262D01*
X22165500Y-6997900D01*
X22179852Y-6963252D01*
X22214500Y-6948900D01*
X22651206Y-6948900D01*
X22685854Y-6963252D01*
X22772508Y-7049906D01*
X22833323Y-7078264D01*
X22878141Y-7099163D01*
X22926276Y-7105500D01*
X22927876Y-7105500D01*
X23342124Y-7105500D01*
X23343724Y-7105500D01*
X23391859Y-7099163D01*
X23497491Y-7049906D01*
X23579906Y-6967491D01*
X23629163Y-6861859D01*
X23635500Y-6813724D01*
X23635500Y-6534087D01*
X23649851Y-6499440D01*
X23943618Y-6205673D01*
X23978267Y-6191321D01*
X23988651Y-6191321D01*
X24023299Y-6205673D01*
X24034467Y-6222946D01*
X24043350Y-6246370D01*
X24083052Y-6303887D01*
X24138606Y-6384370D01*
X24264119Y-6495565D01*
X24412595Y-6573491D01*
X24575406Y-6613621D01*
X24743090Y-6613621D01*
X24905901Y-6573491D01*
X25054377Y-6495565D01*
X25179890Y-6384370D01*
X25275146Y-6246369D01*
X25334607Y-6089582D01*
X25354819Y-5923121D01*
X25334607Y-5756660D01*
X25328034Y-5739329D01*
X25309896Y-5691502D01*
X25275146Y-5599873D01*
X25197139Y-5486862D01*
X25179890Y-5461872D01*
X25162241Y-5446236D01*
X25054377Y-5350677D01*
X25017851Y-5331506D01*
X24993843Y-5302699D01*
X24997236Y-5265350D01*
X25017850Y-5244735D01*
X25054377Y-5225565D01*
X25179890Y-5114370D01*
X25275146Y-4976369D01*
X25334607Y-4819582D01*
X25354819Y-4653121D01*
X25334607Y-4486660D01*
X25327098Y-4466861D01*
X25299392Y-4393805D01*
X25275146Y-4329873D01*
X25179890Y-4191872D01*
X25054377Y-4080677D01*
X25017851Y-4061506D01*
X24993843Y-4032699D01*
X24997236Y-3995350D01*
X25017850Y-3974735D01*
X25054377Y-3955565D01*
X25179890Y-3844370D01*
X25275146Y-3706369D01*
X25334607Y-3549582D01*
X25354819Y-3383121D01*
X25334607Y-3216660D01*
X25334246Y-3215709D01*
X25312581Y-3158583D01*
X25275146Y-3059873D01*
X25179890Y-2921872D01*
X25054377Y-2810677D01*
X25017851Y-2791506D01*
X24993843Y-2762699D01*
X24997236Y-2725350D01*
X25017850Y-2704735D01*
X25054377Y-2685565D01*
X25179890Y-2574370D01*
X25275146Y-2436369D01*
X25334607Y-2279582D01*
X25354819Y-2113121D01*
X25336725Y-1964103D01*
X25334607Y-1946659D01*
X25294349Y-1840508D01*
X25275146Y-1789873D01*
X25267405Y-1778659D01*
X25179890Y-1651872D01*
X25140527Y-1616999D01*
X25054377Y-1540677D01*
X25017851Y-1521506D01*
X24993843Y-1492699D01*
X24997236Y-1455350D01*
X25017850Y-1434735D01*
X25054377Y-1415565D01*
X25179890Y-1304370D01*
X25275146Y-1166369D01*
X25334607Y-1009582D01*
X25354819Y-843121D01*
X25334607Y-676660D01*
X25275146Y-519873D01*
X25179890Y-381872D01*
X25054377Y-270677D01*
X25005928Y-245249D01*
X24905902Y-192751D01*
X24781450Y-162076D01*
X24751244Y-139849D01*
X24745601Y-102773D01*
X24767828Y-72567D01*
X24793177Y-65500D01*
X25875500Y-65500D01*
X25910148Y-79852D01*
G37*
%TD.AperFunction*%
%TD*%
M02*
